<?xml version="1.0" encoding="utf-8" standalone="no"?>
<!DOCTYPE svg PUBLIC "-//W3C//DTD SVG 1.1//EN"
  "http://www.w3.org/Graphics/SVG/1.1/DTD/svg11.dtd">
<!-- Created with matplotlib (http://matplotlib.org/) -->
<svg height="355pt" version="1.1" viewBox="0 0 483 355" width="483pt" xmlns="http://www.w3.org/2000/svg" xmlns:xlink="http://www.w3.org/1999/xlink">
 <defs>
  <style type="text/css">
*{stroke-linecap:butt;stroke-linejoin:round;}
  </style>
 </defs>
 <g id="figure_1">
  <g id="patch_1">
   <path d="M 0 355.496638 
L 483.758438 355.496638 
L 483.758438 0 
L 0 0 
z
" style="fill:none;"/>
  </g>
  <g id="axes_1">
   <g id="patch_2">
    <path d="M 65.254688 157.0616 
L 467.014688 157.0616 
L 467.014688 10.7 
L 65.254688 10.7 
z
" style="fill:none;"/>
   </g>
   <g id="matplotlib.axis_1">
    <g id="xtick_1">
     <g id="line2d_1">
      <path clip-path="url(#p056be913fa)" d="M 65.254688 157.0616 
L 65.254688 10.7 
" style="fill:none;stroke:#b0b0b0;stroke-linecap:square;stroke-width:0.8;"/>
     </g>
     <g id="line2d_2">
      <defs>
       <path d="M 0 0 
L 0 3.5 
" id="m935fe5f94d" style="stroke:#000000;stroke-width:0.8;"/>
      </defs>
      <g>
       <use style="stroke:#000000;stroke-width:0.8;" x="65.254688" xlink:href="#m935fe5f94d" y="157.0616"/>
      </g>
     </g>
    </g>
    <g id="xtick_2">
     <g id="line2d_3">
      <path clip-path="url(#p056be913fa)" d="M 122.648973 157.0616 
L 122.648973 10.7 
" style="fill:none;stroke:#b0b0b0;stroke-linecap:square;stroke-width:0.8;"/>
     </g>
     <g id="line2d_4">
      <g>
       <use style="stroke:#000000;stroke-width:0.8;" x="122.648973" xlink:href="#m935fe5f94d" y="157.0616"/>
      </g>
     </g>
    </g>
    <g id="xtick_3">
     <g id="line2d_5">
      <path clip-path="url(#p056be913fa)" d="M 180.043259 157.0616 
L 180.043259 10.7 
" style="fill:none;stroke:#b0b0b0;stroke-linecap:square;stroke-width:0.8;"/>
     </g>
     <g id="line2d_6">
      <g>
       <use style="stroke:#000000;stroke-width:0.8;" x="180.043259" xlink:href="#m935fe5f94d" y="157.0616"/>
      </g>
     </g>
    </g>
    <g id="xtick_4">
     <g id="line2d_7">
      <path clip-path="url(#p056be913fa)" d="M 237.437545 157.0616 
L 237.437545 10.7 
" style="fill:none;stroke:#b0b0b0;stroke-linecap:square;stroke-width:0.8;"/>
     </g>
     <g id="line2d_8">
      <g>
       <use style="stroke:#000000;stroke-width:0.8;" x="237.437545" xlink:href="#m935fe5f94d" y="157.0616"/>
      </g>
     </g>
    </g>
    <g id="xtick_5">
     <g id="line2d_9">
      <path clip-path="url(#p056be913fa)" d="M 294.83183 157.0616 
L 294.83183 10.7 
" style="fill:none;stroke:#b0b0b0;stroke-linecap:square;stroke-width:0.8;"/>
     </g>
     <g id="line2d_10">
      <g>
       <use style="stroke:#000000;stroke-width:0.8;" x="294.83183" xlink:href="#m935fe5f94d" y="157.0616"/>
      </g>
     </g>
    </g>
    <g id="xtick_6">
     <g id="line2d_11">
      <path clip-path="url(#p056be913fa)" d="M 352.226116 157.0616 
L 352.226116 10.7 
" style="fill:none;stroke:#b0b0b0;stroke-linecap:square;stroke-width:0.8;"/>
     </g>
     <g id="line2d_12">
      <g>
       <use style="stroke:#000000;stroke-width:0.8;" x="352.226116" xlink:href="#m935fe5f94d" y="157.0616"/>
      </g>
     </g>
    </g>
    <g id="xtick_7">
     <g id="line2d_13">
      <path clip-path="url(#p056be913fa)" d="M 409.620402 157.0616 
L 409.620402 10.7 
" style="fill:none;stroke:#b0b0b0;stroke-linecap:square;stroke-width:0.8;"/>
     </g>
     <g id="line2d_14">
      <g>
       <use style="stroke:#000000;stroke-width:0.8;" x="409.620402" xlink:href="#m935fe5f94d" y="157.0616"/>
      </g>
     </g>
    </g>
    <g id="xtick_8">
     <g id="line2d_15">
      <path clip-path="url(#p056be913fa)" d="M 467.014688 157.0616 
L 467.014688 10.7 
" style="fill:none;stroke:#b0b0b0;stroke-linecap:square;stroke-width:0.8;"/>
     </g>
     <g id="line2d_16">
      <g>
       <use style="stroke:#000000;stroke-width:0.8;" x="467.014688" xlink:href="#m935fe5f94d" y="157.0616"/>
      </g>
     </g>
    </g>
   </g>
   <g id="matplotlib.axis_2">
    <g id="ytick_1">
     <g id="line2d_17">
      <path clip-path="url(#p056be913fa)" d="M 65.254688 157.0616 
L 467.014688 157.0616 
" style="fill:none;stroke:#b0b0b0;stroke-linecap:square;stroke-width:0.8;"/>
     </g>
     <g id="line2d_18">
      <defs>
       <path d="M 0 0 
L -3.5 0 
" id="m5a449fcd67" style="stroke:#000000;stroke-width:0.8;"/>
      </defs>
      <g>
       <use style="stroke:#000000;stroke-width:0.8;" x="65.254688" xlink:href="#m5a449fcd67" y="157.0616"/>
      </g>
     </g>
     <g id="text_1">
      <!-- 0.0 -->
      <defs>
       <path d="M 31.78125 66.40625 
Q 24.171875 66.40625 20.328125 58.90625 
Q 16.5 51.421875 16.5 36.375 
Q 16.5 21.390625 20.328125 13.890625 
Q 24.171875 6.390625 31.78125 6.390625 
Q 39.453125 6.390625 43.28125 13.890625 
Q 47.125 21.390625 47.125 36.375 
Q 47.125 51.421875 43.28125 58.90625 
Q 39.453125 66.40625 31.78125 66.40625 
z
M 31.78125 74.21875 
Q 44.046875 74.21875 50.515625 64.515625 
Q 56.984375 54.828125 56.984375 36.375 
Q 56.984375 17.96875 50.515625 8.265625 
Q 44.046875 -1.421875 31.78125 -1.421875 
Q 19.53125 -1.421875 13.0625 8.265625 
Q 6.59375 17.96875 6.59375 36.375 
Q 6.59375 54.828125 13.0625 64.515625 
Q 19.53125 74.21875 31.78125 74.21875 
z
" id="DejaVuSans-30"/>
       <path d="M 10.6875 12.40625 
L 21 12.40625 
L 21 0 
L 10.6875 0 
z
" id="DejaVuSans-2e"/>
      </defs>
      <g transform="translate(34.4 162.760428)scale(0.15 -0.15)">
       <use xlink:href="#DejaVuSans-30"/>
       <use x="63.623047" xlink:href="#DejaVuSans-2e"/>
       <use x="95.410156" xlink:href="#DejaVuSans-30"/>
      </g>
     </g>
    </g>
    <g id="ytick_2">
     <g id="line2d_19">
      <path clip-path="url(#p056be913fa)" d="M 65.254688 118.03184 
L 467.014688 118.03184 
" style="fill:none;stroke:#b0b0b0;stroke-linecap:square;stroke-width:0.8;"/>
     </g>
     <g id="line2d_20">
      <g>
       <use style="stroke:#000000;stroke-width:0.8;" x="65.254688" xlink:href="#m5a449fcd67" y="118.03184"/>
      </g>
     </g>
     <g id="text_2">
      <!-- 0.2 -->
      <defs>
       <path d="M 19.1875 8.296875 
L 53.609375 8.296875 
L 53.609375 0 
L 7.328125 0 
L 7.328125 8.296875 
Q 12.9375 14.109375 22.625 23.890625 
Q 32.328125 33.6875 34.8125 36.53125 
Q 39.546875 41.84375 41.421875 45.53125 
Q 43.3125 49.21875 43.3125 52.78125 
Q 43.3125 58.59375 39.234375 62.25 
Q 35.15625 65.921875 28.609375 65.921875 
Q 23.96875 65.921875 18.8125 64.3125 
Q 13.671875 62.703125 7.8125 59.421875 
L 7.8125 69.390625 
Q 13.765625 71.78125 18.9375 73 
Q 24.125 74.21875 28.421875 74.21875 
Q 39.75 74.21875 46.484375 68.546875 
Q 53.21875 62.890625 53.21875 53.421875 
Q 53.21875 48.921875 51.53125 44.890625 
Q 49.859375 40.875 45.40625 35.40625 
Q 44.1875 33.984375 37.640625 27.21875 
Q 31.109375 20.453125 19.1875 8.296875 
z
" id="DejaVuSans-32"/>
      </defs>
      <g transform="translate(34.4 123.730668)scale(0.15 -0.15)">
       <use xlink:href="#DejaVuSans-30"/>
       <use x="63.623047" xlink:href="#DejaVuSans-2e"/>
       <use x="95.410156" xlink:href="#DejaVuSans-32"/>
      </g>
     </g>
    </g>
    <g id="ytick_3">
     <g id="line2d_21">
      <path clip-path="url(#p056be913fa)" d="M 65.254688 79.00208 
L 467.014688 79.00208 
" style="fill:none;stroke:#b0b0b0;stroke-linecap:square;stroke-width:0.8;"/>
     </g>
     <g id="line2d_22">
      <g>
       <use style="stroke:#000000;stroke-width:0.8;" x="65.254688" xlink:href="#m5a449fcd67" y="79.00208"/>
      </g>
     </g>
     <g id="text_3">
      <!-- 0.4 -->
      <defs>
       <path d="M 37.796875 64.3125 
L 12.890625 25.390625 
L 37.796875 25.390625 
z
M 35.203125 72.90625 
L 47.609375 72.90625 
L 47.609375 25.390625 
L 58.015625 25.390625 
L 58.015625 17.1875 
L 47.609375 17.1875 
L 47.609375 0 
L 37.796875 0 
L 37.796875 17.1875 
L 4.890625 17.1875 
L 4.890625 26.703125 
z
" id="DejaVuSans-34"/>
      </defs>
      <g transform="translate(34.4 84.700908)scale(0.15 -0.15)">
       <use xlink:href="#DejaVuSans-30"/>
       <use x="63.623047" xlink:href="#DejaVuSans-2e"/>
       <use x="95.410156" xlink:href="#DejaVuSans-34"/>
      </g>
     </g>
    </g>
    <g id="ytick_4">
     <g id="line2d_23">
      <path clip-path="url(#p056be913fa)" d="M 65.254688 39.97232 
L 467.014688 39.97232 
" style="fill:none;stroke:#b0b0b0;stroke-linecap:square;stroke-width:0.8;"/>
     </g>
     <g id="line2d_24">
      <g>
       <use style="stroke:#000000;stroke-width:0.8;" x="65.254688" xlink:href="#m5a449fcd67" y="39.97232"/>
      </g>
     </g>
     <g id="text_4">
      <!-- 0.6 -->
      <defs>
       <path d="M 33.015625 40.375 
Q 26.375 40.375 22.484375 35.828125 
Q 18.609375 31.296875 18.609375 23.390625 
Q 18.609375 15.53125 22.484375 10.953125 
Q 26.375 6.390625 33.015625 6.390625 
Q 39.65625 6.390625 43.53125 10.953125 
Q 47.40625 15.53125 47.40625 23.390625 
Q 47.40625 31.296875 43.53125 35.828125 
Q 39.65625 40.375 33.015625 40.375 
z
M 52.59375 71.296875 
L 52.59375 62.3125 
Q 48.875 64.0625 45.09375 64.984375 
Q 41.3125 65.921875 37.59375 65.921875 
Q 27.828125 65.921875 22.671875 59.328125 
Q 17.53125 52.734375 16.796875 39.40625 
Q 19.671875 43.65625 24.015625 45.921875 
Q 28.375 48.1875 33.59375 48.1875 
Q 44.578125 48.1875 50.953125 41.515625 
Q 57.328125 34.859375 57.328125 23.390625 
Q 57.328125 12.15625 50.6875 5.359375 
Q 44.046875 -1.421875 33.015625 -1.421875 
Q 20.359375 -1.421875 13.671875 8.265625 
Q 6.984375 17.96875 6.984375 36.375 
Q 6.984375 53.65625 15.1875 63.9375 
Q 23.390625 74.21875 37.203125 74.21875 
Q 40.921875 74.21875 44.703125 73.484375 
Q 48.484375 72.75 52.59375 71.296875 
z
" id="DejaVuSans-36"/>
      </defs>
      <g transform="translate(34.4 45.671148)scale(0.15 -0.15)">
       <use xlink:href="#DejaVuSans-30"/>
       <use x="63.623047" xlink:href="#DejaVuSans-2e"/>
       <use x="95.410156" xlink:href="#DejaVuSans-36"/>
      </g>
     </g>
    </g>
    <g id="text_5">
     <!-- $|\langle n |e^{ikr}| n + \Delta n \rangle|$ -->
     <defs>
      <path d="M 21 76.421875 
L 21 -23.578125 
L 12.703125 -23.578125 
L 12.703125 76.421875 
z
" id="DejaVuSans-7c"/>
      <path d="M 8.9375 31.34375 
L 22.703125 75.875 
L 31 75.875 
L 17.234375 31.34375 
L 31 -13.1875 
L 22.703125 -13.1875 
z
" id="DejaVuSans-27e8"/>
      <path d="M 55.71875 33.015625 
L 49.3125 0 
L 40.28125 0 
L 46.6875 32.671875 
Q 47.125 34.96875 47.359375 36.71875 
Q 47.609375 38.484375 47.609375 39.5 
Q 47.609375 43.609375 45.015625 45.890625 
Q 42.4375 48.1875 37.796875 48.1875 
Q 30.5625 48.1875 25.34375 43.375 
Q 20.125 38.578125 18.5 30.328125 
L 12.5 0 
L 3.515625 0 
L 14.109375 54.6875 
L 23.09375 54.6875 
L 21.296875 46.09375 
Q 25.046875 50.828125 30.3125 53.40625 
Q 35.59375 56 41.40625 56 
Q 48.640625 56 52.609375 52.09375 
Q 56.59375 48.1875 56.59375 41.109375 
Q 56.59375 39.359375 56.375 37.359375 
Q 56.15625 35.359375 55.71875 33.015625 
z
" id="DejaVuSans-Oblique-6e"/>
      <path d="M 48.09375 32.234375 
Q 48.25 33.015625 48.3125 33.84375 
Q 48.390625 34.671875 48.390625 35.5 
Q 48.390625 41.453125 44.890625 44.921875 
Q 41.40625 48.390625 35.40625 48.390625 
Q 28.71875 48.390625 23.578125 44.15625 
Q 18.453125 39.9375 15.828125 32.171875 
z
M 55.90625 25.203125 
L 14.109375 25.203125 
Q 13.8125 23.34375 13.71875 22.265625 
Q 13.625 21.1875 13.625 20.40625 
Q 13.625 13.625 17.796875 9.90625 
Q 21.96875 6.203125 29.59375 6.203125 
Q 35.453125 6.203125 40.671875 7.515625 
Q 45.90625 8.84375 50.390625 11.375 
L 48.6875 2.484375 
Q 43.84375 0.53125 38.6875 -0.4375 
Q 33.546875 -1.421875 28.21875 -1.421875 
Q 16.84375 -1.421875 10.71875 4.015625 
Q 4.59375 9.46875 4.59375 19.484375 
Q 4.59375 28.03125 7.640625 35.375 
Q 10.6875 42.71875 16.609375 48.484375 
Q 20.40625 52.09375 25.65625 54.046875 
Q 30.90625 56 36.8125 56 
Q 46.09375 56 51.578125 50.4375 
Q 57.078125 44.875 57.078125 35.5 
Q 57.078125 33.25 56.78125 30.6875 
Q 56.5 28.125 55.90625 25.203125 
z
" id="DejaVuSans-Oblique-65"/>
      <path d="M 18.3125 75.984375 
L 27.296875 75.984375 
L 25.09375 64.59375 
L 16.109375 64.59375 
z
M 14.203125 54.6875 
L 23.1875 54.6875 
L 12.5 0 
L 3.515625 0 
z
" id="DejaVuSans-Oblique-69"/>
      <path d="M 18.3125 75.984375 
L 27.296875 75.984375 
L 18.703125 31.6875 
L 49.515625 54.6875 
L 61.1875 54.6875 
L 26.8125 28.515625 
L 51.90625 0 
L 41.015625 0 
L 17.671875 26.703125 
L 12.5 0 
L 3.515625 0 
z
" id="DejaVuSans-Oblique-6b"/>
      <path d="M 44.578125 46.390625 
Q 43.21875 47.125 41.453125 47.515625 
Q 39.703125 47.90625 37.703125 47.90625 
Q 30.515625 47.90625 25.140625 42.453125 
Q 19.78125 37.015625 18.015625 27.875 
L 12.5 0 
L 3.515625 0 
L 14.203125 54.6875 
L 23.1875 54.6875 
L 21.484375 46.1875 
Q 25.046875 50.921875 30 53.453125 
Q 34.96875 56 40.578125 56 
Q 42.046875 56 43.453125 55.828125 
Q 44.875 55.671875 46.296875 55.28125 
z
" id="DejaVuSans-Oblique-72"/>
      <path d="M 46 62.703125 
L 46 35.5 
L 73.1875 35.5 
L 73.1875 27.203125 
L 46 27.203125 
L 46 0 
L 37.796875 0 
L 37.796875 27.203125 
L 10.59375 27.203125 
L 10.59375 35.5 
L 37.796875 35.5 
L 37.796875 62.703125 
z
" id="DejaVuSans-2b"/>
      <path d="M 34.1875 63.1875 
L 14.15625 8.203125 
L 54.25 8.203125 
z
M 0.78125 0 
L 28.609375 72.90625 
L 39.796875 72.90625 
L 67.578125 0 
z
" id="DejaVuSans-394"/>
      <path d="M 30.078125 31.34375 
L 16.3125 -13.1875 
L 8.015625 -13.1875 
L 21.78125 31.34375 
L 8.015625 75.875 
L 16.3125 75.875 
z
" id="DejaVuSans-27e9"/>
     </defs>
     <g transform="translate(25.6 159.0808)rotate(-90)scale(0.2 -0.2)">
      <use transform="translate(0 0.529687)" xlink:href="#DejaVuSans-7c"/>
      <use transform="translate(33.691406 0.529687)" xlink:href="#DejaVuSans-27e8"/>
      <use transform="translate(72.705078 0.529687)" xlink:href="#DejaVuSans-Oblique-6e"/>
      <use transform="translate(136.083984 0.529687)" xlink:href="#DejaVuSans-7c"/>
      <use transform="translate(169.775391 0.529687)" xlink:href="#DejaVuSans-Oblique-65"/>
      <use transform="translate(235.948724 38.810937)scale(0.7)" xlink:href="#DejaVuSans-Oblique-69"/>
      <use transform="translate(255.396966 38.810937)scale(0.7)" xlink:href="#DejaVuSans-Oblique-6b"/>
      <use transform="translate(295.934076 38.810937)scale(0.7)" xlink:href="#DejaVuSans-Oblique-72"/>
      <use transform="translate(327.447747 0.529687)" xlink:href="#DejaVuSans-7c"/>
      <use transform="translate(361.139154 0.529687)" xlink:href="#DejaVuSans-Oblique-6e"/>
      <use transform="translate(444.000482 0.529687)" xlink:href="#DejaVuSans-2b"/>
      <use transform="translate(547.271966 0.529687)" xlink:href="#DejaVuSans-394"/>
      <use transform="translate(615.680169 0.529687)" xlink:href="#DejaVuSans-Oblique-6e"/>
      <use transform="translate(679.059076 0.529687)" xlink:href="#DejaVuSans-27e9"/>
      <use transform="translate(718.072747 0.529687)" xlink:href="#DejaVuSans-7c"/>
     </g>
    </g>
   </g>
   <g id="line2d_25">
    <path clip-path="url(#p056be913fa)" d="M 65.254688 157.0616 
L 70.994116 80.283021 
L 76.733545 58.607376 
L 82.472973 48.112185 
L 88.212402 43.840023 
L 93.95183 43.639056 
L 99.691259 46.289108 
L 105.430688 50.9987 
L 111.170116 57.211677 
L 116.909545 64.516497 
L 122.648973 72.597764 
L 128.388402 81.2078 
L 134.12783 90.148756 
L 139.867259 99.260709 
L 145.606688 108.413397 
L 151.346116 117.500247 
L 157.085545 126.433945 
L 162.824973 135.14305 
L 168.564402 143.569354 
L 174.30383 151.665788 
L 180.043259 154.728473 
L 185.782688 147.396598 
L 191.522116 140.484448 
L 197.261545 134.008746 
L 203.000973 127.981089 
L 208.740402 122.408645 
L 214.47983 117.294753 
L 220.219259 112.63944 
L 225.958687 108.439871 
L 231.698116 104.690743 
L 237.437545 101.384627 
L 243.176973 98.512279 
L 248.916402 96.062901 
L 254.65583 94.024382 
L 260.395259 92.383509 
L 266.134688 91.126157 
L 271.874116 90.23745 
L 277.613545 89.701917 
L 283.352973 89.503621 
L 289.092402 89.626278 
L 294.83183 90.053364 
L 300.571259 90.76821 
L 306.310688 91.754082 
L 312.050116 92.994262 
L 317.789545 94.472113 
L 323.528973 96.171134 
L 329.268402 98.075019 
L 335.00783 100.167697 
L 340.747259 102.43338 
L 346.486688 104.856589 
L 352.226116 107.422197 
L 357.965545 110.115444 
L 363.704973 112.921969 
L 369.444402 115.827826 
L 375.18383 118.8195 
L 380.923259 121.883922 
L 386.662688 125.00848 
L 392.402116 128.181026 
L 398.141545 131.389884 
L 403.880973 134.623855 
L 409.620402 137.872216 
L 415.35983 141.124728 
L 421.099259 144.371627 
L 426.838688 147.603628 
L 432.578116 150.811921 
L 438.317545 153.988167 
L 444.056973 156.99871 
L 449.796402 153.909725 
L 455.53583 150.875042 
L 461.275259 147.901178 
L 467.014688 144.994215 
" style="fill:none;stroke:#1f77b4;stroke-linecap:square;stroke-width:1.5;"/>
    <defs>
     <path d="M 0 1.5 
C 0.397805 1.5 0.77937 1.341951 1.06066 1.06066 
C 1.341951 0.77937 1.5 0.397805 1.5 0 
C 1.5 -0.397805 1.341951 -0.77937 1.06066 -1.06066 
C 0.77937 -1.341951 0.397805 -1.5 0 -1.5 
C -0.397805 -1.5 -0.77937 -1.341951 -1.06066 -1.06066 
C -1.341951 -0.77937 -1.5 -0.397805 -1.5 0 
C -1.5 0.397805 -1.341951 0.77937 -1.06066 1.06066 
C -0.77937 1.341951 -0.397805 1.5 0 1.5 
z
" id="m18dafc4d0a" style="stroke:#1f77b4;"/>
    </defs>
    <g clip-path="url(#p056be913fa)">
     <use style="fill:#1f77b4;stroke:#1f77b4;" x="65.254688" xlink:href="#m18dafc4d0a" y="157.0616"/>
     <use style="fill:#1f77b4;stroke:#1f77b4;" x="70.994116" xlink:href="#m18dafc4d0a" y="80.283021"/>
     <use style="fill:#1f77b4;stroke:#1f77b4;" x="76.733545" xlink:href="#m18dafc4d0a" y="58.607376"/>
     <use style="fill:#1f77b4;stroke:#1f77b4;" x="82.472973" xlink:href="#m18dafc4d0a" y="48.112185"/>
     <use style="fill:#1f77b4;stroke:#1f77b4;" x="88.212402" xlink:href="#m18dafc4d0a" y="43.840023"/>
     <use style="fill:#1f77b4;stroke:#1f77b4;" x="93.95183" xlink:href="#m18dafc4d0a" y="43.639056"/>
     <use style="fill:#1f77b4;stroke:#1f77b4;" x="99.691259" xlink:href="#m18dafc4d0a" y="46.289108"/>
     <use style="fill:#1f77b4;stroke:#1f77b4;" x="105.430688" xlink:href="#m18dafc4d0a" y="50.9987"/>
     <use style="fill:#1f77b4;stroke:#1f77b4;" x="111.170116" xlink:href="#m18dafc4d0a" y="57.211677"/>
     <use style="fill:#1f77b4;stroke:#1f77b4;" x="116.909545" xlink:href="#m18dafc4d0a" y="64.516497"/>
     <use style="fill:#1f77b4;stroke:#1f77b4;" x="122.648973" xlink:href="#m18dafc4d0a" y="72.597764"/>
     <use style="fill:#1f77b4;stroke:#1f77b4;" x="128.388402" xlink:href="#m18dafc4d0a" y="81.2078"/>
     <use style="fill:#1f77b4;stroke:#1f77b4;" x="134.12783" xlink:href="#m18dafc4d0a" y="90.148756"/>
     <use style="fill:#1f77b4;stroke:#1f77b4;" x="139.867259" xlink:href="#m18dafc4d0a" y="99.260709"/>
     <use style="fill:#1f77b4;stroke:#1f77b4;" x="145.606688" xlink:href="#m18dafc4d0a" y="108.413397"/>
     <use style="fill:#1f77b4;stroke:#1f77b4;" x="151.346116" xlink:href="#m18dafc4d0a" y="117.500247"/>
     <use style="fill:#1f77b4;stroke:#1f77b4;" x="157.085545" xlink:href="#m18dafc4d0a" y="126.433945"/>
     <use style="fill:#1f77b4;stroke:#1f77b4;" x="162.824973" xlink:href="#m18dafc4d0a" y="135.14305"/>
     <use style="fill:#1f77b4;stroke:#1f77b4;" x="168.564402" xlink:href="#m18dafc4d0a" y="143.569354"/>
     <use style="fill:#1f77b4;stroke:#1f77b4;" x="174.30383" xlink:href="#m18dafc4d0a" y="151.665788"/>
     <use style="fill:#1f77b4;stroke:#1f77b4;" x="180.043259" xlink:href="#m18dafc4d0a" y="154.728473"/>
     <use style="fill:#1f77b4;stroke:#1f77b4;" x="185.782688" xlink:href="#m18dafc4d0a" y="147.396598"/>
     <use style="fill:#1f77b4;stroke:#1f77b4;" x="191.522116" xlink:href="#m18dafc4d0a" y="140.484448"/>
     <use style="fill:#1f77b4;stroke:#1f77b4;" x="197.261545" xlink:href="#m18dafc4d0a" y="134.008746"/>
     <use style="fill:#1f77b4;stroke:#1f77b4;" x="203.000973" xlink:href="#m18dafc4d0a" y="127.981089"/>
     <use style="fill:#1f77b4;stroke:#1f77b4;" x="208.740402" xlink:href="#m18dafc4d0a" y="122.408645"/>
     <use style="fill:#1f77b4;stroke:#1f77b4;" x="214.47983" xlink:href="#m18dafc4d0a" y="117.294753"/>
     <use style="fill:#1f77b4;stroke:#1f77b4;" x="220.219259" xlink:href="#m18dafc4d0a" y="112.63944"/>
     <use style="fill:#1f77b4;stroke:#1f77b4;" x="225.958687" xlink:href="#m18dafc4d0a" y="108.439871"/>
     <use style="fill:#1f77b4;stroke:#1f77b4;" x="231.698116" xlink:href="#m18dafc4d0a" y="104.690743"/>
     <use style="fill:#1f77b4;stroke:#1f77b4;" x="237.437545" xlink:href="#m18dafc4d0a" y="101.384627"/>
     <use style="fill:#1f77b4;stroke:#1f77b4;" x="243.176973" xlink:href="#m18dafc4d0a" y="98.512279"/>
     <use style="fill:#1f77b4;stroke:#1f77b4;" x="248.916402" xlink:href="#m18dafc4d0a" y="96.062901"/>
     <use style="fill:#1f77b4;stroke:#1f77b4;" x="254.65583" xlink:href="#m18dafc4d0a" y="94.024382"/>
     <use style="fill:#1f77b4;stroke:#1f77b4;" x="260.395259" xlink:href="#m18dafc4d0a" y="92.383509"/>
     <use style="fill:#1f77b4;stroke:#1f77b4;" x="266.134688" xlink:href="#m18dafc4d0a" y="91.126157"/>
     <use style="fill:#1f77b4;stroke:#1f77b4;" x="271.874116" xlink:href="#m18dafc4d0a" y="90.23745"/>
     <use style="fill:#1f77b4;stroke:#1f77b4;" x="277.613545" xlink:href="#m18dafc4d0a" y="89.701917"/>
     <use style="fill:#1f77b4;stroke:#1f77b4;" x="283.352973" xlink:href="#m18dafc4d0a" y="89.503621"/>
     <use style="fill:#1f77b4;stroke:#1f77b4;" x="289.092402" xlink:href="#m18dafc4d0a" y="89.626278"/>
     <use style="fill:#1f77b4;stroke:#1f77b4;" x="294.83183" xlink:href="#m18dafc4d0a" y="90.053364"/>
     <use style="fill:#1f77b4;stroke:#1f77b4;" x="300.571259" xlink:href="#m18dafc4d0a" y="90.76821"/>
     <use style="fill:#1f77b4;stroke:#1f77b4;" x="306.310688" xlink:href="#m18dafc4d0a" y="91.754082"/>
     <use style="fill:#1f77b4;stroke:#1f77b4;" x="312.050116" xlink:href="#m18dafc4d0a" y="92.994262"/>
     <use style="fill:#1f77b4;stroke:#1f77b4;" x="317.789545" xlink:href="#m18dafc4d0a" y="94.472113"/>
     <use style="fill:#1f77b4;stroke:#1f77b4;" x="323.528973" xlink:href="#m18dafc4d0a" y="96.171134"/>
     <use style="fill:#1f77b4;stroke:#1f77b4;" x="329.268402" xlink:href="#m18dafc4d0a" y="98.075019"/>
     <use style="fill:#1f77b4;stroke:#1f77b4;" x="335.00783" xlink:href="#m18dafc4d0a" y="100.167697"/>
     <use style="fill:#1f77b4;stroke:#1f77b4;" x="340.747259" xlink:href="#m18dafc4d0a" y="102.43338"/>
     <use style="fill:#1f77b4;stroke:#1f77b4;" x="346.486688" xlink:href="#m18dafc4d0a" y="104.856589"/>
     <use style="fill:#1f77b4;stroke:#1f77b4;" x="352.226116" xlink:href="#m18dafc4d0a" y="107.422197"/>
     <use style="fill:#1f77b4;stroke:#1f77b4;" x="357.965545" xlink:href="#m18dafc4d0a" y="110.115444"/>
     <use style="fill:#1f77b4;stroke:#1f77b4;" x="363.704973" xlink:href="#m18dafc4d0a" y="112.921969"/>
     <use style="fill:#1f77b4;stroke:#1f77b4;" x="369.444402" xlink:href="#m18dafc4d0a" y="115.827826"/>
     <use style="fill:#1f77b4;stroke:#1f77b4;" x="375.18383" xlink:href="#m18dafc4d0a" y="118.8195"/>
     <use style="fill:#1f77b4;stroke:#1f77b4;" x="380.923259" xlink:href="#m18dafc4d0a" y="121.883922"/>
     <use style="fill:#1f77b4;stroke:#1f77b4;" x="386.662688" xlink:href="#m18dafc4d0a" y="125.00848"/>
     <use style="fill:#1f77b4;stroke:#1f77b4;" x="392.402116" xlink:href="#m18dafc4d0a" y="128.181026"/>
     <use style="fill:#1f77b4;stroke:#1f77b4;" x="398.141545" xlink:href="#m18dafc4d0a" y="131.389884"/>
     <use style="fill:#1f77b4;stroke:#1f77b4;" x="403.880973" xlink:href="#m18dafc4d0a" y="134.623855"/>
     <use style="fill:#1f77b4;stroke:#1f77b4;" x="409.620402" xlink:href="#m18dafc4d0a" y="137.872216"/>
     <use style="fill:#1f77b4;stroke:#1f77b4;" x="415.35983" xlink:href="#m18dafc4d0a" y="141.124728"/>
     <use style="fill:#1f77b4;stroke:#1f77b4;" x="421.099259" xlink:href="#m18dafc4d0a" y="144.371627"/>
     <use style="fill:#1f77b4;stroke:#1f77b4;" x="426.838688" xlink:href="#m18dafc4d0a" y="147.603628"/>
     <use style="fill:#1f77b4;stroke:#1f77b4;" x="432.578116" xlink:href="#m18dafc4d0a" y="150.811921"/>
     <use style="fill:#1f77b4;stroke:#1f77b4;" x="438.317545" xlink:href="#m18dafc4d0a" y="153.988167"/>
     <use style="fill:#1f77b4;stroke:#1f77b4;" x="444.056973" xlink:href="#m18dafc4d0a" y="156.99871"/>
     <use style="fill:#1f77b4;stroke:#1f77b4;" x="449.796402" xlink:href="#m18dafc4d0a" y="153.909725"/>
     <use style="fill:#1f77b4;stroke:#1f77b4;" x="455.53583" xlink:href="#m18dafc4d0a" y="150.875042"/>
     <use style="fill:#1f77b4;stroke:#1f77b4;" x="461.275259" xlink:href="#m18dafc4d0a" y="147.901178"/>
     <use style="fill:#1f77b4;stroke:#1f77b4;" x="467.014688" xlink:href="#m18dafc4d0a" y="144.994215"/>
    </g>
   </g>
   <g id="line2d_26">
    <path clip-path="url(#p056be913fa)" d="M 65.254688 157.0616 
L 70.994116 157.0616 
L 76.733545 133.613659 
L 82.472973 118.973819 
L 88.212402 106.602038 
L 93.95183 96.107047 
L 99.691259 87.29364 
L 105.430688 80.014242 
L 111.170116 74.14099 
L 116.909545 69.557553 
L 122.648973 66.156008 
L 128.388402 63.835375 
L 134.12783 62.500807 
L 139.867259 62.063064 
L 145.606688 62.438136 
L 151.346116 63.546936 
L 157.085545 65.315039 
L 162.824973 67.672457 
L 168.564402 70.553422 
L 174.30383 73.896192 
L 180.043259 77.642866 
L 185.782688 81.739207 
L 191.522116 86.134476 
L 197.261545 90.781269 
L 203.000973 95.635365 
L 208.740402 100.655579 
L 214.47983 105.803618 
L 220.219259 111.043945 
L 225.958687 116.343649 
L 231.698116 121.672316 
L 237.437545 127.00191 
L 243.176973 132.306656 
L 248.916402 137.562924 
L 254.65583 142.749124 
L 260.395259 147.845603 
L 266.134688 152.834538 
L 271.874116 156.423352 
L 277.613545 151.696103 
L 283.352973 147.119797 
L 289.092402 142.705842 
L 294.83183 138.464259 
L 300.571259 134.403758 
L 306.310688 130.531815 
L 312.050116 126.854745 
L 317.789545 123.37777 
L 323.528973 120.105088 
L 329.268402 117.039934 
L 335.00783 114.184645 
L 340.747259 111.540716 
L 346.486688 109.108859 
L 352.226116 106.889051 
L 357.965545 104.880593 
L 363.704973 103.082154 
L 369.444402 101.491821 
L 375.18383 100.10714 
L 380.923259 98.925163 
L 386.662688 97.942487 
L 392.402116 97.155292 
L 398.141545 96.55938 
L 403.880973 96.15021 
L 409.620402 95.922929 
L 415.35983 95.872408 
L 421.099259 95.993268 
L 426.838688 96.279915 
L 432.578116 96.726558 
L 438.317545 97.327246 
L 444.056973 98.075882 
L 449.796402 98.966254 
L 455.53583 99.992053 
L 461.275259 101.146895 
L 467.014688 102.42434 
" style="fill:none;stroke:#ff7f0e;stroke-linecap:square;stroke-width:1.5;"/>
    <defs>
     <path d="M 0 1.5 
C 0.397805 1.5 0.77937 1.341951 1.06066 1.06066 
C 1.341951 0.77937 1.5 0.397805 1.5 0 
C 1.5 -0.397805 1.341951 -0.77937 1.06066 -1.06066 
C 0.77937 -1.341951 0.397805 -1.5 0 -1.5 
C -0.397805 -1.5 -0.77937 -1.341951 -1.06066 -1.06066 
C -1.341951 -0.77937 -1.5 -0.397805 -1.5 0 
C -1.5 0.397805 -1.341951 0.77937 -1.06066 1.06066 
C -0.77937 1.341951 -0.397805 1.5 0 1.5 
z
" id="m0b5a6130d7" style="stroke:#ff7f0e;"/>
    </defs>
    <g clip-path="url(#p056be913fa)">
     <use style="fill:#ff7f0e;stroke:#ff7f0e;" x="65.254688" xlink:href="#m0b5a6130d7" y="157.0616"/>
     <use style="fill:#ff7f0e;stroke:#ff7f0e;" x="70.994116" xlink:href="#m0b5a6130d7" y="157.0616"/>
     <use style="fill:#ff7f0e;stroke:#ff7f0e;" x="76.733545" xlink:href="#m0b5a6130d7" y="133.613659"/>
     <use style="fill:#ff7f0e;stroke:#ff7f0e;" x="82.472973" xlink:href="#m0b5a6130d7" y="118.973819"/>
     <use style="fill:#ff7f0e;stroke:#ff7f0e;" x="88.212402" xlink:href="#m0b5a6130d7" y="106.602038"/>
     <use style="fill:#ff7f0e;stroke:#ff7f0e;" x="93.95183" xlink:href="#m0b5a6130d7" y="96.107047"/>
     <use style="fill:#ff7f0e;stroke:#ff7f0e;" x="99.691259" xlink:href="#m0b5a6130d7" y="87.29364"/>
     <use style="fill:#ff7f0e;stroke:#ff7f0e;" x="105.430688" xlink:href="#m0b5a6130d7" y="80.014242"/>
     <use style="fill:#ff7f0e;stroke:#ff7f0e;" x="111.170116" xlink:href="#m0b5a6130d7" y="74.14099"/>
     <use style="fill:#ff7f0e;stroke:#ff7f0e;" x="116.909545" xlink:href="#m0b5a6130d7" y="69.557553"/>
     <use style="fill:#ff7f0e;stroke:#ff7f0e;" x="122.648973" xlink:href="#m0b5a6130d7" y="66.156008"/>
     <use style="fill:#ff7f0e;stroke:#ff7f0e;" x="128.388402" xlink:href="#m0b5a6130d7" y="63.835375"/>
     <use style="fill:#ff7f0e;stroke:#ff7f0e;" x="134.12783" xlink:href="#m0b5a6130d7" y="62.500807"/>
     <use style="fill:#ff7f0e;stroke:#ff7f0e;" x="139.867259" xlink:href="#m0b5a6130d7" y="62.063064"/>
     <use style="fill:#ff7f0e;stroke:#ff7f0e;" x="145.606688" xlink:href="#m0b5a6130d7" y="62.438136"/>
     <use style="fill:#ff7f0e;stroke:#ff7f0e;" x="151.346116" xlink:href="#m0b5a6130d7" y="63.546936"/>
     <use style="fill:#ff7f0e;stroke:#ff7f0e;" x="157.085545" xlink:href="#m0b5a6130d7" y="65.315039"/>
     <use style="fill:#ff7f0e;stroke:#ff7f0e;" x="162.824973" xlink:href="#m0b5a6130d7" y="67.672457"/>
     <use style="fill:#ff7f0e;stroke:#ff7f0e;" x="168.564402" xlink:href="#m0b5a6130d7" y="70.553422"/>
     <use style="fill:#ff7f0e;stroke:#ff7f0e;" x="174.30383" xlink:href="#m0b5a6130d7" y="73.896192"/>
     <use style="fill:#ff7f0e;stroke:#ff7f0e;" x="180.043259" xlink:href="#m0b5a6130d7" y="77.642866"/>
     <use style="fill:#ff7f0e;stroke:#ff7f0e;" x="185.782688" xlink:href="#m0b5a6130d7" y="81.739207"/>
     <use style="fill:#ff7f0e;stroke:#ff7f0e;" x="191.522116" xlink:href="#m0b5a6130d7" y="86.134476"/>
     <use style="fill:#ff7f0e;stroke:#ff7f0e;" x="197.261545" xlink:href="#m0b5a6130d7" y="90.781269"/>
     <use style="fill:#ff7f0e;stroke:#ff7f0e;" x="203.000973" xlink:href="#m0b5a6130d7" y="95.635365"/>
     <use style="fill:#ff7f0e;stroke:#ff7f0e;" x="208.740402" xlink:href="#m0b5a6130d7" y="100.655579"/>
     <use style="fill:#ff7f0e;stroke:#ff7f0e;" x="214.47983" xlink:href="#m0b5a6130d7" y="105.803618"/>
     <use style="fill:#ff7f0e;stroke:#ff7f0e;" x="220.219259" xlink:href="#m0b5a6130d7" y="111.043945"/>
     <use style="fill:#ff7f0e;stroke:#ff7f0e;" x="225.958687" xlink:href="#m0b5a6130d7" y="116.343649"/>
     <use style="fill:#ff7f0e;stroke:#ff7f0e;" x="231.698116" xlink:href="#m0b5a6130d7" y="121.672316"/>
     <use style="fill:#ff7f0e;stroke:#ff7f0e;" x="237.437545" xlink:href="#m0b5a6130d7" y="127.00191"/>
     <use style="fill:#ff7f0e;stroke:#ff7f0e;" x="243.176973" xlink:href="#m0b5a6130d7" y="132.306656"/>
     <use style="fill:#ff7f0e;stroke:#ff7f0e;" x="248.916402" xlink:href="#m0b5a6130d7" y="137.562924"/>
     <use style="fill:#ff7f0e;stroke:#ff7f0e;" x="254.65583" xlink:href="#m0b5a6130d7" y="142.749124"/>
     <use style="fill:#ff7f0e;stroke:#ff7f0e;" x="260.395259" xlink:href="#m0b5a6130d7" y="147.845603"/>
     <use style="fill:#ff7f0e;stroke:#ff7f0e;" x="266.134688" xlink:href="#m0b5a6130d7" y="152.834538"/>
     <use style="fill:#ff7f0e;stroke:#ff7f0e;" x="271.874116" xlink:href="#m0b5a6130d7" y="156.423352"/>
     <use style="fill:#ff7f0e;stroke:#ff7f0e;" x="277.613545" xlink:href="#m0b5a6130d7" y="151.696103"/>
     <use style="fill:#ff7f0e;stroke:#ff7f0e;" x="283.352973" xlink:href="#m0b5a6130d7" y="147.119797"/>
     <use style="fill:#ff7f0e;stroke:#ff7f0e;" x="289.092402" xlink:href="#m0b5a6130d7" y="142.705842"/>
     <use style="fill:#ff7f0e;stroke:#ff7f0e;" x="294.83183" xlink:href="#m0b5a6130d7" y="138.464259"/>
     <use style="fill:#ff7f0e;stroke:#ff7f0e;" x="300.571259" xlink:href="#m0b5a6130d7" y="134.403758"/>
     <use style="fill:#ff7f0e;stroke:#ff7f0e;" x="306.310688" xlink:href="#m0b5a6130d7" y="130.531815"/>
     <use style="fill:#ff7f0e;stroke:#ff7f0e;" x="312.050116" xlink:href="#m0b5a6130d7" y="126.854745"/>
     <use style="fill:#ff7f0e;stroke:#ff7f0e;" x="317.789545" xlink:href="#m0b5a6130d7" y="123.37777"/>
     <use style="fill:#ff7f0e;stroke:#ff7f0e;" x="323.528973" xlink:href="#m0b5a6130d7" y="120.105088"/>
     <use style="fill:#ff7f0e;stroke:#ff7f0e;" x="329.268402" xlink:href="#m0b5a6130d7" y="117.039934"/>
     <use style="fill:#ff7f0e;stroke:#ff7f0e;" x="335.00783" xlink:href="#m0b5a6130d7" y="114.184645"/>
     <use style="fill:#ff7f0e;stroke:#ff7f0e;" x="340.747259" xlink:href="#m0b5a6130d7" y="111.540716"/>
     <use style="fill:#ff7f0e;stroke:#ff7f0e;" x="346.486688" xlink:href="#m0b5a6130d7" y="109.108859"/>
     <use style="fill:#ff7f0e;stroke:#ff7f0e;" x="352.226116" xlink:href="#m0b5a6130d7" y="106.889051"/>
     <use style="fill:#ff7f0e;stroke:#ff7f0e;" x="357.965545" xlink:href="#m0b5a6130d7" y="104.880593"/>
     <use style="fill:#ff7f0e;stroke:#ff7f0e;" x="363.704973" xlink:href="#m0b5a6130d7" y="103.082154"/>
     <use style="fill:#ff7f0e;stroke:#ff7f0e;" x="369.444402" xlink:href="#m0b5a6130d7" y="101.491821"/>
     <use style="fill:#ff7f0e;stroke:#ff7f0e;" x="375.18383" xlink:href="#m0b5a6130d7" y="100.10714"/>
     <use style="fill:#ff7f0e;stroke:#ff7f0e;" x="380.923259" xlink:href="#m0b5a6130d7" y="98.925163"/>
     <use style="fill:#ff7f0e;stroke:#ff7f0e;" x="386.662688" xlink:href="#m0b5a6130d7" y="97.942487"/>
     <use style="fill:#ff7f0e;stroke:#ff7f0e;" x="392.402116" xlink:href="#m0b5a6130d7" y="97.155292"/>
     <use style="fill:#ff7f0e;stroke:#ff7f0e;" x="398.141545" xlink:href="#m0b5a6130d7" y="96.55938"/>
     <use style="fill:#ff7f0e;stroke:#ff7f0e;" x="403.880973" xlink:href="#m0b5a6130d7" y="96.15021"/>
     <use style="fill:#ff7f0e;stroke:#ff7f0e;" x="409.620402" xlink:href="#m0b5a6130d7" y="95.922929"/>
     <use style="fill:#ff7f0e;stroke:#ff7f0e;" x="415.35983" xlink:href="#m0b5a6130d7" y="95.872408"/>
     <use style="fill:#ff7f0e;stroke:#ff7f0e;" x="421.099259" xlink:href="#m0b5a6130d7" y="95.993268"/>
     <use style="fill:#ff7f0e;stroke:#ff7f0e;" x="426.838688" xlink:href="#m0b5a6130d7" y="96.279915"/>
     <use style="fill:#ff7f0e;stroke:#ff7f0e;" x="432.578116" xlink:href="#m0b5a6130d7" y="96.726558"/>
     <use style="fill:#ff7f0e;stroke:#ff7f0e;" x="438.317545" xlink:href="#m0b5a6130d7" y="97.327246"/>
     <use style="fill:#ff7f0e;stroke:#ff7f0e;" x="444.056973" xlink:href="#m0b5a6130d7" y="98.075882"/>
     <use style="fill:#ff7f0e;stroke:#ff7f0e;" x="449.796402" xlink:href="#m0b5a6130d7" y="98.966254"/>
     <use style="fill:#ff7f0e;stroke:#ff7f0e;" x="455.53583" xlink:href="#m0b5a6130d7" y="99.992053"/>
     <use style="fill:#ff7f0e;stroke:#ff7f0e;" x="461.275259" xlink:href="#m0b5a6130d7" y="101.146895"/>
     <use style="fill:#ff7f0e;stroke:#ff7f0e;" x="467.014688" xlink:href="#m0b5a6130d7" y="102.42434"/>
    </g>
   </g>
   <g id="line2d_27">
    <path clip-path="url(#p056be913fa)" d="M 65.254688 157.0616 
L 70.994116 157.0616 
L 76.733545 157.0616 
L 82.472973 151.214726 
L 88.212402 145.913174 
L 93.95183 140.264453 
L 99.691259 134.436656 
L 105.430688 128.569723 
L 111.170116 122.77178 
L 116.909545 117.126373 
L 122.648973 111.698295 
L 128.388402 106.537764 
L 134.12783 101.683437 
L 139.867259 97.164629 
L 145.606688 93.003006 
L 151.346116 89.213899 
L 157.085545 85.807345 
L 162.824973 82.78894 
L 168.564402 80.160525 
L 174.30383 77.920771 
L 180.043259 76.065663 
L 185.782688 74.588913 
L 191.522116 73.482318 
L 197.261545 72.736059 
L 203.000973 72.338973 
L 208.740402 72.278776 
L 214.47983 72.542272 
L 220.219259 73.115526 
L 225.958687 73.98402 
L 231.698116 75.132791 
L 237.437545 76.546551 
L 243.176973 78.209796 
L 248.916402 80.106898 
L 254.65583 82.222191 
L 260.395259 84.540044 
L 266.134688 87.044927 
L 271.874116 89.721463 
L 277.613545 92.554489 
L 283.352973 95.529088 
L 289.092402 98.630638 
L 294.83183 101.844838 
L 300.571259 105.157741 
L 306.310688 108.555778 
L 312.050116 112.025778 
L 317.789545 115.554986 
L 323.528973 119.131078 
L 329.268402 122.742173 
L 335.00783 126.376841 
L 340.747259 130.024112 
L 346.486688 133.673477 
L 352.226116 137.314898 
L 357.965545 140.9388 
L 363.704973 144.536081 
L 369.444402 148.0981 
L 375.18383 151.616683 
L 380.923259 155.084115 
L 386.662688 155.630067 
L 392.402116 152.286275 
L 398.141545 149.014081 
L 403.880973 145.819421 
L 409.620402 142.707807 
L 415.35983 139.684332 
L 421.099259 136.753679 
L 426.838688 133.920136 
L 432.578116 131.1876 
L 438.317545 128.559587 
L 444.056973 126.039249 
L 449.796402 123.629378 
L 455.53583 121.33242 
L 461.275259 119.150486 
L 467.014688 117.085362 
" style="fill:none;stroke:#2ca02c;stroke-linecap:square;stroke-width:1.5;"/>
    <defs>
     <path d="M 0 1.5 
C 0.397805 1.5 0.77937 1.341951 1.06066 1.06066 
C 1.341951 0.77937 1.5 0.397805 1.5 0 
C 1.5 -0.397805 1.341951 -0.77937 1.06066 -1.06066 
C 0.77937 -1.341951 0.397805 -1.5 0 -1.5 
C -0.397805 -1.5 -0.77937 -1.341951 -1.06066 -1.06066 
C -1.341951 -0.77937 -1.5 -0.397805 -1.5 0 
C -1.5 0.397805 -1.341951 0.77937 -1.06066 1.06066 
C -0.77937 1.341951 -0.397805 1.5 0 1.5 
z
" id="m4851d83e22" style="stroke:#2ca02c;"/>
    </defs>
    <g clip-path="url(#p056be913fa)">
     <use style="fill:#2ca02c;stroke:#2ca02c;" x="65.254688" xlink:href="#m4851d83e22" y="157.0616"/>
     <use style="fill:#2ca02c;stroke:#2ca02c;" x="70.994116" xlink:href="#m4851d83e22" y="157.0616"/>
     <use style="fill:#2ca02c;stroke:#2ca02c;" x="76.733545" xlink:href="#m4851d83e22" y="157.0616"/>
     <use style="fill:#2ca02c;stroke:#2ca02c;" x="82.472973" xlink:href="#m4851d83e22" y="151.214726"/>
     <use style="fill:#2ca02c;stroke:#2ca02c;" x="88.212402" xlink:href="#m4851d83e22" y="145.913174"/>
     <use style="fill:#2ca02c;stroke:#2ca02c;" x="93.95183" xlink:href="#m4851d83e22" y="140.264453"/>
     <use style="fill:#2ca02c;stroke:#2ca02c;" x="99.691259" xlink:href="#m4851d83e22" y="134.436656"/>
     <use style="fill:#2ca02c;stroke:#2ca02c;" x="105.430688" xlink:href="#m4851d83e22" y="128.569723"/>
     <use style="fill:#2ca02c;stroke:#2ca02c;" x="111.170116" xlink:href="#m4851d83e22" y="122.77178"/>
     <use style="fill:#2ca02c;stroke:#2ca02c;" x="116.909545" xlink:href="#m4851d83e22" y="117.126373"/>
     <use style="fill:#2ca02c;stroke:#2ca02c;" x="122.648973" xlink:href="#m4851d83e22" y="111.698295"/>
     <use style="fill:#2ca02c;stroke:#2ca02c;" x="128.388402" xlink:href="#m4851d83e22" y="106.537764"/>
     <use style="fill:#2ca02c;stroke:#2ca02c;" x="134.12783" xlink:href="#m4851d83e22" y="101.683437"/>
     <use style="fill:#2ca02c;stroke:#2ca02c;" x="139.867259" xlink:href="#m4851d83e22" y="97.164629"/>
     <use style="fill:#2ca02c;stroke:#2ca02c;" x="145.606688" xlink:href="#m4851d83e22" y="93.003006"/>
     <use style="fill:#2ca02c;stroke:#2ca02c;" x="151.346116" xlink:href="#m4851d83e22" y="89.213899"/>
     <use style="fill:#2ca02c;stroke:#2ca02c;" x="157.085545" xlink:href="#m4851d83e22" y="85.807345"/>
     <use style="fill:#2ca02c;stroke:#2ca02c;" x="162.824973" xlink:href="#m4851d83e22" y="82.78894"/>
     <use style="fill:#2ca02c;stroke:#2ca02c;" x="168.564402" xlink:href="#m4851d83e22" y="80.160525"/>
     <use style="fill:#2ca02c;stroke:#2ca02c;" x="174.30383" xlink:href="#m4851d83e22" y="77.920771"/>
     <use style="fill:#2ca02c;stroke:#2ca02c;" x="180.043259" xlink:href="#m4851d83e22" y="76.065663"/>
     <use style="fill:#2ca02c;stroke:#2ca02c;" x="185.782688" xlink:href="#m4851d83e22" y="74.588913"/>
     <use style="fill:#2ca02c;stroke:#2ca02c;" x="191.522116" xlink:href="#m4851d83e22" y="73.482318"/>
     <use style="fill:#2ca02c;stroke:#2ca02c;" x="197.261545" xlink:href="#m4851d83e22" y="72.736059"/>
     <use style="fill:#2ca02c;stroke:#2ca02c;" x="203.000973" xlink:href="#m4851d83e22" y="72.338973"/>
     <use style="fill:#2ca02c;stroke:#2ca02c;" x="208.740402" xlink:href="#m4851d83e22" y="72.278776"/>
     <use style="fill:#2ca02c;stroke:#2ca02c;" x="214.47983" xlink:href="#m4851d83e22" y="72.542272"/>
     <use style="fill:#2ca02c;stroke:#2ca02c;" x="220.219259" xlink:href="#m4851d83e22" y="73.115526"/>
     <use style="fill:#2ca02c;stroke:#2ca02c;" x="225.958687" xlink:href="#m4851d83e22" y="73.98402"/>
     <use style="fill:#2ca02c;stroke:#2ca02c;" x="231.698116" xlink:href="#m4851d83e22" y="75.132791"/>
     <use style="fill:#2ca02c;stroke:#2ca02c;" x="237.437545" xlink:href="#m4851d83e22" y="76.546551"/>
     <use style="fill:#2ca02c;stroke:#2ca02c;" x="243.176973" xlink:href="#m4851d83e22" y="78.209796"/>
     <use style="fill:#2ca02c;stroke:#2ca02c;" x="248.916402" xlink:href="#m4851d83e22" y="80.106898"/>
     <use style="fill:#2ca02c;stroke:#2ca02c;" x="254.65583" xlink:href="#m4851d83e22" y="82.222191"/>
     <use style="fill:#2ca02c;stroke:#2ca02c;" x="260.395259" xlink:href="#m4851d83e22" y="84.540044"/>
     <use style="fill:#2ca02c;stroke:#2ca02c;" x="266.134688" xlink:href="#m4851d83e22" y="87.044927"/>
     <use style="fill:#2ca02c;stroke:#2ca02c;" x="271.874116" xlink:href="#m4851d83e22" y="89.721463"/>
     <use style="fill:#2ca02c;stroke:#2ca02c;" x="277.613545" xlink:href="#m4851d83e22" y="92.554489"/>
     <use style="fill:#2ca02c;stroke:#2ca02c;" x="283.352973" xlink:href="#m4851d83e22" y="95.529088"/>
     <use style="fill:#2ca02c;stroke:#2ca02c;" x="289.092402" xlink:href="#m4851d83e22" y="98.630638"/>
     <use style="fill:#2ca02c;stroke:#2ca02c;" x="294.83183" xlink:href="#m4851d83e22" y="101.844838"/>
     <use style="fill:#2ca02c;stroke:#2ca02c;" x="300.571259" xlink:href="#m4851d83e22" y="105.157741"/>
     <use style="fill:#2ca02c;stroke:#2ca02c;" x="306.310688" xlink:href="#m4851d83e22" y="108.555778"/>
     <use style="fill:#2ca02c;stroke:#2ca02c;" x="312.050116" xlink:href="#m4851d83e22" y="112.025778"/>
     <use style="fill:#2ca02c;stroke:#2ca02c;" x="317.789545" xlink:href="#m4851d83e22" y="115.554986"/>
     <use style="fill:#2ca02c;stroke:#2ca02c;" x="323.528973" xlink:href="#m4851d83e22" y="119.131078"/>
     <use style="fill:#2ca02c;stroke:#2ca02c;" x="329.268402" xlink:href="#m4851d83e22" y="122.742173"/>
     <use style="fill:#2ca02c;stroke:#2ca02c;" x="335.00783" xlink:href="#m4851d83e22" y="126.376841"/>
     <use style="fill:#2ca02c;stroke:#2ca02c;" x="340.747259" xlink:href="#m4851d83e22" y="130.024112"/>
     <use style="fill:#2ca02c;stroke:#2ca02c;" x="346.486688" xlink:href="#m4851d83e22" y="133.673477"/>
     <use style="fill:#2ca02c;stroke:#2ca02c;" x="352.226116" xlink:href="#m4851d83e22" y="137.314898"/>
     <use style="fill:#2ca02c;stroke:#2ca02c;" x="357.965545" xlink:href="#m4851d83e22" y="140.9388"/>
     <use style="fill:#2ca02c;stroke:#2ca02c;" x="363.704973" xlink:href="#m4851d83e22" y="144.536081"/>
     <use style="fill:#2ca02c;stroke:#2ca02c;" x="369.444402" xlink:href="#m4851d83e22" y="148.0981"/>
     <use style="fill:#2ca02c;stroke:#2ca02c;" x="375.18383" xlink:href="#m4851d83e22" y="151.616683"/>
     <use style="fill:#2ca02c;stroke:#2ca02c;" x="380.923259" xlink:href="#m4851d83e22" y="155.084115"/>
     <use style="fill:#2ca02c;stroke:#2ca02c;" x="386.662688" xlink:href="#m4851d83e22" y="155.630067"/>
     <use style="fill:#2ca02c;stroke:#2ca02c;" x="392.402116" xlink:href="#m4851d83e22" y="152.286275"/>
     <use style="fill:#2ca02c;stroke:#2ca02c;" x="398.141545" xlink:href="#m4851d83e22" y="149.014081"/>
     <use style="fill:#2ca02c;stroke:#2ca02c;" x="403.880973" xlink:href="#m4851d83e22" y="145.819421"/>
     <use style="fill:#2ca02c;stroke:#2ca02c;" x="409.620402" xlink:href="#m4851d83e22" y="142.707807"/>
     <use style="fill:#2ca02c;stroke:#2ca02c;" x="415.35983" xlink:href="#m4851d83e22" y="139.684332"/>
     <use style="fill:#2ca02c;stroke:#2ca02c;" x="421.099259" xlink:href="#m4851d83e22" y="136.753679"/>
     <use style="fill:#2ca02c;stroke:#2ca02c;" x="426.838688" xlink:href="#m4851d83e22" y="133.920136"/>
     <use style="fill:#2ca02c;stroke:#2ca02c;" x="432.578116" xlink:href="#m4851d83e22" y="131.1876"/>
     <use style="fill:#2ca02c;stroke:#2ca02c;" x="438.317545" xlink:href="#m4851d83e22" y="128.559587"/>
     <use style="fill:#2ca02c;stroke:#2ca02c;" x="444.056973" xlink:href="#m4851d83e22" y="126.039249"/>
     <use style="fill:#2ca02c;stroke:#2ca02c;" x="449.796402" xlink:href="#m4851d83e22" y="123.629378"/>
     <use style="fill:#2ca02c;stroke:#2ca02c;" x="455.53583" xlink:href="#m4851d83e22" y="121.33242"/>
     <use style="fill:#2ca02c;stroke:#2ca02c;" x="461.275259" xlink:href="#m4851d83e22" y="119.150486"/>
     <use style="fill:#2ca02c;stroke:#2ca02c;" x="467.014688" xlink:href="#m4851d83e22" y="117.085362"/>
    </g>
   </g>
   <g id="line2d_28">
    <path clip-path="url(#p056be913fa)" d="M 65.254688 157.0616 
L 70.994116 157.0616 
L 76.733545 157.0616 
L 82.472973 157.0616 
L 88.212402 155.798978 
L 93.95183 154.34362 
L 99.691259 152.530684 
L 105.430688 150.402089 
L 111.170116 148.001949 
L 116.909545 145.372384 
L 122.648973 142.552913 
L 128.388402 139.580386 
L 134.12783 136.489049 
L 139.867259 133.310645 
L 145.606688 130.074521 
L 151.346116 126.80774 
L 157.085545 123.535193 
L 162.824973 120.279705 
L 168.564402 117.062137 
L 174.30383 113.90149 
L 180.043259 110.815 
L 185.782688 107.818229 
L 191.522116 104.925157 
L 197.261545 102.14827 
L 203.000973 99.498636 
L 208.740402 96.985991 
L 214.47983 94.618814 
L 220.219259 92.404397 
L 225.958687 90.34892 
L 231.698116 88.457513 
L 237.437545 86.734327 
L 243.176973 85.182589 
L 248.916402 83.804667 
L 254.65583 82.602125 
L 260.395259 81.575774 
L 266.134688 80.725731 
L 271.874116 80.05146 
L 277.613545 79.551827 
L 283.352973 79.225143 
L 289.092402 79.069202 
L 294.83183 79.081333 
L 300.571259 79.258429 
L 306.310688 79.59699 
L 312.050116 80.093158 
L 317.789545 80.74275 
L 323.528973 81.54129 
L 329.268402 82.484043 
L 335.00783 83.566038 
L 340.747259 84.782103 
L 346.486688 86.126886 
L 352.226116 87.59488 
L 357.965545 89.180451 
L 363.704973 90.877854 
L 369.444402 92.68126 
L 375.18383 94.584772 
L 380.923259 96.582442 
L 386.662688 98.668296 
L 392.402116 100.836341 
L 398.141545 103.080588 
L 403.880973 105.395062 
L 409.620402 107.773819 
L 415.35983 110.210955 
L 421.099259 112.700621 
L 426.838688 115.237031 
L 432.578116 117.814474 
L 438.317545 120.427326 
L 444.056973 123.070052 
L 449.796402 125.737219 
L 455.53583 128.423504 
L 461.275259 131.123697 
L 467.014688 133.832709 
" style="fill:none;stroke:#d62728;stroke-linecap:square;stroke-width:1.5;"/>
    <defs>
     <path d="M 0 1.5 
C 0.397805 1.5 0.77937 1.341951 1.06066 1.06066 
C 1.341951 0.77937 1.5 0.397805 1.5 0 
C 1.5 -0.397805 1.341951 -0.77937 1.06066 -1.06066 
C 0.77937 -1.341951 0.397805 -1.5 0 -1.5 
C -0.397805 -1.5 -0.77937 -1.341951 -1.06066 -1.06066 
C -1.341951 -0.77937 -1.5 -0.397805 -1.5 0 
C -1.5 0.397805 -1.341951 0.77937 -1.06066 1.06066 
C -0.77937 1.341951 -0.397805 1.5 0 1.5 
z
" id="m1cb37b0f80" style="stroke:#d62728;"/>
    </defs>
    <g clip-path="url(#p056be913fa)">
     <use style="fill:#d62728;stroke:#d62728;" x="65.254688" xlink:href="#m1cb37b0f80" y="157.0616"/>
     <use style="fill:#d62728;stroke:#d62728;" x="70.994116" xlink:href="#m1cb37b0f80" y="157.0616"/>
     <use style="fill:#d62728;stroke:#d62728;" x="76.733545" xlink:href="#m1cb37b0f80" y="157.0616"/>
     <use style="fill:#d62728;stroke:#d62728;" x="82.472973" xlink:href="#m1cb37b0f80" y="157.0616"/>
     <use style="fill:#d62728;stroke:#d62728;" x="88.212402" xlink:href="#m1cb37b0f80" y="155.798978"/>
     <use style="fill:#d62728;stroke:#d62728;" x="93.95183" xlink:href="#m1cb37b0f80" y="154.34362"/>
     <use style="fill:#d62728;stroke:#d62728;" x="99.691259" xlink:href="#m1cb37b0f80" y="152.530684"/>
     <use style="fill:#d62728;stroke:#d62728;" x="105.430688" xlink:href="#m1cb37b0f80" y="150.402089"/>
     <use style="fill:#d62728;stroke:#d62728;" x="111.170116" xlink:href="#m1cb37b0f80" y="148.001949"/>
     <use style="fill:#d62728;stroke:#d62728;" x="116.909545" xlink:href="#m1cb37b0f80" y="145.372384"/>
     <use style="fill:#d62728;stroke:#d62728;" x="122.648973" xlink:href="#m1cb37b0f80" y="142.552913"/>
     <use style="fill:#d62728;stroke:#d62728;" x="128.388402" xlink:href="#m1cb37b0f80" y="139.580386"/>
     <use style="fill:#d62728;stroke:#d62728;" x="134.12783" xlink:href="#m1cb37b0f80" y="136.489049"/>
     <use style="fill:#d62728;stroke:#d62728;" x="139.867259" xlink:href="#m1cb37b0f80" y="133.310645"/>
     <use style="fill:#d62728;stroke:#d62728;" x="145.606688" xlink:href="#m1cb37b0f80" y="130.074521"/>
     <use style="fill:#d62728;stroke:#d62728;" x="151.346116" xlink:href="#m1cb37b0f80" y="126.80774"/>
     <use style="fill:#d62728;stroke:#d62728;" x="157.085545" xlink:href="#m1cb37b0f80" y="123.535193"/>
     <use style="fill:#d62728;stroke:#d62728;" x="162.824973" xlink:href="#m1cb37b0f80" y="120.279705"/>
     <use style="fill:#d62728;stroke:#d62728;" x="168.564402" xlink:href="#m1cb37b0f80" y="117.062137"/>
     <use style="fill:#d62728;stroke:#d62728;" x="174.30383" xlink:href="#m1cb37b0f80" y="113.90149"/>
     <use style="fill:#d62728;stroke:#d62728;" x="180.043259" xlink:href="#m1cb37b0f80" y="110.815"/>
     <use style="fill:#d62728;stroke:#d62728;" x="185.782688" xlink:href="#m1cb37b0f80" y="107.818229"/>
     <use style="fill:#d62728;stroke:#d62728;" x="191.522116" xlink:href="#m1cb37b0f80" y="104.925157"/>
     <use style="fill:#d62728;stroke:#d62728;" x="197.261545" xlink:href="#m1cb37b0f80" y="102.14827"/>
     <use style="fill:#d62728;stroke:#d62728;" x="203.000973" xlink:href="#m1cb37b0f80" y="99.498636"/>
     <use style="fill:#d62728;stroke:#d62728;" x="208.740402" xlink:href="#m1cb37b0f80" y="96.985991"/>
     <use style="fill:#d62728;stroke:#d62728;" x="214.47983" xlink:href="#m1cb37b0f80" y="94.618814"/>
     <use style="fill:#d62728;stroke:#d62728;" x="220.219259" xlink:href="#m1cb37b0f80" y="92.404397"/>
     <use style="fill:#d62728;stroke:#d62728;" x="225.958687" xlink:href="#m1cb37b0f80" y="90.34892"/>
     <use style="fill:#d62728;stroke:#d62728;" x="231.698116" xlink:href="#m1cb37b0f80" y="88.457513"/>
     <use style="fill:#d62728;stroke:#d62728;" x="237.437545" xlink:href="#m1cb37b0f80" y="86.734327"/>
     <use style="fill:#d62728;stroke:#d62728;" x="243.176973" xlink:href="#m1cb37b0f80" y="85.182589"/>
     <use style="fill:#d62728;stroke:#d62728;" x="248.916402" xlink:href="#m1cb37b0f80" y="83.804667"/>
     <use style="fill:#d62728;stroke:#d62728;" x="254.65583" xlink:href="#m1cb37b0f80" y="82.602125"/>
     <use style="fill:#d62728;stroke:#d62728;" x="260.395259" xlink:href="#m1cb37b0f80" y="81.575774"/>
     <use style="fill:#d62728;stroke:#d62728;" x="266.134688" xlink:href="#m1cb37b0f80" y="80.725731"/>
     <use style="fill:#d62728;stroke:#d62728;" x="271.874116" xlink:href="#m1cb37b0f80" y="80.05146"/>
     <use style="fill:#d62728;stroke:#d62728;" x="277.613545" xlink:href="#m1cb37b0f80" y="79.551827"/>
     <use style="fill:#d62728;stroke:#d62728;" x="283.352973" xlink:href="#m1cb37b0f80" y="79.225143"/>
     <use style="fill:#d62728;stroke:#d62728;" x="289.092402" xlink:href="#m1cb37b0f80" y="79.069202"/>
     <use style="fill:#d62728;stroke:#d62728;" x="294.83183" xlink:href="#m1cb37b0f80" y="79.081333"/>
     <use style="fill:#d62728;stroke:#d62728;" x="300.571259" xlink:href="#m1cb37b0f80" y="79.258429"/>
     <use style="fill:#d62728;stroke:#d62728;" x="306.310688" xlink:href="#m1cb37b0f80" y="79.59699"/>
     <use style="fill:#d62728;stroke:#d62728;" x="312.050116" xlink:href="#m1cb37b0f80" y="80.093158"/>
     <use style="fill:#d62728;stroke:#d62728;" x="317.789545" xlink:href="#m1cb37b0f80" y="80.74275"/>
     <use style="fill:#d62728;stroke:#d62728;" x="323.528973" xlink:href="#m1cb37b0f80" y="81.54129"/>
     <use style="fill:#d62728;stroke:#d62728;" x="329.268402" xlink:href="#m1cb37b0f80" y="82.484043"/>
     <use style="fill:#d62728;stroke:#d62728;" x="335.00783" xlink:href="#m1cb37b0f80" y="83.566038"/>
     <use style="fill:#d62728;stroke:#d62728;" x="340.747259" xlink:href="#m1cb37b0f80" y="84.782103"/>
     <use style="fill:#d62728;stroke:#d62728;" x="346.486688" xlink:href="#m1cb37b0f80" y="86.126886"/>
     <use style="fill:#d62728;stroke:#d62728;" x="352.226116" xlink:href="#m1cb37b0f80" y="87.59488"/>
     <use style="fill:#d62728;stroke:#d62728;" x="357.965545" xlink:href="#m1cb37b0f80" y="89.180451"/>
     <use style="fill:#d62728;stroke:#d62728;" x="363.704973" xlink:href="#m1cb37b0f80" y="90.877854"/>
     <use style="fill:#d62728;stroke:#d62728;" x="369.444402" xlink:href="#m1cb37b0f80" y="92.68126"/>
     <use style="fill:#d62728;stroke:#d62728;" x="375.18383" xlink:href="#m1cb37b0f80" y="94.584772"/>
     <use style="fill:#d62728;stroke:#d62728;" x="380.923259" xlink:href="#m1cb37b0f80" y="96.582442"/>
     <use style="fill:#d62728;stroke:#d62728;" x="386.662688" xlink:href="#m1cb37b0f80" y="98.668296"/>
     <use style="fill:#d62728;stroke:#d62728;" x="392.402116" xlink:href="#m1cb37b0f80" y="100.836341"/>
     <use style="fill:#d62728;stroke:#d62728;" x="398.141545" xlink:href="#m1cb37b0f80" y="103.080588"/>
     <use style="fill:#d62728;stroke:#d62728;" x="403.880973" xlink:href="#m1cb37b0f80" y="105.395062"/>
     <use style="fill:#d62728;stroke:#d62728;" x="409.620402" xlink:href="#m1cb37b0f80" y="107.773819"/>
     <use style="fill:#d62728;stroke:#d62728;" x="415.35983" xlink:href="#m1cb37b0f80" y="110.210955"/>
     <use style="fill:#d62728;stroke:#d62728;" x="421.099259" xlink:href="#m1cb37b0f80" y="112.700621"/>
     <use style="fill:#d62728;stroke:#d62728;" x="426.838688" xlink:href="#m1cb37b0f80" y="115.237031"/>
     <use style="fill:#d62728;stroke:#d62728;" x="432.578116" xlink:href="#m1cb37b0f80" y="117.814474"/>
     <use style="fill:#d62728;stroke:#d62728;" x="438.317545" xlink:href="#m1cb37b0f80" y="120.427326"/>
     <use style="fill:#d62728;stroke:#d62728;" x="444.056973" xlink:href="#m1cb37b0f80" y="123.070052"/>
     <use style="fill:#d62728;stroke:#d62728;" x="449.796402" xlink:href="#m1cb37b0f80" y="125.737219"/>
     <use style="fill:#d62728;stroke:#d62728;" x="455.53583" xlink:href="#m1cb37b0f80" y="128.423504"/>
     <use style="fill:#d62728;stroke:#d62728;" x="461.275259" xlink:href="#m1cb37b0f80" y="131.123697"/>
     <use style="fill:#d62728;stroke:#d62728;" x="467.014688" xlink:href="#m1cb37b0f80" y="133.832709"/>
    </g>
   </g>
   <g id="line2d_29">
    <path clip-path="url(#p056be913fa)" d="M 65.254688 157.0616 
L 70.994116 157.0616 
L 76.733545 157.0616 
L 82.472973 157.0616 
L 88.212402 157.0616 
L 93.95183 156.817725 
L 99.691259 156.482801 
L 105.430688 156.012586 
L 111.170116 155.402315 
L 116.909545 154.651133 
L 122.648973 153.760657 
L 128.388402 152.734346 
L 134.12783 151.577087 
L 139.867259 150.294879 
L 145.606688 148.8946 
L 151.346116 147.383803 
L 157.085545 145.770561 
L 162.824973 144.063329 
L 168.564402 142.270835 
L 174.30383 140.40198 
L 180.043259 138.465759 
L 185.782688 136.471191 
L 191.522116 134.427259 
L 197.261545 132.342858 
L 203.000973 130.226752 
L 208.740402 128.087534 
L 214.47983 125.933597 
L 220.219259 123.773105 
L 225.958687 121.613969 
L 231.698116 119.46383 
L 237.437545 117.330041 
L 243.176973 115.219654 
L 248.916402 113.139412 
L 254.65583 111.095736 
L 260.395259 109.094726 
L 266.134688 107.142149 
L 271.874116 105.243445 
L 277.613545 103.403718 
L 283.352973 101.62774 
L 289.092402 99.919954 
L 294.83183 98.284476 
L 300.571259 96.725093 
L 306.310688 95.245278 
L 312.050116 93.848183 
L 317.789545 92.536656 
L 323.528973 91.313238 
L 329.268402 90.180176 
L 335.00783 89.139429 
L 340.747259 88.192671 
L 346.486688 87.341307 
L 352.226116 86.586474 
L 357.965545 85.929053 
L 363.704973 85.369678 
L 369.444402 84.908743 
L 375.18383 84.54641 
L 380.923259 84.282622 
L 386.662688 84.117108 
L 392.402116 84.049393 
L 398.141545 84.078808 
L 403.880973 84.204499 
L 409.620402 84.425435 
L 415.35983 84.740416 
L 421.099259 85.148084 
L 426.838688 85.64693 
L 432.578116 86.235303 
L 438.317545 86.91142 
L 444.056973 87.673371 
L 449.796402 88.519131 
L 455.53583 89.446564 
L 461.275259 90.453434 
L 467.014688 91.537412 
" style="fill:none;stroke:#9467bd;stroke-linecap:square;stroke-width:1.5;"/>
    <defs>
     <path d="M 0 1.5 
C 0.397805 1.5 0.77937 1.341951 1.06066 1.06066 
C 1.341951 0.77937 1.5 0.397805 1.5 0 
C 1.5 -0.397805 1.341951 -0.77937 1.06066 -1.06066 
C 0.77937 -1.341951 0.397805 -1.5 0 -1.5 
C -0.397805 -1.5 -0.77937 -1.341951 -1.06066 -1.06066 
C -1.341951 -0.77937 -1.5 -0.397805 -1.5 0 
C -1.5 0.397805 -1.341951 0.77937 -1.06066 1.06066 
C -0.77937 1.341951 -0.397805 1.5 0 1.5 
z
" id="me89512dd35" style="stroke:#9467bd;"/>
    </defs>
    <g clip-path="url(#p056be913fa)">
     <use style="fill:#9467bd;stroke:#9467bd;" x="65.254688" xlink:href="#me89512dd35" y="157.0616"/>
     <use style="fill:#9467bd;stroke:#9467bd;" x="70.994116" xlink:href="#me89512dd35" y="157.0616"/>
     <use style="fill:#9467bd;stroke:#9467bd;" x="76.733545" xlink:href="#me89512dd35" y="157.0616"/>
     <use style="fill:#9467bd;stroke:#9467bd;" x="82.472973" xlink:href="#me89512dd35" y="157.0616"/>
     <use style="fill:#9467bd;stroke:#9467bd;" x="88.212402" xlink:href="#me89512dd35" y="157.0616"/>
     <use style="fill:#9467bd;stroke:#9467bd;" x="93.95183" xlink:href="#me89512dd35" y="156.817725"/>
     <use style="fill:#9467bd;stroke:#9467bd;" x="99.691259" xlink:href="#me89512dd35" y="156.482801"/>
     <use style="fill:#9467bd;stroke:#9467bd;" x="105.430688" xlink:href="#me89512dd35" y="156.012586"/>
     <use style="fill:#9467bd;stroke:#9467bd;" x="111.170116" xlink:href="#me89512dd35" y="155.402315"/>
     <use style="fill:#9467bd;stroke:#9467bd;" x="116.909545" xlink:href="#me89512dd35" y="154.651133"/>
     <use style="fill:#9467bd;stroke:#9467bd;" x="122.648973" xlink:href="#me89512dd35" y="153.760657"/>
     <use style="fill:#9467bd;stroke:#9467bd;" x="128.388402" xlink:href="#me89512dd35" y="152.734346"/>
     <use style="fill:#9467bd;stroke:#9467bd;" x="134.12783" xlink:href="#me89512dd35" y="151.577087"/>
     <use style="fill:#9467bd;stroke:#9467bd;" x="139.867259" xlink:href="#me89512dd35" y="150.294879"/>
     <use style="fill:#9467bd;stroke:#9467bd;" x="145.606688" xlink:href="#me89512dd35" y="148.8946"/>
     <use style="fill:#9467bd;stroke:#9467bd;" x="151.346116" xlink:href="#me89512dd35" y="147.383803"/>
     <use style="fill:#9467bd;stroke:#9467bd;" x="157.085545" xlink:href="#me89512dd35" y="145.770561"/>
     <use style="fill:#9467bd;stroke:#9467bd;" x="162.824973" xlink:href="#me89512dd35" y="144.063329"/>
     <use style="fill:#9467bd;stroke:#9467bd;" x="168.564402" xlink:href="#me89512dd35" y="142.270835"/>
     <use style="fill:#9467bd;stroke:#9467bd;" x="174.30383" xlink:href="#me89512dd35" y="140.40198"/>
     <use style="fill:#9467bd;stroke:#9467bd;" x="180.043259" xlink:href="#me89512dd35" y="138.465759"/>
     <use style="fill:#9467bd;stroke:#9467bd;" x="185.782688" xlink:href="#me89512dd35" y="136.471191"/>
     <use style="fill:#9467bd;stroke:#9467bd;" x="191.522116" xlink:href="#me89512dd35" y="134.427259"/>
     <use style="fill:#9467bd;stroke:#9467bd;" x="197.261545" xlink:href="#me89512dd35" y="132.342858"/>
     <use style="fill:#9467bd;stroke:#9467bd;" x="203.000973" xlink:href="#me89512dd35" y="130.226752"/>
     <use style="fill:#9467bd;stroke:#9467bd;" x="208.740402" xlink:href="#me89512dd35" y="128.087534"/>
     <use style="fill:#9467bd;stroke:#9467bd;" x="214.47983" xlink:href="#me89512dd35" y="125.933597"/>
     <use style="fill:#9467bd;stroke:#9467bd;" x="220.219259" xlink:href="#me89512dd35" y="123.773105"/>
     <use style="fill:#9467bd;stroke:#9467bd;" x="225.958687" xlink:href="#me89512dd35" y="121.613969"/>
     <use style="fill:#9467bd;stroke:#9467bd;" x="231.698116" xlink:href="#me89512dd35" y="119.46383"/>
     <use style="fill:#9467bd;stroke:#9467bd;" x="237.437545" xlink:href="#me89512dd35" y="117.330041"/>
     <use style="fill:#9467bd;stroke:#9467bd;" x="243.176973" xlink:href="#me89512dd35" y="115.219654"/>
     <use style="fill:#9467bd;stroke:#9467bd;" x="248.916402" xlink:href="#me89512dd35" y="113.139412"/>
     <use style="fill:#9467bd;stroke:#9467bd;" x="254.65583" xlink:href="#me89512dd35" y="111.095736"/>
     <use style="fill:#9467bd;stroke:#9467bd;" x="260.395259" xlink:href="#me89512dd35" y="109.094726"/>
     <use style="fill:#9467bd;stroke:#9467bd;" x="266.134688" xlink:href="#me89512dd35" y="107.142149"/>
     <use style="fill:#9467bd;stroke:#9467bd;" x="271.874116" xlink:href="#me89512dd35" y="105.243445"/>
     <use style="fill:#9467bd;stroke:#9467bd;" x="277.613545" xlink:href="#me89512dd35" y="103.403718"/>
     <use style="fill:#9467bd;stroke:#9467bd;" x="283.352973" xlink:href="#me89512dd35" y="101.62774"/>
     <use style="fill:#9467bd;stroke:#9467bd;" x="289.092402" xlink:href="#me89512dd35" y="99.919954"/>
     <use style="fill:#9467bd;stroke:#9467bd;" x="294.83183" xlink:href="#me89512dd35" y="98.284476"/>
     <use style="fill:#9467bd;stroke:#9467bd;" x="300.571259" xlink:href="#me89512dd35" y="96.725093"/>
     <use style="fill:#9467bd;stroke:#9467bd;" x="306.310688" xlink:href="#me89512dd35" y="95.245278"/>
     <use style="fill:#9467bd;stroke:#9467bd;" x="312.050116" xlink:href="#me89512dd35" y="93.848183"/>
     <use style="fill:#9467bd;stroke:#9467bd;" x="317.789545" xlink:href="#me89512dd35" y="92.536656"/>
     <use style="fill:#9467bd;stroke:#9467bd;" x="323.528973" xlink:href="#me89512dd35" y="91.313238"/>
     <use style="fill:#9467bd;stroke:#9467bd;" x="329.268402" xlink:href="#me89512dd35" y="90.180176"/>
     <use style="fill:#9467bd;stroke:#9467bd;" x="335.00783" xlink:href="#me89512dd35" y="89.139429"/>
     <use style="fill:#9467bd;stroke:#9467bd;" x="340.747259" xlink:href="#me89512dd35" y="88.192671"/>
     <use style="fill:#9467bd;stroke:#9467bd;" x="346.486688" xlink:href="#me89512dd35" y="87.341307"/>
     <use style="fill:#9467bd;stroke:#9467bd;" x="352.226116" xlink:href="#me89512dd35" y="86.586474"/>
     <use style="fill:#9467bd;stroke:#9467bd;" x="357.965545" xlink:href="#me89512dd35" y="85.929053"/>
     <use style="fill:#9467bd;stroke:#9467bd;" x="363.704973" xlink:href="#me89512dd35" y="85.369678"/>
     <use style="fill:#9467bd;stroke:#9467bd;" x="369.444402" xlink:href="#me89512dd35" y="84.908743"/>
     <use style="fill:#9467bd;stroke:#9467bd;" x="375.18383" xlink:href="#me89512dd35" y="84.54641"/>
     <use style="fill:#9467bd;stroke:#9467bd;" x="380.923259" xlink:href="#me89512dd35" y="84.282622"/>
     <use style="fill:#9467bd;stroke:#9467bd;" x="386.662688" xlink:href="#me89512dd35" y="84.117108"/>
     <use style="fill:#9467bd;stroke:#9467bd;" x="392.402116" xlink:href="#me89512dd35" y="84.049393"/>
     <use style="fill:#9467bd;stroke:#9467bd;" x="398.141545" xlink:href="#me89512dd35" y="84.078808"/>
     <use style="fill:#9467bd;stroke:#9467bd;" x="403.880973" xlink:href="#me89512dd35" y="84.204499"/>
     <use style="fill:#9467bd;stroke:#9467bd;" x="409.620402" xlink:href="#me89512dd35" y="84.425435"/>
     <use style="fill:#9467bd;stroke:#9467bd;" x="415.35983" xlink:href="#me89512dd35" y="84.740416"/>
     <use style="fill:#9467bd;stroke:#9467bd;" x="421.099259" xlink:href="#me89512dd35" y="85.148084"/>
     <use style="fill:#9467bd;stroke:#9467bd;" x="426.838688" xlink:href="#me89512dd35" y="85.64693"/>
     <use style="fill:#9467bd;stroke:#9467bd;" x="432.578116" xlink:href="#me89512dd35" y="86.235303"/>
     <use style="fill:#9467bd;stroke:#9467bd;" x="438.317545" xlink:href="#me89512dd35" y="86.91142"/>
     <use style="fill:#9467bd;stroke:#9467bd;" x="444.056973" xlink:href="#me89512dd35" y="87.673371"/>
     <use style="fill:#9467bd;stroke:#9467bd;" x="449.796402" xlink:href="#me89512dd35" y="88.519131"/>
     <use style="fill:#9467bd;stroke:#9467bd;" x="455.53583" xlink:href="#me89512dd35" y="89.446564"/>
     <use style="fill:#9467bd;stroke:#9467bd;" x="461.275259" xlink:href="#me89512dd35" y="90.453434"/>
     <use style="fill:#9467bd;stroke:#9467bd;" x="467.014688" xlink:href="#me89512dd35" y="91.537412"/>
    </g>
   </g>
   <g id="patch_3">
    <path d="M 65.254688 157.0616 
L 65.254688 10.7 
" style="fill:none;stroke:#000000;stroke-linecap:square;stroke-linejoin:miter;stroke-width:0.8;"/>
   </g>
   <g id="patch_4">
    <path d="M 467.014688 157.0616 
L 467.014688 10.7 
" style="fill:none;stroke:#000000;stroke-linecap:square;stroke-linejoin:miter;stroke-width:0.8;"/>
   </g>
   <g id="patch_5">
    <path d="M 65.254688 157.0616 
L 467.014688 157.0616 
" style="fill:none;stroke:#000000;stroke-linecap:square;stroke-linejoin:miter;stroke-width:0.8;"/>
   </g>
   <g id="patch_6">
    <path d="M 65.254688 10.7 
L 467.014688 10.7 
" style="fill:none;stroke:#000000;stroke-linecap:square;stroke-linejoin:miter;stroke-width:0.8;"/>
   </g>
   <g id="text_6">
    <!-- $\left|\Delta n\right|\!\!=\!\!1$ -->
    <defs>
     <path d="M 10.59375 45.40625 
L 73.1875 45.40625 
L 73.1875 37.203125 
L 10.59375 37.203125 
z
M 10.59375 25.484375 
L 73.1875 25.484375 
L 73.1875 17.1875 
L 10.59375 17.1875 
z
" id="DejaVuSans-3d"/>
     <path d="M 12.40625 8.296875 
L 28.515625 8.296875 
L 28.515625 63.921875 
L 10.984375 60.40625 
L 10.984375 69.390625 
L 28.421875 72.90625 
L 38.28125 72.90625 
L 38.28125 8.296875 
L 54.390625 8.296875 
L 54.390625 0 
L 12.40625 0 
z
" id="DejaVuSans-31"/>
    </defs>
    <g style="fill:#1f77b4;" transform="translate(65.254688 30.21488)scale(0.2 -0.2)">
     <use transform="translate(0 0.578125)" xlink:href="#DejaVuSans-7c"/>
     <use transform="translate(33.691406 0.578125)" xlink:href="#DejaVuSans-394"/>
     <use transform="translate(102.099609 0.578125)" xlink:href="#DejaVuSans-Oblique-6e"/>
     <use transform="translate(165.478516 0.578125)" xlink:href="#DejaVuSans-7c"/>
     <use transform="translate(186.180991 0.578125)" xlink:href="#DejaVuSans-3d"/>
     <use transform="translate(256.981123 0.578125)" xlink:href="#DejaVuSans-31"/>
    </g>
   </g>
   <g id="text_7">
    <!-- $\left|\Delta n\right|\!\!=\!\!2$ -->
    <g style="fill:#ff7f0e;" transform="translate(116.909545 49.72976)scale(0.2 -0.2)">
     <use transform="translate(0 0.578125)" xlink:href="#DejaVuSans-7c"/>
     <use transform="translate(33.691406 0.578125)" xlink:href="#DejaVuSans-394"/>
     <use transform="translate(102.099609 0.578125)" xlink:href="#DejaVuSans-Oblique-6e"/>
     <use transform="translate(165.478516 0.578125)" xlink:href="#DejaVuSans-7c"/>
     <use transform="translate(186.180991 0.578125)" xlink:href="#DejaVuSans-3d"/>
     <use transform="translate(256.981123 0.578125)" xlink:href="#DejaVuSans-32"/>
    </g>
   </g>
   <g id="text_8">
    <!-- $\left|\Delta n\right|\!\!=\!\!3$ -->
    <defs>
     <path d="M 40.578125 39.3125 
Q 47.65625 37.796875 51.625 33 
Q 55.609375 28.21875 55.609375 21.1875 
Q 55.609375 10.40625 48.1875 4.484375 
Q 40.765625 -1.421875 27.09375 -1.421875 
Q 22.515625 -1.421875 17.65625 -0.515625 
Q 12.796875 0.390625 7.625 2.203125 
L 7.625 11.71875 
Q 11.71875 9.328125 16.59375 8.109375 
Q 21.484375 6.890625 26.8125 6.890625 
Q 36.078125 6.890625 40.9375 10.546875 
Q 45.796875 14.203125 45.796875 21.1875 
Q 45.796875 27.640625 41.28125 31.265625 
Q 36.765625 34.90625 28.71875 34.90625 
L 20.21875 34.90625 
L 20.21875 43.015625 
L 29.109375 43.015625 
Q 36.375 43.015625 40.234375 45.921875 
Q 44.09375 48.828125 44.09375 54.296875 
Q 44.09375 59.90625 40.109375 62.90625 
Q 36.140625 65.921875 28.71875 65.921875 
Q 24.65625 65.921875 20.015625 65.03125 
Q 15.375 64.15625 9.8125 62.3125 
L 9.8125 71.09375 
Q 15.4375 72.65625 20.34375 73.4375 
Q 25.25 74.21875 29.59375 74.21875 
Q 40.828125 74.21875 47.359375 69.109375 
Q 53.90625 64.015625 53.90625 55.328125 
Q 53.90625 49.265625 50.4375 45.09375 
Q 46.96875 40.921875 40.578125 39.3125 
z
" id="DejaVuSans-33"/>
    </defs>
    <g style="fill:#2ca02c;" transform="translate(185.782688 65.341664)scale(0.2 -0.2)">
     <use transform="translate(0 0.578125)" xlink:href="#DejaVuSans-7c"/>
     <use transform="translate(33.691406 0.578125)" xlink:href="#DejaVuSans-394"/>
     <use transform="translate(102.099609 0.578125)" xlink:href="#DejaVuSans-Oblique-6e"/>
     <use transform="translate(165.478516 0.578125)" xlink:href="#DejaVuSans-7c"/>
     <use transform="translate(186.180991 0.578125)" xlink:href="#DejaVuSans-3d"/>
     <use transform="translate(256.981123 0.578125)" xlink:href="#DejaVuSans-33"/>
    </g>
   </g>
   <g id="text_9">
    <!-- $\left|\Delta n\right|\!\!=\!4$ -->
    <g style="fill:#d62728;" transform="translate(271.874116 71.196128)scale(0.2 -0.2)">
     <use transform="translate(0 0.578125)" xlink:href="#DejaVuSans-7c"/>
     <use transform="translate(33.691406 0.578125)" xlink:href="#DejaVuSans-394"/>
     <use transform="translate(102.099609 0.578125)" xlink:href="#DejaVuSans-Oblique-6e"/>
     <use transform="translate(165.478516 0.578125)" xlink:href="#DejaVuSans-7c"/>
     <use transform="translate(186.180991 0.578125)" xlink:href="#DejaVuSans-3d"/>
     <use transform="translate(273.216799 0.578125)" xlink:href="#DejaVuSans-34"/>
    </g>
   </g>
   <g id="text_10">
    <!-- $\left|\Delta n\right|\!\!=\!5$ -->
    <defs>
     <path d="M 10.796875 72.90625 
L 49.515625 72.90625 
L 49.515625 64.59375 
L 19.828125 64.59375 
L 19.828125 46.734375 
Q 21.96875 47.46875 24.109375 47.828125 
Q 26.265625 48.1875 28.421875 48.1875 
Q 40.625 48.1875 47.75 41.5 
Q 54.890625 34.8125 54.890625 23.390625 
Q 54.890625 11.625 47.5625 5.09375 
Q 40.234375 -1.421875 26.90625 -1.421875 
Q 22.3125 -1.421875 17.546875 -0.640625 
Q 12.796875 0.140625 7.71875 1.703125 
L 7.71875 11.625 
Q 12.109375 9.234375 16.796875 8.0625 
Q 21.484375 6.890625 26.703125 6.890625 
Q 35.15625 6.890625 40.078125 11.328125 
Q 45.015625 15.765625 45.015625 23.390625 
Q 45.015625 31 40.078125 35.4375 
Q 35.15625 39.890625 26.703125 39.890625 
Q 22.75 39.890625 18.8125 39.015625 
Q 14.890625 38.140625 10.796875 36.28125 
z
" id="DejaVuSans-35"/>
    </defs>
    <g style="fill:#9467bd;" transform="translate(369.444402 75.099104)scale(0.2 -0.2)">
     <use transform="translate(0 0.578125)" xlink:href="#DejaVuSans-7c"/>
     <use transform="translate(33.691406 0.578125)" xlink:href="#DejaVuSans-394"/>
     <use transform="translate(102.099609 0.578125)" xlink:href="#DejaVuSans-Oblique-6e"/>
     <use transform="translate(165.478516 0.578125)" xlink:href="#DejaVuSans-7c"/>
     <use transform="translate(186.180991 0.578125)" xlink:href="#DejaVuSans-3d"/>
     <use transform="translate(273.216799 0.578125)" xlink:href="#DejaVuSans-35"/>
    </g>
   </g>
   <g id="text_11">
    <!-- (A) -->
    <defs>
     <path d="M 31 75.875 
Q 24.46875 64.65625 21.28125 53.65625 
Q 18.109375 42.671875 18.109375 31.390625 
Q 18.109375 20.125 21.3125 9.0625 
Q 24.515625 -2 31 -13.1875 
L 23.1875 -13.1875 
Q 15.875 -1.703125 12.234375 9.375 
Q 8.59375 20.453125 8.59375 31.390625 
Q 8.59375 42.28125 12.203125 53.3125 
Q 15.828125 64.359375 23.1875 75.875 
z
" id="DejaVuSans-28"/>
     <path d="M 34.1875 63.1875 
L 20.796875 26.90625 
L 47.609375 26.90625 
z
M 28.609375 72.90625 
L 39.796875 72.90625 
L 67.578125 0 
L 57.328125 0 
L 50.6875 18.703125 
L 17.828125 18.703125 
L 11.1875 0 
L 0.78125 0 
z
" id="DejaVuSans-41"/>
     <path d="M 8.015625 75.875 
L 15.828125 75.875 
Q 23.140625 64.359375 26.78125 53.3125 
Q 30.421875 42.28125 30.421875 31.390625 
Q 30.421875 20.453125 26.78125 9.375 
Q 23.140625 -1.703125 15.828125 -13.1875 
L 8.015625 -13.1875 
Q 14.5 -2 17.703125 9.0625 
Q 20.90625 20.125 20.90625 31.390625 
Q 20.90625 42.671875 17.703125 53.65625 
Q 14.5 64.65625 8.015625 75.875 
z
" id="DejaVuSans-29"/>
    </defs>
    <g transform="translate(409.620402 33.727558)scale(0.2 -0.2)">
     <use xlink:href="#DejaVuSans-28"/>
     <use x="39.013672" xlink:href="#DejaVuSans-41"/>
     <use x="107.421875" xlink:href="#DejaVuSans-29"/>
    </g>
   </g>
  </g>
  <g id="axes_2">
   <g id="patch_7">
    <path d="M 65.254688 303.4232 
L 467.014688 303.4232 
L 467.014688 157.0616 
L 65.254688 157.0616 
z
" style="fill:none;"/>
   </g>
   <g id="matplotlib.axis_3">
    <g id="xtick_9">
     <g id="line2d_30">
      <path clip-path="url(#p10fe4e4967)" d="M 65.254688 303.4232 
L 65.254688 157.0616 
" style="fill:none;stroke:#b0b0b0;stroke-linecap:square;stroke-width:0.8;"/>
     </g>
     <g id="line2d_31">
      <g>
       <use style="stroke:#000000;stroke-width:0.8;" x="65.254688" xlink:href="#m935fe5f94d" y="303.4232"/>
      </g>
     </g>
     <g id="text_12">
      <!-- 0 -->
      <g transform="translate(60.482813 321.820856)scale(0.15 -0.15)">
       <use xlink:href="#DejaVuSans-30"/>
      </g>
     </g>
    </g>
    <g id="xtick_10">
     <g id="line2d_32">
      <path clip-path="url(#p10fe4e4967)" d="M 122.648973 303.4232 
L 122.648973 157.0616 
" style="fill:none;stroke:#b0b0b0;stroke-linecap:square;stroke-width:0.8;"/>
     </g>
     <g id="line2d_33">
      <g>
       <use style="stroke:#000000;stroke-width:0.8;" x="122.648973" xlink:href="#m935fe5f94d" y="303.4232"/>
      </g>
     </g>
     <g id="text_13">
      <!-- 10 -->
      <g transform="translate(113.105223 321.820856)scale(0.15 -0.15)">
       <use xlink:href="#DejaVuSans-31"/>
       <use x="63.623047" xlink:href="#DejaVuSans-30"/>
      </g>
     </g>
    </g>
    <g id="xtick_11">
     <g id="line2d_34">
      <path clip-path="url(#p10fe4e4967)" d="M 180.043259 303.4232 
L 180.043259 157.0616 
" style="fill:none;stroke:#b0b0b0;stroke-linecap:square;stroke-width:0.8;"/>
     </g>
     <g id="line2d_35">
      <g>
       <use style="stroke:#000000;stroke-width:0.8;" x="180.043259" xlink:href="#m935fe5f94d" y="303.4232"/>
      </g>
     </g>
     <g id="text_14">
      <!-- 20 -->
      <g transform="translate(170.499509 321.820856)scale(0.15 -0.15)">
       <use xlink:href="#DejaVuSans-32"/>
       <use x="63.623047" xlink:href="#DejaVuSans-30"/>
      </g>
     </g>
    </g>
    <g id="xtick_12">
     <g id="line2d_36">
      <path clip-path="url(#p10fe4e4967)" d="M 237.437545 303.4232 
L 237.437545 157.0616 
" style="fill:none;stroke:#b0b0b0;stroke-linecap:square;stroke-width:0.8;"/>
     </g>
     <g id="line2d_37">
      <g>
       <use style="stroke:#000000;stroke-width:0.8;" x="237.437545" xlink:href="#m935fe5f94d" y="303.4232"/>
      </g>
     </g>
     <g id="text_15">
      <!-- 30 -->
      <g transform="translate(227.893795 321.820856)scale(0.15 -0.15)">
       <use xlink:href="#DejaVuSans-33"/>
       <use x="63.623047" xlink:href="#DejaVuSans-30"/>
      </g>
     </g>
    </g>
    <g id="xtick_13">
     <g id="line2d_38">
      <path clip-path="url(#p10fe4e4967)" d="M 294.83183 303.4232 
L 294.83183 157.0616 
" style="fill:none;stroke:#b0b0b0;stroke-linecap:square;stroke-width:0.8;"/>
     </g>
     <g id="line2d_39">
      <g>
       <use style="stroke:#000000;stroke-width:0.8;" x="294.83183" xlink:href="#m935fe5f94d" y="303.4232"/>
      </g>
     </g>
     <g id="text_16">
      <!-- 40 -->
      <g transform="translate(285.28808 321.820856)scale(0.15 -0.15)">
       <use xlink:href="#DejaVuSans-34"/>
       <use x="63.623047" xlink:href="#DejaVuSans-30"/>
      </g>
     </g>
    </g>
    <g id="xtick_14">
     <g id="line2d_40">
      <path clip-path="url(#p10fe4e4967)" d="M 352.226116 303.4232 
L 352.226116 157.0616 
" style="fill:none;stroke:#b0b0b0;stroke-linecap:square;stroke-width:0.8;"/>
     </g>
     <g id="line2d_41">
      <g>
       <use style="stroke:#000000;stroke-width:0.8;" x="352.226116" xlink:href="#m935fe5f94d" y="303.4232"/>
      </g>
     </g>
     <g id="text_17">
      <!-- 50 -->
      <g transform="translate(342.682366 321.820856)scale(0.15 -0.15)">
       <use xlink:href="#DejaVuSans-35"/>
       <use x="63.623047" xlink:href="#DejaVuSans-30"/>
      </g>
     </g>
    </g>
    <g id="xtick_15">
     <g id="line2d_42">
      <path clip-path="url(#p10fe4e4967)" d="M 409.620402 303.4232 
L 409.620402 157.0616 
" style="fill:none;stroke:#b0b0b0;stroke-linecap:square;stroke-width:0.8;"/>
     </g>
     <g id="line2d_43">
      <g>
       <use style="stroke:#000000;stroke-width:0.8;" x="409.620402" xlink:href="#m935fe5f94d" y="303.4232"/>
      </g>
     </g>
     <g id="text_18">
      <!-- 60 -->
      <g transform="translate(400.076652 321.820856)scale(0.15 -0.15)">
       <use xlink:href="#DejaVuSans-36"/>
       <use x="63.623047" xlink:href="#DejaVuSans-30"/>
      </g>
     </g>
    </g>
    <g id="xtick_16">
     <g id="line2d_44">
      <path clip-path="url(#p10fe4e4967)" d="M 467.014688 303.4232 
L 467.014688 157.0616 
" style="fill:none;stroke:#b0b0b0;stroke-linecap:square;stroke-width:0.8;"/>
     </g>
     <g id="line2d_45">
      <g>
       <use style="stroke:#000000;stroke-width:0.8;" x="467.014688" xlink:href="#m935fe5f94d" y="303.4232"/>
      </g>
     </g>
     <g id="text_19">
      <!-- 70 -->
      <defs>
       <path d="M 8.203125 72.90625 
L 55.078125 72.90625 
L 55.078125 68.703125 
L 28.609375 0 
L 18.3125 0 
L 43.21875 64.59375 
L 8.203125 64.59375 
z
" id="DejaVuSans-37"/>
      </defs>
      <g transform="translate(457.470938 321.820856)scale(0.15 -0.15)">
       <use xlink:href="#DejaVuSans-37"/>
       <use x="63.623047" xlink:href="#DejaVuSans-30"/>
      </g>
     </g>
    </g>
    <g id="text_20">
     <!-- Motional state -->
     <defs>
      <path d="M 9.8125 72.90625 
L 24.515625 72.90625 
L 43.109375 23.296875 
L 61.8125 72.90625 
L 76.515625 72.90625 
L 76.515625 0 
L 66.890625 0 
L 66.890625 64.015625 
L 48.09375 14.015625 
L 38.1875 14.015625 
L 19.390625 64.015625 
L 19.390625 0 
L 9.8125 0 
z
" id="DejaVuSans-4d"/>
      <path d="M 30.609375 48.390625 
Q 23.390625 48.390625 19.1875 42.75 
Q 14.984375 37.109375 14.984375 27.296875 
Q 14.984375 17.484375 19.15625 11.84375 
Q 23.34375 6.203125 30.609375 6.203125 
Q 37.796875 6.203125 41.984375 11.859375 
Q 46.1875 17.53125 46.1875 27.296875 
Q 46.1875 37.015625 41.984375 42.703125 
Q 37.796875 48.390625 30.609375 48.390625 
z
M 30.609375 56 
Q 42.328125 56 49.015625 48.375 
Q 55.71875 40.765625 55.71875 27.296875 
Q 55.71875 13.875 49.015625 6.21875 
Q 42.328125 -1.421875 30.609375 -1.421875 
Q 18.84375 -1.421875 12.171875 6.21875 
Q 5.515625 13.875 5.515625 27.296875 
Q 5.515625 40.765625 12.171875 48.375 
Q 18.84375 56 30.609375 56 
z
" id="DejaVuSans-6f"/>
      <path d="M 18.3125 70.21875 
L 18.3125 54.6875 
L 36.8125 54.6875 
L 36.8125 47.703125 
L 18.3125 47.703125 
L 18.3125 18.015625 
Q 18.3125 11.328125 20.140625 9.421875 
Q 21.96875 7.515625 27.59375 7.515625 
L 36.8125 7.515625 
L 36.8125 0 
L 27.59375 0 
Q 17.1875 0 13.234375 3.875 
Q 9.28125 7.765625 9.28125 18.015625 
L 9.28125 47.703125 
L 2.6875 47.703125 
L 2.6875 54.6875 
L 9.28125 54.6875 
L 9.28125 70.21875 
z
" id="DejaVuSans-74"/>
      <path d="M 9.421875 54.6875 
L 18.40625 54.6875 
L 18.40625 0 
L 9.421875 0 
z
M 9.421875 75.984375 
L 18.40625 75.984375 
L 18.40625 64.59375 
L 9.421875 64.59375 
z
" id="DejaVuSans-69"/>
      <path d="M 54.890625 33.015625 
L 54.890625 0 
L 45.90625 0 
L 45.90625 32.71875 
Q 45.90625 40.484375 42.875 44.328125 
Q 39.84375 48.1875 33.796875 48.1875 
Q 26.515625 48.1875 22.3125 43.546875 
Q 18.109375 38.921875 18.109375 30.90625 
L 18.109375 0 
L 9.078125 0 
L 9.078125 54.6875 
L 18.109375 54.6875 
L 18.109375 46.1875 
Q 21.34375 51.125 25.703125 53.5625 
Q 30.078125 56 35.796875 56 
Q 45.21875 56 50.046875 50.171875 
Q 54.890625 44.34375 54.890625 33.015625 
z
" id="DejaVuSans-6e"/>
      <path d="M 34.28125 27.484375 
Q 23.390625 27.484375 19.1875 25 
Q 14.984375 22.515625 14.984375 16.5 
Q 14.984375 11.71875 18.140625 8.90625 
Q 21.296875 6.109375 26.703125 6.109375 
Q 34.1875 6.109375 38.703125 11.40625 
Q 43.21875 16.703125 43.21875 25.484375 
L 43.21875 27.484375 
z
M 52.203125 31.203125 
L 52.203125 0 
L 43.21875 0 
L 43.21875 8.296875 
Q 40.140625 3.328125 35.546875 0.953125 
Q 30.953125 -1.421875 24.3125 -1.421875 
Q 15.921875 -1.421875 10.953125 3.296875 
Q 6 8.015625 6 15.921875 
Q 6 25.140625 12.171875 29.828125 
Q 18.359375 34.515625 30.609375 34.515625 
L 43.21875 34.515625 
L 43.21875 35.40625 
Q 43.21875 41.609375 39.140625 45 
Q 35.0625 48.390625 27.6875 48.390625 
Q 23 48.390625 18.546875 47.265625 
Q 14.109375 46.140625 10.015625 43.890625 
L 10.015625 52.203125 
Q 14.9375 54.109375 19.578125 55.046875 
Q 24.21875 56 28.609375 56 
Q 40.484375 56 46.34375 49.84375 
Q 52.203125 43.703125 52.203125 31.203125 
z
" id="DejaVuSans-61"/>
      <path d="M 9.421875 75.984375 
L 18.40625 75.984375 
L 18.40625 0 
L 9.421875 0 
z
" id="DejaVuSans-6c"/>
      <path id="DejaVuSans-20"/>
      <path d="M 44.28125 53.078125 
L 44.28125 44.578125 
Q 40.484375 46.53125 36.375 47.5 
Q 32.28125 48.484375 27.875 48.484375 
Q 21.1875 48.484375 17.84375 46.4375 
Q 14.5 44.390625 14.5 40.28125 
Q 14.5 37.15625 16.890625 35.375 
Q 19.28125 33.59375 26.515625 31.984375 
L 29.59375 31.296875 
Q 39.15625 29.25 43.1875 25.515625 
Q 47.21875 21.78125 47.21875 15.09375 
Q 47.21875 7.46875 41.1875 3.015625 
Q 35.15625 -1.421875 24.609375 -1.421875 
Q 20.21875 -1.421875 15.453125 -0.5625 
Q 10.6875 0.296875 5.421875 2 
L 5.421875 11.28125 
Q 10.40625 8.6875 15.234375 7.390625 
Q 20.0625 6.109375 24.8125 6.109375 
Q 31.15625 6.109375 34.5625 8.28125 
Q 37.984375 10.453125 37.984375 14.40625 
Q 37.984375 18.0625 35.515625 20.015625 
Q 33.0625 21.96875 24.703125 23.78125 
L 21.578125 24.515625 
Q 13.234375 26.265625 9.515625 29.90625 
Q 5.8125 33.546875 5.8125 39.890625 
Q 5.8125 47.609375 11.28125 51.796875 
Q 16.75 56 26.8125 56 
Q 31.78125 56 36.171875 55.265625 
Q 40.578125 54.546875 44.28125 53.078125 
z
" id="DejaVuSans-73"/>
      <path d="M 56.203125 29.59375 
L 56.203125 25.203125 
L 14.890625 25.203125 
Q 15.484375 15.921875 20.484375 11.0625 
Q 25.484375 6.203125 34.421875 6.203125 
Q 39.59375 6.203125 44.453125 7.46875 
Q 49.3125 8.734375 54.109375 11.28125 
L 54.109375 2.78125 
Q 49.265625 0.734375 44.1875 -0.34375 
Q 39.109375 -1.421875 33.890625 -1.421875 
Q 20.796875 -1.421875 13.15625 6.1875 
Q 5.515625 13.8125 5.515625 26.8125 
Q 5.515625 40.234375 12.765625 48.109375 
Q 20.015625 56 32.328125 56 
Q 43.359375 56 49.78125 48.890625 
Q 56.203125 41.796875 56.203125 29.59375 
z
M 47.21875 32.234375 
Q 47.125 39.59375 43.09375 43.984375 
Q 39.0625 48.390625 32.421875 48.390625 
Q 24.90625 48.390625 20.390625 44.140625 
Q 15.875 39.890625 15.1875 32.171875 
z
" id="DejaVuSans-65"/>
     </defs>
     <g transform="translate(194.8175 344.137263)scale(0.2 -0.2)">
      <use xlink:href="#DejaVuSans-4d"/>
      <use x="86.279297" xlink:href="#DejaVuSans-6f"/>
      <use x="147.460938" xlink:href="#DejaVuSans-74"/>
      <use x="186.669922" xlink:href="#DejaVuSans-69"/>
      <use x="214.453125" xlink:href="#DejaVuSans-6f"/>
      <use x="275.634766" xlink:href="#DejaVuSans-6e"/>
      <use x="339.013672" xlink:href="#DejaVuSans-61"/>
      <use x="400.292969" xlink:href="#DejaVuSans-6c"/>
      <use x="428.076172" xlink:href="#DejaVuSans-20"/>
      <use x="459.863281" xlink:href="#DejaVuSans-73"/>
      <use x="511.962891" xlink:href="#DejaVuSans-74"/>
      <use x="551.171875" xlink:href="#DejaVuSans-61"/>
      <use x="612.451172" xlink:href="#DejaVuSans-74"/>
      <use x="651.660156" xlink:href="#DejaVuSans-65"/>
     </g>
    </g>
   </g>
   <g id="matplotlib.axis_4">
    <g id="ytick_5">
     <g id="line2d_46">
      <path clip-path="url(#p10fe4e4967)" d="M 65.254688 303.4232 
L 467.014688 303.4232 
" style="fill:none;stroke:#b0b0b0;stroke-linecap:square;stroke-width:0.8;"/>
     </g>
     <g id="line2d_47">
      <g>
       <use style="stroke:#000000;stroke-width:0.8;" x="65.254688" xlink:href="#m5a449fcd67" y="303.4232"/>
      </g>
     </g>
     <g id="text_21">
      <!-- 0 -->
      <g transform="translate(48.710938 309.122028)scale(0.15 -0.15)">
       <use xlink:href="#DejaVuSans-30"/>
      </g>
     </g>
    </g>
    <g id="ytick_6">
     <g id="line2d_48">
      <path clip-path="url(#p10fe4e4967)" d="M 65.254688 250.2008 
L 467.014688 250.2008 
" style="fill:none;stroke:#b0b0b0;stroke-linecap:square;stroke-width:0.8;"/>
     </g>
     <g id="line2d_49">
      <g>
       <use style="stroke:#000000;stroke-width:0.8;" x="65.254688" xlink:href="#m5a449fcd67" y="250.2008"/>
      </g>
     </g>
     <g id="text_22">
      <!-- 2 -->
      <g transform="translate(48.710938 255.899628)scale(0.15 -0.15)">
       <use xlink:href="#DejaVuSans-32"/>
      </g>
     </g>
    </g>
    <g id="ytick_7">
     <g id="line2d_50">
      <path clip-path="url(#p10fe4e4967)" d="M 65.254688 196.9784 
L 467.014688 196.9784 
" style="fill:none;stroke:#b0b0b0;stroke-linecap:square;stroke-width:0.8;"/>
     </g>
     <g id="line2d_51">
      <g>
       <use style="stroke:#000000;stroke-width:0.8;" x="65.254688" xlink:href="#m5a449fcd67" y="196.9784"/>
      </g>
     </g>
     <g id="text_23">
      <!-- 4 -->
      <g transform="translate(48.710938 202.677228)scale(0.15 -0.15)">
       <use xlink:href="#DejaVuSans-34"/>
      </g>
     </g>
    </g>
    <g id="text_24">
     <!-- $\overline{|\Delta n|}$ after OP -->
     <defs>
      <path d="M 37.109375 75.984375 
L 37.109375 68.5 
L 28.515625 68.5 
Q 23.6875 68.5 21.796875 66.546875 
Q 19.921875 64.59375 19.921875 59.515625 
L 19.921875 54.6875 
L 34.71875 54.6875 
L 34.71875 47.703125 
L 19.921875 47.703125 
L 19.921875 0 
L 10.890625 0 
L 10.890625 47.703125 
L 2.296875 47.703125 
L 2.296875 54.6875 
L 10.890625 54.6875 
L 10.890625 58.5 
Q 10.890625 67.625 15.140625 71.796875 
Q 19.390625 75.984375 28.609375 75.984375 
z
" id="DejaVuSans-66"/>
      <path d="M 41.109375 46.296875 
Q 39.59375 47.171875 37.8125 47.578125 
Q 36.03125 48 33.890625 48 
Q 26.265625 48 22.1875 43.046875 
Q 18.109375 38.09375 18.109375 28.8125 
L 18.109375 0 
L 9.078125 0 
L 9.078125 54.6875 
L 18.109375 54.6875 
L 18.109375 46.1875 
Q 20.953125 51.171875 25.484375 53.578125 
Q 30.03125 56 36.53125 56 
Q 37.453125 56 38.578125 55.875 
Q 39.703125 55.765625 41.0625 55.515625 
z
" id="DejaVuSans-72"/>
      <path d="M 39.40625 66.21875 
Q 28.65625 66.21875 22.328125 58.203125 
Q 16.015625 50.203125 16.015625 36.375 
Q 16.015625 22.609375 22.328125 14.59375 
Q 28.65625 6.59375 39.40625 6.59375 
Q 50.140625 6.59375 56.421875 14.59375 
Q 62.703125 22.609375 62.703125 36.375 
Q 62.703125 50.203125 56.421875 58.203125 
Q 50.140625 66.21875 39.40625 66.21875 
z
M 39.40625 74.21875 
Q 54.734375 74.21875 63.90625 63.9375 
Q 73.09375 53.65625 73.09375 36.375 
Q 73.09375 19.140625 63.90625 8.859375 
Q 54.734375 -1.421875 39.40625 -1.421875 
Q 24.03125 -1.421875 14.8125 8.828125 
Q 5.609375 19.09375 5.609375 36.375 
Q 5.609375 53.65625 14.8125 63.9375 
Q 24.03125 74.21875 39.40625 74.21875 
z
" id="DejaVuSans-4f"/>
      <path d="M 19.671875 64.796875 
L 19.671875 37.40625 
L 32.078125 37.40625 
Q 38.96875 37.40625 42.71875 40.96875 
Q 46.484375 44.53125 46.484375 51.125 
Q 46.484375 57.671875 42.71875 61.234375 
Q 38.96875 64.796875 32.078125 64.796875 
z
M 9.8125 72.90625 
L 32.078125 72.90625 
Q 44.34375 72.90625 50.609375 67.359375 
Q 56.890625 61.8125 56.890625 51.125 
Q 56.890625 40.328125 50.609375 34.8125 
Q 44.34375 29.296875 32.078125 29.296875 
L 19.671875 29.296875 
L 19.671875 0 
L 9.8125 0 
z
" id="DejaVuSans-50"/>
     </defs>
     <g transform="translate(39.910937 294.3424)rotate(-90)scale(0.2 -0.2)">
      <use transform="translate(0 1.328125)" xlink:href="#DejaVuSans-7c"/>
      <use transform="translate(33.691406 1.328125)" xlink:href="#DejaVuSans-394"/>
      <use transform="translate(102.099609 1.328125)" xlink:href="#DejaVuSans-Oblique-6e"/>
      <use transform="translate(165.478516 1.328125)" xlink:href="#DejaVuSans-7c"/>
      <use transform="translate(199.169922 0.828125)" xlink:href="#DejaVuSans-20"/>
      <use transform="translate(230.957031 0.828125)" xlink:href="#DejaVuSans-61"/>
      <use transform="translate(292.236328 0.828125)" xlink:href="#DejaVuSans-66"/>
      <use transform="translate(327.441406 0.828125)" xlink:href="#DejaVuSans-74"/>
      <use transform="translate(366.650391 0.828125)" xlink:href="#DejaVuSans-65"/>
      <use transform="translate(428.173828 0.828125)" xlink:href="#DejaVuSans-72"/>
      <use transform="translate(469.287109 0.828125)" xlink:href="#DejaVuSans-20"/>
      <use transform="translate(501.074219 0.828125)" xlink:href="#DejaVuSans-4f"/>
      <use transform="translate(579.785156 0.828125)" xlink:href="#DejaVuSans-50"/>
      <path d="M 0 89.5 
L 0 95.75 
L 199.169922 95.75 
L 199.169922 89.5 
L 0 89.5 
z
"/>
     </g>
    </g>
   </g>
   <g id="line2d_52">
    <path clip-path="url(#p10fe4e4967)" d="M 65.254688 296.473565 
L 70.994116 287.55326 
L 76.733545 281.209889 
L 82.472973 276.25698 
L 88.212402 272.110239 
L 93.95183 268.478397 
L 99.691259 265.208023 
L 105.430688 262.207812 
L 111.170116 259.419697 
L 116.909545 256.802894 
L 122.648973 254.327188 
L 128.388402 251.9688 
L 134.12783 249.710362 
L 139.867259 247.539822 
L 145.606688 245.447422 
L 151.346116 243.424661 
L 157.085545 241.465485 
L 162.824973 239.566272 
L 168.564402 237.721268 
L 174.30383 235.925827 
L 180.043259 234.176803 
L 185.782688 232.471786 
L 191.522116 230.806937 
L 197.261545 229.180542 
L 203.000973 227.589981 
L 208.740402 226.031752 
L 214.47983 224.504727 
L 220.219259 223.00707 
L 225.958687 221.538186 
L 231.698116 220.094846 
L 237.437545 218.676021 
L 243.176973 217.282422 
L 248.916402 215.909748 
L 254.65583 214.558328 
L 260.395259 213.226932 
L 266.134688 211.914887 
L 271.874116 210.622085 
L 277.613545 209.346464 
L 283.352973 208.087314 
L 289.092402 206.845491 
L 294.83183 205.618121 
L 300.571259 204.405787 
L 306.310688 203.207951 
L 312.050116 202.023858 
L 317.789545 200.85331 
L 323.528973 199.696663 
L 329.268402 198.551995 
L 335.00783 197.420048 
L 340.747259 196.300733 
L 346.486688 195.19228 
L 352.226116 194.094828 
L 357.965545 193.001767 
L 363.704973 191.932473 
L 369.444402 190.867036 
L 375.18383 189.811459 
L 380.923259 188.765436 
L 386.662688 187.729692 
L 392.402116 186.702679 
L 398.141545 185.685359 
L 403.880973 184.670679 
L 409.620402 183.676619 
L 415.35983 182.684171 
L 421.099259 181.699907 
L 426.838688 180.723802 
L 432.578116 179.755425 
L 438.317545 178.794738 
L 444.056973 177.841195 
L 449.796402 176.894922 
L 455.53583 175.956517 
L 461.275259 175.024038 
L 467.014688 174.099008 
" style="fill:none;stroke:#1f77b4;stroke-linecap:square;stroke-width:1.5;"/>
   </g>
   <g id="line2d_53">
    <path clip-path="url(#p10fe4e4967)" d="M 65.254688 300.870802 
L 70.994116 296.639627 
L 76.733545 293.070335 
L 82.472973 290.005578 
L 88.212402 287.328302 
L 93.95183 284.951858 
L 99.691259 282.811901 
L 105.430688 280.860527 
L 111.170116 279.061407 
L 116.909545 277.387345 
L 122.648973 275.817969 
L 128.388402 274.337005 
L 134.12783 272.931729 
L 139.867259 271.592272 
L 145.606688 270.310376 
L 151.346116 269.079275 
" style="fill:none;stroke:#ff7f0e;stroke-linecap:square;stroke-width:1.5;"/>
   </g>
   <g id="line2d_54">
    <path clip-path="url(#p10fe4e4967)" d="M 65.254688 301.562609 
L 70.994116 298.323192 
L 76.733545 295.47548 
L 82.472973 292.949402 
L 88.212402 290.686931 
L 93.95183 288.642127 
L 99.691259 286.777732 
L 105.430688 285.063886 
L 111.170116 283.476574 
L 116.909545 281.996226 
L 122.648973 280.607308 
L 128.388402 279.296758 
L 134.12783 278.054209 
L 139.867259 276.871083 
L 145.606688 275.740539 
L 151.346116 274.656376 
" style="fill:none;stroke:#2ca02c;stroke-linecap:square;stroke-width:1.5;"/>
   </g>
   <g id="patch_8">
    <path d="M 65.254688 303.4232 
L 65.254688 157.0616 
" style="fill:none;stroke:#000000;stroke-linecap:square;stroke-linejoin:miter;stroke-width:0.8;"/>
   </g>
   <g id="patch_9">
    <path d="M 467.014688 303.4232 
L 467.014688 157.0616 
" style="fill:none;stroke:#000000;stroke-linecap:square;stroke-linejoin:miter;stroke-width:0.8;"/>
   </g>
   <g id="patch_10">
    <path d="M 65.254688 303.4232 
L 467.014688 303.4232 
" style="fill:none;stroke:#000000;stroke-linecap:square;stroke-linejoin:miter;stroke-width:0.8;"/>
   </g>
   <g id="patch_11">
    <path d="M 65.254688 157.0616 
L 467.014688 157.0616 
" style="fill:none;stroke:#000000;stroke-linecap:square;stroke-linejoin:miter;stroke-width:0.8;"/>
   </g>
   <g id="text_25">
    <!-- (B) -->
    <defs>
     <path d="M 19.671875 34.8125 
L 19.671875 8.109375 
L 35.5 8.109375 
Q 43.453125 8.109375 47.28125 11.40625 
Q 51.125 14.703125 51.125 21.484375 
Q 51.125 28.328125 47.28125 31.5625 
Q 43.453125 34.8125 35.5 34.8125 
z
M 19.671875 64.796875 
L 19.671875 42.828125 
L 34.28125 42.828125 
Q 41.5 42.828125 45.03125 45.53125 
Q 48.578125 48.25 48.578125 53.8125 
Q 48.578125 59.328125 45.03125 62.0625 
Q 41.5 64.796875 34.28125 64.796875 
z
M 9.8125 72.90625 
L 35.015625 72.90625 
Q 46.296875 72.90625 52.390625 68.21875 
Q 58.5 63.53125 58.5 54.890625 
Q 58.5 48.1875 55.375 44.234375 
Q 52.25 40.28125 46.1875 39.3125 
Q 53.46875 37.75 57.5 32.78125 
Q 61.53125 27.828125 61.53125 20.40625 
Q 61.53125 10.640625 54.890625 5.3125 
Q 48.25 0 35.984375 0 
L 9.8125 0 
z
" id="DejaVuSans-42"/>
    </defs>
    <g transform="translate(76.733545 191.65616)scale(0.2 -0.2)">
     <use xlink:href="#DejaVuSans-28"/>
     <use x="39.013672" xlink:href="#DejaVuSans-42"/>
     <use x="107.617188" xlink:href="#DejaVuSans-29"/>
    </g>
   </g>
   <g id="legend_1">
    <g id="patch_12">
     <path d="M 267.822188 294.4232 
L 454.414688 294.4232 
Q 458.014688 294.4232 458.014688 290.8232 
L 458.014688 213.361325 
Q 458.014688 209.761325 454.414688 209.761325 
L 267.822188 209.761325 
Q 264.222188 209.761325 264.222188 213.361325 
L 264.222188 290.8232 
Q 264.222188 294.4232 267.822188 294.4232 
z
" style="fill:#ffffff;opacity:0.8;stroke:#cccccc;stroke-linejoin:miter;"/>
    </g>
    <g id="line2d_55">
     <path d="M 271.422188 224.338513 
L 307.422188 224.338513 
" style="fill:none;stroke:#1f77b4;stroke-linecap:square;stroke-width:1.5;"/>
    </g>
    <g id="line2d_56"/>
    <g id="text_26">
     <!-- Axial -->
     <defs>
      <path d="M 54.890625 54.6875 
L 35.109375 28.078125 
L 55.90625 0 
L 45.3125 0 
L 29.390625 21.484375 
L 13.484375 0 
L 2.875 0 
L 24.125 28.609375 
L 4.6875 54.6875 
L 15.28125 54.6875 
L 29.78125 35.203125 
L 44.28125 54.6875 
z
" id="DejaVuSans-78"/>
     </defs>
     <g transform="translate(321.822187 230.638513)scale(0.18 -0.18)">
      <use xlink:href="#DejaVuSans-41"/>
      <use x="68.408203" xlink:href="#DejaVuSans-78"/>
      <use x="127.587891" xlink:href="#DejaVuSans-69"/>
      <use x="155.371094" xlink:href="#DejaVuSans-61"/>
      <use x="216.650391" xlink:href="#DejaVuSans-6c"/>
     </g>
    </g>
    <g id="line2d_57">
     <path d="M 271.422188 250.759138 
L 307.422188 250.759138 
" style="fill:none;stroke:#ff7f0e;stroke-linecap:square;stroke-width:1.5;"/>
    </g>
    <g id="line2d_58"/>
    <g id="text_27">
     <!-- Radial (axis 2) -->
     <defs>
      <path d="M 44.390625 34.1875 
Q 47.5625 33.109375 50.5625 29.59375 
Q 53.5625 26.078125 56.59375 19.921875 
L 66.609375 0 
L 56 0 
L 46.6875 18.703125 
Q 43.0625 26.03125 39.671875 28.421875 
Q 36.28125 30.8125 30.421875 30.8125 
L 19.671875 30.8125 
L 19.671875 0 
L 9.8125 0 
L 9.8125 72.90625 
L 32.078125 72.90625 
Q 44.578125 72.90625 50.734375 67.671875 
Q 56.890625 62.453125 56.890625 51.90625 
Q 56.890625 45.015625 53.6875 40.46875 
Q 50.484375 35.9375 44.390625 34.1875 
z
M 19.671875 64.796875 
L 19.671875 38.921875 
L 32.078125 38.921875 
Q 39.203125 38.921875 42.84375 42.21875 
Q 46.484375 45.515625 46.484375 51.90625 
Q 46.484375 58.296875 42.84375 61.546875 
Q 39.203125 64.796875 32.078125 64.796875 
z
" id="DejaVuSans-52"/>
      <path d="M 45.40625 46.390625 
L 45.40625 75.984375 
L 54.390625 75.984375 
L 54.390625 0 
L 45.40625 0 
L 45.40625 8.203125 
Q 42.578125 3.328125 38.25 0.953125 
Q 33.9375 -1.421875 27.875 -1.421875 
Q 17.96875 -1.421875 11.734375 6.484375 
Q 5.515625 14.40625 5.515625 27.296875 
Q 5.515625 40.1875 11.734375 48.09375 
Q 17.96875 56 27.875 56 
Q 33.9375 56 38.25 53.625 
Q 42.578125 51.265625 45.40625 46.390625 
z
M 14.796875 27.296875 
Q 14.796875 17.390625 18.875 11.75 
Q 22.953125 6.109375 30.078125 6.109375 
Q 37.203125 6.109375 41.296875 11.75 
Q 45.40625 17.390625 45.40625 27.296875 
Q 45.40625 37.203125 41.296875 42.84375 
Q 37.203125 48.484375 30.078125 48.484375 
Q 22.953125 48.484375 18.875 42.84375 
Q 14.796875 37.203125 14.796875 27.296875 
z
" id="DejaVuSans-64"/>
     </defs>
     <g transform="translate(321.822187 257.059138)scale(0.18 -0.18)">
      <use xlink:href="#DejaVuSans-52"/>
      <use x="69.451172" xlink:href="#DejaVuSans-61"/>
      <use x="130.730469" xlink:href="#DejaVuSans-64"/>
      <use x="194.207031" xlink:href="#DejaVuSans-69"/>
      <use x="221.990234" xlink:href="#DejaVuSans-61"/>
      <use x="283.269531" xlink:href="#DejaVuSans-6c"/>
      <use x="311.052734" xlink:href="#DejaVuSans-20"/>
      <use x="342.839844" xlink:href="#DejaVuSans-28"/>
      <use x="381.853516" xlink:href="#DejaVuSans-61"/>
      <use x="443.132812" xlink:href="#DejaVuSans-78"/>
      <use x="502.3125" xlink:href="#DejaVuSans-69"/>
      <use x="530.095703" xlink:href="#DejaVuSans-73"/>
      <use x="582.195312" xlink:href="#DejaVuSans-20"/>
      <use x="613.982422" xlink:href="#DejaVuSans-32"/>
      <use x="677.605469" xlink:href="#DejaVuSans-29"/>
     </g>
    </g>
    <g id="line2d_59">
     <path d="M 271.422188 277.179762 
L 307.422188 277.179762 
" style="fill:none;stroke:#2ca02c;stroke-linecap:square;stroke-width:1.5;"/>
    </g>
    <g id="line2d_60"/>
    <g id="text_28">
     <!-- Radial (axis 3) -->
     <g transform="translate(321.822187 283.479762)scale(0.18 -0.18)">
      <use xlink:href="#DejaVuSans-52"/>
      <use x="69.451172" xlink:href="#DejaVuSans-61"/>
      <use x="130.730469" xlink:href="#DejaVuSans-64"/>
      <use x="194.207031" xlink:href="#DejaVuSans-69"/>
      <use x="221.990234" xlink:href="#DejaVuSans-61"/>
      <use x="283.269531" xlink:href="#DejaVuSans-6c"/>
      <use x="311.052734" xlink:href="#DejaVuSans-20"/>
      <use x="342.839844" xlink:href="#DejaVuSans-28"/>
      <use x="381.853516" xlink:href="#DejaVuSans-61"/>
      <use x="443.132812" xlink:href="#DejaVuSans-78"/>
      <use x="502.3125" xlink:href="#DejaVuSans-69"/>
      <use x="530.095703" xlink:href="#DejaVuSans-73"/>
      <use x="582.195312" xlink:href="#DejaVuSans-20"/>
      <use x="613.982422" xlink:href="#DejaVuSans-33"/>
      <use x="677.605469" xlink:href="#DejaVuSans-29"/>
     </g>
    </g>
   </g>
  </g>
 </g>
 <defs>
  <clipPath id="p056be913fa">
   <rect height="146.3616" width="401.76" x="65.254688" y="10.7"/>
  </clipPath>
  <clipPath id="p10fe4e4967">
   <rect height="146.3616" width="401.76" x="65.254688" y="157.0616"/>
  </clipPath>
 </defs>
</svg>
