<?xml version="1.0" encoding="utf-8" standalone="no"?>
<!DOCTYPE svg PUBLIC "-//W3C//DTD SVG 1.1//EN"
  "http://www.w3.org/Graphics/SVG/1.1/DTD/svg11.dtd">
<!-- Created with matplotlib (http://matplotlib.org/) -->
<svg height="331pt" version="1.1" viewBox="0 0 429 331" width="429pt" xmlns="http://www.w3.org/2000/svg" xmlns:xlink="http://www.w3.org/1999/xlink">
 <defs>
  <style type="text/css">
*{stroke-linecap:butt;stroke-linejoin:round;}
  </style>
 </defs>
 <g id="figure_1">
  <g id="patch_1">
   <path d="M 0 331.128016 
L 429.230937 331.128016 
L 429.230937 0 
L 0 0 
z
" style="fill:none;"/>
  </g>
  <g id="axes_1">
   <g id="patch_2">
    <path d="M 61.410938 279.010828 
L 418.530938 279.010828 
L 418.530938 12.898828 
L 61.410938 12.898828 
z
" style="fill:none;"/>
   </g>
   <g id="matplotlib.axis_1">
    <g id="xtick_1">
     <g id="line2d_1">
      <path clip-path="url(#p958e4309ff)" d="M 61.410938 279.010828 
L 61.410938 12.898828 
" style="fill:none;stroke:#b0b0b0;stroke-linecap:square;stroke-width:0.8;"/>
     </g>
     <g id="line2d_2">
      <defs>
       <path d="M 0 0 
L 0 3.5 
" id="m060a9aa6c4" style="stroke:#000000;stroke-width:0.8;"/>
      </defs>
      <g>
       <use style="stroke:#000000;stroke-width:0.8;" x="61.410938" xlink:href="#m060a9aa6c4" y="279.010828"/>
      </g>
     </g>
     <g id="text_1">
      <!-- 0 -->
      <defs>
       <path d="M 31.78125 66.40625 
Q 24.171875 66.40625 20.328125 58.90625 
Q 16.5 51.421875 16.5 36.375 
Q 16.5 21.390625 20.328125 13.890625 
Q 24.171875 6.390625 31.78125 6.390625 
Q 39.453125 6.390625 43.28125 13.890625 
Q 47.125 21.390625 47.125 36.375 
Q 47.125 51.421875 43.28125 58.90625 
Q 39.453125 66.40625 31.78125 66.40625 
z
M 31.78125 74.21875 
Q 44.046875 74.21875 50.515625 64.515625 
Q 56.984375 54.828125 56.984375 36.375 
Q 56.984375 17.96875 50.515625 8.265625 
Q 44.046875 -1.421875 31.78125 -1.421875 
Q 19.53125 -1.421875 13.0625 8.265625 
Q 6.59375 17.96875 6.59375 36.375 
Q 6.59375 54.828125 13.0625 64.515625 
Q 19.53125 74.21875 31.78125 74.21875 
z
" id="DejaVuSans-30"/>
      </defs>
      <g transform="translate(56.639063 297.408484)scale(0.15 -0.15)">
       <use xlink:href="#DejaVuSans-30"/>
      </g>
     </g>
    </g>
    <g id="xtick_2">
     <g id="line2d_3">
      <path clip-path="url(#p958e4309ff)" d="M 140.770938 279.010828 
L 140.770938 12.898828 
" style="fill:none;stroke:#b0b0b0;stroke-linecap:square;stroke-width:0.8;"/>
     </g>
     <g id="line2d_4">
      <g>
       <use style="stroke:#000000;stroke-width:0.8;" x="140.770938" xlink:href="#m060a9aa6c4" y="279.010828"/>
      </g>
     </g>
     <g id="text_2">
      <!-- 100 -->
      <defs>
       <path d="M 12.40625 8.296875 
L 28.515625 8.296875 
L 28.515625 63.921875 
L 10.984375 60.40625 
L 10.984375 69.390625 
L 28.421875 72.90625 
L 38.28125 72.90625 
L 38.28125 8.296875 
L 54.390625 8.296875 
L 54.390625 0 
L 12.40625 0 
z
" id="DejaVuSans-31"/>
      </defs>
      <g transform="translate(126.455313 297.408484)scale(0.15 -0.15)">
       <use xlink:href="#DejaVuSans-31"/>
       <use x="63.623047" xlink:href="#DejaVuSans-30"/>
       <use x="127.246094" xlink:href="#DejaVuSans-30"/>
      </g>
     </g>
    </g>
    <g id="xtick_3">
     <g id="line2d_5">
      <path clip-path="url(#p958e4309ff)" d="M 220.130938 279.010828 
L 220.130938 12.898828 
" style="fill:none;stroke:#b0b0b0;stroke-linecap:square;stroke-width:0.8;"/>
     </g>
     <g id="line2d_6">
      <g>
       <use style="stroke:#000000;stroke-width:0.8;" x="220.130938" xlink:href="#m060a9aa6c4" y="279.010828"/>
      </g>
     </g>
     <g id="text_3">
      <!-- 200 -->
      <defs>
       <path d="M 19.1875 8.296875 
L 53.609375 8.296875 
L 53.609375 0 
L 7.328125 0 
L 7.328125 8.296875 
Q 12.9375 14.109375 22.625 23.890625 
Q 32.328125 33.6875 34.8125 36.53125 
Q 39.546875 41.84375 41.421875 45.53125 
Q 43.3125 49.21875 43.3125 52.78125 
Q 43.3125 58.59375 39.234375 62.25 
Q 35.15625 65.921875 28.609375 65.921875 
Q 23.96875 65.921875 18.8125 64.3125 
Q 13.671875 62.703125 7.8125 59.421875 
L 7.8125 69.390625 
Q 13.765625 71.78125 18.9375 73 
Q 24.125 74.21875 28.421875 74.21875 
Q 39.75 74.21875 46.484375 68.546875 
Q 53.21875 62.890625 53.21875 53.421875 
Q 53.21875 48.921875 51.53125 44.890625 
Q 49.859375 40.875 45.40625 35.40625 
Q 44.1875 33.984375 37.640625 27.21875 
Q 31.109375 20.453125 19.1875 8.296875 
z
" id="DejaVuSans-32"/>
      </defs>
      <g transform="translate(205.815313 297.408484)scale(0.15 -0.15)">
       <use xlink:href="#DejaVuSans-32"/>
       <use x="63.623047" xlink:href="#DejaVuSans-30"/>
       <use x="127.246094" xlink:href="#DejaVuSans-30"/>
      </g>
     </g>
    </g>
    <g id="xtick_4">
     <g id="line2d_7">
      <path clip-path="url(#p958e4309ff)" d="M 299.490938 279.010828 
L 299.490938 12.898828 
" style="fill:none;stroke:#b0b0b0;stroke-linecap:square;stroke-width:0.8;"/>
     </g>
     <g id="line2d_8">
      <g>
       <use style="stroke:#000000;stroke-width:0.8;" x="299.490938" xlink:href="#m060a9aa6c4" y="279.010828"/>
      </g>
     </g>
     <g id="text_4">
      <!-- 300 -->
      <defs>
       <path d="M 40.578125 39.3125 
Q 47.65625 37.796875 51.625 33 
Q 55.609375 28.21875 55.609375 21.1875 
Q 55.609375 10.40625 48.1875 4.484375 
Q 40.765625 -1.421875 27.09375 -1.421875 
Q 22.515625 -1.421875 17.65625 -0.515625 
Q 12.796875 0.390625 7.625 2.203125 
L 7.625 11.71875 
Q 11.71875 9.328125 16.59375 8.109375 
Q 21.484375 6.890625 26.8125 6.890625 
Q 36.078125 6.890625 40.9375 10.546875 
Q 45.796875 14.203125 45.796875 21.1875 
Q 45.796875 27.640625 41.28125 31.265625 
Q 36.765625 34.90625 28.71875 34.90625 
L 20.21875 34.90625 
L 20.21875 43.015625 
L 29.109375 43.015625 
Q 36.375 43.015625 40.234375 45.921875 
Q 44.09375 48.828125 44.09375 54.296875 
Q 44.09375 59.90625 40.109375 62.90625 
Q 36.140625 65.921875 28.71875 65.921875 
Q 24.65625 65.921875 20.015625 65.03125 
Q 15.375 64.15625 9.8125 62.3125 
L 9.8125 71.09375 
Q 15.4375 72.65625 20.34375 73.4375 
Q 25.25 74.21875 29.59375 74.21875 
Q 40.828125 74.21875 47.359375 69.109375 
Q 53.90625 64.015625 53.90625 55.328125 
Q 53.90625 49.265625 50.4375 45.09375 
Q 46.96875 40.921875 40.578125 39.3125 
z
" id="DejaVuSans-33"/>
      </defs>
      <g transform="translate(285.175313 297.408484)scale(0.15 -0.15)">
       <use xlink:href="#DejaVuSans-33"/>
       <use x="63.623047" xlink:href="#DejaVuSans-30"/>
       <use x="127.246094" xlink:href="#DejaVuSans-30"/>
      </g>
     </g>
    </g>
    <g id="xtick_5">
     <g id="line2d_9">
      <path clip-path="url(#p958e4309ff)" d="M 378.850938 279.010828 
L 378.850938 12.898828 
" style="fill:none;stroke:#b0b0b0;stroke-linecap:square;stroke-width:0.8;"/>
     </g>
     <g id="line2d_10">
      <g>
       <use style="stroke:#000000;stroke-width:0.8;" x="378.850938" xlink:href="#m060a9aa6c4" y="279.010828"/>
      </g>
     </g>
     <g id="text_5">
      <!-- 400 -->
      <defs>
       <path d="M 37.796875 64.3125 
L 12.890625 25.390625 
L 37.796875 25.390625 
z
M 35.203125 72.90625 
L 47.609375 72.90625 
L 47.609375 25.390625 
L 58.015625 25.390625 
L 58.015625 17.1875 
L 47.609375 17.1875 
L 47.609375 0 
L 37.796875 0 
L 37.796875 17.1875 
L 4.890625 17.1875 
L 4.890625 26.703125 
z
" id="DejaVuSans-34"/>
      </defs>
      <g transform="translate(364.535313 297.408484)scale(0.15 -0.15)">
       <use xlink:href="#DejaVuSans-34"/>
       <use x="63.623047" xlink:href="#DejaVuSans-30"/>
       <use x="127.246094" xlink:href="#DejaVuSans-30"/>
      </g>
     </g>
    </g>
    <g id="text_6">
     <!-- Time ($\mu s$) -->
     <defs>
      <path d="M -0.296875 72.90625 
L 61.375 72.90625 
L 61.375 64.59375 
L 35.5 64.59375 
L 35.5 0 
L 25.59375 0 
L 25.59375 64.59375 
L -0.296875 64.59375 
z
" id="DejaVuSans-54"/>
      <path d="M 9.421875 54.6875 
L 18.40625 54.6875 
L 18.40625 0 
L 9.421875 0 
z
M 9.421875 75.984375 
L 18.40625 75.984375 
L 18.40625 64.59375 
L 9.421875 64.59375 
z
" id="DejaVuSans-69"/>
      <path d="M 52 44.1875 
Q 55.375 50.25 60.0625 53.125 
Q 64.75 56 71.09375 56 
Q 79.640625 56 84.28125 50.015625 
Q 88.921875 44.046875 88.921875 33.015625 
L 88.921875 0 
L 79.890625 0 
L 79.890625 32.71875 
Q 79.890625 40.578125 77.09375 44.375 
Q 74.3125 48.1875 68.609375 48.1875 
Q 61.625 48.1875 57.5625 43.546875 
Q 53.515625 38.921875 53.515625 30.90625 
L 53.515625 0 
L 44.484375 0 
L 44.484375 32.71875 
Q 44.484375 40.625 41.703125 44.40625 
Q 38.921875 48.1875 33.109375 48.1875 
Q 26.21875 48.1875 22.15625 43.53125 
Q 18.109375 38.875 18.109375 30.90625 
L 18.109375 0 
L 9.078125 0 
L 9.078125 54.6875 
L 18.109375 54.6875 
L 18.109375 46.1875 
Q 21.1875 51.21875 25.484375 53.609375 
Q 29.78125 56 35.6875 56 
Q 41.65625 56 45.828125 52.96875 
Q 50 49.953125 52 44.1875 
z
" id="DejaVuSans-6d"/>
      <path d="M 56.203125 29.59375 
L 56.203125 25.203125 
L 14.890625 25.203125 
Q 15.484375 15.921875 20.484375 11.0625 
Q 25.484375 6.203125 34.421875 6.203125 
Q 39.59375 6.203125 44.453125 7.46875 
Q 49.3125 8.734375 54.109375 11.28125 
L 54.109375 2.78125 
Q 49.265625 0.734375 44.1875 -0.34375 
Q 39.109375 -1.421875 33.890625 -1.421875 
Q 20.796875 -1.421875 13.15625 6.1875 
Q 5.515625 13.8125 5.515625 26.8125 
Q 5.515625 40.234375 12.765625 48.109375 
Q 20.015625 56 32.328125 56 
Q 43.359375 56 49.78125 48.890625 
Q 56.203125 41.796875 56.203125 29.59375 
z
M 47.21875 32.234375 
Q 47.125 39.59375 43.09375 43.984375 
Q 39.0625 48.390625 32.421875 48.390625 
Q 24.90625 48.390625 20.390625 44.140625 
Q 15.875 39.890625 15.1875 32.171875 
z
" id="DejaVuSans-65"/>
      <path id="DejaVuSans-20"/>
      <path d="M 31 75.875 
Q 24.46875 64.65625 21.28125 53.65625 
Q 18.109375 42.671875 18.109375 31.390625 
Q 18.109375 20.125 21.3125 9.0625 
Q 24.515625 -2 31 -13.1875 
L 23.1875 -13.1875 
Q 15.875 -1.703125 12.234375 9.375 
Q 8.59375 20.453125 8.59375 31.390625 
Q 8.59375 42.28125 12.203125 53.3125 
Q 15.828125 64.359375 23.1875 75.875 
z
" id="DejaVuSans-28"/>
      <path d="M -1.3125 -20.796875 
L 13.375 54.6875 
L 22.40625 54.6875 
L 15.765625 20.65625 
Q 15.578125 19.625 15.421875 18.359375 
Q 15.28125 17.09375 15.28125 15.828125 
Q 15.28125 11.28125 18.140625 8.828125 
Q 21 6.390625 26.3125 6.390625 
Q 33.546875 6.390625 37.984375 10.484375 
Q 42.4375 14.59375 44 22.796875 
L 50.203125 54.6875 
L 59.1875 54.6875 
L 51.03125 12.640625 
Q 50.828125 11.71875 50.75 11.03125 
Q 50.6875 10.359375 50.6875 9.8125 
Q 50.6875 8.296875 51.296875 7.59375 
Q 51.90625 6.890625 53.21875 6.890625 
Q 53.71875 6.890625 54.5625 7.125 
Q 55.421875 7.375 56.984375 8.015625 
L 55.609375 0.78125 
Q 53.46875 -0.296875 51.515625 -0.859375 
Q 49.5625 -1.421875 47.703125 -1.421875 
Q 44.484375 -1.421875 42.65625 0.625 
Q 40.828125 2.6875 40.828125 6.296875 
Q 38.09375 2.390625 34.296875 0.484375 
Q 30.515625 -1.421875 25.390625 -1.421875 
Q 20.84375 -1.421875 17.453125 0.671875 
Q 14.0625 2.78125 12.984375 6.203125 
L 7.71875 -20.796875 
z
" id="DejaVuSans-Oblique-3bc"/>
      <path d="M 50 53.078125 
L 48.296875 44.578125 
Q 44.734375 46.53125 40.765625 47.5 
Q 36.8125 48.484375 32.625 48.484375 
Q 25.53125 48.484375 21.453125 46.0625 
Q 17.390625 43.65625 17.390625 39.5 
Q 17.390625 34.671875 26.859375 32.078125 
Q 27.59375 31.890625 27.9375 31.78125 
L 30.8125 30.90625 
Q 39.796875 28.421875 42.796875 25.6875 
Q 45.796875 22.953125 45.796875 18.21875 
Q 45.796875 9.515625 38.890625 4.046875 
Q 31.984375 -1.421875 20.796875 -1.421875 
Q 16.453125 -1.421875 11.671875 -0.578125 
Q 6.890625 0.25 1.125 2 
L 2.875 11.28125 
Q 7.8125 8.734375 12.59375 7.421875 
Q 17.390625 6.109375 21.78125 6.109375 
Q 28.375 6.109375 32.5 8.9375 
Q 36.625 11.765625 36.625 16.109375 
Q 36.625 20.796875 25.78125 23.6875 
L 24.859375 23.921875 
L 21.78125 24.703125 
Q 14.9375 26.515625 11.765625 29.46875 
Q 8.59375 32.421875 8.59375 37.015625 
Q 8.59375 45.75 15.15625 50.875 
Q 21.734375 56 33.015625 56 
Q 37.453125 56 41.671875 55.265625 
Q 45.90625 54.546875 50 53.078125 
z
" id="DejaVuSans-Oblique-73"/>
      <path d="M 8.015625 75.875 
L 15.828125 75.875 
Q 23.140625 64.359375 26.78125 53.3125 
Q 30.421875 42.28125 30.421875 31.390625 
Q 30.421875 20.453125 26.78125 9.375 
Q 23.140625 -1.703125 15.828125 -13.1875 
L 8.015625 -13.1875 
Q 14.5 -2 17.703125 9.0625 
Q 20.90625 20.125 20.90625 31.390625 
Q 20.90625 42.671875 17.703125 53.65625 
Q 14.5 64.65625 8.015625 75.875 
z
" id="DejaVuSans-29"/>
     </defs>
     <g transform="translate(192.570938 319.728016)scale(0.2 -0.2)">
      <use transform="translate(0 0.015625)" xlink:href="#DejaVuSans-54"/>
      <use transform="translate(61.083984 0.015625)" xlink:href="#DejaVuSans-69"/>
      <use transform="translate(88.867188 0.015625)" xlink:href="#DejaVuSans-6d"/>
      <use transform="translate(186.279297 0.015625)" xlink:href="#DejaVuSans-65"/>
      <use transform="translate(247.802734 0.015625)" xlink:href="#DejaVuSans-20"/>
      <use transform="translate(279.589844 0.015625)" xlink:href="#DejaVuSans-28"/>
      <use transform="translate(318.603516 0.015625)" xlink:href="#DejaVuSans-Oblique-3bc"/>
      <use transform="translate(382.226562 0.015625)" xlink:href="#DejaVuSans-Oblique-73"/>
      <use transform="translate(434.326172 0.015625)" xlink:href="#DejaVuSans-29"/>
     </g>
    </g>
   </g>
   <g id="matplotlib.axis_2">
    <g id="ytick_1">
     <g id="line2d_11">
      <path clip-path="url(#p958e4309ff)" d="M 61.410938 279.010828 
L 418.530938 279.010828 
" style="fill:none;stroke:#b0b0b0;stroke-linecap:square;stroke-width:0.8;"/>
     </g>
     <g id="line2d_12">
      <defs>
       <path d="M 0 0 
L -3.5 0 
" id="mef626157e7" style="stroke:#000000;stroke-width:0.8;"/>
      </defs>
      <g>
       <use style="stroke:#000000;stroke-width:0.8;" x="61.410938" xlink:href="#mef626157e7" y="279.010828"/>
      </g>
     </g>
     <g id="text_7">
      <!-- 0.0 -->
      <defs>
       <path d="M 10.6875 12.40625 
L 21 12.40625 
L 21 0 
L 10.6875 0 
z
" id="DejaVuSans-2e"/>
      </defs>
      <g transform="translate(30.55625 284.709656)scale(0.15 -0.15)">
       <use xlink:href="#DejaVuSans-30"/>
       <use x="63.623047" xlink:href="#DejaVuSans-2e"/>
       <use x="95.410156" xlink:href="#DejaVuSans-30"/>
      </g>
     </g>
    </g>
    <g id="ytick_2">
     <g id="line2d_13">
      <path clip-path="url(#p958e4309ff)" d="M 61.410938 225.788428 
L 418.530938 225.788428 
" style="fill:none;stroke:#b0b0b0;stroke-linecap:square;stroke-width:0.8;"/>
     </g>
     <g id="line2d_14">
      <g>
       <use style="stroke:#000000;stroke-width:0.8;" x="61.410938" xlink:href="#mef626157e7" y="225.788428"/>
      </g>
     </g>
     <g id="text_8">
      <!-- 0.2 -->
      <g transform="translate(30.55625 231.487256)scale(0.15 -0.15)">
       <use xlink:href="#DejaVuSans-30"/>
       <use x="63.623047" xlink:href="#DejaVuSans-2e"/>
       <use x="95.410156" xlink:href="#DejaVuSans-32"/>
      </g>
     </g>
    </g>
    <g id="ytick_3">
     <g id="line2d_15">
      <path clip-path="url(#p958e4309ff)" d="M 61.410938 172.566028 
L 418.530938 172.566028 
" style="fill:none;stroke:#b0b0b0;stroke-linecap:square;stroke-width:0.8;"/>
     </g>
     <g id="line2d_16">
      <g>
       <use style="stroke:#000000;stroke-width:0.8;" x="61.410938" xlink:href="#mef626157e7" y="172.566028"/>
      </g>
     </g>
     <g id="text_9">
      <!-- 0.4 -->
      <g transform="translate(30.55625 178.264856)scale(0.15 -0.15)">
       <use xlink:href="#DejaVuSans-30"/>
       <use x="63.623047" xlink:href="#DejaVuSans-2e"/>
       <use x="95.410156" xlink:href="#DejaVuSans-34"/>
      </g>
     </g>
    </g>
    <g id="ytick_4">
     <g id="line2d_17">
      <path clip-path="url(#p958e4309ff)" d="M 61.410938 119.343628 
L 418.530938 119.343628 
" style="fill:none;stroke:#b0b0b0;stroke-linecap:square;stroke-width:0.8;"/>
     </g>
     <g id="line2d_18">
      <g>
       <use style="stroke:#000000;stroke-width:0.8;" x="61.410938" xlink:href="#mef626157e7" y="119.343628"/>
      </g>
     </g>
     <g id="text_10">
      <!-- 0.6 -->
      <defs>
       <path d="M 33.015625 40.375 
Q 26.375 40.375 22.484375 35.828125 
Q 18.609375 31.296875 18.609375 23.390625 
Q 18.609375 15.53125 22.484375 10.953125 
Q 26.375 6.390625 33.015625 6.390625 
Q 39.65625 6.390625 43.53125 10.953125 
Q 47.40625 15.53125 47.40625 23.390625 
Q 47.40625 31.296875 43.53125 35.828125 
Q 39.65625 40.375 33.015625 40.375 
z
M 52.59375 71.296875 
L 52.59375 62.3125 
Q 48.875 64.0625 45.09375 64.984375 
Q 41.3125 65.921875 37.59375 65.921875 
Q 27.828125 65.921875 22.671875 59.328125 
Q 17.53125 52.734375 16.796875 39.40625 
Q 19.671875 43.65625 24.015625 45.921875 
Q 28.375 48.1875 33.59375 48.1875 
Q 44.578125 48.1875 50.953125 41.515625 
Q 57.328125 34.859375 57.328125 23.390625 
Q 57.328125 12.15625 50.6875 5.359375 
Q 44.046875 -1.421875 33.015625 -1.421875 
Q 20.359375 -1.421875 13.671875 8.265625 
Q 6.984375 17.96875 6.984375 36.375 
Q 6.984375 53.65625 15.1875 63.9375 
Q 23.390625 74.21875 37.203125 74.21875 
Q 40.921875 74.21875 44.703125 73.484375 
Q 48.484375 72.75 52.59375 71.296875 
z
" id="DejaVuSans-36"/>
      </defs>
      <g transform="translate(30.55625 125.042456)scale(0.15 -0.15)">
       <use xlink:href="#DejaVuSans-30"/>
       <use x="63.623047" xlink:href="#DejaVuSans-2e"/>
       <use x="95.410156" xlink:href="#DejaVuSans-36"/>
      </g>
     </g>
    </g>
    <g id="ytick_5">
     <g id="line2d_19">
      <path clip-path="url(#p958e4309ff)" d="M 61.410938 66.121228 
L 418.530938 66.121228 
" style="fill:none;stroke:#b0b0b0;stroke-linecap:square;stroke-width:0.8;"/>
     </g>
     <g id="line2d_20">
      <g>
       <use style="stroke:#000000;stroke-width:0.8;" x="61.410938" xlink:href="#mef626157e7" y="66.121228"/>
      </g>
     </g>
     <g id="text_11">
      <!-- 0.8 -->
      <defs>
       <path d="M 31.78125 34.625 
Q 24.75 34.625 20.71875 30.859375 
Q 16.703125 27.09375 16.703125 20.515625 
Q 16.703125 13.921875 20.71875 10.15625 
Q 24.75 6.390625 31.78125 6.390625 
Q 38.8125 6.390625 42.859375 10.171875 
Q 46.921875 13.96875 46.921875 20.515625 
Q 46.921875 27.09375 42.890625 30.859375 
Q 38.875 34.625 31.78125 34.625 
z
M 21.921875 38.8125 
Q 15.578125 40.375 12.03125 44.71875 
Q 8.5 49.078125 8.5 55.328125 
Q 8.5 64.0625 14.71875 69.140625 
Q 20.953125 74.21875 31.78125 74.21875 
Q 42.671875 74.21875 48.875 69.140625 
Q 55.078125 64.0625 55.078125 55.328125 
Q 55.078125 49.078125 51.53125 44.71875 
Q 48 40.375 41.703125 38.8125 
Q 48.828125 37.15625 52.796875 32.3125 
Q 56.78125 27.484375 56.78125 20.515625 
Q 56.78125 9.90625 50.3125 4.234375 
Q 43.84375 -1.421875 31.78125 -1.421875 
Q 19.734375 -1.421875 13.25 4.234375 
Q 6.78125 9.90625 6.78125 20.515625 
Q 6.78125 27.484375 10.78125 32.3125 
Q 14.796875 37.15625 21.921875 38.8125 
z
M 18.3125 54.390625 
Q 18.3125 48.734375 21.84375 45.5625 
Q 25.390625 42.390625 31.78125 42.390625 
Q 38.140625 42.390625 41.71875 45.5625 
Q 45.3125 48.734375 45.3125 54.390625 
Q 45.3125 60.0625 41.71875 63.234375 
Q 38.140625 66.40625 31.78125 66.40625 
Q 25.390625 66.40625 21.84375 63.234375 
Q 18.3125 60.0625 18.3125 54.390625 
z
" id="DejaVuSans-38"/>
      </defs>
      <g transform="translate(30.55625 71.820056)scale(0.15 -0.15)">
       <use xlink:href="#DejaVuSans-30"/>
       <use x="63.623047" xlink:href="#DejaVuSans-2e"/>
       <use x="95.410156" xlink:href="#DejaVuSans-38"/>
      </g>
     </g>
    </g>
    <g id="ytick_6">
     <g id="line2d_21">
      <path clip-path="url(#p958e4309ff)" d="M 61.410938 12.898828 
L 418.530938 12.898828 
" style="fill:none;stroke:#b0b0b0;stroke-linecap:square;stroke-width:0.8;"/>
     </g>
     <g id="line2d_22">
      <g>
       <use style="stroke:#000000;stroke-width:0.8;" x="61.410938" xlink:href="#mef626157e7" y="12.898828"/>
      </g>
     </g>
     <g id="text_12">
      <!-- 1.0 -->
      <g transform="translate(30.55625 18.597656)scale(0.15 -0.15)">
       <use xlink:href="#DejaVuSans-31"/>
       <use x="63.623047" xlink:href="#DejaVuSans-2e"/>
       <use x="95.410156" xlink:href="#DejaVuSans-30"/>
      </g>
     </g>
    </g>
    <g id="text_13">
     <!-- Survival -->
     <defs>
      <path d="M 53.515625 70.515625 
L 53.515625 60.890625 
Q 47.90625 63.578125 42.921875 64.890625 
Q 37.9375 66.21875 33.296875 66.21875 
Q 25.25 66.21875 20.875 63.09375 
Q 16.5 59.96875 16.5 54.203125 
Q 16.5 49.359375 19.40625 46.890625 
Q 22.3125 44.4375 30.421875 42.921875 
L 36.375 41.703125 
Q 47.40625 39.59375 52.65625 34.296875 
Q 57.90625 29 57.90625 20.125 
Q 57.90625 9.515625 50.796875 4.046875 
Q 43.703125 -1.421875 29.984375 -1.421875 
Q 24.8125 -1.421875 18.96875 -0.25 
Q 13.140625 0.921875 6.890625 3.21875 
L 6.890625 13.375 
Q 12.890625 10.015625 18.65625 8.296875 
Q 24.421875 6.59375 29.984375 6.59375 
Q 38.421875 6.59375 43.015625 9.90625 
Q 47.609375 13.234375 47.609375 19.390625 
Q 47.609375 24.75 44.3125 27.78125 
Q 41.015625 30.8125 33.5 32.328125 
L 27.484375 33.5 
Q 16.453125 35.6875 11.515625 40.375 
Q 6.59375 45.0625 6.59375 53.421875 
Q 6.59375 63.09375 13.40625 68.65625 
Q 20.21875 74.21875 32.171875 74.21875 
Q 37.3125 74.21875 42.625 73.28125 
Q 47.953125 72.359375 53.515625 70.515625 
z
" id="DejaVuSans-53"/>
      <path d="M 8.5 21.578125 
L 8.5 54.6875 
L 17.484375 54.6875 
L 17.484375 21.921875 
Q 17.484375 14.15625 20.5 10.265625 
Q 23.53125 6.390625 29.59375 6.390625 
Q 36.859375 6.390625 41.078125 11.03125 
Q 45.3125 15.671875 45.3125 23.6875 
L 45.3125 54.6875 
L 54.296875 54.6875 
L 54.296875 0 
L 45.3125 0 
L 45.3125 8.40625 
Q 42.046875 3.421875 37.71875 1 
Q 33.40625 -1.421875 27.6875 -1.421875 
Q 18.265625 -1.421875 13.375 4.4375 
Q 8.5 10.296875 8.5 21.578125 
z
M 31.109375 56 
z
" id="DejaVuSans-75"/>
      <path d="M 41.109375 46.296875 
Q 39.59375 47.171875 37.8125 47.578125 
Q 36.03125 48 33.890625 48 
Q 26.265625 48 22.1875 43.046875 
Q 18.109375 38.09375 18.109375 28.8125 
L 18.109375 0 
L 9.078125 0 
L 9.078125 54.6875 
L 18.109375 54.6875 
L 18.109375 46.1875 
Q 20.953125 51.171875 25.484375 53.578125 
Q 30.03125 56 36.53125 56 
Q 37.453125 56 38.578125 55.875 
Q 39.703125 55.765625 41.0625 55.515625 
z
" id="DejaVuSans-72"/>
      <path d="M 2.984375 54.6875 
L 12.5 54.6875 
L 29.59375 8.796875 
L 46.6875 54.6875 
L 56.203125 54.6875 
L 35.6875 0 
L 23.484375 0 
z
" id="DejaVuSans-76"/>
      <path d="M 34.28125 27.484375 
Q 23.390625 27.484375 19.1875 25 
Q 14.984375 22.515625 14.984375 16.5 
Q 14.984375 11.71875 18.140625 8.90625 
Q 21.296875 6.109375 26.703125 6.109375 
Q 34.1875 6.109375 38.703125 11.40625 
Q 43.21875 16.703125 43.21875 25.484375 
L 43.21875 27.484375 
z
M 52.203125 31.203125 
L 52.203125 0 
L 43.21875 0 
L 43.21875 8.296875 
Q 40.140625 3.328125 35.546875 0.953125 
Q 30.953125 -1.421875 24.3125 -1.421875 
Q 15.921875 -1.421875 10.953125 3.296875 
Q 6 8.015625 6 15.921875 
Q 6 25.140625 12.171875 29.828125 
Q 18.359375 34.515625 30.609375 34.515625 
L 43.21875 34.515625 
L 43.21875 35.40625 
Q 43.21875 41.609375 39.140625 45 
Q 35.0625 48.390625 27.6875 48.390625 
Q 23 48.390625 18.546875 47.265625 
Q 14.109375 46.140625 10.015625 43.890625 
L 10.015625 52.203125 
Q 14.9375 54.109375 19.578125 55.046875 
Q 24.21875 56 28.609375 56 
Q 40.484375 56 46.34375 49.84375 
Q 52.203125 43.703125 52.203125 31.203125 
z
" id="DejaVuSans-61"/>
      <path d="M 9.421875 75.984375 
L 18.40625 75.984375 
L 18.40625 0 
L 9.421875 0 
z
" id="DejaVuSans-6c"/>
     </defs>
     <g transform="translate(22.396875 186.273578)rotate(-90)scale(0.2 -0.2)">
      <use xlink:href="#DejaVuSans-53"/>
      <use x="63.476562" xlink:href="#DejaVuSans-75"/>
      <use x="126.855469" xlink:href="#DejaVuSans-72"/>
      <use x="167.96875" xlink:href="#DejaVuSans-76"/>
      <use x="227.148438" xlink:href="#DejaVuSans-69"/>
      <use x="254.931641" xlink:href="#DejaVuSans-76"/>
      <use x="314.111328" xlink:href="#DejaVuSans-61"/>
      <use x="375.390625" xlink:href="#DejaVuSans-6c"/>
     </g>
    </g>
   </g>
   <g id="LineCollection_1">
    <path clip-path="url(#p958e4309ff)" d="M 61.410938 279.010828 
L 61.410938 278.099486 
" style="fill:none;stroke:#1f77b4;stroke-width:1.5;"/>
    <path clip-path="url(#p958e4309ff)" d="M 81.250938 236.093716 
L 81.250938 223.886677 
" style="fill:none;stroke:#1f77b4;stroke-width:1.5;"/>
    <path clip-path="url(#p958e4309ff)" d="M 101.090938 150.098363 
L 101.090938 134.341482 
" style="fill:none;stroke:#1f77b4;stroke-width:1.5;"/>
    <path clip-path="url(#p958e4309ff)" d="M 120.930938 97.101336 
L 120.930938 82.55744 
" style="fill:none;stroke:#1f77b4;stroke-width:1.5;"/>
    <path clip-path="url(#p958e4309ff)" d="M 140.770938 134.309284 
L 140.770938 118.321849 
" style="fill:none;stroke:#1f77b4;stroke-width:1.5;"/>
    <path clip-path="url(#p958e4309ff)" d="M 160.610938 200.940176 
L 160.610938 185.869715 
" style="fill:none;stroke:#1f77b4;stroke-width:1.5;"/>
    <path clip-path="url(#p958e4309ff)" d="M 180.450938 250.293912 
L 180.450938 239.468532 
" style="fill:none;stroke:#1f77b4;stroke-width:1.5;"/>
    <path clip-path="url(#p958e4309ff)" d="M 200.290938 243.419939 
L 200.290938 231.916917 
" style="fill:none;stroke:#1f77b4;stroke-width:1.5;"/>
    <path clip-path="url(#p958e4309ff)" d="M 220.130938 218.726654 
L 220.130938 204.787482 
" style="fill:none;stroke:#1f77b4;stroke-width:1.5;"/>
    <path clip-path="url(#p958e4309ff)" d="M 239.970938 156.324535 
L 239.970938 139.726943 
" style="fill:none;stroke:#1f77b4;stroke-width:1.5;"/>
    <path clip-path="url(#p958e4309ff)" d="M 259.810938 107.554298 
L 259.810938 92.907936 
" style="fill:none;stroke:#1f77b4;stroke-width:1.5;"/>
    <path clip-path="url(#p958e4309ff)" d="M 279.650937 164.591876 
L 279.650937 148.326622 
" style="fill:none;stroke:#1f77b4;stroke-width:1.5;"/>
    <path clip-path="url(#p958e4309ff)" d="M 299.490938 197.94315 
L 299.490938 182.986179 
" style="fill:none;stroke:#1f77b4;stroke-width:1.5;"/>
    <path clip-path="url(#p958e4309ff)" d="M 319.330938 250.389343 
L 319.330938 239.945289 
" style="fill:none;stroke:#1f77b4;stroke-width:1.5;"/>
    <path clip-path="url(#p958e4309ff)" d="M 339.170938 234.083618 
L 339.170938 221.513635 
" style="fill:none;stroke:#1f77b4;stroke-width:1.5;"/>
    <path clip-path="url(#p958e4309ff)" d="M 359.010938 196.80411 
L 359.010938 181.518299 
" style="fill:none;stroke:#1f77b4;stroke-width:1.5;"/>
    <path clip-path="url(#p958e4309ff)" d="M 378.850937 150.106738 
L 378.850937 133.888807 
" style="fill:none;stroke:#1f77b4;stroke-width:1.5;"/>
    <path clip-path="url(#p958e4309ff)" d="M 398.690938 145.302664 
L 398.690938 128.511377 
" style="fill:none;stroke:#1f77b4;stroke-width:1.5;"/>
    <path clip-path="url(#p958e4309ff)" d="M 418.530938 165.830321 
L 418.530938 150.187043 
" style="fill:none;stroke:#1f77b4;stroke-width:1.5;"/>
   </g>
   <g id="LineCollection_2">
    <path clip-path="url(#p958e4309ff)" d="M 61.410938 278.391482 
L 61.410938 276.543028 
" style="fill:none;stroke:#d62728;stroke-width:1.5;"/>
    <path clip-path="url(#p958e4309ff)" d="M 81.250938 256.470229 
L 81.250938 248.590562 
" style="fill:none;stroke:#d62728;stroke-width:1.5;"/>
    <path clip-path="url(#p958e4309ff)" d="M 101.090938 216.713907 
L 101.090938 205.407321 
" style="fill:none;stroke:#d62728;stroke-width:1.5;"/>
    <path clip-path="url(#p958e4309ff)" d="M 120.930938 217.968375 
L 120.930938 206.678202 
" style="fill:none;stroke:#d62728;stroke-width:1.5;"/>
    <path clip-path="url(#p958e4309ff)" d="M 140.770938 218.922708 
L 140.770938 207.890948 
" style="fill:none;stroke:#d62728;stroke-width:1.5;"/>
    <path clip-path="url(#p958e4309ff)" d="M 160.610938 248.763994 
L 160.610938 240.030435 
" style="fill:none;stroke:#d62728;stroke-width:1.5;"/>
    <path clip-path="url(#p958e4309ff)" d="M 180.450938 250.333637 
L 180.450938 241.650398 
" style="fill:none;stroke:#d62728;stroke-width:1.5;"/>
    <path clip-path="url(#p958e4309ff)" d="M 200.290938 232.552988 
L 200.290938 222.230036 
" style="fill:none;stroke:#d62728;stroke-width:1.5;"/>
    <path clip-path="url(#p958e4309ff)" d="M 220.130938 229.090725 
L 220.130938 218.52955 
" style="fill:none;stroke:#d62728;stroke-width:1.5;"/>
    <path clip-path="url(#p958e4309ff)" d="M 239.970938 236.966256 
L 239.970938 227.096424 
" style="fill:none;stroke:#d62728;stroke-width:1.5;"/>
    <path clip-path="url(#p958e4309ff)" d="M 259.810938 220.999109 
L 259.810938 209.6356 
" style="fill:none;stroke:#d62728;stroke-width:1.5;"/>
    <path clip-path="url(#p958e4309ff)" d="M 279.650937 241.622668 
L 279.650937 231.908429 
" style="fill:none;stroke:#d62728;stroke-width:1.5;"/>
    <path clip-path="url(#p958e4309ff)" d="M 299.490938 236.865137 
L 299.490938 226.974362 
" style="fill:none;stroke:#d62728;stroke-width:1.5;"/>
    <path clip-path="url(#p958e4309ff)" d="M 319.330938 227.726912 
L 319.330938 216.986716 
" style="fill:none;stroke:#d62728;stroke-width:1.5;"/>
    <path clip-path="url(#p958e4309ff)" d="M 339.170938 242.364495 
L 339.170938 232.823279 
" style="fill:none;stroke:#d62728;stroke-width:1.5;"/>
    <path clip-path="url(#p958e4309ff)" d="M 359.010938 231.434971 
L 359.010938 221.037455 
" style="fill:none;stroke:#d62728;stroke-width:1.5;"/>
    <path clip-path="url(#p958e4309ff)" d="M 378.850938 243.337699 
L 378.850938 234.024712 
" style="fill:none;stroke:#d62728;stroke-width:1.5;"/>
   </g>
   <g id="line2d_23">
    <path clip-path="url(#p958e4309ff)" d="M 61.410938 278.57076 
L 62.811408 278.569615 
L 64.211879 277.863077 
L 65.612349 276.758592 
L 67.01282 274.814757 
L 68.41329 272.526923 
L 69.813761 270.580965 
L 71.214232 266.633064 
L 72.614702 263.911353 
L 74.015173 258.827647 
L 76.816114 249.777582 
L 81.017526 232.671212 
L 83.818467 219.177754 
L 85.218938 213.209821 
L 86.619408 205.599408 
L 88.019879 199.168991 
L 89.420349 191.726894 
L 90.82082 185.032289 
L 95.022232 162.310183 
L 96.422702 155.735917 
L 97.823173 147.80395 
L 99.223643 141.002898 
L 100.624114 133.134745 
L 102.024585 126.839375 
L 104.825526 113.194326 
L 109.026938 95.464683 
L 110.427408 90.953378 
L 111.827879 85.727743 
L 114.62882 76.229361 
L 116.02929 72.190183 
L 117.429761 70.05717 
L 118.830232 65.414121 
L 120.230702 63.467786 
L 121.631173 60.831851 
L 123.031643 59.809686 
L 124.432114 59.472012 
L 125.832585 57.421984 
L 127.233055 57.774816 
L 128.633526 58.250612 
L 131.434467 60.211074 
L 134.235408 64.402403 
L 135.635879 67.712328 
L 137.036349 70.353613 
L 141.237761 81.313982 
L 142.638232 85.991738 
L 144.038702 91.808598 
L 146.839643 101.306683 
L 148.240114 107.430724 
L 149.640585 112.839675 
L 151.041055 119.621715 
L 153.841996 131.430529 
L 156.642938 145.404933 
L 160.844349 164.557233 
L 162.24482 172.261106 
L 165.045761 185.653534 
L 166.446232 192.504178 
L 170.647643 210.266149 
L 172.048114 215.490625 
L 173.448585 222.057465 
L 176.249526 231.096882 
L 177.649996 236.338212 
L 179.050467 240.379345 
L 180.450938 245.297091 
L 181.851408 248.198157 
L 183.251879 251.752714 
L 184.652349 254.903544 
L 186.05282 256.897056 
L 187.45329 259.647748 
L 190.254232 262.415092 
L 191.654702 263.969289 
L 193.055173 263.911353 
L 194.455643 264.522655 
L 195.856114 264.130921 
L 197.256585 263.11423 
L 198.657055 262.828785 
L 200.057526 261.259414 
L 204.258938 254.536807 
L 205.659408 251.313886 
L 207.059879 248.648666 
L 208.460349 244.388972 
L 209.86082 241.131049 
L 211.26129 236.320541 
L 212.661761 232.306746 
L 214.062232 226.408996 
L 215.462702 221.577284 
L 216.863173 217.218754 
L 218.263643 212.304359 
L 219.664114 206.411747 
L 221.064585 201.315574 
L 222.465055 194.133129 
L 223.865526 189.270936 
L 225.265996 182.419914 
L 228.066938 171.627404 
L 229.467408 165.145071 
L 230.867879 160.065069 
L 232.268349 152.714811 
L 233.66882 146.426433 
L 235.06929 142.057101 
L 237.870232 130.666805 
L 242.071643 114.243349 
L 244.872585 105.816401 
L 247.673526 96.770918 
L 249.073996 93.302513 
L 250.474467 89.383265 
L 251.874938 86.358356 
L 253.275408 84.053115 
L 254.675879 80.85366 
L 256.076349 79.238748 
L 257.47682 76.589509 
L 258.87729 75.360851 
L 260.277761 75.030956 
L 263.078702 73.855433 
L 264.479173 73.791563 
L 265.879643 74.21503 
L 267.280114 74.36867 
L 270.081055 78.073145 
L 271.481526 78.692645 
L 272.881996 82.032809 
L 274.282467 84.958304 
L 275.682938 87.256601 
L 277.083408 90.545146 
L 278.483879 94.40566 
L 279.884349 98.718451 
L 281.28482 102.355159 
L 282.68529 106.615726 
L 284.085761 111.424102 
L 286.886702 122.036907 
L 288.287173 126.251705 
L 291.088114 137.935109 
L 292.488585 142.94818 
L 293.889055 148.707827 
L 295.289526 155.517754 
L 296.689996 161.296261 
L 298.090467 166.439758 
L 300.891408 178.972328 
L 302.291879 183.966819 
L 303.692349 191.020747 
L 305.09282 195.764376 
L 306.49329 200.951755 
L 307.893761 208.164919 
L 316.296585 236.185063 
L 320.497996 246.4693 
L 321.898467 248.741671 
L 324.699408 253.829955 
L 326.099879 256.242398 
L 328.90082 258.575051 
L 330.30129 258.444157 
L 331.701761 258.509604 
L 333.102232 258.783471 
L 334.502702 258.389618 
L 335.903173 257.821792 
L 337.303643 256.805656 
L 338.704114 255.150555 
L 341.505055 249.459866 
L 342.905526 247.90775 
L 344.305996 243.692871 
L 348.507408 233.197479 
L 349.907879 228.39094 
L 351.308349 224.188643 
L 354.10929 213.853933 
L 355.509761 209.572907 
L 356.910232 202.530505 
L 358.310702 197.478986 
L 361.111643 185.1548 
L 363.912585 173.256922 
L 365.313055 166.937438 
L 366.713526 161.310745 
L 368.113996 154.843161 
L 369.514467 149.593127 
L 372.315408 137.31521 
L 373.715879 132.385512 
L 375.116349 125.356635 
L 376.51682 119.041129 
L 377.91729 114.993141 
L 383.519173 95.617832 
L 384.919643 91.865398 
L 386.320114 89.542703 
L 387.720585 85.320646 
L 389.121055 83.024248 
L 390.521526 79.849424 
L 391.921996 77.475657 
L 393.322467 76.326453 
L 394.722938 74.025753 
L 396.123408 72.576133 
L 397.523879 72.728634 
L 398.924349 72.213132 
L 400.32482 71.828952 
L 401.72529 74.025701 
L 403.125761 73.802208 
L 404.526232 75.210248 
L 405.926702 76.967241 
L 408.727643 82.080035 
L 410.128114 84.980393 
L 411.528585 88.405639 
L 412.929055 92.158692 
L 414.329526 95.134203 
L 417.130467 104.902221 
L 418.530938 109.182164 
L 418.530938 109.182164 
" style="fill:none;stroke:#1f77b4;stroke-linecap:square;stroke-width:1.5;"/>
   </g>
   <g id="line2d_24">
    <path clip-path="url(#p958e4309ff)" d="M 61.410938 278.57076 
L 64.211879 278.57076 
L 65.612349 276.397769 
L 67.01282 274.863834 
L 69.813761 270.409177 
L 71.214232 266.915631 
L 72.614702 262.415092 
L 75.415643 254.690027 
L 76.816114 249.226711 
L 78.216585 244.2867 
L 81.017526 232.544201 
L 82.417996 227.220713 
L 89.420349 194.657863 
L 90.82082 186.983897 
L 96.422702 159.25031 
L 99.223643 147.469831 
L 100.624114 140.133838 
L 102.024585 133.987272 
L 103.425055 127.073446 
L 104.825526 122.317267 
L 106.225996 118.003294 
L 110.427408 102.982184 
L 111.827879 99.952127 
L 113.228349 96.409052 
L 116.02929 91.313625 
L 117.429761 89.585123 
L 118.830232 87.067123 
L 120.230702 86.500864 
L 121.631173 85.698774 
L 124.432114 85.488593 
L 125.832585 86.379732 
L 127.233055 86.676698 
L 128.633526 88.67354 
L 131.434467 93.259563 
L 132.834938 95.670845 
L 134.235408 98.829861 
L 135.635879 102.455085 
L 137.036349 106.600197 
L 138.43682 111.367705 
L 139.83729 115.681187 
L 141.237761 120.624434 
L 142.638232 126.214719 
L 145.439173 136.143461 
L 146.839643 142.400708 
L 148.240114 147.417857 
L 151.041055 160.597378 
L 152.441526 167.482 
L 153.841996 172.065564 
L 158.043408 188.513573 
L 159.443879 195.434978 
L 162.24482 206.58597 
L 163.64529 211.039035 
L 165.045761 216.051751 
L 166.446232 221.988012 
L 170.647643 235.394153 
L 172.048114 238.784549 
L 173.448585 242.641414 
L 176.249526 248.328768 
L 179.050467 252.853612 
L 180.450938 254.737024 
L 181.851408 256.153051 
L 184.652349 257.343446 
L 186.05282 257.695572 
L 187.45329 258.971221 
L 190.254232 257.364235 
L 191.654702 256.103414 
L 193.055173 253.766194 
L 194.455643 253.151661 
L 195.856114 249.865937 
L 197.256585 248.555661 
L 198.657055 245.496602 
L 200.057526 242.116054 
L 202.858467 236.573826 
L 204.258938 232.152306 
L 205.659408 228.724025 
L 207.059879 224.888083 
L 208.460349 219.861613 
L 215.462702 196.747899 
L 216.863173 191.620258 
L 218.263643 187.624104 
L 221.064585 177.808438 
L 222.465055 172.322665 
L 225.265996 164.409371 
L 226.666467 159.692091 
L 228.066938 155.881359 
L 229.467408 150.852201 
L 232.268349 142.045774 
L 233.66882 138.326948 
L 235.06929 135.29613 
L 236.469761 131.890243 
L 237.870232 127.948689 
L 240.671173 122.496263 
L 242.071643 121.248714 
L 243.472114 118.551025 
L 244.872585 116.63035 
L 247.673526 114.293448 
L 249.073996 114.085507 
L 250.474467 112.918316 
L 251.874938 111.536897 
L 254.675879 112.355733 
L 256.076349 112.62545 
L 257.47682 113.447428 
L 260.277761 115.676679 
L 261.678232 117.037838 
L 263.078702 119.825279 
L 264.479173 119.773305 
L 265.879643 123.422476 
L 267.280114 126.362664 
L 270.081055 131.545949 
L 271.481526 134.378747 
L 274.282467 141.355564 
L 275.682938 143.715185 
L 277.083408 147.907899 
L 278.483879 152.582827 
L 279.884349 156.299505 
L 281.28482 159.21772 
L 285.486232 173.032411 
L 286.886702 176.96504 
L 288.287173 181.283501 
L 289.687643 184.449436 
L 291.088114 188.663966 
L 292.488585 193.660853 
L 293.889055 197.756718 
L 298.090467 208.547033 
L 299.490938 211.401388 
L 302.291879 218.880384 
L 303.692349 221.121255 
L 305.09282 223.987389 
L 306.49329 227.261571 
L 307.893761 228.458506 
L 309.294232 231.133594 
L 310.694702 233.152742 
L 312.095173 236.07663 
L 313.495643 236.426567 
L 314.896114 237.789526 
L 316.296585 238.573029 
L 317.697055 238.151155 
L 319.097526 240.043102 
L 320.497996 238.963731 
L 321.898467 240.118835 
L 323.298938 238.615979 
L 324.699408 238.517807 
L 326.099879 238.065847 
L 327.500349 236.338212 
L 330.30129 233.479709 
L 331.701761 231.091495 
L 333.102232 229.523849 
L 334.502702 226.690652 
L 337.303643 223.02396 
L 338.704114 219.173104 
L 340.104585 216.742694 
L 341.505055 211.970859 
L 342.905526 209.483702 
L 344.305996 205.250094 
L 345.706467 202.123095 
L 347.106938 198.271146 
L 348.507408 195.287718 
L 349.907879 190.15994 
L 351.308349 187.152372 
L 352.70882 183.791466 
L 356.910232 170.801782 
L 359.711173 163.915299 
L 361.111643 159.862285 
L 362.512114 156.23042 
L 363.912585 154.215176 
L 366.713526 146.120729 
L 369.514467 140.714698 
L 370.914938 138.150236 
L 372.315408 134.812708 
L 373.715879 132.444944 
L 375.116349 131.442469 
L 376.51682 128.568668 
L 379.317761 126.30513 
L 380.718232 124.23593 
L 382.118702 123.615475 
L 384.919643 121.943454 
L 387.720585 122.330011 
L 389.121055 122.880971 
L 390.521526 124.565181 
L 391.921996 123.603395 
L 393.322467 125.443746 
L 394.722938 126.041602 
L 396.123408 128.540297 
L 397.523879 129.751555 
L 398.924349 132.17948 
L 400.32482 133.35169 
L 401.72529 135.650332 
L 405.926702 144.146194 
L 407.327173 146.964939 
L 408.727643 151.098862 
L 410.128114 153.963252 
L 411.528585 156.09225 
L 412.929055 160.535819 
L 414.329526 163.291396 
L 415.729996 168.019349 
L 418.530938 174.537945 
L 418.530938 174.537945 
" style="fill:none;stroke:#2ca02c;stroke-linecap:square;stroke-width:1.5;"/>
   </g>
   <g id="line2d_25">
    <path clip-path="url(#p958e4309ff)" d="M 61.410938 278.534519 
L 62.6558 278.534519 
L 63.900663 278.534519 
L 65.145526 277.497608 
L 66.390388 277.03934 
L 67.635251 276.27319 
L 68.880114 273.888531 
L 70.124977 272.446172 
L 71.369839 270.334446 
L 73.859565 266.529614 
L 75.104428 263.361927 
L 77.594153 257.941367 
L 78.839016 255.985736 
L 80.083879 251.960457 
L 81.328741 248.583345 
L 82.573604 244.766075 
L 85.06333 239.063387 
L 87.553055 231.098788 
L 88.797918 228.305248 
L 90.042781 223.810019 
L 91.287643 220.678055 
L 92.532506 216.24913 
L 93.777369 213.903431 
L 95.022232 209.653511 
L 96.267094 206.773382 
L 100.001683 196.432997 
L 101.246545 194.085453 
L 102.491408 192.243698 
L 103.736271 188.959118 
L 104.981134 187.12232 
L 107.470859 181.815203 
L 108.715722 180.906218 
L 109.960585 179.551088 
L 111.205447 177.043754 
L 112.45031 175.989885 
L 113.695173 174.389342 
L 114.940036 173.813148 
L 116.184898 173.821117 
L 117.429761 172.908624 
L 119.919487 172.543341 
L 121.164349 172.408424 
L 122.409212 172.444137 
L 123.654075 173.123797 
L 124.898938 172.868778 
L 126.1438 174.259433 
L 127.388663 173.725485 
L 128.633526 175.101584 
L 129.878388 176.183866 
L 132.368114 177.904759 
L 133.612977 179.336321 
L 136.102702 182.920791 
L 137.347565 183.647269 
L 138.592428 185.322142 
L 141.082153 188.199931 
L 142.327016 189.84735 
L 143.571879 189.981768 
L 144.816741 191.66875 
L 147.306467 195.630328 
L 148.55133 196.663972 
L 149.796192 197.269351 
L 151.041055 199.064481 
L 153.530781 201.714152 
L 154.775643 203.463668 
L 156.020506 203.234883 
L 159.755094 205.446001 
L 160.999957 205.357796 
L 162.24482 205.940847 
L 163.489683 206.860368 
L 164.734545 207.001696 
L 165.979408 208.264454 
L 167.224271 207.947145 
L 168.469134 208.819234 
L 169.713996 208.51186 
L 170.958859 208.800107 
L 172.203722 209.249838 
L 173.448585 209.312311 
L 174.693447 209.206544 
L 175.93831 208.685349 
L 177.183173 208.573712 
L 178.428036 208.288243 
L 179.672898 208.814452 
L 180.917761 207.506858 
L 182.162624 206.623371 
L 183.407487 207.406837 
L 184.652349 206.435856 
L 185.897212 206.426481 
L 187.142075 205.023548 
L 188.386938 205.842882 
L 189.6318 205.093183 
L 190.876663 203.610091 
L 192.121526 204.789619 
L 193.366388 203.669575 
L 194.611251 203.074733 
L 195.856114 203.12049 
L 197.100977 202.976381 
L 199.590702 202.026883 
L 202.080428 200.657488 
L 203.32529 202.158321 
L 204.570153 201.257759 
L 205.815016 201.555482 
L 207.059879 201.140474 
L 208.304741 200.365653 
L 210.794467 201.718685 
L 212.03933 201.618635 
L 213.284192 201.995157 
L 214.529055 201.235204 
L 215.773918 201.909043 
L 217.018781 201.505861 
L 218.263643 203.115915 
L 219.508506 202.344147 
L 220.753369 202.794225 
L 221.998232 203.431638 
L 223.243094 202.876195 
L 224.487957 204.489324 
L 225.73282 204.383066 
L 226.977683 204.572483 
L 228.222545 205.227811 
L 229.467408 205.459928 
L 230.712271 205.190672 
L 231.957134 206.257718 
L 234.446859 207.861928 
L 235.691722 207.312618 
L 236.936585 208.107446 
L 238.181447 208.335821 
L 239.42631 208.933992 
L 240.671173 209.663122 
L 241.916036 210.129142 
L 243.160898 209.653511 
L 244.405761 210.963226 
L 245.650624 210.599893 
L 246.895487 211.216944 
L 248.140349 210.832905 
L 249.385212 210.813488 
L 251.874938 211.470662 
L 253.1198 210.531931 
L 254.364663 211.456024 
L 255.609526 210.939703 
L 256.854388 211.290132 
L 258.099251 210.22574 
L 259.344114 210.944557 
L 260.588977 211.158394 
L 261.833839 210.003565 
L 263.078702 211.085206 
L 264.323565 210.109822 
L 265.568428 208.742728 
L 266.81329 209.039188 
L 268.058153 208.876613 
L 269.303016 209.120475 
L 270.547879 208.321547 
L 271.792741 208.388157 
L 273.037604 207.653621 
L 275.52733 207.525795 
L 276.772192 206.290533 
L 278.017055 207.232532 
L 279.261918 206.141441 
L 281.751643 205.637623 
L 282.996506 205.487782 
L 284.241369 204.687981 
L 285.486232 204.350727 
L 286.731094 204.203916 
L 287.975957 204.489324 
L 289.22082 203.21658 
L 290.465683 203.660423 
L 294.200271 201.718685 
L 295.445134 201.727749 
L 296.689996 202.980935 
L 297.934859 202.912627 
L 299.179722 201.600591 
L 300.424585 202.425358 
L 302.91431 201.881849 
L 304.159173 203.051855 
L 305.404036 202.62573 
L 306.648898 200.450958 
L 307.893761 201.890913 
L 309.138624 202.008754 
L 310.383487 202.666715 
L 311.628349 202.379819 
L 312.873212 202.434466 
L 314.118075 202.862534 
L 315.362938 203.573485 
L 316.6078 202.990043 
L 317.852663 203.097612 
L 319.097526 203.495698 
L 320.342388 203.591788 
L 321.587251 203.564333 
L 322.832114 204.955936 
L 324.076977 203.289791 
L 325.321839 205.111752 
L 326.566702 205.088541 
L 327.811565 205.367081 
L 329.056428 205.931517 
L 330.30129 205.894197 
L 331.546153 206.370227 
L 332.791016 207.256087 
L 334.035879 207.227821 
L 335.280741 206.562428 
L 336.525604 206.323348 
L 337.770467 207.492656 
L 339.01533 206.440544 
L 340.260192 207.453947 
L 342.749918 207.17129 
L 343.994781 208.093172 
L 345.239643 208.507102 
L 346.484506 208.742728 
L 347.729369 208.31679 
L 348.974232 207.75304 
L 350.219094 208.364368 
L 351.463957 208.645079 
L 352.70882 208.145508 
L 353.953683 207.928208 
L 355.198545 208.25018 
L 356.443408 208.235907 
L 357.688271 207.947145 
L 358.933134 208.059867 
L 360.177996 208.059867 
L 361.422859 208.535649 
L 362.667722 208.86705 
L 365.157447 207.667823 
L 366.40231 208.056033 
L 367.647173 207.999222 
L 368.892036 206.604619 
L 370.136898 208.069383 
L 371.381761 206.982852 
L 372.626624 206.92161 
L 373.871487 207.521061 
L 375.116349 207.876131 
L 376.361212 207.157157 
L 377.606075 207.293775 
L 378.850938 205.613125 
L 378.850938 205.613125 
" style="fill:none;stroke:#d62728;stroke-linecap:square;stroke-width:1.5;"/>
   </g>
   <g id="line2d_26">
    <defs>
     <path d="M 0 3 
C 0.795609 3 1.55874 2.683901 2.12132 2.12132 
C 2.683901 1.55874 3 0.795609 3 0 
C 3 -0.795609 2.683901 -1.55874 2.12132 -2.12132 
C 1.55874 -2.683901 0.795609 -3 0 -3 
C -0.795609 -3 -1.55874 -2.683901 -2.12132 -2.12132 
C -2.683901 -1.55874 -3 -0.795609 -3 0 
C -3 0.795609 -2.683901 1.55874 -2.12132 2.12132 
C -1.55874 2.683901 -0.795609 3 0 3 
z
" id="m8c82e447c9" style="stroke:#1f77b4;"/>
    </defs>
    <g clip-path="url(#p958e4309ff)">
     <use style="fill:#1f77b4;stroke:#1f77b4;" x="61.410938" xlink:href="#m8c82e447c9" y="278.555157"/>
     <use style="fill:#1f77b4;stroke:#1f77b4;" x="81.250938" xlink:href="#m8c82e447c9" y="229.990197"/>
     <use style="fill:#1f77b4;stroke:#1f77b4;" x="101.090938" xlink:href="#m8c82e447c9" y="142.219923"/>
     <use style="fill:#1f77b4;stroke:#1f77b4;" x="120.930938" xlink:href="#m8c82e447c9" y="89.829388"/>
     <use style="fill:#1f77b4;stroke:#1f77b4;" x="140.770938" xlink:href="#m8c82e447c9" y="126.315566"/>
     <use style="fill:#1f77b4;stroke:#1f77b4;" x="160.610938" xlink:href="#m8c82e447c9" y="193.404946"/>
     <use style="fill:#1f77b4;stroke:#1f77b4;" x="180.450938" xlink:href="#m8c82e447c9" y="244.881222"/>
     <use style="fill:#1f77b4;stroke:#1f77b4;" x="200.290938" xlink:href="#m8c82e447c9" y="237.668428"/>
     <use style="fill:#1f77b4;stroke:#1f77b4;" x="220.130938" xlink:href="#m8c82e447c9" y="211.757068"/>
     <use style="fill:#1f77b4;stroke:#1f77b4;" x="239.970938" xlink:href="#m8c82e447c9" y="148.025739"/>
     <use style="fill:#1f77b4;stroke:#1f77b4;" x="259.810938" xlink:href="#m8c82e447c9" y="100.231117"/>
     <use style="fill:#1f77b4;stroke:#1f77b4;" x="279.650937" xlink:href="#m8c82e447c9" y="156.459249"/>
     <use style="fill:#1f77b4;stroke:#1f77b4;" x="299.490938" xlink:href="#m8c82e447c9" y="190.464664"/>
     <use style="fill:#1f77b4;stroke:#1f77b4;" x="319.330938" xlink:href="#m8c82e447c9" y="245.167316"/>
     <use style="fill:#1f77b4;stroke:#1f77b4;" x="339.170938" xlink:href="#m8c82e447c9" y="227.798627"/>
     <use style="fill:#1f77b4;stroke:#1f77b4;" x="359.010938" xlink:href="#m8c82e447c9" y="189.161205"/>
     <use style="fill:#1f77b4;stroke:#1f77b4;" x="378.850937" xlink:href="#m8c82e447c9" y="141.997772"/>
     <use style="fill:#1f77b4;stroke:#1f77b4;" x="398.690938" xlink:href="#m8c82e447c9" y="136.90702"/>
     <use style="fill:#1f77b4;stroke:#1f77b4;" x="418.530938" xlink:href="#m8c82e447c9" y="158.008682"/>
    </g>
   </g>
   <g id="line2d_27">
    <defs>
     <path d="M 0 3 
C 0.795609 3 1.55874 2.683901 2.12132 2.12132 
C 2.683901 1.55874 3 0.795609 3 0 
C 3 -0.795609 2.683901 -1.55874 2.12132 -2.12132 
C 1.55874 -2.683901 0.795609 -3 0 -3 
C -0.795609 -3 -1.55874 -2.683901 -2.12132 -2.12132 
C -2.683901 -1.55874 -3 -0.795609 -3 0 
C -3 0.795609 -2.683901 1.55874 -2.12132 2.12132 
C -1.55874 2.683901 -0.795609 3 0 3 
z
" id="m4cfcb99f41" style="stroke:#d62728;"/>
    </defs>
    <g clip-path="url(#p958e4309ff)">
     <use style="fill:#d62728;stroke:#d62728;" x="61.410938" xlink:href="#m4cfcb99f41" y="277.467255"/>
     <use style="fill:#d62728;stroke:#d62728;" x="81.250938" xlink:href="#m4cfcb99f41" y="252.530396"/>
     <use style="fill:#d62728;stroke:#d62728;" x="101.090938" xlink:href="#m4cfcb99f41" y="211.060614"/>
     <use style="fill:#d62728;stroke:#d62728;" x="120.930938" xlink:href="#m4cfcb99f41" y="212.323289"/>
     <use style="fill:#d62728;stroke:#d62728;" x="140.770938" xlink:href="#m4cfcb99f41" y="213.406828"/>
     <use style="fill:#d62728;stroke:#d62728;" x="160.610938" xlink:href="#m4cfcb99f41" y="244.397215"/>
     <use style="fill:#d62728;stroke:#d62728;" x="180.450938" xlink:href="#m4cfcb99f41" y="245.992017"/>
     <use style="fill:#d62728;stroke:#d62728;" x="200.290938" xlink:href="#m4cfcb99f41" y="227.391512"/>
     <use style="fill:#d62728;stroke:#d62728;" x="220.130938" xlink:href="#m4cfcb99f41" y="223.810137"/>
     <use style="fill:#d62728;stroke:#d62728;" x="239.970938" xlink:href="#m4cfcb99f41" y="232.03134"/>
     <use style="fill:#d62728;stroke:#d62728;" x="259.810938" xlink:href="#m4cfcb99f41" y="215.317354"/>
     <use style="fill:#d62728;stroke:#d62728;" x="279.650937" xlink:href="#m4cfcb99f41" y="236.765548"/>
     <use style="fill:#d62728;stroke:#d62728;" x="299.490938" xlink:href="#m4cfcb99f41" y="231.91975"/>
     <use style="fill:#d62728;stroke:#d62728;" x="319.330938" xlink:href="#m4cfcb99f41" y="222.356814"/>
     <use style="fill:#d62728;stroke:#d62728;" x="339.170938" xlink:href="#m4cfcb99f41" y="237.593887"/>
     <use style="fill:#d62728;stroke:#d62728;" x="359.010938" xlink:href="#m4cfcb99f41" y="226.236213"/>
     <use style="fill:#d62728;stroke:#d62728;" x="378.850938" xlink:href="#m4cfcb99f41" y="238.681205"/>
    </g>
   </g>
   <g id="patch_3">
    <path d="M 61.410938 279.010828 
L 61.410938 12.898828 
" style="fill:none;stroke:#000000;stroke-linecap:square;stroke-linejoin:miter;stroke-width:0.8;"/>
   </g>
   <g id="patch_4">
    <path d="M 418.530938 279.010828 
L 418.530938 12.898828 
" style="fill:none;stroke:#000000;stroke-linecap:square;stroke-linejoin:miter;stroke-width:0.8;"/>
   </g>
   <g id="patch_5">
    <path d="M 61.410938 279.010828 
L 418.530938 279.010828 
" style="fill:none;stroke:#000000;stroke-linecap:square;stroke-linejoin:miter;stroke-width:0.8;"/>
   </g>
   <g id="patch_6">
    <path d="M 61.410938 12.898828 
L 418.530938 12.898828 
" style="fill:none;stroke:#000000;stroke-linecap:square;stroke-linejoin:miter;stroke-width:0.8;"/>
   </g>
   <g id="text_14">
    <!-- (D) -->
    <defs>
     <path d="M 19.671875 64.796875 
L 19.671875 8.109375 
L 31.59375 8.109375 
Q 46.6875 8.109375 53.6875 14.9375 
Q 60.6875 21.78125 60.6875 36.53125 
Q 60.6875 51.171875 53.6875 57.984375 
Q 46.6875 64.796875 31.59375 64.796875 
z
M 9.8125 72.90625 
L 30.078125 72.90625 
Q 51.265625 72.90625 61.171875 64.09375 
Q 71.09375 55.28125 71.09375 36.53125 
Q 71.09375 17.671875 61.125 8.828125 
Q 51.171875 0 30.078125 0 
L 9.8125 0 
z
" id="DejaVuSans-44"/>
    </defs>
    <g transform="translate(77.282938 39.510028)scale(0.2 -0.2)">
     <use xlink:href="#DejaVuSans-28"/>
     <use x="39.013672" xlink:href="#DejaVuSans-44"/>
     <use x="116.015625" xlink:href="#DejaVuSans-29"/>
    </g>
   </g>
  </g>
 </g>
 <defs>
  <clipPath id="p958e4309ff">
   <rect height="266.112" width="357.12" x="61.410938" y="12.898828"/>
  </clipPath>
 </defs>
</svg>
