<?xml version="1.0" encoding="utf-8" standalone="no"?>
<!DOCTYPE svg PUBLIC "-//W3C//DTD SVG 1.1//EN"
  "http://www.w3.org/Graphics/SVG/1.1/DTD/svg11.dtd">
<!-- Created with matplotlib (http://matplotlib.org/) -->
<svg height="331pt" version="1.1" viewBox="0 0 435 331" width="435pt" xmlns="http://www.w3.org/2000/svg" xmlns:xlink="http://www.w3.org/1999/xlink">
 <defs>
  <style type="text/css">
*{stroke-linecap:butt;stroke-linejoin:round;}
  </style>
 </defs>
 <g id="figure_1">
  <g id="patch_1">
   <path d="M 0 331.128016 
L 435.274687 331.128016 
L 435.274687 0 
L 0 0 
z
" style="fill:none;"/>
  </g>
  <g id="axes_1">
   <g id="patch_2">
    <path d="M 61.410938 279.010828 
L 418.530938 279.010828 
L 418.530938 12.898828 
L 61.410938 12.898828 
z
" style="fill:none;"/>
   </g>
   <g id="matplotlib.axis_1">
    <g id="xtick_1">
     <g id="line2d_1">
      <path clip-path="url(#pa58a65d935)" d="M 61.410938 279.010828 
L 61.410938 12.898828 
" style="fill:none;stroke:#b0b0b0;stroke-linecap:square;stroke-width:0.8;"/>
     </g>
     <g id="line2d_2">
      <defs>
       <path d="M 0 0 
L 0 3.5 
" id="ma9940352b0" style="stroke:#000000;stroke-width:0.8;"/>
      </defs>
      <g>
       <use style="stroke:#000000;stroke-width:0.8;" x="61.410938" xlink:href="#ma9940352b0" y="279.010828"/>
      </g>
     </g>
     <g id="text_1">
      <!-- 0 -->
      <defs>
       <path d="M 31.78125 66.40625 
Q 24.171875 66.40625 20.328125 58.90625 
Q 16.5 51.421875 16.5 36.375 
Q 16.5 21.390625 20.328125 13.890625 
Q 24.171875 6.390625 31.78125 6.390625 
Q 39.453125 6.390625 43.28125 13.890625 
Q 47.125 21.390625 47.125 36.375 
Q 47.125 51.421875 43.28125 58.90625 
Q 39.453125 66.40625 31.78125 66.40625 
z
M 31.78125 74.21875 
Q 44.046875 74.21875 50.515625 64.515625 
Q 56.984375 54.828125 56.984375 36.375 
Q 56.984375 17.96875 50.515625 8.265625 
Q 44.046875 -1.421875 31.78125 -1.421875 
Q 19.53125 -1.421875 13.0625 8.265625 
Q 6.59375 17.96875 6.59375 36.375 
Q 6.59375 54.828125 13.0625 64.515625 
Q 19.53125 74.21875 31.78125 74.21875 
z
" id="DejaVuSans-30"/>
      </defs>
      <g transform="translate(56.639063 297.408484)scale(0.15 -0.15)">
       <use xlink:href="#DejaVuSans-30"/>
      </g>
     </g>
    </g>
    <g id="xtick_2">
     <g id="line2d_3">
      <path clip-path="url(#pa58a65d935)" d="M 150.690938 279.010828 
L 150.690938 12.898828 
" style="fill:none;stroke:#b0b0b0;stroke-linecap:square;stroke-width:0.8;"/>
     </g>
     <g id="line2d_4">
      <g>
       <use style="stroke:#000000;stroke-width:0.8;" x="150.690938" xlink:href="#ma9940352b0" y="279.010828"/>
      </g>
     </g>
     <g id="text_2">
      <!-- 20 -->
      <defs>
       <path d="M 19.1875 8.296875 
L 53.609375 8.296875 
L 53.609375 0 
L 7.328125 0 
L 7.328125 8.296875 
Q 12.9375 14.109375 22.625 23.890625 
Q 32.328125 33.6875 34.8125 36.53125 
Q 39.546875 41.84375 41.421875 45.53125 
Q 43.3125 49.21875 43.3125 52.78125 
Q 43.3125 58.59375 39.234375 62.25 
Q 35.15625 65.921875 28.609375 65.921875 
Q 23.96875 65.921875 18.8125 64.3125 
Q 13.671875 62.703125 7.8125 59.421875 
L 7.8125 69.390625 
Q 13.765625 71.78125 18.9375 73 
Q 24.125 74.21875 28.421875 74.21875 
Q 39.75 74.21875 46.484375 68.546875 
Q 53.21875 62.890625 53.21875 53.421875 
Q 53.21875 48.921875 51.53125 44.890625 
Q 49.859375 40.875 45.40625 35.40625 
Q 44.1875 33.984375 37.640625 27.21875 
Q 31.109375 20.453125 19.1875 8.296875 
z
" id="DejaVuSans-32"/>
      </defs>
      <g transform="translate(141.147188 297.408484)scale(0.15 -0.15)">
       <use xlink:href="#DejaVuSans-32"/>
       <use x="63.623047" xlink:href="#DejaVuSans-30"/>
      </g>
     </g>
    </g>
    <g id="xtick_3">
     <g id="line2d_5">
      <path clip-path="url(#pa58a65d935)" d="M 239.970938 279.010828 
L 239.970938 12.898828 
" style="fill:none;stroke:#b0b0b0;stroke-linecap:square;stroke-width:0.8;"/>
     </g>
     <g id="line2d_6">
      <g>
       <use style="stroke:#000000;stroke-width:0.8;" x="239.970938" xlink:href="#ma9940352b0" y="279.010828"/>
      </g>
     </g>
     <g id="text_3">
      <!-- 40 -->
      <defs>
       <path d="M 37.796875 64.3125 
L 12.890625 25.390625 
L 37.796875 25.390625 
z
M 35.203125 72.90625 
L 47.609375 72.90625 
L 47.609375 25.390625 
L 58.015625 25.390625 
L 58.015625 17.1875 
L 47.609375 17.1875 
L 47.609375 0 
L 37.796875 0 
L 37.796875 17.1875 
L 4.890625 17.1875 
L 4.890625 26.703125 
z
" id="DejaVuSans-34"/>
      </defs>
      <g transform="translate(230.427188 297.408484)scale(0.15 -0.15)">
       <use xlink:href="#DejaVuSans-34"/>
       <use x="63.623047" xlink:href="#DejaVuSans-30"/>
      </g>
     </g>
    </g>
    <g id="xtick_4">
     <g id="line2d_7">
      <path clip-path="url(#pa58a65d935)" d="M 329.250938 279.010828 
L 329.250938 12.898828 
" style="fill:none;stroke:#b0b0b0;stroke-linecap:square;stroke-width:0.8;"/>
     </g>
     <g id="line2d_8">
      <g>
       <use style="stroke:#000000;stroke-width:0.8;" x="329.250938" xlink:href="#ma9940352b0" y="279.010828"/>
      </g>
     </g>
     <g id="text_4">
      <!-- 60 -->
      <defs>
       <path d="M 33.015625 40.375 
Q 26.375 40.375 22.484375 35.828125 
Q 18.609375 31.296875 18.609375 23.390625 
Q 18.609375 15.53125 22.484375 10.953125 
Q 26.375 6.390625 33.015625 6.390625 
Q 39.65625 6.390625 43.53125 10.953125 
Q 47.40625 15.53125 47.40625 23.390625 
Q 47.40625 31.296875 43.53125 35.828125 
Q 39.65625 40.375 33.015625 40.375 
z
M 52.59375 71.296875 
L 52.59375 62.3125 
Q 48.875 64.0625 45.09375 64.984375 
Q 41.3125 65.921875 37.59375 65.921875 
Q 27.828125 65.921875 22.671875 59.328125 
Q 17.53125 52.734375 16.796875 39.40625 
Q 19.671875 43.65625 24.015625 45.921875 
Q 28.375 48.1875 33.59375 48.1875 
Q 44.578125 48.1875 50.953125 41.515625 
Q 57.328125 34.859375 57.328125 23.390625 
Q 57.328125 12.15625 50.6875 5.359375 
Q 44.046875 -1.421875 33.015625 -1.421875 
Q 20.359375 -1.421875 13.671875 8.265625 
Q 6.984375 17.96875 6.984375 36.375 
Q 6.984375 53.65625 15.1875 63.9375 
Q 23.390625 74.21875 37.203125 74.21875 
Q 40.921875 74.21875 44.703125 73.484375 
Q 48.484375 72.75 52.59375 71.296875 
z
" id="DejaVuSans-36"/>
      </defs>
      <g transform="translate(319.707188 297.408484)scale(0.15 -0.15)">
       <use xlink:href="#DejaVuSans-36"/>
       <use x="63.623047" xlink:href="#DejaVuSans-30"/>
      </g>
     </g>
    </g>
    <g id="xtick_5">
     <g id="line2d_9">
      <path clip-path="url(#pa58a65d935)" d="M 418.530938 279.010828 
L 418.530938 12.898828 
" style="fill:none;stroke:#b0b0b0;stroke-linecap:square;stroke-width:0.8;"/>
     </g>
     <g id="line2d_10">
      <g>
       <use style="stroke:#000000;stroke-width:0.8;" x="418.530938" xlink:href="#ma9940352b0" y="279.010828"/>
      </g>
     </g>
     <g id="text_5">
      <!-- 80 -->
      <defs>
       <path d="M 31.78125 34.625 
Q 24.75 34.625 20.71875 30.859375 
Q 16.703125 27.09375 16.703125 20.515625 
Q 16.703125 13.921875 20.71875 10.15625 
Q 24.75 6.390625 31.78125 6.390625 
Q 38.8125 6.390625 42.859375 10.171875 
Q 46.921875 13.96875 46.921875 20.515625 
Q 46.921875 27.09375 42.890625 30.859375 
Q 38.875 34.625 31.78125 34.625 
z
M 21.921875 38.8125 
Q 15.578125 40.375 12.03125 44.71875 
Q 8.5 49.078125 8.5 55.328125 
Q 8.5 64.0625 14.71875 69.140625 
Q 20.953125 74.21875 31.78125 74.21875 
Q 42.671875 74.21875 48.875 69.140625 
Q 55.078125 64.0625 55.078125 55.328125 
Q 55.078125 49.078125 51.53125 44.71875 
Q 48 40.375 41.703125 38.8125 
Q 48.828125 37.15625 52.796875 32.3125 
Q 56.78125 27.484375 56.78125 20.515625 
Q 56.78125 9.90625 50.3125 4.234375 
Q 43.84375 -1.421875 31.78125 -1.421875 
Q 19.734375 -1.421875 13.25 4.234375 
Q 6.78125 9.90625 6.78125 20.515625 
Q 6.78125 27.484375 10.78125 32.3125 
Q 14.796875 37.15625 21.921875 38.8125 
z
M 18.3125 54.390625 
Q 18.3125 48.734375 21.84375 45.5625 
Q 25.390625 42.390625 31.78125 42.390625 
Q 38.140625 42.390625 41.71875 45.5625 
Q 45.3125 48.734375 45.3125 54.390625 
Q 45.3125 60.0625 41.71875 63.234375 
Q 38.140625 66.40625 31.78125 66.40625 
Q 25.390625 66.40625 21.84375 63.234375 
Q 18.3125 60.0625 18.3125 54.390625 
z
" id="DejaVuSans-38"/>
      </defs>
      <g transform="translate(408.987188 297.408484)scale(0.15 -0.15)">
       <use xlink:href="#DejaVuSans-38"/>
       <use x="63.623047" xlink:href="#DejaVuSans-30"/>
      </g>
     </g>
    </g>
    <g id="text_6">
     <!-- Time ($\mu s$) -->
     <defs>
      <path d="M -0.296875 72.90625 
L 61.375 72.90625 
L 61.375 64.59375 
L 35.5 64.59375 
L 35.5 0 
L 25.59375 0 
L 25.59375 64.59375 
L -0.296875 64.59375 
z
" id="DejaVuSans-54"/>
      <path d="M 9.421875 54.6875 
L 18.40625 54.6875 
L 18.40625 0 
L 9.421875 0 
z
M 9.421875 75.984375 
L 18.40625 75.984375 
L 18.40625 64.59375 
L 9.421875 64.59375 
z
" id="DejaVuSans-69"/>
      <path d="M 52 44.1875 
Q 55.375 50.25 60.0625 53.125 
Q 64.75 56 71.09375 56 
Q 79.640625 56 84.28125 50.015625 
Q 88.921875 44.046875 88.921875 33.015625 
L 88.921875 0 
L 79.890625 0 
L 79.890625 32.71875 
Q 79.890625 40.578125 77.09375 44.375 
Q 74.3125 48.1875 68.609375 48.1875 
Q 61.625 48.1875 57.5625 43.546875 
Q 53.515625 38.921875 53.515625 30.90625 
L 53.515625 0 
L 44.484375 0 
L 44.484375 32.71875 
Q 44.484375 40.625 41.703125 44.40625 
Q 38.921875 48.1875 33.109375 48.1875 
Q 26.21875 48.1875 22.15625 43.53125 
Q 18.109375 38.875 18.109375 30.90625 
L 18.109375 0 
L 9.078125 0 
L 9.078125 54.6875 
L 18.109375 54.6875 
L 18.109375 46.1875 
Q 21.1875 51.21875 25.484375 53.609375 
Q 29.78125 56 35.6875 56 
Q 41.65625 56 45.828125 52.96875 
Q 50 49.953125 52 44.1875 
z
" id="DejaVuSans-6d"/>
      <path d="M 56.203125 29.59375 
L 56.203125 25.203125 
L 14.890625 25.203125 
Q 15.484375 15.921875 20.484375 11.0625 
Q 25.484375 6.203125 34.421875 6.203125 
Q 39.59375 6.203125 44.453125 7.46875 
Q 49.3125 8.734375 54.109375 11.28125 
L 54.109375 2.78125 
Q 49.265625 0.734375 44.1875 -0.34375 
Q 39.109375 -1.421875 33.890625 -1.421875 
Q 20.796875 -1.421875 13.15625 6.1875 
Q 5.515625 13.8125 5.515625 26.8125 
Q 5.515625 40.234375 12.765625 48.109375 
Q 20.015625 56 32.328125 56 
Q 43.359375 56 49.78125 48.890625 
Q 56.203125 41.796875 56.203125 29.59375 
z
M 47.21875 32.234375 
Q 47.125 39.59375 43.09375 43.984375 
Q 39.0625 48.390625 32.421875 48.390625 
Q 24.90625 48.390625 20.390625 44.140625 
Q 15.875 39.890625 15.1875 32.171875 
z
" id="DejaVuSans-65"/>
      <path id="DejaVuSans-20"/>
      <path d="M 31 75.875 
Q 24.46875 64.65625 21.28125 53.65625 
Q 18.109375 42.671875 18.109375 31.390625 
Q 18.109375 20.125 21.3125 9.0625 
Q 24.515625 -2 31 -13.1875 
L 23.1875 -13.1875 
Q 15.875 -1.703125 12.234375 9.375 
Q 8.59375 20.453125 8.59375 31.390625 
Q 8.59375 42.28125 12.203125 53.3125 
Q 15.828125 64.359375 23.1875 75.875 
z
" id="DejaVuSans-28"/>
      <path d="M -1.3125 -20.796875 
L 13.375 54.6875 
L 22.40625 54.6875 
L 15.765625 20.65625 
Q 15.578125 19.625 15.421875 18.359375 
Q 15.28125 17.09375 15.28125 15.828125 
Q 15.28125 11.28125 18.140625 8.828125 
Q 21 6.390625 26.3125 6.390625 
Q 33.546875 6.390625 37.984375 10.484375 
Q 42.4375 14.59375 44 22.796875 
L 50.203125 54.6875 
L 59.1875 54.6875 
L 51.03125 12.640625 
Q 50.828125 11.71875 50.75 11.03125 
Q 50.6875 10.359375 50.6875 9.8125 
Q 50.6875 8.296875 51.296875 7.59375 
Q 51.90625 6.890625 53.21875 6.890625 
Q 53.71875 6.890625 54.5625 7.125 
Q 55.421875 7.375 56.984375 8.015625 
L 55.609375 0.78125 
Q 53.46875 -0.296875 51.515625 -0.859375 
Q 49.5625 -1.421875 47.703125 -1.421875 
Q 44.484375 -1.421875 42.65625 0.625 
Q 40.828125 2.6875 40.828125 6.296875 
Q 38.09375 2.390625 34.296875 0.484375 
Q 30.515625 -1.421875 25.390625 -1.421875 
Q 20.84375 -1.421875 17.453125 0.671875 
Q 14.0625 2.78125 12.984375 6.203125 
L 7.71875 -20.796875 
z
" id="DejaVuSans-Oblique-3bc"/>
      <path d="M 50 53.078125 
L 48.296875 44.578125 
Q 44.734375 46.53125 40.765625 47.5 
Q 36.8125 48.484375 32.625 48.484375 
Q 25.53125 48.484375 21.453125 46.0625 
Q 17.390625 43.65625 17.390625 39.5 
Q 17.390625 34.671875 26.859375 32.078125 
Q 27.59375 31.890625 27.9375 31.78125 
L 30.8125 30.90625 
Q 39.796875 28.421875 42.796875 25.6875 
Q 45.796875 22.953125 45.796875 18.21875 
Q 45.796875 9.515625 38.890625 4.046875 
Q 31.984375 -1.421875 20.796875 -1.421875 
Q 16.453125 -1.421875 11.671875 -0.578125 
Q 6.890625 0.25 1.125 2 
L 2.875 11.28125 
Q 7.8125 8.734375 12.59375 7.421875 
Q 17.390625 6.109375 21.78125 6.109375 
Q 28.375 6.109375 32.5 8.9375 
Q 36.625 11.765625 36.625 16.109375 
Q 36.625 20.796875 25.78125 23.6875 
L 24.859375 23.921875 
L 21.78125 24.703125 
Q 14.9375 26.515625 11.765625 29.46875 
Q 8.59375 32.421875 8.59375 37.015625 
Q 8.59375 45.75 15.15625 50.875 
Q 21.734375 56 33.015625 56 
Q 37.453125 56 41.671875 55.265625 
Q 45.90625 54.546875 50 53.078125 
z
" id="DejaVuSans-Oblique-73"/>
      <path d="M 8.015625 75.875 
L 15.828125 75.875 
Q 23.140625 64.359375 26.78125 53.3125 
Q 30.421875 42.28125 30.421875 31.390625 
Q 30.421875 20.453125 26.78125 9.375 
Q 23.140625 -1.703125 15.828125 -13.1875 
L 8.015625 -13.1875 
Q 14.5 -2 17.703125 9.0625 
Q 20.90625 20.125 20.90625 31.390625 
Q 20.90625 42.671875 17.703125 53.65625 
Q 14.5 64.65625 8.015625 75.875 
z
" id="DejaVuSans-29"/>
     </defs>
     <g transform="translate(192.570938 319.728016)scale(0.2 -0.2)">
      <use transform="translate(0 0.015625)" xlink:href="#DejaVuSans-54"/>
      <use transform="translate(61.083984 0.015625)" xlink:href="#DejaVuSans-69"/>
      <use transform="translate(88.867188 0.015625)" xlink:href="#DejaVuSans-6d"/>
      <use transform="translate(186.279297 0.015625)" xlink:href="#DejaVuSans-65"/>
      <use transform="translate(247.802734 0.015625)" xlink:href="#DejaVuSans-20"/>
      <use transform="translate(279.589844 0.015625)" xlink:href="#DejaVuSans-28"/>
      <use transform="translate(318.603516 0.015625)" xlink:href="#DejaVuSans-Oblique-3bc"/>
      <use transform="translate(382.226562 0.015625)" xlink:href="#DejaVuSans-Oblique-73"/>
      <use transform="translate(434.326172 0.015625)" xlink:href="#DejaVuSans-29"/>
     </g>
    </g>
   </g>
   <g id="matplotlib.axis_2">
    <g id="ytick_1">
     <g id="line2d_11">
      <path clip-path="url(#pa58a65d935)" d="M 61.410938 279.010828 
L 418.530938 279.010828 
" style="fill:none;stroke:#b0b0b0;stroke-linecap:square;stroke-width:0.8;"/>
     </g>
     <g id="line2d_12">
      <defs>
       <path d="M 0 0 
L -3.5 0 
" id="m59d40ae530" style="stroke:#000000;stroke-width:0.8;"/>
      </defs>
      <g>
       <use style="stroke:#000000;stroke-width:0.8;" x="61.410938" xlink:href="#m59d40ae530" y="279.010828"/>
      </g>
     </g>
     <g id="text_7">
      <!-- 0.0 -->
      <defs>
       <path d="M 10.6875 12.40625 
L 21 12.40625 
L 21 0 
L 10.6875 0 
z
" id="DejaVuSans-2e"/>
      </defs>
      <g transform="translate(30.55625 284.709656)scale(0.15 -0.15)">
       <use xlink:href="#DejaVuSans-30"/>
       <use x="63.623047" xlink:href="#DejaVuSans-2e"/>
       <use x="95.410156" xlink:href="#DejaVuSans-30"/>
      </g>
     </g>
    </g>
    <g id="ytick_2">
     <g id="line2d_13">
      <path clip-path="url(#pa58a65d935)" d="M 61.410938 225.788428 
L 418.530938 225.788428 
" style="fill:none;stroke:#b0b0b0;stroke-linecap:square;stroke-width:0.8;"/>
     </g>
     <g id="line2d_14">
      <g>
       <use style="stroke:#000000;stroke-width:0.8;" x="61.410938" xlink:href="#m59d40ae530" y="225.788428"/>
      </g>
     </g>
     <g id="text_8">
      <!-- 0.2 -->
      <g transform="translate(30.55625 231.487256)scale(0.15 -0.15)">
       <use xlink:href="#DejaVuSans-30"/>
       <use x="63.623047" xlink:href="#DejaVuSans-2e"/>
       <use x="95.410156" xlink:href="#DejaVuSans-32"/>
      </g>
     </g>
    </g>
    <g id="ytick_3">
     <g id="line2d_15">
      <path clip-path="url(#pa58a65d935)" d="M 61.410938 172.566028 
L 418.530938 172.566028 
" style="fill:none;stroke:#b0b0b0;stroke-linecap:square;stroke-width:0.8;"/>
     </g>
     <g id="line2d_16">
      <g>
       <use style="stroke:#000000;stroke-width:0.8;" x="61.410938" xlink:href="#m59d40ae530" y="172.566028"/>
      </g>
     </g>
     <g id="text_9">
      <!-- 0.4 -->
      <g transform="translate(30.55625 178.264856)scale(0.15 -0.15)">
       <use xlink:href="#DejaVuSans-30"/>
       <use x="63.623047" xlink:href="#DejaVuSans-2e"/>
       <use x="95.410156" xlink:href="#DejaVuSans-34"/>
      </g>
     </g>
    </g>
    <g id="ytick_4">
     <g id="line2d_17">
      <path clip-path="url(#pa58a65d935)" d="M 61.410938 119.343628 
L 418.530938 119.343628 
" style="fill:none;stroke:#b0b0b0;stroke-linecap:square;stroke-width:0.8;"/>
     </g>
     <g id="line2d_18">
      <g>
       <use style="stroke:#000000;stroke-width:0.8;" x="61.410938" xlink:href="#m59d40ae530" y="119.343628"/>
      </g>
     </g>
     <g id="text_10">
      <!-- 0.6 -->
      <g transform="translate(30.55625 125.042456)scale(0.15 -0.15)">
       <use xlink:href="#DejaVuSans-30"/>
       <use x="63.623047" xlink:href="#DejaVuSans-2e"/>
       <use x="95.410156" xlink:href="#DejaVuSans-36"/>
      </g>
     </g>
    </g>
    <g id="ytick_5">
     <g id="line2d_19">
      <path clip-path="url(#pa58a65d935)" d="M 61.410938 66.121228 
L 418.530938 66.121228 
" style="fill:none;stroke:#b0b0b0;stroke-linecap:square;stroke-width:0.8;"/>
     </g>
     <g id="line2d_20">
      <g>
       <use style="stroke:#000000;stroke-width:0.8;" x="61.410938" xlink:href="#m59d40ae530" y="66.121228"/>
      </g>
     </g>
     <g id="text_11">
      <!-- 0.8 -->
      <g transform="translate(30.55625 71.820056)scale(0.15 -0.15)">
       <use xlink:href="#DejaVuSans-30"/>
       <use x="63.623047" xlink:href="#DejaVuSans-2e"/>
       <use x="95.410156" xlink:href="#DejaVuSans-38"/>
      </g>
     </g>
    </g>
    <g id="ytick_6">
     <g id="line2d_21">
      <path clip-path="url(#pa58a65d935)" d="M 61.410938 12.898828 
L 418.530938 12.898828 
" style="fill:none;stroke:#b0b0b0;stroke-linecap:square;stroke-width:0.8;"/>
     </g>
     <g id="line2d_22">
      <g>
       <use style="stroke:#000000;stroke-width:0.8;" x="61.410938" xlink:href="#m59d40ae530" y="12.898828"/>
      </g>
     </g>
     <g id="text_12">
      <!-- 1.0 -->
      <defs>
       <path d="M 12.40625 8.296875 
L 28.515625 8.296875 
L 28.515625 63.921875 
L 10.984375 60.40625 
L 10.984375 69.390625 
L 28.421875 72.90625 
L 38.28125 72.90625 
L 38.28125 8.296875 
L 54.390625 8.296875 
L 54.390625 0 
L 12.40625 0 
z
" id="DejaVuSans-31"/>
      </defs>
      <g transform="translate(30.55625 18.597656)scale(0.15 -0.15)">
       <use xlink:href="#DejaVuSans-31"/>
       <use x="63.623047" xlink:href="#DejaVuSans-2e"/>
       <use x="95.410156" xlink:href="#DejaVuSans-30"/>
      </g>
     </g>
    </g>
    <g id="text_13">
     <!-- Survival -->
     <defs>
      <path d="M 53.515625 70.515625 
L 53.515625 60.890625 
Q 47.90625 63.578125 42.921875 64.890625 
Q 37.9375 66.21875 33.296875 66.21875 
Q 25.25 66.21875 20.875 63.09375 
Q 16.5 59.96875 16.5 54.203125 
Q 16.5 49.359375 19.40625 46.890625 
Q 22.3125 44.4375 30.421875 42.921875 
L 36.375 41.703125 
Q 47.40625 39.59375 52.65625 34.296875 
Q 57.90625 29 57.90625 20.125 
Q 57.90625 9.515625 50.796875 4.046875 
Q 43.703125 -1.421875 29.984375 -1.421875 
Q 24.8125 -1.421875 18.96875 -0.25 
Q 13.140625 0.921875 6.890625 3.21875 
L 6.890625 13.375 
Q 12.890625 10.015625 18.65625 8.296875 
Q 24.421875 6.59375 29.984375 6.59375 
Q 38.421875 6.59375 43.015625 9.90625 
Q 47.609375 13.234375 47.609375 19.390625 
Q 47.609375 24.75 44.3125 27.78125 
Q 41.015625 30.8125 33.5 32.328125 
L 27.484375 33.5 
Q 16.453125 35.6875 11.515625 40.375 
Q 6.59375 45.0625 6.59375 53.421875 
Q 6.59375 63.09375 13.40625 68.65625 
Q 20.21875 74.21875 32.171875 74.21875 
Q 37.3125 74.21875 42.625 73.28125 
Q 47.953125 72.359375 53.515625 70.515625 
z
" id="DejaVuSans-53"/>
      <path d="M 8.5 21.578125 
L 8.5 54.6875 
L 17.484375 54.6875 
L 17.484375 21.921875 
Q 17.484375 14.15625 20.5 10.265625 
Q 23.53125 6.390625 29.59375 6.390625 
Q 36.859375 6.390625 41.078125 11.03125 
Q 45.3125 15.671875 45.3125 23.6875 
L 45.3125 54.6875 
L 54.296875 54.6875 
L 54.296875 0 
L 45.3125 0 
L 45.3125 8.40625 
Q 42.046875 3.421875 37.71875 1 
Q 33.40625 -1.421875 27.6875 -1.421875 
Q 18.265625 -1.421875 13.375 4.4375 
Q 8.5 10.296875 8.5 21.578125 
z
M 31.109375 56 
z
" id="DejaVuSans-75"/>
      <path d="M 41.109375 46.296875 
Q 39.59375 47.171875 37.8125 47.578125 
Q 36.03125 48 33.890625 48 
Q 26.265625 48 22.1875 43.046875 
Q 18.109375 38.09375 18.109375 28.8125 
L 18.109375 0 
L 9.078125 0 
L 9.078125 54.6875 
L 18.109375 54.6875 
L 18.109375 46.1875 
Q 20.953125 51.171875 25.484375 53.578125 
Q 30.03125 56 36.53125 56 
Q 37.453125 56 38.578125 55.875 
Q 39.703125 55.765625 41.0625 55.515625 
z
" id="DejaVuSans-72"/>
      <path d="M 2.984375 54.6875 
L 12.5 54.6875 
L 29.59375 8.796875 
L 46.6875 54.6875 
L 56.203125 54.6875 
L 35.6875 0 
L 23.484375 0 
z
" id="DejaVuSans-76"/>
      <path d="M 34.28125 27.484375 
Q 23.390625 27.484375 19.1875 25 
Q 14.984375 22.515625 14.984375 16.5 
Q 14.984375 11.71875 18.140625 8.90625 
Q 21.296875 6.109375 26.703125 6.109375 
Q 34.1875 6.109375 38.703125 11.40625 
Q 43.21875 16.703125 43.21875 25.484375 
L 43.21875 27.484375 
z
M 52.203125 31.203125 
L 52.203125 0 
L 43.21875 0 
L 43.21875 8.296875 
Q 40.140625 3.328125 35.546875 0.953125 
Q 30.953125 -1.421875 24.3125 -1.421875 
Q 15.921875 -1.421875 10.953125 3.296875 
Q 6 8.015625 6 15.921875 
Q 6 25.140625 12.171875 29.828125 
Q 18.359375 34.515625 30.609375 34.515625 
L 43.21875 34.515625 
L 43.21875 35.40625 
Q 43.21875 41.609375 39.140625 45 
Q 35.0625 48.390625 27.6875 48.390625 
Q 23 48.390625 18.546875 47.265625 
Q 14.109375 46.140625 10.015625 43.890625 
L 10.015625 52.203125 
Q 14.9375 54.109375 19.578125 55.046875 
Q 24.21875 56 28.609375 56 
Q 40.484375 56 46.34375 49.84375 
Q 52.203125 43.703125 52.203125 31.203125 
z
" id="DejaVuSans-61"/>
      <path d="M 9.421875 75.984375 
L 18.40625 75.984375 
L 18.40625 0 
L 9.421875 0 
z
" id="DejaVuSans-6c"/>
     </defs>
     <g transform="translate(22.396875 186.273578)rotate(-90)scale(0.2 -0.2)">
      <use xlink:href="#DejaVuSans-53"/>
      <use x="63.476562" xlink:href="#DejaVuSans-75"/>
      <use x="126.855469" xlink:href="#DejaVuSans-72"/>
      <use x="167.96875" xlink:href="#DejaVuSans-76"/>
      <use x="227.148438" xlink:href="#DejaVuSans-69"/>
      <use x="254.931641" xlink:href="#DejaVuSans-76"/>
      <use x="314.111328" xlink:href="#DejaVuSans-61"/>
      <use x="375.390625" xlink:href="#DejaVuSans-6c"/>
     </g>
    </g>
   </g>
   <g id="LineCollection_1">
    <path clip-path="url(#pa58a65d935)" d="M 61.410938 278.752732 
L 61.410938 277.24782 
" style="fill:none;stroke:#1f77b4;stroke-width:1.5;"/>
    <path clip-path="url(#pa58a65d935)" d="M 70.338938 218.156694 
L 70.338938 206.466916 
" style="fill:none;stroke:#1f77b4;stroke-width:1.5;"/>
    <path clip-path="url(#pa58a65d935)" d="M 79.266938 120.345287 
L 79.266938 106.854074 
" style="fill:none;stroke:#1f77b4;stroke-width:1.5;"/>
    <path clip-path="url(#pa58a65d935)" d="M 88.194938 63.209406 
L 88.194938 53.107166 
" style="fill:none;stroke:#1f77b4;stroke-width:1.5;"/>
    <path clip-path="url(#pa58a65d935)" d="M 97.122938 139.76962 
L 97.122938 126.409105 
" style="fill:none;stroke:#1f77b4;stroke-width:1.5;"/>
    <path clip-path="url(#pa58a65d935)" d="M 106.050938 235.026405 
L 106.050938 224.356404 
" style="fill:none;stroke:#1f77b4;stroke-width:1.5;"/>
    <path clip-path="url(#pa58a65d935)" d="M 114.978938 273.815728 
L 114.978938 269.34329 
" style="fill:none;stroke:#1f77b4;stroke-width:1.5;"/>
    <path clip-path="url(#pa58a65d935)" d="M 123.906938 226.67312 
L 123.906938 215.676737 
" style="fill:none;stroke:#1f77b4;stroke-width:1.5;"/>
    <path clip-path="url(#pa58a65d935)" d="M 132.834938 123.530605 
L 132.834938 110.380282 
" style="fill:none;stroke:#1f77b4;stroke-width:1.5;"/>
    <path clip-path="url(#pa58a65d935)" d="M 141.762938 73.335345 
L 141.762938 62.363112 
" style="fill:none;stroke:#1f77b4;stroke-width:1.5;"/>
    <path clip-path="url(#pa58a65d935)" d="M 150.690938 137.422733 
L 150.690938 123.91531 
" style="fill:none;stroke:#1f77b4;stroke-width:1.5;"/>
    <path clip-path="url(#pa58a65d935)" d="M 159.618938 223.833909 
L 159.618938 212.477608 
" style="fill:none;stroke:#1f77b4;stroke-width:1.5;"/>
    <path clip-path="url(#pa58a65d935)" d="M 168.546938 272.801389 
L 168.546938 268.073876 
" style="fill:none;stroke:#1f77b4;stroke-width:1.5;"/>
    <path clip-path="url(#pa58a65d935)" d="M 177.474938 223.853944 
L 177.474938 211.981076 
" style="fill:none;stroke:#1f77b4;stroke-width:1.5;"/>
    <path clip-path="url(#pa58a65d935)" d="M 186.402938 146.77986 
L 186.402938 133.033797 
" style="fill:none;stroke:#1f77b4;stroke-width:1.5;"/>
    <path clip-path="url(#pa58a65d935)" d="M 195.330938 83.338957 
L 195.330938 71.713099 
" style="fill:none;stroke:#1f77b4;stroke-width:1.5;"/>
    <path clip-path="url(#pa58a65d935)" d="M 204.258938 144.095328 
L 204.258938 130.579096 
" style="fill:none;stroke:#1f77b4;stroke-width:1.5;"/>
    <path clip-path="url(#pa58a65d935)" d="M 213.186938 227.260084 
L 213.186938 216.009572 
" style="fill:none;stroke:#1f77b4;stroke-width:1.5;"/>
    <path clip-path="url(#pa58a65d935)" d="M 222.114938 265.541862 
L 222.114938 258.858117 
" style="fill:none;stroke:#1f77b4;stroke-width:1.5;"/>
    <path clip-path="url(#pa58a65d935)" d="M 231.042938 213.794157 
L 231.042938 201.692575 
" style="fill:none;stroke:#1f77b4;stroke-width:1.5;"/>
    <path clip-path="url(#pa58a65d935)" d="M 239.970938 125.513243 
L 239.970938 112.20128 
" style="fill:none;stroke:#1f77b4;stroke-width:1.5;"/>
    <path clip-path="url(#pa58a65d935)" d="M 248.898938 79.35775 
L 248.898938 68.186146 
" style="fill:none;stroke:#1f77b4;stroke-width:1.5;"/>
    <path clip-path="url(#pa58a65d935)" d="M 257.826938 121.061571 
L 257.826938 108.034846 
" style="fill:none;stroke:#1f77b4;stroke-width:1.5;"/>
    <path clip-path="url(#pa58a65d935)" d="M 266.754938 237.751437 
L 266.754938 227.239195 
" style="fill:none;stroke:#1f77b4;stroke-width:1.5;"/>
    <path clip-path="url(#pa58a65d935)" d="M 275.682938 262.759407 
L 275.682938 255.490076 
" style="fill:none;stroke:#1f77b4;stroke-width:1.5;"/>
    <path clip-path="url(#pa58a65d935)" d="M 284.610938 211.20244 
L 284.610938 198.651593 
" style="fill:none;stroke:#1f77b4;stroke-width:1.5;"/>
    <path clip-path="url(#pa58a65d935)" d="M 293.538938 132.47581 
L 293.538938 118.876669 
" style="fill:none;stroke:#1f77b4;stroke-width:1.5;"/>
    <path clip-path="url(#pa58a65d935)" d="M 302.466938 79.686122 
L 302.466938 68.109261 
" style="fill:none;stroke:#1f77b4;stroke-width:1.5;"/>
    <path clip-path="url(#pa58a65d935)" d="M 311.394938 128.067032 
L 311.394938 114.839903 
" style="fill:none;stroke:#1f77b4;stroke-width:1.5;"/>
    <path clip-path="url(#pa58a65d935)" d="M 320.322938 231.622058 
L 320.322938 220.664431 
" style="fill:none;stroke:#1f77b4;stroke-width:1.5;"/>
    <path clip-path="url(#pa58a65d935)" d="M 329.250938 259.16734 
L 329.250938 251.619437 
" style="fill:none;stroke:#1f77b4;stroke-width:1.5;"/>
    <path clip-path="url(#pa58a65d935)" d="M 338.178938 206.768157 
L 338.178938 194.168518 
" style="fill:none;stroke:#1f77b4;stroke-width:1.5;"/>
    <path clip-path="url(#pa58a65d935)" d="M 347.106938 116.45907 
L 347.106938 103.320228 
" style="fill:none;stroke:#1f77b4;stroke-width:1.5;"/>
    <path clip-path="url(#pa58a65d935)" d="M 356.034938 91.665858 
L 356.034938 79.597166 
" style="fill:none;stroke:#1f77b4;stroke-width:1.5;"/>
    <path clip-path="url(#pa58a65d935)" d="M 364.962938 141.360409 
L 364.962938 127.59619 
" style="fill:none;stroke:#1f77b4;stroke-width:1.5;"/>
    <path clip-path="url(#pa58a65d935)" d="M 373.890938 220.923077 
L 373.890938 209.281005 
" style="fill:none;stroke:#1f77b4;stroke-width:1.5;"/>
    <path clip-path="url(#pa58a65d935)" d="M 382.818938 252.085768 
L 382.818938 243.279888 
" style="fill:none;stroke:#1f77b4;stroke-width:1.5;"/>
    <path clip-path="url(#pa58a65d935)" d="M 391.746938 207.249298 
L 391.746938 194.775669 
" style="fill:none;stroke:#1f77b4;stroke-width:1.5;"/>
    <path clip-path="url(#pa58a65d935)" d="M 400.674938 138.023377 
L 400.674938 124.237931 
" style="fill:none;stroke:#1f77b4;stroke-width:1.5;"/>
    <path clip-path="url(#pa58a65d935)" d="M 409.602938 95.563257 
L 409.602938 83.530838 
" style="fill:none;stroke:#1f77b4;stroke-width:1.5;"/>
    <path clip-path="url(#pa58a65d935)" d="M 418.530938 153.170515 
L 418.530938 139.446886 
" style="fill:none;stroke:#1f77b4;stroke-width:1.5;"/>
   </g>
   <g id="LineCollection_2">
    <path clip-path="url(#pa58a65d935)" d="M 61.410938 278.275034 
L 61.410938 276.081168 
" style="fill:none;stroke:#d62728;stroke-width:1.5;"/>
    <path clip-path="url(#pa58a65d935)" d="M 70.338938 246.924279 
L 70.338938 236.960604 
" style="fill:none;stroke:#d62728;stroke-width:1.5;"/>
    <path clip-path="url(#pa58a65d935)" d="M 79.266938 159.5787 
L 79.266938 145.33068 
" style="fill:none;stroke:#d62728;stroke-width:1.5;"/>
    <path clip-path="url(#pa58a65d935)" d="M 88.194938 88.415744 
L 88.194938 75.63229 
" style="fill:none;stroke:#d62728;stroke-width:1.5;"/>
    <path clip-path="url(#pa58a65d935)" d="M 97.122938 67.085952 
L 97.122938 55.974862 
" style="fill:none;stroke:#d62728;stroke-width:1.5;"/>
    <path clip-path="url(#pa58a65d935)" d="M 106.050938 109.76819 
L 106.050938 96.249409 
" style="fill:none;stroke:#d62728;stroke-width:1.5;"/>
    <path clip-path="url(#pa58a65d935)" d="M 114.978938 183.283539 
L 114.978938 169.516151 
" style="fill:none;stroke:#d62728;stroke-width:1.5;"/>
    <path clip-path="url(#pa58a65d935)" d="M 123.906938 231.648933 
L 123.906938 220.085386 
" style="fill:none;stroke:#d62728;stroke-width:1.5;"/>
    <path clip-path="url(#pa58a65d935)" d="M 132.834938 212.824218 
L 132.834938 200.379582 
" style="fill:none;stroke:#d62728;stroke-width:1.5;"/>
    <path clip-path="url(#pa58a65d935)" d="M 141.762938 158.461632 
L 141.762938 143.868073 
" style="fill:none;stroke:#d62728;stroke-width:1.5;"/>
    <path clip-path="url(#pa58a65d935)" d="M 150.690938 117.122272 
L 150.690938 103.017785 
" style="fill:none;stroke:#d62728;stroke-width:1.5;"/>
    <path clip-path="url(#pa58a65d935)" d="M 159.618938 117.140357 
L 159.618938 103.60843 
" style="fill:none;stroke:#d62728;stroke-width:1.5;"/>
    <path clip-path="url(#pa58a65d935)" d="M 168.546938 130.207384 
L 168.546938 116.213041 
" style="fill:none;stroke:#d62728;stroke-width:1.5;"/>
    <path clip-path="url(#pa58a65d935)" d="M 177.474938 186.354799 
L 177.474938 172.281449 
" style="fill:none;stroke:#d62728;stroke-width:1.5;"/>
    <path clip-path="url(#pa58a65d935)" d="M 186.402938 213.833185 
L 186.402938 201.191505 
" style="fill:none;stroke:#d62728;stroke-width:1.5;"/>
    <path clip-path="url(#pa58a65d935)" d="M 195.330938 194.97337 
L 195.330938 181.056797 
" style="fill:none;stroke:#d62728;stroke-width:1.5;"/>
   </g>
   <g id="line2d_23">
    <path clip-path="url(#pa58a65d935)" d="M 61.410938 278.57076 
L 62.839418 278.57076 
L 63.196538 276.123085 
L 63.553658 275.887631 
L 63.910778 274.30671 
L 64.267898 273.652664 
L 64.625018 270.668287 
L 64.982138 269.480194 
L 66.767738 258.43325 
L 68.196218 245.291126 
L 68.910458 239.000803 
L 69.267578 234.179015 
L 69.624698 231.612536 
L 71.767418 207.423817 
L 72.481658 196.818271 
L 73.195898 188.171428 
L 74.267258 174.370687 
L 74.981498 164.34085 
L 75.338618 160.278717 
L 76.052858 150.093812 
L 78.195578 123.426683 
L 78.909818 114.348101 
L 80.338298 99.707078 
L 81.409658 88.188379 
L 83.195258 73.447746 
L 84.980858 62.213739 
L 85.337978 61.132927 
L 86.052218 58.058563 
L 86.409338 57.069865 
L 86.766458 56.5423 
L 87.123578 54.979542 
L 87.837818 53.550983 
L 88.194938 53.786802 
L 88.552058 53.255697 
L 88.909178 54.392561 
L 89.266298 53.963379 
L 89.623418 56.084004 
L 89.980538 56.5423 
L 90.694778 58.465907 
L 91.051898 59.299533 
L 91.409018 60.935789 
L 91.766138 64.003427 
L 92.123258 64.724909 
L 93.194618 71.945206 
L 95.694458 92.69052 
L 100.337018 146.990926 
L 101.765498 166.061089 
L 102.479738 175.352421 
L 103.193978 183.610318 
L 103.551098 189.20297 
L 103.908218 192.42003 
L 104.979578 207.002876 
L 105.693818 214.358699 
L 107.836538 237.378722 
L 108.907898 248.105786 
L 109.622138 252.736423 
L 110.693498 261.18475 
L 111.407738 264.612504 
L 111.764858 267.572302 
L 112.121978 269.458106 
L 112.479098 269.955115 
L 112.836218 272.202124 
L 113.193338 272.369164 
L 113.550458 272.911679 
L 113.907578 274.152069 
L 114.264698 274.961988 
L 114.621818 275.449786 
L 114.978938 275.191543 
L 115.336058 275.339366 
L 116.050298 274.570614 
L 116.407418 274.39505 
L 116.764538 273.127138 
L 117.121658 272.369164 
L 118.193018 268.202699 
L 118.550138 266.25942 
L 118.907258 265.245374 
L 119.264378 262.578644 
L 119.621498 261.125541 
L 120.692858 254.221115 
L 121.049978 249.36871 
L 121.407098 247.566333 
L 123.906938 223.578677 
L 124.621178 214.975098 
L 124.978298 210.67446 
L 125.335418 208.026732 
L 128.192378 171.826568 
L 128.549498 166.749906 
L 128.906618 163.781863 
L 129.977978 149.506359 
L 131.049338 136.007827 
L 131.406458 131.13601 
L 131.763578 128.447077 
L 132.477818 119.389329 
L 132.834938 116.137995 
L 133.906298 103.961051 
L 134.977658 93.376143 
L 136.049018 85.135013 
L 136.763258 79.577397 
L 137.477498 74.898934 
L 137.834618 72.304278 
L 138.548858 68.6983 
L 138.905978 66.043752 
L 139.620218 64.141366 
L 139.977338 62.478786 
L 140.334458 62.280001 
L 140.691578 61.44182 
L 141.048698 60.211074 
L 141.405818 60.449337 
L 141.762938 59.95693 
L 142.120058 59.927481 
L 142.477178 60.421728 
L 142.834298 61.233896 
L 143.191418 60.987758 
L 143.548538 62.630996 
L 143.905658 63.242921 
L 144.262778 64.598694 
L 144.619898 64.688848 
L 147.119738 78.289523 
L 147.476858 81.912326 
L 147.833978 83.728287 
L 149.262458 95.802488 
L 149.976698 104.377737 
L 150.333818 106.595205 
L 150.690938 111.522797 
L 151.048058 113.769624 
L 151.762298 122.377892 
L 152.119418 125.942511 
L 152.833658 135.05901 
L 153.190778 138.52671 
L 153.905018 147.707427 
L 154.619258 155.717736 
L 154.976378 160.850859 
L 155.333498 164.009064 
L 156.404858 178.334194 
L 156.761978 181.994031 
L 157.119098 186.987641 
L 157.476218 190.406427 
L 158.547578 203.063243 
L 159.618938 215.041698 
L 160.333178 222.11989 
L 161.404538 233.443531 
L 162.118778 238.8278 
L 162.475898 242.781978 
L 164.975738 258.607775 
L 165.689978 262.113427 
L 166.047098 263.366911 
L 166.404218 265.229597 
L 166.761338 266.016565 
L 167.118458 267.17367 
L 167.475578 267.797877 
L 167.832698 268.124166 
L 168.189818 268.645175 
L 168.546938 268.459068 
L 168.904058 269.195461 
L 169.618298 268.163432 
L 169.975418 267.957475 
L 170.332538 267.17367 
L 170.689658 265.03735 
L 171.046778 264.912663 
L 171.761018 262.883155 
L 172.118138 259.834748 
L 172.475258 259.284305 
L 172.832378 258.123895 
L 173.546618 252.906624 
L 173.903738 250.86545 
L 174.260858 247.065814 
L 174.617978 245.128553 
L 174.975098 242.516266 
L 176.403578 229.297742 
L 177.474938 220.454052 
L 178.189178 211.767742 
L 178.903418 204.965719 
L 179.617658 196.144986 
L 180.689018 183.776678 
L 182.831738 158.214661 
L 183.545978 150.13799 
L 183.903098 145.598794 
L 184.260218 142.563072 
L 184.974458 133.17419 
L 185.331578 129.932283 
L 186.045818 122.496263 
L 186.760058 114.716746 
L 187.117178 111.978868 
L 188.545658 97.258331 
L 189.259898 93.155255 
L 189.617018 89.185042 
L 189.974138 88.119887 
L 190.688378 82.35863 
L 191.402618 78.014719 
L 191.759738 76.761405 
L 192.831098 71.387633 
L 193.188218 70.367938 
L 193.545338 69.967537 
L 193.902458 69.34543 
L 194.259578 68.44981 
L 194.973818 67.828199 
L 195.330938 67.958555 
L 195.688058 68.67069 
L 196.045178 67.68081 
L 196.402298 68.47357 
L 196.759418 68.739715 
L 197.116538 69.234425 
L 197.473658 70.835899 
L 197.830778 70.700916 
L 198.187898 73.404114 
L 198.545018 73.702562 
L 198.902138 76.161396 
L 199.616378 79.542748 
L 199.973498 82.191473 
L 200.330618 83.459273 
L 200.687738 85.669806 
L 201.759098 94.249386 
L 202.116218 96.246292 
L 202.473338 99.08548 
L 202.830458 103.635531 
L 203.187578 106.077451 
L 206.044538 135.64644 
L 207.473018 152.623156 
L 207.830138 155.022064 
L 208.901498 167.965253 
L 209.258618 171.786735 
L 209.615738 177.154896 
L 210.329978 184.36405 
L 210.687098 188.961313 
L 211.401338 195.124957 
L 212.472698 207.052889 
L 214.972538 230.892156 
L 216.043898 239.142159 
L 217.115258 246.947018 
L 217.472378 248.328768 
L 218.186618 253.294455 
L 218.543738 254.657712 
L 218.900858 256.535887 
L 219.257978 256.815811 
L 219.615098 257.621945 
L 220.329338 260.91693 
L 220.686458 260.70486 
L 221.043578 261.498087 
L 221.400698 261.271858 
L 221.757818 262.087441 
L 222.114938 262.113427 
L 222.472058 262.712512 
L 222.829178 261.460221 
L 223.543418 260.450763 
L 223.900538 260.1681 
L 224.257658 258.673029 
L 224.614778 257.949733 
L 224.971898 256.375244 
L 225.329018 254.202708 
L 226.043258 251.515839 
L 226.757498 246.461998 
L 227.114618 245.968354 
L 227.471738 242.201771 
L 227.828858 240.5668 
L 228.185978 238.023193 
L 228.543098 234.283109 
L 229.257338 229.413445 
L 229.614458 225.87451 
L 229.971578 223.481046 
L 231.757178 206.177088 
L 232.114298 200.991735 
L 232.471418 198.545766 
L 232.828538 193.365053 
L 233.542778 186.343233 
L 234.257018 178.184499 
L 235.328378 167.005959 
L 236.042618 158.323296 
L 236.399738 154.021669 
L 236.756858 151.128314 
L 237.113978 145.766559 
L 239.256698 125.045523 
L 239.613818 120.196636 
L 239.970938 117.889003 
L 240.328058 113.6269 
L 240.685178 111.231412 
L 241.042298 106.82917 
L 241.399418 105.232284 
L 242.470778 96.013136 
L 244.613498 82.69441 
L 244.970618 82.032809 
L 245.327738 79.577397 
L 245.684858 78.487378 
L 246.041978 77.86898 
L 246.399098 76.326453 
L 246.756218 75.831758 
L 247.470458 74.631748 
L 247.827578 73.497841 
L 248.184698 74.099329 
L 248.541818 73.415022 
L 248.898938 73.175515 
L 249.256058 74.451826 
L 249.613178 74.586955 
L 249.970298 74.431037 
L 250.327418 76.047734 
L 250.684538 76.474265 
L 252.113018 81.668587 
L 252.470138 84.083322 
L 252.827258 85.112925 
L 254.255738 94.157965 
L 254.612858 97.823019 
L 254.969978 98.533912 
L 256.398458 111.161072 
L 256.755578 115.169853 
L 257.469818 120.020182 
L 258.898298 136.058205 
L 259.612538 143.015857 
L 262.112378 169.47282 
L 264.969338 200.618807 
L 265.683578 206.797526 
L 266.397818 214.155481 
L 266.754938 216.919405 
L 267.112058 221.149757 
L 269.969018 243.018024 
L 270.683258 245.913734 
L 271.397498 249.587224 
L 272.825978 255.207557 
L 273.183098 255.626223 
L 273.540218 255.820407 
L 273.897338 257.416208 
L 274.254458 257.312263 
L 274.611578 257.907153 
L 274.968698 257.436997 
L 275.325818 257.832639 
L 275.682938 256.968688 
L 276.040058 257.091972 
L 276.397178 256.606168 
L 276.754298 255.371399 
L 277.111418 255.490294 
L 277.468538 254.039454 
L 277.825658 251.46535 
L 278.182778 251.48218 
L 278.539898 249.384487 
L 278.897018 248.633165 
L 279.611258 245.311342 
L 279.968378 242.31697 
L 280.682618 238.92048 
L 281.396858 233.67668 
L 281.753978 231.67253 
L 282.111098 227.174747 
L 282.825338 221.254263 
L 283.896698 211.54793 
L 284.610938 205.139136 
L 288.896378 161.100718 
L 289.253498 155.790458 
L 289.967738 149.132971 
L 291.039098 138.046514 
L 291.396218 135.051191 
L 291.753338 130.822727 
L 292.110458 128.172632 
L 292.467578 123.720162 
L 296.038778 94.673889 
L 296.753018 90.85019 
L 297.110138 90.085052 
L 297.824378 84.980393 
L 298.181498 84.053115 
L 298.538618 81.498363 
L 299.967098 78.919832 
L 300.324218 77.86898 
L 301.038458 76.656901 
L 301.395578 76.541491 
L 301.752698 77.326851 
L 302.109818 77.586934 
L 302.824058 78.442754 
L 303.181178 77.761801 
L 303.538298 79.997282 
L 303.895418 79.920822 
L 304.252538 81.74154 
L 304.609658 82.528746 
L 305.681018 87.569669 
L 306.038138 88.666795 
L 306.395258 91.240449 
L 307.109498 94.733588 
L 307.823738 100.950462 
L 308.537978 106.092512 
L 309.609338 114.712215 
L 310.323578 120.317317 
L 311.037818 127.622953 
L 312.823418 145.662172 
L 313.537658 153.773396 
L 314.251898 160.792921 
L 314.966138 168.138359 
L 316.037498 180.0392 
L 316.394618 182.763726 
L 317.465978 194.947239 
L 318.180218 201.131665 
L 318.537338 205.299409 
L 319.251578 210.876049 
L 319.608698 214.939578 
L 321.037178 226.797288 
L 321.394298 230.385902 
L 321.751418 232.813216 
L 322.108538 234.207334 
L 322.822778 239.904259 
L 323.537018 243.624378 
L 323.894138 244.843481 
L 324.965498 250.206505 
L 325.322618 251.524253 
L 325.679738 251.959876 
L 326.036858 253.848172 
L 326.393978 254.903544 
L 326.751098 255.304173 
L 327.108218 256.545927 
L 327.465338 256.405364 
L 327.822458 256.596128 
L 328.179578 256.586088 
L 328.536698 256.004515 
L 328.893818 255.694188 
L 329.250938 255.645642 
L 329.608058 254.388 
L 329.965178 254.821618 
L 330.322298 252.941966 
L 330.679418 251.871652 
L 331.036538 251.322301 
L 332.107898 245.734152 
L 332.465018 244.980117 
L 332.822138 243.305276 
L 333.179258 239.630167 
L 333.536378 238.615979 
L 336.393338 216.411238 
L 336.750458 212.191748 
L 337.821818 203.221311 
L 339.607418 185.653534 
L 340.678778 173.539372 
L 341.035898 170.801782 
L 342.464378 155.157154 
L 342.821498 152.553497 
L 343.535738 143.948295 
L 344.964218 130.113011 
L 345.678458 124.36513 
L 346.392698 116.931278 
L 347.821178 104.907299 
L 348.178298 102.90899 
L 348.892538 97.24123 
L 349.249658 95.003746 
L 349.606778 93.498591 
L 350.321018 88.923994 
L 350.678138 88.337674 
L 351.035258 85.517801 
L 351.392378 83.93984 
L 351.749498 82.891325 
L 352.106618 81.330344 
L 352.820858 79.9633 
L 353.177978 78.540926 
L 353.892218 78.407056 
L 354.249338 77.042436 
L 354.606458 78.5677 
L 354.963578 77.932741 
L 355.320698 78.406727 
L 355.677818 78.460604 
L 356.034938 79.020049 
L 356.749178 80.977521 
L 357.106298 81.436696 
L 358.534778 87.622589 
L 359.606138 92.603409 
L 360.320378 97.907976 
L 361.034618 101.61603 
L 361.391738 105.211973 
L 361.748858 107.119752 
L 362.105978 111.457 
L 362.463098 113.622299 
L 362.820218 117.458921 
L 363.534458 122.249301 
L 364.248698 130.269642 
L 364.605818 132.811299 
L 366.034298 146.504723 
L 366.748538 155.00746 
L 367.462778 162.103777 
L 368.177018 169.081735 
L 368.534138 174.217972 
L 368.891258 176.93218 
L 370.676858 195.9348 
L 371.748218 206.317467 
L 373.176698 218.198751 
L 373.533818 221.601158 
L 373.890938 223.598203 
L 374.248058 228.015248 
L 374.605178 229.965586 
L 375.319418 235.487158 
L 376.390778 242.567785 
L 376.747898 243.679172 
L 377.462138 247.735583 
L 377.819258 248.451696 
L 378.176378 250.002485 
L 378.533498 252.361667 
L 378.890618 253.109839 
L 379.247738 253.330154 
L 379.604858 253.231983 
L 379.961978 255.008049 
L 380.319098 255.419417 
L 380.676218 255.313777 
L 381.033338 255.438624 
L 381.390458 255.975064 
L 381.747578 255.798357 
L 382.104698 255.207557 
L 382.461818 254.083062 
L 382.818938 254.221115 
L 383.176058 253.699217 
L 383.533178 252.71018 
L 384.247418 249.777582 
L 384.604538 248.94295 
L 385.318778 244.619088 
L 385.675898 244.086521 
L 386.033018 240.624423 
L 386.390138 239.492308 
L 386.747258 237.735061 
L 387.461498 232.818773 
L 387.818618 230.509064 
L 388.532858 223.972663 
L 388.889978 221.577278 
L 389.247098 217.745527 
L 389.604218 215.742282 
L 389.961338 211.953534 
L 390.318458 209.798045 
L 390.675578 204.920723 
L 391.389818 198.739045 
L 393.532538 176.574374 
L 393.889658 173.898 
L 396.032378 150.414102 
L 396.389498 148.352924 
L 397.103738 139.970075 
L 397.817978 133.445356 
L 398.532218 126.087018 
L 398.889338 123.018564 
L 399.246458 118.800345 
L 399.603578 116.706211 
L 399.960698 113.774202 
L 400.317818 109.833668 
L 401.389178 102.444566 
L 401.746298 99.816836 
L 402.103418 98.234193 
L 402.460538 95.340985 
L 402.817658 94.393639 
L 403.531898 89.330119 
L 403.889018 88.351267 
L 405.317498 82.175553 
L 405.674618 81.668587 
L 406.388858 80.022769 
L 407.103098 79.256244 
L 407.460218 79.378167 
L 408.174458 78.199365 
L 408.531578 78.540926 
L 409.245818 80.5294 
L 409.602938 80.894947 
L 409.960058 80.701394 
L 410.674298 84.342487 
L 412.102778 90.274852 
L 412.459898 92.454077 
L 412.817018 93.885637 
L 413.174138 96.996126 
L 413.531258 98.718451 
L 414.602618 106.072431 
L 414.959738 109.77158 
L 415.316858 111.26431 
L 415.673978 115.169853 
L 416.388218 120.667326 
L 418.530938 140.84363 
L 418.530938 140.84363 
" style="fill:none;stroke:#1f77b4;stroke-linecap:square;stroke-width:1.5;"/>
   </g>
   <g id="line2d_24">
    <path clip-path="url(#pa58a65d935)" d="M 61.410938 52.815628 
L 418.530938 52.815628 
" style="fill:none;opacity:0.3;stroke:#0000ff;stroke-dasharray:7.4,3.2;stroke-dashoffset:0;stroke-width:2;"/>
   </g>
   <g id="line2d_25">
    <defs>
     <path d="M 0 3 
C 0.795609 3 1.55874 2.683901 2.12132 2.12132 
C 2.683901 1.55874 3 0.795609 3 0 
C 3 -0.795609 2.683901 -1.55874 2.12132 -2.12132 
C 1.55874 -2.683901 0.795609 -3 0 -3 
C -0.795609 -3 -1.55874 -2.683901 -2.12132 -2.12132 
C -2.683901 -1.55874 -3 -0.795609 -3 0 
C -3 0.795609 -2.683901 1.55874 -2.12132 2.12132 
C -1.55874 2.683901 -0.795609 3 0 3 
z
" id="m0bc37efeb9" style="stroke:#1f77b4;"/>
    </defs>
    <g clip-path="url(#pa58a65d935)">
     <use style="fill:#1f77b4;stroke:#1f77b4;" x="61.410938" xlink:href="#m0bc37efeb9" y="278.000276"/>
     <use style="fill:#1f77b4;stroke:#1f77b4;" x="70.338938" xlink:href="#m0bc37efeb9" y="212.311805"/>
     <use style="fill:#1f77b4;stroke:#1f77b4;" x="79.266938" xlink:href="#m0bc37efeb9" y="113.599681"/>
     <use style="fill:#1f77b4;stroke:#1f77b4;" x="88.194938" xlink:href="#m0bc37efeb9" y="58.158286"/>
     <use style="fill:#1f77b4;stroke:#1f77b4;" x="97.122938" xlink:href="#m0bc37efeb9" y="133.089362"/>
     <use style="fill:#1f77b4;stroke:#1f77b4;" x="106.050938" xlink:href="#m0bc37efeb9" y="229.691404"/>
     <use style="fill:#1f77b4;stroke:#1f77b4;" x="114.978938" xlink:href="#m0bc37efeb9" y="271.579509"/>
     <use style="fill:#1f77b4;stroke:#1f77b4;" x="123.906938" xlink:href="#m0bc37efeb9" y="221.174929"/>
     <use style="fill:#1f77b4;stroke:#1f77b4;" x="132.834938" xlink:href="#m0bc37efeb9" y="116.955444"/>
     <use style="fill:#1f77b4;stroke:#1f77b4;" x="141.762938" xlink:href="#m0bc37efeb9" y="67.849228"/>
     <use style="fill:#1f77b4;stroke:#1f77b4;" x="150.690938" xlink:href="#m0bc37efeb9" y="130.669021"/>
     <use style="fill:#1f77b4;stroke:#1f77b4;" x="159.618938" xlink:href="#m0bc37efeb9" y="218.155758"/>
     <use style="fill:#1f77b4;stroke:#1f77b4;" x="168.546938" xlink:href="#m0bc37efeb9" y="270.437632"/>
     <use style="fill:#1f77b4;stroke:#1f77b4;" x="177.474938" xlink:href="#m0bc37efeb9" y="217.91751"/>
     <use style="fill:#1f77b4;stroke:#1f77b4;" x="186.402938" xlink:href="#m0bc37efeb9" y="139.906828"/>
     <use style="fill:#1f77b4;stroke:#1f77b4;" x="195.330938" xlink:href="#m0bc37efeb9" y="77.526028"/>
     <use style="fill:#1f77b4;stroke:#1f77b4;" x="204.258938" xlink:href="#m0bc37efeb9" y="137.337212"/>
     <use style="fill:#1f77b4;stroke:#1f77b4;" x="213.186938" xlink:href="#m0bc37efeb9" y="221.634828"/>
     <use style="fill:#1f77b4;stroke:#1f77b4;" x="222.114938" xlink:href="#m0bc37efeb9" y="262.199989"/>
     <use style="fill:#1f77b4;stroke:#1f77b4;" x="231.042938" xlink:href="#m0bc37efeb9" y="207.743366"/>
     <use style="fill:#1f77b4;stroke:#1f77b4;" x="239.970938" xlink:href="#m0bc37efeb9" y="118.857262"/>
     <use style="fill:#1f77b4;stroke:#1f77b4;" x="248.898938" xlink:href="#m0bc37efeb9" y="73.771948"/>
     <use style="fill:#1f77b4;stroke:#1f77b4;" x="257.826938" xlink:href="#m0bc37efeb9" y="114.548209"/>
     <use style="fill:#1f77b4;stroke:#1f77b4;" x="266.754938" xlink:href="#m0bc37efeb9" y="232.495316"/>
     <use style="fill:#1f77b4;stroke:#1f77b4;" x="275.682938" xlink:href="#m0bc37efeb9" y="259.124741"/>
     <use style="fill:#1f77b4;stroke:#1f77b4;" x="284.610938" xlink:href="#m0bc37efeb9" y="204.927016"/>
     <use style="fill:#1f77b4;stroke:#1f77b4;" x="293.538938" xlink:href="#m0bc37efeb9" y="125.67624"/>
     <use style="fill:#1f77b4;stroke:#1f77b4;" x="302.466938" xlink:href="#m0bc37efeb9" y="73.897691"/>
     <use style="fill:#1f77b4;stroke:#1f77b4;" x="311.394938" xlink:href="#m0bc37efeb9" y="121.453468"/>
     <use style="fill:#1f77b4;stroke:#1f77b4;" x="320.322938" xlink:href="#m0bc37efeb9" y="226.143244"/>
     <use style="fill:#1f77b4;stroke:#1f77b4;" x="329.250938" xlink:href="#m0bc37efeb9" y="255.393388"/>
     <use style="fill:#1f77b4;stroke:#1f77b4;" x="338.178938" xlink:href="#m0bc37efeb9" y="200.468338"/>
     <use style="fill:#1f77b4;stroke:#1f77b4;" x="347.106938" xlink:href="#m0bc37efeb9" y="109.889649"/>
     <use style="fill:#1f77b4;stroke:#1f77b4;" x="356.034938" xlink:href="#m0bc37efeb9" y="85.631512"/>
     <use style="fill:#1f77b4;stroke:#1f77b4;" x="364.962938" xlink:href="#m0bc37efeb9" y="134.4783"/>
     <use style="fill:#1f77b4;stroke:#1f77b4;" x="373.890938" xlink:href="#m0bc37efeb9" y="215.102041"/>
     <use style="fill:#1f77b4;stroke:#1f77b4;" x="382.818938" xlink:href="#m0bc37efeb9" y="247.682828"/>
     <use style="fill:#1f77b4;stroke:#1f77b4;" x="391.746938" xlink:href="#m0bc37efeb9" y="201.012483"/>
     <use style="fill:#1f77b4;stroke:#1f77b4;" x="400.674938" xlink:href="#m0bc37efeb9" y="131.130654"/>
     <use style="fill:#1f77b4;stroke:#1f77b4;" x="409.602938" xlink:href="#m0bc37efeb9" y="89.547048"/>
     <use style="fill:#1f77b4;stroke:#1f77b4;" x="418.530938" xlink:href="#m0bc37efeb9" y="146.3087"/>
    </g>
   </g>
   <g id="line2d_26">
    <path clip-path="url(#pa58a65d935)" d="M 61.410938 277.178101 
L 70.338938 241.942441 
L 79.266938 152.45469 
L 88.194938 82.024017 
L 97.122938 61.530407 
L 106.050938 103.008799 
L 114.978938 176.399845 
L 123.906938 225.867159 
L 132.834938 206.6019 
L 141.762938 151.164852 
L 150.690938 110.070028 
L 159.618938 110.374394 
L 168.546938 123.210213 
L 177.474938 179.318124 
L 186.402938 207.512345 
L 195.330938 188.015083 
" style="fill:none;stroke:#d62728;stroke-linecap:square;stroke-width:1.5;"/>
    <defs>
     <path d="M 0 3 
C 0.795609 3 1.55874 2.683901 2.12132 2.12132 
C 2.683901 1.55874 3 0.795609 3 0 
C 3 -0.795609 2.683901 -1.55874 2.12132 -2.12132 
C 1.55874 -2.683901 0.795609 -3 0 -3 
C -0.795609 -3 -1.55874 -2.683901 -2.12132 -2.12132 
C -2.683901 -1.55874 -3 -0.795609 -3 0 
C -3 0.795609 -2.683901 1.55874 -2.12132 2.12132 
C -1.55874 2.683901 -0.795609 3 0 3 
z
" id="mae3c799cad" style="stroke:#d62728;"/>
    </defs>
    <g clip-path="url(#pa58a65d935)">
     <use style="fill:#d62728;stroke:#d62728;" x="61.410938" xlink:href="#mae3c799cad" y="277.178101"/>
     <use style="fill:#d62728;stroke:#d62728;" x="70.338938" xlink:href="#mae3c799cad" y="241.942441"/>
     <use style="fill:#d62728;stroke:#d62728;" x="79.266938" xlink:href="#mae3c799cad" y="152.45469"/>
     <use style="fill:#d62728;stroke:#d62728;" x="88.194938" xlink:href="#mae3c799cad" y="82.024017"/>
     <use style="fill:#d62728;stroke:#d62728;" x="97.122938" xlink:href="#mae3c799cad" y="61.530407"/>
     <use style="fill:#d62728;stroke:#d62728;" x="106.050938" xlink:href="#mae3c799cad" y="103.008799"/>
     <use style="fill:#d62728;stroke:#d62728;" x="114.978938" xlink:href="#mae3c799cad" y="176.399845"/>
     <use style="fill:#d62728;stroke:#d62728;" x="123.906938" xlink:href="#mae3c799cad" y="225.867159"/>
     <use style="fill:#d62728;stroke:#d62728;" x="132.834938" xlink:href="#mae3c799cad" y="206.6019"/>
     <use style="fill:#d62728;stroke:#d62728;" x="141.762938" xlink:href="#mae3c799cad" y="151.164852"/>
     <use style="fill:#d62728;stroke:#d62728;" x="150.690938" xlink:href="#mae3c799cad" y="110.070028"/>
     <use style="fill:#d62728;stroke:#d62728;" x="159.618938" xlink:href="#mae3c799cad" y="110.374394"/>
     <use style="fill:#d62728;stroke:#d62728;" x="168.546938" xlink:href="#mae3c799cad" y="123.210213"/>
     <use style="fill:#d62728;stroke:#d62728;" x="177.474938" xlink:href="#mae3c799cad" y="179.318124"/>
     <use style="fill:#d62728;stroke:#d62728;" x="186.402938" xlink:href="#mae3c799cad" y="207.512345"/>
     <use style="fill:#d62728;stroke:#d62728;" x="195.330938" xlink:href="#mae3c799cad" y="188.015083"/>
    </g>
   </g>
   <g id="patch_3">
    <path d="M 61.410938 279.010828 
L 61.410938 12.898828 
" style="fill:none;stroke:#000000;stroke-linecap:square;stroke-linejoin:miter;stroke-width:0.8;"/>
   </g>
   <g id="patch_4">
    <path d="M 418.530938 279.010828 
L 418.530938 12.898828 
" style="fill:none;stroke:#000000;stroke-linecap:square;stroke-linejoin:miter;stroke-width:0.8;"/>
   </g>
   <g id="patch_5">
    <path d="M 61.410938 279.010828 
L 418.530938 279.010828 
" style="fill:none;stroke:#000000;stroke-linecap:square;stroke-linejoin:miter;stroke-width:0.8;"/>
   </g>
   <g id="patch_6">
    <path d="M 61.410938 12.898828 
L 418.530938 12.898828 
" style="fill:none;stroke:#000000;stroke-linecap:square;stroke-linejoin:miter;stroke-width:0.8;"/>
   </g>
   <g id="text_14">
    <!-- (C) -->
    <defs>
     <path d="M 64.40625 67.28125 
L 64.40625 56.890625 
Q 59.421875 61.53125 53.78125 63.8125 
Q 48.140625 66.109375 41.796875 66.109375 
Q 29.296875 66.109375 22.65625 58.46875 
Q 16.015625 50.828125 16.015625 36.375 
Q 16.015625 21.96875 22.65625 14.328125 
Q 29.296875 6.6875 41.796875 6.6875 
Q 48.140625 6.6875 53.78125 8.984375 
Q 59.421875 11.28125 64.40625 15.921875 
L 64.40625 5.609375 
Q 59.234375 2.09375 53.4375 0.328125 
Q 47.65625 -1.421875 41.21875 -1.421875 
Q 24.65625 -1.421875 15.125 8.703125 
Q 5.609375 18.84375 5.609375 36.375 
Q 5.609375 53.953125 15.125 64.078125 
Q 24.65625 74.21875 41.21875 74.21875 
Q 47.75 74.21875 53.53125 72.484375 
Q 59.328125 70.75 64.40625 67.28125 
z
" id="DejaVuSans-43"/>
    </defs>
    <g transform="translate(83.730938 39.510028)scale(0.2 -0.2)">
     <use xlink:href="#DejaVuSans-28"/>
     <use x="39.013672" xlink:href="#DejaVuSans-43"/>
     <use x="108.837891" xlink:href="#DejaVuSans-29"/>
    </g>
   </g>
  </g>
 </g>
 <defs>
  <clipPath id="pa58a65d935">
   <rect height="266.112" width="357.12" x="61.410938" y="12.898828"/>
  </clipPath>
 </defs>
</svg>
