<?xml version="1.0" encoding="utf-8" standalone="no"?>
<!DOCTYPE svg PUBLIC "-//W3C//DTD SVG 1.1//EN"
  "http://www.w3.org/Graphics/SVG/1.1/DTD/svg11.dtd">
<!-- Created with matplotlib (http://matplotlib.org/) -->
<svg height="331pt" version="1.1" viewBox="0 0 429 331" width="429pt" xmlns="http://www.w3.org/2000/svg" xmlns:xlink="http://www.w3.org/1999/xlink">
 <defs>
  <style type="text/css">
*{stroke-linecap:butt;stroke-linejoin:round;}
  </style>
 </defs>
 <g id="figure_1">
  <g id="patch_1">
   <path d="M 0 331.128016 
L 429.230937 331.128016 
L 429.230937 0 
L 0 0 
z
" style="fill:none;"/>
  </g>
  <g id="axes_1">
   <g id="patch_2">
    <path d="M 61.410938 279.010828 
L 418.530938 279.010828 
L 418.530938 12.898828 
L 61.410938 12.898828 
z
" style="fill:none;"/>
   </g>
   <g id="matplotlib.axis_1">
    <g id="xtick_1">
     <g id="line2d_1">
      <path clip-path="url(#p6365c98723)" d="M 61.410938 279.010828 
L 61.410938 12.898828 
" style="fill:none;stroke:#b0b0b0;stroke-linecap:square;stroke-width:0.8;"/>
     </g>
     <g id="line2d_2">
      <defs>
       <path d="M 0 0 
L 0 3.5 
" id="mab04b0ed88" style="stroke:#000000;stroke-width:0.8;"/>
      </defs>
      <g>
       <use style="stroke:#000000;stroke-width:0.8;" x="61.410938" xlink:href="#mab04b0ed88" y="279.010828"/>
      </g>
     </g>
     <g id="text_1">
      <!-- 0 -->
      <defs>
       <path d="M 31.78125 66.40625 
Q 24.171875 66.40625 20.328125 58.90625 
Q 16.5 51.421875 16.5 36.375 
Q 16.5 21.390625 20.328125 13.890625 
Q 24.171875 6.390625 31.78125 6.390625 
Q 39.453125 6.390625 43.28125 13.890625 
Q 47.125 21.390625 47.125 36.375 
Q 47.125 51.421875 43.28125 58.90625 
Q 39.453125 66.40625 31.78125 66.40625 
z
M 31.78125 74.21875 
Q 44.046875 74.21875 50.515625 64.515625 
Q 56.984375 54.828125 56.984375 36.375 
Q 56.984375 17.96875 50.515625 8.265625 
Q 44.046875 -1.421875 31.78125 -1.421875 
Q 19.53125 -1.421875 13.0625 8.265625 
Q 6.59375 17.96875 6.59375 36.375 
Q 6.59375 54.828125 13.0625 64.515625 
Q 19.53125 74.21875 31.78125 74.21875 
z
" id="DejaVuSans-30"/>
      </defs>
      <g transform="translate(56.639063 297.408484)scale(0.15 -0.15)">
       <use xlink:href="#DejaVuSans-30"/>
      </g>
     </g>
    </g>
    <g id="xtick_2">
     <g id="line2d_3">
      <path clip-path="url(#p6365c98723)" d="M 140.770938 279.010828 
L 140.770938 12.898828 
" style="fill:none;stroke:#b0b0b0;stroke-linecap:square;stroke-width:0.8;"/>
     </g>
     <g id="line2d_4">
      <g>
       <use style="stroke:#000000;stroke-width:0.8;" x="140.770938" xlink:href="#mab04b0ed88" y="279.010828"/>
      </g>
     </g>
     <g id="text_2">
      <!-- 100 -->
      <defs>
       <path d="M 12.40625 8.296875 
L 28.515625 8.296875 
L 28.515625 63.921875 
L 10.984375 60.40625 
L 10.984375 69.390625 
L 28.421875 72.90625 
L 38.28125 72.90625 
L 38.28125 8.296875 
L 54.390625 8.296875 
L 54.390625 0 
L 12.40625 0 
z
" id="DejaVuSans-31"/>
      </defs>
      <g transform="translate(126.455313 297.408484)scale(0.15 -0.15)">
       <use xlink:href="#DejaVuSans-31"/>
       <use x="63.623047" xlink:href="#DejaVuSans-30"/>
       <use x="127.246094" xlink:href="#DejaVuSans-30"/>
      </g>
     </g>
    </g>
    <g id="xtick_3">
     <g id="line2d_5">
      <path clip-path="url(#p6365c98723)" d="M 220.130938 279.010828 
L 220.130938 12.898828 
" style="fill:none;stroke:#b0b0b0;stroke-linecap:square;stroke-width:0.8;"/>
     </g>
     <g id="line2d_6">
      <g>
       <use style="stroke:#000000;stroke-width:0.8;" x="220.130938" xlink:href="#mab04b0ed88" y="279.010828"/>
      </g>
     </g>
     <g id="text_3">
      <!-- 200 -->
      <defs>
       <path d="M 19.1875 8.296875 
L 53.609375 8.296875 
L 53.609375 0 
L 7.328125 0 
L 7.328125 8.296875 
Q 12.9375 14.109375 22.625 23.890625 
Q 32.328125 33.6875 34.8125 36.53125 
Q 39.546875 41.84375 41.421875 45.53125 
Q 43.3125 49.21875 43.3125 52.78125 
Q 43.3125 58.59375 39.234375 62.25 
Q 35.15625 65.921875 28.609375 65.921875 
Q 23.96875 65.921875 18.8125 64.3125 
Q 13.671875 62.703125 7.8125 59.421875 
L 7.8125 69.390625 
Q 13.765625 71.78125 18.9375 73 
Q 24.125 74.21875 28.421875 74.21875 
Q 39.75 74.21875 46.484375 68.546875 
Q 53.21875 62.890625 53.21875 53.421875 
Q 53.21875 48.921875 51.53125 44.890625 
Q 49.859375 40.875 45.40625 35.40625 
Q 44.1875 33.984375 37.640625 27.21875 
Q 31.109375 20.453125 19.1875 8.296875 
z
" id="DejaVuSans-32"/>
      </defs>
      <g transform="translate(205.815313 297.408484)scale(0.15 -0.15)">
       <use xlink:href="#DejaVuSans-32"/>
       <use x="63.623047" xlink:href="#DejaVuSans-30"/>
       <use x="127.246094" xlink:href="#DejaVuSans-30"/>
      </g>
     </g>
    </g>
    <g id="xtick_4">
     <g id="line2d_7">
      <path clip-path="url(#p6365c98723)" d="M 299.490938 279.010828 
L 299.490938 12.898828 
" style="fill:none;stroke:#b0b0b0;stroke-linecap:square;stroke-width:0.8;"/>
     </g>
     <g id="line2d_8">
      <g>
       <use style="stroke:#000000;stroke-width:0.8;" x="299.490938" xlink:href="#mab04b0ed88" y="279.010828"/>
      </g>
     </g>
     <g id="text_4">
      <!-- 300 -->
      <defs>
       <path d="M 40.578125 39.3125 
Q 47.65625 37.796875 51.625 33 
Q 55.609375 28.21875 55.609375 21.1875 
Q 55.609375 10.40625 48.1875 4.484375 
Q 40.765625 -1.421875 27.09375 -1.421875 
Q 22.515625 -1.421875 17.65625 -0.515625 
Q 12.796875 0.390625 7.625 2.203125 
L 7.625 11.71875 
Q 11.71875 9.328125 16.59375 8.109375 
Q 21.484375 6.890625 26.8125 6.890625 
Q 36.078125 6.890625 40.9375 10.546875 
Q 45.796875 14.203125 45.796875 21.1875 
Q 45.796875 27.640625 41.28125 31.265625 
Q 36.765625 34.90625 28.71875 34.90625 
L 20.21875 34.90625 
L 20.21875 43.015625 
L 29.109375 43.015625 
Q 36.375 43.015625 40.234375 45.921875 
Q 44.09375 48.828125 44.09375 54.296875 
Q 44.09375 59.90625 40.109375 62.90625 
Q 36.140625 65.921875 28.71875 65.921875 
Q 24.65625 65.921875 20.015625 65.03125 
Q 15.375 64.15625 9.8125 62.3125 
L 9.8125 71.09375 
Q 15.4375 72.65625 20.34375 73.4375 
Q 25.25 74.21875 29.59375 74.21875 
Q 40.828125 74.21875 47.359375 69.109375 
Q 53.90625 64.015625 53.90625 55.328125 
Q 53.90625 49.265625 50.4375 45.09375 
Q 46.96875 40.921875 40.578125 39.3125 
z
" id="DejaVuSans-33"/>
      </defs>
      <g transform="translate(285.175313 297.408484)scale(0.15 -0.15)">
       <use xlink:href="#DejaVuSans-33"/>
       <use x="63.623047" xlink:href="#DejaVuSans-30"/>
       <use x="127.246094" xlink:href="#DejaVuSans-30"/>
      </g>
     </g>
    </g>
    <g id="xtick_5">
     <g id="line2d_9">
      <path clip-path="url(#p6365c98723)" d="M 378.850938 279.010828 
L 378.850938 12.898828 
" style="fill:none;stroke:#b0b0b0;stroke-linecap:square;stroke-width:0.8;"/>
     </g>
     <g id="line2d_10">
      <g>
       <use style="stroke:#000000;stroke-width:0.8;" x="378.850938" xlink:href="#mab04b0ed88" y="279.010828"/>
      </g>
     </g>
     <g id="text_5">
      <!-- 400 -->
      <defs>
       <path d="M 37.796875 64.3125 
L 12.890625 25.390625 
L 37.796875 25.390625 
z
M 35.203125 72.90625 
L 47.609375 72.90625 
L 47.609375 25.390625 
L 58.015625 25.390625 
L 58.015625 17.1875 
L 47.609375 17.1875 
L 47.609375 0 
L 37.796875 0 
L 37.796875 17.1875 
L 4.890625 17.1875 
L 4.890625 26.703125 
z
" id="DejaVuSans-34"/>
      </defs>
      <g transform="translate(364.535313 297.408484)scale(0.15 -0.15)">
       <use xlink:href="#DejaVuSans-34"/>
       <use x="63.623047" xlink:href="#DejaVuSans-30"/>
       <use x="127.246094" xlink:href="#DejaVuSans-30"/>
      </g>
     </g>
    </g>
    <g id="text_6">
     <!-- Time ($\mu s$) -->
     <defs>
      <path d="M -0.296875 72.90625 
L 61.375 72.90625 
L 61.375 64.59375 
L 35.5 64.59375 
L 35.5 0 
L 25.59375 0 
L 25.59375 64.59375 
L -0.296875 64.59375 
z
" id="DejaVuSans-54"/>
      <path d="M 9.421875 54.6875 
L 18.40625 54.6875 
L 18.40625 0 
L 9.421875 0 
z
M 9.421875 75.984375 
L 18.40625 75.984375 
L 18.40625 64.59375 
L 9.421875 64.59375 
z
" id="DejaVuSans-69"/>
      <path d="M 52 44.1875 
Q 55.375 50.25 60.0625 53.125 
Q 64.75 56 71.09375 56 
Q 79.640625 56 84.28125 50.015625 
Q 88.921875 44.046875 88.921875 33.015625 
L 88.921875 0 
L 79.890625 0 
L 79.890625 32.71875 
Q 79.890625 40.578125 77.09375 44.375 
Q 74.3125 48.1875 68.609375 48.1875 
Q 61.625 48.1875 57.5625 43.546875 
Q 53.515625 38.921875 53.515625 30.90625 
L 53.515625 0 
L 44.484375 0 
L 44.484375 32.71875 
Q 44.484375 40.625 41.703125 44.40625 
Q 38.921875 48.1875 33.109375 48.1875 
Q 26.21875 48.1875 22.15625 43.53125 
Q 18.109375 38.875 18.109375 30.90625 
L 18.109375 0 
L 9.078125 0 
L 9.078125 54.6875 
L 18.109375 54.6875 
L 18.109375 46.1875 
Q 21.1875 51.21875 25.484375 53.609375 
Q 29.78125 56 35.6875 56 
Q 41.65625 56 45.828125 52.96875 
Q 50 49.953125 52 44.1875 
z
" id="DejaVuSans-6d"/>
      <path d="M 56.203125 29.59375 
L 56.203125 25.203125 
L 14.890625 25.203125 
Q 15.484375 15.921875 20.484375 11.0625 
Q 25.484375 6.203125 34.421875 6.203125 
Q 39.59375 6.203125 44.453125 7.46875 
Q 49.3125 8.734375 54.109375 11.28125 
L 54.109375 2.78125 
Q 49.265625 0.734375 44.1875 -0.34375 
Q 39.109375 -1.421875 33.890625 -1.421875 
Q 20.796875 -1.421875 13.15625 6.1875 
Q 5.515625 13.8125 5.515625 26.8125 
Q 5.515625 40.234375 12.765625 48.109375 
Q 20.015625 56 32.328125 56 
Q 43.359375 56 49.78125 48.890625 
Q 56.203125 41.796875 56.203125 29.59375 
z
M 47.21875 32.234375 
Q 47.125 39.59375 43.09375 43.984375 
Q 39.0625 48.390625 32.421875 48.390625 
Q 24.90625 48.390625 20.390625 44.140625 
Q 15.875 39.890625 15.1875 32.171875 
z
" id="DejaVuSans-65"/>
      <path id="DejaVuSans-20"/>
      <path d="M 31 75.875 
Q 24.46875 64.65625 21.28125 53.65625 
Q 18.109375 42.671875 18.109375 31.390625 
Q 18.109375 20.125 21.3125 9.0625 
Q 24.515625 -2 31 -13.1875 
L 23.1875 -13.1875 
Q 15.875 -1.703125 12.234375 9.375 
Q 8.59375 20.453125 8.59375 31.390625 
Q 8.59375 42.28125 12.203125 53.3125 
Q 15.828125 64.359375 23.1875 75.875 
z
" id="DejaVuSans-28"/>
      <path d="M -1.3125 -20.796875 
L 13.375 54.6875 
L 22.40625 54.6875 
L 15.765625 20.65625 
Q 15.578125 19.625 15.421875 18.359375 
Q 15.28125 17.09375 15.28125 15.828125 
Q 15.28125 11.28125 18.140625 8.828125 
Q 21 6.390625 26.3125 6.390625 
Q 33.546875 6.390625 37.984375 10.484375 
Q 42.4375 14.59375 44 22.796875 
L 50.203125 54.6875 
L 59.1875 54.6875 
L 51.03125 12.640625 
Q 50.828125 11.71875 50.75 11.03125 
Q 50.6875 10.359375 50.6875 9.8125 
Q 50.6875 8.296875 51.296875 7.59375 
Q 51.90625 6.890625 53.21875 6.890625 
Q 53.71875 6.890625 54.5625 7.125 
Q 55.421875 7.375 56.984375 8.015625 
L 55.609375 0.78125 
Q 53.46875 -0.296875 51.515625 -0.859375 
Q 49.5625 -1.421875 47.703125 -1.421875 
Q 44.484375 -1.421875 42.65625 0.625 
Q 40.828125 2.6875 40.828125 6.296875 
Q 38.09375 2.390625 34.296875 0.484375 
Q 30.515625 -1.421875 25.390625 -1.421875 
Q 20.84375 -1.421875 17.453125 0.671875 
Q 14.0625 2.78125 12.984375 6.203125 
L 7.71875 -20.796875 
z
" id="DejaVuSans-Oblique-3bc"/>
      <path d="M 50 53.078125 
L 48.296875 44.578125 
Q 44.734375 46.53125 40.765625 47.5 
Q 36.8125 48.484375 32.625 48.484375 
Q 25.53125 48.484375 21.453125 46.0625 
Q 17.390625 43.65625 17.390625 39.5 
Q 17.390625 34.671875 26.859375 32.078125 
Q 27.59375 31.890625 27.9375 31.78125 
L 30.8125 30.90625 
Q 39.796875 28.421875 42.796875 25.6875 
Q 45.796875 22.953125 45.796875 18.21875 
Q 45.796875 9.515625 38.890625 4.046875 
Q 31.984375 -1.421875 20.796875 -1.421875 
Q 16.453125 -1.421875 11.671875 -0.578125 
Q 6.890625 0.25 1.125 2 
L 2.875 11.28125 
Q 7.8125 8.734375 12.59375 7.421875 
Q 17.390625 6.109375 21.78125 6.109375 
Q 28.375 6.109375 32.5 8.9375 
Q 36.625 11.765625 36.625 16.109375 
Q 36.625 20.796875 25.78125 23.6875 
L 24.859375 23.921875 
L 21.78125 24.703125 
Q 14.9375 26.515625 11.765625 29.46875 
Q 8.59375 32.421875 8.59375 37.015625 
Q 8.59375 45.75 15.15625 50.875 
Q 21.734375 56 33.015625 56 
Q 37.453125 56 41.671875 55.265625 
Q 45.90625 54.546875 50 53.078125 
z
" id="DejaVuSans-Oblique-73"/>
      <path d="M 8.015625 75.875 
L 15.828125 75.875 
Q 23.140625 64.359375 26.78125 53.3125 
Q 30.421875 42.28125 30.421875 31.390625 
Q 30.421875 20.453125 26.78125 9.375 
Q 23.140625 -1.703125 15.828125 -13.1875 
L 8.015625 -13.1875 
Q 14.5 -2 17.703125 9.0625 
Q 20.90625 20.125 20.90625 31.390625 
Q 20.90625 42.671875 17.703125 53.65625 
Q 14.5 64.65625 8.015625 75.875 
z
" id="DejaVuSans-29"/>
     </defs>
     <g transform="translate(192.570938 319.728016)scale(0.2 -0.2)">
      <use transform="translate(0 0.015625)" xlink:href="#DejaVuSans-54"/>
      <use transform="translate(61.083984 0.015625)" xlink:href="#DejaVuSans-69"/>
      <use transform="translate(88.867188 0.015625)" xlink:href="#DejaVuSans-6d"/>
      <use transform="translate(186.279297 0.015625)" xlink:href="#DejaVuSans-65"/>
      <use transform="translate(247.802734 0.015625)" xlink:href="#DejaVuSans-20"/>
      <use transform="translate(279.589844 0.015625)" xlink:href="#DejaVuSans-28"/>
      <use transform="translate(318.603516 0.015625)" xlink:href="#DejaVuSans-Oblique-3bc"/>
      <use transform="translate(382.226562 0.015625)" xlink:href="#DejaVuSans-Oblique-73"/>
      <use transform="translate(434.326172 0.015625)" xlink:href="#DejaVuSans-29"/>
     </g>
    </g>
   </g>
   <g id="matplotlib.axis_2">
    <g id="ytick_1">
     <g id="line2d_11">
      <path clip-path="url(#p6365c98723)" d="M 61.410938 279.010828 
L 418.530938 279.010828 
" style="fill:none;stroke:#b0b0b0;stroke-linecap:square;stroke-width:0.8;"/>
     </g>
     <g id="line2d_12">
      <defs>
       <path d="M 0 0 
L -3.5 0 
" id="m80fe7c6cb1" style="stroke:#000000;stroke-width:0.8;"/>
      </defs>
      <g>
       <use style="stroke:#000000;stroke-width:0.8;" x="61.410938" xlink:href="#m80fe7c6cb1" y="279.010828"/>
      </g>
     </g>
     <g id="text_7">
      <!-- 0.0 -->
      <defs>
       <path d="M 10.6875 12.40625 
L 21 12.40625 
L 21 0 
L 10.6875 0 
z
" id="DejaVuSans-2e"/>
      </defs>
      <g transform="translate(30.55625 284.709656)scale(0.15 -0.15)">
       <use xlink:href="#DejaVuSans-30"/>
       <use x="63.623047" xlink:href="#DejaVuSans-2e"/>
       <use x="95.410156" xlink:href="#DejaVuSans-30"/>
      </g>
     </g>
    </g>
    <g id="ytick_2">
     <g id="line2d_13">
      <path clip-path="url(#p6365c98723)" d="M 61.410938 225.788428 
L 418.530938 225.788428 
" style="fill:none;stroke:#b0b0b0;stroke-linecap:square;stroke-width:0.8;"/>
     </g>
     <g id="line2d_14">
      <g>
       <use style="stroke:#000000;stroke-width:0.8;" x="61.410938" xlink:href="#m80fe7c6cb1" y="225.788428"/>
      </g>
     </g>
     <g id="text_8">
      <!-- 0.2 -->
      <g transform="translate(30.55625 231.487256)scale(0.15 -0.15)">
       <use xlink:href="#DejaVuSans-30"/>
       <use x="63.623047" xlink:href="#DejaVuSans-2e"/>
       <use x="95.410156" xlink:href="#DejaVuSans-32"/>
      </g>
     </g>
    </g>
    <g id="ytick_3">
     <g id="line2d_15">
      <path clip-path="url(#p6365c98723)" d="M 61.410938 172.566028 
L 418.530938 172.566028 
" style="fill:none;stroke:#b0b0b0;stroke-linecap:square;stroke-width:0.8;"/>
     </g>
     <g id="line2d_16">
      <g>
       <use style="stroke:#000000;stroke-width:0.8;" x="61.410938" xlink:href="#m80fe7c6cb1" y="172.566028"/>
      </g>
     </g>
     <g id="text_9">
      <!-- 0.4 -->
      <g transform="translate(30.55625 178.264856)scale(0.15 -0.15)">
       <use xlink:href="#DejaVuSans-30"/>
       <use x="63.623047" xlink:href="#DejaVuSans-2e"/>
       <use x="95.410156" xlink:href="#DejaVuSans-34"/>
      </g>
     </g>
    </g>
    <g id="ytick_4">
     <g id="line2d_17">
      <path clip-path="url(#p6365c98723)" d="M 61.410938 119.343628 
L 418.530938 119.343628 
" style="fill:none;stroke:#b0b0b0;stroke-linecap:square;stroke-width:0.8;"/>
     </g>
     <g id="line2d_18">
      <g>
       <use style="stroke:#000000;stroke-width:0.8;" x="61.410938" xlink:href="#m80fe7c6cb1" y="119.343628"/>
      </g>
     </g>
     <g id="text_10">
      <!-- 0.6 -->
      <defs>
       <path d="M 33.015625 40.375 
Q 26.375 40.375 22.484375 35.828125 
Q 18.609375 31.296875 18.609375 23.390625 
Q 18.609375 15.53125 22.484375 10.953125 
Q 26.375 6.390625 33.015625 6.390625 
Q 39.65625 6.390625 43.53125 10.953125 
Q 47.40625 15.53125 47.40625 23.390625 
Q 47.40625 31.296875 43.53125 35.828125 
Q 39.65625 40.375 33.015625 40.375 
z
M 52.59375 71.296875 
L 52.59375 62.3125 
Q 48.875 64.0625 45.09375 64.984375 
Q 41.3125 65.921875 37.59375 65.921875 
Q 27.828125 65.921875 22.671875 59.328125 
Q 17.53125 52.734375 16.796875 39.40625 
Q 19.671875 43.65625 24.015625 45.921875 
Q 28.375 48.1875 33.59375 48.1875 
Q 44.578125 48.1875 50.953125 41.515625 
Q 57.328125 34.859375 57.328125 23.390625 
Q 57.328125 12.15625 50.6875 5.359375 
Q 44.046875 -1.421875 33.015625 -1.421875 
Q 20.359375 -1.421875 13.671875 8.265625 
Q 6.984375 17.96875 6.984375 36.375 
Q 6.984375 53.65625 15.1875 63.9375 
Q 23.390625 74.21875 37.203125 74.21875 
Q 40.921875 74.21875 44.703125 73.484375 
Q 48.484375 72.75 52.59375 71.296875 
z
" id="DejaVuSans-36"/>
      </defs>
      <g transform="translate(30.55625 125.042456)scale(0.15 -0.15)">
       <use xlink:href="#DejaVuSans-30"/>
       <use x="63.623047" xlink:href="#DejaVuSans-2e"/>
       <use x="95.410156" xlink:href="#DejaVuSans-36"/>
      </g>
     </g>
    </g>
    <g id="ytick_5">
     <g id="line2d_19">
      <path clip-path="url(#p6365c98723)" d="M 61.410938 66.121228 
L 418.530938 66.121228 
" style="fill:none;stroke:#b0b0b0;stroke-linecap:square;stroke-width:0.8;"/>
     </g>
     <g id="line2d_20">
      <g>
       <use style="stroke:#000000;stroke-width:0.8;" x="61.410938" xlink:href="#m80fe7c6cb1" y="66.121228"/>
      </g>
     </g>
     <g id="text_11">
      <!-- 0.8 -->
      <defs>
       <path d="M 31.78125 34.625 
Q 24.75 34.625 20.71875 30.859375 
Q 16.703125 27.09375 16.703125 20.515625 
Q 16.703125 13.921875 20.71875 10.15625 
Q 24.75 6.390625 31.78125 6.390625 
Q 38.8125 6.390625 42.859375 10.171875 
Q 46.921875 13.96875 46.921875 20.515625 
Q 46.921875 27.09375 42.890625 30.859375 
Q 38.875 34.625 31.78125 34.625 
z
M 21.921875 38.8125 
Q 15.578125 40.375 12.03125 44.71875 
Q 8.5 49.078125 8.5 55.328125 
Q 8.5 64.0625 14.71875 69.140625 
Q 20.953125 74.21875 31.78125 74.21875 
Q 42.671875 74.21875 48.875 69.140625 
Q 55.078125 64.0625 55.078125 55.328125 
Q 55.078125 49.078125 51.53125 44.71875 
Q 48 40.375 41.703125 38.8125 
Q 48.828125 37.15625 52.796875 32.3125 
Q 56.78125 27.484375 56.78125 20.515625 
Q 56.78125 9.90625 50.3125 4.234375 
Q 43.84375 -1.421875 31.78125 -1.421875 
Q 19.734375 -1.421875 13.25 4.234375 
Q 6.78125 9.90625 6.78125 20.515625 
Q 6.78125 27.484375 10.78125 32.3125 
Q 14.796875 37.15625 21.921875 38.8125 
z
M 18.3125 54.390625 
Q 18.3125 48.734375 21.84375 45.5625 
Q 25.390625 42.390625 31.78125 42.390625 
Q 38.140625 42.390625 41.71875 45.5625 
Q 45.3125 48.734375 45.3125 54.390625 
Q 45.3125 60.0625 41.71875 63.234375 
Q 38.140625 66.40625 31.78125 66.40625 
Q 25.390625 66.40625 21.84375 63.234375 
Q 18.3125 60.0625 18.3125 54.390625 
z
" id="DejaVuSans-38"/>
      </defs>
      <g transform="translate(30.55625 71.820056)scale(0.15 -0.15)">
       <use xlink:href="#DejaVuSans-30"/>
       <use x="63.623047" xlink:href="#DejaVuSans-2e"/>
       <use x="95.410156" xlink:href="#DejaVuSans-38"/>
      </g>
     </g>
    </g>
    <g id="ytick_6">
     <g id="line2d_21">
      <path clip-path="url(#p6365c98723)" d="M 61.410938 12.898828 
L 418.530938 12.898828 
" style="fill:none;stroke:#b0b0b0;stroke-linecap:square;stroke-width:0.8;"/>
     </g>
     <g id="line2d_22">
      <g>
       <use style="stroke:#000000;stroke-width:0.8;" x="61.410938" xlink:href="#m80fe7c6cb1" y="12.898828"/>
      </g>
     </g>
     <g id="text_12">
      <!-- 1.0 -->
      <g transform="translate(30.55625 18.597656)scale(0.15 -0.15)">
       <use xlink:href="#DejaVuSans-31"/>
       <use x="63.623047" xlink:href="#DejaVuSans-2e"/>
       <use x="95.410156" xlink:href="#DejaVuSans-30"/>
      </g>
     </g>
    </g>
    <g id="text_13">
     <!-- Survival -->
     <defs>
      <path d="M 53.515625 70.515625 
L 53.515625 60.890625 
Q 47.90625 63.578125 42.921875 64.890625 
Q 37.9375 66.21875 33.296875 66.21875 
Q 25.25 66.21875 20.875 63.09375 
Q 16.5 59.96875 16.5 54.203125 
Q 16.5 49.359375 19.40625 46.890625 
Q 22.3125 44.4375 30.421875 42.921875 
L 36.375 41.703125 
Q 47.40625 39.59375 52.65625 34.296875 
Q 57.90625 29 57.90625 20.125 
Q 57.90625 9.515625 50.796875 4.046875 
Q 43.703125 -1.421875 29.984375 -1.421875 
Q 24.8125 -1.421875 18.96875 -0.25 
Q 13.140625 0.921875 6.890625 3.21875 
L 6.890625 13.375 
Q 12.890625 10.015625 18.65625 8.296875 
Q 24.421875 6.59375 29.984375 6.59375 
Q 38.421875 6.59375 43.015625 9.90625 
Q 47.609375 13.234375 47.609375 19.390625 
Q 47.609375 24.75 44.3125 27.78125 
Q 41.015625 30.8125 33.5 32.328125 
L 27.484375 33.5 
Q 16.453125 35.6875 11.515625 40.375 
Q 6.59375 45.0625 6.59375 53.421875 
Q 6.59375 63.09375 13.40625 68.65625 
Q 20.21875 74.21875 32.171875 74.21875 
Q 37.3125 74.21875 42.625 73.28125 
Q 47.953125 72.359375 53.515625 70.515625 
z
" id="DejaVuSans-53"/>
      <path d="M 8.5 21.578125 
L 8.5 54.6875 
L 17.484375 54.6875 
L 17.484375 21.921875 
Q 17.484375 14.15625 20.5 10.265625 
Q 23.53125 6.390625 29.59375 6.390625 
Q 36.859375 6.390625 41.078125 11.03125 
Q 45.3125 15.671875 45.3125 23.6875 
L 45.3125 54.6875 
L 54.296875 54.6875 
L 54.296875 0 
L 45.3125 0 
L 45.3125 8.40625 
Q 42.046875 3.421875 37.71875 1 
Q 33.40625 -1.421875 27.6875 -1.421875 
Q 18.265625 -1.421875 13.375 4.4375 
Q 8.5 10.296875 8.5 21.578125 
z
M 31.109375 56 
z
" id="DejaVuSans-75"/>
      <path d="M 41.109375 46.296875 
Q 39.59375 47.171875 37.8125 47.578125 
Q 36.03125 48 33.890625 48 
Q 26.265625 48 22.1875 43.046875 
Q 18.109375 38.09375 18.109375 28.8125 
L 18.109375 0 
L 9.078125 0 
L 9.078125 54.6875 
L 18.109375 54.6875 
L 18.109375 46.1875 
Q 20.953125 51.171875 25.484375 53.578125 
Q 30.03125 56 36.53125 56 
Q 37.453125 56 38.578125 55.875 
Q 39.703125 55.765625 41.0625 55.515625 
z
" id="DejaVuSans-72"/>
      <path d="M 2.984375 54.6875 
L 12.5 54.6875 
L 29.59375 8.796875 
L 46.6875 54.6875 
L 56.203125 54.6875 
L 35.6875 0 
L 23.484375 0 
z
" id="DejaVuSans-76"/>
      <path d="M 34.28125 27.484375 
Q 23.390625 27.484375 19.1875 25 
Q 14.984375 22.515625 14.984375 16.5 
Q 14.984375 11.71875 18.140625 8.90625 
Q 21.296875 6.109375 26.703125 6.109375 
Q 34.1875 6.109375 38.703125 11.40625 
Q 43.21875 16.703125 43.21875 25.484375 
L 43.21875 27.484375 
z
M 52.203125 31.203125 
L 52.203125 0 
L 43.21875 0 
L 43.21875 8.296875 
Q 40.140625 3.328125 35.546875 0.953125 
Q 30.953125 -1.421875 24.3125 -1.421875 
Q 15.921875 -1.421875 10.953125 3.296875 
Q 6 8.015625 6 15.921875 
Q 6 25.140625 12.171875 29.828125 
Q 18.359375 34.515625 30.609375 34.515625 
L 43.21875 34.515625 
L 43.21875 35.40625 
Q 43.21875 41.609375 39.140625 45 
Q 35.0625 48.390625 27.6875 48.390625 
Q 23 48.390625 18.546875 47.265625 
Q 14.109375 46.140625 10.015625 43.890625 
L 10.015625 52.203125 
Q 14.9375 54.109375 19.578125 55.046875 
Q 24.21875 56 28.609375 56 
Q 40.484375 56 46.34375 49.84375 
Q 52.203125 43.703125 52.203125 31.203125 
z
" id="DejaVuSans-61"/>
      <path d="M 9.421875 75.984375 
L 18.40625 75.984375 
L 18.40625 0 
L 9.421875 0 
z
" id="DejaVuSans-6c"/>
     </defs>
     <g transform="translate(22.396875 186.273578)rotate(-90)scale(0.2 -0.2)">
      <use xlink:href="#DejaVuSans-53"/>
      <use x="63.476562" xlink:href="#DejaVuSans-75"/>
      <use x="126.855469" xlink:href="#DejaVuSans-72"/>
      <use x="167.96875" xlink:href="#DejaVuSans-76"/>
      <use x="227.148438" xlink:href="#DejaVuSans-69"/>
      <use x="254.931641" xlink:href="#DejaVuSans-76"/>
      <use x="314.111328" xlink:href="#DejaVuSans-61"/>
      <use x="375.390625" xlink:href="#DejaVuSans-6c"/>
     </g>
    </g>
   </g>
   <g id="LineCollection_1">
    <path clip-path="url(#p6365c98723)" d="M 61.410938 279.010828 
L 61.410938 278.099486 
" style="fill:none;stroke:#1f77b4;stroke-width:1.5;"/>
    <path clip-path="url(#p6365c98723)" d="M 81.250938 236.093716 
L 81.250938 223.886677 
" style="fill:none;stroke:#1f77b4;stroke-width:1.5;"/>
    <path clip-path="url(#p6365c98723)" d="M 101.090938 150.098363 
L 101.090938 134.341482 
" style="fill:none;stroke:#1f77b4;stroke-width:1.5;"/>
    <path clip-path="url(#p6365c98723)" d="M 120.930938 97.101336 
L 120.930938 82.55744 
" style="fill:none;stroke:#1f77b4;stroke-width:1.5;"/>
    <path clip-path="url(#p6365c98723)" d="M 140.770938 134.309284 
L 140.770938 118.321849 
" style="fill:none;stroke:#1f77b4;stroke-width:1.5;"/>
    <path clip-path="url(#p6365c98723)" d="M 160.610938 200.940176 
L 160.610938 185.869715 
" style="fill:none;stroke:#1f77b4;stroke-width:1.5;"/>
    <path clip-path="url(#p6365c98723)" d="M 180.450938 250.293912 
L 180.450938 239.468532 
" style="fill:none;stroke:#1f77b4;stroke-width:1.5;"/>
    <path clip-path="url(#p6365c98723)" d="M 200.290938 243.419939 
L 200.290938 231.916917 
" style="fill:none;stroke:#1f77b4;stroke-width:1.5;"/>
    <path clip-path="url(#p6365c98723)" d="M 220.130938 218.726654 
L 220.130938 204.787482 
" style="fill:none;stroke:#1f77b4;stroke-width:1.5;"/>
    <path clip-path="url(#p6365c98723)" d="M 239.970938 156.324535 
L 239.970938 139.726943 
" style="fill:none;stroke:#1f77b4;stroke-width:1.5;"/>
    <path clip-path="url(#p6365c98723)" d="M 259.810938 107.554298 
L 259.810938 92.907936 
" style="fill:none;stroke:#1f77b4;stroke-width:1.5;"/>
    <path clip-path="url(#p6365c98723)" d="M 279.650937 164.591876 
L 279.650937 148.326622 
" style="fill:none;stroke:#1f77b4;stroke-width:1.5;"/>
    <path clip-path="url(#p6365c98723)" d="M 299.490938 197.94315 
L 299.490938 182.986179 
" style="fill:none;stroke:#1f77b4;stroke-width:1.5;"/>
    <path clip-path="url(#p6365c98723)" d="M 319.330938 250.389343 
L 319.330938 239.945289 
" style="fill:none;stroke:#1f77b4;stroke-width:1.5;"/>
    <path clip-path="url(#p6365c98723)" d="M 339.170938 234.083618 
L 339.170938 221.513635 
" style="fill:none;stroke:#1f77b4;stroke-width:1.5;"/>
    <path clip-path="url(#p6365c98723)" d="M 359.010938 196.80411 
L 359.010938 181.518299 
" style="fill:none;stroke:#1f77b4;stroke-width:1.5;"/>
    <path clip-path="url(#p6365c98723)" d="M 378.850937 150.106738 
L 378.850937 133.888807 
" style="fill:none;stroke:#1f77b4;stroke-width:1.5;"/>
    <path clip-path="url(#p6365c98723)" d="M 398.690938 145.302664 
L 398.690938 128.511377 
" style="fill:none;stroke:#1f77b4;stroke-width:1.5;"/>
    <path clip-path="url(#p6365c98723)" d="M 418.530938 165.830321 
L 418.530938 150.187043 
" style="fill:none;stroke:#1f77b4;stroke-width:1.5;"/>
   </g>
   <g id="LineCollection_2">
    <path clip-path="url(#p6365c98723)" d="M 61.410938 278.391482 
L 61.410938 276.543028 
" style="fill:none;stroke:#d62728;stroke-width:1.5;"/>
    <path clip-path="url(#p6365c98723)" d="M 81.250938 256.470229 
L 81.250938 248.590562 
" style="fill:none;stroke:#d62728;stroke-width:1.5;"/>
    <path clip-path="url(#p6365c98723)" d="M 101.090938 216.713907 
L 101.090938 205.407321 
" style="fill:none;stroke:#d62728;stroke-width:1.5;"/>
    <path clip-path="url(#p6365c98723)" d="M 120.930938 217.968375 
L 120.930938 206.678202 
" style="fill:none;stroke:#d62728;stroke-width:1.5;"/>
    <path clip-path="url(#p6365c98723)" d="M 140.770938 218.922708 
L 140.770938 207.890948 
" style="fill:none;stroke:#d62728;stroke-width:1.5;"/>
    <path clip-path="url(#p6365c98723)" d="M 160.610938 248.763994 
L 160.610938 240.030435 
" style="fill:none;stroke:#d62728;stroke-width:1.5;"/>
    <path clip-path="url(#p6365c98723)" d="M 180.450938 250.333637 
L 180.450938 241.650398 
" style="fill:none;stroke:#d62728;stroke-width:1.5;"/>
    <path clip-path="url(#p6365c98723)" d="M 200.290938 232.552988 
L 200.290938 222.230036 
" style="fill:none;stroke:#d62728;stroke-width:1.5;"/>
    <path clip-path="url(#p6365c98723)" d="M 220.130938 229.090725 
L 220.130938 218.52955 
" style="fill:none;stroke:#d62728;stroke-width:1.5;"/>
    <path clip-path="url(#p6365c98723)" d="M 239.970938 236.966256 
L 239.970938 227.096424 
" style="fill:none;stroke:#d62728;stroke-width:1.5;"/>
    <path clip-path="url(#p6365c98723)" d="M 259.810938 220.999109 
L 259.810938 209.6356 
" style="fill:none;stroke:#d62728;stroke-width:1.5;"/>
    <path clip-path="url(#p6365c98723)" d="M 279.650937 241.622668 
L 279.650937 231.908429 
" style="fill:none;stroke:#d62728;stroke-width:1.5;"/>
    <path clip-path="url(#p6365c98723)" d="M 299.490938 236.865137 
L 299.490938 226.974362 
" style="fill:none;stroke:#d62728;stroke-width:1.5;"/>
    <path clip-path="url(#p6365c98723)" d="M 319.330938 227.726912 
L 319.330938 216.986716 
" style="fill:none;stroke:#d62728;stroke-width:1.5;"/>
    <path clip-path="url(#p6365c98723)" d="M 339.170938 242.364495 
L 339.170938 232.823279 
" style="fill:none;stroke:#d62728;stroke-width:1.5;"/>
    <path clip-path="url(#p6365c98723)" d="M 359.010938 231.434971 
L 359.010938 221.037455 
" style="fill:none;stroke:#d62728;stroke-width:1.5;"/>
    <path clip-path="url(#p6365c98723)" d="M 378.850938 243.337699 
L 378.850938 234.024712 
" style="fill:none;stroke:#d62728;stroke-width:1.5;"/>
   </g>
   <g id="line2d_23">
    <path clip-path="url(#p6365c98723)" d="M 61.410938 278.57076 
L 62.811408 278.569615 
L 64.211879 278.238454 
L 65.612349 276.397769 
L 67.01282 273.971329 
L 68.41329 272.354444 
L 69.813761 269.391845 
L 71.214232 265.653729 
L 72.614702 263.05986 
L 74.015173 259.250323 
L 75.415643 253.99391 
L 76.816114 249.658863 
L 79.617055 239.044054 
L 81.017526 232.091939 
L 85.218938 212.741802 
L 88.019879 198.778489 
L 89.420349 192.542428 
L 90.82082 184.22669 
L 92.22129 177.855902 
L 93.621761 169.845798 
L 95.022232 162.563663 
L 96.422702 155.888631 
L 97.823173 147.68144 
L 99.223643 140.210007 
L 106.225996 107.027721 
L 109.026938 95.558928 
L 110.427408 89.947611 
L 111.827879 85.814649 
L 113.228349 81.248534 
L 114.62882 75.524494 
L 116.02929 72.440205 
L 117.429761 68.993464 
L 120.230702 63.830568 
L 121.631173 61.686262 
L 123.031643 60.040081 
L 124.432114 58.593306 
L 127.233055 58.429097 
L 128.633526 58.628643 
L 130.033996 59.147 
L 131.434467 60.753897 
L 132.834938 62.56635 
L 134.235408 64.009781 
L 135.635879 66.517974 
L 137.036349 69.903513 
L 138.43682 73.659462 
L 139.83729 77.070634 
L 141.237761 81.38761 
L 145.439173 95.743974 
L 146.839643 102.591825 
L 148.240114 106.595871 
L 149.640585 112.244126 
L 151.041055 119.894578 
L 152.441526 125.373228 
L 156.642938 144.790145 
L 160.844349 165.242443 
L 162.24482 171.554981 
L 165.045761 186.141916 
L 167.846702 198.6996 
L 169.247173 205.414477 
L 170.647643 210.21066 
L 172.048114 215.836468 
L 174.849055 226.292871 
L 176.249526 231.557995 
L 177.649996 236.29698 
L 179.050467 240.252215 
L 180.450938 244.682199 
L 181.851408 247.854433 
L 184.652349 255.122054 
L 187.45329 259.053086 
L 188.853761 261.561196 
L 190.254232 262.230364 
L 191.654702 263.408983 
L 193.055173 263.827121 
L 194.455643 264.714633 
L 195.856114 263.78437 
L 197.256585 263.925837 
L 198.657055 262.270036 
L 200.057526 261.051913 
L 201.457996 258.43325 
L 202.858467 257.153614 
L 207.059879 248.221206 
L 209.86082 240.309424 
L 211.26129 237.098838 
L 212.661761 232.361968 
L 214.062232 226.975564 
L 215.462702 222.134296 
L 216.863173 216.357142 
L 218.263643 211.720331 
L 221.064585 201.095683 
L 228.066938 170.848857 
L 229.467408 166.039451 
L 230.867879 159.489306 
L 232.268349 153.762442 
L 233.66882 147.287921 
L 236.469761 135.957449 
L 237.870232 130.076866 
L 239.270702 125.456191 
L 240.671173 119.660695 
L 242.071643 114.420971 
L 244.872585 105.003779 
L 246.273055 101.96929 
L 247.673526 97.047762 
L 250.474467 89.522773 
L 251.874938 86.775656 
L 254.675879 80.743071 
L 258.87729 75.173134 
L 260.277761 74.576561 
L 261.678232 73.627138 
L 263.078702 74.441432 
L 264.479173 73.637913 
L 265.879643 74.566166 
L 267.280114 74.765305 
L 268.680585 75.95938 
L 270.081055 78.00561 
L 271.481526 79.090033 
L 274.282467 84.552142 
L 275.682938 87.72613 
L 277.083408 90.281397 
L 278.483879 94.471777 
L 279.884349 99.052139 
L 281.28482 102.307898 
L 282.68529 106.385548 
L 284.085761 111.66379 
L 285.486232 116.402767 
L 286.886702 122.206822 
L 288.287173 126.099405 
L 291.088114 138.131029 
L 292.488585 142.812281 
L 295.289526 155.084132 
L 296.689996 161.806843 
L 298.090467 166.33878 
L 299.490938 172.891186 
L 300.891408 178.752355 
L 302.291879 183.992806 
L 303.692349 191.0435 
L 305.09282 195.741124 
L 306.49329 200.899781 
L 307.893761 208.018357 
L 309.294232 212.759212 
L 310.694702 217.997318 
L 312.095173 222.273552 
L 313.495643 227.123675 
L 317.697055 239.998925 
L 319.097526 242.63472 
L 320.497996 246.527717 
L 326.099879 256.311889 
L 328.90082 258.520512 
L 330.30129 258.739294 
L 331.701761 258.487789 
L 333.102232 258.585959 
L 334.502702 258.350165 
L 335.903173 257.992313 
L 337.303643 255.876893 
L 338.704114 255.54855 
L 340.104585 252.318357 
L 341.505055 249.539465 
L 342.905526 247.364166 
L 345.706467 240.778083 
L 348.507408 233.035494 
L 349.907879 228.338966 
L 351.308349 224.252456 
L 354.10929 213.45831 
L 355.509761 209.662113 
L 356.910232 202.651541 
L 358.310702 197.369518 
L 365.313055 167.027597 
L 366.713526 161.234701 
L 368.113996 154.835859 
L 369.514467 149.388058 
L 372.315408 137.126151 
L 373.715879 132.508339 
L 375.116349 125.319301 
L 376.51682 119.123827 
L 377.91729 114.997672 
L 382.118702 99.886679 
L 384.919643 91.732865 
L 386.320114 89.598311 
L 387.720585 85.510499 
L 390.521526 79.840846 
L 391.921996 77.642155 
L 393.322467 76.074013 
L 396.123408 72.706267 
L 398.924349 72.293453 
L 400.32482 71.693697 
L 401.72529 74.15192 
L 403.125761 73.802208 
L 404.526232 75.200208 
L 405.926702 77.280349 
L 407.327173 79.063789 
L 410.128114 85.105562 
L 412.929055 91.922198 
L 414.329526 95.447012 
L 415.729996 99.919403 
L 417.130467 104.820248 
L 418.530938 109.143539 
L 418.530938 109.143539 
" style="fill:none;stroke:#1f77b4;stroke-linecap:square;stroke-width:1.5;"/>
   </g>
   <g id="line2d_24">
    <path clip-path="url(#p6365c98723)" d="M 61.410938 278.57076 
L 62.811408 278.569615 
L 64.211879 278.039654 
L 65.612349 276.900981 
L 67.01282 274.710097 
L 68.41329 271.180068 
L 69.813761 270.507341 
L 71.214232 266.79194 
L 72.614702 262.605418 
L 74.015173 258.045538 
L 75.415643 254.193505 
L 76.816114 249.376598 
L 78.216585 243.775061 
L 79.617055 238.710405 
L 81.017526 232.974367 
L 83.818467 220.802407 
L 86.619408 208.148169 
L 88.019879 201.031715 
L 89.420349 194.588413 
L 90.82082 186.897787 
L 92.22129 180.152853 
L 93.621761 172.644948 
L 97.823173 153.088766 
L 99.223643 147.065175 
L 102.024585 133.735949 
L 103.425055 127.478411 
L 104.825526 121.95195 
L 106.225996 117.538442 
L 107.626467 112.411537 
L 109.026938 108.267305 
L 110.427408 103.728537 
L 113.228349 95.664955 
L 114.62882 93.577806 
L 116.02929 91.054775 
L 117.429761 89.031091 
L 118.830232 87.898698 
L 120.230702 86.365482 
L 121.631173 85.171828 
L 123.031643 85.02457 
L 124.432114 85.320646 
L 125.832585 85.998922 
L 127.233055 87.437484 
L 130.033996 91.389903 
L 131.434467 93.681394 
L 132.834938 95.482354 
L 134.235408 99.002126 
L 135.635879 102.106849 
L 137.036349 107.01283 
L 139.83729 115.60906 
L 144.038702 130.994641 
L 145.439173 137.423243 
L 146.839643 140.995314 
L 148.240114 148.175473 
L 151.041055 159.724681 
L 152.441526 166.281078 
L 155.242467 178.264823 
L 156.642938 184.486561 
L 160.844349 200.682487 
L 162.24482 206.69797 
L 163.64529 211.60827 
L 165.045761 217.028151 
L 166.446232 220.901629 
L 169.247173 231.307052 
L 170.647643 235.0254 
L 172.048114 239.511107 
L 173.448585 242.017149 
L 174.849055 246.200104 
L 176.249526 247.848858 
L 177.649996 251.005826 
L 179.050467 252.91546 
L 180.450938 254.481005 
L 181.851408 256.440945 
L 184.652349 257.270685 
L 186.05282 258.242417 
L 187.45329 257.600908 
L 188.853761 257.800704 
L 190.254232 256.331744 
L 191.654702 255.150555 
L 193.055173 253.757085 
L 194.455643 252.941966 
L 195.856114 250.303776 
L 197.256585 249.02114 
L 198.657055 245.339843 
L 200.057526 242.970811 
L 202.858467 235.46972 
L 205.659408 228.718797 
L 207.059879 224.494453 
L 208.460349 220.623243 
L 209.86082 215.285354 
L 214.062232 201.862044 
L 215.462702 197.256141 
L 218.263643 186.602019 
L 219.664114 183.103842 
L 221.064585 177.651442 
L 222.465055 173.206226 
L 223.865526 167.456755 
L 225.265996 163.677278 
L 226.666467 160.358382 
L 228.066938 155.102388 
L 229.467408 151.655272 
L 230.867879 146.340687 
L 232.268349 142.72166 
L 233.66882 138.08493 
L 236.469761 131.756889 
L 239.270702 125.558535 
L 240.671173 122.809102 
L 246.273055 115.015797 
L 247.673526 113.884075 
L 249.073996 114.238795 
L 250.474467 112.523144 
L 251.874938 112.402236 
L 253.275408 111.801222 
L 254.675879 112.327831 
L 256.076349 113.263354 
L 257.47682 113.281761 
L 258.87729 114.566713 
L 260.277761 115.496361 
L 261.678232 116.935718 
L 263.078702 119.080302 
L 264.479173 120.79171 
L 265.879643 123.557113 
L 267.280114 125.888837 
L 271.481526 134.406114 
L 274.282467 141.181127 
L 275.682938 144.280975 
L 277.083408 147.926461 
L 279.884349 156.532212 
L 281.28482 159.290143 
L 282.68529 164.088404 
L 284.085761 168.329497 
L 285.486232 173.007063 
L 288.287173 180.959529 
L 289.687643 184.564522 
L 291.088114 188.618848 
L 293.889055 197.866672 
L 295.289526 201.540749 
L 296.689996 204.757101 
L 298.090467 208.425017 
L 300.891408 215.015058 
L 302.291879 219.028415 
L 303.692349 221.187759 
L 305.09282 223.842279 
L 306.49329 227.236034 
L 307.893761 228.776306 
L 309.294232 231.01607 
L 310.694702 232.96881 
L 312.095173 235.760362 
L 313.495643 236.4678 
L 314.896114 237.998819 
L 316.296585 238.370549 
L 317.697055 238.041473 
L 319.097526 240.528385 
L 320.497996 238.671201 
L 321.898467 240.20772 
L 323.298938 238.8278 
L 324.699408 238.199903 
L 326.099879 238.254744 
L 327.500349 236.787131 
L 328.90082 234.328711 
L 330.30129 233.738585 
L 331.701761 231.334155 
L 333.102232 229.281964 
L 335.903173 224.71164 
L 337.303643 222.851903 
L 338.704114 219.275411 
L 340.104585 216.991902 
L 341.505055 212.341372 
L 342.905526 209.496446 
L 344.305996 205.204889 
L 345.706467 202.24002 
L 347.106938 198.172973 
L 348.507408 195.524109 
L 349.907879 190.02234 
L 351.308349 187.350799 
L 355.509761 175.657849 
L 356.910232 170.877826 
L 358.310702 167.06366 
L 359.711173 164.358882 
L 361.111643 159.677606 
L 362.512114 156.201331 
L 363.912585 153.948647 
L 365.313055 150.274205 
L 366.713526 146.187835 
L 369.514467 140.552768 
L 370.914938 138.396097 
L 372.315408 134.691511 
L 373.715879 132.43702 
L 375.116349 131.35889 
L 376.51682 128.779425 
L 377.91729 127.257521 
L 379.317761 126.338006 
L 380.718232 124.23593 
L 382.118702 123.6741 
L 383.519173 122.652683 
L 384.919643 122.024163 
L 387.720585 122.330011 
L 389.121055 122.83024 
L 390.521526 124.481826 
L 391.921996 123.812287 
L 393.322467 125.340042 
L 394.722938 126.128306 
L 396.123408 128.264691 
L 397.523879 129.944332 
L 398.924349 132.147783 
L 400.32482 133.410857 
L 401.72529 135.486854 
L 403.125761 138.729413 
L 405.926702 144.176145 
L 407.327173 147.016913 
L 408.727643 151.032595 
L 410.128114 153.99246 
L 411.528585 156.034073 
L 412.929055 160.452532 
L 414.329526 163.331066 
L 415.729996 168.019349 
L 418.530938 174.614302 
L 418.530938 174.614302 
" style="fill:none;stroke:#2ca02c;stroke-linecap:square;stroke-width:1.5;"/>
   </g>
   <g id="line2d_25">
    <path clip-path="url(#p6365c98723)" d="M 61.410938 278.534519 
L 62.6558 278.534519 
L 63.900663 278.53328 
L 65.145526 277.397792 
L 66.390388 276.833443 
L 67.635251 276.573113 
L 70.124977 272.895232 
L 72.614702 270.535181 
L 73.859565 266.854112 
L 75.104428 265.804804 
L 76.34929 263.128649 
L 77.594153 260.919928 
L 78.839016 257.276353 
L 80.083879 255.502821 
L 81.328741 251.933694 
L 82.573604 250.307664 
L 83.818467 245.461737 
L 85.06333 242.96262 
L 86.308192 240.00281 
L 87.553055 237.539417 
L 90.042781 230.784743 
L 91.287643 226.929442 
L 92.532506 224.357253 
L 95.022232 218.450058 
L 96.267094 214.01859 
L 97.511957 211.810898 
L 98.75682 208.450009 
L 100.001683 206.520238 
L 101.246545 204.038399 
L 103.736271 197.981202 
L 106.225996 193.581445 
L 107.470859 192.047311 
L 109.960585 188.380291 
L 111.205447 187.786318 
L 112.45031 185.388381 
L 113.695173 184.658346 
L 116.184898 181.913287 
L 117.429761 181.856071 
L 118.674624 181.292817 
L 121.164349 179.218806 
L 122.409212 180.97133 
L 123.654075 180.560314 
L 124.898938 180.73937 
L 126.1438 180.66205 
L 127.388663 181.04458 
L 128.633526 181.995024 
L 129.878388 182.056327 
L 131.123251 181.471874 
L 132.368114 184.439875 
L 133.612977 184.505829 
L 134.857839 183.848385 
L 138.592428 188.531289 
L 139.83729 188.426429 
L 142.327016 190.40492 
L 143.571879 191.664499 
L 144.816741 194.141454 
L 146.061604 194.184532 
L 147.306467 195.055613 
L 148.55133 196.476665 
L 149.796192 196.878925 
L 152.285918 198.944384 
L 153.530781 200.392591 
L 154.775643 201.519394 
L 156.020506 202.248968 
L 157.265369 203.161672 
L 158.510232 203.395032 
L 159.755094 204.900497 
L 160.999957 204.595582 
L 162.24482 205.371723 
L 163.489683 205.18603 
L 164.734545 205.688938 
L 165.979408 205.833552 
L 167.224271 206.907477 
L 168.469134 207.095915 
L 169.713996 207.985019 
L 170.958859 207.909271 
L 172.203722 207.691495 
L 173.448585 207.312618 
L 174.693447 207.734103 
L 175.93831 207.909271 
L 177.183173 207.838257 
L 179.672898 207.918739 
L 180.917761 207.516327 
L 182.162624 208.321547 
L 184.652349 206.740567 
L 185.897212 207.535264 
L 187.142075 206.796821 
L 188.386938 206.253401 
L 189.6318 206.883923 
L 190.876663 206.412417 
L 192.121526 204.803478 
L 193.366388 206.463984 
L 194.611251 205.111752 
L 195.856114 205.436716 
L 197.100977 205.357796 
L 198.345839 204.392422 
L 199.590702 205.571344 
L 200.835565 204.74804 
L 202.080428 205.209241 
L 203.32529 204.835818 
L 204.570153 205.40422 
L 205.815016 205.227811 
L 207.059879 204.789619 
L 208.304741 205.153533 
L 209.549604 205.782237 
L 210.794467 205.637623 
L 212.03933 204.424646 
L 213.284192 205.786902 
L 214.529055 205.819557 
L 215.773918 207.081782 
L 217.018781 205.884867 
L 218.263643 205.735588 
L 219.508506 207.067649 
L 220.753369 206.150771 
L 221.998232 207.634684 
L 223.243094 207.800383 
L 225.73282 209.168291 
L 226.977683 208.488071 
L 228.222545 209.115694 
L 229.467408 210.124312 
L 230.712271 209.807291 
L 231.957134 210.643583 
L 233.201996 210.536786 
L 234.446859 211.012018 
L 235.691722 211.938408 
L 238.181447 211.516646 
L 239.42631 211.972737 
L 240.671173 212.56379 
L 241.916036 213.32107 
L 243.160898 212.544072 
L 244.405761 213.071776 
L 245.650624 213.171645 
L 246.895487 213.873389 
L 248.140349 214.431522 
L 249.385212 214.698285 
L 250.630075 214.223873 
L 251.874938 214.678152 
L 253.1198 214.431522 
L 254.364663 213.778258 
L 255.609526 213.873389 
L 256.854388 214.386223 
L 258.099251 214.451655 
L 259.344114 213.545208 
L 260.588977 213.450572 
L 261.833839 214.38119 
L 263.078702 213.176626 
L 264.323565 213.31609 
L 265.568428 212.598296 
L 266.81329 212.484918 
L 268.058153 213.813306 
L 269.303016 212.085629 
L 270.547879 212.544072 
L 274.282467 210.972984 
L 275.52733 211.649059 
L 276.772192 209.964925 
L 278.017055 209.408424 
L 279.261918 209.744818 
L 280.506781 209.56701 
L 282.996506 208.321547 
L 284.241369 208.497587 
L 285.486232 208.809671 
L 286.731094 208.809671 
L 287.975957 207.743572 
L 289.22082 207.36915 
L 290.465683 208.093172 
L 291.710545 207.232532 
L 292.955408 206.698376 
L 294.200271 205.838217 
L 295.445134 206.459296 
L 296.689996 205.529563 
L 297.934859 206.670249 
L 299.179722 205.670278 
L 300.424585 206.066801 
L 302.91431 206.108786 
L 304.159173 205.735588 
L 305.404036 205.506351 
L 306.648898 206.024817 
L 307.893761 205.343869 
L 310.383487 206.113451 
L 311.628349 204.771139 
L 312.873212 206.104121 
L 314.118075 206.431169 
L 315.362938 205.950177 
L 316.6078 207.044095 
L 317.852663 206.538989 
L 320.342388 208.09793 
L 321.587251 207.682026 
L 322.832114 207.56367 
L 324.076977 207.658355 
L 325.321839 208.714039 
L 326.566702 207.847726 
L 327.811565 208.188329 
L 329.056428 207.880865 
L 330.30129 208.221633 
L 332.791016 208.14075 
L 334.035879 209.504536 
L 335.280741 208.51186 
L 336.525604 208.013425 
L 337.770467 209.56701 
L 339.01533 210.182271 
L 340.260192 210.177441 
L 341.505055 211.629442 
L 342.749918 209.863497 
L 343.994781 210.677564 
L 345.239643 211.192548 
L 346.484506 211.536262 
L 347.729369 210.755234 
L 348.974232 211.402353 
L 350.219094 210.439697 
L 351.463957 210.760089 
L 352.70882 210.463969 
L 355.198545 210.45426 
L 356.443408 212.618014 
L 357.688271 211.531358 
L 358.933134 210.119482 
L 360.177996 210.721254 
L 361.422859 211.509695 
L 362.667722 211.129118 
L 363.912585 211.61473 
L 365.157447 210.312678 
L 366.40231 209.955265 
L 367.647173 211.041293 
L 368.892036 210.740671 
L 370.136898 210.129142 
L 371.381761 210.531931 
L 373.871487 210.25472 
L 375.116349 210.512513 
L 376.361212 210.375467 
L 377.606075 209.682345 
L 378.850938 210.45426 
L 378.850938 210.45426 
" style="fill:none;stroke:#d62728;stroke-linecap:square;stroke-width:1.5;"/>
   </g>
   <g id="line2d_26">
    <defs>
     <path d="M 0 3 
C 0.795609 3 1.55874 2.683901 2.12132 2.12132 
C 2.683901 1.55874 3 0.795609 3 0 
C 3 -0.795609 2.683901 -1.55874 2.12132 -2.12132 
C 1.55874 -2.683901 0.795609 -3 0 -3 
C -0.795609 -3 -1.55874 -2.683901 -2.12132 -2.12132 
C -2.683901 -1.55874 -3 -0.795609 -3 0 
C -3 0.795609 -2.683901 1.55874 -2.12132 2.12132 
C -1.55874 2.683901 -0.795609 3 0 3 
z
" id="mfccd942f1d" style="stroke:#1f77b4;"/>
    </defs>
    <g clip-path="url(#p6365c98723)">
     <use style="fill:#1f77b4;stroke:#1f77b4;" x="61.410938" xlink:href="#mfccd942f1d" y="278.555157"/>
     <use style="fill:#1f77b4;stroke:#1f77b4;" x="81.250938" xlink:href="#mfccd942f1d" y="229.990197"/>
     <use style="fill:#1f77b4;stroke:#1f77b4;" x="101.090938" xlink:href="#mfccd942f1d" y="142.219923"/>
     <use style="fill:#1f77b4;stroke:#1f77b4;" x="120.930938" xlink:href="#mfccd942f1d" y="89.829388"/>
     <use style="fill:#1f77b4;stroke:#1f77b4;" x="140.770938" xlink:href="#mfccd942f1d" y="126.315566"/>
     <use style="fill:#1f77b4;stroke:#1f77b4;" x="160.610938" xlink:href="#mfccd942f1d" y="193.404946"/>
     <use style="fill:#1f77b4;stroke:#1f77b4;" x="180.450938" xlink:href="#mfccd942f1d" y="244.881222"/>
     <use style="fill:#1f77b4;stroke:#1f77b4;" x="200.290938" xlink:href="#mfccd942f1d" y="237.668428"/>
     <use style="fill:#1f77b4;stroke:#1f77b4;" x="220.130938" xlink:href="#mfccd942f1d" y="211.757068"/>
     <use style="fill:#1f77b4;stroke:#1f77b4;" x="239.970938" xlink:href="#mfccd942f1d" y="148.025739"/>
     <use style="fill:#1f77b4;stroke:#1f77b4;" x="259.810938" xlink:href="#mfccd942f1d" y="100.231117"/>
     <use style="fill:#1f77b4;stroke:#1f77b4;" x="279.650937" xlink:href="#mfccd942f1d" y="156.459249"/>
     <use style="fill:#1f77b4;stroke:#1f77b4;" x="299.490938" xlink:href="#mfccd942f1d" y="190.464664"/>
     <use style="fill:#1f77b4;stroke:#1f77b4;" x="319.330938" xlink:href="#mfccd942f1d" y="245.167316"/>
     <use style="fill:#1f77b4;stroke:#1f77b4;" x="339.170938" xlink:href="#mfccd942f1d" y="227.798627"/>
     <use style="fill:#1f77b4;stroke:#1f77b4;" x="359.010938" xlink:href="#mfccd942f1d" y="189.161205"/>
     <use style="fill:#1f77b4;stroke:#1f77b4;" x="378.850937" xlink:href="#mfccd942f1d" y="141.997772"/>
     <use style="fill:#1f77b4;stroke:#1f77b4;" x="398.690938" xlink:href="#mfccd942f1d" y="136.90702"/>
     <use style="fill:#1f77b4;stroke:#1f77b4;" x="418.530938" xlink:href="#mfccd942f1d" y="158.008682"/>
    </g>
   </g>
   <g id="line2d_27">
    <defs>
     <path d="M 0 3 
C 0.795609 3 1.55874 2.683901 2.12132 2.12132 
C 2.683901 1.55874 3 0.795609 3 0 
C 3 -0.795609 2.683901 -1.55874 2.12132 -2.12132 
C 1.55874 -2.683901 0.795609 -3 0 -3 
C -0.795609 -3 -1.55874 -2.683901 -2.12132 -2.12132 
C -2.683901 -1.55874 -3 -0.795609 -3 0 
C -3 0.795609 -2.683901 1.55874 -2.12132 2.12132 
C -1.55874 2.683901 -0.795609 3 0 3 
z
" id="ma57c4f76de" style="stroke:#d62728;"/>
    </defs>
    <g clip-path="url(#p6365c98723)">
     <use style="fill:#d62728;stroke:#d62728;" x="61.410938" xlink:href="#ma57c4f76de" y="277.467255"/>
     <use style="fill:#d62728;stroke:#d62728;" x="81.250938" xlink:href="#ma57c4f76de" y="252.530396"/>
     <use style="fill:#d62728;stroke:#d62728;" x="101.090938" xlink:href="#ma57c4f76de" y="211.060614"/>
     <use style="fill:#d62728;stroke:#d62728;" x="120.930938" xlink:href="#ma57c4f76de" y="212.323289"/>
     <use style="fill:#d62728;stroke:#d62728;" x="140.770938" xlink:href="#ma57c4f76de" y="213.406828"/>
     <use style="fill:#d62728;stroke:#d62728;" x="160.610938" xlink:href="#ma57c4f76de" y="244.397215"/>
     <use style="fill:#d62728;stroke:#d62728;" x="180.450938" xlink:href="#ma57c4f76de" y="245.992017"/>
     <use style="fill:#d62728;stroke:#d62728;" x="200.290938" xlink:href="#ma57c4f76de" y="227.391512"/>
     <use style="fill:#d62728;stroke:#d62728;" x="220.130938" xlink:href="#ma57c4f76de" y="223.810137"/>
     <use style="fill:#d62728;stroke:#d62728;" x="239.970938" xlink:href="#ma57c4f76de" y="232.03134"/>
     <use style="fill:#d62728;stroke:#d62728;" x="259.810938" xlink:href="#ma57c4f76de" y="215.317354"/>
     <use style="fill:#d62728;stroke:#d62728;" x="279.650937" xlink:href="#ma57c4f76de" y="236.765548"/>
     <use style="fill:#d62728;stroke:#d62728;" x="299.490938" xlink:href="#ma57c4f76de" y="231.91975"/>
     <use style="fill:#d62728;stroke:#d62728;" x="319.330938" xlink:href="#ma57c4f76de" y="222.356814"/>
     <use style="fill:#d62728;stroke:#d62728;" x="339.170938" xlink:href="#ma57c4f76de" y="237.593887"/>
     <use style="fill:#d62728;stroke:#d62728;" x="359.010938" xlink:href="#ma57c4f76de" y="226.236213"/>
     <use style="fill:#d62728;stroke:#d62728;" x="378.850938" xlink:href="#ma57c4f76de" y="238.681205"/>
    </g>
   </g>
   <g id="patch_3">
    <path d="M 61.410938 279.010828 
L 61.410938 12.898828 
" style="fill:none;stroke:#000000;stroke-linecap:square;stroke-linejoin:miter;stroke-width:0.8;"/>
   </g>
   <g id="patch_4">
    <path d="M 418.530938 279.010828 
L 418.530938 12.898828 
" style="fill:none;stroke:#000000;stroke-linecap:square;stroke-linejoin:miter;stroke-width:0.8;"/>
   </g>
   <g id="patch_5">
    <path d="M 61.410938 279.010828 
L 418.530938 279.010828 
" style="fill:none;stroke:#000000;stroke-linecap:square;stroke-linejoin:miter;stroke-width:0.8;"/>
   </g>
   <g id="patch_6">
    <path d="M 61.410938 12.898828 
L 418.530938 12.898828 
" style="fill:none;stroke:#000000;stroke-linecap:square;stroke-linejoin:miter;stroke-width:0.8;"/>
   </g>
   <g id="text_14">
    <!-- (D) -->
    <defs>
     <path d="M 19.671875 64.796875 
L 19.671875 8.109375 
L 31.59375 8.109375 
Q 46.6875 8.109375 53.6875 14.9375 
Q 60.6875 21.78125 60.6875 36.53125 
Q 60.6875 51.171875 53.6875 57.984375 
Q 46.6875 64.796875 31.59375 64.796875 
z
M 9.8125 72.90625 
L 30.078125 72.90625 
Q 51.265625 72.90625 61.171875 64.09375 
Q 71.09375 55.28125 71.09375 36.53125 
Q 71.09375 17.671875 61.125 8.828125 
Q 51.171875 0 30.078125 0 
L 9.8125 0 
z
" id="DejaVuSans-44"/>
    </defs>
    <g transform="translate(77.282938 39.510028)scale(0.2 -0.2)">
     <use xlink:href="#DejaVuSans-28"/>
     <use x="39.013672" xlink:href="#DejaVuSans-44"/>
     <use x="116.015625" xlink:href="#DejaVuSans-29"/>
    </g>
   </g>
  </g>
 </g>
 <defs>
  <clipPath id="p6365c98723">
   <rect height="266.112" width="357.12" x="61.410938" y="12.898828"/>
  </clipPath>
 </defs>
</svg>
