<?xml version="1.0" encoding="utf-8" standalone="no"?>
<!DOCTYPE svg PUBLIC "-//W3C//DTD SVG 1.1//EN"
  "http://www.w3.org/Graphics/SVG/1.1/DTD/svg11.dtd">
<!-- Created with matplotlib (http://matplotlib.org/) -->
<svg height="331pt" version="1.1" viewBox="0 0 435 331" width="435pt" xmlns="http://www.w3.org/2000/svg" xmlns:xlink="http://www.w3.org/1999/xlink">
 <defs>
  <style type="text/css">
*{stroke-linecap:butt;stroke-linejoin:round;}
  </style>
 </defs>
 <g id="figure_1">
  <g id="patch_1">
   <path d="M 0 331.128016 
L 435.274687 331.128016 
L 435.274687 0 
L 0 0 
z
" style="fill:none;"/>
  </g>
  <g id="axes_1">
   <g id="patch_2">
    <path d="M 61.410938 279.010828 
L 418.530938 279.010828 
L 418.530938 12.898828 
L 61.410938 12.898828 
z
" style="fill:none;"/>
   </g>
   <g id="matplotlib.axis_1">
    <g id="xtick_1">
     <g id="line2d_1">
      <path clip-path="url(#pe418aaad8c)" d="M 61.410938 279.010828 
L 61.410938 12.898828 
" style="fill:none;stroke:#b0b0b0;stroke-linecap:square;stroke-width:0.8;"/>
     </g>
     <g id="line2d_2">
      <defs>
       <path d="M 0 0 
L 0 3.5 
" id="m0480467677" style="stroke:#000000;stroke-width:0.8;"/>
      </defs>
      <g>
       <use style="stroke:#000000;stroke-width:0.8;" x="61.410938" xlink:href="#m0480467677" y="279.010828"/>
      </g>
     </g>
     <g id="text_1">
      <!-- 0 -->
      <defs>
       <path d="M 31.78125 66.40625 
Q 24.171875 66.40625 20.328125 58.90625 
Q 16.5 51.421875 16.5 36.375 
Q 16.5 21.390625 20.328125 13.890625 
Q 24.171875 6.390625 31.78125 6.390625 
Q 39.453125 6.390625 43.28125 13.890625 
Q 47.125 21.390625 47.125 36.375 
Q 47.125 51.421875 43.28125 58.90625 
Q 39.453125 66.40625 31.78125 66.40625 
z
M 31.78125 74.21875 
Q 44.046875 74.21875 50.515625 64.515625 
Q 56.984375 54.828125 56.984375 36.375 
Q 56.984375 17.96875 50.515625 8.265625 
Q 44.046875 -1.421875 31.78125 -1.421875 
Q 19.53125 -1.421875 13.0625 8.265625 
Q 6.59375 17.96875 6.59375 36.375 
Q 6.59375 54.828125 13.0625 64.515625 
Q 19.53125 74.21875 31.78125 74.21875 
z
" id="DejaVuSans-30"/>
      </defs>
      <g transform="translate(56.639063 297.408484)scale(0.15 -0.15)">
       <use xlink:href="#DejaVuSans-30"/>
      </g>
     </g>
    </g>
    <g id="xtick_2">
     <g id="line2d_3">
      <path clip-path="url(#pe418aaad8c)" d="M 150.690938 279.010828 
L 150.690938 12.898828 
" style="fill:none;stroke:#b0b0b0;stroke-linecap:square;stroke-width:0.8;"/>
     </g>
     <g id="line2d_4">
      <g>
       <use style="stroke:#000000;stroke-width:0.8;" x="150.690938" xlink:href="#m0480467677" y="279.010828"/>
      </g>
     </g>
     <g id="text_2">
      <!-- 20 -->
      <defs>
       <path d="M 19.1875 8.296875 
L 53.609375 8.296875 
L 53.609375 0 
L 7.328125 0 
L 7.328125 8.296875 
Q 12.9375 14.109375 22.625 23.890625 
Q 32.328125 33.6875 34.8125 36.53125 
Q 39.546875 41.84375 41.421875 45.53125 
Q 43.3125 49.21875 43.3125 52.78125 
Q 43.3125 58.59375 39.234375 62.25 
Q 35.15625 65.921875 28.609375 65.921875 
Q 23.96875 65.921875 18.8125 64.3125 
Q 13.671875 62.703125 7.8125 59.421875 
L 7.8125 69.390625 
Q 13.765625 71.78125 18.9375 73 
Q 24.125 74.21875 28.421875 74.21875 
Q 39.75 74.21875 46.484375 68.546875 
Q 53.21875 62.890625 53.21875 53.421875 
Q 53.21875 48.921875 51.53125 44.890625 
Q 49.859375 40.875 45.40625 35.40625 
Q 44.1875 33.984375 37.640625 27.21875 
Q 31.109375 20.453125 19.1875 8.296875 
z
" id="DejaVuSans-32"/>
      </defs>
      <g transform="translate(141.147188 297.408484)scale(0.15 -0.15)">
       <use xlink:href="#DejaVuSans-32"/>
       <use x="63.623047" xlink:href="#DejaVuSans-30"/>
      </g>
     </g>
    </g>
    <g id="xtick_3">
     <g id="line2d_5">
      <path clip-path="url(#pe418aaad8c)" d="M 239.970938 279.010828 
L 239.970938 12.898828 
" style="fill:none;stroke:#b0b0b0;stroke-linecap:square;stroke-width:0.8;"/>
     </g>
     <g id="line2d_6">
      <g>
       <use style="stroke:#000000;stroke-width:0.8;" x="239.970938" xlink:href="#m0480467677" y="279.010828"/>
      </g>
     </g>
     <g id="text_3">
      <!-- 40 -->
      <defs>
       <path d="M 37.796875 64.3125 
L 12.890625 25.390625 
L 37.796875 25.390625 
z
M 35.203125 72.90625 
L 47.609375 72.90625 
L 47.609375 25.390625 
L 58.015625 25.390625 
L 58.015625 17.1875 
L 47.609375 17.1875 
L 47.609375 0 
L 37.796875 0 
L 37.796875 17.1875 
L 4.890625 17.1875 
L 4.890625 26.703125 
z
" id="DejaVuSans-34"/>
      </defs>
      <g transform="translate(230.427188 297.408484)scale(0.15 -0.15)">
       <use xlink:href="#DejaVuSans-34"/>
       <use x="63.623047" xlink:href="#DejaVuSans-30"/>
      </g>
     </g>
    </g>
    <g id="xtick_4">
     <g id="line2d_7">
      <path clip-path="url(#pe418aaad8c)" d="M 329.250938 279.010828 
L 329.250938 12.898828 
" style="fill:none;stroke:#b0b0b0;stroke-linecap:square;stroke-width:0.8;"/>
     </g>
     <g id="line2d_8">
      <g>
       <use style="stroke:#000000;stroke-width:0.8;" x="329.250938" xlink:href="#m0480467677" y="279.010828"/>
      </g>
     </g>
     <g id="text_4">
      <!-- 60 -->
      <defs>
       <path d="M 33.015625 40.375 
Q 26.375 40.375 22.484375 35.828125 
Q 18.609375 31.296875 18.609375 23.390625 
Q 18.609375 15.53125 22.484375 10.953125 
Q 26.375 6.390625 33.015625 6.390625 
Q 39.65625 6.390625 43.53125 10.953125 
Q 47.40625 15.53125 47.40625 23.390625 
Q 47.40625 31.296875 43.53125 35.828125 
Q 39.65625 40.375 33.015625 40.375 
z
M 52.59375 71.296875 
L 52.59375 62.3125 
Q 48.875 64.0625 45.09375 64.984375 
Q 41.3125 65.921875 37.59375 65.921875 
Q 27.828125 65.921875 22.671875 59.328125 
Q 17.53125 52.734375 16.796875 39.40625 
Q 19.671875 43.65625 24.015625 45.921875 
Q 28.375 48.1875 33.59375 48.1875 
Q 44.578125 48.1875 50.953125 41.515625 
Q 57.328125 34.859375 57.328125 23.390625 
Q 57.328125 12.15625 50.6875 5.359375 
Q 44.046875 -1.421875 33.015625 -1.421875 
Q 20.359375 -1.421875 13.671875 8.265625 
Q 6.984375 17.96875 6.984375 36.375 
Q 6.984375 53.65625 15.1875 63.9375 
Q 23.390625 74.21875 37.203125 74.21875 
Q 40.921875 74.21875 44.703125 73.484375 
Q 48.484375 72.75 52.59375 71.296875 
z
" id="DejaVuSans-36"/>
      </defs>
      <g transform="translate(319.707188 297.408484)scale(0.15 -0.15)">
       <use xlink:href="#DejaVuSans-36"/>
       <use x="63.623047" xlink:href="#DejaVuSans-30"/>
      </g>
     </g>
    </g>
    <g id="xtick_5">
     <g id="line2d_9">
      <path clip-path="url(#pe418aaad8c)" d="M 418.530938 279.010828 
L 418.530938 12.898828 
" style="fill:none;stroke:#b0b0b0;stroke-linecap:square;stroke-width:0.8;"/>
     </g>
     <g id="line2d_10">
      <g>
       <use style="stroke:#000000;stroke-width:0.8;" x="418.530938" xlink:href="#m0480467677" y="279.010828"/>
      </g>
     </g>
     <g id="text_5">
      <!-- 80 -->
      <defs>
       <path d="M 31.78125 34.625 
Q 24.75 34.625 20.71875 30.859375 
Q 16.703125 27.09375 16.703125 20.515625 
Q 16.703125 13.921875 20.71875 10.15625 
Q 24.75 6.390625 31.78125 6.390625 
Q 38.8125 6.390625 42.859375 10.171875 
Q 46.921875 13.96875 46.921875 20.515625 
Q 46.921875 27.09375 42.890625 30.859375 
Q 38.875 34.625 31.78125 34.625 
z
M 21.921875 38.8125 
Q 15.578125 40.375 12.03125 44.71875 
Q 8.5 49.078125 8.5 55.328125 
Q 8.5 64.0625 14.71875 69.140625 
Q 20.953125 74.21875 31.78125 74.21875 
Q 42.671875 74.21875 48.875 69.140625 
Q 55.078125 64.0625 55.078125 55.328125 
Q 55.078125 49.078125 51.53125 44.71875 
Q 48 40.375 41.703125 38.8125 
Q 48.828125 37.15625 52.796875 32.3125 
Q 56.78125 27.484375 56.78125 20.515625 
Q 56.78125 9.90625 50.3125 4.234375 
Q 43.84375 -1.421875 31.78125 -1.421875 
Q 19.734375 -1.421875 13.25 4.234375 
Q 6.78125 9.90625 6.78125 20.515625 
Q 6.78125 27.484375 10.78125 32.3125 
Q 14.796875 37.15625 21.921875 38.8125 
z
M 18.3125 54.390625 
Q 18.3125 48.734375 21.84375 45.5625 
Q 25.390625 42.390625 31.78125 42.390625 
Q 38.140625 42.390625 41.71875 45.5625 
Q 45.3125 48.734375 45.3125 54.390625 
Q 45.3125 60.0625 41.71875 63.234375 
Q 38.140625 66.40625 31.78125 66.40625 
Q 25.390625 66.40625 21.84375 63.234375 
Q 18.3125 60.0625 18.3125 54.390625 
z
" id="DejaVuSans-38"/>
      </defs>
      <g transform="translate(408.987188 297.408484)scale(0.15 -0.15)">
       <use xlink:href="#DejaVuSans-38"/>
       <use x="63.623047" xlink:href="#DejaVuSans-30"/>
      </g>
     </g>
    </g>
    <g id="text_6">
     <!-- Time ($\mu s$) -->
     <defs>
      <path d="M -0.296875 72.90625 
L 61.375 72.90625 
L 61.375 64.59375 
L 35.5 64.59375 
L 35.5 0 
L 25.59375 0 
L 25.59375 64.59375 
L -0.296875 64.59375 
z
" id="DejaVuSans-54"/>
      <path d="M 9.421875 54.6875 
L 18.40625 54.6875 
L 18.40625 0 
L 9.421875 0 
z
M 9.421875 75.984375 
L 18.40625 75.984375 
L 18.40625 64.59375 
L 9.421875 64.59375 
z
" id="DejaVuSans-69"/>
      <path d="M 52 44.1875 
Q 55.375 50.25 60.0625 53.125 
Q 64.75 56 71.09375 56 
Q 79.640625 56 84.28125 50.015625 
Q 88.921875 44.046875 88.921875 33.015625 
L 88.921875 0 
L 79.890625 0 
L 79.890625 32.71875 
Q 79.890625 40.578125 77.09375 44.375 
Q 74.3125 48.1875 68.609375 48.1875 
Q 61.625 48.1875 57.5625 43.546875 
Q 53.515625 38.921875 53.515625 30.90625 
L 53.515625 0 
L 44.484375 0 
L 44.484375 32.71875 
Q 44.484375 40.625 41.703125 44.40625 
Q 38.921875 48.1875 33.109375 48.1875 
Q 26.21875 48.1875 22.15625 43.53125 
Q 18.109375 38.875 18.109375 30.90625 
L 18.109375 0 
L 9.078125 0 
L 9.078125 54.6875 
L 18.109375 54.6875 
L 18.109375 46.1875 
Q 21.1875 51.21875 25.484375 53.609375 
Q 29.78125 56 35.6875 56 
Q 41.65625 56 45.828125 52.96875 
Q 50 49.953125 52 44.1875 
z
" id="DejaVuSans-6d"/>
      <path d="M 56.203125 29.59375 
L 56.203125 25.203125 
L 14.890625 25.203125 
Q 15.484375 15.921875 20.484375 11.0625 
Q 25.484375 6.203125 34.421875 6.203125 
Q 39.59375 6.203125 44.453125 7.46875 
Q 49.3125 8.734375 54.109375 11.28125 
L 54.109375 2.78125 
Q 49.265625 0.734375 44.1875 -0.34375 
Q 39.109375 -1.421875 33.890625 -1.421875 
Q 20.796875 -1.421875 13.15625 6.1875 
Q 5.515625 13.8125 5.515625 26.8125 
Q 5.515625 40.234375 12.765625 48.109375 
Q 20.015625 56 32.328125 56 
Q 43.359375 56 49.78125 48.890625 
Q 56.203125 41.796875 56.203125 29.59375 
z
M 47.21875 32.234375 
Q 47.125 39.59375 43.09375 43.984375 
Q 39.0625 48.390625 32.421875 48.390625 
Q 24.90625 48.390625 20.390625 44.140625 
Q 15.875 39.890625 15.1875 32.171875 
z
" id="DejaVuSans-65"/>
      <path id="DejaVuSans-20"/>
      <path d="M 31 75.875 
Q 24.46875 64.65625 21.28125 53.65625 
Q 18.109375 42.671875 18.109375 31.390625 
Q 18.109375 20.125 21.3125 9.0625 
Q 24.515625 -2 31 -13.1875 
L 23.1875 -13.1875 
Q 15.875 -1.703125 12.234375 9.375 
Q 8.59375 20.453125 8.59375 31.390625 
Q 8.59375 42.28125 12.203125 53.3125 
Q 15.828125 64.359375 23.1875 75.875 
z
" id="DejaVuSans-28"/>
      <path d="M -1.3125 -20.796875 
L 13.375 54.6875 
L 22.40625 54.6875 
L 15.765625 20.65625 
Q 15.578125 19.625 15.421875 18.359375 
Q 15.28125 17.09375 15.28125 15.828125 
Q 15.28125 11.28125 18.140625 8.828125 
Q 21 6.390625 26.3125 6.390625 
Q 33.546875 6.390625 37.984375 10.484375 
Q 42.4375 14.59375 44 22.796875 
L 50.203125 54.6875 
L 59.1875 54.6875 
L 51.03125 12.640625 
Q 50.828125 11.71875 50.75 11.03125 
Q 50.6875 10.359375 50.6875 9.8125 
Q 50.6875 8.296875 51.296875 7.59375 
Q 51.90625 6.890625 53.21875 6.890625 
Q 53.71875 6.890625 54.5625 7.125 
Q 55.421875 7.375 56.984375 8.015625 
L 55.609375 0.78125 
Q 53.46875 -0.296875 51.515625 -0.859375 
Q 49.5625 -1.421875 47.703125 -1.421875 
Q 44.484375 -1.421875 42.65625 0.625 
Q 40.828125 2.6875 40.828125 6.296875 
Q 38.09375 2.390625 34.296875 0.484375 
Q 30.515625 -1.421875 25.390625 -1.421875 
Q 20.84375 -1.421875 17.453125 0.671875 
Q 14.0625 2.78125 12.984375 6.203125 
L 7.71875 -20.796875 
z
" id="DejaVuSans-Oblique-3bc"/>
      <path d="M 50 53.078125 
L 48.296875 44.578125 
Q 44.734375 46.53125 40.765625 47.5 
Q 36.8125 48.484375 32.625 48.484375 
Q 25.53125 48.484375 21.453125 46.0625 
Q 17.390625 43.65625 17.390625 39.5 
Q 17.390625 34.671875 26.859375 32.078125 
Q 27.59375 31.890625 27.9375 31.78125 
L 30.8125 30.90625 
Q 39.796875 28.421875 42.796875 25.6875 
Q 45.796875 22.953125 45.796875 18.21875 
Q 45.796875 9.515625 38.890625 4.046875 
Q 31.984375 -1.421875 20.796875 -1.421875 
Q 16.453125 -1.421875 11.671875 -0.578125 
Q 6.890625 0.25 1.125 2 
L 2.875 11.28125 
Q 7.8125 8.734375 12.59375 7.421875 
Q 17.390625 6.109375 21.78125 6.109375 
Q 28.375 6.109375 32.5 8.9375 
Q 36.625 11.765625 36.625 16.109375 
Q 36.625 20.796875 25.78125 23.6875 
L 24.859375 23.921875 
L 21.78125 24.703125 
Q 14.9375 26.515625 11.765625 29.46875 
Q 8.59375 32.421875 8.59375 37.015625 
Q 8.59375 45.75 15.15625 50.875 
Q 21.734375 56 33.015625 56 
Q 37.453125 56 41.671875 55.265625 
Q 45.90625 54.546875 50 53.078125 
z
" id="DejaVuSans-Oblique-73"/>
      <path d="M 8.015625 75.875 
L 15.828125 75.875 
Q 23.140625 64.359375 26.78125 53.3125 
Q 30.421875 42.28125 30.421875 31.390625 
Q 30.421875 20.453125 26.78125 9.375 
Q 23.140625 -1.703125 15.828125 -13.1875 
L 8.015625 -13.1875 
Q 14.5 -2 17.703125 9.0625 
Q 20.90625 20.125 20.90625 31.390625 
Q 20.90625 42.671875 17.703125 53.65625 
Q 14.5 64.65625 8.015625 75.875 
z
" id="DejaVuSans-29"/>
     </defs>
     <g transform="translate(192.570938 319.728016)scale(0.2 -0.2)">
      <use transform="translate(0 0.015625)" xlink:href="#DejaVuSans-54"/>
      <use transform="translate(61.083984 0.015625)" xlink:href="#DejaVuSans-69"/>
      <use transform="translate(88.867188 0.015625)" xlink:href="#DejaVuSans-6d"/>
      <use transform="translate(186.279297 0.015625)" xlink:href="#DejaVuSans-65"/>
      <use transform="translate(247.802734 0.015625)" xlink:href="#DejaVuSans-20"/>
      <use transform="translate(279.589844 0.015625)" xlink:href="#DejaVuSans-28"/>
      <use transform="translate(318.603516 0.015625)" xlink:href="#DejaVuSans-Oblique-3bc"/>
      <use transform="translate(382.226562 0.015625)" xlink:href="#DejaVuSans-Oblique-73"/>
      <use transform="translate(434.326172 0.015625)" xlink:href="#DejaVuSans-29"/>
     </g>
    </g>
   </g>
   <g id="matplotlib.axis_2">
    <g id="ytick_1">
     <g id="line2d_11">
      <path clip-path="url(#pe418aaad8c)" d="M 61.410938 279.010828 
L 418.530938 279.010828 
" style="fill:none;stroke:#b0b0b0;stroke-linecap:square;stroke-width:0.8;"/>
     </g>
     <g id="line2d_12">
      <defs>
       <path d="M 0 0 
L -3.5 0 
" id="mcb8941f586" style="stroke:#000000;stroke-width:0.8;"/>
      </defs>
      <g>
       <use style="stroke:#000000;stroke-width:0.8;" x="61.410938" xlink:href="#mcb8941f586" y="279.010828"/>
      </g>
     </g>
     <g id="text_7">
      <!-- 0.0 -->
      <defs>
       <path d="M 10.6875 12.40625 
L 21 12.40625 
L 21 0 
L 10.6875 0 
z
" id="DejaVuSans-2e"/>
      </defs>
      <g transform="translate(30.55625 284.709656)scale(0.15 -0.15)">
       <use xlink:href="#DejaVuSans-30"/>
       <use x="63.623047" xlink:href="#DejaVuSans-2e"/>
       <use x="95.410156" xlink:href="#DejaVuSans-30"/>
      </g>
     </g>
    </g>
    <g id="ytick_2">
     <g id="line2d_13">
      <path clip-path="url(#pe418aaad8c)" d="M 61.410938 225.788428 
L 418.530938 225.788428 
" style="fill:none;stroke:#b0b0b0;stroke-linecap:square;stroke-width:0.8;"/>
     </g>
     <g id="line2d_14">
      <g>
       <use style="stroke:#000000;stroke-width:0.8;" x="61.410938" xlink:href="#mcb8941f586" y="225.788428"/>
      </g>
     </g>
     <g id="text_8">
      <!-- 0.2 -->
      <g transform="translate(30.55625 231.487256)scale(0.15 -0.15)">
       <use xlink:href="#DejaVuSans-30"/>
       <use x="63.623047" xlink:href="#DejaVuSans-2e"/>
       <use x="95.410156" xlink:href="#DejaVuSans-32"/>
      </g>
     </g>
    </g>
    <g id="ytick_3">
     <g id="line2d_15">
      <path clip-path="url(#pe418aaad8c)" d="M 61.410938 172.566028 
L 418.530938 172.566028 
" style="fill:none;stroke:#b0b0b0;stroke-linecap:square;stroke-width:0.8;"/>
     </g>
     <g id="line2d_16">
      <g>
       <use style="stroke:#000000;stroke-width:0.8;" x="61.410938" xlink:href="#mcb8941f586" y="172.566028"/>
      </g>
     </g>
     <g id="text_9">
      <!-- 0.4 -->
      <g transform="translate(30.55625 178.264856)scale(0.15 -0.15)">
       <use xlink:href="#DejaVuSans-30"/>
       <use x="63.623047" xlink:href="#DejaVuSans-2e"/>
       <use x="95.410156" xlink:href="#DejaVuSans-34"/>
      </g>
     </g>
    </g>
    <g id="ytick_4">
     <g id="line2d_17">
      <path clip-path="url(#pe418aaad8c)" d="M 61.410938 119.343628 
L 418.530938 119.343628 
" style="fill:none;stroke:#b0b0b0;stroke-linecap:square;stroke-width:0.8;"/>
     </g>
     <g id="line2d_18">
      <g>
       <use style="stroke:#000000;stroke-width:0.8;" x="61.410938" xlink:href="#mcb8941f586" y="119.343628"/>
      </g>
     </g>
     <g id="text_10">
      <!-- 0.6 -->
      <g transform="translate(30.55625 125.042456)scale(0.15 -0.15)">
       <use xlink:href="#DejaVuSans-30"/>
       <use x="63.623047" xlink:href="#DejaVuSans-2e"/>
       <use x="95.410156" xlink:href="#DejaVuSans-36"/>
      </g>
     </g>
    </g>
    <g id="ytick_5">
     <g id="line2d_19">
      <path clip-path="url(#pe418aaad8c)" d="M 61.410938 66.121228 
L 418.530938 66.121228 
" style="fill:none;stroke:#b0b0b0;stroke-linecap:square;stroke-width:0.8;"/>
     </g>
     <g id="line2d_20">
      <g>
       <use style="stroke:#000000;stroke-width:0.8;" x="61.410938" xlink:href="#mcb8941f586" y="66.121228"/>
      </g>
     </g>
     <g id="text_11">
      <!-- 0.8 -->
      <g transform="translate(30.55625 71.820056)scale(0.15 -0.15)">
       <use xlink:href="#DejaVuSans-30"/>
       <use x="63.623047" xlink:href="#DejaVuSans-2e"/>
       <use x="95.410156" xlink:href="#DejaVuSans-38"/>
      </g>
     </g>
    </g>
    <g id="ytick_6">
     <g id="line2d_21">
      <path clip-path="url(#pe418aaad8c)" d="M 61.410938 12.898828 
L 418.530938 12.898828 
" style="fill:none;stroke:#b0b0b0;stroke-linecap:square;stroke-width:0.8;"/>
     </g>
     <g id="line2d_22">
      <g>
       <use style="stroke:#000000;stroke-width:0.8;" x="61.410938" xlink:href="#mcb8941f586" y="12.898828"/>
      </g>
     </g>
     <g id="text_12">
      <!-- 1.0 -->
      <defs>
       <path d="M 12.40625 8.296875 
L 28.515625 8.296875 
L 28.515625 63.921875 
L 10.984375 60.40625 
L 10.984375 69.390625 
L 28.421875 72.90625 
L 38.28125 72.90625 
L 38.28125 8.296875 
L 54.390625 8.296875 
L 54.390625 0 
L 12.40625 0 
z
" id="DejaVuSans-31"/>
      </defs>
      <g transform="translate(30.55625 18.597656)scale(0.15 -0.15)">
       <use xlink:href="#DejaVuSans-31"/>
       <use x="63.623047" xlink:href="#DejaVuSans-2e"/>
       <use x="95.410156" xlink:href="#DejaVuSans-30"/>
      </g>
     </g>
    </g>
    <g id="text_13">
     <!-- Survival -->
     <defs>
      <path d="M 53.515625 70.515625 
L 53.515625 60.890625 
Q 47.90625 63.578125 42.921875 64.890625 
Q 37.9375 66.21875 33.296875 66.21875 
Q 25.25 66.21875 20.875 63.09375 
Q 16.5 59.96875 16.5 54.203125 
Q 16.5 49.359375 19.40625 46.890625 
Q 22.3125 44.4375 30.421875 42.921875 
L 36.375 41.703125 
Q 47.40625 39.59375 52.65625 34.296875 
Q 57.90625 29 57.90625 20.125 
Q 57.90625 9.515625 50.796875 4.046875 
Q 43.703125 -1.421875 29.984375 -1.421875 
Q 24.8125 -1.421875 18.96875 -0.25 
Q 13.140625 0.921875 6.890625 3.21875 
L 6.890625 13.375 
Q 12.890625 10.015625 18.65625 8.296875 
Q 24.421875 6.59375 29.984375 6.59375 
Q 38.421875 6.59375 43.015625 9.90625 
Q 47.609375 13.234375 47.609375 19.390625 
Q 47.609375 24.75 44.3125 27.78125 
Q 41.015625 30.8125 33.5 32.328125 
L 27.484375 33.5 
Q 16.453125 35.6875 11.515625 40.375 
Q 6.59375 45.0625 6.59375 53.421875 
Q 6.59375 63.09375 13.40625 68.65625 
Q 20.21875 74.21875 32.171875 74.21875 
Q 37.3125 74.21875 42.625 73.28125 
Q 47.953125 72.359375 53.515625 70.515625 
z
" id="DejaVuSans-53"/>
      <path d="M 8.5 21.578125 
L 8.5 54.6875 
L 17.484375 54.6875 
L 17.484375 21.921875 
Q 17.484375 14.15625 20.5 10.265625 
Q 23.53125 6.390625 29.59375 6.390625 
Q 36.859375 6.390625 41.078125 11.03125 
Q 45.3125 15.671875 45.3125 23.6875 
L 45.3125 54.6875 
L 54.296875 54.6875 
L 54.296875 0 
L 45.3125 0 
L 45.3125 8.40625 
Q 42.046875 3.421875 37.71875 1 
Q 33.40625 -1.421875 27.6875 -1.421875 
Q 18.265625 -1.421875 13.375 4.4375 
Q 8.5 10.296875 8.5 21.578125 
z
M 31.109375 56 
z
" id="DejaVuSans-75"/>
      <path d="M 41.109375 46.296875 
Q 39.59375 47.171875 37.8125 47.578125 
Q 36.03125 48 33.890625 48 
Q 26.265625 48 22.1875 43.046875 
Q 18.109375 38.09375 18.109375 28.8125 
L 18.109375 0 
L 9.078125 0 
L 9.078125 54.6875 
L 18.109375 54.6875 
L 18.109375 46.1875 
Q 20.953125 51.171875 25.484375 53.578125 
Q 30.03125 56 36.53125 56 
Q 37.453125 56 38.578125 55.875 
Q 39.703125 55.765625 41.0625 55.515625 
z
" id="DejaVuSans-72"/>
      <path d="M 2.984375 54.6875 
L 12.5 54.6875 
L 29.59375 8.796875 
L 46.6875 54.6875 
L 56.203125 54.6875 
L 35.6875 0 
L 23.484375 0 
z
" id="DejaVuSans-76"/>
      <path d="M 34.28125 27.484375 
Q 23.390625 27.484375 19.1875 25 
Q 14.984375 22.515625 14.984375 16.5 
Q 14.984375 11.71875 18.140625 8.90625 
Q 21.296875 6.109375 26.703125 6.109375 
Q 34.1875 6.109375 38.703125 11.40625 
Q 43.21875 16.703125 43.21875 25.484375 
L 43.21875 27.484375 
z
M 52.203125 31.203125 
L 52.203125 0 
L 43.21875 0 
L 43.21875 8.296875 
Q 40.140625 3.328125 35.546875 0.953125 
Q 30.953125 -1.421875 24.3125 -1.421875 
Q 15.921875 -1.421875 10.953125 3.296875 
Q 6 8.015625 6 15.921875 
Q 6 25.140625 12.171875 29.828125 
Q 18.359375 34.515625 30.609375 34.515625 
L 43.21875 34.515625 
L 43.21875 35.40625 
Q 43.21875 41.609375 39.140625 45 
Q 35.0625 48.390625 27.6875 48.390625 
Q 23 48.390625 18.546875 47.265625 
Q 14.109375 46.140625 10.015625 43.890625 
L 10.015625 52.203125 
Q 14.9375 54.109375 19.578125 55.046875 
Q 24.21875 56 28.609375 56 
Q 40.484375 56 46.34375 49.84375 
Q 52.203125 43.703125 52.203125 31.203125 
z
" id="DejaVuSans-61"/>
      <path d="M 9.421875 75.984375 
L 18.40625 75.984375 
L 18.40625 0 
L 9.421875 0 
z
" id="DejaVuSans-6c"/>
     </defs>
     <g transform="translate(22.396875 186.273578)rotate(-90)scale(0.2 -0.2)">
      <use xlink:href="#DejaVuSans-53"/>
      <use x="63.476562" xlink:href="#DejaVuSans-75"/>
      <use x="126.855469" xlink:href="#DejaVuSans-72"/>
      <use x="167.96875" xlink:href="#DejaVuSans-76"/>
      <use x="227.148438" xlink:href="#DejaVuSans-69"/>
      <use x="254.931641" xlink:href="#DejaVuSans-76"/>
      <use x="314.111328" xlink:href="#DejaVuSans-61"/>
      <use x="375.390625" xlink:href="#DejaVuSans-6c"/>
     </g>
    </g>
   </g>
   <g id="LineCollection_1">
    <path clip-path="url(#pe418aaad8c)" d="M 61.410938 278.752732 
L 61.410938 277.24782 
" style="fill:none;stroke:#1f77b4;stroke-width:1.5;"/>
    <path clip-path="url(#pe418aaad8c)" d="M 70.338938 218.156694 
L 70.338938 206.466916 
" style="fill:none;stroke:#1f77b4;stroke-width:1.5;"/>
    <path clip-path="url(#pe418aaad8c)" d="M 79.266938 120.345287 
L 79.266938 106.854074 
" style="fill:none;stroke:#1f77b4;stroke-width:1.5;"/>
    <path clip-path="url(#pe418aaad8c)" d="M 88.194938 63.209406 
L 88.194938 53.107166 
" style="fill:none;stroke:#1f77b4;stroke-width:1.5;"/>
    <path clip-path="url(#pe418aaad8c)" d="M 97.122938 139.76962 
L 97.122938 126.409105 
" style="fill:none;stroke:#1f77b4;stroke-width:1.5;"/>
    <path clip-path="url(#pe418aaad8c)" d="M 106.050938 235.026405 
L 106.050938 224.356404 
" style="fill:none;stroke:#1f77b4;stroke-width:1.5;"/>
    <path clip-path="url(#pe418aaad8c)" d="M 114.978938 273.815728 
L 114.978938 269.34329 
" style="fill:none;stroke:#1f77b4;stroke-width:1.5;"/>
    <path clip-path="url(#pe418aaad8c)" d="M 123.906938 226.67312 
L 123.906938 215.676737 
" style="fill:none;stroke:#1f77b4;stroke-width:1.5;"/>
    <path clip-path="url(#pe418aaad8c)" d="M 132.834938 123.530605 
L 132.834938 110.380282 
" style="fill:none;stroke:#1f77b4;stroke-width:1.5;"/>
    <path clip-path="url(#pe418aaad8c)" d="M 141.762938 73.335345 
L 141.762938 62.363112 
" style="fill:none;stroke:#1f77b4;stroke-width:1.5;"/>
    <path clip-path="url(#pe418aaad8c)" d="M 150.690938 137.422733 
L 150.690938 123.91531 
" style="fill:none;stroke:#1f77b4;stroke-width:1.5;"/>
    <path clip-path="url(#pe418aaad8c)" d="M 159.618938 223.833909 
L 159.618938 212.477608 
" style="fill:none;stroke:#1f77b4;stroke-width:1.5;"/>
    <path clip-path="url(#pe418aaad8c)" d="M 168.546938 272.801389 
L 168.546938 268.073876 
" style="fill:none;stroke:#1f77b4;stroke-width:1.5;"/>
    <path clip-path="url(#pe418aaad8c)" d="M 177.474938 223.853944 
L 177.474938 211.981076 
" style="fill:none;stroke:#1f77b4;stroke-width:1.5;"/>
    <path clip-path="url(#pe418aaad8c)" d="M 186.402938 146.77986 
L 186.402938 133.033797 
" style="fill:none;stroke:#1f77b4;stroke-width:1.5;"/>
    <path clip-path="url(#pe418aaad8c)" d="M 195.330938 83.338957 
L 195.330938 71.713099 
" style="fill:none;stroke:#1f77b4;stroke-width:1.5;"/>
    <path clip-path="url(#pe418aaad8c)" d="M 204.258938 144.095328 
L 204.258938 130.579096 
" style="fill:none;stroke:#1f77b4;stroke-width:1.5;"/>
    <path clip-path="url(#pe418aaad8c)" d="M 213.186938 227.260084 
L 213.186938 216.009572 
" style="fill:none;stroke:#1f77b4;stroke-width:1.5;"/>
    <path clip-path="url(#pe418aaad8c)" d="M 222.114938 265.541862 
L 222.114938 258.858117 
" style="fill:none;stroke:#1f77b4;stroke-width:1.5;"/>
    <path clip-path="url(#pe418aaad8c)" d="M 231.042938 213.794157 
L 231.042938 201.692575 
" style="fill:none;stroke:#1f77b4;stroke-width:1.5;"/>
    <path clip-path="url(#pe418aaad8c)" d="M 239.970938 125.513243 
L 239.970938 112.20128 
" style="fill:none;stroke:#1f77b4;stroke-width:1.5;"/>
    <path clip-path="url(#pe418aaad8c)" d="M 248.898938 79.35775 
L 248.898938 68.186146 
" style="fill:none;stroke:#1f77b4;stroke-width:1.5;"/>
    <path clip-path="url(#pe418aaad8c)" d="M 257.826938 121.061571 
L 257.826938 108.034846 
" style="fill:none;stroke:#1f77b4;stroke-width:1.5;"/>
    <path clip-path="url(#pe418aaad8c)" d="M 266.754938 237.751437 
L 266.754938 227.239195 
" style="fill:none;stroke:#1f77b4;stroke-width:1.5;"/>
    <path clip-path="url(#pe418aaad8c)" d="M 275.682938 262.759407 
L 275.682938 255.490076 
" style="fill:none;stroke:#1f77b4;stroke-width:1.5;"/>
    <path clip-path="url(#pe418aaad8c)" d="M 284.610938 211.20244 
L 284.610938 198.651593 
" style="fill:none;stroke:#1f77b4;stroke-width:1.5;"/>
    <path clip-path="url(#pe418aaad8c)" d="M 293.538938 132.47581 
L 293.538938 118.876669 
" style="fill:none;stroke:#1f77b4;stroke-width:1.5;"/>
    <path clip-path="url(#pe418aaad8c)" d="M 302.466938 79.686122 
L 302.466938 68.109261 
" style="fill:none;stroke:#1f77b4;stroke-width:1.5;"/>
    <path clip-path="url(#pe418aaad8c)" d="M 311.394938 128.067032 
L 311.394938 114.839903 
" style="fill:none;stroke:#1f77b4;stroke-width:1.5;"/>
    <path clip-path="url(#pe418aaad8c)" d="M 320.322938 231.622058 
L 320.322938 220.664431 
" style="fill:none;stroke:#1f77b4;stroke-width:1.5;"/>
    <path clip-path="url(#pe418aaad8c)" d="M 329.250938 259.16734 
L 329.250938 251.619437 
" style="fill:none;stroke:#1f77b4;stroke-width:1.5;"/>
    <path clip-path="url(#pe418aaad8c)" d="M 338.178938 206.768157 
L 338.178938 194.168518 
" style="fill:none;stroke:#1f77b4;stroke-width:1.5;"/>
    <path clip-path="url(#pe418aaad8c)" d="M 347.106938 116.45907 
L 347.106938 103.320228 
" style="fill:none;stroke:#1f77b4;stroke-width:1.5;"/>
    <path clip-path="url(#pe418aaad8c)" d="M 356.034938 91.665858 
L 356.034938 79.597166 
" style="fill:none;stroke:#1f77b4;stroke-width:1.5;"/>
    <path clip-path="url(#pe418aaad8c)" d="M 364.962938 141.360409 
L 364.962938 127.59619 
" style="fill:none;stroke:#1f77b4;stroke-width:1.5;"/>
    <path clip-path="url(#pe418aaad8c)" d="M 373.890938 220.923077 
L 373.890938 209.281005 
" style="fill:none;stroke:#1f77b4;stroke-width:1.5;"/>
    <path clip-path="url(#pe418aaad8c)" d="M 382.818938 252.085768 
L 382.818938 243.279888 
" style="fill:none;stroke:#1f77b4;stroke-width:1.5;"/>
    <path clip-path="url(#pe418aaad8c)" d="M 391.746938 207.249298 
L 391.746938 194.775669 
" style="fill:none;stroke:#1f77b4;stroke-width:1.5;"/>
    <path clip-path="url(#pe418aaad8c)" d="M 400.674938 138.023377 
L 400.674938 124.237931 
" style="fill:none;stroke:#1f77b4;stroke-width:1.5;"/>
    <path clip-path="url(#pe418aaad8c)" d="M 409.602938 95.563257 
L 409.602938 83.530838 
" style="fill:none;stroke:#1f77b4;stroke-width:1.5;"/>
    <path clip-path="url(#pe418aaad8c)" d="M 418.530938 153.170515 
L 418.530938 139.446886 
" style="fill:none;stroke:#1f77b4;stroke-width:1.5;"/>
   </g>
   <g id="LineCollection_2">
    <path clip-path="url(#pe418aaad8c)" d="M 61.410938 278.275034 
L 61.410938 276.081168 
" style="fill:none;stroke:#d62728;stroke-width:1.5;"/>
    <path clip-path="url(#pe418aaad8c)" d="M 70.338938 246.924279 
L 70.338938 236.960604 
" style="fill:none;stroke:#d62728;stroke-width:1.5;"/>
    <path clip-path="url(#pe418aaad8c)" d="M 79.266938 159.5787 
L 79.266938 145.33068 
" style="fill:none;stroke:#d62728;stroke-width:1.5;"/>
    <path clip-path="url(#pe418aaad8c)" d="M 88.194938 88.415744 
L 88.194938 75.63229 
" style="fill:none;stroke:#d62728;stroke-width:1.5;"/>
    <path clip-path="url(#pe418aaad8c)" d="M 97.122938 67.085952 
L 97.122938 55.974862 
" style="fill:none;stroke:#d62728;stroke-width:1.5;"/>
    <path clip-path="url(#pe418aaad8c)" d="M 106.050938 109.76819 
L 106.050938 96.249409 
" style="fill:none;stroke:#d62728;stroke-width:1.5;"/>
    <path clip-path="url(#pe418aaad8c)" d="M 114.978938 183.283539 
L 114.978938 169.516151 
" style="fill:none;stroke:#d62728;stroke-width:1.5;"/>
    <path clip-path="url(#pe418aaad8c)" d="M 123.906938 231.648933 
L 123.906938 220.085386 
" style="fill:none;stroke:#d62728;stroke-width:1.5;"/>
    <path clip-path="url(#pe418aaad8c)" d="M 132.834938 212.824218 
L 132.834938 200.379582 
" style="fill:none;stroke:#d62728;stroke-width:1.5;"/>
    <path clip-path="url(#pe418aaad8c)" d="M 141.762938 158.461632 
L 141.762938 143.868073 
" style="fill:none;stroke:#d62728;stroke-width:1.5;"/>
    <path clip-path="url(#pe418aaad8c)" d="M 150.690938 117.122272 
L 150.690938 103.017785 
" style="fill:none;stroke:#d62728;stroke-width:1.5;"/>
    <path clip-path="url(#pe418aaad8c)" d="M 159.618938 117.140357 
L 159.618938 103.60843 
" style="fill:none;stroke:#d62728;stroke-width:1.5;"/>
    <path clip-path="url(#pe418aaad8c)" d="M 168.546938 130.207384 
L 168.546938 116.213041 
" style="fill:none;stroke:#d62728;stroke-width:1.5;"/>
    <path clip-path="url(#pe418aaad8c)" d="M 177.474938 186.354799 
L 177.474938 172.281449 
" style="fill:none;stroke:#d62728;stroke-width:1.5;"/>
    <path clip-path="url(#pe418aaad8c)" d="M 186.402938 213.833185 
L 186.402938 201.191505 
" style="fill:none;stroke:#d62728;stroke-width:1.5;"/>
    <path clip-path="url(#pe418aaad8c)" d="M 195.330938 194.97337 
L 195.330938 181.056797 
" style="fill:none;stroke:#d62728;stroke-width:1.5;"/>
   </g>
   <g id="line2d_23">
    <path clip-path="url(#pe418aaad8c)" d="M 61.410938 278.57076 
L 62.839418 278.57076 
L 63.196538 276.123085 
L 63.553658 275.887631 
L 63.910778 274.30671 
L 64.267898 273.652664 
L 64.625018 270.643045 
L 64.982138 269.413932 
L 65.696378 265.223353 
L 66.053498 261.737901 
L 66.410618 260.297684 
L 66.767738 258.296291 
L 69.981818 227.536048 
L 71.410298 209.738575 
L 71.767418 207.165418 
L 72.481658 196.246186 
L 73.195898 187.751396 
L 78.909818 113.751312 
L 80.338298 98.802076 
L 81.409658 87.677811 
L 82.123898 80.845402 
L 82.481018 78.955173 
L 82.838138 76.455058 
L 83.552378 70.353613 
L 84.266618 66.076475 
L 84.980858 61.270033 
L 85.337978 60.040081 
L 86.052218 58.250612 
L 86.409338 55.771318 
L 86.766458 55.567477 
L 87.123578 55.156188 
L 87.480698 53.963379 
L 87.837818 53.255697 
L 88.194938 53.255697 
L 88.552058 53.963379 
L 88.909178 53.255697 
L 89.623418 56.025115 
L 89.980538 56.32146 
L 90.337658 57.162853 
L 90.694778 59.24516 
L 91.051898 59.53294 
L 91.766138 62.975818 
L 92.123258 66.220919 
L 92.480378 67.198977 
L 93.194618 72.063964 
L 93.908858 78.060262 
L 94.980218 87.074135 
L 97.122938 109.44246 
L 98.194298 121.879736 
L 99.979898 144.251023 
L 101.765498 167.492819 
L 102.479738 177.074572 
L 103.193978 185.474585 
L 103.551098 191.163244 
L 103.908218 194.272029 
L 104.979578 208.8863 
L 105.336698 211.949203 
L 106.408058 224.445092 
L 108.193658 243.018024 
L 109.265018 252.439627 
L 109.622138 254.341498 
L 111.050618 264.959848 
L 111.407738 266.116585 
L 111.764858 269.109266 
L 112.121978 269.217009 
L 112.479098 272.17166 
L 112.836218 272.945657 
L 113.193338 274.30671 
L 113.550458 274.617108 
L 114.264698 276.324162 
L 114.621818 276.123085 
L 114.978938 276.258979 
L 115.336058 276.013821 
L 115.693178 276.076915 
L 116.050298 274.863834 
L 116.764538 274.710097 
L 118.193018 268.479147 
L 118.550138 266.199935 
L 118.907258 264.790799 
L 119.978618 257.48897 
L 120.335738 256.212615 
L 123.192698 229.287223 
L 124.264058 217.437366 
L 124.978298 209.051175 
L 125.692538 201.906222 
L 126.763898 187.582921 
L 132.477818 115.931682 
L 133.192058 109.447262 
L 134.263418 97.647441 
L 135.334778 87.416613 
L 137.477498 71.705478 
L 139.263098 62.733887 
L 139.620218 61.662384 
L 139.977338 61.778343 
L 140.334458 59.746188 
L 140.691578 59.502476 
L 141.048698 59.715724 
L 141.405818 58.982735 
L 141.762938 57.590252 
L 142.120058 58.173793 
L 142.477178 58.355478 
L 142.834298 59.624332 
L 143.191418 59.927481 
L 143.905658 61.708594 
L 144.262778 63.242921 
L 144.619898 64.122568 
L 145.334138 67.39365 
L 146.762618 76.054595 
L 147.119738 79.583504 
L 147.833978 84.424852 
L 148.191098 86.839271 
L 148.548218 90.914683 
L 148.905338 93.547338 
L 150.333818 108.57918 
L 150.690938 113.281761 
L 151.048058 115.397187 
L 151.762298 124.377633 
L 152.119418 128.017908 
L 152.833658 137.060559 
L 154.262138 154.258989 
L 158.904698 211.137685 
L 159.976058 222.557385 
L 160.690298 229.371371 
L 161.047418 233.975119 
L 162.118778 243.244107 
L 162.475898 245.248715 
L 162.833018 249.595184 
L 163.547258 253.482839 
L 163.904378 256.856434 
L 164.261498 257.885863 
L 165.332858 264.219273 
L 166.047098 266.395344 
L 166.761338 269.620952 
L 167.118458 269.34767 
L 167.832698 271.432336 
L 168.189818 270.630047 
L 168.546938 271.928424 
L 168.904058 271.180068 
L 169.261178 271.233611 
L 169.975418 269.711566 
L 170.332538 268.604082 
L 170.689658 268.124166 
L 172.475258 260.1681 
L 173.903738 251.125062 
L 174.260858 249.274044 
L 175.689338 235.871834 
L 176.760698 225.640582 
L 177.832058 214.37637 
L 178.189178 211.5781 
L 178.903418 202.292469 
L 179.260538 199.034879 
L 180.689018 180.874855 
L 181.046138 177.414122 
L 182.117498 163.381556 
L 183.903098 142.529089 
L 184.617338 134.292737 
L 186.045818 117.875815 
L 187.831418 100.438095 
L 188.188538 97.777708 
L 188.902778 90.727654 
L 190.331258 80.167194 
L 190.688378 78.105805 
L 191.045498 77.192825 
L 191.402618 73.349575 
L 191.759738 72.496842 
L 192.116858 71.09739 
L 192.473978 69.247812 
L 192.831098 68.291256 
L 193.188218 65.978307 
L 193.545338 66.454866 
L 194.616698 63.584491 
L 194.973818 63.849775 
L 195.330938 64.347184 
L 195.688058 65.482084 
L 196.045178 64.634756 
L 196.402298 65.016846 
L 197.116538 66.897608 
L 197.473658 66.974726 
L 197.830778 69.739015 
L 198.187898 69.437738 
L 198.545018 72.270504 
L 198.902138 73.670237 
L 199.973498 79.875159 
L 200.330618 82.906963 
L 201.044858 87.319214 
L 202.830458 102.754862 
L 203.187578 106.147734 
L 203.544698 110.671949 
L 203.901818 113.544067 
L 204.258938 117.62238 
L 204.616058 120.334557 
L 207.115898 149.972322 
L 207.830138 158.489868 
L 208.187258 161.730799 
L 208.901498 170.457773 
L 210.329978 187.212275 
L 210.687098 192.863722 
L 211.758458 202.970024 
L 212.472698 211.060481 
L 213.544058 222.403204 
L 213.901178 226.604328 
L 214.972538 235.228783 
L 215.686778 241.747949 
L 216.043898 243.468393 
L 217.115258 251.83767 
L 218.186618 257.843284 
L 218.543738 258.739294 
L 219.615098 263.89687 
L 219.972218 264.307625 
L 220.329338 264.099644 
L 220.686458 265.493091 
L 221.043578 265.999895 
L 221.400698 266.986312 
L 221.757818 266.598416 
L 222.114938 265.831788 
L 222.472058 265.605538 
L 222.829178 265.021849 
L 223.186298 265.05285 
L 223.543418 264.552605 
L 223.900538 262.801599 
L 224.257658 261.983497 
L 224.614778 260.594038 
L 225.329018 258.662314 
L 225.686138 255.606805 
L 226.400378 252.482938 
L 226.757498 249.443947 
L 227.114618 248.3595 
L 227.471738 244.368101 
L 228.185978 239.154603 
L 228.543098 235.481346 
L 228.900218 234.060076 
L 229.257338 229.997521 
L 229.614458 227.44872 
L 230.328698 219.997185 
L 233.542778 185.593884 
L 234.257018 176.756928 
L 237.113978 143.538473 
L 238.542458 126.740745 
L 238.899578 124.004911 
L 240.328058 109.215962 
L 240.685178 106.640545 
L 241.042298 102.217955 
L 241.756538 97.579475 
L 242.827898 88.821922 
L 243.185018 86.75445 
L 243.542138 83.574518 
L 243.899258 82.167593 
L 244.970618 76.560698 
L 245.327738 74.980178 
L 245.684858 74.183475 
L 246.041978 72.326932 
L 246.399098 71.206318 
L 246.756218 70.884984 
L 247.113338 69.967537 
L 247.470458 69.852295 
L 247.827578 68.50503 
L 248.184698 68.656885 
L 248.541818 69.305869 
L 248.898938 69.411364 
L 249.256058 69.38499 
L 249.970298 71.000565 
L 250.327418 71.218421 
L 250.684538 71.76438 
L 251.041658 74.847495 
L 251.755898 75.841575 
L 252.113018 78.65477 
L 252.470138 79.971796 
L 252.827258 82.36659 
L 253.184378 83.263044 
L 253.541498 86.860476 
L 254.612858 94.07324 
L 255.327098 99.899155 
L 255.684218 103.72337 
L 256.041338 105.846522 
L 256.398458 109.805012 
L 256.755578 112.09574 
L 257.112698 115.514393 
L 257.826938 124.269272 
L 258.184058 127.007997 
L 259.255418 138.809736 
L 259.612538 144.060084 
L 260.326778 151.233656 
L 261.755258 167.525276 
L 264.969338 203.804477 
L 265.683578 210.270417 
L 266.397818 217.731793 
L 269.254778 242.310326 
L 269.969018 246.998991 
L 270.326138 248.067703 
L 270.683258 250.857193 
L 271.040378 252.131437 
L 271.754618 256.375244 
L 272.111738 257.385024 
L 272.468858 259.318287 
L 272.825978 259.904501 
L 273.183098 260.274123 
L 273.540218 261.743677 
L 273.897338 261.222082 
L 274.254458 262.869563 
L 274.611578 262.883155 
L 274.968698 262.752672 
L 275.325818 263.605321 
L 275.682938 262.270036 
L 276.397178 261.548574 
L 277.825658 257.727127 
L 278.897018 251.795192 
L 279.254138 249.579264 
L 279.611258 248.609914 
L 279.968378 246.491206 
L 280.682618 241.24233 
L 281.039738 238.969909 
L 281.396858 235.147935 
L 282.468218 227.875086 
L 283.182458 220.49165 
L 283.539578 217.887445 
L 285.325178 199.113769 
L 285.682298 194.291321 
L 286.396538 187.912 
L 287.467898 175.26152 
L 288.539258 163.965788 
L 288.896378 159.898496 
L 289.253498 154.547424 
L 292.467578 121.39384 
L 293.181818 114.16137 
L 296.395898 88.358064 
L 296.753018 86.351231 
L 297.467258 83.420858 
L 297.824378 81.338525 
L 298.181498 80.107725 
L 298.538618 77.878089 
L 298.895738 76.723403 
L 299.252858 74.816674 
L 299.609978 74.642021 
L 300.324218 72.728634 
L 300.681338 72.542151 
L 301.038458 72.026584 
L 301.395578 72.224606 
L 301.752698 71.658356 
L 302.109818 72.155759 
L 302.466938 72.899412 
L 302.824058 72.874026 
L 303.181178 73.51939 
L 303.538298 75.441172 
L 303.895418 75.871026 
L 304.252538 77.724987 
L 304.966778 79.125025 
L 306.395258 87.622589 
L 306.752378 89.502843 
L 307.823738 97.619122 
L 308.180858 98.724044 
L 308.537978 103.159941 
L 309.609338 112.659263 
L 311.752058 133.422691 
L 312.823418 145.250645 
L 313.180538 148.382499 
L 314.609018 165.401123 
L 314.966138 168.369167 
L 315.323258 173.06138 
L 315.680378 175.799655 
L 316.037498 180.830677 
L 316.751738 187.990956 
L 318.894458 210.751665 
L 319.251578 213.933058 
L 319.608698 218.111768 
L 319.965818 219.675336 
L 320.680058 227.556596 
L 321.394298 233.09662 
L 322.465658 241.715225 
L 322.822778 243.267576 
L 323.179898 246.272526 
L 323.894138 249.906098 
L 326.036858 258.542328 
L 326.393978 259.26165 
L 327.108218 260.020755 
L 327.465338 260.285904 
L 327.822458 260.91693 
L 328.179578 260.297684 
L 328.536698 260.426884 
L 328.893818 259.962628 
L 329.250938 259.834748 
L 329.608058 259.06427 
L 329.965178 258.706162 
L 330.322298 257.229107 
L 330.679418 256.653322 
L 331.036538 255.448228 
L 332.465018 247.803548 
L 332.822138 246.742983 
L 333.179258 244.647137 
L 333.536378 241.20335 
L 333.893498 239.50484 
L 334.250618 236.30876 
L 334.607738 234.133705 
L 336.750458 215.562024 
L 337.464698 207.842483 
L 337.821818 205.143245 
L 345.678458 121.449329 
L 346.392698 114.9433 
L 347.821178 101.866193 
L 348.535418 97.001864 
L 349.606778 88.916347 
L 350.678138 84.07577 
L 351.035258 81.134412 
L 351.392378 80.201177 
L 351.749498 80.022769 
L 352.463738 76.551094 
L 352.820858 75.152823 
L 353.177978 75.152823 
L 353.535098 74.204512 
L 353.892218 72.874026 
L 354.249338 73.562489 
L 354.606458 73.131339 
L 354.963578 73.185958 
L 355.320698 74.172957 
L 355.677818 74.130884 
L 356.034938 74.959867 
L 356.392058 74.857768 
L 357.106298 77.780208 
L 357.820538 79.861353 
L 358.177658 81.401092 
L 358.891898 85.655321 
L 359.606138 89.389909 
L 360.320378 94.40566 
L 361.034618 99.42031 
L 361.748858 104.988545 
L 363.177338 116.425079 
L 363.891578 124.427646 
L 367.819898 166.057483 
L 368.891258 177.279032 
L 369.605498 185.021152 
L 371.033978 201.155653 
L 371.391098 203.914413 
L 373.176698 221.35877 
L 374.605178 233.085506 
L 375.319418 239.111048 
L 375.676538 240.436553 
L 376.390778 246.040776 
L 377.105018 248.819175 
L 377.819258 253.223058 
L 378.176378 253.500871 
L 378.533498 254.605433 
L 378.890618 257.353841 
L 379.247738 257.716609 
L 379.604858 258.542328 
L 379.961978 258.296291 
L 380.319098 258.444157 
L 380.676218 260.15632 
L 381.033338 259.904501 
L 381.390458 259.238996 
L 381.747578 259.799872 
L 382.461818 258.805559 
L 382.818938 258.542328 
L 383.176058 256.435485 
L 383.533178 256.365204 
L 383.890298 254.257929 
L 384.247418 254.257929 
L 384.961658 251.46535 
L 385.318778 248.413281 
L 385.675898 247.236876 
L 386.033018 245.128553 
L 386.390138 242.003961 
L 386.747258 240.675643 
L 387.104378 237.080928 
L 387.461498 236.059076 
L 388.175738 230.050747 
L 388.532858 228.255808 
L 389.247098 220.538648 
L 390.675578 208.039294 
L 391.389818 200.252647 
L 392.461178 189.07459 
L 393.175418 180.996344 
L 394.961018 162.817144 
L 396.746618 142.166602 
L 397.103738 140.206199 
L 397.460858 134.961271 
L 398.889338 120.860336 
L 399.960698 111.123273 
L 401.032058 102.122722 
L 402.103418 94.914798 
L 402.460538 92.918334 
L 403.174778 87.788254 
L 403.531898 86.825134 
L 404.246138 82.390469 
L 404.603258 81.652375 
L 405.317498 77.905415 
L 405.674618 77.73419 
L 406.031738 76.732904 
L 406.745978 76.151687 
L 407.103098 74.724211 
L 407.460218 74.389459 
L 407.817338 75.250409 
L 408.174458 74.980178 
L 408.888698 76.219651 
L 409.245818 75.969197 
L 409.602938 76.865909 
L 410.317178 79.7808 
L 410.674298 80.520985 
L 411.031418 80.693059 
L 411.388538 82.922601 
L 411.745658 84.379926 
L 412.459898 88.419232 
L 412.817018 89.908212 
L 416.031098 115.60906 
L 418.173818 135.926688 
L 418.530938 140.438514 
L 418.530938 140.438514 
" style="fill:none;stroke:#1f77b4;stroke-linecap:square;stroke-width:1.5;"/>
   </g>
   <g id="line2d_24">
    <path clip-path="url(#pe418aaad8c)" d="M 61.410938 52.815628 
L 418.530938 52.815628 
" style="fill:none;opacity:0.3;stroke:#0000ff;stroke-dasharray:7.4,3.2;stroke-dashoffset:0;stroke-width:2;"/>
   </g>
   <g id="line2d_25">
    <defs>
     <path d="M 0 3 
C 0.795609 3 1.55874 2.683901 2.12132 2.12132 
C 2.683901 1.55874 3 0.795609 3 0 
C 3 -0.795609 2.683901 -1.55874 2.12132 -2.12132 
C 1.55874 -2.683901 0.795609 -3 0 -3 
C -0.795609 -3 -1.55874 -2.683901 -2.12132 -2.12132 
C -2.683901 -1.55874 -3 -0.795609 -3 0 
C -3 0.795609 -2.683901 1.55874 -2.12132 2.12132 
C -1.55874 2.683901 -0.795609 3 0 3 
z
" id="m2114c42f82" style="stroke:#1f77b4;"/>
    </defs>
    <g clip-path="url(#pe418aaad8c)">
     <use style="fill:#1f77b4;stroke:#1f77b4;" x="61.410938" xlink:href="#m2114c42f82" y="278.000276"/>
     <use style="fill:#1f77b4;stroke:#1f77b4;" x="70.338938" xlink:href="#m2114c42f82" y="212.311805"/>
     <use style="fill:#1f77b4;stroke:#1f77b4;" x="79.266938" xlink:href="#m2114c42f82" y="113.599681"/>
     <use style="fill:#1f77b4;stroke:#1f77b4;" x="88.194938" xlink:href="#m2114c42f82" y="58.158286"/>
     <use style="fill:#1f77b4;stroke:#1f77b4;" x="97.122938" xlink:href="#m2114c42f82" y="133.089362"/>
     <use style="fill:#1f77b4;stroke:#1f77b4;" x="106.050938" xlink:href="#m2114c42f82" y="229.691404"/>
     <use style="fill:#1f77b4;stroke:#1f77b4;" x="114.978938" xlink:href="#m2114c42f82" y="271.579509"/>
     <use style="fill:#1f77b4;stroke:#1f77b4;" x="123.906938" xlink:href="#m2114c42f82" y="221.174929"/>
     <use style="fill:#1f77b4;stroke:#1f77b4;" x="132.834938" xlink:href="#m2114c42f82" y="116.955444"/>
     <use style="fill:#1f77b4;stroke:#1f77b4;" x="141.762938" xlink:href="#m2114c42f82" y="67.849228"/>
     <use style="fill:#1f77b4;stroke:#1f77b4;" x="150.690938" xlink:href="#m2114c42f82" y="130.669021"/>
     <use style="fill:#1f77b4;stroke:#1f77b4;" x="159.618938" xlink:href="#m2114c42f82" y="218.155758"/>
     <use style="fill:#1f77b4;stroke:#1f77b4;" x="168.546938" xlink:href="#m2114c42f82" y="270.437632"/>
     <use style="fill:#1f77b4;stroke:#1f77b4;" x="177.474938" xlink:href="#m2114c42f82" y="217.91751"/>
     <use style="fill:#1f77b4;stroke:#1f77b4;" x="186.402938" xlink:href="#m2114c42f82" y="139.906828"/>
     <use style="fill:#1f77b4;stroke:#1f77b4;" x="195.330938" xlink:href="#m2114c42f82" y="77.526028"/>
     <use style="fill:#1f77b4;stroke:#1f77b4;" x="204.258938" xlink:href="#m2114c42f82" y="137.337212"/>
     <use style="fill:#1f77b4;stroke:#1f77b4;" x="213.186938" xlink:href="#m2114c42f82" y="221.634828"/>
     <use style="fill:#1f77b4;stroke:#1f77b4;" x="222.114938" xlink:href="#m2114c42f82" y="262.199989"/>
     <use style="fill:#1f77b4;stroke:#1f77b4;" x="231.042938" xlink:href="#m2114c42f82" y="207.743366"/>
     <use style="fill:#1f77b4;stroke:#1f77b4;" x="239.970938" xlink:href="#m2114c42f82" y="118.857262"/>
     <use style="fill:#1f77b4;stroke:#1f77b4;" x="248.898938" xlink:href="#m2114c42f82" y="73.771948"/>
     <use style="fill:#1f77b4;stroke:#1f77b4;" x="257.826938" xlink:href="#m2114c42f82" y="114.548209"/>
     <use style="fill:#1f77b4;stroke:#1f77b4;" x="266.754938" xlink:href="#m2114c42f82" y="232.495316"/>
     <use style="fill:#1f77b4;stroke:#1f77b4;" x="275.682938" xlink:href="#m2114c42f82" y="259.124741"/>
     <use style="fill:#1f77b4;stroke:#1f77b4;" x="284.610938" xlink:href="#m2114c42f82" y="204.927016"/>
     <use style="fill:#1f77b4;stroke:#1f77b4;" x="293.538938" xlink:href="#m2114c42f82" y="125.67624"/>
     <use style="fill:#1f77b4;stroke:#1f77b4;" x="302.466938" xlink:href="#m2114c42f82" y="73.897691"/>
     <use style="fill:#1f77b4;stroke:#1f77b4;" x="311.394938" xlink:href="#m2114c42f82" y="121.453468"/>
     <use style="fill:#1f77b4;stroke:#1f77b4;" x="320.322938" xlink:href="#m2114c42f82" y="226.143244"/>
     <use style="fill:#1f77b4;stroke:#1f77b4;" x="329.250938" xlink:href="#m2114c42f82" y="255.393388"/>
     <use style="fill:#1f77b4;stroke:#1f77b4;" x="338.178938" xlink:href="#m2114c42f82" y="200.468338"/>
     <use style="fill:#1f77b4;stroke:#1f77b4;" x="347.106938" xlink:href="#m2114c42f82" y="109.889649"/>
     <use style="fill:#1f77b4;stroke:#1f77b4;" x="356.034938" xlink:href="#m2114c42f82" y="85.631512"/>
     <use style="fill:#1f77b4;stroke:#1f77b4;" x="364.962938" xlink:href="#m2114c42f82" y="134.4783"/>
     <use style="fill:#1f77b4;stroke:#1f77b4;" x="373.890938" xlink:href="#m2114c42f82" y="215.102041"/>
     <use style="fill:#1f77b4;stroke:#1f77b4;" x="382.818938" xlink:href="#m2114c42f82" y="247.682828"/>
     <use style="fill:#1f77b4;stroke:#1f77b4;" x="391.746938" xlink:href="#m2114c42f82" y="201.012483"/>
     <use style="fill:#1f77b4;stroke:#1f77b4;" x="400.674938" xlink:href="#m2114c42f82" y="131.130654"/>
     <use style="fill:#1f77b4;stroke:#1f77b4;" x="409.602938" xlink:href="#m2114c42f82" y="89.547048"/>
     <use style="fill:#1f77b4;stroke:#1f77b4;" x="418.530938" xlink:href="#m2114c42f82" y="146.3087"/>
    </g>
   </g>
   <g id="line2d_26">
    <path clip-path="url(#pe418aaad8c)" d="M 61.410938 277.178101 
L 70.338938 241.942441 
L 79.266938 152.45469 
L 88.194938 82.024017 
L 97.122938 61.530407 
L 106.050938 103.008799 
L 114.978938 176.399845 
L 123.906938 225.867159 
L 132.834938 206.6019 
L 141.762938 151.164852 
L 150.690938 110.070028 
L 159.618938 110.374394 
L 168.546938 123.210213 
L 177.474938 179.318124 
L 186.402938 207.512345 
L 195.330938 188.015083 
" style="fill:none;stroke:#d62728;stroke-linecap:square;stroke-width:1.5;"/>
    <defs>
     <path d="M 0 3 
C 0.795609 3 1.55874 2.683901 2.12132 2.12132 
C 2.683901 1.55874 3 0.795609 3 0 
C 3 -0.795609 2.683901 -1.55874 2.12132 -2.12132 
C 1.55874 -2.683901 0.795609 -3 0 -3 
C -0.795609 -3 -1.55874 -2.683901 -2.12132 -2.12132 
C -2.683901 -1.55874 -3 -0.795609 -3 0 
C -3 0.795609 -2.683901 1.55874 -2.12132 2.12132 
C -1.55874 2.683901 -0.795609 3 0 3 
z
" id="m66301bc908" style="stroke:#d62728;"/>
    </defs>
    <g clip-path="url(#pe418aaad8c)">
     <use style="fill:#d62728;stroke:#d62728;" x="61.410938" xlink:href="#m66301bc908" y="277.178101"/>
     <use style="fill:#d62728;stroke:#d62728;" x="70.338938" xlink:href="#m66301bc908" y="241.942441"/>
     <use style="fill:#d62728;stroke:#d62728;" x="79.266938" xlink:href="#m66301bc908" y="152.45469"/>
     <use style="fill:#d62728;stroke:#d62728;" x="88.194938" xlink:href="#m66301bc908" y="82.024017"/>
     <use style="fill:#d62728;stroke:#d62728;" x="97.122938" xlink:href="#m66301bc908" y="61.530407"/>
     <use style="fill:#d62728;stroke:#d62728;" x="106.050938" xlink:href="#m66301bc908" y="103.008799"/>
     <use style="fill:#d62728;stroke:#d62728;" x="114.978938" xlink:href="#m66301bc908" y="176.399845"/>
     <use style="fill:#d62728;stroke:#d62728;" x="123.906938" xlink:href="#m66301bc908" y="225.867159"/>
     <use style="fill:#d62728;stroke:#d62728;" x="132.834938" xlink:href="#m66301bc908" y="206.6019"/>
     <use style="fill:#d62728;stroke:#d62728;" x="141.762938" xlink:href="#m66301bc908" y="151.164852"/>
     <use style="fill:#d62728;stroke:#d62728;" x="150.690938" xlink:href="#m66301bc908" y="110.070028"/>
     <use style="fill:#d62728;stroke:#d62728;" x="159.618938" xlink:href="#m66301bc908" y="110.374394"/>
     <use style="fill:#d62728;stroke:#d62728;" x="168.546938" xlink:href="#m66301bc908" y="123.210213"/>
     <use style="fill:#d62728;stroke:#d62728;" x="177.474938" xlink:href="#m66301bc908" y="179.318124"/>
     <use style="fill:#d62728;stroke:#d62728;" x="186.402938" xlink:href="#m66301bc908" y="207.512345"/>
     <use style="fill:#d62728;stroke:#d62728;" x="195.330938" xlink:href="#m66301bc908" y="188.015083"/>
    </g>
   </g>
   <g id="patch_3">
    <path d="M 61.410938 279.010828 
L 61.410938 12.898828 
" style="fill:none;stroke:#000000;stroke-linecap:square;stroke-linejoin:miter;stroke-width:0.8;"/>
   </g>
   <g id="patch_4">
    <path d="M 418.530938 279.010828 
L 418.530938 12.898828 
" style="fill:none;stroke:#000000;stroke-linecap:square;stroke-linejoin:miter;stroke-width:0.8;"/>
   </g>
   <g id="patch_5">
    <path d="M 61.410938 279.010828 
L 418.530938 279.010828 
" style="fill:none;stroke:#000000;stroke-linecap:square;stroke-linejoin:miter;stroke-width:0.8;"/>
   </g>
   <g id="patch_6">
    <path d="M 61.410938 12.898828 
L 418.530938 12.898828 
" style="fill:none;stroke:#000000;stroke-linecap:square;stroke-linejoin:miter;stroke-width:0.8;"/>
   </g>
   <g id="text_14">
    <!-- (C) -->
    <defs>
     <path d="M 64.40625 67.28125 
L 64.40625 56.890625 
Q 59.421875 61.53125 53.78125 63.8125 
Q 48.140625 66.109375 41.796875 66.109375 
Q 29.296875 66.109375 22.65625 58.46875 
Q 16.015625 50.828125 16.015625 36.375 
Q 16.015625 21.96875 22.65625 14.328125 
Q 29.296875 6.6875 41.796875 6.6875 
Q 48.140625 6.6875 53.78125 8.984375 
Q 59.421875 11.28125 64.40625 15.921875 
L 64.40625 5.609375 
Q 59.234375 2.09375 53.4375 0.328125 
Q 47.65625 -1.421875 41.21875 -1.421875 
Q 24.65625 -1.421875 15.125 8.703125 
Q 5.609375 18.84375 5.609375 36.375 
Q 5.609375 53.953125 15.125 64.078125 
Q 24.65625 74.21875 41.21875 74.21875 
Q 47.75 74.21875 53.53125 72.484375 
Q 59.328125 70.75 64.40625 67.28125 
z
" id="DejaVuSans-43"/>
    </defs>
    <g transform="translate(83.730938 39.510028)scale(0.2 -0.2)">
     <use xlink:href="#DejaVuSans-28"/>
     <use x="39.013672" xlink:href="#DejaVuSans-43"/>
     <use x="108.837891" xlink:href="#DejaVuSans-29"/>
    </g>
   </g>
  </g>
 </g>
 <defs>
  <clipPath id="pe418aaad8c">
   <rect height="266.112" width="357.12" x="61.410938" y="12.898828"/>
  </clipPath>
 </defs>
</svg>
