<?xml version="1.0" encoding="utf-8" standalone="no"?>
<!DOCTYPE svg PUBLIC "-//W3C//DTD SVG 1.1//EN"
  "http://www.w3.org/Graphics/SVG/1.1/DTD/svg11.dtd">
<!-- Created with matplotlib (http://matplotlib.org/) -->
<svg height="331pt" version="1.1" viewBox="0 0 429 331" width="429pt" xmlns="http://www.w3.org/2000/svg" xmlns:xlink="http://www.w3.org/1999/xlink">
 <defs>
  <style type="text/css">
*{stroke-linecap:butt;stroke-linejoin:round;}
  </style>
 </defs>
 <g id="figure_1">
  <g id="patch_1">
   <path d="M 0 331.128016 
L 429.230937 331.128016 
L 429.230937 0 
L 0 0 
z
" style="fill:none;"/>
  </g>
  <g id="axes_1">
   <g id="patch_2">
    <path d="M 61.410938 279.010828 
L 418.530938 279.010828 
L 418.530938 12.898828 
L 61.410938 12.898828 
z
" style="fill:none;"/>
   </g>
   <g id="matplotlib.axis_1">
    <g id="xtick_1">
     <g id="line2d_1">
      <path clip-path="url(#pde78e15542)" d="M 61.410938 279.010828 
L 61.410938 12.898828 
" style="fill:none;stroke:#b0b0b0;stroke-linecap:square;stroke-width:0.8;"/>
     </g>
     <g id="line2d_2">
      <defs>
       <path d="M 0 0 
L 0 3.5 
" id="m27bd6aa59d" style="stroke:#000000;stroke-width:0.8;"/>
      </defs>
      <g>
       <use style="stroke:#000000;stroke-width:0.8;" x="61.410938" xlink:href="#m27bd6aa59d" y="279.010828"/>
      </g>
     </g>
     <g id="text_1">
      <!-- 0 -->
      <defs>
       <path d="M 31.78125 66.40625 
Q 24.171875 66.40625 20.328125 58.90625 
Q 16.5 51.421875 16.5 36.375 
Q 16.5 21.390625 20.328125 13.890625 
Q 24.171875 6.390625 31.78125 6.390625 
Q 39.453125 6.390625 43.28125 13.890625 
Q 47.125 21.390625 47.125 36.375 
Q 47.125 51.421875 43.28125 58.90625 
Q 39.453125 66.40625 31.78125 66.40625 
z
M 31.78125 74.21875 
Q 44.046875 74.21875 50.515625 64.515625 
Q 56.984375 54.828125 56.984375 36.375 
Q 56.984375 17.96875 50.515625 8.265625 
Q 44.046875 -1.421875 31.78125 -1.421875 
Q 19.53125 -1.421875 13.0625 8.265625 
Q 6.59375 17.96875 6.59375 36.375 
Q 6.59375 54.828125 13.0625 64.515625 
Q 19.53125 74.21875 31.78125 74.21875 
z
" id="DejaVuSans-30"/>
      </defs>
      <g transform="translate(56.639063 297.408484)scale(0.15 -0.15)">
       <use xlink:href="#DejaVuSans-30"/>
      </g>
     </g>
    </g>
    <g id="xtick_2">
     <g id="line2d_3">
      <path clip-path="url(#pde78e15542)" d="M 160.610938 279.010828 
L 160.610938 12.898828 
" style="fill:none;stroke:#b0b0b0;stroke-linecap:square;stroke-width:0.8;"/>
     </g>
     <g id="line2d_4">
      <g>
       <use style="stroke:#000000;stroke-width:0.8;" x="160.610938" xlink:href="#m27bd6aa59d" y="279.010828"/>
      </g>
     </g>
     <g id="text_2">
      <!-- 50 -->
      <defs>
       <path d="M 10.796875 72.90625 
L 49.515625 72.90625 
L 49.515625 64.59375 
L 19.828125 64.59375 
L 19.828125 46.734375 
Q 21.96875 47.46875 24.109375 47.828125 
Q 26.265625 48.1875 28.421875 48.1875 
Q 40.625 48.1875 47.75 41.5 
Q 54.890625 34.8125 54.890625 23.390625 
Q 54.890625 11.625 47.5625 5.09375 
Q 40.234375 -1.421875 26.90625 -1.421875 
Q 22.3125 -1.421875 17.546875 -0.640625 
Q 12.796875 0.140625 7.71875 1.703125 
L 7.71875 11.625 
Q 12.109375 9.234375 16.796875 8.0625 
Q 21.484375 6.890625 26.703125 6.890625 
Q 35.15625 6.890625 40.078125 11.328125 
Q 45.015625 15.765625 45.015625 23.390625 
Q 45.015625 31 40.078125 35.4375 
Q 35.15625 39.890625 26.703125 39.890625 
Q 22.75 39.890625 18.8125 39.015625 
Q 14.890625 38.140625 10.796875 36.28125 
z
" id="DejaVuSans-35"/>
      </defs>
      <g transform="translate(151.067188 297.408484)scale(0.15 -0.15)">
       <use xlink:href="#DejaVuSans-35"/>
       <use x="63.623047" xlink:href="#DejaVuSans-30"/>
      </g>
     </g>
    </g>
    <g id="xtick_3">
     <g id="line2d_5">
      <path clip-path="url(#pde78e15542)" d="M 259.810938 279.010828 
L 259.810938 12.898828 
" style="fill:none;stroke:#b0b0b0;stroke-linecap:square;stroke-width:0.8;"/>
     </g>
     <g id="line2d_6">
      <g>
       <use style="stroke:#000000;stroke-width:0.8;" x="259.810938" xlink:href="#m27bd6aa59d" y="279.010828"/>
      </g>
     </g>
     <g id="text_3">
      <!-- 100 -->
      <defs>
       <path d="M 12.40625 8.296875 
L 28.515625 8.296875 
L 28.515625 63.921875 
L 10.984375 60.40625 
L 10.984375 69.390625 
L 28.421875 72.90625 
L 38.28125 72.90625 
L 38.28125 8.296875 
L 54.390625 8.296875 
L 54.390625 0 
L 12.40625 0 
z
" id="DejaVuSans-31"/>
      </defs>
      <g transform="translate(245.495313 297.408484)scale(0.15 -0.15)">
       <use xlink:href="#DejaVuSans-31"/>
       <use x="63.623047" xlink:href="#DejaVuSans-30"/>
       <use x="127.246094" xlink:href="#DejaVuSans-30"/>
      </g>
     </g>
    </g>
    <g id="xtick_4">
     <g id="line2d_7">
      <path clip-path="url(#pde78e15542)" d="M 359.010938 279.010828 
L 359.010938 12.898828 
" style="fill:none;stroke:#b0b0b0;stroke-linecap:square;stroke-width:0.8;"/>
     </g>
     <g id="line2d_8">
      <g>
       <use style="stroke:#000000;stroke-width:0.8;" x="359.010938" xlink:href="#m27bd6aa59d" y="279.010828"/>
      </g>
     </g>
     <g id="text_4">
      <!-- 150 -->
      <g transform="translate(344.695313 297.408484)scale(0.15 -0.15)">
       <use xlink:href="#DejaVuSans-31"/>
       <use x="63.623047" xlink:href="#DejaVuSans-35"/>
       <use x="127.246094" xlink:href="#DejaVuSans-30"/>
      </g>
     </g>
    </g>
    <g id="text_5">
     <!-- Time ($\mu s$) -->
     <defs>
      <path d="M -0.296875 72.90625 
L 61.375 72.90625 
L 61.375 64.59375 
L 35.5 64.59375 
L 35.5 0 
L 25.59375 0 
L 25.59375 64.59375 
L -0.296875 64.59375 
z
" id="DejaVuSans-54"/>
      <path d="M 9.421875 54.6875 
L 18.40625 54.6875 
L 18.40625 0 
L 9.421875 0 
z
M 9.421875 75.984375 
L 18.40625 75.984375 
L 18.40625 64.59375 
L 9.421875 64.59375 
z
" id="DejaVuSans-69"/>
      <path d="M 52 44.1875 
Q 55.375 50.25 60.0625 53.125 
Q 64.75 56 71.09375 56 
Q 79.640625 56 84.28125 50.015625 
Q 88.921875 44.046875 88.921875 33.015625 
L 88.921875 0 
L 79.890625 0 
L 79.890625 32.71875 
Q 79.890625 40.578125 77.09375 44.375 
Q 74.3125 48.1875 68.609375 48.1875 
Q 61.625 48.1875 57.5625 43.546875 
Q 53.515625 38.921875 53.515625 30.90625 
L 53.515625 0 
L 44.484375 0 
L 44.484375 32.71875 
Q 44.484375 40.625 41.703125 44.40625 
Q 38.921875 48.1875 33.109375 48.1875 
Q 26.21875 48.1875 22.15625 43.53125 
Q 18.109375 38.875 18.109375 30.90625 
L 18.109375 0 
L 9.078125 0 
L 9.078125 54.6875 
L 18.109375 54.6875 
L 18.109375 46.1875 
Q 21.1875 51.21875 25.484375 53.609375 
Q 29.78125 56 35.6875 56 
Q 41.65625 56 45.828125 52.96875 
Q 50 49.953125 52 44.1875 
z
" id="DejaVuSans-6d"/>
      <path d="M 56.203125 29.59375 
L 56.203125 25.203125 
L 14.890625 25.203125 
Q 15.484375 15.921875 20.484375 11.0625 
Q 25.484375 6.203125 34.421875 6.203125 
Q 39.59375 6.203125 44.453125 7.46875 
Q 49.3125 8.734375 54.109375 11.28125 
L 54.109375 2.78125 
Q 49.265625 0.734375 44.1875 -0.34375 
Q 39.109375 -1.421875 33.890625 -1.421875 
Q 20.796875 -1.421875 13.15625 6.1875 
Q 5.515625 13.8125 5.515625 26.8125 
Q 5.515625 40.234375 12.765625 48.109375 
Q 20.015625 56 32.328125 56 
Q 43.359375 56 49.78125 48.890625 
Q 56.203125 41.796875 56.203125 29.59375 
z
M 47.21875 32.234375 
Q 47.125 39.59375 43.09375 43.984375 
Q 39.0625 48.390625 32.421875 48.390625 
Q 24.90625 48.390625 20.390625 44.140625 
Q 15.875 39.890625 15.1875 32.171875 
z
" id="DejaVuSans-65"/>
      <path id="DejaVuSans-20"/>
      <path d="M 31 75.875 
Q 24.46875 64.65625 21.28125 53.65625 
Q 18.109375 42.671875 18.109375 31.390625 
Q 18.109375 20.125 21.3125 9.0625 
Q 24.515625 -2 31 -13.1875 
L 23.1875 -13.1875 
Q 15.875 -1.703125 12.234375 9.375 
Q 8.59375 20.453125 8.59375 31.390625 
Q 8.59375 42.28125 12.203125 53.3125 
Q 15.828125 64.359375 23.1875 75.875 
z
" id="DejaVuSans-28"/>
      <path d="M -1.3125 -20.796875 
L 13.375 54.6875 
L 22.40625 54.6875 
L 15.765625 20.65625 
Q 15.578125 19.625 15.421875 18.359375 
Q 15.28125 17.09375 15.28125 15.828125 
Q 15.28125 11.28125 18.140625 8.828125 
Q 21 6.390625 26.3125 6.390625 
Q 33.546875 6.390625 37.984375 10.484375 
Q 42.4375 14.59375 44 22.796875 
L 50.203125 54.6875 
L 59.1875 54.6875 
L 51.03125 12.640625 
Q 50.828125 11.71875 50.75 11.03125 
Q 50.6875 10.359375 50.6875 9.8125 
Q 50.6875 8.296875 51.296875 7.59375 
Q 51.90625 6.890625 53.21875 6.890625 
Q 53.71875 6.890625 54.5625 7.125 
Q 55.421875 7.375 56.984375 8.015625 
L 55.609375 0.78125 
Q 53.46875 -0.296875 51.515625 -0.859375 
Q 49.5625 -1.421875 47.703125 -1.421875 
Q 44.484375 -1.421875 42.65625 0.625 
Q 40.828125 2.6875 40.828125 6.296875 
Q 38.09375 2.390625 34.296875 0.484375 
Q 30.515625 -1.421875 25.390625 -1.421875 
Q 20.84375 -1.421875 17.453125 0.671875 
Q 14.0625 2.78125 12.984375 6.203125 
L 7.71875 -20.796875 
z
" id="DejaVuSans-Oblique-3bc"/>
      <path d="M 50 53.078125 
L 48.296875 44.578125 
Q 44.734375 46.53125 40.765625 47.5 
Q 36.8125 48.484375 32.625 48.484375 
Q 25.53125 48.484375 21.453125 46.0625 
Q 17.390625 43.65625 17.390625 39.5 
Q 17.390625 34.671875 26.859375 32.078125 
Q 27.59375 31.890625 27.9375 31.78125 
L 30.8125 30.90625 
Q 39.796875 28.421875 42.796875 25.6875 
Q 45.796875 22.953125 45.796875 18.21875 
Q 45.796875 9.515625 38.890625 4.046875 
Q 31.984375 -1.421875 20.796875 -1.421875 
Q 16.453125 -1.421875 11.671875 -0.578125 
Q 6.890625 0.25 1.125 2 
L 2.875 11.28125 
Q 7.8125 8.734375 12.59375 7.421875 
Q 17.390625 6.109375 21.78125 6.109375 
Q 28.375 6.109375 32.5 8.9375 
Q 36.625 11.765625 36.625 16.109375 
Q 36.625 20.796875 25.78125 23.6875 
L 24.859375 23.921875 
L 21.78125 24.703125 
Q 14.9375 26.515625 11.765625 29.46875 
Q 8.59375 32.421875 8.59375 37.015625 
Q 8.59375 45.75 15.15625 50.875 
Q 21.734375 56 33.015625 56 
Q 37.453125 56 41.671875 55.265625 
Q 45.90625 54.546875 50 53.078125 
z
" id="DejaVuSans-Oblique-73"/>
      <path d="M 8.015625 75.875 
L 15.828125 75.875 
Q 23.140625 64.359375 26.78125 53.3125 
Q 30.421875 42.28125 30.421875 31.390625 
Q 30.421875 20.453125 26.78125 9.375 
Q 23.140625 -1.703125 15.828125 -13.1875 
L 8.015625 -13.1875 
Q 14.5 -2 17.703125 9.0625 
Q 20.90625 20.125 20.90625 31.390625 
Q 20.90625 42.671875 17.703125 53.65625 
Q 14.5 64.65625 8.015625 75.875 
z
" id="DejaVuSans-29"/>
     </defs>
     <g transform="translate(192.570938 319.728016)scale(0.2 -0.2)">
      <use transform="translate(0 0.015625)" xlink:href="#DejaVuSans-54"/>
      <use transform="translate(61.083984 0.015625)" xlink:href="#DejaVuSans-69"/>
      <use transform="translate(88.867188 0.015625)" xlink:href="#DejaVuSans-6d"/>
      <use transform="translate(186.279297 0.015625)" xlink:href="#DejaVuSans-65"/>
      <use transform="translate(247.802734 0.015625)" xlink:href="#DejaVuSans-20"/>
      <use transform="translate(279.589844 0.015625)" xlink:href="#DejaVuSans-28"/>
      <use transform="translate(318.603516 0.015625)" xlink:href="#DejaVuSans-Oblique-3bc"/>
      <use transform="translate(382.226562 0.015625)" xlink:href="#DejaVuSans-Oblique-73"/>
      <use transform="translate(434.326172 0.015625)" xlink:href="#DejaVuSans-29"/>
     </g>
    </g>
   </g>
   <g id="matplotlib.axis_2">
    <g id="ytick_1">
     <g id="line2d_9">
      <path clip-path="url(#pde78e15542)" d="M 61.410938 279.010828 
L 418.530938 279.010828 
" style="fill:none;stroke:#b0b0b0;stroke-linecap:square;stroke-width:0.8;"/>
     </g>
     <g id="line2d_10">
      <defs>
       <path d="M 0 0 
L -3.5 0 
" id="m842a6199ee" style="stroke:#000000;stroke-width:0.8;"/>
      </defs>
      <g>
       <use style="stroke:#000000;stroke-width:0.8;" x="61.410938" xlink:href="#m842a6199ee" y="279.010828"/>
      </g>
     </g>
     <g id="text_6">
      <!-- 0.0 -->
      <defs>
       <path d="M 10.6875 12.40625 
L 21 12.40625 
L 21 0 
L 10.6875 0 
z
" id="DejaVuSans-2e"/>
      </defs>
      <g transform="translate(30.55625 284.709656)scale(0.15 -0.15)">
       <use xlink:href="#DejaVuSans-30"/>
       <use x="63.623047" xlink:href="#DejaVuSans-2e"/>
       <use x="95.410156" xlink:href="#DejaVuSans-30"/>
      </g>
     </g>
    </g>
    <g id="ytick_2">
     <g id="line2d_11">
      <path clip-path="url(#pde78e15542)" d="M 61.410938 225.788428 
L 418.530938 225.788428 
" style="fill:none;stroke:#b0b0b0;stroke-linecap:square;stroke-width:0.8;"/>
     </g>
     <g id="line2d_12">
      <g>
       <use style="stroke:#000000;stroke-width:0.8;" x="61.410938" xlink:href="#m842a6199ee" y="225.788428"/>
      </g>
     </g>
     <g id="text_7">
      <!-- 0.2 -->
      <defs>
       <path d="M 19.1875 8.296875 
L 53.609375 8.296875 
L 53.609375 0 
L 7.328125 0 
L 7.328125 8.296875 
Q 12.9375 14.109375 22.625 23.890625 
Q 32.328125 33.6875 34.8125 36.53125 
Q 39.546875 41.84375 41.421875 45.53125 
Q 43.3125 49.21875 43.3125 52.78125 
Q 43.3125 58.59375 39.234375 62.25 
Q 35.15625 65.921875 28.609375 65.921875 
Q 23.96875 65.921875 18.8125 64.3125 
Q 13.671875 62.703125 7.8125 59.421875 
L 7.8125 69.390625 
Q 13.765625 71.78125 18.9375 73 
Q 24.125 74.21875 28.421875 74.21875 
Q 39.75 74.21875 46.484375 68.546875 
Q 53.21875 62.890625 53.21875 53.421875 
Q 53.21875 48.921875 51.53125 44.890625 
Q 49.859375 40.875 45.40625 35.40625 
Q 44.1875 33.984375 37.640625 27.21875 
Q 31.109375 20.453125 19.1875 8.296875 
z
" id="DejaVuSans-32"/>
      </defs>
      <g transform="translate(30.55625 231.487256)scale(0.15 -0.15)">
       <use xlink:href="#DejaVuSans-30"/>
       <use x="63.623047" xlink:href="#DejaVuSans-2e"/>
       <use x="95.410156" xlink:href="#DejaVuSans-32"/>
      </g>
     </g>
    </g>
    <g id="ytick_3">
     <g id="line2d_13">
      <path clip-path="url(#pde78e15542)" d="M 61.410938 172.566028 
L 418.530938 172.566028 
" style="fill:none;stroke:#b0b0b0;stroke-linecap:square;stroke-width:0.8;"/>
     </g>
     <g id="line2d_14">
      <g>
       <use style="stroke:#000000;stroke-width:0.8;" x="61.410938" xlink:href="#m842a6199ee" y="172.566028"/>
      </g>
     </g>
     <g id="text_8">
      <!-- 0.4 -->
      <defs>
       <path d="M 37.796875 64.3125 
L 12.890625 25.390625 
L 37.796875 25.390625 
z
M 35.203125 72.90625 
L 47.609375 72.90625 
L 47.609375 25.390625 
L 58.015625 25.390625 
L 58.015625 17.1875 
L 47.609375 17.1875 
L 47.609375 0 
L 37.796875 0 
L 37.796875 17.1875 
L 4.890625 17.1875 
L 4.890625 26.703125 
z
" id="DejaVuSans-34"/>
      </defs>
      <g transform="translate(30.55625 178.264856)scale(0.15 -0.15)">
       <use xlink:href="#DejaVuSans-30"/>
       <use x="63.623047" xlink:href="#DejaVuSans-2e"/>
       <use x="95.410156" xlink:href="#DejaVuSans-34"/>
      </g>
     </g>
    </g>
    <g id="ytick_4">
     <g id="line2d_15">
      <path clip-path="url(#pde78e15542)" d="M 61.410938 119.343628 
L 418.530938 119.343628 
" style="fill:none;stroke:#b0b0b0;stroke-linecap:square;stroke-width:0.8;"/>
     </g>
     <g id="line2d_16">
      <g>
       <use style="stroke:#000000;stroke-width:0.8;" x="61.410938" xlink:href="#m842a6199ee" y="119.343628"/>
      </g>
     </g>
     <g id="text_9">
      <!-- 0.6 -->
      <defs>
       <path d="M 33.015625 40.375 
Q 26.375 40.375 22.484375 35.828125 
Q 18.609375 31.296875 18.609375 23.390625 
Q 18.609375 15.53125 22.484375 10.953125 
Q 26.375 6.390625 33.015625 6.390625 
Q 39.65625 6.390625 43.53125 10.953125 
Q 47.40625 15.53125 47.40625 23.390625 
Q 47.40625 31.296875 43.53125 35.828125 
Q 39.65625 40.375 33.015625 40.375 
z
M 52.59375 71.296875 
L 52.59375 62.3125 
Q 48.875 64.0625 45.09375 64.984375 
Q 41.3125 65.921875 37.59375 65.921875 
Q 27.828125 65.921875 22.671875 59.328125 
Q 17.53125 52.734375 16.796875 39.40625 
Q 19.671875 43.65625 24.015625 45.921875 
Q 28.375 48.1875 33.59375 48.1875 
Q 44.578125 48.1875 50.953125 41.515625 
Q 57.328125 34.859375 57.328125 23.390625 
Q 57.328125 12.15625 50.6875 5.359375 
Q 44.046875 -1.421875 33.015625 -1.421875 
Q 20.359375 -1.421875 13.671875 8.265625 
Q 6.984375 17.96875 6.984375 36.375 
Q 6.984375 53.65625 15.1875 63.9375 
Q 23.390625 74.21875 37.203125 74.21875 
Q 40.921875 74.21875 44.703125 73.484375 
Q 48.484375 72.75 52.59375 71.296875 
z
" id="DejaVuSans-36"/>
      </defs>
      <g transform="translate(30.55625 125.042456)scale(0.15 -0.15)">
       <use xlink:href="#DejaVuSans-30"/>
       <use x="63.623047" xlink:href="#DejaVuSans-2e"/>
       <use x="95.410156" xlink:href="#DejaVuSans-36"/>
      </g>
     </g>
    </g>
    <g id="ytick_5">
     <g id="line2d_17">
      <path clip-path="url(#pde78e15542)" d="M 61.410938 66.121228 
L 418.530938 66.121228 
" style="fill:none;stroke:#b0b0b0;stroke-linecap:square;stroke-width:0.8;"/>
     </g>
     <g id="line2d_18">
      <g>
       <use style="stroke:#000000;stroke-width:0.8;" x="61.410938" xlink:href="#m842a6199ee" y="66.121228"/>
      </g>
     </g>
     <g id="text_10">
      <!-- 0.8 -->
      <defs>
       <path d="M 31.78125 34.625 
Q 24.75 34.625 20.71875 30.859375 
Q 16.703125 27.09375 16.703125 20.515625 
Q 16.703125 13.921875 20.71875 10.15625 
Q 24.75 6.390625 31.78125 6.390625 
Q 38.8125 6.390625 42.859375 10.171875 
Q 46.921875 13.96875 46.921875 20.515625 
Q 46.921875 27.09375 42.890625 30.859375 
Q 38.875 34.625 31.78125 34.625 
z
M 21.921875 38.8125 
Q 15.578125 40.375 12.03125 44.71875 
Q 8.5 49.078125 8.5 55.328125 
Q 8.5 64.0625 14.71875 69.140625 
Q 20.953125 74.21875 31.78125 74.21875 
Q 42.671875 74.21875 48.875 69.140625 
Q 55.078125 64.0625 55.078125 55.328125 
Q 55.078125 49.078125 51.53125 44.71875 
Q 48 40.375 41.703125 38.8125 
Q 48.828125 37.15625 52.796875 32.3125 
Q 56.78125 27.484375 56.78125 20.515625 
Q 56.78125 9.90625 50.3125 4.234375 
Q 43.84375 -1.421875 31.78125 -1.421875 
Q 19.734375 -1.421875 13.25 4.234375 
Q 6.78125 9.90625 6.78125 20.515625 
Q 6.78125 27.484375 10.78125 32.3125 
Q 14.796875 37.15625 21.921875 38.8125 
z
M 18.3125 54.390625 
Q 18.3125 48.734375 21.84375 45.5625 
Q 25.390625 42.390625 31.78125 42.390625 
Q 38.140625 42.390625 41.71875 45.5625 
Q 45.3125 48.734375 45.3125 54.390625 
Q 45.3125 60.0625 41.71875 63.234375 
Q 38.140625 66.40625 31.78125 66.40625 
Q 25.390625 66.40625 21.84375 63.234375 
Q 18.3125 60.0625 18.3125 54.390625 
z
" id="DejaVuSans-38"/>
      </defs>
      <g transform="translate(30.55625 71.820056)scale(0.15 -0.15)">
       <use xlink:href="#DejaVuSans-30"/>
       <use x="63.623047" xlink:href="#DejaVuSans-2e"/>
       <use x="95.410156" xlink:href="#DejaVuSans-38"/>
      </g>
     </g>
    </g>
    <g id="ytick_6">
     <g id="line2d_19">
      <path clip-path="url(#pde78e15542)" d="M 61.410938 12.898828 
L 418.530938 12.898828 
" style="fill:none;stroke:#b0b0b0;stroke-linecap:square;stroke-width:0.8;"/>
     </g>
     <g id="line2d_20">
      <g>
       <use style="stroke:#000000;stroke-width:0.8;" x="61.410938" xlink:href="#m842a6199ee" y="12.898828"/>
      </g>
     </g>
     <g id="text_11">
      <!-- 1.0 -->
      <g transform="translate(30.55625 18.597656)scale(0.15 -0.15)">
       <use xlink:href="#DejaVuSans-31"/>
       <use x="63.623047" xlink:href="#DejaVuSans-2e"/>
       <use x="95.410156" xlink:href="#DejaVuSans-30"/>
      </g>
     </g>
    </g>
    <g id="text_12">
     <!-- Survival -->
     <defs>
      <path d="M 53.515625 70.515625 
L 53.515625 60.890625 
Q 47.90625 63.578125 42.921875 64.890625 
Q 37.9375 66.21875 33.296875 66.21875 
Q 25.25 66.21875 20.875 63.09375 
Q 16.5 59.96875 16.5 54.203125 
Q 16.5 49.359375 19.40625 46.890625 
Q 22.3125 44.4375 30.421875 42.921875 
L 36.375 41.703125 
Q 47.40625 39.59375 52.65625 34.296875 
Q 57.90625 29 57.90625 20.125 
Q 57.90625 9.515625 50.796875 4.046875 
Q 43.703125 -1.421875 29.984375 -1.421875 
Q 24.8125 -1.421875 18.96875 -0.25 
Q 13.140625 0.921875 6.890625 3.21875 
L 6.890625 13.375 
Q 12.890625 10.015625 18.65625 8.296875 
Q 24.421875 6.59375 29.984375 6.59375 
Q 38.421875 6.59375 43.015625 9.90625 
Q 47.609375 13.234375 47.609375 19.390625 
Q 47.609375 24.75 44.3125 27.78125 
Q 41.015625 30.8125 33.5 32.328125 
L 27.484375 33.5 
Q 16.453125 35.6875 11.515625 40.375 
Q 6.59375 45.0625 6.59375 53.421875 
Q 6.59375 63.09375 13.40625 68.65625 
Q 20.21875 74.21875 32.171875 74.21875 
Q 37.3125 74.21875 42.625 73.28125 
Q 47.953125 72.359375 53.515625 70.515625 
z
" id="DejaVuSans-53"/>
      <path d="M 8.5 21.578125 
L 8.5 54.6875 
L 17.484375 54.6875 
L 17.484375 21.921875 
Q 17.484375 14.15625 20.5 10.265625 
Q 23.53125 6.390625 29.59375 6.390625 
Q 36.859375 6.390625 41.078125 11.03125 
Q 45.3125 15.671875 45.3125 23.6875 
L 45.3125 54.6875 
L 54.296875 54.6875 
L 54.296875 0 
L 45.3125 0 
L 45.3125 8.40625 
Q 42.046875 3.421875 37.71875 1 
Q 33.40625 -1.421875 27.6875 -1.421875 
Q 18.265625 -1.421875 13.375 4.4375 
Q 8.5 10.296875 8.5 21.578125 
z
M 31.109375 56 
z
" id="DejaVuSans-75"/>
      <path d="M 41.109375 46.296875 
Q 39.59375 47.171875 37.8125 47.578125 
Q 36.03125 48 33.890625 48 
Q 26.265625 48 22.1875 43.046875 
Q 18.109375 38.09375 18.109375 28.8125 
L 18.109375 0 
L 9.078125 0 
L 9.078125 54.6875 
L 18.109375 54.6875 
L 18.109375 46.1875 
Q 20.953125 51.171875 25.484375 53.578125 
Q 30.03125 56 36.53125 56 
Q 37.453125 56 38.578125 55.875 
Q 39.703125 55.765625 41.0625 55.515625 
z
" id="DejaVuSans-72"/>
      <path d="M 2.984375 54.6875 
L 12.5 54.6875 
L 29.59375 8.796875 
L 46.6875 54.6875 
L 56.203125 54.6875 
L 35.6875 0 
L 23.484375 0 
z
" id="DejaVuSans-76"/>
      <path d="M 34.28125 27.484375 
Q 23.390625 27.484375 19.1875 25 
Q 14.984375 22.515625 14.984375 16.5 
Q 14.984375 11.71875 18.140625 8.90625 
Q 21.296875 6.109375 26.703125 6.109375 
Q 34.1875 6.109375 38.703125 11.40625 
Q 43.21875 16.703125 43.21875 25.484375 
L 43.21875 27.484375 
z
M 52.203125 31.203125 
L 52.203125 0 
L 43.21875 0 
L 43.21875 8.296875 
Q 40.140625 3.328125 35.546875 0.953125 
Q 30.953125 -1.421875 24.3125 -1.421875 
Q 15.921875 -1.421875 10.953125 3.296875 
Q 6 8.015625 6 15.921875 
Q 6 25.140625 12.171875 29.828125 
Q 18.359375 34.515625 30.609375 34.515625 
L 43.21875 34.515625 
L 43.21875 35.40625 
Q 43.21875 41.609375 39.140625 45 
Q 35.0625 48.390625 27.6875 48.390625 
Q 23 48.390625 18.546875 47.265625 
Q 14.109375 46.140625 10.015625 43.890625 
L 10.015625 52.203125 
Q 14.9375 54.109375 19.578125 55.046875 
Q 24.21875 56 28.609375 56 
Q 40.484375 56 46.34375 49.84375 
Q 52.203125 43.703125 52.203125 31.203125 
z
" id="DejaVuSans-61"/>
      <path d="M 9.421875 75.984375 
L 18.40625 75.984375 
L 18.40625 0 
L 9.421875 0 
z
" id="DejaVuSans-6c"/>
     </defs>
     <g transform="translate(22.396875 186.273578)rotate(-90)scale(0.2 -0.2)">
      <use xlink:href="#DejaVuSans-53"/>
      <use x="63.476562" xlink:href="#DejaVuSans-75"/>
      <use x="126.855469" xlink:href="#DejaVuSans-72"/>
      <use x="167.96875" xlink:href="#DejaVuSans-76"/>
      <use x="227.148438" xlink:href="#DejaVuSans-69"/>
      <use x="254.931641" xlink:href="#DejaVuSans-76"/>
      <use x="314.111328" xlink:href="#DejaVuSans-61"/>
      <use x="375.390625" xlink:href="#DejaVuSans-6c"/>
     </g>
    </g>
   </g>
   <g id="LineCollection_1">
    <path clip-path="url(#pde78e15542)" d="M 61.410938 278.752732 
L 61.410938 277.24782 
" style="fill:none;stroke:#1f77b4;stroke-width:1.5;"/>
    <path clip-path="url(#pde78e15542)" d="M 73.314938 239.985501 
L 73.314938 229.802734 
" style="fill:none;stroke:#1f77b4;stroke-width:1.5;"/>
    <path clip-path="url(#pde78e15542)" d="M 85.218938 134.961002 
L 85.218938 120.967313 
" style="fill:none;stroke:#1f77b4;stroke-width:1.5;"/>
    <path clip-path="url(#pde78e15542)" d="M 97.122938 70.188173 
L 97.122938 59.407095 
" style="fill:none;stroke:#1f77b4;stroke-width:1.5;"/>
    <path clip-path="url(#pde78e15542)" d="M 109.026938 106.780084 
L 109.026938 93.788426 
" style="fill:none;stroke:#1f77b4;stroke-width:1.5;"/>
    <path clip-path="url(#pde78e15542)" d="M 120.930938 168.091811 
L 120.930938 154.54994 
" style="fill:none;stroke:#1f77b4;stroke-width:1.5;"/>
    <path clip-path="url(#pde78e15542)" d="M 132.834938 239.128301 
L 132.834938 228.747014 
" style="fill:none;stroke:#1f77b4;stroke-width:1.5;"/>
    <path clip-path="url(#pde78e15542)" d="M 144.738938 259.35843 
L 144.738938 251.61968 
" style="fill:none;stroke:#1f77b4;stroke-width:1.5;"/>
    <path clip-path="url(#pde78e15542)" d="M 156.642938 212.933534 
L 156.642938 200.768122 
" style="fill:none;stroke:#1f77b4;stroke-width:1.5;"/>
    <path clip-path="url(#pde78e15542)" d="M 168.546938 143.645459 
L 168.546938 130.008492 
" style="fill:none;stroke:#1f77b4;stroke-width:1.5;"/>
    <path clip-path="url(#pde78e15542)" d="M 180.450938 93.81925 
L 180.450938 81.534755 
" style="fill:none;stroke:#1f77b4;stroke-width:1.5;"/>
    <path clip-path="url(#pde78e15542)" d="M 192.354938 101.290687 
L 192.354938 88.747969 
" style="fill:none;stroke:#1f77b4;stroke-width:1.5;"/>
    <path clip-path="url(#pde78e15542)" d="M 204.258938 180.533189 
L 204.258938 166.816467 
" style="fill:none;stroke:#1f77b4;stroke-width:1.5;"/>
    <path clip-path="url(#pde78e15542)" d="M 216.162938 246.777473 
L 216.162938 237.324183 
" style="fill:none;stroke:#1f77b4;stroke-width:1.5;"/>
    <path clip-path="url(#pde78e15542)" d="M 228.066938 259.200149 
L 228.066938 251.402614 
" style="fill:none;stroke:#1f77b4;stroke-width:1.5;"/>
    <path clip-path="url(#pde78e15542)" d="M 239.970938 203.286642 
L 239.970938 190.815509 
" style="fill:none;stroke:#1f77b4;stroke-width:1.5;"/>
    <path clip-path="url(#pde78e15542)" d="M 251.874938 133.825991 
L 251.874938 120.169859 
" style="fill:none;stroke:#1f77b4;stroke-width:1.5;"/>
    <path clip-path="url(#pde78e15542)" d="M 263.778938 87.127883 
L 263.778938 75.43113 
" style="fill:none;stroke:#1f77b4;stroke-width:1.5;"/>
    <path clip-path="url(#pde78e15542)" d="M 275.682938 100.875634 
L 275.682938 88.069706 
" style="fill:none;stroke:#1f77b4;stroke-width:1.5;"/>
    <path clip-path="url(#pde78e15542)" d="M 287.586938 190.12636 
L 287.586938 177.337708 
" style="fill:none;stroke:#1f77b4;stroke-width:1.5;"/>
    <path clip-path="url(#pde78e15542)" d="M 299.490938 253.542179 
L 299.490938 244.954424 
" style="fill:none;stroke:#1f77b4;stroke-width:1.5;"/>
    <path clip-path="url(#pde78e15542)" d="M 311.394938 250.779687 
L 311.394938 241.917318 
" style="fill:none;stroke:#1f77b4;stroke-width:1.5;"/>
    <path clip-path="url(#pde78e15542)" d="M 323.298938 184.652935 
L 323.298938 171.56142 
" style="fill:none;stroke:#1f77b4;stroke-width:1.5;"/>
    <path clip-path="url(#pde78e15542)" d="M 335.202938 119.732742 
L 335.202938 106.521985 
" style="fill:none;stroke:#1f77b4;stroke-width:1.5;"/>
    <path clip-path="url(#pde78e15542)" d="M 347.106938 97.741138 
L 347.106938 85.1415 
" style="fill:none;stroke:#1f77b4;stroke-width:1.5;"/>
    <path clip-path="url(#pde78e15542)" d="M 359.010938 131.859477 
L 359.010938 118.699442 
" style="fill:none;stroke:#1f77b4;stroke-width:1.5;"/>
    <path clip-path="url(#pde78e15542)" d="M 370.914938 197.478694 
L 370.914938 184.353424 
" style="fill:none;stroke:#1f77b4;stroke-width:1.5;"/>
    <path clip-path="url(#pde78e15542)" d="M 382.818938 250.644586 
L 382.818938 241.405015 
" style="fill:none;stroke:#1f77b4;stroke-width:1.5;"/>
    <path clip-path="url(#pde78e15542)" d="M 394.722938 245.845598 
L 394.722938 236.038458 
" style="fill:none;stroke:#1f77b4;stroke-width:1.5;"/>
    <path clip-path="url(#pde78e15542)" d="M 406.626938 174.578149 
L 406.626938 160.968152 
" style="fill:none;stroke:#1f77b4;stroke-width:1.5;"/>
    <path clip-path="url(#pde78e15542)" d="M 418.530938 114.878036 
L 418.530938 101.886003 
" style="fill:none;stroke:#1f77b4;stroke-width:1.5;"/>
   </g>
   <g id="LineCollection_2">
    <path clip-path="url(#pde78e15542)" d="M 61.410938 278.391482 
L 61.410938 276.543028 
" style="fill:none;stroke:#d62728;stroke-width:1.5;"/>
    <path clip-path="url(#pde78e15542)" d="M 77.282938 193.203592 
L 77.282938 180.686778 
" style="fill:none;stroke:#d62728;stroke-width:1.5;"/>
    <path clip-path="url(#pde78e15542)" d="M 93.154938 115.372936 
L 93.154938 102.997572 
" style="fill:none;stroke:#d62728;stroke-width:1.5;"/>
    <path clip-path="url(#pde78e15542)" d="M 109.026938 152.903938 
L 109.026938 139.664412 
" style="fill:none;stroke:#d62728;stroke-width:1.5;"/>
    <path clip-path="url(#pde78e15542)" d="M 124.898938 174.369385 
L 124.898938 161.685019 
" style="fill:none;stroke:#d62728;stroke-width:1.5;"/>
    <path clip-path="url(#pde78e15542)" d="M 140.770938 188.410619 
L 140.770938 175.901825 
" style="fill:none;stroke:#d62728;stroke-width:1.5;"/>
    <path clip-path="url(#pde78e15542)" d="M 156.642938 190.3316 
L 156.642938 177.967854 
" style="fill:none;stroke:#d62728;stroke-width:1.5;"/>
    <path clip-path="url(#pde78e15542)" d="M 172.514938 180.643325 
L 172.514938 167.926542 
" style="fill:none;stroke:#d62728;stroke-width:1.5;"/>
    <path clip-path="url(#pde78e15542)" d="M 188.386938 168.385763 
L 188.386938 155.107893 
" style="fill:none;stroke:#d62728;stroke-width:1.5;"/>
    <path clip-path="url(#pde78e15542)" d="M 204.258938 168.101731 
L 204.258938 154.920523 
" style="fill:none;stroke:#d62728;stroke-width:1.5;"/>
    <path clip-path="url(#pde78e15542)" d="M 220.130938 170.535276 
L 220.130938 157.131032 
" style="fill:none;stroke:#d62728;stroke-width:1.5;"/>
    <path clip-path="url(#pde78e15542)" d="M 236.002938 177.261504 
L 236.002938 164.382676 
" style="fill:none;stroke:#d62728;stroke-width:1.5;"/>
    <path clip-path="url(#pde78e15542)" d="M 251.874938 208.59655 
L 251.874938 196.912805 
" style="fill:none;stroke:#d62728;stroke-width:1.5;"/>
    <path clip-path="url(#pde78e15542)" d="M 267.746938 189.225978 
L 267.746938 176.710038 
" style="fill:none;stroke:#d62728;stroke-width:1.5;"/>
    <path clip-path="url(#pde78e15542)" d="M 283.618938 174.578487 
L 283.618938 161.683169 
" style="fill:none;stroke:#d62728;stroke-width:1.5;"/>
    <path clip-path="url(#pde78e15542)" d="M 299.490938 151.193991 
L 299.490938 138.163032 
" style="fill:none;stroke:#d62728;stroke-width:1.5;"/>
    <path clip-path="url(#pde78e15542)" d="M 315.362938 150.952237 
L 315.362938 137.614303 
" style="fill:none;stroke:#d62728;stroke-width:1.5;"/>
    <path clip-path="url(#pde78e15542)" d="M 331.234938 173.387889 
L 331.234938 160.702691 
" style="fill:none;stroke:#d62728;stroke-width:1.5;"/>
    <path clip-path="url(#pde78e15542)" d="M 347.106938 185.553815 
L 347.106938 173.190422 
" style="fill:none;stroke:#d62728;stroke-width:1.5;"/>
    <path clip-path="url(#pde78e15542)" d="M 362.978938 202.145286 
L 362.978938 189.641881 
" style="fill:none;stroke:#d62728;stroke-width:1.5;"/>
    <path clip-path="url(#pde78e15542)" d="M 378.850938 176.133114 
L 378.850938 162.69629 
" style="fill:none;stroke:#d62728;stroke-width:1.5;"/>
   </g>
   <g id="line2d_21">
    <path clip-path="url(#pde78e15542)" d="M 61.410938 278.57076 
L 62.482298 278.57076 
L 62.839418 278.238454 
L 63.196538 277.299737 
L 63.553658 277.189344 
L 63.910778 276.670269 
L 64.267898 275.801341 
L 64.982138 274.863834 
L 65.696378 271.869527 
L 66.767738 269.029463 
L 67.124858 267.666292 
L 67.481978 265.669793 
L 68.196218 262.978304 
L 69.267578 257.664018 
L 69.624698 254.481005 
L 69.981818 252.81827 
L 70.338938 252.275046 
L 70.696058 249.84184 
L 71.053178 245.834718 
L 71.410298 244.605064 
L 71.767418 242.443191 
L 72.481658 237.051078 
L 72.838778 235.090187 
L 74.624378 221.730109 
L 74.981498 218.047676 
L 75.338618 216.411238 
L 77.481338 198.114069 
L 77.838458 195.609365 
L 78.909818 185.85858 
L 79.266938 183.772982 
L 79.981178 177.10378 
L 81.052538 167.500031 
L 81.409658 165.754548 
L 81.766778 161.002947 
L 82.123898 159.503791 
L 82.838138 152.483839 
L 83.909498 142.94818 
L 84.266618 140.729867 
L 84.623738 136.856067 
L 84.980858 134.824436 
L 85.337978 130.958659 
L 89.623418 99.767445 
L 89.980538 97.890984 
L 90.337658 94.727618 
L 90.694778 93.522965 
L 92.123258 84.234355 
L 92.480378 83.397809 
L 92.837498 80.520985 
L 93.194618 79.386829 
L 93.908858 75.554277 
L 94.265978 75.081734 
L 94.980218 71.121596 
L 95.337338 69.993146 
L 95.694458 68.084837 
L 96.051578 67.68081 
L 96.408698 66.204855 
L 96.765818 65.793221 
L 97.122938 64.272952 
L 97.480058 64.634756 
L 97.837178 63.01691 
L 98.194298 63.327229 
L 99.265658 61.15817 
L 99.622778 60.619617 
L 99.979898 61.466361 
L 100.337018 60.726704 
L 100.694138 60.753897 
L 101.051258 59.593868 
L 101.408378 60.458986 
L 101.765498 60.338903 
L 102.122618 61.392738 
L 102.479738 61.894591 
L 102.836858 61.44182 
L 103.551098 62.965278 
L 104.265338 64.028579 
L 104.622458 65.176069 
L 104.979578 65.929223 
L 105.693818 68.347353 
L 106.050938 68.67069 
L 106.408058 70.94634 
L 107.122298 72.639163 
L 107.479418 75.129927 
L 107.836538 75.544349 
L 108.193658 77.859872 
L 108.550778 78.787301 
L 109.979258 85.503197 
L 113.550458 106.913554 
L 113.907578 110.315676 
L 114.264698 111.503998 
L 114.621818 114.411863 
L 114.978938 116.191816 
L 115.693178 121.662749 
L 116.050298 125.18656 
L 116.407418 125.942511 
L 117.121658 133.331968 
L 117.478778 134.109007 
L 119.264378 149.306726 
L 119.621498 151.185995 
L 123.192698 178.520398 
L 123.549818 181.982987 
L 123.906938 184.130167 
L 124.264058 187.279665 
L 124.978298 192.217308 
L 125.335418 194.395496 
L 126.049658 200.057627 
L 127.121018 206.905378 
L 127.478138 210.253344 
L 127.835258 211.819462 
L 128.549498 217.492019 
L 128.906618 219.586981 
L 129.263738 220.821306 
L 129.977978 225.784146 
L 130.335098 226.761743 
L 130.692218 229.730188 
L 131.406458 233.415571 
L 131.763578 234.573826 
L 132.477818 239.111048 
L 133.192058 242.208365 
L 133.549178 243.461596 
L 134.977658 250.29567 
L 135.334778 250.700302 
L 135.691898 252.249059 
L 136.049018 252.439627 
L 136.406138 255.419417 
L 136.763258 254.624232 
L 137.120378 256.192761 
L 137.477498 257.112519 
L 137.834618 258.411434 
L 138.191738 258.585959 
L 138.548858 259.762492 
L 138.905978 259.284305 
L 139.263098 260.966015 
L 139.620218 260.355246 
L 139.977338 261.782091 
L 140.334458 261.434978 
L 140.691578 262.991896 
L 141.048698 261.334078 
L 141.405818 262.578644 
L 141.762938 261.705263 
L 142.120058 262.806218 
L 142.477178 262.295329 
L 142.834298 262.978304 
L 143.191418 261.846115 
L 143.905658 260.953744 
L 144.262778 261.718067 
L 144.619898 260.892388 
L 144.977018 260.439049 
L 145.691258 258.378711 
L 146.048378 258.123895 
L 147.119738 255.994698 
L 147.476858 253.757085 
L 147.833978 253.690201 
L 148.191098 251.854661 
L 148.548218 251.20008 
L 148.905338 249.210934 
L 149.619578 247.169761 
L 149.976698 244.647137 
L 150.333818 244.675186 
L 151.405178 238.753656 
L 151.762298 238.120688 
L 152.119418 235.182585 
L 152.476538 234.74427 
L 152.833658 232.16877 
L 153.190778 230.541193 
L 153.547898 228.004914 
L 154.619258 223.349225 
L 155.333498 218.245574 
L 156.047738 213.7836 
L 157.119098 207.173753 
L 159.618938 190.205445 
L 160.333178 185.750465 
L 161.404538 177.757323 
L 162.118778 172.434921 
L 162.475898 170.54468 
L 162.833018 167.07448 
L 163.190138 165.60308 
L 163.904378 160.937767 
L 164.261498 157.226698 
L 165.332858 150.620266 
L 166.047098 145.055962 
L 166.404218 143.316643 
L 167.118458 138.188652 
L 167.475578 136.542613 
L 169.618298 121.509087 
L 169.975418 120.369037 
L 172.832378 103.503082 
L 173.546618 100.600712 
L 173.903738 97.986573 
L 174.617978 95.134203 
L 174.975098 93.041907 
L 176.760698 86.358356 
L 177.474938 83.620616 
L 177.832058 83.344028 
L 178.189178 81.166725 
L 178.546298 80.634712 
L 179.260538 78.648021 
L 179.617658 78.514152 
L 179.974778 77.070634 
L 180.331898 76.903911 
L 180.689018 75.673405 
L 181.046138 75.79249 
L 181.403258 74.785853 
L 181.760378 74.744758 
L 182.117498 73.584039 
L 182.474618 73.898013 
L 182.831738 73.393207 
L 183.188858 73.702562 
L 183.545978 73.476291 
L 183.903098 72.874026 
L 184.260218 72.976721 
L 184.617338 73.454741 
L 184.974458 73.551715 
L 185.331578 74.652295 
L 185.688698 74.078292 
L 186.045818 74.816674 
L 186.760058 75.401012 
L 187.117178 75.574131 
L 187.474298 77.373353 
L 187.831418 77.623748 
L 188.545658 79.875159 
L 188.902778 80.495741 
L 189.259898 81.896262 
L 189.617018 82.255152 
L 189.974138 84.143735 
L 190.688378 85.821892 
L 191.045498 86.322729 
L 191.402618 88.507587 
L 191.759738 89.562632 
L 192.473978 93.161391 
L 193.188218 95.611941 
L 193.545338 97.924967 
L 193.902458 98.846532 
L 194.259578 102.175629 
L 194.616698 102.867165 
L 194.973818 105.634563 
L 195.330938 107.198729 
L 195.688058 109.895756 
L 196.402298 112.262727 
L 196.759418 115.81507 
L 197.473658 120.024513 
L 197.830778 120.907516 
L 199.616378 134.046176 
L 199.973498 135.74764 
L 200.330618 138.06188 
L 201.044858 144.786401 
L 201.401978 145.833665 
L 203.901818 164.596903 
L 204.258938 165.704059 
L 204.973178 171.971414 
L 206.044538 179.140975 
L 206.758778 184.601646 
L 207.473018 190.003461 
L 207.830138 191.715469 
L 208.901498 200.200907 
L 209.615738 204.998443 
L 209.972858 206.536192 
L 210.687098 212.646047 
L 211.044218 213.214195 
L 211.758458 218.356019 
L 214.972538 236.567726 
L 215.329658 237.992725 
L 215.686778 240.560397 
L 216.043898 242.168803 
L 216.401018 242.556126 
L 217.472378 248.444013 
L 217.829498 248.586663 
L 218.186618 250.487932 
L 218.543738 251.308439 
L 218.900858 252.517586 
L 219.257978 254.332198 
L 219.615098 254.313597 
L 219.972218 255.965247 
L 220.329338 256.876745 
L 220.686458 258.414814 
L 221.043578 258.199318 
L 221.400698 259.869625 
L 222.829178 261.8077 
L 223.186298 261.548574 
L 223.543418 262.538484 
L 223.900538 262.828785 
L 224.257658 262.842377 
L 224.614778 262.739285 
L 224.971898 262.05099 
L 225.686138 263.224791 
L 226.043258 262.415092 
L 226.757498 262.12642 
L 227.114618 261.674792 
L 227.471738 261.8077 
L 228.185978 259.823123 
L 228.543098 259.442887 
L 229.614458 256.053601 
L 229.971578 255.713606 
L 230.685818 252.174328 
L 231.042938 252.309694 
L 231.757178 248.888217 
L 232.114298 248.586663 
L 232.828538 244.843481 
L 233.542778 241.774128 
L 234.257018 238.759834 
L 234.614138 236.385335 
L 234.971258 235.113286 
L 235.328378 232.345402 
L 236.399738 226.970457 
L 237.113978 222.75534 
L 237.471098 220.148567 
L 238.185338 216.632127 
L 239.256698 208.911665 
L 239.613818 206.971749 
L 240.328058 201.520668 
L 241.399418 194.183287 
L 242.113658 189.22185 
L 242.827898 183.617711 
L 243.185018 181.835727 
L 243.542138 178.242917 
L 244.256378 173.412632 
L 244.613498 169.784239 
L 244.970618 167.489212 
L 245.327738 166.475822 
L 245.684858 162.581769 
L 246.041978 160.629969 
L 246.399098 156.459491 
L 246.756218 154.857766 
L 247.827578 147.232235 
L 248.184698 143.688866 
L 248.541818 142.230793 
L 248.898938 138.737063 
L 249.256058 137.029693 
L 249.613178 133.367468 
L 251.398778 121.905223 
L 251.755898 119.341452 
L 252.470138 115.743309 
L 252.827258 112.119115 
L 253.184378 110.705201 
L 253.541498 107.529823 
L 253.898618 106.645509 
L 254.612858 101.796999 
L 254.969978 99.849764 
L 255.327098 98.863203 
L 255.684218 95.896109 
L 256.041338 93.921947 
L 256.398458 92.684298 
L 257.112698 89.72359 
L 257.469818 89.144881 
L 258.184058 83.834921 
L 258.541178 83.513054 
L 259.612538 78.787301 
L 259.969658 79.369505 
L 260.683898 76.522283 
L 261.041018 75.200208 
L 261.755258 74.204512 
L 262.112378 72.281978 
L 262.469498 72.29295 
L 262.826618 71.399573 
L 263.183738 70.860441 
L 263.540858 71.729039 
L 263.897978 70.366235 
L 264.255098 70.52971 
L 264.612218 70.504822 
L 264.969338 70.044365 
L 265.326458 71.218421 
L 265.683578 70.05717 
L 266.040698 69.865099 
L 266.754938 70.799085 
L 267.112058 70.860441 
L 267.469178 71.599454 
L 268.183418 72.485515 
L 268.540538 74.299176 
L 268.897658 74.316698 
L 269.254778 74.545377 
L 270.326138 77.183426 
L 270.683258 79.008186 
L 271.397498 80.453667 
L 272.111738 82.678633 
L 272.468858 84.597068 
L 272.825978 87.277472 
L 273.183098 88.167832 
L 274.611578 94.793288 
L 274.968698 97.326735 
L 275.325818 97.924967 
L 276.397178 104.697674 
L 276.754298 106.152754 
L 277.468538 111.080749 
L 278.182778 115.582012 
L 278.897018 119.345804 
L 279.611258 125.174116 
L 279.968378 127.138895 
L 281.396858 137.720336 
L 282.111098 142.279879 
L 282.468218 145.718094 
L 283.539578 152.718478 
L 283.896698 156.972175 
L 284.253818 158.956997 
L 284.610938 162.114641 
L 284.968058 163.435651 
L 286.039418 172.778931 
L 286.753658 178.023852 
L 287.110778 180.424154 
L 287.467898 184.293514 
L 288.182138 188.517333 
L 288.539258 192.065846 
L 289.967738 202.397366 
L 291.039098 210.040174 
L 293.181818 224.188643 
L 293.538938 226.095399 
L 293.896058 229.429223 
L 294.253178 230.455515 
L 294.610298 232.305967 
L 294.967418 235.188359 
L 295.324538 236.9078 
L 295.681658 237.324627 
L 296.395898 242.694962 
L 296.753018 243.346055 
L 297.824378 249.595184 
L 298.181498 250.594284 
L 298.895738 253.428745 
L 299.252858 254.267133 
L 300.681338 259.272978 
L 301.038458 259.363596 
L 301.395578 260.632241 
L 301.752698 261.446075 
L 302.109818 261.83331 
L 302.466938 263.086741 
L 302.824058 262.618805 
L 303.181178 263.352886 
L 303.538298 264.462756 
L 303.895418 264.777227 
L 304.252538 265.292705 
L 304.609658 264.988828 
L 304.966778 265.308482 
L 305.323898 266.033235 
L 306.038138 265.006349 
L 306.395258 265.605538 
L 307.109498 264.417831 
L 307.466618 264.130921 
L 307.823738 262.910341 
L 308.180858 262.605418 
L 308.537978 262.551871 
L 308.895098 261.271858 
L 309.252218 261.346522 
L 310.680698 256.7041 
L 311.037818 255.867076 
L 311.752058 252.66644 
L 312.109178 252.045656 
L 312.466298 250.64337 
L 312.823418 248.014385 
L 313.180538 247.147487 
L 313.537658 245.043732 
L 313.894778 244.155548 
L 314.251898 242.654801 
L 314.966138 238.790728 
L 315.323258 235.848428 
L 315.680378 234.698371 
L 316.394618 230.407321 
L 316.751738 228.552059 
L 317.108858 225.899611 
L 317.823098 222.172711 
L 318.894458 214.797498 
L 319.251578 212.706982 
L 319.608698 209.479454 
L 319.965818 207.654046 
L 320.322938 203.702684 
L 320.680058 202.453849 
L 321.394298 196.464157 
L 321.751418 194.584555 
L 322.108538 191.406984 
L 322.465658 189.569232 
L 322.822778 186.440164 
L 323.179898 184.694457 
L 324.251258 175.799655 
L 324.965498 171.116822 
L 326.036858 162.096535 
L 326.393978 160.101281 
L 326.751098 156.66311 
L 327.108218 154.616795 
L 327.822458 149.173637 
L 328.893818 141.730982 
L 329.250938 139.490575 
L 329.608058 135.883872 
L 332.822138 114.766588 
L 333.179258 113.75589 
L 333.536378 112.072366 
L 334.250618 106.470409 
L 334.607738 106.360589 
L 334.964858 103.149484 
L 335.321978 101.908774 
L 335.679098 98.907658 
L 336.036218 98.234193 
L 336.393338 95.749826 
L 336.750458 94.489808 
L 337.107578 93.687488 
L 337.464697 91.75811 
L 337.821818 91.285267 
L 338.536058 87.046086 
L 339.964538 82.654966 
L 340.321658 82.231272 
L 340.678778 80.985778 
L 341.035898 80.878432 
L 341.750138 78.226413 
L 342.107258 79.037545 
L 342.464378 76.922912 
L 342.821498 77.798615 
L 343.178618 76.675901 
L 343.535738 76.770905 
L 343.892858 76.209942 
L 344.249978 76.88491 
L 344.607098 76.326453 
L 344.964218 76.827908 
L 345.321338 75.861209 
L 345.678458 76.837408 
L 346.035578 75.152823 
L 346.392697 77.457057 
L 347.106938 76.808907 
L 347.821178 78.478453 
L 348.178298 79.168764 
L 348.535418 78.972844 
L 348.892538 79.946309 
L 349.249658 82.159634 
L 349.606778 81.174906 
L 349.963898 82.719308 
L 350.321018 83.390126 
L 350.678138 85.386364 
L 351.035258 86.733245 
L 351.392378 87.437484 
L 351.749498 88.990929 
L 352.106618 89.664247 
L 352.820858 92.403078 
L 353.177978 93.879585 
L 353.535098 94.835077 
L 354.606458 101.701192 
L 354.963578 102.460344 
L 355.320698 104.580207 
L 355.677818 105.846522 
L 356.034938 109.129055 
L 356.392058 109.519291 
L 357.106298 113.888653 
L 357.463418 115.252932 
L 358.534778 122.635773 
L 358.891898 124.151473 
L 359.963258 130.630823 
L 360.320378 132.369663 
L 361.034618 137.623877 
L 363.534458 154.182316 
L 366.748538 176.254162 
L 367.105658 178.074967 
L 367.819898 183.495714 
L 369.248378 192.042995 
L 369.962618 197.131035 
L 370.319738 198.983601 
L 370.676858 201.717461 
L 371.391098 205.126807 
L 371.748218 207.186256 
L 372.105338 210.180781 
L 375.319418 226.771899 
L 376.033658 228.338966 
L 376.390778 231.182379 
L 376.747898 232.234624 
L 377.105018 234.271708 
L 377.819258 236.751552 
L 378.176378 237.348669 
L 378.533498 238.976088 
L 379.247738 240.656435 
L 379.604858 242.443191 
L 380.319098 244.430714 
L 380.676218 244.437671 
L 381.033338 246.286749 
L 381.390458 247.080664 
L 381.747578 247.281802 
L 382.104698 247.705376 
L 382.461818 248.695169 
L 382.818938 249.210934 
L 383.176058 250.198399 
L 383.533178 249.722542 
L 383.890298 251.275097 
L 384.247418 250.791133 
L 384.604538 251.718731 
L 384.961658 252.165749 
L 385.318778 252.165749 
L 385.675898 251.364374 
L 386.033018 251.473765 
L 386.390138 250.594284 
L 386.747258 252.301032 
L 387.104378 252.378992 
L 387.818618 250.336199 
L 388.175738 249.698662 
L 388.532858 250.430665 
L 388.889978 248.935131 
L 389.247098 249.619063 
L 389.961338 247.206885 
L 390.318458 246.595725 
L 390.675578 246.367072 
L 391.389818 244.114132 
L 391.746938 242.496337 
L 392.104058 242.694962 
L 392.461178 241.728314 
L 392.818298 241.352774 
L 393.889658 236.923518 
L 394.246778 236.249857 
L 394.603898 234.297955 
L 395.318138 232.03706 
L 395.675258 230.789794 
L 396.389498 227.103246 
L 396.746618 226.540267 
L 397.103738 223.884308 
L 397.460858 223.004541 
L 398.175098 219.484674 
L 398.532218 216.652072 
L 398.889338 216.110057 
L 399.603578 211.461729 
L 400.317818 208.827114 
L 400.674938 205.739438 
L 401.032058 205.533655 
L 401.746298 200.149167 
L 402.103418 199.220269 
L 402.460538 196.05157 
L 402.817658 194.102262 
L 403.174778 193.03202 
L 404.960378 181.740008 
L 405.317498 180.900625 
L 406.388858 173.054138 
L 406.745978 171.765008 
L 407.103098 169.03466 
L 407.460218 167.485606 
L 407.817338 164.445435 
L 409.245818 156.735831 
L 409.960058 151.922906 
L 410.674298 148.182866 
L 413.174138 133.429648 
L 413.531258 132.49249 
L 413.888378 129.85196 
L 414.245498 128.58488 
L 414.959738 124.13891 
L 415.316858 123.439306 
L 415.673978 120.633013 
L 416.031098 119.855598 
L 417.102458 113.916121 
L 418.173818 109.143539 
L 418.530938 109.075945 
L 418.530938 109.075945 
" style="fill:none;stroke:#1f77b4;stroke-linecap:square;stroke-width:1.5;"/>
   </g>
   <g id="line2d_22">
    <path clip-path="url(#pde78e15542)" d="M 61.410938 52.815628 
L 418.530938 52.815628 
" style="fill:none;opacity:0.3;stroke:#0000ff;stroke-dasharray:7.4,3.2;stroke-dashoffset:0;stroke-width:2;"/>
   </g>
   <g id="line2d_23">
    <defs>
     <path d="M 0 3 
C 0.795609 3 1.55874 2.683901 2.12132 2.12132 
C 2.683901 1.55874 3 0.795609 3 0 
C 3 -0.795609 2.683901 -1.55874 2.12132 -2.12132 
C 1.55874 -2.683901 0.795609 -3 0 -3 
C -0.795609 -3 -1.55874 -2.683901 -2.12132 -2.12132 
C -2.683901 -1.55874 -3 -0.795609 -3 0 
C -3 0.795609 -2.683901 1.55874 -2.12132 2.12132 
C -1.55874 2.683901 -0.795609 3 0 3 
z
" id="me8f582a8e2" style="stroke:#1f77b4;"/>
    </defs>
    <g clip-path="url(#pde78e15542)">
     <use style="fill:#1f77b4;stroke:#1f77b4;" x="61.410938" xlink:href="#me8f582a8e2" y="278.000276"/>
     <use style="fill:#1f77b4;stroke:#1f77b4;" x="73.314938" xlink:href="#me8f582a8e2" y="234.894117"/>
     <use style="fill:#1f77b4;stroke:#1f77b4;" x="85.218938" xlink:href="#me8f582a8e2" y="127.964158"/>
     <use style="fill:#1f77b4;stroke:#1f77b4;" x="97.122938" xlink:href="#me8f582a8e2" y="64.797634"/>
     <use style="fill:#1f77b4;stroke:#1f77b4;" x="109.026938" xlink:href="#me8f582a8e2" y="100.284255"/>
     <use style="fill:#1f77b4;stroke:#1f77b4;" x="120.930938" xlink:href="#me8f582a8e2" y="161.320875"/>
     <use style="fill:#1f77b4;stroke:#1f77b4;" x="132.834938" xlink:href="#me8f582a8e2" y="233.937657"/>
     <use style="fill:#1f77b4;stroke:#1f77b4;" x="144.738938" xlink:href="#me8f582a8e2" y="255.489055"/>
     <use style="fill:#1f77b4;stroke:#1f77b4;" x="156.642938" xlink:href="#me8f582a8e2" y="206.850828"/>
     <use style="fill:#1f77b4;stroke:#1f77b4;" x="168.546938" xlink:href="#me8f582a8e2" y="136.826976"/>
     <use style="fill:#1f77b4;stroke:#1f77b4;" x="180.450938" xlink:href="#me8f582a8e2" y="87.677002"/>
     <use style="fill:#1f77b4;stroke:#1f77b4;" x="192.354938" xlink:href="#me8f582a8e2" y="95.019328"/>
     <use style="fill:#1f77b4;stroke:#1f77b4;" x="204.258938" xlink:href="#me8f582a8e2" y="173.674828"/>
     <use style="fill:#1f77b4;stroke:#1f77b4;" x="216.162938" xlink:href="#me8f582a8e2" y="242.050828"/>
     <use style="fill:#1f77b4;stroke:#1f77b4;" x="228.066938" xlink:href="#me8f582a8e2" y="255.301381"/>
     <use style="fill:#1f77b4;stroke:#1f77b4;" x="239.970938" xlink:href="#me8f582a8e2" y="197.051076"/>
     <use style="fill:#1f77b4;stroke:#1f77b4;" x="251.874938" xlink:href="#me8f582a8e2" y="126.997925"/>
     <use style="fill:#1f77b4;stroke:#1f77b4;" x="263.778938" xlink:href="#me8f582a8e2" y="81.279507"/>
     <use style="fill:#1f77b4;stroke:#1f77b4;" x="275.682938" xlink:href="#me8f582a8e2" y="94.47267"/>
     <use style="fill:#1f77b4;stroke:#1f77b4;" x="287.586938" xlink:href="#me8f582a8e2" y="183.732034"/>
     <use style="fill:#1f77b4;stroke:#1f77b4;" x="299.490938" xlink:href="#me8f582a8e2" y="249.248302"/>
     <use style="fill:#1f77b4;stroke:#1f77b4;" x="311.394938" xlink:href="#me8f582a8e2" y="246.348503"/>
     <use style="fill:#1f77b4;stroke:#1f77b4;" x="323.298938" xlink:href="#me8f582a8e2" y="178.107178"/>
     <use style="fill:#1f77b4;stroke:#1f77b4;" x="335.202938" xlink:href="#me8f582a8e2" y="113.127364"/>
     <use style="fill:#1f77b4;stroke:#1f77b4;" x="347.106938" xlink:href="#me8f582a8e2" y="91.441319"/>
     <use style="fill:#1f77b4;stroke:#1f77b4;" x="359.010938" xlink:href="#me8f582a8e2" y="125.27946"/>
     <use style="fill:#1f77b4;stroke:#1f77b4;" x="370.914938" xlink:href="#me8f582a8e2" y="190.916059"/>
     <use style="fill:#1f77b4;stroke:#1f77b4;" x="382.818938" xlink:href="#me8f582a8e2" y="246.0248"/>
     <use style="fill:#1f77b4;stroke:#1f77b4;" x="394.722938" xlink:href="#me8f582a8e2" y="240.942028"/>
     <use style="fill:#1f77b4;stroke:#1f77b4;" x="406.626938" xlink:href="#me8f582a8e2" y="167.773151"/>
     <use style="fill:#1f77b4;stroke:#1f77b4;" x="418.530938" xlink:href="#me8f582a8e2" y="108.38202"/>
    </g>
   </g>
   <g id="line2d_24">
    <path clip-path="url(#pde78e15542)" d="M 61.410938 277.467255 
L 77.282938 186.945185 
L 93.154938 109.185254 
L 109.026938 146.284175 
L 124.898938 168.027202 
L 140.770938 182.156222 
L 156.642938 184.149727 
L 172.514938 174.284933 
L 188.386938 161.746828 
L 204.258938 161.511127 
L 220.130938 163.833154 
L 236.002938 170.82209 
L 251.874938 202.754677 
L 267.746938 182.968008 
L 283.618938 168.130828 
L 299.490938 144.678512 
L 315.362938 144.28327 
L 331.234938 167.04529 
L 347.106938 179.372118 
L 362.978938 195.893584 
L 378.850938 169.414702 
" style="fill:none;stroke:#d62728;stroke-linecap:square;stroke-width:1.5;"/>
    <defs>
     <path d="M 0 3 
C 0.795609 3 1.55874 2.683901 2.12132 2.12132 
C 2.683901 1.55874 3 0.795609 3 0 
C 3 -0.795609 2.683901 -1.55874 2.12132 -2.12132 
C 1.55874 -2.683901 0.795609 -3 0 -3 
C -0.795609 -3 -1.55874 -2.683901 -2.12132 -2.12132 
C -2.683901 -1.55874 -3 -0.795609 -3 0 
C -3 0.795609 -2.683901 1.55874 -2.12132 2.12132 
C -1.55874 2.683901 -0.795609 3 0 3 
z
" id="m507552fc2c" style="stroke:#d62728;"/>
    </defs>
    <g clip-path="url(#pde78e15542)">
     <use style="fill:#d62728;stroke:#d62728;" x="61.410938" xlink:href="#m507552fc2c" y="277.467255"/>
     <use style="fill:#d62728;stroke:#d62728;" x="77.282938" xlink:href="#m507552fc2c" y="186.945185"/>
     <use style="fill:#d62728;stroke:#d62728;" x="93.154938" xlink:href="#m507552fc2c" y="109.185254"/>
     <use style="fill:#d62728;stroke:#d62728;" x="109.026938" xlink:href="#m507552fc2c" y="146.284175"/>
     <use style="fill:#d62728;stroke:#d62728;" x="124.898938" xlink:href="#m507552fc2c" y="168.027202"/>
     <use style="fill:#d62728;stroke:#d62728;" x="140.770938" xlink:href="#m507552fc2c" y="182.156222"/>
     <use style="fill:#d62728;stroke:#d62728;" x="156.642938" xlink:href="#m507552fc2c" y="184.149727"/>
     <use style="fill:#d62728;stroke:#d62728;" x="172.514938" xlink:href="#m507552fc2c" y="174.284933"/>
     <use style="fill:#d62728;stroke:#d62728;" x="188.386938" xlink:href="#m507552fc2c" y="161.746828"/>
     <use style="fill:#d62728;stroke:#d62728;" x="204.258938" xlink:href="#m507552fc2c" y="161.511127"/>
     <use style="fill:#d62728;stroke:#d62728;" x="220.130938" xlink:href="#m507552fc2c" y="163.833154"/>
     <use style="fill:#d62728;stroke:#d62728;" x="236.002938" xlink:href="#m507552fc2c" y="170.82209"/>
     <use style="fill:#d62728;stroke:#d62728;" x="251.874938" xlink:href="#m507552fc2c" y="202.754677"/>
     <use style="fill:#d62728;stroke:#d62728;" x="267.746938" xlink:href="#m507552fc2c" y="182.968008"/>
     <use style="fill:#d62728;stroke:#d62728;" x="283.618938" xlink:href="#m507552fc2c" y="168.130828"/>
     <use style="fill:#d62728;stroke:#d62728;" x="299.490938" xlink:href="#m507552fc2c" y="144.678512"/>
     <use style="fill:#d62728;stroke:#d62728;" x="315.362938" xlink:href="#m507552fc2c" y="144.28327"/>
     <use style="fill:#d62728;stroke:#d62728;" x="331.234938" xlink:href="#m507552fc2c" y="167.04529"/>
     <use style="fill:#d62728;stroke:#d62728;" x="347.106938" xlink:href="#m507552fc2c" y="179.372118"/>
     <use style="fill:#d62728;stroke:#d62728;" x="362.978938" xlink:href="#m507552fc2c" y="195.893584"/>
     <use style="fill:#d62728;stroke:#d62728;" x="378.850938" xlink:href="#m507552fc2c" y="169.414702"/>
    </g>
   </g>
   <g id="patch_3">
    <path d="M 61.410938 279.010828 
L 61.410938 12.898828 
" style="fill:none;stroke:#000000;stroke-linecap:square;stroke-linejoin:miter;stroke-width:0.8;"/>
   </g>
   <g id="patch_4">
    <path d="M 418.530938 279.010828 
L 418.530938 12.898828 
" style="fill:none;stroke:#000000;stroke-linecap:square;stroke-linejoin:miter;stroke-width:0.8;"/>
   </g>
   <g id="patch_5">
    <path d="M 61.410938 279.010828 
L 418.530938 279.010828 
" style="fill:none;stroke:#000000;stroke-linecap:square;stroke-linejoin:miter;stroke-width:0.8;"/>
   </g>
   <g id="patch_6">
    <path d="M 61.410938 12.898828 
L 418.530938 12.898828 
" style="fill:none;stroke:#000000;stroke-linecap:square;stroke-linejoin:miter;stroke-width:0.8;"/>
   </g>
   <g id="text_13">
    <!-- (D) -->
    <defs>
     <path d="M 19.671875 64.796875 
L 19.671875 8.109375 
L 31.59375 8.109375 
Q 46.6875 8.109375 53.6875 14.9375 
Q 60.6875 21.78125 60.6875 36.53125 
Q 60.6875 51.171875 53.6875 57.984375 
Q 46.6875 64.796875 31.59375 64.796875 
z
M 9.8125 72.90625 
L 30.078125 72.90625 
Q 51.265625 72.90625 61.171875 64.09375 
Q 71.09375 55.28125 71.09375 36.53125 
Q 71.09375 17.671875 61.125 8.828125 
Q 51.171875 0 30.078125 0 
L 9.8125 0 
z
" id="DejaVuSans-44"/>
    </defs>
    <g transform="translate(81.250938 39.510028)scale(0.2 -0.2)">
     <use xlink:href="#DejaVuSans-28"/>
     <use x="39.013672" xlink:href="#DejaVuSans-44"/>
     <use x="116.015625" xlink:href="#DejaVuSans-29"/>
    </g>
   </g>
  </g>
 </g>
 <defs>
  <clipPath id="pde78e15542">
   <rect height="266.112" width="357.12" x="61.410938" y="12.898828"/>
  </clipPath>
 </defs>
</svg>
