<?xml version="1.0" encoding="utf-8" standalone="no"?>
<!DOCTYPE svg PUBLIC "-//W3C//DTD SVG 1.1//EN"
  "http://www.w3.org/Graphics/SVG/1.1/DTD/svg11.dtd">
<!-- Created with matplotlib (http://matplotlib.org/) -->
<svg height="331pt" version="1.1" viewBox="0 0 429 331" width="429pt" xmlns="http://www.w3.org/2000/svg" xmlns:xlink="http://www.w3.org/1999/xlink">
 <defs>
  <style type="text/css">
*{stroke-linecap:butt;stroke-linejoin:round;}
  </style>
 </defs>
 <g id="figure_1">
  <g id="patch_1">
   <path d="M 0 331.128016 
L 429.230937 331.128016 
L 429.230937 0 
L 0 0 
z
" style="fill:none;"/>
  </g>
  <g id="axes_1">
   <g id="patch_2">
    <path d="M 61.410938 279.010828 
L 418.530938 279.010828 
L 418.530938 12.898828 
L 61.410938 12.898828 
z
" style="fill:none;"/>
   </g>
   <g id="matplotlib.axis_1">
    <g id="xtick_1">
     <g id="line2d_1">
      <path clip-path="url(#p14c9b73dbf)" d="M 61.410938 279.010828 
L 61.410938 12.898828 
" style="fill:none;stroke:#b0b0b0;stroke-linecap:square;stroke-width:0.8;"/>
     </g>
     <g id="line2d_2">
      <defs>
       <path d="M 0 0 
L 0 3.5 
" id="m4359cbbeaa" style="stroke:#000000;stroke-width:0.8;"/>
      </defs>
      <g>
       <use style="stroke:#000000;stroke-width:0.8;" x="61.410938" xlink:href="#m4359cbbeaa" y="279.010828"/>
      </g>
     </g>
     <g id="text_1">
      <!-- 0 -->
      <defs>
       <path d="M 31.78125 66.40625 
Q 24.171875 66.40625 20.328125 58.90625 
Q 16.5 51.421875 16.5 36.375 
Q 16.5 21.390625 20.328125 13.890625 
Q 24.171875 6.390625 31.78125 6.390625 
Q 39.453125 6.390625 43.28125 13.890625 
Q 47.125 21.390625 47.125 36.375 
Q 47.125 51.421875 43.28125 58.90625 
Q 39.453125 66.40625 31.78125 66.40625 
z
M 31.78125 74.21875 
Q 44.046875 74.21875 50.515625 64.515625 
Q 56.984375 54.828125 56.984375 36.375 
Q 56.984375 17.96875 50.515625 8.265625 
Q 44.046875 -1.421875 31.78125 -1.421875 
Q 19.53125 -1.421875 13.0625 8.265625 
Q 6.59375 17.96875 6.59375 36.375 
Q 6.59375 54.828125 13.0625 64.515625 
Q 19.53125 74.21875 31.78125 74.21875 
z
" id="DejaVuSans-30"/>
      </defs>
      <g transform="translate(56.639063 297.408484)scale(0.15 -0.15)">
       <use xlink:href="#DejaVuSans-30"/>
      </g>
     </g>
    </g>
    <g id="xtick_2">
     <g id="line2d_3">
      <path clip-path="url(#p14c9b73dbf)" d="M 160.610938 279.010828 
L 160.610938 12.898828 
" style="fill:none;stroke:#b0b0b0;stroke-linecap:square;stroke-width:0.8;"/>
     </g>
     <g id="line2d_4">
      <g>
       <use style="stroke:#000000;stroke-width:0.8;" x="160.610938" xlink:href="#m4359cbbeaa" y="279.010828"/>
      </g>
     </g>
     <g id="text_2">
      <!-- 50 -->
      <defs>
       <path d="M 10.796875 72.90625 
L 49.515625 72.90625 
L 49.515625 64.59375 
L 19.828125 64.59375 
L 19.828125 46.734375 
Q 21.96875 47.46875 24.109375 47.828125 
Q 26.265625 48.1875 28.421875 48.1875 
Q 40.625 48.1875 47.75 41.5 
Q 54.890625 34.8125 54.890625 23.390625 
Q 54.890625 11.625 47.5625 5.09375 
Q 40.234375 -1.421875 26.90625 -1.421875 
Q 22.3125 -1.421875 17.546875 -0.640625 
Q 12.796875 0.140625 7.71875 1.703125 
L 7.71875 11.625 
Q 12.109375 9.234375 16.796875 8.0625 
Q 21.484375 6.890625 26.703125 6.890625 
Q 35.15625 6.890625 40.078125 11.328125 
Q 45.015625 15.765625 45.015625 23.390625 
Q 45.015625 31 40.078125 35.4375 
Q 35.15625 39.890625 26.703125 39.890625 
Q 22.75 39.890625 18.8125 39.015625 
Q 14.890625 38.140625 10.796875 36.28125 
z
" id="DejaVuSans-35"/>
      </defs>
      <g transform="translate(151.067188 297.408484)scale(0.15 -0.15)">
       <use xlink:href="#DejaVuSans-35"/>
       <use x="63.623047" xlink:href="#DejaVuSans-30"/>
      </g>
     </g>
    </g>
    <g id="xtick_3">
     <g id="line2d_5">
      <path clip-path="url(#p14c9b73dbf)" d="M 259.810938 279.010828 
L 259.810938 12.898828 
" style="fill:none;stroke:#b0b0b0;stroke-linecap:square;stroke-width:0.8;"/>
     </g>
     <g id="line2d_6">
      <g>
       <use style="stroke:#000000;stroke-width:0.8;" x="259.810938" xlink:href="#m4359cbbeaa" y="279.010828"/>
      </g>
     </g>
     <g id="text_3">
      <!-- 100 -->
      <defs>
       <path d="M 12.40625 8.296875 
L 28.515625 8.296875 
L 28.515625 63.921875 
L 10.984375 60.40625 
L 10.984375 69.390625 
L 28.421875 72.90625 
L 38.28125 72.90625 
L 38.28125 8.296875 
L 54.390625 8.296875 
L 54.390625 0 
L 12.40625 0 
z
" id="DejaVuSans-31"/>
      </defs>
      <g transform="translate(245.495313 297.408484)scale(0.15 -0.15)">
       <use xlink:href="#DejaVuSans-31"/>
       <use x="63.623047" xlink:href="#DejaVuSans-30"/>
       <use x="127.246094" xlink:href="#DejaVuSans-30"/>
      </g>
     </g>
    </g>
    <g id="xtick_4">
     <g id="line2d_7">
      <path clip-path="url(#p14c9b73dbf)" d="M 359.010938 279.010828 
L 359.010938 12.898828 
" style="fill:none;stroke:#b0b0b0;stroke-linecap:square;stroke-width:0.8;"/>
     </g>
     <g id="line2d_8">
      <g>
       <use style="stroke:#000000;stroke-width:0.8;" x="359.010938" xlink:href="#m4359cbbeaa" y="279.010828"/>
      </g>
     </g>
     <g id="text_4">
      <!-- 150 -->
      <g transform="translate(344.695313 297.408484)scale(0.15 -0.15)">
       <use xlink:href="#DejaVuSans-31"/>
       <use x="63.623047" xlink:href="#DejaVuSans-35"/>
       <use x="127.246094" xlink:href="#DejaVuSans-30"/>
      </g>
     </g>
    </g>
    <g id="text_5">
     <!-- Time ($\mu s$) -->
     <defs>
      <path d="M -0.296875 72.90625 
L 61.375 72.90625 
L 61.375 64.59375 
L 35.5 64.59375 
L 35.5 0 
L 25.59375 0 
L 25.59375 64.59375 
L -0.296875 64.59375 
z
" id="DejaVuSans-54"/>
      <path d="M 9.421875 54.6875 
L 18.40625 54.6875 
L 18.40625 0 
L 9.421875 0 
z
M 9.421875 75.984375 
L 18.40625 75.984375 
L 18.40625 64.59375 
L 9.421875 64.59375 
z
" id="DejaVuSans-69"/>
      <path d="M 52 44.1875 
Q 55.375 50.25 60.0625 53.125 
Q 64.75 56 71.09375 56 
Q 79.640625 56 84.28125 50.015625 
Q 88.921875 44.046875 88.921875 33.015625 
L 88.921875 0 
L 79.890625 0 
L 79.890625 32.71875 
Q 79.890625 40.578125 77.09375 44.375 
Q 74.3125 48.1875 68.609375 48.1875 
Q 61.625 48.1875 57.5625 43.546875 
Q 53.515625 38.921875 53.515625 30.90625 
L 53.515625 0 
L 44.484375 0 
L 44.484375 32.71875 
Q 44.484375 40.625 41.703125 44.40625 
Q 38.921875 48.1875 33.109375 48.1875 
Q 26.21875 48.1875 22.15625 43.53125 
Q 18.109375 38.875 18.109375 30.90625 
L 18.109375 0 
L 9.078125 0 
L 9.078125 54.6875 
L 18.109375 54.6875 
L 18.109375 46.1875 
Q 21.1875 51.21875 25.484375 53.609375 
Q 29.78125 56 35.6875 56 
Q 41.65625 56 45.828125 52.96875 
Q 50 49.953125 52 44.1875 
z
" id="DejaVuSans-6d"/>
      <path d="M 56.203125 29.59375 
L 56.203125 25.203125 
L 14.890625 25.203125 
Q 15.484375 15.921875 20.484375 11.0625 
Q 25.484375 6.203125 34.421875 6.203125 
Q 39.59375 6.203125 44.453125 7.46875 
Q 49.3125 8.734375 54.109375 11.28125 
L 54.109375 2.78125 
Q 49.265625 0.734375 44.1875 -0.34375 
Q 39.109375 -1.421875 33.890625 -1.421875 
Q 20.796875 -1.421875 13.15625 6.1875 
Q 5.515625 13.8125 5.515625 26.8125 
Q 5.515625 40.234375 12.765625 48.109375 
Q 20.015625 56 32.328125 56 
Q 43.359375 56 49.78125 48.890625 
Q 56.203125 41.796875 56.203125 29.59375 
z
M 47.21875 32.234375 
Q 47.125 39.59375 43.09375 43.984375 
Q 39.0625 48.390625 32.421875 48.390625 
Q 24.90625 48.390625 20.390625 44.140625 
Q 15.875 39.890625 15.1875 32.171875 
z
" id="DejaVuSans-65"/>
      <path id="DejaVuSans-20"/>
      <path d="M 31 75.875 
Q 24.46875 64.65625 21.28125 53.65625 
Q 18.109375 42.671875 18.109375 31.390625 
Q 18.109375 20.125 21.3125 9.0625 
Q 24.515625 -2 31 -13.1875 
L 23.1875 -13.1875 
Q 15.875 -1.703125 12.234375 9.375 
Q 8.59375 20.453125 8.59375 31.390625 
Q 8.59375 42.28125 12.203125 53.3125 
Q 15.828125 64.359375 23.1875 75.875 
z
" id="DejaVuSans-28"/>
      <path d="M -1.3125 -20.796875 
L 13.375 54.6875 
L 22.40625 54.6875 
L 15.765625 20.65625 
Q 15.578125 19.625 15.421875 18.359375 
Q 15.28125 17.09375 15.28125 15.828125 
Q 15.28125 11.28125 18.140625 8.828125 
Q 21 6.390625 26.3125 6.390625 
Q 33.546875 6.390625 37.984375 10.484375 
Q 42.4375 14.59375 44 22.796875 
L 50.203125 54.6875 
L 59.1875 54.6875 
L 51.03125 12.640625 
Q 50.828125 11.71875 50.75 11.03125 
Q 50.6875 10.359375 50.6875 9.8125 
Q 50.6875 8.296875 51.296875 7.59375 
Q 51.90625 6.890625 53.21875 6.890625 
Q 53.71875 6.890625 54.5625 7.125 
Q 55.421875 7.375 56.984375 8.015625 
L 55.609375 0.78125 
Q 53.46875 -0.296875 51.515625 -0.859375 
Q 49.5625 -1.421875 47.703125 -1.421875 
Q 44.484375 -1.421875 42.65625 0.625 
Q 40.828125 2.6875 40.828125 6.296875 
Q 38.09375 2.390625 34.296875 0.484375 
Q 30.515625 -1.421875 25.390625 -1.421875 
Q 20.84375 -1.421875 17.453125 0.671875 
Q 14.0625 2.78125 12.984375 6.203125 
L 7.71875 -20.796875 
z
" id="DejaVuSans-Oblique-3bc"/>
      <path d="M 50 53.078125 
L 48.296875 44.578125 
Q 44.734375 46.53125 40.765625 47.5 
Q 36.8125 48.484375 32.625 48.484375 
Q 25.53125 48.484375 21.453125 46.0625 
Q 17.390625 43.65625 17.390625 39.5 
Q 17.390625 34.671875 26.859375 32.078125 
Q 27.59375 31.890625 27.9375 31.78125 
L 30.8125 30.90625 
Q 39.796875 28.421875 42.796875 25.6875 
Q 45.796875 22.953125 45.796875 18.21875 
Q 45.796875 9.515625 38.890625 4.046875 
Q 31.984375 -1.421875 20.796875 -1.421875 
Q 16.453125 -1.421875 11.671875 -0.578125 
Q 6.890625 0.25 1.125 2 
L 2.875 11.28125 
Q 7.8125 8.734375 12.59375 7.421875 
Q 17.390625 6.109375 21.78125 6.109375 
Q 28.375 6.109375 32.5 8.9375 
Q 36.625 11.765625 36.625 16.109375 
Q 36.625 20.796875 25.78125 23.6875 
L 24.859375 23.921875 
L 21.78125 24.703125 
Q 14.9375 26.515625 11.765625 29.46875 
Q 8.59375 32.421875 8.59375 37.015625 
Q 8.59375 45.75 15.15625 50.875 
Q 21.734375 56 33.015625 56 
Q 37.453125 56 41.671875 55.265625 
Q 45.90625 54.546875 50 53.078125 
z
" id="DejaVuSans-Oblique-73"/>
      <path d="M 8.015625 75.875 
L 15.828125 75.875 
Q 23.140625 64.359375 26.78125 53.3125 
Q 30.421875 42.28125 30.421875 31.390625 
Q 30.421875 20.453125 26.78125 9.375 
Q 23.140625 -1.703125 15.828125 -13.1875 
L 8.015625 -13.1875 
Q 14.5 -2 17.703125 9.0625 
Q 20.90625 20.125 20.90625 31.390625 
Q 20.90625 42.671875 17.703125 53.65625 
Q 14.5 64.65625 8.015625 75.875 
z
" id="DejaVuSans-29"/>
     </defs>
     <g transform="translate(192.570938 319.728016)scale(0.2 -0.2)">
      <use transform="translate(0 0.015625)" xlink:href="#DejaVuSans-54"/>
      <use transform="translate(61.083984 0.015625)" xlink:href="#DejaVuSans-69"/>
      <use transform="translate(88.867188 0.015625)" xlink:href="#DejaVuSans-6d"/>
      <use transform="translate(186.279297 0.015625)" xlink:href="#DejaVuSans-65"/>
      <use transform="translate(247.802734 0.015625)" xlink:href="#DejaVuSans-20"/>
      <use transform="translate(279.589844 0.015625)" xlink:href="#DejaVuSans-28"/>
      <use transform="translate(318.603516 0.015625)" xlink:href="#DejaVuSans-Oblique-3bc"/>
      <use transform="translate(382.226562 0.015625)" xlink:href="#DejaVuSans-Oblique-73"/>
      <use transform="translate(434.326172 0.015625)" xlink:href="#DejaVuSans-29"/>
     </g>
    </g>
   </g>
   <g id="matplotlib.axis_2">
    <g id="ytick_1">
     <g id="line2d_9">
      <path clip-path="url(#p14c9b73dbf)" d="M 61.410938 279.010828 
L 418.530938 279.010828 
" style="fill:none;stroke:#b0b0b0;stroke-linecap:square;stroke-width:0.8;"/>
     </g>
     <g id="line2d_10">
      <defs>
       <path d="M 0 0 
L -3.5 0 
" id="m908802654d" style="stroke:#000000;stroke-width:0.8;"/>
      </defs>
      <g>
       <use style="stroke:#000000;stroke-width:0.8;" x="61.410938" xlink:href="#m908802654d" y="279.010828"/>
      </g>
     </g>
     <g id="text_6">
      <!-- 0.0 -->
      <defs>
       <path d="M 10.6875 12.40625 
L 21 12.40625 
L 21 0 
L 10.6875 0 
z
" id="DejaVuSans-2e"/>
      </defs>
      <g transform="translate(30.55625 284.709656)scale(0.15 -0.15)">
       <use xlink:href="#DejaVuSans-30"/>
       <use x="63.623047" xlink:href="#DejaVuSans-2e"/>
       <use x="95.410156" xlink:href="#DejaVuSans-30"/>
      </g>
     </g>
    </g>
    <g id="ytick_2">
     <g id="line2d_11">
      <path clip-path="url(#p14c9b73dbf)" d="M 61.410938 225.788428 
L 418.530938 225.788428 
" style="fill:none;stroke:#b0b0b0;stroke-linecap:square;stroke-width:0.8;"/>
     </g>
     <g id="line2d_12">
      <g>
       <use style="stroke:#000000;stroke-width:0.8;" x="61.410938" xlink:href="#m908802654d" y="225.788428"/>
      </g>
     </g>
     <g id="text_7">
      <!-- 0.2 -->
      <defs>
       <path d="M 19.1875 8.296875 
L 53.609375 8.296875 
L 53.609375 0 
L 7.328125 0 
L 7.328125 8.296875 
Q 12.9375 14.109375 22.625 23.890625 
Q 32.328125 33.6875 34.8125 36.53125 
Q 39.546875 41.84375 41.421875 45.53125 
Q 43.3125 49.21875 43.3125 52.78125 
Q 43.3125 58.59375 39.234375 62.25 
Q 35.15625 65.921875 28.609375 65.921875 
Q 23.96875 65.921875 18.8125 64.3125 
Q 13.671875 62.703125 7.8125 59.421875 
L 7.8125 69.390625 
Q 13.765625 71.78125 18.9375 73 
Q 24.125 74.21875 28.421875 74.21875 
Q 39.75 74.21875 46.484375 68.546875 
Q 53.21875 62.890625 53.21875 53.421875 
Q 53.21875 48.921875 51.53125 44.890625 
Q 49.859375 40.875 45.40625 35.40625 
Q 44.1875 33.984375 37.640625 27.21875 
Q 31.109375 20.453125 19.1875 8.296875 
z
" id="DejaVuSans-32"/>
      </defs>
      <g transform="translate(30.55625 231.487256)scale(0.15 -0.15)">
       <use xlink:href="#DejaVuSans-30"/>
       <use x="63.623047" xlink:href="#DejaVuSans-2e"/>
       <use x="95.410156" xlink:href="#DejaVuSans-32"/>
      </g>
     </g>
    </g>
    <g id="ytick_3">
     <g id="line2d_13">
      <path clip-path="url(#p14c9b73dbf)" d="M 61.410938 172.566028 
L 418.530938 172.566028 
" style="fill:none;stroke:#b0b0b0;stroke-linecap:square;stroke-width:0.8;"/>
     </g>
     <g id="line2d_14">
      <g>
       <use style="stroke:#000000;stroke-width:0.8;" x="61.410938" xlink:href="#m908802654d" y="172.566028"/>
      </g>
     </g>
     <g id="text_8">
      <!-- 0.4 -->
      <defs>
       <path d="M 37.796875 64.3125 
L 12.890625 25.390625 
L 37.796875 25.390625 
z
M 35.203125 72.90625 
L 47.609375 72.90625 
L 47.609375 25.390625 
L 58.015625 25.390625 
L 58.015625 17.1875 
L 47.609375 17.1875 
L 47.609375 0 
L 37.796875 0 
L 37.796875 17.1875 
L 4.890625 17.1875 
L 4.890625 26.703125 
z
" id="DejaVuSans-34"/>
      </defs>
      <g transform="translate(30.55625 178.264856)scale(0.15 -0.15)">
       <use xlink:href="#DejaVuSans-30"/>
       <use x="63.623047" xlink:href="#DejaVuSans-2e"/>
       <use x="95.410156" xlink:href="#DejaVuSans-34"/>
      </g>
     </g>
    </g>
    <g id="ytick_4">
     <g id="line2d_15">
      <path clip-path="url(#p14c9b73dbf)" d="M 61.410938 119.343628 
L 418.530938 119.343628 
" style="fill:none;stroke:#b0b0b0;stroke-linecap:square;stroke-width:0.8;"/>
     </g>
     <g id="line2d_16">
      <g>
       <use style="stroke:#000000;stroke-width:0.8;" x="61.410938" xlink:href="#m908802654d" y="119.343628"/>
      </g>
     </g>
     <g id="text_9">
      <!-- 0.6 -->
      <defs>
       <path d="M 33.015625 40.375 
Q 26.375 40.375 22.484375 35.828125 
Q 18.609375 31.296875 18.609375 23.390625 
Q 18.609375 15.53125 22.484375 10.953125 
Q 26.375 6.390625 33.015625 6.390625 
Q 39.65625 6.390625 43.53125 10.953125 
Q 47.40625 15.53125 47.40625 23.390625 
Q 47.40625 31.296875 43.53125 35.828125 
Q 39.65625 40.375 33.015625 40.375 
z
M 52.59375 71.296875 
L 52.59375 62.3125 
Q 48.875 64.0625 45.09375 64.984375 
Q 41.3125 65.921875 37.59375 65.921875 
Q 27.828125 65.921875 22.671875 59.328125 
Q 17.53125 52.734375 16.796875 39.40625 
Q 19.671875 43.65625 24.015625 45.921875 
Q 28.375 48.1875 33.59375 48.1875 
Q 44.578125 48.1875 50.953125 41.515625 
Q 57.328125 34.859375 57.328125 23.390625 
Q 57.328125 12.15625 50.6875 5.359375 
Q 44.046875 -1.421875 33.015625 -1.421875 
Q 20.359375 -1.421875 13.671875 8.265625 
Q 6.984375 17.96875 6.984375 36.375 
Q 6.984375 53.65625 15.1875 63.9375 
Q 23.390625 74.21875 37.203125 74.21875 
Q 40.921875 74.21875 44.703125 73.484375 
Q 48.484375 72.75 52.59375 71.296875 
z
" id="DejaVuSans-36"/>
      </defs>
      <g transform="translate(30.55625 125.042456)scale(0.15 -0.15)">
       <use xlink:href="#DejaVuSans-30"/>
       <use x="63.623047" xlink:href="#DejaVuSans-2e"/>
       <use x="95.410156" xlink:href="#DejaVuSans-36"/>
      </g>
     </g>
    </g>
    <g id="ytick_5">
     <g id="line2d_17">
      <path clip-path="url(#p14c9b73dbf)" d="M 61.410938 66.121228 
L 418.530938 66.121228 
" style="fill:none;stroke:#b0b0b0;stroke-linecap:square;stroke-width:0.8;"/>
     </g>
     <g id="line2d_18">
      <g>
       <use style="stroke:#000000;stroke-width:0.8;" x="61.410938" xlink:href="#m908802654d" y="66.121228"/>
      </g>
     </g>
     <g id="text_10">
      <!-- 0.8 -->
      <defs>
       <path d="M 31.78125 34.625 
Q 24.75 34.625 20.71875 30.859375 
Q 16.703125 27.09375 16.703125 20.515625 
Q 16.703125 13.921875 20.71875 10.15625 
Q 24.75 6.390625 31.78125 6.390625 
Q 38.8125 6.390625 42.859375 10.171875 
Q 46.921875 13.96875 46.921875 20.515625 
Q 46.921875 27.09375 42.890625 30.859375 
Q 38.875 34.625 31.78125 34.625 
z
M 21.921875 38.8125 
Q 15.578125 40.375 12.03125 44.71875 
Q 8.5 49.078125 8.5 55.328125 
Q 8.5 64.0625 14.71875 69.140625 
Q 20.953125 74.21875 31.78125 74.21875 
Q 42.671875 74.21875 48.875 69.140625 
Q 55.078125 64.0625 55.078125 55.328125 
Q 55.078125 49.078125 51.53125 44.71875 
Q 48 40.375 41.703125 38.8125 
Q 48.828125 37.15625 52.796875 32.3125 
Q 56.78125 27.484375 56.78125 20.515625 
Q 56.78125 9.90625 50.3125 4.234375 
Q 43.84375 -1.421875 31.78125 -1.421875 
Q 19.734375 -1.421875 13.25 4.234375 
Q 6.78125 9.90625 6.78125 20.515625 
Q 6.78125 27.484375 10.78125 32.3125 
Q 14.796875 37.15625 21.921875 38.8125 
z
M 18.3125 54.390625 
Q 18.3125 48.734375 21.84375 45.5625 
Q 25.390625 42.390625 31.78125 42.390625 
Q 38.140625 42.390625 41.71875 45.5625 
Q 45.3125 48.734375 45.3125 54.390625 
Q 45.3125 60.0625 41.71875 63.234375 
Q 38.140625 66.40625 31.78125 66.40625 
Q 25.390625 66.40625 21.84375 63.234375 
Q 18.3125 60.0625 18.3125 54.390625 
z
" id="DejaVuSans-38"/>
      </defs>
      <g transform="translate(30.55625 71.820056)scale(0.15 -0.15)">
       <use xlink:href="#DejaVuSans-30"/>
       <use x="63.623047" xlink:href="#DejaVuSans-2e"/>
       <use x="95.410156" xlink:href="#DejaVuSans-38"/>
      </g>
     </g>
    </g>
    <g id="ytick_6">
     <g id="line2d_19">
      <path clip-path="url(#p14c9b73dbf)" d="M 61.410938 12.898828 
L 418.530938 12.898828 
" style="fill:none;stroke:#b0b0b0;stroke-linecap:square;stroke-width:0.8;"/>
     </g>
     <g id="line2d_20">
      <g>
       <use style="stroke:#000000;stroke-width:0.8;" x="61.410938" xlink:href="#m908802654d" y="12.898828"/>
      </g>
     </g>
     <g id="text_11">
      <!-- 1.0 -->
      <g transform="translate(30.55625 18.597656)scale(0.15 -0.15)">
       <use xlink:href="#DejaVuSans-31"/>
       <use x="63.623047" xlink:href="#DejaVuSans-2e"/>
       <use x="95.410156" xlink:href="#DejaVuSans-30"/>
      </g>
     </g>
    </g>
    <g id="text_12">
     <!-- Survival -->
     <defs>
      <path d="M 53.515625 70.515625 
L 53.515625 60.890625 
Q 47.90625 63.578125 42.921875 64.890625 
Q 37.9375 66.21875 33.296875 66.21875 
Q 25.25 66.21875 20.875 63.09375 
Q 16.5 59.96875 16.5 54.203125 
Q 16.5 49.359375 19.40625 46.890625 
Q 22.3125 44.4375 30.421875 42.921875 
L 36.375 41.703125 
Q 47.40625 39.59375 52.65625 34.296875 
Q 57.90625 29 57.90625 20.125 
Q 57.90625 9.515625 50.796875 4.046875 
Q 43.703125 -1.421875 29.984375 -1.421875 
Q 24.8125 -1.421875 18.96875 -0.25 
Q 13.140625 0.921875 6.890625 3.21875 
L 6.890625 13.375 
Q 12.890625 10.015625 18.65625 8.296875 
Q 24.421875 6.59375 29.984375 6.59375 
Q 38.421875 6.59375 43.015625 9.90625 
Q 47.609375 13.234375 47.609375 19.390625 
Q 47.609375 24.75 44.3125 27.78125 
Q 41.015625 30.8125 33.5 32.328125 
L 27.484375 33.5 
Q 16.453125 35.6875 11.515625 40.375 
Q 6.59375 45.0625 6.59375 53.421875 
Q 6.59375 63.09375 13.40625 68.65625 
Q 20.21875 74.21875 32.171875 74.21875 
Q 37.3125 74.21875 42.625 73.28125 
Q 47.953125 72.359375 53.515625 70.515625 
z
" id="DejaVuSans-53"/>
      <path d="M 8.5 21.578125 
L 8.5 54.6875 
L 17.484375 54.6875 
L 17.484375 21.921875 
Q 17.484375 14.15625 20.5 10.265625 
Q 23.53125 6.390625 29.59375 6.390625 
Q 36.859375 6.390625 41.078125 11.03125 
Q 45.3125 15.671875 45.3125 23.6875 
L 45.3125 54.6875 
L 54.296875 54.6875 
L 54.296875 0 
L 45.3125 0 
L 45.3125 8.40625 
Q 42.046875 3.421875 37.71875 1 
Q 33.40625 -1.421875 27.6875 -1.421875 
Q 18.265625 -1.421875 13.375 4.4375 
Q 8.5 10.296875 8.5 21.578125 
z
M 31.109375 56 
z
" id="DejaVuSans-75"/>
      <path d="M 41.109375 46.296875 
Q 39.59375 47.171875 37.8125 47.578125 
Q 36.03125 48 33.890625 48 
Q 26.265625 48 22.1875 43.046875 
Q 18.109375 38.09375 18.109375 28.8125 
L 18.109375 0 
L 9.078125 0 
L 9.078125 54.6875 
L 18.109375 54.6875 
L 18.109375 46.1875 
Q 20.953125 51.171875 25.484375 53.578125 
Q 30.03125 56 36.53125 56 
Q 37.453125 56 38.578125 55.875 
Q 39.703125 55.765625 41.0625 55.515625 
z
" id="DejaVuSans-72"/>
      <path d="M 2.984375 54.6875 
L 12.5 54.6875 
L 29.59375 8.796875 
L 46.6875 54.6875 
L 56.203125 54.6875 
L 35.6875 0 
L 23.484375 0 
z
" id="DejaVuSans-76"/>
      <path d="M 34.28125 27.484375 
Q 23.390625 27.484375 19.1875 25 
Q 14.984375 22.515625 14.984375 16.5 
Q 14.984375 11.71875 18.140625 8.90625 
Q 21.296875 6.109375 26.703125 6.109375 
Q 34.1875 6.109375 38.703125 11.40625 
Q 43.21875 16.703125 43.21875 25.484375 
L 43.21875 27.484375 
z
M 52.203125 31.203125 
L 52.203125 0 
L 43.21875 0 
L 43.21875 8.296875 
Q 40.140625 3.328125 35.546875 0.953125 
Q 30.953125 -1.421875 24.3125 -1.421875 
Q 15.921875 -1.421875 10.953125 3.296875 
Q 6 8.015625 6 15.921875 
Q 6 25.140625 12.171875 29.828125 
Q 18.359375 34.515625 30.609375 34.515625 
L 43.21875 34.515625 
L 43.21875 35.40625 
Q 43.21875 41.609375 39.140625 45 
Q 35.0625 48.390625 27.6875 48.390625 
Q 23 48.390625 18.546875 47.265625 
Q 14.109375 46.140625 10.015625 43.890625 
L 10.015625 52.203125 
Q 14.9375 54.109375 19.578125 55.046875 
Q 24.21875 56 28.609375 56 
Q 40.484375 56 46.34375 49.84375 
Q 52.203125 43.703125 52.203125 31.203125 
z
" id="DejaVuSans-61"/>
      <path d="M 9.421875 75.984375 
L 18.40625 75.984375 
L 18.40625 0 
L 9.421875 0 
z
" id="DejaVuSans-6c"/>
     </defs>
     <g transform="translate(22.396875 186.273578)rotate(-90)scale(0.2 -0.2)">
      <use xlink:href="#DejaVuSans-53"/>
      <use x="63.476562" xlink:href="#DejaVuSans-75"/>
      <use x="126.855469" xlink:href="#DejaVuSans-72"/>
      <use x="167.96875" xlink:href="#DejaVuSans-76"/>
      <use x="227.148438" xlink:href="#DejaVuSans-69"/>
      <use x="254.931641" xlink:href="#DejaVuSans-76"/>
      <use x="314.111328" xlink:href="#DejaVuSans-61"/>
      <use x="375.390625" xlink:href="#DejaVuSans-6c"/>
     </g>
    </g>
   </g>
   <g id="LineCollection_1">
    <path clip-path="url(#p14c9b73dbf)" d="M 61.410938 278.752732 
L 61.410938 277.24782 
" style="fill:none;stroke:#1f77b4;stroke-width:1.5;"/>
    <path clip-path="url(#p14c9b73dbf)" d="M 73.314938 239.985501 
L 73.314938 229.802734 
" style="fill:none;stroke:#1f77b4;stroke-width:1.5;"/>
    <path clip-path="url(#p14c9b73dbf)" d="M 85.218938 134.961002 
L 85.218938 120.967313 
" style="fill:none;stroke:#1f77b4;stroke-width:1.5;"/>
    <path clip-path="url(#p14c9b73dbf)" d="M 97.122938 70.188173 
L 97.122938 59.407095 
" style="fill:none;stroke:#1f77b4;stroke-width:1.5;"/>
    <path clip-path="url(#p14c9b73dbf)" d="M 109.026938 106.780084 
L 109.026938 93.788426 
" style="fill:none;stroke:#1f77b4;stroke-width:1.5;"/>
    <path clip-path="url(#p14c9b73dbf)" d="M 120.930938 168.091811 
L 120.930938 154.54994 
" style="fill:none;stroke:#1f77b4;stroke-width:1.5;"/>
    <path clip-path="url(#p14c9b73dbf)" d="M 132.834938 239.128301 
L 132.834938 228.747014 
" style="fill:none;stroke:#1f77b4;stroke-width:1.5;"/>
    <path clip-path="url(#p14c9b73dbf)" d="M 144.738938 259.35843 
L 144.738938 251.61968 
" style="fill:none;stroke:#1f77b4;stroke-width:1.5;"/>
    <path clip-path="url(#p14c9b73dbf)" d="M 156.642938 212.933534 
L 156.642938 200.768122 
" style="fill:none;stroke:#1f77b4;stroke-width:1.5;"/>
    <path clip-path="url(#p14c9b73dbf)" d="M 168.546938 143.645459 
L 168.546938 130.008492 
" style="fill:none;stroke:#1f77b4;stroke-width:1.5;"/>
    <path clip-path="url(#p14c9b73dbf)" d="M 180.450938 93.81925 
L 180.450938 81.534755 
" style="fill:none;stroke:#1f77b4;stroke-width:1.5;"/>
    <path clip-path="url(#p14c9b73dbf)" d="M 192.354938 101.290687 
L 192.354938 88.747969 
" style="fill:none;stroke:#1f77b4;stroke-width:1.5;"/>
    <path clip-path="url(#p14c9b73dbf)" d="M 204.258938 180.533189 
L 204.258938 166.816467 
" style="fill:none;stroke:#1f77b4;stroke-width:1.5;"/>
    <path clip-path="url(#p14c9b73dbf)" d="M 216.162938 246.777473 
L 216.162938 237.324183 
" style="fill:none;stroke:#1f77b4;stroke-width:1.5;"/>
    <path clip-path="url(#p14c9b73dbf)" d="M 228.066938 259.200149 
L 228.066938 251.402614 
" style="fill:none;stroke:#1f77b4;stroke-width:1.5;"/>
    <path clip-path="url(#p14c9b73dbf)" d="M 239.970938 203.286642 
L 239.970938 190.815509 
" style="fill:none;stroke:#1f77b4;stroke-width:1.5;"/>
    <path clip-path="url(#p14c9b73dbf)" d="M 251.874938 133.825991 
L 251.874938 120.169859 
" style="fill:none;stroke:#1f77b4;stroke-width:1.5;"/>
    <path clip-path="url(#p14c9b73dbf)" d="M 263.778938 87.127883 
L 263.778938 75.43113 
" style="fill:none;stroke:#1f77b4;stroke-width:1.5;"/>
    <path clip-path="url(#p14c9b73dbf)" d="M 275.682938 100.875634 
L 275.682938 88.069706 
" style="fill:none;stroke:#1f77b4;stroke-width:1.5;"/>
    <path clip-path="url(#p14c9b73dbf)" d="M 287.586938 190.12636 
L 287.586938 177.337708 
" style="fill:none;stroke:#1f77b4;stroke-width:1.5;"/>
    <path clip-path="url(#p14c9b73dbf)" d="M 299.490938 253.542179 
L 299.490938 244.954424 
" style="fill:none;stroke:#1f77b4;stroke-width:1.5;"/>
    <path clip-path="url(#p14c9b73dbf)" d="M 311.394938 250.779687 
L 311.394938 241.917318 
" style="fill:none;stroke:#1f77b4;stroke-width:1.5;"/>
    <path clip-path="url(#p14c9b73dbf)" d="M 323.298938 184.652935 
L 323.298938 171.56142 
" style="fill:none;stroke:#1f77b4;stroke-width:1.5;"/>
    <path clip-path="url(#p14c9b73dbf)" d="M 335.202938 119.732742 
L 335.202938 106.521985 
" style="fill:none;stroke:#1f77b4;stroke-width:1.5;"/>
    <path clip-path="url(#p14c9b73dbf)" d="M 347.106938 97.741138 
L 347.106938 85.1415 
" style="fill:none;stroke:#1f77b4;stroke-width:1.5;"/>
    <path clip-path="url(#p14c9b73dbf)" d="M 359.010938 131.859477 
L 359.010938 118.699442 
" style="fill:none;stroke:#1f77b4;stroke-width:1.5;"/>
    <path clip-path="url(#p14c9b73dbf)" d="M 370.914938 197.478694 
L 370.914938 184.353424 
" style="fill:none;stroke:#1f77b4;stroke-width:1.5;"/>
    <path clip-path="url(#p14c9b73dbf)" d="M 382.818938 250.644586 
L 382.818938 241.405015 
" style="fill:none;stroke:#1f77b4;stroke-width:1.5;"/>
    <path clip-path="url(#p14c9b73dbf)" d="M 394.722938 245.845598 
L 394.722938 236.038458 
" style="fill:none;stroke:#1f77b4;stroke-width:1.5;"/>
    <path clip-path="url(#p14c9b73dbf)" d="M 406.626938 174.578149 
L 406.626938 160.968152 
" style="fill:none;stroke:#1f77b4;stroke-width:1.5;"/>
    <path clip-path="url(#p14c9b73dbf)" d="M 418.530938 114.878036 
L 418.530938 101.886003 
" style="fill:none;stroke:#1f77b4;stroke-width:1.5;"/>
   </g>
   <g id="LineCollection_2">
    <path clip-path="url(#p14c9b73dbf)" d="M 61.410938 278.391482 
L 61.410938 276.543028 
" style="fill:none;stroke:#d62728;stroke-width:1.5;"/>
    <path clip-path="url(#p14c9b73dbf)" d="M 77.282938 193.203592 
L 77.282938 180.686778 
" style="fill:none;stroke:#d62728;stroke-width:1.5;"/>
    <path clip-path="url(#p14c9b73dbf)" d="M 93.154938 115.372936 
L 93.154938 102.997572 
" style="fill:none;stroke:#d62728;stroke-width:1.5;"/>
    <path clip-path="url(#p14c9b73dbf)" d="M 109.026938 152.903938 
L 109.026938 139.664412 
" style="fill:none;stroke:#d62728;stroke-width:1.5;"/>
    <path clip-path="url(#p14c9b73dbf)" d="M 124.898938 174.369385 
L 124.898938 161.685019 
" style="fill:none;stroke:#d62728;stroke-width:1.5;"/>
    <path clip-path="url(#p14c9b73dbf)" d="M 140.770938 188.410619 
L 140.770938 175.901825 
" style="fill:none;stroke:#d62728;stroke-width:1.5;"/>
    <path clip-path="url(#p14c9b73dbf)" d="M 156.642938 190.3316 
L 156.642938 177.967854 
" style="fill:none;stroke:#d62728;stroke-width:1.5;"/>
    <path clip-path="url(#p14c9b73dbf)" d="M 172.514938 180.643325 
L 172.514938 167.926542 
" style="fill:none;stroke:#d62728;stroke-width:1.5;"/>
    <path clip-path="url(#p14c9b73dbf)" d="M 188.386938 168.385763 
L 188.386938 155.107893 
" style="fill:none;stroke:#d62728;stroke-width:1.5;"/>
    <path clip-path="url(#p14c9b73dbf)" d="M 204.258938 168.101731 
L 204.258938 154.920523 
" style="fill:none;stroke:#d62728;stroke-width:1.5;"/>
    <path clip-path="url(#p14c9b73dbf)" d="M 220.130938 170.535276 
L 220.130938 157.131032 
" style="fill:none;stroke:#d62728;stroke-width:1.5;"/>
    <path clip-path="url(#p14c9b73dbf)" d="M 236.002938 177.261504 
L 236.002938 164.382676 
" style="fill:none;stroke:#d62728;stroke-width:1.5;"/>
    <path clip-path="url(#p14c9b73dbf)" d="M 251.874938 208.59655 
L 251.874938 196.912805 
" style="fill:none;stroke:#d62728;stroke-width:1.5;"/>
    <path clip-path="url(#p14c9b73dbf)" d="M 267.746938 189.225978 
L 267.746938 176.710038 
" style="fill:none;stroke:#d62728;stroke-width:1.5;"/>
    <path clip-path="url(#p14c9b73dbf)" d="M 283.618938 174.578487 
L 283.618938 161.683169 
" style="fill:none;stroke:#d62728;stroke-width:1.5;"/>
    <path clip-path="url(#p14c9b73dbf)" d="M 299.490938 151.193991 
L 299.490938 138.163032 
" style="fill:none;stroke:#d62728;stroke-width:1.5;"/>
    <path clip-path="url(#p14c9b73dbf)" d="M 315.362938 150.952237 
L 315.362938 137.614303 
" style="fill:none;stroke:#d62728;stroke-width:1.5;"/>
    <path clip-path="url(#p14c9b73dbf)" d="M 331.234938 173.387889 
L 331.234938 160.702691 
" style="fill:none;stroke:#d62728;stroke-width:1.5;"/>
    <path clip-path="url(#p14c9b73dbf)" d="M 347.106938 185.553815 
L 347.106938 173.190422 
" style="fill:none;stroke:#d62728;stroke-width:1.5;"/>
    <path clip-path="url(#p14c9b73dbf)" d="M 362.978938 202.145286 
L 362.978938 189.641881 
" style="fill:none;stroke:#d62728;stroke-width:1.5;"/>
    <path clip-path="url(#p14c9b73dbf)" d="M 378.850938 176.133114 
L 378.850938 162.69629 
" style="fill:none;stroke:#d62728;stroke-width:1.5;"/>
   </g>
   <g id="line2d_21">
    <path clip-path="url(#p14c9b73dbf)" d="M 61.410938 278.57076 
L 62.482298 278.57076 
L 62.839418 278.275473 
L 63.196538 277.56005 
L 63.553658 276.481489 
L 63.910778 277.299737 
L 64.267898 275.987191 
L 64.625018 275.761441 
L 64.982138 273.470978 
L 65.339258 273.0918 
L 65.696378 272.32398 
L 66.053498 270.769255 
L 66.410618 269.885367 
L 67.124858 267.313615 
L 67.839098 263.713118 
L 68.196218 262.779445 
L 68.553338 260.608035 
L 68.910458 259.220845 
L 69.624698 254.009434 
L 69.981818 252.832651 
L 70.696058 248.563412 
L 71.053178 245.382595 
L 71.410298 243.727117 
L 72.838778 234.088395 
L 73.553018 228.118587 
L 73.910138 226.568782 
L 74.624378 219.758765 
L 76.052858 209.309055 
L 76.767098 202.679782 
L 80.338298 171.319607 
L 80.695418 169.577833 
L 81.409658 162.965611 
L 82.481018 153.510518 
L 82.838138 150.973691 
L 83.552378 144.012212 
L 84.266618 138.916835 
L 84.623738 134.464757 
L 84.980858 132.657465 
L 86.052218 123.414061 
L 87.123578 115.424234 
L 87.480698 112.555696 
L 87.837818 110.868128 
L 88.552058 105.483096 
L 89.623418 98.354964 
L 92.480378 82.191473 
L 93.908858 75.723042 
L 94.265978 74.888778 
L 94.623098 73.371391 
L 94.980218 70.952153 
L 95.337338 70.265261 
L 96.051578 67.900619 
L 96.408698 67.45993 
L 96.765818 66.076475 
L 97.122938 66.027391 
L 97.480058 65.034516 
L 97.837178 65.124098 
L 98.194298 64.103771 
L 98.908538 63.119642 
L 99.265658 63.160735 
L 99.622778 62.818029 
L 99.979898 63.119642 
L 100.337018 61.978969 
L 100.694138 61.964339 
L 101.408378 62.914178 
L 101.765498 62.923207 
L 102.122618 63.945807 
L 102.836858 65.002832 
L 103.193978 64.310372 
L 103.551098 66.333366 
L 104.622458 67.929587 
L 105.693818 71.552333 
L 106.050938 72.247555 
L 106.408058 74.545377 
L 107.122298 76.474265 
L 107.836538 79.797956 
L 108.193658 80.618041 
L 108.550778 83.60525 
L 109.979258 89.967246 
L 110.693498 94.817168 
L 111.050618 95.784934 
L 111.764858 100.524824 
L 113.907578 113.75589 
L 114.264698 115.496361 
L 114.621818 119.463322 
L 115.693178 125.773231 
L 116.050298 129.900154 
L 116.407418 131.15591 
L 116.764538 133.257023 
L 117.121658 136.732501 
L 117.478778 138.717938 
L 118.193018 144.902462 
L 118.907258 149.508453 
L 119.264378 152.623156 
L 119.621498 154.485356 
L 120.335738 160.517713 
L 121.049978 165.534559 
L 121.407098 167.11415 
L 121.764218 170.461394 
L 122.121338 172.583388 
L 122.478458 176.377788 
L 122.835578 178.516747 
L 123.192698 181.957216 
L 123.906938 186.350689 
L 124.264058 188.562451 
L 124.621178 191.9097 
L 125.692538 197.670326 
L 126.406778 204.093567 
L 126.763898 204.928904 
L 127.121018 208.614351 
L 127.835258 212.589464 
L 128.192378 213.845141 
L 128.549498 216.720038 
L 129.263738 220.477551 
L 129.620858 222.842247 
L 130.692218 228.041083 
L 131.049338 230.784406 
L 131.406458 231.010682 
L 133.192058 240.430197 
L 133.906298 241.878682 
L 134.263418 243.152917 
L 134.977658 246.542321 
L 135.691898 248.221206 
L 136.049018 249.539465 
L 136.406138 250.165975 
L 136.763258 251.330715 
L 137.120378 251.300103 
L 137.477498 253.039156 
L 137.834618 253.911933 
L 138.191738 255.122054 
L 138.548858 254.313597 
L 138.905978 254.064655 
L 139.263098 255.597096 
L 139.620218 256.425445 
L 139.977338 256.927523 
L 140.334458 256.301962 
L 141.048698 257.853929 
L 141.405818 256.998612 
L 141.762938 257.737646 
L 142.120058 257.009783 
L 142.477178 257.291474 
L 143.191418 256.876745 
L 143.548538 255.723315 
L 143.905658 255.684478 
L 144.262778 254.490305 
L 144.619898 254.425202 
L 144.977018 255.017549 
L 145.334138 253.205209 
L 146.048378 252.37033 
L 146.762618 250.149763 
L 147.119738 250.336199 
L 147.476858 249.195156 
L 148.191098 245.953869 
L 148.905338 244.045105 
L 149.262458 242.257181 
L 149.619578 241.424237 
L 149.976698 239.79697 
L 150.690938 238.090221 
L 151.048058 235.877685 
L 151.405178 234.63526 
L 151.762298 232.500023 
L 152.119418 231.37752 
L 153.547898 224.519133 
L 154.619258 218.563103 
L 154.976378 217.569444 
L 155.333498 215.791618 
L 156.047738 210.708773 
L 156.404858 209.258325 
L 157.119098 204.081352 
L 157.476218 202.623299 
L 158.190458 197.815622 
L 158.547578 195.020325 
L 158.904698 193.810675 
L 159.261818 191.009371 
L 159.976058 187.144884 
L 160.690298 181.924083 
L 161.761658 174.963363 
L 162.118778 173.256922 
L 162.475898 170.98284 
L 162.833018 167.543308 
L 163.547258 163.875628 
L 164.618618 156.241328 
L 166.047098 147.280496 
L 166.404218 145.714365 
L 166.761338 142.49133 
L 167.832698 136.228717 
L 168.189818 133.229412 
L 168.546938 132.21514 
L 168.904058 130.398939 
L 169.618298 124.827748 
L 169.975418 123.472965 
L 170.689658 118.638506 
L 173.903738 102.691751 
L 174.260858 101.408425 
L 174.975098 98.189171 
L 175.689338 94.243375 
L 176.046458 93.693581 
L 176.403578 92.360744 
L 176.760698 91.82122 
L 177.117818 89.191736 
L 178.189178 85.934272 
L 178.546298 85.792923 
L 178.903418 84.12108 
L 179.617658 82.536635 
L 179.974778 82.37455 
L 180.331898 81.018808 
L 180.689018 81.084867 
L 181.046138 80.436838 
L 181.403258 79.360843 
L 181.760378 78.990515 
L 182.117498 78.217397 
L 182.474618 78.505227 
L 182.831738 78.023828 
L 183.188858 77.743394 
L 183.545978 77.878089 
L 183.903098 78.181334 
L 184.260218 77.789412 
L 184.617338 78.023828 
L 184.974458 78.023828 
L 185.331578 78.621247 
L 185.688698 78.023828 
L 186.045818 78.478453 
L 186.402938 78.698947 
L 186.760058 79.14252 
L 187.117178 79.883737 
L 187.474298 81.733434 
L 187.831418 81.522681 
L 188.188538 82.583967 
L 188.545658 82.489302 
L 189.259898 84.25701 
L 189.974138 85.488593 
L 190.331258 88.269709 
L 190.688378 88.256116 
L 191.402618 91.466181 
L 191.759738 92.096028 
L 192.473978 95.511805 
L 192.831098 96.409052 
L 193.188218 98.550688 
L 193.902458 101.365586 
L 194.259578 102.987412 
L 194.973818 106.789459 
L 197.473658 120.373347 
L 198.545018 127.020269 
L 199.616378 134.167911 
L 199.973498 137.531277 
L 200.330618 138.373047 
L 201.044858 143.185049 
L 202.830458 156.252236 
L 203.187578 156.797644 
L 203.544698 160.191809 
L 203.901818 162.418817 
L 204.616058 167.994104 
L 204.973178 169.987023 
L 205.330298 173.148288 
L 205.687418 174.876098 
L 206.401658 180.512144 
L 206.758778 181.714237 
L 207.473018 187.639079 
L 207.830138 190.478477 
L 208.187258 191.844956 
L 209.258618 201.031715 
L 209.615738 201.111675 
L 209.972858 204.175001 
L 210.329978 206.164702 
L 211.044218 210.644437 
L 211.401338 213.218569 
L 211.758458 214.584379 
L 212.115578 217.740949 
L 212.472698 219.57768 
L 213.186938 223.847161 
L 213.901178 227.927409 
L 214.615418 231.361258 
L 214.972538 233.935472 
L 215.329658 234.442718 
L 216.401018 239.879014 
L 216.758138 240.879527 
L 217.829498 246.098713 
L 218.543738 248.351817 
L 218.900858 250.206505 
L 219.257978 251.100056 
L 219.615098 251.347545 
L 219.972218 252.587709 
L 220.329338 254.661829 
L 220.686458 254.406601 
L 221.043578 255.246551 
L 221.400698 256.445525 
L 222.114938 257.779719 
L 222.472058 258.371715 
L 222.829178 259.209661 
L 223.186298 259.647748 
L 223.543418 259.238996 
L 223.900538 259.30696 
L 224.257658 259.904501 
L 224.614778 260.120978 
L 224.971898 259.476869 
L 225.686138 259.590376 
L 226.043258 260.203441 
L 226.400378 258.695117 
L 226.757498 259.363596 
L 227.114618 258.285516 
L 227.471738 257.727127 
L 227.828858 257.706091 
L 228.185978 257.499364 
L 228.900218 255.112553 
L 229.971578 253.681185 
L 230.685818 251.100056 
L 231.042938 249.563344 
L 231.400058 249.17149 
L 231.757178 246.742983 
L 232.828538 243.420817 
L 233.185658 241.662866 
L 233.542778 241.040759 
L 234.257018 237.152567 
L 234.614138 234.818855 
L 234.971258 233.811745 
L 237.828218 217.90118 
L 238.185338 216.501397 
L 238.542458 213.279806 
L 240.328058 201.717461 
L 240.685178 198.967824 
L 241.042298 197.381247 
L 241.399418 195.155959 
L 241.756538 191.837339 
L 242.113658 189.569232 
L 242.827898 184.21184 
L 243.542138 180.530475 
L 244.613498 171.348576 
L 244.970618 168.821012 
L 245.327738 167.143001 
L 246.041978 161.375926 
L 246.399098 158.562292 
L 246.756218 156.844913 
L 247.113338 153.357173 
L 247.470458 151.845916 
L 247.827578 148.264198 
L 248.541818 143.286564 
L 248.898938 140.35092 
L 249.256058 138.844161 
L 249.613178 135.81381 
L 250.327418 132.131934 
L 250.684538 128.637569 
L 252.470138 117.366148 
L 252.827258 115.810585 
L 253.184378 112.46269 
L 253.898618 108.379581 
L 254.255738 107.327067 
L 254.612858 105.272908 
L 254.969978 101.96929 
L 255.327098 101.510168 
L 255.684218 98.66253 
L 256.041338 97.457843 
L 256.755578 93.724049 
L 257.112698 92.702964 
L 257.826938 88.687029 
L 258.184058 87.746838 
L 258.541178 85.473989 
L 258.898298 85.120287 
L 259.612538 82.00068 
L 259.969658 81.395791 
L 260.326778 79.7808 
L 260.683898 79.603383 
L 261.398138 77.73419 
L 261.755258 77.317551 
L 262.469498 74.683116 
L 262.826618 74.703663 
L 263.540858 73.616363 
L 263.897978 73.338668 
L 264.612218 72.293453 
L 264.969338 72.877323 
L 265.326458 72.88521 
L 265.683578 72.201657 
L 266.040698 72.672715 
L 266.397818 72.706267 
L 266.754938 73.338668 
L 267.469178 73.961883 
L 268.183418 75.240369 
L 268.540538 74.278139 
L 268.897658 76.531887 
L 269.254778 75.841575 
L 269.611898 77.429155 
L 269.969018 78.334601 
L 270.326138 79.703597 
L 270.683258 80.593036 
L 271.040378 80.394765 
L 271.397498 82.310871 
L 271.754618 83.193291 
L 272.111738 85.260182 
L 272.468858 85.734985 
L 272.825978 87.15127 
L 273.183098 89.482914 
L 274.254458 93.19207 
L 274.968698 97.321034 
L 276.040058 102.370937 
L 276.754298 107.047577 
L 277.111418 109.298041 
L 277.468538 110.778355 
L 278.182778 115.428742 
L 278.539898 117.219877 
L 279.254138 122.445533 
L 281.753978 139.417901 
L 282.111098 142.914341 
L 282.468218 144.752706 
L 283.896698 154.543773 
L 284.253818 158.884574 
L 284.610938 161.04278 
L 284.968058 164.43101 
L 285.325178 166.039451 
L 289.253498 196.425234 
L 289.967738 200.507367 
L 290.324858 203.971416 
L 291.753338 213.104844 
L 292.110458 216.487873 
L 292.467578 217.90118 
L 292.824698 220.740983 
L 293.538938 224.095379 
L 293.896058 226.964859 
L 294.610298 231.339576 
L 295.324538 236.179173 
L 295.681658 236.943619 
L 296.038778 239.347491 
L 296.395898 240.175938 
L 296.753018 242.788672 
L 297.824378 247.637411 
L 298.181498 248.52466 
L 298.895738 251.473765 
L 299.609978 254.555408 
L 299.967098 254.840416 
L 300.324218 257.020056 
L 300.681338 257.685054 
L 301.038458 258.985982 
L 301.395578 259.397578 
L 301.752698 260.050296 
L 302.109818 261.396298 
L 302.466938 261.039642 
L 302.824058 262.46784 
L 303.538298 263.169571 
L 303.895418 263.998257 
L 304.252538 263.882386 
L 304.609658 264.143096 
L 304.966778 263.408983 
L 305.323898 264.790799 
L 305.681018 264.760332 
L 306.038138 263.394959 
L 306.395258 263.114351 
L 306.752378 263.983773 
L 307.109498 262.551871 
L 307.466618 263.335232 
L 307.823738 262.494214 
L 308.180858 261.346522 
L 308.537978 262.074448 
L 308.895098 259.834748 
L 309.252218 258.963614 
L 309.609338 258.465973 
L 309.966458 258.542328 
L 311.037818 254.605433 
L 311.394938 253.527918 
L 311.752058 251.62528 
L 312.109178 250.618827 
L 312.466298 250.67553 
L 312.823418 246.976717 
L 313.180538 246.381676 
L 313.537658 243.925744 
L 313.894778 242.862301 
L 314.251898 240.630825 
L 314.609018 240.258572 
L 314.966138 237.282553 
L 315.680378 234.162024 
L 316.394618 228.959291 
L 317.108858 225.400973 
L 317.465978 223.150182 
L 318.180218 217.786729 
L 318.537338 216.442793 
L 319.965818 205.776597 
L 320.322938 204.323502 
L 321.037178 198.6286 
L 321.751418 194.083426 
L 322.108538 190.493645 
L 323.537018 180.380159 
L 324.251258 174.810649 
L 324.608378 172.420437 
L 325.322618 166.623683 
L 327.108218 153.152713 
L 327.465338 152.216204 
L 328.179578 145.483223 
L 328.536698 143.670067 
L 328.893818 140.13003 
L 329.250938 138.311582 
L 330.322298 130.862707 
L 330.679418 127.87947 
L 331.036538 125.967284 
L 331.750778 121.278593 
L 332.107898 119.911903 
L 332.822138 114.108397 
L 333.179258 113.226539 
L 334.250618 106.490377 
L 334.607738 105.326581 
L 334.964858 102.344641 
L 335.321978 101.466997 
L 335.679098 99.155244 
L 336.036218 98.494767 
L 336.750458 93.784983 
L 337.464697 91.637806 
L 337.821818 89.815901 
L 338.178938 89.051171 
L 338.893178 86.128221 
L 339.250298 84.995118 
L 339.607418 84.67897 
L 339.964538 83.208792 
L 340.321658 82.906963 
L 340.678778 80.5294 
L 341.035898 81.035323 
L 341.393018 80.743071 
L 341.750138 79.755066 
L 342.107258 79.577397 
L 342.464378 78.656946 
L 342.821498 78.710494 
L 343.178618 77.743394 
L 343.535738 78.078479 
L 343.892858 78.087588 
L 344.249978 77.042436 
L 344.607098 77.252448 
L 344.964218 77.697376 
L 345.321338 77.202225 
L 346.035578 78.096697 
L 346.392697 79.18626 
L 346.749818 78.181334 
L 347.106938 79.395491 
L 347.464058 79.378167 
L 347.821178 80.969264 
L 348.178298 81.904294 
L 348.535418 81.896262 
L 349.249658 84.204148 
L 349.606778 83.903472 
L 350.321018 87.032061 
L 350.678138 87.670908 
L 351.035258 88.693774 
L 353.535098 99.113265 
L 353.892218 101.985162 
L 354.249338 102.339642 
L 354.606458 103.935216 
L 354.963578 106.285711 
L 355.320698 107.336939 
L 356.749178 115.658648 
L 357.463418 119.402387 
L 358.177658 123.443513 
L 359.963258 134.429571 
L 361.034618 141.856979 
L 361.748858 145.580154 
L 362.105978 147.789101 
L 362.463098 151.409635 
L 362.820218 153.092433 
L 363.177338 155.55775 
L 363.534458 157.139433 
L 364.248698 162.650571 
L 364.962938 167.258405 
L 365.677178 172.243 
L 366.034298 173.690745 
L 366.391418 175.948733 
L 366.748538 179.412276 
L 367.105658 180.482814 
L 367.462778 182.623244 
L 367.819898 185.716912 
L 368.534138 189.588112 
L 368.891258 192.126781 
L 369.962618 197.744937 
L 370.676858 203.063243 
L 371.033978 204.658927 
L 371.391098 205.681635 
L 372.105338 209.933977 
L 373.176698 215.086098 
L 373.890938 218.972903 
L 374.248058 220.006535 
L 374.962298 223.962846 
L 375.319418 224.972468 
L 375.676538 226.848067 
L 376.033658 227.500089 
L 376.390778 229.772514 
L 376.747898 230.093328 
L 377.819258 235.130611 
L 378.176378 235.026664 
L 378.533498 236.931679 
L 378.890618 238.047567 
L 379.247738 237.69875 
L 379.604858 239.736694 
L 379.961978 240.328493 
L 380.676218 242.567785 
L 381.033338 242.263824 
L 381.390458 243.976078 
L 381.747578 243.836704 
L 382.104698 245.001322 
L 382.461818 245.254339 
L 382.818938 244.555942 
L 383.176058 246.163893 
L 383.533178 246.823975 
L 383.890298 246.185619 
L 384.247418 245.813168 
L 384.604538 246.757709 
L 384.961658 246.171135 
L 385.318778 247.644963 
L 385.675898 246.367072 
L 386.390138 245.924901 
L 386.747258 246.236315 
L 387.461498 245.762885 
L 387.818618 244.58377 
L 388.175738 244.96598 
L 388.532858 244.745309 
L 388.889978 244.127937 
L 389.247098 243.733966 
L 389.604218 243.071981 
L 390.318458 241.227788 
L 390.675578 241.26182 
L 391.032698 239.778037 
L 391.746938 238.54235 
L 392.818298 234.738532 
L 393.175418 234.663947 
L 393.532538 232.979924 
L 394.246778 230.859831 
L 394.961018 228.061751 
L 395.318138 226.095399 
L 395.675258 225.570696 
L 396.032378 224.474709 
L 396.389498 222.007116 
L 396.746618 221.715781 
L 397.103738 220.49165 
L 397.460858 218.10719 
L 397.817978 216.478857 
L 398.175098 215.957565 
L 398.532218 213.262309 
L 398.889338 211.832261 
L 399.246458 211.073348 
L 399.603578 208.336661 
L 400.317818 205.29119 
L 400.674938 203.630667 
L 401.032058 201.139661 
L 402.103418 196.359064 
L 402.817658 193.649329 
L 403.531898 188.517333 
L 403.889018 187.00636 
L 404.246138 184.412312 
L 404.960378 180.981618 
L 405.317498 178.268474 
L 405.674618 177.019806 
L 406.031738 174.912458 
L 406.388858 173.647112 
L 407.460218 166.508279 
L 407.817338 165.945685 
L 408.888698 158.877332 
L 409.245818 157.375776 
L 410.317178 150.984735 
L 410.674298 150.395695 
L 411.031418 147.737126 
L 411.388538 146.560283 
L 411.745658 144.745218 
L 412.102778 141.856979 
L 412.459898 141.00669 
L 412.817018 139.257254 
L 413.531258 134.836165 
L 413.888378 133.582798 
L 414.245498 131.30317 
L 414.602618 129.896138 
L 414.959738 127.692172 
L 415.316858 126.918005 
L 416.031098 123.510832 
L 416.745338 120.287147 
L 417.102458 118.104398 
L 417.459578 117.494264 
L 418.173818 114.343546 
L 418.530938 112.978454 
L 418.530938 112.978454 
" style="fill:none;stroke:#1f77b4;stroke-linecap:square;stroke-width:1.5;"/>
   </g>
   <g id="line2d_22">
    <path clip-path="url(#p14c9b73dbf)" d="M 61.410938 52.815628 
L 418.530938 52.815628 
" style="fill:none;opacity:0.3;stroke:#0000ff;stroke-dasharray:7.4,3.2;stroke-dashoffset:0;stroke-width:2;"/>
   </g>
   <g id="line2d_23">
    <defs>
     <path d="M 0 3 
C 0.795609 3 1.55874 2.683901 2.12132 2.12132 
C 2.683901 1.55874 3 0.795609 3 0 
C 3 -0.795609 2.683901 -1.55874 2.12132 -2.12132 
C 1.55874 -2.683901 0.795609 -3 0 -3 
C -0.795609 -3 -1.55874 -2.683901 -2.12132 -2.12132 
C -2.683901 -1.55874 -3 -0.795609 -3 0 
C -3 0.795609 -2.683901 1.55874 -2.12132 2.12132 
C -1.55874 2.683901 -0.795609 3 0 3 
z
" id="m87cb718f7f" style="stroke:#1f77b4;"/>
    </defs>
    <g clip-path="url(#p14c9b73dbf)">
     <use style="fill:#1f77b4;stroke:#1f77b4;" x="61.410938" xlink:href="#m87cb718f7f" y="278.000276"/>
     <use style="fill:#1f77b4;stroke:#1f77b4;" x="73.314938" xlink:href="#m87cb718f7f" y="234.894117"/>
     <use style="fill:#1f77b4;stroke:#1f77b4;" x="85.218938" xlink:href="#m87cb718f7f" y="127.964158"/>
     <use style="fill:#1f77b4;stroke:#1f77b4;" x="97.122938" xlink:href="#m87cb718f7f" y="64.797634"/>
     <use style="fill:#1f77b4;stroke:#1f77b4;" x="109.026938" xlink:href="#m87cb718f7f" y="100.284255"/>
     <use style="fill:#1f77b4;stroke:#1f77b4;" x="120.930938" xlink:href="#m87cb718f7f" y="161.320875"/>
     <use style="fill:#1f77b4;stroke:#1f77b4;" x="132.834938" xlink:href="#m87cb718f7f" y="233.937657"/>
     <use style="fill:#1f77b4;stroke:#1f77b4;" x="144.738938" xlink:href="#m87cb718f7f" y="255.489055"/>
     <use style="fill:#1f77b4;stroke:#1f77b4;" x="156.642938" xlink:href="#m87cb718f7f" y="206.850828"/>
     <use style="fill:#1f77b4;stroke:#1f77b4;" x="168.546938" xlink:href="#m87cb718f7f" y="136.826976"/>
     <use style="fill:#1f77b4;stroke:#1f77b4;" x="180.450938" xlink:href="#m87cb718f7f" y="87.677002"/>
     <use style="fill:#1f77b4;stroke:#1f77b4;" x="192.354938" xlink:href="#m87cb718f7f" y="95.019328"/>
     <use style="fill:#1f77b4;stroke:#1f77b4;" x="204.258938" xlink:href="#m87cb718f7f" y="173.674828"/>
     <use style="fill:#1f77b4;stroke:#1f77b4;" x="216.162938" xlink:href="#m87cb718f7f" y="242.050828"/>
     <use style="fill:#1f77b4;stroke:#1f77b4;" x="228.066938" xlink:href="#m87cb718f7f" y="255.301381"/>
     <use style="fill:#1f77b4;stroke:#1f77b4;" x="239.970938" xlink:href="#m87cb718f7f" y="197.051076"/>
     <use style="fill:#1f77b4;stroke:#1f77b4;" x="251.874938" xlink:href="#m87cb718f7f" y="126.997925"/>
     <use style="fill:#1f77b4;stroke:#1f77b4;" x="263.778938" xlink:href="#m87cb718f7f" y="81.279507"/>
     <use style="fill:#1f77b4;stroke:#1f77b4;" x="275.682938" xlink:href="#m87cb718f7f" y="94.47267"/>
     <use style="fill:#1f77b4;stroke:#1f77b4;" x="287.586938" xlink:href="#m87cb718f7f" y="183.732034"/>
     <use style="fill:#1f77b4;stroke:#1f77b4;" x="299.490938" xlink:href="#m87cb718f7f" y="249.248302"/>
     <use style="fill:#1f77b4;stroke:#1f77b4;" x="311.394938" xlink:href="#m87cb718f7f" y="246.348503"/>
     <use style="fill:#1f77b4;stroke:#1f77b4;" x="323.298938" xlink:href="#m87cb718f7f" y="178.107178"/>
     <use style="fill:#1f77b4;stroke:#1f77b4;" x="335.202938" xlink:href="#m87cb718f7f" y="113.127364"/>
     <use style="fill:#1f77b4;stroke:#1f77b4;" x="347.106938" xlink:href="#m87cb718f7f" y="91.441319"/>
     <use style="fill:#1f77b4;stroke:#1f77b4;" x="359.010938" xlink:href="#m87cb718f7f" y="125.27946"/>
     <use style="fill:#1f77b4;stroke:#1f77b4;" x="370.914938" xlink:href="#m87cb718f7f" y="190.916059"/>
     <use style="fill:#1f77b4;stroke:#1f77b4;" x="382.818938" xlink:href="#m87cb718f7f" y="246.0248"/>
     <use style="fill:#1f77b4;stroke:#1f77b4;" x="394.722938" xlink:href="#m87cb718f7f" y="240.942028"/>
     <use style="fill:#1f77b4;stroke:#1f77b4;" x="406.626938" xlink:href="#m87cb718f7f" y="167.773151"/>
     <use style="fill:#1f77b4;stroke:#1f77b4;" x="418.530938" xlink:href="#m87cb718f7f" y="108.38202"/>
    </g>
   </g>
   <g id="line2d_24">
    <path clip-path="url(#p14c9b73dbf)" d="M 61.410938 277.467255 
L 77.282938 186.945185 
L 93.154938 109.185254 
L 109.026938 146.284175 
L 124.898938 168.027202 
L 140.770938 182.156222 
L 156.642938 184.149727 
L 172.514938 174.284933 
L 188.386938 161.746828 
L 204.258938 161.511127 
L 220.130938 163.833154 
L 236.002938 170.82209 
L 251.874938 202.754677 
L 267.746938 182.968008 
L 283.618938 168.130828 
L 299.490938 144.678512 
L 315.362938 144.28327 
L 331.234938 167.04529 
L 347.106938 179.372118 
L 362.978938 195.893584 
L 378.850938 169.414702 
" style="fill:none;stroke:#d62728;stroke-linecap:square;stroke-width:1.5;"/>
    <defs>
     <path d="M 0 3 
C 0.795609 3 1.55874 2.683901 2.12132 2.12132 
C 2.683901 1.55874 3 0.795609 3 0 
C 3 -0.795609 2.683901 -1.55874 2.12132 -2.12132 
C 1.55874 -2.683901 0.795609 -3 0 -3 
C -0.795609 -3 -1.55874 -2.683901 -2.12132 -2.12132 
C -2.683901 -1.55874 -3 -0.795609 -3 0 
C -3 0.795609 -2.683901 1.55874 -2.12132 2.12132 
C -1.55874 2.683901 -0.795609 3 0 3 
z
" id="m92843e7986" style="stroke:#d62728;"/>
    </defs>
    <g clip-path="url(#p14c9b73dbf)">
     <use style="fill:#d62728;stroke:#d62728;" x="61.410938" xlink:href="#m92843e7986" y="277.467255"/>
     <use style="fill:#d62728;stroke:#d62728;" x="77.282938" xlink:href="#m92843e7986" y="186.945185"/>
     <use style="fill:#d62728;stroke:#d62728;" x="93.154938" xlink:href="#m92843e7986" y="109.185254"/>
     <use style="fill:#d62728;stroke:#d62728;" x="109.026938" xlink:href="#m92843e7986" y="146.284175"/>
     <use style="fill:#d62728;stroke:#d62728;" x="124.898938" xlink:href="#m92843e7986" y="168.027202"/>
     <use style="fill:#d62728;stroke:#d62728;" x="140.770938" xlink:href="#m92843e7986" y="182.156222"/>
     <use style="fill:#d62728;stroke:#d62728;" x="156.642938" xlink:href="#m92843e7986" y="184.149727"/>
     <use style="fill:#d62728;stroke:#d62728;" x="172.514938" xlink:href="#m92843e7986" y="174.284933"/>
     <use style="fill:#d62728;stroke:#d62728;" x="188.386938" xlink:href="#m92843e7986" y="161.746828"/>
     <use style="fill:#d62728;stroke:#d62728;" x="204.258938" xlink:href="#m92843e7986" y="161.511127"/>
     <use style="fill:#d62728;stroke:#d62728;" x="220.130938" xlink:href="#m92843e7986" y="163.833154"/>
     <use style="fill:#d62728;stroke:#d62728;" x="236.002938" xlink:href="#m92843e7986" y="170.82209"/>
     <use style="fill:#d62728;stroke:#d62728;" x="251.874938" xlink:href="#m92843e7986" y="202.754677"/>
     <use style="fill:#d62728;stroke:#d62728;" x="267.746938" xlink:href="#m92843e7986" y="182.968008"/>
     <use style="fill:#d62728;stroke:#d62728;" x="283.618938" xlink:href="#m92843e7986" y="168.130828"/>
     <use style="fill:#d62728;stroke:#d62728;" x="299.490938" xlink:href="#m92843e7986" y="144.678512"/>
     <use style="fill:#d62728;stroke:#d62728;" x="315.362938" xlink:href="#m92843e7986" y="144.28327"/>
     <use style="fill:#d62728;stroke:#d62728;" x="331.234938" xlink:href="#m92843e7986" y="167.04529"/>
     <use style="fill:#d62728;stroke:#d62728;" x="347.106938" xlink:href="#m92843e7986" y="179.372118"/>
     <use style="fill:#d62728;stroke:#d62728;" x="362.978938" xlink:href="#m92843e7986" y="195.893584"/>
     <use style="fill:#d62728;stroke:#d62728;" x="378.850938" xlink:href="#m92843e7986" y="169.414702"/>
    </g>
   </g>
   <g id="patch_3">
    <path d="M 61.410938 279.010828 
L 61.410938 12.898828 
" style="fill:none;stroke:#000000;stroke-linecap:square;stroke-linejoin:miter;stroke-width:0.8;"/>
   </g>
   <g id="patch_4">
    <path d="M 418.530938 279.010828 
L 418.530938 12.898828 
" style="fill:none;stroke:#000000;stroke-linecap:square;stroke-linejoin:miter;stroke-width:0.8;"/>
   </g>
   <g id="patch_5">
    <path d="M 61.410938 279.010828 
L 418.530938 279.010828 
" style="fill:none;stroke:#000000;stroke-linecap:square;stroke-linejoin:miter;stroke-width:0.8;"/>
   </g>
   <g id="patch_6">
    <path d="M 61.410938 12.898828 
L 418.530938 12.898828 
" style="fill:none;stroke:#000000;stroke-linecap:square;stroke-linejoin:miter;stroke-width:0.8;"/>
   </g>
   <g id="text_13">
    <!-- (D) -->
    <defs>
     <path d="M 19.671875 64.796875 
L 19.671875 8.109375 
L 31.59375 8.109375 
Q 46.6875 8.109375 53.6875 14.9375 
Q 60.6875 21.78125 60.6875 36.53125 
Q 60.6875 51.171875 53.6875 57.984375 
Q 46.6875 64.796875 31.59375 64.796875 
z
M 9.8125 72.90625 
L 30.078125 72.90625 
Q 51.265625 72.90625 61.171875 64.09375 
Q 71.09375 55.28125 71.09375 36.53125 
Q 71.09375 17.671875 61.125 8.828125 
Q 51.171875 0 30.078125 0 
L 9.8125 0 
z
" id="DejaVuSans-44"/>
    </defs>
    <g transform="translate(81.250938 39.510028)scale(0.2 -0.2)">
     <use xlink:href="#DejaVuSans-28"/>
     <use x="39.013672" xlink:href="#DejaVuSans-44"/>
     <use x="116.015625" xlink:href="#DejaVuSans-29"/>
    </g>
   </g>
  </g>
 </g>
 <defs>
  <clipPath id="p14c9b73dbf">
   <rect height="266.112" width="357.12" x="61.410938" y="12.898828"/>
  </clipPath>
 </defs>
</svg>
