<?xml version="1.0" encoding="utf-8" standalone="no"?>
<!DOCTYPE svg PUBLIC "-//W3C//DTD SVG 1.1//EN"
  "http://www.w3.org/Graphics/SVG/1.1/DTD/svg11.dtd">
<!-- Created with matplotlib (http://matplotlib.org/) -->
<svg height="331pt" version="1.1" viewBox="0 0 435 331" width="435pt" xmlns="http://www.w3.org/2000/svg" xmlns:xlink="http://www.w3.org/1999/xlink">
 <defs>
  <style type="text/css">
*{stroke-linecap:butt;stroke-linejoin:round;}
  </style>
 </defs>
 <g id="figure_1">
  <g id="patch_1">
   <path d="M 0 331.128016 
L 435.274687 331.128016 
L 435.274687 0 
L 0 0 
z
" style="fill:none;"/>
  </g>
  <g id="axes_1">
   <g id="patch_2">
    <path d="M 61.410938 279.010828 
L 418.530938 279.010828 
L 418.530938 12.898828 
L 61.410938 12.898828 
z
" style="fill:none;"/>
   </g>
   <g id="matplotlib.axis_1">
    <g id="xtick_1">
     <g id="line2d_1">
      <path clip-path="url(#p569502e5ba)" d="M 61.410938 279.010828 
L 61.410938 12.898828 
" style="fill:none;stroke:#b0b0b0;stroke-linecap:square;stroke-width:0.8;"/>
     </g>
     <g id="line2d_2">
      <defs>
       <path d="M 0 0 
L 0 3.5 
" id="m1417a908a5" style="stroke:#000000;stroke-width:0.8;"/>
      </defs>
      <g>
       <use style="stroke:#000000;stroke-width:0.8;" x="61.410938" xlink:href="#m1417a908a5" y="279.010828"/>
      </g>
     </g>
     <g id="text_1">
      <!-- 0 -->
      <defs>
       <path d="M 31.78125 66.40625 
Q 24.171875 66.40625 20.328125 58.90625 
Q 16.5 51.421875 16.5 36.375 
Q 16.5 21.390625 20.328125 13.890625 
Q 24.171875 6.390625 31.78125 6.390625 
Q 39.453125 6.390625 43.28125 13.890625 
Q 47.125 21.390625 47.125 36.375 
Q 47.125 51.421875 43.28125 58.90625 
Q 39.453125 66.40625 31.78125 66.40625 
z
M 31.78125 74.21875 
Q 44.046875 74.21875 50.515625 64.515625 
Q 56.984375 54.828125 56.984375 36.375 
Q 56.984375 17.96875 50.515625 8.265625 
Q 44.046875 -1.421875 31.78125 -1.421875 
Q 19.53125 -1.421875 13.0625 8.265625 
Q 6.59375 17.96875 6.59375 36.375 
Q 6.59375 54.828125 13.0625 64.515625 
Q 19.53125 74.21875 31.78125 74.21875 
z
" id="DejaVuSans-30"/>
      </defs>
      <g transform="translate(56.639063 297.408484)scale(0.15 -0.15)">
       <use xlink:href="#DejaVuSans-30"/>
      </g>
     </g>
    </g>
    <g id="xtick_2">
     <g id="line2d_3">
      <path clip-path="url(#p569502e5ba)" d="M 150.690938 279.010828 
L 150.690938 12.898828 
" style="fill:none;stroke:#b0b0b0;stroke-linecap:square;stroke-width:0.8;"/>
     </g>
     <g id="line2d_4">
      <g>
       <use style="stroke:#000000;stroke-width:0.8;" x="150.690938" xlink:href="#m1417a908a5" y="279.010828"/>
      </g>
     </g>
     <g id="text_2">
      <!-- 20 -->
      <defs>
       <path d="M 19.1875 8.296875 
L 53.609375 8.296875 
L 53.609375 0 
L 7.328125 0 
L 7.328125 8.296875 
Q 12.9375 14.109375 22.625 23.890625 
Q 32.328125 33.6875 34.8125 36.53125 
Q 39.546875 41.84375 41.421875 45.53125 
Q 43.3125 49.21875 43.3125 52.78125 
Q 43.3125 58.59375 39.234375 62.25 
Q 35.15625 65.921875 28.609375 65.921875 
Q 23.96875 65.921875 18.8125 64.3125 
Q 13.671875 62.703125 7.8125 59.421875 
L 7.8125 69.390625 
Q 13.765625 71.78125 18.9375 73 
Q 24.125 74.21875 28.421875 74.21875 
Q 39.75 74.21875 46.484375 68.546875 
Q 53.21875 62.890625 53.21875 53.421875 
Q 53.21875 48.921875 51.53125 44.890625 
Q 49.859375 40.875 45.40625 35.40625 
Q 44.1875 33.984375 37.640625 27.21875 
Q 31.109375 20.453125 19.1875 8.296875 
z
" id="DejaVuSans-32"/>
      </defs>
      <g transform="translate(141.147188 297.408484)scale(0.15 -0.15)">
       <use xlink:href="#DejaVuSans-32"/>
       <use x="63.623047" xlink:href="#DejaVuSans-30"/>
      </g>
     </g>
    </g>
    <g id="xtick_3">
     <g id="line2d_5">
      <path clip-path="url(#p569502e5ba)" d="M 239.970938 279.010828 
L 239.970938 12.898828 
" style="fill:none;stroke:#b0b0b0;stroke-linecap:square;stroke-width:0.8;"/>
     </g>
     <g id="line2d_6">
      <g>
       <use style="stroke:#000000;stroke-width:0.8;" x="239.970938" xlink:href="#m1417a908a5" y="279.010828"/>
      </g>
     </g>
     <g id="text_3">
      <!-- 40 -->
      <defs>
       <path d="M 37.796875 64.3125 
L 12.890625 25.390625 
L 37.796875 25.390625 
z
M 35.203125 72.90625 
L 47.609375 72.90625 
L 47.609375 25.390625 
L 58.015625 25.390625 
L 58.015625 17.1875 
L 47.609375 17.1875 
L 47.609375 0 
L 37.796875 0 
L 37.796875 17.1875 
L 4.890625 17.1875 
L 4.890625 26.703125 
z
" id="DejaVuSans-34"/>
      </defs>
      <g transform="translate(230.427188 297.408484)scale(0.15 -0.15)">
       <use xlink:href="#DejaVuSans-34"/>
       <use x="63.623047" xlink:href="#DejaVuSans-30"/>
      </g>
     </g>
    </g>
    <g id="xtick_4">
     <g id="line2d_7">
      <path clip-path="url(#p569502e5ba)" d="M 329.250938 279.010828 
L 329.250938 12.898828 
" style="fill:none;stroke:#b0b0b0;stroke-linecap:square;stroke-width:0.8;"/>
     </g>
     <g id="line2d_8">
      <g>
       <use style="stroke:#000000;stroke-width:0.8;" x="329.250938" xlink:href="#m1417a908a5" y="279.010828"/>
      </g>
     </g>
     <g id="text_4">
      <!-- 60 -->
      <defs>
       <path d="M 33.015625 40.375 
Q 26.375 40.375 22.484375 35.828125 
Q 18.609375 31.296875 18.609375 23.390625 
Q 18.609375 15.53125 22.484375 10.953125 
Q 26.375 6.390625 33.015625 6.390625 
Q 39.65625 6.390625 43.53125 10.953125 
Q 47.40625 15.53125 47.40625 23.390625 
Q 47.40625 31.296875 43.53125 35.828125 
Q 39.65625 40.375 33.015625 40.375 
z
M 52.59375 71.296875 
L 52.59375 62.3125 
Q 48.875 64.0625 45.09375 64.984375 
Q 41.3125 65.921875 37.59375 65.921875 
Q 27.828125 65.921875 22.671875 59.328125 
Q 17.53125 52.734375 16.796875 39.40625 
Q 19.671875 43.65625 24.015625 45.921875 
Q 28.375 48.1875 33.59375 48.1875 
Q 44.578125 48.1875 50.953125 41.515625 
Q 57.328125 34.859375 57.328125 23.390625 
Q 57.328125 12.15625 50.6875 5.359375 
Q 44.046875 -1.421875 33.015625 -1.421875 
Q 20.359375 -1.421875 13.671875 8.265625 
Q 6.984375 17.96875 6.984375 36.375 
Q 6.984375 53.65625 15.1875 63.9375 
Q 23.390625 74.21875 37.203125 74.21875 
Q 40.921875 74.21875 44.703125 73.484375 
Q 48.484375 72.75 52.59375 71.296875 
z
" id="DejaVuSans-36"/>
      </defs>
      <g transform="translate(319.707188 297.408484)scale(0.15 -0.15)">
       <use xlink:href="#DejaVuSans-36"/>
       <use x="63.623047" xlink:href="#DejaVuSans-30"/>
      </g>
     </g>
    </g>
    <g id="xtick_5">
     <g id="line2d_9">
      <path clip-path="url(#p569502e5ba)" d="M 418.530938 279.010828 
L 418.530938 12.898828 
" style="fill:none;stroke:#b0b0b0;stroke-linecap:square;stroke-width:0.8;"/>
     </g>
     <g id="line2d_10">
      <g>
       <use style="stroke:#000000;stroke-width:0.8;" x="418.530938" xlink:href="#m1417a908a5" y="279.010828"/>
      </g>
     </g>
     <g id="text_5">
      <!-- 80 -->
      <defs>
       <path d="M 31.78125 34.625 
Q 24.75 34.625 20.71875 30.859375 
Q 16.703125 27.09375 16.703125 20.515625 
Q 16.703125 13.921875 20.71875 10.15625 
Q 24.75 6.390625 31.78125 6.390625 
Q 38.8125 6.390625 42.859375 10.171875 
Q 46.921875 13.96875 46.921875 20.515625 
Q 46.921875 27.09375 42.890625 30.859375 
Q 38.875 34.625 31.78125 34.625 
z
M 21.921875 38.8125 
Q 15.578125 40.375 12.03125 44.71875 
Q 8.5 49.078125 8.5 55.328125 
Q 8.5 64.0625 14.71875 69.140625 
Q 20.953125 74.21875 31.78125 74.21875 
Q 42.671875 74.21875 48.875 69.140625 
Q 55.078125 64.0625 55.078125 55.328125 
Q 55.078125 49.078125 51.53125 44.71875 
Q 48 40.375 41.703125 38.8125 
Q 48.828125 37.15625 52.796875 32.3125 
Q 56.78125 27.484375 56.78125 20.515625 
Q 56.78125 9.90625 50.3125 4.234375 
Q 43.84375 -1.421875 31.78125 -1.421875 
Q 19.734375 -1.421875 13.25 4.234375 
Q 6.78125 9.90625 6.78125 20.515625 
Q 6.78125 27.484375 10.78125 32.3125 
Q 14.796875 37.15625 21.921875 38.8125 
z
M 18.3125 54.390625 
Q 18.3125 48.734375 21.84375 45.5625 
Q 25.390625 42.390625 31.78125 42.390625 
Q 38.140625 42.390625 41.71875 45.5625 
Q 45.3125 48.734375 45.3125 54.390625 
Q 45.3125 60.0625 41.71875 63.234375 
Q 38.140625 66.40625 31.78125 66.40625 
Q 25.390625 66.40625 21.84375 63.234375 
Q 18.3125 60.0625 18.3125 54.390625 
z
" id="DejaVuSans-38"/>
      </defs>
      <g transform="translate(408.987188 297.408484)scale(0.15 -0.15)">
       <use xlink:href="#DejaVuSans-38"/>
       <use x="63.623047" xlink:href="#DejaVuSans-30"/>
      </g>
     </g>
    </g>
    <g id="text_6">
     <!-- Time ($\mu s$) -->
     <defs>
      <path d="M -0.296875 72.90625 
L 61.375 72.90625 
L 61.375 64.59375 
L 35.5 64.59375 
L 35.5 0 
L 25.59375 0 
L 25.59375 64.59375 
L -0.296875 64.59375 
z
" id="DejaVuSans-54"/>
      <path d="M 9.421875 54.6875 
L 18.40625 54.6875 
L 18.40625 0 
L 9.421875 0 
z
M 9.421875 75.984375 
L 18.40625 75.984375 
L 18.40625 64.59375 
L 9.421875 64.59375 
z
" id="DejaVuSans-69"/>
      <path d="M 52 44.1875 
Q 55.375 50.25 60.0625 53.125 
Q 64.75 56 71.09375 56 
Q 79.640625 56 84.28125 50.015625 
Q 88.921875 44.046875 88.921875 33.015625 
L 88.921875 0 
L 79.890625 0 
L 79.890625 32.71875 
Q 79.890625 40.578125 77.09375 44.375 
Q 74.3125 48.1875 68.609375 48.1875 
Q 61.625 48.1875 57.5625 43.546875 
Q 53.515625 38.921875 53.515625 30.90625 
L 53.515625 0 
L 44.484375 0 
L 44.484375 32.71875 
Q 44.484375 40.625 41.703125 44.40625 
Q 38.921875 48.1875 33.109375 48.1875 
Q 26.21875 48.1875 22.15625 43.53125 
Q 18.109375 38.875 18.109375 30.90625 
L 18.109375 0 
L 9.078125 0 
L 9.078125 54.6875 
L 18.109375 54.6875 
L 18.109375 46.1875 
Q 21.1875 51.21875 25.484375 53.609375 
Q 29.78125 56 35.6875 56 
Q 41.65625 56 45.828125 52.96875 
Q 50 49.953125 52 44.1875 
z
" id="DejaVuSans-6d"/>
      <path d="M 56.203125 29.59375 
L 56.203125 25.203125 
L 14.890625 25.203125 
Q 15.484375 15.921875 20.484375 11.0625 
Q 25.484375 6.203125 34.421875 6.203125 
Q 39.59375 6.203125 44.453125 7.46875 
Q 49.3125 8.734375 54.109375 11.28125 
L 54.109375 2.78125 
Q 49.265625 0.734375 44.1875 -0.34375 
Q 39.109375 -1.421875 33.890625 -1.421875 
Q 20.796875 -1.421875 13.15625 6.1875 
Q 5.515625 13.8125 5.515625 26.8125 
Q 5.515625 40.234375 12.765625 48.109375 
Q 20.015625 56 32.328125 56 
Q 43.359375 56 49.78125 48.890625 
Q 56.203125 41.796875 56.203125 29.59375 
z
M 47.21875 32.234375 
Q 47.125 39.59375 43.09375 43.984375 
Q 39.0625 48.390625 32.421875 48.390625 
Q 24.90625 48.390625 20.390625 44.140625 
Q 15.875 39.890625 15.1875 32.171875 
z
" id="DejaVuSans-65"/>
      <path id="DejaVuSans-20"/>
      <path d="M 31 75.875 
Q 24.46875 64.65625 21.28125 53.65625 
Q 18.109375 42.671875 18.109375 31.390625 
Q 18.109375 20.125 21.3125 9.0625 
Q 24.515625 -2 31 -13.1875 
L 23.1875 -13.1875 
Q 15.875 -1.703125 12.234375 9.375 
Q 8.59375 20.453125 8.59375 31.390625 
Q 8.59375 42.28125 12.203125 53.3125 
Q 15.828125 64.359375 23.1875 75.875 
z
" id="DejaVuSans-28"/>
      <path d="M -1.3125 -20.796875 
L 13.375 54.6875 
L 22.40625 54.6875 
L 15.765625 20.65625 
Q 15.578125 19.625 15.421875 18.359375 
Q 15.28125 17.09375 15.28125 15.828125 
Q 15.28125 11.28125 18.140625 8.828125 
Q 21 6.390625 26.3125 6.390625 
Q 33.546875 6.390625 37.984375 10.484375 
Q 42.4375 14.59375 44 22.796875 
L 50.203125 54.6875 
L 59.1875 54.6875 
L 51.03125 12.640625 
Q 50.828125 11.71875 50.75 11.03125 
Q 50.6875 10.359375 50.6875 9.8125 
Q 50.6875 8.296875 51.296875 7.59375 
Q 51.90625 6.890625 53.21875 6.890625 
Q 53.71875 6.890625 54.5625 7.125 
Q 55.421875 7.375 56.984375 8.015625 
L 55.609375 0.78125 
Q 53.46875 -0.296875 51.515625 -0.859375 
Q 49.5625 -1.421875 47.703125 -1.421875 
Q 44.484375 -1.421875 42.65625 0.625 
Q 40.828125 2.6875 40.828125 6.296875 
Q 38.09375 2.390625 34.296875 0.484375 
Q 30.515625 -1.421875 25.390625 -1.421875 
Q 20.84375 -1.421875 17.453125 0.671875 
Q 14.0625 2.78125 12.984375 6.203125 
L 7.71875 -20.796875 
z
" id="DejaVuSans-Oblique-3bc"/>
      <path d="M 50 53.078125 
L 48.296875 44.578125 
Q 44.734375 46.53125 40.765625 47.5 
Q 36.8125 48.484375 32.625 48.484375 
Q 25.53125 48.484375 21.453125 46.0625 
Q 17.390625 43.65625 17.390625 39.5 
Q 17.390625 34.671875 26.859375 32.078125 
Q 27.59375 31.890625 27.9375 31.78125 
L 30.8125 30.90625 
Q 39.796875 28.421875 42.796875 25.6875 
Q 45.796875 22.953125 45.796875 18.21875 
Q 45.796875 9.515625 38.890625 4.046875 
Q 31.984375 -1.421875 20.796875 -1.421875 
Q 16.453125 -1.421875 11.671875 -0.578125 
Q 6.890625 0.25 1.125 2 
L 2.875 11.28125 
Q 7.8125 8.734375 12.59375 7.421875 
Q 17.390625 6.109375 21.78125 6.109375 
Q 28.375 6.109375 32.5 8.9375 
Q 36.625 11.765625 36.625 16.109375 
Q 36.625 20.796875 25.78125 23.6875 
L 24.859375 23.921875 
L 21.78125 24.703125 
Q 14.9375 26.515625 11.765625 29.46875 
Q 8.59375 32.421875 8.59375 37.015625 
Q 8.59375 45.75 15.15625 50.875 
Q 21.734375 56 33.015625 56 
Q 37.453125 56 41.671875 55.265625 
Q 45.90625 54.546875 50 53.078125 
z
" id="DejaVuSans-Oblique-73"/>
      <path d="M 8.015625 75.875 
L 15.828125 75.875 
Q 23.140625 64.359375 26.78125 53.3125 
Q 30.421875 42.28125 30.421875 31.390625 
Q 30.421875 20.453125 26.78125 9.375 
Q 23.140625 -1.703125 15.828125 -13.1875 
L 8.015625 -13.1875 
Q 14.5 -2 17.703125 9.0625 
Q 20.90625 20.125 20.90625 31.390625 
Q 20.90625 42.671875 17.703125 53.65625 
Q 14.5 64.65625 8.015625 75.875 
z
" id="DejaVuSans-29"/>
     </defs>
     <g transform="translate(192.570938 319.728016)scale(0.2 -0.2)">
      <use transform="translate(0 0.015625)" xlink:href="#DejaVuSans-54"/>
      <use transform="translate(61.083984 0.015625)" xlink:href="#DejaVuSans-69"/>
      <use transform="translate(88.867188 0.015625)" xlink:href="#DejaVuSans-6d"/>
      <use transform="translate(186.279297 0.015625)" xlink:href="#DejaVuSans-65"/>
      <use transform="translate(247.802734 0.015625)" xlink:href="#DejaVuSans-20"/>
      <use transform="translate(279.589844 0.015625)" xlink:href="#DejaVuSans-28"/>
      <use transform="translate(318.603516 0.015625)" xlink:href="#DejaVuSans-Oblique-3bc"/>
      <use transform="translate(382.226562 0.015625)" xlink:href="#DejaVuSans-Oblique-73"/>
      <use transform="translate(434.326172 0.015625)" xlink:href="#DejaVuSans-29"/>
     </g>
    </g>
   </g>
   <g id="matplotlib.axis_2">
    <g id="ytick_1">
     <g id="line2d_11">
      <path clip-path="url(#p569502e5ba)" d="M 61.410938 279.010828 
L 418.530938 279.010828 
" style="fill:none;stroke:#b0b0b0;stroke-linecap:square;stroke-width:0.8;"/>
     </g>
     <g id="line2d_12">
      <defs>
       <path d="M 0 0 
L -3.5 0 
" id="mc8e15b413f" style="stroke:#000000;stroke-width:0.8;"/>
      </defs>
      <g>
       <use style="stroke:#000000;stroke-width:0.8;" x="61.410938" xlink:href="#mc8e15b413f" y="279.010828"/>
      </g>
     </g>
     <g id="text_7">
      <!-- 0.0 -->
      <defs>
       <path d="M 10.6875 12.40625 
L 21 12.40625 
L 21 0 
L 10.6875 0 
z
" id="DejaVuSans-2e"/>
      </defs>
      <g transform="translate(30.55625 284.709656)scale(0.15 -0.15)">
       <use xlink:href="#DejaVuSans-30"/>
       <use x="63.623047" xlink:href="#DejaVuSans-2e"/>
       <use x="95.410156" xlink:href="#DejaVuSans-30"/>
      </g>
     </g>
    </g>
    <g id="ytick_2">
     <g id="line2d_13">
      <path clip-path="url(#p569502e5ba)" d="M 61.410938 225.788428 
L 418.530938 225.788428 
" style="fill:none;stroke:#b0b0b0;stroke-linecap:square;stroke-width:0.8;"/>
     </g>
     <g id="line2d_14">
      <g>
       <use style="stroke:#000000;stroke-width:0.8;" x="61.410938" xlink:href="#mc8e15b413f" y="225.788428"/>
      </g>
     </g>
     <g id="text_8">
      <!-- 0.2 -->
      <g transform="translate(30.55625 231.487256)scale(0.15 -0.15)">
       <use xlink:href="#DejaVuSans-30"/>
       <use x="63.623047" xlink:href="#DejaVuSans-2e"/>
       <use x="95.410156" xlink:href="#DejaVuSans-32"/>
      </g>
     </g>
    </g>
    <g id="ytick_3">
     <g id="line2d_15">
      <path clip-path="url(#p569502e5ba)" d="M 61.410938 172.566028 
L 418.530938 172.566028 
" style="fill:none;stroke:#b0b0b0;stroke-linecap:square;stroke-width:0.8;"/>
     </g>
     <g id="line2d_16">
      <g>
       <use style="stroke:#000000;stroke-width:0.8;" x="61.410938" xlink:href="#mc8e15b413f" y="172.566028"/>
      </g>
     </g>
     <g id="text_9">
      <!-- 0.4 -->
      <g transform="translate(30.55625 178.264856)scale(0.15 -0.15)">
       <use xlink:href="#DejaVuSans-30"/>
       <use x="63.623047" xlink:href="#DejaVuSans-2e"/>
       <use x="95.410156" xlink:href="#DejaVuSans-34"/>
      </g>
     </g>
    </g>
    <g id="ytick_4">
     <g id="line2d_17">
      <path clip-path="url(#p569502e5ba)" d="M 61.410938 119.343628 
L 418.530938 119.343628 
" style="fill:none;stroke:#b0b0b0;stroke-linecap:square;stroke-width:0.8;"/>
     </g>
     <g id="line2d_18">
      <g>
       <use style="stroke:#000000;stroke-width:0.8;" x="61.410938" xlink:href="#mc8e15b413f" y="119.343628"/>
      </g>
     </g>
     <g id="text_10">
      <!-- 0.6 -->
      <g transform="translate(30.55625 125.042456)scale(0.15 -0.15)">
       <use xlink:href="#DejaVuSans-30"/>
       <use x="63.623047" xlink:href="#DejaVuSans-2e"/>
       <use x="95.410156" xlink:href="#DejaVuSans-36"/>
      </g>
     </g>
    </g>
    <g id="ytick_5">
     <g id="line2d_19">
      <path clip-path="url(#p569502e5ba)" d="M 61.410938 66.121228 
L 418.530938 66.121228 
" style="fill:none;stroke:#b0b0b0;stroke-linecap:square;stroke-width:0.8;"/>
     </g>
     <g id="line2d_20">
      <g>
       <use style="stroke:#000000;stroke-width:0.8;" x="61.410938" xlink:href="#mc8e15b413f" y="66.121228"/>
      </g>
     </g>
     <g id="text_11">
      <!-- 0.8 -->
      <g transform="translate(30.55625 71.820056)scale(0.15 -0.15)">
       <use xlink:href="#DejaVuSans-30"/>
       <use x="63.623047" xlink:href="#DejaVuSans-2e"/>
       <use x="95.410156" xlink:href="#DejaVuSans-38"/>
      </g>
     </g>
    </g>
    <g id="ytick_6">
     <g id="line2d_21">
      <path clip-path="url(#p569502e5ba)" d="M 61.410938 12.898828 
L 418.530938 12.898828 
" style="fill:none;stroke:#b0b0b0;stroke-linecap:square;stroke-width:0.8;"/>
     </g>
     <g id="line2d_22">
      <g>
       <use style="stroke:#000000;stroke-width:0.8;" x="61.410938" xlink:href="#mc8e15b413f" y="12.898828"/>
      </g>
     </g>
     <g id="text_12">
      <!-- 1.0 -->
      <defs>
       <path d="M 12.40625 8.296875 
L 28.515625 8.296875 
L 28.515625 63.921875 
L 10.984375 60.40625 
L 10.984375 69.390625 
L 28.421875 72.90625 
L 38.28125 72.90625 
L 38.28125 8.296875 
L 54.390625 8.296875 
L 54.390625 0 
L 12.40625 0 
z
" id="DejaVuSans-31"/>
      </defs>
      <g transform="translate(30.55625 18.597656)scale(0.15 -0.15)">
       <use xlink:href="#DejaVuSans-31"/>
       <use x="63.623047" xlink:href="#DejaVuSans-2e"/>
       <use x="95.410156" xlink:href="#DejaVuSans-30"/>
      </g>
     </g>
    </g>
    <g id="text_13">
     <!-- Survival -->
     <defs>
      <path d="M 53.515625 70.515625 
L 53.515625 60.890625 
Q 47.90625 63.578125 42.921875 64.890625 
Q 37.9375 66.21875 33.296875 66.21875 
Q 25.25 66.21875 20.875 63.09375 
Q 16.5 59.96875 16.5 54.203125 
Q 16.5 49.359375 19.40625 46.890625 
Q 22.3125 44.4375 30.421875 42.921875 
L 36.375 41.703125 
Q 47.40625 39.59375 52.65625 34.296875 
Q 57.90625 29 57.90625 20.125 
Q 57.90625 9.515625 50.796875 4.046875 
Q 43.703125 -1.421875 29.984375 -1.421875 
Q 24.8125 -1.421875 18.96875 -0.25 
Q 13.140625 0.921875 6.890625 3.21875 
L 6.890625 13.375 
Q 12.890625 10.015625 18.65625 8.296875 
Q 24.421875 6.59375 29.984375 6.59375 
Q 38.421875 6.59375 43.015625 9.90625 
Q 47.609375 13.234375 47.609375 19.390625 
Q 47.609375 24.75 44.3125 27.78125 
Q 41.015625 30.8125 33.5 32.328125 
L 27.484375 33.5 
Q 16.453125 35.6875 11.515625 40.375 
Q 6.59375 45.0625 6.59375 53.421875 
Q 6.59375 63.09375 13.40625 68.65625 
Q 20.21875 74.21875 32.171875 74.21875 
Q 37.3125 74.21875 42.625 73.28125 
Q 47.953125 72.359375 53.515625 70.515625 
z
" id="DejaVuSans-53"/>
      <path d="M 8.5 21.578125 
L 8.5 54.6875 
L 17.484375 54.6875 
L 17.484375 21.921875 
Q 17.484375 14.15625 20.5 10.265625 
Q 23.53125 6.390625 29.59375 6.390625 
Q 36.859375 6.390625 41.078125 11.03125 
Q 45.3125 15.671875 45.3125 23.6875 
L 45.3125 54.6875 
L 54.296875 54.6875 
L 54.296875 0 
L 45.3125 0 
L 45.3125 8.40625 
Q 42.046875 3.421875 37.71875 1 
Q 33.40625 -1.421875 27.6875 -1.421875 
Q 18.265625 -1.421875 13.375 4.4375 
Q 8.5 10.296875 8.5 21.578125 
z
M 31.109375 56 
z
" id="DejaVuSans-75"/>
      <path d="M 41.109375 46.296875 
Q 39.59375 47.171875 37.8125 47.578125 
Q 36.03125 48 33.890625 48 
Q 26.265625 48 22.1875 43.046875 
Q 18.109375 38.09375 18.109375 28.8125 
L 18.109375 0 
L 9.078125 0 
L 9.078125 54.6875 
L 18.109375 54.6875 
L 18.109375 46.1875 
Q 20.953125 51.171875 25.484375 53.578125 
Q 30.03125 56 36.53125 56 
Q 37.453125 56 38.578125 55.875 
Q 39.703125 55.765625 41.0625 55.515625 
z
" id="DejaVuSans-72"/>
      <path d="M 2.984375 54.6875 
L 12.5 54.6875 
L 29.59375 8.796875 
L 46.6875 54.6875 
L 56.203125 54.6875 
L 35.6875 0 
L 23.484375 0 
z
" id="DejaVuSans-76"/>
      <path d="M 34.28125 27.484375 
Q 23.390625 27.484375 19.1875 25 
Q 14.984375 22.515625 14.984375 16.5 
Q 14.984375 11.71875 18.140625 8.90625 
Q 21.296875 6.109375 26.703125 6.109375 
Q 34.1875 6.109375 38.703125 11.40625 
Q 43.21875 16.703125 43.21875 25.484375 
L 43.21875 27.484375 
z
M 52.203125 31.203125 
L 52.203125 0 
L 43.21875 0 
L 43.21875 8.296875 
Q 40.140625 3.328125 35.546875 0.953125 
Q 30.953125 -1.421875 24.3125 -1.421875 
Q 15.921875 -1.421875 10.953125 3.296875 
Q 6 8.015625 6 15.921875 
Q 6 25.140625 12.171875 29.828125 
Q 18.359375 34.515625 30.609375 34.515625 
L 43.21875 34.515625 
L 43.21875 35.40625 
Q 43.21875 41.609375 39.140625 45 
Q 35.0625 48.390625 27.6875 48.390625 
Q 23 48.390625 18.546875 47.265625 
Q 14.109375 46.140625 10.015625 43.890625 
L 10.015625 52.203125 
Q 14.9375 54.109375 19.578125 55.046875 
Q 24.21875 56 28.609375 56 
Q 40.484375 56 46.34375 49.84375 
Q 52.203125 43.703125 52.203125 31.203125 
z
" id="DejaVuSans-61"/>
      <path d="M 9.421875 75.984375 
L 18.40625 75.984375 
L 18.40625 0 
L 9.421875 0 
z
" id="DejaVuSans-6c"/>
     </defs>
     <g transform="translate(22.396875 186.273578)rotate(-90)scale(0.2 -0.2)">
      <use xlink:href="#DejaVuSans-53"/>
      <use x="63.476562" xlink:href="#DejaVuSans-75"/>
      <use x="126.855469" xlink:href="#DejaVuSans-72"/>
      <use x="167.96875" xlink:href="#DejaVuSans-76"/>
      <use x="227.148438" xlink:href="#DejaVuSans-69"/>
      <use x="254.931641" xlink:href="#DejaVuSans-76"/>
      <use x="314.111328" xlink:href="#DejaVuSans-61"/>
      <use x="375.390625" xlink:href="#DejaVuSans-6c"/>
     </g>
    </g>
   </g>
   <g id="LineCollection_1">
    <path clip-path="url(#p569502e5ba)" d="M 61.410938 279.010828 
L 61.410938 277.822828 
" style="fill:none;stroke:#1f77b4;stroke-width:1.5;"/>
    <path clip-path="url(#p569502e5ba)" d="M 70.338938 232.659327 
L 70.338938 218.688122 
" style="fill:none;stroke:#1f77b4;stroke-width:1.5;"/>
    <path clip-path="url(#p569502e5ba)" d="M 79.266938 134.420985 
L 79.266938 117.404855 
" style="fill:none;stroke:#1f77b4;stroke-width:1.5;"/>
    <path clip-path="url(#p569502e5ba)" d="M 88.194938 86.446369 
L 88.194938 71.240129 
" style="fill:none;stroke:#1f77b4;stroke-width:1.5;"/>
    <path clip-path="url(#p569502e5ba)" d="M 97.122938 103.44903 
L 97.122938 87.559827 
" style="fill:none;stroke:#1f77b4;stroke-width:1.5;"/>
    <path clip-path="url(#p569502e5ba)" d="M 106.050938 215.282132 
L 106.050938 199.259782 
" style="fill:none;stroke:#1f77b4;stroke-width:1.5;"/>
    <path clip-path="url(#p569502e5ba)" d="M 114.978938 265.380022 
L 114.978938 256.943683 
" style="fill:none;stroke:#1f77b4;stroke-width:1.5;"/>
    <path clip-path="url(#p569502e5ba)" d="M 123.906938 233.754588 
L 123.906938 220.231513 
" style="fill:none;stroke:#1f77b4;stroke-width:1.5;"/>
    <path clip-path="url(#p569502e5ba)" d="M 132.834938 143.09306 
L 132.834938 125.575374 
" style="fill:none;stroke:#1f77b4;stroke-width:1.5;"/>
    <path clip-path="url(#p569502e5ba)" d="M 141.762938 78.498016 
L 141.762938 63.870827 
" style="fill:none;stroke:#1f77b4;stroke-width:1.5;"/>
    <path clip-path="url(#p569502e5ba)" d="M 150.690938 98.051199 
L 150.690938 81.997218 
" style="fill:none;stroke:#1f77b4;stroke-width:1.5;"/>
    <path clip-path="url(#p569502e5ba)" d="M 159.618938 204.151603 
L 159.618938 188.113849 
" style="fill:none;stroke:#1f77b4;stroke-width:1.5;"/>
    <path clip-path="url(#p569502e5ba)" d="M 168.546938 256.243666 
L 168.546938 246.031207 
" style="fill:none;stroke:#1f77b4;stroke-width:1.5;"/>
    <path clip-path="url(#p569502e5ba)" d="M 177.474938 250.062615 
L 177.474938 238.769921 
" style="fill:none;stroke:#1f77b4;stroke-width:1.5;"/>
    <path clip-path="url(#p569502e5ba)" d="M 186.402938 165.288691 
L 186.402938 148.344394 
" style="fill:none;stroke:#1f77b4;stroke-width:1.5;"/>
    <path clip-path="url(#p569502e5ba)" d="M 195.330938 95.053461 
L 195.330938 79.352195 
" style="fill:none;stroke:#1f77b4;stroke-width:1.5;"/>
    <path clip-path="url(#p569502e5ba)" d="M 204.258938 113.869421 
L 204.258938 97.296851 
" style="fill:none;stroke:#1f77b4;stroke-width:1.5;"/>
    <path clip-path="url(#p569502e5ba)" d="M 213.186938 192.742182 
L 213.186938 176.018785 
" style="fill:none;stroke:#1f77b4;stroke-width:1.5;"/>
    <path clip-path="url(#p569502e5ba)" d="M 222.114938 263.389474 
L 222.114938 254.136878 
" style="fill:none;stroke:#1f77b4;stroke-width:1.5;"/>
    <path clip-path="url(#p569502e5ba)" d="M 231.042938 251.577914 
L 231.042938 240.196451 
" style="fill:none;stroke:#1f77b4;stroke-width:1.5;"/>
    <path clip-path="url(#p569502e5ba)" d="M 239.970938 164.322828 
L 239.970938 147.298828 
" style="fill:none;stroke:#1f77b4;stroke-width:1.5;"/>
    <path clip-path="url(#p569502e5ba)" d="M 248.898938 88.40688 
L 248.898938 73.665873 
" style="fill:none;stroke:#1f77b4;stroke-width:1.5;"/>
    <path clip-path="url(#p569502e5ba)" d="M 257.826938 81.529252 
L 257.826938 67.638335 
" style="fill:none;stroke:#1f77b4;stroke-width:1.5;"/>
    <path clip-path="url(#p569502e5ba)" d="M 266.754938 177.358713 
L 266.754938 160.54561 
" style="fill:none;stroke:#1f77b4;stroke-width:1.5;"/>
    <path clip-path="url(#p569502e5ba)" d="M 275.682938 257.517525 
L 275.682938 246.528584 
" style="fill:none;stroke:#1f77b4;stroke-width:1.5;"/>
    <path clip-path="url(#p569502e5ba)" d="M 284.610938 252.616101 
L 284.610938 241.403935 
" style="fill:none;stroke:#1f77b4;stroke-width:1.5;"/>
    <path clip-path="url(#p569502e5ba)" d="M 293.538938 185.270261 
L 293.538938 168.313421 
" style="fill:none;stroke:#1f77b4;stroke-width:1.5;"/>
    <path clip-path="url(#p569502e5ba)" d="M 302.466938 105.363615 
L 302.466938 89.872541 
" style="fill:none;stroke:#1f77b4;stroke-width:1.5;"/>
    <path clip-path="url(#p569502e5ba)" d="M 311.394938 86.474448 
L 311.394938 71.84052 
" style="fill:none;stroke:#1f77b4;stroke-width:1.5;"/>
    <path clip-path="url(#p569502e5ba)" d="M 320.322938 178.44114 
L 320.322938 161.653405 
" style="fill:none;stroke:#1f77b4;stroke-width:1.5;"/>
    <path clip-path="url(#p569502e5ba)" d="M 329.250938 247.917986 
L 329.250938 235.866417 
" style="fill:none;stroke:#1f77b4;stroke-width:1.5;"/>
    <path clip-path="url(#p569502e5ba)" d="M 338.178938 266.338828 
L 338.178938 258.148389 
" style="fill:none;stroke:#1f77b4;stroke-width:1.5;"/>
    <path clip-path="url(#p569502e5ba)" d="M 347.106938 202.207265 
L 347.106938 185.355552 
" style="fill:none;stroke:#1f77b4;stroke-width:1.5;"/>
    <path clip-path="url(#p569502e5ba)" d="M 356.034938 102.26739 
L 356.034938 85.456908 
" style="fill:none;stroke:#1f77b4;stroke-width:1.5;"/>
    <path clip-path="url(#p569502e5ba)" d="M 364.962938 92.334942 
L 364.962938 76.842025 
" style="fill:none;stroke:#1f77b4;stroke-width:1.5;"/>
    <path clip-path="url(#p569502e5ba)" d="M 373.890938 151.178283 
L 373.890938 134.319036 
" style="fill:none;stroke:#1f77b4;stroke-width:1.5;"/>
    <path clip-path="url(#p569502e5ba)" d="M 382.818938 236.450095 
L 382.818938 222.796365 
" style="fill:none;stroke:#1f77b4;stroke-width:1.5;"/>
    <path clip-path="url(#p569502e5ba)" d="M 391.746938 257.984819 
L 391.746938 247.514732 
" style="fill:none;stroke:#1f77b4;stroke-width:1.5;"/>
    <path clip-path="url(#p569502e5ba)" d="M 400.674937 209.736881 
L 400.674937 194.161576 
" style="fill:none;stroke:#1f77b4;stroke-width:1.5;"/>
    <path clip-path="url(#p569502e5ba)" d="M 409.602938 133.151574 
L 409.602938 116.090336 
" style="fill:none;stroke:#1f77b4;stroke-width:1.5;"/>
    <path clip-path="url(#p569502e5ba)" d="M 418.530938 88.134129 
L 418.530938 72.993989 
" style="fill:none;stroke:#1f77b4;stroke-width:1.5;"/>
   </g>
   <g id="LineCollection_2">
    <path clip-path="url(#p569502e5ba)" d="M 61.410938 278.275034 
L 61.410938 276.081168 
" style="fill:none;stroke:#d62728;stroke-width:1.5;"/>
    <path clip-path="url(#p569502e5ba)" d="M 70.338938 255.69721 
L 70.338938 246.916962 
" style="fill:none;stroke:#d62728;stroke-width:1.5;"/>
    <path clip-path="url(#p569502e5ba)" d="M 79.266938 186.204979 
L 79.266938 172.232678 
" style="fill:none;stroke:#d62728;stroke-width:1.5;"/>
    <path clip-path="url(#p569502e5ba)" d="M 88.194938 131.737292 
L 88.194938 117.715749 
" style="fill:none;stroke:#d62728;stroke-width:1.5;"/>
    <path clip-path="url(#p569502e5ba)" d="M 97.122938 103.377699 
L 97.122938 90.602742 
" style="fill:none;stroke:#d62728;stroke-width:1.5;"/>
    <path clip-path="url(#p569502e5ba)" d="M 106.050938 119.369961 
L 106.050938 105.426405 
" style="fill:none;stroke:#d62728;stroke-width:1.5;"/>
    <path clip-path="url(#p569502e5ba)" d="M 114.978938 159.089821 
L 114.978938 144.629539 
" style="fill:none;stroke:#d62728;stroke-width:1.5;"/>
    <path clip-path="url(#p569502e5ba)" d="M 123.906938 179.548229 
L 123.906938 165.42775 
" style="fill:none;stroke:#d62728;stroke-width:1.5;"/>
    <path clip-path="url(#p569502e5ba)" d="M 132.834938 188.746849 
L 132.834938 174.808345 
" style="fill:none;stroke:#d62728;stroke-width:1.5;"/>
    <path clip-path="url(#p569502e5ba)" d="M 141.762938 173.505429 
L 141.762938 159.223767 
" style="fill:none;stroke:#d62728;stroke-width:1.5;"/>
    <path clip-path="url(#p569502e5ba)" d="M 150.690938 143.773882 
L 150.690938 129.858851 
" style="fill:none;stroke:#d62728;stroke-width:1.5;"/>
    <path clip-path="url(#p569502e5ba)" d="M 159.618938 154.099158 
L 159.618938 139.4282 
" style="fill:none;stroke:#d62728;stroke-width:1.5;"/>
    <path clip-path="url(#p569502e5ba)" d="M 168.546938 154.127789 
L 168.546938 140.024384 
" style="fill:none;stroke:#d62728;stroke-width:1.5;"/>
    <path clip-path="url(#p569502e5ba)" d="M 177.474938 182.541106 
L 177.474938 168.755127 
" style="fill:none;stroke:#d62728;stroke-width:1.5;"/>
    <path clip-path="url(#p569502e5ba)" d="M 186.402938 172.195226 
L 186.402938 158.059099 
" style="fill:none;stroke:#d62728;stroke-width:1.5;"/>
    <path clip-path="url(#p569502e5ba)" d="M 195.330938 172.050501 
L 195.330938 158.191078 
" style="fill:none;stroke:#d62728;stroke-width:1.5;"/>
   </g>
   <g id="line2d_23">
    <path clip-path="url(#p569502e5ba)" d="M 61.410938 278.57076 
L 63.196538 276.324162 
L 64.982138 270.360095 
L 66.767738 258.596867 
L 68.553338 244.155548 
L 70.338938 226.990886 
L 73.910138 185.508138 
L 75.695738 161.781495 
L 77.481338 140.786748 
L 79.266938 118.380437 
L 81.052538 99.2436 
L 84.623738 70.031561 
L 86.409338 61.294574 
L 88.194938 56.142894 
L 89.980538 55.635424 
L 91.766138 59.750789 
L 93.551738 68.056337 
L 95.337338 81.166725 
L 97.122938 96.031217 
L 98.908538 113.760468 
L 106.050938 199.34189 
L 107.836538 218.820247 
L 109.622138 236.385335 
L 111.407738 250.29567 
L 113.193338 262.178392 
L 114.978938 268.318512 
L 116.764538 271.340699 
L 118.550138 269.087718 
L 120.335738 263.698868 
L 122.121338 253.473824 
L 123.906938 240.264928 
L 125.692538 224.873192 
L 129.263738 185.247611 
L 132.834938 145.022267 
L 134.620538 124.991597 
L 136.406138 107.139497 
L 138.191738 92.441632 
L 139.977338 80.861917 
L 141.762938 71.528772 
L 143.548538 67.942334 
L 145.334138 67.929587 
L 147.119738 72.553479 
L 148.905338 80.226663 
L 150.690938 92.023175 
L 152.476538 105.467949 
L 154.262138 121.325546 
L 157.833338 161.459212 
L 159.618938 179.951211 
L 161.404538 199.880743 
L 164.975738 232.829887 
L 166.761338 244.548984 
L 168.546938 252.640196 
L 170.332538 257.853929 
L 172.118138 259.88125 
L 173.903738 256.033967 
L 175.689338 250.463389 
L 177.474938 241.571239 
L 179.260538 227.353501 
L 181.046138 211.198817 
L 184.617338 175.519679 
L 186.402938 155.874087 
L 189.974138 120.248356 
L 191.759738 105.7913 
L 193.545338 92.478965 
L 195.330938 83.459273 
L 197.116538 77.336151 
L 198.902138 75.713115 
L 200.687738 77.061235 
L 202.473338 83.789221 
L 204.258938 92.986299 
L 206.044538 104.280135 
L 207.830138 119.393682 
L 213.186938 172.717371 
L 214.972538 192.305282 
L 216.758138 209.836276 
L 218.543738 225.39099 
L 220.329338 238.871051 
L 222.114938 248.344134 
L 223.900538 254.708826 
L 225.686138 257.457786 
L 227.471738 256.455565 
L 229.257338 252.91546 
L 231.042938 242.795365 
L 232.828538 231.954741 
L 234.614138 217.451029 
L 238.185338 182.549306 
L 243.542138 126.165465 
L 245.327738 109.456865 
L 247.113338 95.691312 
L 248.898938 85.466687 
L 250.684538 77.531713 
L 252.470138 73.834143 
L 254.255738 72.943588 
L 256.041338 77.117631 
L 257.826938 84.716093 
L 259.612538 95.364547 
L 261.398138 109.41845 
L 263.183738 125.814519 
L 264.969338 143.459517 
L 268.540538 182.170744 
L 272.111738 218.769362 
L 273.897338 233.4659 
L 275.682938 245.982838 
L 277.468538 255.32338 
L 279.254138 260.777479 
L 281.039738 261.99649 
L 282.825338 260.629856 
L 284.610938 253.884607 
L 286.396538 244.169354 
L 288.182138 232.256576 
L 291.753338 198.341831 
L 293.538938 180.075863 
L 295.324538 159.97454 
L 298.895738 122.716096 
L 300.681338 106.515336 
L 302.466938 93.023371 
L 304.252538 81.628057 
L 306.038138 74.683116 
L 307.823738 70.202152 
L 309.609338 71.575894 
L 311.394938 76.064304 
L 313.180538 83.651348 
L 314.966138 95.199432 
L 316.751738 110.481937 
L 318.537338 126.975273 
L 320.322938 144.857535 
L 323.894138 183.48832 
L 325.679738 201.849995 
L 327.465338 218.810995 
L 329.250938 233.997774 
L 331.036538 245.748518 
L 332.822138 254.462404 
L 334.607738 259.693646 
L 336.393338 260.765376 
L 338.178938 258.263967 
L 339.964538 252.037078 
L 341.750138 242.356829 
L 343.535738 229.234631 
L 345.321338 214.106885 
L 347.106938 196.697697 
L 352.463738 141.082532 
L 354.249338 123.552906 
L 356.034938 107.843976 
L 357.820538 95.28245 
L 359.606138 85.941455 
L 361.391738 78.840313 
L 363.177338 76.006049 
L 364.962938 78.217397 
L 366.748538 83.069285 
L 368.534138 90.721205 
L 370.319738 102.106849 
L 372.105338 116.719599 
L 373.890938 132.345891 
L 375.676538 149.659394 
L 379.247738 187.31336 
L 381.033338 204.020277 
L 384.604538 232.740976 
L 386.390138 244.13484 
L 388.175738 250.25514 
L 389.961338 255.390606 
L 391.746938 254.221115 
L 393.532538 251.000032 
L 395.318138 243.41402 
L 397.103738 233.17511 
L 398.889338 220.076659 
L 400.674938 204.232005 
L 409.602938 118.52478 
L 411.388538 104.151711 
L 413.174138 93.717955 
L 414.959738 85.539707 
L 416.745338 80.961006 
L 418.530938 80.022769 
L 418.530938 80.022769 
" style="fill:none;stroke:#1f77b4;stroke-linecap:square;stroke-width:1.5;"/>
   </g>
   <g id="line2d_24">
    <path clip-path="url(#p569502e5ba)" d="M 61.410938 52.815628 
L 418.530938 52.815628 
" style="fill:none;opacity:0.3;stroke:#0000ff;stroke-dasharray:7.4,3.2;stroke-dashoffset:0;stroke-width:2;"/>
   </g>
   <g id="line2d_25">
    <defs>
     <path d="M 0 3 
C 0.795609 3 1.55874 2.683901 2.12132 2.12132 
C 2.683901 1.55874 3 0.795609 3 0 
C 3 -0.795609 2.683901 -1.55874 2.12132 -2.12132 
C 1.55874 -2.683901 0.795609 -3 0 -3 
C -0.795609 -3 -1.55874 -2.683901 -2.12132 -2.12132 
C -2.683901 -1.55874 -3 -0.795609 -3 0 
C -3 0.795609 -2.683901 1.55874 -2.12132 2.12132 
C -1.55874 2.683901 -0.795609 3 0 3 
z
" id="m68eefe6f04" style="stroke:#1f77b4;"/>
    </defs>
    <g clip-path="url(#p569502e5ba)">
     <use style="fill:#1f77b4;stroke:#1f77b4;" x="61.410938" xlink:href="#m68eefe6f04" y="278.416828"/>
     <use style="fill:#1f77b4;stroke:#1f77b4;" x="70.338938" xlink:href="#m68eefe6f04" y="225.673725"/>
     <use style="fill:#1f77b4;stroke:#1f77b4;" x="79.266938" xlink:href="#m68eefe6f04" y="125.91292"/>
     <use style="fill:#1f77b4;stroke:#1f77b4;" x="88.194938" xlink:href="#m68eefe6f04" y="78.843249"/>
     <use style="fill:#1f77b4;stroke:#1f77b4;" x="97.122938" xlink:href="#m68eefe6f04" y="95.504428"/>
     <use style="fill:#1f77b4;stroke:#1f77b4;" x="106.050938" xlink:href="#m68eefe6f04" y="207.270957"/>
     <use style="fill:#1f77b4;stroke:#1f77b4;" x="114.978938" xlink:href="#m68eefe6f04" y="261.161853"/>
     <use style="fill:#1f77b4;stroke:#1f77b4;" x="123.906938" xlink:href="#m68eefe6f04" y="226.99305"/>
     <use style="fill:#1f77b4;stroke:#1f77b4;" x="132.834938" xlink:href="#m68eefe6f04" y="134.334217"/>
     <use style="fill:#1f77b4;stroke:#1f77b4;" x="141.762938" xlink:href="#m68eefe6f04" y="71.184421"/>
     <use style="fill:#1f77b4;stroke:#1f77b4;" x="150.690938" xlink:href="#m68eefe6f04" y="90.024209"/>
     <use style="fill:#1f77b4;stroke:#1f77b4;" x="159.618938" xlink:href="#m68eefe6f04" y="196.132726"/>
     <use style="fill:#1f77b4;stroke:#1f77b4;" x="168.546938" xlink:href="#m68eefe6f04" y="251.137437"/>
     <use style="fill:#1f77b4;stroke:#1f77b4;" x="177.474938" xlink:href="#m68eefe6f04" y="244.416268"/>
     <use style="fill:#1f77b4;stroke:#1f77b4;" x="186.402938" xlink:href="#m68eefe6f04" y="156.816542"/>
     <use style="fill:#1f77b4;stroke:#1f77b4;" x="195.330938" xlink:href="#m68eefe6f04" y="87.202828"/>
     <use style="fill:#1f77b4;stroke:#1f77b4;" x="204.258938" xlink:href="#m68eefe6f04" y="105.583136"/>
     <use style="fill:#1f77b4;stroke:#1f77b4;" x="213.186938" xlink:href="#m68eefe6f04" y="184.380483"/>
     <use style="fill:#1f77b4;stroke:#1f77b4;" x="222.114938" xlink:href="#m68eefe6f04" y="258.763176"/>
     <use style="fill:#1f77b4;stroke:#1f77b4;" x="231.042938" xlink:href="#m68eefe6f04" y="245.887183"/>
     <use style="fill:#1f77b4;stroke:#1f77b4;" x="239.970938" xlink:href="#m68eefe6f04" y="155.810828"/>
     <use style="fill:#1f77b4;stroke:#1f77b4;" x="248.898938" xlink:href="#m68eefe6f04" y="81.036377"/>
     <use style="fill:#1f77b4;stroke:#1f77b4;" x="257.826938" xlink:href="#m68eefe6f04" y="74.583794"/>
     <use style="fill:#1f77b4;stroke:#1f77b4;" x="266.754938" xlink:href="#m68eefe6f04" y="168.952161"/>
     <use style="fill:#1f77b4;stroke:#1f77b4;" x="275.682938" xlink:href="#m68eefe6f04" y="252.023055"/>
     <use style="fill:#1f77b4;stroke:#1f77b4;" x="284.610938" xlink:href="#m68eefe6f04" y="247.010018"/>
     <use style="fill:#1f77b4;stroke:#1f77b4;" x="293.538938" xlink:href="#m68eefe6f04" y="176.791841"/>
     <use style="fill:#1f77b4;stroke:#1f77b4;" x="302.466938" xlink:href="#m68eefe6f04" y="97.618078"/>
     <use style="fill:#1f77b4;stroke:#1f77b4;" x="311.394938" xlink:href="#m68eefe6f04" y="79.157484"/>
     <use style="fill:#1f77b4;stroke:#1f77b4;" x="320.322938" xlink:href="#m68eefe6f04" y="170.047273"/>
     <use style="fill:#1f77b4;stroke:#1f77b4;" x="329.250938" xlink:href="#m68eefe6f04" y="241.892202"/>
     <use style="fill:#1f77b4;stroke:#1f77b4;" x="338.178938" xlink:href="#m68eefe6f04" y="262.243609"/>
     <use style="fill:#1f77b4;stroke:#1f77b4;" x="347.106938" xlink:href="#m68eefe6f04" y="193.781409"/>
     <use style="fill:#1f77b4;stroke:#1f77b4;" x="356.034938" xlink:href="#m68eefe6f04" y="93.862149"/>
     <use style="fill:#1f77b4;stroke:#1f77b4;" x="364.962938" xlink:href="#m68eefe6f04" y="84.588483"/>
     <use style="fill:#1f77b4;stroke:#1f77b4;" x="373.890938" xlink:href="#m68eefe6f04" y="142.748659"/>
     <use style="fill:#1f77b4;stroke:#1f77b4;" x="382.818938" xlink:href="#m68eefe6f04" y="229.62323"/>
     <use style="fill:#1f77b4;stroke:#1f77b4;" x="391.746938" xlink:href="#m68eefe6f04" y="252.749775"/>
     <use style="fill:#1f77b4;stroke:#1f77b4;" x="400.674937" xlink:href="#m68eefe6f04" y="201.949228"/>
     <use style="fill:#1f77b4;stroke:#1f77b4;" x="409.602938" xlink:href="#m68eefe6f04" y="124.620955"/>
     <use style="fill:#1f77b4;stroke:#1f77b4;" x="418.530938" xlink:href="#m68eefe6f04" y="80.564059"/>
    </g>
   </g>
   <g id="line2d_26">
    <path clip-path="url(#p569502e5ba)" d="M 61.410938 277.178101 
L 70.338938 251.307086 
L 79.266938 179.218828 
L 88.194938 124.72652 
L 97.122938 96.99022 
L 106.050938 112.398183 
L 114.978938 151.85968 
L 123.906938 172.487989 
L 132.834938 181.777597 
L 141.762938 166.364598 
L 150.690938 136.816367 
L 159.618938 146.763679 
L 168.546938 147.076087 
L 177.474938 175.648116 
L 186.402938 165.127162 
L 195.330938 165.120789 
" style="fill:none;stroke:#d62728;stroke-linecap:square;stroke-width:1.5;"/>
    <defs>
     <path d="M 0 3 
C 0.795609 3 1.55874 2.683901 2.12132 2.12132 
C 2.683901 1.55874 3 0.795609 3 0 
C 3 -0.795609 2.683901 -1.55874 2.12132 -2.12132 
C 1.55874 -2.683901 0.795609 -3 0 -3 
C -0.795609 -3 -1.55874 -2.683901 -2.12132 -2.12132 
C -2.683901 -1.55874 -3 -0.795609 -3 0 
C -3 0.795609 -2.683901 1.55874 -2.12132 2.12132 
C -1.55874 2.683901 -0.795609 3 0 3 
z
" id="mc57d9b9987" style="stroke:#d62728;"/>
    </defs>
    <g clip-path="url(#p569502e5ba)">
     <use style="fill:#d62728;stroke:#d62728;" x="61.410938" xlink:href="#mc57d9b9987" y="277.178101"/>
     <use style="fill:#d62728;stroke:#d62728;" x="70.338938" xlink:href="#mc57d9b9987" y="251.307086"/>
     <use style="fill:#d62728;stroke:#d62728;" x="79.266938" xlink:href="#mc57d9b9987" y="179.218828"/>
     <use style="fill:#d62728;stroke:#d62728;" x="88.194938" xlink:href="#mc57d9b9987" y="124.72652"/>
     <use style="fill:#d62728;stroke:#d62728;" x="97.122938" xlink:href="#mc57d9b9987" y="96.99022"/>
     <use style="fill:#d62728;stroke:#d62728;" x="106.050938" xlink:href="#mc57d9b9987" y="112.398183"/>
     <use style="fill:#d62728;stroke:#d62728;" x="114.978938" xlink:href="#mc57d9b9987" y="151.85968"/>
     <use style="fill:#d62728;stroke:#d62728;" x="123.906938" xlink:href="#mc57d9b9987" y="172.487989"/>
     <use style="fill:#d62728;stroke:#d62728;" x="132.834938" xlink:href="#mc57d9b9987" y="181.777597"/>
     <use style="fill:#d62728;stroke:#d62728;" x="141.762938" xlink:href="#mc57d9b9987" y="166.364598"/>
     <use style="fill:#d62728;stroke:#d62728;" x="150.690938" xlink:href="#mc57d9b9987" y="136.816367"/>
     <use style="fill:#d62728;stroke:#d62728;" x="159.618938" xlink:href="#mc57d9b9987" y="146.763679"/>
     <use style="fill:#d62728;stroke:#d62728;" x="168.546938" xlink:href="#mc57d9b9987" y="147.076087"/>
     <use style="fill:#d62728;stroke:#d62728;" x="177.474938" xlink:href="#mc57d9b9987" y="175.648116"/>
     <use style="fill:#d62728;stroke:#d62728;" x="186.402938" xlink:href="#mc57d9b9987" y="165.127162"/>
     <use style="fill:#d62728;stroke:#d62728;" x="195.330938" xlink:href="#mc57d9b9987" y="165.120789"/>
    </g>
   </g>
   <g id="patch_3">
    <path d="M 61.410938 279.010828 
L 61.410938 12.898828 
" style="fill:none;stroke:#000000;stroke-linecap:square;stroke-linejoin:miter;stroke-width:0.8;"/>
   </g>
   <g id="patch_4">
    <path d="M 418.530938 279.010828 
L 418.530938 12.898828 
" style="fill:none;stroke:#000000;stroke-linecap:square;stroke-linejoin:miter;stroke-width:0.8;"/>
   </g>
   <g id="patch_5">
    <path d="M 61.410938 279.010828 
L 418.530938 279.010828 
" style="fill:none;stroke:#000000;stroke-linecap:square;stroke-linejoin:miter;stroke-width:0.8;"/>
   </g>
   <g id="patch_6">
    <path d="M 61.410938 12.898828 
L 418.530938 12.898828 
" style="fill:none;stroke:#000000;stroke-linecap:square;stroke-linejoin:miter;stroke-width:0.8;"/>
   </g>
   <g id="text_14">
    <!-- (C) -->
    <defs>
     <path d="M 64.40625 67.28125 
L 64.40625 56.890625 
Q 59.421875 61.53125 53.78125 63.8125 
Q 48.140625 66.109375 41.796875 66.109375 
Q 29.296875 66.109375 22.65625 58.46875 
Q 16.015625 50.828125 16.015625 36.375 
Q 16.015625 21.96875 22.65625 14.328125 
Q 29.296875 6.6875 41.796875 6.6875 
Q 48.140625 6.6875 53.78125 8.984375 
Q 59.421875 11.28125 64.40625 15.921875 
L 64.40625 5.609375 
Q 59.234375 2.09375 53.4375 0.328125 
Q 47.65625 -1.421875 41.21875 -1.421875 
Q 24.65625 -1.421875 15.125 8.703125 
Q 5.609375 18.84375 5.609375 36.375 
Q 5.609375 53.953125 15.125 64.078125 
Q 24.65625 74.21875 41.21875 74.21875 
Q 47.75 74.21875 53.53125 72.484375 
Q 59.328125 70.75 64.40625 67.28125 
z
" id="DejaVuSans-43"/>
    </defs>
    <g transform="translate(83.730938 39.510028)scale(0.2 -0.2)">
     <use xlink:href="#DejaVuSans-28"/>
     <use x="39.013672" xlink:href="#DejaVuSans-43"/>
     <use x="108.837891" xlink:href="#DejaVuSans-29"/>
    </g>
   </g>
  </g>
 </g>
 <defs>
  <clipPath id="p569502e5ba">
   <rect height="266.112" width="357.12" x="61.410938" y="12.898828"/>
  </clipPath>
 </defs>
</svg>
