<?xml version="1.0" encoding="utf-8" standalone="no"?>
<!DOCTYPE svg PUBLIC "-//W3C//DTD SVG 1.1//EN"
  "http://www.w3.org/Graphics/SVG/1.1/DTD/svg11.dtd">
<!-- Created with matplotlib (http://matplotlib.org/) -->
<svg height="331pt" version="1.1" viewBox="0 0 516 331" width="516pt" xmlns="http://www.w3.org/2000/svg" xmlns:xlink="http://www.w3.org/1999/xlink">
 <defs>
  <style type="text/css">
*{stroke-linecap:butt;stroke-linejoin:round;}
  </style>
 </defs>
 <g id="figure_1">
  <g id="patch_1">
   <path d="M 0 331.084266 
L 516.242437 331.084266 
L 516.242437 0 
L 0 0 
z
" style="fill:none;"/>
  </g>
  <g id="axes_1">
   <g id="patch_2">
    <path d="M 61.410938 279.010828 
L 489.954938 279.010828 
L 489.954938 12.898828 
L 61.410938 12.898828 
z
" style="fill:none;"/>
   </g>
   <g id="matplotlib.axis_1">
    <g id="xtick_1">
     <g id="line2d_1">
      <path clip-path="url(#p18cfb82a23)" d="M 100.369483 279.010828 
L 100.369483 12.898828 
" style="fill:none;stroke:#b0b0b0;stroke-linecap:square;stroke-width:0.8;"/>
     </g>
     <g id="line2d_2">
      <defs>
       <path d="M 0 0 
L 0 3.5 
" id="m54bcf1935e" style="stroke:#000000;stroke-width:0.8;"/>
      </defs>
      <g>
       <use style="stroke:#000000;stroke-width:0.8;" x="100.369483" xlink:href="#m54bcf1935e" y="279.010828"/>
      </g>
     </g>
     <g id="text_1">
      <!-- −500 -->
      <defs>
       <path d="M 10.59375 35.5 
L 73.1875 35.5 
L 73.1875 27.203125 
L 10.59375 27.203125 
z
" id="DejaVuSans-2212"/>
       <path d="M 10.796875 72.90625 
L 49.515625 72.90625 
L 49.515625 64.59375 
L 19.828125 64.59375 
L 19.828125 46.734375 
Q 21.96875 47.46875 24.109375 47.828125 
Q 26.265625 48.1875 28.421875 48.1875 
Q 40.625 48.1875 47.75 41.5 
Q 54.890625 34.8125 54.890625 23.390625 
Q 54.890625 11.625 47.5625 5.09375 
Q 40.234375 -1.421875 26.90625 -1.421875 
Q 22.3125 -1.421875 17.546875 -0.640625 
Q 12.796875 0.140625 7.71875 1.703125 
L 7.71875 11.625 
Q 12.109375 9.234375 16.796875 8.0625 
Q 21.484375 6.890625 26.703125 6.890625 
Q 35.15625 6.890625 40.078125 11.328125 
Q 45.015625 15.765625 45.015625 23.390625 
Q 45.015625 31 40.078125 35.4375 
Q 35.15625 39.890625 26.703125 39.890625 
Q 22.75 39.890625 18.8125 39.015625 
Q 14.890625 38.140625 10.796875 36.28125 
z
" id="DejaVuSans-35"/>
       <path d="M 31.78125 66.40625 
Q 24.171875 66.40625 20.328125 58.90625 
Q 16.5 51.421875 16.5 36.375 
Q 16.5 21.390625 20.328125 13.890625 
Q 24.171875 6.390625 31.78125 6.390625 
Q 39.453125 6.390625 43.28125 13.890625 
Q 47.125 21.390625 47.125 36.375 
Q 47.125 51.421875 43.28125 58.90625 
Q 39.453125 66.40625 31.78125 66.40625 
z
M 31.78125 74.21875 
Q 44.046875 74.21875 50.515625 64.515625 
Q 56.984375 54.828125 56.984375 36.375 
Q 56.984375 17.96875 50.515625 8.265625 
Q 44.046875 -1.421875 31.78125 -1.421875 
Q 19.53125 -1.421875 13.0625 8.265625 
Q 6.59375 17.96875 6.59375 36.375 
Q 6.59375 54.828125 13.0625 64.515625 
Q 19.53125 74.21875 31.78125 74.21875 
z
" id="DejaVuSans-30"/>
      </defs>
      <g transform="translate(79.769092 297.408484)scale(0.15 -0.15)">
       <use xlink:href="#DejaVuSans-2212"/>
       <use x="83.789062" xlink:href="#DejaVuSans-35"/>
       <use x="147.412109" xlink:href="#DejaVuSans-30"/>
       <use x="211.035156" xlink:href="#DejaVuSans-30"/>
      </g>
     </g>
    </g>
    <g id="xtick_2">
     <g id="line2d_3">
      <path clip-path="url(#p18cfb82a23)" d="M 149.067665 279.010828 
L 149.067665 12.898828 
" style="fill:none;stroke:#b0b0b0;stroke-linecap:square;stroke-width:0.8;"/>
     </g>
     <g id="line2d_4">
      <g>
       <use style="stroke:#000000;stroke-width:0.8;" x="149.067665" xlink:href="#m54bcf1935e" y="279.010828"/>
      </g>
     </g>
     <g id="text_2">
      <!-- −250 -->
      <defs>
       <path d="M 19.1875 8.296875 
L 53.609375 8.296875 
L 53.609375 0 
L 7.328125 0 
L 7.328125 8.296875 
Q 12.9375 14.109375 22.625 23.890625 
Q 32.328125 33.6875 34.8125 36.53125 
Q 39.546875 41.84375 41.421875 45.53125 
Q 43.3125 49.21875 43.3125 52.78125 
Q 43.3125 58.59375 39.234375 62.25 
Q 35.15625 65.921875 28.609375 65.921875 
Q 23.96875 65.921875 18.8125 64.3125 
Q 13.671875 62.703125 7.8125 59.421875 
L 7.8125 69.390625 
Q 13.765625 71.78125 18.9375 73 
Q 24.125 74.21875 28.421875 74.21875 
Q 39.75 74.21875 46.484375 68.546875 
Q 53.21875 62.890625 53.21875 53.421875 
Q 53.21875 48.921875 51.53125 44.890625 
Q 49.859375 40.875 45.40625 35.40625 
Q 44.1875 33.984375 37.640625 27.21875 
Q 31.109375 20.453125 19.1875 8.296875 
z
" id="DejaVuSans-32"/>
      </defs>
      <g transform="translate(128.467274 297.408484)scale(0.15 -0.15)">
       <use xlink:href="#DejaVuSans-2212"/>
       <use x="83.789062" xlink:href="#DejaVuSans-32"/>
       <use x="147.412109" xlink:href="#DejaVuSans-35"/>
       <use x="211.035156" xlink:href="#DejaVuSans-30"/>
      </g>
     </g>
    </g>
    <g id="xtick_3">
     <g id="line2d_5">
      <path clip-path="url(#p18cfb82a23)" d="M 197.765847 279.010828 
L 197.765847 12.898828 
" style="fill:none;stroke:#b0b0b0;stroke-linecap:square;stroke-width:0.8;"/>
     </g>
     <g id="line2d_6">
      <g>
       <use style="stroke:#000000;stroke-width:0.8;" x="197.765847" xlink:href="#m54bcf1935e" y="279.010828"/>
      </g>
     </g>
     <g id="text_3">
      <!-- 0 -->
      <g transform="translate(192.993972 297.408484)scale(0.15 -0.15)">
       <use xlink:href="#DejaVuSans-30"/>
      </g>
     </g>
    </g>
    <g id="xtick_4">
     <g id="line2d_7">
      <path clip-path="url(#p18cfb82a23)" d="M 246.464028 279.010828 
L 246.464028 12.898828 
" style="fill:none;stroke:#b0b0b0;stroke-linecap:square;stroke-width:0.8;"/>
     </g>
     <g id="line2d_8">
      <g>
       <use style="stroke:#000000;stroke-width:0.8;" x="246.464028" xlink:href="#m54bcf1935e" y="279.010828"/>
      </g>
     </g>
     <g id="text_4">
      <!-- 250 -->
      <g transform="translate(232.148403 297.408484)scale(0.15 -0.15)">
       <use xlink:href="#DejaVuSans-32"/>
       <use x="63.623047" xlink:href="#DejaVuSans-35"/>
       <use x="127.246094" xlink:href="#DejaVuSans-30"/>
      </g>
     </g>
    </g>
    <g id="xtick_5">
     <g id="line2d_9">
      <path clip-path="url(#p18cfb82a23)" d="M 295.16221 279.010828 
L 295.16221 12.898828 
" style="fill:none;stroke:#b0b0b0;stroke-linecap:square;stroke-width:0.8;"/>
     </g>
     <g id="line2d_10">
      <g>
       <use style="stroke:#000000;stroke-width:0.8;" x="295.16221" xlink:href="#m54bcf1935e" y="279.010828"/>
      </g>
     </g>
     <g id="text_5">
      <!-- 500 -->
      <g transform="translate(280.846585 297.408484)scale(0.15 -0.15)">
       <use xlink:href="#DejaVuSans-35"/>
       <use x="63.623047" xlink:href="#DejaVuSans-30"/>
       <use x="127.246094" xlink:href="#DejaVuSans-30"/>
      </g>
     </g>
    </g>
    <g id="xtick_6">
     <g id="line2d_11">
      <path clip-path="url(#p18cfb82a23)" d="M 343.860392 279.010828 
L 343.860392 12.898828 
" style="fill:none;stroke:#b0b0b0;stroke-linecap:square;stroke-width:0.8;"/>
     </g>
     <g id="line2d_12">
      <g>
       <use style="stroke:#000000;stroke-width:0.8;" x="343.860392" xlink:href="#m54bcf1935e" y="279.010828"/>
      </g>
     </g>
     <g id="text_6">
      <!-- 750 -->
      <defs>
       <path d="M 8.203125 72.90625 
L 55.078125 72.90625 
L 55.078125 68.703125 
L 28.609375 0 
L 18.3125 0 
L 43.21875 64.59375 
L 8.203125 64.59375 
z
" id="DejaVuSans-37"/>
      </defs>
      <g transform="translate(329.544767 297.408484)scale(0.15 -0.15)">
       <use xlink:href="#DejaVuSans-37"/>
       <use x="63.623047" xlink:href="#DejaVuSans-35"/>
       <use x="127.246094" xlink:href="#DejaVuSans-30"/>
      </g>
     </g>
    </g>
    <g id="xtick_7">
     <g id="line2d_13">
      <path clip-path="url(#p18cfb82a23)" d="M 392.558574 279.010828 
L 392.558574 12.898828 
" style="fill:none;stroke:#b0b0b0;stroke-linecap:square;stroke-width:0.8;"/>
     </g>
     <g id="line2d_14">
      <g>
       <use style="stroke:#000000;stroke-width:0.8;" x="392.558574" xlink:href="#m54bcf1935e" y="279.010828"/>
      </g>
     </g>
     <g id="text_7">
      <!-- 1000 -->
      <defs>
       <path d="M 12.40625 8.296875 
L 28.515625 8.296875 
L 28.515625 63.921875 
L 10.984375 60.40625 
L 10.984375 69.390625 
L 28.421875 72.90625 
L 38.28125 72.90625 
L 38.28125 8.296875 
L 54.390625 8.296875 
L 54.390625 0 
L 12.40625 0 
z
" id="DejaVuSans-31"/>
      </defs>
      <g transform="translate(373.471074 297.408484)scale(0.15 -0.15)">
       <use xlink:href="#DejaVuSans-31"/>
       <use x="63.623047" xlink:href="#DejaVuSans-30"/>
       <use x="127.246094" xlink:href="#DejaVuSans-30"/>
       <use x="190.869141" xlink:href="#DejaVuSans-30"/>
      </g>
     </g>
    </g>
    <g id="xtick_8">
     <g id="line2d_15">
      <path clip-path="url(#p18cfb82a23)" d="M 441.256756 279.010828 
L 441.256756 12.898828 
" style="fill:none;stroke:#b0b0b0;stroke-linecap:square;stroke-width:0.8;"/>
     </g>
     <g id="line2d_16">
      <g>
       <use style="stroke:#000000;stroke-width:0.8;" x="441.256756" xlink:href="#m54bcf1935e" y="279.010828"/>
      </g>
     </g>
     <g id="text_8">
      <!-- 1250 -->
      <g transform="translate(422.169256 297.408484)scale(0.15 -0.15)">
       <use xlink:href="#DejaVuSans-31"/>
       <use x="63.623047" xlink:href="#DejaVuSans-32"/>
       <use x="127.246094" xlink:href="#DejaVuSans-35"/>
       <use x="190.869141" xlink:href="#DejaVuSans-30"/>
      </g>
     </g>
    </g>
    <g id="xtick_9">
     <g id="line2d_17">
      <path clip-path="url(#p18cfb82a23)" d="M 489.954938 279.010828 
L 489.954938 12.898828 
" style="fill:none;stroke:#b0b0b0;stroke-linecap:square;stroke-width:0.8;"/>
     </g>
     <g id="line2d_18">
      <g>
       <use style="stroke:#000000;stroke-width:0.8;" x="489.954938" xlink:href="#m54bcf1935e" y="279.010828"/>
      </g>
     </g>
     <g id="text_9">
      <!-- 1500 -->
      <g transform="translate(470.867438 297.408484)scale(0.15 -0.15)">
       <use xlink:href="#DejaVuSans-31"/>
       <use x="63.623047" xlink:href="#DejaVuSans-35"/>
       <use x="127.246094" xlink:href="#DejaVuSans-30"/>
       <use x="190.869141" xlink:href="#DejaVuSans-30"/>
      </g>
     </g>
    </g>
    <g id="text_10">
     <!-- Detuning from carrier (kHz) -->
     <defs>
      <path d="M 19.671875 64.796875 
L 19.671875 8.109375 
L 31.59375 8.109375 
Q 46.6875 8.109375 53.6875 14.9375 
Q 60.6875 21.78125 60.6875 36.53125 
Q 60.6875 51.171875 53.6875 57.984375 
Q 46.6875 64.796875 31.59375 64.796875 
z
M 9.8125 72.90625 
L 30.078125 72.90625 
Q 51.265625 72.90625 61.171875 64.09375 
Q 71.09375 55.28125 71.09375 36.53125 
Q 71.09375 17.671875 61.125 8.828125 
Q 51.171875 0 30.078125 0 
L 9.8125 0 
z
" id="DejaVuSans-44"/>
      <path d="M 56.203125 29.59375 
L 56.203125 25.203125 
L 14.890625 25.203125 
Q 15.484375 15.921875 20.484375 11.0625 
Q 25.484375 6.203125 34.421875 6.203125 
Q 39.59375 6.203125 44.453125 7.46875 
Q 49.3125 8.734375 54.109375 11.28125 
L 54.109375 2.78125 
Q 49.265625 0.734375 44.1875 -0.34375 
Q 39.109375 -1.421875 33.890625 -1.421875 
Q 20.796875 -1.421875 13.15625 6.1875 
Q 5.515625 13.8125 5.515625 26.8125 
Q 5.515625 40.234375 12.765625 48.109375 
Q 20.015625 56 32.328125 56 
Q 43.359375 56 49.78125 48.890625 
Q 56.203125 41.796875 56.203125 29.59375 
z
M 47.21875 32.234375 
Q 47.125 39.59375 43.09375 43.984375 
Q 39.0625 48.390625 32.421875 48.390625 
Q 24.90625 48.390625 20.390625 44.140625 
Q 15.875 39.890625 15.1875 32.171875 
z
" id="DejaVuSans-65"/>
      <path d="M 18.3125 70.21875 
L 18.3125 54.6875 
L 36.8125 54.6875 
L 36.8125 47.703125 
L 18.3125 47.703125 
L 18.3125 18.015625 
Q 18.3125 11.328125 20.140625 9.421875 
Q 21.96875 7.515625 27.59375 7.515625 
L 36.8125 7.515625 
L 36.8125 0 
L 27.59375 0 
Q 17.1875 0 13.234375 3.875 
Q 9.28125 7.765625 9.28125 18.015625 
L 9.28125 47.703125 
L 2.6875 47.703125 
L 2.6875 54.6875 
L 9.28125 54.6875 
L 9.28125 70.21875 
z
" id="DejaVuSans-74"/>
      <path d="M 8.5 21.578125 
L 8.5 54.6875 
L 17.484375 54.6875 
L 17.484375 21.921875 
Q 17.484375 14.15625 20.5 10.265625 
Q 23.53125 6.390625 29.59375 6.390625 
Q 36.859375 6.390625 41.078125 11.03125 
Q 45.3125 15.671875 45.3125 23.6875 
L 45.3125 54.6875 
L 54.296875 54.6875 
L 54.296875 0 
L 45.3125 0 
L 45.3125 8.40625 
Q 42.046875 3.421875 37.71875 1 
Q 33.40625 -1.421875 27.6875 -1.421875 
Q 18.265625 -1.421875 13.375 4.4375 
Q 8.5 10.296875 8.5 21.578125 
z
M 31.109375 56 
z
" id="DejaVuSans-75"/>
      <path d="M 54.890625 33.015625 
L 54.890625 0 
L 45.90625 0 
L 45.90625 32.71875 
Q 45.90625 40.484375 42.875 44.328125 
Q 39.84375 48.1875 33.796875 48.1875 
Q 26.515625 48.1875 22.3125 43.546875 
Q 18.109375 38.921875 18.109375 30.90625 
L 18.109375 0 
L 9.078125 0 
L 9.078125 54.6875 
L 18.109375 54.6875 
L 18.109375 46.1875 
Q 21.34375 51.125 25.703125 53.5625 
Q 30.078125 56 35.796875 56 
Q 45.21875 56 50.046875 50.171875 
Q 54.890625 44.34375 54.890625 33.015625 
z
" id="DejaVuSans-6e"/>
      <path d="M 9.421875 54.6875 
L 18.40625 54.6875 
L 18.40625 0 
L 9.421875 0 
z
M 9.421875 75.984375 
L 18.40625 75.984375 
L 18.40625 64.59375 
L 9.421875 64.59375 
z
" id="DejaVuSans-69"/>
      <path d="M 45.40625 27.984375 
Q 45.40625 37.75 41.375 43.109375 
Q 37.359375 48.484375 30.078125 48.484375 
Q 22.859375 48.484375 18.828125 43.109375 
Q 14.796875 37.75 14.796875 27.984375 
Q 14.796875 18.265625 18.828125 12.890625 
Q 22.859375 7.515625 30.078125 7.515625 
Q 37.359375 7.515625 41.375 12.890625 
Q 45.40625 18.265625 45.40625 27.984375 
z
M 54.390625 6.78125 
Q 54.390625 -7.171875 48.1875 -13.984375 
Q 42 -20.796875 29.203125 -20.796875 
Q 24.46875 -20.796875 20.265625 -20.09375 
Q 16.0625 -19.390625 12.109375 -17.921875 
L 12.109375 -9.1875 
Q 16.0625 -11.328125 19.921875 -12.34375 
Q 23.78125 -13.375 27.78125 -13.375 
Q 36.625 -13.375 41.015625 -8.765625 
Q 45.40625 -4.15625 45.40625 5.171875 
L 45.40625 9.625 
Q 42.625 4.78125 38.28125 2.390625 
Q 33.9375 0 27.875 0 
Q 17.828125 0 11.671875 7.65625 
Q 5.515625 15.328125 5.515625 27.984375 
Q 5.515625 40.671875 11.671875 48.328125 
Q 17.828125 56 27.875 56 
Q 33.9375 56 38.28125 53.609375 
Q 42.625 51.21875 45.40625 46.390625 
L 45.40625 54.6875 
L 54.390625 54.6875 
z
" id="DejaVuSans-67"/>
      <path id="DejaVuSans-20"/>
      <path d="M 37.109375 75.984375 
L 37.109375 68.5 
L 28.515625 68.5 
Q 23.6875 68.5 21.796875 66.546875 
Q 19.921875 64.59375 19.921875 59.515625 
L 19.921875 54.6875 
L 34.71875 54.6875 
L 34.71875 47.703125 
L 19.921875 47.703125 
L 19.921875 0 
L 10.890625 0 
L 10.890625 47.703125 
L 2.296875 47.703125 
L 2.296875 54.6875 
L 10.890625 54.6875 
L 10.890625 58.5 
Q 10.890625 67.625 15.140625 71.796875 
Q 19.390625 75.984375 28.609375 75.984375 
z
" id="DejaVuSans-66"/>
      <path d="M 41.109375 46.296875 
Q 39.59375 47.171875 37.8125 47.578125 
Q 36.03125 48 33.890625 48 
Q 26.265625 48 22.1875 43.046875 
Q 18.109375 38.09375 18.109375 28.8125 
L 18.109375 0 
L 9.078125 0 
L 9.078125 54.6875 
L 18.109375 54.6875 
L 18.109375 46.1875 
Q 20.953125 51.171875 25.484375 53.578125 
Q 30.03125 56 36.53125 56 
Q 37.453125 56 38.578125 55.875 
Q 39.703125 55.765625 41.0625 55.515625 
z
" id="DejaVuSans-72"/>
      <path d="M 30.609375 48.390625 
Q 23.390625 48.390625 19.1875 42.75 
Q 14.984375 37.109375 14.984375 27.296875 
Q 14.984375 17.484375 19.15625 11.84375 
Q 23.34375 6.203125 30.609375 6.203125 
Q 37.796875 6.203125 41.984375 11.859375 
Q 46.1875 17.53125 46.1875 27.296875 
Q 46.1875 37.015625 41.984375 42.703125 
Q 37.796875 48.390625 30.609375 48.390625 
z
M 30.609375 56 
Q 42.328125 56 49.015625 48.375 
Q 55.71875 40.765625 55.71875 27.296875 
Q 55.71875 13.875 49.015625 6.21875 
Q 42.328125 -1.421875 30.609375 -1.421875 
Q 18.84375 -1.421875 12.171875 6.21875 
Q 5.515625 13.875 5.515625 27.296875 
Q 5.515625 40.765625 12.171875 48.375 
Q 18.84375 56 30.609375 56 
z
" id="DejaVuSans-6f"/>
      <path d="M 52 44.1875 
Q 55.375 50.25 60.0625 53.125 
Q 64.75 56 71.09375 56 
Q 79.640625 56 84.28125 50.015625 
Q 88.921875 44.046875 88.921875 33.015625 
L 88.921875 0 
L 79.890625 0 
L 79.890625 32.71875 
Q 79.890625 40.578125 77.09375 44.375 
Q 74.3125 48.1875 68.609375 48.1875 
Q 61.625 48.1875 57.5625 43.546875 
Q 53.515625 38.921875 53.515625 30.90625 
L 53.515625 0 
L 44.484375 0 
L 44.484375 32.71875 
Q 44.484375 40.625 41.703125 44.40625 
Q 38.921875 48.1875 33.109375 48.1875 
Q 26.21875 48.1875 22.15625 43.53125 
Q 18.109375 38.875 18.109375 30.90625 
L 18.109375 0 
L 9.078125 0 
L 9.078125 54.6875 
L 18.109375 54.6875 
L 18.109375 46.1875 
Q 21.1875 51.21875 25.484375 53.609375 
Q 29.78125 56 35.6875 56 
Q 41.65625 56 45.828125 52.96875 
Q 50 49.953125 52 44.1875 
z
" id="DejaVuSans-6d"/>
      <path d="M 48.78125 52.59375 
L 48.78125 44.1875 
Q 44.96875 46.296875 41.140625 47.34375 
Q 37.3125 48.390625 33.40625 48.390625 
Q 24.65625 48.390625 19.8125 42.84375 
Q 14.984375 37.3125 14.984375 27.296875 
Q 14.984375 17.28125 19.8125 11.734375 
Q 24.65625 6.203125 33.40625 6.203125 
Q 37.3125 6.203125 41.140625 7.25 
Q 44.96875 8.296875 48.78125 10.40625 
L 48.78125 2.09375 
Q 45.015625 0.34375 40.984375 -0.53125 
Q 36.96875 -1.421875 32.421875 -1.421875 
Q 20.0625 -1.421875 12.78125 6.34375 
Q 5.515625 14.109375 5.515625 27.296875 
Q 5.515625 40.671875 12.859375 48.328125 
Q 20.21875 56 33.015625 56 
Q 37.15625 56 41.109375 55.140625 
Q 45.0625 54.296875 48.78125 52.59375 
z
" id="DejaVuSans-63"/>
      <path d="M 34.28125 27.484375 
Q 23.390625 27.484375 19.1875 25 
Q 14.984375 22.515625 14.984375 16.5 
Q 14.984375 11.71875 18.140625 8.90625 
Q 21.296875 6.109375 26.703125 6.109375 
Q 34.1875 6.109375 38.703125 11.40625 
Q 43.21875 16.703125 43.21875 25.484375 
L 43.21875 27.484375 
z
M 52.203125 31.203125 
L 52.203125 0 
L 43.21875 0 
L 43.21875 8.296875 
Q 40.140625 3.328125 35.546875 0.953125 
Q 30.953125 -1.421875 24.3125 -1.421875 
Q 15.921875 -1.421875 10.953125 3.296875 
Q 6 8.015625 6 15.921875 
Q 6 25.140625 12.171875 29.828125 
Q 18.359375 34.515625 30.609375 34.515625 
L 43.21875 34.515625 
L 43.21875 35.40625 
Q 43.21875 41.609375 39.140625 45 
Q 35.0625 48.390625 27.6875 48.390625 
Q 23 48.390625 18.546875 47.265625 
Q 14.109375 46.140625 10.015625 43.890625 
L 10.015625 52.203125 
Q 14.9375 54.109375 19.578125 55.046875 
Q 24.21875 56 28.609375 56 
Q 40.484375 56 46.34375 49.84375 
Q 52.203125 43.703125 52.203125 31.203125 
z
" id="DejaVuSans-61"/>
      <path d="M 31 75.875 
Q 24.46875 64.65625 21.28125 53.65625 
Q 18.109375 42.671875 18.109375 31.390625 
Q 18.109375 20.125 21.3125 9.0625 
Q 24.515625 -2 31 -13.1875 
L 23.1875 -13.1875 
Q 15.875 -1.703125 12.234375 9.375 
Q 8.59375 20.453125 8.59375 31.390625 
Q 8.59375 42.28125 12.203125 53.3125 
Q 15.828125 64.359375 23.1875 75.875 
z
" id="DejaVuSans-28"/>
      <path d="M 9.078125 75.984375 
L 18.109375 75.984375 
L 18.109375 31.109375 
L 44.921875 54.6875 
L 56.390625 54.6875 
L 27.390625 29.109375 
L 57.625 0 
L 45.90625 0 
L 18.109375 26.703125 
L 18.109375 0 
L 9.078125 0 
z
" id="DejaVuSans-6b"/>
      <path d="M 9.8125 72.90625 
L 19.671875 72.90625 
L 19.671875 43.015625 
L 55.515625 43.015625 
L 55.515625 72.90625 
L 65.375 72.90625 
L 65.375 0 
L 55.515625 0 
L 55.515625 34.71875 
L 19.671875 34.71875 
L 19.671875 0 
L 9.8125 0 
z
" id="DejaVuSans-48"/>
      <path d="M 5.515625 54.6875 
L 48.1875 54.6875 
L 48.1875 46.484375 
L 14.40625 7.171875 
L 48.1875 7.171875 
L 48.1875 0 
L 4.296875 0 
L 4.296875 8.203125 
L 38.09375 47.515625 
L 5.515625 47.515625 
z
" id="DejaVuSans-7a"/>
      <path d="M 8.015625 75.875 
L 15.828125 75.875 
Q 23.140625 64.359375 26.78125 53.3125 
Q 30.421875 42.28125 30.421875 31.390625 
Q 30.421875 20.453125 26.78125 9.375 
Q 23.140625 -1.703125 15.828125 -13.1875 
L 8.015625 -13.1875 
Q 14.5 -2 17.703125 9.0625 
Q 20.90625 20.125 20.90625 31.390625 
Q 20.90625 42.671875 17.703125 53.65625 
Q 14.5 64.65625 8.015625 75.875 
z
" id="DejaVuSans-29"/>
     </defs>
     <g transform="translate(137.497 319.724891)scale(0.2 -0.2)">
      <use xlink:href="#DejaVuSans-44"/>
      <use x="77.001953" xlink:href="#DejaVuSans-65"/>
      <use x="138.525391" xlink:href="#DejaVuSans-74"/>
      <use x="177.734375" xlink:href="#DejaVuSans-75"/>
      <use x="241.113281" xlink:href="#DejaVuSans-6e"/>
      <use x="304.492188" xlink:href="#DejaVuSans-69"/>
      <use x="332.275391" xlink:href="#DejaVuSans-6e"/>
      <use x="395.654297" xlink:href="#DejaVuSans-67"/>
      <use x="459.130859" xlink:href="#DejaVuSans-20"/>
      <use x="490.917969" xlink:href="#DejaVuSans-66"/>
      <use x="526.123047" xlink:href="#DejaVuSans-72"/>
      <use x="567.205078" xlink:href="#DejaVuSans-6f"/>
      <use x="628.386719" xlink:href="#DejaVuSans-6d"/>
      <use x="725.798828" xlink:href="#DejaVuSans-20"/>
      <use x="757.585938" xlink:href="#DejaVuSans-63"/>
      <use x="812.566406" xlink:href="#DejaVuSans-61"/>
      <use x="873.845703" xlink:href="#DejaVuSans-72"/>
      <use x="914.943359" xlink:href="#DejaVuSans-72"/>
      <use x="956.056641" xlink:href="#DejaVuSans-69"/>
      <use x="983.839844" xlink:href="#DejaVuSans-65"/>
      <use x="1045.363281" xlink:href="#DejaVuSans-72"/>
      <use x="1086.476562" xlink:href="#DejaVuSans-20"/>
      <use x="1118.263672" xlink:href="#DejaVuSans-28"/>
      <use x="1157.277344" xlink:href="#DejaVuSans-6b"/>
      <use x="1215.1875" xlink:href="#DejaVuSans-48"/>
      <use x="1290.382812" xlink:href="#DejaVuSans-7a"/>
      <use x="1342.873047" xlink:href="#DejaVuSans-29"/>
     </g>
    </g>
   </g>
   <g id="matplotlib.axis_2">
    <g id="ytick_1">
     <g id="line2d_19">
      <path clip-path="url(#p18cfb82a23)" d="M 61.410938 279.010828 
L 489.954938 279.010828 
" style="fill:none;stroke:#b0b0b0;stroke-linecap:square;stroke-width:0.8;"/>
     </g>
     <g id="line2d_20">
      <defs>
       <path d="M 0 0 
L -3.5 0 
" id="m73745f6f53" style="stroke:#000000;stroke-width:0.8;"/>
      </defs>
      <g>
       <use style="stroke:#000000;stroke-width:0.8;" x="61.410938" xlink:href="#m73745f6f53" y="279.010828"/>
      </g>
     </g>
     <g id="text_11">
      <!-- 0.0 -->
      <defs>
       <path d="M 10.6875 12.40625 
L 21 12.40625 
L 21 0 
L 10.6875 0 
z
" id="DejaVuSans-2e"/>
      </defs>
      <g transform="translate(30.55625 284.709656)scale(0.15 -0.15)">
       <use xlink:href="#DejaVuSans-30"/>
       <use x="63.623047" xlink:href="#DejaVuSans-2e"/>
       <use x="95.410156" xlink:href="#DejaVuSans-30"/>
      </g>
     </g>
    </g>
    <g id="ytick_2">
     <g id="line2d_21">
      <path clip-path="url(#p18cfb82a23)" d="M 61.410938 225.788428 
L 489.954938 225.788428 
" style="fill:none;stroke:#b0b0b0;stroke-linecap:square;stroke-width:0.8;"/>
     </g>
     <g id="line2d_22">
      <g>
       <use style="stroke:#000000;stroke-width:0.8;" x="61.410938" xlink:href="#m73745f6f53" y="225.788428"/>
      </g>
     </g>
     <g id="text_12">
      <!-- 0.2 -->
      <g transform="translate(30.55625 231.487256)scale(0.15 -0.15)">
       <use xlink:href="#DejaVuSans-30"/>
       <use x="63.623047" xlink:href="#DejaVuSans-2e"/>
       <use x="95.410156" xlink:href="#DejaVuSans-32"/>
      </g>
     </g>
    </g>
    <g id="ytick_3">
     <g id="line2d_23">
      <path clip-path="url(#p18cfb82a23)" d="M 61.410938 172.566028 
L 489.954938 172.566028 
" style="fill:none;stroke:#b0b0b0;stroke-linecap:square;stroke-width:0.8;"/>
     </g>
     <g id="line2d_24">
      <g>
       <use style="stroke:#000000;stroke-width:0.8;" x="61.410938" xlink:href="#m73745f6f53" y="172.566028"/>
      </g>
     </g>
     <g id="text_13">
      <!-- 0.4 -->
      <defs>
       <path d="M 37.796875 64.3125 
L 12.890625 25.390625 
L 37.796875 25.390625 
z
M 35.203125 72.90625 
L 47.609375 72.90625 
L 47.609375 25.390625 
L 58.015625 25.390625 
L 58.015625 17.1875 
L 47.609375 17.1875 
L 47.609375 0 
L 37.796875 0 
L 37.796875 17.1875 
L 4.890625 17.1875 
L 4.890625 26.703125 
z
" id="DejaVuSans-34"/>
      </defs>
      <g transform="translate(30.55625 178.264856)scale(0.15 -0.15)">
       <use xlink:href="#DejaVuSans-30"/>
       <use x="63.623047" xlink:href="#DejaVuSans-2e"/>
       <use x="95.410156" xlink:href="#DejaVuSans-34"/>
      </g>
     </g>
    </g>
    <g id="ytick_4">
     <g id="line2d_25">
      <path clip-path="url(#p18cfb82a23)" d="M 61.410938 119.343628 
L 489.954938 119.343628 
" style="fill:none;stroke:#b0b0b0;stroke-linecap:square;stroke-width:0.8;"/>
     </g>
     <g id="line2d_26">
      <g>
       <use style="stroke:#000000;stroke-width:0.8;" x="61.410938" xlink:href="#m73745f6f53" y="119.343628"/>
      </g>
     </g>
     <g id="text_14">
      <!-- 0.6 -->
      <defs>
       <path d="M 33.015625 40.375 
Q 26.375 40.375 22.484375 35.828125 
Q 18.609375 31.296875 18.609375 23.390625 
Q 18.609375 15.53125 22.484375 10.953125 
Q 26.375 6.390625 33.015625 6.390625 
Q 39.65625 6.390625 43.53125 10.953125 
Q 47.40625 15.53125 47.40625 23.390625 
Q 47.40625 31.296875 43.53125 35.828125 
Q 39.65625 40.375 33.015625 40.375 
z
M 52.59375 71.296875 
L 52.59375 62.3125 
Q 48.875 64.0625 45.09375 64.984375 
Q 41.3125 65.921875 37.59375 65.921875 
Q 27.828125 65.921875 22.671875 59.328125 
Q 17.53125 52.734375 16.796875 39.40625 
Q 19.671875 43.65625 24.015625 45.921875 
Q 28.375 48.1875 33.59375 48.1875 
Q 44.578125 48.1875 50.953125 41.515625 
Q 57.328125 34.859375 57.328125 23.390625 
Q 57.328125 12.15625 50.6875 5.359375 
Q 44.046875 -1.421875 33.015625 -1.421875 
Q 20.359375 -1.421875 13.671875 8.265625 
Q 6.984375 17.96875 6.984375 36.375 
Q 6.984375 53.65625 15.1875 63.9375 
Q 23.390625 74.21875 37.203125 74.21875 
Q 40.921875 74.21875 44.703125 73.484375 
Q 48.484375 72.75 52.59375 71.296875 
z
" id="DejaVuSans-36"/>
      </defs>
      <g transform="translate(30.55625 125.042456)scale(0.15 -0.15)">
       <use xlink:href="#DejaVuSans-30"/>
       <use x="63.623047" xlink:href="#DejaVuSans-2e"/>
       <use x="95.410156" xlink:href="#DejaVuSans-36"/>
      </g>
     </g>
    </g>
    <g id="ytick_5">
     <g id="line2d_27">
      <path clip-path="url(#p18cfb82a23)" d="M 61.410938 66.121228 
L 489.954938 66.121228 
" style="fill:none;stroke:#b0b0b0;stroke-linecap:square;stroke-width:0.8;"/>
     </g>
     <g id="line2d_28">
      <g>
       <use style="stroke:#000000;stroke-width:0.8;" x="61.410938" xlink:href="#m73745f6f53" y="66.121228"/>
      </g>
     </g>
     <g id="text_15">
      <!-- 0.8 -->
      <defs>
       <path d="M 31.78125 34.625 
Q 24.75 34.625 20.71875 30.859375 
Q 16.703125 27.09375 16.703125 20.515625 
Q 16.703125 13.921875 20.71875 10.15625 
Q 24.75 6.390625 31.78125 6.390625 
Q 38.8125 6.390625 42.859375 10.171875 
Q 46.921875 13.96875 46.921875 20.515625 
Q 46.921875 27.09375 42.890625 30.859375 
Q 38.875 34.625 31.78125 34.625 
z
M 21.921875 38.8125 
Q 15.578125 40.375 12.03125 44.71875 
Q 8.5 49.078125 8.5 55.328125 
Q 8.5 64.0625 14.71875 69.140625 
Q 20.953125 74.21875 31.78125 74.21875 
Q 42.671875 74.21875 48.875 69.140625 
Q 55.078125 64.0625 55.078125 55.328125 
Q 55.078125 49.078125 51.53125 44.71875 
Q 48 40.375 41.703125 38.8125 
Q 48.828125 37.15625 52.796875 32.3125 
Q 56.78125 27.484375 56.78125 20.515625 
Q 56.78125 9.90625 50.3125 4.234375 
Q 43.84375 -1.421875 31.78125 -1.421875 
Q 19.734375 -1.421875 13.25 4.234375 
Q 6.78125 9.90625 6.78125 20.515625 
Q 6.78125 27.484375 10.78125 32.3125 
Q 14.796875 37.15625 21.921875 38.8125 
z
M 18.3125 54.390625 
Q 18.3125 48.734375 21.84375 45.5625 
Q 25.390625 42.390625 31.78125 42.390625 
Q 38.140625 42.390625 41.71875 45.5625 
Q 45.3125 48.734375 45.3125 54.390625 
Q 45.3125 60.0625 41.71875 63.234375 
Q 38.140625 66.40625 31.78125 66.40625 
Q 25.390625 66.40625 21.84375 63.234375 
Q 18.3125 60.0625 18.3125 54.390625 
z
" id="DejaVuSans-38"/>
      </defs>
      <g transform="translate(30.55625 71.820056)scale(0.15 -0.15)">
       <use xlink:href="#DejaVuSans-30"/>
       <use x="63.623047" xlink:href="#DejaVuSans-2e"/>
       <use x="95.410156" xlink:href="#DejaVuSans-38"/>
      </g>
     </g>
    </g>
    <g id="ytick_6">
     <g id="line2d_29">
      <path clip-path="url(#p18cfb82a23)" d="M 61.410938 12.898828 
L 489.954938 12.898828 
" style="fill:none;stroke:#b0b0b0;stroke-linecap:square;stroke-width:0.8;"/>
     </g>
     <g id="line2d_30">
      <g>
       <use style="stroke:#000000;stroke-width:0.8;" x="61.410938" xlink:href="#m73745f6f53" y="12.898828"/>
      </g>
     </g>
     <g id="text_16">
      <!-- 1.0 -->
      <g transform="translate(30.55625 18.597656)scale(0.15 -0.15)">
       <use xlink:href="#DejaVuSans-31"/>
       <use x="63.623047" xlink:href="#DejaVuSans-2e"/>
       <use x="95.410156" xlink:href="#DejaVuSans-30"/>
      </g>
     </g>
    </g>
    <g id="text_17">
     <!-- Survival -->
     <defs>
      <path d="M 53.515625 70.515625 
L 53.515625 60.890625 
Q 47.90625 63.578125 42.921875 64.890625 
Q 37.9375 66.21875 33.296875 66.21875 
Q 25.25 66.21875 20.875 63.09375 
Q 16.5 59.96875 16.5 54.203125 
Q 16.5 49.359375 19.40625 46.890625 
Q 22.3125 44.4375 30.421875 42.921875 
L 36.375 41.703125 
Q 47.40625 39.59375 52.65625 34.296875 
Q 57.90625 29 57.90625 20.125 
Q 57.90625 9.515625 50.796875 4.046875 
Q 43.703125 -1.421875 29.984375 -1.421875 
Q 24.8125 -1.421875 18.96875 -0.25 
Q 13.140625 0.921875 6.890625 3.21875 
L 6.890625 13.375 
Q 12.890625 10.015625 18.65625 8.296875 
Q 24.421875 6.59375 29.984375 6.59375 
Q 38.421875 6.59375 43.015625 9.90625 
Q 47.609375 13.234375 47.609375 19.390625 
Q 47.609375 24.75 44.3125 27.78125 
Q 41.015625 30.8125 33.5 32.328125 
L 27.484375 33.5 
Q 16.453125 35.6875 11.515625 40.375 
Q 6.59375 45.0625 6.59375 53.421875 
Q 6.59375 63.09375 13.40625 68.65625 
Q 20.21875 74.21875 32.171875 74.21875 
Q 37.3125 74.21875 42.625 73.28125 
Q 47.953125 72.359375 53.515625 70.515625 
z
" id="DejaVuSans-53"/>
      <path d="M 2.984375 54.6875 
L 12.5 54.6875 
L 29.59375 8.796875 
L 46.6875 54.6875 
L 56.203125 54.6875 
L 35.6875 0 
L 23.484375 0 
z
" id="DejaVuSans-76"/>
      <path d="M 9.421875 75.984375 
L 18.40625 75.984375 
L 18.40625 0 
L 9.421875 0 
z
" id="DejaVuSans-6c"/>
     </defs>
     <g transform="translate(22.396875 186.273578)rotate(-90)scale(0.2 -0.2)">
      <use xlink:href="#DejaVuSans-53"/>
      <use x="63.476562" xlink:href="#DejaVuSans-75"/>
      <use x="126.855469" xlink:href="#DejaVuSans-72"/>
      <use x="167.96875" xlink:href="#DejaVuSans-76"/>
      <use x="227.148438" xlink:href="#DejaVuSans-69"/>
      <use x="254.931641" xlink:href="#DejaVuSans-76"/>
      <use x="314.111328" xlink:href="#DejaVuSans-61"/>
      <use x="375.390625" xlink:href="#DejaVuSans-6c"/>
     </g>
    </g>
   </g>
   <g id="LineCollection_1">
    <path clip-path="url(#p18cfb82a23)" d="M 95.986647 267.208141 
L 95.986647 253.210732 
" style="fill:none;stroke:#d62728;stroke-width:1.5;"/>
    <path clip-path="url(#p18cfb82a23)" d="M 99.882501 266.72068 
L 99.882501 253.643618 
" style="fill:none;stroke:#d62728;stroke-width:1.5;"/>
    <path clip-path="url(#p18cfb82a23)" d="M 103.778356 256.509163 
L 103.778356 241.134141 
" style="fill:none;stroke:#d62728;stroke-width:1.5;"/>
    <path clip-path="url(#p18cfb82a23)" d="M 107.67421 197.291322 
L 107.67421 171.434169 
" style="fill:none;stroke:#d62728;stroke-width:1.5;"/>
    <path clip-path="url(#p18cfb82a23)" d="M 111.570065 113.117437 
L 111.570065 87.226799 
" style="fill:none;stroke:#d62728;stroke-width:1.5;"/>
    <path clip-path="url(#p18cfb82a23)" d="M 115.465919 81.839627 
L 115.465919 60.220554 
" style="fill:none;stroke:#d62728;stroke-width:1.5;"/>
    <path clip-path="url(#p18cfb82a23)" d="M 119.361774 148.690785 
L 119.361774 122.549978 
" style="fill:none;stroke:#d62728;stroke-width:1.5;"/>
    <path clip-path="url(#p18cfb82a23)" d="M 123.257628 226.021667 
L 123.257628 203.964971 
" style="fill:none;stroke:#d62728;stroke-width:1.5;"/>
    <path clip-path="url(#p18cfb82a23)" d="M 127.153483 264.150533 
L 127.153483 248.511123 
" style="fill:none;stroke:#d62728;stroke-width:1.5;"/>
    <path clip-path="url(#p18cfb82a23)" d="M 131.049337 268.491359 
L 131.049337 255.943346 
" style="fill:none;stroke:#d62728;stroke-width:1.5;"/>
    <path clip-path="url(#p18cfb82a23)" d="M 134.945192 278.109944 
L 134.945192 272.908765 
" style="fill:none;stroke:#d62728;stroke-width:1.5;"/>
   </g>
   <g id="LineCollection_2">
    <path clip-path="url(#p18cfb82a23)" d="M 258.638574 279.010828 
L 258.638574 276.2954 
" style="fill:none;stroke:#d62728;stroke-width:1.5;"/>
    <path clip-path="url(#p18cfb82a23)" d="M 262.534428 268.169912 
L 262.534428 255.257184 
" style="fill:none;stroke:#d62728;stroke-width:1.5;"/>
    <path clip-path="url(#p18cfb82a23)" d="M 266.430283 264.651041 
L 266.430283 249.506 
" style="fill:none;stroke:#d62728;stroke-width:1.5;"/>
    <path clip-path="url(#p18cfb82a23)" d="M 270.326137 260.520984 
L 270.326137 242.995804 
" style="fill:none;stroke:#d62728;stroke-width:1.5;"/>
    <path clip-path="url(#p18cfb82a23)" d="M 274.221992 181.684302 
L 274.221992 155.464395 
" style="fill:none;stroke:#d62728;stroke-width:1.5;"/>
    <path clip-path="url(#p18cfb82a23)" d="M 278.117847 145.674769 
L 278.117847 118.80066 
" style="fill:none;stroke:#d62728;stroke-width:1.5;"/>
    <path clip-path="url(#p18cfb82a23)" d="M 282.013701 156.402986 
L 282.013701 130.437871 
" style="fill:none;stroke:#d62728;stroke-width:1.5;"/>
    <path clip-path="url(#p18cfb82a23)" d="M 285.909556 229.647085 
L 285.909556 206.642486 
" style="fill:none;stroke:#d62728;stroke-width:1.5;"/>
    <path clip-path="url(#p18cfb82a23)" d="M 289.80541 276.340768 
L 289.80541 268.507027 
" style="fill:none;stroke:#d62728;stroke-width:1.5;"/>
    <path clip-path="url(#p18cfb82a23)" d="M 293.701265 272.912332 
L 293.701265 262.933324 
" style="fill:none;stroke:#d62728;stroke-width:1.5;"/>
    <path clip-path="url(#p18cfb82a23)" d="M 297.597119 272.348801 
L 297.597119 261.480855 
" style="fill:none;stroke:#d62728;stroke-width:1.5;"/>
   </g>
   <g id="LineCollection_3">
    <path clip-path="url(#p18cfb82a23)" d="M 337.529628 271.670512 
L 337.529628 259.739944 
" style="fill:none;stroke:#d62728;stroke-width:1.5;"/>
    <path clip-path="url(#p18cfb82a23)" d="M 341.717672 277.982325 
L 341.717672 272.055971 
" style="fill:none;stroke:#d62728;stroke-width:1.5;"/>
    <path clip-path="url(#p18cfb82a23)" d="M 345.905716 276.340768 
L 345.905716 268.507027 
" style="fill:none;stroke:#d62728;stroke-width:1.5;"/>
    <path clip-path="url(#p18cfb82a23)" d="M 350.093759 265.899511 
L 350.093759 250.441953 
" style="fill:none;stroke:#d62728;stroke-width:1.5;"/>
    <path clip-path="url(#p18cfb82a23)" d="M 354.281803 272.279691 
L 354.281803 261.303108 
" style="fill:none;stroke:#d62728;stroke-width:1.5;"/>
    <path clip-path="url(#p18cfb82a23)" d="M 358.469847 263.246532 
L 358.469847 248.136938 
" style="fill:none;stroke:#d62728;stroke-width:1.5;"/>
    <path clip-path="url(#p18cfb82a23)" d="M 362.65789 251.174106 
L 362.65789 233.34995 
" style="fill:none;stroke:#d62728;stroke-width:1.5;"/>
    <path clip-path="url(#p18cfb82a23)" d="M 366.845934 252.596375 
L 366.845934 233.889797 
" style="fill:none;stroke:#d62728;stroke-width:1.5;"/>
    <path clip-path="url(#p18cfb82a23)" d="M 371.033977 268.695271 
L 371.033977 256.379186 
" style="fill:none;stroke:#d62728;stroke-width:1.5;"/>
    <path clip-path="url(#p18cfb82a23)" d="M 375.222021 274.331753 
L 375.222021 264.681903 
" style="fill:none;stroke:#d62728;stroke-width:1.5;"/>
    <path clip-path="url(#p18cfb82a23)" d="M 379.410065 279.010828 
L 379.410065 276.634828 
" style="fill:none;stroke:#d62728;stroke-width:1.5;"/>
   </g>
   <g id="LineCollection_4">
    <path clip-path="url(#p18cfb82a23)" d="M 69.202647 274.60559 
L 69.202647 265.504682 
" style="fill:none;stroke:#d62728;stroke-width:1.5;"/>
    <path clip-path="url(#p18cfb82a23)" d="M 73.098501 270.744165 
L 73.098501 259.399091 
" style="fill:none;stroke:#d62728;stroke-width:1.5;"/>
    <path clip-path="url(#p18cfb82a23)" d="M 76.994356 238.871019 
L 76.994356 218.389783 
" style="fill:none;stroke:#d62728;stroke-width:1.5;"/>
    <path clip-path="url(#p18cfb82a23)" d="M 80.89021 198.938406 
L 80.89021 173.848427 
" style="fill:none;stroke:#d62728;stroke-width:1.5;"/>
    <path clip-path="url(#p18cfb82a23)" d="M 84.786065 126.097257 
L 84.786065 101.14967 
" style="fill:none;stroke:#d62728;stroke-width:1.5;"/>
    <path clip-path="url(#p18cfb82a23)" d="M 88.681919 151.238626 
L 88.681919 124.54303 
" style="fill:none;stroke:#d62728;stroke-width:1.5;"/>
    <path clip-path="url(#p18cfb82a23)" d="M 92.577774 197.268975 
L 92.577774 171.813161 
" style="fill:none;stroke:#d62728;stroke-width:1.5;"/>
    <path clip-path="url(#p18cfb82a23)" d="M 96.473628 249.05591 
L 96.473628 229.132147 
" style="fill:none;stroke:#d62728;stroke-width:1.5;"/>
    <path clip-path="url(#p18cfb82a23)" d="M 100.369483 274.517943 
L 100.369483 265.241125 
" style="fill:none;stroke:#d62728;stroke-width:1.5;"/>
    <path clip-path="url(#p18cfb82a23)" d="M 104.265337 277.950127 
L 104.265337 271.841261 
" style="fill:none;stroke:#d62728;stroke-width:1.5;"/>
    <path clip-path="url(#p18cfb82a23)" d="M 108.161192 274.426738 
L 108.161192 264.967078 
" style="fill:none;stroke:#d62728;stroke-width:1.5;"/>
   </g>
   <g id="LineCollection_5">
    <path clip-path="url(#p18cfb82a23)" d="M 292.240319 276.367293 
L 292.240319 268.609658 
" style="fill:none;stroke:#d62728;stroke-width:1.5;"/>
    <path clip-path="url(#p18cfb82a23)" d="M 297.110137 277.950127 
L 297.110137 271.841261 
" style="fill:none;stroke:#d62728;stroke-width:1.5;"/>
    <path clip-path="url(#p18cfb82a23)" d="M 301.979956 271.752623 
L 301.979956 259.950264 
" style="fill:none;stroke:#d62728;stroke-width:1.5;"/>
    <path clip-path="url(#p18cfb82a23)" d="M 306.849774 256.605533 
L 306.849774 239.592123 
" style="fill:none;stroke:#d62728;stroke-width:1.5;"/>
    <path clip-path="url(#p18cfb82a23)" d="M 311.719592 215.823042 
L 311.719592 192.016595 
" style="fill:none;stroke:#d62728;stroke-width:1.5;"/>
    <path clip-path="url(#p18cfb82a23)" d="M 316.58941 183.918313 
L 316.58941 157.372952 
" style="fill:none;stroke:#d62728;stroke-width:1.5;"/>
    <path clip-path="url(#p18cfb82a23)" d="M 321.459228 224.968932 
L 321.459228 202.555493 
" style="fill:none;stroke:#d62728;stroke-width:1.5;"/>
    <path clip-path="url(#p18cfb82a23)" d="M 326.329047 262.471211 
L 326.329047 247.851125 
" style="fill:none;stroke:#d62728;stroke-width:1.5;"/>
    <path clip-path="url(#p18cfb82a23)" d="M 331.198865 275.670432 
L 331.198865 265.924558 
" style="fill:none;stroke:#d62728;stroke-width:1.5;"/>
    <path clip-path="url(#p18cfb82a23)" d="M 336.068683 277.961081 
L 336.068683 271.914289 
" style="fill:none;stroke:#d62728;stroke-width:1.5;"/>
    <path clip-path="url(#p18cfb82a23)" d="M 340.938501 279.010828 
L 340.938501 276.655855 
" style="fill:none;stroke:#d62728;stroke-width:1.5;"/>
   </g>
   <g id="LineCollection_6">
    <path clip-path="url(#p18cfb82a23)" d="M 401.324247 279.010828 
L 401.324247 276.401887 
" style="fill:none;stroke:#d62728;stroke-width:1.5;"/>
    <path clip-path="url(#p18cfb82a23)" d="M 407.168028 279.010828 
L 407.168028 276.322828 
" style="fill:none;stroke:#d62728;stroke-width:1.5;"/>
    <path clip-path="url(#p18cfb82a23)" d="M 413.01181 274.379733 
L 413.01181 264.825924 
" style="fill:none;stroke:#d62728;stroke-width:1.5;"/>
    <path clip-path="url(#p18cfb82a23)" d="M 418.855592 274.021614 
L 418.855592 263.75239 
" style="fill:none;stroke:#d62728;stroke-width:1.5;"/>
    <path clip-path="url(#p18cfb82a23)" d="M 424.699374 272.547872 
L 424.699374 261.993314 
" style="fill:none;stroke:#d62728;stroke-width:1.5;"/>
    <path clip-path="url(#p18cfb82a23)" d="M 430.543156 266.479878 
L 430.543156 253.16024 
" style="fill:none;stroke:#d62728;stroke-width:1.5;"/>
    <path clip-path="url(#p18cfb82a23)" d="M 436.386937 270.901202 
L 436.386937 259.763146 
" style="fill:none;stroke:#d62728;stroke-width:1.5;"/>
    <path clip-path="url(#p18cfb82a23)" d="M 442.230719 276.075716 
L 442.230719 267.483331 
" style="fill:none;stroke:#d62728;stroke-width:1.5;"/>
    <path clip-path="url(#p18cfb82a23)" d="M 448.074501 277.971812 
L 448.074501 271.985844 
" style="fill:none;stroke:#d62728;stroke-width:1.5;"/>
    <path clip-path="url(#p18cfb82a23)" d="M 453.918283 276.169726 
L 453.918283 267.846035 
" style="fill:none;stroke:#d62728;stroke-width:1.5;"/>
    <path clip-path="url(#p18cfb82a23)" d="M 459.762065 277.903923 
L 459.762065 271.533475 
" style="fill:none;stroke:#d62728;stroke-width:1.5;"/>
   </g>
   <g id="LineCollection_7">
    <path clip-path="url(#p18cfb82a23)" d="M 95.012683 274.064384 
L 95.012683 268.015079 
" style="fill:none;stroke:#1f77b4;stroke-width:1.5;"/>
    <path clip-path="url(#p18cfb82a23)" d="M 98.908537 278.576127 
L 98.908537 276.048355 
" style="fill:none;stroke:#1f77b4;stroke-width:1.5;"/>
    <path clip-path="url(#p18cfb82a23)" d="M 102.804392 268.629236 
L 102.804392 260.83963 
" style="fill:none;stroke:#1f77b4;stroke-width:1.5;"/>
    <path clip-path="url(#p18cfb82a23)" d="M 106.700247 231.359045 
L 106.700247 217.222611 
" style="fill:none;stroke:#1f77b4;stroke-width:1.5;"/>
    <path clip-path="url(#p18cfb82a23)" d="M 110.596101 182.403127 
L 110.596101 164.896358 
" style="fill:none;stroke:#1f77b4;stroke-width:1.5;"/>
    <path clip-path="url(#p18cfb82a23)" d="M 114.491956 121.428668 
L 114.491956 104.248668 
" style="fill:none;stroke:#1f77b4;stroke-width:1.5;"/>
    <path clip-path="url(#p18cfb82a23)" d="M 118.38781 170.496351 
L 118.38781 152.720599 
" style="fill:none;stroke:#1f77b4;stroke-width:1.5;"/>
    <path clip-path="url(#p18cfb82a23)" d="M 122.283665 254.199155 
L 122.283665 242.604247 
" style="fill:none;stroke:#1f77b4;stroke-width:1.5;"/>
    <path clip-path="url(#p18cfb82a23)" d="M 126.179519 275.220807 
L 126.179519 269.905554 
" style="fill:none;stroke:#1f77b4;stroke-width:1.5;"/>
    <path clip-path="url(#p18cfb82a23)" d="M 130.075374 276.289003 
L 130.075374 271.753453 
" style="fill:none;stroke:#1f77b4;stroke-width:1.5;"/>
    <path clip-path="url(#p18cfb82a23)" d="M 133.971228 278.570477 
L 133.971228 276.010075 
" style="fill:none;stroke:#1f77b4;stroke-width:1.5;"/>
   </g>
   <g id="LineCollection_8">
    <path clip-path="url(#p18cfb82a23)" d="M 257.66461 277.852137 
L 257.66461 274.409519 
" style="fill:none;stroke:#1f77b4;stroke-width:1.5;"/>
    <path clip-path="url(#p18cfb82a23)" d="M 261.560465 277.86214 
L 261.560465 274.448958 
" style="fill:none;stroke:#1f77b4;stroke-width:1.5;"/>
    <path clip-path="url(#p18cfb82a23)" d="M 265.456319 278.564679 
L 265.456319 275.970794 
" style="fill:none;stroke:#1f77b4;stroke-width:1.5;"/>
    <path clip-path="url(#p18cfb82a23)" d="M 269.352174 278.588762 
L 269.352174 276.133985 
" style="fill:none;stroke:#1f77b4;stroke-width:1.5;"/>
    <path clip-path="url(#p18cfb82a23)" d="M 273.248028 273.970697 
L 273.248028 267.809382 
" style="fill:none;stroke:#1f77b4;stroke-width:1.5;"/>
    <path clip-path="url(#p18cfb82a23)" d="M 277.143883 272.134005 
L 277.143883 265.823651 
" style="fill:none;stroke:#1f77b4;stroke-width:1.5;"/>
    <path clip-path="url(#p18cfb82a23)" d="M 281.039737 269.280101 
L 281.039737 261.538995 
" style="fill:none;stroke:#1f77b4;stroke-width:1.5;"/>
    <path clip-path="url(#p18cfb82a23)" d="M 284.935592 269.302596 
L 284.935592 262.000988 
" style="fill:none;stroke:#1f77b4;stroke-width:1.5;"/>
    <path clip-path="url(#p18cfb82a23)" d="M 288.831447 279.010828 
L 288.831447 277.833341 
" style="fill:none;stroke:#1f77b4;stroke-width:1.5;"/>
    <path clip-path="url(#p18cfb82a23)" d="M 292.727301 277.936349 
L 292.727301 274.741693 
" style="fill:none;stroke:#1f77b4;stroke-width:1.5;"/>
    <path clip-path="url(#p18cfb82a23)" d="M 296.623156 279.010828 
L 296.623156 277.773098 
" style="fill:none;stroke:#1f77b4;stroke-width:1.5;"/>
   </g>
   <g id="LineCollection_9">
    <path clip-path="url(#p18cfb82a23)" d="M 336.555665 279.010828 
L 336.555665 277.838529 
" style="fill:none;stroke:#1f77b4;stroke-width:1.5;"/>
    <path clip-path="url(#p18cfb82a23)" d="M 340.743708 276.95345 
L 340.743708 272.63932 
" style="fill:none;stroke:#1f77b4;stroke-width:1.5;"/>
    <path clip-path="url(#p18cfb82a23)" d="M 344.931752 275.099272 
L 344.931752 269.616784 
" style="fill:none;stroke:#1f77b4;stroke-width:1.5;"/>
    <path clip-path="url(#p18cfb82a23)" d="M 349.119796 276.990266 
L 349.119796 272.75235 
" style="fill:none;stroke:#1f77b4;stroke-width:1.5;"/>
    <path clip-path="url(#p18cfb82a23)" d="M 353.307839 276.132024 
L 353.307839 271.338936 
" style="fill:none;stroke:#1f77b4;stroke-width:1.5;"/>
    <path clip-path="url(#p18cfb82a23)" d="M 357.495883 270.845111 
L 357.495883 263.891745 
" style="fill:none;stroke:#1f77b4;stroke-width:1.5;"/>
    <path clip-path="url(#p18cfb82a23)" d="M 361.683927 276.144739 
L 361.683927 271.372496 
" style="fill:none;stroke:#1f77b4;stroke-width:1.5;"/>
    <path clip-path="url(#p18cfb82a23)" d="M 365.87197 276.206668 
L 365.87197 271.535984 
" style="fill:none;stroke:#1f77b4;stroke-width:1.5;"/>
    <path clip-path="url(#p18cfb82a23)" d="M 370.060014 277.117332 
L 370.060014 273.142725 
" style="fill:none;stroke:#1f77b4;stroke-width:1.5;"/>
    <path clip-path="url(#p18cfb82a23)" d="M 374.248057 276.206668 
L 374.248057 271.535984 
" style="fill:none;stroke:#1f77b4;stroke-width:1.5;"/>
    <path clip-path="url(#p18cfb82a23)" d="M 378.436101 279.010828 
L 378.436101 277.84367 
" style="fill:none;stroke:#1f77b4;stroke-width:1.5;"/>
   </g>
   <g id="LineCollection_10">
    <path clip-path="url(#p18cfb82a23)" d="M 68.228683 279.010828 
L 68.228683 277.833341 
" style="fill:none;stroke:#1f77b4;stroke-width:1.5;"/>
    <path clip-path="url(#p18cfb82a23)" d="M 72.124538 275.350774 
L 72.124538 270.214576 
" style="fill:none;stroke:#1f77b4;stroke-width:1.5;"/>
    <path clip-path="url(#p18cfb82a23)" d="M 76.020392 270.095396 
L 76.020392 262.524661 
" style="fill:none;stroke:#1f77b4;stroke-width:1.5;"/>
    <path clip-path="url(#p18cfb82a23)" d="M 79.916247 224.378559 
L 79.916247 209.684943 
" style="fill:none;stroke:#1f77b4;stroke-width:1.5;"/>
    <path clip-path="url(#p18cfb82a23)" d="M 83.812101 185.270261 
L 83.812101 168.313421 
" style="fill:none;stroke:#1f77b4;stroke-width:1.5;"/>
    <path clip-path="url(#p18cfb82a23)" d="M 87.707956 173.793384 
L 87.707956 156.617583 
" style="fill:none;stroke:#1f77b4;stroke-width:1.5;"/>
    <path clip-path="url(#p18cfb82a23)" d="M 91.60381 222.196446 
L 91.60381 207.318134 
" style="fill:none;stroke:#1f77b4;stroke-width:1.5;"/>
    <path clip-path="url(#p18cfb82a23)" d="M 95.499665 259.495823 
L 95.499665 249.156639 
" style="fill:none;stroke:#1f77b4;stroke-width:1.5;"/>
    <path clip-path="url(#p18cfb82a23)" d="M 99.395519 274.50418 
L 99.395519 268.981946 
" style="fill:none;stroke:#1f77b4;stroke-width:1.5;"/>
    <path clip-path="url(#p18cfb82a23)" d="M 103.291374 278.548443 
L 103.291374 275.860833 
" style="fill:none;stroke:#1f77b4;stroke-width:1.5;"/>
    <path clip-path="url(#p18cfb82a23)" d="M 107.187228 277.871972 
L 107.187228 274.487727 
" style="fill:none;stroke:#1f77b4;stroke-width:1.5;"/>
   </g>
   <g id="LineCollection_11">
    <path clip-path="url(#p18cfb82a23)" d="M 291.266356 276.144739 
L 291.266356 271.372496 
" style="fill:none;stroke:#1f77b4;stroke-width:1.5;"/>
    <path clip-path="url(#p18cfb82a23)" d="M 296.136174 277.965883 
L 296.136174 274.858273 
" style="fill:none;stroke:#1f77b4;stroke-width:1.5;"/>
    <path clip-path="url(#p18cfb82a23)" d="M 301.005992 277.697771 
L 301.005992 273.801533 
" style="fill:none;stroke:#1f77b4;stroke-width:1.5;"/>
    <path clip-path="url(#p18cfb82a23)" d="M 305.87581 273.637847 
L 305.87581 267.751809 
" style="fill:none;stroke:#1f77b4;stroke-width:1.5;"/>
    <path clip-path="url(#p18cfb82a23)" d="M 310.745628 276.144739 
L 310.745628 271.372496 
" style="fill:none;stroke:#1f77b4;stroke-width:1.5;"/>
    <path clip-path="url(#p18cfb82a23)" d="M 315.615447 275.897192 
L 315.615447 270.719664 
" style="fill:none;stroke:#1f77b4;stroke-width:1.5;"/>
    <path clip-path="url(#p18cfb82a23)" d="M 320.485265 276.944035 
L 320.485265 272.610422 
" style="fill:none;stroke:#1f77b4;stroke-width:1.5;"/>
    <path clip-path="url(#p18cfb82a23)" d="M 325.355083 274.241685 
L 325.355083 268.404612 
" style="fill:none;stroke:#1f77b4;stroke-width:1.5;"/>
    <path clip-path="url(#p18cfb82a23)" d="M 330.224901 277.025789 
L 330.224901 272.86144 
" style="fill:none;stroke:#1f77b4;stroke-width:1.5;"/>
    <path clip-path="url(#p18cfb82a23)" d="M 335.094719 279.010828 
L 335.094719 277.812125 
" style="fill:none;stroke:#1f77b4;stroke-width:1.5;"/>
    <path clip-path="url(#p18cfb82a23)" d="M 339.964538 278.57426 
L 339.964538 276.035704 
" style="fill:none;stroke:#1f77b4;stroke-width:1.5;"/>
   </g>
   <g id="LineCollection_12">
    <path clip-path="url(#p18cfb82a23)" d="M 400.350283 279.010828 
L 400.350283 277.737565 
" style="fill:none;stroke:#1f77b4;stroke-width:1.5;"/>
    <path clip-path="url(#p18cfb82a23)" d="M 406.194065 279.010828 
L 406.194065 277.812125 
" style="fill:none;stroke:#1f77b4;stroke-width:1.5;"/>
    <path clip-path="url(#p18cfb82a23)" d="M 412.037847 278.558726 
L 412.037847 275.93047 
" style="fill:none;stroke:#1f77b4;stroke-width:1.5;"/>
    <path clip-path="url(#p18cfb82a23)" d="M 417.881628 276.962779 
L 417.881628 272.667958 
" style="fill:none;stroke:#1f77b4;stroke-width:1.5;"/>
    <path clip-path="url(#p18cfb82a23)" d="M 423.72541 278.564679 
L 423.72541 275.970794 
" style="fill:none;stroke:#1f77b4;stroke-width:1.5;"/>
    <path clip-path="url(#p18cfb82a23)" d="M 429.569192 278.521745 
L 429.569192 275.680122 
" style="fill:none;stroke:#1f77b4;stroke-width:1.5;"/>
    <path clip-path="url(#p18cfb82a23)" d="M 435.412974 278.585228 
L 435.412974 276.110029 
" style="fill:none;stroke:#1f77b4;stroke-width:1.5;"/>
    <path clip-path="url(#p18cfb82a23)" d="M 441.256756 278.570477 
L 441.256756 276.010075 
" style="fill:none;stroke:#1f77b4;stroke-width:1.5;"/>
    <path clip-path="url(#p18cfb82a23)" d="M 447.100538 279.010828 
L 447.100538 277.790131 
" style="fill:none;stroke:#1f77b4;stroke-width:1.5;"/>
    <path clip-path="url(#p18cfb82a23)" d="M 452.944319 278.552612 
L 452.944319 275.889063 
" style="fill:none;stroke:#1f77b4;stroke-width:1.5;"/>
    <path clip-path="url(#p18cfb82a23)" d="M 458.788101 277.836801 
L 458.788101 274.349066 
" style="fill:none;stroke:#1f77b4;stroke-width:1.5;"/>
   </g>
   <g id="line2d_31">
    <path clip-path="url(#p18cfb82a23)" d="M 95.986647 260.209437 
L 99.882501 260.182149 
L 103.778356 248.821652 
L 107.67421 184.362746 
L 111.570065 100.172118 
L 115.465919 71.03009 
L 119.361774 135.620382 
L 123.257628 214.993319 
L 127.153483 256.330828 
L 131.049337 262.217352 
L 134.945192 275.509354 
" style="fill:none;stroke:#d62728;stroke-linecap:square;stroke-width:1.5;"/>
    <defs>
     <path d="M 0 -3 
L -3 3 
L 3 3 
z
" id="m2180dccb89" style="stroke:#d62728;stroke-linejoin:miter;"/>
    </defs>
    <g clip-path="url(#p18cfb82a23)">
     <use style="fill:#d62728;stroke:#d62728;stroke-linejoin:miter;" x="95.986647" xlink:href="#m2180dccb89" y="260.209437"/>
     <use style="fill:#d62728;stroke:#d62728;stroke-linejoin:miter;" x="99.882501" xlink:href="#m2180dccb89" y="260.182149"/>
     <use style="fill:#d62728;stroke:#d62728;stroke-linejoin:miter;" x="103.778356" xlink:href="#m2180dccb89" y="248.821652"/>
     <use style="fill:#d62728;stroke:#d62728;stroke-linejoin:miter;" x="107.67421" xlink:href="#m2180dccb89" y="184.362746"/>
     <use style="fill:#d62728;stroke:#d62728;stroke-linejoin:miter;" x="111.570065" xlink:href="#m2180dccb89" y="100.172118"/>
     <use style="fill:#d62728;stroke:#d62728;stroke-linejoin:miter;" x="115.465919" xlink:href="#m2180dccb89" y="71.03009"/>
     <use style="fill:#d62728;stroke:#d62728;stroke-linejoin:miter;" x="119.361774" xlink:href="#m2180dccb89" y="135.620382"/>
     <use style="fill:#d62728;stroke:#d62728;stroke-linejoin:miter;" x="123.257628" xlink:href="#m2180dccb89" y="214.993319"/>
     <use style="fill:#d62728;stroke:#d62728;stroke-linejoin:miter;" x="127.153483" xlink:href="#m2180dccb89" y="256.330828"/>
     <use style="fill:#d62728;stroke:#d62728;stroke-linejoin:miter;" x="131.049337" xlink:href="#m2180dccb89" y="262.217352"/>
     <use style="fill:#d62728;stroke:#d62728;stroke-linejoin:miter;" x="134.945192" xlink:href="#m2180dccb89" y="275.509354"/>
    </g>
   </g>
   <g id="line2d_32">
    <path clip-path="url(#p18cfb82a23)" d="M 258.638574 277.653114 
L 262.534428 261.713548 
L 266.430283 257.07852 
L 270.326137 251.758394 
L 274.221992 168.574348 
L 278.117847 132.237715 
L 282.013701 143.420428 
L 285.909556 218.144786 
L 289.80541 272.423897 
L 293.701265 267.922828 
L 297.597119 266.914828 
" style="fill:none;stroke:#d62728;stroke-linecap:square;stroke-width:1.5;"/>
    <g clip-path="url(#p18cfb82a23)">
     <use style="fill:#d62728;stroke:#d62728;stroke-linejoin:miter;" x="258.638574" xlink:href="#m2180dccb89" y="277.653114"/>
     <use style="fill:#d62728;stroke:#d62728;stroke-linejoin:miter;" x="262.534428" xlink:href="#m2180dccb89" y="261.713548"/>
     <use style="fill:#d62728;stroke:#d62728;stroke-linejoin:miter;" x="266.430283" xlink:href="#m2180dccb89" y="257.07852"/>
     <use style="fill:#d62728;stroke:#d62728;stroke-linejoin:miter;" x="270.326137" xlink:href="#m2180dccb89" y="251.758394"/>
     <use style="fill:#d62728;stroke:#d62728;stroke-linejoin:miter;" x="274.221992" xlink:href="#m2180dccb89" y="168.574348"/>
     <use style="fill:#d62728;stroke:#d62728;stroke-linejoin:miter;" x="278.117847" xlink:href="#m2180dccb89" y="132.237715"/>
     <use style="fill:#d62728;stroke:#d62728;stroke-linejoin:miter;" x="282.013701" xlink:href="#m2180dccb89" y="143.420428"/>
     <use style="fill:#d62728;stroke:#d62728;stroke-linejoin:miter;" x="285.909556" xlink:href="#m2180dccb89" y="218.144786"/>
     <use style="fill:#d62728;stroke:#d62728;stroke-linejoin:miter;" x="289.80541" xlink:href="#m2180dccb89" y="272.423897"/>
     <use style="fill:#d62728;stroke:#d62728;stroke-linejoin:miter;" x="293.701265" xlink:href="#m2180dccb89" y="267.922828"/>
     <use style="fill:#d62728;stroke:#d62728;stroke-linejoin:miter;" x="297.597119" xlink:href="#m2180dccb89" y="266.914828"/>
    </g>
   </g>
   <g id="line2d_33">
    <path clip-path="url(#p18cfb82a23)" d="M 337.529628 265.705228 
L 341.717672 275.019148 
L 345.905716 272.423897 
L 350.093759 258.170732 
L 354.281803 266.7914 
L 358.469847 255.691735 
L 362.65789 242.262028 
L 366.845934 243.243086 
L 371.033977 262.537228 
L 375.222021 269.506828 
L 379.410065 277.822828 
" style="fill:none;stroke:#d62728;stroke-linecap:square;stroke-width:1.5;"/>
    <g clip-path="url(#p18cfb82a23)">
     <use style="fill:#d62728;stroke:#d62728;stroke-linejoin:miter;" x="337.529628" xlink:href="#m2180dccb89" y="265.705228"/>
     <use style="fill:#d62728;stroke:#d62728;stroke-linejoin:miter;" x="341.717672" xlink:href="#m2180dccb89" y="275.019148"/>
     <use style="fill:#d62728;stroke:#d62728;stroke-linejoin:miter;" x="345.905716" xlink:href="#m2180dccb89" y="272.423897"/>
     <use style="fill:#d62728;stroke:#d62728;stroke-linejoin:miter;" x="350.093759" xlink:href="#m2180dccb89" y="258.170732"/>
     <use style="fill:#d62728;stroke:#d62728;stroke-linejoin:miter;" x="354.281803" xlink:href="#m2180dccb89" y="266.7914"/>
     <use style="fill:#d62728;stroke:#d62728;stroke-linejoin:miter;" x="358.469847" xlink:href="#m2180dccb89" y="255.691735"/>
     <use style="fill:#d62728;stroke:#d62728;stroke-linejoin:miter;" x="362.65789" xlink:href="#m2180dccb89" y="242.262028"/>
     <use style="fill:#d62728;stroke:#d62728;stroke-linejoin:miter;" x="366.845934" xlink:href="#m2180dccb89" y="243.243086"/>
     <use style="fill:#d62728;stroke:#d62728;stroke-linejoin:miter;" x="371.033977" xlink:href="#m2180dccb89" y="262.537228"/>
     <use style="fill:#d62728;stroke:#d62728;stroke-linejoin:miter;" x="375.222021" xlink:href="#m2180dccb89" y="269.506828"/>
     <use style="fill:#d62728;stroke:#d62728;stroke-linejoin:miter;" x="379.410065" xlink:href="#m2180dccb89" y="277.822828"/>
    </g>
   </g>
   <g id="line2d_34">
    <path clip-path="url(#p18cfb82a23)" d="M 69.202647 270.055136 
L 73.098501 265.071628 
L 76.994356 228.630401 
L 80.89021 186.393416 
L 84.786065 113.623464 
L 88.681919 137.890828 
L 92.577774 184.541068 
L 96.473628 239.094028 
L 100.369483 269.879534 
L 104.265337 274.895694 
L 108.161192 269.696908 
" style="fill:none;stroke:#d62728;stroke-dasharray:5.55,2.4;stroke-dashoffset:0;stroke-width:1.5;"/>
    <defs>
     <path d="M 0 3 
C 0.795609 3 1.55874 2.683901 2.12132 2.12132 
C 2.683901 1.55874 3 0.795609 3 0 
C 3 -0.795609 2.683901 -1.55874 2.12132 -2.12132 
C 1.55874 -2.683901 0.795609 -3 0 -3 
C -0.795609 -3 -1.55874 -2.683901 -2.12132 -2.12132 
C -2.683901 -1.55874 -3 -0.795609 -3 0 
C -3 0.795609 -2.683901 1.55874 -2.12132 2.12132 
C -1.55874 2.683901 -0.795609 3 0 3 
z
" id="m15666da395" style="stroke:#d62728;"/>
    </defs>
    <g clip-path="url(#p18cfb82a23)">
     <use style="fill:#d62728;stroke:#d62728;" x="69.202647" xlink:href="#m15666da395" y="270.055136"/>
     <use style="fill:#d62728;stroke:#d62728;" x="73.098501" xlink:href="#m15666da395" y="265.071628"/>
     <use style="fill:#d62728;stroke:#d62728;" x="76.994356" xlink:href="#m15666da395" y="228.630401"/>
     <use style="fill:#d62728;stroke:#d62728;" x="80.89021" xlink:href="#m15666da395" y="186.393416"/>
     <use style="fill:#d62728;stroke:#d62728;" x="84.786065" xlink:href="#m15666da395" y="113.623464"/>
     <use style="fill:#d62728;stroke:#d62728;" x="88.681919" xlink:href="#m15666da395" y="137.890828"/>
     <use style="fill:#d62728;stroke:#d62728;" x="92.577774" xlink:href="#m15666da395" y="184.541068"/>
     <use style="fill:#d62728;stroke:#d62728;" x="96.473628" xlink:href="#m15666da395" y="239.094028"/>
     <use style="fill:#d62728;stroke:#d62728;" x="100.369483" xlink:href="#m15666da395" y="269.879534"/>
     <use style="fill:#d62728;stroke:#d62728;" x="104.265337" xlink:href="#m15666da395" y="274.895694"/>
     <use style="fill:#d62728;stroke:#d62728;" x="108.161192" xlink:href="#m15666da395" y="269.696908"/>
    </g>
   </g>
   <g id="line2d_35">
    <path clip-path="url(#p18cfb82a23)" d="M 292.240319 272.488475 
L 297.110137 274.895694 
L 301.979956 265.851444 
L 306.849774 248.098828 
L 311.719592 203.919818 
L 316.58941 170.645632 
L 321.459228 213.762213 
L 326.329047 255.161168 
L 331.198865 270.797495 
L 336.068683 274.937685 
L 340.938501 277.833341 
" style="fill:none;stroke:#d62728;stroke-dasharray:5.55,2.4;stroke-dashoffset:0;stroke-width:1.5;"/>
    <g clip-path="url(#p18cfb82a23)">
     <use style="fill:#d62728;stroke:#d62728;" x="292.240319" xlink:href="#m15666da395" y="272.488475"/>
     <use style="fill:#d62728;stroke:#d62728;" x="297.110137" xlink:href="#m15666da395" y="274.895694"/>
     <use style="fill:#d62728;stroke:#d62728;" x="301.979956" xlink:href="#m15666da395" y="265.851444"/>
     <use style="fill:#d62728;stroke:#d62728;" x="306.849774" xlink:href="#m15666da395" y="248.098828"/>
     <use style="fill:#d62728;stroke:#d62728;" x="311.719592" xlink:href="#m15666da395" y="203.919818"/>
     <use style="fill:#d62728;stroke:#d62728;" x="316.58941" xlink:href="#m15666da395" y="170.645632"/>
     <use style="fill:#d62728;stroke:#d62728;" x="321.459228" xlink:href="#m15666da395" y="213.762213"/>
     <use style="fill:#d62728;stroke:#d62728;" x="326.329047" xlink:href="#m15666da395" y="255.161168"/>
     <use style="fill:#d62728;stroke:#d62728;" x="331.198865" xlink:href="#m15666da395" y="270.797495"/>
     <use style="fill:#d62728;stroke:#d62728;" x="336.068683" xlink:href="#m15666da395" y="274.937685"/>
     <use style="fill:#d62728;stroke:#d62728;" x="340.938501" xlink:href="#m15666da395" y="277.833341"/>
    </g>
   </g>
   <g id="line2d_36">
    <path clip-path="url(#p18cfb82a23)" d="M 401.324247 277.706358 
L 407.168028 277.666828 
L 413.01181 269.602828 
L 418.855592 268.887002 
L 424.699374 267.270593 
L 430.543156 259.820059 
L 436.386937 265.332174 
L 442.230719 271.779524 
L 448.074501 274.978828 
L 453.918283 272.007881 
L 459.762065 274.718699 
" style="fill:none;stroke:#d62728;stroke-dasharray:5.55,2.4;stroke-dashoffset:0;stroke-width:1.5;"/>
    <g clip-path="url(#p18cfb82a23)">
     <use style="fill:#d62728;stroke:#d62728;" x="401.324247" xlink:href="#m15666da395" y="277.706358"/>
     <use style="fill:#d62728;stroke:#d62728;" x="407.168028" xlink:href="#m15666da395" y="277.666828"/>
     <use style="fill:#d62728;stroke:#d62728;" x="413.01181" xlink:href="#m15666da395" y="269.602828"/>
     <use style="fill:#d62728;stroke:#d62728;" x="418.855592" xlink:href="#m15666da395" y="268.887002"/>
     <use style="fill:#d62728;stroke:#d62728;" x="424.699374" xlink:href="#m15666da395" y="267.270593"/>
     <use style="fill:#d62728;stroke:#d62728;" x="430.543156" xlink:href="#m15666da395" y="259.820059"/>
     <use style="fill:#d62728;stroke:#d62728;" x="436.386937" xlink:href="#m15666da395" y="265.332174"/>
     <use style="fill:#d62728;stroke:#d62728;" x="442.230719" xlink:href="#m15666da395" y="271.779524"/>
     <use style="fill:#d62728;stroke:#d62728;" x="448.074501" xlink:href="#m15666da395" y="274.978828"/>
     <use style="fill:#d62728;stroke:#d62728;" x="453.918283" xlink:href="#m15666da395" y="272.007881"/>
     <use style="fill:#d62728;stroke:#d62728;" x="459.762065" xlink:href="#m15666da395" y="274.718699"/>
    </g>
   </g>
   <g id="line2d_37">
    <path clip-path="url(#p18cfb82a23)" d="M 95.012683 271.039731 
L 98.908537 277.312241 
L 102.804392 264.734433 
L 106.700247 224.290828 
L 110.596101 173.649742 
L 114.491956 112.838668 
L 118.38781 161.608475 
L 122.283665 248.401701 
L 126.179519 272.563181 
L 130.075374 274.021228 
L 133.971228 277.290276 
" style="fill:none;stroke:#1f77b4;stroke-linecap:square;stroke-width:1.5;"/>
    <defs>
     <path d="M -0 3 
L 3 -3 
L -3 -3 
z
" id="m429e44e41f" style="stroke:#1f77b4;stroke-linejoin:miter;"/>
    </defs>
    <g clip-path="url(#p18cfb82a23)">
     <use style="fill:#1f77b4;stroke:#1f77b4;stroke-linejoin:miter;" x="95.012683" xlink:href="#m429e44e41f" y="271.039731"/>
     <use style="fill:#1f77b4;stroke:#1f77b4;stroke-linejoin:miter;" x="98.908537" xlink:href="#m429e44e41f" y="277.312241"/>
     <use style="fill:#1f77b4;stroke:#1f77b4;stroke-linejoin:miter;" x="102.804392" xlink:href="#m429e44e41f" y="264.734433"/>
     <use style="fill:#1f77b4;stroke:#1f77b4;stroke-linejoin:miter;" x="106.700247" xlink:href="#m429e44e41f" y="224.290828"/>
     <use style="fill:#1f77b4;stroke:#1f77b4;stroke-linejoin:miter;" x="110.596101" xlink:href="#m429e44e41f" y="173.649742"/>
     <use style="fill:#1f77b4;stroke:#1f77b4;stroke-linejoin:miter;" x="114.491956" xlink:href="#m429e44e41f" y="112.838668"/>
     <use style="fill:#1f77b4;stroke:#1f77b4;stroke-linejoin:miter;" x="118.38781" xlink:href="#m429e44e41f" y="161.608475"/>
     <use style="fill:#1f77b4;stroke:#1f77b4;stroke-linejoin:miter;" x="122.283665" xlink:href="#m429e44e41f" y="248.401701"/>
     <use style="fill:#1f77b4;stroke:#1f77b4;stroke-linejoin:miter;" x="126.179519" xlink:href="#m429e44e41f" y="272.563181"/>
     <use style="fill:#1f77b4;stroke:#1f77b4;stroke-linejoin:miter;" x="130.075374" xlink:href="#m429e44e41f" y="274.021228"/>
     <use style="fill:#1f77b4;stroke:#1f77b4;stroke-linejoin:miter;" x="133.971228" xlink:href="#m429e44e41f" y="277.290276"/>
    </g>
   </g>
   <g id="line2d_38">
    <path clip-path="url(#p18cfb82a23)" d="M 257.66461 276.130828 
L 261.560465 276.155549 
L 265.456319 277.267736 
L 269.352174 277.361374 
L 273.248028 270.890039 
L 277.143883 268.978828 
L 281.039737 265.409548 
L 284.935592 265.651792 
L 288.831447 278.422085 
L 292.727301 276.339021 
L 296.623156 278.391963 
" style="fill:none;stroke:#1f77b4;stroke-linecap:square;stroke-width:1.5;"/>
    <g clip-path="url(#p18cfb82a23)">
     <use style="fill:#1f77b4;stroke:#1f77b4;stroke-linejoin:miter;" x="257.66461" xlink:href="#m429e44e41f" y="276.130828"/>
     <use style="fill:#1f77b4;stroke:#1f77b4;stroke-linejoin:miter;" x="261.560465" xlink:href="#m429e44e41f" y="276.155549"/>
     <use style="fill:#1f77b4;stroke:#1f77b4;stroke-linejoin:miter;" x="265.456319" xlink:href="#m429e44e41f" y="277.267736"/>
     <use style="fill:#1f77b4;stroke:#1f77b4;stroke-linejoin:miter;" x="269.352174" xlink:href="#m429e44e41f" y="277.361374"/>
     <use style="fill:#1f77b4;stroke:#1f77b4;stroke-linejoin:miter;" x="273.248028" xlink:href="#m429e44e41f" y="270.890039"/>
     <use style="fill:#1f77b4;stroke:#1f77b4;stroke-linejoin:miter;" x="277.143883" xlink:href="#m429e44e41f" y="268.978828"/>
     <use style="fill:#1f77b4;stroke:#1f77b4;stroke-linejoin:miter;" x="281.039737" xlink:href="#m429e44e41f" y="265.409548"/>
     <use style="fill:#1f77b4;stroke:#1f77b4;stroke-linejoin:miter;" x="284.935592" xlink:href="#m429e44e41f" y="265.651792"/>
     <use style="fill:#1f77b4;stroke:#1f77b4;stroke-linejoin:miter;" x="288.831447" xlink:href="#m429e44e41f" y="278.422085"/>
     <use style="fill:#1f77b4;stroke:#1f77b4;stroke-linejoin:miter;" x="292.727301" xlink:href="#m429e44e41f" y="276.339021"/>
     <use style="fill:#1f77b4;stroke:#1f77b4;stroke-linejoin:miter;" x="296.623156" xlink:href="#m429e44e41f" y="278.391963"/>
    </g>
   </g>
   <g id="line2d_39">
    <path clip-path="url(#p18cfb82a23)" d="M 336.555665 278.424678 
L 340.743708 274.796385 
L 344.931752 272.358028 
L 349.119796 274.871308 
L 353.307839 273.73548 
L 357.495883 267.368428 
L 361.683927 273.758618 
L 365.87197 273.871326 
L 370.060014 275.130028 
L 374.248057 273.871326 
L 378.436101 278.427249 
" style="fill:none;stroke:#1f77b4;stroke-linecap:square;stroke-width:1.5;"/>
    <g clip-path="url(#p18cfb82a23)">
     <use style="fill:#1f77b4;stroke:#1f77b4;stroke-linejoin:miter;" x="336.555665" xlink:href="#m429e44e41f" y="278.424678"/>
     <use style="fill:#1f77b4;stroke:#1f77b4;stroke-linejoin:miter;" x="340.743708" xlink:href="#m429e44e41f" y="274.796385"/>
     <use style="fill:#1f77b4;stroke:#1f77b4;stroke-linejoin:miter;" x="344.931752" xlink:href="#m429e44e41f" y="272.358028"/>
     <use style="fill:#1f77b4;stroke:#1f77b4;stroke-linejoin:miter;" x="349.119796" xlink:href="#m429e44e41f" y="274.871308"/>
     <use style="fill:#1f77b4;stroke:#1f77b4;stroke-linejoin:miter;" x="353.307839" xlink:href="#m429e44e41f" y="273.73548"/>
     <use style="fill:#1f77b4;stroke:#1f77b4;stroke-linejoin:miter;" x="357.495883" xlink:href="#m429e44e41f" y="267.368428"/>
     <use style="fill:#1f77b4;stroke:#1f77b4;stroke-linejoin:miter;" x="361.683927" xlink:href="#m429e44e41f" y="273.758618"/>
     <use style="fill:#1f77b4;stroke:#1f77b4;stroke-linejoin:miter;" x="365.87197" xlink:href="#m429e44e41f" y="273.871326"/>
     <use style="fill:#1f77b4;stroke:#1f77b4;stroke-linejoin:miter;" x="370.060014" xlink:href="#m429e44e41f" y="275.130028"/>
     <use style="fill:#1f77b4;stroke:#1f77b4;stroke-linejoin:miter;" x="374.248057" xlink:href="#m429e44e41f" y="273.871326"/>
     <use style="fill:#1f77b4;stroke:#1f77b4;stroke-linejoin:miter;" x="378.436101" xlink:href="#m429e44e41f" y="278.427249"/>
    </g>
   </g>
   <g id="line2d_40">
    <path clip-path="url(#p18cfb82a23)" d="M 68.228683 278.422085 
L 72.124538 272.782675 
L 76.020392 266.310028 
L 79.916247 217.031751 
L 83.812101 176.791841 
L 87.707956 165.205483 
L 91.60381 214.75729 
L 95.499665 254.326231 
L 99.395519 271.743063 
L 103.291374 277.204638 
L 107.187228 276.179849 
" style="fill:none;stroke:#1f77b4;stroke-dasharray:5.55,2.4;stroke-dashoffset:0;stroke-width:1.5;"/>
    <defs>
     <path d="M -3 3 
L 3 3 
L 3 -3 
L -3 -3 
z
" id="m72934ae662" style="stroke:#1f77b4;stroke-linejoin:miter;"/>
    </defs>
    <g clip-path="url(#p18cfb82a23)">
     <use style="fill:#1f77b4;stroke:#1f77b4;stroke-linejoin:miter;" x="68.228683" xlink:href="#m72934ae662" y="278.422085"/>
     <use style="fill:#1f77b4;stroke:#1f77b4;stroke-linejoin:miter;" x="72.124538" xlink:href="#m72934ae662" y="272.782675"/>
     <use style="fill:#1f77b4;stroke:#1f77b4;stroke-linejoin:miter;" x="76.020392" xlink:href="#m72934ae662" y="266.310028"/>
     <use style="fill:#1f77b4;stroke:#1f77b4;stroke-linejoin:miter;" x="79.916247" xlink:href="#m72934ae662" y="217.031751"/>
     <use style="fill:#1f77b4;stroke:#1f77b4;stroke-linejoin:miter;" x="83.812101" xlink:href="#m72934ae662" y="176.791841"/>
     <use style="fill:#1f77b4;stroke:#1f77b4;stroke-linejoin:miter;" x="87.707956" xlink:href="#m72934ae662" y="165.205483"/>
     <use style="fill:#1f77b4;stroke:#1f77b4;stroke-linejoin:miter;" x="91.60381" xlink:href="#m72934ae662" y="214.75729"/>
     <use style="fill:#1f77b4;stroke:#1f77b4;stroke-linejoin:miter;" x="95.499665" xlink:href="#m72934ae662" y="254.326231"/>
     <use style="fill:#1f77b4;stroke:#1f77b4;stroke-linejoin:miter;" x="99.395519" xlink:href="#m72934ae662" y="271.743063"/>
     <use style="fill:#1f77b4;stroke:#1f77b4;stroke-linejoin:miter;" x="103.291374" xlink:href="#m72934ae662" y="277.204638"/>
     <use style="fill:#1f77b4;stroke:#1f77b4;stroke-linejoin:miter;" x="107.187228" xlink:href="#m72934ae662" y="276.179849"/>
    </g>
   </g>
   <g id="line2d_41">
    <path clip-path="url(#p18cfb82a23)" d="M 291.266356 273.758618 
L 296.136174 276.412078 
L 301.005992 275.749652 
L 305.87581 270.694828 
L 310.745628 273.758618 
L 315.615447 273.308428 
L 320.485265 274.777228 
L 325.355083 271.323148 
L 330.224901 274.943614 
L 335.094719 278.411477 
L 339.964538 277.304982 
" style="fill:none;stroke:#1f77b4;stroke-dasharray:5.55,2.4;stroke-dashoffset:0;stroke-width:1.5;"/>
    <g clip-path="url(#p18cfb82a23)">
     <use style="fill:#1f77b4;stroke:#1f77b4;stroke-linejoin:miter;" x="291.266356" xlink:href="#m72934ae662" y="273.758618"/>
     <use style="fill:#1f77b4;stroke:#1f77b4;stroke-linejoin:miter;" x="296.136174" xlink:href="#m72934ae662" y="276.412078"/>
     <use style="fill:#1f77b4;stroke:#1f77b4;stroke-linejoin:miter;" x="301.005992" xlink:href="#m72934ae662" y="275.749652"/>
     <use style="fill:#1f77b4;stroke:#1f77b4;stroke-linejoin:miter;" x="305.87581" xlink:href="#m72934ae662" y="270.694828"/>
     <use style="fill:#1f77b4;stroke:#1f77b4;stroke-linejoin:miter;" x="310.745628" xlink:href="#m72934ae662" y="273.758618"/>
     <use style="fill:#1f77b4;stroke:#1f77b4;stroke-linejoin:miter;" x="315.615447" xlink:href="#m72934ae662" y="273.308428"/>
     <use style="fill:#1f77b4;stroke:#1f77b4;stroke-linejoin:miter;" x="320.485265" xlink:href="#m72934ae662" y="274.777228"/>
     <use style="fill:#1f77b4;stroke:#1f77b4;stroke-linejoin:miter;" x="325.355083" xlink:href="#m72934ae662" y="271.323148"/>
     <use style="fill:#1f77b4;stroke:#1f77b4;stroke-linejoin:miter;" x="330.224901" xlink:href="#m72934ae662" y="274.943614"/>
     <use style="fill:#1f77b4;stroke:#1f77b4;stroke-linejoin:miter;" x="335.094719" xlink:href="#m72934ae662" y="278.411477"/>
     <use style="fill:#1f77b4;stroke:#1f77b4;stroke-linejoin:miter;" x="339.964538" xlink:href="#m72934ae662" y="277.304982"/>
    </g>
   </g>
   <g id="line2d_42">
    <path clip-path="url(#p18cfb82a23)" d="M 400.350283 278.374197 
L 406.194065 278.411477 
L 412.037847 277.244598 
L 417.881628 274.815369 
L 423.72541 277.267736 
L 429.569192 277.100933 
L 435.412974 277.347628 
L 441.256756 277.290276 
L 447.100538 278.40048 
L 452.944319 277.220837 
L 458.788101 276.092933 
" style="fill:none;stroke:#1f77b4;stroke-dasharray:5.55,2.4;stroke-dashoffset:0;stroke-width:1.5;"/>
    <g clip-path="url(#p18cfb82a23)">
     <use style="fill:#1f77b4;stroke:#1f77b4;stroke-linejoin:miter;" x="400.350283" xlink:href="#m72934ae662" y="278.374197"/>
     <use style="fill:#1f77b4;stroke:#1f77b4;stroke-linejoin:miter;" x="406.194065" xlink:href="#m72934ae662" y="278.411477"/>
     <use style="fill:#1f77b4;stroke:#1f77b4;stroke-linejoin:miter;" x="412.037847" xlink:href="#m72934ae662" y="277.244598"/>
     <use style="fill:#1f77b4;stroke:#1f77b4;stroke-linejoin:miter;" x="417.881628" xlink:href="#m72934ae662" y="274.815369"/>
     <use style="fill:#1f77b4;stroke:#1f77b4;stroke-linejoin:miter;" x="423.72541" xlink:href="#m72934ae662" y="277.267736"/>
     <use style="fill:#1f77b4;stroke:#1f77b4;stroke-linejoin:miter;" x="429.569192" xlink:href="#m72934ae662" y="277.100933"/>
     <use style="fill:#1f77b4;stroke:#1f77b4;stroke-linejoin:miter;" x="435.412974" xlink:href="#m72934ae662" y="277.347628"/>
     <use style="fill:#1f77b4;stroke:#1f77b4;stroke-linejoin:miter;" x="441.256756" xlink:href="#m72934ae662" y="277.290276"/>
     <use style="fill:#1f77b4;stroke:#1f77b4;stroke-linejoin:miter;" x="447.100538" xlink:href="#m72934ae662" y="278.40048"/>
     <use style="fill:#1f77b4;stroke:#1f77b4;stroke-linejoin:miter;" x="452.944319" xlink:href="#m72934ae662" y="277.220837"/>
     <use style="fill:#1f77b4;stroke:#1f77b4;stroke-linejoin:miter;" x="458.788101" xlink:href="#m72934ae662" y="276.092933"/>
    </g>
   </g>
   <g id="patch_3">
    <path d="M 61.410938 279.010828 
L 61.410938 12.898828 
" style="fill:none;stroke:#000000;stroke-linecap:square;stroke-linejoin:miter;stroke-width:0.8;"/>
   </g>
   <g id="patch_4">
    <path d="M 489.954938 279.010828 
L 489.954938 12.898828 
" style="fill:none;stroke:#000000;stroke-linecap:square;stroke-linejoin:miter;stroke-width:0.8;"/>
   </g>
   <g id="patch_5">
    <path d="M 61.410938 279.010828 
L 489.954938 279.010828 
" style="fill:none;stroke:#000000;stroke-linecap:square;stroke-linejoin:miter;stroke-width:0.8;"/>
   </g>
   <g id="patch_6">
    <path d="M 61.410938 12.898828 
L 489.954938 12.898828 
" style="fill:none;stroke:#000000;stroke-linecap:square;stroke-linejoin:miter;stroke-width:0.8;"/>
   </g>
   <g id="text_18">
    <!-- (A) -->
    <defs>
     <path d="M 34.1875 63.1875 
L 20.796875 26.90625 
L 47.609375 26.90625 
z
M 28.609375 72.90625 
L 39.796875 72.90625 
L 67.578125 0 
L 57.328125 0 
L 50.6875 18.703125 
L 17.828125 18.703125 
L 11.1875 0 
L 0.78125 0 
z
" id="DejaVuSans-41"/>
    </defs>
    <g transform="translate(69.202647 39.510028)scale(0.2 -0.2)">
     <use xlink:href="#DejaVuSans-28"/>
     <use x="39.013672" xlink:href="#DejaVuSans-41"/>
     <use x="107.421875" xlink:href="#DejaVuSans-29"/>
    </g>
   </g>
   <g id="legend_1">
    <g id="patch_7">
     <path d="M 296.195563 146.323828 
L 475.954938 146.323828 
Q 479.954938 146.323828 479.954938 142.323828 
L 479.954938 26.898828 
Q 479.954938 22.898828 475.954938 22.898828 
L 296.195563 22.898828 
Q 292.195563 22.898828 292.195563 26.898828 
L 292.195563 142.323828 
Q 292.195563 146.323828 296.195563 146.323828 
z
" style="fill:#ffffff;opacity:0.8;stroke:#cccccc;stroke-linejoin:miter;"/>
    </g>
    <g id="LineCollection_13">
     <path d="M 320.195563 49.095703 
L 320.195563 29.095703 
" style="fill:none;stroke:#d62728;stroke-width:1.5;"/>
    </g>
    <g id="line2d_43">
     <path d="M 300.195563 39.095703 
L 340.195563 39.095703 
" style="fill:none;stroke:#d62728;stroke-linecap:square;stroke-width:1.5;"/>
    </g>
    <g id="line2d_44">
     <g>
      <use style="fill:#d62728;stroke:#d62728;stroke-linejoin:miter;" x="320.195563" xlink:href="#m2180dccb89" y="39.095703"/>
     </g>
    </g>
    <g id="text_19">
     <!-- Ax 2 before -->
     <defs>
      <path d="M 54.890625 54.6875 
L 35.109375 28.078125 
L 55.90625 0 
L 45.3125 0 
L 29.390625 21.484375 
L 13.484375 0 
L 2.875 0 
L 24.125 28.609375 
L 4.6875 54.6875 
L 15.28125 54.6875 
L 29.78125 35.203125 
L 44.28125 54.6875 
z
" id="DejaVuSans-78"/>
      <path d="M 48.6875 27.296875 
Q 48.6875 37.203125 44.609375 42.84375 
Q 40.53125 48.484375 33.40625 48.484375 
Q 26.265625 48.484375 22.1875 42.84375 
Q 18.109375 37.203125 18.109375 27.296875 
Q 18.109375 17.390625 22.1875 11.75 
Q 26.265625 6.109375 33.40625 6.109375 
Q 40.53125 6.109375 44.609375 11.75 
Q 48.6875 17.390625 48.6875 27.296875 
z
M 18.109375 46.390625 
Q 20.953125 51.265625 25.265625 53.625 
Q 29.59375 56 35.59375 56 
Q 45.5625 56 51.78125 48.09375 
Q 58.015625 40.1875 58.015625 27.296875 
Q 58.015625 14.40625 51.78125 6.484375 
Q 45.5625 -1.421875 35.59375 -1.421875 
Q 29.59375 -1.421875 25.265625 0.953125 
Q 20.953125 3.328125 18.109375 8.203125 
L 18.109375 0 
L 9.078125 0 
L 9.078125 75.984375 
L 18.109375 75.984375 
z
" id="DejaVuSans-62"/>
     </defs>
     <g transform="translate(356.195563 46.095703)scale(0.2 -0.2)">
      <use xlink:href="#DejaVuSans-41"/>
      <use x="68.408203" xlink:href="#DejaVuSans-78"/>
      <use x="127.587891" xlink:href="#DejaVuSans-20"/>
      <use x="159.375" xlink:href="#DejaVuSans-32"/>
      <use x="222.998047" xlink:href="#DejaVuSans-20"/>
      <use x="254.785156" xlink:href="#DejaVuSans-62"/>
      <use x="318.261719" xlink:href="#DejaVuSans-65"/>
      <use x="379.785156" xlink:href="#DejaVuSans-66"/>
      <use x="414.990234" xlink:href="#DejaVuSans-6f"/>
      <use x="476.171875" xlink:href="#DejaVuSans-72"/>
      <use x="517.253906" xlink:href="#DejaVuSans-65"/>
     </g>
    </g>
    <g id="LineCollection_14">
     <path d="M 320.195563 78.451953 
L 320.195563 58.451953 
" style="fill:none;stroke:#d62728;stroke-width:1.5;"/>
    </g>
    <g id="line2d_45">
     <path d="M 300.195563 68.451953 
L 340.195563 68.451953 
" style="fill:none;stroke:#d62728;stroke-dasharray:5.55,2.4;stroke-dashoffset:0;stroke-width:1.5;"/>
    </g>
    <g id="line2d_46">
     <g>
      <use style="fill:#d62728;stroke:#d62728;" x="320.195563" xlink:href="#m15666da395" y="68.451953"/>
     </g>
    </g>
    <g id="text_20">
     <!-- Ax 3 before -->
     <defs>
      <path d="M 40.578125 39.3125 
Q 47.65625 37.796875 51.625 33 
Q 55.609375 28.21875 55.609375 21.1875 
Q 55.609375 10.40625 48.1875 4.484375 
Q 40.765625 -1.421875 27.09375 -1.421875 
Q 22.515625 -1.421875 17.65625 -0.515625 
Q 12.796875 0.390625 7.625 2.203125 
L 7.625 11.71875 
Q 11.71875 9.328125 16.59375 8.109375 
Q 21.484375 6.890625 26.8125 6.890625 
Q 36.078125 6.890625 40.9375 10.546875 
Q 45.796875 14.203125 45.796875 21.1875 
Q 45.796875 27.640625 41.28125 31.265625 
Q 36.765625 34.90625 28.71875 34.90625 
L 20.21875 34.90625 
L 20.21875 43.015625 
L 29.109375 43.015625 
Q 36.375 43.015625 40.234375 45.921875 
Q 44.09375 48.828125 44.09375 54.296875 
Q 44.09375 59.90625 40.109375 62.90625 
Q 36.140625 65.921875 28.71875 65.921875 
Q 24.65625 65.921875 20.015625 65.03125 
Q 15.375 64.15625 9.8125 62.3125 
L 9.8125 71.09375 
Q 15.4375 72.65625 20.34375 73.4375 
Q 25.25 74.21875 29.59375 74.21875 
Q 40.828125 74.21875 47.359375 69.109375 
Q 53.90625 64.015625 53.90625 55.328125 
Q 53.90625 49.265625 50.4375 45.09375 
Q 46.96875 40.921875 40.578125 39.3125 
z
" id="DejaVuSans-33"/>
     </defs>
     <g transform="translate(356.195563 75.451953)scale(0.2 -0.2)">
      <use xlink:href="#DejaVuSans-41"/>
      <use x="68.408203" xlink:href="#DejaVuSans-78"/>
      <use x="127.587891" xlink:href="#DejaVuSans-20"/>
      <use x="159.375" xlink:href="#DejaVuSans-33"/>
      <use x="222.998047" xlink:href="#DejaVuSans-20"/>
      <use x="254.785156" xlink:href="#DejaVuSans-62"/>
      <use x="318.261719" xlink:href="#DejaVuSans-65"/>
      <use x="379.785156" xlink:href="#DejaVuSans-66"/>
      <use x="414.990234" xlink:href="#DejaVuSans-6f"/>
      <use x="476.171875" xlink:href="#DejaVuSans-72"/>
      <use x="517.253906" xlink:href="#DejaVuSans-65"/>
     </g>
    </g>
    <g id="LineCollection_15">
     <path d="M 320.195563 107.808203 
L 320.195563 87.808203 
" style="fill:none;stroke:#1f77b4;stroke-width:1.5;"/>
    </g>
    <g id="line2d_47">
     <path d="M 300.195563 97.808203 
L 340.195563 97.808203 
" style="fill:none;stroke:#1f77b4;stroke-linecap:square;stroke-width:1.5;"/>
    </g>
    <g id="line2d_48">
     <g>
      <use style="fill:#1f77b4;stroke:#1f77b4;stroke-linejoin:miter;" x="320.195563" xlink:href="#m429e44e41f" y="97.808203"/>
     </g>
    </g>
    <g id="text_21">
     <!-- Ax 2 after -->
     <g transform="translate(356.195563 104.808203)scale(0.2 -0.2)">
      <use xlink:href="#DejaVuSans-41"/>
      <use x="68.408203" xlink:href="#DejaVuSans-78"/>
      <use x="127.587891" xlink:href="#DejaVuSans-20"/>
      <use x="159.375" xlink:href="#DejaVuSans-32"/>
      <use x="222.998047" xlink:href="#DejaVuSans-20"/>
      <use x="254.785156" xlink:href="#DejaVuSans-61"/>
      <use x="316.064453" xlink:href="#DejaVuSans-66"/>
      <use x="351.253906" xlink:href="#DejaVuSans-74"/>
      <use x="390.462891" xlink:href="#DejaVuSans-65"/>
      <use x="451.986328" xlink:href="#DejaVuSans-72"/>
     </g>
    </g>
    <g id="LineCollection_16">
     <path d="M 320.195563 137.164453 
L 320.195563 117.164453 
" style="fill:none;stroke:#1f77b4;stroke-width:1.5;"/>
    </g>
    <g id="line2d_49">
     <path d="M 300.195563 127.164453 
L 340.195563 127.164453 
" style="fill:none;stroke:#1f77b4;stroke-dasharray:5.55,2.4;stroke-dashoffset:0;stroke-width:1.5;"/>
    </g>
    <g id="line2d_50">
     <g>
      <use style="fill:#1f77b4;stroke:#1f77b4;stroke-linejoin:miter;" x="320.195563" xlink:href="#m72934ae662" y="127.164453"/>
     </g>
    </g>
    <g id="text_22">
     <!-- Ax 3 after -->
     <g transform="translate(356.195563 134.164453)scale(0.2 -0.2)">
      <use xlink:href="#DejaVuSans-41"/>
      <use x="68.408203" xlink:href="#DejaVuSans-78"/>
      <use x="127.587891" xlink:href="#DejaVuSans-20"/>
      <use x="159.375" xlink:href="#DejaVuSans-33"/>
      <use x="222.998047" xlink:href="#DejaVuSans-20"/>
      <use x="254.785156" xlink:href="#DejaVuSans-61"/>
      <use x="316.064453" xlink:href="#DejaVuSans-66"/>
      <use x="351.253906" xlink:href="#DejaVuSans-74"/>
      <use x="390.462891" xlink:href="#DejaVuSans-65"/>
      <use x="451.986328" xlink:href="#DejaVuSans-72"/>
     </g>
    </g>
   </g>
  </g>
 </g>
 <defs>
  <clipPath id="p18cfb82a23">
   <rect height="266.112" width="428.544" x="61.410938" y="12.898828"/>
  </clipPath>
 </defs>
</svg>
