<?xml version="1.0" encoding="utf-8" standalone="no"?>
<!DOCTYPE svg PUBLIC "-//W3C//DTD SVG 1.1//EN"
  "http://www.w3.org/Graphics/SVG/1.1/DTD/svg11.dtd">
<!-- Created with matplotlib (http://matplotlib.org/) -->
<svg height="331pt" version="1.1" viewBox="0 0 500 331" width="500pt" xmlns="http://www.w3.org/2000/svg" xmlns:xlink="http://www.w3.org/1999/xlink">
 <defs>
  <style type="text/css">
*{stroke-linecap:butt;stroke-linejoin:round;}
  </style>
 </defs>
 <g id="figure_1">
  <g id="patch_1">
   <path d="M 0 331.128016 
L 500.654937 331.128016 
L 500.654937 0 
L 0 0 
z
" style="fill:none;"/>
  </g>
  <g id="axes_1">
   <g id="patch_2">
    <path d="M 61.410938 279.010828 
L 489.954938 279.010828 
L 489.954938 12.898828 
L 61.410938 12.898828 
z
" style="fill:none;"/>
   </g>
   <g id="matplotlib.axis_1">
    <g id="xtick_1">
     <g id="line2d_1">
      <path clip-path="url(#peb8b40d18d)" d="M 61.410938 279.010828 
L 61.410938 12.898828 
" style="fill:none;stroke:#b0b0b0;stroke-linecap:square;stroke-width:0.8;"/>
     </g>
     <g id="line2d_2">
      <defs>
       <path d="M 0 0 
L 0 3.5 
" id="m616d39968f" style="stroke:#000000;stroke-width:0.8;"/>
      </defs>
      <g>
       <use style="stroke:#000000;stroke-width:0.8;" x="61.410938" xlink:href="#m616d39968f" y="279.010828"/>
      </g>
     </g>
     <g id="text_1">
      <!-- −100 -->
      <defs>
       <path d="M 10.59375 35.5 
L 73.1875 35.5 
L 73.1875 27.203125 
L 10.59375 27.203125 
z
" id="DejaVuSans-2212"/>
       <path d="M 12.40625 8.296875 
L 28.515625 8.296875 
L 28.515625 63.921875 
L 10.984375 60.40625 
L 10.984375 69.390625 
L 28.421875 72.90625 
L 38.28125 72.90625 
L 38.28125 8.296875 
L 54.390625 8.296875 
L 54.390625 0 
L 12.40625 0 
z
" id="DejaVuSans-31"/>
       <path d="M 31.78125 66.40625 
Q 24.171875 66.40625 20.328125 58.90625 
Q 16.5 51.421875 16.5 36.375 
Q 16.5 21.390625 20.328125 13.890625 
Q 24.171875 6.390625 31.78125 6.390625 
Q 39.453125 6.390625 43.28125 13.890625 
Q 47.125 21.390625 47.125 36.375 
Q 47.125 51.421875 43.28125 58.90625 
Q 39.453125 66.40625 31.78125 66.40625 
z
M 31.78125 74.21875 
Q 44.046875 74.21875 50.515625 64.515625 
Q 56.984375 54.828125 56.984375 36.375 
Q 56.984375 17.96875 50.515625 8.265625 
Q 44.046875 -1.421875 31.78125 -1.421875 
Q 19.53125 -1.421875 13.0625 8.265625 
Q 6.59375 17.96875 6.59375 36.375 
Q 6.59375 54.828125 13.0625 64.515625 
Q 19.53125 74.21875 31.78125 74.21875 
z
" id="DejaVuSans-30"/>
      </defs>
      <g transform="translate(40.810547 297.408484)scale(0.15 -0.15)">
       <use xlink:href="#DejaVuSans-2212"/>
       <use x="83.789062" xlink:href="#DejaVuSans-31"/>
       <use x="147.412109" xlink:href="#DejaVuSans-30"/>
       <use x="211.035156" xlink:href="#DejaVuSans-30"/>
      </g>
     </g>
    </g>
    <g id="xtick_2">
     <g id="line2d_3">
      <path clip-path="url(#peb8b40d18d)" d="M 120.930938 279.010828 
L 120.930938 12.898828 
" style="fill:none;stroke:#b0b0b0;stroke-linecap:square;stroke-width:0.8;"/>
     </g>
     <g id="line2d_4">
      <g>
       <use style="stroke:#000000;stroke-width:0.8;" x="120.930938" xlink:href="#m616d39968f" y="279.010828"/>
      </g>
     </g>
     <g id="text_2">
      <!-- 0 -->
      <g transform="translate(116.159063 297.408484)scale(0.15 -0.15)">
       <use xlink:href="#DejaVuSans-30"/>
      </g>
     </g>
    </g>
    <g id="xtick_3">
     <g id="line2d_5">
      <path clip-path="url(#peb8b40d18d)" d="M 180.450938 279.010828 
L 180.450938 12.898828 
" style="fill:none;stroke:#b0b0b0;stroke-linecap:square;stroke-width:0.8;"/>
     </g>
     <g id="line2d_6">
      <g>
       <use style="stroke:#000000;stroke-width:0.8;" x="180.450938" xlink:href="#m616d39968f" y="279.010828"/>
      </g>
     </g>
     <g id="text_3">
      <!-- 100 -->
      <g transform="translate(166.135312 297.408484)scale(0.15 -0.15)">
       <use xlink:href="#DejaVuSans-31"/>
       <use x="63.623047" xlink:href="#DejaVuSans-30"/>
       <use x="127.246094" xlink:href="#DejaVuSans-30"/>
      </g>
     </g>
    </g>
    <g id="xtick_4">
     <g id="line2d_7">
      <path clip-path="url(#peb8b40d18d)" d="M 239.970938 279.010828 
L 239.970938 12.898828 
" style="fill:none;stroke:#b0b0b0;stroke-linecap:square;stroke-width:0.8;"/>
     </g>
     <g id="line2d_8">
      <g>
       <use style="stroke:#000000;stroke-width:0.8;" x="239.970938" xlink:href="#m616d39968f" y="279.010828"/>
      </g>
     </g>
     <g id="text_4">
      <!-- 200 -->
      <defs>
       <path d="M 19.1875 8.296875 
L 53.609375 8.296875 
L 53.609375 0 
L 7.328125 0 
L 7.328125 8.296875 
Q 12.9375 14.109375 22.625 23.890625 
Q 32.328125 33.6875 34.8125 36.53125 
Q 39.546875 41.84375 41.421875 45.53125 
Q 43.3125 49.21875 43.3125 52.78125 
Q 43.3125 58.59375 39.234375 62.25 
Q 35.15625 65.921875 28.609375 65.921875 
Q 23.96875 65.921875 18.8125 64.3125 
Q 13.671875 62.703125 7.8125 59.421875 
L 7.8125 69.390625 
Q 13.765625 71.78125 18.9375 73 
Q 24.125 74.21875 28.421875 74.21875 
Q 39.75 74.21875 46.484375 68.546875 
Q 53.21875 62.890625 53.21875 53.421875 
Q 53.21875 48.921875 51.53125 44.890625 
Q 49.859375 40.875 45.40625 35.40625 
Q 44.1875 33.984375 37.640625 27.21875 
Q 31.109375 20.453125 19.1875 8.296875 
z
" id="DejaVuSans-32"/>
      </defs>
      <g transform="translate(225.655313 297.408484)scale(0.15 -0.15)">
       <use xlink:href="#DejaVuSans-32"/>
       <use x="63.623047" xlink:href="#DejaVuSans-30"/>
       <use x="127.246094" xlink:href="#DejaVuSans-30"/>
      </g>
     </g>
    </g>
    <g id="xtick_5">
     <g id="line2d_9">
      <path clip-path="url(#peb8b40d18d)" d="M 299.490938 279.010828 
L 299.490938 12.898828 
" style="fill:none;stroke:#b0b0b0;stroke-linecap:square;stroke-width:0.8;"/>
     </g>
     <g id="line2d_10">
      <g>
       <use style="stroke:#000000;stroke-width:0.8;" x="299.490938" xlink:href="#m616d39968f" y="279.010828"/>
      </g>
     </g>
     <g id="text_5">
      <!-- 300 -->
      <defs>
       <path d="M 40.578125 39.3125 
Q 47.65625 37.796875 51.625 33 
Q 55.609375 28.21875 55.609375 21.1875 
Q 55.609375 10.40625 48.1875 4.484375 
Q 40.765625 -1.421875 27.09375 -1.421875 
Q 22.515625 -1.421875 17.65625 -0.515625 
Q 12.796875 0.390625 7.625 2.203125 
L 7.625 11.71875 
Q 11.71875 9.328125 16.59375 8.109375 
Q 21.484375 6.890625 26.8125 6.890625 
Q 36.078125 6.890625 40.9375 10.546875 
Q 45.796875 14.203125 45.796875 21.1875 
Q 45.796875 27.640625 41.28125 31.265625 
Q 36.765625 34.90625 28.71875 34.90625 
L 20.21875 34.90625 
L 20.21875 43.015625 
L 29.109375 43.015625 
Q 36.375 43.015625 40.234375 45.921875 
Q 44.09375 48.828125 44.09375 54.296875 
Q 44.09375 59.90625 40.109375 62.90625 
Q 36.140625 65.921875 28.71875 65.921875 
Q 24.65625 65.921875 20.015625 65.03125 
Q 15.375 64.15625 9.8125 62.3125 
L 9.8125 71.09375 
Q 15.4375 72.65625 20.34375 73.4375 
Q 25.25 74.21875 29.59375 74.21875 
Q 40.828125 74.21875 47.359375 69.109375 
Q 53.90625 64.015625 53.90625 55.328125 
Q 53.90625 49.265625 50.4375 45.09375 
Q 46.96875 40.921875 40.578125 39.3125 
z
" id="DejaVuSans-33"/>
      </defs>
      <g transform="translate(285.175313 297.408484)scale(0.15 -0.15)">
       <use xlink:href="#DejaVuSans-33"/>
       <use x="63.623047" xlink:href="#DejaVuSans-30"/>
       <use x="127.246094" xlink:href="#DejaVuSans-30"/>
      </g>
     </g>
    </g>
    <g id="xtick_6">
     <g id="line2d_11">
      <path clip-path="url(#peb8b40d18d)" d="M 359.010938 279.010828 
L 359.010938 12.898828 
" style="fill:none;stroke:#b0b0b0;stroke-linecap:square;stroke-width:0.8;"/>
     </g>
     <g id="line2d_12">
      <g>
       <use style="stroke:#000000;stroke-width:0.8;" x="359.010938" xlink:href="#m616d39968f" y="279.010828"/>
      </g>
     </g>
     <g id="text_6">
      <!-- 400 -->
      <defs>
       <path d="M 37.796875 64.3125 
L 12.890625 25.390625 
L 37.796875 25.390625 
z
M 35.203125 72.90625 
L 47.609375 72.90625 
L 47.609375 25.390625 
L 58.015625 25.390625 
L 58.015625 17.1875 
L 47.609375 17.1875 
L 47.609375 0 
L 37.796875 0 
L 37.796875 17.1875 
L 4.890625 17.1875 
L 4.890625 26.703125 
z
" id="DejaVuSans-34"/>
      </defs>
      <g transform="translate(344.695312 297.408484)scale(0.15 -0.15)">
       <use xlink:href="#DejaVuSans-34"/>
       <use x="63.623047" xlink:href="#DejaVuSans-30"/>
       <use x="127.246094" xlink:href="#DejaVuSans-30"/>
      </g>
     </g>
    </g>
    <g id="xtick_7">
     <g id="line2d_13">
      <path clip-path="url(#peb8b40d18d)" d="M 418.530938 279.010828 
L 418.530938 12.898828 
" style="fill:none;stroke:#b0b0b0;stroke-linecap:square;stroke-width:0.8;"/>
     </g>
     <g id="line2d_14">
      <g>
       <use style="stroke:#000000;stroke-width:0.8;" x="418.530938" xlink:href="#m616d39968f" y="279.010828"/>
      </g>
     </g>
     <g id="text_7">
      <!-- 500 -->
      <defs>
       <path d="M 10.796875 72.90625 
L 49.515625 72.90625 
L 49.515625 64.59375 
L 19.828125 64.59375 
L 19.828125 46.734375 
Q 21.96875 47.46875 24.109375 47.828125 
Q 26.265625 48.1875 28.421875 48.1875 
Q 40.625 48.1875 47.75 41.5 
Q 54.890625 34.8125 54.890625 23.390625 
Q 54.890625 11.625 47.5625 5.09375 
Q 40.234375 -1.421875 26.90625 -1.421875 
Q 22.3125 -1.421875 17.546875 -0.640625 
Q 12.796875 0.140625 7.71875 1.703125 
L 7.71875 11.625 
Q 12.109375 9.234375 16.796875 8.0625 
Q 21.484375 6.890625 26.703125 6.890625 
Q 35.15625 6.890625 40.078125 11.328125 
Q 45.015625 15.765625 45.015625 23.390625 
Q 45.015625 31 40.078125 35.4375 
Q 35.15625 39.890625 26.703125 39.890625 
Q 22.75 39.890625 18.8125 39.015625 
Q 14.890625 38.140625 10.796875 36.28125 
z
" id="DejaVuSans-35"/>
      </defs>
      <g transform="translate(404.215313 297.408484)scale(0.15 -0.15)">
       <use xlink:href="#DejaVuSans-35"/>
       <use x="63.623047" xlink:href="#DejaVuSans-30"/>
       <use x="127.246094" xlink:href="#DejaVuSans-30"/>
      </g>
     </g>
    </g>
    <g id="xtick_8">
     <g id="line2d_15">
      <path clip-path="url(#peb8b40d18d)" d="M 478.050938 279.010828 
L 478.050938 12.898828 
" style="fill:none;stroke:#b0b0b0;stroke-linecap:square;stroke-width:0.8;"/>
     </g>
     <g id="line2d_16">
      <g>
       <use style="stroke:#000000;stroke-width:0.8;" x="478.050938" xlink:href="#m616d39968f" y="279.010828"/>
      </g>
     </g>
     <g id="text_8">
      <!-- 600 -->
      <defs>
       <path d="M 33.015625 40.375 
Q 26.375 40.375 22.484375 35.828125 
Q 18.609375 31.296875 18.609375 23.390625 
Q 18.609375 15.53125 22.484375 10.953125 
Q 26.375 6.390625 33.015625 6.390625 
Q 39.65625 6.390625 43.53125 10.953125 
Q 47.40625 15.53125 47.40625 23.390625 
Q 47.40625 31.296875 43.53125 35.828125 
Q 39.65625 40.375 33.015625 40.375 
z
M 52.59375 71.296875 
L 52.59375 62.3125 
Q 48.875 64.0625 45.09375 64.984375 
Q 41.3125 65.921875 37.59375 65.921875 
Q 27.828125 65.921875 22.671875 59.328125 
Q 17.53125 52.734375 16.796875 39.40625 
Q 19.671875 43.65625 24.015625 45.921875 
Q 28.375 48.1875 33.59375 48.1875 
Q 44.578125 48.1875 50.953125 41.515625 
Q 57.328125 34.859375 57.328125 23.390625 
Q 57.328125 12.15625 50.6875 5.359375 
Q 44.046875 -1.421875 33.015625 -1.421875 
Q 20.359375 -1.421875 13.671875 8.265625 
Q 6.984375 17.96875 6.984375 36.375 
Q 6.984375 53.65625 15.1875 63.9375 
Q 23.390625 74.21875 37.203125 74.21875 
Q 40.921875 74.21875 44.703125 73.484375 
Q 48.484375 72.75 52.59375 71.296875 
z
" id="DejaVuSans-36"/>
      </defs>
      <g transform="translate(463.735313 297.408484)scale(0.15 -0.15)">
       <use xlink:href="#DejaVuSans-36"/>
       <use x="63.623047" xlink:href="#DejaVuSans-30"/>
       <use x="127.246094" xlink:href="#DejaVuSans-30"/>
      </g>
     </g>
    </g>
    <g id="text_9">
     <!-- $\delta$, Detuning from carrier (kHz) -->
     <defs>
      <path d="M 54.25 63.328125 
Q 49.953125 66.75 38.28125 66.75 
Q 25.921875 66.75 24.8125 61.03125 
Q 23.921875 56.546875 36.375 54.203125 
Q 46.140625 52.390625 50.828125 46.921875 
Q 56.5 40.328125 53.859375 26.8125 
Q 51.3125 13.875 43.171875 6.25 
Q 34.96875 -1.421875 23.25 -1.421875 
Q 11.578125 -1.421875 6.34375 6.25 
Q 1.125 13.875 3.765625 27.296875 
Q 5.671875 37.25 13.921875 45.3125 
Q 17.140625 48.4375 21.140625 50.203125 
Q 14.265625 54.046875 15.625 60.9375 
Q 18.21875 74.21875 39.75 74.21875 
Q 50.53125 74.21875 55.71875 70.796875 
z
M 27.390625 47.75 
Q 23.828125 46.34375 20.40625 42.78125 
Q 15.140625 37.25 13.234375 27.296875 
Q 11.28125 17.390625 14.359375 11.8125 
Q 17.484375 6.203125 24.75 6.203125 
Q 31.9375 6.203125 37.203125 11.859375 
Q 42.53125 17.53125 44.34375 26.8125 
Q 46.1875 36.53125 42.671875 41.21875 
Q 38.921875 46.234375 32.859375 46.78125 
Q 29.78125 47.078125 27.390625 47.75 
z
" id="DejaVuSans-Oblique-3b4"/>
      <path d="M 11.71875 12.40625 
L 22.015625 12.40625 
L 22.015625 4 
L 14.015625 -11.625 
L 7.71875 -11.625 
L 11.71875 4 
z
" id="DejaVuSans-2c"/>
      <path id="DejaVuSans-20"/>
      <path d="M 19.671875 64.796875 
L 19.671875 8.109375 
L 31.59375 8.109375 
Q 46.6875 8.109375 53.6875 14.9375 
Q 60.6875 21.78125 60.6875 36.53125 
Q 60.6875 51.171875 53.6875 57.984375 
Q 46.6875 64.796875 31.59375 64.796875 
z
M 9.8125 72.90625 
L 30.078125 72.90625 
Q 51.265625 72.90625 61.171875 64.09375 
Q 71.09375 55.28125 71.09375 36.53125 
Q 71.09375 17.671875 61.125 8.828125 
Q 51.171875 0 30.078125 0 
L 9.8125 0 
z
" id="DejaVuSans-44"/>
      <path d="M 56.203125 29.59375 
L 56.203125 25.203125 
L 14.890625 25.203125 
Q 15.484375 15.921875 20.484375 11.0625 
Q 25.484375 6.203125 34.421875 6.203125 
Q 39.59375 6.203125 44.453125 7.46875 
Q 49.3125 8.734375 54.109375 11.28125 
L 54.109375 2.78125 
Q 49.265625 0.734375 44.1875 -0.34375 
Q 39.109375 -1.421875 33.890625 -1.421875 
Q 20.796875 -1.421875 13.15625 6.1875 
Q 5.515625 13.8125 5.515625 26.8125 
Q 5.515625 40.234375 12.765625 48.109375 
Q 20.015625 56 32.328125 56 
Q 43.359375 56 49.78125 48.890625 
Q 56.203125 41.796875 56.203125 29.59375 
z
M 47.21875 32.234375 
Q 47.125 39.59375 43.09375 43.984375 
Q 39.0625 48.390625 32.421875 48.390625 
Q 24.90625 48.390625 20.390625 44.140625 
Q 15.875 39.890625 15.1875 32.171875 
z
" id="DejaVuSans-65"/>
      <path d="M 18.3125 70.21875 
L 18.3125 54.6875 
L 36.8125 54.6875 
L 36.8125 47.703125 
L 18.3125 47.703125 
L 18.3125 18.015625 
Q 18.3125 11.328125 20.140625 9.421875 
Q 21.96875 7.515625 27.59375 7.515625 
L 36.8125 7.515625 
L 36.8125 0 
L 27.59375 0 
Q 17.1875 0 13.234375 3.875 
Q 9.28125 7.765625 9.28125 18.015625 
L 9.28125 47.703125 
L 2.6875 47.703125 
L 2.6875 54.6875 
L 9.28125 54.6875 
L 9.28125 70.21875 
z
" id="DejaVuSans-74"/>
      <path d="M 8.5 21.578125 
L 8.5 54.6875 
L 17.484375 54.6875 
L 17.484375 21.921875 
Q 17.484375 14.15625 20.5 10.265625 
Q 23.53125 6.390625 29.59375 6.390625 
Q 36.859375 6.390625 41.078125 11.03125 
Q 45.3125 15.671875 45.3125 23.6875 
L 45.3125 54.6875 
L 54.296875 54.6875 
L 54.296875 0 
L 45.3125 0 
L 45.3125 8.40625 
Q 42.046875 3.421875 37.71875 1 
Q 33.40625 -1.421875 27.6875 -1.421875 
Q 18.265625 -1.421875 13.375 4.4375 
Q 8.5 10.296875 8.5 21.578125 
z
M 31.109375 56 
z
" id="DejaVuSans-75"/>
      <path d="M 54.890625 33.015625 
L 54.890625 0 
L 45.90625 0 
L 45.90625 32.71875 
Q 45.90625 40.484375 42.875 44.328125 
Q 39.84375 48.1875 33.796875 48.1875 
Q 26.515625 48.1875 22.3125 43.546875 
Q 18.109375 38.921875 18.109375 30.90625 
L 18.109375 0 
L 9.078125 0 
L 9.078125 54.6875 
L 18.109375 54.6875 
L 18.109375 46.1875 
Q 21.34375 51.125 25.703125 53.5625 
Q 30.078125 56 35.796875 56 
Q 45.21875 56 50.046875 50.171875 
Q 54.890625 44.34375 54.890625 33.015625 
z
" id="DejaVuSans-6e"/>
      <path d="M 9.421875 54.6875 
L 18.40625 54.6875 
L 18.40625 0 
L 9.421875 0 
z
M 9.421875 75.984375 
L 18.40625 75.984375 
L 18.40625 64.59375 
L 9.421875 64.59375 
z
" id="DejaVuSans-69"/>
      <path d="M 45.40625 27.984375 
Q 45.40625 37.75 41.375 43.109375 
Q 37.359375 48.484375 30.078125 48.484375 
Q 22.859375 48.484375 18.828125 43.109375 
Q 14.796875 37.75 14.796875 27.984375 
Q 14.796875 18.265625 18.828125 12.890625 
Q 22.859375 7.515625 30.078125 7.515625 
Q 37.359375 7.515625 41.375 12.890625 
Q 45.40625 18.265625 45.40625 27.984375 
z
M 54.390625 6.78125 
Q 54.390625 -7.171875 48.1875 -13.984375 
Q 42 -20.796875 29.203125 -20.796875 
Q 24.46875 -20.796875 20.265625 -20.09375 
Q 16.0625 -19.390625 12.109375 -17.921875 
L 12.109375 -9.1875 
Q 16.0625 -11.328125 19.921875 -12.34375 
Q 23.78125 -13.375 27.78125 -13.375 
Q 36.625 -13.375 41.015625 -8.765625 
Q 45.40625 -4.15625 45.40625 5.171875 
L 45.40625 9.625 
Q 42.625 4.78125 38.28125 2.390625 
Q 33.9375 0 27.875 0 
Q 17.828125 0 11.671875 7.65625 
Q 5.515625 15.328125 5.515625 27.984375 
Q 5.515625 40.671875 11.671875 48.328125 
Q 17.828125 56 27.875 56 
Q 33.9375 56 38.28125 53.609375 
Q 42.625 51.21875 45.40625 46.390625 
L 45.40625 54.6875 
L 54.390625 54.6875 
z
" id="DejaVuSans-67"/>
      <path d="M 37.109375 75.984375 
L 37.109375 68.5 
L 28.515625 68.5 
Q 23.6875 68.5 21.796875 66.546875 
Q 19.921875 64.59375 19.921875 59.515625 
L 19.921875 54.6875 
L 34.71875 54.6875 
L 34.71875 47.703125 
L 19.921875 47.703125 
L 19.921875 0 
L 10.890625 0 
L 10.890625 47.703125 
L 2.296875 47.703125 
L 2.296875 54.6875 
L 10.890625 54.6875 
L 10.890625 58.5 
Q 10.890625 67.625 15.140625 71.796875 
Q 19.390625 75.984375 28.609375 75.984375 
z
" id="DejaVuSans-66"/>
      <path d="M 41.109375 46.296875 
Q 39.59375 47.171875 37.8125 47.578125 
Q 36.03125 48 33.890625 48 
Q 26.265625 48 22.1875 43.046875 
Q 18.109375 38.09375 18.109375 28.8125 
L 18.109375 0 
L 9.078125 0 
L 9.078125 54.6875 
L 18.109375 54.6875 
L 18.109375 46.1875 
Q 20.953125 51.171875 25.484375 53.578125 
Q 30.03125 56 36.53125 56 
Q 37.453125 56 38.578125 55.875 
Q 39.703125 55.765625 41.0625 55.515625 
z
" id="DejaVuSans-72"/>
      <path d="M 30.609375 48.390625 
Q 23.390625 48.390625 19.1875 42.75 
Q 14.984375 37.109375 14.984375 27.296875 
Q 14.984375 17.484375 19.15625 11.84375 
Q 23.34375 6.203125 30.609375 6.203125 
Q 37.796875 6.203125 41.984375 11.859375 
Q 46.1875 17.53125 46.1875 27.296875 
Q 46.1875 37.015625 41.984375 42.703125 
Q 37.796875 48.390625 30.609375 48.390625 
z
M 30.609375 56 
Q 42.328125 56 49.015625 48.375 
Q 55.71875 40.765625 55.71875 27.296875 
Q 55.71875 13.875 49.015625 6.21875 
Q 42.328125 -1.421875 30.609375 -1.421875 
Q 18.84375 -1.421875 12.171875 6.21875 
Q 5.515625 13.875 5.515625 27.296875 
Q 5.515625 40.765625 12.171875 48.375 
Q 18.84375 56 30.609375 56 
z
" id="DejaVuSans-6f"/>
      <path d="M 52 44.1875 
Q 55.375 50.25 60.0625 53.125 
Q 64.75 56 71.09375 56 
Q 79.640625 56 84.28125 50.015625 
Q 88.921875 44.046875 88.921875 33.015625 
L 88.921875 0 
L 79.890625 0 
L 79.890625 32.71875 
Q 79.890625 40.578125 77.09375 44.375 
Q 74.3125 48.1875 68.609375 48.1875 
Q 61.625 48.1875 57.5625 43.546875 
Q 53.515625 38.921875 53.515625 30.90625 
L 53.515625 0 
L 44.484375 0 
L 44.484375 32.71875 
Q 44.484375 40.625 41.703125 44.40625 
Q 38.921875 48.1875 33.109375 48.1875 
Q 26.21875 48.1875 22.15625 43.53125 
Q 18.109375 38.875 18.109375 30.90625 
L 18.109375 0 
L 9.078125 0 
L 9.078125 54.6875 
L 18.109375 54.6875 
L 18.109375 46.1875 
Q 21.1875 51.21875 25.484375 53.609375 
Q 29.78125 56 35.6875 56 
Q 41.65625 56 45.828125 52.96875 
Q 50 49.953125 52 44.1875 
z
" id="DejaVuSans-6d"/>
      <path d="M 48.78125 52.59375 
L 48.78125 44.1875 
Q 44.96875 46.296875 41.140625 47.34375 
Q 37.3125 48.390625 33.40625 48.390625 
Q 24.65625 48.390625 19.8125 42.84375 
Q 14.984375 37.3125 14.984375 27.296875 
Q 14.984375 17.28125 19.8125 11.734375 
Q 24.65625 6.203125 33.40625 6.203125 
Q 37.3125 6.203125 41.140625 7.25 
Q 44.96875 8.296875 48.78125 10.40625 
L 48.78125 2.09375 
Q 45.015625 0.34375 40.984375 -0.53125 
Q 36.96875 -1.421875 32.421875 -1.421875 
Q 20.0625 -1.421875 12.78125 6.34375 
Q 5.515625 14.109375 5.515625 27.296875 
Q 5.515625 40.671875 12.859375 48.328125 
Q 20.21875 56 33.015625 56 
Q 37.15625 56 41.109375 55.140625 
Q 45.0625 54.296875 48.78125 52.59375 
z
" id="DejaVuSans-63"/>
      <path d="M 34.28125 27.484375 
Q 23.390625 27.484375 19.1875 25 
Q 14.984375 22.515625 14.984375 16.5 
Q 14.984375 11.71875 18.140625 8.90625 
Q 21.296875 6.109375 26.703125 6.109375 
Q 34.1875 6.109375 38.703125 11.40625 
Q 43.21875 16.703125 43.21875 25.484375 
L 43.21875 27.484375 
z
M 52.203125 31.203125 
L 52.203125 0 
L 43.21875 0 
L 43.21875 8.296875 
Q 40.140625 3.328125 35.546875 0.953125 
Q 30.953125 -1.421875 24.3125 -1.421875 
Q 15.921875 -1.421875 10.953125 3.296875 
Q 6 8.015625 6 15.921875 
Q 6 25.140625 12.171875 29.828125 
Q 18.359375 34.515625 30.609375 34.515625 
L 43.21875 34.515625 
L 43.21875 35.40625 
Q 43.21875 41.609375 39.140625 45 
Q 35.0625 48.390625 27.6875 48.390625 
Q 23 48.390625 18.546875 47.265625 
Q 14.109375 46.140625 10.015625 43.890625 
L 10.015625 52.203125 
Q 14.9375 54.109375 19.578125 55.046875 
Q 24.21875 56 28.609375 56 
Q 40.484375 56 46.34375 49.84375 
Q 52.203125 43.703125 52.203125 31.203125 
z
" id="DejaVuSans-61"/>
      <path d="M 31 75.875 
Q 24.46875 64.65625 21.28125 53.65625 
Q 18.109375 42.671875 18.109375 31.390625 
Q 18.109375 20.125 21.3125 9.0625 
Q 24.515625 -2 31 -13.1875 
L 23.1875 -13.1875 
Q 15.875 -1.703125 12.234375 9.375 
Q 8.59375 20.453125 8.59375 31.390625 
Q 8.59375 42.28125 12.203125 53.3125 
Q 15.828125 64.359375 23.1875 75.875 
z
" id="DejaVuSans-28"/>
      <path d="M 9.078125 75.984375 
L 18.109375 75.984375 
L 18.109375 31.109375 
L 44.921875 54.6875 
L 56.390625 54.6875 
L 27.390625 29.109375 
L 57.625 0 
L 45.90625 0 
L 18.109375 26.703125 
L 18.109375 0 
L 9.078125 0 
z
" id="DejaVuSans-6b"/>
      <path d="M 9.8125 72.90625 
L 19.671875 72.90625 
L 19.671875 43.015625 
L 55.515625 43.015625 
L 55.515625 72.90625 
L 65.375 72.90625 
L 65.375 0 
L 55.515625 0 
L 55.515625 34.71875 
L 19.671875 34.71875 
L 19.671875 0 
L 9.8125 0 
z
" id="DejaVuSans-48"/>
      <path d="M 5.515625 54.6875 
L 48.1875 54.6875 
L 48.1875 46.484375 
L 14.40625 7.171875 
L 48.1875 7.171875 
L 48.1875 0 
L 4.296875 0 
L 4.296875 8.203125 
L 38.09375 47.515625 
L 5.515625 47.515625 
z
" id="DejaVuSans-7a"/>
      <path d="M 8.015625 75.875 
L 15.828125 75.875 
Q 23.140625 64.359375 26.78125 53.3125 
Q 30.421875 42.28125 30.421875 31.390625 
Q 30.421875 20.453125 26.78125 9.375 
Q 23.140625 -1.703125 15.828125 -13.1875 
L 8.015625 -13.1875 
Q 14.5 -2 17.703125 9.0625 
Q 20.90625 20.125 20.90625 31.390625 
Q 20.90625 42.671875 17.703125 53.65625 
Q 14.5 64.65625 8.015625 75.875 
z
" id="DejaVuSans-29"/>
     </defs>
     <g transform="translate(124.982938 319.728016)scale(0.2 -0.2)">
      <use transform="translate(0 0.015625)" xlink:href="#DejaVuSans-Oblique-3b4"/>
      <use transform="translate(61.181641 0.015625)" xlink:href="#DejaVuSans-2c"/>
      <use transform="translate(92.96875 0.015625)" xlink:href="#DejaVuSans-20"/>
      <use transform="translate(124.755859 0.015625)" xlink:href="#DejaVuSans-44"/>
      <use transform="translate(201.757812 0.015625)" xlink:href="#DejaVuSans-65"/>
      <use transform="translate(263.28125 0.015625)" xlink:href="#DejaVuSans-74"/>
      <use transform="translate(302.490234 0.015625)" xlink:href="#DejaVuSans-75"/>
      <use transform="translate(365.869141 0.015625)" xlink:href="#DejaVuSans-6e"/>
      <use transform="translate(429.248047 0.015625)" xlink:href="#DejaVuSans-69"/>
      <use transform="translate(457.03125 0.015625)" xlink:href="#DejaVuSans-6e"/>
      <use transform="translate(520.410156 0.015625)" xlink:href="#DejaVuSans-67"/>
      <use transform="translate(583.886719 0.015625)" xlink:href="#DejaVuSans-20"/>
      <use transform="translate(615.673828 0.015625)" xlink:href="#DejaVuSans-66"/>
      <use transform="translate(650.878906 0.015625)" xlink:href="#DejaVuSans-72"/>
      <use transform="translate(691.992188 0.015625)" xlink:href="#DejaVuSans-6f"/>
      <use transform="translate(753.173828 0.015625)" xlink:href="#DejaVuSans-6d"/>
      <use transform="translate(850.585938 0.015625)" xlink:href="#DejaVuSans-20"/>
      <use transform="translate(882.373047 0.015625)" xlink:href="#DejaVuSans-63"/>
      <use transform="translate(937.353516 0.015625)" xlink:href="#DejaVuSans-61"/>
      <use transform="translate(998.632812 0.015625)" xlink:href="#DejaVuSans-72"/>
      <use transform="translate(1039.746094 0.015625)" xlink:href="#DejaVuSans-72"/>
      <use transform="translate(1080.859375 0.015625)" xlink:href="#DejaVuSans-69"/>
      <use transform="translate(1108.642578 0.015625)" xlink:href="#DejaVuSans-65"/>
      <use transform="translate(1170.166016 0.015625)" xlink:href="#DejaVuSans-72"/>
      <use transform="translate(1211.279297 0.015625)" xlink:href="#DejaVuSans-20"/>
      <use transform="translate(1243.066406 0.015625)" xlink:href="#DejaVuSans-28"/>
      <use transform="translate(1282.080078 0.015625)" xlink:href="#DejaVuSans-6b"/>
      <use transform="translate(1339.990234 0.015625)" xlink:href="#DejaVuSans-48"/>
      <use transform="translate(1415.185547 0.015625)" xlink:href="#DejaVuSans-7a"/>
      <use transform="translate(1467.675781 0.015625)" xlink:href="#DejaVuSans-29"/>
     </g>
    </g>
   </g>
   <g id="matplotlib.axis_2">
    <g id="ytick_1">
     <g id="line2d_17">
      <path clip-path="url(#peb8b40d18d)" d="M 61.410938 279.010828 
L 489.954938 279.010828 
" style="fill:none;stroke:#b0b0b0;stroke-linecap:square;stroke-width:0.8;"/>
     </g>
     <g id="line2d_18">
      <defs>
       <path d="M 0 0 
L -3.5 0 
" id="m5508cc1e6a" style="stroke:#000000;stroke-width:0.8;"/>
      </defs>
      <g>
       <use style="stroke:#000000;stroke-width:0.8;" x="61.410938" xlink:href="#m5508cc1e6a" y="279.010828"/>
      </g>
     </g>
     <g id="text_10">
      <!-- 0.0 -->
      <defs>
       <path d="M 10.6875 12.40625 
L 21 12.40625 
L 21 0 
L 10.6875 0 
z
" id="DejaVuSans-2e"/>
      </defs>
      <g transform="translate(30.55625 284.709656)scale(0.15 -0.15)">
       <use xlink:href="#DejaVuSans-30"/>
       <use x="63.623047" xlink:href="#DejaVuSans-2e"/>
       <use x="95.410156" xlink:href="#DejaVuSans-30"/>
      </g>
     </g>
    </g>
    <g id="ytick_2">
     <g id="line2d_19">
      <path clip-path="url(#peb8b40d18d)" d="M 61.410938 234.658828 
L 489.954938 234.658828 
" style="fill:none;stroke:#b0b0b0;stroke-linecap:square;stroke-width:0.8;"/>
     </g>
     <g id="line2d_20">
      <g>
       <use style="stroke:#000000;stroke-width:0.8;" x="61.410938" xlink:href="#m5508cc1e6a" y="234.658828"/>
      </g>
     </g>
     <g id="text_11">
      <!-- 0.1 -->
      <g transform="translate(30.55625 240.357656)scale(0.15 -0.15)">
       <use xlink:href="#DejaVuSans-30"/>
       <use x="63.623047" xlink:href="#DejaVuSans-2e"/>
       <use x="95.410156" xlink:href="#DejaVuSans-31"/>
      </g>
     </g>
    </g>
    <g id="ytick_3">
     <g id="line2d_21">
      <path clip-path="url(#peb8b40d18d)" d="M 61.410938 190.306828 
L 489.954938 190.306828 
" style="fill:none;stroke:#b0b0b0;stroke-linecap:square;stroke-width:0.8;"/>
     </g>
     <g id="line2d_22">
      <g>
       <use style="stroke:#000000;stroke-width:0.8;" x="61.410938" xlink:href="#m5508cc1e6a" y="190.306828"/>
      </g>
     </g>
     <g id="text_12">
      <!-- 0.2 -->
      <g transform="translate(30.55625 196.005656)scale(0.15 -0.15)">
       <use xlink:href="#DejaVuSans-30"/>
       <use x="63.623047" xlink:href="#DejaVuSans-2e"/>
       <use x="95.410156" xlink:href="#DejaVuSans-32"/>
      </g>
     </g>
    </g>
    <g id="ytick_4">
     <g id="line2d_23">
      <path clip-path="url(#peb8b40d18d)" d="M 61.410938 145.954828 
L 489.954938 145.954828 
" style="fill:none;stroke:#b0b0b0;stroke-linecap:square;stroke-width:0.8;"/>
     </g>
     <g id="line2d_24">
      <g>
       <use style="stroke:#000000;stroke-width:0.8;" x="61.410938" xlink:href="#m5508cc1e6a" y="145.954828"/>
      </g>
     </g>
     <g id="text_13">
      <!-- 0.3 -->
      <g transform="translate(30.55625 151.653656)scale(0.15 -0.15)">
       <use xlink:href="#DejaVuSans-30"/>
       <use x="63.623047" xlink:href="#DejaVuSans-2e"/>
       <use x="95.410156" xlink:href="#DejaVuSans-33"/>
      </g>
     </g>
    </g>
    <g id="ytick_5">
     <g id="line2d_25">
      <path clip-path="url(#peb8b40d18d)" d="M 61.410938 101.602828 
L 489.954938 101.602828 
" style="fill:none;stroke:#b0b0b0;stroke-linecap:square;stroke-width:0.8;"/>
     </g>
     <g id="line2d_26">
      <g>
       <use style="stroke:#000000;stroke-width:0.8;" x="61.410938" xlink:href="#m5508cc1e6a" y="101.602828"/>
      </g>
     </g>
     <g id="text_14">
      <!-- 0.4 -->
      <g transform="translate(30.55625 107.301656)scale(0.15 -0.15)">
       <use xlink:href="#DejaVuSans-30"/>
       <use x="63.623047" xlink:href="#DejaVuSans-2e"/>
       <use x="95.410156" xlink:href="#DejaVuSans-34"/>
      </g>
     </g>
    </g>
    <g id="ytick_6">
     <g id="line2d_27">
      <path clip-path="url(#peb8b40d18d)" d="M 61.410938 57.250828 
L 489.954938 57.250828 
" style="fill:none;stroke:#b0b0b0;stroke-linecap:square;stroke-width:0.8;"/>
     </g>
     <g id="line2d_28">
      <g>
       <use style="stroke:#000000;stroke-width:0.8;" x="61.410938" xlink:href="#m5508cc1e6a" y="57.250828"/>
      </g>
     </g>
     <g id="text_15">
      <!-- 0.5 -->
      <g transform="translate(30.55625 62.949656)scale(0.15 -0.15)">
       <use xlink:href="#DejaVuSans-30"/>
       <use x="63.623047" xlink:href="#DejaVuSans-2e"/>
       <use x="95.410156" xlink:href="#DejaVuSans-35"/>
      </g>
     </g>
    </g>
    <g id="ytick_7">
     <g id="line2d_29">
      <path clip-path="url(#peb8b40d18d)" d="M 61.410938 12.898828 
L 489.954938 12.898828 
" style="fill:none;stroke:#b0b0b0;stroke-linecap:square;stroke-width:0.8;"/>
     </g>
     <g id="line2d_30">
      <g>
       <use style="stroke:#000000;stroke-width:0.8;" x="61.410938" xlink:href="#m5508cc1e6a" y="12.898828"/>
      </g>
     </g>
     <g id="text_16">
      <!-- 0.6 -->
      <g transform="translate(30.55625 18.597656)scale(0.15 -0.15)">
       <use xlink:href="#DejaVuSans-30"/>
       <use x="63.623047" xlink:href="#DejaVuSans-2e"/>
       <use x="95.410156" xlink:href="#DejaVuSans-36"/>
      </g>
     </g>
    </g>
    <g id="text_17">
     <!-- F=1 population -->
     <defs>
      <path d="M 9.8125 72.90625 
L 51.703125 72.90625 
L 51.703125 64.59375 
L 19.671875 64.59375 
L 19.671875 43.109375 
L 48.578125 43.109375 
L 48.578125 34.8125 
L 19.671875 34.8125 
L 19.671875 0 
L 9.8125 0 
z
" id="DejaVuSans-46"/>
      <path d="M 10.59375 45.40625 
L 73.1875 45.40625 
L 73.1875 37.203125 
L 10.59375 37.203125 
z
M 10.59375 25.484375 
L 73.1875 25.484375 
L 73.1875 17.1875 
L 10.59375 17.1875 
z
" id="DejaVuSans-3d"/>
      <path d="M 18.109375 8.203125 
L 18.109375 -20.796875 
L 9.078125 -20.796875 
L 9.078125 54.6875 
L 18.109375 54.6875 
L 18.109375 46.390625 
Q 20.953125 51.265625 25.265625 53.625 
Q 29.59375 56 35.59375 56 
Q 45.5625 56 51.78125 48.09375 
Q 58.015625 40.1875 58.015625 27.296875 
Q 58.015625 14.40625 51.78125 6.484375 
Q 45.5625 -1.421875 35.59375 -1.421875 
Q 29.59375 -1.421875 25.265625 0.953125 
Q 20.953125 3.328125 18.109375 8.203125 
z
M 48.6875 27.296875 
Q 48.6875 37.203125 44.609375 42.84375 
Q 40.53125 48.484375 33.40625 48.484375 
Q 26.265625 48.484375 22.1875 42.84375 
Q 18.109375 37.203125 18.109375 27.296875 
Q 18.109375 17.390625 22.1875 11.75 
Q 26.265625 6.109375 33.40625 6.109375 
Q 40.53125 6.109375 44.609375 11.75 
Q 48.6875 17.390625 48.6875 27.296875 
z
" id="DejaVuSans-70"/>
      <path d="M 9.421875 75.984375 
L 18.40625 75.984375 
L 18.40625 0 
L 9.421875 0 
z
" id="DejaVuSans-6c"/>
     </defs>
     <g transform="translate(22.396875 222.840766)rotate(-90)scale(0.2 -0.2)">
      <use xlink:href="#DejaVuSans-46"/>
      <use x="57.519531" xlink:href="#DejaVuSans-3d"/>
      <use x="141.308594" xlink:href="#DejaVuSans-31"/>
      <use x="204.931641" xlink:href="#DejaVuSans-20"/>
      <use x="236.71875" xlink:href="#DejaVuSans-70"/>
      <use x="300.195312" xlink:href="#DejaVuSans-6f"/>
      <use x="361.376953" xlink:href="#DejaVuSans-70"/>
      <use x="424.853516" xlink:href="#DejaVuSans-75"/>
      <use x="488.232422" xlink:href="#DejaVuSans-6c"/>
      <use x="516.015625" xlink:href="#DejaVuSans-61"/>
      <use x="577.294922" xlink:href="#DejaVuSans-74"/>
      <use x="616.503906" xlink:href="#DejaVuSans-69"/>
      <use x="644.287109" xlink:href="#DejaVuSans-6f"/>
      <use x="705.46875" xlink:href="#DejaVuSans-6e"/>
     </g>
    </g>
   </g>
   <g id="LineCollection_1">
    <path clip-path="url(#peb8b40d18d)" d="M 68.255738 279.010828 
L 68.255738 274.342197 
" style="fill:none;stroke:#d62728;stroke-width:1.5;"/>
    <path clip-path="url(#peb8b40d18d)" d="M 70.636538 279.010828 
L 70.636538 274.530828 
" style="fill:none;stroke:#d62728;stroke-width:1.5;"/>
    <path clip-path="url(#peb8b40d18d)" d="M 73.017337 279.010828 
L 73.017337 274.786828 
" style="fill:none;stroke:#d62728;stroke-width:1.5;"/>
    <path clip-path="url(#peb8b40d18d)" d="M 75.398138 264.231377 
L 75.398138 244.007422 
" style="fill:none;stroke:#d62728;stroke-width:1.5;"/>
    <path clip-path="url(#peb8b40d18d)" d="M 77.778938 169.189072 
L 77.778938 128.207429 
" style="fill:none;stroke:#d62728;stroke-width:1.5;"/>
    <path clip-path="url(#peb8b40d18d)" d="M 80.159737 103.218332 
L 80.159737 57.96964 
" style="fill:none;stroke:#d62728;stroke-width:1.5;"/>
    <path clip-path="url(#peb8b40d18d)" d="M 82.540538 106.832955 
L 82.540538 57.564701 
" style="fill:none;stroke:#d62728;stroke-width:1.5;"/>
    <path clip-path="url(#peb8b40d18d)" d="M 84.921338 161.11303 
L 84.921338 120.257537 
" style="fill:none;stroke:#d62728;stroke-width:1.5;"/>
    <path clip-path="url(#peb8b40d18d)" d="M 87.302138 264.532132 
L 87.302138 244.702324 
" style="fill:none;stroke:#d62728;stroke-width:1.5;"/>
    <path clip-path="url(#peb8b40d18d)" d="M 89.682938 277.279134 
L 89.682938 267.302522 
" style="fill:none;stroke:#d62728;stroke-width:1.5;"/>
    <path clip-path="url(#peb8b40d18d)" d="M 92.063737 277.41004 
L 92.063737 268.176476 
" style="fill:none;stroke:#d62728;stroke-width:1.5;"/>
   </g>
   <g id="LineCollection_2">
    <path clip-path="url(#peb8b40d18d)" d="M 145.631738 279.010828 
L 145.631738 274.136982 
" style="fill:none;stroke:#d62728;stroke-width:1.5;"/>
    <path clip-path="url(#peb8b40d18d)" d="M 148.012538 277.059752 
L 148.012538 265.841904 
" style="fill:none;stroke:#d62728;stroke-width:1.5;"/>
    <path clip-path="url(#peb8b40d18d)" d="M 150.393338 279.010828 
L 150.393338 274.241796 
" style="fill:none;stroke:#d62728;stroke-width:1.5;"/>
    <path clip-path="url(#peb8b40d18d)" d="M 152.774137 279.010828 
L 152.774137 273.912897 
" style="fill:none;stroke:#d62728;stroke-width:1.5;"/>
    <path clip-path="url(#peb8b40d18d)" d="M 155.154938 277.26125 
L 155.154938 267.183263 
" style="fill:none;stroke:#d62728;stroke-width:1.5;"/>
    <path clip-path="url(#peb8b40d18d)" d="M 157.535738 233.266288 
L 157.535738 202.561083 
" style="fill:none;stroke:#d62728;stroke-width:1.5;"/>
    <path clip-path="url(#peb8b40d18d)" d="M 159.916538 177.850223 
L 159.916538 139.403433 
" style="fill:none;stroke:#d62728;stroke-width:1.5;"/>
    <path clip-path="url(#peb8b40d18d)" d="M 162.297338 138.0192 
L 162.297338 92.402456 
" style="fill:none;stroke:#d62728;stroke-width:1.5;"/>
    <path clip-path="url(#peb8b40d18d)" d="M 164.678138 150.268461 
L 164.678138 107.453195 
" style="fill:none;stroke:#d62728;stroke-width:1.5;"/>
    <path clip-path="url(#peb8b40d18d)" d="M 167.058938 214.785066 
L 167.058938 180.758966 
" style="fill:none;stroke:#d62728;stroke-width:1.5;"/>
    <path clip-path="url(#peb8b40d18d)" d="M 169.439738 259.339684 
L 169.439738 236.010668 
" style="fill:none;stroke:#d62728;stroke-width:1.5;"/>
   </g>
   <g id="LineCollection_3">
    <path clip-path="url(#peb8b40d18d)" d="M 100.991737 279.010828 
L 100.991737 274.826677 
" style="fill:none;stroke:#d62728;stroke-width:1.5;"/>
    <path clip-path="url(#peb8b40d18d)" d="M 104.562938 277.165987 
L 104.562938 266.548573 
" style="fill:none;stroke:#d62728;stroke-width:1.5;"/>
    <path clip-path="url(#peb8b40d18d)" d="M 108.134138 277.296657 
L 108.134138 267.4194 
" style="fill:none;stroke:#d62728;stroke-width:1.5;"/>
    <path clip-path="url(#peb8b40d18d)" d="M 111.705338 279.010828 
L 111.705338 274.530828 
" style="fill:none;stroke:#d62728;stroke-width:1.5;"/>
    <path clip-path="url(#peb8b40d18d)" d="M 115.276538 274.469597 
L 115.276538 261.152059 
" style="fill:none;stroke:#d62728;stroke-width:1.5;"/>
    <path clip-path="url(#peb8b40d18d)" d="M 118.847738 184.789633 
L 118.847738 144.161254 
" style="fill:none;stroke:#d62728;stroke-width:1.5;"/>
    <path clip-path="url(#peb8b40d18d)" d="M 122.418938 147.236973 
L 122.418938 104.435818 
" style="fill:none;stroke:#d62728;stroke-width:1.5;"/>
    <path clip-path="url(#peb8b40d18d)" d="M 125.990138 205.184867 
L 125.990138 169.156789 
" style="fill:none;stroke:#d62728;stroke-width:1.5;"/>
    <path clip-path="url(#peb8b40d18d)" d="M 129.561338 279.010828 
L 129.561338 273.602048 
" style="fill:none;stroke:#d62728;stroke-width:1.5;"/>
    <path clip-path="url(#peb8b40d18d)" d="M 133.132538 277.313828 
L 133.132538 267.533967 
" style="fill:none;stroke:#d62728;stroke-width:1.5;"/>
    <path clip-path="url(#peb8b40d18d)" d="M 136.703738 279.010828 
L 136.703738 274.662593 
" style="fill:none;stroke:#d62728;stroke-width:1.5;"/>
   </g>
   <g id="LineCollection_4">
    <path clip-path="url(#peb8b40d18d)" d="M 178.367738 275.824387 
L 178.367738 270.491462 
" style="fill:none;stroke:#d62728;stroke-width:1.5;"/>
    <path clip-path="url(#peb8b40d18d)" d="M 181.343738 278.50487 
L 181.343738 275.556786 
" style="fill:none;stroke:#d62728;stroke-width:1.5;"/>
    <path clip-path="url(#peb8b40d18d)" d="M 184.319738 278.516676 
L 184.319738 275.637073 
" style="fill:none;stroke:#d62728;stroke-width:1.5;"/>
    <path clip-path="url(#peb8b40d18d)" d="M 187.295737 277.7603 
L 187.295737 274.032142 
" style="fill:none;stroke:#d62728;stroke-width:1.5;"/>
    <path clip-path="url(#peb8b40d18d)" d="M 190.271738 278.507874 
L 190.271738 275.577214 
" style="fill:none;stroke:#d62728;stroke-width:1.5;"/>
    <path clip-path="url(#peb8b40d18d)" d="M 193.247738 274.16622 
L 193.247738 268.18761 
" style="fill:none;stroke:#d62728;stroke-width:1.5;"/>
    <path clip-path="url(#peb8b40d18d)" d="M 196.223738 277.648943 
L 196.223738 273.591062 
" style="fill:none;stroke:#d62728;stroke-width:1.5;"/>
    <path clip-path="url(#peb8b40d18d)" d="M 199.199738 267.190736 
L 199.199738 258.219156 
" style="fill:none;stroke:#d62728;stroke-width:1.5;"/>
    <path clip-path="url(#peb8b40d18d)" d="M 202.175738 219.205862 
L 202.175738 201.846382 
" style="fill:none;stroke:#d62728;stroke-width:1.5;"/>
    <path clip-path="url(#peb8b40d18d)" d="M 205.151738 157.089034 
L 205.151738 135.568127 
" style="fill:none;stroke:#d62728;stroke-width:1.5;"/>
    <path clip-path="url(#peb8b40d18d)" d="M 208.127737 160.657629 
L 208.127737 138.965419 
" style="fill:none;stroke:#d62728;stroke-width:1.5;"/>
    <path clip-path="url(#peb8b40d18d)" d="M 211.103737 240.47324 
L 211.103737 211.288417 
" style="fill:none;stroke:#d62728;stroke-width:1.5;"/>
    <path clip-path="url(#peb8b40d18d)" d="M 214.079738 271.739686 
L 214.079738 256.71397 
" style="fill:none;stroke:#d62728;stroke-width:1.5;"/>
    <path clip-path="url(#peb8b40d18d)" d="M 217.055738 277.124912 
L 217.055738 266.275206 
" style="fill:none;stroke:#d62728;stroke-width:1.5;"/>
    <path clip-path="url(#peb8b40d18d)" d="M 220.031737 279.010828 
L 220.031737 274.342197 
" style="fill:none;stroke:#d62728;stroke-width:1.5;"/>
    <path clip-path="url(#peb8b40d18d)" d="M 223.007738 277.330658 
L 223.007738 267.646292 
" style="fill:none;stroke:#d62728;stroke-width:1.5;"/>
    <path clip-path="url(#peb8b40d18d)" d="M 225.983738 279.010828 
L 225.983738 274.29253 
" style="fill:none;stroke:#d62728;stroke-width:1.5;"/>
    <path clip-path="url(#peb8b40d18d)" d="M 228.959737 279.010828 
L 228.959737 274.575628 
" style="fill:none;stroke:#d62728;stroke-width:1.5;"/>
    <path clip-path="url(#peb8b40d18d)" d="M 231.935737 279.010828 
L 231.935737 274.575628 
" style="fill:none;stroke:#d62728;stroke-width:1.5;"/>
    <path clip-path="url(#peb8b40d18d)" d="M 234.911738 271.21237 
L 234.911738 255.129286 
" style="fill:none;stroke:#d62728;stroke-width:1.5;"/>
    <path clip-path="url(#peb8b40d18d)" d="M 237.887738 260.175206 
L 237.887738 237.78645 
" style="fill:none;stroke:#d62728;stroke-width:1.5;"/>
    <path clip-path="url(#peb8b40d18d)" d="M 240.863737 261.124818 
L 240.863737 239.810106 
" style="fill:none;stroke:#d62728;stroke-width:1.5;"/>
    <path clip-path="url(#peb8b40d18d)" d="M 243.839737 198.473543 
L 243.839737 159.720421 
" style="fill:none;stroke:#d62728;stroke-width:1.5;"/>
    <path clip-path="url(#peb8b40d18d)" d="M 246.815738 223.33727 
L 246.815738 192.269707 
" style="fill:none;stroke:#d62728;stroke-width:1.5;"/>
    <path clip-path="url(#peb8b40d18d)" d="M 249.791737 252.457428 
L 249.791737 227.024228 
" style="fill:none;stroke:#d62728;stroke-width:1.5;"/>
    <path clip-path="url(#peb8b40d18d)" d="M 252.767737 268.551764 
L 252.767737 251.453893 
" style="fill:none;stroke:#d62728;stroke-width:1.5;"/>
    <path clip-path="url(#peb8b40d18d)" d="M 255.743738 274.732441 
L 255.743738 262.169215 
" style="fill:none;stroke:#d62728;stroke-width:1.5;"/>
    <path clip-path="url(#peb8b40d18d)" d="M 258.719738 277.22435 
L 258.719738 266.937306 
" style="fill:none;stroke:#d62728;stroke-width:1.5;"/>
    <path clip-path="url(#peb8b40d18d)" d="M 261.695737 277.313828 
L 261.695737 267.533967 
" style="fill:none;stroke:#d62728;stroke-width:1.5;"/>
    <path clip-path="url(#peb8b40d18d)" d="M 264.671737 277.468341 
L 264.671737 268.566288 
" style="fill:none;stroke:#d62728;stroke-width:1.5;"/>
    <path clip-path="url(#peb8b40d18d)" d="M 267.647738 279.010828 
L 267.647738 274.241796 
" style="fill:none;stroke:#d62728;stroke-width:1.5;"/>
    <path clip-path="url(#peb8b40d18d)" d="M 270.623738 274.275659 
L 270.623738 260.40284 
" style="fill:none;stroke:#d62728;stroke-width:1.5;"/>
    <path clip-path="url(#peb8b40d18d)" d="M 273.599737 274.374655 
L 273.599737 260.785146 
" style="fill:none;stroke:#d62728;stroke-width:1.5;"/>
    <path clip-path="url(#peb8b40d18d)" d="M 276.575738 256.821631 
L 276.575738 233.314311 
" style="fill:none;stroke:#d62728;stroke-width:1.5;"/>
    <path clip-path="url(#peb8b40d18d)" d="M 279.551738 269.17413 
L 279.551738 249.044449 
" style="fill:none;stroke:#d62728;stroke-width:1.5;"/>
    <path clip-path="url(#peb8b40d18d)" d="M 282.527737 259.119089 
L 282.527737 235.542567 
" style="fill:none;stroke:#d62728;stroke-width:1.5;"/>
    <path clip-path="url(#peb8b40d18d)" d="M 285.503737 266.636986 
L 285.503737 246.534333 
" style="fill:none;stroke:#d62728;stroke-width:1.5;"/>
    <path clip-path="url(#peb8b40d18d)" d="M 288.479738 247.844847 
L 288.479738 220.52915 
" style="fill:none;stroke:#d62728;stroke-width:1.5;"/>
    <path clip-path="url(#peb8b40d18d)" d="M 291.455738 263.590753 
L 291.455738 242.529627 
" style="fill:none;stroke:#d62728;stroke-width:1.5;"/>
    <path clip-path="url(#peb8b40d18d)" d="M 294.431737 277.145676 
L 294.431737 266.413372 
" style="fill:none;stroke:#d62728;stroke-width:1.5;"/>
    <path clip-path="url(#peb8b40d18d)" d="M 297.407738 277.185861 
L 297.407738 266.680902 
" style="fill:none;stroke:#d62728;stroke-width:1.5;"/>
    <path clip-path="url(#peb8b40d18d)" d="M 300.383738 279.010828 
L 300.383738 274.530828 
" style="fill:none;stroke:#d62728;stroke-width:1.5;"/>
    <path clip-path="url(#peb8b40d18d)" d="M 303.359737 277.185861 
L 303.359737 266.680902 
" style="fill:none;stroke:#d62728;stroke-width:1.5;"/>
    <path clip-path="url(#peb8b40d18d)" d="M 306.335737 274.422617 
L 306.335737 260.970468 
" style="fill:none;stroke:#d62728;stroke-width:1.5;"/>
    <path clip-path="url(#peb8b40d18d)" d="M 309.311738 271.522686 
L 309.311738 256.061323 
" style="fill:none;stroke:#d62728;stroke-width:1.5;"/>
    <path clip-path="url(#peb8b40d18d)" d="M 312.287738 267.306596 
L 312.287738 248.25038 
" style="fill:none;stroke:#d62728;stroke-width:1.5;"/>
    <path clip-path="url(#peb8b40d18d)" d="M 315.263737 274.515624 
L 315.263737 261.330032 
" style="fill:none;stroke:#d62728;stroke-width:1.5;"/>
    <path clip-path="url(#peb8b40d18d)" d="M 318.239737 263.75606 
L 318.239737 242.910649 
" style="fill:none;stroke:#d62728;stroke-width:1.5;"/>
    <path clip-path="url(#peb8b40d18d)" d="M 321.215738 257.05021 
L 321.215738 233.771447 
" style="fill:none;stroke:#d62728;stroke-width:1.5;"/>
    <path clip-path="url(#peb8b40d18d)" d="M 324.191737 259.973052 
L 324.191737 237.356394 
" style="fill:none;stroke:#d62728;stroke-width:1.5;"/>
    <path clip-path="url(#peb8b40d18d)" d="M 327.167737 268.130865 
L 327.167737 250.369207 
" style="fill:none;stroke:#d62728;stroke-width:1.5;"/>
    <path clip-path="url(#peb8b40d18d)" d="M 330.143738 274.813422 
L 330.143738 262.483001 
" style="fill:none;stroke:#d62728;stroke-width:1.5;"/>
    <path clip-path="url(#peb8b40d18d)" d="M 333.119738 273.951566 
L 333.119738 259.153236 
" style="fill:none;stroke:#d62728;stroke-width:1.5;"/>
    <path clip-path="url(#peb8b40d18d)" d="M 336.095737 277.013751 
L 336.095737 265.536277 
" style="fill:none;stroke:#d62728;stroke-width:1.5;"/>
    <path clip-path="url(#peb8b40d18d)" d="M 339.071737 277.279134 
L 339.071737 267.302522 
" style="fill:none;stroke:#d62728;stroke-width:1.5;"/>
    <path clip-path="url(#peb8b40d18d)" d="M 342.047738 277.330658 
L 342.047738 267.646292 
" style="fill:none;stroke:#d62728;stroke-width:1.5;"/>
    <path clip-path="url(#peb8b40d18d)" d="M 345.023738 274.422617 
L 345.023738 260.970468 
" style="fill:none;stroke:#d62728;stroke-width:1.5;"/>
    <path clip-path="url(#peb8b40d18d)" d="M 347.999737 279.010828 
L 347.999737 274.619541 
" style="fill:none;stroke:#d62728;stroke-width:1.5;"/>
    <path clip-path="url(#peb8b40d18d)" d="M 350.975738 279.010828 
L 350.975738 274.662593 
" style="fill:none;stroke:#d62728;stroke-width:1.5;"/>
    <path clip-path="url(#peb8b40d18d)" d="M 353.951738 265.746752 
L 353.951738 247.516005 
" style="fill:none;stroke:#d62728;stroke-width:1.5;"/>
    <path clip-path="url(#peb8b40d18d)" d="M 356.927737 271.370678 
L 356.927737 255.604578 
" style="fill:none;stroke:#d62728;stroke-width:1.5;"/>
    <path clip-path="url(#peb8b40d18d)" d="M 359.903737 265.098355 
L 359.903737 246.012532 
" style="fill:none;stroke:#d62728;stroke-width:1.5;"/>
    <path clip-path="url(#peb8b40d18d)" d="M 362.879738 277.124912 
L 362.879738 266.275206 
" style="fill:none;stroke:#d62728;stroke-width:1.5;"/>
    <path clip-path="url(#peb8b40d18d)" d="M 365.855738 263.249151 
L 365.855738 241.74294 
" style="fill:none;stroke:#d62728;stroke-width:1.5;"/>
    <path clip-path="url(#peb8b40d18d)" d="M 368.831737 277.081967 
L 368.831737 265.989577 
" style="fill:none;stroke:#d62728;stroke-width:1.5;"/>
    <path clip-path="url(#peb8b40d18d)" d="M 371.807738 279.010828 
L 371.807738 273.730828 
" style="fill:none;stroke:#d62728;stroke-width:1.5;"/>
    <path clip-path="url(#peb8b40d18d)" d="M 374.783738 277.39477 
L 374.783738 268.074434 
" style="fill:none;stroke:#d62728;stroke-width:1.5;"/>
    <path clip-path="url(#peb8b40d18d)" d="M 377.759737 279.010828 
L 377.759737 274.485114 
" style="fill:none;stroke:#d62728;stroke-width:1.5;"/>
    <path clip-path="url(#peb8b40d18d)" d="M 380.735737 279.010828 
L 380.735737 274.342197 
" style="fill:none;stroke:#d62728;stroke-width:1.5;"/>
    <path clip-path="url(#peb8b40d18d)" d="M 383.711738 277.509355 
L 383.711738 268.840723 
" style="fill:none;stroke:#d62728;stroke-width:1.5;"/>
    <path clip-path="url(#peb8b40d18d)" d="M 386.687738 279.010828 
L 386.687738 274.29253 
" style="fill:none;stroke:#d62728;stroke-width:1.5;"/>
    <path clip-path="url(#peb8b40d18d)" d="M 389.663737 271.292336 
L 389.663737 255.369321 
" style="fill:none;stroke:#d62728;stroke-width:1.5;"/>
    <path clip-path="url(#peb8b40d18d)" d="M 392.639737 267.047642 
L 392.639737 247.586189 
" style="fill:none;stroke:#d62728;stroke-width:1.5;"/>
    <path clip-path="url(#peb8b40d18d)" d="M 395.615738 270.962212 
L 395.615738 254.379024 
" style="fill:none;stroke:#d62728;stroke-width:1.5;"/>
    <path clip-path="url(#peb8b40d18d)" d="M 398.591737 267.047642 
L 398.591737 247.586189 
" style="fill:none;stroke:#d62728;stroke-width:1.5;"/>
    <path clip-path="url(#peb8b40d18d)" d="M 401.567737 259.555438 
L 401.567737 236.468799 
" style="fill:none;stroke:#d62728;stroke-width:1.5;"/>
    <path clip-path="url(#peb8b40d18d)" d="M 404.543738 277.205311 
L 404.543738 266.810451 
" style="fill:none;stroke:#d62728;stroke-width:1.5;"/>
    <path clip-path="url(#peb8b40d18d)" d="M 407.519738 279.010828 
L 407.519738 274.485114 
" style="fill:none;stroke:#d62728;stroke-width:1.5;"/>
    <path clip-path="url(#peb8b40d18d)" d="M 410.495737 279.010828 
L 410.495737 274.786828 
" style="fill:none;stroke:#d62728;stroke-width:1.5;"/>
    <path clip-path="url(#peb8b40d18d)" d="M 413.471737 279.010828 
L 413.471737 274.027457 
" style="fill:none;stroke:#d62728;stroke-width:1.5;"/>
    <path clip-path="url(#peb8b40d18d)" d="M 416.447738 279.010828 
L 416.447738 274.485114 
" style="fill:none;stroke:#d62728;stroke-width:1.5;"/>
    <path clip-path="url(#peb8b40d18d)" d="M 419.423738 279.010828 
L 419.423738 273.970828 
" style="fill:none;stroke:#d62728;stroke-width:1.5;"/>
    <path clip-path="url(#peb8b40d18d)" d="M 422.399737 273.951566 
L 422.399737 259.153236 
" style="fill:none;stroke:#d62728;stroke-width:1.5;"/>
    <path clip-path="url(#peb8b40d18d)" d="M 425.375738 277.41004 
L 425.375738 268.176476 
" style="fill:none;stroke:#d62728;stroke-width:1.5;"/>
    <path clip-path="url(#peb8b40d18d)" d="M 428.351738 271.877498 
L 428.351738 257.128831 
" style="fill:none;stroke:#d62728;stroke-width:1.5;"/>
    <path clip-path="url(#peb8b40d18d)" d="M 431.327737 274.648273 
L 431.327737 261.843286 
" style="fill:none;stroke:#d62728;stroke-width:1.5;"/>
    <path clip-path="url(#peb8b40d18d)" d="M 434.303737 263.590753 
L 434.303737 242.529627 
" style="fill:none;stroke:#d62728;stroke-width:1.5;"/>
    <path clip-path="url(#peb8b40d18d)" d="M 437.279738 270.962212 
L 437.279738 254.379024 
" style="fill:none;stroke:#d62728;stroke-width:1.5;"/>
    <path clip-path="url(#peb8b40d18d)" d="M 440.255738 255.464028 
L 440.255738 232.744295 
" style="fill:none;stroke:#d62728;stroke-width:1.5;"/>
    <path clip-path="url(#peb8b40d18d)" d="M 443.231737 274.515624 
L 443.231737 261.330032 
" style="fill:none;stroke:#d62728;stroke-width:1.5;"/>
    <path clip-path="url(#peb8b40d18d)" d="M 446.207738 267.178535 
L 446.207738 247.92183 
" style="fill:none;stroke:#d62728;stroke-width:1.5;"/>
    <path clip-path="url(#peb8b40d18d)" d="M 449.183738 274.690767 
L 449.183738 262.007812 
" style="fill:none;stroke:#d62728;stroke-width:1.5;"/>
    <path clip-path="url(#peb8b40d18d)" d="M 452.159737 277.26125 
L 452.159737 267.183263 
" style="fill:none;stroke:#d62728;stroke-width:1.5;"/>
    <path clip-path="url(#peb8b40d18d)" d="M 455.135737 279.010828 
L 455.135737 274.619541 
" style="fill:none;stroke:#d62728;stroke-width:1.5;"/>
    <path clip-path="url(#peb8b40d18d)" d="M 458.111738 279.010828 
L 458.111738 274.438457 
" style="fill:none;stroke:#d62728;stroke-width:1.5;"/>
    <path clip-path="url(#peb8b40d18d)" d="M 461.087738 279.010828 
L 461.087738 274.241796 
" style="fill:none;stroke:#d62728;stroke-width:1.5;"/>
    <path clip-path="url(#peb8b40d18d)" d="M 464.063737 277.509355 
L 464.063737 268.840723 
" style="fill:none;stroke:#d62728;stroke-width:1.5;"/>
    <path clip-path="url(#peb8b40d18d)" d="M 467.039737 274.515624 
L 467.039737 261.330032 
" style="fill:none;stroke:#d62728;stroke-width:1.5;"/>
    <path clip-path="url(#peb8b40d18d)" d="M 470.015738 277.145676 
L 470.015738 266.413372 
" style="fill:none;stroke:#d62728;stroke-width:1.5;"/>
    <path clip-path="url(#peb8b40d18d)" d="M 472.991737 279.010828 
L 472.991737 274.438457 
" style="fill:none;stroke:#d62728;stroke-width:1.5;"/>
    <path clip-path="url(#peb8b40d18d)" d="M 475.967737 271.447446 
L 475.967737 255.8352 
" style="fill:none;stroke:#d62728;stroke-width:1.5;"/>
    <path clip-path="url(#peb8b40d18d)" d="M 478.943738 270.87522 
L 478.943738 254.118351 
" style="fill:none;stroke:#d62728;stroke-width:1.5;"/>
   </g>
   <g id="LineCollection_5">
    <path clip-path="url(#peb8b40d18d)" d="M 66.172538 278.267246 
L 66.172538 273.944104 
" style="fill:none;stroke:#1f77b4;stroke-width:1.5;"/>
    <path clip-path="url(#peb8b40d18d)" d="M 68.553337 278.310294 
L 68.553337 274.235807 
" style="fill:none;stroke:#1f77b4;stroke-width:1.5;"/>
    <path clip-path="url(#peb8b40d18d)" d="M 70.934138 278.273717 
L 70.934138 273.987939 
" style="fill:none;stroke:#1f77b4;stroke-width:1.5;"/>
    <path clip-path="url(#peb8b40d18d)" d="M 73.314937 239.150708 
L 73.314937 221.333355 
" style="fill:none;stroke:#1f77b4;stroke-width:1.5;"/>
    <path clip-path="url(#peb8b40d18d)" d="M 75.695737 200.9335 
L 75.695737 176.844869 
" style="fill:none;stroke:#1f77b4;stroke-width:1.5;"/>
    <path clip-path="url(#peb8b40d18d)" d="M 78.076538 117.244316 
L 78.076538 87.97734 
" style="fill:none;stroke:#1f77b4;stroke-width:1.5;"/>
    <path clip-path="url(#peb8b40d18d)" d="M 80.457337 96.433434 
L 80.457337 67.559725 
" style="fill:none;stroke:#1f77b4;stroke-width:1.5;"/>
    <path clip-path="url(#peb8b40d18d)" d="M 82.838137 114.48585 
L 82.838137 85.074437 
" style="fill:none;stroke:#1f77b4;stroke-width:1.5;"/>
    <path clip-path="url(#peb8b40d18d)" d="M 85.218938 217.94196 
L 85.218938 196.182096 
" style="fill:none;stroke:#1f77b4;stroke-width:1.5;"/>
    <path clip-path="url(#peb8b40d18d)" d="M 87.599737 268.823569 
L 87.599737 258.672419 
" style="fill:none;stroke:#1f77b4;stroke-width:1.5;"/>
    <path clip-path="url(#peb8b40d18d)" d="M 89.980538 277.175568 
L 89.980538 271.720162 
" style="fill:none;stroke:#1f77b4;stroke-width:1.5;"/>
   </g>
   <g id="LineCollection_6">
    <path clip-path="url(#peb8b40d18d)" d="M 149.500537 279.010828 
L 149.500537 277.039628 
" style="fill:none;stroke:#1f77b4;stroke-width:1.5;"/>
    <path clip-path="url(#peb8b40d18d)" d="M 151.881337 279.010828 
L 151.881337 276.976333 
" style="fill:none;stroke:#1f77b4;stroke-width:1.5;"/>
    <path clip-path="url(#peb8b40d18d)" d="M 154.262138 272.665964 
L 154.262138 263.768436 
" style="fill:none;stroke:#1f77b4;stroke-width:1.5;"/>
    <path clip-path="url(#peb8b40d18d)" d="M 156.642937 276.963806 
L 156.642937 270.885373 
" style="fill:none;stroke:#1f77b4;stroke-width:1.5;"/>
    <path clip-path="url(#peb8b40d18d)" d="M 159.023738 274.059041 
L 159.023738 265.818615 
" style="fill:none;stroke:#1f77b4;stroke-width:1.5;"/>
    <path clip-path="url(#peb8b40d18d)" d="M 161.404537 270.610609 
L 161.404537 260.341751 
" style="fill:none;stroke:#1f77b4;stroke-width:1.5;"/>
    <path clip-path="url(#peb8b40d18d)" d="M 163.785337 272.85799 
L 163.785337 264.224954 
" style="fill:none;stroke:#1f77b4;stroke-width:1.5;"/>
    <path clip-path="url(#peb8b40d18d)" d="M 166.166138 277.054117 
L 166.166138 271.241224 
" style="fill:none;stroke:#1f77b4;stroke-width:1.5;"/>
    <path clip-path="url(#peb8b40d18d)" d="M 168.546937 275.597413 
L 168.546937 268.439379 
" style="fill:none;stroke:#1f77b4;stroke-width:1.5;"/>
    <path clip-path="url(#peb8b40d18d)" d="M 170.927737 279.010828 
L 170.927737 276.994828 
" style="fill:none;stroke:#1f77b4;stroke-width:1.5;"/>
    <path clip-path="url(#peb8b40d18d)" d="M 173.308538 277.120823 
L 173.308538 271.504223 
" style="fill:none;stroke:#1f77b4;stroke-width:1.5;"/>
   </g>
   <g id="LineCollection_7">
    <path clip-path="url(#peb8b40d18d)" d="M 173.308538 279.010828 
L 173.308538 277.236748 
" style="fill:none;stroke:#1f77b4;stroke-width:1.5;"/>
    <path clip-path="url(#peb8b40d18d)" d="M 179.260537 279.010828 
L 179.260537 277.099104 
" style="fill:none;stroke:#1f77b4;stroke-width:1.5;"/>
    <path clip-path="url(#peb8b40d18d)" d="M 185.212538 277.079676 
L 185.212538 271.34198 
" style="fill:none;stroke:#1f77b4;stroke-width:1.5;"/>
    <path clip-path="url(#peb8b40d18d)" d="M 191.164537 279.010828 
L 191.164537 277.215201 
" style="fill:none;stroke:#1f77b4;stroke-width:1.5;"/>
    <path clip-path="url(#peb8b40d18d)" d="M 197.116538 277.152499 
L 197.116538 271.629157 
" style="fill:none;stroke:#1f77b4;stroke-width:1.5;"/>
    <path clip-path="url(#peb8b40d18d)" d="M 203.068537 278.37354 
L 203.068537 274.664745 
" style="fill:none;stroke:#1f77b4;stroke-width:1.5;"/>
    <path clip-path="url(#peb8b40d18d)" d="M 209.020537 277.160253 
L 209.020537 271.659743 
" style="fill:none;stroke:#1f77b4;stroke-width:1.5;"/>
    <path clip-path="url(#peb8b40d18d)" d="M 214.972538 278.356305 
L 214.972538 274.547813 
" style="fill:none;stroke:#1f77b4;stroke-width:1.5;"/>
    <path clip-path="url(#peb8b40d18d)" d="M 220.924537 278.310294 
L 220.924537 274.235807 
" style="fill:none;stroke:#1f77b4;stroke-width:1.5;"/>
    <path clip-path="url(#peb8b40d18d)" d="M 226.876538 279.010828 
L 226.876538 277.215201 
" style="fill:none;stroke:#1f77b4;stroke-width:1.5;"/>
    <path clip-path="url(#peb8b40d18d)" d="M 232.828537 278.375929 
L 232.828537 274.680951 
" style="fill:none;stroke:#1f77b4;stroke-width:1.5;"/>
    <path clip-path="url(#peb8b40d18d)" d="M 238.780538 271.775452 
L 238.780538 262.903047 
" style="fill:none;stroke:#1f77b4;stroke-width:1.5;"/>
    <path clip-path="url(#peb8b40d18d)" d="M 244.732537 279.010828 
L 244.732537 277.264686 
" style="fill:none;stroke:#1f77b4;stroke-width:1.5;"/>
    <path clip-path="url(#peb8b40d18d)" d="M 250.684538 275.969746 
L 250.684538 269.583477 
" style="fill:none;stroke:#1f77b4;stroke-width:1.5;"/>
    <path clip-path="url(#peb8b40d18d)" d="M 256.636537 279.010828 
L 256.636537 277.178101 
" style="fill:none;stroke:#1f77b4;stroke-width:1.5;"/>
    <path clip-path="url(#peb8b40d18d)" d="M 262.588537 277.136795 
L 262.588537 271.567214 
" style="fill:none;stroke:#1f77b4;stroke-width:1.5;"/>
    <path clip-path="url(#peb8b40d18d)" d="M 268.540538 277.152499 
L 268.540538 271.629157 
" style="fill:none;stroke:#1f77b4;stroke-width:1.5;"/>
    <path clip-path="url(#peb8b40d18d)" d="M 274.492537 277.190632 
L 274.492537 271.779596 
" style="fill:none;stroke:#1f77b4;stroke-width:1.5;"/>
    <path clip-path="url(#peb8b40d18d)" d="M 280.444538 274.530828 
L 280.444538 267.064161 
" style="fill:none;stroke:#1f77b4;stroke-width:1.5;"/>
    <path clip-path="url(#peb8b40d18d)" d="M 286.396537 278.37354 
L 286.396537 274.664745 
" style="fill:none;stroke:#1f77b4;stroke-width:1.5;"/>
    <path clip-path="url(#peb8b40d18d)" d="M 292.348538 279.010828 
L 292.348538 277.207901 
" style="fill:none;stroke:#1f77b4;stroke-width:1.5;"/>
    <path clip-path="url(#peb8b40d18d)" d="M 298.300537 277.128843 
L 298.300537 271.535851 
" style="fill:none;stroke:#1f77b4;stroke-width:1.5;"/>
    <path clip-path="url(#peb8b40d18d)" d="M 304.252537 278.263968 
L 304.252537 273.921899 
" style="fill:none;stroke:#1f77b4;stroke-width:1.5;"/>
    <path clip-path="url(#peb8b40d18d)" d="M 310.204537 279.010828 
L 310.204537 277.162828 
" style="fill:none;stroke:#1f77b4;stroke-width:1.5;"/>
    <path clip-path="url(#peb8b40d18d)" d="M 316.156537 279.010828 
L 316.156537 277.222441 
" style="fill:none;stroke:#1f77b4;stroke-width:1.5;"/>
    <path clip-path="url(#peb8b40d18d)" d="M 322.108538 275.787432 
L 322.108538 269.022991 
" style="fill:none;stroke:#1f77b4;stroke-width:1.5;"/>
    <path clip-path="url(#peb8b40d18d)" d="M 328.060537 278.324484 
L 328.060537 274.332011 
" style="fill:none;stroke:#1f77b4;stroke-width:1.5;"/>
    <path clip-path="url(#peb8b40d18d)" d="M 334.012538 279.010828 
L 334.012538 277.278328 
" style="fill:none;stroke:#1f77b4;stroke-width:1.5;"/>
    <path clip-path="url(#peb8b40d18d)" d="M 339.964537 277.241462 
L 339.964537 271.980194 
" style="fill:none;stroke:#1f77b4;stroke-width:1.5;"/>
    <path clip-path="url(#peb8b40d18d)" d="M 345.916538 279.010828 
L 345.916538 277.318004 
" style="fill:none;stroke:#1f77b4;stroke-width:1.5;"/>
    <path clip-path="url(#peb8b40d18d)" d="M 351.868537 272.988185 
L 351.868537 264.534648 
" style="fill:none;stroke:#1f77b4;stroke-width:1.5;"/>
    <path clip-path="url(#peb8b40d18d)" d="M 357.820537 277.198072 
L 357.820537 271.808951 
" style="fill:none;stroke:#1f77b4;stroke-width:1.5;"/>
    <path clip-path="url(#peb8b40d18d)" d="M 363.772538 276.982529 
L 363.772538 270.959127 
" style="fill:none;stroke:#1f77b4;stroke-width:1.5;"/>
    <path clip-path="url(#peb8b40d18d)" d="M 369.724537 279.010828 
L 369.724537 277.278328 
" style="fill:none;stroke:#1f77b4;stroke-width:1.5;"/>
    <path clip-path="url(#peb8b40d18d)" d="M 375.676538 275.99412 
L 375.676538 269.658452 
" style="fill:none;stroke:#1f77b4;stroke-width:1.5;"/>
    <path clip-path="url(#peb8b40d18d)" d="M 381.628537 278.37354 
L 381.628537 274.664745 
" style="fill:none;stroke:#1f77b4;stroke-width:1.5;"/>
    <path clip-path="url(#peb8b40d18d)" d="M 387.580538 278.327254 
L 387.580538 274.350788 
" style="fill:none;stroke:#1f77b4;stroke-width:1.5;"/>
    <path clip-path="url(#peb8b40d18d)" d="M 393.532537 277.190632 
L 393.532537 271.779596 
" style="fill:none;stroke:#1f77b4;stroke-width:1.5;"/>
    <path clip-path="url(#peb8b40d18d)" d="M 399.484538 274.759755 
L 399.484538 267.669401 
" style="fill:none;stroke:#1f77b4;stroke-width:1.5;"/>
    <path clip-path="url(#peb8b40d18d)" d="M 405.436537 279.010828 
L 405.436537 277.271534 
" style="fill:none;stroke:#1f77b4;stroke-width:1.5;"/>
    <path clip-path="url(#peb8b40d18d)" d="M 411.388537 277.241462 
L 411.388537 271.980194 
" style="fill:none;stroke:#1f77b4;stroke-width:1.5;"/>
    <path clip-path="url(#peb8b40d18d)" d="M 417.340538 277.241462 
L 417.340538 271.980194 
" style="fill:none;stroke:#1f77b4;stroke-width:1.5;"/>
    <path clip-path="url(#peb8b40d18d)" d="M 423.292537 276.087834 
L 423.292537 269.946796 
" style="fill:none;stroke:#1f77b4;stroke-width:1.5;"/>
    <path clip-path="url(#peb8b40d18d)" d="M 429.244538 278.33543 
L 429.244538 274.406227 
" style="fill:none;stroke:#1f77b4;stroke-width:1.5;"/>
    <path clip-path="url(#peb8b40d18d)" d="M 435.196537 274.691848 
L 435.196537 267.489808 
" style="fill:none;stroke:#1f77b4;stroke-width:1.5;"/>
    <path clip-path="url(#peb8b40d18d)" d="M 441.148538 277.241462 
L 441.148538 271.980194 
" style="fill:none;stroke:#1f77b4;stroke-width:1.5;"/>
    <path clip-path="url(#peb8b40d18d)" d="M 447.100537 279.010828 
L 447.100537 277.349705 
" style="fill:none;stroke:#1f77b4;stroke-width:1.5;"/>
    <path clip-path="url(#peb8b40d18d)" d="M 453.052537 278.340772 
L 453.052537 274.442459 
" style="fill:none;stroke:#1f77b4;stroke-width:1.5;"/>
    <path clip-path="url(#peb8b40d18d)" d="M 459.004537 277.136795 
L 459.004537 271.567214 
" style="fill:none;stroke:#1f77b4;stroke-width:1.5;"/>
    <path clip-path="url(#peb8b40d18d)" d="M 464.956537 278.318878 
L 464.956537 274.293998 
" style="fill:none;stroke:#1f77b4;stroke-width:1.5;"/>
    <path clip-path="url(#peb8b40d18d)" d="M 470.908538 275.932436 
L 470.908538 269.468733 
" style="fill:none;stroke:#1f77b4;stroke-width:1.5;"/>
   </g>
   <g id="line2d_31">
    <path clip-path="url(#peb8b40d18d)" d="M 68.255738 276.676512 
L 70.636538 276.770828 
L 73.017337 276.898828 
L 75.398138 254.1194 
L 77.778938 148.698251 
L 80.159737 80.593986 
L 82.540538 82.198828 
L 84.921338 140.685284 
L 87.302138 254.617228 
L 89.682938 272.290828 
L 92.063737 272.793258 
" style="fill:none;stroke:#d62728;stroke-linecap:square;stroke-width:1.5;"/>
    <defs>
     <path d="M 0 3 
C 0.795609 3 1.55874 2.683901 2.12132 2.12132 
C 2.683901 1.55874 3 0.795609 3 0 
C 3 -0.795609 2.683901 -1.55874 2.12132 -2.12132 
C 1.55874 -2.683901 0.795609 -3 0 -3 
C -0.795609 -3 -1.55874 -2.683901 -2.12132 -2.12132 
C -2.683901 -1.55874 -3 -0.795609 -3 0 
C -3 0.795609 -2.683901 1.55874 -2.12132 2.12132 
C -1.55874 2.683901 -0.795609 3 0 3 
z
" id="m37fb7e397c" style="stroke:#d62728;"/>
    </defs>
    <g clip-path="url(#peb8b40d18d)">
     <use style="fill:#d62728;stroke:#d62728;" x="68.255738" xlink:href="#m37fb7e397c" y="276.676512"/>
     <use style="fill:#d62728;stroke:#d62728;" x="70.636538" xlink:href="#m37fb7e397c" y="276.770828"/>
     <use style="fill:#d62728;stroke:#d62728;" x="73.017337" xlink:href="#m37fb7e397c" y="276.898828"/>
     <use style="fill:#d62728;stroke:#d62728;" x="75.398138" xlink:href="#m37fb7e397c" y="254.1194"/>
     <use style="fill:#d62728;stroke:#d62728;" x="77.778938" xlink:href="#m37fb7e397c" y="148.698251"/>
     <use style="fill:#d62728;stroke:#d62728;" x="80.159737" xlink:href="#m37fb7e397c" y="80.593986"/>
     <use style="fill:#d62728;stroke:#d62728;" x="82.540538" xlink:href="#m37fb7e397c" y="82.198828"/>
     <use style="fill:#d62728;stroke:#d62728;" x="84.921338" xlink:href="#m37fb7e397c" y="140.685284"/>
     <use style="fill:#d62728;stroke:#d62728;" x="87.302138" xlink:href="#m37fb7e397c" y="254.617228"/>
     <use style="fill:#d62728;stroke:#d62728;" x="89.682938" xlink:href="#m37fb7e397c" y="272.290828"/>
     <use style="fill:#d62728;stroke:#d62728;" x="92.063737" xlink:href="#m37fb7e397c" y="272.793258"/>
    </g>
   </g>
   <g id="line2d_32">
    <path clip-path="url(#peb8b40d18d)" d="M 145.631738 276.573905 
L 148.012538 271.450828 
L 150.393338 276.626312 
L 152.774137 276.461863 
L 155.154938 272.222257 
L 157.535738 217.913685 
L 159.916538 158.626828 
L 162.297338 115.210828 
L 164.678138 128.860828 
L 167.058938 197.772016 
L 169.439738 247.675176 
" style="fill:none;stroke:#d62728;stroke-linecap:square;stroke-width:1.5;"/>
    <g clip-path="url(#peb8b40d18d)">
     <use style="fill:#d62728;stroke:#d62728;" x="145.631738" xlink:href="#m37fb7e397c" y="276.573905"/>
     <use style="fill:#d62728;stroke:#d62728;" x="148.012538" xlink:href="#m37fb7e397c" y="271.450828"/>
     <use style="fill:#d62728;stroke:#d62728;" x="150.393338" xlink:href="#m37fb7e397c" y="276.626312"/>
     <use style="fill:#d62728;stroke:#d62728;" x="152.774137" xlink:href="#m37fb7e397c" y="276.461863"/>
     <use style="fill:#d62728;stroke:#d62728;" x="155.154938" xlink:href="#m37fb7e397c" y="272.222257"/>
     <use style="fill:#d62728;stroke:#d62728;" x="157.535738" xlink:href="#m37fb7e397c" y="217.913685"/>
     <use style="fill:#d62728;stroke:#d62728;" x="159.916538" xlink:href="#m37fb7e397c" y="158.626828"/>
     <use style="fill:#d62728;stroke:#d62728;" x="162.297338" xlink:href="#m37fb7e397c" y="115.210828"/>
     <use style="fill:#d62728;stroke:#d62728;" x="164.678138" xlink:href="#m37fb7e397c" y="128.860828"/>
     <use style="fill:#d62728;stroke:#d62728;" x="167.058938" xlink:href="#m37fb7e397c" y="197.772016"/>
     <use style="fill:#d62728;stroke:#d62728;" x="169.439738" xlink:href="#m37fb7e397c" y="247.675176"/>
    </g>
   </g>
   <g id="line2d_33">
    <path clip-path="url(#peb8b40d18d)" d="M 100.991737 276.918753 
L 104.562938 271.85728 
L 108.134138 272.358028 
L 111.705338 276.770828 
L 115.276538 267.810828 
L 118.847738 164.475444 
L 122.418938 125.836395 
L 125.990138 187.170828 
L 129.561338 276.306438 
L 133.132538 272.423897 
L 136.703738 276.83671 
" style="fill:none;stroke:#d62728;stroke-linecap:square;stroke-width:1.5;"/>
    <g clip-path="url(#peb8b40d18d)">
     <use style="fill:#d62728;stroke:#d62728;" x="100.991737" xlink:href="#m37fb7e397c" y="276.918753"/>
     <use style="fill:#d62728;stroke:#d62728;" x="104.562938" xlink:href="#m37fb7e397c" y="271.85728"/>
     <use style="fill:#d62728;stroke:#d62728;" x="108.134138" xlink:href="#m37fb7e397c" y="272.358028"/>
     <use style="fill:#d62728;stroke:#d62728;" x="111.705338" xlink:href="#m37fb7e397c" y="276.770828"/>
     <use style="fill:#d62728;stroke:#d62728;" x="115.276538" xlink:href="#m37fb7e397c" y="267.810828"/>
     <use style="fill:#d62728;stroke:#d62728;" x="118.847738" xlink:href="#m37fb7e397c" y="164.475444"/>
     <use style="fill:#d62728;stroke:#d62728;" x="122.418938" xlink:href="#m37fb7e397c" y="125.836395"/>
     <use style="fill:#d62728;stroke:#d62728;" x="125.990138" xlink:href="#m37fb7e397c" y="187.170828"/>
     <use style="fill:#d62728;stroke:#d62728;" x="129.561338" xlink:href="#m37fb7e397c" y="276.306438"/>
     <use style="fill:#d62728;stroke:#d62728;" x="133.132538" xlink:href="#m37fb7e397c" y="272.423897"/>
     <use style="fill:#d62728;stroke:#d62728;" x="136.703738" xlink:href="#m37fb7e397c" y="276.83671"/>
    </g>
   </g>
   <g id="line2d_34">
    <path clip-path="url(#peb8b40d18d)" d="M 178.367738 273.157925 
L 181.343738 277.030828 
L 184.319738 277.076875 
L 187.295737 275.896221 
L 190.271738 277.042544 
L 193.247738 271.176915 
L 196.223738 275.620002 
L 199.199738 262.704946 
L 202.175738 210.526122 
L 205.151738 146.328581 
L 208.127737 149.811524 
L 211.103737 225.880828 
L 214.079738 264.226828 
L 217.055738 271.700059 
L 220.031737 276.676512 
L 223.007738 272.488475 
L 225.983738 276.651679 
L 228.959737 276.793228 
L 231.935737 276.793228 
L 234.911738 263.170828 
L 237.887738 248.980828 
L 240.863737 250.467462 
L 243.839737 179.096982 
L 246.815738 207.803489 
L 249.791737 239.740828 
L 252.767737 260.002828 
L 255.743738 268.450828 
L 258.719738 272.080828 
L 261.695737 272.423897 
L 264.671737 273.017315 
L 267.647738 276.626312 
L 270.623738 267.339249 
L 273.599737 267.5799 
L 276.575738 245.067971 
L 279.551738 259.10929 
L 282.527737 247.330828 
L 285.503737 256.58566 
L 288.479738 234.186998 
L 291.455738 253.06019 
L 294.431737 271.779524 
L 297.407738 271.933381 
L 300.383738 276.770828 
L 303.359737 271.933381 
L 306.335737 267.696542 
L 309.311738 263.792005 
L 312.287738 257.778488 
L 315.263737 267.922828 
L 318.239737 253.333354 
L 321.215738 245.410828 
L 324.191737 248.664723 
L 327.167737 259.250036 
L 330.143738 268.648211 
L 333.119738 266.552401 
L 336.095737 271.275014 
L 339.071737 272.290828 
L 342.047738 272.488475 
L 345.023738 267.696542 
L 347.999737 276.815185 
L 350.975738 276.83671 
L 353.951738 256.631379 
L 356.927737 263.487628 
L 359.903737 255.555444 
L 362.879738 271.700059 
L 365.855738 252.496046 
L 368.831737 271.535772 
L 371.807738 276.370828 
L 374.783738 272.734602 
L 377.759737 276.747971 
L 380.735737 276.676512 
L 383.711738 273.175039 
L 386.687738 276.651679 
L 389.663737 263.330828 
L 392.639737 257.316915 
L 395.615738 262.670618 
L 398.591737 257.316915 
L 401.567737 248.012118 
L 404.543738 272.007881 
L 407.519738 276.747971 
L 410.495737 276.898828 
L 413.471737 276.519143 
L 416.447738 276.747971 
L 419.423738 276.490828 
L 422.399737 266.552401 
L 425.375738 272.793258 
L 428.351738 264.503165 
L 431.327737 268.24578 
L 434.303737 253.06019 
L 437.279738 262.670618 
L 440.255738 244.104161 
L 443.231737 267.922828 
L 446.207738 257.550183 
L 449.183738 268.34929 
L 452.159737 272.222257 
L 455.135737 276.815185 
L 458.111738 276.724643 
L 461.087738 276.626312 
L 464.063737 273.175039 
L 467.039737 267.922828 
L 470.015738 271.779524 
L 472.991737 276.724643 
L 475.967737 263.641323 
L 478.943738 262.496786 
" style="fill:none;stroke:#d62728;stroke-linecap:square;stroke-width:1.5;"/>
    <g clip-path="url(#peb8b40d18d)">
     <use style="fill:#d62728;stroke:#d62728;" x="178.367738" xlink:href="#m37fb7e397c" y="273.157925"/>
     <use style="fill:#d62728;stroke:#d62728;" x="181.343738" xlink:href="#m37fb7e397c" y="277.030828"/>
     <use style="fill:#d62728;stroke:#d62728;" x="184.319738" xlink:href="#m37fb7e397c" y="277.076875"/>
     <use style="fill:#d62728;stroke:#d62728;" x="187.295737" xlink:href="#m37fb7e397c" y="275.896221"/>
     <use style="fill:#d62728;stroke:#d62728;" x="190.271738" xlink:href="#m37fb7e397c" y="277.042544"/>
     <use style="fill:#d62728;stroke:#d62728;" x="193.247738" xlink:href="#m37fb7e397c" y="271.176915"/>
     <use style="fill:#d62728;stroke:#d62728;" x="196.223738" xlink:href="#m37fb7e397c" y="275.620002"/>
     <use style="fill:#d62728;stroke:#d62728;" x="199.199738" xlink:href="#m37fb7e397c" y="262.704946"/>
     <use style="fill:#d62728;stroke:#d62728;" x="202.175738" xlink:href="#m37fb7e397c" y="210.526122"/>
     <use style="fill:#d62728;stroke:#d62728;" x="205.151738" xlink:href="#m37fb7e397c" y="146.328581"/>
     <use style="fill:#d62728;stroke:#d62728;" x="208.127737" xlink:href="#m37fb7e397c" y="149.811524"/>
     <use style="fill:#d62728;stroke:#d62728;" x="211.103737" xlink:href="#m37fb7e397c" y="225.880828"/>
     <use style="fill:#d62728;stroke:#d62728;" x="214.079738" xlink:href="#m37fb7e397c" y="264.226828"/>
     <use style="fill:#d62728;stroke:#d62728;" x="217.055738" xlink:href="#m37fb7e397c" y="271.700059"/>
     <use style="fill:#d62728;stroke:#d62728;" x="220.031737" xlink:href="#m37fb7e397c" y="276.676512"/>
     <use style="fill:#d62728;stroke:#d62728;" x="223.007738" xlink:href="#m37fb7e397c" y="272.488475"/>
     <use style="fill:#d62728;stroke:#d62728;" x="225.983738" xlink:href="#m37fb7e397c" y="276.651679"/>
     <use style="fill:#d62728;stroke:#d62728;" x="228.959737" xlink:href="#m37fb7e397c" y="276.793228"/>
     <use style="fill:#d62728;stroke:#d62728;" x="231.935737" xlink:href="#m37fb7e397c" y="276.793228"/>
     <use style="fill:#d62728;stroke:#d62728;" x="234.911738" xlink:href="#m37fb7e397c" y="263.170828"/>
     <use style="fill:#d62728;stroke:#d62728;" x="237.887738" xlink:href="#m37fb7e397c" y="248.980828"/>
     <use style="fill:#d62728;stroke:#d62728;" x="240.863737" xlink:href="#m37fb7e397c" y="250.467462"/>
     <use style="fill:#d62728;stroke:#d62728;" x="243.839737" xlink:href="#m37fb7e397c" y="179.096982"/>
     <use style="fill:#d62728;stroke:#d62728;" x="246.815738" xlink:href="#m37fb7e397c" y="207.803489"/>
     <use style="fill:#d62728;stroke:#d62728;" x="249.791737" xlink:href="#m37fb7e397c" y="239.740828"/>
     <use style="fill:#d62728;stroke:#d62728;" x="252.767737" xlink:href="#m37fb7e397c" y="260.002828"/>
     <use style="fill:#d62728;stroke:#d62728;" x="255.743738" xlink:href="#m37fb7e397c" y="268.450828"/>
     <use style="fill:#d62728;stroke:#d62728;" x="258.719738" xlink:href="#m37fb7e397c" y="272.080828"/>
     <use style="fill:#d62728;stroke:#d62728;" x="261.695737" xlink:href="#m37fb7e397c" y="272.423897"/>
     <use style="fill:#d62728;stroke:#d62728;" x="264.671737" xlink:href="#m37fb7e397c" y="273.017315"/>
     <use style="fill:#d62728;stroke:#d62728;" x="267.647738" xlink:href="#m37fb7e397c" y="276.626312"/>
     <use style="fill:#d62728;stroke:#d62728;" x="270.623738" xlink:href="#m37fb7e397c" y="267.339249"/>
     <use style="fill:#d62728;stroke:#d62728;" x="273.599737" xlink:href="#m37fb7e397c" y="267.5799"/>
     <use style="fill:#d62728;stroke:#d62728;" x="276.575738" xlink:href="#m37fb7e397c" y="245.067971"/>
     <use style="fill:#d62728;stroke:#d62728;" x="279.551738" xlink:href="#m37fb7e397c" y="259.10929"/>
     <use style="fill:#d62728;stroke:#d62728;" x="282.527737" xlink:href="#m37fb7e397c" y="247.330828"/>
     <use style="fill:#d62728;stroke:#d62728;" x="285.503737" xlink:href="#m37fb7e397c" y="256.58566"/>
     <use style="fill:#d62728;stroke:#d62728;" x="288.479738" xlink:href="#m37fb7e397c" y="234.186998"/>
     <use style="fill:#d62728;stroke:#d62728;" x="291.455738" xlink:href="#m37fb7e397c" y="253.06019"/>
     <use style="fill:#d62728;stroke:#d62728;" x="294.431737" xlink:href="#m37fb7e397c" y="271.779524"/>
     <use style="fill:#d62728;stroke:#d62728;" x="297.407738" xlink:href="#m37fb7e397c" y="271.933381"/>
     <use style="fill:#d62728;stroke:#d62728;" x="300.383738" xlink:href="#m37fb7e397c" y="276.770828"/>
     <use style="fill:#d62728;stroke:#d62728;" x="303.359737" xlink:href="#m37fb7e397c" y="271.933381"/>
     <use style="fill:#d62728;stroke:#d62728;" x="306.335737" xlink:href="#m37fb7e397c" y="267.696542"/>
     <use style="fill:#d62728;stroke:#d62728;" x="309.311738" xlink:href="#m37fb7e397c" y="263.792005"/>
     <use style="fill:#d62728;stroke:#d62728;" x="312.287738" xlink:href="#m37fb7e397c" y="257.778488"/>
     <use style="fill:#d62728;stroke:#d62728;" x="315.263737" xlink:href="#m37fb7e397c" y="267.922828"/>
     <use style="fill:#d62728;stroke:#d62728;" x="318.239737" xlink:href="#m37fb7e397c" y="253.333354"/>
     <use style="fill:#d62728;stroke:#d62728;" x="321.215738" xlink:href="#m37fb7e397c" y="245.410828"/>
     <use style="fill:#d62728;stroke:#d62728;" x="324.191737" xlink:href="#m37fb7e397c" y="248.664723"/>
     <use style="fill:#d62728;stroke:#d62728;" x="327.167737" xlink:href="#m37fb7e397c" y="259.250036"/>
     <use style="fill:#d62728;stroke:#d62728;" x="330.143738" xlink:href="#m37fb7e397c" y="268.648211"/>
     <use style="fill:#d62728;stroke:#d62728;" x="333.119738" xlink:href="#m37fb7e397c" y="266.552401"/>
     <use style="fill:#d62728;stroke:#d62728;" x="336.095737" xlink:href="#m37fb7e397c" y="271.275014"/>
     <use style="fill:#d62728;stroke:#d62728;" x="339.071737" xlink:href="#m37fb7e397c" y="272.290828"/>
     <use style="fill:#d62728;stroke:#d62728;" x="342.047738" xlink:href="#m37fb7e397c" y="272.488475"/>
     <use style="fill:#d62728;stroke:#d62728;" x="345.023738" xlink:href="#m37fb7e397c" y="267.696542"/>
     <use style="fill:#d62728;stroke:#d62728;" x="347.999737" xlink:href="#m37fb7e397c" y="276.815185"/>
     <use style="fill:#d62728;stroke:#d62728;" x="350.975738" xlink:href="#m37fb7e397c" y="276.83671"/>
     <use style="fill:#d62728;stroke:#d62728;" x="353.951738" xlink:href="#m37fb7e397c" y="256.631379"/>
     <use style="fill:#d62728;stroke:#d62728;" x="356.927737" xlink:href="#m37fb7e397c" y="263.487628"/>
     <use style="fill:#d62728;stroke:#d62728;" x="359.903737" xlink:href="#m37fb7e397c" y="255.555444"/>
     <use style="fill:#d62728;stroke:#d62728;" x="362.879738" xlink:href="#m37fb7e397c" y="271.700059"/>
     <use style="fill:#d62728;stroke:#d62728;" x="365.855738" xlink:href="#m37fb7e397c" y="252.496046"/>
     <use style="fill:#d62728;stroke:#d62728;" x="368.831737" xlink:href="#m37fb7e397c" y="271.535772"/>
     <use style="fill:#d62728;stroke:#d62728;" x="371.807738" xlink:href="#m37fb7e397c" y="276.370828"/>
     <use style="fill:#d62728;stroke:#d62728;" x="374.783738" xlink:href="#m37fb7e397c" y="272.734602"/>
     <use style="fill:#d62728;stroke:#d62728;" x="377.759737" xlink:href="#m37fb7e397c" y="276.747971"/>
     <use style="fill:#d62728;stroke:#d62728;" x="380.735737" xlink:href="#m37fb7e397c" y="276.676512"/>
     <use style="fill:#d62728;stroke:#d62728;" x="383.711738" xlink:href="#m37fb7e397c" y="273.175039"/>
     <use style="fill:#d62728;stroke:#d62728;" x="386.687738" xlink:href="#m37fb7e397c" y="276.651679"/>
     <use style="fill:#d62728;stroke:#d62728;" x="389.663737" xlink:href="#m37fb7e397c" y="263.330828"/>
     <use style="fill:#d62728;stroke:#d62728;" x="392.639737" xlink:href="#m37fb7e397c" y="257.316915"/>
     <use style="fill:#d62728;stroke:#d62728;" x="395.615738" xlink:href="#m37fb7e397c" y="262.670618"/>
     <use style="fill:#d62728;stroke:#d62728;" x="398.591737" xlink:href="#m37fb7e397c" y="257.316915"/>
     <use style="fill:#d62728;stroke:#d62728;" x="401.567737" xlink:href="#m37fb7e397c" y="248.012118"/>
     <use style="fill:#d62728;stroke:#d62728;" x="404.543738" xlink:href="#m37fb7e397c" y="272.007881"/>
     <use style="fill:#d62728;stroke:#d62728;" x="407.519738" xlink:href="#m37fb7e397c" y="276.747971"/>
     <use style="fill:#d62728;stroke:#d62728;" x="410.495737" xlink:href="#m37fb7e397c" y="276.898828"/>
     <use style="fill:#d62728;stroke:#d62728;" x="413.471737" xlink:href="#m37fb7e397c" y="276.519143"/>
     <use style="fill:#d62728;stroke:#d62728;" x="416.447738" xlink:href="#m37fb7e397c" y="276.747971"/>
     <use style="fill:#d62728;stroke:#d62728;" x="419.423738" xlink:href="#m37fb7e397c" y="276.490828"/>
     <use style="fill:#d62728;stroke:#d62728;" x="422.399737" xlink:href="#m37fb7e397c" y="266.552401"/>
     <use style="fill:#d62728;stroke:#d62728;" x="425.375738" xlink:href="#m37fb7e397c" y="272.793258"/>
     <use style="fill:#d62728;stroke:#d62728;" x="428.351738" xlink:href="#m37fb7e397c" y="264.503165"/>
     <use style="fill:#d62728;stroke:#d62728;" x="431.327737" xlink:href="#m37fb7e397c" y="268.24578"/>
     <use style="fill:#d62728;stroke:#d62728;" x="434.303737" xlink:href="#m37fb7e397c" y="253.06019"/>
     <use style="fill:#d62728;stroke:#d62728;" x="437.279738" xlink:href="#m37fb7e397c" y="262.670618"/>
     <use style="fill:#d62728;stroke:#d62728;" x="440.255738" xlink:href="#m37fb7e397c" y="244.104161"/>
     <use style="fill:#d62728;stroke:#d62728;" x="443.231737" xlink:href="#m37fb7e397c" y="267.922828"/>
     <use style="fill:#d62728;stroke:#d62728;" x="446.207738" xlink:href="#m37fb7e397c" y="257.550183"/>
     <use style="fill:#d62728;stroke:#d62728;" x="449.183738" xlink:href="#m37fb7e397c" y="268.34929"/>
     <use style="fill:#d62728;stroke:#d62728;" x="452.159737" xlink:href="#m37fb7e397c" y="272.222257"/>
     <use style="fill:#d62728;stroke:#d62728;" x="455.135737" xlink:href="#m37fb7e397c" y="276.815185"/>
     <use style="fill:#d62728;stroke:#d62728;" x="458.111738" xlink:href="#m37fb7e397c" y="276.724643"/>
     <use style="fill:#d62728;stroke:#d62728;" x="461.087738" xlink:href="#m37fb7e397c" y="276.626312"/>
     <use style="fill:#d62728;stroke:#d62728;" x="464.063737" xlink:href="#m37fb7e397c" y="273.175039"/>
     <use style="fill:#d62728;stroke:#d62728;" x="467.039737" xlink:href="#m37fb7e397c" y="267.922828"/>
     <use style="fill:#d62728;stroke:#d62728;" x="470.015738" xlink:href="#m37fb7e397c" y="271.779524"/>
     <use style="fill:#d62728;stroke:#d62728;" x="472.991737" xlink:href="#m37fb7e397c" y="276.724643"/>
     <use style="fill:#d62728;stroke:#d62728;" x="475.967737" xlink:href="#m37fb7e397c" y="263.641323"/>
     <use style="fill:#d62728;stroke:#d62728;" x="478.943738" xlink:href="#m37fb7e397c" y="262.496786"/>
    </g>
   </g>
   <g id="line2d_35">
    <path clip-path="url(#peb8b40d18d)" d="M 66.172538 276.105675 
L 68.553337 276.27305 
L 70.934138 276.130828 
L 73.314937 230.242031 
L 75.695737 188.889184 
L 78.076538 102.610828 
L 80.457337 81.996579 
L 82.838137 99.780143 
L 85.218938 207.062028 
L 87.599737 263.747994 
L 89.980538 274.447865 
" style="fill:none;stroke:#1f77b4;stroke-linecap:square;stroke-width:1.5;"/>
    <defs>
     <path d="M -3 3 
L 3 3 
L 3 -3 
L -3 -3 
z
" id="m37ad8151a6" style="stroke:#1f77b4;stroke-linejoin:miter;"/>
    </defs>
    <g clip-path="url(#peb8b40d18d)">
     <use style="fill:#1f77b4;stroke:#1f77b4;stroke-linejoin:miter;" x="66.172538" xlink:href="#m37ad8151a6" y="276.105675"/>
     <use style="fill:#1f77b4;stroke:#1f77b4;stroke-linejoin:miter;" x="68.553337" xlink:href="#m37ad8151a6" y="276.27305"/>
     <use style="fill:#1f77b4;stroke:#1f77b4;stroke-linejoin:miter;" x="70.934138" xlink:href="#m37ad8151a6" y="276.130828"/>
     <use style="fill:#1f77b4;stroke:#1f77b4;stroke-linejoin:miter;" x="73.314937" xlink:href="#m37ad8151a6" y="230.242031"/>
     <use style="fill:#1f77b4;stroke:#1f77b4;stroke-linejoin:miter;" x="75.695737" xlink:href="#m37ad8151a6" y="188.889184"/>
     <use style="fill:#1f77b4;stroke:#1f77b4;stroke-linejoin:miter;" x="78.076538" xlink:href="#m37ad8151a6" y="102.610828"/>
     <use style="fill:#1f77b4;stroke:#1f77b4;stroke-linejoin:miter;" x="80.457337" xlink:href="#m37ad8151a6" y="81.996579"/>
     <use style="fill:#1f77b4;stroke:#1f77b4;stroke-linejoin:miter;" x="82.838137" xlink:href="#m37ad8151a6" y="99.780143"/>
     <use style="fill:#1f77b4;stroke:#1f77b4;stroke-linejoin:miter;" x="85.218938" xlink:href="#m37ad8151a6" y="207.062028"/>
     <use style="fill:#1f77b4;stroke:#1f77b4;stroke-linejoin:miter;" x="87.599737" xlink:href="#m37ad8151a6" y="263.747994"/>
     <use style="fill:#1f77b4;stroke:#1f77b4;stroke-linejoin:miter;" x="89.980538" xlink:href="#m37ad8151a6" y="274.447865"/>
    </g>
   </g>
   <g id="line2d_36">
    <path clip-path="url(#peb8b40d18d)" d="M 149.500537 278.025228 
L 151.881337 277.99358 
L 154.262138 268.2172 
L 156.642937 273.92459 
L 159.023738 269.938828 
L 161.404537 265.47618 
L 163.785337 268.541472 
L 166.166138 274.14767 
L 168.546937 272.018396 
L 170.927737 278.002828 
L 173.308538 274.312523 
" style="fill:none;stroke:#1f77b4;stroke-linecap:square;stroke-width:1.5;"/>
    <g clip-path="url(#peb8b40d18d)">
     <use style="fill:#1f77b4;stroke:#1f77b4;stroke-linejoin:miter;" x="149.500537" xlink:href="#m37ad8151a6" y="278.025228"/>
     <use style="fill:#1f77b4;stroke:#1f77b4;stroke-linejoin:miter;" x="151.881337" xlink:href="#m37ad8151a6" y="277.99358"/>
     <use style="fill:#1f77b4;stroke:#1f77b4;stroke-linejoin:miter;" x="154.262138" xlink:href="#m37ad8151a6" y="268.2172"/>
     <use style="fill:#1f77b4;stroke:#1f77b4;stroke-linejoin:miter;" x="156.642937" xlink:href="#m37ad8151a6" y="273.92459"/>
     <use style="fill:#1f77b4;stroke:#1f77b4;stroke-linejoin:miter;" x="159.023738" xlink:href="#m37ad8151a6" y="269.938828"/>
     <use style="fill:#1f77b4;stroke:#1f77b4;stroke-linejoin:miter;" x="161.404537" xlink:href="#m37ad8151a6" y="265.47618"/>
     <use style="fill:#1f77b4;stroke:#1f77b4;stroke-linejoin:miter;" x="163.785337" xlink:href="#m37ad8151a6" y="268.541472"/>
     <use style="fill:#1f77b4;stroke:#1f77b4;stroke-linejoin:miter;" x="166.166138" xlink:href="#m37ad8151a6" y="274.14767"/>
     <use style="fill:#1f77b4;stroke:#1f77b4;stroke-linejoin:miter;" x="168.546937" xlink:href="#m37ad8151a6" y="272.018396"/>
     <use style="fill:#1f77b4;stroke:#1f77b4;stroke-linejoin:miter;" x="170.927737" xlink:href="#m37ad8151a6" y="278.002828"/>
     <use style="fill:#1f77b4;stroke:#1f77b4;stroke-linejoin:miter;" x="173.308538" xlink:href="#m37ad8151a6" y="274.312523"/>
    </g>
   </g>
   <g id="line2d_37">
    <path clip-path="url(#peb8b40d18d)" d="M 173.308538 278.123788 
L 179.260537 278.054966 
L 185.212538 274.210828 
L 191.164537 278.113014 
L 197.116538 274.390828 
L 203.068537 276.519143 
L 209.020537 274.409998 
L 214.972538 276.452059 
L 220.924537 276.27305 
L 226.876538 278.113014 
L 232.828537 276.52844 
L 238.780538 267.339249 
L 244.732537 278.137757 
L 250.684538 272.776611 
L 256.636537 278.094464 
L 262.588537 274.352005 
L 268.540538 274.390828 
L 274.492537 274.485114 
L 280.444538 270.797495 
L 286.396537 276.519143 
L 292.348538 278.109365 
L 298.300537 274.332347 
L 304.252537 276.092933 
L 310.204537 278.086828 
L 316.156537 278.116635 
L 322.108538 272.405211 
L 328.060537 276.328247 
L 334.012538 278.144578 
L 339.964537 274.610828 
L 345.916538 278.164416 
L 351.868537 268.761416 
L 357.820537 274.503511 
L 363.772538 273.970828 
L 369.724537 278.144578 
L 375.676538 272.826286 
L 381.628537 276.519143 
L 387.580538 276.339021 
L 393.532537 274.485114 
L 399.484538 271.214578 
L 405.436537 278.141181 
L 411.388537 274.610828 
L 417.340538 274.610828 
L 423.292537 273.017315 
L 429.244538 276.370828 
L 435.196537 271.090828 
L 441.148538 274.610828 
L 447.100537 278.180266 
L 453.052537 276.391616 
L 459.004537 274.352005 
L 464.956537 276.306438 
L 470.908538 272.700584 
" style="fill:none;stroke:#1f77b4;stroke-linecap:square;stroke-width:1.5;"/>
    <g clip-path="url(#peb8b40d18d)">
     <use style="fill:#1f77b4;stroke:#1f77b4;stroke-linejoin:miter;" x="173.308538" xlink:href="#m37ad8151a6" y="278.123788"/>
     <use style="fill:#1f77b4;stroke:#1f77b4;stroke-linejoin:miter;" x="179.260537" xlink:href="#m37ad8151a6" y="278.054966"/>
     <use style="fill:#1f77b4;stroke:#1f77b4;stroke-linejoin:miter;" x="185.212538" xlink:href="#m37ad8151a6" y="274.210828"/>
     <use style="fill:#1f77b4;stroke:#1f77b4;stroke-linejoin:miter;" x="191.164537" xlink:href="#m37ad8151a6" y="278.113014"/>
     <use style="fill:#1f77b4;stroke:#1f77b4;stroke-linejoin:miter;" x="197.116538" xlink:href="#m37ad8151a6" y="274.390828"/>
     <use style="fill:#1f77b4;stroke:#1f77b4;stroke-linejoin:miter;" x="203.068537" xlink:href="#m37ad8151a6" y="276.519143"/>
     <use style="fill:#1f77b4;stroke:#1f77b4;stroke-linejoin:miter;" x="209.020537" xlink:href="#m37ad8151a6" y="274.409998"/>
     <use style="fill:#1f77b4;stroke:#1f77b4;stroke-linejoin:miter;" x="214.972538" xlink:href="#m37ad8151a6" y="276.452059"/>
     <use style="fill:#1f77b4;stroke:#1f77b4;stroke-linejoin:miter;" x="220.924537" xlink:href="#m37ad8151a6" y="276.27305"/>
     <use style="fill:#1f77b4;stroke:#1f77b4;stroke-linejoin:miter;" x="226.876538" xlink:href="#m37ad8151a6" y="278.113014"/>
     <use style="fill:#1f77b4;stroke:#1f77b4;stroke-linejoin:miter;" x="232.828537" xlink:href="#m37ad8151a6" y="276.52844"/>
     <use style="fill:#1f77b4;stroke:#1f77b4;stroke-linejoin:miter;" x="238.780538" xlink:href="#m37ad8151a6" y="267.339249"/>
     <use style="fill:#1f77b4;stroke:#1f77b4;stroke-linejoin:miter;" x="244.732537" xlink:href="#m37ad8151a6" y="278.137757"/>
     <use style="fill:#1f77b4;stroke:#1f77b4;stroke-linejoin:miter;" x="250.684538" xlink:href="#m37ad8151a6" y="272.776611"/>
     <use style="fill:#1f77b4;stroke:#1f77b4;stroke-linejoin:miter;" x="256.636537" xlink:href="#m37ad8151a6" y="278.094464"/>
     <use style="fill:#1f77b4;stroke:#1f77b4;stroke-linejoin:miter;" x="262.588537" xlink:href="#m37ad8151a6" y="274.352005"/>
     <use style="fill:#1f77b4;stroke:#1f77b4;stroke-linejoin:miter;" x="268.540538" xlink:href="#m37ad8151a6" y="274.390828"/>
     <use style="fill:#1f77b4;stroke:#1f77b4;stroke-linejoin:miter;" x="274.492537" xlink:href="#m37ad8151a6" y="274.485114"/>
     <use style="fill:#1f77b4;stroke:#1f77b4;stroke-linejoin:miter;" x="280.444538" xlink:href="#m37ad8151a6" y="270.797495"/>
     <use style="fill:#1f77b4;stroke:#1f77b4;stroke-linejoin:miter;" x="286.396537" xlink:href="#m37ad8151a6" y="276.519143"/>
     <use style="fill:#1f77b4;stroke:#1f77b4;stroke-linejoin:miter;" x="292.348538" xlink:href="#m37ad8151a6" y="278.109365"/>
     <use style="fill:#1f77b4;stroke:#1f77b4;stroke-linejoin:miter;" x="298.300537" xlink:href="#m37ad8151a6" y="274.332347"/>
     <use style="fill:#1f77b4;stroke:#1f77b4;stroke-linejoin:miter;" x="304.252537" xlink:href="#m37ad8151a6" y="276.092933"/>
     <use style="fill:#1f77b4;stroke:#1f77b4;stroke-linejoin:miter;" x="310.204537" xlink:href="#m37ad8151a6" y="278.086828"/>
     <use style="fill:#1f77b4;stroke:#1f77b4;stroke-linejoin:miter;" x="316.156537" xlink:href="#m37ad8151a6" y="278.116635"/>
     <use style="fill:#1f77b4;stroke:#1f77b4;stroke-linejoin:miter;" x="322.108538" xlink:href="#m37ad8151a6" y="272.405211"/>
     <use style="fill:#1f77b4;stroke:#1f77b4;stroke-linejoin:miter;" x="328.060537" xlink:href="#m37ad8151a6" y="276.328247"/>
     <use style="fill:#1f77b4;stroke:#1f77b4;stroke-linejoin:miter;" x="334.012538" xlink:href="#m37ad8151a6" y="278.144578"/>
     <use style="fill:#1f77b4;stroke:#1f77b4;stroke-linejoin:miter;" x="339.964537" xlink:href="#m37ad8151a6" y="274.610828"/>
     <use style="fill:#1f77b4;stroke:#1f77b4;stroke-linejoin:miter;" x="345.916538" xlink:href="#m37ad8151a6" y="278.164416"/>
     <use style="fill:#1f77b4;stroke:#1f77b4;stroke-linejoin:miter;" x="351.868537" xlink:href="#m37ad8151a6" y="268.761416"/>
     <use style="fill:#1f77b4;stroke:#1f77b4;stroke-linejoin:miter;" x="357.820537" xlink:href="#m37ad8151a6" y="274.503511"/>
     <use style="fill:#1f77b4;stroke:#1f77b4;stroke-linejoin:miter;" x="363.772538" xlink:href="#m37ad8151a6" y="273.970828"/>
     <use style="fill:#1f77b4;stroke:#1f77b4;stroke-linejoin:miter;" x="369.724537" xlink:href="#m37ad8151a6" y="278.144578"/>
     <use style="fill:#1f77b4;stroke:#1f77b4;stroke-linejoin:miter;" x="375.676538" xlink:href="#m37ad8151a6" y="272.826286"/>
     <use style="fill:#1f77b4;stroke:#1f77b4;stroke-linejoin:miter;" x="381.628537" xlink:href="#m37ad8151a6" y="276.519143"/>
     <use style="fill:#1f77b4;stroke:#1f77b4;stroke-linejoin:miter;" x="387.580538" xlink:href="#m37ad8151a6" y="276.339021"/>
     <use style="fill:#1f77b4;stroke:#1f77b4;stroke-linejoin:miter;" x="393.532537" xlink:href="#m37ad8151a6" y="274.485114"/>
     <use style="fill:#1f77b4;stroke:#1f77b4;stroke-linejoin:miter;" x="399.484538" xlink:href="#m37ad8151a6" y="271.214578"/>
     <use style="fill:#1f77b4;stroke:#1f77b4;stroke-linejoin:miter;" x="405.436537" xlink:href="#m37ad8151a6" y="278.141181"/>
     <use style="fill:#1f77b4;stroke:#1f77b4;stroke-linejoin:miter;" x="411.388537" xlink:href="#m37ad8151a6" y="274.610828"/>
     <use style="fill:#1f77b4;stroke:#1f77b4;stroke-linejoin:miter;" x="417.340538" xlink:href="#m37ad8151a6" y="274.610828"/>
     <use style="fill:#1f77b4;stroke:#1f77b4;stroke-linejoin:miter;" x="423.292537" xlink:href="#m37ad8151a6" y="273.017315"/>
     <use style="fill:#1f77b4;stroke:#1f77b4;stroke-linejoin:miter;" x="429.244538" xlink:href="#m37ad8151a6" y="276.370828"/>
     <use style="fill:#1f77b4;stroke:#1f77b4;stroke-linejoin:miter;" x="435.196537" xlink:href="#m37ad8151a6" y="271.090828"/>
     <use style="fill:#1f77b4;stroke:#1f77b4;stroke-linejoin:miter;" x="441.148538" xlink:href="#m37ad8151a6" y="274.610828"/>
     <use style="fill:#1f77b4;stroke:#1f77b4;stroke-linejoin:miter;" x="447.100537" xlink:href="#m37ad8151a6" y="278.180266"/>
     <use style="fill:#1f77b4;stroke:#1f77b4;stroke-linejoin:miter;" x="453.052537" xlink:href="#m37ad8151a6" y="276.391616"/>
     <use style="fill:#1f77b4;stroke:#1f77b4;stroke-linejoin:miter;" x="459.004537" xlink:href="#m37ad8151a6" y="274.352005"/>
     <use style="fill:#1f77b4;stroke:#1f77b4;stroke-linejoin:miter;" x="464.956537" xlink:href="#m37ad8151a6" y="276.306438"/>
     <use style="fill:#1f77b4;stroke:#1f77b4;stroke-linejoin:miter;" x="470.908538" xlink:href="#m37ad8151a6" y="272.700584"/>
    </g>
   </g>
   <g id="patch_3">
    <path d="M 61.410938 279.010828 
L 61.410938 12.898828 
" style="fill:none;stroke:#000000;stroke-linecap:square;stroke-linejoin:miter;stroke-width:0.8;"/>
   </g>
   <g id="patch_4">
    <path d="M 489.954938 279.010828 
L 489.954938 12.898828 
" style="fill:none;stroke:#000000;stroke-linecap:square;stroke-linejoin:miter;stroke-width:0.8;"/>
   </g>
   <g id="patch_5">
    <path d="M 61.410938 279.010828 
L 489.954938 279.010828 
" style="fill:none;stroke:#000000;stroke-linecap:square;stroke-linejoin:miter;stroke-width:0.8;"/>
   </g>
   <g id="patch_6">
    <path d="M 61.410938 12.898828 
L 489.954938 12.898828 
" style="fill:none;stroke:#000000;stroke-linecap:square;stroke-linejoin:miter;stroke-width:0.8;"/>
   </g>
   <g id="text_18">
    <!-- (A) -->
    <defs>
     <path d="M 34.1875 63.1875 
L 20.796875 26.90625 
L 47.609375 26.90625 
z
M 28.609375 72.90625 
L 39.796875 72.90625 
L 67.578125 0 
L 57.328125 0 
L 50.6875 18.703125 
L 17.828125 18.703125 
L 11.1875 0 
L 0.78125 0 
z
" id="DejaVuSans-41"/>
    </defs>
    <g transform="translate(69.743738 39.510028)scale(0.2 -0.2)">
     <use xlink:href="#DejaVuSans-28"/>
     <use x="39.013672" xlink:href="#DejaVuSans-41"/>
     <use x="107.421875" xlink:href="#DejaVuSans-29"/>
    </g>
   </g>
   <g id="legend_1">
    <g id="patch_7">
     <path d="M 328.954938 87.611328 
L 475.954938 87.611328 
Q 479.954938 87.611328 479.954938 83.611328 
L 479.954938 26.898828 
Q 479.954938 22.898828 475.954938 22.898828 
L 328.954938 22.898828 
Q 324.954938 22.898828 324.954938 26.898828 
L 324.954938 83.611328 
Q 324.954938 87.611328 328.954938 87.611328 
z
" style="fill:#ffffff;opacity:0.8;stroke:#cccccc;stroke-linejoin:miter;"/>
    </g>
    <g id="LineCollection_8">
     <path d="M 352.954938 49.095703 
L 352.954938 29.095703 
" style="fill:none;stroke:#d62728;stroke-width:1.5;"/>
    </g>
    <g id="line2d_38">
     <path d="M 332.954938 39.095703 
L 372.954938 39.095703 
" style="fill:none;stroke:#d62728;stroke-linecap:square;stroke-width:1.5;"/>
    </g>
    <g id="line2d_39">
     <g>
      <use style="fill:#d62728;stroke:#d62728;" x="352.954938" xlink:href="#m37fb7e397c" y="39.095703"/>
     </g>
    </g>
    <g id="text_19">
     <!-- $z$ initial -->
     <defs>
      <path d="M 11.625 54.6875 
L 54.296875 54.6875 
L 52.6875 46.484375 
L 11.53125 7.171875 
L 45.515625 7.171875 
L 44.09375 0 
L -0.296875 0 
L 1.3125 8.203125 
L 42.484375 47.515625 
L 10.203125 47.515625 
z
" id="DejaVuSans-Oblique-7a"/>
     </defs>
     <g transform="translate(388.954938 46.095703)scale(0.2 -0.2)">
      <use transform="translate(0 0.015625)" xlink:href="#DejaVuSans-Oblique-7a"/>
      <use transform="translate(52.490234 0.015625)" xlink:href="#DejaVuSans-20"/>
      <use transform="translate(84.277344 0.015625)" xlink:href="#DejaVuSans-69"/>
      <use transform="translate(112.060547 0.015625)" xlink:href="#DejaVuSans-6e"/>
      <use transform="translate(175.439453 0.015625)" xlink:href="#DejaVuSans-69"/>
      <use transform="translate(203.222656 0.015625)" xlink:href="#DejaVuSans-74"/>
      <use transform="translate(242.431641 0.015625)" xlink:href="#DejaVuSans-69"/>
      <use transform="translate(270.214844 0.015625)" xlink:href="#DejaVuSans-61"/>
      <use transform="translate(331.494141 0.015625)" xlink:href="#DejaVuSans-6c"/>
     </g>
    </g>
    <g id="LineCollection_9">
     <path d="M 352.954938 78.451953 
L 352.954938 58.451953 
" style="fill:none;stroke:#1f77b4;stroke-width:1.5;"/>
    </g>
    <g id="line2d_40">
     <path d="M 332.954938 68.451953 
L 372.954938 68.451953 
" style="fill:none;stroke:#1f77b4;stroke-linecap:square;stroke-width:1.5;"/>
    </g>
    <g id="line2d_41">
     <g>
      <use style="fill:#1f77b4;stroke:#1f77b4;stroke-linejoin:miter;" x="352.954938" xlink:href="#m37ad8151a6" y="68.451953"/>
     </g>
    </g>
    <g id="text_20">
     <!-- $z$ cooled -->
     <defs>
      <path d="M 45.40625 46.390625 
L 45.40625 75.984375 
L 54.390625 75.984375 
L 54.390625 0 
L 45.40625 0 
L 45.40625 8.203125 
Q 42.578125 3.328125 38.25 0.953125 
Q 33.9375 -1.421875 27.875 -1.421875 
Q 17.96875 -1.421875 11.734375 6.484375 
Q 5.515625 14.40625 5.515625 27.296875 
Q 5.515625 40.1875 11.734375 48.09375 
Q 17.96875 56 27.875 56 
Q 33.9375 56 38.25 53.625 
Q 42.578125 51.265625 45.40625 46.390625 
z
M 14.796875 27.296875 
Q 14.796875 17.390625 18.875 11.75 
Q 22.953125 6.109375 30.078125 6.109375 
Q 37.203125 6.109375 41.296875 11.75 
Q 45.40625 17.390625 45.40625 27.296875 
Q 45.40625 37.203125 41.296875 42.84375 
Q 37.203125 48.484375 30.078125 48.484375 
Q 22.953125 48.484375 18.875 42.84375 
Q 14.796875 37.203125 14.796875 27.296875 
z
" id="DejaVuSans-64"/>
     </defs>
     <g transform="translate(388.954938 75.451953)scale(0.2 -0.2)">
      <use transform="translate(0 0.015625)" xlink:href="#DejaVuSans-Oblique-7a"/>
      <use transform="translate(52.490234 0.015625)" xlink:href="#DejaVuSans-20"/>
      <use transform="translate(84.277344 0.015625)" xlink:href="#DejaVuSans-63"/>
      <use transform="translate(139.257812 0.015625)" xlink:href="#DejaVuSans-6f"/>
      <use transform="translate(200.439453 0.015625)" xlink:href="#DejaVuSans-6f"/>
      <use transform="translate(261.621094 0.015625)" xlink:href="#DejaVuSans-6c"/>
      <use transform="translate(289.404297 0.015625)" xlink:href="#DejaVuSans-65"/>
      <use transform="translate(350.927734 0.015625)" xlink:href="#DejaVuSans-64"/>
     </g>
    </g>
   </g>
  </g>
 </g>
 <defs>
  <clipPath id="peb8b40d18d">
   <rect height="266.112" width="428.544" x="61.410938" y="12.898828"/>
  </clipPath>
 </defs>
</svg>
