<?xml version="1.0" encoding="utf-8" standalone="no"?>
<!DOCTYPE svg PUBLIC "-//W3C//DTD SVG 1.1//EN"
  "http://www.w3.org/Graphics/SVG/1.1/DTD/svg11.dtd">
<!-- Created with matplotlib (http://matplotlib.org/) -->
<svg height="331pt" version="1.1" viewBox="0 0 429 331" width="429pt" xmlns="http://www.w3.org/2000/svg" xmlns:xlink="http://www.w3.org/1999/xlink">
 <defs>
  <style type="text/css">
*{stroke-linecap:butt;stroke-linejoin:round;}
  </style>
 </defs>
 <g id="figure_1">
  <g id="patch_1">
   <path d="M 0 331.128016 
L 429.230937 331.128016 
L 429.230937 0 
L 0 0 
z
" style="fill:none;"/>
  </g>
  <g id="axes_1">
   <g id="patch_2">
    <path d="M 61.410938 279.010828 
L 418.530938 279.010828 
L 418.530938 12.898828 
L 61.410938 12.898828 
z
" style="fill:none;"/>
   </g>
   <g id="matplotlib.axis_1">
    <g id="xtick_1">
     <g id="line2d_1">
      <path clip-path="url(#p304c686b55)" d="M 61.410938 279.010828 
L 61.410938 12.898828 
" style="fill:none;stroke:#b0b0b0;stroke-linecap:square;stroke-width:0.8;"/>
     </g>
     <g id="line2d_2">
      <defs>
       <path d="M 0 0 
L 0 3.5 
" id="m005f0a59be" style="stroke:#000000;stroke-width:0.8;"/>
      </defs>
      <g>
       <use style="stroke:#000000;stroke-width:0.8;" x="61.410938" xlink:href="#m005f0a59be" y="279.010828"/>
      </g>
     </g>
     <g id="text_1">
      <!-- 0 -->
      <defs>
       <path d="M 31.78125 66.40625 
Q 24.171875 66.40625 20.328125 58.90625 
Q 16.5 51.421875 16.5 36.375 
Q 16.5 21.390625 20.328125 13.890625 
Q 24.171875 6.390625 31.78125 6.390625 
Q 39.453125 6.390625 43.28125 13.890625 
Q 47.125 21.390625 47.125 36.375 
Q 47.125 51.421875 43.28125 58.90625 
Q 39.453125 66.40625 31.78125 66.40625 
z
M 31.78125 74.21875 
Q 44.046875 74.21875 50.515625 64.515625 
Q 56.984375 54.828125 56.984375 36.375 
Q 56.984375 17.96875 50.515625 8.265625 
Q 44.046875 -1.421875 31.78125 -1.421875 
Q 19.53125 -1.421875 13.0625 8.265625 
Q 6.59375 17.96875 6.59375 36.375 
Q 6.59375 54.828125 13.0625 64.515625 
Q 19.53125 74.21875 31.78125 74.21875 
z
" id="DejaVuSans-30"/>
      </defs>
      <g transform="translate(56.639063 297.408484)scale(0.15 -0.15)">
       <use xlink:href="#DejaVuSans-30"/>
      </g>
     </g>
    </g>
    <g id="xtick_2">
     <g id="line2d_3">
      <path clip-path="url(#p304c686b55)" d="M 124.063569 279.010828 
L 124.063569 12.898828 
" style="fill:none;stroke:#b0b0b0;stroke-linecap:square;stroke-width:0.8;"/>
     </g>
     <g id="line2d_4">
      <g>
       <use style="stroke:#000000;stroke-width:0.8;" x="124.063569" xlink:href="#m005f0a59be" y="279.010828"/>
      </g>
     </g>
     <g id="text_2">
      <!-- 50 -->
      <defs>
       <path d="M 10.796875 72.90625 
L 49.515625 72.90625 
L 49.515625 64.59375 
L 19.828125 64.59375 
L 19.828125 46.734375 
Q 21.96875 47.46875 24.109375 47.828125 
Q 26.265625 48.1875 28.421875 48.1875 
Q 40.625 48.1875 47.75 41.5 
Q 54.890625 34.8125 54.890625 23.390625 
Q 54.890625 11.625 47.5625 5.09375 
Q 40.234375 -1.421875 26.90625 -1.421875 
Q 22.3125 -1.421875 17.546875 -0.640625 
Q 12.796875 0.140625 7.71875 1.703125 
L 7.71875 11.625 
Q 12.109375 9.234375 16.796875 8.0625 
Q 21.484375 6.890625 26.703125 6.890625 
Q 35.15625 6.890625 40.078125 11.328125 
Q 45.015625 15.765625 45.015625 23.390625 
Q 45.015625 31 40.078125 35.4375 
Q 35.15625 39.890625 26.703125 39.890625 
Q 22.75 39.890625 18.8125 39.015625 
Q 14.890625 38.140625 10.796875 36.28125 
z
" id="DejaVuSans-35"/>
      </defs>
      <g transform="translate(114.519819 297.408484)scale(0.15 -0.15)">
       <use xlink:href="#DejaVuSans-35"/>
       <use x="63.623047" xlink:href="#DejaVuSans-30"/>
      </g>
     </g>
    </g>
    <g id="xtick_3">
     <g id="line2d_5">
      <path clip-path="url(#p304c686b55)" d="M 186.716201 279.010828 
L 186.716201 12.898828 
" style="fill:none;stroke:#b0b0b0;stroke-linecap:square;stroke-width:0.8;"/>
     </g>
     <g id="line2d_6">
      <g>
       <use style="stroke:#000000;stroke-width:0.8;" x="186.716201" xlink:href="#m005f0a59be" y="279.010828"/>
      </g>
     </g>
     <g id="text_3">
      <!-- 100 -->
      <defs>
       <path d="M 12.40625 8.296875 
L 28.515625 8.296875 
L 28.515625 63.921875 
L 10.984375 60.40625 
L 10.984375 69.390625 
L 28.421875 72.90625 
L 38.28125 72.90625 
L 38.28125 8.296875 
L 54.390625 8.296875 
L 54.390625 0 
L 12.40625 0 
z
" id="DejaVuSans-31"/>
      </defs>
      <g transform="translate(172.400576 297.408484)scale(0.15 -0.15)">
       <use xlink:href="#DejaVuSans-31"/>
       <use x="63.623047" xlink:href="#DejaVuSans-30"/>
       <use x="127.246094" xlink:href="#DejaVuSans-30"/>
      </g>
     </g>
    </g>
    <g id="xtick_4">
     <g id="line2d_7">
      <path clip-path="url(#p304c686b55)" d="M 249.368832 279.010828 
L 249.368832 12.898828 
" style="fill:none;stroke:#b0b0b0;stroke-linecap:square;stroke-width:0.8;"/>
     </g>
     <g id="line2d_8">
      <g>
       <use style="stroke:#000000;stroke-width:0.8;" x="249.368832" xlink:href="#m005f0a59be" y="279.010828"/>
      </g>
     </g>
     <g id="text_4">
      <!-- 150 -->
      <g transform="translate(235.053207 297.408484)scale(0.15 -0.15)">
       <use xlink:href="#DejaVuSans-31"/>
       <use x="63.623047" xlink:href="#DejaVuSans-35"/>
       <use x="127.246094" xlink:href="#DejaVuSans-30"/>
      </g>
     </g>
    </g>
    <g id="xtick_5">
     <g id="line2d_9">
      <path clip-path="url(#p304c686b55)" d="M 312.021464 279.010828 
L 312.021464 12.898828 
" style="fill:none;stroke:#b0b0b0;stroke-linecap:square;stroke-width:0.8;"/>
     </g>
     <g id="line2d_10">
      <g>
       <use style="stroke:#000000;stroke-width:0.8;" x="312.021464" xlink:href="#m005f0a59be" y="279.010828"/>
      </g>
     </g>
     <g id="text_5">
      <!-- 200 -->
      <defs>
       <path d="M 19.1875 8.296875 
L 53.609375 8.296875 
L 53.609375 0 
L 7.328125 0 
L 7.328125 8.296875 
Q 12.9375 14.109375 22.625 23.890625 
Q 32.328125 33.6875 34.8125 36.53125 
Q 39.546875 41.84375 41.421875 45.53125 
Q 43.3125 49.21875 43.3125 52.78125 
Q 43.3125 58.59375 39.234375 62.25 
Q 35.15625 65.921875 28.609375 65.921875 
Q 23.96875 65.921875 18.8125 64.3125 
Q 13.671875 62.703125 7.8125 59.421875 
L 7.8125 69.390625 
Q 13.765625 71.78125 18.9375 73 
Q 24.125 74.21875 28.421875 74.21875 
Q 39.75 74.21875 46.484375 68.546875 
Q 53.21875 62.890625 53.21875 53.421875 
Q 53.21875 48.921875 51.53125 44.890625 
Q 49.859375 40.875 45.40625 35.40625 
Q 44.1875 33.984375 37.640625 27.21875 
Q 31.109375 20.453125 19.1875 8.296875 
z
" id="DejaVuSans-32"/>
      </defs>
      <g transform="translate(297.705839 297.408484)scale(0.15 -0.15)">
       <use xlink:href="#DejaVuSans-32"/>
       <use x="63.623047" xlink:href="#DejaVuSans-30"/>
       <use x="127.246094" xlink:href="#DejaVuSans-30"/>
      </g>
     </g>
    </g>
    <g id="xtick_6">
     <g id="line2d_11">
      <path clip-path="url(#p304c686b55)" d="M 374.674095 279.010828 
L 374.674095 12.898828 
" style="fill:none;stroke:#b0b0b0;stroke-linecap:square;stroke-width:0.8;"/>
     </g>
     <g id="line2d_12">
      <g>
       <use style="stroke:#000000;stroke-width:0.8;" x="374.674095" xlink:href="#m005f0a59be" y="279.010828"/>
      </g>
     </g>
     <g id="text_6">
      <!-- 250 -->
      <g transform="translate(360.35847 297.408484)scale(0.15 -0.15)">
       <use xlink:href="#DejaVuSans-32"/>
       <use x="63.623047" xlink:href="#DejaVuSans-35"/>
       <use x="127.246094" xlink:href="#DejaVuSans-30"/>
      </g>
     </g>
    </g>
    <g id="text_7">
     <!-- Time ($\mu s$) -->
     <defs>
      <path d="M -0.296875 72.90625 
L 61.375 72.90625 
L 61.375 64.59375 
L 35.5 64.59375 
L 35.5 0 
L 25.59375 0 
L 25.59375 64.59375 
L -0.296875 64.59375 
z
" id="DejaVuSans-54"/>
      <path d="M 9.421875 54.6875 
L 18.40625 54.6875 
L 18.40625 0 
L 9.421875 0 
z
M 9.421875 75.984375 
L 18.40625 75.984375 
L 18.40625 64.59375 
L 9.421875 64.59375 
z
" id="DejaVuSans-69"/>
      <path d="M 52 44.1875 
Q 55.375 50.25 60.0625 53.125 
Q 64.75 56 71.09375 56 
Q 79.640625 56 84.28125 50.015625 
Q 88.921875 44.046875 88.921875 33.015625 
L 88.921875 0 
L 79.890625 0 
L 79.890625 32.71875 
Q 79.890625 40.578125 77.09375 44.375 
Q 74.3125 48.1875 68.609375 48.1875 
Q 61.625 48.1875 57.5625 43.546875 
Q 53.515625 38.921875 53.515625 30.90625 
L 53.515625 0 
L 44.484375 0 
L 44.484375 32.71875 
Q 44.484375 40.625 41.703125 44.40625 
Q 38.921875 48.1875 33.109375 48.1875 
Q 26.21875 48.1875 22.15625 43.53125 
Q 18.109375 38.875 18.109375 30.90625 
L 18.109375 0 
L 9.078125 0 
L 9.078125 54.6875 
L 18.109375 54.6875 
L 18.109375 46.1875 
Q 21.1875 51.21875 25.484375 53.609375 
Q 29.78125 56 35.6875 56 
Q 41.65625 56 45.828125 52.96875 
Q 50 49.953125 52 44.1875 
z
" id="DejaVuSans-6d"/>
      <path d="M 56.203125 29.59375 
L 56.203125 25.203125 
L 14.890625 25.203125 
Q 15.484375 15.921875 20.484375 11.0625 
Q 25.484375 6.203125 34.421875 6.203125 
Q 39.59375 6.203125 44.453125 7.46875 
Q 49.3125 8.734375 54.109375 11.28125 
L 54.109375 2.78125 
Q 49.265625 0.734375 44.1875 -0.34375 
Q 39.109375 -1.421875 33.890625 -1.421875 
Q 20.796875 -1.421875 13.15625 6.1875 
Q 5.515625 13.8125 5.515625 26.8125 
Q 5.515625 40.234375 12.765625 48.109375 
Q 20.015625 56 32.328125 56 
Q 43.359375 56 49.78125 48.890625 
Q 56.203125 41.796875 56.203125 29.59375 
z
M 47.21875 32.234375 
Q 47.125 39.59375 43.09375 43.984375 
Q 39.0625 48.390625 32.421875 48.390625 
Q 24.90625 48.390625 20.390625 44.140625 
Q 15.875 39.890625 15.1875 32.171875 
z
" id="DejaVuSans-65"/>
      <path id="DejaVuSans-20"/>
      <path d="M 31 75.875 
Q 24.46875 64.65625 21.28125 53.65625 
Q 18.109375 42.671875 18.109375 31.390625 
Q 18.109375 20.125 21.3125 9.0625 
Q 24.515625 -2 31 -13.1875 
L 23.1875 -13.1875 
Q 15.875 -1.703125 12.234375 9.375 
Q 8.59375 20.453125 8.59375 31.390625 
Q 8.59375 42.28125 12.203125 53.3125 
Q 15.828125 64.359375 23.1875 75.875 
z
" id="DejaVuSans-28"/>
      <path d="M -1.3125 -20.796875 
L 13.375 54.6875 
L 22.40625 54.6875 
L 15.765625 20.65625 
Q 15.578125 19.625 15.421875 18.359375 
Q 15.28125 17.09375 15.28125 15.828125 
Q 15.28125 11.28125 18.140625 8.828125 
Q 21 6.390625 26.3125 6.390625 
Q 33.546875 6.390625 37.984375 10.484375 
Q 42.4375 14.59375 44 22.796875 
L 50.203125 54.6875 
L 59.1875 54.6875 
L 51.03125 12.640625 
Q 50.828125 11.71875 50.75 11.03125 
Q 50.6875 10.359375 50.6875 9.8125 
Q 50.6875 8.296875 51.296875 7.59375 
Q 51.90625 6.890625 53.21875 6.890625 
Q 53.71875 6.890625 54.5625 7.125 
Q 55.421875 7.375 56.984375 8.015625 
L 55.609375 0.78125 
Q 53.46875 -0.296875 51.515625 -0.859375 
Q 49.5625 -1.421875 47.703125 -1.421875 
Q 44.484375 -1.421875 42.65625 0.625 
Q 40.828125 2.6875 40.828125 6.296875 
Q 38.09375 2.390625 34.296875 0.484375 
Q 30.515625 -1.421875 25.390625 -1.421875 
Q 20.84375 -1.421875 17.453125 0.671875 
Q 14.0625 2.78125 12.984375 6.203125 
L 7.71875 -20.796875 
z
" id="DejaVuSans-Oblique-3bc"/>
      <path d="M 50 53.078125 
L 48.296875 44.578125 
Q 44.734375 46.53125 40.765625 47.5 
Q 36.8125 48.484375 32.625 48.484375 
Q 25.53125 48.484375 21.453125 46.0625 
Q 17.390625 43.65625 17.390625 39.5 
Q 17.390625 34.671875 26.859375 32.078125 
Q 27.59375 31.890625 27.9375 31.78125 
L 30.8125 30.90625 
Q 39.796875 28.421875 42.796875 25.6875 
Q 45.796875 22.953125 45.796875 18.21875 
Q 45.796875 9.515625 38.890625 4.046875 
Q 31.984375 -1.421875 20.796875 -1.421875 
Q 16.453125 -1.421875 11.671875 -0.578125 
Q 6.890625 0.25 1.125 2 
L 2.875 11.28125 
Q 7.8125 8.734375 12.59375 7.421875 
Q 17.390625 6.109375 21.78125 6.109375 
Q 28.375 6.109375 32.5 8.9375 
Q 36.625 11.765625 36.625 16.109375 
Q 36.625 20.796875 25.78125 23.6875 
L 24.859375 23.921875 
L 21.78125 24.703125 
Q 14.9375 26.515625 11.765625 29.46875 
Q 8.59375 32.421875 8.59375 37.015625 
Q 8.59375 45.75 15.15625 50.875 
Q 21.734375 56 33.015625 56 
Q 37.453125 56 41.671875 55.265625 
Q 45.90625 54.546875 50 53.078125 
z
" id="DejaVuSans-Oblique-73"/>
      <path d="M 8.015625 75.875 
L 15.828125 75.875 
Q 23.140625 64.359375 26.78125 53.3125 
Q 30.421875 42.28125 30.421875 31.390625 
Q 30.421875 20.453125 26.78125 9.375 
Q 23.140625 -1.703125 15.828125 -13.1875 
L 8.015625 -13.1875 
Q 14.5 -2 17.703125 9.0625 
Q 20.90625 20.125 20.90625 31.390625 
Q 20.90625 42.671875 17.703125 53.65625 
Q 14.5 64.65625 8.015625 75.875 
z
" id="DejaVuSans-29"/>
     </defs>
     <g transform="translate(192.570938 319.728016)scale(0.2 -0.2)">
      <use transform="translate(0 0.015625)" xlink:href="#DejaVuSans-54"/>
      <use transform="translate(61.083984 0.015625)" xlink:href="#DejaVuSans-69"/>
      <use transform="translate(88.867188 0.015625)" xlink:href="#DejaVuSans-6d"/>
      <use transform="translate(186.279297 0.015625)" xlink:href="#DejaVuSans-65"/>
      <use transform="translate(247.802734 0.015625)" xlink:href="#DejaVuSans-20"/>
      <use transform="translate(279.589844 0.015625)" xlink:href="#DejaVuSans-28"/>
      <use transform="translate(318.603516 0.015625)" xlink:href="#DejaVuSans-Oblique-3bc"/>
      <use transform="translate(382.226562 0.015625)" xlink:href="#DejaVuSans-Oblique-73"/>
      <use transform="translate(434.326172 0.015625)" xlink:href="#DejaVuSans-29"/>
     </g>
    </g>
   </g>
   <g id="matplotlib.axis_2">
    <g id="ytick_1">
     <g id="line2d_13">
      <path clip-path="url(#p304c686b55)" d="M 61.410938 279.010828 
L 418.530938 279.010828 
" style="fill:none;stroke:#b0b0b0;stroke-linecap:square;stroke-width:0.8;"/>
     </g>
     <g id="line2d_14">
      <defs>
       <path d="M 0 0 
L -3.5 0 
" id="mc3ce260a5b" style="stroke:#000000;stroke-width:0.8;"/>
      </defs>
      <g>
       <use style="stroke:#000000;stroke-width:0.8;" x="61.410938" xlink:href="#mc3ce260a5b" y="279.010828"/>
      </g>
     </g>
     <g id="text_8">
      <!-- 0.0 -->
      <defs>
       <path d="M 10.6875 12.40625 
L 21 12.40625 
L 21 0 
L 10.6875 0 
z
" id="DejaVuSans-2e"/>
      </defs>
      <g transform="translate(30.55625 284.709656)scale(0.15 -0.15)">
       <use xlink:href="#DejaVuSans-30"/>
       <use x="63.623047" xlink:href="#DejaVuSans-2e"/>
       <use x="95.410156" xlink:href="#DejaVuSans-30"/>
      </g>
     </g>
    </g>
    <g id="ytick_2">
     <g id="line2d_15">
      <path clip-path="url(#p304c686b55)" d="M 61.410938 225.788428 
L 418.530938 225.788428 
" style="fill:none;stroke:#b0b0b0;stroke-linecap:square;stroke-width:0.8;"/>
     </g>
     <g id="line2d_16">
      <g>
       <use style="stroke:#000000;stroke-width:0.8;" x="61.410938" xlink:href="#mc3ce260a5b" y="225.788428"/>
      </g>
     </g>
     <g id="text_9">
      <!-- 0.2 -->
      <g transform="translate(30.55625 231.487256)scale(0.15 -0.15)">
       <use xlink:href="#DejaVuSans-30"/>
       <use x="63.623047" xlink:href="#DejaVuSans-2e"/>
       <use x="95.410156" xlink:href="#DejaVuSans-32"/>
      </g>
     </g>
    </g>
    <g id="ytick_3">
     <g id="line2d_17">
      <path clip-path="url(#p304c686b55)" d="M 61.410938 172.566028 
L 418.530938 172.566028 
" style="fill:none;stroke:#b0b0b0;stroke-linecap:square;stroke-width:0.8;"/>
     </g>
     <g id="line2d_18">
      <g>
       <use style="stroke:#000000;stroke-width:0.8;" x="61.410938" xlink:href="#mc3ce260a5b" y="172.566028"/>
      </g>
     </g>
     <g id="text_10">
      <!-- 0.4 -->
      <defs>
       <path d="M 37.796875 64.3125 
L 12.890625 25.390625 
L 37.796875 25.390625 
z
M 35.203125 72.90625 
L 47.609375 72.90625 
L 47.609375 25.390625 
L 58.015625 25.390625 
L 58.015625 17.1875 
L 47.609375 17.1875 
L 47.609375 0 
L 37.796875 0 
L 37.796875 17.1875 
L 4.890625 17.1875 
L 4.890625 26.703125 
z
" id="DejaVuSans-34"/>
      </defs>
      <g transform="translate(30.55625 178.264856)scale(0.15 -0.15)">
       <use xlink:href="#DejaVuSans-30"/>
       <use x="63.623047" xlink:href="#DejaVuSans-2e"/>
       <use x="95.410156" xlink:href="#DejaVuSans-34"/>
      </g>
     </g>
    </g>
    <g id="ytick_4">
     <g id="line2d_19">
      <path clip-path="url(#p304c686b55)" d="M 61.410938 119.343628 
L 418.530938 119.343628 
" style="fill:none;stroke:#b0b0b0;stroke-linecap:square;stroke-width:0.8;"/>
     </g>
     <g id="line2d_20">
      <g>
       <use style="stroke:#000000;stroke-width:0.8;" x="61.410938" xlink:href="#mc3ce260a5b" y="119.343628"/>
      </g>
     </g>
     <g id="text_11">
      <!-- 0.6 -->
      <defs>
       <path d="M 33.015625 40.375 
Q 26.375 40.375 22.484375 35.828125 
Q 18.609375 31.296875 18.609375 23.390625 
Q 18.609375 15.53125 22.484375 10.953125 
Q 26.375 6.390625 33.015625 6.390625 
Q 39.65625 6.390625 43.53125 10.953125 
Q 47.40625 15.53125 47.40625 23.390625 
Q 47.40625 31.296875 43.53125 35.828125 
Q 39.65625 40.375 33.015625 40.375 
z
M 52.59375 71.296875 
L 52.59375 62.3125 
Q 48.875 64.0625 45.09375 64.984375 
Q 41.3125 65.921875 37.59375 65.921875 
Q 27.828125 65.921875 22.671875 59.328125 
Q 17.53125 52.734375 16.796875 39.40625 
Q 19.671875 43.65625 24.015625 45.921875 
Q 28.375 48.1875 33.59375 48.1875 
Q 44.578125 48.1875 50.953125 41.515625 
Q 57.328125 34.859375 57.328125 23.390625 
Q 57.328125 12.15625 50.6875 5.359375 
Q 44.046875 -1.421875 33.015625 -1.421875 
Q 20.359375 -1.421875 13.671875 8.265625 
Q 6.984375 17.96875 6.984375 36.375 
Q 6.984375 53.65625 15.1875 63.9375 
Q 23.390625 74.21875 37.203125 74.21875 
Q 40.921875 74.21875 44.703125 73.484375 
Q 48.484375 72.75 52.59375 71.296875 
z
" id="DejaVuSans-36"/>
      </defs>
      <g transform="translate(30.55625 125.042456)scale(0.15 -0.15)">
       <use xlink:href="#DejaVuSans-30"/>
       <use x="63.623047" xlink:href="#DejaVuSans-2e"/>
       <use x="95.410156" xlink:href="#DejaVuSans-36"/>
      </g>
     </g>
    </g>
    <g id="ytick_5">
     <g id="line2d_21">
      <path clip-path="url(#p304c686b55)" d="M 61.410938 66.121228 
L 418.530938 66.121228 
" style="fill:none;stroke:#b0b0b0;stroke-linecap:square;stroke-width:0.8;"/>
     </g>
     <g id="line2d_22">
      <g>
       <use style="stroke:#000000;stroke-width:0.8;" x="61.410938" xlink:href="#mc3ce260a5b" y="66.121228"/>
      </g>
     </g>
     <g id="text_12">
      <!-- 0.8 -->
      <defs>
       <path d="M 31.78125 34.625 
Q 24.75 34.625 20.71875 30.859375 
Q 16.703125 27.09375 16.703125 20.515625 
Q 16.703125 13.921875 20.71875 10.15625 
Q 24.75 6.390625 31.78125 6.390625 
Q 38.8125 6.390625 42.859375 10.171875 
Q 46.921875 13.96875 46.921875 20.515625 
Q 46.921875 27.09375 42.890625 30.859375 
Q 38.875 34.625 31.78125 34.625 
z
M 21.921875 38.8125 
Q 15.578125 40.375 12.03125 44.71875 
Q 8.5 49.078125 8.5 55.328125 
Q 8.5 64.0625 14.71875 69.140625 
Q 20.953125 74.21875 31.78125 74.21875 
Q 42.671875 74.21875 48.875 69.140625 
Q 55.078125 64.0625 55.078125 55.328125 
Q 55.078125 49.078125 51.53125 44.71875 
Q 48 40.375 41.703125 38.8125 
Q 48.828125 37.15625 52.796875 32.3125 
Q 56.78125 27.484375 56.78125 20.515625 
Q 56.78125 9.90625 50.3125 4.234375 
Q 43.84375 -1.421875 31.78125 -1.421875 
Q 19.734375 -1.421875 13.25 4.234375 
Q 6.78125 9.90625 6.78125 20.515625 
Q 6.78125 27.484375 10.78125 32.3125 
Q 14.796875 37.15625 21.921875 38.8125 
z
M 18.3125 54.390625 
Q 18.3125 48.734375 21.84375 45.5625 
Q 25.390625 42.390625 31.78125 42.390625 
Q 38.140625 42.390625 41.71875 45.5625 
Q 45.3125 48.734375 45.3125 54.390625 
Q 45.3125 60.0625 41.71875 63.234375 
Q 38.140625 66.40625 31.78125 66.40625 
Q 25.390625 66.40625 21.84375 63.234375 
Q 18.3125 60.0625 18.3125 54.390625 
z
" id="DejaVuSans-38"/>
      </defs>
      <g transform="translate(30.55625 71.820056)scale(0.15 -0.15)">
       <use xlink:href="#DejaVuSans-30"/>
       <use x="63.623047" xlink:href="#DejaVuSans-2e"/>
       <use x="95.410156" xlink:href="#DejaVuSans-38"/>
      </g>
     </g>
    </g>
    <g id="ytick_6">
     <g id="line2d_23">
      <path clip-path="url(#p304c686b55)" d="M 61.410938 12.898828 
L 418.530938 12.898828 
" style="fill:none;stroke:#b0b0b0;stroke-linecap:square;stroke-width:0.8;"/>
     </g>
     <g id="line2d_24">
      <g>
       <use style="stroke:#000000;stroke-width:0.8;" x="61.410938" xlink:href="#mc3ce260a5b" y="12.898828"/>
      </g>
     </g>
     <g id="text_13">
      <!-- 1.0 -->
      <g transform="translate(30.55625 18.597656)scale(0.15 -0.15)">
       <use xlink:href="#DejaVuSans-31"/>
       <use x="63.623047" xlink:href="#DejaVuSans-2e"/>
       <use x="95.410156" xlink:href="#DejaVuSans-30"/>
      </g>
     </g>
    </g>
    <g id="text_14">
     <!-- F=1 population -->
     <defs>
      <path d="M 9.8125 72.90625 
L 51.703125 72.90625 
L 51.703125 64.59375 
L 19.671875 64.59375 
L 19.671875 43.109375 
L 48.578125 43.109375 
L 48.578125 34.8125 
L 19.671875 34.8125 
L 19.671875 0 
L 9.8125 0 
z
" id="DejaVuSans-46"/>
      <path d="M 10.59375 45.40625 
L 73.1875 45.40625 
L 73.1875 37.203125 
L 10.59375 37.203125 
z
M 10.59375 25.484375 
L 73.1875 25.484375 
L 73.1875 17.1875 
L 10.59375 17.1875 
z
" id="DejaVuSans-3d"/>
      <path d="M 18.109375 8.203125 
L 18.109375 -20.796875 
L 9.078125 -20.796875 
L 9.078125 54.6875 
L 18.109375 54.6875 
L 18.109375 46.390625 
Q 20.953125 51.265625 25.265625 53.625 
Q 29.59375 56 35.59375 56 
Q 45.5625 56 51.78125 48.09375 
Q 58.015625 40.1875 58.015625 27.296875 
Q 58.015625 14.40625 51.78125 6.484375 
Q 45.5625 -1.421875 35.59375 -1.421875 
Q 29.59375 -1.421875 25.265625 0.953125 
Q 20.953125 3.328125 18.109375 8.203125 
z
M 48.6875 27.296875 
Q 48.6875 37.203125 44.609375 42.84375 
Q 40.53125 48.484375 33.40625 48.484375 
Q 26.265625 48.484375 22.1875 42.84375 
Q 18.109375 37.203125 18.109375 27.296875 
Q 18.109375 17.390625 22.1875 11.75 
Q 26.265625 6.109375 33.40625 6.109375 
Q 40.53125 6.109375 44.609375 11.75 
Q 48.6875 17.390625 48.6875 27.296875 
z
" id="DejaVuSans-70"/>
      <path d="M 30.609375 48.390625 
Q 23.390625 48.390625 19.1875 42.75 
Q 14.984375 37.109375 14.984375 27.296875 
Q 14.984375 17.484375 19.15625 11.84375 
Q 23.34375 6.203125 30.609375 6.203125 
Q 37.796875 6.203125 41.984375 11.859375 
Q 46.1875 17.53125 46.1875 27.296875 
Q 46.1875 37.015625 41.984375 42.703125 
Q 37.796875 48.390625 30.609375 48.390625 
z
M 30.609375 56 
Q 42.328125 56 49.015625 48.375 
Q 55.71875 40.765625 55.71875 27.296875 
Q 55.71875 13.875 49.015625 6.21875 
Q 42.328125 -1.421875 30.609375 -1.421875 
Q 18.84375 -1.421875 12.171875 6.21875 
Q 5.515625 13.875 5.515625 27.296875 
Q 5.515625 40.765625 12.171875 48.375 
Q 18.84375 56 30.609375 56 
z
" id="DejaVuSans-6f"/>
      <path d="M 8.5 21.578125 
L 8.5 54.6875 
L 17.484375 54.6875 
L 17.484375 21.921875 
Q 17.484375 14.15625 20.5 10.265625 
Q 23.53125 6.390625 29.59375 6.390625 
Q 36.859375 6.390625 41.078125 11.03125 
Q 45.3125 15.671875 45.3125 23.6875 
L 45.3125 54.6875 
L 54.296875 54.6875 
L 54.296875 0 
L 45.3125 0 
L 45.3125 8.40625 
Q 42.046875 3.421875 37.71875 1 
Q 33.40625 -1.421875 27.6875 -1.421875 
Q 18.265625 -1.421875 13.375 4.4375 
Q 8.5 10.296875 8.5 21.578125 
z
M 31.109375 56 
z
" id="DejaVuSans-75"/>
      <path d="M 9.421875 75.984375 
L 18.40625 75.984375 
L 18.40625 0 
L 9.421875 0 
z
" id="DejaVuSans-6c"/>
      <path d="M 34.28125 27.484375 
Q 23.390625 27.484375 19.1875 25 
Q 14.984375 22.515625 14.984375 16.5 
Q 14.984375 11.71875 18.140625 8.90625 
Q 21.296875 6.109375 26.703125 6.109375 
Q 34.1875 6.109375 38.703125 11.40625 
Q 43.21875 16.703125 43.21875 25.484375 
L 43.21875 27.484375 
z
M 52.203125 31.203125 
L 52.203125 0 
L 43.21875 0 
L 43.21875 8.296875 
Q 40.140625 3.328125 35.546875 0.953125 
Q 30.953125 -1.421875 24.3125 -1.421875 
Q 15.921875 -1.421875 10.953125 3.296875 
Q 6 8.015625 6 15.921875 
Q 6 25.140625 12.171875 29.828125 
Q 18.359375 34.515625 30.609375 34.515625 
L 43.21875 34.515625 
L 43.21875 35.40625 
Q 43.21875 41.609375 39.140625 45 
Q 35.0625 48.390625 27.6875 48.390625 
Q 23 48.390625 18.546875 47.265625 
Q 14.109375 46.140625 10.015625 43.890625 
L 10.015625 52.203125 
Q 14.9375 54.109375 19.578125 55.046875 
Q 24.21875 56 28.609375 56 
Q 40.484375 56 46.34375 49.84375 
Q 52.203125 43.703125 52.203125 31.203125 
z
" id="DejaVuSans-61"/>
      <path d="M 18.3125 70.21875 
L 18.3125 54.6875 
L 36.8125 54.6875 
L 36.8125 47.703125 
L 18.3125 47.703125 
L 18.3125 18.015625 
Q 18.3125 11.328125 20.140625 9.421875 
Q 21.96875 7.515625 27.59375 7.515625 
L 36.8125 7.515625 
L 36.8125 0 
L 27.59375 0 
Q 17.1875 0 13.234375 3.875 
Q 9.28125 7.765625 9.28125 18.015625 
L 9.28125 47.703125 
L 2.6875 47.703125 
L 2.6875 54.6875 
L 9.28125 54.6875 
L 9.28125 70.21875 
z
" id="DejaVuSans-74"/>
      <path d="M 54.890625 33.015625 
L 54.890625 0 
L 45.90625 0 
L 45.90625 32.71875 
Q 45.90625 40.484375 42.875 44.328125 
Q 39.84375 48.1875 33.796875 48.1875 
Q 26.515625 48.1875 22.3125 43.546875 
Q 18.109375 38.921875 18.109375 30.90625 
L 18.109375 0 
L 9.078125 0 
L 9.078125 54.6875 
L 18.109375 54.6875 
L 18.109375 46.1875 
Q 21.34375 51.125 25.703125 53.5625 
Q 30.078125 56 35.796875 56 
Q 45.21875 56 50.046875 50.171875 
Q 54.890625 44.34375 54.890625 33.015625 
z
" id="DejaVuSans-6e"/>
     </defs>
     <g transform="translate(22.396875 222.840766)rotate(-90)scale(0.2 -0.2)">
      <use xlink:href="#DejaVuSans-46"/>
      <use x="57.519531" xlink:href="#DejaVuSans-3d"/>
      <use x="141.308594" xlink:href="#DejaVuSans-31"/>
      <use x="204.931641" xlink:href="#DejaVuSans-20"/>
      <use x="236.71875" xlink:href="#DejaVuSans-70"/>
      <use x="300.195312" xlink:href="#DejaVuSans-6f"/>
      <use x="361.376953" xlink:href="#DejaVuSans-70"/>
      <use x="424.853516" xlink:href="#DejaVuSans-75"/>
      <use x="488.232422" xlink:href="#DejaVuSans-6c"/>
      <use x="516.015625" xlink:href="#DejaVuSans-61"/>
      <use x="577.294922" xlink:href="#DejaVuSans-74"/>
      <use x="616.503906" xlink:href="#DejaVuSans-69"/>
      <use x="644.287109" xlink:href="#DejaVuSans-6f"/>
      <use x="705.46875" xlink:href="#DejaVuSans-6e"/>
     </g>
    </g>
   </g>
   <g id="LineCollection_1">
    <path clip-path="url(#p304c686b55)" d="M 61.410938 279.010828 
L 61.410938 277.828108 
" style="fill:none;stroke:#1f77b4;stroke-width:1.5;"/>
    <path clip-path="url(#p304c686b55)" d="M 70.182306 220.133296 
L 70.182306 205.379915 
" style="fill:none;stroke:#1f77b4;stroke-width:1.5;"/>
    <path clip-path="url(#p304c686b55)" d="M 78.953674 123.345403 
L 78.953674 105.949665 
" style="fill:none;stroke:#1f77b4;stroke-width:1.5;"/>
    <path clip-path="url(#p304c686b55)" d="M 87.725043 65.616799 
L 87.725043 52.596322 
" style="fill:none;stroke:#1f77b4;stroke-width:1.5;"/>
    <path clip-path="url(#p304c686b55)" d="M 96.496411 120.11301 
L 96.496411 103.269951 
" style="fill:none;stroke:#1f77b4;stroke-width:1.5;"/>
    <path clip-path="url(#p304c686b55)" d="M 105.26778 221.604747 
L 105.26778 206.743689 
" style="fill:none;stroke:#1f77b4;stroke-width:1.5;"/>
    <path clip-path="url(#p304c686b55)" d="M 114.039148 272.325449 
L 114.039148 265.678933 
" style="fill:none;stroke:#1f77b4;stroke-width:1.5;"/>
    <path clip-path="url(#p304c686b55)" d="M 122.810516 229.392238 
L 122.810516 214.402098 
" style="fill:none;stroke:#1f77b4;stroke-width:1.5;"/>
    <path clip-path="url(#p304c686b55)" d="M 131.581885 121.569266 
L 131.581885 104.921191 
" style="fill:none;stroke:#1f77b4;stroke-width:1.5;"/>
    <path clip-path="url(#p304c686b55)" d="M 140.353253 63.193491 
L 140.353253 50.584051 
" style="fill:none;stroke:#1f77b4;stroke-width:1.5;"/>
    <path clip-path="url(#p304c686b55)" d="M 149.124622 95.621413 
L 149.124622 79.717058 
" style="fill:none;stroke:#1f77b4;stroke-width:1.5;"/>
    <path clip-path="url(#p304c686b55)" d="M 157.89599 203.400885 
L 157.89599 186.614577 
" style="fill:none;stroke:#1f77b4;stroke-width:1.5;"/>
    <path clip-path="url(#p304c686b55)" d="M 166.667359 267.92228 
L 166.667359 260.036514 
" style="fill:none;stroke:#1f77b4;stroke-width:1.5;"/>
    <path clip-path="url(#p304c686b55)" d="M 175.438727 234.721184 
L 175.438727 221.122447 
" style="fill:none;stroke:#1f77b4;stroke-width:1.5;"/>
    <path clip-path="url(#p304c686b55)" d="M 184.210095 140.919712 
L 184.210095 123.579266 
" style="fill:none;stroke:#1f77b4;stroke-width:1.5;"/>
    <path clip-path="url(#p304c686b55)" d="M 192.981464 60.289696 
L 192.981464 47.479961 
" style="fill:none;stroke:#1f77b4;stroke-width:1.5;"/>
    <path clip-path="url(#p304c686b55)" d="M 201.752832 102.511098 
L 201.752832 86.236197 
" style="fill:none;stroke:#1f77b4;stroke-width:1.5;"/>
    <path clip-path="url(#p304c686b55)" d="M 210.524201 185.761045 
L 210.524201 168.555407 
" style="fill:none;stroke:#1f77b4;stroke-width:1.5;"/>
    <path clip-path="url(#p304c686b55)" d="M 219.295569 262.74553 
L 219.295569 253.131692 
" style="fill:none;stroke:#1f77b4;stroke-width:1.5;"/>
    <path clip-path="url(#p304c686b55)" d="M 228.066938 236.260039 
L 228.066938 222.553197 
" style="fill:none;stroke:#1f77b4;stroke-width:1.5;"/>
    <path clip-path="url(#p304c686b55)" d="M 236.838306 163.92286 
L 236.838306 145.643517 
" style="fill:none;stroke:#1f77b4;stroke-width:1.5;"/>
    <path clip-path="url(#p304c686b55)" d="M 245.609674 85.908754 
L 245.609674 70.547496 
" style="fill:none;stroke:#1f77b4;stroke-width:1.5;"/>
    <path clip-path="url(#p304c686b55)" d="M 254.381043 86.391087 
L 254.381043 71.315534 
" style="fill:none;stroke:#1f77b4;stroke-width:1.5;"/>
    <path clip-path="url(#p304c686b55)" d="M 263.152411 155.057737 
L 263.152411 137.951556 
" style="fill:none;stroke:#1f77b4;stroke-width:1.5;"/>
    <path clip-path="url(#p304c686b55)" d="M 271.92378 234.152953 
L 271.92378 220.049223 
" style="fill:none;stroke:#1f77b4;stroke-width:1.5;"/>
    <path clip-path="url(#p304c686b55)" d="M 280.695148 243.796886 
L 280.695148 230.991501 
" style="fill:none;stroke:#1f77b4;stroke-width:1.5;"/>
    <path clip-path="url(#p304c686b55)" d="M 289.466516 182.004788 
L 289.466516 164.76129 
" style="fill:none;stroke:#1f77b4;stroke-width:1.5;"/>
    <path clip-path="url(#p304c686b55)" d="M 298.237885 99.467222 
L 298.237885 83.081338 
" style="fill:none;stroke:#1f77b4;stroke-width:1.5;"/>
    <path clip-path="url(#p304c686b55)" d="M 307.009253 70.090828 
L 307.009253 56.366585 
" style="fill:none;stroke:#1f77b4;stroke-width:1.5;"/>
    <path clip-path="url(#p304c686b55)" d="M 315.780622 149.559242 
L 315.780622 132.534808 
" style="fill:none;stroke:#1f77b4;stroke-width:1.5;"/>
    <path clip-path="url(#p304c686b55)" d="M 324.55199 212.10466 
L 324.55199 196.579882 
" style="fill:none;stroke:#1f77b4;stroke-width:1.5;"/>
    <path clip-path="url(#p304c686b55)" d="M 333.323359 239.246923 
L 333.323359 225.635533 
" style="fill:none;stroke:#1f77b4;stroke-width:1.5;"/>
    <path clip-path="url(#p304c686b55)" d="M 342.094727 188.409026 
L 342.094727 171.21663 
" style="fill:none;stroke:#1f77b4;stroke-width:1.5;"/>
    <path clip-path="url(#p304c686b55)" d="M 350.866095 121.591074 
L 350.866095 104.097163 
" style="fill:none;stroke:#1f77b4;stroke-width:1.5;"/>
    <path clip-path="url(#p304c686b55)" d="M 359.637464 92.521172 
L 359.637464 77.328848 
" style="fill:none;stroke:#1f77b4;stroke-width:1.5;"/>
    <path clip-path="url(#p304c686b55)" d="M 368.408832 118.318229 
L 368.408832 100.903427 
" style="fill:none;stroke:#1f77b4;stroke-width:1.5;"/>
    <path clip-path="url(#p304c686b55)" d="M 377.180201 193.462999 
L 377.180201 176.506177 
" style="fill:none;stroke:#1f77b4;stroke-width:1.5;"/>
    <path clip-path="url(#p304c686b55)" d="M 385.951569 235.283694 
L 385.951569 221.305137 
" style="fill:none;stroke:#1f77b4;stroke-width:1.5;"/>
    <path clip-path="url(#p304c686b55)" d="M 394.722938 203.778178 
L 394.722938 186.644094 
" style="fill:none;stroke:#1f77b4;stroke-width:1.5;"/>
    <path clip-path="url(#p304c686b55)" d="M 403.494306 158.028777 
L 403.494306 140.675228 
" style="fill:none;stroke:#1f77b4;stroke-width:1.5;"/>
    <path clip-path="url(#p304c686b55)" d="M 412.265674 92.649874 
L 412.265674 76.627524 
" style="fill:none;stroke:#1f77b4;stroke-width:1.5;"/>
   </g>
   <g id="LineCollection_2">
    <path clip-path="url(#p304c686b55)" d="M 61.410938 274.780846 
L 61.410938 267.789145 
" style="fill:none;stroke:#d62728;stroke-width:1.5;"/>
    <path clip-path="url(#p304c686b55)" d="M 70.182306 269.128867 
L 70.182306 260.164789 
" style="fill:none;stroke:#d62728;stroke-width:1.5;"/>
    <path clip-path="url(#p304c686b55)" d="M 78.953674 249.233364 
L 78.953674 235.532742 
" style="fill:none;stroke:#d62728;stroke-width:1.5;"/>
    <path clip-path="url(#p304c686b55)" d="M 87.725043 228.372129 
L 87.725043 210.819641 
" style="fill:none;stroke:#d62728;stroke-width:1.5;"/>
    <path clip-path="url(#p304c686b55)" d="M 96.496411 214.585949 
L 96.496411 196.455242 
" style="fill:none;stroke:#d62728;stroke-width:1.5;"/>
    <path clip-path="url(#p304c686b55)" d="M 105.26778 218.989454 
L 105.26778 201.440202 
" style="fill:none;stroke:#d62728;stroke-width:1.5;"/>
    <path clip-path="url(#p304c686b55)" d="M 114.039148 234.109032 
L 114.039148 217.128828 
" style="fill:none;stroke:#d62728;stroke-width:1.5;"/>
    <path clip-path="url(#p304c686b55)" d="M 122.810516 220.170157 
L 122.810516 202.461184 
" style="fill:none;stroke:#d62728;stroke-width:1.5;"/>
    <path clip-path="url(#p304c686b55)" d="M 131.581885 238.872267 
L 131.581885 222.535479 
" style="fill:none;stroke:#d62728;stroke-width:1.5;"/>
    <path clip-path="url(#p304c686b55)" d="M 140.353253 230.579366 
L 140.353253 213.394291 
" style="fill:none;stroke:#d62728;stroke-width:1.5;"/>
    <path clip-path="url(#p304c686b55)" d="M 149.124622 228.614995 
L 149.124622 210.543301 
" style="fill:none;stroke:#d62728;stroke-width:1.5;"/>
    <path clip-path="url(#p304c686b55)" d="M 157.89599 238.342716 
L 157.89599 221.818399 
" style="fill:none;stroke:#d62728;stroke-width:1.5;"/>
    <path clip-path="url(#p304c686b55)" d="M 166.667359 242.896573 
L 166.667359 226.997083 
" style="fill:none;stroke:#d62728;stroke-width:1.5;"/>
    <path clip-path="url(#p304c686b55)" d="M 175.438727 247.146267 
L 175.438727 232.213352 
" style="fill:none;stroke:#d62728;stroke-width:1.5;"/>
    <path clip-path="url(#p304c686b55)" d="M 184.210095 226.214092 
L 184.210095 207.741835 
" style="fill:none;stroke:#d62728;stroke-width:1.5;"/>
    <path clip-path="url(#p304c686b55)" d="M 192.981464 231.58658 
L 192.981464 214.115076 
" style="fill:none;stroke:#d62728;stroke-width:1.5;"/>
   </g>
   <g id="line2d_25">
    <path clip-path="url(#p304c686b55)" d="M 61.410938 278.518987 
L 62.125178 278.518987 
L 62.482298 277.728048 
L 62.839418 277.925399 
L 63.196538 275.925817 
L 63.553658 275.63147 
L 63.910778 273.753284 
L 64.267898 272.65467 
L 64.625018 269.771447 
L 64.982138 269.230025 
L 65.696378 263.696442 
L 66.053498 261.961168 
L 67.481978 249.924415 
L 68.553338 238.459913 
L 68.910458 236.36466 
L 69.981818 223.278682 
L 70.338938 219.510962 
L 70.696058 213.74361 
L 71.053178 210.310504 
L 72.838778 184.59168 
L 73.195898 182.031956 
L 73.910138 169.843774 
L 76.409978 134.857155 
L 77.124218 123.961372 
L 77.481338 120.308781 
L 78.909818 100.250352 
L 81.766778 65.951115 
L 82.123898 64.301952 
L 83.552378 49.295757 
L 85.337978 37.054126 
L 85.695098 35.872895 
L 86.409338 32.278822 
L 86.766458 31.657291 
L 87.123578 30.307827 
L 87.480698 29.583787 
L 87.837818 28.452815 
L 88.194938 28.524206 
L 88.552058 28.116824 
L 88.909178 28.116824 
L 89.266298 27.870063 
L 89.623418 27.870063 
L 89.980538 29.28944 
L 90.337658 29.507846 
L 90.694778 29.28944 
L 91.051898 30.894154 
L 91.766138 35.04757 
L 92.123258 35.958544 
L 93.908858 47.701483 
L 95.337338 59.897092 
L 95.694458 65.098611 
L 96.051578 67.336593 
L 97.122938 77.880528 
L 97.837178 87.432393 
L 99.979898 114.539654 
L 101.765498 139.749607 
L 102.836858 154.981681 
L 103.908218 170.625551 
L 104.265338 174.624489 
L 104.979578 185.437941 
L 105.336698 188.798694 
L 106.050938 200.271282 
L 106.765178 208.263835 
L 107.479418 217.253657 
L 108.193658 225.261243 
L 108.907898 232.858797 
L 111.764858 258.510636 
L 112.121978 260.344746 
L 112.836218 265.138133 
L 113.907578 270.602462 
L 114.264698 270.571606 
L 114.621818 272.117438 
L 114.978938 274.266252 
L 115.336058 273.333567 
L 115.693178 274.256093 
L 116.050298 274.684139 
L 116.407418 273.674483 
L 116.764538 274.204129 
L 117.478778 272.936434 
L 117.835898 273.243808 
L 118.193018 270.22888 
L 118.550138 270.288723 
L 118.907258 269.630388 
L 119.978618 264.046398 
L 120.692858 258.578271 
L 121.049978 257.369738 
L 122.121338 247.205444 
L 122.478458 245.076647 
L 123.192698 238.317773 
L 123.549818 235.324646 
L 127.835258 183.198916 
L 128.549498 171.837194 
L 128.906618 168.350406 
L 129.977978 153.067122 
L 130.692218 144.476866 
L 131.049338 138.065431 
L 131.406458 134.030892 
L 132.477818 118.345016 
L 136.049018 77.08586 
L 136.763258 69.947038 
L 137.120378 64.899444 
L 137.477498 62.664143 
L 137.834618 58.688358 
L 138.191738 57.018764 
L 139.620218 46.894654 
L 141.048698 39.781836 
L 141.405818 38.579642 
L 141.762938 38.109781 
L 142.120058 36.065292 
L 142.477178 36.325519 
L 142.834298 35.763182 
L 143.191418 35.500233 
L 143.548538 34.956455 
L 143.905658 35.584869 
L 144.262778 35.584869 
L 144.619898 36.429458 
L 144.977018 35.931857 
L 145.334138 37.858461 
L 145.691258 38.349931 
L 147.476858 46.854621 
L 148.191098 52.528365 
L 148.548218 54.103431 
L 149.976698 65.55496 
L 150.690938 71.877932 
L 153.905018 107.68529 
L 154.262138 113.656935 
L 154.619258 117.214645 
L 155.333498 126.68764 
L 156.761978 146.71495 
L 158.547578 169.658616 
L 159.261818 179.046692 
L 161.047418 202.567776 
L 161.404538 205.458749 
L 162.118778 214.028288 
L 163.904378 232.804687 
L 164.261498 235.06018 
L 164.618618 238.519761 
L 164.975738 243.75819 
L 165.332858 244.719114 
L 166.761338 255.003456 
L 167.118458 256.29269 
L 167.475578 259.007674 
L 167.832698 260.477391 
L 168.189818 261.183275 
L 168.546938 263.254055 
L 168.904058 263.57301 
L 169.261178 264.506459 
L 169.618298 266.415678 
L 169.975418 265.922127 
L 170.332538 265.801215 
L 170.689658 266.307764 
L 171.046778 267.060592 
L 171.403898 265.413671 
L 171.761018 265.650659 
L 172.118138 264.816223 
L 172.475258 264.767296 
L 172.832378 263.100829 
L 173.546618 261.275036 
L 174.260858 256.580119 
L 174.617978 255.140873 
L 174.975098 252.842539 
L 175.332218 251.448687 
L 176.760698 239.453612 
L 177.474938 232.885852 
L 177.832058 230.34074 
L 178.546298 222.743527 
L 179.974778 207.678517 
L 182.117498 181.160241 
L 182.474618 177.715559 
L 183.545978 162.872846 
L 184.974458 144.501149 
L 185.688698 135.231586 
L 189.259898 91.718522 
L 190.688378 77.320083 
L 192.116858 63.978054 
L 194.973818 46.731675 
L 195.330938 45.531631 
L 195.688058 43.516392 
L 196.045178 43.333722 
L 196.402298 42.719709 
L 196.759418 42.818455 
L 197.116538 41.536448 
L 197.830778 41.465915 
L 198.187898 41.025375 
L 198.545018 41.330441 
L 198.902138 41.204765 
L 199.616378 44.554848 
L 199.973498 43.785929 
L 200.330618 45.031673 
L 201.044858 49.141943 
L 201.401978 49.92156 
L 202.116218 54.70548 
L 203.187578 60.881563 
L 203.544698 64.914995 
L 203.901818 67.366071 
L 206.044538 87.56406 
L 210.687098 143.277089 
L 212.472698 166.612302 
L 214.258298 188.680193 
L 215.329658 201.56516 
L 216.401018 212.730461 
L 217.115258 221.422778 
L 219.615098 242.790413 
L 220.686458 250.499699 
L 221.043578 250.89804 
L 221.400698 254.467354 
L 221.757818 255.654566 
L 222.472058 258.333947 
L 223.186298 260.536344 
L 223.543418 262.168217 
L 223.900538 262.086381 
L 224.257658 262.495548 
L 224.614778 262.709498 
L 224.971898 262.676582 
L 225.329018 262.801427 
L 225.686138 261.413898 
L 226.043258 262.086381 
L 226.400378 261.076933 
L 226.757498 260.506868 
L 227.114618 258.815666 
L 227.471738 258.200505 
L 228.185978 254.817577 
L 228.543098 253.707998 
L 229.257338 248.422441 
L 230.328698 241.947703 
L 230.685818 238.37014 
L 231.042938 236.451156 
L 231.757178 230.425197 
L 232.828538 219.948605 
L 233.185658 216.768246 
L 234.257018 204.517365 
L 235.685498 188.105244 
L 237.113978 169.415853 
L 238.542458 152.655996 
L 239.256698 143.151111 
L 239.970938 133.543336 
L 241.399418 116.969567 
L 242.113658 107.662217 
L 242.470778 104.36628 
L 243.542138 92.479571 
L 246.399098 65.183473 
L 246.756218 63.468263 
L 247.113338 60.461795 
L 247.827578 55.911334 
L 248.541818 51.773546 
L 248.898938 51.40203 
L 249.970298 46.289871 
L 250.327418 46.677567 
L 250.684538 44.988108 
L 251.041658 43.893933 
L 251.398778 44.554848 
L 251.755898 43.365576 
L 252.113018 43.532066 
L 252.470138 43.349649 
L 252.827258 44.031981 
L 253.184378 45.220453 
L 253.541498 45.721065 
L 253.898618 45.133324 
L 254.612858 47.9732 
L 254.969978 49.129752 
L 255.684218 54.054586 
L 256.398458 57.112811 
L 257.112698 61.857889 
L 257.826938 66.830154 
L 258.184058 70.66617 
L 258.541178 72.342932 
L 258.898298 76.846847 
L 259.255418 79.791437 
L 259.612538 83.671911 
L 259.969658 86.004163 
L 260.326778 91.19753 
L 260.683898 93.743078 
L 261.398138 101.739017 
L 264.255098 135.067001 
L 264.612218 141.281752 
L 264.969338 144.650894 
L 265.683578 153.252532 
L 268.897658 192.884467 
L 271.397498 220.421831 
L 271.754618 222.487939 
L 272.825978 233.109053 
L 273.540218 237.642843 
L 274.254458 244.206 
L 275.682938 253.210114 
L 276.397178 256.061122 
L 276.754298 256.329721 
L 277.111418 257.102797 
L 277.468538 257.604725 
L 277.825658 258.91167 
L 278.182778 259.719898 
L 278.539898 260.810024 
L 278.897018 261.168083 
L 279.254138 260.169062 
L 279.611258 260.418438 
L 279.968378 260.854909 
L 280.325498 259.423657 
L 280.682618 259.522404 
L 281.039738 258.347291 
L 281.396858 256.53956 
L 281.753978 256.342064 
L 283.182458 250.199177 
L 283.539578 246.699987 
L 283.896698 245.606546 
L 284.610938 239.805742 
L 285.325178 235.088194 
L 288.539258 204.151573 
L 288.896378 198.14885 
L 289.610618 190.840187 
L 291.396218 169.374707 
L 292.467578 156.233891 
L 292.824698 152.240839 
L 293.181818 146.079545 
L 293.896058 138.680486 
L 294.610298 129.480678 
L 296.395898 108.012921 
L 297.824378 93.543466 
L 298.181498 89.342623 
L 298.538618 86.644625 
L 298.895738 81.969085 
L 299.252858 80.152718 
L 300.681338 67.705062 
L 301.038458 65.78461 
L 301.752698 60.478969 
L 302.466938 56.66938 
L 303.181178 51.662593 
L 303.538298 51.244931 
L 303.895418 50.999273 
L 304.252538 48.897879 
L 304.609658 48.836162 
L 304.966778 47.18495 
L 305.323898 46.468165 
L 305.681018 46.718148 
L 306.038138 46.00252 
L 306.395258 46.841277 
L 306.752378 46.331016 
L 307.109498 46.650513 
L 307.466618 47.369278 
L 307.823738 48.535139 
L 308.180858 49.3078 
L 308.537978 50.816797 
L 308.895098 51.751355 
L 309.252218 52.307609 
L 310.680698 60.521903 
L 311.037818 62.048749 
L 311.394938 64.48551 
L 311.752058 67.763398 
L 312.466298 72.741147 
L 312.823418 75.653168 
L 313.537658 82.541435 
L 313.894778 85.158355 
L 315.680378 104.167833 
L 316.037498 108.743943 
L 316.394618 111.6644 
L 317.465978 125.042156 
L 317.823098 128.288135 
L 318.537338 137.372946 
L 319.251578 145.767913 
L 320.322938 158.990013 
L 321.037178 166.812252 
L 321.751418 175.474497 
L 322.465658 185.147752 
L 322.822778 187.677268 
L 323.537018 197.368458 
L 325.322618 216.196405 
L 326.036858 221.319435 
L 326.393978 225.969213 
L 327.108218 231.317904 
L 328.179578 240.206955 
L 328.536698 241.787135 
L 328.893818 243.8789 
L 329.250938 245.137283 
L 329.608058 248.507896 
L 329.965178 249.12966 
L 330.679418 253.375139 
L 331.036538 253.574854 
L 332.107898 256.667617 
L 332.465018 256.342064 
L 332.822138 257.591732 
L 333.179258 257.077477 
L 333.536378 256.855113 
L 333.893498 256.925558 
L 334.607738 256.465499 
L 334.964858 255.654566 
L 336.036218 251.870777 
L 336.393338 250.775877 
L 337.821818 242.738818 
L 338.178938 240.612187 
L 338.536058 239.468922 
L 338.893178 235.479825 
L 339.250298 233.364566 
L 339.964538 226.547535 
L 340.321658 224.362124 
L 340.678778 221.480191 
L 342.107258 205.419639 
L 342.464378 203.099879 
L 343.178618 195.034033 
L 343.535738 191.580663 
L 344.249978 181.926411 
L 344.607098 179.025591 
L 347.464058 143.86228 
L 347.821178 140.622859 
L 348.535418 130.765769 
L 349.606778 118.723488 
L 349.963898 114.34838 
L 350.321018 111.33974 
L 352.463738 88.097995 
L 352.820858 85.631354 
L 353.535098 79.032694 
L 353.892218 75.595457 
L 354.249338 73.620954 
L 354.963578 67.682935 
L 355.677818 63.150441 
L 356.034938 61.319476 
L 356.392058 58.796085 
L 358.177658 51.021974 
L 358.534778 51.629307 
L 358.891898 50.455766 
L 359.249018 48.786788 
L 359.606138 48.51014 
L 359.963258 48.638666 
L 360.320378 49.239471 
L 360.677498 48.422642 
L 361.391738 50.432531 
L 361.748858 50.575668 
L 362.105978 51.795737 
L 362.463098 51.695879 
L 362.820218 52.861174 
L 363.177338 55.677487 
L 363.534458 57.305661 
L 364.248698 59.713576 
L 365.320058 67.022167 
L 365.677178 70.610537 
L 366.034298 71.276178 
L 368.891258 97.456941 
L 369.605498 105.623837 
L 370.319738 112.447495 
L 370.676858 117.78705 
L 371.033978 121.264976 
L 371.748218 129.77826 
L 372.462458 138.57847 
L 373.176698 147.297743 
L 373.533818 150.596334 
L 374.248058 159.52424 
L 375.676538 176.881093 
L 376.033658 182.694569 
L 377.105018 192.826114 
L 377.462138 198.624514 
L 377.819258 201.260044 
L 379.961978 222.889736 
L 380.676218 229.81217 
L 381.033338 231.68046 
L 381.390458 235.621336 
L 382.104698 239.954635 
L 382.818938 244.274103 
L 383.176058 247.508085 
L 383.533178 249.303922 
L 383.890298 249.983665 
L 384.247418 252.472221 
L 384.604538 253.111366 
L 384.961658 254.079779 
L 385.318778 254.666551 
L 385.675898 256.329326 
L 386.033018 256.963538 
L 386.390138 257.292792 
L 386.747258 258.133783 
L 387.104378 257.604725 
L 387.461498 257.786628 
L 388.175738 256.988857 
L 388.532858 255.642523 
L 388.889978 255.650417 
L 389.247098 254.397589 
L 389.604218 252.070375 
L 389.961338 252.070375 
L 390.318458 251.480803 
L 390.675578 250.308898 
L 391.032698 247.104867 
L 391.389818 245.846134 
L 392.818298 236.907892 
L 393.175418 232.953489 
L 393.889658 226.954101 
L 394.961018 217.601821 
L 395.318138 212.77226 
L 396.746618 198.713017 
L 397.460858 190.36762 
L 397.817978 187.546183 
L 398.532218 178.409453 
L 399.246458 169.432311 
L 399.603578 163.970079 
L 399.960698 160.928607 
L 401.746298 138.094114 
L 402.460538 129.350962 
L 404.603258 104.35683 
L 405.317498 97.292357 
L 406.031738 89.26168 
L 406.388858 86.311015 
L 407.103098 79.215564 
L 407.460218 76.437174 
L 408.174458 69.235685 
L 408.531578 67.960897 
L 409.245818 61.866188 
L 411.031418 52.657168 
L 411.388538 50.180185 
L 411.745658 49.404139 
L 412.102778 48.150439 
L 412.817018 46.841277 
L 413.174138 45.460076 
L 413.531258 45.664638 
L 413.888378 45.031673 
L 414.245498 45.692852 
L 414.602618 43.832216 
L 414.959738 44.914725 
L 415.316858 46.358446 
L 415.673978 46.623459 
L 416.031098 47.819869 
L 416.388218 48.360144 
L 416.745338 49.851025 
L 417.102458 51.82959 
L 418.173818 55.921015 
L 418.530938 58.156107 
L 418.530938 58.156107 
" style="fill:none;stroke:#1f77b4;stroke-linecap:square;stroke-width:1.5;"/>
   </g>
   <g id="line2d_26">
    <path clip-path="url(#p304c686b55)" d="M 61.410938 271.333963 
L 63.816799 271.333963 
L 64.117531 270.740375 
L 64.718996 271.333963 
L 65.019729 271.333963 
L 65.320462 269.46774 
L 65.621194 269.913408 
L 65.921927 269.790028 
L 66.523392 268.740793 
L 66.824125 269.308599 
L 67.124858 267.598995 
L 67.42559 268.446446 
L 67.726323 267.245779 
L 68.027055 267.499115 
L 68.327788 266.301394 
L 68.628521 266.913827 
L 68.929253 265.593067 
L 69.229986 266.34841 
L 69.831451 264.895844 
L 70.432916 264.14798 
L 70.733649 264.284172 
L 71.034382 262.866496 
L 71.335114 262.018314 
L 71.93658 261.584423 
L 72.237312 260.263626 
L 72.538045 260.80752 
L 72.838778 259.146617 
L 73.13951 258.535583 
L 73.440243 258.731877 
L 73.740975 257.8563 
L 74.041708 258.011194 
L 74.342441 256.086056 
L 74.643173 257.096288 
L 75.545371 253.460422 
L 75.846104 253.218675 
L 76.146836 253.891909 
L 76.447569 253.203937 
L 76.748302 251.366193 
L 77.049034 251.339139 
L 77.349767 250.484667 
L 77.6505 250.236012 
L 78.251965 248.541796 
L 78.552698 247.178989 
L 78.85343 246.740416 
L 79.154163 246.014118 
L 79.454895 246.323258 
L 80.056361 245.020405 
L 80.357093 244.068223 
L 80.657826 244.892987 
L 80.958559 242.284305 
L 81.560024 241.934954 
L 81.860756 241.379843 
L 82.161489 240.002133 
L 82.462222 240.16617 
L 82.762954 239.144376 
L 83.063687 239.542141 
L 83.965885 236.896439 
L 84.266618 237.03148 
L 84.56735 236.660116 
L 84.868083 234.770707 
L 85.469548 234.834935 
L 85.770281 234.529855 
L 86.071013 233.286299 
L 86.672479 232.723322 
L 86.973211 231.03034 
L 87.273944 232.314597 
L 87.574676 230.970942 
L 87.875409 231.259926 
L 88.476874 229.959613 
L 88.777607 229.352628 
L 89.07834 229.102245 
L 89.379072 228.542876 
L 89.679805 228.830326 
L 89.980538 228.217212 
L 90.28127 228.111408 
L 90.582003 226.740339 
L 90.882735 226.568898 
L 91.183468 227.122528 
L 91.484201 226.479749 
L 91.784933 225.383133 
L 92.386399 226.111439 
L 92.687131 224.621358 
L 92.987864 225.235344 
L 93.288596 224.574966 
L 93.589329 224.962975 
L 93.890062 223.968297 
L 94.491527 222.738029 
L 94.79226 223.500458 
L 95.092992 222.173661 
L 95.694458 223.318134 
L 95.99519 222.537373 
L 96.295923 223.683571 
L 96.897388 222.001645 
L 97.198121 222.575847 
L 97.498853 222.47325 
L 97.799586 221.007271 
L 98.401051 222.4476 
L 98.701784 222.014387 
L 99.303249 220.093808 
L 99.603982 221.233704 
L 99.904714 220.193179 
L 100.205447 220.155915 
L 100.50618 220.585149 
L 100.806912 221.555077 
L 101.107645 220.429185 
L 101.408378 220.647649 
L 101.70911 220.373289 
L 102.009843 220.311182 
L 102.310575 219.818453 
L 102.611308 220.950663 
L 102.912041 219.509716 
L 103.212773 220.585149 
L 103.513506 219.787593 
L 103.814239 220.028296 
L 104.114971 219.399313 
L 104.415704 220.578899 
L 104.716436 219.607853 
L 105.317902 219.233707 
L 105.618634 219.485182 
L 105.919367 220.317393 
L 106.2201 219.670327 
L 106.520832 219.497449 
L 106.821565 219.695015 
L 107.122298 220.162126 
L 107.42303 220.068965 
L 107.723763 219.460648 
L 108.024495 220.416764 
L 108.325228 219.84314 
L 108.625961 220.242865 
L 108.926693 220.280129 
L 109.227426 219.137739 
L 109.528159 220.003609 
L 109.828891 219.589452 
L 110.129624 220.065328 
L 110.430356 219.51585 
L 110.731089 219.344111 
L 111.031822 219.978921 
L 111.332554 218.857338 
L 111.633287 220.311182 
L 111.93402 220.124861 
L 112.234752 220.963242 
L 112.535485 219.775249 
L 112.836218 219.917203 
L 113.437683 219.589452 
L 113.738415 220.022125 
L 114.039148 219.583319 
L 114.339881 220.249075 
L 114.640613 219.682671 
L 114.941346 220.124861 
L 115.242079 219.393179 
L 115.542811 220.716399 
L 115.843544 219.472915 
L 116.144276 219.997437 
L 116.445009 220.941399 
L 116.745742 220.447818 
L 117.046474 219.719702 
L 117.347207 220.722649 
L 117.64794 220.398132 
L 117.948672 220.878899 
L 118.249405 220.19939 
L 118.550138 220.273918 
L 118.85087 220.785149 
L 119.452335 220.460239 
L 120.053801 219.738218 
L 120.354533 220.647649 
L 120.655266 221.02614 
L 120.955999 220.710149 
L 121.256731 220.785149 
L 121.858196 220.131072 
L 122.158929 221.095328 
L 122.459662 219.948062 
L 122.760394 220.052984 
L 123.061127 220.441607 
L 123.36186 220.180758 
L 123.963325 220.778899 
L 124.264058 220.317393 
L 124.56479 221.246284 
L 124.865523 219.762906 
L 125.466988 220.360868 
L 125.767721 220.503899 
L 126.068453 221.523426 
L 126.669919 220.224232 
L 126.970651 220.816399 
L 127.271384 220.741399 
L 127.572116 220.897649 
L 127.872849 220.124861 
L 128.173582 220.224232 
L 128.775047 220.081386 
L 129.07578 220.242865 
L 129.376512 219.270508 
L 129.677245 220.065328 
L 129.977978 220.083843 
L 130.27871 219.713531 
L 130.579443 219.929546 
L 130.880175 219.84314 
L 131.180908 220.367078 
L 131.481641 220.162126 
L 131.782373 220.553899 
L 132.083106 219.94189 
L 132.383839 220.741399 
L 132.684571 219.546518 
L 132.985304 219.867828 
L 133.286036 220.778899 
L 133.586769 220.336025 
L 133.887502 220.982112 
L 134.188234 219.849312 
L 134.488967 220.143493 
L 134.7897 219.873999 
L 135.090432 220.697649 
L 135.391165 219.94189 
L 135.691898 220.360868 
L 136.293363 220.137283 
L 136.594095 220.273918 
L 137.195561 219.836968 
L 137.496293 219.143835 
L 137.797026 219.528117 
L 138.097759 220.218022 
L 138.999956 220.04064 
L 139.300689 220.367078 
L 139.601422 221.04501 
L 139.902154 220.075176 
L 140.202887 220.866399 
L 140.50362 220.143493 
L 140.804352 220.255286 
L 141.105085 219.948062 
L 141.405818 220.610149 
L 141.70655 219.873999 
L 142.007283 219.491316 
L 142.308015 220.068965 
L 142.608748 220.118651 
L 142.909481 220.360868 
L 143.510946 219.713531 
L 143.811679 219.168218 
L 144.112411 220.249075 
L 144.413144 219.521983 
L 144.713876 220.342236 
L 145.014609 219.861656 
L 145.315342 220.716399 
L 145.616074 220.447818 
L 145.916807 220.760149 
L 146.21754 220.218022 
L 146.518272 221.346921 
L 146.819005 220.566399 
L 147.119738 221.415814 
L 147.42047 220.747649 
L 147.721203 220.678899 
L 148.021935 221.574067 
L 148.322668 221.101618 
L 148.924133 221.239994 
L 149.224866 219.873999 
L 149.525599 220.947649 
L 149.826331 221.189675 
L 150.127064 220.622649 
L 150.427796 221.732321 
L 151.029262 221.650029 
L 151.329994 221.302892 
L 151.630727 222.148177 
L 151.93146 220.982112 
L 152.833658 221.931565 
L 153.13439 222.996199 
L 153.435123 222.235993 
L 153.735855 221.089038 
L 154.036588 221.561407 
L 154.337321 222.421951 
L 154.638053 221.744981 
L 154.938786 221.567737 
L 155.239519 221.931565 
L 155.540251 223.214186 
L 155.840984 222.078097 
L 156.141716 222.428363 
L 156.442449 222.524548 
L 156.743182 222.796117 
L 157.043914 222.575847 
L 157.344647 223.28565 
L 157.64538 222.802571 
L 157.946112 223.657412 
L 158.246845 223.762048 
L 158.547578 222.757391 
L 158.84831 224.389395 
L 159.449775 222.880022 
L 159.750508 223.70973 
L 160.051241 223.69665 
L 160.953439 223.20769 
L 161.254171 222.357828 
L 161.554904 224.382768 
L 161.855636 224.01438 
L 162.156369 224.159214 
L 162.457102 224.067047 
L 162.757834 224.257964 
L 163.058567 223.762048 
L 163.3593 224.284297 
L 163.660032 224.218464 
L 163.960765 224.442416 
L 164.261498 225.18832 
L 164.56223 225.565554 
L 164.862963 224.495436 
L 165.163695 224.442416 
L 165.464428 224.902924 
L 165.765161 224.829529 
L 166.065893 225.389851 
L 166.366626 225.633191 
L 166.667359 224.488808 
L 166.968091 224.720771 
L 167.268824 225.383133 
L 167.870289 225.282368 
L 168.171022 225.951084 
L 168.471754 225.802283 
L 169.07322 225.043042 
L 169.373952 225.463745 
L 169.674685 226.692335 
L 169.975418 225.781992 
L 170.27615 225.924029 
L 170.576883 226.623759 
L 170.877615 225.504051 
L 171.479081 227.24584 
L 172.080546 226.548325 
L 172.381279 226.424888 
L 172.682011 226.14549 
L 172.982744 226.894644 
L 173.283476 226.67862 
L 173.584209 226.90155 
L 173.884942 227.889163 
L 174.185674 226.811777 
L 174.486407 226.984417 
L 174.78714 227.343199 
L 175.087872 226.825588 
L 175.689338 227.593551 
L 175.99007 227.384924 
L 176.290803 226.555183 
L 176.591535 228.019712 
L 176.892268 227.461421 
L 177.193001 227.461421 
L 177.493733 226.788342 
L 177.794466 228.17489 
L 178.095199 227.191584 
L 178.696664 227.728081 
L 178.997396 226.596329 
L 179.298129 228.069087 
L 179.598862 228.111408 
L 179.899594 227.959198 
L 180.200327 228.54998 
L 180.50106 227.24584 
L 180.801792 228.238372 
L 181.102525 228.386582 
L 181.70399 229.023532 
L 182.004723 229.037843 
L 182.305455 228.330068 
L 182.606188 228.203104 
L 182.906921 227.938187 
L 183.207653 228.266586 
L 183.508386 228.266586 
L 183.809119 228.005605 
L 184.109851 228.50025 
L 184.711316 228.635232 
L 185.012049 229.037843 
L 185.312782 229.179636 
L 185.613514 228.301854 
L 185.914247 228.699171 
L 186.21498 228.765924 
L 186.515712 229.599431 
L 186.816445 229.352628 
L 187.117178 228.748901 
L 187.41791 227.833134 
L 187.718643 228.514459 
L 188.019375 228.294801 
L 188.320108 229.030688 
L 188.620841 229.080778 
L 188.921573 228.684962 
L 189.222306 229.331004 
L 189.523039 228.663649 
L 189.823771 228.557085 
L 190.124504 229.152336 
L 190.425236 229.172428 
L 190.725969 229.730129 
L 191.026702 229.102245 
L 191.327434 228.994909 
L 191.628167 229.352628 
L 191.9289 229.095089 
L 192.229632 228.493146 
L 192.530365 228.635232 
L 192.831098 229.186844 
L 193.13183 228.734692 
L 193.432563 228.578398 
L 193.733295 228.592606 
L 194.034028 228.27364 
L 194.334761 229.446332 
L 194.635493 229.087934 
L 194.936226 229.460748 
L 195.236959 229.621214 
L 195.537691 228.808858 
L 195.838424 228.808858 
L 196.139156 229.14518 
L 196.439889 229.116557 
L 196.740622 229.5977 
L 197.041354 229.30938 
L 197.342087 229.439124 
L 197.64282 229.780957 
L 197.943552 228.224265 
L 198.244285 229.679302 
L 198.545018 230.018131 
L 198.84575 229.080778 
L 199.146483 229.179636 
L 199.447215 229.576076 
L 199.747948 228.443416 
L 200.048681 229.959613 
L 200.349413 229.030688 
L 200.650146 229.708346 
L 200.950879 229.496788 
L 201.251611 230.23026 
L 201.552344 229.446332 
L 201.853076 229.116557 
L 202.454542 229.059311 
L 202.755274 229.810001 
L 203.056007 228.837482 
L 203.657472 230.384125 
L 203.958205 229.897133 
L 204.258938 229.066466 
L 204.55967 229.34542 
L 205.161135 228.801703 
L 205.461868 230.296093 
L 205.762601 230.266834 
L 206.063333 229.230092 
L 206.364066 229.628475 
L 206.664799 229.730129 
L 207.266264 229.38146 
L 207.566996 229.584909 
L 207.867729 229.215676 
L 208.168462 229.642997 
L 208.469194 229.45354 
L 208.769927 229.475164 
L 209.07066 228.980597 
L 209.371392 229.937669 
L 209.672125 228.146676 
L 209.972858 229.853567 
L 210.27359 230.605207 
L 210.574323 229.38146 
L 210.875055 230.457819 
L 211.476521 229.359836 
L 211.777253 230.288779 
L 211.777253 230.288779 
" style="fill:none;stroke:#d62728;stroke-linecap:square;stroke-width:1.5;"/>
   </g>
   <g id="line2d_27">
    <path clip-path="url(#p304c686b55)" d="M 61.410938 23.543308 
L 418.530938 23.543308 
" style="fill:none;stroke:#99aaaa;stroke-dasharray:9.6,2.4,1.5,2.4;stroke-dashoffset:0;stroke-width:1.5;"/>
   </g>
   <g id="line2d_28">
    <defs>
     <path d="M -3 3 
L 3 3 
L 3 -3 
L -3 -3 
z
" id="m9e0ac68bfd" style="stroke:#1f77b4;stroke-linejoin:miter;"/>
    </defs>
    <g clip-path="url(#p304c686b55)">
     <use style="fill:#1f77b4;stroke:#1f77b4;stroke-linejoin:miter;" x="61.410938" xlink:href="#m9e0ac68bfd" y="278.419468"/>
     <use style="fill:#1f77b4;stroke:#1f77b4;stroke-linejoin:miter;" x="70.182306" xlink:href="#m9e0ac68bfd" y="212.756606"/>
     <use style="fill:#1f77b4;stroke:#1f77b4;stroke-linejoin:miter;" x="78.953674" xlink:href="#m9e0ac68bfd" y="114.647534"/>
     <use style="fill:#1f77b4;stroke:#1f77b4;stroke-linejoin:miter;" x="87.725043" xlink:href="#m9e0ac68bfd" y="59.10656"/>
     <use style="fill:#1f77b4;stroke:#1f77b4;stroke-linejoin:miter;" x="96.496411" xlink:href="#m9e0ac68bfd" y="111.69148"/>
     <use style="fill:#1f77b4;stroke:#1f77b4;stroke-linejoin:miter;" x="105.26778" xlink:href="#m9e0ac68bfd" y="214.174218"/>
     <use style="fill:#1f77b4;stroke:#1f77b4;stroke-linejoin:miter;" x="114.039148" xlink:href="#m9e0ac68bfd" y="269.002191"/>
     <use style="fill:#1f77b4;stroke:#1f77b4;stroke-linejoin:miter;" x="122.810516" xlink:href="#m9e0ac68bfd" y="221.897168"/>
     <use style="fill:#1f77b4;stroke:#1f77b4;stroke-linejoin:miter;" x="131.581885" xlink:href="#m9e0ac68bfd" y="113.245228"/>
     <use style="fill:#1f77b4;stroke:#1f77b4;stroke-linejoin:miter;" x="140.353253" xlink:href="#m9e0ac68bfd" y="56.888771"/>
     <use style="fill:#1f77b4;stroke:#1f77b4;stroke-linejoin:miter;" x="149.124622" xlink:href="#m9e0ac68bfd" y="87.669235"/>
     <use style="fill:#1f77b4;stroke:#1f77b4;stroke-linejoin:miter;" x="157.89599" xlink:href="#m9e0ac68bfd" y="195.007731"/>
     <use style="fill:#1f77b4;stroke:#1f77b4;stroke-linejoin:miter;" x="166.667359" xlink:href="#m9e0ac68bfd" y="263.979397"/>
     <use style="fill:#1f77b4;stroke:#1f77b4;stroke-linejoin:miter;" x="175.438727" xlink:href="#m9e0ac68bfd" y="227.921815"/>
     <use style="fill:#1f77b4;stroke:#1f77b4;stroke-linejoin:miter;" x="184.210095" xlink:href="#m9e0ac68bfd" y="132.249489"/>
     <use style="fill:#1f77b4;stroke:#1f77b4;stroke-linejoin:miter;" x="192.981464" xlink:href="#m9e0ac68bfd" y="53.884828"/>
     <use style="fill:#1f77b4;stroke:#1f77b4;stroke-linejoin:miter;" x="201.752832" xlink:href="#m9e0ac68bfd" y="94.373648"/>
     <use style="fill:#1f77b4;stroke:#1f77b4;stroke-linejoin:miter;" x="210.524201" xlink:href="#m9e0ac68bfd" y="177.158226"/>
     <use style="fill:#1f77b4;stroke:#1f77b4;stroke-linejoin:miter;" x="219.295569" xlink:href="#m9e0ac68bfd" y="257.938611"/>
     <use style="fill:#1f77b4;stroke:#1f77b4;stroke-linejoin:miter;" x="228.066938" xlink:href="#m9e0ac68bfd" y="229.406618"/>
     <use style="fill:#1f77b4;stroke:#1f77b4;stroke-linejoin:miter;" x="236.838306" xlink:href="#m9e0ac68bfd" y="154.783188"/>
     <use style="fill:#1f77b4;stroke:#1f77b4;stroke-linejoin:miter;" x="245.609674" xlink:href="#m9e0ac68bfd" y="78.228125"/>
     <use style="fill:#1f77b4;stroke:#1f77b4;stroke-linejoin:miter;" x="254.381043" xlink:href="#m9e0ac68bfd" y="78.853311"/>
     <use style="fill:#1f77b4;stroke:#1f77b4;stroke-linejoin:miter;" x="263.152411" xlink:href="#m9e0ac68bfd" y="146.504646"/>
     <use style="fill:#1f77b4;stroke:#1f77b4;stroke-linejoin:miter;" x="271.92378" xlink:href="#m9e0ac68bfd" y="227.101088"/>
     <use style="fill:#1f77b4;stroke:#1f77b4;stroke-linejoin:miter;" x="280.695148" xlink:href="#m9e0ac68bfd" y="237.394194"/>
     <use style="fill:#1f77b4;stroke:#1f77b4;stroke-linejoin:miter;" x="289.466516" xlink:href="#m9e0ac68bfd" y="173.383039"/>
     <use style="fill:#1f77b4;stroke:#1f77b4;stroke-linejoin:miter;" x="298.237885" xlink:href="#m9e0ac68bfd" y="91.27428"/>
     <use style="fill:#1f77b4;stroke:#1f77b4;stroke-linejoin:miter;" x="307.009253" xlink:href="#m9e0ac68bfd" y="63.228706"/>
     <use style="fill:#1f77b4;stroke:#1f77b4;stroke-linejoin:miter;" x="315.780622" xlink:href="#m9e0ac68bfd" y="141.047025"/>
     <use style="fill:#1f77b4;stroke:#1f77b4;stroke-linejoin:miter;" x="324.55199" xlink:href="#m9e0ac68bfd" y="204.342271"/>
     <use style="fill:#1f77b4;stroke:#1f77b4;stroke-linejoin:miter;" x="333.323359" xlink:href="#m9e0ac68bfd" y="232.441228"/>
     <use style="fill:#1f77b4;stroke:#1f77b4;stroke-linejoin:miter;" x="342.094727" xlink:href="#m9e0ac68bfd" y="179.812828"/>
     <use style="fill:#1f77b4;stroke:#1f77b4;stroke-linejoin:miter;" x="350.866095" xlink:href="#m9e0ac68bfd" y="112.844118"/>
     <use style="fill:#1f77b4;stroke:#1f77b4;stroke-linejoin:miter;" x="359.637464" xlink:href="#m9e0ac68bfd" y="84.92501"/>
     <use style="fill:#1f77b4;stroke:#1f77b4;stroke-linejoin:miter;" x="368.408832" xlink:href="#m9e0ac68bfd" y="109.610828"/>
     <use style="fill:#1f77b4;stroke:#1f77b4;stroke-linejoin:miter;" x="377.180201" xlink:href="#m9e0ac68bfd" y="184.984588"/>
     <use style="fill:#1f77b4;stroke:#1f77b4;stroke-linejoin:miter;" x="385.951569" xlink:href="#m9e0ac68bfd" y="228.294416"/>
     <use style="fill:#1f77b4;stroke:#1f77b4;stroke-linejoin:miter;" x="394.722938" xlink:href="#m9e0ac68bfd" y="195.211136"/>
     <use style="fill:#1f77b4;stroke:#1f77b4;stroke-linejoin:miter;" x="403.494306" xlink:href="#m9e0ac68bfd" y="149.352003"/>
     <use style="fill:#1f77b4;stroke:#1f77b4;stroke-linejoin:miter;" x="412.265674" xlink:href="#m9e0ac68bfd" y="84.638699"/>
    </g>
   </g>
   <g id="line2d_29">
    <defs>
     <path d="M 0 3 
C 0.795609 3 1.55874 2.683901 2.12132 2.12132 
C 2.683901 1.55874 3 0.795609 3 0 
C 3 -0.795609 2.683901 -1.55874 2.12132 -2.12132 
C 1.55874 -2.683901 0.795609 -3 0 -3 
C -0.795609 -3 -1.55874 -2.683901 -2.12132 -2.12132 
C -2.683901 -1.55874 -3 -0.795609 -3 0 
C -3 0.795609 -2.683901 1.55874 -2.12132 2.12132 
C -1.55874 2.683901 -0.795609 3 0 3 
z
" id="m4d17eb6f4c" style="stroke:#d62728;"/>
    </defs>
    <g clip-path="url(#p304c686b55)">
     <use style="fill:#d62728;stroke:#d62728;" x="61.410938" xlink:href="#m4d17eb6f4c" y="271.284996"/>
     <use style="fill:#d62728;stroke:#d62728;" x="70.182306" xlink:href="#m4d17eb6f4c" y="264.646828"/>
     <use style="fill:#d62728;stroke:#d62728;" x="78.953674" xlink:href="#m4d17eb6f4c" y="242.383053"/>
     <use style="fill:#d62728;stroke:#d62728;" x="87.725043" xlink:href="#m4d17eb6f4c" y="219.595885"/>
     <use style="fill:#d62728;stroke:#d62728;" x="96.496411" xlink:href="#m4d17eb6f4c" y="205.520596"/>
     <use style="fill:#d62728;stroke:#d62728;" x="105.26778" xlink:href="#m4d17eb6f4c" y="210.214828"/>
     <use style="fill:#d62728;stroke:#d62728;" x="114.039148" xlink:href="#m4d17eb6f4c" y="225.61893"/>
     <use style="fill:#d62728;stroke:#d62728;" x="122.810516" xlink:href="#m4d17eb6f4c" y="211.31567"/>
     <use style="fill:#d62728;stroke:#d62728;" x="131.581885" xlink:href="#m4d17eb6f4c" y="230.703873"/>
     <use style="fill:#d62728;stroke:#d62728;" x="140.353253" xlink:href="#m4d17eb6f4c" y="221.986828"/>
     <use style="fill:#d62728;stroke:#d62728;" x="149.124622" xlink:href="#m4d17eb6f4c" y="219.579148"/>
     <use style="fill:#d62728;stroke:#d62728;" x="157.89599" xlink:href="#m4d17eb6f4c" y="230.080557"/>
     <use style="fill:#d62728;stroke:#d62728;" x="166.667359" xlink:href="#m4d17eb6f4c" y="234.946828"/>
     <use style="fill:#d62728;stroke:#d62728;" x="175.438727" xlink:href="#m4d17eb6f4c" y="239.679809"/>
     <use style="fill:#d62728;stroke:#d62728;" x="184.210095" xlink:href="#m4d17eb6f4c" y="216.977963"/>
     <use style="fill:#d62728;stroke:#d62728;" x="192.981464" xlink:href="#m4d17eb6f4c" y="222.850828"/>
    </g>
   </g>
   <g id="patch_3">
    <path d="M 61.410938 279.010828 
L 61.410938 12.898828 
" style="fill:none;stroke:#000000;stroke-linecap:square;stroke-linejoin:miter;stroke-width:0.8;"/>
   </g>
   <g id="patch_4">
    <path d="M 418.530938 279.010828 
L 418.530938 12.898828 
" style="fill:none;stroke:#000000;stroke-linecap:square;stroke-linejoin:miter;stroke-width:0.8;"/>
   </g>
   <g id="patch_5">
    <path d="M 61.410938 279.010828 
L 418.530938 279.010828 
" style="fill:none;stroke:#000000;stroke-linecap:square;stroke-linejoin:miter;stroke-width:0.8;"/>
   </g>
   <g id="patch_6">
    <path d="M 61.410938 12.898828 
L 418.530938 12.898828 
" style="fill:none;stroke:#000000;stroke-linecap:square;stroke-linejoin:miter;stroke-width:0.8;"/>
   </g>
   <g id="text_15">
    <!-- (B) -->
    <defs>
     <path d="M 19.671875 34.8125 
L 19.671875 8.109375 
L 35.5 8.109375 
Q 43.453125 8.109375 47.28125 11.40625 
Q 51.125 14.703125 51.125 21.484375 
Q 51.125 28.328125 47.28125 31.5625 
Q 43.453125 34.8125 35.5 34.8125 
z
M 19.671875 64.796875 
L 19.671875 42.828125 
L 34.28125 42.828125 
Q 41.5 42.828125 45.03125 45.53125 
Q 48.578125 48.25 48.578125 53.8125 
Q 48.578125 59.328125 45.03125 62.0625 
Q 41.5 64.796875 34.28125 64.796875 
z
M 9.8125 72.90625 
L 35.015625 72.90625 
Q 46.296875 72.90625 52.390625 68.21875 
Q 58.5 63.53125 58.5 54.890625 
Q 58.5 48.1875 55.375 44.234375 
Q 52.25 40.28125 46.1875 39.3125 
Q 53.46875 37.75 57.5 32.78125 
Q 61.53125 27.828125 61.53125 20.40625 
Q 61.53125 10.640625 54.890625 5.3125 
Q 48.25 0 35.984375 0 
L 9.8125 0 
z
" id="DejaVuSans-42"/>
    </defs>
    <g transform="translate(379.686306 39.510028)scale(0.2 -0.2)">
     <use xlink:href="#DejaVuSans-28"/>
     <use x="39.013672" xlink:href="#DejaVuSans-42"/>
     <use x="107.617188" xlink:href="#DejaVuSans-29"/>
    </g>
   </g>
  </g>
 </g>
 <defs>
  <clipPath id="p304c686b55">
   <rect height="266.112" width="357.12" x="61.410938" y="12.898828"/>
  </clipPath>
 </defs>
</svg>
