<?xml version="1.0" encoding="utf-8" standalone="no"?>
<!DOCTYPE svg PUBLIC "-//W3C//DTD SVG 1.1//EN"
  "http://www.w3.org/Graphics/SVG/1.1/DTD/svg11.dtd">
<!-- Created with matplotlib (http://matplotlib.org/) -->
<svg height="349pt" version="1.1" viewBox="0 0 429 349" width="429pt" xmlns="http://www.w3.org/2000/svg" xmlns:xlink="http://www.w3.org/1999/xlink">
 <defs>
  <style type="text/css">
*{stroke-linecap:butt;stroke-linejoin:round;}
  </style>
 </defs>
 <g id="figure_1">
  <g id="patch_1">
   <path d="M 0 349.665437 
L 429.230937 349.665437 
L 429.230937 0 
L 0 0 
z
" style="fill:none;"/>
  </g>
  <g id="axes_1">
   <g id="patch_2">
    <path d="M 61.410938 297.54825 
L 418.530938 297.54825 
L 418.530938 31.43625 
L 61.410938 31.43625 
z
" style="fill:none;"/>
   </g>
   <g id="matplotlib.axis_1">
    <g id="xtick_1">
     <g id="line2d_1">
      <path clip-path="url(#pcd39df9889)" d="M 77.643665 297.54825 
L 77.643665 31.43625 
" style="fill:none;stroke:#b0b0b0;stroke-linecap:square;stroke-width:0.8;"/>
     </g>
     <g id="line2d_2">
      <defs>
       <path d="M 0 0 
L 0 3.5 
" id="m005f0a59be" style="stroke:#000000;stroke-width:0.8;"/>
      </defs>
      <g>
       <use style="stroke:#000000;stroke-width:0.8;" x="77.643665" xlink:href="#m005f0a59be" y="297.54825"/>
      </g>
     </g>
     <g id="text_1">
      <!-- 0 -->
      <defs>
       <path d="M 31.78125 66.40625 
Q 24.171875 66.40625 20.328125 58.90625 
Q 16.5 51.421875 16.5 36.375 
Q 16.5 21.390625 20.328125 13.890625 
Q 24.171875 6.390625 31.78125 6.390625 
Q 39.453125 6.390625 43.28125 13.890625 
Q 47.125 21.390625 47.125 36.375 
Q 47.125 51.421875 43.28125 58.90625 
Q 39.453125 66.40625 31.78125 66.40625 
z
M 31.78125 74.21875 
Q 44.046875 74.21875 50.515625 64.515625 
Q 56.984375 54.828125 56.984375 36.375 
Q 56.984375 17.96875 50.515625 8.265625 
Q 44.046875 -1.421875 31.78125 -1.421875 
Q 19.53125 -1.421875 13.0625 8.265625 
Q 6.59375 17.96875 6.59375 36.375 
Q 6.59375 54.828125 13.0625 64.515625 
Q 19.53125 74.21875 31.78125 74.21875 
z
" id="DejaVuSans-30"/>
      </defs>
      <g transform="translate(72.87179 315.945906)scale(0.15 -0.15)">
       <use xlink:href="#DejaVuSans-30"/>
      </g>
     </g>
    </g>
    <g id="xtick_2">
     <g id="line2d_3">
      <path clip-path="url(#pcd39df9889)" d="M 139.482626 297.54825 
L 139.482626 31.43625 
" style="fill:none;stroke:#b0b0b0;stroke-linecap:square;stroke-width:0.8;"/>
     </g>
     <g id="line2d_4">
      <g>
       <use style="stroke:#000000;stroke-width:0.8;" x="139.482626" xlink:href="#m005f0a59be" y="297.54825"/>
      </g>
     </g>
     <g id="text_2">
      <!-- 20 -->
      <defs>
       <path d="M 19.1875 8.296875 
L 53.609375 8.296875 
L 53.609375 0 
L 7.328125 0 
L 7.328125 8.296875 
Q 12.9375 14.109375 22.625 23.890625 
Q 32.328125 33.6875 34.8125 36.53125 
Q 39.546875 41.84375 41.421875 45.53125 
Q 43.3125 49.21875 43.3125 52.78125 
Q 43.3125 58.59375 39.234375 62.25 
Q 35.15625 65.921875 28.609375 65.921875 
Q 23.96875 65.921875 18.8125 64.3125 
Q 13.671875 62.703125 7.8125 59.421875 
L 7.8125 69.390625 
Q 13.765625 71.78125 18.9375 73 
Q 24.125 74.21875 28.421875 74.21875 
Q 39.75 74.21875 46.484375 68.546875 
Q 53.21875 62.890625 53.21875 53.421875 
Q 53.21875 48.921875 51.53125 44.890625 
Q 49.859375 40.875 45.40625 35.40625 
Q 44.1875 33.984375 37.640625 27.21875 
Q 31.109375 20.453125 19.1875 8.296875 
z
" id="DejaVuSans-32"/>
      </defs>
      <g transform="translate(129.938876 315.945906)scale(0.15 -0.15)">
       <use xlink:href="#DejaVuSans-32"/>
       <use x="63.623047" xlink:href="#DejaVuSans-30"/>
      </g>
     </g>
    </g>
    <g id="xtick_3">
     <g id="line2d_5">
      <path clip-path="url(#pcd39df9889)" d="M 201.321587 297.54825 
L 201.321587 31.43625 
" style="fill:none;stroke:#b0b0b0;stroke-linecap:square;stroke-width:0.8;"/>
     </g>
     <g id="line2d_6">
      <g>
       <use style="stroke:#000000;stroke-width:0.8;" x="201.321587" xlink:href="#m005f0a59be" y="297.54825"/>
      </g>
     </g>
     <g id="text_3">
      <!-- 40 -->
      <defs>
       <path d="M 37.796875 64.3125 
L 12.890625 25.390625 
L 37.796875 25.390625 
z
M 35.203125 72.90625 
L 47.609375 72.90625 
L 47.609375 25.390625 
L 58.015625 25.390625 
L 58.015625 17.1875 
L 47.609375 17.1875 
L 47.609375 0 
L 37.796875 0 
L 37.796875 17.1875 
L 4.890625 17.1875 
L 4.890625 26.703125 
z
" id="DejaVuSans-34"/>
      </defs>
      <g transform="translate(191.777837 315.945906)scale(0.15 -0.15)">
       <use xlink:href="#DejaVuSans-34"/>
       <use x="63.623047" xlink:href="#DejaVuSans-30"/>
      </g>
     </g>
    </g>
    <g id="xtick_4">
     <g id="line2d_7">
      <path clip-path="url(#pcd39df9889)" d="M 263.160548 297.54825 
L 263.160548 31.43625 
" style="fill:none;stroke:#b0b0b0;stroke-linecap:square;stroke-width:0.8;"/>
     </g>
     <g id="line2d_8">
      <g>
       <use style="stroke:#000000;stroke-width:0.8;" x="263.160548" xlink:href="#m005f0a59be" y="297.54825"/>
      </g>
     </g>
     <g id="text_4">
      <!-- 60 -->
      <defs>
       <path d="M 33.015625 40.375 
Q 26.375 40.375 22.484375 35.828125 
Q 18.609375 31.296875 18.609375 23.390625 
Q 18.609375 15.53125 22.484375 10.953125 
Q 26.375 6.390625 33.015625 6.390625 
Q 39.65625 6.390625 43.53125 10.953125 
Q 47.40625 15.53125 47.40625 23.390625 
Q 47.40625 31.296875 43.53125 35.828125 
Q 39.65625 40.375 33.015625 40.375 
z
M 52.59375 71.296875 
L 52.59375 62.3125 
Q 48.875 64.0625 45.09375 64.984375 
Q 41.3125 65.921875 37.59375 65.921875 
Q 27.828125 65.921875 22.671875 59.328125 
Q 17.53125 52.734375 16.796875 39.40625 
Q 19.671875 43.65625 24.015625 45.921875 
Q 28.375 48.1875 33.59375 48.1875 
Q 44.578125 48.1875 50.953125 41.515625 
Q 57.328125 34.859375 57.328125 23.390625 
Q 57.328125 12.15625 50.6875 5.359375 
Q 44.046875 -1.421875 33.015625 -1.421875 
Q 20.359375 -1.421875 13.671875 8.265625 
Q 6.984375 17.96875 6.984375 36.375 
Q 6.984375 53.65625 15.1875 63.9375 
Q 23.390625 74.21875 37.203125 74.21875 
Q 40.921875 74.21875 44.703125 73.484375 
Q 48.484375 72.75 52.59375 71.296875 
z
" id="DejaVuSans-36"/>
      </defs>
      <g transform="translate(253.616798 315.945906)scale(0.15 -0.15)">
       <use xlink:href="#DejaVuSans-36"/>
       <use x="63.623047" xlink:href="#DejaVuSans-30"/>
      </g>
     </g>
    </g>
    <g id="xtick_5">
     <g id="line2d_9">
      <path clip-path="url(#pcd39df9889)" d="M 324.999509 297.54825 
L 324.999509 31.43625 
" style="fill:none;stroke:#b0b0b0;stroke-linecap:square;stroke-width:0.8;"/>
     </g>
     <g id="line2d_10">
      <g>
       <use style="stroke:#000000;stroke-width:0.8;" x="324.999509" xlink:href="#m005f0a59be" y="297.54825"/>
      </g>
     </g>
     <g id="text_5">
      <!-- 80 -->
      <defs>
       <path d="M 31.78125 34.625 
Q 24.75 34.625 20.71875 30.859375 
Q 16.703125 27.09375 16.703125 20.515625 
Q 16.703125 13.921875 20.71875 10.15625 
Q 24.75 6.390625 31.78125 6.390625 
Q 38.8125 6.390625 42.859375 10.171875 
Q 46.921875 13.96875 46.921875 20.515625 
Q 46.921875 27.09375 42.890625 30.859375 
Q 38.875 34.625 31.78125 34.625 
z
M 21.921875 38.8125 
Q 15.578125 40.375 12.03125 44.71875 
Q 8.5 49.078125 8.5 55.328125 
Q 8.5 64.0625 14.71875 69.140625 
Q 20.953125 74.21875 31.78125 74.21875 
Q 42.671875 74.21875 48.875 69.140625 
Q 55.078125 64.0625 55.078125 55.328125 
Q 55.078125 49.078125 51.53125 44.71875 
Q 48 40.375 41.703125 38.8125 
Q 48.828125 37.15625 52.796875 32.3125 
Q 56.78125 27.484375 56.78125 20.515625 
Q 56.78125 9.90625 50.3125 4.234375 
Q 43.84375 -1.421875 31.78125 -1.421875 
Q 19.734375 -1.421875 13.25 4.234375 
Q 6.78125 9.90625 6.78125 20.515625 
Q 6.78125 27.484375 10.78125 32.3125 
Q 14.796875 37.15625 21.921875 38.8125 
z
M 18.3125 54.390625 
Q 18.3125 48.734375 21.84375 45.5625 
Q 25.390625 42.390625 31.78125 42.390625 
Q 38.140625 42.390625 41.71875 45.5625 
Q 45.3125 48.734375 45.3125 54.390625 
Q 45.3125 60.0625 41.71875 63.234375 
Q 38.140625 66.40625 31.78125 66.40625 
Q 25.390625 66.40625 21.84375 63.234375 
Q 18.3125 60.0625 18.3125 54.390625 
z
" id="DejaVuSans-38"/>
      </defs>
      <g transform="translate(315.455759 315.945906)scale(0.15 -0.15)">
       <use xlink:href="#DejaVuSans-38"/>
       <use x="63.623047" xlink:href="#DejaVuSans-30"/>
      </g>
     </g>
    </g>
    <g id="xtick_6">
     <g id="line2d_11">
      <path clip-path="url(#pcd39df9889)" d="M 386.83847 297.54825 
L 386.83847 31.43625 
" style="fill:none;stroke:#b0b0b0;stroke-linecap:square;stroke-width:0.8;"/>
     </g>
     <g id="line2d_12">
      <g>
       <use style="stroke:#000000;stroke-width:0.8;" x="386.83847" xlink:href="#m005f0a59be" y="297.54825"/>
      </g>
     </g>
     <g id="text_6">
      <!-- 100 -->
      <defs>
       <path d="M 12.40625 8.296875 
L 28.515625 8.296875 
L 28.515625 63.921875 
L 10.984375 60.40625 
L 10.984375 69.390625 
L 28.421875 72.90625 
L 38.28125 72.90625 
L 38.28125 8.296875 
L 54.390625 8.296875 
L 54.390625 0 
L 12.40625 0 
z
" id="DejaVuSans-31"/>
      </defs>
      <g transform="translate(372.522845 315.945906)scale(0.15 -0.15)">
       <use xlink:href="#DejaVuSans-31"/>
       <use x="63.623047" xlink:href="#DejaVuSans-30"/>
       <use x="127.246094" xlink:href="#DejaVuSans-30"/>
      </g>
     </g>
    </g>
    <g id="text_7">
     <!-- Time ($\mu s$) -->
     <defs>
      <path d="M -0.296875 72.90625 
L 61.375 72.90625 
L 61.375 64.59375 
L 35.5 64.59375 
L 35.5 0 
L 25.59375 0 
L 25.59375 64.59375 
L -0.296875 64.59375 
z
" id="DejaVuSans-54"/>
      <path d="M 9.421875 54.6875 
L 18.40625 54.6875 
L 18.40625 0 
L 9.421875 0 
z
M 9.421875 75.984375 
L 18.40625 75.984375 
L 18.40625 64.59375 
L 9.421875 64.59375 
z
" id="DejaVuSans-69"/>
      <path d="M 52 44.1875 
Q 55.375 50.25 60.0625 53.125 
Q 64.75 56 71.09375 56 
Q 79.640625 56 84.28125 50.015625 
Q 88.921875 44.046875 88.921875 33.015625 
L 88.921875 0 
L 79.890625 0 
L 79.890625 32.71875 
Q 79.890625 40.578125 77.09375 44.375 
Q 74.3125 48.1875 68.609375 48.1875 
Q 61.625 48.1875 57.5625 43.546875 
Q 53.515625 38.921875 53.515625 30.90625 
L 53.515625 0 
L 44.484375 0 
L 44.484375 32.71875 
Q 44.484375 40.625 41.703125 44.40625 
Q 38.921875 48.1875 33.109375 48.1875 
Q 26.21875 48.1875 22.15625 43.53125 
Q 18.109375 38.875 18.109375 30.90625 
L 18.109375 0 
L 9.078125 0 
L 9.078125 54.6875 
L 18.109375 54.6875 
L 18.109375 46.1875 
Q 21.1875 51.21875 25.484375 53.609375 
Q 29.78125 56 35.6875 56 
Q 41.65625 56 45.828125 52.96875 
Q 50 49.953125 52 44.1875 
z
" id="DejaVuSans-6d"/>
      <path d="M 56.203125 29.59375 
L 56.203125 25.203125 
L 14.890625 25.203125 
Q 15.484375 15.921875 20.484375 11.0625 
Q 25.484375 6.203125 34.421875 6.203125 
Q 39.59375 6.203125 44.453125 7.46875 
Q 49.3125 8.734375 54.109375 11.28125 
L 54.109375 2.78125 
Q 49.265625 0.734375 44.1875 -0.34375 
Q 39.109375 -1.421875 33.890625 -1.421875 
Q 20.796875 -1.421875 13.15625 6.1875 
Q 5.515625 13.8125 5.515625 26.8125 
Q 5.515625 40.234375 12.765625 48.109375 
Q 20.015625 56 32.328125 56 
Q 43.359375 56 49.78125 48.890625 
Q 56.203125 41.796875 56.203125 29.59375 
z
M 47.21875 32.234375 
Q 47.125 39.59375 43.09375 43.984375 
Q 39.0625 48.390625 32.421875 48.390625 
Q 24.90625 48.390625 20.390625 44.140625 
Q 15.875 39.890625 15.1875 32.171875 
z
" id="DejaVuSans-65"/>
      <path id="DejaVuSans-20"/>
      <path d="M 31 75.875 
Q 24.46875 64.65625 21.28125 53.65625 
Q 18.109375 42.671875 18.109375 31.390625 
Q 18.109375 20.125 21.3125 9.0625 
Q 24.515625 -2 31 -13.1875 
L 23.1875 -13.1875 
Q 15.875 -1.703125 12.234375 9.375 
Q 8.59375 20.453125 8.59375 31.390625 
Q 8.59375 42.28125 12.203125 53.3125 
Q 15.828125 64.359375 23.1875 75.875 
z
" id="DejaVuSans-28"/>
      <path d="M -1.3125 -20.796875 
L 13.375 54.6875 
L 22.40625 54.6875 
L 15.765625 20.65625 
Q 15.578125 19.625 15.421875 18.359375 
Q 15.28125 17.09375 15.28125 15.828125 
Q 15.28125 11.28125 18.140625 8.828125 
Q 21 6.390625 26.3125 6.390625 
Q 33.546875 6.390625 37.984375 10.484375 
Q 42.4375 14.59375 44 22.796875 
L 50.203125 54.6875 
L 59.1875 54.6875 
L 51.03125 12.640625 
Q 50.828125 11.71875 50.75 11.03125 
Q 50.6875 10.359375 50.6875 9.8125 
Q 50.6875 8.296875 51.296875 7.59375 
Q 51.90625 6.890625 53.21875 6.890625 
Q 53.71875 6.890625 54.5625 7.125 
Q 55.421875 7.375 56.984375 8.015625 
L 55.609375 0.78125 
Q 53.46875 -0.296875 51.515625 -0.859375 
Q 49.5625 -1.421875 47.703125 -1.421875 
Q 44.484375 -1.421875 42.65625 0.625 
Q 40.828125 2.6875 40.828125 6.296875 
Q 38.09375 2.390625 34.296875 0.484375 
Q 30.515625 -1.421875 25.390625 -1.421875 
Q 20.84375 -1.421875 17.453125 0.671875 
Q 14.0625 2.78125 12.984375 6.203125 
L 7.71875 -20.796875 
z
" id="DejaVuSans-Oblique-3bc"/>
      <path d="M 50 53.078125 
L 48.296875 44.578125 
Q 44.734375 46.53125 40.765625 47.5 
Q 36.8125 48.484375 32.625 48.484375 
Q 25.53125 48.484375 21.453125 46.0625 
Q 17.390625 43.65625 17.390625 39.5 
Q 17.390625 34.671875 26.859375 32.078125 
Q 27.59375 31.890625 27.9375 31.78125 
L 30.8125 30.90625 
Q 39.796875 28.421875 42.796875 25.6875 
Q 45.796875 22.953125 45.796875 18.21875 
Q 45.796875 9.515625 38.890625 4.046875 
Q 31.984375 -1.421875 20.796875 -1.421875 
Q 16.453125 -1.421875 11.671875 -0.578125 
Q 6.890625 0.25 1.125 2 
L 2.875 11.28125 
Q 7.8125 8.734375 12.59375 7.421875 
Q 17.390625 6.109375 21.78125 6.109375 
Q 28.375 6.109375 32.5 8.9375 
Q 36.625 11.765625 36.625 16.109375 
Q 36.625 20.796875 25.78125 23.6875 
L 24.859375 23.921875 
L 21.78125 24.703125 
Q 14.9375 26.515625 11.765625 29.46875 
Q 8.59375 32.421875 8.59375 37.015625 
Q 8.59375 45.75 15.15625 50.875 
Q 21.734375 56 33.015625 56 
Q 37.453125 56 41.671875 55.265625 
Q 45.90625 54.546875 50 53.078125 
z
" id="DejaVuSans-Oblique-73"/>
      <path d="M 8.015625 75.875 
L 15.828125 75.875 
Q 23.140625 64.359375 26.78125 53.3125 
Q 30.421875 42.28125 30.421875 31.390625 
Q 30.421875 20.453125 26.78125 9.375 
Q 23.140625 -1.703125 15.828125 -13.1875 
L 8.015625 -13.1875 
Q 14.5 -2 17.703125 9.0625 
Q 20.90625 20.125 20.90625 31.390625 
Q 20.90625 42.671875 17.703125 53.65625 
Q 14.5 64.65625 8.015625 75.875 
z
" id="DejaVuSans-29"/>
     </defs>
     <g transform="translate(192.570938 338.265437)scale(0.2 -0.2)">
      <use transform="translate(0 0.015625)" xlink:href="#DejaVuSans-54"/>
      <use transform="translate(61.083984 0.015625)" xlink:href="#DejaVuSans-69"/>
      <use transform="translate(88.867188 0.015625)" xlink:href="#DejaVuSans-6d"/>
      <use transform="translate(186.279297 0.015625)" xlink:href="#DejaVuSans-65"/>
      <use transform="translate(247.802734 0.015625)" xlink:href="#DejaVuSans-20"/>
      <use transform="translate(279.589844 0.015625)" xlink:href="#DejaVuSans-28"/>
      <use transform="translate(318.603516 0.015625)" xlink:href="#DejaVuSans-Oblique-3bc"/>
      <use transform="translate(382.226562 0.015625)" xlink:href="#DejaVuSans-Oblique-73"/>
      <use transform="translate(434.326172 0.015625)" xlink:href="#DejaVuSans-29"/>
     </g>
    </g>
   </g>
   <g id="matplotlib.axis_2">
    <g id="ytick_1">
     <g id="line2d_13">
      <path clip-path="url(#pcd39df9889)" d="M 61.410938 297.54825 
L 418.530938 297.54825 
" style="fill:none;stroke:#b0b0b0;stroke-linecap:square;stroke-width:0.8;"/>
     </g>
     <g id="line2d_14">
      <defs>
       <path d="M 0 0 
L -3.5 0 
" id="mc3ce260a5b" style="stroke:#000000;stroke-width:0.8;"/>
      </defs>
      <g>
       <use style="stroke:#000000;stroke-width:0.8;" x="61.410938" xlink:href="#mc3ce260a5b" y="297.54825"/>
      </g>
     </g>
     <g id="text_8">
      <!-- 0.0 -->
      <defs>
       <path d="M 10.6875 12.40625 
L 21 12.40625 
L 21 0 
L 10.6875 0 
z
" id="DejaVuSans-2e"/>
      </defs>
      <g transform="translate(30.55625 303.247078)scale(0.15 -0.15)">
       <use xlink:href="#DejaVuSans-30"/>
       <use x="63.623047" xlink:href="#DejaVuSans-2e"/>
       <use x="95.410156" xlink:href="#DejaVuSans-30"/>
      </g>
     </g>
    </g>
    <g id="ytick_2">
     <g id="line2d_15">
      <path clip-path="url(#pcd39df9889)" d="M 61.410938 244.32585 
L 418.530938 244.32585 
" style="fill:none;stroke:#b0b0b0;stroke-linecap:square;stroke-width:0.8;"/>
     </g>
     <g id="line2d_16">
      <g>
       <use style="stroke:#000000;stroke-width:0.8;" x="61.410938" xlink:href="#mc3ce260a5b" y="244.32585"/>
      </g>
     </g>
     <g id="text_9">
      <!-- 0.2 -->
      <g transform="translate(30.55625 250.024678)scale(0.15 -0.15)">
       <use xlink:href="#DejaVuSans-30"/>
       <use x="63.623047" xlink:href="#DejaVuSans-2e"/>
       <use x="95.410156" xlink:href="#DejaVuSans-32"/>
      </g>
     </g>
    </g>
    <g id="ytick_3">
     <g id="line2d_17">
      <path clip-path="url(#pcd39df9889)" d="M 61.410938 191.10345 
L 418.530938 191.10345 
" style="fill:none;stroke:#b0b0b0;stroke-linecap:square;stroke-width:0.8;"/>
     </g>
     <g id="line2d_18">
      <g>
       <use style="stroke:#000000;stroke-width:0.8;" x="61.410938" xlink:href="#mc3ce260a5b" y="191.10345"/>
      </g>
     </g>
     <g id="text_10">
      <!-- 0.4 -->
      <g transform="translate(30.55625 196.802278)scale(0.15 -0.15)">
       <use xlink:href="#DejaVuSans-30"/>
       <use x="63.623047" xlink:href="#DejaVuSans-2e"/>
       <use x="95.410156" xlink:href="#DejaVuSans-34"/>
      </g>
     </g>
    </g>
    <g id="ytick_4">
     <g id="line2d_19">
      <path clip-path="url(#pcd39df9889)" d="M 61.410938 137.88105 
L 418.530938 137.88105 
" style="fill:none;stroke:#b0b0b0;stroke-linecap:square;stroke-width:0.8;"/>
     </g>
     <g id="line2d_20">
      <g>
       <use style="stroke:#000000;stroke-width:0.8;" x="61.410938" xlink:href="#mc3ce260a5b" y="137.88105"/>
      </g>
     </g>
     <g id="text_11">
      <!-- 0.6 -->
      <g transform="translate(30.55625 143.579878)scale(0.15 -0.15)">
       <use xlink:href="#DejaVuSans-30"/>
       <use x="63.623047" xlink:href="#DejaVuSans-2e"/>
       <use x="95.410156" xlink:href="#DejaVuSans-36"/>
      </g>
     </g>
    </g>
    <g id="ytick_5">
     <g id="line2d_21">
      <path clip-path="url(#pcd39df9889)" d="M 61.410938 84.65865 
L 418.530938 84.65865 
" style="fill:none;stroke:#b0b0b0;stroke-linecap:square;stroke-width:0.8;"/>
     </g>
     <g id="line2d_22">
      <g>
       <use style="stroke:#000000;stroke-width:0.8;" x="61.410938" xlink:href="#mc3ce260a5b" y="84.65865"/>
      </g>
     </g>
     <g id="text_12">
      <!-- 0.8 -->
      <g transform="translate(30.55625 90.357478)scale(0.15 -0.15)">
       <use xlink:href="#DejaVuSans-30"/>
       <use x="63.623047" xlink:href="#DejaVuSans-2e"/>
       <use x="95.410156" xlink:href="#DejaVuSans-38"/>
      </g>
     </g>
    </g>
    <g id="ytick_6">
     <g id="line2d_23">
      <path clip-path="url(#pcd39df9889)" d="M 61.410938 31.43625 
L 418.530938 31.43625 
" style="fill:none;stroke:#b0b0b0;stroke-linecap:square;stroke-width:0.8;"/>
     </g>
     <g id="line2d_24">
      <g>
       <use style="stroke:#000000;stroke-width:0.8;" x="61.410938" xlink:href="#mc3ce260a5b" y="31.43625"/>
      </g>
     </g>
     <g id="text_13">
      <!-- 1.0 -->
      <g transform="translate(30.55625 37.135078)scale(0.15 -0.15)">
       <use xlink:href="#DejaVuSans-31"/>
       <use x="63.623047" xlink:href="#DejaVuSans-2e"/>
       <use x="95.410156" xlink:href="#DejaVuSans-30"/>
      </g>
     </g>
    </g>
    <g id="text_14">
     <!-- Survival -->
     <defs>
      <path d="M 53.515625 70.515625 
L 53.515625 60.890625 
Q 47.90625 63.578125 42.921875 64.890625 
Q 37.9375 66.21875 33.296875 66.21875 
Q 25.25 66.21875 20.875 63.09375 
Q 16.5 59.96875 16.5 54.203125 
Q 16.5 49.359375 19.40625 46.890625 
Q 22.3125 44.4375 30.421875 42.921875 
L 36.375 41.703125 
Q 47.40625 39.59375 52.65625 34.296875 
Q 57.90625 29 57.90625 20.125 
Q 57.90625 9.515625 50.796875 4.046875 
Q 43.703125 -1.421875 29.984375 -1.421875 
Q 24.8125 -1.421875 18.96875 -0.25 
Q 13.140625 0.921875 6.890625 3.21875 
L 6.890625 13.375 
Q 12.890625 10.015625 18.65625 8.296875 
Q 24.421875 6.59375 29.984375 6.59375 
Q 38.421875 6.59375 43.015625 9.90625 
Q 47.609375 13.234375 47.609375 19.390625 
Q 47.609375 24.75 44.3125 27.78125 
Q 41.015625 30.8125 33.5 32.328125 
L 27.484375 33.5 
Q 16.453125 35.6875 11.515625 40.375 
Q 6.59375 45.0625 6.59375 53.421875 
Q 6.59375 63.09375 13.40625 68.65625 
Q 20.21875 74.21875 32.171875 74.21875 
Q 37.3125 74.21875 42.625 73.28125 
Q 47.953125 72.359375 53.515625 70.515625 
z
" id="DejaVuSans-53"/>
      <path d="M 8.5 21.578125 
L 8.5 54.6875 
L 17.484375 54.6875 
L 17.484375 21.921875 
Q 17.484375 14.15625 20.5 10.265625 
Q 23.53125 6.390625 29.59375 6.390625 
Q 36.859375 6.390625 41.078125 11.03125 
Q 45.3125 15.671875 45.3125 23.6875 
L 45.3125 54.6875 
L 54.296875 54.6875 
L 54.296875 0 
L 45.3125 0 
L 45.3125 8.40625 
Q 42.046875 3.421875 37.71875 1 
Q 33.40625 -1.421875 27.6875 -1.421875 
Q 18.265625 -1.421875 13.375 4.4375 
Q 8.5 10.296875 8.5 21.578125 
z
M 31.109375 56 
z
" id="DejaVuSans-75"/>
      <path d="M 41.109375 46.296875 
Q 39.59375 47.171875 37.8125 47.578125 
Q 36.03125 48 33.890625 48 
Q 26.265625 48 22.1875 43.046875 
Q 18.109375 38.09375 18.109375 28.8125 
L 18.109375 0 
L 9.078125 0 
L 9.078125 54.6875 
L 18.109375 54.6875 
L 18.109375 46.1875 
Q 20.953125 51.171875 25.484375 53.578125 
Q 30.03125 56 36.53125 56 
Q 37.453125 56 38.578125 55.875 
Q 39.703125 55.765625 41.0625 55.515625 
z
" id="DejaVuSans-72"/>
      <path d="M 2.984375 54.6875 
L 12.5 54.6875 
L 29.59375 8.796875 
L 46.6875 54.6875 
L 56.203125 54.6875 
L 35.6875 0 
L 23.484375 0 
z
" id="DejaVuSans-76"/>
      <path d="M 34.28125 27.484375 
Q 23.390625 27.484375 19.1875 25 
Q 14.984375 22.515625 14.984375 16.5 
Q 14.984375 11.71875 18.140625 8.90625 
Q 21.296875 6.109375 26.703125 6.109375 
Q 34.1875 6.109375 38.703125 11.40625 
Q 43.21875 16.703125 43.21875 25.484375 
L 43.21875 27.484375 
z
M 52.203125 31.203125 
L 52.203125 0 
L 43.21875 0 
L 43.21875 8.296875 
Q 40.140625 3.328125 35.546875 0.953125 
Q 30.953125 -1.421875 24.3125 -1.421875 
Q 15.921875 -1.421875 10.953125 3.296875 
Q 6 8.015625 6 15.921875 
Q 6 25.140625 12.171875 29.828125 
Q 18.359375 34.515625 30.609375 34.515625 
L 43.21875 34.515625 
L 43.21875 35.40625 
Q 43.21875 41.609375 39.140625 45 
Q 35.0625 48.390625 27.6875 48.390625 
Q 23 48.390625 18.546875 47.265625 
Q 14.109375 46.140625 10.015625 43.890625 
L 10.015625 52.203125 
Q 14.9375 54.109375 19.578125 55.046875 
Q 24.21875 56 28.609375 56 
Q 40.484375 56 46.34375 49.84375 
Q 52.203125 43.703125 52.203125 31.203125 
z
" id="DejaVuSans-61"/>
      <path d="M 9.421875 75.984375 
L 18.40625 75.984375 
L 18.40625 0 
L 9.421875 0 
z
" id="DejaVuSans-6c"/>
     </defs>
     <g transform="translate(22.396875 204.811)rotate(-90)scale(0.2 -0.2)">
      <use xlink:href="#DejaVuSans-53"/>
      <use x="63.476562" xlink:href="#DejaVuSans-75"/>
      <use x="126.855469" xlink:href="#DejaVuSans-72"/>
      <use x="167.96875" xlink:href="#DejaVuSans-76"/>
      <use x="227.148438" xlink:href="#DejaVuSans-69"/>
      <use x="254.931641" xlink:href="#DejaVuSans-76"/>
      <use x="314.111328" xlink:href="#DejaVuSans-61"/>
      <use x="375.390625" xlink:href="#DejaVuSans-6c"/>
     </g>
    </g>
   </g>
   <g id="LineCollection_1">
    <path clip-path="url(#pcd39df9889)" d="M 77.643665 297.54825 
L 77.643665 296.36553 
" style="fill:none;stroke:#1f77b4;stroke-width:1.5;"/>
    <path clip-path="url(#pcd39df9889)" d="M 85.373535 241.828995 
L 85.373535 227.329727 
" style="fill:none;stroke:#1f77b4;stroke-width:1.5;"/>
    <path clip-path="url(#pcd39df9889)" d="M 93.103405 98.67311 
L 93.103405 83.447692 
" style="fill:none;stroke:#1f77b4;stroke-width:1.5;"/>
    <path clip-path="url(#pcd39df9889)" d="M 100.833275 64.746548 
L 100.833275 54.089419 
" style="fill:none;stroke:#1f77b4;stroke-width:1.5;"/>
    <path clip-path="url(#pcd39df9889)" d="M 108.563145 175.851106 
L 108.563145 158.677394 
" style="fill:none;stroke:#1f77b4;stroke-width:1.5;"/>
    <path clip-path="url(#pcd39df9889)" d="M 116.293015 292.692074 
L 116.293015 286.750779 
" style="fill:none;stroke:#1f77b4;stroke-width:1.5;"/>
    <path clip-path="url(#pcd39df9889)" d="M 124.022886 250.157468 
L 124.022886 236.562773 
" style="fill:none;stroke:#1f77b4;stroke-width:1.5;"/>
    <path clip-path="url(#pcd39df9889)" d="M 131.752756 125.064088 
L 131.752756 108.543987 
" style="fill:none;stroke:#1f77b4;stroke-width:1.5;"/>
    <path clip-path="url(#pcd39df9889)" d="M 139.482626 66.430675 
L 139.482626 55.449268 
" style="fill:none;stroke:#1f77b4;stroke-width:1.5;"/>
    <path clip-path="url(#pcd39df9889)" d="M 147.212496 173.844124 
L 147.212496 156.297385 
" style="fill:none;stroke:#1f77b4;stroke-width:1.5;"/>
    <path clip-path="url(#pcd39df9889)" d="M 154.942366 283.742121 
L 154.942366 274.852291 
" style="fill:none;stroke:#1f77b4;stroke-width:1.5;"/>
    <path clip-path="url(#pcd39df9889)" d="M 162.672236 263.14087 
L 162.672236 250.168914 
" style="fill:none;stroke:#1f77b4;stroke-width:1.5;"/>
    <path clip-path="url(#pcd39df9889)" d="M 170.402106 133.029398 
L 170.402106 116.568749 
" style="fill:none;stroke:#1f77b4;stroke-width:1.5;"/>
    <path clip-path="url(#pcd39df9889)" d="M 178.131976 56.403254 
L 178.131976 47.324615 
" style="fill:none;stroke:#1f77b4;stroke-width:1.5;"/>
    <path clip-path="url(#pcd39df9889)" d="M 185.861847 170.923525 
L 185.861847 153.492529 
" style="fill:none;stroke:#1f77b4;stroke-width:1.5;"/>
    <path clip-path="url(#pcd39df9889)" d="M 193.591717 277.67062 
L 193.591717 267.736918 
" style="fill:none;stroke:#1f77b4;stroke-width:1.5;"/>
    <path clip-path="url(#pcd39df9889)" d="M 201.321587 275.556141 
L 201.321587 264.923485 
" style="fill:none;stroke:#1f77b4;stroke-width:1.5;"/>
    <path clip-path="url(#pcd39df9889)" d="M 209.051457 143.798133 
L 209.051457 126.571389 
" style="fill:none;stroke:#1f77b4;stroke-width:1.5;"/>
    <path clip-path="url(#pcd39df9889)" d="M 216.781327 66.983493 
L 216.781327 55.447407 
" style="fill:none;stroke:#1f77b4;stroke-width:1.5;"/>
    <path clip-path="url(#pcd39df9889)" d="M 224.511197 131.183443 
L 224.511197 114.268142 
" style="fill:none;stroke:#1f77b4;stroke-width:1.5;"/>
    <path clip-path="url(#pcd39df9889)" d="M 232.241067 247.015601 
L 232.241067 232.328146 
" style="fill:none;stroke:#1f77b4;stroke-width:1.5;"/>
    <path clip-path="url(#pcd39df9889)" d="M 239.970938 275.94623 
L 239.970938 265.208649 
" style="fill:none;stroke:#1f77b4;stroke-width:1.5;"/>
    <path clip-path="url(#pcd39df9889)" d="M 247.700808 171.032839 
L 247.700808 153.135154 
" style="fill:none;stroke:#1f77b4;stroke-width:1.5;"/>
    <path clip-path="url(#pcd39df9889)" d="M 255.430678 64.985898 
L 255.430678 54.435402 
" style="fill:none;stroke:#1f77b4;stroke-width:1.5;"/>
    <path clip-path="url(#pcd39df9889)" d="M 263.160548 109.287624 
L 263.160548 93.705797 
" style="fill:none;stroke:#1f77b4;stroke-width:1.5;"/>
    <path clip-path="url(#pcd39df9889)" d="M 270.890418 234.711568 
L 270.890418 219.158827 
" style="fill:none;stroke:#1f77b4;stroke-width:1.5;"/>
    <path clip-path="url(#pcd39df9889)" d="M 278.620288 272.497878 
L 278.620288 260.800101 
" style="fill:none;stroke:#1f77b4;stroke-width:1.5;"/>
    <path clip-path="url(#pcd39df9889)" d="M 286.350158 197.78862 
L 286.350158 180.432461 
" style="fill:none;stroke:#1f77b4;stroke-width:1.5;"/>
    <path clip-path="url(#pcd39df9889)" d="M 294.080028 93.068118 
L 294.080028 78.828241 
" style="fill:none;stroke:#1f77b4;stroke-width:1.5;"/>
    <path clip-path="url(#pcd39df9889)" d="M 301.809899 110.664945 
L 301.809899 94.853176 
" style="fill:none;stroke:#1f77b4;stroke-width:1.5;"/>
    <path clip-path="url(#pcd39df9889)" d="M 309.539769 232.712955 
L 309.539769 216.908985 
" style="fill:none;stroke:#1f77b4;stroke-width:1.5;"/>
    <path clip-path="url(#pcd39df9889)" d="M 317.269639 277.313143 
L 317.269639 266.926397 
" style="fill:none;stroke:#1f77b4;stroke-width:1.5;"/>
    <path clip-path="url(#pcd39df9889)" d="M 324.999509 204.259875 
L 324.999509 186.611137 
" style="fill:none;stroke:#1f77b4;stroke-width:1.5;"/>
    <path clip-path="url(#pcd39df9889)" d="M 332.729379 86.189577 
L 332.729379 72.714645 
" style="fill:none;stroke:#1f77b4;stroke-width:1.5;"/>
    <path clip-path="url(#pcd39df9889)" d="M 340.459249 90.592107 
L 340.459249 77.240903 
" style="fill:none;stroke:#1f77b4;stroke-width:1.5;"/>
    <path clip-path="url(#pcd39df9889)" d="M 348.189119 199.477656 
L 348.189119 182.503726 
" style="fill:none;stroke:#1f77b4;stroke-width:1.5;"/>
    <path clip-path="url(#pcd39df9889)" d="M 355.918989 261.32305 
L 355.918989 247.970982 
" style="fill:none;stroke:#1f77b4;stroke-width:1.5;"/>
    <path clip-path="url(#pcd39df9889)" d="M 363.64886 216.880097 
L 363.64886 199.541203 
" style="fill:none;stroke:#1f77b4;stroke-width:1.5;"/>
    <path clip-path="url(#pcd39df9889)" d="M 371.37873 112.708145 
L 371.37873 97.255798 
" style="fill:none;stroke:#1f77b4;stroke-width:1.5;"/>
    <path clip-path="url(#pcd39df9889)" d="M 379.1086 100.973051 
L 379.1086 85.585308 
" style="fill:none;stroke:#1f77b4;stroke-width:1.5;"/>
    <path clip-path="url(#pcd39df9889)" d="M 386.83847 204.298467 
L 386.83847 187.092829 
" style="fill:none;stroke:#1f77b4;stroke-width:1.5;"/>
   </g>
   <g id="LineCollection_2">
    <path clip-path="url(#pcd39df9889)" d="M 77.643665 293.318268 
L 77.643665 286.326567 
" style="fill:none;stroke:#d62728;stroke-width:1.5;"/>
    <path clip-path="url(#pcd39df9889)" d="M 85.373535 256.383405 
L 85.373535 240.332295 
" style="fill:none;stroke:#d62728;stroke-width:1.5;"/>
    <path clip-path="url(#pcd39df9889)" d="M 93.103405 156.051286 
L 93.103405 136.015943 
" style="fill:none;stroke:#d62728;stroke-width:1.5;"/>
    <path clip-path="url(#pcd39df9889)" d="M 100.833275 107.12171 
L 100.833275 88.80679 
" style="fill:none;stroke:#d62728;stroke-width:1.5;"/>
    <path clip-path="url(#pcd39df9889)" d="M 108.563145 127.78039 
L 108.563145 108.97211 
" style="fill:none;stroke:#d62728;stroke-width:1.5;"/>
    <path clip-path="url(#pcd39df9889)" d="M 116.293015 216.548067 
L 116.293015 195.709575 
" style="fill:none;stroke:#d62728;stroke-width:1.5;"/>
    <path clip-path="url(#pcd39df9889)" d="M 124.022886 210.380575 
L 124.022886 190.121525 
" style="fill:none;stroke:#d62728;stroke-width:1.5;"/>
    <path clip-path="url(#pcd39df9889)" d="M 131.752756 167.590237 
L 131.752756 146.966504 
" style="fill:none;stroke:#d62728;stroke-width:1.5;"/>
    <path clip-path="url(#pcd39df9889)" d="M 139.482626 151.719038 
L 139.482626 130.609462 
" style="fill:none;stroke:#d62728;stroke-width:1.5;"/>
    <path clip-path="url(#pcd39df9889)" d="M 147.212496 153.143754 
L 147.212496 132.325577 
" style="fill:none;stroke:#d62728;stroke-width:1.5;"/>
    <path clip-path="url(#pcd39df9889)" d="M 154.942366 185.906365 
L 154.942366 165.386925 
" style="fill:none;stroke:#d62728;stroke-width:1.5;"/>
    <path clip-path="url(#pcd39df9889)" d="M 162.672236 212.629521 
L 162.672236 193.265962 
" style="fill:none;stroke:#d62728;stroke-width:1.5;"/>
    <path clip-path="url(#pcd39df9889)" d="M 170.402106 198.746689 
L 170.402106 177.507705 
" style="fill:none;stroke:#d62728;stroke-width:1.5;"/>
    <path clip-path="url(#pcd39df9889)" d="M 178.131976 150.689095 
L 178.131976 128.519059 
" style="fill:none;stroke:#d62728;stroke-width:1.5;"/>
    <path clip-path="url(#pcd39df9889)" d="M 185.861847 158.074395 
L 185.861847 137.010487 
" style="fill:none;stroke:#d62728;stroke-width:1.5;"/>
    <path clip-path="url(#pcd39df9889)" d="M 193.591717 175.693301 
L 193.591717 154.913833 
" style="fill:none;stroke:#d62728;stroke-width:1.5;"/>
   </g>
   <g id="line2d_25">
    <path clip-path="url(#pcd39df9889)" d="M 77.643665 297.056409 
L 78.292974 297.056409 
L 78.617628 296.726383 
L 78.942283 294.320773 
L 79.266938 293.568262 
L 80.565556 285.598014 
L 81.214865 277.115692 
L 81.539519 275.117541 
L 84.136756 237.726198 
L 84.786065 225.993792 
L 91.60381 97.442106 
L 93.876392 66.713181 
L 95.17501 54.655062 
L 96.473628 47.662327 
L 96.798283 46.304414 
L 97.122938 46.654246 
L 97.447592 46.777626 
L 97.772247 46.654246 
L 98.096901 45.975453 
L 98.421556 46.770882 
L 99.720174 53.583641 
L 100.044828 55.492479 
L 100.694138 61.680022 
L 101.343447 67.606218 
L 101.992756 75.678447 
L 103.940683 103.166263 
L 104.589992 114.49449 
L 106.537919 150.328531 
L 107.187228 163.176175 
L 111.732392 246.710847 
L 114.004974 276.554562 
L 115.628247 289.836378 
L 116.277556 293.279637 
L 116.60221 294.71004 
L 116.926865 294.627773 
L 117.251519 294.168891 
L 117.576174 297.056409 
L 117.900828 294.627773 
L 118.225483 294.168891 
L 118.550138 294.320773 
L 118.874792 291.960748 
L 119.199447 291.397793 
L 119.848756 286.55405 
L 120.17341 284.474894 
L 121.472028 272.36187 
L 123.74461 240.914993 
L 125.043228 218.016518 
L 126.341847 195.037738 
L 129.263738 138.410023 
L 131.211665 104.686642 
L 132.185628 89.772454 
L 133.159592 76.998334 
L 133.484247 71.997458 
L 133.808901 70.454788 
L 135.107519 57.774062 
L 136.081483 51.781519 
L 136.406137 51.098008 
L 136.730792 50.816244 
L 137.055447 49.851294 
L 137.380101 49.851294 
L 137.704756 49.548549 
L 138.02941 49.851294 
L 138.354065 50.553749 
L 138.678719 52.023831 
L 139.003374 52.688832 
L 139.328028 54.218319 
L 140.951301 67.410614 
L 141.275956 71.839881 
L 141.925265 78.047614 
L 142.249919 82.093998 
L 142.899228 91.491251 
L 143.548538 102.008387 
L 144.197847 111.667274 
L 146.145774 146.070736 
L 150.690938 230.774742 
L 151.015592 234.990969 
L 151.664901 245.503867 
L 152.963519 263.916758 
L 153.288174 266.799746 
L 153.937483 273.654783 
L 154.262138 276.259085 
L 154.586792 280.079546 
L 155.560756 286.846993 
L 155.88541 287.687386 
L 156.534719 290.807506 
L 156.859374 290.545151 
L 157.184028 290.65486 
L 157.508683 291.356653 
L 157.833338 290.972361 
L 158.157992 291.397793 
L 159.131956 286.298565 
L 159.781265 283.001596 
L 160.105919 280.236286 
L 160.430574 278.721006 
L 162.378501 256.500343 
L 163.02781 246.94986 
L 163.352465 242.816262 
L 163.677119 236.095354 
L 164.001774 232.70829 
L 167.248319 174.297795 
L 168.871592 143.282902 
L 169.520901 133.238925 
L 170.494865 116.034262 
L 170.819519 112.352505 
L 171.468828 101.218269 
L 172.118138 91.51794 
L 173.092101 79.764057 
L 173.416756 76.862441 
L 174.066065 69.661549 
L 174.390719 66.789141 
L 174.715374 64.985029 
L 175.689338 58.459652 
L 176.013992 56.86541 
L 176.338647 56.422785 
L 176.663301 54.862941 
L 176.987956 55.084505 
L 177.31261 54.522653 
L 177.637265 54.300603 
L 178.286574 55.519297 
L 179.585192 62.462213 
L 180.88381 72.956441 
L 181.533119 79.569934 
L 181.857774 84.100036 
L 182.182428 87.05645 
L 182.831738 97.192876 
L 184.779665 126.909327 
L 186.727592 161.794192 
L 190.298792 225.562068 
L 190.623447 229.520411 
L 191.272756 239.174915 
L 192.896028 261.393668 
L 194.843956 278.561268 
L 195.493265 283.118406 
L 195.817919 283.578746 
L 196.142574 285.323299 
L 196.467228 285.940144 
L 196.791883 286.970421 
L 197.116538 286.55405 
L 197.441192 285.755106 
L 198.090501 285.065706 
L 198.415156 285.130104 
L 198.73981 283.73364 
L 199.713774 277.196855 
L 200.363083 272.429198 
L 201.661701 260.059319 
L 202.31101 250.423334 
L 203.934283 227.437891 
L 205.232901 206.428796 
L 205.88221 194.79923 
L 207.180828 171.20954 
L 210.102719 121.707714 
L 211.725992 97.870028 
L 212.375301 89.259226 
L 213.349265 77.897727 
L 215.297192 63.52553 
L 215.621847 62.690937 
L 215.946501 61.141927 
L 216.271156 61.355876 
L 216.59581 60.566724 
L 216.920465 60.480534 
L 217.245119 59.283481 
L 217.569774 61.141927 
L 217.894428 61.472042 
L 218.543738 63.71431 
L 218.868392 64.386953 
L 219.193047 66.069994 
L 220.16701 72.509717 
L 220.816319 80.002857 
L 222.114938 94.362138 
L 223.413556 111.682784 
L 224.712174 132.024559 
L 225.686138 150.378321 
L 226.010792 154.521983 
L 229.906647 222.018478 
L 230.555956 230.753952 
L 231.205265 240.034837 
L 232.503883 257.049702 
L 233.153192 263.256536 
L 233.802501 269.914105 
L 234.776465 274.793602 
L 235.101119 277.989293 
L 235.750428 280.33033 
L 236.075083 280.983597 
L 236.399738 282.547913 
L 236.724392 282.233864 
L 237.049047 282.322029 
L 237.373701 282.017452 
L 237.698356 281.164631 
L 238.347665 278.691962 
L 238.672319 278.970598 
L 240.944901 260.212159 
L 241.918865 248.441112 
L 243.542138 227.301858 
L 244.191447 216.612093 
L 245.16541 200.496704 
L 246.139374 184.309117 
L 246.464028 179.170586 
L 246.788683 171.693218 
L 247.437992 162.367191 
L 248.411956 145.482433 
L 251.009192 105.533997 
L 251.983156 92.733669 
L 252.632465 85.285285 
L 254.580392 70.144538 
L 254.905047 68.76463 
L 255.229701 66.434237 
L 255.554356 65.245256 
L 256.203665 64.357234 
L 256.528319 64.300807 
L 257.502283 65.512141 
L 257.826938 66.147953 
L 258.800901 69.661549 
L 260.099519 79.55519 
L 260.424174 81.796947 
L 261.073483 89.728255 
L 262.696756 109.713829 
L 263.995374 129.198639 
L 268.215883 199.561455 
L 269.514501 219.211577 
L 269.839156 225.048049 
L 270.488465 233.469906 
L 271.137774 242.582238 
L 271.787083 250.778832 
L 272.111738 254.137445 
L 272.436392 256.268697 
L 272.761047 261.104857 
L 273.410356 265.642288 
L 273.73501 269.425281 
L 274.059665 270.668524 
L 274.384319 273.795851 
L 274.708974 275.105042 
L 275.033628 276.924746 
L 275.358283 276.501897 
L 275.682938 278.926383 
L 276.007592 278.521581 
L 276.656901 279.49282 
L 276.981556 278.186787 
L 277.30621 278.478648 
L 277.630865 276.620393 
L 277.955519 276.220106 
L 278.280174 274.20403 
L 278.604828 273.073669 
L 279.254138 268.696701 
L 279.903447 264.012885 
L 280.228101 259.860227 
L 280.552756 257.991034 
L 280.87741 254.988578 
L 282.825338 229.433429 
L 283.799301 214.903095 
L 284.44861 205.068343 
L 288.344465 141.122233 
L 291.266356 98.937734 
L 293.538938 76.373797 
L 293.863592 75.46214 
L 294.188247 73.423831 
L 295.16221 69.434542 
L 295.486865 67.953603 
L 295.811519 68.025858 
L 296.136174 67.857264 
L 296.460828 67.821137 
L 296.785483 67.6306 
L 297.110138 68.074027 
L 297.434792 69.70695 
L 298.084101 71.43045 
L 300.032028 85.120702 
L 300.356683 88.748527 
L 300.681338 90.711262 
L 301.655301 103.843348 
L 302.30461 111.806869 
L 302.953919 120.763055 
L 303.603228 130.769461 
L 306.200465 171.830261 
L 308.148392 205.246703 
L 308.473047 208.953753 
L 309.44701 224.128164 
L 310.420974 237.815464 
L 311.070283 247.106609 
L 311.394938 250.085331 
L 311.719592 251.997333 
L 312.044247 256.470644 
L 312.693556 261.820104 
L 313.01821 265.953218 
L 313.342865 267.53534 
L 313.667519 270.647288 
L 313.992174 270.827795 
L 314.316828 273.471173 
L 314.641483 274.92886 
L 314.966138 275.039951 
L 315.290792 276.791303 
L 315.615447 275.881512 
L 315.940101 277.075111 
L 316.264756 277.142747 
L 316.58941 277.021003 
L 316.914065 277.298228 
L 317.238719 276.737926 
L 317.888028 272.651252 
L 318.212683 271.791424 
L 319.835956 259.836336 
L 322.433192 228.111441 
L 323.73181 209.92919 
L 325.030428 187.891556 
L 326.329047 168.412269 
L 326.978356 156.443049 
L 327.627665 146.188397 
L 328.276974 135.747697 
L 328.601628 129.899707 
L 328.926283 126.204254 
L 329.900247 111.297068 
L 330.87421 100.033087 
L 331.198865 95.522644 
L 331.523519 92.916782 
L 332.172828 86.46906 
L 333.146792 77.836009 
L 333.471447 76.437513 
L 334.120756 72.188719 
L 334.44541 69.771131 
L 334.770065 69.905788 
L 335.094719 69.354219 
L 335.419374 68.506004 
L 335.744028 69.273842 
L 336.068683 68.32831 
L 336.393338 67.977688 
L 336.717992 69.468593 
L 337.042647 70.155634 
L 338.01661 73.927011 
L 339.315228 84.069416 
L 339.964538 88.846576 
L 341.912465 112.434797 
L 344.509701 152.789728 
L 344.834356 158.466576 
L 345.15901 162.115234 
L 346.132974 179.376991 
L 347.106938 194.878733 
L 349.054865 224.740577 
L 349.379519 228.71558 
L 350.028828 239.038707 
L 350.353483 242.227563 
L 351.002792 250.304039 
L 351.652101 257.19285 
L 351.976756 259.450726 
L 352.30141 263.376752 
L 353.275374 270.49224 
L 353.924683 273.471173 
L 354.249338 274.488825 
L 354.898647 277.764066 
L 355.223301 276.898057 
L 355.547956 277.586241 
L 355.87261 278.535892 
L 356.521919 275.919985 
L 356.846574 275.996931 
L 357.171228 275.425 
L 357.495883 272.787456 
L 357.820538 271.582956 
L 358.469847 267.305245 
L 358.794501 265.943989 
L 359.768465 255.981965 
L 360.417774 250.511941 
L 361.067083 241.763202 
L 362.041047 229.315747 
L 363.664319 204.40848 
L 364.313628 193.41608 
L 365.936901 167.84256 
L 366.58621 155.8571 
L 370.15741 103.498276 
L 372.105338 83.258028 
L 372.754647 77.279643 
L 374.053265 70.37754 
L 374.377919 70.323123 
L 374.702574 68.221234 
L 375.027228 67.262492 
L 375.351883 67.869306 
L 375.676538 67.703747 
L 376.001192 68.923483 
L 376.325847 69.273842 
L 376.975156 71.515395 
L 377.29981 71.79786 
L 377.624465 73.857887 
L 377.949119 75.130841 
L 379.897047 93.027957 
L 381.520319 112.388508 
L 384.117556 151.142831 
L 384.766865 162.459826 
L 387.688756 211.130125 
L 390.610647 251.463856 
L 391.259956 257.35115 
L 391.909265 264.012885 
L 393.207883 273.889897 
L 393.532538 274.683882 
L 393.857192 276.528229 
L 394.181847 277.394232 
L 394.506501 277.611078 
L 394.831156 278.607448 
L 395.15581 278.76457 
L 395.480465 279.447245 
L 395.805119 278.86743 
L 396.129774 279.432053 
L 396.779083 276.337043 
L 397.103738 275.576919 
L 397.428392 273.199975 
L 397.753047 272.201038 
L 398.077701 270.657906 
L 398.402356 268.202293 
L 399.376319 258.090549 
L 399.700974 255.704003 
L 400.350283 247.564817 
L 401.324247 234.820166 
L 402.29821 221.801709 
L 402.29821 221.801709 
" style="fill:none;stroke:#1f77b4;stroke-linecap:square;stroke-width:1.5;"/>
   </g>
   <g id="line2d_26">
    <path clip-path="url(#pcd39df9889)" d="M 77.643665 297.044382 
L 79.1278 297.044382 
L 79.375156 294.086257 
L 79.622512 293.90002 
L 79.869867 292.177749 
L 80.117223 291.633169 
L 80.364579 289.5065 
L 80.611935 288.839444 
L 82.343426 276.957615 
L 82.590782 273.51911 
L 82.838138 271.87245 
L 83.827561 261.816648 
L 84.322273 255.281953 
L 85.806408 237.297266 
L 86.548475 226.849926 
L 86.795831 224.430801 
L 87.290543 216.989297 
L 87.537899 214.060785 
L 88.279966 201.864743 
L 88.774678 195.360216 
L 89.022034 192.775427 
L 89.516745 184.026573 
L 90.011457 177.891788 
L 90.506169 170.354129 
L 92.485015 143.615812 
L 92.979727 137.41545 
L 94.958574 115.269665 
L 95.453286 109.798549 
L 95.700641 106.609624 
L 95.947997 105.595437 
L 96.690065 99.463131 
L 96.937421 95.987622 
L 97.184776 96.047483 
L 97.432132 94.197678 
L 97.679488 91.008873 
L 97.926844 91.015276 
L 98.1742 90.421496 
L 99.163623 84.804194 
L 99.410979 84.790144 
L 99.658335 84.561616 
L 99.905691 83.549552 
L 100.400402 82.915934 
L 100.647758 82.197358 
L 100.895114 82.584907 
L 101.14247 81.80411 
L 101.389826 82.460284 
L 101.884538 81.435011 
L 102.131893 82.277015 
L 102.626605 85.007928 
L 102.873961 84.867422 
L 103.121317 86.076448 
L 103.368673 86.616665 
L 103.616028 88.107456 
L 103.863384 87.439442 
L 104.358096 90.964053 
L 104.852808 93.024608 
L 105.100163 95.112455 
L 105.347519 95.825998 
L 105.594875 98.145069 
L 105.842231 99.330926 
L 107.07901 109.97189 
L 107.326366 110.90863 
L 109.057857 126.700477 
L 109.305213 130.198392 
L 109.552569 130.955645 
L 109.799925 134.580794 
L 110.04728 136.530097 
L 110.541992 141.336073 
L 110.789348 143.350038 
L 111.036704 146.877394 
L 111.28406 148.468667 
L 112.520839 161.573754 
L 114.994397 185.45886 
L 115.241753 186.761367 
L 115.736465 190.741717 
L 116.231176 195.204577 
L 116.725888 198.881185 
L 116.973244 199.477056 
L 117.467956 203.582949 
L 118.704735 209.989319 
L 118.952091 212.16416 
L 119.199447 212.145425 
L 119.694158 214.5285 
L 120.683582 218.150467 
L 120.930938 218.471472 
L 121.178293 218.383925 
L 121.425649 219.800722 
L 121.673005 219.452045 
L 121.920361 219.628839 
L 122.167717 220.64029 
L 122.909784 219.653394 
L 123.15714 219.540442 
L 123.404496 219.717236 
L 124.146563 217.320241 
L 124.393919 218.383925 
L 125.135987 215.387157 
L 125.383343 215.525543 
L 125.630699 214.193151 
L 126.12541 212.825739 
L 126.620122 210.077088 
L 127.114834 207.180591 
L 127.362189 206.533337 
L 128.104257 202.18865 
L 128.351613 201.882491 
L 128.598969 200.820306 
L 129.09368 196.732208 
L 130.083104 190.950878 
L 130.33046 188.223787 
L 131.072527 184.23646 
L 131.567239 180.352889 
L 131.814595 178.924261 
L 132.06195 176.371301 
L 132.804018 172.254192 
L 134.288153 161.627653 
L 134.535509 160.835742 
L 135.277576 155.955915 
L 135.524932 155.391734 
L 136.514356 148.84116 
L 136.761712 148.028449 
L 137.256423 144.623867 
L 137.503779 144.453123 
L 137.751135 143.941599 
L 138.245847 140.415207 
L 138.493202 140.32698 
L 138.740558 138.410907 
L 138.987914 138.537364 
L 139.23527 137.761428 
L 139.482626 136.204608 
L 139.729982 135.398455 
L 139.977338 135.830735 
L 140.472049 133.853112 
L 140.719405 133.007215 
L 140.966761 133.857549 
L 141.214117 132.69547 
L 141.461473 132.980475 
L 141.708828 132.050876 
L 141.956184 132.453748 
L 142.20354 131.252398 
L 142.450896 131.666052 
L 142.698252 132.646231 
L 142.945608 132.61042 
L 143.192963 131.58512 
L 143.440319 133.261243 
L 143.687675 132.068781 
L 144.182387 133.368202 
L 144.429743 134.806482 
L 144.677099 134.731655 
L 144.924454 134.978773 
L 146.161234 138.471955 
L 146.408589 138.646379 
L 146.655945 140.402237 
L 146.903301 140.730809 
L 147.150657 141.910391 
L 147.398013 141.94483 
L 147.645369 143.920166 
L 147.892725 144.623867 
L 148.14008 144.602524 
L 148.387436 146.822135 
L 148.634792 147.459734 
L 148.882148 149.103598 
L 149.129504 149.823273 
L 150.118927 155.671821 
L 150.366283 155.324848 
L 150.613639 156.334766 
L 150.860995 159.687263 
L 151.10835 159.936031 
L 151.603062 163.244645 
L 151.850418 163.393906 
L 152.097774 165.522953 
L 153.087197 169.92882 
L 153.334553 171.939085 
L 153.829265 173.365355 
L 154.076621 176.213748 
L 154.323976 176.429347 
L 154.571332 177.991705 
L 154.818688 178.599531 
L 155.066044 179.715268 
L 155.3134 182.430547 
L 155.560756 183.401109 
L 155.808112 182.888985 
L 156.055467 185.55581 
L 156.302823 185.707558 
L 156.550179 186.419933 
L 156.797535 187.753938 
L 157.044891 188.393102 
L 157.786958 191.5186 
L 158.034314 191.832358 
L 158.28167 191.569823 
L 158.529026 193.220711 
L 158.776382 194.055865 
L 159.518449 195.109464 
L 159.765805 195.859492 
L 160.013161 196.189474 
L 160.260517 196.041851 
L 160.755228 197.366007 
L 161.002584 197.300598 
L 161.24994 198.500172 
L 161.497296 197.876195 
L 161.744652 198.478274 
L 161.992008 197.884916 
L 162.239363 198.951256 
L 162.734075 196.973554 
L 162.981431 197.283156 
L 163.476143 198.91622 
L 163.723499 196.610636 
L 163.970854 196.706157 
L 164.21821 196.445645 
L 164.465566 195.589352 
L 164.712922 195.580705 
L 164.960278 194.137658 
L 165.207634 194.884652 
L 165.454989 193.328334 
L 165.702345 193.913803 
L 166.197057 191.785205 
L 166.444413 191.574092 
L 166.691769 191.181382 
L 167.18648 189.439206 
L 167.433836 189.715499 
L 167.681192 187.148638 
L 168.175904 185.779217 
L 168.42326 185.56424 
L 168.917971 182.267511 
L 169.165327 182.25497 
L 169.412683 180.181493 
L 169.660039 181.080279 
L 170.15475 178.020847 
L 170.402106 176.673969 
L 170.649462 176.852253 
L 170.896818 173.958252 
L 171.144174 174.128244 
L 171.39153 173.104149 
L 171.638886 170.729887 
L 171.886241 170.515168 
L 172.380953 168.326687 
L 172.628309 167.802277 
L 173.123021 164.990285 
L 173.370376 164.741399 
L 173.865088 161.988367 
L 174.112444 161.4701 
L 175.349223 155.839037 
L 175.596579 156.155749 
L 175.843935 155.621656 
L 176.091291 154.099991 
L 176.338647 153.916054 
L 177.080714 150.780131 
L 177.32807 150.759055 
L 177.575426 150.143631 
L 177.822782 148.163901 
L 178.070138 148.819996 
L 178.317493 148.201996 
L 178.564849 148.4729 
L 178.812205 147.562833 
L 179.059561 146.116527 
L 179.306917 147.153687 
L 179.554273 145.772118 
L 179.801628 145.387944 
L 180.048984 146.20579 
L 180.29634 145.0678 
L 180.543696 145.298304 
L 180.791052 144.931205 
L 181.285763 145.28123 
L 181.533119 145.208664 
L 181.780475 145.524539 
L 182.027831 144.400274 
L 182.275187 145.221469 
L 182.522543 144.939742 
L 182.769899 145.699552 
L 183.017254 144.726313 
L 183.26461 146.826386 
L 183.511966 145.31111 
L 183.759322 146.907149 
L 184.006678 146.316307 
L 185.243457 150.227935 
L 185.490813 149.612511 
L 185.985525 151.741728 
L 186.23288 151.619993 
L 186.480236 152.115327 
L 186.727592 152.967469 
L 186.974948 153.215136 
L 187.46966 155.709445 
L 187.717015 155.249601 
L 187.964371 157.608704 
L 188.211727 157.975065 
L 188.459083 159.036679 
L 188.706439 159.214604 
L 188.953795 160.400398 
L 189.20115 160.752819 
L 189.448506 162.025682 
L 189.695862 162.552241 
L 189.943218 163.679989 
L 190.190574 165.869807 
L 190.43793 165.506437 
L 190.685286 166.988823 
L 190.932641 166.992952 
L 191.179997 167.228317 
L 191.427353 167.938541 
L 191.674709 169.809073 
L 191.922065 170.50691 
L 192.911488 174.916009 
L 193.4062 175.96498 
L 193.653556 177.671139 
L 194.148267 178.333087 
L 195.137691 181.72824 
L 195.385047 182.530877 
L 195.632402 183.75372 
L 195.879758 184.047562 
L 196.127114 184.631048 
L 196.621826 185.168008 
L 196.869182 186.843871 
L 197.116538 186.238678 
L 197.363893 186.907364 
L 197.611249 188.291513 
L 197.858605 187.495733 
L 198.600673 189.991792 
L 198.848028 189.192668 
L 199.095384 190.072554 
L 199.34274 189.936533 
L 199.590096 190.025797 
L 199.837452 190.442915 
L 200.084808 190.383155 
L 200.332163 190.686225 
L 200.579519 190.212826 
L 200.826875 191.633852 
L 201.074231 189.507217 
L 201.321587 190.54963 
L 201.321587 190.54963 
" style="fill:none;stroke:#d62728;stroke-linecap:square;stroke-width:1.5;"/>
   </g>
   <g id="line2d_27">
    <defs>
     <path d="M 0 3 
C 0.795609 3 1.55874 2.683901 2.12132 2.12132 
C 2.683901 1.55874 3 0.795609 3 0 
C 3 -0.795609 2.683901 -1.55874 2.12132 -2.12132 
C 1.55874 -2.683901 0.795609 -3 0 -3 
C -0.795609 -3 -1.55874 -2.683901 -2.12132 -2.12132 
C -2.683901 -1.55874 -3 -0.795609 -3 0 
C -3 0.795609 -2.683901 1.55874 -2.12132 2.12132 
C -1.55874 2.683901 -0.795609 3 0 3 
z
" id="mcb2457e3ba" style="stroke:#1f77b4;"/>
    </defs>
    <g clip-path="url(#pcd39df9889)">
     <use style="fill:#1f77b4;stroke:#1f77b4;" x="77.643665" xlink:href="#mcb2457e3ba" y="296.95689"/>
     <use style="fill:#1f77b4;stroke:#1f77b4;" x="85.373535" xlink:href="#mcb2457e3ba" y="234.579361"/>
     <use style="fill:#1f77b4;stroke:#1f77b4;" x="93.103405" xlink:href="#mcb2457e3ba" y="91.060401"/>
     <use style="fill:#1f77b4;stroke:#1f77b4;" x="100.833275" xlink:href="#mcb2457e3ba" y="59.417984"/>
     <use style="fill:#1f77b4;stroke:#1f77b4;" x="108.563145" xlink:href="#mcb2457e3ba" y="167.26425"/>
     <use style="fill:#1f77b4;stroke:#1f77b4;" x="116.293015" xlink:href="#mcb2457e3ba" y="289.721426"/>
     <use style="fill:#1f77b4;stroke:#1f77b4;" x="124.022886" xlink:href="#mcb2457e3ba" y="243.360121"/>
     <use style="fill:#1f77b4;stroke:#1f77b4;" x="131.752756" xlink:href="#mcb2457e3ba" y="116.804038"/>
     <use style="fill:#1f77b4;stroke:#1f77b4;" x="139.482626" xlink:href="#mcb2457e3ba" y="60.939972"/>
     <use style="fill:#1f77b4;stroke:#1f77b4;" x="147.212496" xlink:href="#mcb2457e3ba" y="165.070754"/>
     <use style="fill:#1f77b4;stroke:#1f77b4;" x="154.942366" xlink:href="#mcb2457e3ba" y="279.297206"/>
     <use style="fill:#1f77b4;stroke:#1f77b4;" x="162.672236" xlink:href="#mcb2457e3ba" y="256.654892"/>
     <use style="fill:#1f77b4;stroke:#1f77b4;" x="170.402106" xlink:href="#mcb2457e3ba" y="124.799074"/>
     <use style="fill:#1f77b4;stroke:#1f77b4;" x="178.131976" xlink:href="#mcb2457e3ba" y="51.863935"/>
     <use style="fill:#1f77b4;stroke:#1f77b4;" x="185.861847" xlink:href="#mcb2457e3ba" y="162.208027"/>
     <use style="fill:#1f77b4;stroke:#1f77b4;" x="193.591717" xlink:href="#mcb2457e3ba" y="272.703769"/>
     <use style="fill:#1f77b4;stroke:#1f77b4;" x="201.321587" xlink:href="#mcb2457e3ba" y="270.239813"/>
     <use style="fill:#1f77b4;stroke:#1f77b4;" x="209.051457" xlink:href="#mcb2457e3ba" y="135.184761"/>
     <use style="fill:#1f77b4;stroke:#1f77b4;" x="216.781327" xlink:href="#mcb2457e3ba" y="61.21545"/>
     <use style="fill:#1f77b4;stroke:#1f77b4;" x="224.511197" xlink:href="#mcb2457e3ba" y="122.725793"/>
     <use style="fill:#1f77b4;stroke:#1f77b4;" x="232.241067" xlink:href="#mcb2457e3ba" y="239.671873"/>
     <use style="fill:#1f77b4;stroke:#1f77b4;" x="239.970938" xlink:href="#mcb2457e3ba" y="270.577439"/>
     <use style="fill:#1f77b4;stroke:#1f77b4;" x="247.700808" xlink:href="#mcb2457e3ba" y="162.083997"/>
     <use style="fill:#1f77b4;stroke:#1f77b4;" x="255.430678" xlink:href="#mcb2457e3ba" y="59.71065"/>
     <use style="fill:#1f77b4;stroke:#1f77b4;" x="263.160548" xlink:href="#mcb2457e3ba" y="101.49671"/>
     <use style="fill:#1f77b4;stroke:#1f77b4;" x="270.890418" xlink:href="#mcb2457e3ba" y="226.935197"/>
     <use style="fill:#1f77b4;stroke:#1f77b4;" x="278.620288" xlink:href="#mcb2457e3ba" y="266.648989"/>
     <use style="fill:#1f77b4;stroke:#1f77b4;" x="286.350158" xlink:href="#mcb2457e3ba" y="189.110541"/>
     <use style="fill:#1f77b4;stroke:#1f77b4;" x="294.080028" xlink:href="#mcb2457e3ba" y="85.94818"/>
     <use style="fill:#1f77b4;stroke:#1f77b4;" x="301.809899" xlink:href="#mcb2457e3ba" y="102.759061"/>
     <use style="fill:#1f77b4;stroke:#1f77b4;" x="309.539769" xlink:href="#mcb2457e3ba" y="224.81097"/>
     <use style="fill:#1f77b4;stroke:#1f77b4;" x="317.269639" xlink:href="#mcb2457e3ba" y="272.11977"/>
     <use style="fill:#1f77b4;stroke:#1f77b4;" x="324.999509" xlink:href="#mcb2457e3ba" y="195.435506"/>
     <use style="fill:#1f77b4;stroke:#1f77b4;" x="332.729379" xlink:href="#mcb2457e3ba" y="79.452111"/>
     <use style="fill:#1f77b4;stroke:#1f77b4;" x="340.459249" xlink:href="#mcb2457e3ba" y="83.916505"/>
     <use style="fill:#1f77b4;stroke:#1f77b4;" x="348.189119" xlink:href="#mcb2457e3ba" y="190.990691"/>
     <use style="fill:#1f77b4;stroke:#1f77b4;" x="355.918989" xlink:href="#mcb2457e3ba" y="254.647016"/>
     <use style="fill:#1f77b4;stroke:#1f77b4;" x="363.64886" xlink:href="#mcb2457e3ba" y="208.21065"/>
     <use style="fill:#1f77b4;stroke:#1f77b4;" x="371.37873" xlink:href="#mcb2457e3ba" y="104.981972"/>
     <use style="fill:#1f77b4;stroke:#1f77b4;" x="379.1086" xlink:href="#mcb2457e3ba" y="93.27918"/>
     <use style="fill:#1f77b4;stroke:#1f77b4;" x="386.83847" xlink:href="#mcb2457e3ba" y="195.695648"/>
    </g>
   </g>
   <g id="line2d_28">
    <defs>
     <path d="M 0 3 
C 0.795609 3 1.55874 2.683901 2.12132 2.12132 
C 2.683901 1.55874 3 0.795609 3 0 
C 3 -0.795609 2.683901 -1.55874 2.12132 -2.12132 
C 1.55874 -2.683901 0.795609 -3 0 -3 
C -0.795609 -3 -1.55874 -2.683901 -2.12132 -2.12132 
C -2.683901 -1.55874 -3 -0.795609 -3 0 
C -3 0.795609 -2.683901 1.55874 -2.12132 2.12132 
C -1.55874 2.683901 -0.795609 3 0 3 
z
" id="m4d17eb6f4c" style="stroke:#d62728;"/>
    </defs>
    <g clip-path="url(#pcd39df9889)">
     <use style="fill:#d62728;stroke:#d62728;" x="77.643665" xlink:href="#m4d17eb6f4c" y="289.822418"/>
     <use style="fill:#d62728;stroke:#d62728;" x="85.373535" xlink:href="#m4d17eb6f4c" y="248.35785"/>
     <use style="fill:#d62728;stroke:#d62728;" x="93.103405" xlink:href="#m4d17eb6f4c" y="146.033614"/>
     <use style="fill:#d62728;stroke:#d62728;" x="100.833275" xlink:href="#m4d17eb6f4c" y="97.96425"/>
     <use style="fill:#d62728;stroke:#d62728;" x="108.563145" xlink:href="#m4d17eb6f4c" y="118.37625"/>
     <use style="fill:#d62728;stroke:#d62728;" x="116.293015" xlink:href="#m4d17eb6f4c" y="206.128821"/>
     <use style="fill:#d62728;stroke:#d62728;" x="124.022886" xlink:href="#m4d17eb6f4c" y="200.25105"/>
     <use style="fill:#d62728;stroke:#d62728;" x="131.752756" xlink:href="#m4d17eb6f4c" y="157.27837"/>
     <use style="fill:#d62728;stroke:#d62728;" x="139.482626" xlink:href="#m4d17eb6f4c" y="141.16425"/>
     <use style="fill:#d62728;stroke:#d62728;" x="147.212496" xlink:href="#m4d17eb6f4c" y="142.734665"/>
     <use style="fill:#d62728;stroke:#d62728;" x="154.942366" xlink:href="#m4d17eb6f4c" y="175.646645"/>
     <use style="fill:#d62728;stroke:#d62728;" x="162.672236" xlink:href="#m4d17eb6f4c" y="202.947741"/>
     <use style="fill:#d62728;stroke:#d62728;" x="170.402106" xlink:href="#m4d17eb6f4c" y="188.127197"/>
     <use style="fill:#d62728;stroke:#d62728;" x="178.131976" xlink:href="#m4d17eb6f4c" y="139.604077"/>
     <use style="fill:#d62728;stroke:#d62728;" x="185.861847" xlink:href="#m4d17eb6f4c" y="147.542441"/>
     <use style="fill:#d62728;stroke:#d62728;" x="193.591717" xlink:href="#m4d17eb6f4c" y="165.303567"/>
    </g>
   </g>
   <g id="patch_3">
    <path d="M 61.410938 297.54825 
L 61.410938 31.43625 
" style="fill:none;stroke:#000000;stroke-linecap:square;stroke-linejoin:miter;stroke-width:0.8;"/>
   </g>
   <g id="patch_4">
    <path d="M 418.530938 297.54825 
L 418.530938 31.43625 
" style="fill:none;stroke:#000000;stroke-linecap:square;stroke-linejoin:miter;stroke-width:0.8;"/>
   </g>
   <g id="patch_5">
    <path d="M 61.410938 297.54825 
L 418.530938 297.54825 
" style="fill:none;stroke:#000000;stroke-linecap:square;stroke-linejoin:miter;stroke-width:0.8;"/>
   </g>
   <g id="patch_6">
    <path d="M 61.410938 31.43625 
L 418.530938 31.43625 
" style="fill:none;stroke:#000000;stroke-linecap:square;stroke-linejoin:miter;stroke-width:0.8;"/>
   </g>
   <g id="text_15">
    <!-- Y carrier -->
    <defs>
     <path d="M -0.203125 72.90625 
L 10.40625 72.90625 
L 30.609375 42.921875 
L 50.6875 72.90625 
L 61.28125 72.90625 
L 35.5 34.71875 
L 35.5 0 
L 25.59375 0 
L 25.59375 34.71875 
z
" id="DejaVuSans-59"/>
     <path d="M 48.78125 52.59375 
L 48.78125 44.1875 
Q 44.96875 46.296875 41.140625 47.34375 
Q 37.3125 48.390625 33.40625 48.390625 
Q 24.65625 48.390625 19.8125 42.84375 
Q 14.984375 37.3125 14.984375 27.296875 
Q 14.984375 17.28125 19.8125 11.734375 
Q 24.65625 6.203125 33.40625 6.203125 
Q 37.3125 6.203125 41.140625 7.25 
Q 44.96875 8.296875 48.78125 10.40625 
L 48.78125 2.09375 
Q 45.015625 0.34375 40.984375 -0.53125 
Q 36.96875 -1.421875 32.421875 -1.421875 
Q 20.0625 -1.421875 12.78125 6.34375 
Q 5.515625 14.109375 5.515625 27.296875 
Q 5.515625 40.671875 12.859375 48.328125 
Q 20.21875 56 33.015625 56 
Q 37.15625 56 41.109375 55.140625 
Q 45.0625 54.296875 48.78125 52.59375 
z
" id="DejaVuSans-63"/>
    </defs>
    <g transform="translate(189.360938 25.43625)scale(0.24 -0.24)">
     <use xlink:href="#DejaVuSans-59"/>
     <use x="61.083984" xlink:href="#DejaVuSans-20"/>
     <use x="92.871094" xlink:href="#DejaVuSans-63"/>
     <use x="147.851562" xlink:href="#DejaVuSans-61"/>
     <use x="209.130859" xlink:href="#DejaVuSans-72"/>
     <use x="250.228516" xlink:href="#DejaVuSans-72"/>
     <use x="291.341797" xlink:href="#DejaVuSans-69"/>
     <use x="319.125" xlink:href="#DejaVuSans-65"/>
     <use x="380.648438" xlink:href="#DejaVuSans-72"/>
    </g>
   </g>
   <g id="legend_1">
    <g id="patch_7">
     <path d="M 296.074687 196.8485 
L 404.530937 196.8485 
Q 408.530937 196.8485 408.530937 192.8485 
L 408.530937 136.136 
Q 408.530937 132.136 404.530937 132.136 
L 296.074687 132.136 
Q 292.074687 132.136 292.074687 136.136 
L 292.074687 192.8485 
Q 292.074687 196.8485 296.074687 196.8485 
z
" style="fill:#ffffff;opacity:0.8;stroke:#cccccc;stroke-linejoin:miter;"/>
    </g>
    <g id="LineCollection_3">
     <path d="M 320.074687 158.332875 
L 320.074687 138.332875 
" style="fill:none;stroke:#1f77b4;stroke-width:1.5;"/>
    </g>
    <g id="line2d_29"/>
    <g id="line2d_30">
     <g>
      <use style="fill:#1f77b4;stroke:#1f77b4;" x="320.074687" xlink:href="#mcb2457e3ba" y="148.332875"/>
     </g>
    </g>
    <g id="text_16">
     <!-- Cold -->
     <defs>
      <path d="M 64.40625 67.28125 
L 64.40625 56.890625 
Q 59.421875 61.53125 53.78125 63.8125 
Q 48.140625 66.109375 41.796875 66.109375 
Q 29.296875 66.109375 22.65625 58.46875 
Q 16.015625 50.828125 16.015625 36.375 
Q 16.015625 21.96875 22.65625 14.328125 
Q 29.296875 6.6875 41.796875 6.6875 
Q 48.140625 6.6875 53.78125 8.984375 
Q 59.421875 11.28125 64.40625 15.921875 
L 64.40625 5.609375 
Q 59.234375 2.09375 53.4375 0.328125 
Q 47.65625 -1.421875 41.21875 -1.421875 
Q 24.65625 -1.421875 15.125 8.703125 
Q 5.609375 18.84375 5.609375 36.375 
Q 5.609375 53.953125 15.125 64.078125 
Q 24.65625 74.21875 41.21875 74.21875 
Q 47.75 74.21875 53.53125 72.484375 
Q 59.328125 70.75 64.40625 67.28125 
z
" id="DejaVuSans-43"/>
      <path d="M 30.609375 48.390625 
Q 23.390625 48.390625 19.1875 42.75 
Q 14.984375 37.109375 14.984375 27.296875 
Q 14.984375 17.484375 19.15625 11.84375 
Q 23.34375 6.203125 30.609375 6.203125 
Q 37.796875 6.203125 41.984375 11.859375 
Q 46.1875 17.53125 46.1875 27.296875 
Q 46.1875 37.015625 41.984375 42.703125 
Q 37.796875 48.390625 30.609375 48.390625 
z
M 30.609375 56 
Q 42.328125 56 49.015625 48.375 
Q 55.71875 40.765625 55.71875 27.296875 
Q 55.71875 13.875 49.015625 6.21875 
Q 42.328125 -1.421875 30.609375 -1.421875 
Q 18.84375 -1.421875 12.171875 6.21875 
Q 5.515625 13.875 5.515625 27.296875 
Q 5.515625 40.765625 12.171875 48.375 
Q 18.84375 56 30.609375 56 
z
" id="DejaVuSans-6f"/>
      <path d="M 45.40625 46.390625 
L 45.40625 75.984375 
L 54.390625 75.984375 
L 54.390625 0 
L 45.40625 0 
L 45.40625 8.203125 
Q 42.578125 3.328125 38.25 0.953125 
Q 33.9375 -1.421875 27.875 -1.421875 
Q 17.96875 -1.421875 11.734375 6.484375 
Q 5.515625 14.40625 5.515625 27.296875 
Q 5.515625 40.1875 11.734375 48.09375 
Q 17.96875 56 27.875 56 
Q 33.9375 56 38.25 53.625 
Q 42.578125 51.265625 45.40625 46.390625 
z
M 14.796875 27.296875 
Q 14.796875 17.390625 18.875 11.75 
Q 22.953125 6.109375 30.078125 6.109375 
Q 37.203125 6.109375 41.296875 11.75 
Q 45.40625 17.390625 45.40625 27.296875 
Q 45.40625 37.203125 41.296875 42.84375 
Q 37.203125 48.484375 30.078125 48.484375 
Q 22.953125 48.484375 18.875 42.84375 
Q 14.796875 37.203125 14.796875 27.296875 
z
" id="DejaVuSans-64"/>
     </defs>
     <g transform="translate(356.074687 155.332875)scale(0.2 -0.2)">
      <use xlink:href="#DejaVuSans-43"/>
      <use x="69.824219" xlink:href="#DejaVuSans-6f"/>
      <use x="131.005859" xlink:href="#DejaVuSans-6c"/>
      <use x="158.789062" xlink:href="#DejaVuSans-64"/>
     </g>
    </g>
    <g id="LineCollection_4">
     <path d="M 320.074687 187.689125 
L 320.074687 167.689125 
" style="fill:none;stroke:#d62728;stroke-width:1.5;"/>
    </g>
    <g id="line2d_31"/>
    <g id="line2d_32">
     <g>
      <use style="fill:#d62728;stroke:#d62728;" x="320.074687" xlink:href="#m4d17eb6f4c" y="177.689125"/>
     </g>
    </g>
    <g id="text_17">
     <!-- Hot -->
     <defs>
      <path d="M 9.8125 72.90625 
L 19.671875 72.90625 
L 19.671875 43.015625 
L 55.515625 43.015625 
L 55.515625 72.90625 
L 65.375 72.90625 
L 65.375 0 
L 55.515625 0 
L 55.515625 34.71875 
L 19.671875 34.71875 
L 19.671875 0 
L 9.8125 0 
z
" id="DejaVuSans-48"/>
      <path d="M 18.3125 70.21875 
L 18.3125 54.6875 
L 36.8125 54.6875 
L 36.8125 47.703125 
L 18.3125 47.703125 
L 18.3125 18.015625 
Q 18.3125 11.328125 20.140625 9.421875 
Q 21.96875 7.515625 27.59375 7.515625 
L 36.8125 7.515625 
L 36.8125 0 
L 27.59375 0 
Q 17.1875 0 13.234375 3.875 
Q 9.28125 7.765625 9.28125 18.015625 
L 9.28125 47.703125 
L 2.6875 47.703125 
L 2.6875 54.6875 
L 9.28125 54.6875 
L 9.28125 70.21875 
z
" id="DejaVuSans-74"/>
     </defs>
     <g transform="translate(356.074687 184.689125)scale(0.2 -0.2)">
      <use xlink:href="#DejaVuSans-48"/>
      <use x="75.195312" xlink:href="#DejaVuSans-6f"/>
      <use x="136.376953" xlink:href="#DejaVuSans-74"/>
     </g>
    </g>
   </g>
  </g>
 </g>
 <defs>
  <clipPath id="pcd39df9889">
   <rect height="266.112" width="357.12" x="61.410938" y="31.43625"/>
  </clipPath>
 </defs>
</svg>
