<?xml version="1.0" encoding="utf-8" standalone="no"?>
<!DOCTYPE svg PUBLIC "-//W3C//DTD SVG 1.1//EN"
  "http://www.w3.org/Graphics/SVG/1.1/DTD/svg11.dtd">
<!-- Created with matplotlib (http://matplotlib.org/) -->
<svg height="349pt" version="1.1" viewBox="0 0 429 349" width="429pt" xmlns="http://www.w3.org/2000/svg" xmlns:xlink="http://www.w3.org/1999/xlink">
 <defs>
  <style type="text/css">
*{stroke-linecap:butt;stroke-linejoin:round;}
  </style>
 </defs>
 <g id="figure_1">
  <g id="patch_1">
   <path d="M 0 349.665437 
L 429.230937 349.665437 
L 429.230937 0 
L 0 0 
z
" style="fill:none;"/>
  </g>
  <g id="axes_1">
   <g id="patch_2">
    <path d="M 61.410938 297.54825 
L 418.530938 297.54825 
L 418.530938 31.43625 
L 61.410938 31.43625 
z
" style="fill:none;"/>
   </g>
   <g id="matplotlib.axis_1">
    <g id="xtick_1">
     <g id="line2d_1">
      <path clip-path="url(#pcd39df9889)" d="M 77.643665 297.54825 
L 77.643665 31.43625 
" style="fill:none;stroke:#b0b0b0;stroke-linecap:square;stroke-width:0.8;"/>
     </g>
     <g id="line2d_2">
      <defs>
       <path d="M 0 0 
L 0 3.5 
" id="m005f0a59be" style="stroke:#000000;stroke-width:0.8;"/>
      </defs>
      <g>
       <use style="stroke:#000000;stroke-width:0.8;" x="77.643665" xlink:href="#m005f0a59be" y="297.54825"/>
      </g>
     </g>
     <g id="text_1">
      <!-- 0 -->
      <defs>
       <path d="M 31.78125 66.40625 
Q 24.171875 66.40625 20.328125 58.90625 
Q 16.5 51.421875 16.5 36.375 
Q 16.5 21.390625 20.328125 13.890625 
Q 24.171875 6.390625 31.78125 6.390625 
Q 39.453125 6.390625 43.28125 13.890625 
Q 47.125 21.390625 47.125 36.375 
Q 47.125 51.421875 43.28125 58.90625 
Q 39.453125 66.40625 31.78125 66.40625 
z
M 31.78125 74.21875 
Q 44.046875 74.21875 50.515625 64.515625 
Q 56.984375 54.828125 56.984375 36.375 
Q 56.984375 17.96875 50.515625 8.265625 
Q 44.046875 -1.421875 31.78125 -1.421875 
Q 19.53125 -1.421875 13.0625 8.265625 
Q 6.59375 17.96875 6.59375 36.375 
Q 6.59375 54.828125 13.0625 64.515625 
Q 19.53125 74.21875 31.78125 74.21875 
z
" id="DejaVuSans-30"/>
      </defs>
      <g transform="translate(72.87179 315.945906)scale(0.15 -0.15)">
       <use xlink:href="#DejaVuSans-30"/>
      </g>
     </g>
    </g>
    <g id="xtick_2">
     <g id="line2d_3">
      <path clip-path="url(#pcd39df9889)" d="M 140.077231 297.54825 
L 140.077231 31.43625 
" style="fill:none;stroke:#b0b0b0;stroke-linecap:square;stroke-width:0.8;"/>
     </g>
     <g id="line2d_4">
      <g>
       <use style="stroke:#000000;stroke-width:0.8;" x="140.077231" xlink:href="#m005f0a59be" y="297.54825"/>
      </g>
     </g>
     <g id="text_2">
      <!-- 100 -->
      <defs>
       <path d="M 12.40625 8.296875 
L 28.515625 8.296875 
L 28.515625 63.921875 
L 10.984375 60.40625 
L 10.984375 69.390625 
L 28.421875 72.90625 
L 38.28125 72.90625 
L 38.28125 8.296875 
L 54.390625 8.296875 
L 54.390625 0 
L 12.40625 0 
z
" id="DejaVuSans-31"/>
      </defs>
      <g transform="translate(125.761606 315.945906)scale(0.15 -0.15)">
       <use xlink:href="#DejaVuSans-31"/>
       <use x="63.623047" xlink:href="#DejaVuSans-30"/>
       <use x="127.246094" xlink:href="#DejaVuSans-30"/>
      </g>
     </g>
    </g>
    <g id="xtick_3">
     <g id="line2d_5">
      <path clip-path="url(#pcd39df9889)" d="M 202.510798 297.54825 
L 202.510798 31.43625 
" style="fill:none;stroke:#b0b0b0;stroke-linecap:square;stroke-width:0.8;"/>
     </g>
     <g id="line2d_6">
      <g>
       <use style="stroke:#000000;stroke-width:0.8;" x="202.510798" xlink:href="#m005f0a59be" y="297.54825"/>
      </g>
     </g>
     <g id="text_3">
      <!-- 200 -->
      <defs>
       <path d="M 19.1875 8.296875 
L 53.609375 8.296875 
L 53.609375 0 
L 7.328125 0 
L 7.328125 8.296875 
Q 12.9375 14.109375 22.625 23.890625 
Q 32.328125 33.6875 34.8125 36.53125 
Q 39.546875 41.84375 41.421875 45.53125 
Q 43.3125 49.21875 43.3125 52.78125 
Q 43.3125 58.59375 39.234375 62.25 
Q 35.15625 65.921875 28.609375 65.921875 
Q 23.96875 65.921875 18.8125 64.3125 
Q 13.671875 62.703125 7.8125 59.421875 
L 7.8125 69.390625 
Q 13.765625 71.78125 18.9375 73 
Q 24.125 74.21875 28.421875 74.21875 
Q 39.75 74.21875 46.484375 68.546875 
Q 53.21875 62.890625 53.21875 53.421875 
Q 53.21875 48.921875 51.53125 44.890625 
Q 49.859375 40.875 45.40625 35.40625 
Q 44.1875 33.984375 37.640625 27.21875 
Q 31.109375 20.453125 19.1875 8.296875 
z
" id="DejaVuSans-32"/>
      </defs>
      <g transform="translate(188.195173 315.945906)scale(0.15 -0.15)">
       <use xlink:href="#DejaVuSans-32"/>
       <use x="63.623047" xlink:href="#DejaVuSans-30"/>
       <use x="127.246094" xlink:href="#DejaVuSans-30"/>
      </g>
     </g>
    </g>
    <g id="xtick_4">
     <g id="line2d_7">
      <path clip-path="url(#pcd39df9889)" d="M 264.944364 297.54825 
L 264.944364 31.43625 
" style="fill:none;stroke:#b0b0b0;stroke-linecap:square;stroke-width:0.8;"/>
     </g>
     <g id="line2d_8">
      <g>
       <use style="stroke:#000000;stroke-width:0.8;" x="264.944364" xlink:href="#m005f0a59be" y="297.54825"/>
      </g>
     </g>
     <g id="text_4">
      <!-- 300 -->
      <defs>
       <path d="M 40.578125 39.3125 
Q 47.65625 37.796875 51.625 33 
Q 55.609375 28.21875 55.609375 21.1875 
Q 55.609375 10.40625 48.1875 4.484375 
Q 40.765625 -1.421875 27.09375 -1.421875 
Q 22.515625 -1.421875 17.65625 -0.515625 
Q 12.796875 0.390625 7.625 2.203125 
L 7.625 11.71875 
Q 11.71875 9.328125 16.59375 8.109375 
Q 21.484375 6.890625 26.8125 6.890625 
Q 36.078125 6.890625 40.9375 10.546875 
Q 45.796875 14.203125 45.796875 21.1875 
Q 45.796875 27.640625 41.28125 31.265625 
Q 36.765625 34.90625 28.71875 34.90625 
L 20.21875 34.90625 
L 20.21875 43.015625 
L 29.109375 43.015625 
Q 36.375 43.015625 40.234375 45.921875 
Q 44.09375 48.828125 44.09375 54.296875 
Q 44.09375 59.90625 40.109375 62.90625 
Q 36.140625 65.921875 28.71875 65.921875 
Q 24.65625 65.921875 20.015625 65.03125 
Q 15.375 64.15625 9.8125 62.3125 
L 9.8125 71.09375 
Q 15.4375 72.65625 20.34375 73.4375 
Q 25.25 74.21875 29.59375 74.21875 
Q 40.828125 74.21875 47.359375 69.109375 
Q 53.90625 64.015625 53.90625 55.328125 
Q 53.90625 49.265625 50.4375 45.09375 
Q 46.96875 40.921875 40.578125 39.3125 
z
" id="DejaVuSans-33"/>
      </defs>
      <g transform="translate(250.628739 315.945906)scale(0.15 -0.15)">
       <use xlink:href="#DejaVuSans-33"/>
       <use x="63.623047" xlink:href="#DejaVuSans-30"/>
       <use x="127.246094" xlink:href="#DejaVuSans-30"/>
      </g>
     </g>
    </g>
    <g id="xtick_5">
     <g id="line2d_9">
      <path clip-path="url(#pcd39df9889)" d="M 327.377931 297.54825 
L 327.377931 31.43625 
" style="fill:none;stroke:#b0b0b0;stroke-linecap:square;stroke-width:0.8;"/>
     </g>
     <g id="line2d_10">
      <g>
       <use style="stroke:#000000;stroke-width:0.8;" x="327.377931" xlink:href="#m005f0a59be" y="297.54825"/>
      </g>
     </g>
     <g id="text_5">
      <!-- 400 -->
      <defs>
       <path d="M 37.796875 64.3125 
L 12.890625 25.390625 
L 37.796875 25.390625 
z
M 35.203125 72.90625 
L 47.609375 72.90625 
L 47.609375 25.390625 
L 58.015625 25.390625 
L 58.015625 17.1875 
L 47.609375 17.1875 
L 47.609375 0 
L 37.796875 0 
L 37.796875 17.1875 
L 4.890625 17.1875 
L 4.890625 26.703125 
z
" id="DejaVuSans-34"/>
      </defs>
      <g transform="translate(313.062306 315.945906)scale(0.15 -0.15)">
       <use xlink:href="#DejaVuSans-34"/>
       <use x="63.623047" xlink:href="#DejaVuSans-30"/>
       <use x="127.246094" xlink:href="#DejaVuSans-30"/>
      </g>
     </g>
    </g>
    <g id="xtick_6">
     <g id="line2d_11">
      <path clip-path="url(#pcd39df9889)" d="M 389.811497 297.54825 
L 389.811497 31.43625 
" style="fill:none;stroke:#b0b0b0;stroke-linecap:square;stroke-width:0.8;"/>
     </g>
     <g id="line2d_12">
      <g>
       <use style="stroke:#000000;stroke-width:0.8;" x="389.811497" xlink:href="#m005f0a59be" y="297.54825"/>
      </g>
     </g>
     <g id="text_6">
      <!-- 500 -->
      <defs>
       <path d="M 10.796875 72.90625 
L 49.515625 72.90625 
L 49.515625 64.59375 
L 19.828125 64.59375 
L 19.828125 46.734375 
Q 21.96875 47.46875 24.109375 47.828125 
Q 26.265625 48.1875 28.421875 48.1875 
Q 40.625 48.1875 47.75 41.5 
Q 54.890625 34.8125 54.890625 23.390625 
Q 54.890625 11.625 47.5625 5.09375 
Q 40.234375 -1.421875 26.90625 -1.421875 
Q 22.3125 -1.421875 17.546875 -0.640625 
Q 12.796875 0.140625 7.71875 1.703125 
L 7.71875 11.625 
Q 12.109375 9.234375 16.796875 8.0625 
Q 21.484375 6.890625 26.703125 6.890625 
Q 35.15625 6.890625 40.078125 11.328125 
Q 45.015625 15.765625 45.015625 23.390625 
Q 45.015625 31 40.078125 35.4375 
Q 35.15625 39.890625 26.703125 39.890625 
Q 22.75 39.890625 18.8125 39.015625 
Q 14.890625 38.140625 10.796875 36.28125 
z
" id="DejaVuSans-35"/>
      </defs>
      <g transform="translate(375.495872 315.945906)scale(0.15 -0.15)">
       <use xlink:href="#DejaVuSans-35"/>
       <use x="63.623047" xlink:href="#DejaVuSans-30"/>
       <use x="127.246094" xlink:href="#DejaVuSans-30"/>
      </g>
     </g>
    </g>
    <g id="text_7">
     <!-- Time ($\mu s$) -->
     <defs>
      <path d="M -0.296875 72.90625 
L 61.375 72.90625 
L 61.375 64.59375 
L 35.5 64.59375 
L 35.5 0 
L 25.59375 0 
L 25.59375 64.59375 
L -0.296875 64.59375 
z
" id="DejaVuSans-54"/>
      <path d="M 9.421875 54.6875 
L 18.40625 54.6875 
L 18.40625 0 
L 9.421875 0 
z
M 9.421875 75.984375 
L 18.40625 75.984375 
L 18.40625 64.59375 
L 9.421875 64.59375 
z
" id="DejaVuSans-69"/>
      <path d="M 52 44.1875 
Q 55.375 50.25 60.0625 53.125 
Q 64.75 56 71.09375 56 
Q 79.640625 56 84.28125 50.015625 
Q 88.921875 44.046875 88.921875 33.015625 
L 88.921875 0 
L 79.890625 0 
L 79.890625 32.71875 
Q 79.890625 40.578125 77.09375 44.375 
Q 74.3125 48.1875 68.609375 48.1875 
Q 61.625 48.1875 57.5625 43.546875 
Q 53.515625 38.921875 53.515625 30.90625 
L 53.515625 0 
L 44.484375 0 
L 44.484375 32.71875 
Q 44.484375 40.625 41.703125 44.40625 
Q 38.921875 48.1875 33.109375 48.1875 
Q 26.21875 48.1875 22.15625 43.53125 
Q 18.109375 38.875 18.109375 30.90625 
L 18.109375 0 
L 9.078125 0 
L 9.078125 54.6875 
L 18.109375 54.6875 
L 18.109375 46.1875 
Q 21.1875 51.21875 25.484375 53.609375 
Q 29.78125 56 35.6875 56 
Q 41.65625 56 45.828125 52.96875 
Q 50 49.953125 52 44.1875 
z
" id="DejaVuSans-6d"/>
      <path d="M 56.203125 29.59375 
L 56.203125 25.203125 
L 14.890625 25.203125 
Q 15.484375 15.921875 20.484375 11.0625 
Q 25.484375 6.203125 34.421875 6.203125 
Q 39.59375 6.203125 44.453125 7.46875 
Q 49.3125 8.734375 54.109375 11.28125 
L 54.109375 2.78125 
Q 49.265625 0.734375 44.1875 -0.34375 
Q 39.109375 -1.421875 33.890625 -1.421875 
Q 20.796875 -1.421875 13.15625 6.1875 
Q 5.515625 13.8125 5.515625 26.8125 
Q 5.515625 40.234375 12.765625 48.109375 
Q 20.015625 56 32.328125 56 
Q 43.359375 56 49.78125 48.890625 
Q 56.203125 41.796875 56.203125 29.59375 
z
M 47.21875 32.234375 
Q 47.125 39.59375 43.09375 43.984375 
Q 39.0625 48.390625 32.421875 48.390625 
Q 24.90625 48.390625 20.390625 44.140625 
Q 15.875 39.890625 15.1875 32.171875 
z
" id="DejaVuSans-65"/>
      <path id="DejaVuSans-20"/>
      <path d="M 31 75.875 
Q 24.46875 64.65625 21.28125 53.65625 
Q 18.109375 42.671875 18.109375 31.390625 
Q 18.109375 20.125 21.3125 9.0625 
Q 24.515625 -2 31 -13.1875 
L 23.1875 -13.1875 
Q 15.875 -1.703125 12.234375 9.375 
Q 8.59375 20.453125 8.59375 31.390625 
Q 8.59375 42.28125 12.203125 53.3125 
Q 15.828125 64.359375 23.1875 75.875 
z
" id="DejaVuSans-28"/>
      <path d="M -1.3125 -20.796875 
L 13.375 54.6875 
L 22.40625 54.6875 
L 15.765625 20.65625 
Q 15.578125 19.625 15.421875 18.359375 
Q 15.28125 17.09375 15.28125 15.828125 
Q 15.28125 11.28125 18.140625 8.828125 
Q 21 6.390625 26.3125 6.390625 
Q 33.546875 6.390625 37.984375 10.484375 
Q 42.4375 14.59375 44 22.796875 
L 50.203125 54.6875 
L 59.1875 54.6875 
L 51.03125 12.640625 
Q 50.828125 11.71875 50.75 11.03125 
Q 50.6875 10.359375 50.6875 9.8125 
Q 50.6875 8.296875 51.296875 7.59375 
Q 51.90625 6.890625 53.21875 6.890625 
Q 53.71875 6.890625 54.5625 7.125 
Q 55.421875 7.375 56.984375 8.015625 
L 55.609375 0.78125 
Q 53.46875 -0.296875 51.515625 -0.859375 
Q 49.5625 -1.421875 47.703125 -1.421875 
Q 44.484375 -1.421875 42.65625 0.625 
Q 40.828125 2.6875 40.828125 6.296875 
Q 38.09375 2.390625 34.296875 0.484375 
Q 30.515625 -1.421875 25.390625 -1.421875 
Q 20.84375 -1.421875 17.453125 0.671875 
Q 14.0625 2.78125 12.984375 6.203125 
L 7.71875 -20.796875 
z
" id="DejaVuSans-Oblique-3bc"/>
      <path d="M 50 53.078125 
L 48.296875 44.578125 
Q 44.734375 46.53125 40.765625 47.5 
Q 36.8125 48.484375 32.625 48.484375 
Q 25.53125 48.484375 21.453125 46.0625 
Q 17.390625 43.65625 17.390625 39.5 
Q 17.390625 34.671875 26.859375 32.078125 
Q 27.59375 31.890625 27.9375 31.78125 
L 30.8125 30.90625 
Q 39.796875 28.421875 42.796875 25.6875 
Q 45.796875 22.953125 45.796875 18.21875 
Q 45.796875 9.515625 38.890625 4.046875 
Q 31.984375 -1.421875 20.796875 -1.421875 
Q 16.453125 -1.421875 11.671875 -0.578125 
Q 6.890625 0.25 1.125 2 
L 2.875 11.28125 
Q 7.8125 8.734375 12.59375 7.421875 
Q 17.390625 6.109375 21.78125 6.109375 
Q 28.375 6.109375 32.5 8.9375 
Q 36.625 11.765625 36.625 16.109375 
Q 36.625 20.796875 25.78125 23.6875 
L 24.859375 23.921875 
L 21.78125 24.703125 
Q 14.9375 26.515625 11.765625 29.46875 
Q 8.59375 32.421875 8.59375 37.015625 
Q 8.59375 45.75 15.15625 50.875 
Q 21.734375 56 33.015625 56 
Q 37.453125 56 41.671875 55.265625 
Q 45.90625 54.546875 50 53.078125 
z
" id="DejaVuSans-Oblique-73"/>
      <path d="M 8.015625 75.875 
L 15.828125 75.875 
Q 23.140625 64.359375 26.78125 53.3125 
Q 30.421875 42.28125 30.421875 31.390625 
Q 30.421875 20.453125 26.78125 9.375 
Q 23.140625 -1.703125 15.828125 -13.1875 
L 8.015625 -13.1875 
Q 14.5 -2 17.703125 9.0625 
Q 20.90625 20.125 20.90625 31.390625 
Q 20.90625 42.671875 17.703125 53.65625 
Q 14.5 64.65625 8.015625 75.875 
z
" id="DejaVuSans-29"/>
     </defs>
     <g transform="translate(192.570938 338.265437)scale(0.2 -0.2)">
      <use transform="translate(0 0.015625)" xlink:href="#DejaVuSans-54"/>
      <use transform="translate(61.083984 0.015625)" xlink:href="#DejaVuSans-69"/>
      <use transform="translate(88.867188 0.015625)" xlink:href="#DejaVuSans-6d"/>
      <use transform="translate(186.279297 0.015625)" xlink:href="#DejaVuSans-65"/>
      <use transform="translate(247.802734 0.015625)" xlink:href="#DejaVuSans-20"/>
      <use transform="translate(279.589844 0.015625)" xlink:href="#DejaVuSans-28"/>
      <use transform="translate(318.603516 0.015625)" xlink:href="#DejaVuSans-Oblique-3bc"/>
      <use transform="translate(382.226562 0.015625)" xlink:href="#DejaVuSans-Oblique-73"/>
      <use transform="translate(434.326172 0.015625)" xlink:href="#DejaVuSans-29"/>
     </g>
    </g>
   </g>
   <g id="matplotlib.axis_2">
    <g id="ytick_1">
     <g id="line2d_13">
      <path clip-path="url(#pcd39df9889)" d="M 61.410938 297.54825 
L 418.530938 297.54825 
" style="fill:none;stroke:#b0b0b0;stroke-linecap:square;stroke-width:0.8;"/>
     </g>
     <g id="line2d_14">
      <defs>
       <path d="M 0 0 
L -3.5 0 
" id="mc3ce260a5b" style="stroke:#000000;stroke-width:0.8;"/>
      </defs>
      <g>
       <use style="stroke:#000000;stroke-width:0.8;" x="61.410938" xlink:href="#mc3ce260a5b" y="297.54825"/>
      </g>
     </g>
     <g id="text_8">
      <!-- 0.0 -->
      <defs>
       <path d="M 10.6875 12.40625 
L 21 12.40625 
L 21 0 
L 10.6875 0 
z
" id="DejaVuSans-2e"/>
      </defs>
      <g transform="translate(30.55625 303.247078)scale(0.15 -0.15)">
       <use xlink:href="#DejaVuSans-30"/>
       <use x="63.623047" xlink:href="#DejaVuSans-2e"/>
       <use x="95.410156" xlink:href="#DejaVuSans-30"/>
      </g>
     </g>
    </g>
    <g id="ytick_2">
     <g id="line2d_15">
      <path clip-path="url(#pcd39df9889)" d="M 61.410938 244.32585 
L 418.530938 244.32585 
" style="fill:none;stroke:#b0b0b0;stroke-linecap:square;stroke-width:0.8;"/>
     </g>
     <g id="line2d_16">
      <g>
       <use style="stroke:#000000;stroke-width:0.8;" x="61.410938" xlink:href="#mc3ce260a5b" y="244.32585"/>
      </g>
     </g>
     <g id="text_9">
      <!-- 0.2 -->
      <g transform="translate(30.55625 250.024678)scale(0.15 -0.15)">
       <use xlink:href="#DejaVuSans-30"/>
       <use x="63.623047" xlink:href="#DejaVuSans-2e"/>
       <use x="95.410156" xlink:href="#DejaVuSans-32"/>
      </g>
     </g>
    </g>
    <g id="ytick_3">
     <g id="line2d_17">
      <path clip-path="url(#pcd39df9889)" d="M 61.410938 191.10345 
L 418.530938 191.10345 
" style="fill:none;stroke:#b0b0b0;stroke-linecap:square;stroke-width:0.8;"/>
     </g>
     <g id="line2d_18">
      <g>
       <use style="stroke:#000000;stroke-width:0.8;" x="61.410938" xlink:href="#mc3ce260a5b" y="191.10345"/>
      </g>
     </g>
     <g id="text_10">
      <!-- 0.4 -->
      <g transform="translate(30.55625 196.802278)scale(0.15 -0.15)">
       <use xlink:href="#DejaVuSans-30"/>
       <use x="63.623047" xlink:href="#DejaVuSans-2e"/>
       <use x="95.410156" xlink:href="#DejaVuSans-34"/>
      </g>
     </g>
    </g>
    <g id="ytick_4">
     <g id="line2d_19">
      <path clip-path="url(#pcd39df9889)" d="M 61.410938 137.88105 
L 418.530938 137.88105 
" style="fill:none;stroke:#b0b0b0;stroke-linecap:square;stroke-width:0.8;"/>
     </g>
     <g id="line2d_20">
      <g>
       <use style="stroke:#000000;stroke-width:0.8;" x="61.410938" xlink:href="#mc3ce260a5b" y="137.88105"/>
      </g>
     </g>
     <g id="text_11">
      <!-- 0.6 -->
      <defs>
       <path d="M 33.015625 40.375 
Q 26.375 40.375 22.484375 35.828125 
Q 18.609375 31.296875 18.609375 23.390625 
Q 18.609375 15.53125 22.484375 10.953125 
Q 26.375 6.390625 33.015625 6.390625 
Q 39.65625 6.390625 43.53125 10.953125 
Q 47.40625 15.53125 47.40625 23.390625 
Q 47.40625 31.296875 43.53125 35.828125 
Q 39.65625 40.375 33.015625 40.375 
z
M 52.59375 71.296875 
L 52.59375 62.3125 
Q 48.875 64.0625 45.09375 64.984375 
Q 41.3125 65.921875 37.59375 65.921875 
Q 27.828125 65.921875 22.671875 59.328125 
Q 17.53125 52.734375 16.796875 39.40625 
Q 19.671875 43.65625 24.015625 45.921875 
Q 28.375 48.1875 33.59375 48.1875 
Q 44.578125 48.1875 50.953125 41.515625 
Q 57.328125 34.859375 57.328125 23.390625 
Q 57.328125 12.15625 50.6875 5.359375 
Q 44.046875 -1.421875 33.015625 -1.421875 
Q 20.359375 -1.421875 13.671875 8.265625 
Q 6.984375 17.96875 6.984375 36.375 
Q 6.984375 53.65625 15.1875 63.9375 
Q 23.390625 74.21875 37.203125 74.21875 
Q 40.921875 74.21875 44.703125 73.484375 
Q 48.484375 72.75 52.59375 71.296875 
z
" id="DejaVuSans-36"/>
      </defs>
      <g transform="translate(30.55625 143.579878)scale(0.15 -0.15)">
       <use xlink:href="#DejaVuSans-30"/>
       <use x="63.623047" xlink:href="#DejaVuSans-2e"/>
       <use x="95.410156" xlink:href="#DejaVuSans-36"/>
      </g>
     </g>
    </g>
    <g id="ytick_5">
     <g id="line2d_21">
      <path clip-path="url(#pcd39df9889)" d="M 61.410938 84.65865 
L 418.530938 84.65865 
" style="fill:none;stroke:#b0b0b0;stroke-linecap:square;stroke-width:0.8;"/>
     </g>
     <g id="line2d_22">
      <g>
       <use style="stroke:#000000;stroke-width:0.8;" x="61.410938" xlink:href="#mc3ce260a5b" y="84.65865"/>
      </g>
     </g>
     <g id="text_12">
      <!-- 0.8 -->
      <defs>
       <path d="M 31.78125 34.625 
Q 24.75 34.625 20.71875 30.859375 
Q 16.703125 27.09375 16.703125 20.515625 
Q 16.703125 13.921875 20.71875 10.15625 
Q 24.75 6.390625 31.78125 6.390625 
Q 38.8125 6.390625 42.859375 10.171875 
Q 46.921875 13.96875 46.921875 20.515625 
Q 46.921875 27.09375 42.890625 30.859375 
Q 38.875 34.625 31.78125 34.625 
z
M 21.921875 38.8125 
Q 15.578125 40.375 12.03125 44.71875 
Q 8.5 49.078125 8.5 55.328125 
Q 8.5 64.0625 14.71875 69.140625 
Q 20.953125 74.21875 31.78125 74.21875 
Q 42.671875 74.21875 48.875 69.140625 
Q 55.078125 64.0625 55.078125 55.328125 
Q 55.078125 49.078125 51.53125 44.71875 
Q 48 40.375 41.703125 38.8125 
Q 48.828125 37.15625 52.796875 32.3125 
Q 56.78125 27.484375 56.78125 20.515625 
Q 56.78125 9.90625 50.3125 4.234375 
Q 43.84375 -1.421875 31.78125 -1.421875 
Q 19.734375 -1.421875 13.25 4.234375 
Q 6.78125 9.90625 6.78125 20.515625 
Q 6.78125 27.484375 10.78125 32.3125 
Q 14.796875 37.15625 21.921875 38.8125 
z
M 18.3125 54.390625 
Q 18.3125 48.734375 21.84375 45.5625 
Q 25.390625 42.390625 31.78125 42.390625 
Q 38.140625 42.390625 41.71875 45.5625 
Q 45.3125 48.734375 45.3125 54.390625 
Q 45.3125 60.0625 41.71875 63.234375 
Q 38.140625 66.40625 31.78125 66.40625 
Q 25.390625 66.40625 21.84375 63.234375 
Q 18.3125 60.0625 18.3125 54.390625 
z
" id="DejaVuSans-38"/>
      </defs>
      <g transform="translate(30.55625 90.357478)scale(0.15 -0.15)">
       <use xlink:href="#DejaVuSans-30"/>
       <use x="63.623047" xlink:href="#DejaVuSans-2e"/>
       <use x="95.410156" xlink:href="#DejaVuSans-38"/>
      </g>
     </g>
    </g>
    <g id="ytick_6">
     <g id="line2d_23">
      <path clip-path="url(#pcd39df9889)" d="M 61.410938 31.43625 
L 418.530938 31.43625 
" style="fill:none;stroke:#b0b0b0;stroke-linecap:square;stroke-width:0.8;"/>
     </g>
     <g id="line2d_24">
      <g>
       <use style="stroke:#000000;stroke-width:0.8;" x="61.410938" xlink:href="#mc3ce260a5b" y="31.43625"/>
      </g>
     </g>
     <g id="text_13">
      <!-- 1.0 -->
      <g transform="translate(30.55625 37.135078)scale(0.15 -0.15)">
       <use xlink:href="#DejaVuSans-31"/>
       <use x="63.623047" xlink:href="#DejaVuSans-2e"/>
       <use x="95.410156" xlink:href="#DejaVuSans-30"/>
      </g>
     </g>
    </g>
    <g id="text_14">
     <!-- Survival -->
     <defs>
      <path d="M 53.515625 70.515625 
L 53.515625 60.890625 
Q 47.90625 63.578125 42.921875 64.890625 
Q 37.9375 66.21875 33.296875 66.21875 
Q 25.25 66.21875 20.875 63.09375 
Q 16.5 59.96875 16.5 54.203125 
Q 16.5 49.359375 19.40625 46.890625 
Q 22.3125 44.4375 30.421875 42.921875 
L 36.375 41.703125 
Q 47.40625 39.59375 52.65625 34.296875 
Q 57.90625 29 57.90625 20.125 
Q 57.90625 9.515625 50.796875 4.046875 
Q 43.703125 -1.421875 29.984375 -1.421875 
Q 24.8125 -1.421875 18.96875 -0.25 
Q 13.140625 0.921875 6.890625 3.21875 
L 6.890625 13.375 
Q 12.890625 10.015625 18.65625 8.296875 
Q 24.421875 6.59375 29.984375 6.59375 
Q 38.421875 6.59375 43.015625 9.90625 
Q 47.609375 13.234375 47.609375 19.390625 
Q 47.609375 24.75 44.3125 27.78125 
Q 41.015625 30.8125 33.5 32.328125 
L 27.484375 33.5 
Q 16.453125 35.6875 11.515625 40.375 
Q 6.59375 45.0625 6.59375 53.421875 
Q 6.59375 63.09375 13.40625 68.65625 
Q 20.21875 74.21875 32.171875 74.21875 
Q 37.3125 74.21875 42.625 73.28125 
Q 47.953125 72.359375 53.515625 70.515625 
z
" id="DejaVuSans-53"/>
      <path d="M 8.5 21.578125 
L 8.5 54.6875 
L 17.484375 54.6875 
L 17.484375 21.921875 
Q 17.484375 14.15625 20.5 10.265625 
Q 23.53125 6.390625 29.59375 6.390625 
Q 36.859375 6.390625 41.078125 11.03125 
Q 45.3125 15.671875 45.3125 23.6875 
L 45.3125 54.6875 
L 54.296875 54.6875 
L 54.296875 0 
L 45.3125 0 
L 45.3125 8.40625 
Q 42.046875 3.421875 37.71875 1 
Q 33.40625 -1.421875 27.6875 -1.421875 
Q 18.265625 -1.421875 13.375 4.4375 
Q 8.5 10.296875 8.5 21.578125 
z
M 31.109375 56 
z
" id="DejaVuSans-75"/>
      <path d="M 41.109375 46.296875 
Q 39.59375 47.171875 37.8125 47.578125 
Q 36.03125 48 33.890625 48 
Q 26.265625 48 22.1875 43.046875 
Q 18.109375 38.09375 18.109375 28.8125 
L 18.109375 0 
L 9.078125 0 
L 9.078125 54.6875 
L 18.109375 54.6875 
L 18.109375 46.1875 
Q 20.953125 51.171875 25.484375 53.578125 
Q 30.03125 56 36.53125 56 
Q 37.453125 56 38.578125 55.875 
Q 39.703125 55.765625 41.0625 55.515625 
z
" id="DejaVuSans-72"/>
      <path d="M 2.984375 54.6875 
L 12.5 54.6875 
L 29.59375 8.796875 
L 46.6875 54.6875 
L 56.203125 54.6875 
L 35.6875 0 
L 23.484375 0 
z
" id="DejaVuSans-76"/>
      <path d="M 34.28125 27.484375 
Q 23.390625 27.484375 19.1875 25 
Q 14.984375 22.515625 14.984375 16.5 
Q 14.984375 11.71875 18.140625 8.90625 
Q 21.296875 6.109375 26.703125 6.109375 
Q 34.1875 6.109375 38.703125 11.40625 
Q 43.21875 16.703125 43.21875 25.484375 
L 43.21875 27.484375 
z
M 52.203125 31.203125 
L 52.203125 0 
L 43.21875 0 
L 43.21875 8.296875 
Q 40.140625 3.328125 35.546875 0.953125 
Q 30.953125 -1.421875 24.3125 -1.421875 
Q 15.921875 -1.421875 10.953125 3.296875 
Q 6 8.015625 6 15.921875 
Q 6 25.140625 12.171875 29.828125 
Q 18.359375 34.515625 30.609375 34.515625 
L 43.21875 34.515625 
L 43.21875 35.40625 
Q 43.21875 41.609375 39.140625 45 
Q 35.0625 48.390625 27.6875 48.390625 
Q 23 48.390625 18.546875 47.265625 
Q 14.109375 46.140625 10.015625 43.890625 
L 10.015625 52.203125 
Q 14.9375 54.109375 19.578125 55.046875 
Q 24.21875 56 28.609375 56 
Q 40.484375 56 46.34375 49.84375 
Q 52.203125 43.703125 52.203125 31.203125 
z
" id="DejaVuSans-61"/>
      <path d="M 9.421875 75.984375 
L 18.40625 75.984375 
L 18.40625 0 
L 9.421875 0 
z
" id="DejaVuSans-6c"/>
     </defs>
     <g transform="translate(22.396875 204.811)rotate(-90)scale(0.2 -0.2)">
      <use xlink:href="#DejaVuSans-53"/>
      <use x="63.476562" xlink:href="#DejaVuSans-75"/>
      <use x="126.855469" xlink:href="#DejaVuSans-72"/>
      <use x="167.96875" xlink:href="#DejaVuSans-76"/>
      <use x="227.148438" xlink:href="#DejaVuSans-69"/>
      <use x="254.931641" xlink:href="#DejaVuSans-76"/>
      <use x="314.111328" xlink:href="#DejaVuSans-61"/>
      <use x="375.390625" xlink:href="#DejaVuSans-6c"/>
     </g>
    </g>
   </g>
   <g id="LineCollection_1">
    <path clip-path="url(#pcd39df9889)" d="M 77.643665 297.54825 
L 77.643665 296.36553 
" style="fill:none;stroke:#1f77b4;stroke-width:1.5;"/>
    <path clip-path="url(#pcd39df9889)" d="M 88.257371 248.167345 
L 88.257371 233.238113 
" style="fill:none;stroke:#1f77b4;stroke-width:1.5;"/>
    <path clip-path="url(#pcd39df9889)" d="M 98.871077 166.874424 
L 98.871077 149.271339 
" style="fill:none;stroke:#1f77b4;stroke-width:1.5;"/>
    <path clip-path="url(#pcd39df9889)" d="M 109.484784 90.215565 
L 109.484784 76.69249 
" style="fill:none;stroke:#1f77b4;stroke-width:1.5;"/>
    <path clip-path="url(#pcd39df9889)" d="M 120.09849 104.430916 
L 120.09849 88.085891 
" style="fill:none;stroke:#1f77b4;stroke-width:1.5;"/>
    <path clip-path="url(#pcd39df9889)" d="M 130.712196 147.252901 
L 130.712196 130.115048 
" style="fill:none;stroke:#1f77b4;stroke-width:1.5;"/>
    <path clip-path="url(#pcd39df9889)" d="M 141.325903 246.783401 
L 141.325903 232.038937 
" style="fill:none;stroke:#1f77b4;stroke-width:1.5;"/>
    <path clip-path="url(#pcd39df9889)" d="M 151.939609 267.396778 
L 151.939609 255.231722 
" style="fill:none;stroke:#1f77b4;stroke-width:1.5;"/>
    <path clip-path="url(#pcd39df9889)" d="M 162.553315 218.361236 
L 162.553315 201.992191 
" style="fill:none;stroke:#1f77b4;stroke-width:1.5;"/>
    <path clip-path="url(#pcd39df9889)" d="M 173.167021 158.185495 
L 173.167021 140.281573 
" style="fill:none;stroke:#1f77b4;stroke-width:1.5;"/>
    <path clip-path="url(#pcd39df9889)" d="M 183.780728 83.298243 
L 183.780728 69.883759 
" style="fill:none;stroke:#1f77b4;stroke-width:1.5;"/>
    <path clip-path="url(#pcd39df9889)" d="M 194.394434 88.141972 
L 194.394434 74.522528 
" style="fill:none;stroke:#1f77b4;stroke-width:1.5;"/>
    <path clip-path="url(#pcd39df9889)" d="M 205.00814 172.23807 
L 205.00814 154.338176 
" style="fill:none;stroke:#1f77b4;stroke-width:1.5;"/>
    <path clip-path="url(#pcd39df9889)" d="M 215.621847 247.701619 
L 215.621847 233.507966 
" style="fill:none;stroke:#1f77b4;stroke-width:1.5;"/>
    <path clip-path="url(#pcd39df9889)" d="M 226.235553 255.362601 
L 226.235553 241.813899 
" style="fill:none;stroke:#1f77b4;stroke-width:1.5;"/>
    <path clip-path="url(#pcd39df9889)" d="M 236.849259 204.13545 
L 236.849259 186.356069 
" style="fill:none;stroke:#1f77b4;stroke-width:1.5;"/>
    <path clip-path="url(#pcd39df9889)" d="M 247.462965 128.093156 
L 247.462965 110.937992 
" style="fill:none;stroke:#1f77b4;stroke-width:1.5;"/>
    <path clip-path="url(#pcd39df9889)" d="M 258.076672 89.68766 
L 258.076672 75.44084 
" style="fill:none;stroke:#1f77b4;stroke-width:1.5;"/>
    <path clip-path="url(#pcd39df9889)" d="M 268.690378 104.12431 
L 268.690378 88.820872 
" style="fill:none;stroke:#1f77b4;stroke-width:1.5;"/>
    <path clip-path="url(#pcd39df9889)" d="M 279.304084 174.545018 
L 279.304084 156.804922 
" style="fill:none;stroke:#1f77b4;stroke-width:1.5;"/>
    <path clip-path="url(#pcd39df9889)" d="M 289.917791 239.092638 
L 289.917791 223.555424 
" style="fill:none;stroke:#1f77b4;stroke-width:1.5;"/>
    <path clip-path="url(#pcd39df9889)" d="M 300.531497 244.3087 
L 300.531497 229.9286 
" style="fill:none;stroke:#1f77b4;stroke-width:1.5;"/>
    <path clip-path="url(#pcd39df9889)" d="M 311.145203 204.328768 
L 311.145203 187.534517 
" style="fill:none;stroke:#1f77b4;stroke-width:1.5;"/>
    <path clip-path="url(#pcd39df9889)" d="M 321.75891 145.925774 
L 321.75891 128.087234 
" style="fill:none;stroke:#1f77b4;stroke-width:1.5;"/>
    <path clip-path="url(#pcd39df9889)" d="M 332.372616 106.355456 
L 332.372616 90.782644 
" style="fill:none;stroke:#1f77b4;stroke-width:1.5;"/>
    <path clip-path="url(#pcd39df9889)" d="M 342.986322 128.862946 
L 342.986322 111.826328 
" style="fill:none;stroke:#1f77b4;stroke-width:1.5;"/>
    <path clip-path="url(#pcd39df9889)" d="M 353.600028 176.694061 
L 353.600028 158.508009 
" style="fill:none;stroke:#1f77b4;stroke-width:1.5;"/>
    <path clip-path="url(#pcd39df9889)" d="M 364.213735 241.926819 
L 364.213735 226.012716 
" style="fill:none;stroke:#1f77b4;stroke-width:1.5;"/>
    <path clip-path="url(#pcd39df9889)" d="M 374.827441 234.712446 
L 374.827441 219.434901 
" style="fill:none;stroke:#1f77b4;stroke-width:1.5;"/>
    <path clip-path="url(#pcd39df9889)" d="M 385.441147 212.774283 
L 385.441147 195.926587 
" style="fill:none;stroke:#1f77b4;stroke-width:1.5;"/>
    <path clip-path="url(#pcd39df9889)" d="M 396.054854 143.868145 
L 396.054854 126.252871 
" style="fill:none;stroke:#1f77b4;stroke-width:1.5;"/>
   </g>
   <g id="LineCollection_2">
    <path clip-path="url(#pcd39df9889)" d="M 77.643665 293.318268 
L 77.643665 286.326567 
" style="fill:none;stroke:#d62728;stroke-width:1.5;"/>
    <path clip-path="url(#pcd39df9889)" d="M 88.257371 263.036217 
L 88.257371 247.763935 
" style="fill:none;stroke:#d62728;stroke-width:1.5;"/>
    <path clip-path="url(#pcd39df9889)" d="M 98.871077 190.325663 
L 98.871077 170.410837 
" style="fill:none;stroke:#d62728;stroke-width:1.5;"/>
    <path clip-path="url(#pcd39df9889)" d="M 109.484784 211.670098 
L 109.484784 192.487283 
" style="fill:none;stroke:#d62728;stroke-width:1.5;"/>
    <path clip-path="url(#pcd39df9889)" d="M 120.09849 227.891121 
L 120.09849 208.84425 
" style="fill:none;stroke:#d62728;stroke-width:1.5;"/>
    <path clip-path="url(#pcd39df9889)" d="M 130.712196 226.734185 
L 130.712196 208.072631 
" style="fill:none;stroke:#d62728;stroke-width:1.5;"/>
    <path clip-path="url(#pcd39df9889)" d="M 141.325903 215.335629 
L 141.325903 194.716103 
" style="fill:none;stroke:#d62728;stroke-width:1.5;"/>
    <path clip-path="url(#pcd39df9889)" d="M 151.939609 192.383279 
L 151.939609 171.528421 
" style="fill:none;stroke:#d62728;stroke-width:1.5;"/>
    <path clip-path="url(#pcd39df9889)" d="M 162.553315 217.455751 
L 162.553315 197.42566 
" style="fill:none;stroke:#d62728;stroke-width:1.5;"/>
    <path clip-path="url(#pcd39df9889)" d="M 173.167021 208.018676 
L 173.167021 188.276506 
" style="fill:none;stroke:#d62728;stroke-width:1.5;"/>
    <path clip-path="url(#pcd39df9889)" d="M 183.780728 197.527445 
L 183.780728 177.603644 
" style="fill:none;stroke:#d62728;stroke-width:1.5;"/>
    <path clip-path="url(#pcd39df9889)" d="M 194.394434 179.329626 
L 194.394434 158.992137 
" style="fill:none;stroke:#d62728;stroke-width:1.5;"/>
    <path clip-path="url(#pcd39df9889)" d="M 205.00814 200.590259 
L 205.00814 179.953441 
" style="fill:none;stroke:#d62728;stroke-width:1.5;"/>
    <path clip-path="url(#pcd39df9889)" d="M 215.621847 207.95647 
L 215.621847 187.121207 
" style="fill:none;stroke:#d62728;stroke-width:1.5;"/>
    <path clip-path="url(#pcd39df9889)" d="M 226.235553 192.419779 
L 226.235553 170.727748 
" style="fill:none;stroke:#d62728;stroke-width:1.5;"/>
    <path clip-path="url(#pcd39df9889)" d="M 236.849259 191.000716 
L 236.849259 169.984594 
" style="fill:none;stroke:#d62728;stroke-width:1.5;"/>
   </g>
   <g id="line2d_25">
    <path clip-path="url(#pcd39df9889)" d="M 77.643665 297.056409 
L 78.617628 297.05513 
L 79.266938 295.785796 
L 79.591592 296.26547 
L 79.916247 295.759234 
L 80.240901 294.339689 
L 80.565556 294.057618 
L 80.89021 293.444851 
L 81.214865 291.915869 
L 81.539519 291.051351 
L 82.513483 286.970421 
L 82.838138 285.894217 
L 83.812101 279.889603 
L 84.136756 279.227753 
L 84.46141 276.194119 
L 85.760028 268.606929 
L 86.084683 266.082422 
L 86.409338 262.652645 
L 87.058647 260.075246 
L 87.707956 253.331467 
L 88.681919 245.07269 
L 89.006574 243.846836 
L 89.655883 236.518882 
L 89.980538 234.539564 
L 90.954501 224.804445 
L 91.928465 216.298114 
L 92.253119 211.736564 
L 92.577774 209.733467 
L 94.201047 192.708425 
L 94.850356 186.301879 
L 96.148974 173.631961 
L 97.447592 159.005218 
L 98.096901 153.57562 
L 99.070865 144.997175 
L 99.720174 138.3234 
L 102.31741 115.338462 
L 104.589992 99.366759 
L 104.914647 97.180609 
L 105.239301 93.340475 
L 105.563956 93.027957 
L 105.88861 91.312157 
L 106.537919 86.235114 
L 106.862574 84.999255 
L 107.187228 82.905373 
L 107.836538 80.411908 
L 108.161192 78.572085 
L 108.485847 77.475817 
L 108.810501 77.097989 
L 109.135156 75.254277 
L 110.109119 73.007342 
L 111.083083 70.345067 
L 111.407738 70.333158 
L 112.057047 68.946718 
L 112.381701 67.760925 
L 112.706356 68.842161 
L 113.03101 68.993188 
L 113.355665 68.529516 
L 113.680319 69.26236 
L 114.004974 69.468593 
L 114.329628 70.266587 
L 114.654283 69.905788 
L 114.978938 71.029505 
L 115.303592 71.472923 
L 115.628247 71.398596 
L 116.277556 74.254018 
L 116.60221 74.927331 
L 116.926865 75.254277 
L 117.900828 79.444523 
L 118.225483 79.755617 
L 118.550138 81.054665 
L 119.199447 85.277804 
L 119.524101 86.058249 
L 120.17341 90.053617 
L 120.498065 91.097191 
L 120.822719 94.667944 
L 121.147374 96.007505 
L 121.472028 98.545627 
L 121.796683 99.455991 
L 122.445992 104.686642 
L 123.74461 113.271116 
L 124.718574 121.569368 
L 125.043228 123.064349 
L 126.017192 132.845768 
L 126.341847 134.457373 
L 126.991156 140.775964 
L 127.640465 145.663126 
L 128.939083 158.307432 
L 129.263738 160.432811 
L 129.913047 166.919806 
L 130.237701 169.218399 
L 130.562356 173.559409 
L 131.211665 178.947991 
L 131.536319 182.109246 
L 131.860974 183.978587 
L 132.510283 191.376533 
L 133.159592 196.374844 
L 133.808901 202.045471 
L 134.133556 203.413712 
L 134.782865 211.085238 
L 135.756828 218.761679 
L 136.081483 220.973572 
L 136.406138 225.018424 
L 136.730792 227.026829 
L 137.055447 229.773011 
L 137.380101 231.440304 
L 137.704756 235.001821 
L 138.02941 236.205077 
L 138.354065 239.91427 
L 138.678719 241.031169 
L 139.652683 248.699282 
L 139.977338 249.92116 
L 140.951301 256.283436 
L 141.275956 257.31346 
L 141.60061 259.884118 
L 141.925265 261.259918 
L 142.249919 263.986669 
L 142.574574 264.743112 
L 142.899228 266.230084 
L 143.223883 266.931377 
L 143.873192 269.087503 
L 144.197847 272.001323 
L 144.522501 272.970328 
L 144.847156 274.574162 
L 145.17181 274.598544 
L 145.821119 277.223909 
L 146.145774 277.449092 
L 146.470428 279.2876 
L 147.119738 280.110894 
L 147.444392 280.063872 
L 148.093701 281.706351 
L 148.418356 282.601774 
L 148.74301 281.355586 
L 149.067665 281.621225 
L 149.392319 281.621225 
L 149.716974 282.565867 
L 150.041628 281.489479 
L 150.366283 282.251497 
L 150.690938 281.553125 
L 151.015592 280.49859 
L 151.664901 280.656179 
L 151.989556 279.462437 
L 152.31421 277.833607 
L 152.638865 278.532225 
L 153.288174 275.766093 
L 153.612828 275.894336 
L 153.937483 274.420794 
L 154.262138 273.842817 
L 154.586792 271.945846 
L 155.88541 267.401118 
L 156.534719 264.348288 
L 156.859374 262.429509 
L 157.184028 261.311377 
L 157.508683 259.243656 
L 157.833338 258.281924 
L 158.157992 254.72451 
L 158.482647 253.883229 
L 158.807301 252.113108 
L 159.131956 248.904149 
L 159.45661 247.666752 
L 159.781265 245.928046 
L 160.430574 241.153155 
L 160.755228 239.231668 
L 161.079883 238.43068 
L 161.729192 232.534025 
L 162.053847 229.767867 
L 162.703156 226.215939 
L 163.02781 223.820179 
L 163.352465 219.936415 
L 163.677119 218.166282 
L 164.651083 210.176174 
L 165.300392 204.889982 
L 165.625047 202.9523 
L 167.248319 188.335935 
L 168.546938 179.097737 
L 171.144174 157.071006 
L 171.468828 154.918761 
L 172.118138 149.519859 
L 173.416756 140.047128 
L 173.74141 136.42934 
L 174.066065 135.432377 
L 174.715374 130.337096 
L 176.338647 121.11779 
L 176.663301 117.691999 
L 177.31261 114.229301 
L 177.637265 112.008506 
L 177.961919 110.781873 
L 178.286574 108.446543 
L 178.611228 107.540084 
L 178.935883 104.781487 
L 179.260537 104.140722 
L 179.585192 103.223016 
L 180.234501 98.461328 
L 180.559156 97.266478 
L 180.88381 96.94053 
L 181.208465 94.993587 
L 181.533119 95.037898 
L 182.182428 92.243857 
L 183.156392 90.34044 
L 183.481047 88.825566 
L 183.805701 88.944626 
L 184.45501 86.564152 
L 184.779665 85.797182 
L 185.104319 87.644303 
L 185.428974 86.48369 
L 185.753628 86.852047 
L 186.078283 85.485341 
L 186.402938 85.442386 
L 186.727592 86.359338 
L 187.052247 86.417857 
L 187.376901 85.463067 
L 188.02621 86.743132 
L 188.350865 86.021403 
L 188.675519 86.823003 
L 189.000174 87.932422 
L 189.324828 88.195264 
L 189.649483 87.989256 
L 189.974138 88.965636 
L 190.623447 91.833628 
L 190.948101 91.758142 
L 191.59741 94.616977 
L 192.246719 95.554093 
L 192.571374 97.954844 
L 192.896028 98.593798 
L 193.220683 100.379949 
L 193.545338 100.763608 
L 194.519301 106.733622 
L 195.16861 109.187121 
L 195.493265 111.525753 
L 195.817919 112.239354 
L 196.791883 119.252573 
L 197.116538 120.343878 
L 197.765847 124.56843 
L 198.415156 130.107129 
L 199.064465 133.757034 
L 203.609628 168.206706 
L 203.934283 171.407042 
L 204.258938 172.858076 
L 205.232901 181.247715 
L 205.557556 182.779777 
L 206.531519 190.895227 
L 207.180828 196.530324 
L 211.401338 227.644461 
L 211.725992 228.466159 
L 212.699956 236.579566 
L 213.02461 237.910309 
L 213.349265 240.253006 
L 213.673919 240.862713 
L 213.998574 243.804686 
L 214.323228 245.189227 
L 214.647883 247.321834 
L 214.972538 248.304705 
L 215.297192 250.478579 
L 215.946501 253.408506 
L 216.271156 255.394487 
L 216.59581 258.136479 
L 216.920465 257.588872 
L 217.245119 260.292443 
L 217.569774 260.796498 
L 217.894428 261.762017 
L 218.219083 263.256536 
L 218.543738 263.908019 
L 219.193047 266.027049 
L 220.16701 267.608994 
L 220.491665 268.636853 
L 220.816319 269.188267 
L 221.140974 270.68976 
L 221.465628 270.418704 
L 221.790283 270.636669 
L 222.439592 272.294541 
L 222.764247 271.868228 
L 223.088901 272.708004 
L 223.413556 270.923358 
L 223.73821 271.791424 
L 224.062865 271.82434 
L 224.387519 272.023513 
L 224.712174 271.791424 
L 225.036828 271.780452 
L 225.361483 269.646661 
L 225.686138 270.732232 
L 226.010792 270.028619 
L 226.335447 268.353214 
L 226.660101 268.402588 
L 226.984756 267.121279 
L 227.30941 266.611653 
L 227.634065 265.550854 
L 227.958719 265.237409 
L 228.608028 262.399442 
L 228.932683 261.113018 
L 229.257338 260.836969 
L 230.231301 255.80641 
L 230.555956 255.23365 
L 231.529919 249.980409 
L 231.854574 249.386397 
L 232.828538 242.804365 
L 233.153192 241.526492 
L 234.127156 235.589213 
L 234.45181 234.528772 
L 235.101119 229.685575 
L 236.724392 218.808703 
L 242.892828 172.51144 
L 243.217483 169.548913 
L 244.191447 163.378533 
L 244.840756 158.229901 
L 245.16541 156.414366 
L 245.490065 153.242336 
L 245.814719 151.646915 
L 246.139374 148.740685 
L 246.464028 146.917613 
L 247.113338 141.988014 
L 247.437992 140.793063 
L 248.411956 134.087057 
L 249.061265 130.215349 
L 249.385919 129.320945 
L 250.035228 124.137858 
L 250.359883 122.301462 
L 250.684538 121.132172 
L 251.333847 116.326082 
L 251.658501 116.494802 
L 252.632465 111.863741 
L 252.957119 111.682784 
L 253.281774 108.9429 
L 253.931083 106.297156 
L 254.255738 106.766357 
L 254.580392 104.430003 
L 255.554356 101.189225 
L 255.87901 100.991493 
L 256.528319 98.383051 
L 256.852974 98.485414 
L 257.502283 97.272612 
L 257.826938 96.001255 
L 258.151592 96.730686 
L 258.476247 96.928186 
L 258.800901 95.895005 
L 259.125556 96.424161 
L 259.45021 95.585543 
L 260.099519 96.045005 
L 260.424174 96.61342 
L 260.748828 96.007505 
L 261.398138 96.527014 
L 261.722792 96.287525 
L 262.047447 97.673742 
L 262.372101 96.755373 
L 263.02141 99.690122 
L 263.670719 100.426972 
L 263.995374 100.526898 
L 264.320028 102.01987 
L 264.644683 102.956277 
L 264.969338 104.647588 
L 265.293992 104.179997 
L 265.943301 106.5263 
L 266.267956 108.121898 
L 266.59261 109.075629 
L 266.917265 110.975194 
L 267.566574 113.040869 
L 267.891228 115.543983 
L 268.215883 116.519614 
L 268.540538 117.079112 
L 271.137774 131.854761 
L 271.462428 132.903595 
L 272.111738 137.556727 
L 273.410356 145.974086 
L 273.73501 147.649876 
L 274.059665 150.415664 
L 275.358283 157.952419 
L 276.007592 163.819674 
L 276.332247 164.916457 
L 276.656901 166.7134 
L 276.981556 170.488054 
L 277.30621 171.693218 
L 281.202065 199.782793 
L 281.526719 200.907097 
L 282.176028 205.86076 
L 282.500683 208.203043 
L 282.825338 209.21945 
L 283.149992 211.336604 
L 283.474647 212.390393 
L 284.123956 217.17591 
L 284.44861 219.254101 
L 284.773265 222.268968 
L 285.097919 223.307744 
L 286.396538 229.618713 
L 287.045847 234.109166 
L 287.370501 234.863336 
L 288.669119 241.736847 
L 288.993774 242.098247 
L 289.318428 243.442138 
L 289.967737 247.673123 
L 290.292392 247.685865 
L 290.617047 249.092553 
L 290.941701 249.125037 
L 291.266356 250.944354 
L 291.59101 251.956471 
L 291.915665 252.318775 
L 292.240319 253.149096 
L 292.564974 253.359481 
L 292.889628 255.394487 
L 293.214283 255.147154 
L 293.863592 257.577294 
L 294.188247 257.809159 
L 294.512901 257.215464 
L 295.16221 259.337703 
L 295.811519 259.07095 
L 296.460828 259.353378 
L 296.785483 259.165284 
L 297.110138 258.615494 
L 297.434792 259.220144 
L 297.759447 259.102052 
L 298.084101 257.801563 
L 298.408756 258.783254 
L 298.73341 258.098204 
L 299.058065 258.021654 
L 299.382719 257.336074 
L 299.707374 257.786371 
L 300.032028 256.136049 
L 300.356683 256.44837 
L 300.681338 254.667264 
L 301.330647 253.946711 
L 301.979956 251.301527 
L 302.30461 250.71211 
L 302.629265 249.749993 
L 302.953919 249.412556 
L 303.278574 247.15725 
L 303.603228 246.077103 
L 303.927883 245.510039 
L 304.252538 244.695602 
L 304.901847 241.59661 
L 305.87581 236.927123 
L 306.200465 236.518882 
L 306.525119 233.662069 
L 306.849774 233.592677 
L 307.174428 230.764347 
L 307.499083 229.392496 
L 307.823738 227.242376 
L 308.473047 224.03528 
L 308.797701 222.249699 
L 309.122356 221.622919 
L 309.44701 218.719358 
L 309.771665 217.343599 
L 312.044247 203.577578 
L 313.01821 196.324418 
L 313.667519 193.511914 
L 314.641483 186.203538 
L 315.615447 179.611727 
L 315.940101 178.587793 
L 316.264756 175.63336 
L 317.563374 168.371963 
L 317.888028 165.39807 
L 318.212683 164.451033 
L 318.861992 159.303103 
L 319.186647 158.078918 
L 319.511301 156.13983 
L 319.835956 153.357545 
L 320.16061 152.365854 
L 321.783883 142.375356 
L 322.108538 141.477052 
L 322.757847 137.0956 
L 323.082501 136.07104 
L 324.056465 130.152221 
L 324.381119 130.066546 
L 324.705774 126.950664 
L 325.030428 126.075047 
L 325.355083 124.825391 
L 325.679738 123.002925 
L 326.004392 123.182471 
L 326.329047 121.736338 
L 326.653701 119.240178 
L 326.978356 118.181491 
L 327.30301 118.157048 
L 327.952319 114.837094 
L 328.276974 114.973128 
L 328.601628 113.829031 
L 328.926283 113.2046 
L 329.250938 111.677614 
L 329.575592 111.349042 
L 330.224901 109.729671 
L 330.549556 109.07032 
L 330.87421 108.884248 
L 331.523519 107.293705 
L 331.848174 107.459141 
L 332.172828 106.466286 
L 332.497483 106.941025 
L 332.822138 106.886767 
L 333.146792 107.022413 
L 333.471447 106.145371 
L 333.796101 106.673608 
L 334.120756 105.936898 
L 334.44541 107.087523 
L 334.770065 106.831826 
L 335.094719 106.739077 
L 335.744028 108.137999 
L 336.393338 107.890837 
L 336.717992 108.724112 
L 337.042647 109.107484 
L 337.367301 110.818447 
L 337.691956 110.051089 
L 338.01661 110.292713 
L 338.341265 113.158551 
L 338.665919 112.517089 
L 338.990574 113.294557 
L 339.315228 115.398615 
L 339.639883 116.316158 
L 339.964538 117.672347 
L 340.289192 117.480742 
L 340.613847 119.392954 
L 341.263156 120.44022 
L 342.237119 125.506469 
L 342.561774 126.513426 
L 343.211083 130.301023 
L 343.860392 131.93966 
L 344.185047 133.981253 
L 344.834356 136.525469 
L 345.483665 141.147882 
L 345.808319 142.630746 
L 346.132974 145.090018 
L 346.782283 147.863278 
L 347.106938 150.548438 
L 347.756247 153.275253 
L 348.080901 155.88988 
L 349.054865 160.786364 
L 349.379519 163.394722 
L 349.704174 164.843608 
L 350.028828 167.737334 
L 351.327447 174.868445 
L 351.652101 178.009048 
L 352.950719 184.141812 
L 353.275374 187.350851 
L 354.249338 192.891075 
L 354.573992 195.647869 
L 354.898647 196.942655 
L 355.547956 201.445738 
L 356.197265 205.055292 
L 356.521919 207.024502 
L 356.846574 207.753374 
L 357.171228 210.873238 
L 357.495883 211.507173 
L 358.469847 217.997798 
L 359.119156 219.941162 
L 359.44381 221.825794 
L 359.768465 224.784793 
L 360.093119 225.240613 
L 360.742428 228.756302 
L 361.067083 230.214382 
L 361.391738 230.826715 
L 361.716392 232.391444 
L 362.365701 234.372143 
L 363.01501 236.767137 
L 363.339665 238.870824 
L 363.664319 239.152213 
L 364.313628 240.914993 
L 364.638283 242.712329 
L 364.962938 243.726409 
L 365.287592 244.092925 
L 365.612247 244.195916 
L 365.936901 245.485351 
L 366.261556 246.307595 
L 366.58621 246.188896 
L 366.910865 247.353485 
L 367.235519 247.552075 
L 367.560174 248.054624 
L 367.884828 248.962619 
L 368.534138 249.209494 
L 368.858792 249.556431 
L 369.183447 249.657826 
L 369.508101 250.485252 
L 369.832756 250.118469 
L 370.15741 250.257647 
L 370.482065 249.438715 
L 370.806719 251.04512 
L 371.131374 249.144527 
L 371.456028 250.284157 
L 371.780683 249.021089 
L 372.105338 249.835576 
L 372.429992 248.054624 
L 373.079301 247.685865 
L 373.403956 246.805194 
L 373.72861 246.545095 
L 374.053265 246.570095 
L 374.377919 245.238296 
L 374.702574 244.884568 
L 375.027228 243.478048 
L 375.351883 243.262593 
L 375.676538 243.238653 
L 376.001192 241.124111 
L 376.325847 240.605163 
L 376.650501 239.516769 
L 376.975156 237.943784 
L 377.624465 236.41355 
L 378.598428 232.56571 
L 378.923083 231.881828 
L 379.572392 228.827565 
L 379.897047 227.79561 
L 380.546356 224.17705 
L 380.87101 223.575295 
L 381.195665 220.477433 
L 381.520319 220.739814 
L 381.844974 218.564178 
L 382.169628 217.497315 
L 382.494283 214.5085 
L 382.818938 214.663941 
L 383.143592 211.831256 
L 383.468247 210.5962 
L 383.792901 208.013477 
L 384.117556 208.039928 
L 385.091519 200.855798 
L 385.416174 199.842384 
L 385.740828 197.727598 
L 386.065483 196.631176 
L 387.039447 191.451218 
L 387.364101 188.126089 
L 387.688756 186.768999 
L 388.338065 183.309366 
L 388.662719 181.930438 
L 388.987374 179.312237 
L 389.312028 177.660992 
L 389.636683 177.098435 
L 389.961338 174.002781 
L 390.285992 173.289356 
L 390.610647 171.040253 
L 390.935301 169.84315 
L 391.58461 165.887778 
L 391.909265 165.143099 
L 392.883228 158.185014 
L 393.207883 158.344158 
L 394.831156 148.815686 
L 395.15581 148.399016 
L 395.480465 145.948874 
L 395.805119 145.060477 
L 396.129774 142.915931 
L 396.454428 143.388858 
L 396.779083 140.887112 
L 397.103738 140.429251 
L 397.428392 139.229994 
L 398.077701 136.123474 
L 398.402356 135.300709 
L 399.051665 132.378703 
L 399.376319 132.230103 
L 399.700974 130.706619 
L 400.350283 129.130691 
L 401.324247 125.909817 
L 401.648901 125.960815 
L 401.973556 124.85334 
L 402.29821 124.657701 
L 402.29821 124.657701 
" style="fill:none;stroke:#1f77b4;stroke-linecap:square;stroke-width:1.5;"/>
   </g>
   <g id="line2d_26">
    <path clip-path="url(#pcd39df9889)" d="M 77.643665 297.056409 
L 78.942283 297.05513 
L 79.266938 296.685009 
L 79.591592 295.985686 
L 79.916247 294.545506 
L 80.240901 294.811085 
L 80.565556 293.023076 
L 81.214865 292.533693 
L 81.864174 288.706459 
L 82.188828 287.93464 
L 82.513483 286.238671 
L 83.162792 284.338637 
L 83.487447 281.489479 
L 83.812101 280.09522 
L 84.136756 279.538396 
L 85.110719 272.272099 
L 85.435374 270.934508 
L 87.058647 259.235819 
L 87.383301 255.154362 
L 87.707956 253.699837 
L 89.655883 237.252295 
L 89.980538 233.523285 
L 90.305192 231.471653 
L 90.629847 227.367355 
L 90.954501 225.20605 
L 91.60381 217.250438 
L 92.253119 211.880857 
L 95.824319 175.265068 
L 96.148974 170.226062 
L 96.473628 167.389277 
L 96.798283 163.240929 
L 97.122938 160.583173 
L 98.421556 146.440527 
L 98.74621 144.020355 
L 101.668101 114.821979 
L 101.992756 112.148101 
L 102.31741 108.304372 
L 102.642065 106.569947 
L 103.291374 100.268267 
L 103.940683 95.757505 
L 104.589992 90.176992 
L 106.213265 76.88962 
L 106.537919 76.207678 
L 107.187228 71.621576 
L 107.511883 69.872124 
L 107.836538 68.842161 
L 108.485847 63.854386 
L 108.810501 64.484309 
L 109.45981 60.307296 
L 109.784465 58.670603 
L 110.433774 56.647202 
L 110.758428 55.211099 
L 111.407738 53.583641 
L 112.057047 51.056867 
L 112.381701 51.357234 
L 112.706356 50.892307 
L 113.03101 48.783544 
L 113.355665 50.730387 
L 113.680319 49.704442 
L 114.004974 49.801927 
L 114.329628 49.600514 
L 114.654283 49.126615 
L 114.978938 50.172227 
L 115.303592 49.652478 
L 115.628247 49.703194 
L 115.952901 50.816244 
L 116.277556 50.26626 
L 116.60221 51.854658 
L 116.926865 51.818089 
L 117.251519 52.164886 
L 117.900828 54.122291 
L 118.225483 55.591548 
L 118.550138 55.615632 
L 118.874792 58.032071 
L 119.199447 58.711354 
L 119.524101 59.814002 
L 119.848756 61.966705 
L 120.17341 63.107232 
L 121.147374 68.0379 
L 121.472028 69.039657 
L 122.121338 73.001069 
L 122.445992 74.642381 
L 122.770647 78.172348 
L 123.095301 79.12802 
L 123.419956 81.185243 
L 124.069265 87.070866 
L 125.043228 93.021418 
L 125.692538 99.521428 
L 126.017192 101.131136 
L 126.666501 107.26115 
L 127.31581 112.2805 
L 130.237701 139.208433 
L 130.562356 143.350714 
L 131.211665 148.236514 
L 131.536319 152.448491 
L 132.185628 158.246223 
L 132.834938 164.977165 
L 133.159592 167.154542 
L 135.107519 186.539537 
L 136.406138 199.04958 
L 137.380101 208.351506 
L 137.704756 210.986488 
L 138.02941 214.907688 
L 138.354065 216.24274 
L 138.678719 219.9649 
L 139.003374 222.235248 
L 139.328028 225.775449 
L 140.301992 232.84283 
L 142.574574 251.011531 
L 142.899228 252.658523 
L 143.223883 255.438053 
L 143.548538 256.60429 
L 143.873192 259.569225 
L 144.197847 260.941635 
L 144.522501 261.599396 
L 145.17181 266.602249 
L 145.496465 267.763894 
L 145.821119 270.267694 
L 146.145774 271.692676 
L 146.470428 272.350648 
L 146.795083 274.757028 
L 147.119738 274.720455 
L 147.769047 278.292603 
L 148.093701 279.123022 
L 148.74301 281.389059 
L 149.392319 282.034776 
L 149.716974 283.911595 
L 150.041628 283.772363 
L 150.366283 283.869172 
L 150.690938 285.358861 
L 151.015592 285.755106 
L 151.340247 285.578292 
L 151.664901 285.93464 
L 151.989556 285.490519 
L 152.31421 286.251544 
L 152.638865 285.79999 
L 152.963519 287.118536 
L 153.288174 285.534405 
L 153.612828 284.848053 
L 153.937483 285.556348 
L 154.262138 284.516038 
L 154.586792 284.049838 
L 154.911447 282.928451 
L 155.236101 283.334655 
L 156.859374 278.421403 
L 157.184028 277.223909 
L 157.508683 276.724582 
L 158.482647 272.429198 
L 158.807301 271.009642 
L 159.131956 268.28409 
L 159.45661 267.802619 
L 160.430574 261.720525 
L 160.755228 260.747933 
L 161.079883 257.687621 
L 161.404538 257.23054 
L 162.053847 250.284157 
L 162.378501 249.56297 
L 163.02781 243.919092 
L 163.352465 243.154865 
L 164.651083 233.294108 
L 165.625047 225.423302 
L 166.274356 219.419473 
L 167.248319 211.844784 
L 167.897628 204.981338 
L 168.871592 197.233843 
L 169.196247 192.861909 
L 169.520901 190.424198 
L 169.845556 187.03534 
L 170.17021 184.868161 
L 171.793483 169.818966 
L 172.118138 165.446636 
L 172.767447 160.286513 
L 173.092101 158.654285 
L 173.416756 153.63734 
L 173.74141 151.651047 
L 174.390719 145.822809 
L 176.663301 125.399836 
L 179.585192 101.609863 
L 179.909847 100.798667 
L 180.88381 92.283357 
L 181.533119 87.323146 
L 181.857774 86.30082 
L 182.507083 81.323982 
L 182.831738 80.978723 
L 184.130356 72.602294 
L 184.779665 70.487704 
L 185.104319 68.256926 
L 185.428974 67.497018 
L 185.753628 67.274836 
L 186.402938 64.011809 
L 186.727592 62.79728 
L 187.052247 63.047385 
L 187.376901 61.944096 
L 187.701556 59.227588 
L 188.02621 60.289972 
L 188.350865 59.760141 
L 189.000174 57.463056 
L 189.324828 57.891007 
L 189.649483 57.159996 
L 189.974138 57.202928 
L 190.298792 57.609488 
L 190.623447 57.463056 
L 190.948101 57.526085 
L 191.272756 57.421037 
L 191.59741 58.011919 
L 191.922065 57.486057 
L 192.571374 59.246219 
L 192.896028 58.260011 
L 193.545338 60.934514 
L 193.869992 60.716938 
L 194.194647 62.431355 
L 194.843956 63.925942 
L 195.16861 66.238904 
L 195.493265 65.378699 
L 196.467228 70.077966 
L 196.791883 70.823328 
L 197.441192 75.301752 
L 197.765847 76.4558 
L 198.73981 82.167072 
L 199.064465 83.195352 
L 199.389119 86.615356 
L 199.713774 88.017674 
L 201.337047 99.479787 
L 201.661701 101.317019 
L 203.284974 114.504566 
L 203.934283 121.160934 
L 204.258938 123.035999 
L 208.804101 165.086438 
L 209.45341 171.963272 
L 209.778065 173.764973 
L 210.427374 180.471525 
L 210.752028 183.329769 
L 211.401338 189.9573 
L 212.050647 195.506386 
L 212.699956 202.135634 
L 216.920465 239.390576 
L 217.245119 241.409628 
L 217.894428 246.836644 
L 218.543738 250.752143 
L 219.842356 259.814124 
L 221.465628 269.047198 
L 222.764247 275.881512 
L 223.413556 277.353088 
L 224.062865 281.0988 
L 224.387519 281.355586 
L 224.712174 282.145698 
L 225.036828 283.675554 
L 225.361483 284.474894 
L 225.686138 283.353644 
L 226.010792 285.087172 
L 226.335447 285.344765 
L 226.660101 285.912199 
L 226.984756 286.846993 
L 227.30941 286.146817 
L 227.634065 286.822307 
L 227.958719 286.345586 
L 228.283374 287.256232 
L 228.608028 286.626301 
L 228.932683 286.481799 
L 229.257338 285.336918 
L 229.581992 286.650384 
L 229.906647 285.237435 
L 230.231301 284.869063 
L 230.555956 284.865758 
L 230.88061 285.108638 
L 231.205265 282.910165 
L 231.529919 282.655635 
L 232.179228 280.49859 
L 232.503883 279.553587 
L 232.828538 277.359179 
L 233.153192 276.980422 
L 233.477847 274.817769 
L 233.802501 274.30037 
L 234.45181 270.700378 
L 234.776465 269.790669 
L 235.101119 267.420292 
L 235.425774 266.419069 
L 236.075083 261.426584 
L 236.399738 260.051355 
L 237.373701 254.038407 
L 239.970938 234.647488 
L 240.620247 228.263365 
L 240.944901 226.325661 
L 241.269556 222.872943 
L 241.59421 221.107147 
L 241.918865 217.520605 
L 242.243519 215.744372 
L 242.892828 209.279748 
L 244.191447 195.95883 
L 244.516101 193.80775 
L 244.840756 189.659808 
L 245.490065 184.655969 
L 248.73661 152.212976 
L 249.061265 150.735152 
L 249.710574 143.494814 
L 250.035228 141.194906 
L 251.009192 131.182418 
L 251.333847 129.551967 
L 251.983156 123.236871 
L 253.931083 106.183773 
L 255.229701 96.41795 
L 255.554356 94.961936 
L 255.87901 91.424528 
L 256.203665 89.998756 
L 256.852974 85.626412 
L 257.177628 83.898336 
L 257.502283 81.08731 
L 257.826938 79.915979 
L 258.151592 77.171917 
L 258.476247 75.96419 
L 258.800901 74.234463 
L 259.125556 73.354009 
L 260.099519 68.423489 
L 260.424174 67.237805 
L 261.073483 64.470401 
L 261.398138 63.260549 
L 261.722792 61.125469 
L 262.047447 61.059638 
L 262.372101 61.322961 
L 262.696756 59.562797 
L 263.02141 59.134432 
L 263.670719 58.80353 
L 263.995374 58.121768 
L 264.320028 57.052665 
L 264.644683 56.755695 
L 265.293992 56.909296 
L 265.618647 56.212174 
L 265.943301 57.31599 
L 266.267956 57.442047 
L 266.59261 57.202928 
L 267.241919 58.955445 
L 267.566574 57.911159 
L 267.891228 58.993424 
L 268.215883 60.771025 
L 268.540538 60.428562 
L 268.865192 61.342539 
L 269.189847 63.612659 
L 269.514501 63.42267 
L 269.839156 64.985029 
L 270.16381 65.630208 
L 271.137774 69.984337 
L 271.462428 70.986099 
L 271.787083 73.263055 
L 272.111738 74.303537 
L 272.436392 76.410083 
L 272.761047 77.56478 
L 273.085701 79.461549 
L 273.73501 84.199551 
L 274.059665 85.158107 
L 275.033628 92.903703 
L 276.332247 100.65843 
L 277.630865 111.667274 
L 277.955519 113.411632 
L 278.604828 119.70276 
L 278.929483 121.645697 
L 279.254138 126.065818 
L 279.903447 130.778438 
L 280.552756 136.860686 
L 280.87741 139.579287 
L 281.202065 143.609246 
L 281.526719 145.410996 
L 282.500683 155.517003 
L 283.474647 163.953231 
L 283.799301 166.25607 
L 284.44861 174.516342 
L 284.773265 176.135209 
L 285.422574 183.419543 
L 286.071883 188.529322 
L 288.669119 212.706424 
L 289.318428 218.217764 
L 290.617047 229.535761 
L 290.941701 232.858757 
L 291.266356 234.125267 
L 292.240319 242.074735 
L 292.564974 243.18479 
L 292.889628 246.824064 
L 295.486865 262.551364 
L 297.759447 273.937995 
L 298.408756 276.051196 
L 298.73341 277.298228 
L 299.058065 277.66671 
L 299.382719 278.793614 
L 299.707374 279.227753 
L 300.032028 281.305376 
L 300.356683 281.621225 
L 300.681338 282.198597 
L 301.005992 282.374929 
L 301.330647 282.965024 
L 301.655301 282.98331 
L 301.979956 283.990591 
L 302.953919 283.830448 
L 303.603228 284.516038 
L 303.927883 283.043881 
L 304.252538 283.296676 
L 304.577192 282.58382 
L 304.901847 282.529959 
L 305.226501 281.774452 
L 305.551156 280.45081 
L 306.200465 279.705505 
L 306.525119 278.677441 
L 306.849774 278.292603 
L 307.823738 274.879486 
L 308.148392 273.02774 
L 308.797701 270.806559 
L 309.44701 267.263705 
L 309.771665 266.391121 
L 310.420974 262.035859 
L 310.745628 260.796498 
L 311.070283 260.0195 
L 311.719592 254.12305 
L 312.044247 252.387351 
L 312.693556 247.562379 
L 313.01821 246.182685 
L 318.212683 204.018674 
L 318.861992 196.194151 
L 319.186647 194.523062 
L 321.134574 175.997605 
L 322.433192 164.402467 
L 322.757847 160.09145 
L 324.056465 148.857353 
L 324.705774 142.937214 
L 325.355083 136.878087 
L 326.329047 127.1252 
L 326.653701 125.260751 
L 327.30301 118.948304 
L 328.601628 108.761477 
L 328.926283 105.727084 
L 329.250938 104.893563 
L 329.575592 100.833727 
L 329.900247 98.806068 
L 330.224901 95.782505 
L 330.549556 94.610606 
L 331.198865 89.868461 
L 331.523519 88.916612 
L 332.172828 84.092381 
L 332.822138 79.240215 
L 333.146792 78.650044 
L 333.796101 74.439075 
L 334.770065 70.663256 
L 335.094719 69.342736 
L 335.419374 67.373584 
L 335.744028 66.225911 
L 336.068683 65.578862 
L 336.393338 64.15974 
L 337.042647 62.554211 
L 337.367301 62.462213 
L 338.01661 61.455854 
L 338.341265 59.041276 
L 338.665919 60.144402 
L 339.315228 59.968071 
L 339.639883 58.55646 
L 339.964538 59.526224 
L 340.613847 59.867863 
L 340.938501 60.038603 
L 341.263156 59.831956 
L 341.58781 59.30679 
L 341.912465 61.068407 
L 342.237119 60.617799 
L 342.561774 61.79151 
L 342.886428 61.306503 
L 343.211083 63.245811 
L 343.535738 63.78283 
L 343.860392 65.228516 
L 344.185047 65.485452 
L 344.509701 66.611901 
L 345.15901 70.00678 
L 345.808319 72.126351 
L 346.132974 73.101833 
L 346.782283 77.189871 
L 347.106938 78.00353 
L 347.431592 80.715392 
L 347.756247 81.323982 
L 350.353483 98.752204 
L 351.002792 104.224884 
L 351.327447 105.969814 
L 351.652101 109.771917 
L 352.626065 116.886549 
L 352.950719 120.093389 
L 353.275374 121.197264 
L 353.924683 127.465087 
L 355.223301 139.832452 
L 355.87261 145.490838 
L 357.495883 160.392173 
L 358.469847 170.488054 
L 358.794501 172.450981 
L 359.119156 175.196266 
L 359.44381 179.575303 
L 359.768465 181.621587 
L 362.041047 202.840181 
L 362.690356 208.435644 
L 363.339665 215.169493 
L 363.664319 217.843353 
L 363.988974 219.140703 
L 364.638283 225.760562 
L 364.962938 226.946625 
L 365.287592 231.38283 
L 365.936901 236.568533 
L 366.261556 237.335512 
L 366.58621 239.739385 
L 366.910865 243.042317 
L 367.884828 248.45402 
L 368.858792 256.452932 
L 369.508101 259.220144 
L 369.832756 261.096696 
L 370.15741 262.18682 
L 370.482065 264.1455 
L 370.806719 265.198978 
L 371.456028 269.8421 
L 373.079301 274.324454 
L 373.403956 275.217539 
L 373.72861 276.63356 
L 374.053265 276.871369 
L 374.377919 278.407092 
L 374.702574 278.349847 
L 375.027228 278.941121 
L 375.351883 278.970598 
L 375.676538 279.523204 
L 376.001192 280.434883 
L 376.325847 279.966749 
L 376.650501 280.656179 
L 376.975156 280.72093 
L 377.29981 281.000054 
L 377.624465 280.048198 
L 377.949119 280.063872 
L 378.273774 280.377352 
L 378.598428 278.837953 
L 378.923083 277.918759 
L 379.247738 277.545096 
L 379.572392 277.476522 
L 379.897047 277.59717 
L 380.87101 273.748829 
L 382.494283 267.8123 
L 382.818938 266.57744 
L 383.143592 264.760905 
L 383.792901 262.337454 
L 384.44221 259.251494 
L 385.416174 253.044782 
L 385.740828 251.997333 
L 386.390138 246.501345 
L 387.364101 240.709111 
L 387.688756 238.143768 
L 388.01341 236.767137 
L 388.338065 233.049887 
L 390.935301 212.955566 
L 394.181847 184.435616 
L 394.506501 182.755394 
L 395.480465 172.898383 
L 395.805119 169.53279 
L 396.129774 167.931598 
L 397.103738 157.989144 
L 397.428392 156.488122 
L 398.72701 144.511861 
L 399.051665 142.707363 
L 399.700974 136.68714 
L 400.350283 131.155486 
L 402.29821 116.202024 
L 402.29821 116.202024 
" style="fill:none;stroke:#2ca02c;stroke-dasharray:9.6,2.4,1.5,2.4;stroke-dashoffset:0;stroke-width:1.5;"/>
   </g>
   <g id="line2d_27">
    <path clip-path="url(#pcd39df9889)" d="M 77.643665 289.871385 
L 78.692549 289.871385 
L 79.391805 288.741768 
L 79.741433 289.541359 
L 80.091061 289.871385 
L 80.790317 285.978461 
L 82.188828 283.010717 
L 82.888084 279.417193 
L 83.237712 278.073877 
L 83.58734 277.392729 
L 83.936968 275.27312 
L 84.286596 274.053406 
L 85.33548 267.620401 
L 85.685108 266.434492 
L 86.384364 261.962937 
L 86.733992 260.472376 
L 87.08362 257.344577 
L 87.433248 256.028577 
L 87.782876 252.953931 
L 88.83176 247.48224 
L 89.531016 241.998483 
L 90.5799 235.207993 
L 90.929528 231.6858 
L 91.279156 229.444193 
L 91.628784 227.984998 
L 92.677668 221.418571 
L 93.027296 219.110713 
L 93.376924 214.380371 
L 93.726551 213.430755 
L 94.425807 207.777781 
L 94.775435 205.956266 
L 96.173947 196.095008 
L 96.523575 194.997839 
L 97.572459 188.191647 
L 97.922087 187.19577 
L 98.621343 183.400315 
L 98.970971 181.632321 
L 99.320599 179.174221 
L 100.019855 175.680093 
L 100.369483 173.778224 
L 100.719111 173.258054 
L 101.418367 169.767713 
L 101.767995 168.913761 
L 102.816879 164.004363 
L 103.166507 163.432011 
L 103.516135 163.206294 
L 104.914647 159.301735 
L 105.264275 159.593131 
L 105.613903 158.888923 
L 105.963531 157.399565 
L 106.313158 157.812377 
L 106.662786 157.828565 
L 107.012414 157.27815 
L 107.362042 155.545962 
L 107.71167 156.582037 
L 108.061298 155.545962 
L 108.410926 155.966868 
L 108.760554 156.618462 
L 109.110182 156.274452 
L 109.45981 156.54966 
L 109.809438 157.225537 
L 110.159066 157.403613 
L 110.508694 158.415405 
L 110.858322 158.569197 
L 111.20795 159.269357 
L 111.557578 159.714546 
L 111.907206 159.338159 
L 112.256834 159.933093 
L 112.606462 161.323981 
L 113.305718 162.351797 
L 113.655346 162.533176 
L 114.004974 162.150264 
L 114.354602 164.278447 
L 114.70423 165.173252 
L 115.403486 165.96729 
L 115.753114 167.622714 
L 116.102742 168.472619 
L 116.801998 171.293496 
L 117.151626 171.754873 
L 117.850882 173.172714 
L 118.20051 174.985179 
L 118.550138 174.615371 
L 119.249393 177.617848 
L 119.599021 178.193214 
L 119.948649 179.657731 
L 120.298277 179.682316 
L 120.997533 182.060242 
L 121.696789 183.301151 
L 122.396045 186.260223 
L 122.745673 186.231056 
L 123.095301 187.727183 
L 123.444929 188.479654 
L 123.794557 187.886189 
L 124.493813 190.745139 
L 124.843441 191.500068 
L 125.193069 191.559404 
L 125.542697 192.265762 
L 125.892325 192.244479 
L 126.241953 193.362979 
L 127.290837 195.272624 
L 127.640465 194.976371 
L 127.990093 195.272624 
L 128.339721 194.86474 
L 129.038977 196.513143 
L 129.388605 196.258874 
L 129.738233 196.310621 
L 130.087861 196.90728 
L 130.437489 196.617091 
L 130.787117 198.226989 
L 131.136744 196.928936 
L 131.836 197.818065 
L 132.185628 197.870268 
L 132.535256 197.210463 
L 133.234512 198.153035 
L 133.58414 197.965974 
L 133.933768 197.935522 
L 134.283396 198.118232 
L 134.633024 196.72104 
L 134.982652 197.726709 
L 135.33228 196.530468 
L 135.681908 196.224375 
L 136.031536 196.263186 
L 136.381164 196.181253 
L 136.730792 195.68103 
L 137.08042 196.090695 
L 137.430048 195.332733 
L 137.779676 195.337027 
L 138.129304 195.015013 
L 138.478932 195.568911 
L 138.82856 193.927269 
L 139.178188 194.230789 
L 139.527816 193.807571 
L 139.877444 193.730623 
L 140.227072 192.338122 
L 140.5767 192.427509 
L 140.926328 192.210427 
L 141.625584 191.364445 
L 141.975212 191.283918 
L 142.32484 191.050816 
L 142.674468 191.419542 
L 143.024096 190.542574 
L 143.373724 190.77046 
L 143.723351 190.458171 
L 144.072979 189.816713 
L 144.422607 190.204964 
L 144.772235 189.626845 
L 145.121863 189.483971 
L 145.471491 188.333915 
L 145.821119 188.99652 
L 146.170747 188.384128 
L 147.219631 188.773806 
L 147.569259 188.061932 
L 148.268515 188.605719 
L 148.618143 187.769027 
L 148.967771 187.576547 
L 149.667027 188.635134 
L 150.016655 187.346407 
L 150.366283 187.208323 
L 150.715911 187.664418 
L 151.065539 187.819239 
L 151.415167 187.563993 
L 152.464051 188.509069 
L 152.813679 188.609921 
L 153.163307 189.315885 
L 153.512935 189.168809 
L 153.862563 189.517589 
L 154.212191 189.067957 
L 154.561819 189.631047 
L 154.911447 189.50078 
L 155.261075 189.030138 
L 155.610703 190.597435 
L 155.960331 189.799832 
L 156.309958 190.648077 
L 156.659586 190.947705 
L 157.009214 191.622977 
L 157.358842 192.046801 
L 157.70847 191.690789 
L 158.058098 193.358704 
L 158.407726 192.23171 
L 158.757354 193.850321 
L 159.106982 194.486911 
L 159.45661 194.877621 
L 159.806238 193.965744 
L 160.155866 194.714467 
L 160.855122 195.543038 
L 161.20475 197.080527 
L 161.554378 197.167151 
L 162.253634 196.703715 
L 162.603262 197.822415 
L 162.95289 198.226989 
L 163.302518 197.452643 
L 164.001774 199.191338 
L 164.351402 199.38303 
L 164.70103 198.435414 
L 165.050658 199.204446 
L 165.400286 200.374375 
L 165.749914 200.120369 
L 166.44917 199.7912 
L 166.798798 200.493405 
L 167.148426 200.168647 
L 167.498054 201.179767 
L 167.847682 201.671307 
L 168.19731 201.485319 
L 168.546938 202.272653 
L 168.896565 202.543995 
L 169.246193 202.125861 
L 169.595821 201.370183 
L 169.945449 202.7842 
L 170.644705 201.950289 
L 170.994333 202.343825 
L 171.343961 202.139206 
L 171.693589 202.277101 
L 172.043217 203.093922 
L 172.392845 202.007856 
L 172.742473 202.468375 
L 173.092101 200.921031 
L 173.441729 201.932576 
L 173.791357 202.219274 
L 174.140985 202.892846 
L 174.490613 201.981287 
L 174.840241 201.525173 
L 175.189869 202.526202 
L 175.539497 201.053287 
L 175.889125 201.68902 
L 176.238753 201.053287 
L 176.588381 201.294902 
L 177.637265 200.343516 
L 177.986893 199.99309 
L 178.336521 200.890172 
L 178.686149 199.589309 
L 179.385405 199.413752 
L 179.735033 198.789343 
L 180.084661 197.687557 
L 180.783917 198.697584 
L 181.133544 197.344729 
L 181.483172 198.009476 
L 181.8328 197.657105 
L 182.182428 195.844896 
L 182.532056 196.712377 
L 182.881684 195.819023 
L 183.231312 196.569449 
L 183.58094 195.685343 
L 183.930568 195.122351 
L 184.280196 194.830392 
L 184.629824 194.86474 
L 184.979452 193.833221 
L 185.32908 193.717798 
L 185.678708 193.85887 
L 186.028336 193.231988 
L 186.377964 194.025593 
L 186.727592 192.127327 
L 187.07722 191.411065 
L 187.426848 192.891467 
L 187.776476 192.972341 
L 188.126104 191.911177 
L 188.475732 192.210427 
L 188.82536 191.224583 
L 189.174988 191.635692 
L 189.874244 190.999957 
L 190.223872 191.169486 
L 190.5735 191.517021 
L 190.923128 189.867354 
L 191.272756 190.41597 
L 191.622384 189.631047 
L 191.972012 190.361108 
L 192.32164 189.989738 
L 193.370524 190.99148 
L 193.720151 189.509184 
L 194.419407 189.143596 
L 195.118663 189.825153 
L 195.468291 189.774511 
L 195.817919 190.551014 
L 196.167547 188.799019 
L 196.517175 190.183863 
L 196.866803 190.745139 
L 197.216431 190.196524 
L 197.566059 190.669177 
L 198.265315 190.664957 
L 198.614943 191.012671 
L 198.964571 190.639636 
L 199.314199 191.343254 
L 199.663827 190.724039 
L 200.013455 191.894224 
L 200.712711 191.20763 
L 201.062339 192.431765 
L 201.411967 192.921263 
L 201.761595 192.325353 
L 202.111223 193.270296 
L 202.460851 193.214962 
L 202.810479 194.175215 
L 203.160107 194.106816 
L 203.509735 193.065984 
L 203.859363 192.772285 
L 204.208991 194.418215 
L 204.558619 193.987118 
L 204.908247 194.17094 
L 205.257875 194.025593 
L 205.957131 195.581848 
L 206.306758 194.740228 
L 206.656386 195.259743 
L 207.006014 195.083709 
L 207.355642 194.628597 
L 208.054898 196.224375 
L 208.404526 195.866458 
L 209.103782 196.889956 
L 209.45341 196.142442 
L 209.803038 197.314411 
L 210.152666 196.61276 
L 210.502294 196.799001 
L 210.851922 197.761512 
L 211.20155 197.188807 
L 211.551178 197.944222 
L 211.900806 198.200887 
L 212.250434 197.071865 
L 212.600062 198.131283 
L 212.94969 197.979024 
L 213.299318 198.366197 
L 213.648946 198.509695 
L 214.348202 197.639704 
L 214.69783 198.431044 
L 215.047458 197.5614 
L 215.397086 198.710692 
L 215.746714 198.583977 
L 216.096342 199.54542 
L 216.44597 198.013826 
L 216.795598 198.118232 
L 217.145226 199.720977 
L 217.494854 199.156382 
L 217.844482 196.764351 
L 218.543738 199.492753 
L 218.893365 197.353391 
L 219.242993 199.527865 
L 219.592621 198.261791 
L 219.942249 198.549021 
L 220.291877 199.191338 
L 220.641505 198.087781 
L 220.991133 198.422305 
L 221.340761 198.066029 
L 221.690389 198.366197 
L 222.040017 197.301417 
L 222.389645 197.670156 
L 222.739273 198.64078 
L 223.438529 197.470333 
L 223.788157 196.954923 
L 224.137785 197.141164 
L 224.487413 197.504846 
L 224.837041 197.474395 
L 225.536297 196.928936 
L 226.235553 197.232118 
L 226.585181 197.206131 
L 226.934809 197.002566 
L 227.284437 196.314933 
L 227.983693 196.504481 
L 228.333321 195.34132 
L 228.682949 196.323557 
L 229.032577 195.90958 
L 229.382205 197.362054 
L 229.731833 195.875082 
L 230.081461 196.431364 
L 230.431089 195.620659 
L 230.780717 196.142442 
L 231.130344 196.310621 
L 231.479972 194.757402 
L 232.179228 196.370992 
L 232.528856 195.388549 
L 232.878484 195.191047 
L 233.228112 196.267498 
L 233.57774 195.521477 
L 233.927368 196.017387 
L 234.276996 194.62001 
L 234.976252 195.573224 
L 235.32588 195.702592 
L 235.675508 194.54702 
L 236.025136 195.969952 
L 236.724392 195.754339 
L 237.07402 196.13813 
L 237.423648 195.461105 
L 237.773276 195.54735 
L 238.472532 196.146755 
L 238.82216 196.738364 
L 239.171788 195.797461 
L 239.521416 196.824988 
L 239.871044 195.495603 
L 240.220672 196.582442 
L 240.5703 196.125193 
L 240.919928 197.037216 
L 241.269556 196.237312 
L 241.619184 197.01556 
L 241.968812 197.05454 
L 242.31844 195.806086 
L 242.668068 197.050209 
L 243.017696 196.034636 
L 243.367324 197.314411 
L 243.716951 196.755689 
L 244.066579 197.193138 
L 244.416207 196.297684 
L 244.765835 196.526137 
L 245.115463 197.210463 
L 245.465091 197.01556 
L 245.814719 197.470044 
L 246.164347 198.514065 
L 246.513975 197.874618 
L 246.863603 198.266141 
L 247.213231 197.626654 
L 247.562859 197.530948 
L 247.912487 198.300943 
L 248.611743 197.206131 
L 248.961371 197.045878 
L 249.310999 197.765862 
L 249.660627 197.861567 
L 250.010255 198.440151 
L 250.359883 197.765862 
L 250.709511 198.096481 
L 251.059139 198.048628 
L 251.408767 197.058871 
L 251.758395 198.448522 
L 252.108023 197.757161 
L 252.457651 197.483095 
L 252.457651 197.483095 
" style="fill:none;stroke:#d62728;stroke-linecap:square;stroke-width:1.5;"/>
   </g>
   <g id="line2d_28">
    <defs>
     <path d="M 0 3 
C 0.795609 3 1.55874 2.683901 2.12132 2.12132 
C 2.683901 1.55874 3 0.795609 3 0 
C 3 -0.795609 2.683901 -1.55874 2.12132 -2.12132 
C 1.55874 -2.683901 0.795609 -3 0 -3 
C -0.795609 -3 -1.55874 -2.683901 -2.12132 -2.12132 
C -2.683901 -1.55874 -3 -0.795609 -3 0 
C -3 0.795609 -2.683901 1.55874 -2.12132 2.12132 
C -1.55874 2.683901 -0.795609 3 0 3 
z
" id="mcb2457e3ba" style="stroke:#1f77b4;"/>
    </defs>
    <g clip-path="url(#pcd39df9889)">
     <use style="fill:#1f77b4;stroke:#1f77b4;" x="77.643665" xlink:href="#mcb2457e3ba" y="296.95689"/>
     <use style="fill:#1f77b4;stroke:#1f77b4;" x="88.257371" xlink:href="#mcb2457e3ba" y="240.702729"/>
     <use style="fill:#1f77b4;stroke:#1f77b4;" x="98.871077" xlink:href="#mcb2457e3ba" y="158.072882"/>
     <use style="fill:#1f77b4;stroke:#1f77b4;" x="109.484784" xlink:href="#mcb2457e3ba" y="83.454028"/>
     <use style="fill:#1f77b4;stroke:#1f77b4;" x="120.09849" xlink:href="#mcb2457e3ba" y="96.258404"/>
     <use style="fill:#1f77b4;stroke:#1f77b4;" x="130.712196" xlink:href="#mcb2457e3ba" y="138.683974"/>
     <use style="fill:#1f77b4;stroke:#1f77b4;" x="141.325903" xlink:href="#mcb2457e3ba" y="239.411169"/>
     <use style="fill:#1f77b4;stroke:#1f77b4;" x="151.939609" xlink:href="#mcb2457e3ba" y="261.31425"/>
     <use style="fill:#1f77b4;stroke:#1f77b4;" x="162.553315" xlink:href="#mcb2457e3ba" y="210.176714"/>
     <use style="fill:#1f77b4;stroke:#1f77b4;" x="173.167021" xlink:href="#mcb2457e3ba" y="149.233534"/>
     <use style="fill:#1f77b4;stroke:#1f77b4;" x="183.780728" xlink:href="#mcb2457e3ba" y="76.591001"/>
     <use style="fill:#1f77b4;stroke:#1f77b4;" x="194.394434" xlink:href="#mcb2457e3ba" y="81.33225"/>
     <use style="fill:#1f77b4;stroke:#1f77b4;" x="205.00814" xlink:href="#mcb2457e3ba" y="163.288123"/>
     <use style="fill:#1f77b4;stroke:#1f77b4;" x="215.621847" xlink:href="#mcb2457e3ba" y="240.604792"/>
     <use style="fill:#1f77b4;stroke:#1f77b4;" x="226.235553" xlink:href="#mcb2457e3ba" y="248.58825"/>
     <use style="fill:#1f77b4;stroke:#1f77b4;" x="236.849259" xlink:href="#mcb2457e3ba" y="195.245759"/>
     <use style="fill:#1f77b4;stroke:#1f77b4;" x="247.462965" xlink:href="#mcb2457e3ba" y="119.515574"/>
     <use style="fill:#1f77b4;stroke:#1f77b4;" x="258.076672" xlink:href="#mcb2457e3ba" y="82.56425"/>
     <use style="fill:#1f77b4;stroke:#1f77b4;" x="268.690378" xlink:href="#mcb2457e3ba" y="96.472591"/>
     <use style="fill:#1f77b4;stroke:#1f77b4;" x="279.304084" xlink:href="#mcb2457e3ba" y="165.67497"/>
     <use style="fill:#1f77b4;stroke:#1f77b4;" x="289.917791" xlink:href="#mcb2457e3ba" y="231.324031"/>
     <use style="fill:#1f77b4;stroke:#1f77b4;" x="300.531497" xlink:href="#mcb2457e3ba" y="237.11865"/>
     <use style="fill:#1f77b4;stroke:#1f77b4;" x="311.145203" xlink:href="#mcb2457e3ba" y="195.931642"/>
     <use style="fill:#1f77b4;stroke:#1f77b4;" x="321.75891" xlink:href="#mcb2457e3ba" y="137.006504"/>
     <use style="fill:#1f77b4;stroke:#1f77b4;" x="332.372616" xlink:href="#mcb2457e3ba" y="98.56905"/>
     <use style="fill:#1f77b4;stroke:#1f77b4;" x="342.986322" xlink:href="#mcb2457e3ba" y="120.344637"/>
     <use style="fill:#1f77b4;stroke:#1f77b4;" x="353.600028" xlink:href="#mcb2457e3ba" y="167.601035"/>
     <use style="fill:#1f77b4;stroke:#1f77b4;" x="364.213735" xlink:href="#mcb2457e3ba" y="233.969767"/>
     <use style="fill:#1f77b4;stroke:#1f77b4;" x="374.827441" xlink:href="#mcb2457e3ba" y="227.073674"/>
     <use style="fill:#1f77b4;stroke:#1f77b4;" x="385.441147" xlink:href="#mcb2457e3ba" y="204.350435"/>
     <use style="fill:#1f77b4;stroke:#1f77b4;" x="396.054854" xlink:href="#mcb2457e3ba" y="135.060508"/>
    </g>
   </g>
   <g id="line2d_29">
    <defs>
     <path d="M 0 3 
C 0.795609 3 1.55874 2.683901 2.12132 2.12132 
C 2.683901 1.55874 3 0.795609 3 0 
C 3 -0.795609 2.683901 -1.55874 2.12132 -2.12132 
C 1.55874 -2.683901 0.795609 -3 0 -3 
C -0.795609 -3 -1.55874 -2.683901 -2.12132 -2.12132 
C -2.683901 -1.55874 -3 -0.795609 -3 0 
C -3 0.795609 -2.683901 1.55874 -2.12132 2.12132 
C -1.55874 2.683901 -0.795609 3 0 3 
z
" id="m4d17eb6f4c" style="stroke:#d62728;"/>
    </defs>
    <g clip-path="url(#pcd39df9889)">
     <use style="fill:#d62728;stroke:#d62728;" x="77.643665" xlink:href="#m4d17eb6f4c" y="289.822418"/>
     <use style="fill:#d62728;stroke:#d62728;" x="88.257371" xlink:href="#m4d17eb6f4c" y="255.400076"/>
     <use style="fill:#d62728;stroke:#d62728;" x="98.871077" xlink:href="#m4d17eb6f4c" y="180.36825"/>
     <use style="fill:#d62728;stroke:#d62728;" x="109.484784" xlink:href="#m4d17eb6f4c" y="202.078691"/>
     <use style="fill:#d62728;stroke:#d62728;" x="120.09849" xlink:href="#m4d17eb6f4c" y="218.367686"/>
     <use style="fill:#d62728;stroke:#d62728;" x="130.712196" xlink:href="#m4d17eb6f4c" y="217.403408"/>
     <use style="fill:#d62728;stroke:#d62728;" x="141.325903" xlink:href="#m4d17eb6f4c" y="205.025866"/>
     <use style="fill:#d62728;stroke:#d62728;" x="151.939609" xlink:href="#m4d17eb6f4c" y="181.95585"/>
     <use style="fill:#d62728;stroke:#d62728;" x="162.553315" xlink:href="#m4d17eb6f4c" y="207.440706"/>
     <use style="fill:#d62728;stroke:#d62728;" x="173.167021" xlink:href="#m4d17eb6f4c" y="198.147591"/>
     <use style="fill:#d62728;stroke:#d62728;" x="183.780728" xlink:href="#m4d17eb6f4c" y="187.565545"/>
     <use style="fill:#d62728;stroke:#d62728;" x="194.394434" xlink:href="#m4d17eb6f4c" y="169.160882"/>
     <use style="fill:#d62728;stroke:#d62728;" x="205.00814" xlink:href="#m4d17eb6f4c" y="190.27185"/>
     <use style="fill:#d62728;stroke:#d62728;" x="215.621847" xlink:href="#m4d17eb6f4c" y="197.538838"/>
     <use style="fill:#d62728;stroke:#d62728;" x="226.235553" xlink:href="#m4d17eb6f4c" y="181.573764"/>
     <use style="fill:#d62728;stroke:#d62728;" x="236.849259" xlink:href="#m4d17eb6f4c" y="180.492655"/>
    </g>
   </g>
   <g id="patch_3">
    <path d="M 61.410938 297.54825 
L 61.410938 31.43625 
" style="fill:none;stroke:#000000;stroke-linecap:square;stroke-linejoin:miter;stroke-width:0.8;"/>
   </g>
   <g id="patch_4">
    <path d="M 418.530938 297.54825 
L 418.530938 31.43625 
" style="fill:none;stroke:#000000;stroke-linecap:square;stroke-linejoin:miter;stroke-width:0.8;"/>
   </g>
   <g id="patch_5">
    <path d="M 61.410938 297.54825 
L 418.530938 297.54825 
" style="fill:none;stroke:#000000;stroke-linecap:square;stroke-linejoin:miter;stroke-width:0.8;"/>
   </g>
   <g id="patch_6">
    <path d="M 61.410938 31.43625 
L 418.530938 31.43625 
" style="fill:none;stroke:#000000;stroke-linecap:square;stroke-linejoin:miter;stroke-width:0.8;"/>
   </g>
   <g id="text_15">
    <!-- Z heating -->
    <defs>
     <path d="M 5.609375 72.90625 
L 62.890625 72.90625 
L 62.890625 65.375 
L 16.796875 8.296875 
L 64.015625 8.296875 
L 64.015625 0 
L 4.5 0 
L 4.5 7.515625 
L 50.59375 64.59375 
L 5.609375 64.59375 
z
" id="DejaVuSans-5a"/>
     <path d="M 54.890625 33.015625 
L 54.890625 0 
L 45.90625 0 
L 45.90625 32.71875 
Q 45.90625 40.484375 42.875 44.328125 
Q 39.84375 48.1875 33.796875 48.1875 
Q 26.515625 48.1875 22.3125 43.546875 
Q 18.109375 38.921875 18.109375 30.90625 
L 18.109375 0 
L 9.078125 0 
L 9.078125 75.984375 
L 18.109375 75.984375 
L 18.109375 46.1875 
Q 21.34375 51.125 25.703125 53.5625 
Q 30.078125 56 35.796875 56 
Q 45.21875 56 50.046875 50.171875 
Q 54.890625 44.34375 54.890625 33.015625 
z
" id="DejaVuSans-68"/>
     <path d="M 18.3125 70.21875 
L 18.3125 54.6875 
L 36.8125 54.6875 
L 36.8125 47.703125 
L 18.3125 47.703125 
L 18.3125 18.015625 
Q 18.3125 11.328125 20.140625 9.421875 
Q 21.96875 7.515625 27.59375 7.515625 
L 36.8125 7.515625 
L 36.8125 0 
L 27.59375 0 
Q 17.1875 0 13.234375 3.875 
Q 9.28125 7.765625 9.28125 18.015625 
L 9.28125 47.703125 
L 2.6875 47.703125 
L 2.6875 54.6875 
L 9.28125 54.6875 
L 9.28125 70.21875 
z
" id="DejaVuSans-74"/>
     <path d="M 54.890625 33.015625 
L 54.890625 0 
L 45.90625 0 
L 45.90625 32.71875 
Q 45.90625 40.484375 42.875 44.328125 
Q 39.84375 48.1875 33.796875 48.1875 
Q 26.515625 48.1875 22.3125 43.546875 
Q 18.109375 38.921875 18.109375 30.90625 
L 18.109375 0 
L 9.078125 0 
L 9.078125 54.6875 
L 18.109375 54.6875 
L 18.109375 46.1875 
Q 21.34375 51.125 25.703125 53.5625 
Q 30.078125 56 35.796875 56 
Q 45.21875 56 50.046875 50.171875 
Q 54.890625 44.34375 54.890625 33.015625 
z
" id="DejaVuSans-6e"/>
     <path d="M 45.40625 27.984375 
Q 45.40625 37.75 41.375 43.109375 
Q 37.359375 48.484375 30.078125 48.484375 
Q 22.859375 48.484375 18.828125 43.109375 
Q 14.796875 37.75 14.796875 27.984375 
Q 14.796875 18.265625 18.828125 12.890625 
Q 22.859375 7.515625 30.078125 7.515625 
Q 37.359375 7.515625 41.375 12.890625 
Q 45.40625 18.265625 45.40625 27.984375 
z
M 54.390625 6.78125 
Q 54.390625 -7.171875 48.1875 -13.984375 
Q 42 -20.796875 29.203125 -20.796875 
Q 24.46875 -20.796875 20.265625 -20.09375 
Q 16.0625 -19.390625 12.109375 -17.921875 
L 12.109375 -9.1875 
Q 16.0625 -11.328125 19.921875 -12.34375 
Q 23.78125 -13.375 27.78125 -13.375 
Q 36.625 -13.375 41.015625 -8.765625 
Q 45.40625 -4.15625 45.40625 5.171875 
L 45.40625 9.625 
Q 42.625 4.78125 38.28125 2.390625 
Q 33.9375 0 27.875 0 
Q 17.828125 0 11.671875 7.65625 
Q 5.515625 15.328125 5.515625 27.984375 
Q 5.515625 40.671875 11.671875 48.328125 
Q 17.828125 56 27.875 56 
Q 33.9375 56 38.28125 53.609375 
Q 42.625 51.21875 45.40625 46.390625 
L 45.40625 54.6875 
L 54.390625 54.6875 
z
" id="DejaVuSans-67"/>
    </defs>
    <g transform="translate(182.333438 25.43625)scale(0.24 -0.24)">
     <use xlink:href="#DejaVuSans-5a"/>
     <use x="68.505859" xlink:href="#DejaVuSans-20"/>
     <use x="100.292969" xlink:href="#DejaVuSans-68"/>
     <use x="163.671875" xlink:href="#DejaVuSans-65"/>
     <use x="225.195312" xlink:href="#DejaVuSans-61"/>
     <use x="286.474609" xlink:href="#DejaVuSans-74"/>
     <use x="325.683594" xlink:href="#DejaVuSans-69"/>
     <use x="353.466797" xlink:href="#DejaVuSans-6e"/>
     <use x="416.845703" xlink:href="#DejaVuSans-67"/>
    </g>
   </g>
   <g id="legend_1">
    <g id="patch_7">
     <path d="M 296.074687 106.14875 
L 404.530937 106.14875 
Q 408.530937 106.14875 408.530937 102.14875 
L 408.530937 45.43625 
Q 408.530937 41.43625 404.530937 41.43625 
L 296.074687 41.43625 
Q 292.074687 41.43625 292.074687 45.43625 
L 292.074687 102.14875 
Q 292.074687 106.14875 296.074687 106.14875 
z
" style="fill:#ffffff;opacity:0.8;stroke:#cccccc;stroke-linejoin:miter;"/>
    </g>
    <g id="LineCollection_3">
     <path d="M 320.074687 67.633125 
L 320.074687 47.633125 
" style="fill:none;stroke:#1f77b4;stroke-width:1.5;"/>
    </g>
    <g id="line2d_30"/>
    <g id="line2d_31">
     <g>
      <use style="fill:#1f77b4;stroke:#1f77b4;" x="320.074687" xlink:href="#mcb2457e3ba" y="57.633125"/>
     </g>
    </g>
    <g id="text_16">
     <!-- Cold -->
     <defs>
      <path d="M 64.40625 67.28125 
L 64.40625 56.890625 
Q 59.421875 61.53125 53.78125 63.8125 
Q 48.140625 66.109375 41.796875 66.109375 
Q 29.296875 66.109375 22.65625 58.46875 
Q 16.015625 50.828125 16.015625 36.375 
Q 16.015625 21.96875 22.65625 14.328125 
Q 29.296875 6.6875 41.796875 6.6875 
Q 48.140625 6.6875 53.78125 8.984375 
Q 59.421875 11.28125 64.40625 15.921875 
L 64.40625 5.609375 
Q 59.234375 2.09375 53.4375 0.328125 
Q 47.65625 -1.421875 41.21875 -1.421875 
Q 24.65625 -1.421875 15.125 8.703125 
Q 5.609375 18.84375 5.609375 36.375 
Q 5.609375 53.953125 15.125 64.078125 
Q 24.65625 74.21875 41.21875 74.21875 
Q 47.75 74.21875 53.53125 72.484375 
Q 59.328125 70.75 64.40625 67.28125 
z
" id="DejaVuSans-43"/>
      <path d="M 30.609375 48.390625 
Q 23.390625 48.390625 19.1875 42.75 
Q 14.984375 37.109375 14.984375 27.296875 
Q 14.984375 17.484375 19.15625 11.84375 
Q 23.34375 6.203125 30.609375 6.203125 
Q 37.796875 6.203125 41.984375 11.859375 
Q 46.1875 17.53125 46.1875 27.296875 
Q 46.1875 37.015625 41.984375 42.703125 
Q 37.796875 48.390625 30.609375 48.390625 
z
M 30.609375 56 
Q 42.328125 56 49.015625 48.375 
Q 55.71875 40.765625 55.71875 27.296875 
Q 55.71875 13.875 49.015625 6.21875 
Q 42.328125 -1.421875 30.609375 -1.421875 
Q 18.84375 -1.421875 12.171875 6.21875 
Q 5.515625 13.875 5.515625 27.296875 
Q 5.515625 40.765625 12.171875 48.375 
Q 18.84375 56 30.609375 56 
z
" id="DejaVuSans-6f"/>
      <path d="M 45.40625 46.390625 
L 45.40625 75.984375 
L 54.390625 75.984375 
L 54.390625 0 
L 45.40625 0 
L 45.40625 8.203125 
Q 42.578125 3.328125 38.25 0.953125 
Q 33.9375 -1.421875 27.875 -1.421875 
Q 17.96875 -1.421875 11.734375 6.484375 
Q 5.515625 14.40625 5.515625 27.296875 
Q 5.515625 40.1875 11.734375 48.09375 
Q 17.96875 56 27.875 56 
Q 33.9375 56 38.25 53.625 
Q 42.578125 51.265625 45.40625 46.390625 
z
M 14.796875 27.296875 
Q 14.796875 17.390625 18.875 11.75 
Q 22.953125 6.109375 30.078125 6.109375 
Q 37.203125 6.109375 41.296875 11.75 
Q 45.40625 17.390625 45.40625 27.296875 
Q 45.40625 37.203125 41.296875 42.84375 
Q 37.203125 48.484375 30.078125 48.484375 
Q 22.953125 48.484375 18.875 42.84375 
Q 14.796875 37.203125 14.796875 27.296875 
z
" id="DejaVuSans-64"/>
     </defs>
     <g transform="translate(356.074687 64.633125)scale(0.2 -0.2)">
      <use xlink:href="#DejaVuSans-43"/>
      <use x="69.824219" xlink:href="#DejaVuSans-6f"/>
      <use x="131.005859" xlink:href="#DejaVuSans-6c"/>
      <use x="158.789062" xlink:href="#DejaVuSans-64"/>
     </g>
    </g>
    <g id="LineCollection_4">
     <path d="M 320.074687 96.989375 
L 320.074687 76.989375 
" style="fill:none;stroke:#d62728;stroke-width:1.5;"/>
    </g>
    <g id="line2d_32"/>
    <g id="line2d_33">
     <g>
      <use style="fill:#d62728;stroke:#d62728;" x="320.074687" xlink:href="#m4d17eb6f4c" y="86.989375"/>
     </g>
    </g>
    <g id="text_17">
     <!-- Hot -->
     <defs>
      <path d="M 9.8125 72.90625 
L 19.671875 72.90625 
L 19.671875 43.015625 
L 55.515625 43.015625 
L 55.515625 72.90625 
L 65.375 72.90625 
L 65.375 0 
L 55.515625 0 
L 55.515625 34.71875 
L 19.671875 34.71875 
L 19.671875 0 
L 9.8125 0 
z
" id="DejaVuSans-48"/>
     </defs>
     <g transform="translate(356.074687 93.989375)scale(0.2 -0.2)">
      <use xlink:href="#DejaVuSans-48"/>
      <use x="75.195312" xlink:href="#DejaVuSans-6f"/>
      <use x="136.376953" xlink:href="#DejaVuSans-74"/>
     </g>
    </g>
   </g>
  </g>
 </g>
 <defs>
  <clipPath id="pcd39df9889">
   <rect height="266.112" width="357.12" x="61.410938" y="31.43625"/>
  </clipPath>
 </defs>
</svg>
