<?xml version="1.0" encoding="utf-8" standalone="no"?>
<!DOCTYPE svg PUBLIC "-//W3C//DTD SVG 1.1//EN"
  "http://www.w3.org/Graphics/SVG/1.1/DTD/svg11.dtd">
<!-- Created with matplotlib (http://matplotlib.org/) -->
<svg height="349pt" version="1.1" viewBox="0 0 437 349" width="437pt" xmlns="http://www.w3.org/2000/svg" xmlns:xlink="http://www.w3.org/1999/xlink">
 <defs>
  <style type="text/css">
*{stroke-linecap:butt;stroke-linejoin:round;}
  </style>
 </defs>
 <g id="figure_1">
  <g id="patch_1">
   <path d="M 0 349.665437 
L 437.341108 349.665437 
L 437.341108 0 
L 0 0 
z
" style="fill:none;"/>
  </g>
  <g id="axes_1">
   <g id="patch_2">
    <path d="M 61.410938 297.54825 
L 418.530938 297.54825 
L 418.530938 31.43625 
L 61.410938 31.43625 
z
" style="fill:none;"/>
   </g>
   <g id="matplotlib.axis_1">
    <g id="xtick_1">
     <g id="line2d_1">
      <path clip-path="url(#pcd39df9889)" d="M 77.643665 297.54825 
L 77.643665 31.43625 
" style="fill:none;stroke:#b0b0b0;stroke-linecap:square;stroke-width:0.8;"/>
     </g>
     <g id="line2d_2">
      <defs>
       <path d="M 0 0 
L 0 3.5 
" id="m005f0a59be" style="stroke:#000000;stroke-width:0.8;"/>
      </defs>
      <g>
       <use style="stroke:#000000;stroke-width:0.8;" x="77.643665" xlink:href="#m005f0a59be" y="297.54825"/>
      </g>
     </g>
     <g id="text_1">
      <!-- 0 -->
      <defs>
       <path d="M 31.78125 66.40625 
Q 24.171875 66.40625 20.328125 58.90625 
Q 16.5 51.421875 16.5 36.375 
Q 16.5 21.390625 20.328125 13.890625 
Q 24.171875 6.390625 31.78125 6.390625 
Q 39.453125 6.390625 43.28125 13.890625 
Q 47.125 21.390625 47.125 36.375 
Q 47.125 51.421875 43.28125 58.90625 
Q 39.453125 66.40625 31.78125 66.40625 
z
M 31.78125 74.21875 
Q 44.046875 74.21875 50.515625 64.515625 
Q 56.984375 54.828125 56.984375 36.375 
Q 56.984375 17.96875 50.515625 8.265625 
Q 44.046875 -1.421875 31.78125 -1.421875 
Q 19.53125 -1.421875 13.0625 8.265625 
Q 6.59375 17.96875 6.59375 36.375 
Q 6.59375 54.828125 13.0625 64.515625 
Q 19.53125 74.21875 31.78125 74.21875 
z
" id="DejaVuSans-30"/>
      </defs>
      <g transform="translate(72.87179 315.945906)scale(0.15 -0.15)">
       <use xlink:href="#DejaVuSans-30"/>
      </g>
     </g>
    </g>
    <g id="xtick_2">
     <g id="line2d_3">
      <path clip-path="url(#pcd39df9889)" d="M 134.007301 297.54825 
L 134.007301 31.43625 
" style="fill:none;stroke:#b0b0b0;stroke-linecap:square;stroke-width:0.8;"/>
     </g>
     <g id="line2d_4">
      <g>
       <use style="stroke:#000000;stroke-width:0.8;" x="134.007301" xlink:href="#m005f0a59be" y="297.54825"/>
      </g>
     </g>
     <g id="text_2">
      <!-- 25 -->
      <defs>
       <path d="M 19.1875 8.296875 
L 53.609375 8.296875 
L 53.609375 0 
L 7.328125 0 
L 7.328125 8.296875 
Q 12.9375 14.109375 22.625 23.890625 
Q 32.328125 33.6875 34.8125 36.53125 
Q 39.546875 41.84375 41.421875 45.53125 
Q 43.3125 49.21875 43.3125 52.78125 
Q 43.3125 58.59375 39.234375 62.25 
Q 35.15625 65.921875 28.609375 65.921875 
Q 23.96875 65.921875 18.8125 64.3125 
Q 13.671875 62.703125 7.8125 59.421875 
L 7.8125 69.390625 
Q 13.765625 71.78125 18.9375 73 
Q 24.125 74.21875 28.421875 74.21875 
Q 39.75 74.21875 46.484375 68.546875 
Q 53.21875 62.890625 53.21875 53.421875 
Q 53.21875 48.921875 51.53125 44.890625 
Q 49.859375 40.875 45.40625 35.40625 
Q 44.1875 33.984375 37.640625 27.21875 
Q 31.109375 20.453125 19.1875 8.296875 
z
" id="DejaVuSans-32"/>
       <path d="M 10.796875 72.90625 
L 49.515625 72.90625 
L 49.515625 64.59375 
L 19.828125 64.59375 
L 19.828125 46.734375 
Q 21.96875 47.46875 24.109375 47.828125 
Q 26.265625 48.1875 28.421875 48.1875 
Q 40.625 48.1875 47.75 41.5 
Q 54.890625 34.8125 54.890625 23.390625 
Q 54.890625 11.625 47.5625 5.09375 
Q 40.234375 -1.421875 26.90625 -1.421875 
Q 22.3125 -1.421875 17.546875 -0.640625 
Q 12.796875 0.140625 7.71875 1.703125 
L 7.71875 11.625 
Q 12.109375 9.234375 16.796875 8.0625 
Q 21.484375 6.890625 26.703125 6.890625 
Q 35.15625 6.890625 40.078125 11.328125 
Q 45.015625 15.765625 45.015625 23.390625 
Q 45.015625 31 40.078125 35.4375 
Q 35.15625 39.890625 26.703125 39.890625 
Q 22.75 39.890625 18.8125 39.015625 
Q 14.890625 38.140625 10.796875 36.28125 
z
" id="DejaVuSans-35"/>
      </defs>
      <g transform="translate(124.463551 315.945906)scale(0.15 -0.15)">
       <use xlink:href="#DejaVuSans-32"/>
       <use x="63.623047" xlink:href="#DejaVuSans-35"/>
      </g>
     </g>
    </g>
    <g id="xtick_3">
     <g id="line2d_5">
      <path clip-path="url(#pcd39df9889)" d="M 190.370938 297.54825 
L 190.370938 31.43625 
" style="fill:none;stroke:#b0b0b0;stroke-linecap:square;stroke-width:0.8;"/>
     </g>
     <g id="line2d_6">
      <g>
       <use style="stroke:#000000;stroke-width:0.8;" x="190.370938" xlink:href="#m005f0a59be" y="297.54825"/>
      </g>
     </g>
     <g id="text_3">
      <!-- 50 -->
      <g transform="translate(180.827188 315.945906)scale(0.15 -0.15)">
       <use xlink:href="#DejaVuSans-35"/>
       <use x="63.623047" xlink:href="#DejaVuSans-30"/>
      </g>
     </g>
    </g>
    <g id="xtick_4">
     <g id="line2d_7">
      <path clip-path="url(#pcd39df9889)" d="M 246.734574 297.54825 
L 246.734574 31.43625 
" style="fill:none;stroke:#b0b0b0;stroke-linecap:square;stroke-width:0.8;"/>
     </g>
     <g id="line2d_8">
      <g>
       <use style="stroke:#000000;stroke-width:0.8;" x="246.734574" xlink:href="#m005f0a59be" y="297.54825"/>
      </g>
     </g>
     <g id="text_4">
      <!-- 75 -->
      <defs>
       <path d="M 8.203125 72.90625 
L 55.078125 72.90625 
L 55.078125 68.703125 
L 28.609375 0 
L 18.3125 0 
L 43.21875 64.59375 
L 8.203125 64.59375 
z
" id="DejaVuSans-37"/>
      </defs>
      <g transform="translate(237.190824 315.945906)scale(0.15 -0.15)">
       <use xlink:href="#DejaVuSans-37"/>
       <use x="63.623047" xlink:href="#DejaVuSans-35"/>
      </g>
     </g>
    </g>
    <g id="xtick_5">
     <g id="line2d_9">
      <path clip-path="url(#pcd39df9889)" d="M 303.09821 297.54825 
L 303.09821 31.43625 
" style="fill:none;stroke:#b0b0b0;stroke-linecap:square;stroke-width:0.8;"/>
     </g>
     <g id="line2d_10">
      <g>
       <use style="stroke:#000000;stroke-width:0.8;" x="303.09821" xlink:href="#m005f0a59be" y="297.54825"/>
      </g>
     </g>
     <g id="text_5">
      <!-- 100 -->
      <defs>
       <path d="M 12.40625 8.296875 
L 28.515625 8.296875 
L 28.515625 63.921875 
L 10.984375 60.40625 
L 10.984375 69.390625 
L 28.421875 72.90625 
L 38.28125 72.90625 
L 38.28125 8.296875 
L 54.390625 8.296875 
L 54.390625 0 
L 12.40625 0 
z
" id="DejaVuSans-31"/>
      </defs>
      <g transform="translate(288.782585 315.945906)scale(0.15 -0.15)">
       <use xlink:href="#DejaVuSans-31"/>
       <use x="63.623047" xlink:href="#DejaVuSans-30"/>
       <use x="127.246094" xlink:href="#DejaVuSans-30"/>
      </g>
     </g>
    </g>
    <g id="xtick_6">
     <g id="line2d_11">
      <path clip-path="url(#pcd39df9889)" d="M 359.461847 297.54825 
L 359.461847 31.43625 
" style="fill:none;stroke:#b0b0b0;stroke-linecap:square;stroke-width:0.8;"/>
     </g>
     <g id="line2d_12">
      <g>
       <use style="stroke:#000000;stroke-width:0.8;" x="359.461847" xlink:href="#m005f0a59be" y="297.54825"/>
      </g>
     </g>
     <g id="text_6">
      <!-- 125 -->
      <g transform="translate(345.146222 315.945906)scale(0.15 -0.15)">
       <use xlink:href="#DejaVuSans-31"/>
       <use x="63.623047" xlink:href="#DejaVuSans-32"/>
       <use x="127.246094" xlink:href="#DejaVuSans-35"/>
      </g>
     </g>
    </g>
    <g id="xtick_7">
     <g id="line2d_13">
      <path clip-path="url(#pcd39df9889)" d="M 415.825483 297.54825 
L 415.825483 31.43625 
" style="fill:none;stroke:#b0b0b0;stroke-linecap:square;stroke-width:0.8;"/>
     </g>
     <g id="line2d_14">
      <g>
       <use style="stroke:#000000;stroke-width:0.8;" x="415.825483" xlink:href="#m005f0a59be" y="297.54825"/>
      </g>
     </g>
     <g id="text_7">
      <!-- 150 -->
      <g transform="translate(401.509858 315.945906)scale(0.15 -0.15)">
       <use xlink:href="#DejaVuSans-31"/>
       <use x="63.623047" xlink:href="#DejaVuSans-35"/>
       <use x="127.246094" xlink:href="#DejaVuSans-30"/>
      </g>
     </g>
    </g>
    <g id="text_8">
     <!-- Time ($\mu s$) -->
     <defs>
      <path d="M -0.296875 72.90625 
L 61.375 72.90625 
L 61.375 64.59375 
L 35.5 64.59375 
L 35.5 0 
L 25.59375 0 
L 25.59375 64.59375 
L -0.296875 64.59375 
z
" id="DejaVuSans-54"/>
      <path d="M 9.421875 54.6875 
L 18.40625 54.6875 
L 18.40625 0 
L 9.421875 0 
z
M 9.421875 75.984375 
L 18.40625 75.984375 
L 18.40625 64.59375 
L 9.421875 64.59375 
z
" id="DejaVuSans-69"/>
      <path d="M 52 44.1875 
Q 55.375 50.25 60.0625 53.125 
Q 64.75 56 71.09375 56 
Q 79.640625 56 84.28125 50.015625 
Q 88.921875 44.046875 88.921875 33.015625 
L 88.921875 0 
L 79.890625 0 
L 79.890625 32.71875 
Q 79.890625 40.578125 77.09375 44.375 
Q 74.3125 48.1875 68.609375 48.1875 
Q 61.625 48.1875 57.5625 43.546875 
Q 53.515625 38.921875 53.515625 30.90625 
L 53.515625 0 
L 44.484375 0 
L 44.484375 32.71875 
Q 44.484375 40.625 41.703125 44.40625 
Q 38.921875 48.1875 33.109375 48.1875 
Q 26.21875 48.1875 22.15625 43.53125 
Q 18.109375 38.875 18.109375 30.90625 
L 18.109375 0 
L 9.078125 0 
L 9.078125 54.6875 
L 18.109375 54.6875 
L 18.109375 46.1875 
Q 21.1875 51.21875 25.484375 53.609375 
Q 29.78125 56 35.6875 56 
Q 41.65625 56 45.828125 52.96875 
Q 50 49.953125 52 44.1875 
z
" id="DejaVuSans-6d"/>
      <path d="M 56.203125 29.59375 
L 56.203125 25.203125 
L 14.890625 25.203125 
Q 15.484375 15.921875 20.484375 11.0625 
Q 25.484375 6.203125 34.421875 6.203125 
Q 39.59375 6.203125 44.453125 7.46875 
Q 49.3125 8.734375 54.109375 11.28125 
L 54.109375 2.78125 
Q 49.265625 0.734375 44.1875 -0.34375 
Q 39.109375 -1.421875 33.890625 -1.421875 
Q 20.796875 -1.421875 13.15625 6.1875 
Q 5.515625 13.8125 5.515625 26.8125 
Q 5.515625 40.234375 12.765625 48.109375 
Q 20.015625 56 32.328125 56 
Q 43.359375 56 49.78125 48.890625 
Q 56.203125 41.796875 56.203125 29.59375 
z
M 47.21875 32.234375 
Q 47.125 39.59375 43.09375 43.984375 
Q 39.0625 48.390625 32.421875 48.390625 
Q 24.90625 48.390625 20.390625 44.140625 
Q 15.875 39.890625 15.1875 32.171875 
z
" id="DejaVuSans-65"/>
      <path id="DejaVuSans-20"/>
      <path d="M 31 75.875 
Q 24.46875 64.65625 21.28125 53.65625 
Q 18.109375 42.671875 18.109375 31.390625 
Q 18.109375 20.125 21.3125 9.0625 
Q 24.515625 -2 31 -13.1875 
L 23.1875 -13.1875 
Q 15.875 -1.703125 12.234375 9.375 
Q 8.59375 20.453125 8.59375 31.390625 
Q 8.59375 42.28125 12.203125 53.3125 
Q 15.828125 64.359375 23.1875 75.875 
z
" id="DejaVuSans-28"/>
      <path d="M -1.3125 -20.796875 
L 13.375 54.6875 
L 22.40625 54.6875 
L 15.765625 20.65625 
Q 15.578125 19.625 15.421875 18.359375 
Q 15.28125 17.09375 15.28125 15.828125 
Q 15.28125 11.28125 18.140625 8.828125 
Q 21 6.390625 26.3125 6.390625 
Q 33.546875 6.390625 37.984375 10.484375 
Q 42.4375 14.59375 44 22.796875 
L 50.203125 54.6875 
L 59.1875 54.6875 
L 51.03125 12.640625 
Q 50.828125 11.71875 50.75 11.03125 
Q 50.6875 10.359375 50.6875 9.8125 
Q 50.6875 8.296875 51.296875 7.59375 
Q 51.90625 6.890625 53.21875 6.890625 
Q 53.71875 6.890625 54.5625 7.125 
Q 55.421875 7.375 56.984375 8.015625 
L 55.609375 0.78125 
Q 53.46875 -0.296875 51.515625 -0.859375 
Q 49.5625 -1.421875 47.703125 -1.421875 
Q 44.484375 -1.421875 42.65625 0.625 
Q 40.828125 2.6875 40.828125 6.296875 
Q 38.09375 2.390625 34.296875 0.484375 
Q 30.515625 -1.421875 25.390625 -1.421875 
Q 20.84375 -1.421875 17.453125 0.671875 
Q 14.0625 2.78125 12.984375 6.203125 
L 7.71875 -20.796875 
z
" id="DejaVuSans-Oblique-3bc"/>
      <path d="M 50 53.078125 
L 48.296875 44.578125 
Q 44.734375 46.53125 40.765625 47.5 
Q 36.8125 48.484375 32.625 48.484375 
Q 25.53125 48.484375 21.453125 46.0625 
Q 17.390625 43.65625 17.390625 39.5 
Q 17.390625 34.671875 26.859375 32.078125 
Q 27.59375 31.890625 27.9375 31.78125 
L 30.8125 30.90625 
Q 39.796875 28.421875 42.796875 25.6875 
Q 45.796875 22.953125 45.796875 18.21875 
Q 45.796875 9.515625 38.890625 4.046875 
Q 31.984375 -1.421875 20.796875 -1.421875 
Q 16.453125 -1.421875 11.671875 -0.578125 
Q 6.890625 0.25 1.125 2 
L 2.875 11.28125 
Q 7.8125 8.734375 12.59375 7.421875 
Q 17.390625 6.109375 21.78125 6.109375 
Q 28.375 6.109375 32.5 8.9375 
Q 36.625 11.765625 36.625 16.109375 
Q 36.625 20.796875 25.78125 23.6875 
L 24.859375 23.921875 
L 21.78125 24.703125 
Q 14.9375 26.515625 11.765625 29.46875 
Q 8.59375 32.421875 8.59375 37.015625 
Q 8.59375 45.75 15.15625 50.875 
Q 21.734375 56 33.015625 56 
Q 37.453125 56 41.671875 55.265625 
Q 45.90625 54.546875 50 53.078125 
z
" id="DejaVuSans-Oblique-73"/>
      <path d="M 8.015625 75.875 
L 15.828125 75.875 
Q 23.140625 64.359375 26.78125 53.3125 
Q 30.421875 42.28125 30.421875 31.390625 
Q 30.421875 20.453125 26.78125 9.375 
Q 23.140625 -1.703125 15.828125 -13.1875 
L 8.015625 -13.1875 
Q 14.5 -2 17.703125 9.0625 
Q 20.90625 20.125 20.90625 31.390625 
Q 20.90625 42.671875 17.703125 53.65625 
Q 14.5 64.65625 8.015625 75.875 
z
" id="DejaVuSans-29"/>
     </defs>
     <g transform="translate(192.570938 338.265437)scale(0.2 -0.2)">
      <use transform="translate(0 0.015625)" xlink:href="#DejaVuSans-54"/>
      <use transform="translate(61.083984 0.015625)" xlink:href="#DejaVuSans-69"/>
      <use transform="translate(88.867188 0.015625)" xlink:href="#DejaVuSans-6d"/>
      <use transform="translate(186.279297 0.015625)" xlink:href="#DejaVuSans-65"/>
      <use transform="translate(247.802734 0.015625)" xlink:href="#DejaVuSans-20"/>
      <use transform="translate(279.589844 0.015625)" xlink:href="#DejaVuSans-28"/>
      <use transform="translate(318.603516 0.015625)" xlink:href="#DejaVuSans-Oblique-3bc"/>
      <use transform="translate(382.226562 0.015625)" xlink:href="#DejaVuSans-Oblique-73"/>
      <use transform="translate(434.326172 0.015625)" xlink:href="#DejaVuSans-29"/>
     </g>
    </g>
   </g>
   <g id="matplotlib.axis_2">
    <g id="ytick_1">
     <g id="line2d_15">
      <path clip-path="url(#pcd39df9889)" d="M 61.410938 297.54825 
L 418.530938 297.54825 
" style="fill:none;stroke:#b0b0b0;stroke-linecap:square;stroke-width:0.8;"/>
     </g>
     <g id="line2d_16">
      <defs>
       <path d="M 0 0 
L -3.5 0 
" id="mc3ce260a5b" style="stroke:#000000;stroke-width:0.8;"/>
      </defs>
      <g>
       <use style="stroke:#000000;stroke-width:0.8;" x="61.410938" xlink:href="#mc3ce260a5b" y="297.54825"/>
      </g>
     </g>
     <g id="text_9">
      <!-- 0.0 -->
      <defs>
       <path d="M 10.6875 12.40625 
L 21 12.40625 
L 21 0 
L 10.6875 0 
z
" id="DejaVuSans-2e"/>
      </defs>
      <g transform="translate(30.55625 303.247078)scale(0.15 -0.15)">
       <use xlink:href="#DejaVuSans-30"/>
       <use x="63.623047" xlink:href="#DejaVuSans-2e"/>
       <use x="95.410156" xlink:href="#DejaVuSans-30"/>
      </g>
     </g>
    </g>
    <g id="ytick_2">
     <g id="line2d_17">
      <path clip-path="url(#pcd39df9889)" d="M 61.410938 244.32585 
L 418.530938 244.32585 
" style="fill:none;stroke:#b0b0b0;stroke-linecap:square;stroke-width:0.8;"/>
     </g>
     <g id="line2d_18">
      <g>
       <use style="stroke:#000000;stroke-width:0.8;" x="61.410938" xlink:href="#mc3ce260a5b" y="244.32585"/>
      </g>
     </g>
     <g id="text_10">
      <!-- 0.2 -->
      <g transform="translate(30.55625 250.024678)scale(0.15 -0.15)">
       <use xlink:href="#DejaVuSans-30"/>
       <use x="63.623047" xlink:href="#DejaVuSans-2e"/>
       <use x="95.410156" xlink:href="#DejaVuSans-32"/>
      </g>
     </g>
    </g>
    <g id="ytick_3">
     <g id="line2d_19">
      <path clip-path="url(#pcd39df9889)" d="M 61.410938 191.10345 
L 418.530938 191.10345 
" style="fill:none;stroke:#b0b0b0;stroke-linecap:square;stroke-width:0.8;"/>
     </g>
     <g id="line2d_20">
      <g>
       <use style="stroke:#000000;stroke-width:0.8;" x="61.410938" xlink:href="#mc3ce260a5b" y="191.10345"/>
      </g>
     </g>
     <g id="text_11">
      <!-- 0.4 -->
      <defs>
       <path d="M 37.796875 64.3125 
L 12.890625 25.390625 
L 37.796875 25.390625 
z
M 35.203125 72.90625 
L 47.609375 72.90625 
L 47.609375 25.390625 
L 58.015625 25.390625 
L 58.015625 17.1875 
L 47.609375 17.1875 
L 47.609375 0 
L 37.796875 0 
L 37.796875 17.1875 
L 4.890625 17.1875 
L 4.890625 26.703125 
z
" id="DejaVuSans-34"/>
      </defs>
      <g transform="translate(30.55625 196.802278)scale(0.15 -0.15)">
       <use xlink:href="#DejaVuSans-30"/>
       <use x="63.623047" xlink:href="#DejaVuSans-2e"/>
       <use x="95.410156" xlink:href="#DejaVuSans-34"/>
      </g>
     </g>
    </g>
    <g id="ytick_4">
     <g id="line2d_21">
      <path clip-path="url(#pcd39df9889)" d="M 61.410938 137.88105 
L 418.530938 137.88105 
" style="fill:none;stroke:#b0b0b0;stroke-linecap:square;stroke-width:0.8;"/>
     </g>
     <g id="line2d_22">
      <g>
       <use style="stroke:#000000;stroke-width:0.8;" x="61.410938" xlink:href="#mc3ce260a5b" y="137.88105"/>
      </g>
     </g>
     <g id="text_12">
      <!-- 0.6 -->
      <defs>
       <path d="M 33.015625 40.375 
Q 26.375 40.375 22.484375 35.828125 
Q 18.609375 31.296875 18.609375 23.390625 
Q 18.609375 15.53125 22.484375 10.953125 
Q 26.375 6.390625 33.015625 6.390625 
Q 39.65625 6.390625 43.53125 10.953125 
Q 47.40625 15.53125 47.40625 23.390625 
Q 47.40625 31.296875 43.53125 35.828125 
Q 39.65625 40.375 33.015625 40.375 
z
M 52.59375 71.296875 
L 52.59375 62.3125 
Q 48.875 64.0625 45.09375 64.984375 
Q 41.3125 65.921875 37.59375 65.921875 
Q 27.828125 65.921875 22.671875 59.328125 
Q 17.53125 52.734375 16.796875 39.40625 
Q 19.671875 43.65625 24.015625 45.921875 
Q 28.375 48.1875 33.59375 48.1875 
Q 44.578125 48.1875 50.953125 41.515625 
Q 57.328125 34.859375 57.328125 23.390625 
Q 57.328125 12.15625 50.6875 5.359375 
Q 44.046875 -1.421875 33.015625 -1.421875 
Q 20.359375 -1.421875 13.671875 8.265625 
Q 6.984375 17.96875 6.984375 36.375 
Q 6.984375 53.65625 15.1875 63.9375 
Q 23.390625 74.21875 37.203125 74.21875 
Q 40.921875 74.21875 44.703125 73.484375 
Q 48.484375 72.75 52.59375 71.296875 
z
" id="DejaVuSans-36"/>
      </defs>
      <g transform="translate(30.55625 143.579878)scale(0.15 -0.15)">
       <use xlink:href="#DejaVuSans-30"/>
       <use x="63.623047" xlink:href="#DejaVuSans-2e"/>
       <use x="95.410156" xlink:href="#DejaVuSans-36"/>
      </g>
     </g>
    </g>
    <g id="ytick_5">
     <g id="line2d_23">
      <path clip-path="url(#pcd39df9889)" d="M 61.410938 84.65865 
L 418.530938 84.65865 
" style="fill:none;stroke:#b0b0b0;stroke-linecap:square;stroke-width:0.8;"/>
     </g>
     <g id="line2d_24">
      <g>
       <use style="stroke:#000000;stroke-width:0.8;" x="61.410938" xlink:href="#mc3ce260a5b" y="84.65865"/>
      </g>
     </g>
     <g id="text_13">
      <!-- 0.8 -->
      <defs>
       <path d="M 31.78125 34.625 
Q 24.75 34.625 20.71875 30.859375 
Q 16.703125 27.09375 16.703125 20.515625 
Q 16.703125 13.921875 20.71875 10.15625 
Q 24.75 6.390625 31.78125 6.390625 
Q 38.8125 6.390625 42.859375 10.171875 
Q 46.921875 13.96875 46.921875 20.515625 
Q 46.921875 27.09375 42.890625 30.859375 
Q 38.875 34.625 31.78125 34.625 
z
M 21.921875 38.8125 
Q 15.578125 40.375 12.03125 44.71875 
Q 8.5 49.078125 8.5 55.328125 
Q 8.5 64.0625 14.71875 69.140625 
Q 20.953125 74.21875 31.78125 74.21875 
Q 42.671875 74.21875 48.875 69.140625 
Q 55.078125 64.0625 55.078125 55.328125 
Q 55.078125 49.078125 51.53125 44.71875 
Q 48 40.375 41.703125 38.8125 
Q 48.828125 37.15625 52.796875 32.3125 
Q 56.78125 27.484375 56.78125 20.515625 
Q 56.78125 9.90625 50.3125 4.234375 
Q 43.84375 -1.421875 31.78125 -1.421875 
Q 19.734375 -1.421875 13.25 4.234375 
Q 6.78125 9.90625 6.78125 20.515625 
Q 6.78125 27.484375 10.78125 32.3125 
Q 14.796875 37.15625 21.921875 38.8125 
z
M 18.3125 54.390625 
Q 18.3125 48.734375 21.84375 45.5625 
Q 25.390625 42.390625 31.78125 42.390625 
Q 38.140625 42.390625 41.71875 45.5625 
Q 45.3125 48.734375 45.3125 54.390625 
Q 45.3125 60.0625 41.71875 63.234375 
Q 38.140625 66.40625 31.78125 66.40625 
Q 25.390625 66.40625 21.84375 63.234375 
Q 18.3125 60.0625 18.3125 54.390625 
z
" id="DejaVuSans-38"/>
      </defs>
      <g transform="translate(30.55625 90.357478)scale(0.15 -0.15)">
       <use xlink:href="#DejaVuSans-30"/>
       <use x="63.623047" xlink:href="#DejaVuSans-2e"/>
       <use x="95.410156" xlink:href="#DejaVuSans-38"/>
      </g>
     </g>
    </g>
    <g id="ytick_6">
     <g id="line2d_25">
      <path clip-path="url(#pcd39df9889)" d="M 61.410938 31.43625 
L 418.530938 31.43625 
" style="fill:none;stroke:#b0b0b0;stroke-linecap:square;stroke-width:0.8;"/>
     </g>
     <g id="line2d_26">
      <g>
       <use style="stroke:#000000;stroke-width:0.8;" x="61.410938" xlink:href="#mc3ce260a5b" y="31.43625"/>
      </g>
     </g>
     <g id="text_14">
      <!-- 1.0 -->
      <g transform="translate(30.55625 37.135078)scale(0.15 -0.15)">
       <use xlink:href="#DejaVuSans-31"/>
       <use x="63.623047" xlink:href="#DejaVuSans-2e"/>
       <use x="95.410156" xlink:href="#DejaVuSans-30"/>
      </g>
     </g>
    </g>
    <g id="text_15">
     <!-- Survival -->
     <defs>
      <path d="M 53.515625 70.515625 
L 53.515625 60.890625 
Q 47.90625 63.578125 42.921875 64.890625 
Q 37.9375 66.21875 33.296875 66.21875 
Q 25.25 66.21875 20.875 63.09375 
Q 16.5 59.96875 16.5 54.203125 
Q 16.5 49.359375 19.40625 46.890625 
Q 22.3125 44.4375 30.421875 42.921875 
L 36.375 41.703125 
Q 47.40625 39.59375 52.65625 34.296875 
Q 57.90625 29 57.90625 20.125 
Q 57.90625 9.515625 50.796875 4.046875 
Q 43.703125 -1.421875 29.984375 -1.421875 
Q 24.8125 -1.421875 18.96875 -0.25 
Q 13.140625 0.921875 6.890625 3.21875 
L 6.890625 13.375 
Q 12.890625 10.015625 18.65625 8.296875 
Q 24.421875 6.59375 29.984375 6.59375 
Q 38.421875 6.59375 43.015625 9.90625 
Q 47.609375 13.234375 47.609375 19.390625 
Q 47.609375 24.75 44.3125 27.78125 
Q 41.015625 30.8125 33.5 32.328125 
L 27.484375 33.5 
Q 16.453125 35.6875 11.515625 40.375 
Q 6.59375 45.0625 6.59375 53.421875 
Q 6.59375 63.09375 13.40625 68.65625 
Q 20.21875 74.21875 32.171875 74.21875 
Q 37.3125 74.21875 42.625 73.28125 
Q 47.953125 72.359375 53.515625 70.515625 
z
" id="DejaVuSans-53"/>
      <path d="M 8.5 21.578125 
L 8.5 54.6875 
L 17.484375 54.6875 
L 17.484375 21.921875 
Q 17.484375 14.15625 20.5 10.265625 
Q 23.53125 6.390625 29.59375 6.390625 
Q 36.859375 6.390625 41.078125 11.03125 
Q 45.3125 15.671875 45.3125 23.6875 
L 45.3125 54.6875 
L 54.296875 54.6875 
L 54.296875 0 
L 45.3125 0 
L 45.3125 8.40625 
Q 42.046875 3.421875 37.71875 1 
Q 33.40625 -1.421875 27.6875 -1.421875 
Q 18.265625 -1.421875 13.375 4.4375 
Q 8.5 10.296875 8.5 21.578125 
z
M 31.109375 56 
z
" id="DejaVuSans-75"/>
      <path d="M 41.109375 46.296875 
Q 39.59375 47.171875 37.8125 47.578125 
Q 36.03125 48 33.890625 48 
Q 26.265625 48 22.1875 43.046875 
Q 18.109375 38.09375 18.109375 28.8125 
L 18.109375 0 
L 9.078125 0 
L 9.078125 54.6875 
L 18.109375 54.6875 
L 18.109375 46.1875 
Q 20.953125 51.171875 25.484375 53.578125 
Q 30.03125 56 36.53125 56 
Q 37.453125 56 38.578125 55.875 
Q 39.703125 55.765625 41.0625 55.515625 
z
" id="DejaVuSans-72"/>
      <path d="M 2.984375 54.6875 
L 12.5 54.6875 
L 29.59375 8.796875 
L 46.6875 54.6875 
L 56.203125 54.6875 
L 35.6875 0 
L 23.484375 0 
z
" id="DejaVuSans-76"/>
      <path d="M 34.28125 27.484375 
Q 23.390625 27.484375 19.1875 25 
Q 14.984375 22.515625 14.984375 16.5 
Q 14.984375 11.71875 18.140625 8.90625 
Q 21.296875 6.109375 26.703125 6.109375 
Q 34.1875 6.109375 38.703125 11.40625 
Q 43.21875 16.703125 43.21875 25.484375 
L 43.21875 27.484375 
z
M 52.203125 31.203125 
L 52.203125 0 
L 43.21875 0 
L 43.21875 8.296875 
Q 40.140625 3.328125 35.546875 0.953125 
Q 30.953125 -1.421875 24.3125 -1.421875 
Q 15.921875 -1.421875 10.953125 3.296875 
Q 6 8.015625 6 15.921875 
Q 6 25.140625 12.171875 29.828125 
Q 18.359375 34.515625 30.609375 34.515625 
L 43.21875 34.515625 
L 43.21875 35.40625 
Q 43.21875 41.609375 39.140625 45 
Q 35.0625 48.390625 27.6875 48.390625 
Q 23 48.390625 18.546875 47.265625 
Q 14.109375 46.140625 10.015625 43.890625 
L 10.015625 52.203125 
Q 14.9375 54.109375 19.578125 55.046875 
Q 24.21875 56 28.609375 56 
Q 40.484375 56 46.34375 49.84375 
Q 52.203125 43.703125 52.203125 31.203125 
z
" id="DejaVuSans-61"/>
      <path d="M 9.421875 75.984375 
L 18.40625 75.984375 
L 18.40625 0 
L 9.421875 0 
z
" id="DejaVuSans-6c"/>
     </defs>
     <g transform="translate(22.396875 204.811)rotate(-90)scale(0.2 -0.2)">
      <use xlink:href="#DejaVuSans-53"/>
      <use x="63.476562" xlink:href="#DejaVuSans-75"/>
      <use x="126.855469" xlink:href="#DejaVuSans-72"/>
      <use x="167.96875" xlink:href="#DejaVuSans-76"/>
      <use x="227.148438" xlink:href="#DejaVuSans-69"/>
      <use x="254.931641" xlink:href="#DejaVuSans-76"/>
      <use x="314.111328" xlink:href="#DejaVuSans-61"/>
      <use x="375.390625" xlink:href="#DejaVuSans-6c"/>
     </g>
    </g>
   </g>
   <g id="LineCollection_1">
    <path clip-path="url(#pcd39df9889)" d="M 77.643665 297.54825 
L 77.643665 296.36553 
" style="fill:none;stroke:#1f77b4;stroke-width:1.5;"/>
    <path clip-path="url(#pcd39df9889)" d="M 85.534574 225.513154 
L 85.534574 209.203346 
" style="fill:none;stroke:#1f77b4;stroke-width:1.5;"/>
    <path clip-path="url(#pcd39df9889)" d="M 93.425483 93.15781 
L 93.425483 79.418004 
" style="fill:none;stroke:#1f77b4;stroke-width:1.5;"/>
    <path clip-path="url(#pcd39df9889)" d="M 101.316392 58.644705 
L 101.316392 48.780483 
" style="fill:none;stroke:#1f77b4;stroke-width:1.5;"/>
    <path clip-path="url(#pcd39df9889)" d="M 109.207301 166.126001 
L 109.207301 148.005736 
" style="fill:none;stroke:#1f77b4;stroke-width:1.5;"/>
    <path clip-path="url(#pcd39df9889)" d="M 117.09821 278.47053 
L 117.09821 268.349014 
" style="fill:none;stroke:#1f77b4;stroke-width:1.5;"/>
    <path clip-path="url(#pcd39df9889)" d="M 124.989119 285.031348 
L 124.989119 276.17353 
" style="fill:none;stroke:#1f77b4;stroke-width:1.5;"/>
    <path clip-path="url(#pcd39df9889)" d="M 132.880028 159.993687 
L 132.880028 142.60902 
" style="fill:none;stroke:#1f77b4;stroke-width:1.5;"/>
    <path clip-path="url(#pcd39df9889)" d="M 140.770938 67.382801 
L 140.770938 56.473699 
" style="fill:none;stroke:#1f77b4;stroke-width:1.5;"/>
    <path clip-path="url(#pcd39df9889)" d="M 148.661847 109.131372 
L 148.661847 93.073354 
" style="fill:none;stroke:#1f77b4;stroke-width:1.5;"/>
    <path clip-path="url(#pcd39df9889)" d="M 156.552756 222.995225 
L 156.552756 206.386075 
" style="fill:none;stroke:#1f77b4;stroke-width:1.5;"/>
    <path clip-path="url(#pcd39df9889)" d="M 164.443665 292.473656 
L 164.443665 286.907569 
" style="fill:none;stroke:#1f77b4;stroke-width:1.5;"/>
    <path clip-path="url(#pcd39df9889)" d="M 172.334574 222.995225 
L 172.334574 206.386075 
" style="fill:none;stroke:#1f77b4;stroke-width:1.5;"/>
    <path clip-path="url(#pcd39df9889)" d="M 180.225483 113.032683 
L 180.225483 96.703515 
" style="fill:none;stroke:#1f77b4;stroke-width:1.5;"/>
    <path clip-path="url(#pcd39df9889)" d="M 188.116392 69.929109 
L 188.116392 58.636312 
" style="fill:none;stroke:#1f77b4;stroke-width:1.5;"/>
    <path clip-path="url(#pcd39df9889)" d="M 196.007301 155.007926 
L 196.007301 137.474485 
" style="fill:none;stroke:#1f77b4;stroke-width:1.5;"/>
    <path clip-path="url(#pcd39df9889)" d="M 203.89821 270.695926 
L 203.89821 259.060574 
" style="fill:none;stroke:#1f77b4;stroke-width:1.5;"/>
    <path clip-path="url(#pcd39df9889)" d="M 211.789119 276.054947 
L 211.789119 265.066006 
" style="fill:none;stroke:#1f77b4;stroke-width:1.5;"/>
    <path clip-path="url(#pcd39df9889)" d="M 219.680028 173.976339 
L 219.680028 156.196161 
" style="fill:none;stroke:#1f77b4;stroke-width:1.5;"/>
    <path clip-path="url(#pcd39df9889)" d="M 227.570938 74.764551 
L 227.570938 62.665191 
" style="fill:none;stroke:#1f77b4;stroke-width:1.5;"/>
    <path clip-path="url(#pcd39df9889)" d="M 235.461847 88.388234 
L 235.461847 74.426782 
" style="fill:none;stroke:#1f77b4;stroke-width:1.5;"/>
    <path clip-path="url(#pcd39df9889)" d="M 243.352756 234.995774 
L 243.352756 219.357046 
" style="fill:none;stroke:#1f77b4;stroke-width:1.5;"/>
    <path clip-path="url(#pcd39df9889)" d="M 251.243665 283.680061 
L 251.243665 274.752119 
" style="fill:none;stroke:#1f77b4;stroke-width:1.5;"/>
    <path clip-path="url(#pcd39df9889)" d="M 259.134574 234.143024 
L 259.134574 218.477582 
" style="fill:none;stroke:#1f77b4;stroke-width:1.5;"/>
    <path clip-path="url(#pcd39df9889)" d="M 267.025483 132.513164 
L 267.025483 115.428136 
" style="fill:none;stroke:#1f77b4;stroke-width:1.5;"/>
    <path clip-path="url(#pcd39df9889)" d="M 274.916392 68.295421 
L 274.916392 57.124771 
" style="fill:none;stroke:#1f77b4;stroke-width:1.5;"/>
    <path clip-path="url(#pcd39df9889)" d="M 282.807301 143.45634 
L 282.807301 126.874903 
" style="fill:none;stroke:#1f77b4;stroke-width:1.5;"/>
    <path clip-path="url(#pcd39df9889)" d="M 290.69821 265.661893 
L 290.69821 252.864645 
" style="fill:none;stroke:#1f77b4;stroke-width:1.5;"/>
    <path clip-path="url(#pcd39df9889)" d="M 298.589119 279.204746 
L 298.589119 269.142348 
" style="fill:none;stroke:#1f77b4;stroke-width:1.5;"/>
    <path clip-path="url(#pcd39df9889)" d="M 306.480028 182.154551 
L 306.480028 164.49225 
" style="fill:none;stroke:#1f77b4;stroke-width:1.5;"/>
    <path clip-path="url(#pcd39df9889)" d="M 314.370938 88.13018 
L 314.370938 74.074449 
" style="fill:none;stroke:#1f77b4;stroke-width:1.5;"/>
    <path clip-path="url(#pcd39df9889)" d="M 322.261847 90.016766 
L 322.261847 76.405592 
" style="fill:none;stroke:#1f77b4;stroke-width:1.5;"/>
    <path clip-path="url(#pcd39df9889)" d="M 330.152756 212.013079 
L 330.152756 195.171 
" style="fill:none;stroke:#1f77b4;stroke-width:1.5;"/>
    <path clip-path="url(#pcd39df9889)" d="M 338.043665 273.535232 
L 338.043665 262.553825 
" style="fill:none;stroke:#1f77b4;stroke-width:1.5;"/>
    <path clip-path="url(#pcd39df9889)" d="M 345.934574 248.935636 
L 345.934574 233.625939 
" style="fill:none;stroke:#1f77b4;stroke-width:1.5;"/>
    <path clip-path="url(#pcd39df9889)" d="M 353.825483 136.810899 
L 353.825483 119.705601 
" style="fill:none;stroke:#1f77b4;stroke-width:1.5;"/>
    <path clip-path="url(#pcd39df9889)" d="M 361.716392 79.877173 
L 361.716392 66.968447 
" style="fill:none;stroke:#1f77b4;stroke-width:1.5;"/>
    <path clip-path="url(#pcd39df9889)" d="M 369.607301 145.333998 
L 369.607301 127.754831 
" style="fill:none;stroke:#1f77b4;stroke-width:1.5;"/>
    <path clip-path="url(#pcd39df9889)" d="M 377.49821 244.237845 
L 377.49821 229.692766 
" style="fill:none;stroke:#1f77b4;stroke-width:1.5;"/>
    <path clip-path="url(#pcd39df9889)" d="M 385.389119 263.77106 
L 385.389119 251.012358 
" style="fill:none;stroke:#1f77b4;stroke-width:1.5;"/>
    <path clip-path="url(#pcd39df9889)" d="M 393.280028 190.617337 
L 393.280028 172.704195 
" style="fill:none;stroke:#1f77b4;stroke-width:1.5;"/>
   </g>
   <g id="LineCollection_2">
    <path clip-path="url(#pcd39df9889)" d="M 77.643665 293.318268 
L 77.643665 286.326567 
" style="fill:none;stroke:#d62728;stroke-width:1.5;"/>
    <path clip-path="url(#pcd39df9889)" d="M 85.534574 255.825558 
L 85.534574 239.26707 
" style="fill:none;stroke:#d62728;stroke-width:1.5;"/>
    <path clip-path="url(#pcd39df9889)" d="M 93.425483 181.576976 
L 93.425483 160.630481 
" style="fill:none;stroke:#d62728;stroke-width:1.5;"/>
    <path clip-path="url(#pcd39df9889)" d="M 101.316392 119.506194 
L 101.316392 100.388915 
" style="fill:none;stroke:#d62728;stroke-width:1.5;"/>
    <path clip-path="url(#pcd39df9889)" d="M 109.207301 138.862975 
L 109.207301 118.603925 
" style="fill:none;stroke:#d62728;stroke-width:1.5;"/>
    <path clip-path="url(#pcd39df9889)" d="M 117.09821 163.368475 
L 117.09821 142.475851 
" style="fill:none;stroke:#d62728;stroke-width:1.5;"/>
    <path clip-path="url(#pcd39df9889)" d="M 124.989119 203.475501 
L 124.989119 182.532999 
" style="fill:none;stroke:#d62728;stroke-width:1.5;"/>
    <path clip-path="url(#pcd39df9889)" d="M 132.880028 224.387527 
L 132.880028 204.388973 
" style="fill:none;stroke:#d62728;stroke-width:1.5;"/>
    <path clip-path="url(#pcd39df9889)" d="M 140.770938 177.68203 
L 140.770938 157.455349 
" style="fill:none;stroke:#d62728;stroke-width:1.5;"/>
    <path clip-path="url(#pcd39df9889)" d="M 148.661847 165.569339 
L 148.661847 143.900281 
" style="fill:none;stroke:#d62728;stroke-width:1.5;"/>
    <path clip-path="url(#pcd39df9889)" d="M 156.552756 133.953734 
L 156.552756 113.009944 
" style="fill:none;stroke:#d62728;stroke-width:1.5;"/>
    <path clip-path="url(#pcd39df9889)" d="M 164.443665 174.850646 
L 164.443665 154.133854 
" style="fill:none;stroke:#d62728;stroke-width:1.5;"/>
    <path clip-path="url(#pcd39df9889)" d="M 172.334574 201.062909 
L 172.334574 180.823374 
" style="fill:none;stroke:#d62728;stroke-width:1.5;"/>
    <path clip-path="url(#pcd39df9889)" d="M 180.225483 203.524988 
L 180.225483 181.381599 
" style="fill:none;stroke:#d62728;stroke-width:1.5;"/>
    <path clip-path="url(#pcd39df9889)" d="M 188.116392 203.672317 
L 188.116392 182.941533 
" style="fill:none;stroke:#d62728;stroke-width:1.5;"/>
    <path clip-path="url(#pcd39df9889)" d="M 196.007301 152.742204 
L 196.007301 132.668401 
" style="fill:none;stroke:#d62728;stroke-width:1.5;"/>
   </g>
   <g id="line2d_27">
    <path clip-path="url(#pcd39df9889)" d="M 77.643665 297.056409 
L 78.292974 297.056409 
L 78.617628 295.409541 
L 78.942283 297.056409 
L 79.266938 293.763723 
L 80.240901 289.17074 
L 80.89021 283.636831 
L 81.214865 281.913509 
L 81.539519 277.624986 
L 81.864174 275.064638 
L 83.162792 259.474426 
L 83.487447 254.0243 
L 83.812101 250.838883 
L 85.435374 226.639868 
L 86.084683 215.059259 
L 86.409338 211.377002 
L 87.383301 192.521711 
L 88.03261 181.780076 
L 89.006574 163.864193 
L 90.954501 128.736848 
L 92.253119 108.352674 
L 93.227083 93.411938 
L 93.551738 88.699502 
L 93.876392 85.68581 
L 94.525701 75.852399 
L 94.850356 73.132062 
L 95.17501 69.204948 
L 95.499665 67.237805 
L 95.824319 62.690937 
L 96.148974 60.901041 
L 97.122938 52.419674 
L 97.447592 52.14729 
L 98.096901 48.045268 
L 98.421556 48.845249 
L 99.070865 46.777626 
L 99.395519 46.530866 
L 99.720174 46.880559 
L 100.044828 46.654246 
L 100.694138 47.969327 
L 102.31741 56.372919 
L 102.642065 59.778095 
L 102.966719 61.48823 
L 104.589992 78.303431 
L 105.239301 86.626956 
L 106.213265 100.091927 
L 106.862574 110.813222 
L 107.836538 125.455471 
L 108.485847 136.76063 
L 108.810501 141.442852 
L 109.784465 159.884195 
L 110.758428 176.131162 
L 111.083083 183.301205 
L 111.407738 187.801034 
L 112.381701 205.459866 
L 114.004974 231.918597 
L 115.952901 259.227982 
L 116.926865 270.68976 
L 118.874792 287.297235 
L 119.199447 289.2509 
L 119.524101 290.125214 
L 120.17341 293.105408 
L 120.498065 293.763723 
L 120.822719 293.9871 
L 121.147374 293.829541 
L 121.796683 294.545506 
L 122.121338 294.168891 
L 122.445992 294.168891 
L 122.770647 292.340073 
L 123.419956 290.545151 
L 123.74461 287.028364 
L 124.393919 283.137037 
L 124.718574 280.079546 
L 125.043228 278.158573 
L 126.017192 268.045859 
L 127.640465 248.195696 
L 130.88701 196.778252 
L 135.107519 124.044256 
L 135.432174 119.731804 
L 135.756828 112.892487 
L 136.081483 110.01432 
L 136.730792 99.634456 
L 138.02941 82.712975 
L 139.977338 63.641702 
L 140.301992 61.743729 
L 140.951301 56.534994 
L 141.275956 55.543381 
L 141.60061 53.981231 
L 142.899228 50.239593 
L 143.223883 49.496585 
L 143.873192 51.596523 
L 144.197847 51.444618 
L 144.522501 52.975497 
L 144.847156 53.846365 
L 146.145774 61.472042 
L 146.795083 65.696039 
L 148.418356 82.413946 
L 148.74301 87.832962 
L 149.067665 90.969556 
L 151.015592 117.972038 
L 152.638865 145.347445 
L 157.184028 222.095552 
L 157.508683 226.240876 
L 157.833338 232.301671 
L 158.482647 240.813059 
L 159.131956 250.164861 
L 160.105919 262.027817 
L 162.053847 280.314656 
L 163.02781 286.275055 
L 163.352465 286.871679 
L 163.677119 287.852355 
L 164.001774 289.731362 
L 164.326428 290.160478 
L 164.651083 290.231005 
L 164.975738 291.233233 
L 165.300392 290.545151 
L 165.625047 290.472011 
L 166.274356 288.706459 
L 166.59901 288.280657 
L 166.923665 286.970421 
L 167.572974 283.118406 
L 167.897628 282.069423 
L 168.222283 279.675122 
L 170.819519 252.74139 
L 171.793483 239.528185 
L 175.364683 183.717428 
L 176.013992 172.555778 
L 178.286574 133.934166 
L 179.260538 119.533335 
L 179.909847 109.155266 
L 180.559156 100.956434 
L 182.182428 81.258693 
L 183.156392 70.996951 
L 183.481047 69.354219 
L 184.130356 64.414769 
L 184.45501 62.782088 
L 185.104319 59.004014 
L 185.753628 56.624761 
L 186.078283 56.304028 
L 186.402938 55.443107 
L 186.727592 55.711967 
L 187.052247 54.940895 
L 187.376901 55.615632 
L 187.701556 55.344364 
L 188.675519 58.841508 
L 189.000174 61.224215 
L 189.324828 62.569403 
L 190.298792 68.969953 
L 191.272756 77.109077 
L 191.59741 81.558355 
L 191.922065 83.304682 
L 192.896028 95.745005 
L 193.869992 108.692085 
L 194.519301 119.664034 
L 195.16861 128.354587 
L 197.116538 159.997982 
L 200.038428 208.181 
L 201.012392 222.129272 
L 201.661701 232.576271 
L 202.635665 244.805324 
L 202.960319 250.718782 
L 203.284974 253.742158 
L 203.609628 257.892716 
L 204.258938 263.951713 
L 205.557556 274.879486 
L 206.531519 281.740401 
L 206.856174 282.225338 
L 207.180828 284.197573 
L 207.505483 284.785025 
L 207.830138 286.846993 
L 208.154792 286.439627 
L 208.479447 286.945736 
L 208.804101 286.797621 
L 209.45341 287.180276 
L 209.778065 285.556348 
L 210.427374 283.598107 
L 211.076683 280.866621 
L 211.725992 277.102165 
L 213.349265 263.385339 
L 215.621847 235.720153 
L 218.543738 190.345693 
L 219.193047 179.676482 
L 220.491665 160.018301 
L 222.114938 133.037042 
L 222.439592 129.420601 
L 223.413556 113.747588 
L 223.73821 111.104764 
L 224.062865 104.84918 
L 226.010792 83.374661 
L 226.984756 74.097584 
L 227.30941 72.303059 
L 228.608028 63.290026 
L 228.932683 62.882808 
L 229.257338 60.884304 
L 229.906647 59.670372 
L 230.231301 59.867863 
L 230.555956 59.302112 
L 231.529919 61.407291 
L 231.854574 61.727803 
L 232.179228 63.167078 
L 232.503883 63.245811 
L 234.776465 80.64133 
L 235.101119 84.046451 
L 235.425774 86.021403 
L 237.698356 114.444107 
L 238.02301 120.261987 
L 238.672319 127.895895 
L 239.321628 138.132828 
L 239.970938 148.236514 
L 240.295592 155.090858 
L 240.620247 158.233981 
L 241.269556 169.133756 
L 245.16541 230.571124 
L 245.490065 233.491258 
L 245.814719 238.814396 
L 246.139374 241.792592 
L 247.113338 254.059568 
L 248.087301 262.407882 
L 248.73661 269.117732 
L 250.359883 279.182868 
L 251.009192 280.656179 
L 251.333847 282.727303 
L 251.658501 283.19293 
L 251.983156 282.873593 
L 252.30781 284.01034 
L 252.632465 283.02525 
L 252.957119 283.869172 
L 253.281774 282.26913 
L 253.606428 282.233864 
L 253.931083 281.844214 
L 254.255738 279.167907 
L 254.905047 276.129154 
L 255.554356 271.868228 
L 255.87901 269.955857 
L 256.528319 263.969191 
L 256.852974 261.37721 
L 257.177628 257.027259 
L 257.826938 250.885589 
L 260.748828 212.449012 
L 261.398138 201.616119 
L 262.696756 182.178331 
L 263.02141 175.681926 
L 263.346065 172.209142 
L 263.995374 160.636002 
L 264.320028 156.883297 
L 265.618647 135.826348 
L 266.59261 121.745879 
L 267.566574 107.74514 
L 269.189847 90.442595 
L 270.488465 78.1446 
L 270.813119 76.078474 
L 271.137774 72.793557 
L 271.462428 71.441068 
L 271.787083 69.41163 
L 272.111738 68.60005 
L 272.436392 66.738501 
L 272.761047 66.810068 
L 273.085701 65.392043 
L 273.410356 64.595574 
L 273.73501 64.498217 
L 274.059665 62.957616 
L 274.384319 64.512125 
L 274.708974 63.925942 
L 275.033628 65.525485 
L 275.358283 65.309678 
L 276.332247 68.969953 
L 276.656901 71.682303 
L 277.30621 73.927011 
L 277.955519 81.119954 
L 278.280174 83.234702 
L 279.903447 99.325118 
L 283.474647 148.211514 
L 284.773265 169.581158 
L 285.422574 178.688973 
L 286.071883 189.738313 
L 286.721192 199.130107 
L 288.993774 232.076178 
L 289.318428 235.278539 
L 289.967738 243.77458 
L 290.941701 254.478451 
L 291.266356 257.343612 
L 291.59101 261.294919 
L 291.915665 263.683367 
L 292.240319 265.201171 
L 292.564974 267.618675 
L 292.889628 271.575287 
L 293.214283 272.662602 
L 293.538938 274.817769 
L 293.863592 275.830214 
L 294.188247 277.394232 
L 294.512901 278.003399 
L 294.837556 280.672367 
L 295.16221 280.387102 
L 295.486865 280.818058 
L 295.811519 281.808502 
L 296.136174 280.850433 
L 296.460828 280.482663 
L 296.785483 279.191673 
L 297.110138 279.447245 
L 297.434792 278.837178 
L 297.759447 277.102165 
L 298.084101 277.26449 
L 298.408756 272.474083 
L 298.73341 271.6049 
L 299.058065 269.987041 
L 300.356683 259.275005 
L 301.005992 252.455927 
L 301.330647 248.214933 
L 302.30461 238.925201 
L 302.953919 229.510178 
L 303.603228 221.763172 
L 303.927883 215.394552 
L 304.252538 212.412939 
L 306.525119 176.730143 
L 306.849774 172.450981 
L 307.174428 166.049664 
L 307.499083 163.447335 
L 307.823738 157.087328 
L 308.148392 153.044834 
L 308.797701 142.503051 
L 310.096319 124.56375 
L 310.745628 115.293348 
L 311.070283 112.106739 
L 312.368901 95.484906 
L 313.667519 83.328008 
L 314.316828 77.985896 
L 314.641483 76.962096 
L 314.966138 74.448756 
L 315.940101 69.525345 
L 316.264756 67.654983 
L 316.58941 68.340207 
L 317.238719 66.395764 
L 318.212683 67.348897 
L 318.537338 67.50869 
L 318.861992 68.197439 
L 319.186647 70.233301 
L 319.511301 69.672899 
L 320.809919 78.172348 
L 321.134574 79.478575 
L 321.783883 85.014331 
L 322.433192 91.278569 
L 323.082501 97.11314 
L 324.705774 117.741129 
L 325.030428 120.787024 
L 327.952319 163.593033 
L 328.601628 174.840115 
L 329.250938 183.521558 
L 332.172828 226.171052 
L 334.44541 253.072599 
L 334.770065 255.467097 
L 335.744028 264.83989 
L 336.068683 266.574035 
L 336.393338 269.790669 
L 336.717992 270.988175 
L 337.042647 273.459556 
L 338.990574 279.538396 
L 339.315228 280.204938 
L 340.289192 278.532225 
L 340.613847 278.229107 
L 340.938501 277.075111 
L 341.263156 276.422899 
L 341.58781 274.288327 
L 341.912465 273.296912 
L 342.561774 269.618706 
L 342.886428 266.128567 
L 343.211083 263.864325 
L 343.535738 260.650803 
L 343.860392 258.868785 
L 345.15901 246.120578 
L 346.132974 233.816867 
L 347.756247 213.000864 
L 348.73021 198.273984 
L 350.028828 178.219501 
L 351.327447 157.989144 
L 351.652101 154.538442 
L 352.30141 144.041546 
L 353.600028 126.388834 
L 353.924683 120.643212 
L 354.898647 109.576529 
L 355.223301 104.208051 
L 355.547956 101.863958 
L 356.521919 91.083756 
L 358.794501 74.263795 
L 359.119156 72.684584 
L 359.44381 72.602294 
L 359.768465 70.834179 
L 360.093119 70.487704 
L 360.417774 69.308289 
L 360.742428 69.984337 
L 361.067083 68.935101 
L 361.391738 68.316413 
L 361.716392 69.36644 
L 362.041047 69.548045 
L 362.365701 70.155634 
L 362.690356 70.188919 
L 363.339665 72.763016 
L 363.664319 75.640828 
L 364.313628 78.118149 
L 364.962938 84.344211 
L 365.612247 88.138447 
L 365.936901 91.016579 
L 366.58621 98.256602 
L 367.235519 105.649849 
L 368.858792 126.116578 
L 370.15741 144.81149 
L 375.676538 225.82011 
L 378.273774 254.94533 
L 378.598428 257.10955 
L 379.247738 264.163134 
L 379.572392 265.463897 
L 379.897047 268.124076 
L 380.546356 271.945033 
L 380.87101 274.104558 
L 381.195665 274.904173 
L 381.520319 276.607227 
L 381.844974 276.370234 
L 382.169628 277.624986 
L 382.494283 278.26398 
L 382.818938 278.546747 
L 383.468247 277.819699 
L 383.792901 276.991467 
L 384.117556 277.407947 
L 384.44221 275.753268 
L 385.091519 274.191988 
L 386.390138 266.752723 
L 387.688756 255.532446 
L 388.662719 245.590273 
L 390.935301 217.749751 
L 391.259956 212.119843 
L 391.58461 208.705769 
L 394.506501 164.989306 
L 395.15581 155.775149 
L 395.805119 145.330565 
L 396.129774 142.775467 
L 396.779083 133.274351 
L 397.753047 119.30098 
L 398.077701 115.645245 
L 398.72701 107.299131 
L 399.376319 100.509264 
L 399.700974 97.490872 
L 400.025628 93.320984 
L 400.350283 91.457889 
L 400.674938 87.388018 
L 400.999592 85.812031 
L 401.324247 81.788918 
L 401.973556 78.294692 
L 402.29821 77.511403 
L 402.29821 77.511403 
" style="fill:none;stroke:#1f77b4;stroke-linecap:square;stroke-width:1.5;"/>
   </g>
   <g id="line2d_28">
    <path clip-path="url(#pcd39df9889)" d="M 77.643665 297.053029 
L 78.725847 297.053029 
L 78.996392 296.720735 
L 79.537483 294.524872 
L 79.808028 294.527982 
L 80.078574 292.826298 
L 80.89021 290.927174 
L 81.160756 289.386307 
L 81.701847 287.566918 
L 82.242938 283.619217 
L 83.325119 276.568055 
L 83.595665 273.703654 
L 83.86621 272.279187 
L 84.407301 268.498445 
L 84.677847 266.560048 
L 85.218938 261.236371 
L 85.489483 259.491197 
L 85.760028 255.940522 
L 86.030574 254.046584 
L 88.736028 226.212875 
L 89.006574 222.491403 
L 89.277119 220.941913 
L 89.547665 218.092454 
L 89.81821 214.062173 
L 90.088756 211.972914 
L 90.629847 204.393438 
L 91.712028 192.792825 
L 91.982574 190.717986 
L 92.79421 180.068014 
L 93.605847 171.355981 
L 93.876392 167.975378 
L 94.146938 166.50303 
L 95.229119 153.588882 
L 98.74621 122.450998 
L 99.016756 121.380116 
L 99.557847 115.689861 
L 100.369483 111.664825 
L 100.910574 108.359305 
L 101.72221 105.065359 
L 101.992756 102.613979 
L 102.533847 101.72198 
L 102.804392 99.793138 
L 103.345483 98.294801 
L 103.616028 96.888318 
L 103.886574 97.675408 
L 104.157119 97.337953 
L 104.427665 96.036373 
L 105.239301 95.877875 
L 105.509847 95.282395 
L 106.050938 94.854519 
L 106.321483 95.890226 
L 106.592028 95.921105 
L 106.862574 95.74201 
L 107.133119 96.96597 
L 107.403665 96.449124 
L 107.67421 97.317608 
L 107.944756 97.669382 
L 108.215301 98.306709 
L 108.756392 100.309974 
L 109.026938 99.505521 
L 109.568028 104.022178 
L 109.838574 103.882531 
L 110.379665 106.94993 
L 110.65021 107.812598 
L 110.920756 109.572144 
L 111.191301 110.048627 
L 111.461847 112.622883 
L 112.002938 115.200715 
L 112.273483 117.863082 
L 112.544028 118.509924 
L 113.085119 121.135481 
L 113.62621 125.510057 
L 113.896756 126.343446 
L 114.167301 128.802179 
L 114.437847 130.15221 
L 115.520028 137.885926 
L 116.061119 142.61972 
L 117.954938 156.623396 
L 118.225483 158.184685 
L 118.766574 162.896673 
L 119.57821 169.091423 
L 119.848756 171.449323 
L 120.119301 171.964733 
L 120.930938 178.16562 
L 122.55421 188.752035 
L 122.824756 191.474152 
L 123.095301 191.829257 
L 123.365847 193.722428 
L 123.636392 194.57769 
L 123.906938 195.844633 
L 124.177483 198.815273 
L 124.448028 199.859936 
L 124.718574 200.152629 
L 124.989119 202.497661 
L 125.259665 202.284908 
L 125.53021 204.402199 
L 125.800756 204.774511 
L 126.341847 207.921391 
L 126.882938 208.897144 
L 127.424028 210.762272 
L 127.694574 210.68996 
L 127.965119 211.305807 
L 128.776756 214.37219 
L 129.047301 213.652487 
L 129.588392 215.052156 
L 129.858938 215.349514 
L 130.129483 215.228712 
L 130.400028 214.117411 
L 130.670574 216.209979 
L 130.941119 214.61267 
L 131.48221 215.186896 
L 131.752756 214.742159 
L 132.023301 215.716566 
L 132.293847 215.50284 
L 132.834938 212.948582 
L 133.105483 214.062173 
L 133.646574 212.237451 
L 133.917119 211.787063 
L 134.187665 210.708038 
L 134.45821 208.785174 
L 134.728756 209.746754 
L 134.999301 207.624611 
L 135.269847 207.544712 
L 135.540392 206.676444 
L 135.810938 206.45549 
L 136.352028 205.164729 
L 136.622574 202.358721 
L 136.893119 203.010005 
L 137.704756 199.359563 
L 137.975301 197.351858 
L 138.516392 196.174654 
L 138.786938 194.261706 
L 139.057483 193.633953 
L 139.328028 191.378064 
L 139.598574 191.657971 
L 139.869119 188.712341 
L 140.139665 188.691626 
L 140.41021 186.288319 
L 140.951301 184.582801 
L 141.492392 181.254622 
L 141.762938 180.542657 
L 142.304028 177.440274 
L 142.574574 176.454129 
L 143.38621 171.806457 
L 143.656756 171.080013 
L 144.197847 168.174237 
L 144.468392 165.961057 
L 144.738938 165.582084 
L 145.009483 164.852663 
L 145.821119 159.973438 
L 146.632756 158.246315 
L 146.903301 156.113922 
L 147.444392 154.425504 
L 147.714938 153.220164 
L 147.985483 152.926018 
L 148.526574 150.04382 
L 148.797119 149.84329 
L 149.608756 147.193726 
L 149.879301 147.449641 
L 150.690938 143.906417 
L 151.232028 143.579235 
L 151.502574 143.834182 
L 152.043665 141.874792 
L 152.584756 141.63479 
L 152.855301 141.885734 
L 153.125847 141.724791 
L 153.396392 140.03873 
L 153.666938 141.600504 
L 153.937483 141.257644 
L 154.208028 141.471931 
L 154.478574 141.480503 
L 154.749119 142.705067 
L 155.019665 141.591932 
L 155.29021 142.060696 
L 155.560756 141.300501 
L 155.831301 142.495966 
L 156.101847 142.16738 
L 156.372392 142.696532 
L 156.642938 143.642972 
L 156.913483 142.854424 
L 157.454574 145.114467 
L 157.725119 144.830988 
L 157.995665 145.760363 
L 158.26621 145.722445 
L 159.077847 148.301294 
L 159.348392 147.713947 
L 159.618938 149.805691 
L 159.889483 149.024459 
L 160.971665 153.967551 
L 161.24221 153.827277 
L 161.512756 155.815867 
L 161.783301 155.920816 
L 162.053847 157.814906 
L 162.324392 157.017827 
L 162.594938 158.246315 
L 162.865483 158.606794 
L 163.406574 162.513625 
L 163.677119 163.654619 
L 163.947665 163.642394 
L 164.21821 164.38404 
L 164.759301 166.873853 
L 165.029847 167.459968 
L 165.300392 168.933148 
L 165.841483 170.735054 
L 166.112028 172.196059 
L 166.382574 172.200117 
L 166.653119 173.19847 
L 166.923665 175.781757 
L 167.19421 176.360404 
L 167.464756 176.666028 
L 168.005847 178.104496 
L 168.276392 180.730878 
L 168.546938 180.031189 
L 169.088028 182.99686 
L 169.629119 184.607453 
L 169.899665 184.619779 
L 170.440756 187.3369 
L 170.711301 186.861792 
L 170.981847 188.612911 
L 171.252392 188.521768 
L 171.522938 190.768119 
L 171.793483 190.592655 
L 172.334574 191.432374 
L 172.605119 192.629207 
L 172.875665 192.327143 
L 173.14621 192.557886 
L 173.416756 194.918952 
L 173.687301 195.01535 
L 173.957847 194.800985 
L 174.228392 195.747319 
L 174.498938 195.281905 
L 174.769483 195.66693 
L 175.040028 195.760013 
L 175.310574 196.018106 
L 175.581119 195.569616 
L 175.851665 196.948191 
L 176.12221 197.024676 
L 176.392756 196.790974 
L 176.663301 195.569616 
L 176.933847 196.744234 
L 177.204392 196.018106 
L 177.474938 197.088412 
L 177.745483 197.177644 
L 178.557119 196.765479 
L 178.827665 195.827709 
L 179.09821 196.438297 
L 179.368756 195.087277 
L 179.639301 194.947653 
L 179.909847 195.539998 
L 180.180392 195.104201 
L 180.450938 195.772706 
L 180.721483 194.034198 
L 181.262574 193.493446 
L 181.533119 192.889318 
L 181.803665 192.60823 
L 182.07421 192.155134 
L 182.344756 192.079618 
L 182.615301 190.083308 
L 182.885847 190.734697 
L 183.156392 190.688742 
L 183.426938 188.554911 
L 183.697483 188.776996 
L 183.968028 187.283042 
L 184.238574 187.216756 
L 184.509119 186.436844 
L 184.779665 184.963968 
L 185.05021 184.726604 
L 185.320756 183.921308 
L 185.591301 182.729797 
L 185.861847 182.203907 
L 186.132392 181.082768 
L 186.402938 181.565594 
L 186.673483 179.789776 
L 186.944028 179.159646 
L 187.214574 177.631798 
L 187.485119 177.252825 
L 187.755665 176.674178 
L 188.02621 176.808652 
L 188.296756 175.508734 
L 188.567301 173.516069 
L 188.837847 173.287754 
L 189.108392 172.110833 
L 189.378938 171.944441 
L 189.649483 170.386036 
L 190.190574 169.440441 
L 190.731665 167.508668 
L 191.00221 167.053152 
L 191.272756 165.264236 
L 191.813847 164.55519 
L 192.084392 164.983062 
L 192.625483 161.682329 
L 192.896028 162.631799 
L 193.437119 160.546283 
L 193.97821 158.299728 
L 194.248756 158.790923 
L 195.330938 157.079457 
L 195.601483 155.60133 
L 196.142574 155.308405 
L 196.683665 154.1037 
L 196.95421 154.194465 
L 197.224756 154.850452 
L 197.495301 154.491516 
L 197.765847 152.926018 
L 198.036392 152.946733 
L 198.306938 152.569729 
L 198.577483 153.860283 
L 198.848028 152.65673 
L 199.118574 152.818303 
L 199.389119 152.31287 
L 199.659665 152.4703 
L 200.200756 152.984019 
L 200.471301 152.370871 
L 200.741847 153.120734 
L 201.012392 151.94001 
L 201.282938 152.043582 
L 201.553483 152.279727 
L 201.824028 153.448023 
L 202.365119 153.41488 
L 202.635665 153.69938 
L 202.90621 154.417253 
L 203.176756 154.524521 
L 203.447301 154.227471 
L 203.988392 155.57245 
L 204.258938 156.857589 
L 204.529483 156.561766 
L 204.800028 156.894567 
L 205.070574 157.40404 
L 205.341119 158.545418 
L 205.611665 158.254532 
L 205.88221 159.687015 
L 206.152756 158.64362 
L 206.423301 160.198484 
L 206.693847 160.701769 
L 206.964392 161.548761 
L 207.234938 161.40555 
L 207.776028 163.279721 
L 208.317119 165.133837 
L 208.587665 165.51281 
L 208.85821 166.083307 
L 209.128756 165.838808 
L 209.399301 167.727819 
L 209.669847 168.015961 
L 209.940392 168.929089 
L 210.210938 169.006198 
L 210.481483 169.550016 
L 210.752028 171.445264 
L 211.022574 171.469614 
L 211.293119 171.636007 
L 211.563665 173.703518 
L 211.83421 173.988767 
L 212.645847 176.22593 
L 212.916392 176.409304 
L 212.916392 176.409304 
" style="fill:none;stroke:#d62728;stroke-linecap:square;stroke-width:1.5;"/>
   </g>
   <g id="line2d_29">
    <defs>
     <path d="M 0 3 
C 0.795609 3 1.55874 2.683901 2.12132 2.12132 
C 2.683901 1.55874 3 0.795609 3 0 
C 3 -0.795609 2.683901 -1.55874 2.12132 -2.12132 
C 1.55874 -2.683901 0.795609 -3 0 -3 
C -0.795609 -3 -1.55874 -2.683901 -2.12132 -2.12132 
C -2.683901 -1.55874 -3 -0.795609 -3 0 
C -3 0.795609 -2.683901 1.55874 -2.12132 2.12132 
C -1.55874 2.683901 -0.795609 3 0 3 
z
" id="mcb2457e3ba" style="stroke:#1f77b4;"/>
    </defs>
    <g clip-path="url(#pcd39df9889)">
     <use style="fill:#1f77b4;stroke:#1f77b4;" x="77.643665" xlink:href="#mcb2457e3ba" y="296.95689"/>
     <use style="fill:#1f77b4;stroke:#1f77b4;" x="85.534574" xlink:href="#mcb2457e3ba" y="217.35825"/>
     <use style="fill:#1f77b4;stroke:#1f77b4;" x="93.425483" xlink:href="#mcb2457e3ba" y="86.287907"/>
     <use style="fill:#1f77b4;stroke:#1f77b4;" x="101.316392" xlink:href="#mcb2457e3ba" y="53.712594"/>
     <use style="fill:#1f77b4;stroke:#1f77b4;" x="109.207301" xlink:href="#mcb2457e3ba" y="157.065869"/>
     <use style="fill:#1f77b4;stroke:#1f77b4;" x="117.09821" xlink:href="#mcb2457e3ba" y="273.409772"/>
     <use style="fill:#1f77b4;stroke:#1f77b4;" x="124.989119" xlink:href="#mcb2457e3ba" y="280.602439"/>
     <use style="fill:#1f77b4;stroke:#1f77b4;" x="132.880028" xlink:href="#mcb2457e3ba" y="151.301353"/>
     <use style="fill:#1f77b4;stroke:#1f77b4;" x="140.770938" xlink:href="#mcb2457e3ba" y="61.92825"/>
     <use style="fill:#1f77b4;stroke:#1f77b4;" x="148.661847" xlink:href="#mcb2457e3ba" y="101.102363"/>
     <use style="fill:#1f77b4;stroke:#1f77b4;" x="156.552756" xlink:href="#mcb2457e3ba" y="214.69065"/>
     <use style="fill:#1f77b4;stroke:#1f77b4;" x="164.443665" xlink:href="#mcb2457e3ba" y="289.690612"/>
     <use style="fill:#1f77b4;stroke:#1f77b4;" x="172.334574" xlink:href="#mcb2457e3ba" y="214.69065"/>
     <use style="fill:#1f77b4;stroke:#1f77b4;" x="180.225483" xlink:href="#mcb2457e3ba" y="104.868099"/>
     <use style="fill:#1f77b4;stroke:#1f77b4;" x="188.116392" xlink:href="#mcb2457e3ba" y="64.28271"/>
     <use style="fill:#1f77b4;stroke:#1f77b4;" x="196.007301" xlink:href="#mcb2457e3ba" y="146.241206"/>
     <use style="fill:#1f77b4;stroke:#1f77b4;" x="203.89821" xlink:href="#mcb2457e3ba" y="264.87825"/>
     <use style="fill:#1f77b4;stroke:#1f77b4;" x="211.789119" xlink:href="#mcb2457e3ba" y="270.560476"/>
     <use style="fill:#1f77b4;stroke:#1f77b4;" x="219.680028" xlink:href="#mcb2457e3ba" y="165.08625"/>
     <use style="fill:#1f77b4;stroke:#1f77b4;" x="227.570938" xlink:href="#mcb2457e3ba" y="68.714871"/>
     <use style="fill:#1f77b4;stroke:#1f77b4;" x="235.461847" xlink:href="#mcb2457e3ba" y="81.407508"/>
     <use style="fill:#1f77b4;stroke:#1f77b4;" x="243.352756" xlink:href="#mcb2457e3ba" y="227.17641"/>
     <use style="fill:#1f77b4;stroke:#1f77b4;" x="251.243665" xlink:href="#mcb2457e3ba" y="279.21609"/>
     <use style="fill:#1f77b4;stroke:#1f77b4;" x="259.134574" xlink:href="#mcb2457e3ba" y="226.310303"/>
     <use style="fill:#1f77b4;stroke:#1f77b4;" x="267.025483" xlink:href="#mcb2457e3ba" y="123.97065"/>
     <use style="fill:#1f77b4;stroke:#1f77b4;" x="274.916392" xlink:href="#mcb2457e3ba" y="62.710096"/>
     <use style="fill:#1f77b4;stroke:#1f77b4;" x="282.807301" xlink:href="#mcb2457e3ba" y="135.165621"/>
     <use style="fill:#1f77b4;stroke:#1f77b4;" x="290.69821" xlink:href="#mcb2457e3ba" y="259.263269"/>
     <use style="fill:#1f77b4;stroke:#1f77b4;" x="298.589119" xlink:href="#mcb2457e3ba" y="274.173547"/>
     <use style="fill:#1f77b4;stroke:#1f77b4;" x="306.480028" xlink:href="#mcb2457e3ba" y="173.3234"/>
     <use style="fill:#1f77b4;stroke:#1f77b4;" x="314.370938" xlink:href="#mcb2457e3ba" y="81.102315"/>
     <use style="fill:#1f77b4;stroke:#1f77b4;" x="322.261847" xlink:href="#mcb2457e3ba" y="83.211179"/>
     <use style="fill:#1f77b4;stroke:#1f77b4;" x="330.152756" xlink:href="#mcb2457e3ba" y="203.592039"/>
     <use style="fill:#1f77b4;stroke:#1f77b4;" x="338.043665" xlink:href="#mcb2457e3ba" y="268.044528"/>
     <use style="fill:#1f77b4;stroke:#1f77b4;" x="345.934574" xlink:href="#mcb2457e3ba" y="241.280787"/>
     <use style="fill:#1f77b4;stroke:#1f77b4;" x="353.825483" xlink:href="#mcb2457e3ba" y="128.25825"/>
     <use style="fill:#1f77b4;stroke:#1f77b4;" x="361.716392" xlink:href="#mcb2457e3ba" y="73.42281"/>
     <use style="fill:#1f77b4;stroke:#1f77b4;" x="369.607301" xlink:href="#mcb2457e3ba" y="136.544414"/>
     <use style="fill:#1f77b4;stroke:#1f77b4;" x="377.49821" xlink:href="#mcb2457e3ba" y="236.965305"/>
     <use style="fill:#1f77b4;stroke:#1f77b4;" x="385.389119" xlink:href="#mcb2457e3ba" y="257.391709"/>
     <use style="fill:#1f77b4;stroke:#1f77b4;" x="393.280028" xlink:href="#mcb2457e3ba" y="181.660766"/>
    </g>
   </g>
   <g id="line2d_30">
    <defs>
     <path d="M 0 3 
C 0.795609 3 1.55874 2.683901 2.12132 2.12132 
C 2.683901 1.55874 3 0.795609 3 0 
C 3 -0.795609 2.683901 -1.55874 2.12132 -2.12132 
C 1.55874 -2.683901 0.795609 -3 0 -3 
C -0.795609 -3 -1.55874 -2.683901 -2.12132 -2.12132 
C -2.683901 -1.55874 -3 -0.795609 -3 0 
C -3 0.795609 -2.683901 1.55874 -2.12132 2.12132 
C -1.55874 2.683901 -0.795609 3 0 3 
z
" id="m4d17eb6f4c" style="stroke:#d62728;"/>
    </defs>
    <g clip-path="url(#pcd39df9889)">
     <use style="fill:#d62728;stroke:#d62728;" x="77.643665" xlink:href="#m4d17eb6f4c" y="289.822418"/>
     <use style="fill:#d62728;stroke:#d62728;" x="85.534574" xlink:href="#m4d17eb6f4c" y="247.546314"/>
     <use style="fill:#d62728;stroke:#d62728;" x="93.425483" xlink:href="#m4d17eb6f4c" y="171.103728"/>
     <use style="fill:#d62728;stroke:#d62728;" x="101.316392" xlink:href="#m4d17eb6f4c" y="109.947554"/>
     <use style="fill:#d62728;stroke:#d62728;" x="109.207301" xlink:href="#m4d17eb6f4c" y="128.73345"/>
     <use style="fill:#d62728;stroke:#d62728;" x="117.09821" xlink:href="#m4d17eb6f4c" y="152.922163"/>
     <use style="fill:#d62728;stroke:#d62728;" x="124.989119" xlink:href="#m4d17eb6f4c" y="193.00425"/>
     <use style="fill:#d62728;stroke:#d62728;" x="132.880028" xlink:href="#m4d17eb6f4c" y="214.38825"/>
     <use style="fill:#d62728;stroke:#d62728;" x="140.770938" xlink:href="#m4d17eb6f4c" y="167.568689"/>
     <use style="fill:#d62728;stroke:#d62728;" x="148.661847" xlink:href="#m4d17eb6f4c" y="154.73481"/>
     <use style="fill:#d62728;stroke:#d62728;" x="156.552756" xlink:href="#m4d17eb6f4c" y="123.481839"/>
     <use style="fill:#d62728;stroke:#d62728;" x="164.443665" xlink:href="#m4d17eb6f4c" y="164.49225"/>
     <use style="fill:#d62728;stroke:#d62728;" x="172.334574" xlink:href="#m4d17eb6f4c" y="190.943142"/>
     <use style="fill:#d62728;stroke:#d62728;" x="180.225483" xlink:href="#m4d17eb6f4c" y="192.453293"/>
     <use style="fill:#d62728;stroke:#d62728;" x="188.116392" xlink:href="#m4d17eb6f4c" y="193.306925"/>
     <use style="fill:#d62728;stroke:#d62728;" x="196.007301" xlink:href="#m4d17eb6f4c" y="142.705303"/>
    </g>
   </g>
   <g id="patch_3">
    <path d="M 61.410938 297.54825 
L 61.410938 31.43625 
" style="fill:none;stroke:#000000;stroke-linecap:square;stroke-linejoin:miter;stroke-width:0.8;"/>
   </g>
   <g id="patch_4">
    <path d="M 418.530938 297.54825 
L 418.530938 31.43625 
" style="fill:none;stroke:#000000;stroke-linecap:square;stroke-linejoin:miter;stroke-width:0.8;"/>
   </g>
   <g id="patch_5">
    <path d="M 61.410938 297.54825 
L 418.530938 297.54825 
" style="fill:none;stroke:#000000;stroke-linecap:square;stroke-linejoin:miter;stroke-width:0.8;"/>
   </g>
   <g id="patch_6">
    <path d="M 61.410938 31.43625 
L 418.530938 31.43625 
" style="fill:none;stroke:#000000;stroke-linecap:square;stroke-linejoin:miter;stroke-width:0.8;"/>
   </g>
   <g id="text_16">
    <!-- X carrier -->
    <defs>
     <path d="M 6.296875 72.90625 
L 16.890625 72.90625 
L 35.015625 45.796875 
L 53.21875 72.90625 
L 63.8125 72.90625 
L 40.375 37.890625 
L 65.375 0 
L 54.78125 0 
L 34.28125 31 
L 13.625 0 
L 2.984375 0 
L 29 38.921875 
z
" id="DejaVuSans-58"/>
     <path d="M 48.78125 52.59375 
L 48.78125 44.1875 
Q 44.96875 46.296875 41.140625 47.34375 
Q 37.3125 48.390625 33.40625 48.390625 
Q 24.65625 48.390625 19.8125 42.84375 
Q 14.984375 37.3125 14.984375 27.296875 
Q 14.984375 17.28125 19.8125 11.734375 
Q 24.65625 6.203125 33.40625 6.203125 
Q 37.3125 6.203125 41.140625 7.25 
Q 44.96875 8.296875 48.78125 10.40625 
L 48.78125 2.09375 
Q 45.015625 0.34375 40.984375 -0.53125 
Q 36.96875 -1.421875 32.421875 -1.421875 
Q 20.0625 -1.421875 12.78125 6.34375 
Q 5.515625 14.109375 5.515625 27.296875 
Q 5.515625 40.671875 12.859375 48.328125 
Q 20.21875 56 33.015625 56 
Q 37.15625 56 41.109375 55.140625 
Q 45.0625 54.296875 48.78125 52.59375 
z
" id="DejaVuSans-63"/>
    </defs>
    <g transform="translate(188.470313 25.43625)scale(0.24 -0.24)">
     <use xlink:href="#DejaVuSans-58"/>
     <use x="68.505859" xlink:href="#DejaVuSans-20"/>
     <use x="100.292969" xlink:href="#DejaVuSans-63"/>
     <use x="155.273438" xlink:href="#DejaVuSans-61"/>
     <use x="216.552734" xlink:href="#DejaVuSans-72"/>
     <use x="257.650391" xlink:href="#DejaVuSans-72"/>
     <use x="298.763672" xlink:href="#DejaVuSans-69"/>
     <use x="326.546875" xlink:href="#DejaVuSans-65"/>
     <use x="388.070312" xlink:href="#DejaVuSans-72"/>
    </g>
   </g>
   <g id="legend_1">
    <g id="patch_7">
     <path d="M 296.074687 196.8485 
L 404.530937 196.8485 
Q 408.530937 196.8485 408.530937 192.8485 
L 408.530937 136.136 
Q 408.530937 132.136 404.530937 132.136 
L 296.074687 132.136 
Q 292.074687 132.136 292.074687 136.136 
L 292.074687 192.8485 
Q 292.074687 196.8485 296.074687 196.8485 
z
" style="fill:#ffffff;opacity:0.8;stroke:#cccccc;stroke-linejoin:miter;"/>
    </g>
    <g id="LineCollection_3">
     <path d="M 320.074687 158.332875 
L 320.074687 138.332875 
" style="fill:none;stroke:#1f77b4;stroke-width:1.5;"/>
    </g>
    <g id="line2d_31"/>
    <g id="line2d_32">
     <g>
      <use style="fill:#1f77b4;stroke:#1f77b4;" x="320.074687" xlink:href="#mcb2457e3ba" y="148.332875"/>
     </g>
    </g>
    <g id="text_17">
     <!-- Cold -->
     <defs>
      <path d="M 64.40625 67.28125 
L 64.40625 56.890625 
Q 59.421875 61.53125 53.78125 63.8125 
Q 48.140625 66.109375 41.796875 66.109375 
Q 29.296875 66.109375 22.65625 58.46875 
Q 16.015625 50.828125 16.015625 36.375 
Q 16.015625 21.96875 22.65625 14.328125 
Q 29.296875 6.6875 41.796875 6.6875 
Q 48.140625 6.6875 53.78125 8.984375 
Q 59.421875 11.28125 64.40625 15.921875 
L 64.40625 5.609375 
Q 59.234375 2.09375 53.4375 0.328125 
Q 47.65625 -1.421875 41.21875 -1.421875 
Q 24.65625 -1.421875 15.125 8.703125 
Q 5.609375 18.84375 5.609375 36.375 
Q 5.609375 53.953125 15.125 64.078125 
Q 24.65625 74.21875 41.21875 74.21875 
Q 47.75 74.21875 53.53125 72.484375 
Q 59.328125 70.75 64.40625 67.28125 
z
" id="DejaVuSans-43"/>
      <path d="M 30.609375 48.390625 
Q 23.390625 48.390625 19.1875 42.75 
Q 14.984375 37.109375 14.984375 27.296875 
Q 14.984375 17.484375 19.15625 11.84375 
Q 23.34375 6.203125 30.609375 6.203125 
Q 37.796875 6.203125 41.984375 11.859375 
Q 46.1875 17.53125 46.1875 27.296875 
Q 46.1875 37.015625 41.984375 42.703125 
Q 37.796875 48.390625 30.609375 48.390625 
z
M 30.609375 56 
Q 42.328125 56 49.015625 48.375 
Q 55.71875 40.765625 55.71875 27.296875 
Q 55.71875 13.875 49.015625 6.21875 
Q 42.328125 -1.421875 30.609375 -1.421875 
Q 18.84375 -1.421875 12.171875 6.21875 
Q 5.515625 13.875 5.515625 27.296875 
Q 5.515625 40.765625 12.171875 48.375 
Q 18.84375 56 30.609375 56 
z
" id="DejaVuSans-6f"/>
      <path d="M 45.40625 46.390625 
L 45.40625 75.984375 
L 54.390625 75.984375 
L 54.390625 0 
L 45.40625 0 
L 45.40625 8.203125 
Q 42.578125 3.328125 38.25 0.953125 
Q 33.9375 -1.421875 27.875 -1.421875 
Q 17.96875 -1.421875 11.734375 6.484375 
Q 5.515625 14.40625 5.515625 27.296875 
Q 5.515625 40.1875 11.734375 48.09375 
Q 17.96875 56 27.875 56 
Q 33.9375 56 38.25 53.625 
Q 42.578125 51.265625 45.40625 46.390625 
z
M 14.796875 27.296875 
Q 14.796875 17.390625 18.875 11.75 
Q 22.953125 6.109375 30.078125 6.109375 
Q 37.203125 6.109375 41.296875 11.75 
Q 45.40625 17.390625 45.40625 27.296875 
Q 45.40625 37.203125 41.296875 42.84375 
Q 37.203125 48.484375 30.078125 48.484375 
Q 22.953125 48.484375 18.875 42.84375 
Q 14.796875 37.203125 14.796875 27.296875 
z
" id="DejaVuSans-64"/>
     </defs>
     <g transform="translate(356.074687 155.332875)scale(0.2 -0.2)">
      <use xlink:href="#DejaVuSans-43"/>
      <use x="69.824219" xlink:href="#DejaVuSans-6f"/>
      <use x="131.005859" xlink:href="#DejaVuSans-6c"/>
      <use x="158.789062" xlink:href="#DejaVuSans-64"/>
     </g>
    </g>
    <g id="LineCollection_4">
     <path d="M 320.074687 187.689125 
L 320.074687 167.689125 
" style="fill:none;stroke:#d62728;stroke-width:1.5;"/>
    </g>
    <g id="line2d_33"/>
    <g id="line2d_34">
     <g>
      <use style="fill:#d62728;stroke:#d62728;" x="320.074687" xlink:href="#m4d17eb6f4c" y="177.689125"/>
     </g>
    </g>
    <g id="text_18">
     <!-- Hot -->
     <defs>
      <path d="M 9.8125 72.90625 
L 19.671875 72.90625 
L 19.671875 43.015625 
L 55.515625 43.015625 
L 55.515625 72.90625 
L 65.375 72.90625 
L 65.375 0 
L 55.515625 0 
L 55.515625 34.71875 
L 19.671875 34.71875 
L 19.671875 0 
L 9.8125 0 
z
" id="DejaVuSans-48"/>
      <path d="M 18.3125 70.21875 
L 18.3125 54.6875 
L 36.8125 54.6875 
L 36.8125 47.703125 
L 18.3125 47.703125 
L 18.3125 18.015625 
Q 18.3125 11.328125 20.140625 9.421875 
Q 21.96875 7.515625 27.59375 7.515625 
L 36.8125 7.515625 
L 36.8125 0 
L 27.59375 0 
Q 17.1875 0 13.234375 3.875 
Q 9.28125 7.765625 9.28125 18.015625 
L 9.28125 47.703125 
L 2.6875 47.703125 
L 2.6875 54.6875 
L 9.28125 54.6875 
L 9.28125 70.21875 
z
" id="DejaVuSans-74"/>
     </defs>
     <g transform="translate(356.074687 184.689125)scale(0.2 -0.2)">
      <use xlink:href="#DejaVuSans-48"/>
      <use x="75.195312" xlink:href="#DejaVuSans-6f"/>
      <use x="136.376953" xlink:href="#DejaVuSans-74"/>
     </g>
    </g>
   </g>
  </g>
 </g>
 <defs>
  <clipPath id="pcd39df9889">
   <rect height="266.112" width="357.12" x="61.410938" y="31.43625"/>
  </clipPath>
 </defs>
</svg>
