<?xml version="1.0" encoding="utf-8" standalone="no"?>
<!DOCTYPE svg PUBLIC "-//W3C//DTD SVG 1.1//EN"
  "http://www.w3.org/Graphics/SVG/1.1/DTD/svg11.dtd">
<!-- Created with matplotlib (http://matplotlib.org/) -->
<svg height="349pt" version="1.1" viewBox="0 0 429 349" width="429pt" xmlns="http://www.w3.org/2000/svg" xmlns:xlink="http://www.w3.org/1999/xlink">
 <defs>
  <style type="text/css">
*{stroke-linecap:butt;stroke-linejoin:round;}
  </style>
 </defs>
 <g id="figure_1">
  <g id="patch_1">
   <path d="M 0 349.665437 
L 429.230937 349.665437 
L 429.230937 0 
L 0 0 
z
" style="fill:none;"/>
  </g>
  <g id="axes_1">
   <g id="patch_2">
    <path d="M 61.410938 297.54825 
L 418.530938 297.54825 
L 418.530938 31.43625 
L 61.410938 31.43625 
z
" style="fill:none;"/>
   </g>
   <g id="matplotlib.axis_1">
    <g id="xtick_1">
     <g id="line2d_1">
      <path clip-path="url(#pcd39df9889)" d="M 61.410938 297.54825 
L 61.410938 31.43625 
" style="fill:none;stroke:#b0b0b0;stroke-linecap:square;stroke-width:0.8;"/>
     </g>
     <g id="line2d_2">
      <defs>
       <path d="M 0 0 
L 0 3.5 
" id="m005f0a59be" style="stroke:#000000;stroke-width:0.8;"/>
      </defs>
      <g>
       <use style="stroke:#000000;stroke-width:0.8;" x="61.410938" xlink:href="#m005f0a59be" y="297.54825"/>
      </g>
     </g>
     <g id="text_1">
      <!-- 0 -->
      <defs>
       <path d="M 31.78125 66.40625 
Q 24.171875 66.40625 20.328125 58.90625 
Q 16.5 51.421875 16.5 36.375 
Q 16.5 21.390625 20.328125 13.890625 
Q 24.171875 6.390625 31.78125 6.390625 
Q 39.453125 6.390625 43.28125 13.890625 
Q 47.125 21.390625 47.125 36.375 
Q 47.125 51.421875 43.28125 58.90625 
Q 39.453125 66.40625 31.78125 66.40625 
z
M 31.78125 74.21875 
Q 44.046875 74.21875 50.515625 64.515625 
Q 56.984375 54.828125 56.984375 36.375 
Q 56.984375 17.96875 50.515625 8.265625 
Q 44.046875 -1.421875 31.78125 -1.421875 
Q 19.53125 -1.421875 13.0625 8.265625 
Q 6.59375 17.96875 6.59375 36.375 
Q 6.59375 54.828125 13.0625 64.515625 
Q 19.53125 74.21875 31.78125 74.21875 
z
" id="DejaVuSans-30"/>
      </defs>
      <g transform="translate(56.639063 315.945906)scale(0.15 -0.15)">
       <use xlink:href="#DejaVuSans-30"/>
      </g>
     </g>
    </g>
    <g id="xtick_2">
     <g id="line2d_3">
      <path clip-path="url(#pcd39df9889)" d="M 124.063569 297.54825 
L 124.063569 31.43625 
" style="fill:none;stroke:#b0b0b0;stroke-linecap:square;stroke-width:0.8;"/>
     </g>
     <g id="line2d_4">
      <g>
       <use style="stroke:#000000;stroke-width:0.8;" x="124.063569" xlink:href="#m005f0a59be" y="297.54825"/>
      </g>
     </g>
     <g id="text_2">
      <!-- 50 -->
      <defs>
       <path d="M 10.796875 72.90625 
L 49.515625 72.90625 
L 49.515625 64.59375 
L 19.828125 64.59375 
L 19.828125 46.734375 
Q 21.96875 47.46875 24.109375 47.828125 
Q 26.265625 48.1875 28.421875 48.1875 
Q 40.625 48.1875 47.75 41.5 
Q 54.890625 34.8125 54.890625 23.390625 
Q 54.890625 11.625 47.5625 5.09375 
Q 40.234375 -1.421875 26.90625 -1.421875 
Q 22.3125 -1.421875 17.546875 -0.640625 
Q 12.796875 0.140625 7.71875 1.703125 
L 7.71875 11.625 
Q 12.109375 9.234375 16.796875 8.0625 
Q 21.484375 6.890625 26.703125 6.890625 
Q 35.15625 6.890625 40.078125 11.328125 
Q 45.015625 15.765625 45.015625 23.390625 
Q 45.015625 31 40.078125 35.4375 
Q 35.15625 39.890625 26.703125 39.890625 
Q 22.75 39.890625 18.8125 39.015625 
Q 14.890625 38.140625 10.796875 36.28125 
z
" id="DejaVuSans-35"/>
      </defs>
      <g transform="translate(114.519819 315.945906)scale(0.15 -0.15)">
       <use xlink:href="#DejaVuSans-35"/>
       <use x="63.623047" xlink:href="#DejaVuSans-30"/>
      </g>
     </g>
    </g>
    <g id="xtick_3">
     <g id="line2d_5">
      <path clip-path="url(#pcd39df9889)" d="M 186.716201 297.54825 
L 186.716201 31.43625 
" style="fill:none;stroke:#b0b0b0;stroke-linecap:square;stroke-width:0.8;"/>
     </g>
     <g id="line2d_6">
      <g>
       <use style="stroke:#000000;stroke-width:0.8;" x="186.716201" xlink:href="#m005f0a59be" y="297.54825"/>
      </g>
     </g>
     <g id="text_3">
      <!-- 100 -->
      <defs>
       <path d="M 12.40625 8.296875 
L 28.515625 8.296875 
L 28.515625 63.921875 
L 10.984375 60.40625 
L 10.984375 69.390625 
L 28.421875 72.90625 
L 38.28125 72.90625 
L 38.28125 8.296875 
L 54.390625 8.296875 
L 54.390625 0 
L 12.40625 0 
z
" id="DejaVuSans-31"/>
      </defs>
      <g transform="translate(172.400576 315.945906)scale(0.15 -0.15)">
       <use xlink:href="#DejaVuSans-31"/>
       <use x="63.623047" xlink:href="#DejaVuSans-30"/>
       <use x="127.246094" xlink:href="#DejaVuSans-30"/>
      </g>
     </g>
    </g>
    <g id="xtick_4">
     <g id="line2d_7">
      <path clip-path="url(#pcd39df9889)" d="M 249.368832 297.54825 
L 249.368832 31.43625 
" style="fill:none;stroke:#b0b0b0;stroke-linecap:square;stroke-width:0.8;"/>
     </g>
     <g id="line2d_8">
      <g>
       <use style="stroke:#000000;stroke-width:0.8;" x="249.368832" xlink:href="#m005f0a59be" y="297.54825"/>
      </g>
     </g>
     <g id="text_4">
      <!-- 150 -->
      <g transform="translate(235.053207 315.945906)scale(0.15 -0.15)">
       <use xlink:href="#DejaVuSans-31"/>
       <use x="63.623047" xlink:href="#DejaVuSans-35"/>
       <use x="127.246094" xlink:href="#DejaVuSans-30"/>
      </g>
     </g>
    </g>
    <g id="xtick_5">
     <g id="line2d_9">
      <path clip-path="url(#pcd39df9889)" d="M 312.021464 297.54825 
L 312.021464 31.43625 
" style="fill:none;stroke:#b0b0b0;stroke-linecap:square;stroke-width:0.8;"/>
     </g>
     <g id="line2d_10">
      <g>
       <use style="stroke:#000000;stroke-width:0.8;" x="312.021464" xlink:href="#m005f0a59be" y="297.54825"/>
      </g>
     </g>
     <g id="text_5">
      <!-- 200 -->
      <defs>
       <path d="M 19.1875 8.296875 
L 53.609375 8.296875 
L 53.609375 0 
L 7.328125 0 
L 7.328125 8.296875 
Q 12.9375 14.109375 22.625 23.890625 
Q 32.328125 33.6875 34.8125 36.53125 
Q 39.546875 41.84375 41.421875 45.53125 
Q 43.3125 49.21875 43.3125 52.78125 
Q 43.3125 58.59375 39.234375 62.25 
Q 35.15625 65.921875 28.609375 65.921875 
Q 23.96875 65.921875 18.8125 64.3125 
Q 13.671875 62.703125 7.8125 59.421875 
L 7.8125 69.390625 
Q 13.765625 71.78125 18.9375 73 
Q 24.125 74.21875 28.421875 74.21875 
Q 39.75 74.21875 46.484375 68.546875 
Q 53.21875 62.890625 53.21875 53.421875 
Q 53.21875 48.921875 51.53125 44.890625 
Q 49.859375 40.875 45.40625 35.40625 
Q 44.1875 33.984375 37.640625 27.21875 
Q 31.109375 20.453125 19.1875 8.296875 
z
" id="DejaVuSans-32"/>
      </defs>
      <g transform="translate(297.705839 315.945906)scale(0.15 -0.15)">
       <use xlink:href="#DejaVuSans-32"/>
       <use x="63.623047" xlink:href="#DejaVuSans-30"/>
       <use x="127.246094" xlink:href="#DejaVuSans-30"/>
      </g>
     </g>
    </g>
    <g id="xtick_6">
     <g id="line2d_11">
      <path clip-path="url(#pcd39df9889)" d="M 374.674095 297.54825 
L 374.674095 31.43625 
" style="fill:none;stroke:#b0b0b0;stroke-linecap:square;stroke-width:0.8;"/>
     </g>
     <g id="line2d_12">
      <g>
       <use style="stroke:#000000;stroke-width:0.8;" x="374.674095" xlink:href="#m005f0a59be" y="297.54825"/>
      </g>
     </g>
     <g id="text_6">
      <!-- 250 -->
      <g transform="translate(360.35847 315.945906)scale(0.15 -0.15)">
       <use xlink:href="#DejaVuSans-32"/>
       <use x="63.623047" xlink:href="#DejaVuSans-35"/>
       <use x="127.246094" xlink:href="#DejaVuSans-30"/>
      </g>
     </g>
    </g>
    <g id="text_7">
     <!-- Time ($\mu s$) -->
     <defs>
      <path d="M -0.296875 72.90625 
L 61.375 72.90625 
L 61.375 64.59375 
L 35.5 64.59375 
L 35.5 0 
L 25.59375 0 
L 25.59375 64.59375 
L -0.296875 64.59375 
z
" id="DejaVuSans-54"/>
      <path d="M 9.421875 54.6875 
L 18.40625 54.6875 
L 18.40625 0 
L 9.421875 0 
z
M 9.421875 75.984375 
L 18.40625 75.984375 
L 18.40625 64.59375 
L 9.421875 64.59375 
z
" id="DejaVuSans-69"/>
      <path d="M 52 44.1875 
Q 55.375 50.25 60.0625 53.125 
Q 64.75 56 71.09375 56 
Q 79.640625 56 84.28125 50.015625 
Q 88.921875 44.046875 88.921875 33.015625 
L 88.921875 0 
L 79.890625 0 
L 79.890625 32.71875 
Q 79.890625 40.578125 77.09375 44.375 
Q 74.3125 48.1875 68.609375 48.1875 
Q 61.625 48.1875 57.5625 43.546875 
Q 53.515625 38.921875 53.515625 30.90625 
L 53.515625 0 
L 44.484375 0 
L 44.484375 32.71875 
Q 44.484375 40.625 41.703125 44.40625 
Q 38.921875 48.1875 33.109375 48.1875 
Q 26.21875 48.1875 22.15625 43.53125 
Q 18.109375 38.875 18.109375 30.90625 
L 18.109375 0 
L 9.078125 0 
L 9.078125 54.6875 
L 18.109375 54.6875 
L 18.109375 46.1875 
Q 21.1875 51.21875 25.484375 53.609375 
Q 29.78125 56 35.6875 56 
Q 41.65625 56 45.828125 52.96875 
Q 50 49.953125 52 44.1875 
z
" id="DejaVuSans-6d"/>
      <path d="M 56.203125 29.59375 
L 56.203125 25.203125 
L 14.890625 25.203125 
Q 15.484375 15.921875 20.484375 11.0625 
Q 25.484375 6.203125 34.421875 6.203125 
Q 39.59375 6.203125 44.453125 7.46875 
Q 49.3125 8.734375 54.109375 11.28125 
L 54.109375 2.78125 
Q 49.265625 0.734375 44.1875 -0.34375 
Q 39.109375 -1.421875 33.890625 -1.421875 
Q 20.796875 -1.421875 13.15625 6.1875 
Q 5.515625 13.8125 5.515625 26.8125 
Q 5.515625 40.234375 12.765625 48.109375 
Q 20.015625 56 32.328125 56 
Q 43.359375 56 49.78125 48.890625 
Q 56.203125 41.796875 56.203125 29.59375 
z
M 47.21875 32.234375 
Q 47.125 39.59375 43.09375 43.984375 
Q 39.0625 48.390625 32.421875 48.390625 
Q 24.90625 48.390625 20.390625 44.140625 
Q 15.875 39.890625 15.1875 32.171875 
z
" id="DejaVuSans-65"/>
      <path id="DejaVuSans-20"/>
      <path d="M 31 75.875 
Q 24.46875 64.65625 21.28125 53.65625 
Q 18.109375 42.671875 18.109375 31.390625 
Q 18.109375 20.125 21.3125 9.0625 
Q 24.515625 -2 31 -13.1875 
L 23.1875 -13.1875 
Q 15.875 -1.703125 12.234375 9.375 
Q 8.59375 20.453125 8.59375 31.390625 
Q 8.59375 42.28125 12.203125 53.3125 
Q 15.828125 64.359375 23.1875 75.875 
z
" id="DejaVuSans-28"/>
      <path d="M -1.3125 -20.796875 
L 13.375 54.6875 
L 22.40625 54.6875 
L 15.765625 20.65625 
Q 15.578125 19.625 15.421875 18.359375 
Q 15.28125 17.09375 15.28125 15.828125 
Q 15.28125 11.28125 18.140625 8.828125 
Q 21 6.390625 26.3125 6.390625 
Q 33.546875 6.390625 37.984375 10.484375 
Q 42.4375 14.59375 44 22.796875 
L 50.203125 54.6875 
L 59.1875 54.6875 
L 51.03125 12.640625 
Q 50.828125 11.71875 50.75 11.03125 
Q 50.6875 10.359375 50.6875 9.8125 
Q 50.6875 8.296875 51.296875 7.59375 
Q 51.90625 6.890625 53.21875 6.890625 
Q 53.71875 6.890625 54.5625 7.125 
Q 55.421875 7.375 56.984375 8.015625 
L 55.609375 0.78125 
Q 53.46875 -0.296875 51.515625 -0.859375 
Q 49.5625 -1.421875 47.703125 -1.421875 
Q 44.484375 -1.421875 42.65625 0.625 
Q 40.828125 2.6875 40.828125 6.296875 
Q 38.09375 2.390625 34.296875 0.484375 
Q 30.515625 -1.421875 25.390625 -1.421875 
Q 20.84375 -1.421875 17.453125 0.671875 
Q 14.0625 2.78125 12.984375 6.203125 
L 7.71875 -20.796875 
z
" id="DejaVuSans-Oblique-3bc"/>
      <path d="M 50 53.078125 
L 48.296875 44.578125 
Q 44.734375 46.53125 40.765625 47.5 
Q 36.8125 48.484375 32.625 48.484375 
Q 25.53125 48.484375 21.453125 46.0625 
Q 17.390625 43.65625 17.390625 39.5 
Q 17.390625 34.671875 26.859375 32.078125 
Q 27.59375 31.890625 27.9375 31.78125 
L 30.8125 30.90625 
Q 39.796875 28.421875 42.796875 25.6875 
Q 45.796875 22.953125 45.796875 18.21875 
Q 45.796875 9.515625 38.890625 4.046875 
Q 31.984375 -1.421875 20.796875 -1.421875 
Q 16.453125 -1.421875 11.671875 -0.578125 
Q 6.890625 0.25 1.125 2 
L 2.875 11.28125 
Q 7.8125 8.734375 12.59375 7.421875 
Q 17.390625 6.109375 21.78125 6.109375 
Q 28.375 6.109375 32.5 8.9375 
Q 36.625 11.765625 36.625 16.109375 
Q 36.625 20.796875 25.78125 23.6875 
L 24.859375 23.921875 
L 21.78125 24.703125 
Q 14.9375 26.515625 11.765625 29.46875 
Q 8.59375 32.421875 8.59375 37.015625 
Q 8.59375 45.75 15.15625 50.875 
Q 21.734375 56 33.015625 56 
Q 37.453125 56 41.671875 55.265625 
Q 45.90625 54.546875 50 53.078125 
z
" id="DejaVuSans-Oblique-73"/>
      <path d="M 8.015625 75.875 
L 15.828125 75.875 
Q 23.140625 64.359375 26.78125 53.3125 
Q 30.421875 42.28125 30.421875 31.390625 
Q 30.421875 20.453125 26.78125 9.375 
Q 23.140625 -1.703125 15.828125 -13.1875 
L 8.015625 -13.1875 
Q 14.5 -2 17.703125 9.0625 
Q 20.90625 20.125 20.90625 31.390625 
Q 20.90625 42.671875 17.703125 53.65625 
Q 14.5 64.65625 8.015625 75.875 
z
" id="DejaVuSans-29"/>
     </defs>
     <g transform="translate(192.570938 338.265437)scale(0.2 -0.2)">
      <use transform="translate(0 0.015625)" xlink:href="#DejaVuSans-54"/>
      <use transform="translate(61.083984 0.015625)" xlink:href="#DejaVuSans-69"/>
      <use transform="translate(88.867188 0.015625)" xlink:href="#DejaVuSans-6d"/>
      <use transform="translate(186.279297 0.015625)" xlink:href="#DejaVuSans-65"/>
      <use transform="translate(247.802734 0.015625)" xlink:href="#DejaVuSans-20"/>
      <use transform="translate(279.589844 0.015625)" xlink:href="#DejaVuSans-28"/>
      <use transform="translate(318.603516 0.015625)" xlink:href="#DejaVuSans-Oblique-3bc"/>
      <use transform="translate(382.226562 0.015625)" xlink:href="#DejaVuSans-Oblique-73"/>
      <use transform="translate(434.326172 0.015625)" xlink:href="#DejaVuSans-29"/>
     </g>
    </g>
   </g>
   <g id="matplotlib.axis_2">
    <g id="ytick_1">
     <g id="line2d_13">
      <path clip-path="url(#pcd39df9889)" d="M 61.410938 297.54825 
L 418.530938 297.54825 
" style="fill:none;stroke:#b0b0b0;stroke-linecap:square;stroke-width:0.8;"/>
     </g>
     <g id="line2d_14">
      <defs>
       <path d="M 0 0 
L -3.5 0 
" id="mc3ce260a5b" style="stroke:#000000;stroke-width:0.8;"/>
      </defs>
      <g>
       <use style="stroke:#000000;stroke-width:0.8;" x="61.410938" xlink:href="#mc3ce260a5b" y="297.54825"/>
      </g>
     </g>
     <g id="text_8">
      <!-- 0.0 -->
      <defs>
       <path d="M 10.6875 12.40625 
L 21 12.40625 
L 21 0 
L 10.6875 0 
z
" id="DejaVuSans-2e"/>
      </defs>
      <g transform="translate(30.55625 303.247078)scale(0.15 -0.15)">
       <use xlink:href="#DejaVuSans-30"/>
       <use x="63.623047" xlink:href="#DejaVuSans-2e"/>
       <use x="95.410156" xlink:href="#DejaVuSans-30"/>
      </g>
     </g>
    </g>
    <g id="ytick_2">
     <g id="line2d_15">
      <path clip-path="url(#pcd39df9889)" d="M 61.410938 244.32585 
L 418.530938 244.32585 
" style="fill:none;stroke:#b0b0b0;stroke-linecap:square;stroke-width:0.8;"/>
     </g>
     <g id="line2d_16">
      <g>
       <use style="stroke:#000000;stroke-width:0.8;" x="61.410938" xlink:href="#mc3ce260a5b" y="244.32585"/>
      </g>
     </g>
     <g id="text_9">
      <!-- 0.2 -->
      <g transform="translate(30.55625 250.024678)scale(0.15 -0.15)">
       <use xlink:href="#DejaVuSans-30"/>
       <use x="63.623047" xlink:href="#DejaVuSans-2e"/>
       <use x="95.410156" xlink:href="#DejaVuSans-32"/>
      </g>
     </g>
    </g>
    <g id="ytick_3">
     <g id="line2d_17">
      <path clip-path="url(#pcd39df9889)" d="M 61.410938 191.10345 
L 418.530938 191.10345 
" style="fill:none;stroke:#b0b0b0;stroke-linecap:square;stroke-width:0.8;"/>
     </g>
     <g id="line2d_18">
      <g>
       <use style="stroke:#000000;stroke-width:0.8;" x="61.410938" xlink:href="#mc3ce260a5b" y="191.10345"/>
      </g>
     </g>
     <g id="text_10">
      <!-- 0.4 -->
      <defs>
       <path d="M 37.796875 64.3125 
L 12.890625 25.390625 
L 37.796875 25.390625 
z
M 35.203125 72.90625 
L 47.609375 72.90625 
L 47.609375 25.390625 
L 58.015625 25.390625 
L 58.015625 17.1875 
L 47.609375 17.1875 
L 47.609375 0 
L 37.796875 0 
L 37.796875 17.1875 
L 4.890625 17.1875 
L 4.890625 26.703125 
z
" id="DejaVuSans-34"/>
      </defs>
      <g transform="translate(30.55625 196.802278)scale(0.15 -0.15)">
       <use xlink:href="#DejaVuSans-30"/>
       <use x="63.623047" xlink:href="#DejaVuSans-2e"/>
       <use x="95.410156" xlink:href="#DejaVuSans-34"/>
      </g>
     </g>
    </g>
    <g id="ytick_4">
     <g id="line2d_19">
      <path clip-path="url(#pcd39df9889)" d="M 61.410938 137.88105 
L 418.530938 137.88105 
" style="fill:none;stroke:#b0b0b0;stroke-linecap:square;stroke-width:0.8;"/>
     </g>
     <g id="line2d_20">
      <g>
       <use style="stroke:#000000;stroke-width:0.8;" x="61.410938" xlink:href="#mc3ce260a5b" y="137.88105"/>
      </g>
     </g>
     <g id="text_11">
      <!-- 0.6 -->
      <defs>
       <path d="M 33.015625 40.375 
Q 26.375 40.375 22.484375 35.828125 
Q 18.609375 31.296875 18.609375 23.390625 
Q 18.609375 15.53125 22.484375 10.953125 
Q 26.375 6.390625 33.015625 6.390625 
Q 39.65625 6.390625 43.53125 10.953125 
Q 47.40625 15.53125 47.40625 23.390625 
Q 47.40625 31.296875 43.53125 35.828125 
Q 39.65625 40.375 33.015625 40.375 
z
M 52.59375 71.296875 
L 52.59375 62.3125 
Q 48.875 64.0625 45.09375 64.984375 
Q 41.3125 65.921875 37.59375 65.921875 
Q 27.828125 65.921875 22.671875 59.328125 
Q 17.53125 52.734375 16.796875 39.40625 
Q 19.671875 43.65625 24.015625 45.921875 
Q 28.375 48.1875 33.59375 48.1875 
Q 44.578125 48.1875 50.953125 41.515625 
Q 57.328125 34.859375 57.328125 23.390625 
Q 57.328125 12.15625 50.6875 5.359375 
Q 44.046875 -1.421875 33.015625 -1.421875 
Q 20.359375 -1.421875 13.671875 8.265625 
Q 6.984375 17.96875 6.984375 36.375 
Q 6.984375 53.65625 15.1875 63.9375 
Q 23.390625 74.21875 37.203125 74.21875 
Q 40.921875 74.21875 44.703125 73.484375 
Q 48.484375 72.75 52.59375 71.296875 
z
" id="DejaVuSans-36"/>
      </defs>
      <g transform="translate(30.55625 143.579878)scale(0.15 -0.15)">
       <use xlink:href="#DejaVuSans-30"/>
       <use x="63.623047" xlink:href="#DejaVuSans-2e"/>
       <use x="95.410156" xlink:href="#DejaVuSans-36"/>
      </g>
     </g>
    </g>
    <g id="ytick_5">
     <g id="line2d_21">
      <path clip-path="url(#pcd39df9889)" d="M 61.410938 84.65865 
L 418.530938 84.65865 
" style="fill:none;stroke:#b0b0b0;stroke-linecap:square;stroke-width:0.8;"/>
     </g>
     <g id="line2d_22">
      <g>
       <use style="stroke:#000000;stroke-width:0.8;" x="61.410938" xlink:href="#mc3ce260a5b" y="84.65865"/>
      </g>
     </g>
     <g id="text_12">
      <!-- 0.8 -->
      <defs>
       <path d="M 31.78125 34.625 
Q 24.75 34.625 20.71875 30.859375 
Q 16.703125 27.09375 16.703125 20.515625 
Q 16.703125 13.921875 20.71875 10.15625 
Q 24.75 6.390625 31.78125 6.390625 
Q 38.8125 6.390625 42.859375 10.171875 
Q 46.921875 13.96875 46.921875 20.515625 
Q 46.921875 27.09375 42.890625 30.859375 
Q 38.875 34.625 31.78125 34.625 
z
M 21.921875 38.8125 
Q 15.578125 40.375 12.03125 44.71875 
Q 8.5 49.078125 8.5 55.328125 
Q 8.5 64.0625 14.71875 69.140625 
Q 20.953125 74.21875 31.78125 74.21875 
Q 42.671875 74.21875 48.875 69.140625 
Q 55.078125 64.0625 55.078125 55.328125 
Q 55.078125 49.078125 51.53125 44.71875 
Q 48 40.375 41.703125 38.8125 
Q 48.828125 37.15625 52.796875 32.3125 
Q 56.78125 27.484375 56.78125 20.515625 
Q 56.78125 9.90625 50.3125 4.234375 
Q 43.84375 -1.421875 31.78125 -1.421875 
Q 19.734375 -1.421875 13.25 4.234375 
Q 6.78125 9.90625 6.78125 20.515625 
Q 6.78125 27.484375 10.78125 32.3125 
Q 14.796875 37.15625 21.921875 38.8125 
z
M 18.3125 54.390625 
Q 18.3125 48.734375 21.84375 45.5625 
Q 25.390625 42.390625 31.78125 42.390625 
Q 38.140625 42.390625 41.71875 45.5625 
Q 45.3125 48.734375 45.3125 54.390625 
Q 45.3125 60.0625 41.71875 63.234375 
Q 38.140625 66.40625 31.78125 66.40625 
Q 25.390625 66.40625 21.84375 63.234375 
Q 18.3125 60.0625 18.3125 54.390625 
z
" id="DejaVuSans-38"/>
      </defs>
      <g transform="translate(30.55625 90.357478)scale(0.15 -0.15)">
       <use xlink:href="#DejaVuSans-30"/>
       <use x="63.623047" xlink:href="#DejaVuSans-2e"/>
       <use x="95.410156" xlink:href="#DejaVuSans-38"/>
      </g>
     </g>
    </g>
    <g id="ytick_6">
     <g id="line2d_23">
      <path clip-path="url(#pcd39df9889)" d="M 61.410938 31.43625 
L 418.530938 31.43625 
" style="fill:none;stroke:#b0b0b0;stroke-linecap:square;stroke-width:0.8;"/>
     </g>
     <g id="line2d_24">
      <g>
       <use style="stroke:#000000;stroke-width:0.8;" x="61.410938" xlink:href="#mc3ce260a5b" y="31.43625"/>
      </g>
     </g>
     <g id="text_13">
      <!-- 1.0 -->
      <g transform="translate(30.55625 37.135078)scale(0.15 -0.15)">
       <use xlink:href="#DejaVuSans-31"/>
       <use x="63.623047" xlink:href="#DejaVuSans-2e"/>
       <use x="95.410156" xlink:href="#DejaVuSans-30"/>
      </g>
     </g>
    </g>
    <g id="text_14">
     <!-- Survival -->
     <defs>
      <path d="M 53.515625 70.515625 
L 53.515625 60.890625 
Q 47.90625 63.578125 42.921875 64.890625 
Q 37.9375 66.21875 33.296875 66.21875 
Q 25.25 66.21875 20.875 63.09375 
Q 16.5 59.96875 16.5 54.203125 
Q 16.5 49.359375 19.40625 46.890625 
Q 22.3125 44.4375 30.421875 42.921875 
L 36.375 41.703125 
Q 47.40625 39.59375 52.65625 34.296875 
Q 57.90625 29 57.90625 20.125 
Q 57.90625 9.515625 50.796875 4.046875 
Q 43.703125 -1.421875 29.984375 -1.421875 
Q 24.8125 -1.421875 18.96875 -0.25 
Q 13.140625 0.921875 6.890625 3.21875 
L 6.890625 13.375 
Q 12.890625 10.015625 18.65625 8.296875 
Q 24.421875 6.59375 29.984375 6.59375 
Q 38.421875 6.59375 43.015625 9.90625 
Q 47.609375 13.234375 47.609375 19.390625 
Q 47.609375 24.75 44.3125 27.78125 
Q 41.015625 30.8125 33.5 32.328125 
L 27.484375 33.5 
Q 16.453125 35.6875 11.515625 40.375 
Q 6.59375 45.0625 6.59375 53.421875 
Q 6.59375 63.09375 13.40625 68.65625 
Q 20.21875 74.21875 32.171875 74.21875 
Q 37.3125 74.21875 42.625 73.28125 
Q 47.953125 72.359375 53.515625 70.515625 
z
" id="DejaVuSans-53"/>
      <path d="M 8.5 21.578125 
L 8.5 54.6875 
L 17.484375 54.6875 
L 17.484375 21.921875 
Q 17.484375 14.15625 20.5 10.265625 
Q 23.53125 6.390625 29.59375 6.390625 
Q 36.859375 6.390625 41.078125 11.03125 
Q 45.3125 15.671875 45.3125 23.6875 
L 45.3125 54.6875 
L 54.296875 54.6875 
L 54.296875 0 
L 45.3125 0 
L 45.3125 8.40625 
Q 42.046875 3.421875 37.71875 1 
Q 33.40625 -1.421875 27.6875 -1.421875 
Q 18.265625 -1.421875 13.375 4.4375 
Q 8.5 10.296875 8.5 21.578125 
z
M 31.109375 56 
z
" id="DejaVuSans-75"/>
      <path d="M 41.109375 46.296875 
Q 39.59375 47.171875 37.8125 47.578125 
Q 36.03125 48 33.890625 48 
Q 26.265625 48 22.1875 43.046875 
Q 18.109375 38.09375 18.109375 28.8125 
L 18.109375 0 
L 9.078125 0 
L 9.078125 54.6875 
L 18.109375 54.6875 
L 18.109375 46.1875 
Q 20.953125 51.171875 25.484375 53.578125 
Q 30.03125 56 36.53125 56 
Q 37.453125 56 38.578125 55.875 
Q 39.703125 55.765625 41.0625 55.515625 
z
" id="DejaVuSans-72"/>
      <path d="M 2.984375 54.6875 
L 12.5 54.6875 
L 29.59375 8.796875 
L 46.6875 54.6875 
L 56.203125 54.6875 
L 35.6875 0 
L 23.484375 0 
z
" id="DejaVuSans-76"/>
      <path d="M 34.28125 27.484375 
Q 23.390625 27.484375 19.1875 25 
Q 14.984375 22.515625 14.984375 16.5 
Q 14.984375 11.71875 18.140625 8.90625 
Q 21.296875 6.109375 26.703125 6.109375 
Q 34.1875 6.109375 38.703125 11.40625 
Q 43.21875 16.703125 43.21875 25.484375 
L 43.21875 27.484375 
z
M 52.203125 31.203125 
L 52.203125 0 
L 43.21875 0 
L 43.21875 8.296875 
Q 40.140625 3.328125 35.546875 0.953125 
Q 30.953125 -1.421875 24.3125 -1.421875 
Q 15.921875 -1.421875 10.953125 3.296875 
Q 6 8.015625 6 15.921875 
Q 6 25.140625 12.171875 29.828125 
Q 18.359375 34.515625 30.609375 34.515625 
L 43.21875 34.515625 
L 43.21875 35.40625 
Q 43.21875 41.609375 39.140625 45 
Q 35.0625 48.390625 27.6875 48.390625 
Q 23 48.390625 18.546875 47.265625 
Q 14.109375 46.140625 10.015625 43.890625 
L 10.015625 52.203125 
Q 14.9375 54.109375 19.578125 55.046875 
Q 24.21875 56 28.609375 56 
Q 40.484375 56 46.34375 49.84375 
Q 52.203125 43.703125 52.203125 31.203125 
z
" id="DejaVuSans-61"/>
      <path d="M 9.421875 75.984375 
L 18.40625 75.984375 
L 18.40625 0 
L 9.421875 0 
z
" id="DejaVuSans-6c"/>
     </defs>
     <g transform="translate(22.396875 204.811)rotate(-90)scale(0.2 -0.2)">
      <use xlink:href="#DejaVuSans-53"/>
      <use x="63.476562" xlink:href="#DejaVuSans-75"/>
      <use x="126.855469" xlink:href="#DejaVuSans-72"/>
      <use x="167.96875" xlink:href="#DejaVuSans-76"/>
      <use x="227.148438" xlink:href="#DejaVuSans-69"/>
      <use x="254.931641" xlink:href="#DejaVuSans-76"/>
      <use x="314.111328" xlink:href="#DejaVuSans-61"/>
      <use x="375.390625" xlink:href="#DejaVuSans-6c"/>
     </g>
    </g>
   </g>
   <g id="LineCollection_1">
    <path clip-path="url(#pcd39df9889)" d="M 61.410938 297.54825 
L 61.410938 296.36553 
" style="fill:none;stroke:#1f77b4;stroke-width:1.5;"/>
    <path clip-path="url(#pcd39df9889)" d="M 70.182306 238.670718 
L 70.182306 223.917337 
" style="fill:none;stroke:#1f77b4;stroke-width:1.5;"/>
    <path clip-path="url(#pcd39df9889)" d="M 78.953674 141.882825 
L 78.953674 124.487087 
" style="fill:none;stroke:#1f77b4;stroke-width:1.5;"/>
    <path clip-path="url(#pcd39df9889)" d="M 87.725043 84.154221 
L 87.725043 71.133744 
" style="fill:none;stroke:#1f77b4;stroke-width:1.5;"/>
    <path clip-path="url(#pcd39df9889)" d="M 96.496411 138.650432 
L 96.496411 121.807373 
" style="fill:none;stroke:#1f77b4;stroke-width:1.5;"/>
    <path clip-path="url(#pcd39df9889)" d="M 105.26778 240.142168 
L 105.26778 225.281111 
" style="fill:none;stroke:#1f77b4;stroke-width:1.5;"/>
    <path clip-path="url(#pcd39df9889)" d="M 114.039148 290.862871 
L 114.039148 284.216355 
" style="fill:none;stroke:#1f77b4;stroke-width:1.5;"/>
    <path clip-path="url(#pcd39df9889)" d="M 122.810516 247.929659 
L 122.810516 232.93952 
" style="fill:none;stroke:#1f77b4;stroke-width:1.5;"/>
    <path clip-path="url(#pcd39df9889)" d="M 131.581885 140.106688 
L 131.581885 123.458612 
" style="fill:none;stroke:#1f77b4;stroke-width:1.5;"/>
    <path clip-path="url(#pcd39df9889)" d="M 140.353253 81.730913 
L 140.353253 69.121473 
" style="fill:none;stroke:#1f77b4;stroke-width:1.5;"/>
    <path clip-path="url(#pcd39df9889)" d="M 149.124622 114.158834 
L 149.124622 98.25448 
" style="fill:none;stroke:#1f77b4;stroke-width:1.5;"/>
    <path clip-path="url(#pcd39df9889)" d="M 157.89599 221.938307 
L 157.89599 205.151999 
" style="fill:none;stroke:#1f77b4;stroke-width:1.5;"/>
    <path clip-path="url(#pcd39df9889)" d="M 166.667359 286.459702 
L 166.667359 278.573936 
" style="fill:none;stroke:#1f77b4;stroke-width:1.5;"/>
    <path clip-path="url(#pcd39df9889)" d="M 175.438727 253.258605 
L 175.438727 239.659869 
" style="fill:none;stroke:#1f77b4;stroke-width:1.5;"/>
    <path clip-path="url(#pcd39df9889)" d="M 184.210095 159.457134 
L 184.210095 142.116688 
" style="fill:none;stroke:#1f77b4;stroke-width:1.5;"/>
    <path clip-path="url(#pcd39df9889)" d="M 192.981464 78.827117 
L 192.981464 66.017383 
" style="fill:none;stroke:#1f77b4;stroke-width:1.5;"/>
    <path clip-path="url(#pcd39df9889)" d="M 201.752832 121.04852 
L 201.752832 104.773619 
" style="fill:none;stroke:#1f77b4;stroke-width:1.5;"/>
    <path clip-path="url(#pcd39df9889)" d="M 210.524201 204.298467 
L 210.524201 187.092829 
" style="fill:none;stroke:#1f77b4;stroke-width:1.5;"/>
    <path clip-path="url(#pcd39df9889)" d="M 219.295569 281.282952 
L 219.295569 271.669114 
" style="fill:none;stroke:#1f77b4;stroke-width:1.5;"/>
    <path clip-path="url(#pcd39df9889)" d="M 228.066938 254.797461 
L 228.066938 241.090618 
" style="fill:none;stroke:#1f77b4;stroke-width:1.5;"/>
    <path clip-path="url(#pcd39df9889)" d="M 236.838306 182.460282 
L 236.838306 164.180939 
" style="fill:none;stroke:#1f77b4;stroke-width:1.5;"/>
    <path clip-path="url(#pcd39df9889)" d="M 245.609674 104.446176 
L 245.609674 89.084918 
" style="fill:none;stroke:#1f77b4;stroke-width:1.5;"/>
    <path clip-path="url(#pcd39df9889)" d="M 254.381043 104.928509 
L 254.381043 89.852956 
" style="fill:none;stroke:#1f77b4;stroke-width:1.5;"/>
    <path clip-path="url(#pcd39df9889)" d="M 263.152411 173.595158 
L 263.152411 156.488978 
" style="fill:none;stroke:#1f77b4;stroke-width:1.5;"/>
    <path clip-path="url(#pcd39df9889)" d="M 271.92378 252.690375 
L 271.92378 238.586645 
" style="fill:none;stroke:#1f77b4;stroke-width:1.5;"/>
    <path clip-path="url(#pcd39df9889)" d="M 280.695148 262.334308 
L 280.695148 249.528923 
" style="fill:none;stroke:#1f77b4;stroke-width:1.5;"/>
    <path clip-path="url(#pcd39df9889)" d="M 289.466516 200.542209 
L 289.466516 183.298712 
" style="fill:none;stroke:#1f77b4;stroke-width:1.5;"/>
    <path clip-path="url(#pcd39df9889)" d="M 298.237885 118.004644 
L 298.237885 101.61876 
" style="fill:none;stroke:#1f77b4;stroke-width:1.5;"/>
    <path clip-path="url(#pcd39df9889)" d="M 307.009253 88.62825 
L 307.009253 74.904007 
" style="fill:none;stroke:#1f77b4;stroke-width:1.5;"/>
    <path clip-path="url(#pcd39df9889)" d="M 315.780622 168.096664 
L 315.780622 151.072229 
" style="fill:none;stroke:#1f77b4;stroke-width:1.5;"/>
    <path clip-path="url(#pcd39df9889)" d="M 324.55199 230.642082 
L 324.55199 215.117304 
" style="fill:none;stroke:#1f77b4;stroke-width:1.5;"/>
    <path clip-path="url(#pcd39df9889)" d="M 333.323359 257.784345 
L 333.323359 244.172955 
" style="fill:none;stroke:#1f77b4;stroke-width:1.5;"/>
    <path clip-path="url(#pcd39df9889)" d="M 342.094727 206.946448 
L 342.094727 189.754052 
" style="fill:none;stroke:#1f77b4;stroke-width:1.5;"/>
    <path clip-path="url(#pcd39df9889)" d="M 350.866095 140.128496 
L 350.866095 122.634584 
" style="fill:none;stroke:#1f77b4;stroke-width:1.5;"/>
    <path clip-path="url(#pcd39df9889)" d="M 359.637464 111.058594 
L 359.637464 95.86627 
" style="fill:none;stroke:#1f77b4;stroke-width:1.5;"/>
    <path clip-path="url(#pcd39df9889)" d="M 368.408832 136.855651 
L 368.408832 119.440849 
" style="fill:none;stroke:#1f77b4;stroke-width:1.5;"/>
    <path clip-path="url(#pcd39df9889)" d="M 377.180201 212.000421 
L 377.180201 195.043599 
" style="fill:none;stroke:#1f77b4;stroke-width:1.5;"/>
    <path clip-path="url(#pcd39df9889)" d="M 385.951569 253.821116 
L 385.951569 239.842559 
" style="fill:none;stroke:#1f77b4;stroke-width:1.5;"/>
    <path clip-path="url(#pcd39df9889)" d="M 394.722938 222.315599 
L 394.722938 205.181516 
" style="fill:none;stroke:#1f77b4;stroke-width:1.5;"/>
    <path clip-path="url(#pcd39df9889)" d="M 403.494306 176.566199 
L 403.494306 159.21265 
" style="fill:none;stroke:#1f77b4;stroke-width:1.5;"/>
    <path clip-path="url(#pcd39df9889)" d="M 412.265674 111.187296 
L 412.265674 95.164946 
" style="fill:none;stroke:#1f77b4;stroke-width:1.5;"/>
   </g>
   <g id="LineCollection_2">
    <path clip-path="url(#pcd39df9889)" d="M 61.410938 293.318268 
L 61.410938 286.326567 
" style="fill:none;stroke:#d62728;stroke-width:1.5;"/>
    <path clip-path="url(#pcd39df9889)" d="M 70.182306 287.666289 
L 70.182306 278.702211 
" style="fill:none;stroke:#d62728;stroke-width:1.5;"/>
    <path clip-path="url(#pcd39df9889)" d="M 78.953674 267.770786 
L 78.953674 254.070164 
" style="fill:none;stroke:#d62728;stroke-width:1.5;"/>
    <path clip-path="url(#pcd39df9889)" d="M 87.725043 246.909551 
L 87.725043 229.357063 
" style="fill:none;stroke:#d62728;stroke-width:1.5;"/>
    <path clip-path="url(#pcd39df9889)" d="M 96.496411 233.123371 
L 96.496411 214.992664 
" style="fill:none;stroke:#d62728;stroke-width:1.5;"/>
    <path clip-path="url(#pcd39df9889)" d="M 105.26778 237.526876 
L 105.26778 219.977624 
" style="fill:none;stroke:#d62728;stroke-width:1.5;"/>
    <path clip-path="url(#pcd39df9889)" d="M 114.039148 252.646454 
L 114.039148 235.66625 
" style="fill:none;stroke:#d62728;stroke-width:1.5;"/>
    <path clip-path="url(#pcd39df9889)" d="M 122.810516 238.707578 
L 122.810516 220.998606 
" style="fill:none;stroke:#d62728;stroke-width:1.5;"/>
    <path clip-path="url(#pcd39df9889)" d="M 131.581885 257.409689 
L 131.581885 241.072901 
" style="fill:none;stroke:#d62728;stroke-width:1.5;"/>
    <path clip-path="url(#pcd39df9889)" d="M 140.353253 249.116787 
L 140.353253 231.931713 
" style="fill:none;stroke:#d62728;stroke-width:1.5;"/>
    <path clip-path="url(#pcd39df9889)" d="M 149.124622 247.152417 
L 149.124622 229.080723 
" style="fill:none;stroke:#d62728;stroke-width:1.5;"/>
    <path clip-path="url(#pcd39df9889)" d="M 157.89599 256.880137 
L 157.89599 240.355821 
" style="fill:none;stroke:#d62728;stroke-width:1.5;"/>
    <path clip-path="url(#pcd39df9889)" d="M 166.667359 261.433995 
L 166.667359 245.534505 
" style="fill:none;stroke:#d62728;stroke-width:1.5;"/>
    <path clip-path="url(#pcd39df9889)" d="M 175.438727 265.683689 
L 175.438727 250.750774 
" style="fill:none;stroke:#d62728;stroke-width:1.5;"/>
    <path clip-path="url(#pcd39df9889)" d="M 184.210095 244.751514 
L 184.210095 226.279257 
" style="fill:none;stroke:#d62728;stroke-width:1.5;"/>
    <path clip-path="url(#pcd39df9889)" d="M 192.981464 250.124002 
L 192.981464 232.652498 
" style="fill:none;stroke:#d62728;stroke-width:1.5;"/>
   </g>
   <g id="line2d_25">
    <path clip-path="url(#pcd39df9889)" d="M 61.410938 297.056409 
L 62.482298 297.056409 
L 62.839418 296.660171 
L 63.196538 294.990571 
L 63.553658 294.71004 
L 64.267898 290.69143 
L 64.625018 289.764275 
L 64.982138 286.416117 
L 65.339258 284.66004 
L 66.767738 275.15504 
L 67.124858 270.988175 
L 67.481978 268.619835 
L 70.338938 237.631353 
L 74.267258 185.478272 
L 78.195578 129.660683 
L 81.052538 93.797354 
L 82.123898 83.187514 
L 82.838138 75.716065 
L 83.195258 72.292665 
L 83.552378 70.355349 
L 83.909498 67.691556 
L 84.266618 66.057001 
L 84.623738 62.782088 
L 84.980858 60.967987 
L 85.337978 57.691775 
L 85.695098 56.038556 
L 86.052218 54.96688 
L 86.409338 52.756218 
L 86.766458 52.756218 
L 87.837818 50.219244 
L 88.194938 49.652478 
L 88.552058 49.89013 
L 88.909178 49.444621 
L 89.980538 50.515744 
L 90.337658 51.317739 
L 90.694778 53.057647 
L 91.051898 53.374191 
L 91.409018 54.54934 
L 92.480378 60.600774 
L 93.194618 65.458764 
L 94.265978 73.111909 
L 94.980218 80.586171 
L 95.694458 85.977186 
L 97.837178 111.401016 
L 98.194298 114.796787 
L 98.551418 120.396866 
L 98.908538 123.730624 
L 99.979898 138.734084 
L 100.337018 143.435478 
L 101.051258 154.353284 
L 101.765498 163.232835 
L 102.836858 179.283906 
L 103.193978 182.767585 
L 104.265338 199.274207 
L 104.622458 203.073043 
L 104.979578 208.8829 
L 105.336698 212.543349 
L 106.765178 231.211323 
L 108.550778 251.861126 
L 109.265018 258.014254 
L 110.693498 271.031109 
L 111.407738 276.93809 
L 111.764858 278.407092 
L 112.121978 280.639991 
L 112.479098 283.753001 
L 112.836218 284.128834 
L 113.193338 286.674468 
L 113.907578 289.938522 
L 114.264698 290.125214 
L 114.621818 291.774356 
L 114.978938 292.793515 
L 115.336058 292.689586 
L 115.693178 292.211905 
L 116.050298 292.211905 
L 116.407418 292.389439 
L 116.764538 292.858524 
L 117.121658 292.793515 
L 118.193018 288.443735 
L 118.550138 288.337081 
L 118.907258 287.256232 
L 119.621498 282.121395 
L 119.978618 281.115258 
L 120.335738 277.278017 
L 121.049978 272.708004 
L 123.192698 254.414512 
L 123.906938 245.275097 
L 124.978298 233.379163 
L 126.763898 211.498196 
L 128.549498 188.006765 
L 128.906618 181.089226 
L 129.263738 177.737888 
L 130.692218 157.96058 
L 132.120698 138.893637 
L 132.834938 129.361713 
L 134.977658 104.357474 
L 135.334778 101.456431 
L 135.691898 96.318579 
L 137.120378 83.109142 
L 137.477498 79.679656 
L 137.834618 78.320909 
L 138.905978 69.70695 
L 139.263098 68.705851 
L 139.620218 65.919866 
L 139.977338 64.498217 
L 140.691578 60.617799 
L 141.048698 60.162035 
L 141.405818 58.80353 
L 141.762938 58.479013 
L 142.120058 56.86541 
L 142.477178 58.032071 
L 142.834298 56.692086 
L 143.191418 56.692086 
L 143.548538 56.931239 
L 143.905658 56.909296 
L 144.262778 57.650632 
L 144.619898 58.822519 
L 144.977018 60.411239 
L 145.334138 60.71995 
L 145.691258 61.439667 
L 146.762618 67.435301 
L 147.119738 68.842161 
L 148.548218 79.162367 
L 149.976698 92.289941 
L 150.333818 96.424161 
L 150.690938 98.611862 
L 154.619258 146.184195 
L 155.333498 155.402272 
L 156.404858 168.138004 
L 156.761978 174.346361 
L 158.190458 192.256162 
L 161.047418 228.020286 
L 163.547258 253.051737 
L 163.904378 255.696688 
L 164.261498 260.027464 
L 164.975738 265.541711 
L 165.332858 268.97599 
L 165.689978 269.626088 
L 166.047098 272.935881 
L 166.404218 274.488825 
L 167.118458 278.200893 
L 167.832698 280.641931 
L 168.546938 283.791725 
L 168.904058 283.48657 
L 169.261178 283.990591 
L 169.975418 285.280367 
L 170.332538 284.318485 
L 170.689658 284.764015 
L 171.046778 284.157269 
L 171.403898 284.639468 
L 171.761018 282.891879 
L 172.118138 282.286763 
L 172.475258 280.220612 
L 172.832378 279.147458 
L 173.903738 274.216073 
L 176.403578 256.217112 
L 176.760698 251.779402 
L 177.117818 249.815826 
L 181.760378 196.83288 
L 182.474618 187.648793 
L 184.617338 160.233684 
L 185.331578 151.029745 
L 185.688698 145.258823 
L 186.760058 133.951879 
L 187.117178 128.227167 
L 187.831418 121.15614 
L 188.545658 112.223924 
L 188.902778 109.13403 
L 189.259898 104.753591 
L 190.688378 92.421607 
L 191.045498 88.470353 
L 191.402618 86.571467 
L 192.473978 78.338205 
L 192.831098 75.768556 
L 193.188218 74.812284 
L 193.545338 71.850386 
L 193.902458 71.43045 
L 194.259578 70.100157 
L 194.616698 67.760925 
L 195.330938 65.643374 
L 195.688058 65.309678 
L 196.402298 64.300807 
L 196.759418 63.137155 
L 197.116538 63.348979 
L 197.473658 64.300807 
L 197.830778 63.925942 
L 198.187898 63.840075 
L 198.545018 65.405387 
L 198.902138 65.682873 
L 199.616378 67.857264 
L 199.973498 70.02249 
L 200.330618 70.812476 
L 200.687738 73.603374 
L 201.044858 75.368093 
L 202.830458 87.967944 
L 204.616058 103.035731 
L 204.973178 107.664197 
L 205.330298 110.50282 
L 208.187258 143.507528 
L 208.544378 148.49485 
L 208.901498 151.845243 
L 211.758458 188.208381 
L 212.472698 196.530324 
L 213.186938 206.13167 
L 216.758138 244.756558 
L 218.186618 257.238078 
L 218.543738 258.499771 
L 218.900858 262.404403 
L 219.257978 264.480542 
L 219.972218 269.577985 
L 220.329338 270.544766 
L 220.686458 272.958846 
L 221.043578 274.476633 
L 221.757818 276.554562 
L 222.472058 279.462437 
L 222.829178 279.272638 
L 223.186298 280.220612 
L 223.543418 278.750049 
L 223.900538 280.267634 
L 224.257658 280.283308 
L 224.614778 281.03297 
L 224.971898 280.043895 
L 225.329018 278.604833 
L 225.686138 278.278291 
L 226.043258 276.501897 
L 226.400378 276.594061 
L 226.757498 274.30037 
L 227.114618 273.378234 
L 227.471738 271.314852 
L 227.828858 269.945462 
L 228.185978 266.865579 
L 228.543098 265.472957 
L 229.614458 258.430338 
L 229.971578 255.031826 
L 230.328698 252.748296 
L 231.042938 245.109491 
L 231.757178 239.282745 
L 233.899898 216.704816 
L 234.614138 207.651978 
L 235.328378 199.795562 
L 235.685498 193.849417 
L 236.042618 190.448989 
L 237.113978 176.940596 
L 237.828218 168.17043 
L 239.256698 149.913611 
L 241.399418 125.330294 
L 241.756538 122.287219 
L 242.827898 110.140385 
L 243.185018 105.958842 
L 243.542138 103.870706 
L 244.256378 97.460393 
L 244.970618 91.030015 
L 245.327738 89.728255 
L 245.684858 85.225436 
L 246.399098 80.715392 
L 247.470458 75.339733 
L 247.827578 73.051451 
L 248.184698 71.787355 
L 248.541818 71.248257 
L 248.898938 69.147537 
L 249.256058 67.893391 
L 249.613178 68.340207 
L 250.327418 65.775037 
L 250.684538 66.649881 
L 251.041658 66.81446 
L 251.398778 66.408588 
L 252.113018 68.0379 
L 252.470138 67.833179 
L 252.827258 68.611806 
L 253.184378 70.542564 
L 253.541498 71.504777 
L 253.898618 71.881901 
L 254.612858 76.216907 
L 254.969978 78.056431 
L 255.327098 80.797683 
L 256.041338 84.795725 
L 256.755578 89.217501 
L 259.612538 116.519614 
L 260.683898 127.946184 
L 261.041018 131.582191 
L 261.398138 136.804133 
L 261.755258 140.128705 
L 262.469498 148.790686 
L 263.540858 161.777937 
L 268.540538 222.399029 
L 271.397498 249.15752 
L 272.111738 254.552772 
L 272.825978 260.675085 
L 273.183098 261.599396 
L 273.897338 266.32591 
L 274.254458 268.616904 
L 274.611578 270.080592 
L 274.968698 270.977442 
L 275.682938 274.216073 
L 276.040058 273.985585 
L 276.754298 276.409732 
L 277.111418 277.875331 
L 277.468538 277.183328 
L 277.825658 276.993949 
L 278.182778 277.694526 
L 278.539898 276.436065 
L 278.897018 276.697894 
L 279.254138 276.528229 
L 279.611258 275.117541 
L 279.968378 274.757028 
L 280.325498 273.77234 
L 280.682618 271.06331 
L 281.396858 268.746574 
L 281.753978 266.419069 
L 282.111098 265.752009 
L 282.468218 262.922192 
L 282.825338 260.990602 
L 283.182458 257.619256 
L 283.539578 256.047616 
L 284.610938 246.232595 
L 284.968058 244.701697 
L 285.325178 240.09225 
L 286.039418 234.152101 
L 287.110778 221.723587 
L 287.825018 214.581649 
L 288.539258 207.480046 
L 288.896378 202.273027 
L 289.253498 198.846145 
L 289.967738 189.944905 
L 291.039098 178.118322 
L 292.110458 164.661486 
L 292.824698 155.03759 
L 293.181818 151.898957 
L 293.896058 143.003178 
L 297.110138 109.091556 
L 297.467258 104.943493 
L 297.824378 102.642045 
L 298.895738 93.648906 
L 299.252858 91.57799 
L 299.967098 85.345133 
L 300.324218 84.991716 
L 300.681338 81.671674 
L 301.038458 80.237177 
L 301.752698 75.833767 
L 302.466938 74.429394 
L 302.824058 73.101833 
L 303.181178 70.986099 
L 303.538298 71.065787 
L 303.895418 70.801625 
L 304.252538 70.233301 
L 304.609658 70.663256 
L 304.966778 70.747367 
L 305.681018 70.100157 
L 306.038138 71.312658 
L 306.395258 72.946261 
L 306.752378 72.93608 
L 307.109498 73.877637 
L 307.823738 76.907739 
L 308.180858 77.769395 
L 308.537978 80.552978 
L 308.895098 81.853146 
L 309.252218 84.999255 
L 309.609338 85.232917 
L 311.037818 95.901255 
L 313.537658 118.494364 
L 315.323258 137.382717 
L 316.751738 154.246303 
L 322.822778 224.005948 
L 323.179898 226.594981 
L 324.251258 237.65367 
L 325.679738 249.373318 
L 326.393978 254.442929 
L 327.465338 261.023246 
L 327.822458 262.36256 
L 328.179578 264.574082 
L 328.536698 265.605715 
L 329.608058 270.68976 
L 330.679418 272.5945 
L 331.036538 273.537226 
L 331.393658 272.708004 
L 331.750778 272.970328 
L 332.107898 272.294541 
L 332.822138 272.935881 
L 333.536378 270.721614 
L 333.893498 270.271632 
L 334.250618 269.415101 
L 334.964858 265.536373 
L 335.679098 262.635765 
L 336.036218 260.642708 
L 336.393338 257.649641 
L 337.107578 254.485555 
L 340.678778 222.756765 
L 341.035898 218.423106 
L 341.393018 215.81359 
L 342.821498 200.425525 
L 343.178618 195.041923 
L 343.535738 192.409683 
L 345.321338 170.625096 
L 345.678458 166.915759 
L 346.035578 161.627575 
L 346.392698 158.817509 
L 347.106938 150.735152 
L 347.464058 145.511848 
L 347.821178 142.481768 
L 348.178298 138.163146 
L 348.535418 135.414821 
L 348.892538 130.558046 
L 349.249658 127.626159 
L 349.963898 119.982596 
L 350.678138 113.056219 
L 351.392378 106.984432 
L 351.749498 103.396704 
L 352.106618 102.209333 
L 352.820858 95.572963 
L 353.177978 93.526276 
L 353.892218 88.294014 
L 354.249338 86.432486 
L 354.606458 83.720895 
L 354.963578 82.944559 
L 355.320698 80.469996 
L 356.034938 78.242259 
L 356.392058 76.753727 
L 356.749178 76.42837 
L 357.106298 74.00959 
L 357.463418 75.499758 
L 357.820538 74.322457 
L 358.177658 74.263795 
L 358.534778 74.661744 
L 358.891898 74.019367 
L 359.249018 74.390669 
L 359.606138 75.339733 
L 359.963258 75.749924 
L 360.320378 76.711816 
L 360.677498 78.242259 
L 361.034618 77.234757 
L 361.391738 79.713416 
L 361.748858 79.645895 
L 362.463098 84.556902 
L 362.820218 85.300247 
L 363.534458 91.197957 
L 363.891578 92.078846 
L 364.605818 98.063893 
L 364.962938 100.421094 
L 365.677178 106.793636 
L 366.034298 108.80418 
L 366.391418 113.930517 
L 367.105658 120.07412 
L 369.248378 141.365904 
L 369.605498 146.997116 
L 369.962618 149.623167 
L 370.319738 155.181004 
L 370.676858 157.82592 
L 371.391098 166.25607 
L 371.748218 171.185357 
L 372.105338 174.083394 
L 374.248058 199.062295 
L 376.033658 218.926264 
L 376.390778 223.225046 
L 376.747898 225.220863 
L 377.105018 230.127895 
L 377.462138 231.902839 
L 378.176378 239.619515 
L 378.890618 244.395839 
L 379.961978 253.791533 
L 380.319098 255.334562 
L 381.033338 260.123028 
L 381.390458 260.650803 
L 382.104698 264.974548 
L 382.818938 268.055637 
L 383.176058 268.182739 
L 383.533178 267.996974 
L 383.890298 270.070197 
L 384.247418 271.138445 
L 384.604538 271.314852 
L 384.961658 270.657906 
L 385.318778 271.27798 
L 385.675898 272.260877 
L 386.033018 271.692676 
L 386.390138 271.979132 
L 386.747258 269.976646 
L 387.104378 271.149178 
L 387.461498 269.537264 
L 388.175738 265.596571 
L 388.532858 265.264587 
L 388.889978 262.370929 
L 389.247098 261.336064 
L 389.604218 259.450726 
L 389.961338 258.744376 
L 390.675578 252.907124 
L 391.746938 245.368086 
L 392.104058 241.409628 
L 392.818298 236.997098 
L 393.532538 229.208298 
L 393.889658 226.731078 
L 395.675258 207.991434 
L 396.032378 202.771185 
L 396.389498 199.531659 
L 396.746618 194.489587 
L 397.103738 191.455367 
L 398.175098 179.725048 
L 399.246458 166.830768 
L 399.603578 161.842958 
L 399.960698 158.7563 
L 402.817658 126.780721 
L 403.174778 124.067656 
L 404.246138 112.594238 
L 404.960378 105.52848 
L 405.317498 103.707062 
L 405.674618 100.763608 
L 406.031738 96.668967 
L 406.388858 94.980926 
L 407.460218 86.750393 
L 407.817338 86.087727 
L 408.531578 81.525978 
L 409.602938 76.666098 
L 409.960058 76.179991 
L 410.317178 75.330238 
L 411.031418 73.232826 
L 411.388538 72.602294 
L 411.745658 71.334887 
L 412.102778 72.468572 
L 412.817018 72.93608 
L 413.174138 72.323848 
L 413.531258 73.473704 
L 413.888378 73.897387 
L 414.602618 76.327653 
L 414.959738 77.198849 
L 416.031098 83.069956 
L 416.388218 83.821188 
L 416.745338 86.939179 
L 417.459578 90.751844 
L 418.173818 96.866467 
L 418.530938 98.431222 
L 418.530938 98.431222 
" style="fill:none;stroke:#1f77b4;stroke-linecap:square;stroke-width:1.5;"/>
   </g>
   <g id="line2d_26">
    <path clip-path="url(#pcd39df9889)" d="M 61.410938 289.871385 
L 64.718996 289.871385 
L 65.019729 288.800662 
L 65.320462 289.871385 
L 65.621194 288.741768 
L 65.921927 289.871385 
L 66.22266 287.747307 
L 66.523392 287.944734 
L 66.824125 287.846021 
L 67.42559 286.872594 
L 67.726323 286.094613 
L 68.027055 286.198122 
L 68.327788 286.802076 
L 68.628521 284.632261 
L 68.929253 284.730845 
L 69.229986 284.641086 
L 69.530719 284.288832 
L 69.831451 282.651354 
L 70.132184 282.904926 
L 70.432916 282.991834 
L 71.635847 280.294105 
L 71.93658 280.138196 
L 72.237312 278.972479 
L 72.538045 278.732157 
L 72.838778 278.173837 
L 73.13951 277.859216 
L 73.740975 276.101062 
L 74.041708 275.989275 
L 74.342441 274.120352 
L 74.643173 274.538352 
L 75.545371 272.117537 
L 75.846104 272.368563 
L 76.146836 272.42933 
L 76.748302 270.113204 
L 77.049034 269.074061 
L 77.349767 268.876029 
L 77.6505 267.920018 
L 77.951232 267.340374 
L 78.251965 267.103303 
L 78.552698 265.91161 
L 78.85343 265.311502 
L 79.154163 265.409476 
L 79.454895 264.36856 
L 79.755628 264.227491 
L 80.056361 263.401762 
L 80.357093 261.902479 
L 80.657826 262.64679 
L 80.958559 261.207689 
L 81.860756 260.196919 
L 82.161489 258.630989 
L 82.462222 258.576129 
L 83.063687 257.663843 
L 83.36442 256.247139 
L 83.965885 255.535142 
L 84.266618 255.959882 
L 84.56735 255.127325 
L 84.868083 254.718063 
L 85.168815 254.04225 
L 85.469548 251.831497 
L 85.770281 252.297302 
L 86.071013 252.273602 
L 86.371746 251.268459 
L 86.672479 251.183596 
L 86.973211 250.495001 
L 87.875409 249.575186 
L 88.176142 248.526294 
L 88.476874 248.194941 
L 88.777607 249.231061 
L 89.07834 248.325639 
L 89.679805 247.460773 
L 89.980538 246.510627 
L 90.28127 246.223482 
L 90.582003 245.521838 
L 90.882735 246.216479 
L 91.183468 244.764636 
L 91.484201 244.778257 
L 91.784933 244.488506 
L 92.085666 244.535852 
L 92.386399 244.130031 
L 92.687131 244.346469 
L 92.987864 243.719024 
L 93.288596 243.613825 
L 93.890062 243.198545 
L 94.190794 242.479386 
L 94.491527 242.722969 
L 94.79226 240.920899 
L 95.092992 242.090198 
L 95.393725 241.654157 
L 95.694458 241.494895 
L 96.295923 240.856775 
L 96.596655 241.017084 
L 96.897388 240.660115 
L 97.198121 240.634632 
L 97.498853 240.75568 
L 97.799586 240.244422 
L 98.100319 240.641003 
L 98.401051 240.168461 
L 98.701784 240.14947 
L 99.002516 239.946906 
L 99.303249 240.570922 
L 99.603982 238.343531 
L 99.904714 238.718179 
L 100.205447 238.892079 
L 100.50618 238.57189 
L 100.806912 239.147571 
L 101.107645 238.867236 
L 101.408378 239.228821 
L 101.70911 239.266321 
L 102.009843 239.066321 
L 102.310575 239.060071 
L 102.611308 238.133008 
L 102.912041 238.687126 
L 103.212773 238.985239 
L 103.513506 238.071672 
L 103.814239 237.789529 
L 104.114971 238.649862 
L 104.415704 238.238609 
L 104.716436 238.090073 
L 105.017169 238.120741 
L 105.618634 238.761654 
L 105.919367 237.783396 
L 106.2201 238.37439 
L 106.520832 238.485484 
L 106.821565 237.394759 
L 107.122298 238.175943 
L 107.42303 237.8938 
L 107.723763 238.170718 
L 108.024495 237.832464 
L 108.325228 239.160071 
L 108.625961 238.183062 
L 108.926693 238.27564 
L 109.227426 239.047571 
L 109.828891 237.730022 
L 110.129624 238.318843 
L 110.430356 238.553375 
L 110.731089 238.929343 
L 111.031822 237.930601 
L 111.332554 237.936734 
L 111.633287 238.817551 
L 111.93402 238.861025 
L 112.234752 237.321611 
L 112.535485 238.485484 
L 112.836218 238.213921 
L 113.13695 238.281812 
L 113.437683 238.466968 
L 114.039148 238.405249 
L 114.339881 238.848604 
L 114.640613 238.541031 
L 114.941346 237.394759 
L 115.242079 238.559546 
L 115.542811 238.668494 
L 115.843544 238.368218 
L 116.144276 237.516673 
L 116.445009 239.116321 
L 117.347207 239.128821 
L 117.64794 238.643651 
L 117.948672 239.366321 
L 118.550138 238.337359 
L 118.85087 239.160071 
L 119.151603 239.115664 
L 119.452335 239.347571 
L 119.753068 239.241321 
L 120.053801 238.960397 
L 120.354533 239.260071 
L 120.655266 239.122571 
L 120.955999 238.705758 
L 121.256731 238.916922 
L 121.557464 240.269743 
L 122.158929 238.263296 
L 122.459662 239.260071 
L 122.760394 239.178821 
L 123.061127 237.924467 
L 123.36186 238.516343 
L 123.662592 238.643651 
L 123.963325 238.399078 
L 124.264058 239.241321 
L 124.56479 238.578062 
L 124.865523 239.441321 
L 125.166255 238.885868 
L 125.466988 238.842393 
L 125.767721 238.436109 
L 126.068453 239.528821 
L 126.669919 237.991936 
L 126.970651 238.63744 
L 127.271384 238.362046 
L 127.572116 238.761654 
L 127.872849 239.569852 
L 128.173582 240.048188 
L 128.474314 239.453821 
L 128.775047 238.57189 
L 129.07578 238.662283 
L 129.376512 238.612598 
L 129.677245 238.9045 
L 129.977978 239.003872 
L 130.27871 239.360071 
L 130.579443 238.195405 
L 130.880175 238.774076 
L 131.481641 237.783396 
L 131.782373 239.435071 
L 132.083106 239.172571 
L 132.383839 238.559546 
L 132.684571 238.798919 
L 132.985304 238.263296 
L 133.286036 237.99807 
L 133.586769 238.485484 
L 133.887502 238.649862 
L 134.188234 239.222571 
L 134.488967 238.318843 
L 135.090432 239.410071 
L 135.391165 238.059405 
L 135.691898 238.37439 
L 135.99263 239.878053 
L 136.293363 238.798919 
L 136.594095 238.823761 
L 136.894828 238.169809 
L 137.195561 239.372571 
L 137.496293 239.191321 
L 138.097759 237.801796 
L 138.398491 239.153821 
L 138.999956 238.929343 
L 139.300689 238.213921 
L 139.601422 238.294156 
L 139.902154 238.817551 
L 140.202887 239.116321 
L 140.50362 238.60275 
L 140.804352 238.867236 
L 141.105085 238.625019 
L 141.405818 238.687126 
L 141.70655 237.740461 
L 142.007283 239.435071 
L 142.308015 238.596578 
L 142.608748 238.423765 
L 143.210213 238.854815 
L 143.510946 239.160071 
L 143.811679 238.9045 
L 144.112411 239.378821 
L 144.413144 239.397571 
L 144.713876 239.303821 
L 145.014609 239.028714 
L 145.315342 238.355874 
L 145.616074 239.066321 
L 145.916807 239.403821 
L 146.21754 239.153821 
L 146.518272 239.191321 
L 146.819005 239.410071 
L 147.119738 238.368218 
L 147.42047 238.257124 
L 148.322668 239.478821 
L 148.623401 239.091321 
L 148.924133 239.128821 
L 149.224866 238.861025 
L 149.525599 239.378821 
L 149.826331 239.453821 
L 150.127064 238.829972 
L 150.427796 239.865473 
L 151.029262 239.701938 
L 151.329994 240.500841 
L 151.630727 240.882425 
L 151.93146 239.959566 
L 152.232192 239.550983 
L 152.532925 240.42439 
L 152.833658 240.092499 
L 153.13439 241.546529 
L 153.435123 240.434326 
L 153.735855 240.238092 
L 154.337321 240.405277 
L 154.638053 241.268996 
L 154.938786 240.762051 
L 155.540251 240.488099 
L 155.840984 240.742938 
L 156.141716 241.249634 
L 156.442449 241.275451 
L 156.743182 240.244422 
L 157.043914 240.641003 
L 157.344647 241.423898 
L 157.64538 240.965785 
L 157.946112 241.901032 
L 158.246845 241.686641 
L 158.547578 241.790588 
L 159.750508 242.966582 
L 160.051241 241.481986 
L 160.351973 243.560447 
L 160.652706 242.29293 
L 160.953439 241.978993 
L 161.254171 242.306009 
L 161.554904 242.338708 
L 162.156369 243.333589 
L 162.457102 243.487052 
L 162.757834 242.993092 
L 163.058567 243.198545 
L 163.3593 243.138898 
L 163.660032 242.194834 
L 164.261498 242.782219 
L 164.56223 243.092505 
L 164.862963 243.593808 
L 165.163695 242.894135 
L 165.464428 243.072623 
L 165.765161 244.285595 
L 166.065893 243.286883 
L 166.366626 244.373523 
L 166.667359 243.766048 
L 166.968091 243.473707 
L 167.268824 244.468215 
L 167.569556 244.211195 
L 167.870289 244.454688 
L 168.171022 244.393814 
L 168.471754 244.163849 
L 169.373952 244.278832 
L 169.674685 245.092605 
L 169.975418 244.921164 
L 170.27615 244.041473 
L 170.576883 244.44116 
L 170.877615 245.459688 
L 171.178348 245.126893 
L 171.779813 244.996598 
L 172.080546 244.662481 
L 172.381279 244.710154 
L 172.682011 245.797171 
L 172.982744 245.099462 
L 173.283476 245.243473 
L 173.584209 245.720674 
L 173.884942 244.859981 
L 174.185674 246.2585 
L 174.486407 245.494216 
L 174.78714 245.762399 
L 175.087872 245.583989 
L 175.388605 245.776308 
L 175.689338 245.556366 
L 175.99007 245.577083 
L 176.290803 246.363553 
L 176.591535 245.957117 
L 176.892268 246.349546 
L 177.193001 246.503623 
L 177.493733 245.729006 
L 177.794466 246.012751 
L 178.095199 246.571241 
L 178.395931 246.521866 
L 178.696664 245.762399 
L 178.997396 246.698205 
L 179.298129 246.909812 
L 179.598862 246.16045 
L 179.899594 247.137132 
L 180.200327 246.223482 
L 180.801792 247.002151 
L 181.102525 246.52892 
L 181.403258 247.11582 
L 182.004723 246.811062 
L 182.305455 246.655884 
L 182.606188 246.966629 
L 182.906921 247.475084 
L 183.207653 246.55008 
L 183.508386 246.74758 
L 183.809119 247.704069 
L 184.109851 246.733473 
L 184.711316 247.108715 
L 185.012049 246.606509 
L 185.312782 247.410682 
L 185.613514 247.300531 
L 185.914247 247.568109 
L 186.21498 247.236593 
L 186.515712 247.553798 
L 186.816445 247.475084 
L 187.117178 247.625356 
L 187.41791 246.86749 
L 187.718643 247.137132 
L 188.019375 247.96213 
L 188.320108 247.897258 
L 188.620841 248.282073 
L 188.921573 247.186862 
L 189.222306 247.009255 
L 189.523039 247.724266 
L 189.823771 248.093287 
L 190.124504 247.317657 
L 190.425236 247.825178 
L 190.725969 248.005378 
L 191.026702 247.144237 
L 191.327434 248.238507 
L 191.628167 247.632511 
L 191.9289 248.318378 
L 192.229632 247.53233 
L 192.530365 248.048626 
L 192.831098 248.26029 
L 193.13183 248.012586 
L 193.432563 246.945316 
L 193.733295 247.969338 
L 194.034028 247.589577 
L 194.334761 248.340161 
L 194.635493 247.009255 
L 194.936226 248.238507 
L 195.236959 248.514426 
L 195.537691 247.058985 
L 195.838424 248.412771 
L 196.139156 247.85401 
L 196.439889 247.738682 
L 196.740622 247.825178 
L 197.041354 247.310501 
L 197.342087 248.412771 
L 197.64282 247.382059 
L 197.943552 248.47812 
L 198.244285 248.463598 
L 198.545018 247.589577 
L 198.84575 247.48224 
L 199.146483 248.434554 
L 199.447215 247.739848 
L 199.747948 247.99817 
L 200.048681 247.839594 
L 200.349413 248.562868 
L 200.650146 247.382059 
L 200.950879 248.18768 
L 201.251611 247.6182 
L 201.552344 248.848145 
L 201.853076 248.862592 
L 202.153809 248.202202 
L 202.755274 247.568109 
L 203.056007 248.282073 
L 203.35674 247.976546 
L 203.657472 248.958394 
L 203.958205 248.555553 
L 204.258938 247.702642 
L 204.55967 248.027002 
L 204.860403 247.553798 
L 205.161135 248.570183 
L 205.461868 247.661134 
L 205.762601 247.782783 
L 206.063333 248.65796 
L 206.364066 247.518019 
L 206.664799 247.403527 
L 206.965531 247.625356 
L 207.266264 247.460773 
L 207.566996 248.209463 
L 207.867729 247.611044 
L 208.168462 248.311117 
L 208.469194 247.553798 
L 208.769927 247.410682 
L 209.07066 247.625356 
L 209.371392 248.03421 
L 209.672125 248.869962 
L 209.972858 248.833515 
L 210.27359 247.990962 
L 210.875055 248.475091 
L 211.175788 247.753098 
L 211.476521 247.832386 
L 211.777253 248.943655 
L 211.777253 248.943655 
" style="fill:none;stroke:#d62728;stroke-linecap:square;stroke-width:1.5;"/>
   </g>
   <g id="line2d_27">
    <defs>
     <path d="M 0 3 
C 0.795609 3 1.55874 2.683901 2.12132 2.12132 
C 2.683901 1.55874 3 0.795609 3 0 
C 3 -0.795609 2.683901 -1.55874 2.12132 -2.12132 
C 1.55874 -2.683901 0.795609 -3 0 -3 
C -0.795609 -3 -1.55874 -2.683901 -2.12132 -2.12132 
C -2.683901 -1.55874 -3 -0.795609 -3 0 
C -3 0.795609 -2.683901 1.55874 -2.12132 2.12132 
C -1.55874 2.683901 -0.795609 3 0 3 
z
" id="mcb2457e3ba" style="stroke:#1f77b4;"/>
    </defs>
    <g clip-path="url(#pcd39df9889)">
     <use style="fill:#1f77b4;stroke:#1f77b4;" x="61.410938" xlink:href="#mcb2457e3ba" y="296.95689"/>
     <use style="fill:#1f77b4;stroke:#1f77b4;" x="70.182306" xlink:href="#mcb2457e3ba" y="231.294028"/>
     <use style="fill:#1f77b4;stroke:#1f77b4;" x="78.953674" xlink:href="#mcb2457e3ba" y="133.184956"/>
     <use style="fill:#1f77b4;stroke:#1f77b4;" x="87.725043" xlink:href="#mcb2457e3ba" y="77.643982"/>
     <use style="fill:#1f77b4;stroke:#1f77b4;" x="96.496411" xlink:href="#mcb2457e3ba" y="130.228902"/>
     <use style="fill:#1f77b4;stroke:#1f77b4;" x="105.26778" xlink:href="#mcb2457e3ba" y="232.71164"/>
     <use style="fill:#1f77b4;stroke:#1f77b4;" x="114.039148" xlink:href="#mcb2457e3ba" y="287.539613"/>
     <use style="fill:#1f77b4;stroke:#1f77b4;" x="122.810516" xlink:href="#mcb2457e3ba" y="240.43459"/>
     <use style="fill:#1f77b4;stroke:#1f77b4;" x="131.581885" xlink:href="#mcb2457e3ba" y="131.78265"/>
     <use style="fill:#1f77b4;stroke:#1f77b4;" x="140.353253" xlink:href="#mcb2457e3ba" y="75.426193"/>
     <use style="fill:#1f77b4;stroke:#1f77b4;" x="149.124622" xlink:href="#mcb2457e3ba" y="106.206657"/>
     <use style="fill:#1f77b4;stroke:#1f77b4;" x="157.89599" xlink:href="#mcb2457e3ba" y="213.545153"/>
     <use style="fill:#1f77b4;stroke:#1f77b4;" x="166.667359" xlink:href="#mcb2457e3ba" y="282.516819"/>
     <use style="fill:#1f77b4;stroke:#1f77b4;" x="175.438727" xlink:href="#mcb2457e3ba" y="246.459237"/>
     <use style="fill:#1f77b4;stroke:#1f77b4;" x="184.210095" xlink:href="#mcb2457e3ba" y="150.786911"/>
     <use style="fill:#1f77b4;stroke:#1f77b4;" x="192.981464" xlink:href="#mcb2457e3ba" y="72.42225"/>
     <use style="fill:#1f77b4;stroke:#1f77b4;" x="201.752832" xlink:href="#mcb2457e3ba" y="112.911069"/>
     <use style="fill:#1f77b4;stroke:#1f77b4;" x="210.524201" xlink:href="#mcb2457e3ba" y="195.695648"/>
     <use style="fill:#1f77b4;stroke:#1f77b4;" x="219.295569" xlink:href="#mcb2457e3ba" y="276.476033"/>
     <use style="fill:#1f77b4;stroke:#1f77b4;" x="228.066938" xlink:href="#mcb2457e3ba" y="247.944039"/>
     <use style="fill:#1f77b4;stroke:#1f77b4;" x="236.838306" xlink:href="#mcb2457e3ba" y="173.32061"/>
     <use style="fill:#1f77b4;stroke:#1f77b4;" x="245.609674" xlink:href="#mcb2457e3ba" y="96.765547"/>
     <use style="fill:#1f77b4;stroke:#1f77b4;" x="254.381043" xlink:href="#mcb2457e3ba" y="97.390733"/>
     <use style="fill:#1f77b4;stroke:#1f77b4;" x="263.152411" xlink:href="#mcb2457e3ba" y="165.042068"/>
     <use style="fill:#1f77b4;stroke:#1f77b4;" x="271.92378" xlink:href="#mcb2457e3ba" y="245.63851"/>
     <use style="fill:#1f77b4;stroke:#1f77b4;" x="280.695148" xlink:href="#mcb2457e3ba" y="255.931616"/>
     <use style="fill:#1f77b4;stroke:#1f77b4;" x="289.466516" xlink:href="#mcb2457e3ba" y="191.920461"/>
     <use style="fill:#1f77b4;stroke:#1f77b4;" x="298.237885" xlink:href="#mcb2457e3ba" y="109.811702"/>
     <use style="fill:#1f77b4;stroke:#1f77b4;" x="307.009253" xlink:href="#mcb2457e3ba" y="81.766128"/>
     <use style="fill:#1f77b4;stroke:#1f77b4;" x="315.780622" xlink:href="#mcb2457e3ba" y="159.584447"/>
     <use style="fill:#1f77b4;stroke:#1f77b4;" x="324.55199" xlink:href="#mcb2457e3ba" y="222.879693"/>
     <use style="fill:#1f77b4;stroke:#1f77b4;" x="333.323359" xlink:href="#mcb2457e3ba" y="250.97865"/>
     <use style="fill:#1f77b4;stroke:#1f77b4;" x="342.094727" xlink:href="#mcb2457e3ba" y="198.35025"/>
     <use style="fill:#1f77b4;stroke:#1f77b4;" x="350.866095" xlink:href="#mcb2457e3ba" y="131.38154"/>
     <use style="fill:#1f77b4;stroke:#1f77b4;" x="359.637464" xlink:href="#mcb2457e3ba" y="103.462432"/>
     <use style="fill:#1f77b4;stroke:#1f77b4;" x="368.408832" xlink:href="#mcb2457e3ba" y="128.14825"/>
     <use style="fill:#1f77b4;stroke:#1f77b4;" x="377.180201" xlink:href="#mcb2457e3ba" y="203.52201"/>
     <use style="fill:#1f77b4;stroke:#1f77b4;" x="385.951569" xlink:href="#mcb2457e3ba" y="246.831837"/>
     <use style="fill:#1f77b4;stroke:#1f77b4;" x="394.722938" xlink:href="#mcb2457e3ba" y="213.748558"/>
     <use style="fill:#1f77b4;stroke:#1f77b4;" x="403.494306" xlink:href="#mcb2457e3ba" y="167.889424"/>
     <use style="fill:#1f77b4;stroke:#1f77b4;" x="412.265674" xlink:href="#mcb2457e3ba" y="103.176121"/>
    </g>
   </g>
   <g id="line2d_28">
    <defs>
     <path d="M 0 3 
C 0.795609 3 1.55874 2.683901 2.12132 2.12132 
C 2.683901 1.55874 3 0.795609 3 0 
C 3 -0.795609 2.683901 -1.55874 2.12132 -2.12132 
C 1.55874 -2.683901 0.795609 -3 0 -3 
C -0.795609 -3 -1.55874 -2.683901 -2.12132 -2.12132 
C -2.683901 -1.55874 -3 -0.795609 -3 0 
C -3 0.795609 -2.683901 1.55874 -2.12132 2.12132 
C -1.55874 2.683901 -0.795609 3 0 3 
z
" id="m4d17eb6f4c" style="stroke:#d62728;"/>
    </defs>
    <g clip-path="url(#pcd39df9889)">
     <use style="fill:#d62728;stroke:#d62728;" x="61.410938" xlink:href="#m4d17eb6f4c" y="289.822418"/>
     <use style="fill:#d62728;stroke:#d62728;" x="70.182306" xlink:href="#m4d17eb6f4c" y="283.18425"/>
     <use style="fill:#d62728;stroke:#d62728;" x="78.953674" xlink:href="#m4d17eb6f4c" y="260.920475"/>
     <use style="fill:#d62728;stroke:#d62728;" x="87.725043" xlink:href="#m4d17eb6f4c" y="238.133307"/>
     <use style="fill:#d62728;stroke:#d62728;" x="96.496411" xlink:href="#m4d17eb6f4c" y="224.058017"/>
     <use style="fill:#d62728;stroke:#d62728;" x="105.26778" xlink:href="#m4d17eb6f4c" y="228.75225"/>
     <use style="fill:#d62728;stroke:#d62728;" x="114.039148" xlink:href="#m4d17eb6f4c" y="244.156352"/>
     <use style="fill:#d62728;stroke:#d62728;" x="122.810516" xlink:href="#m4d17eb6f4c" y="229.853092"/>
     <use style="fill:#d62728;stroke:#d62728;" x="131.581885" xlink:href="#m4d17eb6f4c" y="249.241295"/>
     <use style="fill:#d62728;stroke:#d62728;" x="140.353253" xlink:href="#m4d17eb6f4c" y="240.52425"/>
     <use style="fill:#d62728;stroke:#d62728;" x="149.124622" xlink:href="#m4d17eb6f4c" y="238.11657"/>
     <use style="fill:#d62728;stroke:#d62728;" x="157.89599" xlink:href="#m4d17eb6f4c" y="248.617979"/>
     <use style="fill:#d62728;stroke:#d62728;" x="166.667359" xlink:href="#m4d17eb6f4c" y="253.48425"/>
     <use style="fill:#d62728;stroke:#d62728;" x="175.438727" xlink:href="#m4d17eb6f4c" y="258.217231"/>
     <use style="fill:#d62728;stroke:#d62728;" x="184.210095" xlink:href="#m4d17eb6f4c" y="235.515385"/>
     <use style="fill:#d62728;stroke:#d62728;" x="192.981464" xlink:href="#m4d17eb6f4c" y="241.38825"/>
    </g>
   </g>
   <g id="patch_3">
    <path d="M 61.410938 297.54825 
L 61.410938 31.43625 
" style="fill:none;stroke:#000000;stroke-linecap:square;stroke-linejoin:miter;stroke-width:0.8;"/>
   </g>
   <g id="patch_4">
    <path d="M 418.530938 297.54825 
L 418.530938 31.43625 
" style="fill:none;stroke:#000000;stroke-linecap:square;stroke-linejoin:miter;stroke-width:0.8;"/>
   </g>
   <g id="patch_5">
    <path d="M 61.410938 297.54825 
L 418.530938 297.54825 
" style="fill:none;stroke:#000000;stroke-linecap:square;stroke-linejoin:miter;stroke-width:0.8;"/>
   </g>
   <g id="patch_6">
    <path d="M 61.410938 31.43625 
L 418.530938 31.43625 
" style="fill:none;stroke:#000000;stroke-linecap:square;stroke-linejoin:miter;stroke-width:0.8;"/>
   </g>
   <g id="text_15">
    <!-- (B) -->
    <defs>
     <path d="M 19.671875 34.8125 
L 19.671875 8.109375 
L 35.5 8.109375 
Q 43.453125 8.109375 47.28125 11.40625 
Q 51.125 14.703125 51.125 21.484375 
Q 51.125 28.328125 47.28125 31.5625 
Q 43.453125 34.8125 35.5 34.8125 
z
M 19.671875 64.796875 
L 19.671875 42.828125 
L 34.28125 42.828125 
Q 41.5 42.828125 45.03125 45.53125 
Q 48.578125 48.25 48.578125 53.8125 
Q 48.578125 59.328125 45.03125 62.0625 
Q 41.5 64.796875 34.28125 64.796875 
z
M 9.8125 72.90625 
L 35.015625 72.90625 
Q 46.296875 72.90625 52.390625 68.21875 
Q 58.5 63.53125 58.5 54.890625 
Q 58.5 48.1875 55.375 44.234375 
Q 52.25 40.28125 46.1875 39.3125 
Q 53.46875 37.75 57.5 32.78125 
Q 61.53125 27.828125 61.53125 20.40625 
Q 61.53125 10.640625 54.890625 5.3125 
Q 48.25 0 35.984375 0 
L 9.8125 0 
z
" id="DejaVuSans-42"/>
    </defs>
    <g transform="translate(379.686306 58.04745)scale(0.2 -0.2)">
     <use xlink:href="#DejaVuSans-28"/>
     <use x="39.013672" xlink:href="#DejaVuSans-42"/>
     <use x="107.617188" xlink:href="#DejaVuSans-29"/>
    </g>
   </g>
   <g id="text_16">
    <!-- Z carrier -->
    <defs>
     <path d="M 5.609375 72.90625 
L 62.890625 72.90625 
L 62.890625 65.375 
L 16.796875 8.296875 
L 64.015625 8.296875 
L 64.015625 0 
L 4.5 0 
L 4.5 7.515625 
L 50.59375 64.59375 
L 5.609375 64.59375 
z
" id="DejaVuSans-5a"/>
     <path d="M 48.78125 52.59375 
L 48.78125 44.1875 
Q 44.96875 46.296875 41.140625 47.34375 
Q 37.3125 48.390625 33.40625 48.390625 
Q 24.65625 48.390625 19.8125 42.84375 
Q 14.984375 37.3125 14.984375 27.296875 
Q 14.984375 17.28125 19.8125 11.734375 
Q 24.65625 6.203125 33.40625 6.203125 
Q 37.3125 6.203125 41.140625 7.25 
Q 44.96875 8.296875 48.78125 10.40625 
L 48.78125 2.09375 
Q 45.015625 0.34375 40.984375 -0.53125 
Q 36.96875 -1.421875 32.421875 -1.421875 
Q 20.0625 -1.421875 12.78125 6.34375 
Q 5.515625 14.109375 5.515625 27.296875 
Q 5.515625 40.671875 12.859375 48.328125 
Q 20.21875 56 33.015625 56 
Q 37.15625 56 41.109375 55.140625 
Q 45.0625 54.296875 48.78125 52.59375 
z
" id="DejaVuSans-63"/>
    </defs>
    <g transform="translate(188.470313 25.43625)scale(0.24 -0.24)">
     <use xlink:href="#DejaVuSans-5a"/>
     <use x="68.505859" xlink:href="#DejaVuSans-20"/>
     <use x="100.292969" xlink:href="#DejaVuSans-63"/>
     <use x="155.273438" xlink:href="#DejaVuSans-61"/>
     <use x="216.552734" xlink:href="#DejaVuSans-72"/>
     <use x="257.650391" xlink:href="#DejaVuSans-72"/>
     <use x="298.763672" xlink:href="#DejaVuSans-69"/>
     <use x="326.546875" xlink:href="#DejaVuSans-65"/>
     <use x="388.070312" xlink:href="#DejaVuSans-72"/>
    </g>
   </g>
   <g id="legend_1">
    <g id="patch_7">
     <path d="M 296.074687 196.8485 
L 404.530937 196.8485 
Q 408.530937 196.8485 408.530937 192.8485 
L 408.530937 136.136 
Q 408.530937 132.136 404.530937 132.136 
L 296.074687 132.136 
Q 292.074687 132.136 292.074687 136.136 
L 292.074687 192.8485 
Q 292.074687 196.8485 296.074687 196.8485 
z
" style="fill:#ffffff;opacity:0.8;stroke:#cccccc;stroke-linejoin:miter;"/>
    </g>
    <g id="LineCollection_3">
     <path d="M 320.074687 158.332875 
L 320.074687 138.332875 
" style="fill:none;stroke:#1f77b4;stroke-width:1.5;"/>
    </g>
    <g id="line2d_29"/>
    <g id="line2d_30">
     <g>
      <use style="fill:#1f77b4;stroke:#1f77b4;" x="320.074687" xlink:href="#mcb2457e3ba" y="148.332875"/>
     </g>
    </g>
    <g id="text_17">
     <!-- Cold -->
     <defs>
      <path d="M 64.40625 67.28125 
L 64.40625 56.890625 
Q 59.421875 61.53125 53.78125 63.8125 
Q 48.140625 66.109375 41.796875 66.109375 
Q 29.296875 66.109375 22.65625 58.46875 
Q 16.015625 50.828125 16.015625 36.375 
Q 16.015625 21.96875 22.65625 14.328125 
Q 29.296875 6.6875 41.796875 6.6875 
Q 48.140625 6.6875 53.78125 8.984375 
Q 59.421875 11.28125 64.40625 15.921875 
L 64.40625 5.609375 
Q 59.234375 2.09375 53.4375 0.328125 
Q 47.65625 -1.421875 41.21875 -1.421875 
Q 24.65625 -1.421875 15.125 8.703125 
Q 5.609375 18.84375 5.609375 36.375 
Q 5.609375 53.953125 15.125 64.078125 
Q 24.65625 74.21875 41.21875 74.21875 
Q 47.75 74.21875 53.53125 72.484375 
Q 59.328125 70.75 64.40625 67.28125 
z
" id="DejaVuSans-43"/>
      <path d="M 30.609375 48.390625 
Q 23.390625 48.390625 19.1875 42.75 
Q 14.984375 37.109375 14.984375 27.296875 
Q 14.984375 17.484375 19.15625 11.84375 
Q 23.34375 6.203125 30.609375 6.203125 
Q 37.796875 6.203125 41.984375 11.859375 
Q 46.1875 17.53125 46.1875 27.296875 
Q 46.1875 37.015625 41.984375 42.703125 
Q 37.796875 48.390625 30.609375 48.390625 
z
M 30.609375 56 
Q 42.328125 56 49.015625 48.375 
Q 55.71875 40.765625 55.71875 27.296875 
Q 55.71875 13.875 49.015625 6.21875 
Q 42.328125 -1.421875 30.609375 -1.421875 
Q 18.84375 -1.421875 12.171875 6.21875 
Q 5.515625 13.875 5.515625 27.296875 
Q 5.515625 40.765625 12.171875 48.375 
Q 18.84375 56 30.609375 56 
z
" id="DejaVuSans-6f"/>
      <path d="M 45.40625 46.390625 
L 45.40625 75.984375 
L 54.390625 75.984375 
L 54.390625 0 
L 45.40625 0 
L 45.40625 8.203125 
Q 42.578125 3.328125 38.25 0.953125 
Q 33.9375 -1.421875 27.875 -1.421875 
Q 17.96875 -1.421875 11.734375 6.484375 
Q 5.515625 14.40625 5.515625 27.296875 
Q 5.515625 40.1875 11.734375 48.09375 
Q 17.96875 56 27.875 56 
Q 33.9375 56 38.25 53.625 
Q 42.578125 51.265625 45.40625 46.390625 
z
M 14.796875 27.296875 
Q 14.796875 17.390625 18.875 11.75 
Q 22.953125 6.109375 30.078125 6.109375 
Q 37.203125 6.109375 41.296875 11.75 
Q 45.40625 17.390625 45.40625 27.296875 
Q 45.40625 37.203125 41.296875 42.84375 
Q 37.203125 48.484375 30.078125 48.484375 
Q 22.953125 48.484375 18.875 42.84375 
Q 14.796875 37.203125 14.796875 27.296875 
z
" id="DejaVuSans-64"/>
     </defs>
     <g transform="translate(356.074687 155.332875)scale(0.2 -0.2)">
      <use xlink:href="#DejaVuSans-43"/>
      <use x="69.824219" xlink:href="#DejaVuSans-6f"/>
      <use x="131.005859" xlink:href="#DejaVuSans-6c"/>
      <use x="158.789062" xlink:href="#DejaVuSans-64"/>
     </g>
    </g>
    <g id="LineCollection_4">
     <path d="M 320.074687 187.689125 
L 320.074687 167.689125 
" style="fill:none;stroke:#d62728;stroke-width:1.5;"/>
    </g>
    <g id="line2d_31"/>
    <g id="line2d_32">
     <g>
      <use style="fill:#d62728;stroke:#d62728;" x="320.074687" xlink:href="#m4d17eb6f4c" y="177.689125"/>
     </g>
    </g>
    <g id="text_18">
     <!-- Hot -->
     <defs>
      <path d="M 9.8125 72.90625 
L 19.671875 72.90625 
L 19.671875 43.015625 
L 55.515625 43.015625 
L 55.515625 72.90625 
L 65.375 72.90625 
L 65.375 0 
L 55.515625 0 
L 55.515625 34.71875 
L 19.671875 34.71875 
L 19.671875 0 
L 9.8125 0 
z
" id="DejaVuSans-48"/>
      <path d="M 18.3125 70.21875 
L 18.3125 54.6875 
L 36.8125 54.6875 
L 36.8125 47.703125 
L 18.3125 47.703125 
L 18.3125 18.015625 
Q 18.3125 11.328125 20.140625 9.421875 
Q 21.96875 7.515625 27.59375 7.515625 
L 36.8125 7.515625 
L 36.8125 0 
L 27.59375 0 
Q 17.1875 0 13.234375 3.875 
Q 9.28125 7.765625 9.28125 18.015625 
L 9.28125 47.703125 
L 2.6875 47.703125 
L 2.6875 54.6875 
L 9.28125 54.6875 
L 9.28125 70.21875 
z
" id="DejaVuSans-74"/>
     </defs>
     <g transform="translate(356.074687 184.689125)scale(0.2 -0.2)">
      <use xlink:href="#DejaVuSans-48"/>
      <use x="75.195312" xlink:href="#DejaVuSans-6f"/>
      <use x="136.376953" xlink:href="#DejaVuSans-74"/>
     </g>
    </g>
   </g>
  </g>
 </g>
 <defs>
  <clipPath id="pcd39df9889">
   <rect height="266.112" width="357.12" x="61.410938" y="31.43625"/>
  </clipPath>
 </defs>
</svg>
