<?xml version="1.0" encoding="utf-8" standalone="no"?>
<!DOCTYPE svg PUBLIC "-//W3C//DTD SVG 1.1//EN"
  "http://www.w3.org/Graphics/SVG/1.1/DTD/svg11.dtd">
<!-- Created with matplotlib (http://matplotlib.org/) -->
<svg height="349pt" version="1.1" viewBox="0 0 429 349" width="429pt" xmlns="http://www.w3.org/2000/svg" xmlns:xlink="http://www.w3.org/1999/xlink">
 <defs>
  <style type="text/css">
*{stroke-linecap:butt;stroke-linejoin:round;}
  </style>
 </defs>
 <g id="figure_1">
  <g id="patch_1">
   <path d="M 0 349.665437 
L 429.230937 349.665437 
L 429.230937 0 
L 0 0 
z
" style="fill:none;"/>
  </g>
  <g id="axes_1">
   <g id="patch_2">
    <path d="M 61.410938 297.54825 
L 418.530938 297.54825 
L 418.530938 31.43625 
L 61.410938 31.43625 
z
" style="fill:none;"/>
   </g>
   <g id="matplotlib.axis_1">
    <g id="xtick_1">
     <g id="line2d_1">
      <path clip-path="url(#pcd39df9889)" d="M 61.410938 297.54825 
L 61.410938 31.43625 
" style="fill:none;stroke:#b0b0b0;stroke-linecap:square;stroke-width:0.8;"/>
     </g>
     <g id="line2d_2">
      <defs>
       <path d="M 0 0 
L 0 3.5 
" id="m005f0a59be" style="stroke:#000000;stroke-width:0.8;"/>
      </defs>
      <g>
       <use style="stroke:#000000;stroke-width:0.8;" x="61.410938" xlink:href="#m005f0a59be" y="297.54825"/>
      </g>
     </g>
     <g id="text_1">
      <!-- 0 -->
      <defs>
       <path d="M 31.78125 66.40625 
Q 24.171875 66.40625 20.328125 58.90625 
Q 16.5 51.421875 16.5 36.375 
Q 16.5 21.390625 20.328125 13.890625 
Q 24.171875 6.390625 31.78125 6.390625 
Q 39.453125 6.390625 43.28125 13.890625 
Q 47.125 21.390625 47.125 36.375 
Q 47.125 51.421875 43.28125 58.90625 
Q 39.453125 66.40625 31.78125 66.40625 
z
M 31.78125 74.21875 
Q 44.046875 74.21875 50.515625 64.515625 
Q 56.984375 54.828125 56.984375 36.375 
Q 56.984375 17.96875 50.515625 8.265625 
Q 44.046875 -1.421875 31.78125 -1.421875 
Q 19.53125 -1.421875 13.0625 8.265625 
Q 6.59375 17.96875 6.59375 36.375 
Q 6.59375 54.828125 13.0625 64.515625 
Q 19.53125 74.21875 31.78125 74.21875 
z
" id="DejaVuSans-30"/>
      </defs>
      <g transform="translate(56.639063 315.945906)scale(0.15 -0.15)">
       <use xlink:href="#DejaVuSans-30"/>
      </g>
     </g>
    </g>
    <g id="xtick_2">
     <g id="line2d_3">
      <path clip-path="url(#pcd39df9889)" d="M 130.087861 297.54825 
L 130.087861 31.43625 
" style="fill:none;stroke:#b0b0b0;stroke-linecap:square;stroke-width:0.8;"/>
     </g>
     <g id="line2d_4">
      <g>
       <use style="stroke:#000000;stroke-width:0.8;" x="130.087861" xlink:href="#m005f0a59be" y="297.54825"/>
      </g>
     </g>
     <g id="text_2">
      <!-- 100 -->
      <defs>
       <path d="M 12.40625 8.296875 
L 28.515625 8.296875 
L 28.515625 63.921875 
L 10.984375 60.40625 
L 10.984375 69.390625 
L 28.421875 72.90625 
L 38.28125 72.90625 
L 38.28125 8.296875 
L 54.390625 8.296875 
L 54.390625 0 
L 12.40625 0 
z
" id="DejaVuSans-31"/>
      </defs>
      <g transform="translate(115.772236 315.945906)scale(0.15 -0.15)">
       <use xlink:href="#DejaVuSans-31"/>
       <use x="63.623047" xlink:href="#DejaVuSans-30"/>
       <use x="127.246094" xlink:href="#DejaVuSans-30"/>
      </g>
     </g>
    </g>
    <g id="xtick_3">
     <g id="line2d_5">
      <path clip-path="url(#pcd39df9889)" d="M 198.764784 297.54825 
L 198.764784 31.43625 
" style="fill:none;stroke:#b0b0b0;stroke-linecap:square;stroke-width:0.8;"/>
     </g>
     <g id="line2d_6">
      <g>
       <use style="stroke:#000000;stroke-width:0.8;" x="198.764784" xlink:href="#m005f0a59be" y="297.54825"/>
      </g>
     </g>
     <g id="text_3">
      <!-- 200 -->
      <defs>
       <path d="M 19.1875 8.296875 
L 53.609375 8.296875 
L 53.609375 0 
L 7.328125 0 
L 7.328125 8.296875 
Q 12.9375 14.109375 22.625 23.890625 
Q 32.328125 33.6875 34.8125 36.53125 
Q 39.546875 41.84375 41.421875 45.53125 
Q 43.3125 49.21875 43.3125 52.78125 
Q 43.3125 58.59375 39.234375 62.25 
Q 35.15625 65.921875 28.609375 65.921875 
Q 23.96875 65.921875 18.8125 64.3125 
Q 13.671875 62.703125 7.8125 59.421875 
L 7.8125 69.390625 
Q 13.765625 71.78125 18.9375 73 
Q 24.125 74.21875 28.421875 74.21875 
Q 39.75 74.21875 46.484375 68.546875 
Q 53.21875 62.890625 53.21875 53.421875 
Q 53.21875 48.921875 51.53125 44.890625 
Q 49.859375 40.875 45.40625 35.40625 
Q 44.1875 33.984375 37.640625 27.21875 
Q 31.109375 20.453125 19.1875 8.296875 
z
" id="DejaVuSans-32"/>
      </defs>
      <g transform="translate(184.449159 315.945906)scale(0.15 -0.15)">
       <use xlink:href="#DejaVuSans-32"/>
       <use x="63.623047" xlink:href="#DejaVuSans-30"/>
       <use x="127.246094" xlink:href="#DejaVuSans-30"/>
      </g>
     </g>
    </g>
    <g id="xtick_4">
     <g id="line2d_7">
      <path clip-path="url(#pcd39df9889)" d="M 267.441707 297.54825 
L 267.441707 31.43625 
" style="fill:none;stroke:#b0b0b0;stroke-linecap:square;stroke-width:0.8;"/>
     </g>
     <g id="line2d_8">
      <g>
       <use style="stroke:#000000;stroke-width:0.8;" x="267.441707" xlink:href="#m005f0a59be" y="297.54825"/>
      </g>
     </g>
     <g id="text_4">
      <!-- 300 -->
      <defs>
       <path d="M 40.578125 39.3125 
Q 47.65625 37.796875 51.625 33 
Q 55.609375 28.21875 55.609375 21.1875 
Q 55.609375 10.40625 48.1875 4.484375 
Q 40.765625 -1.421875 27.09375 -1.421875 
Q 22.515625 -1.421875 17.65625 -0.515625 
Q 12.796875 0.390625 7.625 2.203125 
L 7.625 11.71875 
Q 11.71875 9.328125 16.59375 8.109375 
Q 21.484375 6.890625 26.8125 6.890625 
Q 36.078125 6.890625 40.9375 10.546875 
Q 45.796875 14.203125 45.796875 21.1875 
Q 45.796875 27.640625 41.28125 31.265625 
Q 36.765625 34.90625 28.71875 34.90625 
L 20.21875 34.90625 
L 20.21875 43.015625 
L 29.109375 43.015625 
Q 36.375 43.015625 40.234375 45.921875 
Q 44.09375 48.828125 44.09375 54.296875 
Q 44.09375 59.90625 40.109375 62.90625 
Q 36.140625 65.921875 28.71875 65.921875 
Q 24.65625 65.921875 20.015625 65.03125 
Q 15.375 64.15625 9.8125 62.3125 
L 9.8125 71.09375 
Q 15.4375 72.65625 20.34375 73.4375 
Q 25.25 74.21875 29.59375 74.21875 
Q 40.828125 74.21875 47.359375 69.109375 
Q 53.90625 64.015625 53.90625 55.328125 
Q 53.90625 49.265625 50.4375 45.09375 
Q 46.96875 40.921875 40.578125 39.3125 
z
" id="DejaVuSans-33"/>
      </defs>
      <g transform="translate(253.126082 315.945906)scale(0.15 -0.15)">
       <use xlink:href="#DejaVuSans-33"/>
       <use x="63.623047" xlink:href="#DejaVuSans-30"/>
       <use x="127.246094" xlink:href="#DejaVuSans-30"/>
      </g>
     </g>
    </g>
    <g id="xtick_5">
     <g id="line2d_9">
      <path clip-path="url(#pcd39df9889)" d="M 336.11863 297.54825 
L 336.11863 31.43625 
" style="fill:none;stroke:#b0b0b0;stroke-linecap:square;stroke-width:0.8;"/>
     </g>
     <g id="line2d_10">
      <g>
       <use style="stroke:#000000;stroke-width:0.8;" x="336.11863" xlink:href="#m005f0a59be" y="297.54825"/>
      </g>
     </g>
     <g id="text_5">
      <!-- 400 -->
      <defs>
       <path d="M 37.796875 64.3125 
L 12.890625 25.390625 
L 37.796875 25.390625 
z
M 35.203125 72.90625 
L 47.609375 72.90625 
L 47.609375 25.390625 
L 58.015625 25.390625 
L 58.015625 17.1875 
L 47.609375 17.1875 
L 47.609375 0 
L 37.796875 0 
L 37.796875 17.1875 
L 4.890625 17.1875 
L 4.890625 26.703125 
z
" id="DejaVuSans-34"/>
      </defs>
      <g transform="translate(321.803005 315.945906)scale(0.15 -0.15)">
       <use xlink:href="#DejaVuSans-34"/>
       <use x="63.623047" xlink:href="#DejaVuSans-30"/>
       <use x="127.246094" xlink:href="#DejaVuSans-30"/>
      </g>
     </g>
    </g>
    <g id="xtick_6">
     <g id="line2d_11">
      <path clip-path="url(#pcd39df9889)" d="M 404.795553 297.54825 
L 404.795553 31.43625 
" style="fill:none;stroke:#b0b0b0;stroke-linecap:square;stroke-width:0.8;"/>
     </g>
     <g id="line2d_12">
      <g>
       <use style="stroke:#000000;stroke-width:0.8;" x="404.795553" xlink:href="#m005f0a59be" y="297.54825"/>
      </g>
     </g>
     <g id="text_6">
      <!-- 500 -->
      <defs>
       <path d="M 10.796875 72.90625 
L 49.515625 72.90625 
L 49.515625 64.59375 
L 19.828125 64.59375 
L 19.828125 46.734375 
Q 21.96875 47.46875 24.109375 47.828125 
Q 26.265625 48.1875 28.421875 48.1875 
Q 40.625 48.1875 47.75 41.5 
Q 54.890625 34.8125 54.890625 23.390625 
Q 54.890625 11.625 47.5625 5.09375 
Q 40.234375 -1.421875 26.90625 -1.421875 
Q 22.3125 -1.421875 17.546875 -0.640625 
Q 12.796875 0.140625 7.71875 1.703125 
L 7.71875 11.625 
Q 12.109375 9.234375 16.796875 8.0625 
Q 21.484375 6.890625 26.703125 6.890625 
Q 35.15625 6.890625 40.078125 11.328125 
Q 45.015625 15.765625 45.015625 23.390625 
Q 45.015625 31 40.078125 35.4375 
Q 35.15625 39.890625 26.703125 39.890625 
Q 22.75 39.890625 18.8125 39.015625 
Q 14.890625 38.140625 10.796875 36.28125 
z
" id="DejaVuSans-35"/>
      </defs>
      <g transform="translate(390.479928 315.945906)scale(0.15 -0.15)">
       <use xlink:href="#DejaVuSans-35"/>
       <use x="63.623047" xlink:href="#DejaVuSans-30"/>
       <use x="127.246094" xlink:href="#DejaVuSans-30"/>
      </g>
     </g>
    </g>
    <g id="text_7">
     <!-- Time ($\mu s$) -->
     <defs>
      <path d="M -0.296875 72.90625 
L 61.375 72.90625 
L 61.375 64.59375 
L 35.5 64.59375 
L 35.5 0 
L 25.59375 0 
L 25.59375 64.59375 
L -0.296875 64.59375 
z
" id="DejaVuSans-54"/>
      <path d="M 9.421875 54.6875 
L 18.40625 54.6875 
L 18.40625 0 
L 9.421875 0 
z
M 9.421875 75.984375 
L 18.40625 75.984375 
L 18.40625 64.59375 
L 9.421875 64.59375 
z
" id="DejaVuSans-69"/>
      <path d="M 52 44.1875 
Q 55.375 50.25 60.0625 53.125 
Q 64.75 56 71.09375 56 
Q 79.640625 56 84.28125 50.015625 
Q 88.921875 44.046875 88.921875 33.015625 
L 88.921875 0 
L 79.890625 0 
L 79.890625 32.71875 
Q 79.890625 40.578125 77.09375 44.375 
Q 74.3125 48.1875 68.609375 48.1875 
Q 61.625 48.1875 57.5625 43.546875 
Q 53.515625 38.921875 53.515625 30.90625 
L 53.515625 0 
L 44.484375 0 
L 44.484375 32.71875 
Q 44.484375 40.625 41.703125 44.40625 
Q 38.921875 48.1875 33.109375 48.1875 
Q 26.21875 48.1875 22.15625 43.53125 
Q 18.109375 38.875 18.109375 30.90625 
L 18.109375 0 
L 9.078125 0 
L 9.078125 54.6875 
L 18.109375 54.6875 
L 18.109375 46.1875 
Q 21.1875 51.21875 25.484375 53.609375 
Q 29.78125 56 35.6875 56 
Q 41.65625 56 45.828125 52.96875 
Q 50 49.953125 52 44.1875 
z
" id="DejaVuSans-6d"/>
      <path d="M 56.203125 29.59375 
L 56.203125 25.203125 
L 14.890625 25.203125 
Q 15.484375 15.921875 20.484375 11.0625 
Q 25.484375 6.203125 34.421875 6.203125 
Q 39.59375 6.203125 44.453125 7.46875 
Q 49.3125 8.734375 54.109375 11.28125 
L 54.109375 2.78125 
Q 49.265625 0.734375 44.1875 -0.34375 
Q 39.109375 -1.421875 33.890625 -1.421875 
Q 20.796875 -1.421875 13.15625 6.1875 
Q 5.515625 13.8125 5.515625 26.8125 
Q 5.515625 40.234375 12.765625 48.109375 
Q 20.015625 56 32.328125 56 
Q 43.359375 56 49.78125 48.890625 
Q 56.203125 41.796875 56.203125 29.59375 
z
M 47.21875 32.234375 
Q 47.125 39.59375 43.09375 43.984375 
Q 39.0625 48.390625 32.421875 48.390625 
Q 24.90625 48.390625 20.390625 44.140625 
Q 15.875 39.890625 15.1875 32.171875 
z
" id="DejaVuSans-65"/>
      <path id="DejaVuSans-20"/>
      <path d="M 31 75.875 
Q 24.46875 64.65625 21.28125 53.65625 
Q 18.109375 42.671875 18.109375 31.390625 
Q 18.109375 20.125 21.3125 9.0625 
Q 24.515625 -2 31 -13.1875 
L 23.1875 -13.1875 
Q 15.875 -1.703125 12.234375 9.375 
Q 8.59375 20.453125 8.59375 31.390625 
Q 8.59375 42.28125 12.203125 53.3125 
Q 15.828125 64.359375 23.1875 75.875 
z
" id="DejaVuSans-28"/>
      <path d="M -1.3125 -20.796875 
L 13.375 54.6875 
L 22.40625 54.6875 
L 15.765625 20.65625 
Q 15.578125 19.625 15.421875 18.359375 
Q 15.28125 17.09375 15.28125 15.828125 
Q 15.28125 11.28125 18.140625 8.828125 
Q 21 6.390625 26.3125 6.390625 
Q 33.546875 6.390625 37.984375 10.484375 
Q 42.4375 14.59375 44 22.796875 
L 50.203125 54.6875 
L 59.1875 54.6875 
L 51.03125 12.640625 
Q 50.828125 11.71875 50.75 11.03125 
Q 50.6875 10.359375 50.6875 9.8125 
Q 50.6875 8.296875 51.296875 7.59375 
Q 51.90625 6.890625 53.21875 6.890625 
Q 53.71875 6.890625 54.5625 7.125 
Q 55.421875 7.375 56.984375 8.015625 
L 55.609375 0.78125 
Q 53.46875 -0.296875 51.515625 -0.859375 
Q 49.5625 -1.421875 47.703125 -1.421875 
Q 44.484375 -1.421875 42.65625 0.625 
Q 40.828125 2.6875 40.828125 6.296875 
Q 38.09375 2.390625 34.296875 0.484375 
Q 30.515625 -1.421875 25.390625 -1.421875 
Q 20.84375 -1.421875 17.453125 0.671875 
Q 14.0625 2.78125 12.984375 6.203125 
L 7.71875 -20.796875 
z
" id="DejaVuSans-Oblique-3bc"/>
      <path d="M 50 53.078125 
L 48.296875 44.578125 
Q 44.734375 46.53125 40.765625 47.5 
Q 36.8125 48.484375 32.625 48.484375 
Q 25.53125 48.484375 21.453125 46.0625 
Q 17.390625 43.65625 17.390625 39.5 
Q 17.390625 34.671875 26.859375 32.078125 
Q 27.59375 31.890625 27.9375 31.78125 
L 30.8125 30.90625 
Q 39.796875 28.421875 42.796875 25.6875 
Q 45.796875 22.953125 45.796875 18.21875 
Q 45.796875 9.515625 38.890625 4.046875 
Q 31.984375 -1.421875 20.796875 -1.421875 
Q 16.453125 -1.421875 11.671875 -0.578125 
Q 6.890625 0.25 1.125 2 
L 2.875 11.28125 
Q 7.8125 8.734375 12.59375 7.421875 
Q 17.390625 6.109375 21.78125 6.109375 
Q 28.375 6.109375 32.5 8.9375 
Q 36.625 11.765625 36.625 16.109375 
Q 36.625 20.796875 25.78125 23.6875 
L 24.859375 23.921875 
L 21.78125 24.703125 
Q 14.9375 26.515625 11.765625 29.46875 
Q 8.59375 32.421875 8.59375 37.015625 
Q 8.59375 45.75 15.15625 50.875 
Q 21.734375 56 33.015625 56 
Q 37.453125 56 41.671875 55.265625 
Q 45.90625 54.546875 50 53.078125 
z
" id="DejaVuSans-Oblique-73"/>
      <path d="M 8.015625 75.875 
L 15.828125 75.875 
Q 23.140625 64.359375 26.78125 53.3125 
Q 30.421875 42.28125 30.421875 31.390625 
Q 30.421875 20.453125 26.78125 9.375 
Q 23.140625 -1.703125 15.828125 -13.1875 
L 8.015625 -13.1875 
Q 14.5 -2 17.703125 9.0625 
Q 20.90625 20.125 20.90625 31.390625 
Q 20.90625 42.671875 17.703125 53.65625 
Q 14.5 64.65625 8.015625 75.875 
z
" id="DejaVuSans-29"/>
     </defs>
     <g transform="translate(192.570938 338.265437)scale(0.2 -0.2)">
      <use transform="translate(0 0.015625)" xlink:href="#DejaVuSans-54"/>
      <use transform="translate(61.083984 0.015625)" xlink:href="#DejaVuSans-69"/>
      <use transform="translate(88.867188 0.015625)" xlink:href="#DejaVuSans-6d"/>
      <use transform="translate(186.279297 0.015625)" xlink:href="#DejaVuSans-65"/>
      <use transform="translate(247.802734 0.015625)" xlink:href="#DejaVuSans-20"/>
      <use transform="translate(279.589844 0.015625)" xlink:href="#DejaVuSans-28"/>
      <use transform="translate(318.603516 0.015625)" xlink:href="#DejaVuSans-Oblique-3bc"/>
      <use transform="translate(382.226562 0.015625)" xlink:href="#DejaVuSans-Oblique-73"/>
      <use transform="translate(434.326172 0.015625)" xlink:href="#DejaVuSans-29"/>
     </g>
    </g>
   </g>
   <g id="matplotlib.axis_2">
    <g id="ytick_1">
     <g id="line2d_13">
      <path clip-path="url(#pcd39df9889)" d="M 61.410938 297.54825 
L 418.530938 297.54825 
" style="fill:none;stroke:#b0b0b0;stroke-linecap:square;stroke-width:0.8;"/>
     </g>
     <g id="line2d_14">
      <defs>
       <path d="M 0 0 
L -3.5 0 
" id="mc3ce260a5b" style="stroke:#000000;stroke-width:0.8;"/>
      </defs>
      <g>
       <use style="stroke:#000000;stroke-width:0.8;" x="61.410938" xlink:href="#mc3ce260a5b" y="297.54825"/>
      </g>
     </g>
     <g id="text_8">
      <!-- 0.0 -->
      <defs>
       <path d="M 10.6875 12.40625 
L 21 12.40625 
L 21 0 
L 10.6875 0 
z
" id="DejaVuSans-2e"/>
      </defs>
      <g transform="translate(30.55625 303.247078)scale(0.15 -0.15)">
       <use xlink:href="#DejaVuSans-30"/>
       <use x="63.623047" xlink:href="#DejaVuSans-2e"/>
       <use x="95.410156" xlink:href="#DejaVuSans-30"/>
      </g>
     </g>
    </g>
    <g id="ytick_2">
     <g id="line2d_15">
      <path clip-path="url(#pcd39df9889)" d="M 61.410938 244.32585 
L 418.530938 244.32585 
" style="fill:none;stroke:#b0b0b0;stroke-linecap:square;stroke-width:0.8;"/>
     </g>
     <g id="line2d_16">
      <g>
       <use style="stroke:#000000;stroke-width:0.8;" x="61.410938" xlink:href="#mc3ce260a5b" y="244.32585"/>
      </g>
     </g>
     <g id="text_9">
      <!-- 0.2 -->
      <g transform="translate(30.55625 250.024678)scale(0.15 -0.15)">
       <use xlink:href="#DejaVuSans-30"/>
       <use x="63.623047" xlink:href="#DejaVuSans-2e"/>
       <use x="95.410156" xlink:href="#DejaVuSans-32"/>
      </g>
     </g>
    </g>
    <g id="ytick_3">
     <g id="line2d_17">
      <path clip-path="url(#pcd39df9889)" d="M 61.410938 191.10345 
L 418.530938 191.10345 
" style="fill:none;stroke:#b0b0b0;stroke-linecap:square;stroke-width:0.8;"/>
     </g>
     <g id="line2d_18">
      <g>
       <use style="stroke:#000000;stroke-width:0.8;" x="61.410938" xlink:href="#mc3ce260a5b" y="191.10345"/>
      </g>
     </g>
     <g id="text_10">
      <!-- 0.4 -->
      <g transform="translate(30.55625 196.802278)scale(0.15 -0.15)">
       <use xlink:href="#DejaVuSans-30"/>
       <use x="63.623047" xlink:href="#DejaVuSans-2e"/>
       <use x="95.410156" xlink:href="#DejaVuSans-34"/>
      </g>
     </g>
    </g>
    <g id="ytick_4">
     <g id="line2d_19">
      <path clip-path="url(#pcd39df9889)" d="M 61.410938 137.88105 
L 418.530938 137.88105 
" style="fill:none;stroke:#b0b0b0;stroke-linecap:square;stroke-width:0.8;"/>
     </g>
     <g id="line2d_20">
      <g>
       <use style="stroke:#000000;stroke-width:0.8;" x="61.410938" xlink:href="#mc3ce260a5b" y="137.88105"/>
      </g>
     </g>
     <g id="text_11">
      <!-- 0.6 -->
      <defs>
       <path d="M 33.015625 40.375 
Q 26.375 40.375 22.484375 35.828125 
Q 18.609375 31.296875 18.609375 23.390625 
Q 18.609375 15.53125 22.484375 10.953125 
Q 26.375 6.390625 33.015625 6.390625 
Q 39.65625 6.390625 43.53125 10.953125 
Q 47.40625 15.53125 47.40625 23.390625 
Q 47.40625 31.296875 43.53125 35.828125 
Q 39.65625 40.375 33.015625 40.375 
z
M 52.59375 71.296875 
L 52.59375 62.3125 
Q 48.875 64.0625 45.09375 64.984375 
Q 41.3125 65.921875 37.59375 65.921875 
Q 27.828125 65.921875 22.671875 59.328125 
Q 17.53125 52.734375 16.796875 39.40625 
Q 19.671875 43.65625 24.015625 45.921875 
Q 28.375 48.1875 33.59375 48.1875 
Q 44.578125 48.1875 50.953125 41.515625 
Q 57.328125 34.859375 57.328125 23.390625 
Q 57.328125 12.15625 50.6875 5.359375 
Q 44.046875 -1.421875 33.015625 -1.421875 
Q 20.359375 -1.421875 13.671875 8.265625 
Q 6.984375 17.96875 6.984375 36.375 
Q 6.984375 53.65625 15.1875 63.9375 
Q 23.390625 74.21875 37.203125 74.21875 
Q 40.921875 74.21875 44.703125 73.484375 
Q 48.484375 72.75 52.59375 71.296875 
z
" id="DejaVuSans-36"/>
      </defs>
      <g transform="translate(30.55625 143.579878)scale(0.15 -0.15)">
       <use xlink:href="#DejaVuSans-30"/>
       <use x="63.623047" xlink:href="#DejaVuSans-2e"/>
       <use x="95.410156" xlink:href="#DejaVuSans-36"/>
      </g>
     </g>
    </g>
    <g id="ytick_5">
     <g id="line2d_21">
      <path clip-path="url(#pcd39df9889)" d="M 61.410938 84.65865 
L 418.530938 84.65865 
" style="fill:none;stroke:#b0b0b0;stroke-linecap:square;stroke-width:0.8;"/>
     </g>
     <g id="line2d_22">
      <g>
       <use style="stroke:#000000;stroke-width:0.8;" x="61.410938" xlink:href="#mc3ce260a5b" y="84.65865"/>
      </g>
     </g>
     <g id="text_12">
      <!-- 0.8 -->
      <defs>
       <path d="M 31.78125 34.625 
Q 24.75 34.625 20.71875 30.859375 
Q 16.703125 27.09375 16.703125 20.515625 
Q 16.703125 13.921875 20.71875 10.15625 
Q 24.75 6.390625 31.78125 6.390625 
Q 38.8125 6.390625 42.859375 10.171875 
Q 46.921875 13.96875 46.921875 20.515625 
Q 46.921875 27.09375 42.890625 30.859375 
Q 38.875 34.625 31.78125 34.625 
z
M 21.921875 38.8125 
Q 15.578125 40.375 12.03125 44.71875 
Q 8.5 49.078125 8.5 55.328125 
Q 8.5 64.0625 14.71875 69.140625 
Q 20.953125 74.21875 31.78125 74.21875 
Q 42.671875 74.21875 48.875 69.140625 
Q 55.078125 64.0625 55.078125 55.328125 
Q 55.078125 49.078125 51.53125 44.71875 
Q 48 40.375 41.703125 38.8125 
Q 48.828125 37.15625 52.796875 32.3125 
Q 56.78125 27.484375 56.78125 20.515625 
Q 56.78125 9.90625 50.3125 4.234375 
Q 43.84375 -1.421875 31.78125 -1.421875 
Q 19.734375 -1.421875 13.25 4.234375 
Q 6.78125 9.90625 6.78125 20.515625 
Q 6.78125 27.484375 10.78125 32.3125 
Q 14.796875 37.15625 21.921875 38.8125 
z
M 18.3125 54.390625 
Q 18.3125 48.734375 21.84375 45.5625 
Q 25.390625 42.390625 31.78125 42.390625 
Q 38.140625 42.390625 41.71875 45.5625 
Q 45.3125 48.734375 45.3125 54.390625 
Q 45.3125 60.0625 41.71875 63.234375 
Q 38.140625 66.40625 31.78125 66.40625 
Q 25.390625 66.40625 21.84375 63.234375 
Q 18.3125 60.0625 18.3125 54.390625 
z
" id="DejaVuSans-38"/>
      </defs>
      <g transform="translate(30.55625 90.357478)scale(0.15 -0.15)">
       <use xlink:href="#DejaVuSans-30"/>
       <use x="63.623047" xlink:href="#DejaVuSans-2e"/>
       <use x="95.410156" xlink:href="#DejaVuSans-38"/>
      </g>
     </g>
    </g>
    <g id="ytick_6">
     <g id="line2d_23">
      <path clip-path="url(#pcd39df9889)" d="M 61.410938 31.43625 
L 418.530938 31.43625 
" style="fill:none;stroke:#b0b0b0;stroke-linecap:square;stroke-width:0.8;"/>
     </g>
     <g id="line2d_24">
      <g>
       <use style="stroke:#000000;stroke-width:0.8;" x="61.410938" xlink:href="#mc3ce260a5b" y="31.43625"/>
      </g>
     </g>
     <g id="text_13">
      <!-- 1.0 -->
      <g transform="translate(30.55625 37.135078)scale(0.15 -0.15)">
       <use xlink:href="#DejaVuSans-31"/>
       <use x="63.623047" xlink:href="#DejaVuSans-2e"/>
       <use x="95.410156" xlink:href="#DejaVuSans-30"/>
      </g>
     </g>
    </g>
    <g id="text_14">
     <!-- Survival -->
     <defs>
      <path d="M 53.515625 70.515625 
L 53.515625 60.890625 
Q 47.90625 63.578125 42.921875 64.890625 
Q 37.9375 66.21875 33.296875 66.21875 
Q 25.25 66.21875 20.875 63.09375 
Q 16.5 59.96875 16.5 54.203125 
Q 16.5 49.359375 19.40625 46.890625 
Q 22.3125 44.4375 30.421875 42.921875 
L 36.375 41.703125 
Q 47.40625 39.59375 52.65625 34.296875 
Q 57.90625 29 57.90625 20.125 
Q 57.90625 9.515625 50.796875 4.046875 
Q 43.703125 -1.421875 29.984375 -1.421875 
Q 24.8125 -1.421875 18.96875 -0.25 
Q 13.140625 0.921875 6.890625 3.21875 
L 6.890625 13.375 
Q 12.890625 10.015625 18.65625 8.296875 
Q 24.421875 6.59375 29.984375 6.59375 
Q 38.421875 6.59375 43.015625 9.90625 
Q 47.609375 13.234375 47.609375 19.390625 
Q 47.609375 24.75 44.3125 27.78125 
Q 41.015625 30.8125 33.5 32.328125 
L 27.484375 33.5 
Q 16.453125 35.6875 11.515625 40.375 
Q 6.59375 45.0625 6.59375 53.421875 
Q 6.59375 63.09375 13.40625 68.65625 
Q 20.21875 74.21875 32.171875 74.21875 
Q 37.3125 74.21875 42.625 73.28125 
Q 47.953125 72.359375 53.515625 70.515625 
z
" id="DejaVuSans-53"/>
      <path d="M 8.5 21.578125 
L 8.5 54.6875 
L 17.484375 54.6875 
L 17.484375 21.921875 
Q 17.484375 14.15625 20.5 10.265625 
Q 23.53125 6.390625 29.59375 6.390625 
Q 36.859375 6.390625 41.078125 11.03125 
Q 45.3125 15.671875 45.3125 23.6875 
L 45.3125 54.6875 
L 54.296875 54.6875 
L 54.296875 0 
L 45.3125 0 
L 45.3125 8.40625 
Q 42.046875 3.421875 37.71875 1 
Q 33.40625 -1.421875 27.6875 -1.421875 
Q 18.265625 -1.421875 13.375 4.4375 
Q 8.5 10.296875 8.5 21.578125 
z
M 31.109375 56 
z
" id="DejaVuSans-75"/>
      <path d="M 41.109375 46.296875 
Q 39.59375 47.171875 37.8125 47.578125 
Q 36.03125 48 33.890625 48 
Q 26.265625 48 22.1875 43.046875 
Q 18.109375 38.09375 18.109375 28.8125 
L 18.109375 0 
L 9.078125 0 
L 9.078125 54.6875 
L 18.109375 54.6875 
L 18.109375 46.1875 
Q 20.953125 51.171875 25.484375 53.578125 
Q 30.03125 56 36.53125 56 
Q 37.453125 56 38.578125 55.875 
Q 39.703125 55.765625 41.0625 55.515625 
z
" id="DejaVuSans-72"/>
      <path d="M 2.984375 54.6875 
L 12.5 54.6875 
L 29.59375 8.796875 
L 46.6875 54.6875 
L 56.203125 54.6875 
L 35.6875 0 
L 23.484375 0 
z
" id="DejaVuSans-76"/>
      <path d="M 34.28125 27.484375 
Q 23.390625 27.484375 19.1875 25 
Q 14.984375 22.515625 14.984375 16.5 
Q 14.984375 11.71875 18.140625 8.90625 
Q 21.296875 6.109375 26.703125 6.109375 
Q 34.1875 6.109375 38.703125 11.40625 
Q 43.21875 16.703125 43.21875 25.484375 
L 43.21875 27.484375 
z
M 52.203125 31.203125 
L 52.203125 0 
L 43.21875 0 
L 43.21875 8.296875 
Q 40.140625 3.328125 35.546875 0.953125 
Q 30.953125 -1.421875 24.3125 -1.421875 
Q 15.921875 -1.421875 10.953125 3.296875 
Q 6 8.015625 6 15.921875 
Q 6 25.140625 12.171875 29.828125 
Q 18.359375 34.515625 30.609375 34.515625 
L 43.21875 34.515625 
L 43.21875 35.40625 
Q 43.21875 41.609375 39.140625 45 
Q 35.0625 48.390625 27.6875 48.390625 
Q 23 48.390625 18.546875 47.265625 
Q 14.109375 46.140625 10.015625 43.890625 
L 10.015625 52.203125 
Q 14.9375 54.109375 19.578125 55.046875 
Q 24.21875 56 28.609375 56 
Q 40.484375 56 46.34375 49.84375 
Q 52.203125 43.703125 52.203125 31.203125 
z
" id="DejaVuSans-61"/>
      <path d="M 9.421875 75.984375 
L 18.40625 75.984375 
L 18.40625 0 
L 9.421875 0 
z
" id="DejaVuSans-6c"/>
     </defs>
     <g transform="translate(22.396875 204.811)rotate(-90)scale(0.2 -0.2)">
      <use xlink:href="#DejaVuSans-53"/>
      <use x="63.476562" xlink:href="#DejaVuSans-75"/>
      <use x="126.855469" xlink:href="#DejaVuSans-72"/>
      <use x="167.96875" xlink:href="#DejaVuSans-76"/>
      <use x="227.148438" xlink:href="#DejaVuSans-69"/>
      <use x="254.931641" xlink:href="#DejaVuSans-76"/>
      <use x="314.111328" xlink:href="#DejaVuSans-61"/>
      <use x="375.390625" xlink:href="#DejaVuSans-6c"/>
     </g>
    </g>
   </g>
   <g id="LineCollection_1">
    <path clip-path="url(#pcd39df9889)" d="M 61.410938 297.54825 
L 61.410938 296.36553 
" style="fill:none;stroke:#1f77b4;stroke-width:1.5;"/>
    <path clip-path="url(#pcd39df9889)" d="M 73.086014 248.167345 
L 73.086014 233.238113 
" style="fill:none;stroke:#1f77b4;stroke-width:1.5;"/>
    <path clip-path="url(#pcd39df9889)" d="M 84.761091 166.874424 
L 84.761091 149.271339 
" style="fill:none;stroke:#1f77b4;stroke-width:1.5;"/>
    <path clip-path="url(#pcd39df9889)" d="M 96.436168 90.215565 
L 96.436168 76.69249 
" style="fill:none;stroke:#1f77b4;stroke-width:1.5;"/>
    <path clip-path="url(#pcd39df9889)" d="M 108.111245 104.430916 
L 108.111245 88.085891 
" style="fill:none;stroke:#1f77b4;stroke-width:1.5;"/>
    <path clip-path="url(#pcd39df9889)" d="M 119.786322 147.252901 
L 119.786322 130.115048 
" style="fill:none;stroke:#1f77b4;stroke-width:1.5;"/>
    <path clip-path="url(#pcd39df9889)" d="M 131.461399 246.783401 
L 131.461399 232.038937 
" style="fill:none;stroke:#1f77b4;stroke-width:1.5;"/>
    <path clip-path="url(#pcd39df9889)" d="M 143.136476 267.396778 
L 143.136476 255.231722 
" style="fill:none;stroke:#1f77b4;stroke-width:1.5;"/>
    <path clip-path="url(#pcd39df9889)" d="M 154.811553 218.361236 
L 154.811553 201.992191 
" style="fill:none;stroke:#1f77b4;stroke-width:1.5;"/>
    <path clip-path="url(#pcd39df9889)" d="M 166.48663 158.185495 
L 166.48663 140.281573 
" style="fill:none;stroke:#1f77b4;stroke-width:1.5;"/>
    <path clip-path="url(#pcd39df9889)" d="M 178.161707 83.298243 
L 178.161707 69.883759 
" style="fill:none;stroke:#1f77b4;stroke-width:1.5;"/>
    <path clip-path="url(#pcd39df9889)" d="M 189.836784 88.141972 
L 189.836784 74.522528 
" style="fill:none;stroke:#1f77b4;stroke-width:1.5;"/>
    <path clip-path="url(#pcd39df9889)" d="M 201.511861 172.23807 
L 201.511861 154.338176 
" style="fill:none;stroke:#1f77b4;stroke-width:1.5;"/>
    <path clip-path="url(#pcd39df9889)" d="M 213.186938 247.701619 
L 213.186938 233.507966 
" style="fill:none;stroke:#1f77b4;stroke-width:1.5;"/>
    <path clip-path="url(#pcd39df9889)" d="M 224.862014 255.362601 
L 224.862014 241.813899 
" style="fill:none;stroke:#1f77b4;stroke-width:1.5;"/>
    <path clip-path="url(#pcd39df9889)" d="M 236.537091 204.13545 
L 236.537091 186.356069 
" style="fill:none;stroke:#1f77b4;stroke-width:1.5;"/>
    <path clip-path="url(#pcd39df9889)" d="M 248.212168 128.093156 
L 248.212168 110.937992 
" style="fill:none;stroke:#1f77b4;stroke-width:1.5;"/>
    <path clip-path="url(#pcd39df9889)" d="M 259.887245 89.68766 
L 259.887245 75.44084 
" style="fill:none;stroke:#1f77b4;stroke-width:1.5;"/>
    <path clip-path="url(#pcd39df9889)" d="M 271.562322 104.12431 
L 271.562322 88.820872 
" style="fill:none;stroke:#1f77b4;stroke-width:1.5;"/>
    <path clip-path="url(#pcd39df9889)" d="M 283.237399 174.545018 
L 283.237399 156.804922 
" style="fill:none;stroke:#1f77b4;stroke-width:1.5;"/>
    <path clip-path="url(#pcd39df9889)" d="M 294.912476 239.092638 
L 294.912476 223.555424 
" style="fill:none;stroke:#1f77b4;stroke-width:1.5;"/>
    <path clip-path="url(#pcd39df9889)" d="M 306.587553 244.3087 
L 306.587553 229.9286 
" style="fill:none;stroke:#1f77b4;stroke-width:1.5;"/>
    <path clip-path="url(#pcd39df9889)" d="M 318.26263 204.328768 
L 318.26263 187.534517 
" style="fill:none;stroke:#1f77b4;stroke-width:1.5;"/>
    <path clip-path="url(#pcd39df9889)" d="M 329.937707 145.925774 
L 329.937707 128.087234 
" style="fill:none;stroke:#1f77b4;stroke-width:1.5;"/>
    <path clip-path="url(#pcd39df9889)" d="M 341.612784 106.355456 
L 341.612784 90.782644 
" style="fill:none;stroke:#1f77b4;stroke-width:1.5;"/>
    <path clip-path="url(#pcd39df9889)" d="M 353.287861 128.862946 
L 353.287861 111.826328 
" style="fill:none;stroke:#1f77b4;stroke-width:1.5;"/>
    <path clip-path="url(#pcd39df9889)" d="M 364.962938 176.694061 
L 364.962938 158.508009 
" style="fill:none;stroke:#1f77b4;stroke-width:1.5;"/>
    <path clip-path="url(#pcd39df9889)" d="M 376.638014 241.926819 
L 376.638014 226.012716 
" style="fill:none;stroke:#1f77b4;stroke-width:1.5;"/>
    <path clip-path="url(#pcd39df9889)" d="M 388.313091 234.712446 
L 388.313091 219.434901 
" style="fill:none;stroke:#1f77b4;stroke-width:1.5;"/>
    <path clip-path="url(#pcd39df9889)" d="M 399.988168 212.774283 
L 399.988168 195.926587 
" style="fill:none;stroke:#1f77b4;stroke-width:1.5;"/>
    <path clip-path="url(#pcd39df9889)" d="M 411.663245 143.868145 
L 411.663245 126.252871 
" style="fill:none;stroke:#1f77b4;stroke-width:1.5;"/>
   </g>
   <g id="LineCollection_2">
    <path clip-path="url(#pcd39df9889)" d="M 61.410938 293.318268 
L 61.410938 286.326567 
" style="fill:none;stroke:#d62728;stroke-width:1.5;"/>
    <path clip-path="url(#pcd39df9889)" d="M 73.086014 263.036217 
L 73.086014 247.763935 
" style="fill:none;stroke:#d62728;stroke-width:1.5;"/>
    <path clip-path="url(#pcd39df9889)" d="M 84.761091 190.325663 
L 84.761091 170.410837 
" style="fill:none;stroke:#d62728;stroke-width:1.5;"/>
    <path clip-path="url(#pcd39df9889)" d="M 96.436168 211.670098 
L 96.436168 192.487283 
" style="fill:none;stroke:#d62728;stroke-width:1.5;"/>
    <path clip-path="url(#pcd39df9889)" d="M 108.111245 227.891121 
L 108.111245 208.84425 
" style="fill:none;stroke:#d62728;stroke-width:1.5;"/>
    <path clip-path="url(#pcd39df9889)" d="M 119.786322 226.734185 
L 119.786322 208.072631 
" style="fill:none;stroke:#d62728;stroke-width:1.5;"/>
    <path clip-path="url(#pcd39df9889)" d="M 131.461399 215.335629 
L 131.461399 194.716103 
" style="fill:none;stroke:#d62728;stroke-width:1.5;"/>
    <path clip-path="url(#pcd39df9889)" d="M 143.136476 192.383279 
L 143.136476 171.528421 
" style="fill:none;stroke:#d62728;stroke-width:1.5;"/>
    <path clip-path="url(#pcd39df9889)" d="M 154.811553 217.455751 
L 154.811553 197.42566 
" style="fill:none;stroke:#d62728;stroke-width:1.5;"/>
    <path clip-path="url(#pcd39df9889)" d="M 166.48663 208.018676 
L 166.48663 188.276506 
" style="fill:none;stroke:#d62728;stroke-width:1.5;"/>
    <path clip-path="url(#pcd39df9889)" d="M 178.161707 197.527445 
L 178.161707 177.603644 
" style="fill:none;stroke:#d62728;stroke-width:1.5;"/>
    <path clip-path="url(#pcd39df9889)" d="M 189.836784 179.329626 
L 189.836784 158.992137 
" style="fill:none;stroke:#d62728;stroke-width:1.5;"/>
    <path clip-path="url(#pcd39df9889)" d="M 201.511861 200.590259 
L 201.511861 179.953441 
" style="fill:none;stroke:#d62728;stroke-width:1.5;"/>
    <path clip-path="url(#pcd39df9889)" d="M 213.186938 207.95647 
L 213.186938 187.121207 
" style="fill:none;stroke:#d62728;stroke-width:1.5;"/>
    <path clip-path="url(#pcd39df9889)" d="M 224.862014 192.419779 
L 224.862014 170.727748 
" style="fill:none;stroke:#d62728;stroke-width:1.5;"/>
    <path clip-path="url(#pcd39df9889)" d="M 236.537091 191.000716 
L 236.537091 169.984594 
" style="fill:none;stroke:#d62728;stroke-width:1.5;"/>
   </g>
   <g id="line2d_25">
    <path clip-path="url(#pcd39df9889)" d="M 61.410938 297.056409 
L 62.482298 297.056409 
L 62.839418 296.150166 
L 63.553658 295.512474 
L 63.910778 295.190186 
L 64.267898 295.031045 
L 64.625018 297.056409 
L 64.982138 292.290706 
L 65.339258 291.870989 
L 66.053498 290.231005 
L 66.410618 288.826145 
L 66.767738 285.912199 
L 67.124858 285.940144 
L 67.481978 283.372634 
L 67.839098 282.339662 
L 69.267578 275.039951 
L 69.624698 271.923088 
L 69.981818 271.192112 
L 70.338938 268.876244 
L 71.053178 263.544771 
L 71.410298 260.861252 
L 71.767418 259.110423 
L 74.624378 238.526609 
L 74.981498 233.640718 
L 76.409978 222.422756 
L 77.124218 215.031701 
L 77.481338 212.969155 
L 77.838458 209.135313 
L 78.195578 206.660221 
L 79.266938 195.95883 
L 79.981178 191.38898 
L 80.338298 186.428903 
L 81.052538 179.983866 
L 83.195258 160.363726 
L 85.337978 141.767747 
L 86.409338 133.066222 
L 86.766458 128.161059 
L 87.480698 124.329743 
L 88.194938 117.529871 
L 88.909178 112.928304 
L 90.337658 102.602088 
L 90.694778 101.200842 
L 91.051898 98.045718 
L 91.409018 96.045308 
L 91.766138 95.252183 
L 92.123258 91.791504 
L 93.194618 86.491004 
L 93.551738 85.135664 
L 93.908858 82.037799 
L 94.623098 80.370416 
L 94.980218 79.764057 
L 96.408698 74.038921 
L 97.122938 72.53029 
L 97.480058 72.219903 
L 97.837178 71.130188 
L 98.194298 71.766345 
L 98.551418 69.718301 
L 98.908538 70.76907 
L 99.265658 70.52062 
L 99.622778 69.086127 
L 99.979898 69.502644 
L 100.337018 68.447226 
L 100.694138 68.375899 
L 101.051258 69.365701 
L 101.408378 69.331254 
L 101.765498 70.37754 
L 102.122618 70.000299 
L 102.479738 71.162389 
L 102.836858 70.801625 
L 103.193978 71.387978 
L 103.551098 72.783377 
L 103.908218 73.212673 
L 104.622458 76.170762 
L 104.979578 76.4558 
L 105.336698 77.136008 
L 105.693818 79.823137 
L 106.765178 82.968071 
L 107.122298 85.09725 
L 107.479418 86.432486 
L 108.193658 90.333629 
L 108.550778 91.305439 
L 108.907898 93.197547 
L 109.265018 96.163311 
L 109.622138 97.21741 
L 110.336378 101.835083 
L 110.693498 105.043352 
L 111.407738 108.814856 
L 111.764858 111.765507 
L 112.121978 113.148318 
L 112.479098 116.618861 
L 112.836218 118.513919 
L 113.550458 123.72122 
L 113.907578 127.207875 
L 114.264698 129.411542 
L 114.621818 132.694528 
L 115.336058 136.991194 
L 116.050298 143.210852 
L 116.407418 145.936267 
L 116.764538 149.979998 
L 118.193018 160.965172 
L 118.907258 166.519136 
L 119.264378 168.85161 
L 120.692858 182.174267 
L 121.407098 187.383632 
L 121.764218 191.231311 
L 122.121338 193.303579 
L 123.549818 205.564272 
L 123.906938 206.923557 
L 124.264058 210.995465 
L 124.621178 213.571455 
L 124.978298 215.293505 
L 126.049658 224.0695 
L 126.406778 226.106216 
L 127.121018 232.181231 
L 127.478138 234.636696 
L 127.835258 236.144729 
L 128.192378 238.289649 
L 128.906618 243.77458 
L 129.263738 246.157842 
L 129.620858 247.666752 
L 130.335098 252.637807 
L 131.049338 255.97465 
L 131.406458 257.471761 
L 132.477818 264.117752 
L 132.834938 264.242486 
L 133.192058 267.439467 
L 133.906298 268.796447 
L 134.263418 270.721614 
L 134.620538 271.510178 
L 134.977658 274.021277 
L 135.334778 274.336497 
L 135.691898 275.576919 
L 136.406138 276.501897 
L 137.120378 278.517703 
L 138.191738 281.23843 
L 138.548858 280.737118 
L 138.905978 281.288639 
L 139.620218 281.672301 
L 139.977338 282.034776 
L 140.334458 281.655276 
L 140.691578 281.930833 
L 141.048698 281.896185 
L 141.405818 281.740401 
L 141.762938 281.0988 
L 142.120058 281.638251 
L 142.477178 281.553125 
L 142.834298 280.371176 
L 143.191418 279.812458 
L 143.548538 278.492959 
L 143.905658 278.221047 
L 144.262778 277.694526 
L 144.977018 275.355036 
L 145.334138 275.367535 
L 145.691258 273.878509 
L 146.405498 270.282137 
L 146.762618 270.132565 
L 147.833978 265.596571 
L 148.191098 264.911708 
L 148.548218 262.728606 
L 148.905338 261.333368 
L 149.262458 258.969867 
L 149.976698 256.452932 
L 150.333818 253.128233 
L 152.833658 240.109474 
L 153.190778 236.386119 
L 153.547898 234.750016 
L 153.905018 232.338636 
L 154.262138 231.11777 
L 154.976378 225.013487 
L 155.690618 219.969648 
L 157.119098 210.578326 
L 162.475898 170.056774 
L 162.833018 166.782202 
L 163.190138 165.381882 
L 163.547258 162.876684 
L 163.904378 159.041943 
L 164.975738 152.725324 
L 166.047098 144.689106 
L 166.404218 142.554129 
L 167.118458 137.738691 
L 170.332538 117.059362 
L 170.689658 115.894615 
L 171.403898 112.013676 
L 171.761018 109.951288 
L 172.118138 108.681409 
L 172.832378 104.94904 
L 173.189498 103.955565 
L 173.546618 101.26474 
L 173.903738 100.991493 
L 174.260858 100.033087 
L 174.617978 97.96696 
L 174.975098 96.984335 
L 175.332218 94.712541 
L 175.689338 94.661573 
L 176.046458 92.012571 
L 176.403578 91.372616 
L 176.760698 91.933041 
L 177.117818 90.333629 
L 177.474938 90.285957 
L 178.189178 88.371603 
L 178.546298 88.435085 
L 178.903418 87.042034 
L 179.260538 88.244639 
L 179.617658 86.491004 
L 179.974778 86.05088 
L 180.331898 86.183529 
L 180.689018 87.20061 
L 181.046138 85.84173 
L 181.403258 85.360095 
L 181.760378 86.227745 
L 182.117498 86.735871 
L 182.474618 86.072988 
L 182.831738 86.677783 
L 183.188858 86.924657 
L 183.545978 87.315938 
L 183.903098 87.465409 
L 184.974458 89.335722 
L 185.331578 90.211043 
L 185.688698 91.873393 
L 186.045818 92.884083 
L 186.402938 92.638857 
L 186.760058 94.209826 
L 187.117178 94.942946 
L 187.474298 96.256472 
L 187.831418 96.268893 
L 188.188538 98.51552 
L 189.974138 105.671916 
L 190.331258 108.542625 
L 190.688378 109.112793 
L 191.045498 110.698274 
L 191.759738 115.984388 
L 192.116858 116.241723 
L 193.545338 125.104874 
L 194.616698 131.805609 
L 194.973818 133.234496 
L 195.330938 136.595381 
L 196.402298 142.426434 
L 197.473658 150.390769 
L 197.830778 152.146867 
L 198.187898 154.563129 
L 198.902138 160.17679 
L 199.616378 165.624712 
L 199.973498 167.065504 
L 200.330618 170.39938 
L 200.687738 171.806077 
L 201.401978 177.576001 
L 202.473338 186.36744 
L 202.830458 188.348278 
L 203.187578 192.21467 
L 203.544698 193.666082 
L 203.901818 196.811869 
L 204.258938 198.748666 
L 205.330298 206.638277 
L 206.758778 215.279726 
L 207.473018 220.782749 
L 207.830138 223.283421 
L 208.187258 224.455625 
L 208.901498 229.659859 
L 210.329978 238.831324 
L 210.687098 239.630931 
L 211.401338 244.463965 
L 211.758458 245.281231 
L 212.115578 248.003325 
L 212.472698 248.413715 
L 213.544058 254.038407 
L 214.615418 258.220684 
L 214.972538 259.079074 
L 215.329658 261.251757 
L 215.686778 261.393668 
L 216.043898 262.576684 
L 216.401018 264.538497 
L 216.758138 264.929662 
L 217.115258 266.363173 
L 217.472378 266.353857 
L 218.543738 269.749524 
L 219.257978 269.077427 
L 219.615098 270.668524 
L 219.972218 271.477624 
L 220.329338 270.679142 
L 220.686458 270.710996 
L 221.043578 271.477624 
L 221.400698 271.615872 
L 221.757818 272.889952 
L 222.114938 270.988175 
L 222.472058 271.423367 
L 222.829178 270.774705 
L 223.186298 271.336555 
L 223.543418 270.988175 
L 223.900538 271.116978 
L 224.257658 269.636374 
L 224.614778 269.147961 
L 224.971898 268.986739 
L 225.329018 266.780937 
L 225.686138 267.831663 
L 226.043258 266.799746 
L 226.400378 266.220855 
L 226.757498 263.925497 
L 227.114618 264.074057 
L 227.471738 261.74542 
L 227.828858 260.62652 
L 228.185978 260.388784 
L 228.543098 258.86101 
L 228.900218 258.274269 
L 229.257338 257.131993 
L 229.614458 255.496141 
L 229.971578 253.274271 
L 230.328698 252.435354 
L 231.042938 248.394478 
L 231.400058 247.959817 
L 231.757178 244.943886 
L 233.899898 233.85957 
L 234.257018 230.45221 
L 234.614138 229.61357 
L 234.971258 226.821307 
L 235.328378 225.681164 
L 235.685498 223.776181 
L 236.042618 220.04561 
L 237.113978 213.944614 
L 239.613818 197.301365 
L 239.970938 193.282746 
L 240.685178 189.796159 
L 241.042298 186.265001 
L 241.399418 184.868161 
L 241.756538 182.865117 
L 242.827898 174.734889 
L 243.185018 172.926597 
L 243.542138 169.456208 
L 243.899258 167.700909 
L 245.327738 157.540276 
L 245.684858 156.352903 
L 246.041978 152.917281 
L 246.756218 150.009042 
L 247.113338 146.642231 
L 247.470458 144.916993 
L 248.541818 137.790665 
L 249.256058 134.113508 
L 249.613178 131.474951 
L 249.970298 130.454335 
L 250.327418 128.891573 
L 251.041658 124.390585 
L 252.113018 119.065054 
L 252.827258 115.538971 
L 253.184378 114.711136 
L 253.541498 113.401452 
L 253.898618 110.933394 
L 254.255738 109.608213 
L 254.612858 108.953518 
L 255.327098 107.082097 
L 255.684218 104.608535 
L 256.041338 104.686642 
L 256.398458 102.283969 
L 256.755578 102.226556 
L 257.112698 101.06143 
L 257.469818 100.509264 
L 257.826938 99.628507 
L 258.184058 98.340901 
L 258.541178 98.124476 
L 258.898298 96.625764 
L 259.255418 97.570116 
L 259.612538 97.423819 
L 259.969658 96.225418 
L 260.683898 96.449003 
L 261.755258 95.510065 
L 262.112378 95.629571 
L 262.826617 96.619592 
L 263.183738 96.219208 
L 263.540858 97.186742 
L 263.897978 96.461425 
L 264.255098 97.503063 
L 264.612218 96.486268 
L 264.969338 98.708204 
L 265.326458 98.389072 
L 265.683578 99.063416 
L 266.397818 100.944747 
L 266.754938 101.322828 
L 267.112058 103.092484 
L 267.826298 105.281907 
L 268.540538 106.227663 
L 268.897658 108.766815 
L 269.254778 109.07032 
L 271.754618 119.001815 
L 272.468858 123.260383 
L 272.825978 123.782351 
L 273.183098 127.024153 
L 273.897338 129.098982 
L 274.254458 132.458772 
L 274.611578 133.761462 
L 274.968698 134.303075 
L 275.325818 137.630681 
L 276.040058 141.323154 
L 277.111418 148.286515 
L 277.468538 149.365691 
L 278.539898 156.590561 
L 278.897018 158.319674 
L 280.325498 167.883032 
L 281.753978 176.171634 
L 282.825338 184.215263 
L 283.182458 185.74871 
L 285.682298 201.120843 
L 286.039418 203.400775 
L 286.396538 204.707271 
L 286.753658 207.471229 
L 287.110778 208.260354 
L 287.825018 213.994672 
L 288.182138 216.459099 
L 289.610618 222.572818 
L 289.967738 224.534232 
L 290.324858 225.447989 
L 290.681978 228.598505 
L 293.181818 239.385482 
L 293.538938 241.567394 
L 293.896058 242.127637 
L 294.253178 244.056575 
L 294.610298 245.048156 
L 295.324538 248.048212 
L 295.681658 248.602468 
L 296.038778 250.125096 
L 296.395898 250.678748 
L 296.753018 251.531493 
L 297.110138 252.940469 
L 297.467258 253.597601 
L 297.824378 255.777151 
L 298.181498 255.147154 
L 298.538618 255.452575 
L 298.895738 256.855195 
L 299.252858 257.027259 
L 299.609978 257.88512 
L 300.324218 258.144134 
L 300.681338 258.79103 
L 301.038458 258.476627 
L 301.395578 259.227982 
L 301.752698 258.592349 
L 302.109818 258.75436 
L 302.824058 260.218592 
L 303.181178 258.197719 
L 303.538298 259.188795 
L 303.895418 258.798805 
L 304.252538 259.490226 
L 304.609658 258.251304 
L 304.966778 257.426532 
L 305.323898 258.082894 
L 305.681018 257.43407 
L 306.038138 256.544892 
L 306.395258 255.16157 
L 306.752378 254.94533 
L 307.109498 253.763319 
L 307.466618 253.618612 
L 308.180858 251.758971 
L 309.252218 247.571188 
L 309.609338 248.434658 
L 309.966458 246.918411 
L 310.323578 244.908951 
L 310.680698 244.756558 
L 311.037818 243.196759 
L 311.394938 242.310232 
L 312.823418 235.213429 
L 313.537658 233.969627 
L 313.894778 230.400508 
L 314.251898 229.855303 
L 314.609018 226.901511 
L 314.966138 226.525157 
L 315.323258 223.332066 
L 315.680378 221.522251 
L 316.037498 220.983113 
L 316.751738 216.79754 
L 317.108858 215.758216 
L 318.180218 209.315333 
L 318.537338 207.466821 
L 318.894458 204.816028 
L 319.608698 201.933839 
L 320.322938 196.727826 
L 320.680058 194.548168 
L 321.037178 193.461914 
L 321.394298 189.800291 
L 321.751418 189.220578 
L 322.108538 186.560024 
L 322.465658 185.141563 
L 323.179898 180.418695 
L 324.251258 174.374691 
L 325.322618 167.534975 
L 325.679738 166.033476 
L 326.393978 161.103342 
L 326.751098 160.245875 
L 327.108218 157.413777 
L 327.465338 155.63993 
L 327.822458 154.50141 
L 328.179578 150.921866 
L 328.536698 150.648019 
L 329.965178 143.054037 
L 330.322298 141.229106 
L 330.679418 138.024549 
L 331.036538 137.217407 
L 333.179258 128.4365 
L 333.536378 125.997904 
L 333.893498 125.673371 
L 334.250618 123.678898 
L 334.607738 123.128716 
L 334.964858 120.247536 
L 335.321978 119.620467 
L 335.679098 117.731303 
L 336.036218 118.396591 
L 336.393338 116.474953 
L 336.750458 115.163017 
L 337.107578 114.942898 
L 337.464698 113.711956 
L 338.178938 112.542806 
L 338.536058 111.064017 
L 338.893178 111.291871 
L 339.250298 109.080938 
L 339.607418 109.457889 
L 339.964538 109.346396 
L 340.321658 108.309739 
L 340.678778 108.347307 
L 341.393018 106.455375 
L 341.750138 106.777268 
L 342.107258 106.444463 
L 342.464378 106.924748 
L 342.821498 106.249607 
L 343.178618 106.597226 
L 343.535738 106.342871 
L 343.892858 106.277038 
L 344.249978 107.880389 
L 344.607098 107.016987 
L 344.964218 107.696574 
L 345.321338 106.951877 
L 345.678458 108.590666 
L 346.035578 108.905599 
L 346.392698 107.696574 
L 346.749818 110.161396 
L 347.106938 109.571248 
L 347.464058 109.766637 
L 347.821178 112.67653 
L 348.178298 111.8534 
L 348.535418 114.087505 
L 348.892538 113.655963 
L 349.249658 114.756481 
L 349.606778 116.455103 
L 349.963898 116.653597 
L 350.678138 119.36391 
L 351.035258 120.156011 
L 351.392378 121.75065 
L 351.749498 122.572958 
L 352.106618 123.997454 
L 352.463738 126.361147 
L 352.820858 126.610331 
L 353.177978 127.29055 
L 353.535098 129.416072 
L 353.892218 130.836791 
L 354.249338 132.810182 
L 354.606458 134.135551 
L 354.963578 136.843285 
L 355.320698 137.561077 
L 355.677818 138.578939 
L 356.034938 141.100858 
L 356.392058 142.094427 
L 356.749178 144.596263 
L 357.820538 149.469859 
L 358.534778 154.308023 
L 359.249018 157.585163 
L 359.963258 162.042085 
L 360.320378 162.489106 
L 362.105978 172.991088 
L 363.534458 181.337119 
L 363.891578 182.365267 
L 364.248698 185.486467 
L 364.605818 187.145974 
L 364.962938 189.738313 
L 365.320058 190.044069 
L 365.677178 193.124411 
L 369.962618 215.915109 
L 370.676858 218.474832 
L 371.033978 221.157928 
L 371.748218 222.505048 
L 372.105338 225.696051 
L 372.819578 228.040543 
L 373.176698 228.679949 
L 373.533818 231.278332 
L 373.890938 231.351481 
L 374.248058 233.816867 
L 374.605178 234.007195 
L 375.676538 239.48252 
L 376.033658 239.425439 
L 376.390778 241.292764 
L 376.747898 240.483891 
L 377.105018 242.115881 
L 377.462138 242.810313 
L 377.819258 244.974553 
L 378.176378 245.324165 
L 378.533498 245.078824 
L 379.604858 247.473757 
L 379.961978 247.176241 
L 380.319098 247.615785 
L 380.676218 248.512109 
L 381.033338 247.966188 
L 381.390458 249.034083 
L 382.104698 250.019909 
L 382.461818 250.984661 
L 382.818938 251.065273 
L 383.176058 249.105546 
L 383.533178 249.340619 
L 384.247418 250.078704 
L 384.604538 249.340619 
L 384.961658 249.13803 
L 385.318778 249.432176 
L 386.033018 248.421749 
L 386.747258 247.264863 
L 387.104378 246.993889 
L 387.461498 245.571758 
L 387.818618 245.44832 
L 388.175738 244.304965 
L 388.889978 243.388275 
L 389.961338 239.819299 
L 390.318458 240.184111 
L 390.675578 237.941778 
L 391.032698 237.436084 
L 391.389818 235.954753 
L 391.746938 235.458274 
L 392.104058 233.752813 
L 392.461178 233.134834 
L 393.175418 229.412962 
L 393.889658 227.242376 
L 394.246778 225.457864 
L 394.603898 225.141862 
L 394.961018 222.254516 
L 395.675258 220.887702 
L 396.032378 217.876114 
L 396.389498 216.131992 
L 396.746618 215.688998 
L 397.103738 213.507745 
L 397.460858 212.5207 
L 397.817978 210.314693 
L 398.175098 209.015749 
L 398.889338 204.607714 
L 399.603578 202.054058 
L 401.032058 194.426822 
L 402.460538 187.166461 
L 404.246138 178.369246 
L 404.603258 176.713954 
L 404.960378 174.224945 
L 406.031738 170.218 
L 406.388858 168.303442 
L 406.745978 165.414259 
L 407.103098 163.738731 
L 407.460218 162.949533 
L 407.817338 161.769809 
L 409.245818 154.196928 
L 409.602938 152.884364 
L 410.317178 149.386524 
L 411.031418 146.549783 
L 412.102778 142.830801 
L 412.459898 141.635224 
L 412.817018 139.729408 
L 413.888378 136.473035 
L 414.245498 133.805745 
L 414.602618 133.486909 
L 414.959738 132.66339 
L 415.316858 132.245256 
L 416.031098 129.768941 
L 416.745338 128.49566 
L 417.102458 126.725694 
L 417.459578 126.624175 
L 417.816698 124.783469 
L 418.173818 124.699624 
L 418.530938 124.848681 
L 418.530938 124.848681 
" style="fill:none;stroke:#1f77b4;stroke-linecap:square;stroke-width:1.5;"/>
   </g>
   <g id="line2d_26">
    <path clip-path="url(#pcd39df9889)" d="M 61.410938 297.056409 
L 62.125178 297.056409 
L 62.482298 296.685009 
L 62.839418 296.685009 
L 63.910778 295.031045 
L 64.267898 293.9871 
L 64.982138 292.858524 
L 65.339258 290.769529 
L 65.696378 289.566796 
L 66.053498 288.796223 
L 66.410618 288.337081 
L 66.767738 286.146817 
L 67.124858 285.644121 
L 67.839098 282.110432 
L 68.196218 279.332484 
L 68.553338 278.517703 
L 68.910458 276.311057 
L 69.267578 275.16754 
L 69.981818 269.976646 
L 70.338938 267.696125 
L 70.696058 266.474965 
L 71.053178 263.083937 
L 71.410298 261.459501 
L 73.195898 248.31753 
L 73.553018 245.990153 
L 73.910138 240.996316 
L 74.267258 239.948718 
L 74.981498 233.774164 
L 75.338618 230.0096 
L 75.695738 228.283621 
L 76.409978 220.430168 
L 77.124218 215.206237 
L 78.909818 197.985025 
L 79.266938 193.37858 
L 79.624058 191.928376 
L 79.981178 187.945046 
L 80.338298 185.605296 
L 81.766778 170.197847 
L 82.123898 167.660438 
L 83.909498 150.523543 
L 84.266618 147.942781 
L 85.337978 136.298255 
L 86.052218 131.052247 
L 86.766458 123.283895 
L 87.480698 118.577471 
L 88.194938 110.781873 
L 88.909178 106.18926 
L 89.980538 97.912436 
L 90.694778 92.012571 
L 91.766138 84.97664 
L 92.123258 83.062118 
L 92.837498 77.818375 
L 93.194618 76.835262 
L 93.551738 72.793557 
L 93.908858 72.074379 
L 94.265978 69.559396 
L 94.980218 66.738501 
L 95.337338 64.371341 
L 97.122938 56.887353 
L 97.480058 56.422785 
L 97.837178 55.567465 
L 98.194298 54.122291 
L 98.551418 53.584992 
L 98.908538 51.854658 
L 99.622778 51.596523 
L 99.979898 49.851294 
L 100.337018 50.374231 
L 100.694138 50.419111 
L 101.051258 50.078195 
L 101.408378 49.184692 
L 101.765498 49.184692 
L 102.122618 48.845249 
L 102.479738 49.486427 
L 102.836858 49.126615 
L 103.193978 49.212174 
L 103.551098 50.974587 
L 103.908218 51.238749 
L 104.265338 50.50887 
L 104.979578 53.211929 
L 105.336698 53.953019 
L 105.693818 54.19089 
L 106.765178 58.072375 
L 107.122298 58.985383 
L 108.193658 62.706129 
L 108.550778 65.735538 
L 108.907898 66.960064 
L 109.265018 67.74032 
L 109.622138 69.342736 
L 109.979258 71.839881 
L 110.336378 73.293284 
L 110.693498 76.35534 
L 112.121978 83.759469 
L 112.479098 86.322764 
L 112.836218 87.680082 
L 113.550458 93.810263 
L 114.978938 103.29112 
L 115.693178 109.93034 
L 116.050298 112.213637 
L 116.407418 115.909577 
L 116.764538 117.785346 
L 117.121658 121.688632 
L 117.835898 126.218097 
L 118.193018 130.742529 
L 118.550138 133.081524 
L 120.692858 151.52296 
L 121.049978 154.303908 
L 121.764218 161.28215 
L 122.121338 164.293193 
L 122.835578 171.161173 
L 123.192698 173.885892 
L 123.906938 180.707227 
L 124.264058 184.366246 
L 124.621178 185.793783 
L 125.335418 193.674416 
L 125.692538 197.035498 
L 126.049658 199.33586 
L 126.406778 202.431887 
L 126.763898 204.083642 
L 127.121018 208.65263 
L 129.263738 224.799532 
L 129.620858 226.801256 
L 130.692218 236.57405 
L 131.049338 238.205487 
L 131.406458 241.792592 
L 132.120698 246.232595 
L 132.477818 247.977676 
L 133.192058 252.955463 
L 133.906298 256.61914 
L 134.620538 261.145663 
L 134.977658 262.094765 
L 135.691898 266.53086 
L 136.406138 269.852387 
L 137.120378 272.628551 
L 137.477498 274.408751 
L 138.191738 276.207113 
L 138.905978 279.599163 
L 139.263098 279.614354 
L 139.620218 281.655276 
L 139.977338 281.587175 
L 140.334458 281.148173 
L 140.691578 284.318485 
L 141.048698 284.157269 
L 141.762938 284.762899 
L 142.120058 285.534405 
L 142.477178 285.15157 
L 142.834298 285.512462 
L 143.191418 286.251544 
L 143.548538 286.486648 
L 143.905658 286.054962 
L 144.262778 286.275055 
L 144.619898 285.323299 
L 144.977018 285.940144 
L 145.334138 284.785025 
L 145.691258 284.474894 
L 146.048378 284.318485 
L 146.405498 283.48657 
L 146.762618 281.930833 
L 147.833978 281.506215 
L 148.548218 277.805791 
L 148.905338 277.59717 
L 149.262458 275.126355 
L 149.976698 274.228115 
L 150.333818 271.224313 
L 150.690938 270.774705 
L 151.048058 268.481587 
L 151.405178 267.23522 
L 152.476538 261.662438 
L 152.833658 259.408239 
L 153.190778 257.938293 
L 153.547898 255.075074 
L 153.905018 254.902082 
L 154.262138 251.888367 
L 154.619258 250.151606 
L 155.333498 244.799228 
L 155.690618 242.709184 
L 156.047738 239.562434 
L 156.404858 237.981054 
L 157.833338 226.99174 
L 158.190458 225.260363 
L 158.547578 222.601862 
L 158.904698 219.001502 
L 159.261818 216.927353 
L 159.618938 213.41673 
L 159.976058 211.718527 
L 160.333178 208.714626 
L 160.690298 204.672469 
L 161.404538 200.28506 
L 161.761658 195.748721 
L 162.118778 194.003585 
L 163.547258 181.361502 
L 163.904378 177.515294 
L 164.261498 175.892379 
L 164.618618 172.168835 
L 165.689978 164.442938 
L 166.404218 156.615146 
L 166.761338 154.713884 
L 168.189818 142.630746 
L 168.546938 140.223162 
L 168.904058 135.445544 
L 169.261178 133.522335 
L 169.975418 127.056305 
L 170.332538 125.58992 
L 170.689658 122.030847 
L 171.046778 119.905522 
L 171.403898 116.708183 
L 171.761018 114.514643 
L 172.118138 111.19312 
L 172.475258 109.107484 
L 173.189498 103.503919 
L 173.546618 102.134696 
L 174.260858 96.007505 
L 174.617978 95.056888 
L 176.046458 85.708084 
L 176.403578 84.632863 
L 177.474938 77.716018 
L 177.832058 76.474087 
L 178.546298 73.142139 
L 178.903418 72.063984 
L 179.974778 67.274836 
L 180.331898 66.687861 
L 180.689018 65.093245 
L 181.046138 64.442585 
L 181.403258 63.407932 
L 181.760378 63.062347 
L 182.117498 61.79151 
L 182.474618 61.018197 
L 182.831738 59.526224 
L 183.188858 59.283481 
L 183.545978 58.898477 
L 183.903098 58.80353 
L 184.617338 57.484066 
L 184.974458 57.202928 
L 185.331578 57.224394 
L 186.045818 57.074131 
L 186.402938 57.224394 
L 186.760058 57.870855 
L 187.117178 57.75349 
L 187.474298 58.614546 
L 188.188538 59.471366 
L 188.545658 60.617799 
L 188.902778 60.003337 
L 189.259898 60.583749 
L 189.617018 62.053814 
L 189.974138 62.554211 
L 190.688378 65.867201 
L 191.045498 65.174408 
L 191.402618 67.977688 
L 191.759738 68.256926 
L 192.116858 70.597424 
L 192.473978 70.652284 
L 192.831098 73.152215 
L 193.188218 73.473704 
L 194.259578 80.594469 
L 194.616698 81.136276 
L 195.330938 86.080358 
L 195.688058 86.931918 
L 196.402298 92.96256 
L 196.759418 94.184177 
L 197.116538 96.268893 
L 197.473658 100.664273 
L 197.830778 101.881282 
L 198.187898 104.325878 
L 198.545018 107.653404 
L 199.616378 114.529758 
L 200.687738 122.648556 
L 201.044858 126.872582 
L 201.401978 128.188489 
L 202.116218 134.144368 
L 202.473338 138.729771 
L 202.830458 139.277429 
L 204.258938 153.139471 
L 204.616058 154.869591 
L 204.973178 158.62164 
L 205.330298 160.855449 
L 206.044538 168.710537 
L 206.401658 171.124897 
L 207.115898 178.247831 
L 207.473018 180.62595 
L 207.830138 183.896975 
L 208.187258 188.233069 
L 208.544378 189.531721 
L 209.972858 202.822932 
L 210.687098 208.079604 
L 211.401338 214.55879 
L 213.186938 228.334262 
L 213.544058 230.555614 
L 213.901178 234.663677 
L 214.972538 241.508962 
L 215.329658 244.68341 
L 215.686778 246.282595 
L 216.401018 251.132449 
L 217.115258 256.582016 
L 217.472378 257.253155 
L 218.543738 264.180768 
L 219.257978 266.7057 
L 219.615098 269.800955 
L 219.972218 270.679142 
L 220.329338 272.935881 
L 220.686458 273.985585 
L 222.114938 279.523204 
L 222.472058 279.797029 
L 222.829178 281.221693 
L 223.186298 281.982804 
L 223.543418 282.069423 
L 223.900538 284.454323 
L 224.257658 284.495466 
L 224.614778 285.512462 
L 224.971898 285.016129 
L 225.329018 285.358861 
L 225.686138 286.995107 
L 226.043258 286.945736 
L 226.400378 287.205595 
L 226.757498 286.457715 
L 227.114618 286.74825 
L 227.471738 286.772936 
L 227.828858 286.529966 
L 228.185978 286.439627 
L 228.543098 286.722635 
L 228.900218 285.446633 
L 229.257338 285.732665 
L 229.614458 284.557181 
L 229.971578 284.197573 
L 230.328698 282.392562 
L 230.685818 282.422237 
L 231.400058 280.704742 
L 231.757178 280.45081 
L 232.114298 277.961079 
L 232.828538 275.728838 
L 233.185658 273.77234 
L 233.542778 272.764755 
L 234.614138 267.821981 
L 235.685498 262.103134 
L 236.042618 260.316528 
L 236.756858 255.718633 
L 237.828218 249.556431 
L 238.542458 244.165624 
L 239.613818 237.418728 
L 239.970938 233.980361 
L 240.328058 232.123452 
L 241.399418 222.081101 
L 241.756538 220.887702 
L 245.327738 191.056369 
L 245.684858 188.356508 
L 246.041978 183.346092 
L 246.756218 178.296397 
L 248.184698 164.414608 
L 248.541818 162.432212 
L 248.898938 159.583472 
L 249.613178 152.357591 
L 251.398778 137.825315 
L 251.755898 135.441155 
L 252.470138 128.522964 
L 252.827258 125.0909 
L 253.898618 117.485655 
L 255.684218 103.836848 
L 256.041338 102.364348 
L 256.398458 98.89584 
L 256.755578 97.315547 
L 257.469818 92.171631 
L 258.541178 84.878644 
L 258.898298 84.322031 
L 259.612538 79.265753 
L 259.969658 78.189826 
L 260.326778 75.669042 
L 260.683898 74.535887 
L 261.398138 70.266587 
L 261.755258 69.771131 
L 262.112378 68.588294 
L 262.469498 66.434237 
L 262.826617 66.675201 
L 263.183738 64.512125 
L 263.540858 64.20206 
L 263.897978 62.400497 
L 264.612218 59.724233 
L 264.969338 60.376591 
L 265.326458 58.822519 
L 265.683578 58.102019 
L 266.040698 58.459652 
L 266.397818 57.671203 
L 267.112058 56.953182 
L 267.469178 56.966801 
L 267.826298 57.691775 
L 268.183418 57.202928 
L 268.540538 58.092527 
L 268.897658 57.505075 
L 269.254778 57.951463 
L 269.611898 57.505075 
L 269.969018 59.190325 
L 270.326138 58.362843 
L 270.683258 60.532673 
L 271.040378 59.791739 
L 271.754618 61.807437 
L 272.111738 61.650109 
L 272.825978 64.62339 
L 273.183098 66.408588 
L 273.540218 67.12256 
L 273.897338 68.221234 
L 274.611578 71.536631 
L 274.968698 72.592008 
L 275.325818 74.831458 
L 275.682938 75.527972 
L 276.040058 78.417036 
L 276.397178 78.887587 
L 276.754298 82.823574 
L 277.111418 82.960234 
L 278.182778 90.569224 
L 278.539898 91.251698 
L 279.254138 97.376882 
L 280.682618 106.11794 
L 281.396858 113.066452 
L 281.753978 114.952974 
L 282.468218 119.972961 
L 282.825338 122.206509 
L 283.182458 126.518041 
L 283.539578 128.55937 
L 284.253818 134.488232 
L 284.610938 136.812833 
L 284.968058 140.497947 
L 285.325178 142.69885 
L 286.039418 149.528192 
L 287.825018 164.325571 
L 288.539258 170.637188 
L 289.967738 182.954521 
L 290.324858 186.498561 
L 290.681978 187.240217 
L 291.396218 195.912606 
L 292.110458 200.539453 
L 293.181818 209.315333 
L 293.538938 211.583481 
L 293.896058 216.593548 
L 294.253178 218.302006 
L 294.610298 220.739814 
L 295.324538 226.831333 
L 295.681658 228.4967 
L 296.038778 231.722448 
L 296.395898 233.480582 
L 298.181498 247.302843 
L 299.252858 253.010011 
L 299.609978 255.445314 
L 299.967098 256.500343 
L 300.324218 259.37689 
L 301.752698 265.436719 
L 302.824058 271.412515 
L 303.181178 271.923088 
L 303.538298 274.045071 
L 304.609658 276.751271 
L 304.966778 278.249669 
L 305.323898 278.808135 
L 305.681018 280.079546 
L 306.395258 281.489479 
L 306.752378 281.774452 
L 307.466618 283.372634 
L 307.823738 284.168332 
L 308.180858 283.543539 
L 308.537978 283.636831 
L 308.895098 284.197573 
L 309.609338 284.495466 
L 310.323578 283.830448 
L 310.680698 283.888534 
L 311.037818 283.617469 
L 311.752058 280.983597 
L 312.109178 281.000054 
L 312.466298 280.546371 
L 312.823418 279.467139 
L 313.180538 278.95586 
L 313.537658 278.206736 
L 313.894778 276.220106 
L 314.251898 275.292537 
L 314.609018 275.15504 
L 314.966138 272.764755 
L 316.037498 269.636374 
L 316.751738 265.40048 
L 317.108858 264.716423 
L 317.465978 262.036185 
L 318.180218 258.915439 
L 318.537338 256.312914 
L 318.894458 255.154362 
L 319.965818 248.356004 
L 320.322938 245.023622 
L 321.037178 240.478116 
L 321.394298 239.214642 
L 322.108538 234.852543 
L 323.179898 225.830034 
L 323.537018 223.361254 
L 323.894138 222.490526 
L 324.251258 217.885475 
L 324.608378 215.546123 
L 324.965498 211.242342 
L 325.322618 209.417643 
L 325.679738 206.616332 
L 326.036858 202.909177 
L 327.108218 194.707174 
L 327.822458 188.216611 
L 328.536698 182.434352 
L 328.893818 177.814784 
L 329.250938 176.365898 
L 329.608058 173.764973 
L 329.965178 169.698047 
L 330.679418 164.629108 
L 331.036538 160.351535 
L 331.750778 154.303908 
L 332.465018 147.541083 
L 333.536378 140.09865 
L 333.893498 135.686935 
L 334.250618 133.915125 
L 334.964858 127.171131 
L 335.679098 122.813928 
L 336.393338 116.623823 
L 337.821818 106.271552 
L 338.536058 100.664273 
L 338.893178 99.61066 
L 339.250298 96.349632 
L 339.607418 94.177765 
L 339.964538 91.224827 
L 340.321658 90.026186 
L 341.750138 80.756537 
L 342.107258 80.552978 
L 342.464378 78.999217 
L 342.821498 76.263051 
L 343.178618 75.926927 
L 343.535738 72.803737 
L 343.892858 72.684584 
L 344.249978 70.111252 
L 344.607098 69.051275 
L 344.964218 66.972564 
L 345.321338 66.700521 
L 345.678458 65.722372 
L 346.392698 63.062347 
L 346.749818 62.842855 
L 347.106938 62.19488 
L 347.464058 62.226228 
L 347.821178 61.695949 
L 348.178298 60.754 
L 348.535418 60.341943 
L 348.892538 59.724233 
L 349.249658 59.688326 
L 349.606778 58.80353 
L 350.321018 60.003337 
L 350.678138 58.746561 
L 351.035258 58.498375 
L 351.392378 59.507938 
L 351.749498 60.144402 
L 352.106618 60.238001 
L 352.820858 62.03814 
L 353.177978 61.95977 
L 353.892218 64.359137 
L 354.249338 63.925942 
L 354.606458 64.799863 
L 354.963578 66.186932 
L 355.320698 68.830544 
L 355.677818 68.694096 
L 356.034938 71.280458 
L 356.392058 71.356124 
L 356.749178 74.156247 
L 357.463418 76.753727 
L 357.820538 79.342369 
L 358.177658 80.395311 
L 358.891898 84.253136 
L 359.249018 84.351807 
L 359.606138 87.494032 
L 361.391738 98.437243 
L 361.748858 101.46224 
L 362.105978 103.030056 
L 362.463098 106.315441 
L 362.820218 108.159467 
L 363.534458 113.299647 
L 363.891578 117.834475 
L 364.248698 118.948304 
L 364.962938 125.076926 
L 365.320058 127.028746 
L 366.034298 133.945985 
L 366.391418 136.202126 
L 367.462778 145.751372 
L 367.819898 147.674982 
L 368.177018 152.002253 
L 368.891258 157.348487 
L 369.962618 167.32857 
L 370.319738 168.932223 
L 371.033978 175.766917 
L 371.748218 182.279927 
L 374.248058 203.603451 
L 375.319418 211.031374 
L 376.390778 220.468149 
L 377.819258 229.695862 
L 378.533498 236.089868 
L 380.319098 246.861803 
L 380.676218 248.512109 
L 381.390458 253.876175 
L 382.104698 257.84714 
L 382.461818 259.032072 
L 382.818938 261.418355 
L 383.176058 262.743422 
L 383.533178 263.536109 
L 383.890298 266.18394 
L 384.247418 267.496991 
L 384.604538 269.852387 
L 384.961658 269.718665 
L 385.675898 272.958846 
L 386.033018 273.389852 
L 386.390138 275.192539 
L 386.747258 274.324454 
L 387.104378 275.280037 
L 387.461498 276.607227 
L 387.818618 278.677441 
L 388.175738 279.073766 
L 388.532858 279.137983 
L 388.889978 279.059028 
L 389.247098 279.705505 
L 389.604218 279.797029 
L 389.961338 281.422532 
L 390.318458 280.079546 
L 390.675578 280.09522 
L 391.032698 280.236286 
L 391.389818 280.09522 
L 391.746938 279.508012 
L 392.104058 279.437216 
L 392.818298 278.073933 
L 393.175418 277.975186 
L 393.532538 278.059826 
L 393.889658 278.464336 
L 394.246778 275.564259 
L 394.603898 275.230039 
L 394.961018 274.324454 
L 395.318138 272.981811 
L 395.675258 272.924399 
L 396.032378 271.127711 
L 396.389498 270.334663 
L 397.103738 266.054736 
L 397.460858 265.373302 
L 397.817978 263.265123 
L 398.175098 262.010964 
L 398.889338 258.182409 
L 399.246458 257.049702 
L 399.960698 253.699837 
L 401.032058 246.114367 
L 401.389178 245.627305 
L 401.746298 243.828772 
L 402.103418 239.722261 
L 402.460538 238.3682 
L 403.531898 231.330581 
L 403.889018 227.790572 
L 404.603258 223.688186 
L 405.317498 218.039919 
L 405.674618 216.233511 
L 406.031738 212.688305 
L 406.745978 207.577033 
L 407.103098 204.109629 
L 407.817338 199.33586 
L 408.888698 190.977864 
L 409.245818 187.010755 
L 409.602938 185.345594 
L 410.317178 179.223199 
L 411.388538 170.822598 
L 411.745658 167.008843 
L 412.102778 165.34141 
L 412.459898 162.504345 
L 413.174138 155.578466 
L 413.888378 150.793241 
L 414.602618 145.035156 
L 415.316858 139.268804 
L 415.673978 137.669392 
L 416.031098 134.144368 
L 417.459578 124.067656 
L 417.816698 121.041091 
L 418.173818 119.581742 
L 418.530938 117.108737 
L 418.530938 117.108737 
" style="fill:none;stroke:#2ca02c;stroke-dasharray:9.6,2.4,1.5,2.4;stroke-dashoffset:0;stroke-width:1.5;"/>
   </g>
   <g id="line2d_27">
    <path clip-path="url(#pcd39df9889)" d="M 61.410938 289.871385 
L 62.180119 289.871385 
L 62.56471 289.475147 
L 62.949301 289.871385 
L 63.333891 288.600772 
L 63.718482 289.499985 
L 64.103073 288.57421 
L 64.487664 286.578699 
L 64.872254 286.447063 
L 65.256845 284.932849 
L 65.641436 284.551327 
L 66.026027 282.67799 
L 66.410618 282.71945 
L 66.795208 280.749616 
L 67.179799 280.045889 
L 67.56439 278.283552 
L 67.948981 277.392729 
L 68.333571 275.225171 
L 69.102753 272.368563 
L 69.487344 269.917141 
L 69.871934 268.683663 
L 70.641116 264.36856 
L 72.179479 256.333761 
L 72.56407 253.300101 
L 72.948661 251.551577 
L 74.102433 244.081779 
L 76.409978 230.992409 
L 76.794568 227.295182 
L 77.948341 220.027275 
L 78.332931 218.778994 
L 78.717522 215.721804 
L 79.102113 213.95373 
L 80.255885 205.788661 
L 81.025067 201.609311 
L 81.794248 196.643079 
L 85.640156 176.826208 
L 86.024747 175.981521 
L 86.409338 174.225244 
L 86.793928 171.884383 
L 87.178519 171.495854 
L 87.56311 169.269911 
L 87.947701 167.808884 
L 88.332291 167.525582 
L 88.716882 166.729083 
L 89.486064 163.065222 
L 89.870654 162.61782 
L 90.255245 162.43241 
L 90.639836 161.243368 
L 91.409018 160.163782 
L 91.793608 160.12331 
L 92.178199 159.803584 
L 92.56279 157.395518 
L 92.947381 157.743575 
L 93.716562 155.942585 
L 94.101153 157.630254 
L 94.485744 156.468717 
L 96.024107 157.108169 
L 96.793288 157.937839 
L 97.177879 157.350999 
L 97.56247 157.784046 
L 97.947061 158.463971 
L 98.716242 158.961773 
L 99.485424 161.090203 
L 99.870014 161.037805 
L 100.254605 161.481176 
L 101.023787 163.419919 
L 101.408378 163.496501 
L 101.792968 164.999934 
L 102.177559 165.604531 
L 102.56215 165.322386 
L 102.946741 167.396072 
L 103.331331 167.598431 
L 103.715922 168.869242 
L 104.100513 169.310383 
L 104.485104 170.083392 
L 104.869694 170.44359 
L 105.254285 172.475269 
L 105.638876 172.937012 
L 106.023467 173.96516 
L 106.408058 175.667902 
L 106.792648 176.385502 
L 107.177239 176.238599 
L 107.56183 178.612857 
L 107.946421 179.77656 
L 108.331011 180.149437 
L 108.715602 179.887194 
L 109.484784 183.02845 
L 109.869374 183.784576 
L 110.253965 185.427969 
L 110.638556 185.083586 
L 111.023147 185.47776 
L 111.792328 187.769027 
L 112.176919 188.467048 
L 112.56151 188.342284 
L 112.946101 190.983004 
L 113.330691 191.817936 
L 113.715282 190.310467 
L 114.099873 191.148295 
L 114.484464 192.342379 
L 114.869054 191.932368 
L 115.638236 194.286363 
L 116.022827 194.469737 
L 116.407418 195.495603 
L 117.56119 196.76002 
L 117.945781 196.465862 
L 118.714962 196.738364 
L 119.099553 197.149826 
L 119.868734 197.466002 
L 120.253325 198.653889 
L 120.637916 197.757161 
L 121.022507 197.765862 
L 121.407098 197.504846 
L 122.176279 198.55339 
L 122.56087 197.440015 
L 122.945461 196.829319 
L 123.330051 197.617953 
L 123.714642 196.911611 
L 124.099233 196.764351 
L 124.483824 197.73541 
L 124.868414 196.086383 
L 125.253005 197.587501 
L 125.637596 196.125193 
L 126.022187 195.388549 
L 126.406778 195.702592 
L 126.791368 195.629283 
L 127.175959 194.877621 
L 127.56055 195.26833 
L 127.945141 195.276917 
L 128.329731 194.525552 
L 128.714322 194.329112 
L 129.098913 194.740228 
L 129.483504 193.304348 
L 129.868094 193.628024 
L 130.252685 192.89998 
L 130.637276 193.469852 
L 131.021867 192.461561 
L 131.406458 192.414739 
L 132.175639 191.322063 
L 132.56023 190.521473 
L 132.944821 190.867523 
L 133.329411 189.804052 
L 134.098593 190.285146 
L 134.483184 189.055351 
L 134.867774 189.639451 
L 135.252365 189.934876 
L 135.636956 189.252852 
L 136.021547 189.563812 
L 136.790728 188.681358 
L 137.175319 189.072159 
L 137.55991 188.124698 
L 137.944501 188.639336 
L 138.329091 188.17491 
L 138.713682 188.853647 
L 139.098273 187.681156 
L 139.482864 188.2042 
L 139.867454 188.032642 
L 140.252045 188.258597 
L 140.636636 188.954499 
L 141.021227 187.932217 
L 141.405818 187.71463 
L 141.790408 187.743921 
L 142.174999 187.639312 
L 142.55959 188.200016 
L 142.944181 187.630943 
L 143.328771 188.467048 
L 143.713362 187.87782 
L 144.097953 189.488173 
L 144.482544 189.349502 
L 144.867134 189.383119 
L 145.251725 189.013329 
L 146.020907 189.972857 
L 146.405498 189.782952 
L 146.790088 190.259825 
L 147.174679 191.06353 
L 147.943861 190.829542 
L 148.328451 191.339015 
L 148.713042 193.163884 
L 149.097633 191.911177 
L 149.482224 192.114612 
L 149.866814 193.210705 
L 150.251405 192.951058 
L 150.635996 193.457027 
L 151.020587 193.006393 
L 151.405178 194.20514 
L 151.789768 193.922994 
L 152.174359 194.239339 
L 152.55895 196.064822 
L 152.943541 194.989252 
L 153.328131 195.173873 
L 153.712722 196.297684 
L 154.097313 196.521806 
L 154.481904 197.219125 
L 154.866494 197.392372 
L 155.251085 198.209588 
L 155.635676 198.331395 
L 156.020267 199.143273 
L 156.404858 198.266141 
L 156.789448 197.713659 
L 157.174039 198.985971 
L 157.55863 199.243772 
L 157.943221 200.186203 
L 158.327811 200.133536 
L 159.096993 200.414052 
L 159.481584 200.749099 
L 160.250765 201.892721 
L 160.635356 201.720018 
L 161.019947 201.821868 
L 161.404538 201.503032 
L 161.789128 202.490616 
L 162.173719 201.458749 
L 162.55831 202.007856 
L 163.327491 202.695235 
L 163.712082 202.641856 
L 164.096673 201.883864 
L 164.481264 203.169884 
L 165.635036 202.450582 
L 166.019627 201.627024 
L 166.404218 202.317135 
L 166.788808 202.495065 
L 167.173399 202.486168 
L 167.55799 201.37904 
L 167.942581 201.742159 
L 168.327171 202.401652 
L 168.711762 201.414466 
L 169.096353 201.057695 
L 169.480944 201.225219 
L 169.865534 200.753508 
L 170.250125 201.35247 
L 170.634716 200.23887 
L 171.019307 200.89458 
L 171.403898 199.91409 
L 171.788488 200.682972 
L 172.173079 198.946646 
L 172.55767 199.099578 
L 172.942261 198.933537 
L 173.326851 199.962368 
L 173.711442 199.213185 
L 174.480624 198.544651 
L 174.865214 198.697584 
L 175.249805 197.132501 
L 175.634396 197.106514 
L 176.018987 197.301417 
L 176.403578 197.16282 
L 176.788168 197.175813 
L 177.172759 194.329112 
L 177.55735 195.978576 
L 177.941941 195.715528 
L 178.326531 195.724153 
L 178.711122 194.264989 
L 179.095713 193.922994 
L 179.480304 194.38816 
L 179.864894 193.970019 
L 180.249485 194.294913 
L 180.634076 192.789311 
L 181.018667 193.405728 
L 181.403258 193.210705 
L 181.787848 191.466162 
L 182.172439 192.699925 
L 182.55703 193.057471 
L 182.941621 192.925519 
L 183.326211 192.291301 
L 183.710802 192.093421 
L 184.095393 191.652645 
L 184.479984 191.703504 
L 184.864574 191.097436 
L 185.249165 191.771315 
L 185.633756 190.462391 
L 186.018347 191.097436 
L 186.402938 190.437071 
L 186.787528 190.964586 
L 187.941301 190.690278 
L 188.325891 189.483971 
L 188.710482 189.244448 
L 189.095073 189.905335 
L 189.479664 188.735986 
L 189.864254 189.28647 
L 190.248845 190.310467 
L 190.633436 189.378917 
L 191.018027 190.124782 
L 191.402618 190.40753 
L 191.787208 189.917996 
L 192.171799 190.002398 
L 192.55639 190.323127 
L 192.940981 189.774511 
L 193.710162 190.209184 
L 194.094753 191.669598 
L 194.479344 190.179643 
L 194.863934 191.021148 
L 195.248525 189.829373 
L 195.633116 191.648407 
L 196.017707 190.724039 
L 196.402298 191.877271 
L 196.786888 192.189145 
L 197.171479 191.762839 
L 197.55607 191.63993 
L 197.940661 192.648847 
L 198.325251 191.444971 
L 198.709842 192.508382 
L 199.094433 192.034086 
L 199.479024 193.709248 
L 199.863614 193.019162 
L 200.248205 192.695668 
L 200.632796 193.210705 
L 201.017387 192.708438 
L 201.401978 193.227731 
L 201.786568 194.081167 
L 202.171159 193.799021 
L 202.55575 194.933436 
L 202.940341 195.272624 
L 203.324931 194.354762 
L 203.709522 195.581848 
L 204.094113 195.896643 
L 204.478704 194.911969 
L 204.863294 196.457238 
L 205.632476 195.264037 
L 206.017067 197.006897 
L 206.401658 196.664734 
L 206.786248 196.591104 
L 207.170839 196.799001 
L 207.55543 196.850975 
L 207.940021 197.822415 
L 208.324611 198.07473 
L 208.709202 197.167151 
L 209.093793 197.028553 
L 209.478384 197.874618 
L 209.862974 197.522247 
L 210.247565 198.466 
L 210.632156 198.131283 
L 211.016747 198.741279 
L 211.401338 197.73976 
L 211.785928 199.138904 
L 212.170519 198.736909 
L 212.55511 197.90942 
L 212.939701 197.992075 
L 213.324291 199.208816 
L 213.708882 198.105182 
L 214.093473 199.020927 
L 214.478064 198.179136 
L 214.862654 199.42253 
L 215.247245 197.809364 
L 215.631836 198.81993 
L 216.016427 198.763126 
L 216.401018 198.309644 
L 216.785608 199.195707 
L 217.170199 198.806821 
L 217.55479 198.885472 
L 217.939381 198.100831 
L 218.323971 198.300943 
L 219.093153 197.979024 
L 219.477744 198.601455 
L 219.862334 197.831116 
L 220.246925 198.500956 
L 220.631516 197.957273 
L 221.400698 197.644055 
L 221.785288 198.07473 
L 222.169879 196.76002 
L 222.55447 196.894287 
L 222.939061 198.457261 
L 223.323651 197.214794 
L 223.708242 197.297086 
L 224.092833 197.245112 
L 224.862014 196.699384 
L 225.246605 195.948391 
L 225.631196 195.926829 
L 226.015787 196.751358 
L 226.400378 197.08919 
L 226.784968 196.107944 
L 227.169559 195.693967 
L 227.55415 195.517164 
L 228.323331 196.435676 
L 228.707922 196.267498 
L 229.092513 196.876962 
L 229.477104 197.123839 
L 229.861694 195.165286 
L 230.246285 195.819023 
L 230.630876 195.345614 
L 231.015467 195.857833 
L 231.400058 195.444364 
L 231.784648 195.663781 
L 232.169239 196.396866 
L 232.55383 196.306308 
L 232.938421 195.126644 
L 233.323011 195.09659 
L 233.707602 195.875082 
L 234.092193 195.100883 
L 234.476784 196.030324 
L 234.861374 196.224375 
L 235.245965 195.143818 
L 235.630556 196.073446 
L 236.015147 195.083709 
L 236.399738 195.474419 
L 236.784328 194.723054 
L 237.168919 196.172628 
L 237.55351 195.810398 
L 237.938101 195.96564 
L 238.322691 196.263186 
L 238.707282 195.60341 
L 239.091873 196.013075 
L 239.476464 194.542726 
L 239.861054 196.267498 
L 240.245645 195.827647 
L 240.630236 196.552124 
L 241.014827 196.68639 
L 241.399418 196.293372 
L 242.168599 197.2018 
L 242.55319 196.077758 
L 243.322371 197.05454 
L 243.706962 197.722359 
L 244.091553 197.405365 
L 244.476144 197.639704 
L 244.860734 196.682059 
L 245.245325 197.970324 
L 245.629916 197.27543 
L 246.014507 198.161735 
L 246.399098 197.683207 
L 246.783688 196.816326 
L 247.168279 197.301417 
L 247.55287 197.258106 
L 248.322051 197.718009 
L 248.706642 197.297086 
L 249.091233 197.483095 
L 249.475824 198.122583 
L 249.860414 197.648405 
L 250.245005 197.787613 
L 250.629596 198.605824 
L 251.398778 198.209588 
L 251.783368 197.474395 
L 252.55255 199.646365 
L 252.937141 198.383598 
L 253.321731 198.776235 
L 253.706322 197.944222 
L 253.706322 197.944222 
" style="fill:none;stroke:#d62728;stroke-linecap:square;stroke-width:1.5;"/>
   </g>
   <g id="line2d_28">
    <defs>
     <path d="M 0 3 
C 0.795609 3 1.55874 2.683901 2.12132 2.12132 
C 2.683901 1.55874 3 0.795609 3 0 
C 3 -0.795609 2.683901 -1.55874 2.12132 -2.12132 
C 1.55874 -2.683901 0.795609 -3 0 -3 
C -0.795609 -3 -1.55874 -2.683901 -2.12132 -2.12132 
C -2.683901 -1.55874 -3 -0.795609 -3 0 
C -3 0.795609 -2.683901 1.55874 -2.12132 2.12132 
C -1.55874 2.683901 -0.795609 3 0 3 
z
" id="mcb2457e3ba" style="stroke:#1f77b4;"/>
    </defs>
    <g clip-path="url(#pcd39df9889)">
     <use style="fill:#1f77b4;stroke:#1f77b4;" x="61.410938" xlink:href="#mcb2457e3ba" y="296.95689"/>
     <use style="fill:#1f77b4;stroke:#1f77b4;" x="73.086014" xlink:href="#mcb2457e3ba" y="240.702729"/>
     <use style="fill:#1f77b4;stroke:#1f77b4;" x="84.761091" xlink:href="#mcb2457e3ba" y="158.072882"/>
     <use style="fill:#1f77b4;stroke:#1f77b4;" x="96.436168" xlink:href="#mcb2457e3ba" y="83.454028"/>
     <use style="fill:#1f77b4;stroke:#1f77b4;" x="108.111245" xlink:href="#mcb2457e3ba" y="96.258404"/>
     <use style="fill:#1f77b4;stroke:#1f77b4;" x="119.786322" xlink:href="#mcb2457e3ba" y="138.683974"/>
     <use style="fill:#1f77b4;stroke:#1f77b4;" x="131.461399" xlink:href="#mcb2457e3ba" y="239.411169"/>
     <use style="fill:#1f77b4;stroke:#1f77b4;" x="143.136476" xlink:href="#mcb2457e3ba" y="261.31425"/>
     <use style="fill:#1f77b4;stroke:#1f77b4;" x="154.811553" xlink:href="#mcb2457e3ba" y="210.176714"/>
     <use style="fill:#1f77b4;stroke:#1f77b4;" x="166.48663" xlink:href="#mcb2457e3ba" y="149.233534"/>
     <use style="fill:#1f77b4;stroke:#1f77b4;" x="178.161707" xlink:href="#mcb2457e3ba" y="76.591001"/>
     <use style="fill:#1f77b4;stroke:#1f77b4;" x="189.836784" xlink:href="#mcb2457e3ba" y="81.33225"/>
     <use style="fill:#1f77b4;stroke:#1f77b4;" x="201.511861" xlink:href="#mcb2457e3ba" y="163.288123"/>
     <use style="fill:#1f77b4;stroke:#1f77b4;" x="213.186938" xlink:href="#mcb2457e3ba" y="240.604792"/>
     <use style="fill:#1f77b4;stroke:#1f77b4;" x="224.862014" xlink:href="#mcb2457e3ba" y="248.58825"/>
     <use style="fill:#1f77b4;stroke:#1f77b4;" x="236.537091" xlink:href="#mcb2457e3ba" y="195.245759"/>
     <use style="fill:#1f77b4;stroke:#1f77b4;" x="248.212168" xlink:href="#mcb2457e3ba" y="119.515574"/>
     <use style="fill:#1f77b4;stroke:#1f77b4;" x="259.887245" xlink:href="#mcb2457e3ba" y="82.56425"/>
     <use style="fill:#1f77b4;stroke:#1f77b4;" x="271.562322" xlink:href="#mcb2457e3ba" y="96.472591"/>
     <use style="fill:#1f77b4;stroke:#1f77b4;" x="283.237399" xlink:href="#mcb2457e3ba" y="165.67497"/>
     <use style="fill:#1f77b4;stroke:#1f77b4;" x="294.912476" xlink:href="#mcb2457e3ba" y="231.324031"/>
     <use style="fill:#1f77b4;stroke:#1f77b4;" x="306.587553" xlink:href="#mcb2457e3ba" y="237.11865"/>
     <use style="fill:#1f77b4;stroke:#1f77b4;" x="318.26263" xlink:href="#mcb2457e3ba" y="195.931642"/>
     <use style="fill:#1f77b4;stroke:#1f77b4;" x="329.937707" xlink:href="#mcb2457e3ba" y="137.006504"/>
     <use style="fill:#1f77b4;stroke:#1f77b4;" x="341.612784" xlink:href="#mcb2457e3ba" y="98.56905"/>
     <use style="fill:#1f77b4;stroke:#1f77b4;" x="353.287861" xlink:href="#mcb2457e3ba" y="120.344637"/>
     <use style="fill:#1f77b4;stroke:#1f77b4;" x="364.962938" xlink:href="#mcb2457e3ba" y="167.601035"/>
     <use style="fill:#1f77b4;stroke:#1f77b4;" x="376.638014" xlink:href="#mcb2457e3ba" y="233.969767"/>
     <use style="fill:#1f77b4;stroke:#1f77b4;" x="388.313091" xlink:href="#mcb2457e3ba" y="227.073674"/>
     <use style="fill:#1f77b4;stroke:#1f77b4;" x="399.988168" xlink:href="#mcb2457e3ba" y="204.350435"/>
     <use style="fill:#1f77b4;stroke:#1f77b4;" x="411.663245" xlink:href="#mcb2457e3ba" y="135.060508"/>
    </g>
   </g>
   <g id="line2d_29">
    <defs>
     <path d="M 0 3 
C 0.795609 3 1.55874 2.683901 2.12132 2.12132 
C 2.683901 1.55874 3 0.795609 3 0 
C 3 -0.795609 2.683901 -1.55874 2.12132 -2.12132 
C 1.55874 -2.683901 0.795609 -3 0 -3 
C -0.795609 -3 -1.55874 -2.683901 -2.12132 -2.12132 
C -2.683901 -1.55874 -3 -0.795609 -3 0 
C -3 0.795609 -2.683901 1.55874 -2.12132 2.12132 
C -1.55874 2.683901 -0.795609 3 0 3 
z
" id="m4d17eb6f4c" style="stroke:#d62728;"/>
    </defs>
    <g clip-path="url(#pcd39df9889)">
     <use style="fill:#d62728;stroke:#d62728;" x="61.410938" xlink:href="#m4d17eb6f4c" y="289.822418"/>
     <use style="fill:#d62728;stroke:#d62728;" x="73.086014" xlink:href="#m4d17eb6f4c" y="255.400076"/>
     <use style="fill:#d62728;stroke:#d62728;" x="84.761091" xlink:href="#m4d17eb6f4c" y="180.36825"/>
     <use style="fill:#d62728;stroke:#d62728;" x="96.436168" xlink:href="#m4d17eb6f4c" y="202.078691"/>
     <use style="fill:#d62728;stroke:#d62728;" x="108.111245" xlink:href="#m4d17eb6f4c" y="218.367686"/>
     <use style="fill:#d62728;stroke:#d62728;" x="119.786322" xlink:href="#m4d17eb6f4c" y="217.403408"/>
     <use style="fill:#d62728;stroke:#d62728;" x="131.461399" xlink:href="#m4d17eb6f4c" y="205.025866"/>
     <use style="fill:#d62728;stroke:#d62728;" x="143.136476" xlink:href="#m4d17eb6f4c" y="181.95585"/>
     <use style="fill:#d62728;stroke:#d62728;" x="154.811553" xlink:href="#m4d17eb6f4c" y="207.440706"/>
     <use style="fill:#d62728;stroke:#d62728;" x="166.48663" xlink:href="#m4d17eb6f4c" y="198.147591"/>
     <use style="fill:#d62728;stroke:#d62728;" x="178.161707" xlink:href="#m4d17eb6f4c" y="187.565545"/>
     <use style="fill:#d62728;stroke:#d62728;" x="189.836784" xlink:href="#m4d17eb6f4c" y="169.160882"/>
     <use style="fill:#d62728;stroke:#d62728;" x="201.511861" xlink:href="#m4d17eb6f4c" y="190.27185"/>
     <use style="fill:#d62728;stroke:#d62728;" x="213.186938" xlink:href="#m4d17eb6f4c" y="197.538838"/>
     <use style="fill:#d62728;stroke:#d62728;" x="224.862014" xlink:href="#m4d17eb6f4c" y="181.573764"/>
     <use style="fill:#d62728;stroke:#d62728;" x="236.537091" xlink:href="#m4d17eb6f4c" y="180.492655"/>
    </g>
   </g>
   <g id="patch_3">
    <path d="M 61.410938 297.54825 
L 61.410938 31.43625 
" style="fill:none;stroke:#000000;stroke-linecap:square;stroke-linejoin:miter;stroke-width:0.8;"/>
   </g>
   <g id="patch_4">
    <path d="M 418.530938 297.54825 
L 418.530938 31.43625 
" style="fill:none;stroke:#000000;stroke-linecap:square;stroke-linejoin:miter;stroke-width:0.8;"/>
   </g>
   <g id="patch_5">
    <path d="M 61.410938 297.54825 
L 418.530938 297.54825 
" style="fill:none;stroke:#000000;stroke-linecap:square;stroke-linejoin:miter;stroke-width:0.8;"/>
   </g>
   <g id="patch_6">
    <path d="M 61.410938 31.43625 
L 418.530938 31.43625 
" style="fill:none;stroke:#000000;stroke-linecap:square;stroke-linejoin:miter;stroke-width:0.8;"/>
   </g>
   <g id="text_15">
    <!-- (C) -->
    <defs>
     <path d="M 64.40625 67.28125 
L 64.40625 56.890625 
Q 59.421875 61.53125 53.78125 63.8125 
Q 48.140625 66.109375 41.796875 66.109375 
Q 29.296875 66.109375 22.65625 58.46875 
Q 16.015625 50.828125 16.015625 36.375 
Q 16.015625 21.96875 22.65625 14.328125 
Q 29.296875 6.6875 41.796875 6.6875 
Q 48.140625 6.6875 53.78125 8.984375 
Q 59.421875 11.28125 64.40625 15.921875 
L 64.40625 5.609375 
Q 59.234375 2.09375 53.4375 0.328125 
Q 47.65625 -1.421875 41.21875 -1.421875 
Q 24.65625 -1.421875 15.125 8.703125 
Q 5.609375 18.84375 5.609375 36.375 
Q 5.609375 53.953125 15.125 64.078125 
Q 24.65625 74.21875 41.21875 74.21875 
Q 47.75 74.21875 53.53125 72.484375 
Q 59.328125 70.75 64.40625 67.28125 
z
" id="DejaVuSans-43"/>
    </defs>
    <g transform="translate(380.071861 58.04745)scale(0.2 -0.2)">
     <use xlink:href="#DejaVuSans-28"/>
     <use x="39.013672" xlink:href="#DejaVuSans-43"/>
     <use x="108.837891" xlink:href="#DejaVuSans-29"/>
    </g>
   </g>
   <g id="text_16">
    <!-- Z heating -->
    <defs>
     <path d="M 5.609375 72.90625 
L 62.890625 72.90625 
L 62.890625 65.375 
L 16.796875 8.296875 
L 64.015625 8.296875 
L 64.015625 0 
L 4.5 0 
L 4.5 7.515625 
L 50.59375 64.59375 
L 5.609375 64.59375 
z
" id="DejaVuSans-5a"/>
     <path d="M 54.890625 33.015625 
L 54.890625 0 
L 45.90625 0 
L 45.90625 32.71875 
Q 45.90625 40.484375 42.875 44.328125 
Q 39.84375 48.1875 33.796875 48.1875 
Q 26.515625 48.1875 22.3125 43.546875 
Q 18.109375 38.921875 18.109375 30.90625 
L 18.109375 0 
L 9.078125 0 
L 9.078125 75.984375 
L 18.109375 75.984375 
L 18.109375 46.1875 
Q 21.34375 51.125 25.703125 53.5625 
Q 30.078125 56 35.796875 56 
Q 45.21875 56 50.046875 50.171875 
Q 54.890625 44.34375 54.890625 33.015625 
z
" id="DejaVuSans-68"/>
     <path d="M 18.3125 70.21875 
L 18.3125 54.6875 
L 36.8125 54.6875 
L 36.8125 47.703125 
L 18.3125 47.703125 
L 18.3125 18.015625 
Q 18.3125 11.328125 20.140625 9.421875 
Q 21.96875 7.515625 27.59375 7.515625 
L 36.8125 7.515625 
L 36.8125 0 
L 27.59375 0 
Q 17.1875 0 13.234375 3.875 
Q 9.28125 7.765625 9.28125 18.015625 
L 9.28125 47.703125 
L 2.6875 47.703125 
L 2.6875 54.6875 
L 9.28125 54.6875 
L 9.28125 70.21875 
z
" id="DejaVuSans-74"/>
     <path d="M 54.890625 33.015625 
L 54.890625 0 
L 45.90625 0 
L 45.90625 32.71875 
Q 45.90625 40.484375 42.875 44.328125 
Q 39.84375 48.1875 33.796875 48.1875 
Q 26.515625 48.1875 22.3125 43.546875 
Q 18.109375 38.921875 18.109375 30.90625 
L 18.109375 0 
L 9.078125 0 
L 9.078125 54.6875 
L 18.109375 54.6875 
L 18.109375 46.1875 
Q 21.34375 51.125 25.703125 53.5625 
Q 30.078125 56 35.796875 56 
Q 45.21875 56 50.046875 50.171875 
Q 54.890625 44.34375 54.890625 33.015625 
z
" id="DejaVuSans-6e"/>
     <path d="M 45.40625 27.984375 
Q 45.40625 37.75 41.375 43.109375 
Q 37.359375 48.484375 30.078125 48.484375 
Q 22.859375 48.484375 18.828125 43.109375 
Q 14.796875 37.75 14.796875 27.984375 
Q 14.796875 18.265625 18.828125 12.890625 
Q 22.859375 7.515625 30.078125 7.515625 
Q 37.359375 7.515625 41.375 12.890625 
Q 45.40625 18.265625 45.40625 27.984375 
z
M 54.390625 6.78125 
Q 54.390625 -7.171875 48.1875 -13.984375 
Q 42 -20.796875 29.203125 -20.796875 
Q 24.46875 -20.796875 20.265625 -20.09375 
Q 16.0625 -19.390625 12.109375 -17.921875 
L 12.109375 -9.1875 
Q 16.0625 -11.328125 19.921875 -12.34375 
Q 23.78125 -13.375 27.78125 -13.375 
Q 36.625 -13.375 41.015625 -8.765625 
Q 45.40625 -4.15625 45.40625 5.171875 
L 45.40625 9.625 
Q 42.625 4.78125 38.28125 2.390625 
Q 33.9375 0 27.875 0 
Q 17.828125 0 11.671875 7.65625 
Q 5.515625 15.328125 5.515625 27.984375 
Q 5.515625 40.671875 11.671875 48.328125 
Q 17.828125 56 27.875 56 
Q 33.9375 56 38.28125 53.609375 
Q 42.625 51.21875 45.40625 46.390625 
L 45.40625 54.6875 
L 54.390625 54.6875 
z
" id="DejaVuSans-67"/>
    </defs>
    <g transform="translate(182.333438 25.43625)scale(0.24 -0.24)">
     <use xlink:href="#DejaVuSans-5a"/>
     <use x="68.505859" xlink:href="#DejaVuSans-20"/>
     <use x="100.292969" xlink:href="#DejaVuSans-68"/>
     <use x="163.671875" xlink:href="#DejaVuSans-65"/>
     <use x="225.195312" xlink:href="#DejaVuSans-61"/>
     <use x="286.474609" xlink:href="#DejaVuSans-74"/>
     <use x="325.683594" xlink:href="#DejaVuSans-69"/>
     <use x="353.466797" xlink:href="#DejaVuSans-6e"/>
     <use x="416.845703" xlink:href="#DejaVuSans-67"/>
    </g>
   </g>
   <g id="legend_1">
    <g id="patch_7">
     <path d="M 296.074687 196.8485 
L 404.530937 196.8485 
Q 408.530937 196.8485 408.530937 192.8485 
L 408.530937 136.136 
Q 408.530937 132.136 404.530937 132.136 
L 296.074687 132.136 
Q 292.074687 132.136 292.074687 136.136 
L 292.074687 192.8485 
Q 292.074687 196.8485 296.074687 196.8485 
z
" style="fill:#ffffff;opacity:0.8;stroke:#cccccc;stroke-linejoin:miter;"/>
    </g>
    <g id="LineCollection_3">
     <path d="M 320.074687 158.332875 
L 320.074687 138.332875 
" style="fill:none;stroke:#1f77b4;stroke-width:1.5;"/>
    </g>
    <g id="line2d_30"/>
    <g id="line2d_31">
     <g>
      <use style="fill:#1f77b4;stroke:#1f77b4;" x="320.074687" xlink:href="#mcb2457e3ba" y="148.332875"/>
     </g>
    </g>
    <g id="text_17">
     <!-- Cold -->
     <defs>
      <path d="M 30.609375 48.390625 
Q 23.390625 48.390625 19.1875 42.75 
Q 14.984375 37.109375 14.984375 27.296875 
Q 14.984375 17.484375 19.15625 11.84375 
Q 23.34375 6.203125 30.609375 6.203125 
Q 37.796875 6.203125 41.984375 11.859375 
Q 46.1875 17.53125 46.1875 27.296875 
Q 46.1875 37.015625 41.984375 42.703125 
Q 37.796875 48.390625 30.609375 48.390625 
z
M 30.609375 56 
Q 42.328125 56 49.015625 48.375 
Q 55.71875 40.765625 55.71875 27.296875 
Q 55.71875 13.875 49.015625 6.21875 
Q 42.328125 -1.421875 30.609375 -1.421875 
Q 18.84375 -1.421875 12.171875 6.21875 
Q 5.515625 13.875 5.515625 27.296875 
Q 5.515625 40.765625 12.171875 48.375 
Q 18.84375 56 30.609375 56 
z
" id="DejaVuSans-6f"/>
      <path d="M 45.40625 46.390625 
L 45.40625 75.984375 
L 54.390625 75.984375 
L 54.390625 0 
L 45.40625 0 
L 45.40625 8.203125 
Q 42.578125 3.328125 38.25 0.953125 
Q 33.9375 -1.421875 27.875 -1.421875 
Q 17.96875 -1.421875 11.734375 6.484375 
Q 5.515625 14.40625 5.515625 27.296875 
Q 5.515625 40.1875 11.734375 48.09375 
Q 17.96875 56 27.875 56 
Q 33.9375 56 38.25 53.625 
Q 42.578125 51.265625 45.40625 46.390625 
z
M 14.796875 27.296875 
Q 14.796875 17.390625 18.875 11.75 
Q 22.953125 6.109375 30.078125 6.109375 
Q 37.203125 6.109375 41.296875 11.75 
Q 45.40625 17.390625 45.40625 27.296875 
Q 45.40625 37.203125 41.296875 42.84375 
Q 37.203125 48.484375 30.078125 48.484375 
Q 22.953125 48.484375 18.875 42.84375 
Q 14.796875 37.203125 14.796875 27.296875 
z
" id="DejaVuSans-64"/>
     </defs>
     <g transform="translate(356.074687 155.332875)scale(0.2 -0.2)">
      <use xlink:href="#DejaVuSans-43"/>
      <use x="69.824219" xlink:href="#DejaVuSans-6f"/>
      <use x="131.005859" xlink:href="#DejaVuSans-6c"/>
      <use x="158.789062" xlink:href="#DejaVuSans-64"/>
     </g>
    </g>
    <g id="LineCollection_4">
     <path d="M 320.074687 187.689125 
L 320.074687 167.689125 
" style="fill:none;stroke:#d62728;stroke-width:1.5;"/>
    </g>
    <g id="line2d_32"/>
    <g id="line2d_33">
     <g>
      <use style="fill:#d62728;stroke:#d62728;" x="320.074687" xlink:href="#m4d17eb6f4c" y="177.689125"/>
     </g>
    </g>
    <g id="text_18">
     <!-- Hot -->
     <defs>
      <path d="M 9.8125 72.90625 
L 19.671875 72.90625 
L 19.671875 43.015625 
L 55.515625 43.015625 
L 55.515625 72.90625 
L 65.375 72.90625 
L 65.375 0 
L 55.515625 0 
L 55.515625 34.71875 
L 19.671875 34.71875 
L 19.671875 0 
L 9.8125 0 
z
" id="DejaVuSans-48"/>
     </defs>
     <g transform="translate(356.074687 184.689125)scale(0.2 -0.2)">
      <use xlink:href="#DejaVuSans-48"/>
      <use x="75.195312" xlink:href="#DejaVuSans-6f"/>
      <use x="136.376953" xlink:href="#DejaVuSans-74"/>
     </g>
    </g>
   </g>
  </g>
 </g>
 <defs>
  <clipPath id="pcd39df9889">
   <rect height="266.112" width="357.12" x="61.410938" y="31.43625"/>
  </clipPath>
 </defs>
</svg>
