<?xml version="1.0" encoding="utf-8" standalone="no"?>
<!DOCTYPE svg PUBLIC "-//W3C//DTD SVG 1.1//EN"
  "http://www.w3.org/Graphics/SVG/1.1/DTD/svg11.dtd">
<!-- Created with matplotlib (http://matplotlib.org/) -->
<svg height="331pt" version="1.1" viewBox="0 0 429 331" width="429pt" xmlns="http://www.w3.org/2000/svg" xmlns:xlink="http://www.w3.org/1999/xlink">
 <defs>
  <style type="text/css">
*{stroke-linecap:butt;stroke-linejoin:round;}
  </style>
 </defs>
 <g id="figure_1">
  <g id="patch_1">
   <path d="M 0 331.128016 
L 429.230937 331.128016 
L 429.230937 0 
L 0 0 
z
" style="fill:none;"/>
  </g>
  <g id="axes_1">
   <g id="patch_2">
    <path d="M 61.410938 279.010828 
L 418.530938 279.010828 
L 418.530938 12.898828 
L 61.410938 12.898828 
z
" style="fill:none;"/>
   </g>
   <g id="matplotlib.axis_1">
    <g id="xtick_1">
     <g id="line2d_1">
      <path clip-path="url(#p1da729468f)" d="M 61.410938 279.010828 
L 61.410938 12.898828 
" style="fill:none;stroke:#b0b0b0;stroke-linecap:square;stroke-width:0.8;"/>
     </g>
     <g id="line2d_2">
      <defs>
       <path d="M 0 0 
L 0 3.5 
" id="m005f0a59be" style="stroke:#000000;stroke-width:0.8;"/>
      </defs>
      <g>
       <use style="stroke:#000000;stroke-width:0.8;" x="61.410938" xlink:href="#m005f0a59be" y="279.010828"/>
      </g>
     </g>
     <g id="text_1">
      <!-- 0 -->
      <defs>
       <path d="M 31.78125 66.40625 
Q 24.171875 66.40625 20.328125 58.90625 
Q 16.5 51.421875 16.5 36.375 
Q 16.5 21.390625 20.328125 13.890625 
Q 24.171875 6.390625 31.78125 6.390625 
Q 39.453125 6.390625 43.28125 13.890625 
Q 47.125 21.390625 47.125 36.375 
Q 47.125 51.421875 43.28125 58.90625 
Q 39.453125 66.40625 31.78125 66.40625 
z
M 31.78125 74.21875 
Q 44.046875 74.21875 50.515625 64.515625 
Q 56.984375 54.828125 56.984375 36.375 
Q 56.984375 17.96875 50.515625 8.265625 
Q 44.046875 -1.421875 31.78125 -1.421875 
Q 19.53125 -1.421875 13.0625 8.265625 
Q 6.59375 17.96875 6.59375 36.375 
Q 6.59375 54.828125 13.0625 64.515625 
Q 19.53125 74.21875 31.78125 74.21875 
z
" id="DejaVuSans-30"/>
      </defs>
      <g transform="translate(56.639063 297.408484)scale(0.15 -0.15)">
       <use xlink:href="#DejaVuSans-30"/>
      </g>
     </g>
    </g>
    <g id="xtick_2">
     <g id="line2d_3">
      <path clip-path="url(#p1da729468f)" d="M 129.433795 279.010828 
L 129.433795 12.898828 
" style="fill:none;stroke:#b0b0b0;stroke-linecap:square;stroke-width:0.8;"/>
     </g>
     <g id="line2d_4">
      <g>
       <use style="stroke:#000000;stroke-width:0.8;" x="129.433795" xlink:href="#m005f0a59be" y="279.010828"/>
      </g>
     </g>
     <g id="text_2">
      <!-- 20 -->
      <defs>
       <path d="M 19.1875 8.296875 
L 53.609375 8.296875 
L 53.609375 0 
L 7.328125 0 
L 7.328125 8.296875 
Q 12.9375 14.109375 22.625 23.890625 
Q 32.328125 33.6875 34.8125 36.53125 
Q 39.546875 41.84375 41.421875 45.53125 
Q 43.3125 49.21875 43.3125 52.78125 
Q 43.3125 58.59375 39.234375 62.25 
Q 35.15625 65.921875 28.609375 65.921875 
Q 23.96875 65.921875 18.8125 64.3125 
Q 13.671875 62.703125 7.8125 59.421875 
L 7.8125 69.390625 
Q 13.765625 71.78125 18.9375 73 
Q 24.125 74.21875 28.421875 74.21875 
Q 39.75 74.21875 46.484375 68.546875 
Q 53.21875 62.890625 53.21875 53.421875 
Q 53.21875 48.921875 51.53125 44.890625 
Q 49.859375 40.875 45.40625 35.40625 
Q 44.1875 33.984375 37.640625 27.21875 
Q 31.109375 20.453125 19.1875 8.296875 
z
" id="DejaVuSans-32"/>
      </defs>
      <g transform="translate(119.890045 297.408484)scale(0.15 -0.15)">
       <use xlink:href="#DejaVuSans-32"/>
       <use x="63.623047" xlink:href="#DejaVuSans-30"/>
      </g>
     </g>
    </g>
    <g id="xtick_3">
     <g id="line2d_5">
      <path clip-path="url(#p1da729468f)" d="M 197.456652 279.010828 
L 197.456652 12.898828 
" style="fill:none;stroke:#b0b0b0;stroke-linecap:square;stroke-width:0.8;"/>
     </g>
     <g id="line2d_6">
      <g>
       <use style="stroke:#000000;stroke-width:0.8;" x="197.456652" xlink:href="#m005f0a59be" y="279.010828"/>
      </g>
     </g>
     <g id="text_3">
      <!-- 40 -->
      <defs>
       <path d="M 37.796875 64.3125 
L 12.890625 25.390625 
L 37.796875 25.390625 
z
M 35.203125 72.90625 
L 47.609375 72.90625 
L 47.609375 25.390625 
L 58.015625 25.390625 
L 58.015625 17.1875 
L 47.609375 17.1875 
L 47.609375 0 
L 37.796875 0 
L 37.796875 17.1875 
L 4.890625 17.1875 
L 4.890625 26.703125 
z
" id="DejaVuSans-34"/>
      </defs>
      <g transform="translate(187.912902 297.408484)scale(0.15 -0.15)">
       <use xlink:href="#DejaVuSans-34"/>
       <use x="63.623047" xlink:href="#DejaVuSans-30"/>
      </g>
     </g>
    </g>
    <g id="xtick_4">
     <g id="line2d_7">
      <path clip-path="url(#p1da729468f)" d="M 265.479509 279.010828 
L 265.479509 12.898828 
" style="fill:none;stroke:#b0b0b0;stroke-linecap:square;stroke-width:0.8;"/>
     </g>
     <g id="line2d_8">
      <g>
       <use style="stroke:#000000;stroke-width:0.8;" x="265.479509" xlink:href="#m005f0a59be" y="279.010828"/>
      </g>
     </g>
     <g id="text_4">
      <!-- 60 -->
      <defs>
       <path d="M 33.015625 40.375 
Q 26.375 40.375 22.484375 35.828125 
Q 18.609375 31.296875 18.609375 23.390625 
Q 18.609375 15.53125 22.484375 10.953125 
Q 26.375 6.390625 33.015625 6.390625 
Q 39.65625 6.390625 43.53125 10.953125 
Q 47.40625 15.53125 47.40625 23.390625 
Q 47.40625 31.296875 43.53125 35.828125 
Q 39.65625 40.375 33.015625 40.375 
z
M 52.59375 71.296875 
L 52.59375 62.3125 
Q 48.875 64.0625 45.09375 64.984375 
Q 41.3125 65.921875 37.59375 65.921875 
Q 27.828125 65.921875 22.671875 59.328125 
Q 17.53125 52.734375 16.796875 39.40625 
Q 19.671875 43.65625 24.015625 45.921875 
Q 28.375 48.1875 33.59375 48.1875 
Q 44.578125 48.1875 50.953125 41.515625 
Q 57.328125 34.859375 57.328125 23.390625 
Q 57.328125 12.15625 50.6875 5.359375 
Q 44.046875 -1.421875 33.015625 -1.421875 
Q 20.359375 -1.421875 13.671875 8.265625 
Q 6.984375 17.96875 6.984375 36.375 
Q 6.984375 53.65625 15.1875 63.9375 
Q 23.390625 74.21875 37.203125 74.21875 
Q 40.921875 74.21875 44.703125 73.484375 
Q 48.484375 72.75 52.59375 71.296875 
z
" id="DejaVuSans-36"/>
      </defs>
      <g transform="translate(255.935759 297.408484)scale(0.15 -0.15)">
       <use xlink:href="#DejaVuSans-36"/>
       <use x="63.623047" xlink:href="#DejaVuSans-30"/>
      </g>
     </g>
    </g>
    <g id="xtick_5">
     <g id="line2d_9">
      <path clip-path="url(#p1da729468f)" d="M 333.502366 279.010828 
L 333.502366 12.898828 
" style="fill:none;stroke:#b0b0b0;stroke-linecap:square;stroke-width:0.8;"/>
     </g>
     <g id="line2d_10">
      <g>
       <use style="stroke:#000000;stroke-width:0.8;" x="333.502366" xlink:href="#m005f0a59be" y="279.010828"/>
      </g>
     </g>
     <g id="text_5">
      <!-- 80 -->
      <defs>
       <path d="M 31.78125 34.625 
Q 24.75 34.625 20.71875 30.859375 
Q 16.703125 27.09375 16.703125 20.515625 
Q 16.703125 13.921875 20.71875 10.15625 
Q 24.75 6.390625 31.78125 6.390625 
Q 38.8125 6.390625 42.859375 10.171875 
Q 46.921875 13.96875 46.921875 20.515625 
Q 46.921875 27.09375 42.890625 30.859375 
Q 38.875 34.625 31.78125 34.625 
z
M 21.921875 38.8125 
Q 15.578125 40.375 12.03125 44.71875 
Q 8.5 49.078125 8.5 55.328125 
Q 8.5 64.0625 14.71875 69.140625 
Q 20.953125 74.21875 31.78125 74.21875 
Q 42.671875 74.21875 48.875 69.140625 
Q 55.078125 64.0625 55.078125 55.328125 
Q 55.078125 49.078125 51.53125 44.71875 
Q 48 40.375 41.703125 38.8125 
Q 48.828125 37.15625 52.796875 32.3125 
Q 56.78125 27.484375 56.78125 20.515625 
Q 56.78125 9.90625 50.3125 4.234375 
Q 43.84375 -1.421875 31.78125 -1.421875 
Q 19.734375 -1.421875 13.25 4.234375 
Q 6.78125 9.90625 6.78125 20.515625 
Q 6.78125 27.484375 10.78125 32.3125 
Q 14.796875 37.15625 21.921875 38.8125 
z
M 18.3125 54.390625 
Q 18.3125 48.734375 21.84375 45.5625 
Q 25.390625 42.390625 31.78125 42.390625 
Q 38.140625 42.390625 41.71875 45.5625 
Q 45.3125 48.734375 45.3125 54.390625 
Q 45.3125 60.0625 41.71875 63.234375 
Q 38.140625 66.40625 31.78125 66.40625 
Q 25.390625 66.40625 21.84375 63.234375 
Q 18.3125 60.0625 18.3125 54.390625 
z
" id="DejaVuSans-38"/>
      </defs>
      <g transform="translate(323.958616 297.408484)scale(0.15 -0.15)">
       <use xlink:href="#DejaVuSans-38"/>
       <use x="63.623047" xlink:href="#DejaVuSans-30"/>
      </g>
     </g>
    </g>
    <g id="xtick_6">
     <g id="line2d_11">
      <path clip-path="url(#p1da729468f)" d="M 401.525223 279.010828 
L 401.525223 12.898828 
" style="fill:none;stroke:#b0b0b0;stroke-linecap:square;stroke-width:0.8;"/>
     </g>
     <g id="line2d_12">
      <g>
       <use style="stroke:#000000;stroke-width:0.8;" x="401.525223" xlink:href="#m005f0a59be" y="279.010828"/>
      </g>
     </g>
     <g id="text_6">
      <!-- 100 -->
      <defs>
       <path d="M 12.40625 8.296875 
L 28.515625 8.296875 
L 28.515625 63.921875 
L 10.984375 60.40625 
L 10.984375 69.390625 
L 28.421875 72.90625 
L 38.28125 72.90625 
L 38.28125 8.296875 
L 54.390625 8.296875 
L 54.390625 0 
L 12.40625 0 
z
" id="DejaVuSans-31"/>
      </defs>
      <g transform="translate(387.209598 297.408484)scale(0.15 -0.15)">
       <use xlink:href="#DejaVuSans-31"/>
       <use x="63.623047" xlink:href="#DejaVuSans-30"/>
       <use x="127.246094" xlink:href="#DejaVuSans-30"/>
      </g>
     </g>
    </g>
    <g id="text_7">
     <!-- Time ($\mu s$) -->
     <defs>
      <path d="M -0.296875 72.90625 
L 61.375 72.90625 
L 61.375 64.59375 
L 35.5 64.59375 
L 35.5 0 
L 25.59375 0 
L 25.59375 64.59375 
L -0.296875 64.59375 
z
" id="DejaVuSans-54"/>
      <path d="M 9.421875 54.6875 
L 18.40625 54.6875 
L 18.40625 0 
L 9.421875 0 
z
M 9.421875 75.984375 
L 18.40625 75.984375 
L 18.40625 64.59375 
L 9.421875 64.59375 
z
" id="DejaVuSans-69"/>
      <path d="M 52 44.1875 
Q 55.375 50.25 60.0625 53.125 
Q 64.75 56 71.09375 56 
Q 79.640625 56 84.28125 50.015625 
Q 88.921875 44.046875 88.921875 33.015625 
L 88.921875 0 
L 79.890625 0 
L 79.890625 32.71875 
Q 79.890625 40.578125 77.09375 44.375 
Q 74.3125 48.1875 68.609375 48.1875 
Q 61.625 48.1875 57.5625 43.546875 
Q 53.515625 38.921875 53.515625 30.90625 
L 53.515625 0 
L 44.484375 0 
L 44.484375 32.71875 
Q 44.484375 40.625 41.703125 44.40625 
Q 38.921875 48.1875 33.109375 48.1875 
Q 26.21875 48.1875 22.15625 43.53125 
Q 18.109375 38.875 18.109375 30.90625 
L 18.109375 0 
L 9.078125 0 
L 9.078125 54.6875 
L 18.109375 54.6875 
L 18.109375 46.1875 
Q 21.1875 51.21875 25.484375 53.609375 
Q 29.78125 56 35.6875 56 
Q 41.65625 56 45.828125 52.96875 
Q 50 49.953125 52 44.1875 
z
" id="DejaVuSans-6d"/>
      <path d="M 56.203125 29.59375 
L 56.203125 25.203125 
L 14.890625 25.203125 
Q 15.484375 15.921875 20.484375 11.0625 
Q 25.484375 6.203125 34.421875 6.203125 
Q 39.59375 6.203125 44.453125 7.46875 
Q 49.3125 8.734375 54.109375 11.28125 
L 54.109375 2.78125 
Q 49.265625 0.734375 44.1875 -0.34375 
Q 39.109375 -1.421875 33.890625 -1.421875 
Q 20.796875 -1.421875 13.15625 6.1875 
Q 5.515625 13.8125 5.515625 26.8125 
Q 5.515625 40.234375 12.765625 48.109375 
Q 20.015625 56 32.328125 56 
Q 43.359375 56 49.78125 48.890625 
Q 56.203125 41.796875 56.203125 29.59375 
z
M 47.21875 32.234375 
Q 47.125 39.59375 43.09375 43.984375 
Q 39.0625 48.390625 32.421875 48.390625 
Q 24.90625 48.390625 20.390625 44.140625 
Q 15.875 39.890625 15.1875 32.171875 
z
" id="DejaVuSans-65"/>
      <path id="DejaVuSans-20"/>
      <path d="M 31 75.875 
Q 24.46875 64.65625 21.28125 53.65625 
Q 18.109375 42.671875 18.109375 31.390625 
Q 18.109375 20.125 21.3125 9.0625 
Q 24.515625 -2 31 -13.1875 
L 23.1875 -13.1875 
Q 15.875 -1.703125 12.234375 9.375 
Q 8.59375 20.453125 8.59375 31.390625 
Q 8.59375 42.28125 12.203125 53.3125 
Q 15.828125 64.359375 23.1875 75.875 
z
" id="DejaVuSans-28"/>
      <path d="M -1.3125 -20.796875 
L 13.375 54.6875 
L 22.40625 54.6875 
L 15.765625 20.65625 
Q 15.578125 19.625 15.421875 18.359375 
Q 15.28125 17.09375 15.28125 15.828125 
Q 15.28125 11.28125 18.140625 8.828125 
Q 21 6.390625 26.3125 6.390625 
Q 33.546875 6.390625 37.984375 10.484375 
Q 42.4375 14.59375 44 22.796875 
L 50.203125 54.6875 
L 59.1875 54.6875 
L 51.03125 12.640625 
Q 50.828125 11.71875 50.75 11.03125 
Q 50.6875 10.359375 50.6875 9.8125 
Q 50.6875 8.296875 51.296875 7.59375 
Q 51.90625 6.890625 53.21875 6.890625 
Q 53.71875 6.890625 54.5625 7.125 
Q 55.421875 7.375 56.984375 8.015625 
L 55.609375 0.78125 
Q 53.46875 -0.296875 51.515625 -0.859375 
Q 49.5625 -1.421875 47.703125 -1.421875 
Q 44.484375 -1.421875 42.65625 0.625 
Q 40.828125 2.6875 40.828125 6.296875 
Q 38.09375 2.390625 34.296875 0.484375 
Q 30.515625 -1.421875 25.390625 -1.421875 
Q 20.84375 -1.421875 17.453125 0.671875 
Q 14.0625 2.78125 12.984375 6.203125 
L 7.71875 -20.796875 
z
" id="DejaVuSans-Oblique-3bc"/>
      <path d="M 50 53.078125 
L 48.296875 44.578125 
Q 44.734375 46.53125 40.765625 47.5 
Q 36.8125 48.484375 32.625 48.484375 
Q 25.53125 48.484375 21.453125 46.0625 
Q 17.390625 43.65625 17.390625 39.5 
Q 17.390625 34.671875 26.859375 32.078125 
Q 27.59375 31.890625 27.9375 31.78125 
L 30.8125 30.90625 
Q 39.796875 28.421875 42.796875 25.6875 
Q 45.796875 22.953125 45.796875 18.21875 
Q 45.796875 9.515625 38.890625 4.046875 
Q 31.984375 -1.421875 20.796875 -1.421875 
Q 16.453125 -1.421875 11.671875 -0.578125 
Q 6.890625 0.25 1.125 2 
L 2.875 11.28125 
Q 7.8125 8.734375 12.59375 7.421875 
Q 17.390625 6.109375 21.78125 6.109375 
Q 28.375 6.109375 32.5 8.9375 
Q 36.625 11.765625 36.625 16.109375 
Q 36.625 20.796875 25.78125 23.6875 
L 24.859375 23.921875 
L 21.78125 24.703125 
Q 14.9375 26.515625 11.765625 29.46875 
Q 8.59375 32.421875 8.59375 37.015625 
Q 8.59375 45.75 15.15625 50.875 
Q 21.734375 56 33.015625 56 
Q 37.453125 56 41.671875 55.265625 
Q 45.90625 54.546875 50 53.078125 
z
" id="DejaVuSans-Oblique-73"/>
      <path d="M 8.015625 75.875 
L 15.828125 75.875 
Q 23.140625 64.359375 26.78125 53.3125 
Q 30.421875 42.28125 30.421875 31.390625 
Q 30.421875 20.453125 26.78125 9.375 
Q 23.140625 -1.703125 15.828125 -13.1875 
L 8.015625 -13.1875 
Q 14.5 -2 17.703125 9.0625 
Q 20.90625 20.125 20.90625 31.390625 
Q 20.90625 42.671875 17.703125 53.65625 
Q 14.5 64.65625 8.015625 75.875 
z
" id="DejaVuSans-29"/>
     </defs>
     <g transform="translate(192.570938 319.728016)scale(0.2 -0.2)">
      <use transform="translate(0 0.015625)" xlink:href="#DejaVuSans-54"/>
      <use transform="translate(61.083984 0.015625)" xlink:href="#DejaVuSans-69"/>
      <use transform="translate(88.867188 0.015625)" xlink:href="#DejaVuSans-6d"/>
      <use transform="translate(186.279297 0.015625)" xlink:href="#DejaVuSans-65"/>
      <use transform="translate(247.802734 0.015625)" xlink:href="#DejaVuSans-20"/>
      <use transform="translate(279.589844 0.015625)" xlink:href="#DejaVuSans-28"/>
      <use transform="translate(318.603516 0.015625)" xlink:href="#DejaVuSans-Oblique-3bc"/>
      <use transform="translate(382.226562 0.015625)" xlink:href="#DejaVuSans-Oblique-73"/>
      <use transform="translate(434.326172 0.015625)" xlink:href="#DejaVuSans-29"/>
     </g>
    </g>
   </g>
   <g id="matplotlib.axis_2">
    <g id="ytick_1">
     <g id="line2d_13">
      <path clip-path="url(#p1da729468f)" d="M 61.410938 279.010828 
L 418.530938 279.010828 
" style="fill:none;stroke:#b0b0b0;stroke-linecap:square;stroke-width:0.8;"/>
     </g>
     <g id="line2d_14">
      <defs>
       <path d="M 0 0 
L -3.5 0 
" id="mc3ce260a5b" style="stroke:#000000;stroke-width:0.8;"/>
      </defs>
      <g>
       <use style="stroke:#000000;stroke-width:0.8;" x="61.410938" xlink:href="#mc3ce260a5b" y="279.010828"/>
      </g>
     </g>
     <g id="text_8">
      <!-- 0.0 -->
      <defs>
       <path d="M 10.6875 12.40625 
L 21 12.40625 
L 21 0 
L 10.6875 0 
z
" id="DejaVuSans-2e"/>
      </defs>
      <g transform="translate(30.55625 284.709656)scale(0.15 -0.15)">
       <use xlink:href="#DejaVuSans-30"/>
       <use x="63.623047" xlink:href="#DejaVuSans-2e"/>
       <use x="95.410156" xlink:href="#DejaVuSans-30"/>
      </g>
     </g>
    </g>
    <g id="ytick_2">
     <g id="line2d_15">
      <path clip-path="url(#p1da729468f)" d="M 61.410938 225.788428 
L 418.530938 225.788428 
" style="fill:none;stroke:#b0b0b0;stroke-linecap:square;stroke-width:0.8;"/>
     </g>
     <g id="line2d_16">
      <g>
       <use style="stroke:#000000;stroke-width:0.8;" x="61.410938" xlink:href="#mc3ce260a5b" y="225.788428"/>
      </g>
     </g>
     <g id="text_9">
      <!-- 0.2 -->
      <g transform="translate(30.55625 231.487256)scale(0.15 -0.15)">
       <use xlink:href="#DejaVuSans-30"/>
       <use x="63.623047" xlink:href="#DejaVuSans-2e"/>
       <use x="95.410156" xlink:href="#DejaVuSans-32"/>
      </g>
     </g>
    </g>
    <g id="ytick_3">
     <g id="line2d_17">
      <path clip-path="url(#p1da729468f)" d="M 61.410938 172.566028 
L 418.530938 172.566028 
" style="fill:none;stroke:#b0b0b0;stroke-linecap:square;stroke-width:0.8;"/>
     </g>
     <g id="line2d_18">
      <g>
       <use style="stroke:#000000;stroke-width:0.8;" x="61.410938" xlink:href="#mc3ce260a5b" y="172.566028"/>
      </g>
     </g>
     <g id="text_10">
      <!-- 0.4 -->
      <g transform="translate(30.55625 178.264856)scale(0.15 -0.15)">
       <use xlink:href="#DejaVuSans-30"/>
       <use x="63.623047" xlink:href="#DejaVuSans-2e"/>
       <use x="95.410156" xlink:href="#DejaVuSans-34"/>
      </g>
     </g>
    </g>
    <g id="ytick_4">
     <g id="line2d_19">
      <path clip-path="url(#p1da729468f)" d="M 61.410938 119.343628 
L 418.530938 119.343628 
" style="fill:none;stroke:#b0b0b0;stroke-linecap:square;stroke-width:0.8;"/>
     </g>
     <g id="line2d_20">
      <g>
       <use style="stroke:#000000;stroke-width:0.8;" x="61.410938" xlink:href="#mc3ce260a5b" y="119.343628"/>
      </g>
     </g>
     <g id="text_11">
      <!-- 0.6 -->
      <g transform="translate(30.55625 125.042456)scale(0.15 -0.15)">
       <use xlink:href="#DejaVuSans-30"/>
       <use x="63.623047" xlink:href="#DejaVuSans-2e"/>
       <use x="95.410156" xlink:href="#DejaVuSans-36"/>
      </g>
     </g>
    </g>
    <g id="ytick_5">
     <g id="line2d_21">
      <path clip-path="url(#p1da729468f)" d="M 61.410938 66.121228 
L 418.530938 66.121228 
" style="fill:none;stroke:#b0b0b0;stroke-linecap:square;stroke-width:0.8;"/>
     </g>
     <g id="line2d_22">
      <g>
       <use style="stroke:#000000;stroke-width:0.8;" x="61.410938" xlink:href="#mc3ce260a5b" y="66.121228"/>
      </g>
     </g>
     <g id="text_12">
      <!-- 0.8 -->
      <g transform="translate(30.55625 71.820056)scale(0.15 -0.15)">
       <use xlink:href="#DejaVuSans-30"/>
       <use x="63.623047" xlink:href="#DejaVuSans-2e"/>
       <use x="95.410156" xlink:href="#DejaVuSans-38"/>
      </g>
     </g>
    </g>
    <g id="ytick_6">
     <g id="line2d_23">
      <path clip-path="url(#p1da729468f)" d="M 61.410938 12.898828 
L 418.530938 12.898828 
" style="fill:none;stroke:#b0b0b0;stroke-linecap:square;stroke-width:0.8;"/>
     </g>
     <g id="line2d_24">
      <g>
       <use style="stroke:#000000;stroke-width:0.8;" x="61.410938" xlink:href="#mc3ce260a5b" y="12.898828"/>
      </g>
     </g>
     <g id="text_13">
      <!-- 1.0 -->
      <g transform="translate(30.55625 18.597656)scale(0.15 -0.15)">
       <use xlink:href="#DejaVuSans-31"/>
       <use x="63.623047" xlink:href="#DejaVuSans-2e"/>
       <use x="95.410156" xlink:href="#DejaVuSans-30"/>
      </g>
     </g>
    </g>
    <g id="text_14">
     <!-- Survival -->
     <defs>
      <path d="M 53.515625 70.515625 
L 53.515625 60.890625 
Q 47.90625 63.578125 42.921875 64.890625 
Q 37.9375 66.21875 33.296875 66.21875 
Q 25.25 66.21875 20.875 63.09375 
Q 16.5 59.96875 16.5 54.203125 
Q 16.5 49.359375 19.40625 46.890625 
Q 22.3125 44.4375 30.421875 42.921875 
L 36.375 41.703125 
Q 47.40625 39.59375 52.65625 34.296875 
Q 57.90625 29 57.90625 20.125 
Q 57.90625 9.515625 50.796875 4.046875 
Q 43.703125 -1.421875 29.984375 -1.421875 
Q 24.8125 -1.421875 18.96875 -0.25 
Q 13.140625 0.921875 6.890625 3.21875 
L 6.890625 13.375 
Q 12.890625 10.015625 18.65625 8.296875 
Q 24.421875 6.59375 29.984375 6.59375 
Q 38.421875 6.59375 43.015625 9.90625 
Q 47.609375 13.234375 47.609375 19.390625 
Q 47.609375 24.75 44.3125 27.78125 
Q 41.015625 30.8125 33.5 32.328125 
L 27.484375 33.5 
Q 16.453125 35.6875 11.515625 40.375 
Q 6.59375 45.0625 6.59375 53.421875 
Q 6.59375 63.09375 13.40625 68.65625 
Q 20.21875 74.21875 32.171875 74.21875 
Q 37.3125 74.21875 42.625 73.28125 
Q 47.953125 72.359375 53.515625 70.515625 
z
" id="DejaVuSans-53"/>
      <path d="M 8.5 21.578125 
L 8.5 54.6875 
L 17.484375 54.6875 
L 17.484375 21.921875 
Q 17.484375 14.15625 20.5 10.265625 
Q 23.53125 6.390625 29.59375 6.390625 
Q 36.859375 6.390625 41.078125 11.03125 
Q 45.3125 15.671875 45.3125 23.6875 
L 45.3125 54.6875 
L 54.296875 54.6875 
L 54.296875 0 
L 45.3125 0 
L 45.3125 8.40625 
Q 42.046875 3.421875 37.71875 1 
Q 33.40625 -1.421875 27.6875 -1.421875 
Q 18.265625 -1.421875 13.375 4.4375 
Q 8.5 10.296875 8.5 21.578125 
z
M 31.109375 56 
z
" id="DejaVuSans-75"/>
      <path d="M 41.109375 46.296875 
Q 39.59375 47.171875 37.8125 47.578125 
Q 36.03125 48 33.890625 48 
Q 26.265625 48 22.1875 43.046875 
Q 18.109375 38.09375 18.109375 28.8125 
L 18.109375 0 
L 9.078125 0 
L 9.078125 54.6875 
L 18.109375 54.6875 
L 18.109375 46.1875 
Q 20.953125 51.171875 25.484375 53.578125 
Q 30.03125 56 36.53125 56 
Q 37.453125 56 38.578125 55.875 
Q 39.703125 55.765625 41.0625 55.515625 
z
" id="DejaVuSans-72"/>
      <path d="M 2.984375 54.6875 
L 12.5 54.6875 
L 29.59375 8.796875 
L 46.6875 54.6875 
L 56.203125 54.6875 
L 35.6875 0 
L 23.484375 0 
z
" id="DejaVuSans-76"/>
      <path d="M 34.28125 27.484375 
Q 23.390625 27.484375 19.1875 25 
Q 14.984375 22.515625 14.984375 16.5 
Q 14.984375 11.71875 18.140625 8.90625 
Q 21.296875 6.109375 26.703125 6.109375 
Q 34.1875 6.109375 38.703125 11.40625 
Q 43.21875 16.703125 43.21875 25.484375 
L 43.21875 27.484375 
z
M 52.203125 31.203125 
L 52.203125 0 
L 43.21875 0 
L 43.21875 8.296875 
Q 40.140625 3.328125 35.546875 0.953125 
Q 30.953125 -1.421875 24.3125 -1.421875 
Q 15.921875 -1.421875 10.953125 3.296875 
Q 6 8.015625 6 15.921875 
Q 6 25.140625 12.171875 29.828125 
Q 18.359375 34.515625 30.609375 34.515625 
L 43.21875 34.515625 
L 43.21875 35.40625 
Q 43.21875 41.609375 39.140625 45 
Q 35.0625 48.390625 27.6875 48.390625 
Q 23 48.390625 18.546875 47.265625 
Q 14.109375 46.140625 10.015625 43.890625 
L 10.015625 52.203125 
Q 14.9375 54.109375 19.578125 55.046875 
Q 24.21875 56 28.609375 56 
Q 40.484375 56 46.34375 49.84375 
Q 52.203125 43.703125 52.203125 31.203125 
z
" id="DejaVuSans-61"/>
      <path d="M 9.421875 75.984375 
L 18.40625 75.984375 
L 18.40625 0 
L 9.421875 0 
z
" id="DejaVuSans-6c"/>
     </defs>
     <g transform="translate(22.396875 186.273578)rotate(-90)scale(0.2 -0.2)">
      <use xlink:href="#DejaVuSans-53"/>
      <use x="63.476562" xlink:href="#DejaVuSans-75"/>
      <use x="126.855469" xlink:href="#DejaVuSans-72"/>
      <use x="167.96875" xlink:href="#DejaVuSans-76"/>
      <use x="227.148438" xlink:href="#DejaVuSans-69"/>
      <use x="254.931641" xlink:href="#DejaVuSans-76"/>
      <use x="314.111328" xlink:href="#DejaVuSans-61"/>
      <use x="375.390625" xlink:href="#DejaVuSans-6c"/>
     </g>
    </g>
   </g>
   <g id="LineCollection_1">
    <path clip-path="url(#p1da729468f)" d="M 61.410938 279.010828 
L 61.410938 277.828108 
" style="fill:none;stroke:#1f77b4;stroke-width:1.5;"/>
    <path clip-path="url(#p1da729468f)" d="M 69.913795 223.291573 
L 69.913795 208.792305 
" style="fill:none;stroke:#1f77b4;stroke-width:1.5;"/>
    <path clip-path="url(#p1da729468f)" d="M 78.416652 80.135688 
L 78.416652 64.91027 
" style="fill:none;stroke:#1f77b4;stroke-width:1.5;"/>
    <path clip-path="url(#p1da729468f)" d="M 86.919509 46.209127 
L 86.919509 35.551997 
" style="fill:none;stroke:#1f77b4;stroke-width:1.5;"/>
    <path clip-path="url(#p1da729468f)" d="M 95.422366 157.313684 
L 95.422366 140.139972 
" style="fill:none;stroke:#1f77b4;stroke-width:1.5;"/>
    <path clip-path="url(#p1da729468f)" d="M 103.925223 274.154652 
L 103.925223 268.213357 
" style="fill:none;stroke:#1f77b4;stroke-width:1.5;"/>
    <path clip-path="url(#p1da729468f)" d="M 112.42808 231.620047 
L 112.42808 218.025352 
" style="fill:none;stroke:#1f77b4;stroke-width:1.5;"/>
    <path clip-path="url(#p1da729468f)" d="M 120.930938 106.526666 
L 120.930938 90.006565 
" style="fill:none;stroke:#1f77b4;stroke-width:1.5;"/>
    <path clip-path="url(#p1da729468f)" d="M 129.433795 47.893253 
L 129.433795 36.911847 
" style="fill:none;stroke:#1f77b4;stroke-width:1.5;"/>
    <path clip-path="url(#p1da729468f)" d="M 137.936652 155.306702 
L 137.936652 137.759963 
" style="fill:none;stroke:#1f77b4;stroke-width:1.5;"/>
    <path clip-path="url(#p1da729468f)" d="M 146.439509 265.204699 
L 146.439509 256.314869 
" style="fill:none;stroke:#1f77b4;stroke-width:1.5;"/>
    <path clip-path="url(#p1da729468f)" d="M 154.942366 244.603448 
L 154.942366 231.631493 
" style="fill:none;stroke:#1f77b4;stroke-width:1.5;"/>
    <path clip-path="url(#p1da729468f)" d="M 163.445223 114.491977 
L 163.445223 98.031327 
" style="fill:none;stroke:#1f77b4;stroke-width:1.5;"/>
    <path clip-path="url(#p1da729468f)" d="M 171.94808 37.865832 
L 171.94808 28.787193 
" style="fill:none;stroke:#1f77b4;stroke-width:1.5;"/>
    <path clip-path="url(#p1da729468f)" d="M 180.450938 152.386103 
L 180.450938 134.955107 
" style="fill:none;stroke:#1f77b4;stroke-width:1.5;"/>
    <path clip-path="url(#p1da729468f)" d="M 188.953795 259.133198 
L 188.953795 249.199496 
" style="fill:none;stroke:#1f77b4;stroke-width:1.5;"/>
    <path clip-path="url(#p1da729468f)" d="M 197.456652 257.018719 
L 197.456652 246.386063 
" style="fill:none;stroke:#1f77b4;stroke-width:1.5;"/>
    <path clip-path="url(#p1da729468f)" d="M 205.959509 125.260711 
L 205.959509 108.033967 
" style="fill:none;stroke:#1f77b4;stroke-width:1.5;"/>
    <path clip-path="url(#p1da729468f)" d="M 214.462366 48.446071 
L 214.462366 36.909985 
" style="fill:none;stroke:#1f77b4;stroke-width:1.5;"/>
    <path clip-path="url(#p1da729468f)" d="M 222.965223 112.646022 
L 222.965223 95.73072 
" style="fill:none;stroke:#1f77b4;stroke-width:1.5;"/>
    <path clip-path="url(#p1da729468f)" d="M 231.46808 228.478179 
L 231.46808 213.790724 
" style="fill:none;stroke:#1f77b4;stroke-width:1.5;"/>
    <path clip-path="url(#p1da729468f)" d="M 239.970938 257.408808 
L 239.970938 246.671227 
" style="fill:none;stroke:#1f77b4;stroke-width:1.5;"/>
    <path clip-path="url(#p1da729468f)" d="M 248.473795 152.495417 
L 248.473795 134.597732 
" style="fill:none;stroke:#1f77b4;stroke-width:1.5;"/>
    <path clip-path="url(#p1da729468f)" d="M 256.976652 46.448476 
L 256.976652 35.89798 
" style="fill:none;stroke:#1f77b4;stroke-width:1.5;"/>
    <path clip-path="url(#p1da729468f)" d="M 265.479509 90.750202 
L 265.479509 75.168375 
" style="fill:none;stroke:#1f77b4;stroke-width:1.5;"/>
    <path clip-path="url(#p1da729468f)" d="M 273.982366 216.174146 
L 273.982366 200.621405 
" style="fill:none;stroke:#1f77b4;stroke-width:1.5;"/>
    <path clip-path="url(#p1da729468f)" d="M 282.485223 253.960456 
L 282.485223 242.262679 
" style="fill:none;stroke:#1f77b4;stroke-width:1.5;"/>
    <path clip-path="url(#p1da729468f)" d="M 290.98808 179.251198 
L 290.98808 161.895039 
" style="fill:none;stroke:#1f77b4;stroke-width:1.5;"/>
    <path clip-path="url(#p1da729468f)" d="M 299.490938 74.530696 
L 299.490938 60.290819 
" style="fill:none;stroke:#1f77b4;stroke-width:1.5;"/>
    <path clip-path="url(#p1da729468f)" d="M 307.993795 92.127523 
L 307.993795 76.315754 
" style="fill:none;stroke:#1f77b4;stroke-width:1.5;"/>
    <path clip-path="url(#p1da729468f)" d="M 316.496652 214.175533 
L 316.496652 198.371563 
" style="fill:none;stroke:#1f77b4;stroke-width:1.5;"/>
    <path clip-path="url(#p1da729468f)" d="M 324.999509 258.775721 
L 324.999509 248.388975 
" style="fill:none;stroke:#1f77b4;stroke-width:1.5;"/>
    <path clip-path="url(#p1da729468f)" d="M 333.502366 185.722453 
L 333.502366 168.073715 
" style="fill:none;stroke:#1f77b4;stroke-width:1.5;"/>
    <path clip-path="url(#p1da729468f)" d="M 342.005223 67.652155 
L 342.005223 54.177223 
" style="fill:none;stroke:#1f77b4;stroke-width:1.5;"/>
    <path clip-path="url(#p1da729468f)" d="M 350.50808 72.054685 
L 350.50808 58.703481 
" style="fill:none;stroke:#1f77b4;stroke-width:1.5;"/>
    <path clip-path="url(#p1da729468f)" d="M 359.010938 180.940234 
L 359.010938 163.966304 
" style="fill:none;stroke:#1f77b4;stroke-width:1.5;"/>
    <path clip-path="url(#p1da729468f)" d="M 367.513795 242.785629 
L 367.513795 229.43356 
" style="fill:none;stroke:#1f77b4;stroke-width:1.5;"/>
    <path clip-path="url(#p1da729468f)" d="M 376.016652 198.342675 
L 376.016652 181.003781 
" style="fill:none;stroke:#1f77b4;stroke-width:1.5;"/>
    <path clip-path="url(#p1da729468f)" d="M 384.519509 94.170723 
L 384.519509 78.718376 
" style="fill:none;stroke:#1f77b4;stroke-width:1.5;"/>
    <path clip-path="url(#p1da729468f)" d="M 393.022366 82.43563 
L 393.022366 67.047886 
" style="fill:none;stroke:#1f77b4;stroke-width:1.5;"/>
    <path clip-path="url(#p1da729468f)" d="M 401.525223 185.761045 
L 401.525223 168.555407 
" style="fill:none;stroke:#1f77b4;stroke-width:1.5;"/>
   </g>
   <g id="LineCollection_2">
    <path clip-path="url(#p1da729468f)" d="M 61.410938 274.780846 
L 61.410938 267.789145 
" style="fill:none;stroke:#d62728;stroke-width:1.5;"/>
    <path clip-path="url(#p1da729468f)" d="M 69.913795 237.845983 
L 69.913795 221.794873 
" style="fill:none;stroke:#d62728;stroke-width:1.5;"/>
    <path clip-path="url(#p1da729468f)" d="M 78.416652 137.513864 
L 78.416652 117.478521 
" style="fill:none;stroke:#d62728;stroke-width:1.5;"/>
    <path clip-path="url(#p1da729468f)" d="M 86.919509 88.584288 
L 86.919509 70.269368 
" style="fill:none;stroke:#d62728;stroke-width:1.5;"/>
    <path clip-path="url(#p1da729468f)" d="M 95.422366 109.242968 
L 95.422366 90.434688 
" style="fill:none;stroke:#d62728;stroke-width:1.5;"/>
    <path clip-path="url(#p1da729468f)" d="M 103.925223 198.010646 
L 103.925223 177.172154 
" style="fill:none;stroke:#d62728;stroke-width:1.5;"/>
    <path clip-path="url(#p1da729468f)" d="M 112.42808 191.843153 
L 112.42808 171.584103 
" style="fill:none;stroke:#d62728;stroke-width:1.5;"/>
    <path clip-path="url(#p1da729468f)" d="M 120.930938 149.052816 
L 120.930938 128.429082 
" style="fill:none;stroke:#d62728;stroke-width:1.5;"/>
    <path clip-path="url(#p1da729468f)" d="M 129.433795 133.181616 
L 129.433795 112.07204 
" style="fill:none;stroke:#d62728;stroke-width:1.5;"/>
    <path clip-path="url(#p1da729468f)" d="M 137.936652 134.606332 
L 137.936652 113.788155 
" style="fill:none;stroke:#d62728;stroke-width:1.5;"/>
    <path clip-path="url(#p1da729468f)" d="M 146.439509 167.368943 
L 146.439509 146.849504 
" style="fill:none;stroke:#d62728;stroke-width:1.5;"/>
    <path clip-path="url(#p1da729468f)" d="M 154.942366 194.092099 
L 154.942366 174.72854 
" style="fill:none;stroke:#d62728;stroke-width:1.5;"/>
    <path clip-path="url(#p1da729468f)" d="M 163.445223 180.209268 
L 163.445223 158.970283 
" style="fill:none;stroke:#d62728;stroke-width:1.5;"/>
    <path clip-path="url(#p1da729468f)" d="M 171.94808 132.151673 
L 171.94808 109.981638 
" style="fill:none;stroke:#d62728;stroke-width:1.5;"/>
    <path clip-path="url(#p1da729468f)" d="M 180.450938 139.536973 
L 180.450938 118.473066 
" style="fill:none;stroke:#d62728;stroke-width:1.5;"/>
    <path clip-path="url(#p1da729468f)" d="M 188.953795 157.155879 
L 188.953795 136.376412 
" style="fill:none;stroke:#d62728;stroke-width:1.5;"/>
   </g>
   <g id="line2d_25">
    <path clip-path="url(#p1da729468f)" d="M 61.410938 278.518987 
L 62.125178 278.518987 
L 62.482298 277.728048 
L 62.839418 276.493623 
L 63.553658 272.044299 
L 63.910778 271.333004 
L 64.982138 263.289468 
L 65.339258 258.591798 
L 65.696378 256.887578 
L 66.053498 251.584748 
L 66.410618 248.299943 
L 68.910458 213.780091 
L 74.624378 112.897313 
L 75.695738 95.869123 
L 76.409978 84.486959 
L 77.481338 69.798914 
L 77.838458 65.753616 
L 78.552698 55.280966 
L 79.266938 48.65101 
L 79.981178 41.448282 
L 80.695418 36.22158 
L 81.052538 34.705363 
L 81.409658 32.231464 
L 81.766778 30.839304 
L 82.123898 28.343137 
L 82.481018 28.524206 
L 82.838138 26.696269 
L 83.195258 26.696269 
L 83.552378 27.289858 
L 83.909498 28.452815 
L 84.266618 26.696269 
L 85.337978 33.317237 
L 85.695098 34.119559 
L 86.766458 42.480775 
L 87.480698 48.898121 
L 87.837818 52.038058 
L 90.337658 84.338655 
L 91.766138 108.201962 
L 92.480378 118.845295 
L 93.194618 132.537964 
L 93.551738 137.561433 
L 94.623098 158.544825 
L 95.337338 170.094765 
L 96.408698 189.357025 
L 97.837178 211.837236 
L 98.908538 227.813923 
L 99.979898 242.518469 
L 100.337018 245.96957 
L 100.694138 250.887859 
L 102.836858 269.314933 
L 103.193978 270.198959 
L 103.551098 273.243808 
L 103.908218 272.711403 
L 104.265338 275.37916 
L 104.622458 276.691051 
L 105.336698 275.925817 
L 105.693818 276.652764 
L 106.050938 274.845724 
L 106.408058 274.742216 
L 107.122298 272.901512 
L 107.479418 271.435148 
L 108.193658 265.978616 
L 108.550778 262.462632 
L 108.907898 260.95964 
L 111.050618 236.980503 
L 112.479098 217.684113 
L 119.978618 91.213372 
L 120.335738 86.761128 
L 120.692858 80.406297 
L 121.407098 71.018193 
L 122.121338 61.73323 
L 122.835578 54.786092 
L 123.549818 48.02384 
L 124.621178 39.051494 
L 124.978298 37.595175 
L 125.335418 34.989487 
L 126.049658 32.819812 
L 127.121018 31.363239 
L 127.478138 30.054773 
L 127.835258 31.461972 
L 128.192378 32.016327 
L 128.906618 34.86669 
L 129.977978 40.114192 
L 130.692218 46.085968 
L 131.049338 50.086139 
L 131.406458 50.999273 
L 131.763578 56.485782 
L 132.120698 59.527826 
L 132.477818 64.759484 
L 133.192058 72.000518 
L 134.263418 88.387326 
L 134.620538 92.733659 
L 135.334778 104.111135 
L 136.406138 121.750143 
L 136.763258 126.734061 
L 137.834618 146.010743 
L 138.905978 164.722977 
L 139.263098 169.905493 
L 139.620218 178.005509 
L 140.334458 188.658248 
L 141.405818 205.834683 
L 143.548538 236.523236 
L 143.905658 239.721537 
L 144.619898 249.132139 
L 144.977018 251.584748 
L 146.048378 261.076933 
L 147.476858 269.314933 
L 148.191098 271.537292 
L 148.548218 273.194006 
L 148.905338 273.243808 
L 149.262458 272.736951 
L 149.619578 272.474434 
L 150.333818 271.128113 
L 150.690938 269.479503 
L 151.048058 268.811783 
L 151.405178 265.962431 
L 151.762298 264.968138 
L 152.833658 255.975785 
L 153.905018 245.405553 
L 156.047738 219.398746 
L 156.761978 208.449305 
L 157.833338 191.289458 
L 158.190458 186.748434 
L 159.261818 167.916066 
L 160.333178 150.487506 
L 161.761658 125.729672 
L 163.190138 102.993782 
L 163.904378 92.660896 
L 166.047098 64.469836 
L 166.404218 61.657913 
L 167.118458 54.013441 
L 168.189818 45.678745 
L 168.546938 44.092748 
L 168.904058 41.642247 
L 169.261178 40.323076 
L 169.618298 38.364981 
L 169.975418 37.651789 
L 170.689658 35.415598 
L 171.046778 36.038605 
L 171.761018 36.195595 
L 172.118138 37.885363 
L 172.475258 38.946644 
L 172.832378 40.59701 
L 173.189498 41.150904 
L 173.903738 46.907998 
L 174.260858 48.277039 
L 174.975098 54.184873 
L 175.689338 62.079221 
L 176.046458 64.57172 
L 176.760698 72.464678 
L 177.117818 78.342643 
L 177.832058 86.249644 
L 178.546298 98.684879 
L 178.903418 102.960388 
L 179.974778 120.890936 
L 180.689018 131.26831 
L 185.688698 211.96132 
L 187.474298 234.42391 
L 188.545658 245.863768 
L 189.617018 255.642523 
L 189.974138 257.077477 
L 190.331258 260.300531 
L 191.402618 265.453169 
L 191.759738 266.394669 
L 192.116858 267.761143 
L 192.473978 267.714123 
L 192.831098 267.831674 
L 193.188218 268.309571 
L 193.545338 267.620081 
L 193.902458 266.415678 
L 194.259578 266.01976 
L 194.616698 263.590643 
L 194.973818 262.834901 
L 195.688058 258.843096 
L 196.759418 250.775877 
L 197.473658 243.615924 
L 197.830778 241.378551 
L 199.973498 214.932485 
L 200.687738 203.138228 
L 201.401978 193.907081 
L 202.473338 175.826635 
L 203.187578 165.845146 
L 204.616058 141.562156 
L 206.401658 114.246071 
L 206.758778 107.326033 
L 208.901498 79.755309 
L 209.258618 76.105039 
L 209.615738 70.344172 
L 211.401338 54.327397 
L 212.115578 48.836162 
L 212.472698 47.99852 
L 213.186938 43.158527 
L 213.544058 43.190381 
L 214.615418 41.60698 
L 214.972538 41.27658 
L 215.329658 41.536448 
L 215.686778 41.961201 
L 216.401018 45.531631 
L 216.758138 46.113784 
L 217.115258 48.435142 
L 217.472378 49.141943 
L 218.186618 54.745786 
L 218.900858 60.745357 
L 219.257978 64.532534 
L 219.615098 66.152769 
L 220.329338 76.187861 
L 221.043578 83.746548 
L 221.400698 89.391269 
L 221.757818 93.035108 
L 223.543418 119.946231 
L 223.900538 124.592904 
L 224.614778 136.475583 
L 225.686138 153.587076 
L 227.114618 175.574498 
L 227.471738 180.321438 
L 228.185978 191.871107 
L 228.543098 197.991219 
L 228.900218 202.049734 
L 229.971578 218.16903 
L 232.114298 241.330769 
L 232.828538 247.900279 
L 233.542778 253.508282 
L 234.971258 260.447914 
L 235.328378 261.413898 
L 235.685498 263.117854 
L 236.042618 263.445382 
L 236.399738 263.032728 
L 236.756858 264.281312 
L 237.113978 263.032728 
L 237.471098 262.361575 
L 238.542458 259.536511 
L 239.613818 253.530473 
L 240.328058 247.104867 
L 240.685178 245.643346 
L 241.399418 237.517564 
L 241.756538 235.165232 
L 242.827898 221.963794 
L 244.613498 198.815494 
L 245.327738 187.384511 
L 251.041658 100.123873 
L 252.470138 83.211038 
L 253.184378 74.510155 
L 254.969978 57.927521 
L 255.327098 56.265275 
L 255.684218 53.526562 
L 256.041338 52.10389 
L 256.755578 48.597638 
L 257.112698 47.678801 
L 257.469818 46.276156 
L 257.826938 45.763385 
L 258.541178 47.079619 
L 258.898298 46.113784 
L 259.255418 46.127692 
L 259.969658 48.327678 
L 260.326778 49.178516 
L 262.826618 66.860078 
L 264.612218 85.721127 
L 264.969338 91.998881 
L 266.397818 109.340186 
L 268.183418 137.458994 
L 268.540538 141.5459 
L 270.683258 175.199494 
L 274.254458 224.290738 
L 275.325818 235.374021 
L 275.682938 237.775492 
L 276.397178 245.335642 
L 276.754298 248.093041 
L 277.111418 249.547546 
L 277.825658 254.386977 
L 278.182778 255.399498 
L 278.539898 256.892612 
L 278.897018 259.494191 
L 279.254138 259.508298 
L 279.968378 260.285793 
L 280.325498 260.169062 
L 280.682618 259.926914 
L 281.039738 259.508298 
L 281.396858 259.451871 
L 281.753978 256.780115 
L 282.111098 255.77499 
L 282.825338 252.472221 
L 283.539578 248.469916 
L 285.325178 232.818215 
L 286.039418 223.164366 
L 287.110778 211.112151 
L 287.825018 202.278721 
L 289.967738 170.333413 
L 291.396218 149.515591 
L 291.753338 142.80975 
L 292.467578 132.783078 
L 294.610298 101.40182 
L 294.967418 97.927606 
L 296.395898 80.122611 
L 297.467258 69.749539 
L 298.181498 63.500377 
L 298.538618 60.285867 
L 298.895738 58.279721 
L 299.252858 57.056383 
L 299.967098 52.732302 
L 300.324218 52.209945 
L 300.681338 50.015605 
L 301.038458 49.64812 
L 301.395578 48.946886 
L 301.752698 49.428224 
L 302.109818 48.897879 
L 302.466938 49.404139 
L 302.824058 49.416181 
L 303.538298 51.357144 
L 304.609658 57.380189 
L 304.966778 58.3069 
L 306.038138 67.140963 
L 306.395258 69.451835 
L 307.109498 77.576204 
L 307.823738 84.384803 
L 308.895098 97.813472 
L 309.609338 107.205492 
L 311.394938 133.059911 
L 312.466298 149.556063 
L 312.823418 152.966356 
L 313.537658 165.257538 
L 316.394618 206.021375 
L 318.180218 227.938923 
L 319.965818 244.316668 
L 320.322938 246.13452 
L 321.394298 253.652521 
L 322.108538 256.231797 
L 322.465658 257.128117 
L 322.822778 258.497109 
L 323.179898 258.030306 
L 323.537018 257.938142 
L 323.894138 259.073656 
L 324.251258 257.924976 
L 324.608378 258.925385 
L 324.965498 256.963538 
L 325.679738 254.85243 
L 326.036858 252.907648 
L 326.393978 251.730272 
L 326.751098 248.083636 
L 327.465338 244.452873 
L 330.322298 214.070534 
L 331.036538 205.546744 
L 331.750778 195.39354 
L 332.107898 191.089288 
L 333.179258 174.857825 
L 333.893498 163.941632 
L 335.679098 139.035499 
L 336.393338 125.457503 
L 336.750458 122.537787 
L 337.107578 116.442896 
L 337.821818 107.722206 
L 338.893178 92.946752 
L 340.321658 77.022961 
L 341.035898 70.176087 
L 343.178618 55.409339 
L 343.535738 53.344479 
L 344.607098 50.327974 
L 344.964218 50.444148 
L 345.321338 50.121407 
L 345.678458 50.050872 
L 346.392698 51.192229 
L 346.749818 51.101426 
L 347.106938 53.105391 
L 347.464058 54.116304 
L 348.178298 58.261602 
L 348.535418 59.589544 
L 349.249658 65.106325 
L 349.606778 67.623999 
L 352.463738 98.650316 
L 353.535098 114.183795 
L 353.892218 117.323882 
L 354.606458 128.957633 
L 356.749178 160.795051 
L 359.963258 207.233064 
L 360.320378 210.391948 
L 360.677498 216.383011 
L 361.034618 219.372887 
L 362.105978 231.859402 
L 363.534458 244.787809 
L 365.320058 255.140873 
L 365.677178 256.792614 
L 366.034298 257.064817 
L 366.391418 258.632379 
L 366.748538 258.952815 
L 367.105658 258.148803 
L 367.462778 258.774521 
L 367.819898 257.990807 
L 368.177018 258.28057 
L 368.534138 256.950878 
L 369.248378 255.376779 
L 369.605498 252.788282 
L 369.962618 251.740667 
L 370.319738 248.046018 
L 370.676858 246.890237 
L 372.462458 230.386217 
L 373.176698 222.604115 
L 374.962298 200.496997 
L 376.033658 186.261205 
L 376.747898 174.774491 
L 377.462138 165.392198 
L 378.176378 153.643505 
L 378.890618 142.830069 
L 381.033338 112.312835 
L 381.747578 102.077028 
L 382.461818 92.469121 
L 383.176058 84.910068 
L 383.890298 76.941194 
L 384.961658 66.87504 
L 385.675898 62.120366 
L 387.104378 52.646434 
L 387.461498 52.528365 
L 387.818618 51.033324 
L 388.175738 50.621597 
L 388.889978 49.343927 
L 389.247098 49.731401 
L 389.604218 50.598632 
L 389.961338 50.144918 
L 390.318458 51.379587 
L 390.675578 51.93931 
L 391.032698 54.136876 
L 391.389818 55.046003 
L 392.461178 61.708124 
L 393.532538 69.756592 
L 394.961018 85.135783 
L 396.032378 98.48244 
L 398.175098 128.212817 
L 398.889338 138.909 
L 399.603578 149.224195 
L 401.389178 177.139863 
L 404.603258 221.65243 
L 404.960378 224.904717 
L 405.317498 229.32046 
L 406.031738 235.486878 
L 407.103098 245.643346 
L 407.460218 248.450926 
L 407.817338 250.13933 
L 408.174458 253.936661 
L 408.531578 254.582177 
L 408.888698 255.46006 
L 409.602938 259.296185 
L 410.317178 260.645446 
L 410.674298 260.359484 
L 411.031418 260.565821 
L 411.388538 259.437764 
L 411.745658 259.171012 
L 412.459898 258.043473 
L 413.531258 253.858112 
L 414.245498 248.488906 
L 414.602618 246.330239 
L 414.959738 242.45318 
L 415.316858 241.055503 
L 415.673978 235.950948 
L 416.388218 228.727441 
L 417.102458 220.699921 
L 417.816698 212.35686 
L 418.530938 202.197622 
L 418.530938 202.197622 
" style="fill:none;stroke:#1f77b4;stroke-linecap:square;stroke-width:1.5;"/>
   </g>
   <g id="line2d_26">
    <path clip-path="url(#p1da729468f)" d="M 61.410938 278.50696 
L 62.771395 278.50696 
L 63.315578 275.85038 
L 63.587669 275.579325 
L 63.85976 273.543996 
L 64.131852 273.49583 
L 64.403943 272.19322 
L 64.676035 269.891945 
L 64.948126 268.69549 
L 65.220218 268.562389 
L 65.492309 264.699733 
L 65.7644 263.514944 
L 66.852766 254.448801 
L 67.124858 253.231566 
L 67.66904 247.989016 
L 68.213223 242.664693 
L 68.485315 240.802895 
L 69.029498 233.554495 
L 69.301589 230.468791 
L 69.57368 228.683055 
L 76.375966 141.452509 
L 76.920149 134.106821 
L 77.19224 132.112037 
L 77.464332 127.982917 
L 77.736423 125.648518 
L 78.280606 119.429841 
L 78.824789 113.1646 
L 79.09688 108.622898 
L 79.368972 106.860188 
L 81.545703 86.321162 
L 81.817795 84.831545 
L 82.361978 79.741966 
L 82.90616 77.617811 
L 83.178252 75.271608 
L 83.450343 74.161436 
L 83.722435 72.045165 
L 83.994526 71.373472 
L 84.266618 69.261688 
L 84.538709 68.537525 
L 84.8108 68.236459 
L 85.082892 66.680427 
L 85.354983 66.196519 
L 85.627075 64.690358 
L 85.899166 64.516794 
L 86.171258 64.755392 
L 86.443349 63.864216 
L 86.71544 64.087391 
L 87.803806 62.837639 
L 88.075898 64.683132 
L 88.347989 64.400346 
L 88.62008 65.134101 
L 88.892172 65.126927 
L 89.164263 67.074557 
L 89.436355 67.386365 
L 89.708446 67.415151 
L 89.980538 67.607845 
L 91.068903 73.295392 
L 91.340995 74.07401 
L 92.157269 78.936532 
L 92.42936 79.788479 
L 92.701452 82.56695 
L 92.973543 83.842808 
L 94.606092 95.553562 
L 94.878183 98.978047 
L 95.422366 103.127888 
L 98.687463 132.504054 
L 98.959555 136.160366 
L 99.231646 137.80567 
L 100.04792 145.996671 
L 100.320012 147.654464 
L 100.592103 150.660528 
L 100.864195 152.188336 
L 101.136286 155.864466 
L 101.408378 157.08343 
L 101.95256 161.94924 
L 102.224652 162.873108 
L 103.585109 174.657459 
L 104.401383 179.378018 
L 105.217658 184.416613 
L 105.489749 185.367824 
L 105.76184 187.8825 
L 106.306023 190.539332 
L 106.578115 191.253261 
L 106.850206 192.331068 
L 107.122298 193.870284 
L 107.394389 194.612988 
L 107.938572 197.08356 
L 108.210663 196.768612 
L 109.026938 200.074976 
L 109.299029 200.329111 
L 109.57112 200.939178 
L 109.843212 201.238745 
L 110.115303 200.573472 
L 110.387395 201.086506 
L 110.659486 201.292765 
L 110.931578 200.836048 
L 111.203669 201.372605 
L 111.47576 200.514825 
L 111.747852 200.61257 
L 112.019943 200.860603 
L 112.292035 199.836776 
L 112.564126 199.686 
L 112.836218 199.851367 
L 113.108309 197.9605 
L 113.3804 197.941231 
L 113.924583 195.703002 
L 114.196675 195.017536 
L 114.740858 194.221553 
L 115.012949 192.400677 
L 115.28504 191.655151 
L 115.557132 190.060745 
L 115.829223 189.253808 
L 118.005955 178.56695 
L 118.278046 176.883321 
L 118.550138 174.490919 
L 118.822229 173.453543 
L 119.09432 172.921418 
L 119.366412 170.404458 
L 119.638503 169.48742 
L 121.543143 156.469802 
L 121.815235 155.250839 
L 122.9036 148.133452 
L 123.175692 147.245672 
L 124.264058 140.677182 
L 124.536149 139.712414 
L 124.80824 138.134563 
L 125.080332 135.090185 
L 125.352423 134.064843 
L 125.624515 134.006075 
L 125.896606 131.273205 
L 126.168698 130.155588 
L 126.440789 130.32067 
L 126.71288 127.375559 
L 126.984972 126.816374 
L 127.529155 124.259782 
L 128.073338 122.344703 
L 128.345429 121.333661 
L 128.61752 121.038414 
L 128.889612 119.386046 
L 129.161703 118.440082 
L 129.433795 118.597743 
L 130.250069 115.391121 
L 130.52216 114.88426 
L 130.794252 114.688168 
L 131.066343 114.652515 
L 131.338435 115.142744 
L 131.610526 113.978995 
L 131.882618 113.723843 
L 132.154709 114.171478 
L 132.698892 112.683502 
L 132.970983 112.616058 
L 133.243075 113.692508 
L 133.515166 114.184907 
L 133.787258 113.124134 
L 134.059349 113.629839 
L 134.33144 113.517931 
L 134.603532 114.438597 
L 135.147715 114.189383 
L 135.419806 116.476693 
L 135.691898 117.068666 
L 135.963989 117.015653 
L 136.23608 118.256585 
L 136.508172 118.186209 
L 136.780263 119.145176 
L 137.052355 119.285318 
L 137.324446 121.416157 
L 137.596538 121.854686 
L 137.868629 122.560869 
L 138.14072 123.790546 
L 138.412812 124.096195 
L 138.684903 125.734252 
L 138.956995 126.419395 
L 139.229086 127.587606 
L 139.501178 129.520657 
L 139.773269 130.079396 
L 140.04536 131.349079 
L 140.317452 131.513474 
L 140.861635 134.119414 
L 141.133726 135.140349 
L 141.95 140.207834 
L 142.222092 140.63248 
L 143.582549 147.551233 
L 143.85464 148.240811 
L 144.126732 150.470585 
L 144.398823 151.535921 
L 144.670915 153.339472 
L 145.215098 154.421612 
L 145.487189 157.390243 
L 145.75928 157.862902 
L 146.031372 159.458446 
L 146.303463 159.674932 
L 147.936012 167.385113 
L 148.208103 167.305024 
L 148.480195 169.212284 
L 148.752286 169.508585 
L 149.296469 171.173826 
L 149.56856 171.641399 
L 149.840652 172.823241 
L 150.112743 172.699451 
L 150.656926 174.734948 
L 150.929018 175.565797 
L 151.201109 175.453869 
L 151.4732 176.429373 
L 151.745292 176.779561 
L 152.017383 177.838753 
L 152.289475 177.317729 
L 153.105749 178.784979 
L 153.37784 178.442273 
L 153.649932 178.64544 
L 153.922023 179.155629 
L 154.194115 179.068417 
L 154.466206 179.621152 
L 154.738298 179.404182 
L 155.010389 178.619277 
L 155.28248 179.212316 
L 155.554572 178.164393 
L 155.826663 178.815503 
L 156.098755 179.09458 
L 156.370846 177.304703 
L 156.642938 176.576365 
L 156.915029 177.174447 
L 157.18712 176.096478 
L 157.459212 176.096478 
L 157.731303 175.845617 
L 158.003395 174.310879 
L 158.275486 174.478059 
L 158.547578 174.177992 
L 158.819669 174.173705 
L 159.09176 172.204295 
L 159.363852 172.503096 
L 159.908035 170.315194 
L 160.180126 170.136667 
L 160.452218 168.496929 
L 160.9964 166.832918 
L 161.540583 165.11975 
L 161.812675 163.286967 
L 162.084766 162.563759 
L 162.356858 162.68081 
L 162.628949 160.790669 
L 162.90104 160.728221 
L 163.173132 158.314831 
L 163.445223 157.249275 
L 163.717315 157.095868 
L 164.261498 154.17699 
L 164.533589 154.317959 
L 164.80568 152.493898 
L 165.077772 152.279179 
L 165.349863 151.180809 
L 165.621955 148.913873 
L 165.894046 147.737048 
L 166.166138 147.637947 
L 166.438229 146.1791 
L 166.71032 145.84741 
L 167.254503 143.2851 
L 167.798686 141.174718 
L 168.070778 140.892781 
L 168.342869 140.099591 
L 168.61496 138.076278 
L 168.887052 137.859792 
L 169.159143 138.147052 
L 169.431235 136.285778 
L 169.703326 136.310861 
L 170.247509 133.330238 
L 170.5196 132.280646 
L 170.791692 132.889475 
L 171.063783 131.690513 
L 171.335875 131.134103 
L 171.607966 129.816958 
L 171.880058 130.354532 
L 172.152149 129.98204 
L 172.42424 128.331471 
L 172.696332 128.8458 
L 172.968423 128.616265 
L 173.240515 127.651366 
L 173.784698 127.685371 
L 174.056789 126.88894 
L 174.32888 126.573064 
L 174.600972 125.937044 
L 174.873063 126.479155 
L 175.417246 125.378457 
L 175.689338 125.644231 
L 175.961429 125.729965 
L 176.23352 127.140787 
L 176.505612 125.511344 
L 176.777703 126.048028 
L 177.049795 126.910283 
L 177.593978 126.103519 
L 177.866069 127.256039 
L 178.13816 126.9487 
L 178.410252 127.025535 
L 178.954435 128.688526 
L 179.226526 129.309013 
L 179.498618 129.52489 
L 179.770709 130.532313 
L 180.0428 129.846588 
L 180.586983 132.019302 
L 181.94744 135.395354 
L 182.219532 136.728901 
L 182.491623 136.218892 
L 182.763715 137.447636 
L 183.035806 137.868118 
L 183.307898 139.570865 
L 183.579989 139.608334 
L 183.85208 141.199595 
L 184.124172 141.506409 
L 184.396263 143.376315 
L 184.668355 143.770197 
L 184.940446 144.487478 
L 185.212538 144.8399 
L 185.75672 147.121795 
L 186.028812 149.112075 
L 186.300903 149.227693 
L 187.389269 153.40581 
L 187.933452 153.343618 
L 188.477635 156.710278 
L 189.021818 158.314831 
L 189.293909 159.445957 
L 189.566 158.530054 
L 189.838092 161.34021 
L 190.110183 160.207821 
L 190.382275 161.502575 
L 190.654366 161.807107 
L 191.198549 164.460704 
L 191.742732 165.174321 
L 192.014823 166.143999 
L 192.286915 166.676954 
L 192.559006 166.390318 
L 193.103189 167.882511 
L 193.37528 167.869865 
L 193.647372 168.51386 
L 193.919463 169.567845 
L 194.191555 168.954079 
L 194.463646 170.633993 
L 194.735738 170.493722 
L 195.007829 170.085659 
L 195.27992 170.489471 
L 195.552012 171.607393 
L 195.824103 171.496876 
L 196.096195 170.829523 
L 196.640378 172.857389 
L 196.912469 171.594641 
L 197.18456 171.768899 
L 197.456652 172.187221 
L 197.456652 172.187221 
" style="fill:none;stroke:#d62728;stroke-linecap:square;stroke-width:1.5;"/>
   </g>
   <g id="line2d_27">
    <defs>
     <path d="M -3 3 
L 3 3 
L 3 -3 
L -3 -3 
z
" id="m9e0ac68bfd" style="stroke:#1f77b4;stroke-linejoin:miter;"/>
    </defs>
    <g clip-path="url(#p1da729468f)">
     <use style="fill:#1f77b4;stroke:#1f77b4;stroke-linejoin:miter;" x="61.410938" xlink:href="#m9e0ac68bfd" y="278.419468"/>
     <use style="fill:#1f77b4;stroke:#1f77b4;stroke-linejoin:miter;" x="69.913795" xlink:href="#m9e0ac68bfd" y="216.041939"/>
     <use style="fill:#1f77b4;stroke:#1f77b4;stroke-linejoin:miter;" x="78.416652" xlink:href="#m9e0ac68bfd" y="72.522979"/>
     <use style="fill:#1f77b4;stroke:#1f77b4;stroke-linejoin:miter;" x="86.919509" xlink:href="#m9e0ac68bfd" y="40.880562"/>
     <use style="fill:#1f77b4;stroke:#1f77b4;stroke-linejoin:miter;" x="95.422366" xlink:href="#m9e0ac68bfd" y="148.726828"/>
     <use style="fill:#1f77b4;stroke:#1f77b4;stroke-linejoin:miter;" x="103.925223" xlink:href="#m9e0ac68bfd" y="271.184005"/>
     <use style="fill:#1f77b4;stroke:#1f77b4;stroke-linejoin:miter;" x="112.42808" xlink:href="#m9e0ac68bfd" y="224.822699"/>
     <use style="fill:#1f77b4;stroke:#1f77b4;stroke-linejoin:miter;" x="120.930938" xlink:href="#m9e0ac68bfd" y="98.266616"/>
     <use style="fill:#1f77b4;stroke:#1f77b4;stroke-linejoin:miter;" x="129.433795" xlink:href="#m9e0ac68bfd" y="42.40255"/>
     <use style="fill:#1f77b4;stroke:#1f77b4;stroke-linejoin:miter;" x="137.936652" xlink:href="#m9e0ac68bfd" y="146.533332"/>
     <use style="fill:#1f77b4;stroke:#1f77b4;stroke-linejoin:miter;" x="146.439509" xlink:href="#m9e0ac68bfd" y="260.759784"/>
     <use style="fill:#1f77b4;stroke:#1f77b4;stroke-linejoin:miter;" x="154.942366" xlink:href="#m9e0ac68bfd" y="238.11747"/>
     <use style="fill:#1f77b4;stroke:#1f77b4;stroke-linejoin:miter;" x="163.445223" xlink:href="#m9e0ac68bfd" y="106.261652"/>
     <use style="fill:#1f77b4;stroke:#1f77b4;stroke-linejoin:miter;" x="171.94808" xlink:href="#m9e0ac68bfd" y="33.326513"/>
     <use style="fill:#1f77b4;stroke:#1f77b4;stroke-linejoin:miter;" x="180.450938" xlink:href="#m9e0ac68bfd" y="143.670605"/>
     <use style="fill:#1f77b4;stroke:#1f77b4;stroke-linejoin:miter;" x="188.953795" xlink:href="#m9e0ac68bfd" y="254.166347"/>
     <use style="fill:#1f77b4;stroke:#1f77b4;stroke-linejoin:miter;" x="197.456652" xlink:href="#m9e0ac68bfd" y="251.702391"/>
     <use style="fill:#1f77b4;stroke:#1f77b4;stroke-linejoin:miter;" x="205.959509" xlink:href="#m9e0ac68bfd" y="116.647339"/>
     <use style="fill:#1f77b4;stroke:#1f77b4;stroke-linejoin:miter;" x="214.462366" xlink:href="#m9e0ac68bfd" y="42.678028"/>
     <use style="fill:#1f77b4;stroke:#1f77b4;stroke-linejoin:miter;" x="222.965223" xlink:href="#m9e0ac68bfd" y="104.188371"/>
     <use style="fill:#1f77b4;stroke:#1f77b4;stroke-linejoin:miter;" x="231.46808" xlink:href="#m9e0ac68bfd" y="221.134451"/>
     <use style="fill:#1f77b4;stroke:#1f77b4;stroke-linejoin:miter;" x="239.970938" xlink:href="#m9e0ac68bfd" y="252.040017"/>
     <use style="fill:#1f77b4;stroke:#1f77b4;stroke-linejoin:miter;" x="248.473795" xlink:href="#m9e0ac68bfd" y="143.546575"/>
     <use style="fill:#1f77b4;stroke:#1f77b4;stroke-linejoin:miter;" x="256.976652" xlink:href="#m9e0ac68bfd" y="41.173228"/>
     <use style="fill:#1f77b4;stroke:#1f77b4;stroke-linejoin:miter;" x="265.479509" xlink:href="#m9e0ac68bfd" y="82.959288"/>
     <use style="fill:#1f77b4;stroke:#1f77b4;stroke-linejoin:miter;" x="273.982366" xlink:href="#m9e0ac68bfd" y="208.397775"/>
     <use style="fill:#1f77b4;stroke:#1f77b4;stroke-linejoin:miter;" x="282.485223" xlink:href="#m9e0ac68bfd" y="248.111567"/>
     <use style="fill:#1f77b4;stroke:#1f77b4;stroke-linejoin:miter;" x="290.98808" xlink:href="#m9e0ac68bfd" y="170.573119"/>
     <use style="fill:#1f77b4;stroke:#1f77b4;stroke-linejoin:miter;" x="299.490938" xlink:href="#m9e0ac68bfd" y="67.410758"/>
     <use style="fill:#1f77b4;stroke:#1f77b4;stroke-linejoin:miter;" x="307.993795" xlink:href="#m9e0ac68bfd" y="84.221639"/>
     <use style="fill:#1f77b4;stroke:#1f77b4;stroke-linejoin:miter;" x="316.496652" xlink:href="#m9e0ac68bfd" y="206.273548"/>
     <use style="fill:#1f77b4;stroke:#1f77b4;stroke-linejoin:miter;" x="324.999509" xlink:href="#m9e0ac68bfd" y="253.582348"/>
     <use style="fill:#1f77b4;stroke:#1f77b4;stroke-linejoin:miter;" x="333.502366" xlink:href="#m9e0ac68bfd" y="176.898084"/>
     <use style="fill:#1f77b4;stroke:#1f77b4;stroke-linejoin:miter;" x="342.005223" xlink:href="#m9e0ac68bfd" y="60.914689"/>
     <use style="fill:#1f77b4;stroke:#1f77b4;stroke-linejoin:miter;" x="350.50808" xlink:href="#m9e0ac68bfd" y="65.379083"/>
     <use style="fill:#1f77b4;stroke:#1f77b4;stroke-linejoin:miter;" x="359.010938" xlink:href="#m9e0ac68bfd" y="172.453269"/>
     <use style="fill:#1f77b4;stroke:#1f77b4;stroke-linejoin:miter;" x="367.513795" xlink:href="#m9e0ac68bfd" y="236.109594"/>
     <use style="fill:#1f77b4;stroke:#1f77b4;stroke-linejoin:miter;" x="376.016652" xlink:href="#m9e0ac68bfd" y="189.673228"/>
     <use style="fill:#1f77b4;stroke:#1f77b4;stroke-linejoin:miter;" x="384.519509" xlink:href="#m9e0ac68bfd" y="86.44455"/>
     <use style="fill:#1f77b4;stroke:#1f77b4;stroke-linejoin:miter;" x="393.022366" xlink:href="#m9e0ac68bfd" y="74.741758"/>
     <use style="fill:#1f77b4;stroke:#1f77b4;stroke-linejoin:miter;" x="401.525223" xlink:href="#m9e0ac68bfd" y="177.158226"/>
    </g>
   </g>
   <g id="line2d_28">
    <defs>
     <path d="M 0 3 
C 0.795609 3 1.55874 2.683901 2.12132 2.12132 
C 2.683901 1.55874 3 0.795609 3 0 
C 3 -0.795609 2.683901 -1.55874 2.12132 -2.12132 
C 1.55874 -2.683901 0.795609 -3 0 -3 
C -0.795609 -3 -1.55874 -2.683901 -2.12132 -2.12132 
C -2.683901 -1.55874 -3 -0.795609 -3 0 
C -3 0.795609 -2.683901 1.55874 -2.12132 2.12132 
C -1.55874 2.683901 -0.795609 3 0 3 
z
" id="m4d17eb6f4c" style="stroke:#d62728;"/>
    </defs>
    <g clip-path="url(#p1da729468f)">
     <use style="fill:#d62728;stroke:#d62728;" x="61.410938" xlink:href="#m4d17eb6f4c" y="271.284996"/>
     <use style="fill:#d62728;stroke:#d62728;" x="69.913795" xlink:href="#m4d17eb6f4c" y="229.820428"/>
     <use style="fill:#d62728;stroke:#d62728;" x="78.416652" xlink:href="#m4d17eb6f4c" y="127.496192"/>
     <use style="fill:#d62728;stroke:#d62728;" x="86.919509" xlink:href="#m4d17eb6f4c" y="79.426828"/>
     <use style="fill:#d62728;stroke:#d62728;" x="95.422366" xlink:href="#m4d17eb6f4c" y="99.838828"/>
     <use style="fill:#d62728;stroke:#d62728;" x="103.925223" xlink:href="#m4d17eb6f4c" y="187.5914"/>
     <use style="fill:#d62728;stroke:#d62728;" x="112.42808" xlink:href="#m4d17eb6f4c" y="181.713628"/>
     <use style="fill:#d62728;stroke:#d62728;" x="120.930938" xlink:href="#m4d17eb6f4c" y="138.740949"/>
     <use style="fill:#d62728;stroke:#d62728;" x="129.433795" xlink:href="#m4d17eb6f4c" y="122.626828"/>
     <use style="fill:#d62728;stroke:#d62728;" x="137.936652" xlink:href="#m4d17eb6f4c" y="124.197243"/>
     <use style="fill:#d62728;stroke:#d62728;" x="146.439509" xlink:href="#m4d17eb6f4c" y="157.109223"/>
     <use style="fill:#d62728;stroke:#d62728;" x="154.942366" xlink:href="#m4d17eb6f4c" y="184.410319"/>
     <use style="fill:#d62728;stroke:#d62728;" x="163.445223" xlink:href="#m4d17eb6f4c" y="169.589775"/>
     <use style="fill:#d62728;stroke:#d62728;" x="171.94808" xlink:href="#m4d17eb6f4c" y="121.066655"/>
     <use style="fill:#d62728;stroke:#d62728;" x="180.450938" xlink:href="#m4d17eb6f4c" y="129.005019"/>
     <use style="fill:#d62728;stroke:#d62728;" x="188.953795" xlink:href="#m4d17eb6f4c" y="146.766145"/>
    </g>
   </g>
   <g id="patch_3">
    <path d="M 61.410938 279.010828 
L 61.410938 12.898828 
" style="fill:none;stroke:#000000;stroke-linecap:square;stroke-linejoin:miter;stroke-width:0.8;"/>
   </g>
   <g id="patch_4">
    <path d="M 418.530938 279.010828 
L 418.530938 12.898828 
" style="fill:none;stroke:#000000;stroke-linecap:square;stroke-linejoin:miter;stroke-width:0.8;"/>
   </g>
   <g id="patch_5">
    <path d="M 61.410938 279.010828 
L 418.530938 279.010828 
" style="fill:none;stroke:#000000;stroke-linecap:square;stroke-linejoin:miter;stroke-width:0.8;"/>
   </g>
   <g id="patch_6">
    <path d="M 61.410938 12.898828 
L 418.530938 12.898828 
" style="fill:none;stroke:#000000;stroke-linecap:square;stroke-linejoin:miter;stroke-width:0.8;"/>
   </g>
   <g id="text_15">
    <!-- (C) -->
    <defs>
     <path d="M 64.40625 67.28125 
L 64.40625 56.890625 
Q 59.421875 61.53125 53.78125 63.8125 
Q 48.140625 66.109375 41.796875 66.109375 
Q 29.296875 66.109375 22.65625 58.46875 
Q 16.015625 50.828125 16.015625 36.375 
Q 16.015625 21.96875 22.65625 14.328125 
Q 29.296875 6.6875 41.796875 6.6875 
Q 48.140625 6.6875 53.78125 8.984375 
Q 59.421875 11.28125 64.40625 15.921875 
L 64.40625 5.609375 
Q 59.234375 2.09375 53.4375 0.328125 
Q 47.65625 -1.421875 41.21875 -1.421875 
Q 24.65625 -1.421875 15.125 8.703125 
Q 5.609375 18.84375 5.609375 36.375 
Q 5.609375 53.953125 15.125 64.078125 
Q 24.65625 74.21875 41.21875 74.21875 
Q 47.75 74.21875 53.53125 72.484375 
Q 59.328125 70.75 64.40625 67.28125 
z
" id="DejaVuSans-43"/>
    </defs>
    <g transform="translate(381.118366 39.510028)scale(0.2 -0.2)">
     <use xlink:href="#DejaVuSans-28"/>
     <use x="39.013672" xlink:href="#DejaVuSans-43"/>
     <use x="108.837891" xlink:href="#DejaVuSans-29"/>
    </g>
   </g>
  </g>
 </g>
 <defs>
  <clipPath id="p1da729468f">
   <rect height="266.112" width="357.12" x="61.410938" y="12.898828"/>
  </clipPath>
 </defs>
</svg>
