<?xml version="1.0" encoding="utf-8" standalone="no"?>
<!DOCTYPE svg PUBLIC "-//W3C//DTD SVG 1.1//EN"
  "http://www.w3.org/Graphics/SVG/1.1/DTD/svg11.dtd">
<!-- Created with matplotlib (http://matplotlib.org/) -->
<svg height="331pt" version="1.1" viewBox="0 0 429 331" width="429pt" xmlns="http://www.w3.org/2000/svg" xmlns:xlink="http://www.w3.org/1999/xlink">
 <defs>
  <style type="text/css">
*{stroke-linecap:butt;stroke-linejoin:round;}
  </style>
 </defs>
 <g id="figure_1">
  <g id="patch_1">
   <path d="M 0 331.128016 
L 429.230937 331.128016 
L 429.230937 0 
L 0 0 
z
" style="fill:none;"/>
  </g>
  <g id="axes_1">
   <g id="patch_2">
    <path d="M 61.410938 279.010828 
L 418.530938 279.010828 
L 418.530938 12.898828 
L 61.410938 12.898828 
z
" style="fill:none;"/>
   </g>
   <g id="matplotlib.axis_1">
    <g id="xtick_1">
     <g id="line2d_1">
      <path clip-path="url(#p1da729468f)" d="M 61.410938 279.010828 
L 61.410938 12.898828 
" style="fill:none;stroke:#b0b0b0;stroke-linecap:square;stroke-width:0.8;"/>
     </g>
     <g id="line2d_2">
      <defs>
       <path d="M 0 0 
L 0 3.5 
" id="m005f0a59be" style="stroke:#000000;stroke-width:0.8;"/>
      </defs>
      <g>
       <use style="stroke:#000000;stroke-width:0.8;" x="61.410938" xlink:href="#m005f0a59be" y="279.010828"/>
      </g>
     </g>
     <g id="text_1">
      <!-- 0 -->
      <defs>
       <path d="M 31.78125 66.40625 
Q 24.171875 66.40625 20.328125 58.90625 
Q 16.5 51.421875 16.5 36.375 
Q 16.5 21.390625 20.328125 13.890625 
Q 24.171875 6.390625 31.78125 6.390625 
Q 39.453125 6.390625 43.28125 13.890625 
Q 47.125 21.390625 47.125 36.375 
Q 47.125 51.421875 43.28125 58.90625 
Q 39.453125 66.40625 31.78125 66.40625 
z
M 31.78125 74.21875 
Q 44.046875 74.21875 50.515625 64.515625 
Q 56.984375 54.828125 56.984375 36.375 
Q 56.984375 17.96875 50.515625 8.265625 
Q 44.046875 -1.421875 31.78125 -1.421875 
Q 19.53125 -1.421875 13.0625 8.265625 
Q 6.59375 17.96875 6.59375 36.375 
Q 6.59375 54.828125 13.0625 64.515625 
Q 19.53125 74.21875 31.78125 74.21875 
z
" id="DejaVuSans-30"/>
      </defs>
      <g transform="translate(56.639063 297.408484)scale(0.15 -0.15)">
       <use xlink:href="#DejaVuSans-30"/>
      </g>
     </g>
    </g>
    <g id="xtick_2">
     <g id="line2d_3">
      <path clip-path="url(#p1da729468f)" d="M 124.063569 279.010828 
L 124.063569 12.898828 
" style="fill:none;stroke:#b0b0b0;stroke-linecap:square;stroke-width:0.8;"/>
     </g>
     <g id="line2d_4">
      <g>
       <use style="stroke:#000000;stroke-width:0.8;" x="124.063569" xlink:href="#m005f0a59be" y="279.010828"/>
      </g>
     </g>
     <g id="text_2">
      <!-- 50 -->
      <defs>
       <path d="M 10.796875 72.90625 
L 49.515625 72.90625 
L 49.515625 64.59375 
L 19.828125 64.59375 
L 19.828125 46.734375 
Q 21.96875 47.46875 24.109375 47.828125 
Q 26.265625 48.1875 28.421875 48.1875 
Q 40.625 48.1875 47.75 41.5 
Q 54.890625 34.8125 54.890625 23.390625 
Q 54.890625 11.625 47.5625 5.09375 
Q 40.234375 -1.421875 26.90625 -1.421875 
Q 22.3125 -1.421875 17.546875 -0.640625 
Q 12.796875 0.140625 7.71875 1.703125 
L 7.71875 11.625 
Q 12.109375 9.234375 16.796875 8.0625 
Q 21.484375 6.890625 26.703125 6.890625 
Q 35.15625 6.890625 40.078125 11.328125 
Q 45.015625 15.765625 45.015625 23.390625 
Q 45.015625 31 40.078125 35.4375 
Q 35.15625 39.890625 26.703125 39.890625 
Q 22.75 39.890625 18.8125 39.015625 
Q 14.890625 38.140625 10.796875 36.28125 
z
" id="DejaVuSans-35"/>
      </defs>
      <g transform="translate(114.519819 297.408484)scale(0.15 -0.15)">
       <use xlink:href="#DejaVuSans-35"/>
       <use x="63.623047" xlink:href="#DejaVuSans-30"/>
      </g>
     </g>
    </g>
    <g id="xtick_3">
     <g id="line2d_5">
      <path clip-path="url(#p1da729468f)" d="M 186.716201 279.010828 
L 186.716201 12.898828 
" style="fill:none;stroke:#b0b0b0;stroke-linecap:square;stroke-width:0.8;"/>
     </g>
     <g id="line2d_6">
      <g>
       <use style="stroke:#000000;stroke-width:0.8;" x="186.716201" xlink:href="#m005f0a59be" y="279.010828"/>
      </g>
     </g>
     <g id="text_3">
      <!-- 100 -->
      <defs>
       <path d="M 12.40625 8.296875 
L 28.515625 8.296875 
L 28.515625 63.921875 
L 10.984375 60.40625 
L 10.984375 69.390625 
L 28.421875 72.90625 
L 38.28125 72.90625 
L 38.28125 8.296875 
L 54.390625 8.296875 
L 54.390625 0 
L 12.40625 0 
z
" id="DejaVuSans-31"/>
      </defs>
      <g transform="translate(172.400576 297.408484)scale(0.15 -0.15)">
       <use xlink:href="#DejaVuSans-31"/>
       <use x="63.623047" xlink:href="#DejaVuSans-30"/>
       <use x="127.246094" xlink:href="#DejaVuSans-30"/>
      </g>
     </g>
    </g>
    <g id="xtick_4">
     <g id="line2d_7">
      <path clip-path="url(#p1da729468f)" d="M 249.368832 279.010828 
L 249.368832 12.898828 
" style="fill:none;stroke:#b0b0b0;stroke-linecap:square;stroke-width:0.8;"/>
     </g>
     <g id="line2d_8">
      <g>
       <use style="stroke:#000000;stroke-width:0.8;" x="249.368832" xlink:href="#m005f0a59be" y="279.010828"/>
      </g>
     </g>
     <g id="text_4">
      <!-- 150 -->
      <g transform="translate(235.053207 297.408484)scale(0.15 -0.15)">
       <use xlink:href="#DejaVuSans-31"/>
       <use x="63.623047" xlink:href="#DejaVuSans-35"/>
       <use x="127.246094" xlink:href="#DejaVuSans-30"/>
      </g>
     </g>
    </g>
    <g id="xtick_5">
     <g id="line2d_9">
      <path clip-path="url(#p1da729468f)" d="M 312.021464 279.010828 
L 312.021464 12.898828 
" style="fill:none;stroke:#b0b0b0;stroke-linecap:square;stroke-width:0.8;"/>
     </g>
     <g id="line2d_10">
      <g>
       <use style="stroke:#000000;stroke-width:0.8;" x="312.021464" xlink:href="#m005f0a59be" y="279.010828"/>
      </g>
     </g>
     <g id="text_5">
      <!-- 200 -->
      <defs>
       <path d="M 19.1875 8.296875 
L 53.609375 8.296875 
L 53.609375 0 
L 7.328125 0 
L 7.328125 8.296875 
Q 12.9375 14.109375 22.625 23.890625 
Q 32.328125 33.6875 34.8125 36.53125 
Q 39.546875 41.84375 41.421875 45.53125 
Q 43.3125 49.21875 43.3125 52.78125 
Q 43.3125 58.59375 39.234375 62.25 
Q 35.15625 65.921875 28.609375 65.921875 
Q 23.96875 65.921875 18.8125 64.3125 
Q 13.671875 62.703125 7.8125 59.421875 
L 7.8125 69.390625 
Q 13.765625 71.78125 18.9375 73 
Q 24.125 74.21875 28.421875 74.21875 
Q 39.75 74.21875 46.484375 68.546875 
Q 53.21875 62.890625 53.21875 53.421875 
Q 53.21875 48.921875 51.53125 44.890625 
Q 49.859375 40.875 45.40625 35.40625 
Q 44.1875 33.984375 37.640625 27.21875 
Q 31.109375 20.453125 19.1875 8.296875 
z
" id="DejaVuSans-32"/>
      </defs>
      <g transform="translate(297.705839 297.408484)scale(0.15 -0.15)">
       <use xlink:href="#DejaVuSans-32"/>
       <use x="63.623047" xlink:href="#DejaVuSans-30"/>
       <use x="127.246094" xlink:href="#DejaVuSans-30"/>
      </g>
     </g>
    </g>
    <g id="xtick_6">
     <g id="line2d_11">
      <path clip-path="url(#p1da729468f)" d="M 374.674095 279.010828 
L 374.674095 12.898828 
" style="fill:none;stroke:#b0b0b0;stroke-linecap:square;stroke-width:0.8;"/>
     </g>
     <g id="line2d_12">
      <g>
       <use style="stroke:#000000;stroke-width:0.8;" x="374.674095" xlink:href="#m005f0a59be" y="279.010828"/>
      </g>
     </g>
     <g id="text_6">
      <!-- 250 -->
      <g transform="translate(360.35847 297.408484)scale(0.15 -0.15)">
       <use xlink:href="#DejaVuSans-32"/>
       <use x="63.623047" xlink:href="#DejaVuSans-35"/>
       <use x="127.246094" xlink:href="#DejaVuSans-30"/>
      </g>
     </g>
    </g>
    <g id="text_7">
     <!-- Time ($\mu s$) -->
     <defs>
      <path d="M -0.296875 72.90625 
L 61.375 72.90625 
L 61.375 64.59375 
L 35.5 64.59375 
L 35.5 0 
L 25.59375 0 
L 25.59375 64.59375 
L -0.296875 64.59375 
z
" id="DejaVuSans-54"/>
      <path d="M 9.421875 54.6875 
L 18.40625 54.6875 
L 18.40625 0 
L 9.421875 0 
z
M 9.421875 75.984375 
L 18.40625 75.984375 
L 18.40625 64.59375 
L 9.421875 64.59375 
z
" id="DejaVuSans-69"/>
      <path d="M 52 44.1875 
Q 55.375 50.25 60.0625 53.125 
Q 64.75 56 71.09375 56 
Q 79.640625 56 84.28125 50.015625 
Q 88.921875 44.046875 88.921875 33.015625 
L 88.921875 0 
L 79.890625 0 
L 79.890625 32.71875 
Q 79.890625 40.578125 77.09375 44.375 
Q 74.3125 48.1875 68.609375 48.1875 
Q 61.625 48.1875 57.5625 43.546875 
Q 53.515625 38.921875 53.515625 30.90625 
L 53.515625 0 
L 44.484375 0 
L 44.484375 32.71875 
Q 44.484375 40.625 41.703125 44.40625 
Q 38.921875 48.1875 33.109375 48.1875 
Q 26.21875 48.1875 22.15625 43.53125 
Q 18.109375 38.875 18.109375 30.90625 
L 18.109375 0 
L 9.078125 0 
L 9.078125 54.6875 
L 18.109375 54.6875 
L 18.109375 46.1875 
Q 21.1875 51.21875 25.484375 53.609375 
Q 29.78125 56 35.6875 56 
Q 41.65625 56 45.828125 52.96875 
Q 50 49.953125 52 44.1875 
z
" id="DejaVuSans-6d"/>
      <path d="M 56.203125 29.59375 
L 56.203125 25.203125 
L 14.890625 25.203125 
Q 15.484375 15.921875 20.484375 11.0625 
Q 25.484375 6.203125 34.421875 6.203125 
Q 39.59375 6.203125 44.453125 7.46875 
Q 49.3125 8.734375 54.109375 11.28125 
L 54.109375 2.78125 
Q 49.265625 0.734375 44.1875 -0.34375 
Q 39.109375 -1.421875 33.890625 -1.421875 
Q 20.796875 -1.421875 13.15625 6.1875 
Q 5.515625 13.8125 5.515625 26.8125 
Q 5.515625 40.234375 12.765625 48.109375 
Q 20.015625 56 32.328125 56 
Q 43.359375 56 49.78125 48.890625 
Q 56.203125 41.796875 56.203125 29.59375 
z
M 47.21875 32.234375 
Q 47.125 39.59375 43.09375 43.984375 
Q 39.0625 48.390625 32.421875 48.390625 
Q 24.90625 48.390625 20.390625 44.140625 
Q 15.875 39.890625 15.1875 32.171875 
z
" id="DejaVuSans-65"/>
      <path id="DejaVuSans-20"/>
      <path d="M 31 75.875 
Q 24.46875 64.65625 21.28125 53.65625 
Q 18.109375 42.671875 18.109375 31.390625 
Q 18.109375 20.125 21.3125 9.0625 
Q 24.515625 -2 31 -13.1875 
L 23.1875 -13.1875 
Q 15.875 -1.703125 12.234375 9.375 
Q 8.59375 20.453125 8.59375 31.390625 
Q 8.59375 42.28125 12.203125 53.3125 
Q 15.828125 64.359375 23.1875 75.875 
z
" id="DejaVuSans-28"/>
      <path d="M -1.3125 -20.796875 
L 13.375 54.6875 
L 22.40625 54.6875 
L 15.765625 20.65625 
Q 15.578125 19.625 15.421875 18.359375 
Q 15.28125 17.09375 15.28125 15.828125 
Q 15.28125 11.28125 18.140625 8.828125 
Q 21 6.390625 26.3125 6.390625 
Q 33.546875 6.390625 37.984375 10.484375 
Q 42.4375 14.59375 44 22.796875 
L 50.203125 54.6875 
L 59.1875 54.6875 
L 51.03125 12.640625 
Q 50.828125 11.71875 50.75 11.03125 
Q 50.6875 10.359375 50.6875 9.8125 
Q 50.6875 8.296875 51.296875 7.59375 
Q 51.90625 6.890625 53.21875 6.890625 
Q 53.71875 6.890625 54.5625 7.125 
Q 55.421875 7.375 56.984375 8.015625 
L 55.609375 0.78125 
Q 53.46875 -0.296875 51.515625 -0.859375 
Q 49.5625 -1.421875 47.703125 -1.421875 
Q 44.484375 -1.421875 42.65625 0.625 
Q 40.828125 2.6875 40.828125 6.296875 
Q 38.09375 2.390625 34.296875 0.484375 
Q 30.515625 -1.421875 25.390625 -1.421875 
Q 20.84375 -1.421875 17.453125 0.671875 
Q 14.0625 2.78125 12.984375 6.203125 
L 7.71875 -20.796875 
z
" id="DejaVuSans-Oblique-3bc"/>
      <path d="M 50 53.078125 
L 48.296875 44.578125 
Q 44.734375 46.53125 40.765625 47.5 
Q 36.8125 48.484375 32.625 48.484375 
Q 25.53125 48.484375 21.453125 46.0625 
Q 17.390625 43.65625 17.390625 39.5 
Q 17.390625 34.671875 26.859375 32.078125 
Q 27.59375 31.890625 27.9375 31.78125 
L 30.8125 30.90625 
Q 39.796875 28.421875 42.796875 25.6875 
Q 45.796875 22.953125 45.796875 18.21875 
Q 45.796875 9.515625 38.890625 4.046875 
Q 31.984375 -1.421875 20.796875 -1.421875 
Q 16.453125 -1.421875 11.671875 -0.578125 
Q 6.890625 0.25 1.125 2 
L 2.875 11.28125 
Q 7.8125 8.734375 12.59375 7.421875 
Q 17.390625 6.109375 21.78125 6.109375 
Q 28.375 6.109375 32.5 8.9375 
Q 36.625 11.765625 36.625 16.109375 
Q 36.625 20.796875 25.78125 23.6875 
L 24.859375 23.921875 
L 21.78125 24.703125 
Q 14.9375 26.515625 11.765625 29.46875 
Q 8.59375 32.421875 8.59375 37.015625 
Q 8.59375 45.75 15.15625 50.875 
Q 21.734375 56 33.015625 56 
Q 37.453125 56 41.671875 55.265625 
Q 45.90625 54.546875 50 53.078125 
z
" id="DejaVuSans-Oblique-73"/>
      <path d="M 8.015625 75.875 
L 15.828125 75.875 
Q 23.140625 64.359375 26.78125 53.3125 
Q 30.421875 42.28125 30.421875 31.390625 
Q 30.421875 20.453125 26.78125 9.375 
Q 23.140625 -1.703125 15.828125 -13.1875 
L 8.015625 -13.1875 
Q 14.5 -2 17.703125 9.0625 
Q 20.90625 20.125 20.90625 31.390625 
Q 20.90625 42.671875 17.703125 53.65625 
Q 14.5 64.65625 8.015625 75.875 
z
" id="DejaVuSans-29"/>
     </defs>
     <g transform="translate(192.570938 319.728016)scale(0.2 -0.2)">
      <use transform="translate(0 0.015625)" xlink:href="#DejaVuSans-54"/>
      <use transform="translate(61.083984 0.015625)" xlink:href="#DejaVuSans-69"/>
      <use transform="translate(88.867188 0.015625)" xlink:href="#DejaVuSans-6d"/>
      <use transform="translate(186.279297 0.015625)" xlink:href="#DejaVuSans-65"/>
      <use transform="translate(247.802734 0.015625)" xlink:href="#DejaVuSans-20"/>
      <use transform="translate(279.589844 0.015625)" xlink:href="#DejaVuSans-28"/>
      <use transform="translate(318.603516 0.015625)" xlink:href="#DejaVuSans-Oblique-3bc"/>
      <use transform="translate(382.226562 0.015625)" xlink:href="#DejaVuSans-Oblique-73"/>
      <use transform="translate(434.326172 0.015625)" xlink:href="#DejaVuSans-29"/>
     </g>
    </g>
   </g>
   <g id="matplotlib.axis_2">
    <g id="ytick_1">
     <g id="line2d_13">
      <path clip-path="url(#p1da729468f)" d="M 61.410938 279.010828 
L 418.530938 279.010828 
" style="fill:none;stroke:#b0b0b0;stroke-linecap:square;stroke-width:0.8;"/>
     </g>
     <g id="line2d_14">
      <defs>
       <path d="M 0 0 
L -3.5 0 
" id="mc3ce260a5b" style="stroke:#000000;stroke-width:0.8;"/>
      </defs>
      <g>
       <use style="stroke:#000000;stroke-width:0.8;" x="61.410938" xlink:href="#mc3ce260a5b" y="279.010828"/>
      </g>
     </g>
     <g id="text_8">
      <!-- 0.0 -->
      <defs>
       <path d="M 10.6875 12.40625 
L 21 12.40625 
L 21 0 
L 10.6875 0 
z
" id="DejaVuSans-2e"/>
      </defs>
      <g transform="translate(30.55625 284.709656)scale(0.15 -0.15)">
       <use xlink:href="#DejaVuSans-30"/>
       <use x="63.623047" xlink:href="#DejaVuSans-2e"/>
       <use x="95.410156" xlink:href="#DejaVuSans-30"/>
      </g>
     </g>
    </g>
    <g id="ytick_2">
     <g id="line2d_15">
      <path clip-path="url(#p1da729468f)" d="M 61.410938 225.788428 
L 418.530938 225.788428 
" style="fill:none;stroke:#b0b0b0;stroke-linecap:square;stroke-width:0.8;"/>
     </g>
     <g id="line2d_16">
      <g>
       <use style="stroke:#000000;stroke-width:0.8;" x="61.410938" xlink:href="#mc3ce260a5b" y="225.788428"/>
      </g>
     </g>
     <g id="text_9">
      <!-- 0.2 -->
      <g transform="translate(30.55625 231.487256)scale(0.15 -0.15)">
       <use xlink:href="#DejaVuSans-30"/>
       <use x="63.623047" xlink:href="#DejaVuSans-2e"/>
       <use x="95.410156" xlink:href="#DejaVuSans-32"/>
      </g>
     </g>
    </g>
    <g id="ytick_3">
     <g id="line2d_17">
      <path clip-path="url(#p1da729468f)" d="M 61.410938 172.566028 
L 418.530938 172.566028 
" style="fill:none;stroke:#b0b0b0;stroke-linecap:square;stroke-width:0.8;"/>
     </g>
     <g id="line2d_18">
      <g>
       <use style="stroke:#000000;stroke-width:0.8;" x="61.410938" xlink:href="#mc3ce260a5b" y="172.566028"/>
      </g>
     </g>
     <g id="text_10">
      <!-- 0.4 -->
      <defs>
       <path d="M 37.796875 64.3125 
L 12.890625 25.390625 
L 37.796875 25.390625 
z
M 35.203125 72.90625 
L 47.609375 72.90625 
L 47.609375 25.390625 
L 58.015625 25.390625 
L 58.015625 17.1875 
L 47.609375 17.1875 
L 47.609375 0 
L 37.796875 0 
L 37.796875 17.1875 
L 4.890625 17.1875 
L 4.890625 26.703125 
z
" id="DejaVuSans-34"/>
      </defs>
      <g transform="translate(30.55625 178.264856)scale(0.15 -0.15)">
       <use xlink:href="#DejaVuSans-30"/>
       <use x="63.623047" xlink:href="#DejaVuSans-2e"/>
       <use x="95.410156" xlink:href="#DejaVuSans-34"/>
      </g>
     </g>
    </g>
    <g id="ytick_4">
     <g id="line2d_19">
      <path clip-path="url(#p1da729468f)" d="M 61.410938 119.343628 
L 418.530938 119.343628 
" style="fill:none;stroke:#b0b0b0;stroke-linecap:square;stroke-width:0.8;"/>
     </g>
     <g id="line2d_20">
      <g>
       <use style="stroke:#000000;stroke-width:0.8;" x="61.410938" xlink:href="#mc3ce260a5b" y="119.343628"/>
      </g>
     </g>
     <g id="text_11">
      <!-- 0.6 -->
      <defs>
       <path d="M 33.015625 40.375 
Q 26.375 40.375 22.484375 35.828125 
Q 18.609375 31.296875 18.609375 23.390625 
Q 18.609375 15.53125 22.484375 10.953125 
Q 26.375 6.390625 33.015625 6.390625 
Q 39.65625 6.390625 43.53125 10.953125 
Q 47.40625 15.53125 47.40625 23.390625 
Q 47.40625 31.296875 43.53125 35.828125 
Q 39.65625 40.375 33.015625 40.375 
z
M 52.59375 71.296875 
L 52.59375 62.3125 
Q 48.875 64.0625 45.09375 64.984375 
Q 41.3125 65.921875 37.59375 65.921875 
Q 27.828125 65.921875 22.671875 59.328125 
Q 17.53125 52.734375 16.796875 39.40625 
Q 19.671875 43.65625 24.015625 45.921875 
Q 28.375 48.1875 33.59375 48.1875 
Q 44.578125 48.1875 50.953125 41.515625 
Q 57.328125 34.859375 57.328125 23.390625 
Q 57.328125 12.15625 50.6875 5.359375 
Q 44.046875 -1.421875 33.015625 -1.421875 
Q 20.359375 -1.421875 13.671875 8.265625 
Q 6.984375 17.96875 6.984375 36.375 
Q 6.984375 53.65625 15.1875 63.9375 
Q 23.390625 74.21875 37.203125 74.21875 
Q 40.921875 74.21875 44.703125 73.484375 
Q 48.484375 72.75 52.59375 71.296875 
z
" id="DejaVuSans-36"/>
      </defs>
      <g transform="translate(30.55625 125.042456)scale(0.15 -0.15)">
       <use xlink:href="#DejaVuSans-30"/>
       <use x="63.623047" xlink:href="#DejaVuSans-2e"/>
       <use x="95.410156" xlink:href="#DejaVuSans-36"/>
      </g>
     </g>
    </g>
    <g id="ytick_5">
     <g id="line2d_21">
      <path clip-path="url(#p1da729468f)" d="M 61.410938 66.121228 
L 418.530938 66.121228 
" style="fill:none;stroke:#b0b0b0;stroke-linecap:square;stroke-width:0.8;"/>
     </g>
     <g id="line2d_22">
      <g>
       <use style="stroke:#000000;stroke-width:0.8;" x="61.410938" xlink:href="#mc3ce260a5b" y="66.121228"/>
      </g>
     </g>
     <g id="text_12">
      <!-- 0.8 -->
      <defs>
       <path d="M 31.78125 34.625 
Q 24.75 34.625 20.71875 30.859375 
Q 16.703125 27.09375 16.703125 20.515625 
Q 16.703125 13.921875 20.71875 10.15625 
Q 24.75 6.390625 31.78125 6.390625 
Q 38.8125 6.390625 42.859375 10.171875 
Q 46.921875 13.96875 46.921875 20.515625 
Q 46.921875 27.09375 42.890625 30.859375 
Q 38.875 34.625 31.78125 34.625 
z
M 21.921875 38.8125 
Q 15.578125 40.375 12.03125 44.71875 
Q 8.5 49.078125 8.5 55.328125 
Q 8.5 64.0625 14.71875 69.140625 
Q 20.953125 74.21875 31.78125 74.21875 
Q 42.671875 74.21875 48.875 69.140625 
Q 55.078125 64.0625 55.078125 55.328125 
Q 55.078125 49.078125 51.53125 44.71875 
Q 48 40.375 41.703125 38.8125 
Q 48.828125 37.15625 52.796875 32.3125 
Q 56.78125 27.484375 56.78125 20.515625 
Q 56.78125 9.90625 50.3125 4.234375 
Q 43.84375 -1.421875 31.78125 -1.421875 
Q 19.734375 -1.421875 13.25 4.234375 
Q 6.78125 9.90625 6.78125 20.515625 
Q 6.78125 27.484375 10.78125 32.3125 
Q 14.796875 37.15625 21.921875 38.8125 
z
M 18.3125 54.390625 
Q 18.3125 48.734375 21.84375 45.5625 
Q 25.390625 42.390625 31.78125 42.390625 
Q 38.140625 42.390625 41.71875 45.5625 
Q 45.3125 48.734375 45.3125 54.390625 
Q 45.3125 60.0625 41.71875 63.234375 
Q 38.140625 66.40625 31.78125 66.40625 
Q 25.390625 66.40625 21.84375 63.234375 
Q 18.3125 60.0625 18.3125 54.390625 
z
" id="DejaVuSans-38"/>
      </defs>
      <g transform="translate(30.55625 71.820056)scale(0.15 -0.15)">
       <use xlink:href="#DejaVuSans-30"/>
       <use x="63.623047" xlink:href="#DejaVuSans-2e"/>
       <use x="95.410156" xlink:href="#DejaVuSans-38"/>
      </g>
     </g>
    </g>
    <g id="ytick_6">
     <g id="line2d_23">
      <path clip-path="url(#p1da729468f)" d="M 61.410938 12.898828 
L 418.530938 12.898828 
" style="fill:none;stroke:#b0b0b0;stroke-linecap:square;stroke-width:0.8;"/>
     </g>
     <g id="line2d_24">
      <g>
       <use style="stroke:#000000;stroke-width:0.8;" x="61.410938" xlink:href="#mc3ce260a5b" y="12.898828"/>
      </g>
     </g>
     <g id="text_13">
      <!-- 1.0 -->
      <g transform="translate(30.55625 18.597656)scale(0.15 -0.15)">
       <use xlink:href="#DejaVuSans-31"/>
       <use x="63.623047" xlink:href="#DejaVuSans-2e"/>
       <use x="95.410156" xlink:href="#DejaVuSans-30"/>
      </g>
     </g>
    </g>
    <g id="text_14">
     <!-- Survival -->
     <defs>
      <path d="M 53.515625 70.515625 
L 53.515625 60.890625 
Q 47.90625 63.578125 42.921875 64.890625 
Q 37.9375 66.21875 33.296875 66.21875 
Q 25.25 66.21875 20.875 63.09375 
Q 16.5 59.96875 16.5 54.203125 
Q 16.5 49.359375 19.40625 46.890625 
Q 22.3125 44.4375 30.421875 42.921875 
L 36.375 41.703125 
Q 47.40625 39.59375 52.65625 34.296875 
Q 57.90625 29 57.90625 20.125 
Q 57.90625 9.515625 50.796875 4.046875 
Q 43.703125 -1.421875 29.984375 -1.421875 
Q 24.8125 -1.421875 18.96875 -0.25 
Q 13.140625 0.921875 6.890625 3.21875 
L 6.890625 13.375 
Q 12.890625 10.015625 18.65625 8.296875 
Q 24.421875 6.59375 29.984375 6.59375 
Q 38.421875 6.59375 43.015625 9.90625 
Q 47.609375 13.234375 47.609375 19.390625 
Q 47.609375 24.75 44.3125 27.78125 
Q 41.015625 30.8125 33.5 32.328125 
L 27.484375 33.5 
Q 16.453125 35.6875 11.515625 40.375 
Q 6.59375 45.0625 6.59375 53.421875 
Q 6.59375 63.09375 13.40625 68.65625 
Q 20.21875 74.21875 32.171875 74.21875 
Q 37.3125 74.21875 42.625 73.28125 
Q 47.953125 72.359375 53.515625 70.515625 
z
" id="DejaVuSans-53"/>
      <path d="M 8.5 21.578125 
L 8.5 54.6875 
L 17.484375 54.6875 
L 17.484375 21.921875 
Q 17.484375 14.15625 20.5 10.265625 
Q 23.53125 6.390625 29.59375 6.390625 
Q 36.859375 6.390625 41.078125 11.03125 
Q 45.3125 15.671875 45.3125 23.6875 
L 45.3125 54.6875 
L 54.296875 54.6875 
L 54.296875 0 
L 45.3125 0 
L 45.3125 8.40625 
Q 42.046875 3.421875 37.71875 1 
Q 33.40625 -1.421875 27.6875 -1.421875 
Q 18.265625 -1.421875 13.375 4.4375 
Q 8.5 10.296875 8.5 21.578125 
z
M 31.109375 56 
z
" id="DejaVuSans-75"/>
      <path d="M 41.109375 46.296875 
Q 39.59375 47.171875 37.8125 47.578125 
Q 36.03125 48 33.890625 48 
Q 26.265625 48 22.1875 43.046875 
Q 18.109375 38.09375 18.109375 28.8125 
L 18.109375 0 
L 9.078125 0 
L 9.078125 54.6875 
L 18.109375 54.6875 
L 18.109375 46.1875 
Q 20.953125 51.171875 25.484375 53.578125 
Q 30.03125 56 36.53125 56 
Q 37.453125 56 38.578125 55.875 
Q 39.703125 55.765625 41.0625 55.515625 
z
" id="DejaVuSans-72"/>
      <path d="M 2.984375 54.6875 
L 12.5 54.6875 
L 29.59375 8.796875 
L 46.6875 54.6875 
L 56.203125 54.6875 
L 35.6875 0 
L 23.484375 0 
z
" id="DejaVuSans-76"/>
      <path d="M 34.28125 27.484375 
Q 23.390625 27.484375 19.1875 25 
Q 14.984375 22.515625 14.984375 16.5 
Q 14.984375 11.71875 18.140625 8.90625 
Q 21.296875 6.109375 26.703125 6.109375 
Q 34.1875 6.109375 38.703125 11.40625 
Q 43.21875 16.703125 43.21875 25.484375 
L 43.21875 27.484375 
z
M 52.203125 31.203125 
L 52.203125 0 
L 43.21875 0 
L 43.21875 8.296875 
Q 40.140625 3.328125 35.546875 0.953125 
Q 30.953125 -1.421875 24.3125 -1.421875 
Q 15.921875 -1.421875 10.953125 3.296875 
Q 6 8.015625 6 15.921875 
Q 6 25.140625 12.171875 29.828125 
Q 18.359375 34.515625 30.609375 34.515625 
L 43.21875 34.515625 
L 43.21875 35.40625 
Q 43.21875 41.609375 39.140625 45 
Q 35.0625 48.390625 27.6875 48.390625 
Q 23 48.390625 18.546875 47.265625 
Q 14.109375 46.140625 10.015625 43.890625 
L 10.015625 52.203125 
Q 14.9375 54.109375 19.578125 55.046875 
Q 24.21875 56 28.609375 56 
Q 40.484375 56 46.34375 49.84375 
Q 52.203125 43.703125 52.203125 31.203125 
z
" id="DejaVuSans-61"/>
      <path d="M 9.421875 75.984375 
L 18.40625 75.984375 
L 18.40625 0 
L 9.421875 0 
z
" id="DejaVuSans-6c"/>
     </defs>
     <g transform="translate(22.396875 186.273578)rotate(-90)scale(0.2 -0.2)">
      <use xlink:href="#DejaVuSans-53"/>
      <use x="63.476562" xlink:href="#DejaVuSans-75"/>
      <use x="126.855469" xlink:href="#DejaVuSans-72"/>
      <use x="167.96875" xlink:href="#DejaVuSans-76"/>
      <use x="227.148438" xlink:href="#DejaVuSans-69"/>
      <use x="254.931641" xlink:href="#DejaVuSans-76"/>
      <use x="314.111328" xlink:href="#DejaVuSans-61"/>
      <use x="375.390625" xlink:href="#DejaVuSans-6c"/>
     </g>
    </g>
   </g>
   <g id="LineCollection_1">
    <path clip-path="url(#p1da729468f)" d="M 61.410938 279.010828 
L 61.410938 277.828108 
" style="fill:none;stroke:#1f77b4;stroke-width:1.5;"/>
    <path clip-path="url(#p1da729468f)" d="M 70.182306 220.133296 
L 70.182306 205.379915 
" style="fill:none;stroke:#1f77b4;stroke-width:1.5;"/>
    <path clip-path="url(#p1da729468f)" d="M 78.953674 123.345403 
L 78.953674 105.949665 
" style="fill:none;stroke:#1f77b4;stroke-width:1.5;"/>
    <path clip-path="url(#p1da729468f)" d="M 87.725043 65.616799 
L 87.725043 52.596322 
" style="fill:none;stroke:#1f77b4;stroke-width:1.5;"/>
    <path clip-path="url(#p1da729468f)" d="M 96.496411 120.11301 
L 96.496411 103.269951 
" style="fill:none;stroke:#1f77b4;stroke-width:1.5;"/>
    <path clip-path="url(#p1da729468f)" d="M 105.26778 221.604747 
L 105.26778 206.743689 
" style="fill:none;stroke:#1f77b4;stroke-width:1.5;"/>
    <path clip-path="url(#p1da729468f)" d="M 114.039148 272.325449 
L 114.039148 265.678933 
" style="fill:none;stroke:#1f77b4;stroke-width:1.5;"/>
    <path clip-path="url(#p1da729468f)" d="M 122.810516 229.392238 
L 122.810516 214.402098 
" style="fill:none;stroke:#1f77b4;stroke-width:1.5;"/>
    <path clip-path="url(#p1da729468f)" d="M 131.581885 121.569266 
L 131.581885 104.921191 
" style="fill:none;stroke:#1f77b4;stroke-width:1.5;"/>
    <path clip-path="url(#p1da729468f)" d="M 140.353253 63.193491 
L 140.353253 50.584051 
" style="fill:none;stroke:#1f77b4;stroke-width:1.5;"/>
    <path clip-path="url(#p1da729468f)" d="M 149.124622 95.621413 
L 149.124622 79.717058 
" style="fill:none;stroke:#1f77b4;stroke-width:1.5;"/>
    <path clip-path="url(#p1da729468f)" d="M 157.89599 203.400885 
L 157.89599 186.614577 
" style="fill:none;stroke:#1f77b4;stroke-width:1.5;"/>
    <path clip-path="url(#p1da729468f)" d="M 166.667359 267.92228 
L 166.667359 260.036514 
" style="fill:none;stroke:#1f77b4;stroke-width:1.5;"/>
    <path clip-path="url(#p1da729468f)" d="M 175.438727 234.721184 
L 175.438727 221.122447 
" style="fill:none;stroke:#1f77b4;stroke-width:1.5;"/>
    <path clip-path="url(#p1da729468f)" d="M 184.210095 140.919712 
L 184.210095 123.579266 
" style="fill:none;stroke:#1f77b4;stroke-width:1.5;"/>
    <path clip-path="url(#p1da729468f)" d="M 192.981464 60.289696 
L 192.981464 47.479961 
" style="fill:none;stroke:#1f77b4;stroke-width:1.5;"/>
    <path clip-path="url(#p1da729468f)" d="M 201.752832 102.511098 
L 201.752832 86.236197 
" style="fill:none;stroke:#1f77b4;stroke-width:1.5;"/>
    <path clip-path="url(#p1da729468f)" d="M 210.524201 185.761045 
L 210.524201 168.555407 
" style="fill:none;stroke:#1f77b4;stroke-width:1.5;"/>
    <path clip-path="url(#p1da729468f)" d="M 219.295569 262.74553 
L 219.295569 253.131692 
" style="fill:none;stroke:#1f77b4;stroke-width:1.5;"/>
    <path clip-path="url(#p1da729468f)" d="M 228.066938 236.260039 
L 228.066938 222.553197 
" style="fill:none;stroke:#1f77b4;stroke-width:1.5;"/>
    <path clip-path="url(#p1da729468f)" d="M 236.838306 163.92286 
L 236.838306 145.643517 
" style="fill:none;stroke:#1f77b4;stroke-width:1.5;"/>
    <path clip-path="url(#p1da729468f)" d="M 245.609674 85.908754 
L 245.609674 70.547496 
" style="fill:none;stroke:#1f77b4;stroke-width:1.5;"/>
    <path clip-path="url(#p1da729468f)" d="M 254.381043 86.391087 
L 254.381043 71.315534 
" style="fill:none;stroke:#1f77b4;stroke-width:1.5;"/>
    <path clip-path="url(#p1da729468f)" d="M 263.152411 155.057737 
L 263.152411 137.951556 
" style="fill:none;stroke:#1f77b4;stroke-width:1.5;"/>
    <path clip-path="url(#p1da729468f)" d="M 271.92378 234.152953 
L 271.92378 220.049223 
" style="fill:none;stroke:#1f77b4;stroke-width:1.5;"/>
    <path clip-path="url(#p1da729468f)" d="M 280.695148 243.796886 
L 280.695148 230.991501 
" style="fill:none;stroke:#1f77b4;stroke-width:1.5;"/>
    <path clip-path="url(#p1da729468f)" d="M 289.466516 182.004788 
L 289.466516 164.76129 
" style="fill:none;stroke:#1f77b4;stroke-width:1.5;"/>
    <path clip-path="url(#p1da729468f)" d="M 298.237885 99.467222 
L 298.237885 83.081338 
" style="fill:none;stroke:#1f77b4;stroke-width:1.5;"/>
    <path clip-path="url(#p1da729468f)" d="M 307.009253 70.090828 
L 307.009253 56.366585 
" style="fill:none;stroke:#1f77b4;stroke-width:1.5;"/>
    <path clip-path="url(#p1da729468f)" d="M 315.780622 149.559242 
L 315.780622 132.534808 
" style="fill:none;stroke:#1f77b4;stroke-width:1.5;"/>
    <path clip-path="url(#p1da729468f)" d="M 324.55199 212.10466 
L 324.55199 196.579882 
" style="fill:none;stroke:#1f77b4;stroke-width:1.5;"/>
    <path clip-path="url(#p1da729468f)" d="M 333.323359 239.246923 
L 333.323359 225.635533 
" style="fill:none;stroke:#1f77b4;stroke-width:1.5;"/>
    <path clip-path="url(#p1da729468f)" d="M 342.094727 188.409026 
L 342.094727 171.21663 
" style="fill:none;stroke:#1f77b4;stroke-width:1.5;"/>
    <path clip-path="url(#p1da729468f)" d="M 350.866095 121.591074 
L 350.866095 104.097163 
" style="fill:none;stroke:#1f77b4;stroke-width:1.5;"/>
    <path clip-path="url(#p1da729468f)" d="M 359.637464 92.521172 
L 359.637464 77.328848 
" style="fill:none;stroke:#1f77b4;stroke-width:1.5;"/>
    <path clip-path="url(#p1da729468f)" d="M 368.408832 118.318229 
L 368.408832 100.903427 
" style="fill:none;stroke:#1f77b4;stroke-width:1.5;"/>
    <path clip-path="url(#p1da729468f)" d="M 377.180201 193.462999 
L 377.180201 176.506177 
" style="fill:none;stroke:#1f77b4;stroke-width:1.5;"/>
    <path clip-path="url(#p1da729468f)" d="M 385.951569 235.283694 
L 385.951569 221.305137 
" style="fill:none;stroke:#1f77b4;stroke-width:1.5;"/>
    <path clip-path="url(#p1da729468f)" d="M 394.722938 203.778178 
L 394.722938 186.644094 
" style="fill:none;stroke:#1f77b4;stroke-width:1.5;"/>
    <path clip-path="url(#p1da729468f)" d="M 403.494306 158.028777 
L 403.494306 140.675228 
" style="fill:none;stroke:#1f77b4;stroke-width:1.5;"/>
    <path clip-path="url(#p1da729468f)" d="M 412.265674 92.649874 
L 412.265674 76.627524 
" style="fill:none;stroke:#1f77b4;stroke-width:1.5;"/>
   </g>
   <g id="LineCollection_2">
    <path clip-path="url(#p1da729468f)" d="M 61.410938 274.780846 
L 61.410938 267.789145 
" style="fill:none;stroke:#d62728;stroke-width:1.5;"/>
    <path clip-path="url(#p1da729468f)" d="M 70.182306 269.128867 
L 70.182306 260.164789 
" style="fill:none;stroke:#d62728;stroke-width:1.5;"/>
    <path clip-path="url(#p1da729468f)" d="M 78.953674 249.233364 
L 78.953674 235.532742 
" style="fill:none;stroke:#d62728;stroke-width:1.5;"/>
    <path clip-path="url(#p1da729468f)" d="M 87.725043 228.372129 
L 87.725043 210.819641 
" style="fill:none;stroke:#d62728;stroke-width:1.5;"/>
    <path clip-path="url(#p1da729468f)" d="M 96.496411 214.585949 
L 96.496411 196.455242 
" style="fill:none;stroke:#d62728;stroke-width:1.5;"/>
    <path clip-path="url(#p1da729468f)" d="M 105.26778 218.989454 
L 105.26778 201.440202 
" style="fill:none;stroke:#d62728;stroke-width:1.5;"/>
    <path clip-path="url(#p1da729468f)" d="M 114.039148 234.109032 
L 114.039148 217.128828 
" style="fill:none;stroke:#d62728;stroke-width:1.5;"/>
    <path clip-path="url(#p1da729468f)" d="M 122.810516 220.170157 
L 122.810516 202.461184 
" style="fill:none;stroke:#d62728;stroke-width:1.5;"/>
    <path clip-path="url(#p1da729468f)" d="M 131.581885 238.872267 
L 131.581885 222.535479 
" style="fill:none;stroke:#d62728;stroke-width:1.5;"/>
    <path clip-path="url(#p1da729468f)" d="M 140.353253 230.579366 
L 140.353253 213.394291 
" style="fill:none;stroke:#d62728;stroke-width:1.5;"/>
    <path clip-path="url(#p1da729468f)" d="M 149.124622 228.614995 
L 149.124622 210.543301 
" style="fill:none;stroke:#d62728;stroke-width:1.5;"/>
    <path clip-path="url(#p1da729468f)" d="M 157.89599 238.342716 
L 157.89599 221.818399 
" style="fill:none;stroke:#d62728;stroke-width:1.5;"/>
    <path clip-path="url(#p1da729468f)" d="M 166.667359 242.896573 
L 166.667359 226.997083 
" style="fill:none;stroke:#d62728;stroke-width:1.5;"/>
    <path clip-path="url(#p1da729468f)" d="M 175.438727 247.146267 
L 175.438727 232.213352 
" style="fill:none;stroke:#d62728;stroke-width:1.5;"/>
    <path clip-path="url(#p1da729468f)" d="M 184.210095 226.214092 
L 184.210095 207.741835 
" style="fill:none;stroke:#d62728;stroke-width:1.5;"/>
    <path clip-path="url(#p1da729468f)" d="M 192.981464 231.58658 
L 192.981464 214.115076 
" style="fill:none;stroke:#d62728;stroke-width:1.5;"/>
   </g>
   <g id="line2d_25">
    <path clip-path="url(#p1da729468f)" d="M 61.410938 278.518987 
L 61.768058 278.518987 
L 62.839418 277.38937 
L 63.196538 276.273663 
L 63.553658 276.090351 
L 64.267898 271.728847 
L 64.625018 271.128113 
L 64.982138 268.516261 
L 65.339258 266.850276 
L 65.696378 263.749341 
L 66.053498 261.68319 
L 67.124858 253.858112 
L 67.481978 249.255516 
L 68.553338 239.438302 
L 69.624698 228.318091 
L 70.338938 218.378668 
L 71.767418 201.422731 
L 72.838778 184.902163 
L 73.195898 181.500761 
L 74.981498 155.942495 
L 75.338618 148.973271 
L 76.767098 129.732426 
L 79.266938 95.74252 
L 82.123898 62.441301 
L 82.481018 60.242556 
L 82.838138 55.075926 
L 83.552378 50.086139 
L 84.266618 43.563414 
L 84.623738 42.801997 
L 84.980858 39.373737 
L 85.337978 38.925634 
L 85.695098 35.500233 
L 86.409338 32.016327 
L 86.766458 30.674752 
L 87.123578 30.64727 
L 87.480698 26.696269 
L 87.837818 28.116824 
L 88.194938 27.966882 
L 88.552058 26.696269 
L 89.266298 27.766992 
L 89.623418 26.696269 
L 89.980538 28.425492 
L 90.337658 28.85185 
L 90.694778 30.120591 
L 91.051898 30.307827 
L 91.409018 32.437165 
L 91.766138 33.74606 
L 92.480378 38.064897 
L 93.551738 44.214283 
L 94.265978 50.621597 
L 94.980218 57.259082 
L 95.337338 61.116913 
L 95.694458 63.613723 
L 96.051578 66.933069 
L 96.765818 75.499271 
L 97.122938 78.618653 
L 97.837178 87.536629 
L 98.551418 96.113255 
L 99.622778 110.463368 
L 100.694138 124.412561 
L 101.765498 140.614698 
L 103.193978 160.268919 
L 103.908218 170.777792 
L 104.265338 174.341153 
L 104.979578 184.509747 
L 106.050938 199.287211 
L 109.265018 237.782861 
L 109.622138 240.674885 
L 109.979258 242.502147 
L 110.336378 246.817761 
L 111.050618 252.428409 
L 111.764858 259.578831 
L 112.121978 260.285793 
L 112.836218 265.118771 
L 113.193338 267.060592 
L 113.550458 268.235514 
L 113.907578 270.22888 
L 114.264698 270.840885 
L 114.621818 271.86145 
L 114.978938 273.378447 
L 115.336058 273.468206 
L 115.693178 273.423326 
L 116.050298 274.784019 
L 116.407418 274.048236 
L 116.764538 275.03084 
L 117.121658 274.321102 
L 117.478778 271.799375 
L 117.835898 271.89802 
L 118.193018 271.292679 
L 119.264378 266.931154 
L 119.621498 265.720607 
L 119.978618 263.083804 
L 120.335738 261.897461 
L 120.692858 258.591798 
L 121.407098 254.421424 
L 122.478458 244.624658 
L 124.264058 228.148266 
L 124.621178 222.061967 
L 126.406778 201.717084 
L 127.835258 182.951065 
L 128.549498 172.560265 
L 131.763578 129.225432 
L 132.477818 120.334654 
L 133.192058 109.303611 
L 136.049018 76.903455 
L 136.406138 74.327042 
L 136.763258 68.785725 
L 137.120378 67.096415 
L 137.834618 59.615995 
L 138.191738 57.522594 
L 138.548858 52.861174 
L 138.905978 51.806832 
L 139.263098 49.600531 
L 139.620218 46.413305 
L 139.977338 44.87051 
L 140.334458 42.736166 
L 140.691578 42.530985 
L 141.048698 39.880581 
L 141.762938 37.885363 
L 142.120058 36.299534 
L 142.477178 36.145353 
L 142.834298 35.337985 
L 143.191418 35.931857 
L 143.548538 33.95549 
L 143.905658 35.500233 
L 144.262778 34.806847 
L 144.619898 35.134694 
L 144.977018 36.623039 
L 145.334138 37.266031 
L 145.691258 38.622574 
L 146.048378 39.534953 
L 146.405498 42.012277 
L 146.762618 43.1426 
L 147.476858 46.52877 
L 148.191098 51.695879 
L 148.548218 53.126627 
L 148.905338 57.559509 
L 149.262458 58.929499 
L 151.048058 75.856571 
L 154.262138 113.268187 
L 154.976378 123.322897 
L 155.333498 126.7003 
L 157.119098 150.721284 
L 161.047418 202.431379 
L 162.833018 222.160139 
L 165.332858 245.256992 
L 166.047098 250.358771 
L 166.761338 254.193283 
L 167.118458 256.780115 
L 167.475578 258.360635 
L 167.832698 260.929717 
L 168.189818 261.19789 
L 168.546938 263.608276 
L 168.904058 263.306792 
L 169.261178 265.660151 
L 169.618298 265.740759 
L 169.975418 267.690612 
L 170.332538 267.379759 
L 170.689658 266.562744 
L 171.046778 266.122618 
L 171.403898 267.105476 
L 172.118138 264.445888 
L 172.475258 264.336171 
L 172.832378 263.661175 
L 173.189498 262.264448 
L 173.546618 260.330008 
L 173.903738 259.536511 
L 174.617978 254.80596 
L 174.975098 253.530473 
L 176.760698 240.168077 
L 177.117818 236.01535 
L 177.474938 233.877359 
L 177.832058 229.59415 
L 178.189178 226.836836 
L 178.903418 219.211093 
L 181.760378 186.204652 
L 183.545978 163.303612 
L 184.260218 153.945804 
L 184.974458 144.650894 
L 185.331578 140.606537 
L 185.688698 134.258143 
L 186.760058 121.68574 
L 188.545658 99.410052 
L 188.902778 96.148523 
L 189.259898 91.366515 
L 189.617018 88.981078 
L 189.974138 84.50966 
L 190.331258 81.537057 
L 190.688378 76.664442 
L 192.831098 58.805062 
L 193.188218 57.7164 
L 193.545338 54.357938 
L 194.616698 48.959596 
L 194.973818 47.054784 
L 195.330938 46.358446 
L 196.045178 43.397429 
L 196.402298 42.080377 
L 196.759418 42.818455 
L 197.116538 41.804522 
L 197.473658 41.85905 
L 197.830778 40.746059 
L 198.187898 40.634272 
L 198.545018 41.258626 
L 198.902138 41.642247 
L 199.259258 42.837493 
L 199.616378 42.653878 
L 199.973498 43.816787 
L 200.687738 47.597538 
L 201.044858 48.397643 
L 201.401978 51.469358 
L 201.759098 53.428521 
L 202.116218 54.368118 
L 202.830458 60.320515 
L 203.187578 61.666281 
L 203.544698 64.673953 
L 203.901818 69.178439 
L 204.258938 70.527086 
L 205.687418 84.310115 
L 206.044538 88.474139 
L 206.401658 91.287303 
L 207.830138 108.252486 
L 208.544378 115.77447 
L 208.901498 121.389488 
L 209.615738 129.999095 
L 211.044218 148.167884 
L 211.758458 156.828825 
L 213.186938 175.149494 
L 215.329658 201.061598 
L 215.686778 204.267751 
L 216.043898 210.589011 
L 217.115258 220.359403 
L 219.257978 240.323588 
L 219.615098 242.064815 
L 220.686458 250.269 
L 221.043578 252.450754 
L 221.400698 253.84689 
L 221.757818 256.03674 
L 222.114938 256.564246 
L 222.472058 258.980245 
L 222.829178 259.494191 
L 223.186298 259.769492 
L 223.543418 262.767954 
L 224.257658 262.462632 
L 224.614778 262.495548 
L 224.971898 261.589146 
L 226.043258 262.93532 
L 226.400378 260.989563 
L 226.757498 261.259607 
L 227.114618 258.497109 
L 227.471738 257.395387 
L 227.828858 257.408212 
L 228.185978 254.829195 
L 229.257338 249.586654 
L 229.614458 245.992179 
L 229.971578 245.50168 
L 230.328698 241.625424 
L 230.685818 240.292486 
L 231.042938 236.06544 
L 231.400058 233.323704 
L 232.114298 226.261806 
L 232.471418 222.360144 
L 233.185658 216.41014 
L 233.542778 211.640769 
L 234.257018 204.575739 
L 239.256698 143.25677 
L 239.613818 137.729432 
L 239.970938 134.437464 
L 243.542138 91.750038 
L 246.399098 65.943519 
L 246.756218 63.914854 
L 247.470458 57.150429 
L 247.827578 57.065788 
L 248.541818 51.807646 
L 248.898938 50.215452 
L 249.256058 49.319842 
L 249.613178 48.762101 
L 249.970298 46.166437 
L 250.327418 45.664638 
L 250.684538 44.524925 
L 251.041658 44.077557 
L 251.398778 43.285942 
L 251.755898 43.563414 
L 252.827258 43.832216 
L 253.184378 44.554848 
L 253.541498 44.78208 
L 253.898618 46.894654 
L 254.255738 46.691094 
L 254.969978 50.203696 
L 255.327098 50.793832 
L 258.184058 69.437626 
L 258.898298 76.928614 
L 259.255418 79.22166 
L 259.969658 86.21059 
L 261.398138 101.459625 
L 262.112378 110.226731 
L 263.183738 122.255641 
L 263.540858 127.113098 
L 263.897978 130.432432 
L 266.397818 162.161677 
L 269.969018 205.556521 
L 271.040378 216.420992 
L 271.397498 220.728298 
L 272.111738 226.559802 
L 272.825978 233.521204 
L 273.183098 235.366968 
L 274.254458 243.749821 
L 275.325818 249.884916 
L 276.040058 253.519377 
L 277.111418 257.859144 
L 277.468538 258.173816 
L 278.182778 260.403699 
L 278.539898 260.854909 
L 278.897018 260.940207 
L 279.254138 260.418438 
L 279.611258 260.5856 
L 279.968378 260.110976 
L 280.325498 259.841048 
L 280.682618 259.198829 
L 281.039738 258.307258 
L 281.396858 256.855113 
L 281.753978 255.871329 
L 282.111098 255.654566 
L 282.468218 251.212102 
L 282.825338 251.376683 
L 283.182458 249.527992 
L 283.539578 246.526898 
L 283.896698 246.39224 
L 284.253818 242.340019 
L 285.325178 234.058951 
L 286.039418 227.945173 
L 287.467898 214.740759 
L 288.182138 206.183503 
L 288.539258 203.152609 
L 297.467258 96.390361 
L 300.324218 70.148073 
L 300.681338 68.438062 
L 301.395578 62.835526 
L 302.466938 56.811806 
L 302.824058 55.550385 
L 303.538298 50.327974 
L 303.895418 50.455766 
L 304.252538 48.823818 
L 304.609658 47.973761 
L 304.966778 48.360144 
L 305.323898 47.662503 
L 306.038138 45.359897 
L 306.752378 46.42702 
L 307.109498 46.69449 
L 307.466618 47.819869 
L 307.823738 48.560139 
L 308.180858 48.823818 
L 308.895098 52.296757 
L 309.252218 53.147863 
L 309.609338 54.408839 
L 310.323578 58.488091 
L 311.037818 61.683626 
L 311.394938 65.455445 
L 312.109178 69.013856 
L 313.180538 79.282617 
L 313.537658 81.377401 
L 313.894778 85.777235 
L 314.251898 88.365622 
L 318.180218 132.409339 
L 318.537338 138.20065 
L 318.894458 140.976965 
L 320.322938 158.905023 
L 321.037178 167.707091 
L 323.179898 192.933842 
L 324.251258 204.663301 
L 324.608378 209.263227 
L 324.965498 211.132724 
L 325.679738 219.29478 
L 326.751098 228.204874 
L 327.108218 232.241411 
L 327.465338 234.597765 
L 327.822458 236.129842 
L 328.536698 242.032439 
L 329.965178 250.209152 
L 330.322298 250.857319 
L 330.679418 252.152338 
L 331.036538 254.12518 
L 331.750778 255.555239 
L 332.107898 255.678651 
L 332.465018 256.925558 
L 332.822138 256.925558 
L 333.179258 258.200505 
L 333.893498 256.717616 
L 334.250618 257.090137 
L 336.036218 252.482954 
L 337.107578 246.365309 
L 337.464698 245.326903 
L 337.821818 242.32383 
L 338.178938 241.158203 
L 339.964538 225.809951 
L 340.321658 224.767065 
L 342.464378 202.455232 
L 342.821498 199.913898 
L 345.678458 165.939 
L 346.392698 156.970476 
L 347.821178 140.271926 
L 351.035258 103.051029 
L 352.106618 91.79206 
L 352.463738 89.455672 
L 353.177978 82.097636 
L 355.320698 65.376344 
L 356.749178 57.964095 
L 357.106298 54.655099 
L 358.534778 50.30474 
L 358.891898 50.999273 
L 359.249018 49.343927 
L 359.606138 49.897964 
L 359.963258 48.786788 
L 360.320378 48.725071 
L 361.034618 49.56069 
L 361.391738 49.624325 
L 361.748858 50.976572 
L 362.105978 51.673688 
L 362.463098 52.081946 
L 363.891578 57.79946 
L 364.248698 60.487555 
L 364.605818 61.724861 
L 364.962938 64.775035 
L 365.320058 66.333684 
L 367.105658 80.400313 
L 367.462778 84.361488 
L 367.819898 86.572504 
L 368.177018 89.50934 
L 368.534138 94.687645 
L 369.605498 104.929867 
L 370.319738 113.049238 
L 370.676858 116.842288 
L 371.033978 122.178693 
L 371.391098 125.10573 
L 376.390778 186.839789 
L 376.747898 189.110148 
L 377.462138 197.35 
L 377.819258 201.731327 
L 378.176378 204.634114 
L 379.604858 219.966616 
L 380.319098 226.066744 
L 380.676218 229.587738 
L 381.033338 231.482488 
L 381.390458 235.663961 
L 381.747578 236.987764 
L 382.104698 238.828805 
L 382.461818 242.291453 
L 382.818938 243.540606 
L 383.533178 249.110297 
L 383.890298 249.875041 
L 384.604538 252.734024 
L 385.318778 255.883372 
L 385.675898 255.871329 
L 386.033018 256.730116 
L 386.747258 257.562104 
L 387.461498 257.305617 
L 387.818618 257.395387 
L 388.175738 256.580119 
L 388.532858 256.366751 
L 389.247098 254.85243 
L 389.604218 253.166226 
L 389.961338 252.831687 
L 390.675578 248.281134 
L 391.032698 247.872331 
L 391.389818 244.590311 
L 391.746938 243.086661 
L 392.104058 239.93149 
L 392.818298 236.237179 
L 394.961018 217.182731 
L 398.175098 182.399599 
L 404.603258 104.35683 
L 405.317498 97.041651 
L 405.674618 92.317599 
L 406.745978 82.185284 
L 407.817338 72.553052 
L 408.174458 70.37919 
L 408.531578 66.777787 
L 409.245818 62.145053 
L 409.602938 59.00067 
L 409.960058 57.982382 
L 410.674298 54.147163 
L 411.031418 52.893029 
L 411.745658 48.774444 
L 412.817018 46.030336 
L 413.174138 45.51732 
L 413.531258 45.359897 
L 413.888378 45.488698 
L 414.245498 46.00252 
L 414.602618 45.402831 
L 414.959738 45.503009 
L 415.316858 45.431453 
L 415.673978 46.907998 
L 416.031098 47.316613 
L 416.388218 47.532573 
L 417.102458 50.987923 
L 417.459578 54.256135 
L 417.816698 54.966206 
L 418.173818 56.849481 
L 418.530938 59.422023 
L 418.530938 59.422023 
" style="fill:none;stroke:#1f77b4;stroke-linecap:square;stroke-width:1.5;"/>
   </g>
   <g id="line2d_26">
    <path clip-path="url(#p1da729468f)" d="M 61.410938 271.333963 
L 63.516066 271.333963 
L 63.816799 270.962563 
L 64.117531 271.333963 
L 64.418264 270.543024 
L 64.718996 271.333963 
L 65.019729 270.036789 
L 65.320462 269.790028 
L 65.621194 271.333963 
L 65.921927 271.333963 
L 66.22266 269.687095 
L 66.523392 269.687095 
L 66.824125 268.194136 
L 67.124858 268.82306 
L 67.42559 268.264654 
L 67.726323 267.975459 
L 68.027055 266.630508 
L 68.327788 267.30063 
L 68.628521 265.966053 
L 68.929253 266.013905 
L 69.229986 265.249915 
L 69.530719 265.837267 
L 69.831451 264.579087 
L 70.132184 265.009108 
L 70.432916 263.592157 
L 70.733649 263.283228 
L 71.034382 262.779372 
L 71.335114 263.103699 
L 72.237312 260.171771 
L 72.538045 260.435057 
L 72.838778 259.592529 
L 73.13951 259.083588 
L 73.440243 258.1694 
L 73.740975 258.327392 
L 74.041708 256.771606 
L 74.342441 257.059716 
L 74.643173 255.666613 
L 74.943906 255.359897 
L 75.545371 254.013443 
L 75.846104 253.709607 
L 76.447569 252.041621 
L 76.748302 251.888632 
L 77.349767 250.146241 
L 77.6505 248.973627 
L 77.951232 249.482593 
L 78.251965 247.351224 
L 78.552698 248.108673 
L 78.85343 247.597701 
L 79.755628 244.977932 
L 80.056361 245.26573 
L 80.357093 244.664743 
L 80.657826 243.713016 
L 80.958559 243.365057 
L 81.860756 240.86431 
L 82.161489 240.640728 
L 83.36442 238.185573 
L 83.665152 236.598271 
L 83.965885 237.986907 
L 84.56735 236.347214 
L 84.868083 236.539691 
L 85.168815 234.810849 
L 85.469548 234.209454 
L 85.770281 233.902079 
L 86.071013 234.273163 
L 86.371746 233.332953 
L 86.672479 232.885333 
L 86.973211 232.117098 
L 87.273944 232.436998 
L 87.574676 230.852145 
L 88.176142 230.098594 
L 88.476874 230.435711 
L 89.07834 228.901884 
L 89.379072 229.853567 
L 89.980538 227.357108 
L 90.28127 228.033819 
L 90.582003 227.204115 
L 90.882735 227.280611 
L 91.183468 227.530963 
L 91.484201 226.002473 
L 91.784933 226.14549 
L 92.085666 225.660246 
L 92.386399 224.916269 
L 92.687131 225.842865 
L 92.987864 224.495436 
L 93.589329 224.343003 
L 93.890062 224.889579 
L 94.190794 224.343547 
L 95.092992 223.827445 
L 95.393725 222.550198 
L 95.694458 223.735889 
L 95.99519 222.575847 
L 96.295923 222.686395 
L 96.897388 222.261643 
L 97.198121 221.409819 
L 97.498853 222.332178 
L 98.100319 221.277733 
L 98.401051 221.555077 
L 98.701784 221.258863 
L 99.002516 221.321761 
L 99.303249 222.122694 
L 99.603982 219.960406 
L 99.904714 219.806109 
L 100.50618 220.193179 
L 100.806912 220.803899 
L 101.107645 219.991265 
L 101.408378 221.202255 
L 101.70911 220.510149 
L 102.009843 220.509925 
L 102.611308 219.966578 
L 102.912041 220.106229 
L 103.212773 220.753899 
L 103.513506 219.034112 
L 103.814239 219.307309 
L 104.114971 220.124861 
L 104.716436 219.479049 
L 105.317902 219.880171 
L 105.919367 219.491316 
L 106.2201 219.873999 
L 106.520832 220.003609 
L 106.821565 218.893912 
L 107.122298 219.564918 
L 107.42303 219.485182 
L 107.723763 218.96706 
L 108.325228 220.46645 
L 108.625961 219.32571 
L 109.227426 220.578899 
L 109.528159 219.509716 
L 110.129624 219.756734 
L 110.430356 220.118651 
L 110.731089 220.022125 
L 111.031822 219.781421 
L 111.332554 219.732046 
L 111.633287 219.954234 
L 111.93402 220.516399 
L 112.234752 218.758209 
L 112.535485 219.725874 
L 112.836218 219.589452 
L 113.437683 219.824624 
L 113.738415 220.373289 
L 114.039148 219.781421 
L 114.339881 220.052984 
L 114.640613 219.94189 
L 114.941346 219.119452 
L 115.242079 219.861656 
L 115.542811 219.688843 
L 115.843544 220.075176 
L 116.144276 219.448381 
L 116.445009 220.118651 
L 116.745742 220.329814 
L 117.046474 220.710149 
L 117.347207 220.885149 
L 117.64794 220.003609 
L 117.948672 220.753899 
L 118.249405 220.803899 
L 118.550138 221.340631 
L 118.85087 220.336025 
L 119.151603 220.547649 
L 119.452335 220.522649 
L 119.753068 219.978921 
L 120.053801 220.685149 
L 120.354533 220.938083 
L 120.655266 220.610149 
L 120.955999 220.672649 
L 121.256731 220.087597 
L 121.858196 221.02614 
L 122.158929 220.081386 
L 122.459662 220.578899 
L 122.760394 220.660149 
L 123.061127 221.498106 
L 123.36186 220.522649 
L 123.662592 220.052984 
L 123.963325 220.641399 
L 124.264058 219.503583 
L 124.865523 220.553899 
L 125.166255 219.769077 
L 125.466988 221.003899 
L 125.767721 220.528899 
L 126.369186 220.478871 
L 126.669919 219.978921 
L 126.970651 220.354657 
L 127.271384 220.093808 
L 127.872849 220.106229 
L 128.173582 219.849312 
L 128.474314 220.317393 
L 128.775047 220.267707 
L 129.07578 220.963242 
L 129.376512 220.697649 
L 129.677245 221.315472 
L 129.977978 219.94189 
L 130.27871 220.087597 
L 130.579443 220.022125 
L 130.880175 219.806109 
L 131.180908 220.891399 
L 131.481641 220.772649 
L 132.083106 219.793765 
L 132.383839 220.616399 
L 132.684571 219.350244 
L 132.985304 219.540384 
L 133.286036 220.653899 
L 133.586769 220.628899 
L 133.887502 220.242865 
L 134.188234 220.516399 
L 134.7897 219.215306 
L 135.090432 220.015953 
L 135.391165 220.348446 
L 135.691898 220.956952 
L 135.99263 219.997437 
L 136.293363 220.137283 
L 136.594095 220.969532 
L 136.894828 219.184638 
L 137.195561 219.824624 
L 137.496293 220.193179 
L 138.097759 219.793765 
L 138.398491 220.816399 
L 138.699224 220.685149 
L 138.999956 219.675322 
L 139.300689 219.448381 
L 139.601422 220.553899 
L 139.902154 219.991265 
L 140.202887 220.460239 
L 140.50362 220.106229 
L 140.804352 219.51585 
L 141.405818 220.516135 
L 142.007283 220.022125 
L 142.308015 219.892515 
L 142.608748 220.106229 
L 142.909481 219.577185 
L 143.210213 220.560149 
L 143.510946 220.503714 
L 143.811679 220.100019 
L 144.413144 220.093808 
L 144.713876 220.766399 
L 145.014609 220.710149 
L 145.315342 220.903899 
L 145.616074 220.391921 
L 145.916807 220.822649 
L 146.21754 220.224232 
L 146.518272 220.716399 
L 147.119738 220.947649 
L 147.42047 221.221124 
L 147.721203 220.385711 
L 148.021935 221.542417 
L 148.623401 219.725874 
L 148.924133 219.695015 
L 149.224866 221.082749 
L 149.525599 221.120487 
L 149.826331 220.885149 
L 150.127064 221.195965 
L 150.427796 220.391921 
L 151.029262 221.208545 
L 151.329994 220.778899 
L 151.630727 221.656359 
L 151.93146 221.170806 
L 152.232192 222.014387 
L 152.532925 221.208545 
L 152.833658 223.090749 
L 153.13439 221.995274 
L 153.435123 221.68801 
L 153.735855 222.001645 
L 154.036588 222.090839 
L 154.337321 222.72512 
L 154.638053 222.103581 
L 154.938786 222.09721 
L 155.239519 222.325766 
L 155.540251 221.453795 
L 155.840984 223.002653 
L 156.141716 221.982532 
L 156.442449 222.802571 
L 156.743182 222.925202 
L 157.344647 222.783208 
L 157.64538 223.054287 
L 158.246845 223.142722 
L 158.547578 223.272657 
L 158.84831 222.847751 
L 159.149043 224.067047 
L 159.449775 223.552776 
L 159.750508 223.454564 
L 160.051241 224.742789 
L 160.351973 223.624713 
L 160.652706 224.740654 
L 160.953439 223.467558 
L 161.254171 224.205297 
L 161.554904 224.627986 
L 162.156369 223.487048 
L 162.757834 224.740654 
L 163.058567 225.083076 
L 163.3593 225.129782 
L 163.660032 224.882907 
L 163.960765 225.109765 
L 164.261498 224.661123 
L 164.56223 224.475553 
L 164.862963 224.535201 
L 165.163695 224.284297 
L 165.464428 225.27565 
L 165.765161 225.248779 
L 166.065893 225.497333 
L 166.366626 224.694261 
L 166.667359 225.136454 
L 166.968091 226.288507 
L 167.268824 225.646718 
L 167.569556 225.517486 
L 167.870289 225.975232 
L 168.171022 225.639954 
L 168.471754 226.397458 
L 168.772487 225.788756 
L 169.07322 226.445461 
L 169.373952 225.389851 
L 169.674685 225.694064 
L 169.975418 225.74141 
L 170.27615 226.424888 
L 170.576883 225.626427 
L 170.877615 225.754937 
L 171.178348 226.949889 
L 171.479081 225.849629 
L 171.779813 226.104628 
L 172.080546 226.733481 
L 172.682011 227.252794 
L 172.982744 227.280611 
L 173.283476 226.14549 
L 173.584209 226.295318 
L 173.884942 227.728081 
L 174.185674 226.596329 
L 174.78714 226.623759 
L 175.087872 227.679057 
L 175.388605 226.829488 
L 175.689338 227.537917 
L 175.99007 227.231932 
L 176.290803 228.097301 
L 176.591535 227.489238 
L 176.892268 227.384924 
L 177.193001 227.66505 
L 177.493733 226.956794 
L 177.794466 227.777106 
L 178.095199 227.475329 
L 178.395931 228.160783 
L 178.696664 228.564189 
L 178.997396 228.203104 
L 179.298129 228.125515 
L 179.598862 227.910173 
L 179.899594 227.122528 
L 180.200327 228.033819 
L 180.50106 228.005605 
L 180.801792 228.17489 
L 181.102525 228.090248 
L 181.403258 228.471833 
L 181.70399 227.889163 
L 182.305455 228.040873 
L 182.606188 228.252479 
L 182.906921 228.308908 
L 183.207653 228.720484 
L 183.508386 228.386582 
L 183.809119 228.514459 
L 184.109851 228.125515 
L 184.410584 228.798631 
L 184.711316 228.535772 
L 185.012049 227.693064 
L 185.312782 227.931184 
L 185.613514 229.722868 
L 185.914247 228.578398 
L 186.21498 228.851793 
L 186.515712 228.851793 
L 186.816445 228.50025 
L 187.41791 229.158012 
L 187.718643 229.331004 
L 188.019375 228.45052 
L 188.620841 228.763109 
L 188.921573 228.642336 
L 189.222306 229.30938 
L 189.523039 228.727588 
L 189.823771 228.486042 
L 190.124504 229.179636 
L 190.425236 228.851793 
L 190.725969 228.748901 
L 191.026702 229.577648 
L 191.327434 229.708346 
L 191.628167 229.45354 
L 191.9289 230.091279 
L 192.831098 228.181944 
L 193.13183 229.109401 
L 193.432563 229.066466 
L 193.733295 228.756005 
L 194.034028 229.467956 
L 194.334761 228.40079 
L 194.635493 229.002064 
L 194.936226 228.429207 
L 195.236959 228.727588 
L 195.537691 228.613919 
L 195.838424 228.706275 
L 196.139156 229.80274 
L 196.439889 229.023532 
L 196.740622 229.186844 
L 197.041354 228.987753 
L 197.342087 229.839045 
L 197.64282 229.981557 
L 197.943552 229.059311 
L 198.244285 230.428342 
L 198.545018 228.770214 
L 198.84575 229.016376 
L 199.146483 228.973441 
L 199.747948 229.613953 
L 200.048681 228.287747 
L 200.349413 229.966928 
L 200.650146 229.839045 
L 200.950879 228.930507 
L 201.251611 228.429207 
L 201.552344 230.215631 
L 201.853076 229.194052 
L 202.153809 229.766435 
L 202.454542 229.194052 
L 202.755274 230.752594 
L 203.056007 229.388668 
L 203.35674 228.830326 
L 203.657472 228.923351 
L 203.958205 230.105909 
L 204.258938 230.347278 
L 204.55967 228.670753 
L 204.860403 228.966286 
L 205.161135 229.532828 
L 205.461868 229.424708 
L 205.762601 229.744651 
L 206.364066 229.715607 
L 206.664799 229.959613 
L 206.965531 229.548604 
L 207.266264 229.657519 
L 207.566996 229.988872 
L 207.867729 228.684962 
L 208.168462 229.621214 
L 208.469194 229.868089 
L 208.769927 229.087934 
L 209.07066 229.052155 
L 209.371392 229.966928 
L 209.672125 229.518412 
L 209.972858 229.59217 
L 210.27359 229.2373 
L 210.574323 229.952298 
L 210.875055 229.475164 
L 211.175788 229.34542 
L 211.476521 229.635736 
L 211.777253 228.980597 
L 211.777253 228.980597 
" style="fill:none;stroke:#d62728;stroke-linecap:square;stroke-width:1.5;"/>
   </g>
   <g id="line2d_27">
    <path clip-path="url(#p1da729468f)" d="M 61.410938 23.543308 
L 418.530938 23.543308 
" style="fill:none;stroke:#99aaaa;stroke-dasharray:9.6,2.4,1.5,2.4;stroke-dashoffset:0;stroke-width:1.5;"/>
   </g>
   <g id="line2d_28">
    <defs>
     <path d="M -3 3 
L 3 3 
L 3 -3 
L -3 -3 
z
" id="m9e0ac68bfd" style="stroke:#1f77b4;stroke-linejoin:miter;"/>
    </defs>
    <g clip-path="url(#p1da729468f)">
     <use style="fill:#1f77b4;stroke:#1f77b4;stroke-linejoin:miter;" x="61.410938" xlink:href="#m9e0ac68bfd" y="278.419468"/>
     <use style="fill:#1f77b4;stroke:#1f77b4;stroke-linejoin:miter;" x="70.182306" xlink:href="#m9e0ac68bfd" y="212.756606"/>
     <use style="fill:#1f77b4;stroke:#1f77b4;stroke-linejoin:miter;" x="78.953674" xlink:href="#m9e0ac68bfd" y="114.647534"/>
     <use style="fill:#1f77b4;stroke:#1f77b4;stroke-linejoin:miter;" x="87.725043" xlink:href="#m9e0ac68bfd" y="59.10656"/>
     <use style="fill:#1f77b4;stroke:#1f77b4;stroke-linejoin:miter;" x="96.496411" xlink:href="#m9e0ac68bfd" y="111.69148"/>
     <use style="fill:#1f77b4;stroke:#1f77b4;stroke-linejoin:miter;" x="105.26778" xlink:href="#m9e0ac68bfd" y="214.174218"/>
     <use style="fill:#1f77b4;stroke:#1f77b4;stroke-linejoin:miter;" x="114.039148" xlink:href="#m9e0ac68bfd" y="269.002191"/>
     <use style="fill:#1f77b4;stroke:#1f77b4;stroke-linejoin:miter;" x="122.810516" xlink:href="#m9e0ac68bfd" y="221.897168"/>
     <use style="fill:#1f77b4;stroke:#1f77b4;stroke-linejoin:miter;" x="131.581885" xlink:href="#m9e0ac68bfd" y="113.245228"/>
     <use style="fill:#1f77b4;stroke:#1f77b4;stroke-linejoin:miter;" x="140.353253" xlink:href="#m9e0ac68bfd" y="56.888771"/>
     <use style="fill:#1f77b4;stroke:#1f77b4;stroke-linejoin:miter;" x="149.124622" xlink:href="#m9e0ac68bfd" y="87.669235"/>
     <use style="fill:#1f77b4;stroke:#1f77b4;stroke-linejoin:miter;" x="157.89599" xlink:href="#m9e0ac68bfd" y="195.007731"/>
     <use style="fill:#1f77b4;stroke:#1f77b4;stroke-linejoin:miter;" x="166.667359" xlink:href="#m9e0ac68bfd" y="263.979397"/>
     <use style="fill:#1f77b4;stroke:#1f77b4;stroke-linejoin:miter;" x="175.438727" xlink:href="#m9e0ac68bfd" y="227.921815"/>
     <use style="fill:#1f77b4;stroke:#1f77b4;stroke-linejoin:miter;" x="184.210095" xlink:href="#m9e0ac68bfd" y="132.249489"/>
     <use style="fill:#1f77b4;stroke:#1f77b4;stroke-linejoin:miter;" x="192.981464" xlink:href="#m9e0ac68bfd" y="53.884828"/>
     <use style="fill:#1f77b4;stroke:#1f77b4;stroke-linejoin:miter;" x="201.752832" xlink:href="#m9e0ac68bfd" y="94.373648"/>
     <use style="fill:#1f77b4;stroke:#1f77b4;stroke-linejoin:miter;" x="210.524201" xlink:href="#m9e0ac68bfd" y="177.158226"/>
     <use style="fill:#1f77b4;stroke:#1f77b4;stroke-linejoin:miter;" x="219.295569" xlink:href="#m9e0ac68bfd" y="257.938611"/>
     <use style="fill:#1f77b4;stroke:#1f77b4;stroke-linejoin:miter;" x="228.066938" xlink:href="#m9e0ac68bfd" y="229.406618"/>
     <use style="fill:#1f77b4;stroke:#1f77b4;stroke-linejoin:miter;" x="236.838306" xlink:href="#m9e0ac68bfd" y="154.783188"/>
     <use style="fill:#1f77b4;stroke:#1f77b4;stroke-linejoin:miter;" x="245.609674" xlink:href="#m9e0ac68bfd" y="78.228125"/>
     <use style="fill:#1f77b4;stroke:#1f77b4;stroke-linejoin:miter;" x="254.381043" xlink:href="#m9e0ac68bfd" y="78.853311"/>
     <use style="fill:#1f77b4;stroke:#1f77b4;stroke-linejoin:miter;" x="263.152411" xlink:href="#m9e0ac68bfd" y="146.504646"/>
     <use style="fill:#1f77b4;stroke:#1f77b4;stroke-linejoin:miter;" x="271.92378" xlink:href="#m9e0ac68bfd" y="227.101088"/>
     <use style="fill:#1f77b4;stroke:#1f77b4;stroke-linejoin:miter;" x="280.695148" xlink:href="#m9e0ac68bfd" y="237.394194"/>
     <use style="fill:#1f77b4;stroke:#1f77b4;stroke-linejoin:miter;" x="289.466516" xlink:href="#m9e0ac68bfd" y="173.383039"/>
     <use style="fill:#1f77b4;stroke:#1f77b4;stroke-linejoin:miter;" x="298.237885" xlink:href="#m9e0ac68bfd" y="91.27428"/>
     <use style="fill:#1f77b4;stroke:#1f77b4;stroke-linejoin:miter;" x="307.009253" xlink:href="#m9e0ac68bfd" y="63.228706"/>
     <use style="fill:#1f77b4;stroke:#1f77b4;stroke-linejoin:miter;" x="315.780622" xlink:href="#m9e0ac68bfd" y="141.047025"/>
     <use style="fill:#1f77b4;stroke:#1f77b4;stroke-linejoin:miter;" x="324.55199" xlink:href="#m9e0ac68bfd" y="204.342271"/>
     <use style="fill:#1f77b4;stroke:#1f77b4;stroke-linejoin:miter;" x="333.323359" xlink:href="#m9e0ac68bfd" y="232.441228"/>
     <use style="fill:#1f77b4;stroke:#1f77b4;stroke-linejoin:miter;" x="342.094727" xlink:href="#m9e0ac68bfd" y="179.812828"/>
     <use style="fill:#1f77b4;stroke:#1f77b4;stroke-linejoin:miter;" x="350.866095" xlink:href="#m9e0ac68bfd" y="112.844118"/>
     <use style="fill:#1f77b4;stroke:#1f77b4;stroke-linejoin:miter;" x="359.637464" xlink:href="#m9e0ac68bfd" y="84.92501"/>
     <use style="fill:#1f77b4;stroke:#1f77b4;stroke-linejoin:miter;" x="368.408832" xlink:href="#m9e0ac68bfd" y="109.610828"/>
     <use style="fill:#1f77b4;stroke:#1f77b4;stroke-linejoin:miter;" x="377.180201" xlink:href="#m9e0ac68bfd" y="184.984588"/>
     <use style="fill:#1f77b4;stroke:#1f77b4;stroke-linejoin:miter;" x="385.951569" xlink:href="#m9e0ac68bfd" y="228.294416"/>
     <use style="fill:#1f77b4;stroke:#1f77b4;stroke-linejoin:miter;" x="394.722938" xlink:href="#m9e0ac68bfd" y="195.211136"/>
     <use style="fill:#1f77b4;stroke:#1f77b4;stroke-linejoin:miter;" x="403.494306" xlink:href="#m9e0ac68bfd" y="149.352003"/>
     <use style="fill:#1f77b4;stroke:#1f77b4;stroke-linejoin:miter;" x="412.265674" xlink:href="#m9e0ac68bfd" y="84.638699"/>
    </g>
   </g>
   <g id="line2d_29">
    <defs>
     <path d="M 0 3 
C 0.795609 3 1.55874 2.683901 2.12132 2.12132 
C 2.683901 1.55874 3 0.795609 3 0 
C 3 -0.795609 2.683901 -1.55874 2.12132 -2.12132 
C 1.55874 -2.683901 0.795609 -3 0 -3 
C -0.795609 -3 -1.55874 -2.683901 -2.12132 -2.12132 
C -2.683901 -1.55874 -3 -0.795609 -3 0 
C -3 0.795609 -2.683901 1.55874 -2.12132 2.12132 
C -1.55874 2.683901 -0.795609 3 0 3 
z
" id="m4d17eb6f4c" style="stroke:#d62728;"/>
    </defs>
    <g clip-path="url(#p1da729468f)">
     <use style="fill:#d62728;stroke:#d62728;" x="61.410938" xlink:href="#m4d17eb6f4c" y="271.284996"/>
     <use style="fill:#d62728;stroke:#d62728;" x="70.182306" xlink:href="#m4d17eb6f4c" y="264.646828"/>
     <use style="fill:#d62728;stroke:#d62728;" x="78.953674" xlink:href="#m4d17eb6f4c" y="242.383053"/>
     <use style="fill:#d62728;stroke:#d62728;" x="87.725043" xlink:href="#m4d17eb6f4c" y="219.595885"/>
     <use style="fill:#d62728;stroke:#d62728;" x="96.496411" xlink:href="#m4d17eb6f4c" y="205.520596"/>
     <use style="fill:#d62728;stroke:#d62728;" x="105.26778" xlink:href="#m4d17eb6f4c" y="210.214828"/>
     <use style="fill:#d62728;stroke:#d62728;" x="114.039148" xlink:href="#m4d17eb6f4c" y="225.61893"/>
     <use style="fill:#d62728;stroke:#d62728;" x="122.810516" xlink:href="#m4d17eb6f4c" y="211.31567"/>
     <use style="fill:#d62728;stroke:#d62728;" x="131.581885" xlink:href="#m4d17eb6f4c" y="230.703873"/>
     <use style="fill:#d62728;stroke:#d62728;" x="140.353253" xlink:href="#m4d17eb6f4c" y="221.986828"/>
     <use style="fill:#d62728;stroke:#d62728;" x="149.124622" xlink:href="#m4d17eb6f4c" y="219.579148"/>
     <use style="fill:#d62728;stroke:#d62728;" x="157.89599" xlink:href="#m4d17eb6f4c" y="230.080557"/>
     <use style="fill:#d62728;stroke:#d62728;" x="166.667359" xlink:href="#m4d17eb6f4c" y="234.946828"/>
     <use style="fill:#d62728;stroke:#d62728;" x="175.438727" xlink:href="#m4d17eb6f4c" y="239.679809"/>
     <use style="fill:#d62728;stroke:#d62728;" x="184.210095" xlink:href="#m4d17eb6f4c" y="216.977963"/>
     <use style="fill:#d62728;stroke:#d62728;" x="192.981464" xlink:href="#m4d17eb6f4c" y="222.850828"/>
    </g>
   </g>
   <g id="patch_3">
    <path d="M 61.410938 279.010828 
L 61.410938 12.898828 
" style="fill:none;stroke:#000000;stroke-linecap:square;stroke-linejoin:miter;stroke-width:0.8;"/>
   </g>
   <g id="patch_4">
    <path d="M 418.530938 279.010828 
L 418.530938 12.898828 
" style="fill:none;stroke:#000000;stroke-linecap:square;stroke-linejoin:miter;stroke-width:0.8;"/>
   </g>
   <g id="patch_5">
    <path d="M 61.410938 279.010828 
L 418.530938 279.010828 
" style="fill:none;stroke:#000000;stroke-linecap:square;stroke-linejoin:miter;stroke-width:0.8;"/>
   </g>
   <g id="patch_6">
    <path d="M 61.410938 12.898828 
L 418.530938 12.898828 
" style="fill:none;stroke:#000000;stroke-linecap:square;stroke-linejoin:miter;stroke-width:0.8;"/>
   </g>
   <g id="text_15">
    <!-- (B) -->
    <defs>
     <path d="M 19.671875 34.8125 
L 19.671875 8.109375 
L 35.5 8.109375 
Q 43.453125 8.109375 47.28125 11.40625 
Q 51.125 14.703125 51.125 21.484375 
Q 51.125 28.328125 47.28125 31.5625 
Q 43.453125 34.8125 35.5 34.8125 
z
M 19.671875 64.796875 
L 19.671875 42.828125 
L 34.28125 42.828125 
Q 41.5 42.828125 45.03125 45.53125 
Q 48.578125 48.25 48.578125 53.8125 
Q 48.578125 59.328125 45.03125 62.0625 
Q 41.5 64.796875 34.28125 64.796875 
z
M 9.8125 72.90625 
L 35.015625 72.90625 
Q 46.296875 72.90625 52.390625 68.21875 
Q 58.5 63.53125 58.5 54.890625 
Q 58.5 48.1875 55.375 44.234375 
Q 52.25 40.28125 46.1875 39.3125 
Q 53.46875 37.75 57.5 32.78125 
Q 61.53125 27.828125 61.53125 20.40625 
Q 61.53125 10.640625 54.890625 5.3125 
Q 48.25 0 35.984375 0 
L 9.8125 0 
z
" id="DejaVuSans-42"/>
    </defs>
    <g transform="translate(379.686306 39.510028)scale(0.2 -0.2)">
     <use xlink:href="#DejaVuSans-28"/>
     <use x="39.013672" xlink:href="#DejaVuSans-42"/>
     <use x="107.617188" xlink:href="#DejaVuSans-29"/>
    </g>
   </g>
  </g>
 </g>
 <defs>
  <clipPath id="p1da729468f">
   <rect height="266.112" width="357.12" x="61.410938" y="12.898828"/>
  </clipPath>
 </defs>
</svg>
