<?xml version="1.0" encoding="utf-8" standalone="no"?>
<!DOCTYPE svg PUBLIC "-//W3C//DTD SVG 1.1//EN"
  "http://www.w3.org/Graphics/SVG/1.1/DTD/svg11.dtd">
<!-- Created with matplotlib (http://matplotlib.org/) -->
<svg height="331pt" version="1.1" viewBox="0 0 429 331" width="429pt" xmlns="http://www.w3.org/2000/svg" xmlns:xlink="http://www.w3.org/1999/xlink">
 <defs>
  <style type="text/css">
*{stroke-linecap:butt;stroke-linejoin:round;}
  </style>
 </defs>
 <g id="figure_1">
  <g id="patch_1">
   <path d="M 0 331.128016 
L 429.230937 331.128016 
L 429.230937 0 
L 0 0 
z
" style="fill:none;"/>
  </g>
  <g id="axes_1">
   <g id="patch_2">
    <path d="M 61.410938 279.010828 
L 418.530938 279.010828 
L 418.530938 12.898828 
L 61.410938 12.898828 
z
" style="fill:none;"/>
   </g>
   <g id="matplotlib.axis_1">
    <g id="xtick_1">
     <g id="line2d_1">
      <path clip-path="url(#p1da729468f)" d="M 61.410938 279.010828 
L 61.410938 12.898828 
" style="fill:none;stroke:#b0b0b0;stroke-linecap:square;stroke-width:0.8;"/>
     </g>
     <g id="line2d_2">
      <defs>
       <path d="M 0 0 
L 0 3.5 
" id="m005f0a59be" style="stroke:#000000;stroke-width:0.8;"/>
      </defs>
      <g>
       <use style="stroke:#000000;stroke-width:0.8;" x="61.410938" xlink:href="#m005f0a59be" y="279.010828"/>
      </g>
     </g>
     <g id="text_1">
      <!-- 0 -->
      <defs>
       <path d="M 31.78125 66.40625 
Q 24.171875 66.40625 20.328125 58.90625 
Q 16.5 51.421875 16.5 36.375 
Q 16.5 21.390625 20.328125 13.890625 
Q 24.171875 6.390625 31.78125 6.390625 
Q 39.453125 6.390625 43.28125 13.890625 
Q 47.125 21.390625 47.125 36.375 
Q 47.125 51.421875 43.28125 58.90625 
Q 39.453125 66.40625 31.78125 66.40625 
z
M 31.78125 74.21875 
Q 44.046875 74.21875 50.515625 64.515625 
Q 56.984375 54.828125 56.984375 36.375 
Q 56.984375 17.96875 50.515625 8.265625 
Q 44.046875 -1.421875 31.78125 -1.421875 
Q 19.53125 -1.421875 13.0625 8.265625 
Q 6.59375 17.96875 6.59375 36.375 
Q 6.59375 54.828125 13.0625 64.515625 
Q 19.53125 74.21875 31.78125 74.21875 
z
" id="DejaVuSans-30"/>
      </defs>
      <g transform="translate(56.639063 297.408484)scale(0.15 -0.15)">
       <use xlink:href="#DejaVuSans-30"/>
      </g>
     </g>
    </g>
    <g id="xtick_2">
     <g id="line2d_3">
      <path clip-path="url(#p1da729468f)" d="M 155.389885 279.010828 
L 155.389885 12.898828 
" style="fill:none;stroke:#b0b0b0;stroke-linecap:square;stroke-width:0.8;"/>
     </g>
     <g id="line2d_4">
      <g>
       <use style="stroke:#000000;stroke-width:0.8;" x="155.389885" xlink:href="#m005f0a59be" y="279.010828"/>
      </g>
     </g>
     <g id="text_2">
      <!-- 50 -->
      <defs>
       <path d="M 10.796875 72.90625 
L 49.515625 72.90625 
L 49.515625 64.59375 
L 19.828125 64.59375 
L 19.828125 46.734375 
Q 21.96875 47.46875 24.109375 47.828125 
Q 26.265625 48.1875 28.421875 48.1875 
Q 40.625 48.1875 47.75 41.5 
Q 54.890625 34.8125 54.890625 23.390625 
Q 54.890625 11.625 47.5625 5.09375 
Q 40.234375 -1.421875 26.90625 -1.421875 
Q 22.3125 -1.421875 17.546875 -0.640625 
Q 12.796875 0.140625 7.71875 1.703125 
L 7.71875 11.625 
Q 12.109375 9.234375 16.796875 8.0625 
Q 21.484375 6.890625 26.703125 6.890625 
Q 35.15625 6.890625 40.078125 11.328125 
Q 45.015625 15.765625 45.015625 23.390625 
Q 45.015625 31 40.078125 35.4375 
Q 35.15625 39.890625 26.703125 39.890625 
Q 22.75 39.890625 18.8125 39.015625 
Q 14.890625 38.140625 10.796875 36.28125 
z
" id="DejaVuSans-35"/>
      </defs>
      <g transform="translate(145.846135 297.408484)scale(0.15 -0.15)">
       <use xlink:href="#DejaVuSans-35"/>
       <use x="63.623047" xlink:href="#DejaVuSans-30"/>
      </g>
     </g>
    </g>
    <g id="xtick_3">
     <g id="line2d_5">
      <path clip-path="url(#p1da729468f)" d="M 249.368832 279.010828 
L 249.368832 12.898828 
" style="fill:none;stroke:#b0b0b0;stroke-linecap:square;stroke-width:0.8;"/>
     </g>
     <g id="line2d_6">
      <g>
       <use style="stroke:#000000;stroke-width:0.8;" x="249.368832" xlink:href="#m005f0a59be" y="279.010828"/>
      </g>
     </g>
     <g id="text_3">
      <!-- 100 -->
      <defs>
       <path d="M 12.40625 8.296875 
L 28.515625 8.296875 
L 28.515625 63.921875 
L 10.984375 60.40625 
L 10.984375 69.390625 
L 28.421875 72.90625 
L 38.28125 72.90625 
L 38.28125 8.296875 
L 54.390625 8.296875 
L 54.390625 0 
L 12.40625 0 
z
" id="DejaVuSans-31"/>
      </defs>
      <g transform="translate(235.053207 297.408484)scale(0.15 -0.15)">
       <use xlink:href="#DejaVuSans-31"/>
       <use x="63.623047" xlink:href="#DejaVuSans-30"/>
       <use x="127.246094" xlink:href="#DejaVuSans-30"/>
      </g>
     </g>
    </g>
    <g id="xtick_4">
     <g id="line2d_7">
      <path clip-path="url(#p1da729468f)" d="M 343.34778 279.010828 
L 343.34778 12.898828 
" style="fill:none;stroke:#b0b0b0;stroke-linecap:square;stroke-width:0.8;"/>
     </g>
     <g id="line2d_8">
      <g>
       <use style="stroke:#000000;stroke-width:0.8;" x="343.34778" xlink:href="#m005f0a59be" y="279.010828"/>
      </g>
     </g>
     <g id="text_4">
      <!-- 150 -->
      <g transform="translate(329.032155 297.408484)scale(0.15 -0.15)">
       <use xlink:href="#DejaVuSans-31"/>
       <use x="63.623047" xlink:href="#DejaVuSans-35"/>
       <use x="127.246094" xlink:href="#DejaVuSans-30"/>
      </g>
     </g>
    </g>
    <g id="text_5">
     <!-- Time ($\mu s$) -->
     <defs>
      <path d="M -0.296875 72.90625 
L 61.375 72.90625 
L 61.375 64.59375 
L 35.5 64.59375 
L 35.5 0 
L 25.59375 0 
L 25.59375 64.59375 
L -0.296875 64.59375 
z
" id="DejaVuSans-54"/>
      <path d="M 9.421875 54.6875 
L 18.40625 54.6875 
L 18.40625 0 
L 9.421875 0 
z
M 9.421875 75.984375 
L 18.40625 75.984375 
L 18.40625 64.59375 
L 9.421875 64.59375 
z
" id="DejaVuSans-69"/>
      <path d="M 52 44.1875 
Q 55.375 50.25 60.0625 53.125 
Q 64.75 56 71.09375 56 
Q 79.640625 56 84.28125 50.015625 
Q 88.921875 44.046875 88.921875 33.015625 
L 88.921875 0 
L 79.890625 0 
L 79.890625 32.71875 
Q 79.890625 40.578125 77.09375 44.375 
Q 74.3125 48.1875 68.609375 48.1875 
Q 61.625 48.1875 57.5625 43.546875 
Q 53.515625 38.921875 53.515625 30.90625 
L 53.515625 0 
L 44.484375 0 
L 44.484375 32.71875 
Q 44.484375 40.625 41.703125 44.40625 
Q 38.921875 48.1875 33.109375 48.1875 
Q 26.21875 48.1875 22.15625 43.53125 
Q 18.109375 38.875 18.109375 30.90625 
L 18.109375 0 
L 9.078125 0 
L 9.078125 54.6875 
L 18.109375 54.6875 
L 18.109375 46.1875 
Q 21.1875 51.21875 25.484375 53.609375 
Q 29.78125 56 35.6875 56 
Q 41.65625 56 45.828125 52.96875 
Q 50 49.953125 52 44.1875 
z
" id="DejaVuSans-6d"/>
      <path d="M 56.203125 29.59375 
L 56.203125 25.203125 
L 14.890625 25.203125 
Q 15.484375 15.921875 20.484375 11.0625 
Q 25.484375 6.203125 34.421875 6.203125 
Q 39.59375 6.203125 44.453125 7.46875 
Q 49.3125 8.734375 54.109375 11.28125 
L 54.109375 2.78125 
Q 49.265625 0.734375 44.1875 -0.34375 
Q 39.109375 -1.421875 33.890625 -1.421875 
Q 20.796875 -1.421875 13.15625 6.1875 
Q 5.515625 13.8125 5.515625 26.8125 
Q 5.515625 40.234375 12.765625 48.109375 
Q 20.015625 56 32.328125 56 
Q 43.359375 56 49.78125 48.890625 
Q 56.203125 41.796875 56.203125 29.59375 
z
M 47.21875 32.234375 
Q 47.125 39.59375 43.09375 43.984375 
Q 39.0625 48.390625 32.421875 48.390625 
Q 24.90625 48.390625 20.390625 44.140625 
Q 15.875 39.890625 15.1875 32.171875 
z
" id="DejaVuSans-65"/>
      <path id="DejaVuSans-20"/>
      <path d="M 31 75.875 
Q 24.46875 64.65625 21.28125 53.65625 
Q 18.109375 42.671875 18.109375 31.390625 
Q 18.109375 20.125 21.3125 9.0625 
Q 24.515625 -2 31 -13.1875 
L 23.1875 -13.1875 
Q 15.875 -1.703125 12.234375 9.375 
Q 8.59375 20.453125 8.59375 31.390625 
Q 8.59375 42.28125 12.203125 53.3125 
Q 15.828125 64.359375 23.1875 75.875 
z
" id="DejaVuSans-28"/>
      <path d="M -1.3125 -20.796875 
L 13.375 54.6875 
L 22.40625 54.6875 
L 15.765625 20.65625 
Q 15.578125 19.625 15.421875 18.359375 
Q 15.28125 17.09375 15.28125 15.828125 
Q 15.28125 11.28125 18.140625 8.828125 
Q 21 6.390625 26.3125 6.390625 
Q 33.546875 6.390625 37.984375 10.484375 
Q 42.4375 14.59375 44 22.796875 
L 50.203125 54.6875 
L 59.1875 54.6875 
L 51.03125 12.640625 
Q 50.828125 11.71875 50.75 11.03125 
Q 50.6875 10.359375 50.6875 9.8125 
Q 50.6875 8.296875 51.296875 7.59375 
Q 51.90625 6.890625 53.21875 6.890625 
Q 53.71875 6.890625 54.5625 7.125 
Q 55.421875 7.375 56.984375 8.015625 
L 55.609375 0.78125 
Q 53.46875 -0.296875 51.515625 -0.859375 
Q 49.5625 -1.421875 47.703125 -1.421875 
Q 44.484375 -1.421875 42.65625 0.625 
Q 40.828125 2.6875 40.828125 6.296875 
Q 38.09375 2.390625 34.296875 0.484375 
Q 30.515625 -1.421875 25.390625 -1.421875 
Q 20.84375 -1.421875 17.453125 0.671875 
Q 14.0625 2.78125 12.984375 6.203125 
L 7.71875 -20.796875 
z
" id="DejaVuSans-Oblique-3bc"/>
      <path d="M 50 53.078125 
L 48.296875 44.578125 
Q 44.734375 46.53125 40.765625 47.5 
Q 36.8125 48.484375 32.625 48.484375 
Q 25.53125 48.484375 21.453125 46.0625 
Q 17.390625 43.65625 17.390625 39.5 
Q 17.390625 34.671875 26.859375 32.078125 
Q 27.59375 31.890625 27.9375 31.78125 
L 30.8125 30.90625 
Q 39.796875 28.421875 42.796875 25.6875 
Q 45.796875 22.953125 45.796875 18.21875 
Q 45.796875 9.515625 38.890625 4.046875 
Q 31.984375 -1.421875 20.796875 -1.421875 
Q 16.453125 -1.421875 11.671875 -0.578125 
Q 6.890625 0.25 1.125 2 
L 2.875 11.28125 
Q 7.8125 8.734375 12.59375 7.421875 
Q 17.390625 6.109375 21.78125 6.109375 
Q 28.375 6.109375 32.5 8.9375 
Q 36.625 11.765625 36.625 16.109375 
Q 36.625 20.796875 25.78125 23.6875 
L 24.859375 23.921875 
L 21.78125 24.703125 
Q 14.9375 26.515625 11.765625 29.46875 
Q 8.59375 32.421875 8.59375 37.015625 
Q 8.59375 45.75 15.15625 50.875 
Q 21.734375 56 33.015625 56 
Q 37.453125 56 41.671875 55.265625 
Q 45.90625 54.546875 50 53.078125 
z
" id="DejaVuSans-Oblique-73"/>
      <path d="M 8.015625 75.875 
L 15.828125 75.875 
Q 23.140625 64.359375 26.78125 53.3125 
Q 30.421875 42.28125 30.421875 31.390625 
Q 30.421875 20.453125 26.78125 9.375 
Q 23.140625 -1.703125 15.828125 -13.1875 
L 8.015625 -13.1875 
Q 14.5 -2 17.703125 9.0625 
Q 20.90625 20.125 20.90625 31.390625 
Q 20.90625 42.671875 17.703125 53.65625 
Q 14.5 64.65625 8.015625 75.875 
z
" id="DejaVuSans-29"/>
     </defs>
     <g transform="translate(192.570938 319.728016)scale(0.2 -0.2)">
      <use transform="translate(0 0.015625)" xlink:href="#DejaVuSans-54"/>
      <use transform="translate(61.083984 0.015625)" xlink:href="#DejaVuSans-69"/>
      <use transform="translate(88.867188 0.015625)" xlink:href="#DejaVuSans-6d"/>
      <use transform="translate(186.279297 0.015625)" xlink:href="#DejaVuSans-65"/>
      <use transform="translate(247.802734 0.015625)" xlink:href="#DejaVuSans-20"/>
      <use transform="translate(279.589844 0.015625)" xlink:href="#DejaVuSans-28"/>
      <use transform="translate(318.603516 0.015625)" xlink:href="#DejaVuSans-Oblique-3bc"/>
      <use transform="translate(382.226562 0.015625)" xlink:href="#DejaVuSans-Oblique-73"/>
      <use transform="translate(434.326172 0.015625)" xlink:href="#DejaVuSans-29"/>
     </g>
    </g>
   </g>
   <g id="matplotlib.axis_2">
    <g id="ytick_1">
     <g id="line2d_9">
      <path clip-path="url(#p1da729468f)" d="M 61.410938 279.010828 
L 418.530938 279.010828 
" style="fill:none;stroke:#b0b0b0;stroke-linecap:square;stroke-width:0.8;"/>
     </g>
     <g id="line2d_10">
      <defs>
       <path d="M 0 0 
L -3.5 0 
" id="mc3ce260a5b" style="stroke:#000000;stroke-width:0.8;"/>
      </defs>
      <g>
       <use style="stroke:#000000;stroke-width:0.8;" x="61.410938" xlink:href="#mc3ce260a5b" y="279.010828"/>
      </g>
     </g>
     <g id="text_6">
      <!-- 0.0 -->
      <defs>
       <path d="M 10.6875 12.40625 
L 21 12.40625 
L 21 0 
L 10.6875 0 
z
" id="DejaVuSans-2e"/>
      </defs>
      <g transform="translate(30.55625 284.709656)scale(0.15 -0.15)">
       <use xlink:href="#DejaVuSans-30"/>
       <use x="63.623047" xlink:href="#DejaVuSans-2e"/>
       <use x="95.410156" xlink:href="#DejaVuSans-30"/>
      </g>
     </g>
    </g>
    <g id="ytick_2">
     <g id="line2d_11">
      <path clip-path="url(#p1da729468f)" d="M 61.410938 225.788428 
L 418.530938 225.788428 
" style="fill:none;stroke:#b0b0b0;stroke-linecap:square;stroke-width:0.8;"/>
     </g>
     <g id="line2d_12">
      <g>
       <use style="stroke:#000000;stroke-width:0.8;" x="61.410938" xlink:href="#mc3ce260a5b" y="225.788428"/>
      </g>
     </g>
     <g id="text_7">
      <!-- 0.2 -->
      <defs>
       <path d="M 19.1875 8.296875 
L 53.609375 8.296875 
L 53.609375 0 
L 7.328125 0 
L 7.328125 8.296875 
Q 12.9375 14.109375 22.625 23.890625 
Q 32.328125 33.6875 34.8125 36.53125 
Q 39.546875 41.84375 41.421875 45.53125 
Q 43.3125 49.21875 43.3125 52.78125 
Q 43.3125 58.59375 39.234375 62.25 
Q 35.15625 65.921875 28.609375 65.921875 
Q 23.96875 65.921875 18.8125 64.3125 
Q 13.671875 62.703125 7.8125 59.421875 
L 7.8125 69.390625 
Q 13.765625 71.78125 18.9375 73 
Q 24.125 74.21875 28.421875 74.21875 
Q 39.75 74.21875 46.484375 68.546875 
Q 53.21875 62.890625 53.21875 53.421875 
Q 53.21875 48.921875 51.53125 44.890625 
Q 49.859375 40.875 45.40625 35.40625 
Q 44.1875 33.984375 37.640625 27.21875 
Q 31.109375 20.453125 19.1875 8.296875 
z
" id="DejaVuSans-32"/>
      </defs>
      <g transform="translate(30.55625 231.487256)scale(0.15 -0.15)">
       <use xlink:href="#DejaVuSans-30"/>
       <use x="63.623047" xlink:href="#DejaVuSans-2e"/>
       <use x="95.410156" xlink:href="#DejaVuSans-32"/>
      </g>
     </g>
    </g>
    <g id="ytick_3">
     <g id="line2d_13">
      <path clip-path="url(#p1da729468f)" d="M 61.410938 172.566028 
L 418.530938 172.566028 
" style="fill:none;stroke:#b0b0b0;stroke-linecap:square;stroke-width:0.8;"/>
     </g>
     <g id="line2d_14">
      <g>
       <use style="stroke:#000000;stroke-width:0.8;" x="61.410938" xlink:href="#mc3ce260a5b" y="172.566028"/>
      </g>
     </g>
     <g id="text_8">
      <!-- 0.4 -->
      <defs>
       <path d="M 37.796875 64.3125 
L 12.890625 25.390625 
L 37.796875 25.390625 
z
M 35.203125 72.90625 
L 47.609375 72.90625 
L 47.609375 25.390625 
L 58.015625 25.390625 
L 58.015625 17.1875 
L 47.609375 17.1875 
L 47.609375 0 
L 37.796875 0 
L 37.796875 17.1875 
L 4.890625 17.1875 
L 4.890625 26.703125 
z
" id="DejaVuSans-34"/>
      </defs>
      <g transform="translate(30.55625 178.264856)scale(0.15 -0.15)">
       <use xlink:href="#DejaVuSans-30"/>
       <use x="63.623047" xlink:href="#DejaVuSans-2e"/>
       <use x="95.410156" xlink:href="#DejaVuSans-34"/>
      </g>
     </g>
    </g>
    <g id="ytick_4">
     <g id="line2d_15">
      <path clip-path="url(#p1da729468f)" d="M 61.410938 119.343628 
L 418.530938 119.343628 
" style="fill:none;stroke:#b0b0b0;stroke-linecap:square;stroke-width:0.8;"/>
     </g>
     <g id="line2d_16">
      <g>
       <use style="stroke:#000000;stroke-width:0.8;" x="61.410938" xlink:href="#mc3ce260a5b" y="119.343628"/>
      </g>
     </g>
     <g id="text_9">
      <!-- 0.6 -->
      <defs>
       <path d="M 33.015625 40.375 
Q 26.375 40.375 22.484375 35.828125 
Q 18.609375 31.296875 18.609375 23.390625 
Q 18.609375 15.53125 22.484375 10.953125 
Q 26.375 6.390625 33.015625 6.390625 
Q 39.65625 6.390625 43.53125 10.953125 
Q 47.40625 15.53125 47.40625 23.390625 
Q 47.40625 31.296875 43.53125 35.828125 
Q 39.65625 40.375 33.015625 40.375 
z
M 52.59375 71.296875 
L 52.59375 62.3125 
Q 48.875 64.0625 45.09375 64.984375 
Q 41.3125 65.921875 37.59375 65.921875 
Q 27.828125 65.921875 22.671875 59.328125 
Q 17.53125 52.734375 16.796875 39.40625 
Q 19.671875 43.65625 24.015625 45.921875 
Q 28.375 48.1875 33.59375 48.1875 
Q 44.578125 48.1875 50.953125 41.515625 
Q 57.328125 34.859375 57.328125 23.390625 
Q 57.328125 12.15625 50.6875 5.359375 
Q 44.046875 -1.421875 33.015625 -1.421875 
Q 20.359375 -1.421875 13.671875 8.265625 
Q 6.984375 17.96875 6.984375 36.375 
Q 6.984375 53.65625 15.1875 63.9375 
Q 23.390625 74.21875 37.203125 74.21875 
Q 40.921875 74.21875 44.703125 73.484375 
Q 48.484375 72.75 52.59375 71.296875 
z
" id="DejaVuSans-36"/>
      </defs>
      <g transform="translate(30.55625 125.042456)scale(0.15 -0.15)">
       <use xlink:href="#DejaVuSans-30"/>
       <use x="63.623047" xlink:href="#DejaVuSans-2e"/>
       <use x="95.410156" xlink:href="#DejaVuSans-36"/>
      </g>
     </g>
    </g>
    <g id="ytick_5">
     <g id="line2d_17">
      <path clip-path="url(#p1da729468f)" d="M 61.410938 66.121228 
L 418.530938 66.121228 
" style="fill:none;stroke:#b0b0b0;stroke-linecap:square;stroke-width:0.8;"/>
     </g>
     <g id="line2d_18">
      <g>
       <use style="stroke:#000000;stroke-width:0.8;" x="61.410938" xlink:href="#mc3ce260a5b" y="66.121228"/>
      </g>
     </g>
     <g id="text_10">
      <!-- 0.8 -->
      <defs>
       <path d="M 31.78125 34.625 
Q 24.75 34.625 20.71875 30.859375 
Q 16.703125 27.09375 16.703125 20.515625 
Q 16.703125 13.921875 20.71875 10.15625 
Q 24.75 6.390625 31.78125 6.390625 
Q 38.8125 6.390625 42.859375 10.171875 
Q 46.921875 13.96875 46.921875 20.515625 
Q 46.921875 27.09375 42.890625 30.859375 
Q 38.875 34.625 31.78125 34.625 
z
M 21.921875 38.8125 
Q 15.578125 40.375 12.03125 44.71875 
Q 8.5 49.078125 8.5 55.328125 
Q 8.5 64.0625 14.71875 69.140625 
Q 20.953125 74.21875 31.78125 74.21875 
Q 42.671875 74.21875 48.875 69.140625 
Q 55.078125 64.0625 55.078125 55.328125 
Q 55.078125 49.078125 51.53125 44.71875 
Q 48 40.375 41.703125 38.8125 
Q 48.828125 37.15625 52.796875 32.3125 
Q 56.78125 27.484375 56.78125 20.515625 
Q 56.78125 9.90625 50.3125 4.234375 
Q 43.84375 -1.421875 31.78125 -1.421875 
Q 19.734375 -1.421875 13.25 4.234375 
Q 6.78125 9.90625 6.78125 20.515625 
Q 6.78125 27.484375 10.78125 32.3125 
Q 14.796875 37.15625 21.921875 38.8125 
z
M 18.3125 54.390625 
Q 18.3125 48.734375 21.84375 45.5625 
Q 25.390625 42.390625 31.78125 42.390625 
Q 38.140625 42.390625 41.71875 45.5625 
Q 45.3125 48.734375 45.3125 54.390625 
Q 45.3125 60.0625 41.71875 63.234375 
Q 38.140625 66.40625 31.78125 66.40625 
Q 25.390625 66.40625 21.84375 63.234375 
Q 18.3125 60.0625 18.3125 54.390625 
z
" id="DejaVuSans-38"/>
      </defs>
      <g transform="translate(30.55625 71.820056)scale(0.15 -0.15)">
       <use xlink:href="#DejaVuSans-30"/>
       <use x="63.623047" xlink:href="#DejaVuSans-2e"/>
       <use x="95.410156" xlink:href="#DejaVuSans-38"/>
      </g>
     </g>
    </g>
    <g id="ytick_6">
     <g id="line2d_19">
      <path clip-path="url(#p1da729468f)" d="M 61.410938 12.898828 
L 418.530938 12.898828 
" style="fill:none;stroke:#b0b0b0;stroke-linecap:square;stroke-width:0.8;"/>
     </g>
     <g id="line2d_20">
      <g>
       <use style="stroke:#000000;stroke-width:0.8;" x="61.410938" xlink:href="#mc3ce260a5b" y="12.898828"/>
      </g>
     </g>
     <g id="text_11">
      <!-- 1.0 -->
      <g transform="translate(30.55625 18.597656)scale(0.15 -0.15)">
       <use xlink:href="#DejaVuSans-31"/>
       <use x="63.623047" xlink:href="#DejaVuSans-2e"/>
       <use x="95.410156" xlink:href="#DejaVuSans-30"/>
      </g>
     </g>
    </g>
    <g id="text_12">
     <!-- Survival -->
     <defs>
      <path d="M 53.515625 70.515625 
L 53.515625 60.890625 
Q 47.90625 63.578125 42.921875 64.890625 
Q 37.9375 66.21875 33.296875 66.21875 
Q 25.25 66.21875 20.875 63.09375 
Q 16.5 59.96875 16.5 54.203125 
Q 16.5 49.359375 19.40625 46.890625 
Q 22.3125 44.4375 30.421875 42.921875 
L 36.375 41.703125 
Q 47.40625 39.59375 52.65625 34.296875 
Q 57.90625 29 57.90625 20.125 
Q 57.90625 9.515625 50.796875 4.046875 
Q 43.703125 -1.421875 29.984375 -1.421875 
Q 24.8125 -1.421875 18.96875 -0.25 
Q 13.140625 0.921875 6.890625 3.21875 
L 6.890625 13.375 
Q 12.890625 10.015625 18.65625 8.296875 
Q 24.421875 6.59375 29.984375 6.59375 
Q 38.421875 6.59375 43.015625 9.90625 
Q 47.609375 13.234375 47.609375 19.390625 
Q 47.609375 24.75 44.3125 27.78125 
Q 41.015625 30.8125 33.5 32.328125 
L 27.484375 33.5 
Q 16.453125 35.6875 11.515625 40.375 
Q 6.59375 45.0625 6.59375 53.421875 
Q 6.59375 63.09375 13.40625 68.65625 
Q 20.21875 74.21875 32.171875 74.21875 
Q 37.3125 74.21875 42.625 73.28125 
Q 47.953125 72.359375 53.515625 70.515625 
z
" id="DejaVuSans-53"/>
      <path d="M 8.5 21.578125 
L 8.5 54.6875 
L 17.484375 54.6875 
L 17.484375 21.921875 
Q 17.484375 14.15625 20.5 10.265625 
Q 23.53125 6.390625 29.59375 6.390625 
Q 36.859375 6.390625 41.078125 11.03125 
Q 45.3125 15.671875 45.3125 23.6875 
L 45.3125 54.6875 
L 54.296875 54.6875 
L 54.296875 0 
L 45.3125 0 
L 45.3125 8.40625 
Q 42.046875 3.421875 37.71875 1 
Q 33.40625 -1.421875 27.6875 -1.421875 
Q 18.265625 -1.421875 13.375 4.4375 
Q 8.5 10.296875 8.5 21.578125 
z
M 31.109375 56 
z
" id="DejaVuSans-75"/>
      <path d="M 41.109375 46.296875 
Q 39.59375 47.171875 37.8125 47.578125 
Q 36.03125 48 33.890625 48 
Q 26.265625 48 22.1875 43.046875 
Q 18.109375 38.09375 18.109375 28.8125 
L 18.109375 0 
L 9.078125 0 
L 9.078125 54.6875 
L 18.109375 54.6875 
L 18.109375 46.1875 
Q 20.953125 51.171875 25.484375 53.578125 
Q 30.03125 56 36.53125 56 
Q 37.453125 56 38.578125 55.875 
Q 39.703125 55.765625 41.0625 55.515625 
z
" id="DejaVuSans-72"/>
      <path d="M 2.984375 54.6875 
L 12.5 54.6875 
L 29.59375 8.796875 
L 46.6875 54.6875 
L 56.203125 54.6875 
L 35.6875 0 
L 23.484375 0 
z
" id="DejaVuSans-76"/>
      <path d="M 34.28125 27.484375 
Q 23.390625 27.484375 19.1875 25 
Q 14.984375 22.515625 14.984375 16.5 
Q 14.984375 11.71875 18.140625 8.90625 
Q 21.296875 6.109375 26.703125 6.109375 
Q 34.1875 6.109375 38.703125 11.40625 
Q 43.21875 16.703125 43.21875 25.484375 
L 43.21875 27.484375 
z
M 52.203125 31.203125 
L 52.203125 0 
L 43.21875 0 
L 43.21875 8.296875 
Q 40.140625 3.328125 35.546875 0.953125 
Q 30.953125 -1.421875 24.3125 -1.421875 
Q 15.921875 -1.421875 10.953125 3.296875 
Q 6 8.015625 6 15.921875 
Q 6 25.140625 12.171875 29.828125 
Q 18.359375 34.515625 30.609375 34.515625 
L 43.21875 34.515625 
L 43.21875 35.40625 
Q 43.21875 41.609375 39.140625 45 
Q 35.0625 48.390625 27.6875 48.390625 
Q 23 48.390625 18.546875 47.265625 
Q 14.109375 46.140625 10.015625 43.890625 
L 10.015625 52.203125 
Q 14.9375 54.109375 19.578125 55.046875 
Q 24.21875 56 28.609375 56 
Q 40.484375 56 46.34375 49.84375 
Q 52.203125 43.703125 52.203125 31.203125 
z
" id="DejaVuSans-61"/>
      <path d="M 9.421875 75.984375 
L 18.40625 75.984375 
L 18.40625 0 
L 9.421875 0 
z
" id="DejaVuSans-6c"/>
     </defs>
     <g transform="translate(22.396875 186.273578)rotate(-90)scale(0.2 -0.2)">
      <use xlink:href="#DejaVuSans-53"/>
      <use x="63.476562" xlink:href="#DejaVuSans-75"/>
      <use x="126.855469" xlink:href="#DejaVuSans-72"/>
      <use x="167.96875" xlink:href="#DejaVuSans-76"/>
      <use x="227.148438" xlink:href="#DejaVuSans-69"/>
      <use x="254.931641" xlink:href="#DejaVuSans-76"/>
      <use x="314.111328" xlink:href="#DejaVuSans-61"/>
      <use x="375.390625" xlink:href="#DejaVuSans-6c"/>
     </g>
    </g>
   </g>
   <g id="LineCollection_1">
    <path clip-path="url(#p1da729468f)" d="M 61.410938 279.010828 
L 61.410938 277.828108 
" style="fill:none;stroke:#1f77b4;stroke-width:1.5;"/>
    <path clip-path="url(#p1da729468f)" d="M 72.688411 233.724327 
L 72.688411 219.11973 
" style="fill:none;stroke:#1f77b4;stroke-width:1.5;"/>
    <path clip-path="url(#p1da729468f)" d="M 83.965885 143.396797 
L 83.965885 126.244073 
" style="fill:none;stroke:#1f77b4;stroke-width:1.5;"/>
    <path clip-path="url(#p1da729468f)" d="M 95.243359 47.534715 
L 95.243359 36.474941 
" style="fill:none;stroke:#1f77b4;stroke-width:1.5;"/>
    <path clip-path="url(#p1da729468f)" d="M 106.520832 49.304225 
L 106.520832 37.504475 
" style="fill:none;stroke:#1f77b4;stroke-width:1.5;"/>
    <path clip-path="url(#p1da729468f)" d="M 117.798306 122.5775 
L 117.798306 104.970184 
" style="fill:none;stroke:#1f77b4;stroke-width:1.5;"/>
    <path clip-path="url(#p1da729468f)" d="M 129.07578 189.370912 
L 129.07578 171.851637 
" style="fill:none;stroke:#1f77b4;stroke-width:1.5;"/>
    <path clip-path="url(#p1da729468f)" d="M 140.353253 227.574564 
L 140.353253 212.835092 
" style="fill:none;stroke:#1f77b4;stroke-width:1.5;"/>
    <path clip-path="url(#p1da729468f)" d="M 151.630727 198.254093 
L 151.630727 181.986858 
" style="fill:none;stroke:#1f77b4;stroke-width:1.5;"/>
    <path clip-path="url(#p1da729468f)" d="M 162.908201 120.373779 
L 162.908201 103.592388 
" style="fill:none;stroke:#1f77b4;stroke-width:1.5;"/>
    <path clip-path="url(#p1da729468f)" d="M 174.185674 61.376425 
L 174.185674 48.127823 
" style="fill:none;stroke:#1f77b4;stroke-width:1.5;"/>
    <path clip-path="url(#p1da729468f)" d="M 185.463148 46.173713 
L 185.463148 35.705397 
" style="fill:none;stroke:#1f77b4;stroke-width:1.5;"/>
    <path clip-path="url(#p1da729468f)" d="M 196.740622 94.710697 
L 196.740622 78.21619 
" style="fill:none;stroke:#1f77b4;stroke-width:1.5;"/>
    <path clip-path="url(#p1da729468f)" d="M 208.018095 150.091357 
L 208.018095 132.439903 
" style="fill:none;stroke:#1f77b4;stroke-width:1.5;"/>
    <path clip-path="url(#p1da729468f)" d="M 219.295569 246.578381 
L 219.295569 233.827275 
" style="fill:none;stroke:#1f77b4;stroke-width:1.5;"/>
    <path clip-path="url(#p1da729468f)" d="M 230.573043 249.424998 
L 230.573043 237.230258 
" style="fill:none;stroke:#1f77b4;stroke-width:1.5;"/>
    <path clip-path="url(#p1da729468f)" d="M 241.850516 181.294811 
L 241.850516 164.069658 
" style="fill:none;stroke:#1f77b4;stroke-width:1.5;"/>
    <path clip-path="url(#p1da729468f)" d="M 253.12799 79.517377 
L 253.12799 64.414111 
" style="fill:none;stroke:#1f77b4;stroke-width:1.5;"/>
    <path clip-path="url(#p1da729468f)" d="M 264.405464 45.769903 
L 264.405464 35.422496 
" style="fill:none;stroke:#1f77b4;stroke-width:1.5;"/>
    <path clip-path="url(#p1da729468f)" d="M 275.682938 90.201979 
L 275.682938 74.591677 
" style="fill:none;stroke:#1f77b4;stroke-width:1.5;"/>
    <path clip-path="url(#p1da729468f)" d="M 286.960411 179.448594 
L 286.960411 162.212436 
" style="fill:none;stroke:#1f77b4;stroke-width:1.5;"/>
    <path clip-path="url(#p1da729468f)" d="M 298.237885 252.031273 
L 298.237885 240.08414 
" style="fill:none;stroke:#1f77b4;stroke-width:1.5;"/>
    <path clip-path="url(#p1da729468f)" d="M 309.515359 234.759467 
L 309.515359 220.820844 
" style="fill:none;stroke:#1f77b4;stroke-width:1.5;"/>
    <path clip-path="url(#p1da729468f)" d="M 320.792832 170.005568 
L 320.792832 151.888539 
" style="fill:none;stroke:#1f77b4;stroke-width:1.5;"/>
    <path clip-path="url(#p1da729468f)" d="M 332.070306 81.447616 
L 332.070306 66.108833 
" style="fill:none;stroke:#1f77b4;stroke-width:1.5;"/>
    <path clip-path="url(#p1da729468f)" d="M 343.34778 41.520484 
L 343.34778 31.163572 
" style="fill:none;stroke:#1f77b4;stroke-width:1.5;"/>
    <path clip-path="url(#p1da729468f)" d="M 354.625253 69.126463 
L 354.625253 55.61027 
" style="fill:none;stroke:#1f77b4;stroke-width:1.5;"/>
    <path clip-path="url(#p1da729468f)" d="M 365.902727 143.028574 
L 365.902727 125.435091 
" style="fill:none;stroke:#1f77b4;stroke-width:1.5;"/>
    <path clip-path="url(#p1da729468f)" d="M 377.180201 216.170886 
L 377.180201 200.32757 
" style="fill:none;stroke:#1f77b4;stroke-width:1.5;"/>
    <path clip-path="url(#p1da729468f)" d="M 388.457674 232.381492 
L 388.457674 217.985764 
" style="fill:none;stroke:#1f77b4;stroke-width:1.5;"/>
    <path clip-path="url(#p1da729468f)" d="M 399.735148 185.207707 
L 399.735148 168.537103 
" style="fill:none;stroke:#1f77b4;stroke-width:1.5;"/>
   </g>
   <g id="LineCollection_2">
    <path clip-path="url(#p1da729468f)" d="M 61.410938 274.780846 
L 61.410938 267.789145 
" style="fill:none;stroke:#d62728;stroke-width:1.5;"/>
    <path clip-path="url(#p1da729468f)" d="M 72.688411 205.362532 
L 72.688411 186.339125 
" style="fill:none;stroke:#d62728;stroke-width:1.5;"/>
    <path clip-path="url(#p1da729468f)" d="M 83.965885 83.68147 
L 83.965885 65.078282 
" style="fill:none;stroke:#d62728;stroke-width:1.5;"/>
    <path clip-path="url(#p1da729468f)" d="M 95.243359 116.112645 
L 95.243359 96.287938 
" style="fill:none;stroke:#d62728;stroke-width:1.5;"/>
    <path clip-path="url(#p1da729468f)" d="M 106.520832 196.713543 
L 106.520832 176.692913 
" style="fill:none;stroke:#d62728;stroke-width:1.5;"/>
    <path clip-path="url(#p1da729468f)" d="M 117.798306 159.743592 
L 117.798306 138.777543 
" style="fill:none;stroke:#d62728;stroke-width:1.5;"/>
    <path clip-path="url(#p1da729468f)" d="M 129.07578 139.971453 
L 129.07578 119.286424 
" style="fill:none;stroke:#d62728;stroke-width:1.5;"/>
    <path clip-path="url(#p1da729468f)" d="M 140.353253 186.753956 
L 140.353253 165.304303 
" style="fill:none;stroke:#d62728;stroke-width:1.5;"/>
    <path clip-path="url(#p1da729468f)" d="M 151.630727 157.155879 
L 151.630727 136.376412 
" style="fill:none;stroke:#d62728;stroke-width:1.5;"/>
    <path clip-path="url(#p1da729468f)" d="M 162.908201 153.229479 
L 162.908201 131.723001 
" style="fill:none;stroke:#d62728;stroke-width:1.5;"/>
    <path clip-path="url(#p1da729468f)" d="M 174.185674 126.605353 
L 174.185674 105.1557 
" style="fill:none;stroke:#d62728;stroke-width:1.5;"/>
    <path clip-path="url(#p1da729468f)" d="M 185.463148 141.224476 
L 185.463148 120.943251 
" style="fill:none;stroke:#d62728;stroke-width:1.5;"/>
    <path clip-path="url(#p1da729468f)" d="M 196.740622 137.351633 
L 196.740622 114.541182 
" style="fill:none;stroke:#d62728;stroke-width:1.5;"/>
    <path clip-path="url(#p1da729468f)" d="M 208.018095 152.33771 
L 208.018095 131.042715 
" style="fill:none;stroke:#d62728;stroke-width:1.5;"/>
    <path clip-path="url(#p1da729468f)" d="M 219.295569 182.191503 
L 219.295569 161.223702 
" style="fill:none;stroke:#d62728;stroke-width:1.5;"/>
    <path clip-path="url(#p1da729468f)" d="M 230.573043 215.607072 
L 230.573043 196.806131 
" style="fill:none;stroke:#d62728;stroke-width:1.5;"/>
   </g>
   <g id="line2d_21">
    <path clip-path="url(#p1da729468f)" d="M 61.410938 278.518987 
L 62.125178 278.518987 
L 62.482298 278.147587 
L 62.839418 278.122749 
L 63.553658 276.975052 
L 63.910778 276.394909 
L 64.267898 276.183919 
L 64.982138 273.996272 
L 65.339258 273.753284 
L 65.696378 272.007729 
L 66.053498 269.616644 
L 66.410618 269.310086 
L 67.481978 265.082075 
L 67.839098 262.429717 
L 69.267578 255.471957 
L 69.624698 252.590289 
L 69.981818 250.9184 
L 70.338938 248.064827 
L 71.053178 244.022382 
L 71.410298 241.955731 
L 71.767418 238.866496 
L 72.124538 236.804348 
L 72.481658 233.432669 
L 72.838778 231.258654 
L 74.624378 216.039916 
L 74.981498 212.367255 
L 75.338618 210.188339 
L 75.695738 205.957507 
L 76.052858 204.098326 
L 76.767098 196.158522 
L 77.124218 193.884535 
L 77.838458 187.30586 
L 78.552698 180.93039 
L 79.266938 173.171047 
L 80.695418 159.868249 
L 81.766778 148.410714 
L 82.481018 142.561856 
L 82.838138 138.249821 
L 83.195258 136.319876 
L 83.909498 128.41785 
L 84.266618 125.746552 
L 85.337978 115.246182 
L 85.695098 112.640508 
L 86.409338 105.516194 
L 86.766458 102.8125 
L 87.480698 95.977221 
L 88.552058 87.580518 
L 88.909178 84.42453 
L 89.266298 82.9132 
L 89.623418 77.806 
L 89.980538 76.582767 
L 90.337658 73.534797 
L 90.694778 71.543626 
L 91.051898 68.147622 
L 91.409018 66.553356 
L 91.766138 63.540519 
L 92.123258 61.641175 
L 92.480378 60.513316 
L 93.908858 50.839761 
L 94.265978 50.502235 
L 94.980218 45.974704 
L 96.765818 39.663342 
L 97.122938 38.450845 
L 97.480058 38.020014 
L 97.837178 38.064671 
L 98.194298 35.443809 
L 98.551418 34.612794 
L 98.908538 34.438075 
L 99.265658 34.806847 
L 99.622778 33.882252 
L 100.694138 32.622338 
L 101.051258 32.819812 
L 101.408378 33.317237 
L 102.122618 32.396025 
L 102.479738 33.059101 
L 102.836858 33.415881 
L 103.193978 33.486409 
L 103.551098 34.926533 
L 104.622458 37.336562 
L 104.979578 37.651789 
L 106.050938 42.216578 
L 106.408058 42.571589 
L 106.765178 43.485044 
L 107.122298 45.608212 
L 107.479418 46.854621 
L 108.550778 52.492083 
L 108.907898 53.249933 
L 109.265018 55.765481 
L 109.622138 57.137975 
L 109.979258 60.268542 
L 110.336378 62.015556 
L 110.693498 64.883893 
L 111.050618 65.69275 
L 111.407738 68.72806 
L 111.764858 70.71485 
L 112.479098 76.219716 
L 113.193338 80.722259 
L 113.550458 82.919009 
L 113.907578 87.079327 
L 114.264698 88.772561 
L 114.621818 92.422097 
L 114.978938 94.914932 
L 115.693178 101.300878 
L 116.050298 103.773535 
L 116.407418 105.436632 
L 116.764538 109.689745 
L 117.121658 112.505848 
L 117.835898 119.751329 
L 119.264378 131.276608 
L 120.335738 141.765347 
L 122.121338 156.715504 
L 122.478458 160.795051 
L 123.192698 166.428674 
L 123.549818 170.090651 
L 123.906938 172.134686 
L 125.692538 188.680193 
L 126.406778 194.431733 
L 127.121018 200.257174 
L 127.478138 202.168998 
L 129.263738 216.882189 
L 129.620858 218.603918 
L 129.977978 221.440002 
L 130.335098 222.954011 
L 131.406458 231.475904 
L 132.477818 237.437229 
L 133.192058 240.753258 
L 133.549178 243.523869 
L 133.906298 244.197488 
L 134.620538 248.064827 
L 135.334778 250.691151 
L 136.049018 254.295436 
L 136.406138 254.068429 
L 136.763258 256.403782 
L 137.120378 257.898643 
L 137.477498 257.885477 
L 138.548858 261.620494 
L 138.905978 262.280636 
L 139.263098 261.945241 
L 139.620218 262.981653 
L 139.977338 262.134945 
L 140.334458 263.48003 
L 140.691578 263.95663 
L 141.048698 264.740265 
L 141.405818 264.519033 
L 141.762938 265.532165 
L 142.120058 264.450566 
L 142.477178 264.930159 
L 142.834298 264.409316 
L 143.191418 264.711402 
L 143.548538 263.57301 
L 143.905658 263.393411 
L 144.262778 262.429717 
L 144.619898 262.361575 
L 144.977018 261.398469 
L 145.334138 261.38304 
L 145.691258 260.125497 
L 146.048378 259.926914 
L 146.405498 257.951308 
L 146.762618 257.215846 
L 147.119738 255.129117 
L 147.833978 253.585949 
L 148.191098 251.786736 
L 148.548218 249.36201 
L 148.905338 248.05865 
L 149.262458 247.341965 
L 149.619578 245.016012 
L 149.976698 244.659006 
L 151.405178 236.552068 
L 151.762298 234.892095 
L 152.119418 231.961174 
L 152.476538 230.34074 
L 152.833658 227.200977 
L 153.190778 226.310572 
L 153.547898 222.936481 
L 153.905018 221.612241 
L 154.262138 218.058695 
L 154.619258 216.120858 
L 155.333498 211.739002 
L 156.404858 204.359724 
L 157.119098 197.603799 
L 157.476218 195.756204 
L 158.190458 190.203773 
L 158.904698 184.949598 
L 159.618938 178.043328 
L 161.047418 167.99392 
L 161.404538 163.275165 
L 161.761658 161.478955 
L 164.618618 138.586632 
L 164.975738 136.299388 
L 165.332858 132.189432 
L 167.475578 116.666731 
L 167.832698 112.119822 
L 168.189818 110.692926 
L 169.261178 102.831583 
L 169.618298 101.320241 
L 169.975418 97.432004 
L 170.332538 96.143485 
L 170.689658 91.970651 
L 171.046778 90.64439 
L 171.761018 85.687462 
L 172.118138 84.549387 
L 172.475258 80.728208 
L 172.832378 79.641579 
L 174.260858 71.830259 
L 174.975098 68.865013 
L 175.332218 66.378913 
L 176.046458 63.749105 
L 176.403578 62.972368 
L 177.117818 57.559509 
L 177.474938 57.918378 
L 177.832058 57.221818 
L 178.546298 54.075159 
L 178.903418 54.164513 
L 179.260538 52.700102 
L 179.617658 51.950282 
L 179.974778 51.706974 
L 180.689018 49.263854 
L 181.046138 49.476393 
L 181.403258 49.404139 
L 182.117498 48.112459 
L 182.474618 48.360144 
L 182.831738 47.454614 
L 183.188858 48.360144 
L 183.545978 47.350669 
L 183.903098 48.277039 
L 184.260218 48.51014 
L 184.974457 49.263854 
L 185.331578 49.251662 
L 185.688698 49.368012 
L 186.402938 51.044674 
L 186.760058 51.312259 
L 187.117178 51.334702 
L 188.188538 55.550385 
L 188.545658 55.755704 
L 188.902778 58.192681 
L 189.259898 58.388436 
L 190.331258 62.948086 
L 190.688378 63.387979 
L 191.045498 64.548208 
L 191.759738 69.192751 
L 192.116858 70.589674 
L 192.473978 72.734429 
L 192.831098 73.693857 
L 193.545338 78.230295 
L 193.902458 80.478116 
L 194.259578 81.324182 
L 194.973818 87.134494 
L 195.330938 87.717671 
L 195.688058 91.487404 
L 196.045178 93.315978 
L 196.759418 98.289876 
L 197.116538 99.878724 
L 197.830778 106.194808 
L 198.187898 107.560698 
L 198.902138 113.366491 
L 199.616378 117.808897 
L 200.330618 124.393707 
L 201.044858 129.376069 
L 201.401978 133.324348 
L 202.116218 138.098212 
L 206.044538 170.090651 
L 206.401658 173.345313 
L 206.758778 175.361996 
L 208.187258 186.561373 
L 208.544378 190.460614 
L 209.258618 194.797395 
L 209.972858 200.130209 
L 210.687098 206.678503 
L 211.758458 212.803609 
L 212.115578 215.94818 
L 212.472698 217.422787 
L 212.829818 221.12205 
L 213.186938 222.290438 
L 214.972538 233.378187 
L 215.329658 234.382185 
L 215.686778 238.297036 
L 216.043898 239.271737 
L 216.758138 242.575596 
L 217.472378 246.196794 
L 217.829498 248.659818 
L 218.186618 249.479106 
L 218.543738 249.488883 
L 218.900858 251.060924 
L 219.257978 253.232058 
L 219.615098 253.199142 
L 219.972218 255.811117 
L 220.329338 257.53976 
L 220.686458 257.885477 
L 221.043578 257.53976 
L 221.400698 258.897955 
L 221.757818 257.682684 
L 222.114938 259.826736 
L 222.472058 260.869871 
L 222.829178 260.615523 
L 223.900538 262.801427 
L 224.257658 261.573472 
L 224.614778 262.136363 
L 224.971898 262.280636 
L 225.329018 261.977095 
L 225.686138 261.849681 
L 226.043258 261.573472 
L 226.757498 260.899794 
L 227.114618 259.955537 
L 227.471738 260.67537 
L 227.828858 259.226645 
L 228.185978 258.267226 
L 228.543098 258.069805 
L 229.257338 255.01156 
L 229.614458 253.619235 
L 229.971578 253.210114 
L 230.328698 252.397086 
L 231.042938 249.527992 
L 231.400058 248.11185 
L 231.757178 247.315165 
L 232.828538 240.651374 
L 233.185658 240.370241 
L 236.756858 219.188777 
L 237.113978 216.045312 
L 237.471098 214.740759 
L 239.256698 200.050268 
L 239.613818 198.283299 
L 239.970938 194.345666 
L 240.685178 189.647987 
L 241.042298 186.478718 
L 241.399418 184.410565 
L 242.113658 176.667691 
L 242.470778 174.895325 
L 242.827898 171.1761 
L 243.185018 169.070225 
L 243.542138 165.318747 
L 244.613498 157.439948 
L 244.970618 153.308961 
L 245.327738 151.06792 
L 245.684858 147.034677 
L 246.399098 142.265197 
L 246.756218 138.171968 
L 247.113338 136.602607 
L 247.470458 131.832601 
L 247.827578 129.707426 
L 248.184698 126.105263 
L 248.898938 121.273563 
L 249.256058 117.686551 
L 249.613178 115.554044 
L 250.327418 109.999194 
L 252.827258 91.229215 
L 254.255738 81.164526 
L 254.612858 79.227756 
L 255.684218 71.64649 
L 256.041337 70.700941 
L 256.398458 67.252335 
L 256.755578 66.295994 
L 257.469818 62.062762 
L 257.826938 61.327916 
L 258.184057 59.28977 
L 258.541178 58.270662 
L 258.898298 56.131053 
L 259.255418 55.833884 
L 259.612538 54.003154 
L 260.326777 51.55164 
L 260.683898 51.078726 
L 261.041018 48.762101 
L 261.398138 47.224449 
L 261.755258 47.662503 
L 262.469498 45.531631 
L 262.826617 45.274031 
L 263.183738 45.176888 
L 263.540858 45.374209 
L 263.897978 44.032795 
L 264.255098 44.047173 
L 264.612218 43.878504 
L 264.969337 44.678912 
L 265.326458 43.46937 
L 265.683578 43.206308 
L 266.040698 43.832216 
L 266.754938 45.678745 
L 267.112057 45.523571 
L 267.469178 46.276156 
L 267.826298 46.113784 
L 268.897658 49.64812 
L 269.254778 49.612428 
L 269.611897 51.267373 
L 269.969018 51.773546 
L 270.683258 55.462391 
L 271.397498 57.771773 
L 271.754617 59.870875 
L 272.468858 62.243803 
L 272.825978 64.665767 
L 273.540218 67.697693 
L 274.611578 74.37282 
L 274.968698 76.066813 
L 275.682938 80.847184 
L 276.040058 82.37811 
L 276.754298 87.977967 
L 277.468538 92.754449 
L 278.182778 98.299751 
L 281.753978 126.7003 
L 282.111098 129.095717 
L 283.182457 139.8353 
L 283.539578 142.537473 
L 283.896698 146.407366 
L 284.253818 148.443091 
L 284.610938 151.241238 
L 284.968058 155.425052 
L 286.039418 163.909121 
L 286.753658 170.572061 
L 287.110778 173.648204 
L 287.467897 175.636998 
L 287.825018 180.134956 
L 288.182138 182.64327 
L 289.253498 192.076651 
L 290.324858 199.525898 
L 290.681978 203.34136 
L 291.753338 210.722042 
L 292.110457 214.234238 
L 292.467578 215.94818 
L 293.181818 221.468709 
L 296.395898 241.386514 
L 296.753017 242.356207 
L 297.110138 245.20658 
L 297.824378 248.234111 
L 298.181498 249.197428 
L 298.895737 253.045534 
L 299.252858 253.552663 
L 299.967098 256.642618 
L 300.324218 257.760642 
L 300.681338 259.254461 
L 301.038457 259.841048 
L 301.395578 260.154541 
L 301.752698 261.495102 
L 302.109818 263.376087 
L 302.466938 262.561378 
L 302.824058 262.380344 
L 303.181177 262.627209 
L 303.538297 264.064352 
L 303.895418 264.391029 
L 304.252538 263.95663 
L 304.609658 265.176856 
L 304.966778 264.599615 
L 305.323898 264.562353 
L 305.681018 263.866861 
L 306.038138 264.89218 
L 306.395258 263.837507 
L 306.752378 264.281312 
L 307.109498 263.57301 
L 307.466618 261.945241 
L 307.823737 261.60482 
L 308.180858 260.955398 
L 308.537978 259.74087 
L 308.895098 259.480084 
L 309.609338 255.654566 
L 309.966458 255.376779 
L 310.323578 253.41952 
L 310.680698 253.210114 
L 311.037818 252.429287 
L 312.466297 245.154607 
L 313.180538 242.387891 
L 314.609018 232.946725 
L 314.966138 232.121309 
L 315.680378 227.028164 
L 316.037498 225.803893 
L 316.394618 222.371762 
L 316.751737 221.036428 
L 317.465978 214.927147 
L 317.823098 213.064854 
L 318.537338 207.451407 
L 319.251578 201.370507 
L 319.608698 199.582059 
L 324.251258 161.637444 
L 324.608378 157.711108 
L 325.322618 152.660027 
L 325.679737 149.18777 
L 326.036857 147.176328 
L 326.393978 143.80945 
L 326.751098 141.614985 
L 327.822458 131.666633 
L 329.250938 121.119486 
L 331.750778 102.431763 
L 332.107898 100.744195 
L 332.465018 97.147722 
L 333.179258 92.863594 
L 333.536378 89.893108 
L 333.893498 88.740006 
L 335.321978 79.791437 
L 335.679098 78.514382 
L 336.036218 75.722781 
L 336.393338 74.359741 
L 337.464697 68.813495 
L 337.821818 68.063304 
L 338.178938 66.740382 
L 338.893178 63.339809 
L 339.250297 63.605759 
L 339.607417 62.460116 
L 339.964538 60.10396 
L 340.321658 59.258663 
L 340.678778 57.624112 
L 341.035898 57.550281 
L 341.393018 56.075915 
L 341.750138 55.35009 
L 342.107258 55.095876 
L 342.464378 55.095876 
L 343.178618 52.850556 
L 343.535737 53.859146 
L 343.892857 54.116304 
L 344.249977 53.0523 
L 344.607098 52.506898 
L 344.964218 52.539099 
L 345.321338 53.951723 
L 345.678458 53.724059 
L 346.035578 54.296856 
L 346.749818 54.256135 
L 347.106938 54.147163 
L 348.178297 56.217339 
L 348.892538 58.49715 
L 349.606778 60.233893 
L 350.678138 63.33178 
L 351.035258 64.914995 
L 351.392378 65.913134 
L 351.749498 67.616629 
L 352.106618 67.946268 
L 352.463737 70.568811 
L 353.892218 77.195083 
L 354.606458 80.924518 
L 354.963578 82.167754 
L 355.677818 87.112427 
L 356.034938 88.506694 
L 356.392058 90.527589 
L 356.749178 94.421581 
L 357.106297 95.666558 
L 358.177658 101.695663 
L 358.534778 105.689359 
L 358.891898 107.381667 
L 359.963257 114.736929 
L 360.677498 119.643049 
L 361.034618 122.781457 
L 361.391738 124.898056 
L 361.748857 128.518275 
L 362.105977 130.407432 
L 364.248698 146.411413 
L 364.605818 148.920657 
L 365.320058 155.247704 
L 365.677178 157.245684 
L 367.105658 168.674113 
L 367.819898 173.316268 
L 369.248378 184.22945 
L 369.962618 188.803083 
L 370.319738 191.018116 
L 370.676857 194.001398 
L 371.033977 195.673912 
L 372.105338 203.288372 
L 373.890938 213.617546 
L 374.605178 217.590849 
L 375.319417 222.737812 
L 375.676537 223.413876 
L 376.390778 227.35336 
L 377.462138 231.954502 
L 377.819258 233.945936 
L 378.176378 234.857077 
L 378.890618 237.731276 
L 379.247738 239.821052 
L 379.604857 239.838913 
L 379.961977 242.291453 
L 380.319097 243.8367 
L 381.033338 244.676179 
L 381.390458 245.300686 
L 381.747578 246.302468 
L 382.104698 246.098935 
L 382.818938 249.537769 
L 383.176058 248.40345 
L 383.533178 250.989662 
L 383.890298 250.745336 
L 384.247417 250.867499 
L 384.604537 250.499699 
L 385.318778 251.480803 
L 385.675898 251.511986 
L 386.033018 250.169254 
L 386.390138 251.304679 
L 386.747258 250.358771 
L 387.461498 251.088666 
L 387.818618 249.40089 
L 388.175738 248.834934 
L 388.532858 248.739062 
L 388.889977 248.234111 
L 389.247097 249.197428 
L 389.961338 246.090038 
L 390.675578 245.309425 
L 391.389818 242.839788 
L 391.746938 241.537824 
L 392.104058 239.675607 
L 392.461178 239.729192 
L 393.889657 233.419049 
L 394.246778 232.899379 
L 394.603898 231.634067 
L 394.961018 229.122959 
L 395.318138 227.970173 
L 395.675258 225.791776 
L 396.032377 225.429841 
L 397.103738 217.843211 
L 397.460858 216.800801 
L 397.817977 215.338162 
L 398.175097 212.491992 
L 398.532218 210.977873 
L 398.889338 208.329 
L 399.246458 207.109006 
L 399.603578 203.553313 
L 399.960698 201.982946 
L 400.317818 198.936603 
L 401.032058 195.461801 
L 402.103417 187.764658 
L 402.460537 185.806091 
L 402.817657 182.784343 
L 403.174778 181.573122 
L 403.889018 175.382829 
L 404.603258 171.498383 
L 405.317498 165.371795 
L 406.031738 161.021692 
L 406.388858 157.804193 
L 406.745977 156.994759 
L 407.103097 153.377482 
L 407.460218 151.43874 
L 408.174458 146.035026 
L 408.531578 144.258319 
L 408.888698 141.04605 
L 409.245818 138.864114 
L 410.317178 130.998612 
L 410.674298 129.325856 
L 411.031418 125.805634 
L 411.388537 124.076298 
L 412.459898 117.572944 
L 414.245497 105.670638 
L 414.602618 103.270474 
L 414.959738 102.783877 
L 416.388218 94.072246 
L 416.745338 92.759646 
L 418.173818 85.220426 
L 418.530938 83.815443 
L 418.530938 83.815443 
" style="fill:none;stroke:#1f77b4;stroke-linecap:square;stroke-width:1.5;"/>
   </g>
   <g id="line2d_22">
    <path clip-path="url(#p1da729468f)" d="M 61.410938 278.50696 
L 62.482298 278.50565 
L 62.839418 277.410055 
L 63.553658 273.675297 
L 63.910778 272.787899 
L 64.625018 268.826821 
L 66.053498 259.196363 
L 66.410618 254.884182 
L 66.767738 253.066544 
L 67.481978 245.008073 
L 69.267578 224.446985 
L 72.838778 175.68203 
L 74.624378 149.913141 
L 78.909818 94.103454 
L 79.624058 87.640053 
L 81.052538 73.787655 
L 81.766778 69.902813 
L 82.123898 68.051902 
L 82.838138 61.733746 
L 83.195258 60.741244 
L 83.552378 58.575132 
L 83.909498 57.231766 
L 84.266618 56.428794 
L 84.623738 55.02093 
L 84.980858 55.16168 
L 85.337978 53.411255 
L 85.695098 54.233149 
L 86.409338 53.365271 
L 86.766458 54.653497 
L 87.480698 55.355866 
L 88.909178 58.906079 
L 89.266298 62.05907 
L 89.980538 64.954732 
L 90.694778 69.729768 
L 91.051898 70.673969 
L 91.409018 74.055276 
L 91.766138 75.770617 
L 93.551738 90.012723 
L 93.908858 92.772222 
L 94.265978 97.40919 
L 94.623098 99.66848 
L 96.408698 115.648472 
L 98.551418 135.800852 
L 98.908538 138.176195 
L 99.979898 148.653732 
L 100.337018 150.590332 
L 100.694138 153.497025 
L 101.051258 155.180355 
L 102.479738 165.745214 
L 103.551098 171.229085 
L 103.908218 173.410676 
L 104.265338 174.62302 
L 104.979578 177.756257 
L 105.336698 178.155709 
L 105.693818 179.264643 
L 106.050938 181.141965 
L 106.408058 181.062792 
L 106.765178 182.96348 
L 107.122298 182.658389 
L 107.479418 184.220521 
L 108.193658 184.389873 
L 108.550778 183.93084 
L 109.265018 183.673413 
L 109.622138 183.67785 
L 110.336378 183.101029 
L 111.050618 181.040799 
L 111.407738 180.732904 
L 111.764858 180.229897 
L 112.121978 178.307675 
L 112.836218 176.662832 
L 113.550458 173.363523 
L 113.907578 173.174909 
L 114.264698 171.700601 
L 114.621818 168.662011 
L 115.336058 167.132199 
L 115.693178 164.977027 
L 116.050298 164.014357 
L 117.478778 156.034458 
L 117.835898 155.250839 
L 118.193018 153.60897 
L 118.550138 151.428561 
L 119.264378 148.942777 
L 119.621498 147.142441 
L 119.978618 145.959355 
L 120.335738 144.267733 
L 120.692858 144.425286 
L 121.049978 141.663962 
L 121.764218 139.4085 
L 122.121338 139.092098 
L 122.478458 136.716359 
L 122.835578 136.160366 
L 123.192698 135.24904 
L 123.549818 135.182153 
L 123.906938 134.278928 
L 125.335418 132.179481 
L 125.692538 132.478762 
L 126.049658 131.677868 
L 126.406778 131.483967 
L 126.763898 132.137328 
L 127.121018 132.327014 
L 127.478138 132.767741 
L 127.835258 131.90549 
L 128.906618 134.31251 
L 129.620858 136.181268 
L 129.977978 135.746507 
L 130.335098 136.398649 
L 130.692218 138.525903 
L 131.049338 138.904754 
L 132.834938 146.386407 
L 133.192058 146.911206 
L 134.263418 150.846343 
L 135.691898 158.211178 
L 136.049018 159.624974 
L 136.406138 162.116456 
L 136.763258 162.05375 
L 137.120378 163.174097 
L 137.477498 165.992881 
L 137.834618 167.165921 
L 138.191738 169.483187 
L 138.548858 170.578735 
L 138.905978 172.720794 
L 139.263098 173.47069 
L 139.977338 176.952494 
L 140.334458 177.138396 
L 140.691578 178.168735 
L 141.048698 180.435731 
L 141.405818 181.682981 
L 141.762938 182.19453 
L 142.120058 183.504804 
L 142.834298 184.76423 
L 144.262778 188.399669 
L 144.619898 188.059427 
L 144.977018 189.167225 
L 145.334138 189.506853 
L 145.691258 190.474954 
L 146.048378 190.631301 
L 146.405498 189.694535 
L 146.762618 190.461159 
L 147.119738 188.679626 
L 147.476858 188.195524 
L 147.833978 188.770766 
L 148.191098 188.172841 
L 148.548218 188.318011 
L 149.262458 186.669206 
L 149.619578 186.633236 
L 149.976698 184.991811 
L 150.333818 185.555831 
L 150.690938 183.664539 
L 151.048058 182.410997 
L 151.405178 182.300555 
L 151.762298 180.308727 
L 152.119418 179.264643 
L 152.833658 175.660505 
L 153.190778 175.221404 
L 153.547898 174.323739 
L 154.262138 170.459716 
L 154.619258 169.660968 
L 154.976378 168.522326 
L 156.761978 159.545873 
L 157.119098 158.492585 
L 157.833338 154.807203 
L 158.190458 153.476294 
L 158.547578 151.407915 
L 158.904698 151.139517 
L 159.618938 146.915335 
L 159.976058 144.707223 
L 160.690298 142.891217 
L 161.047418 141.124965 
L 161.404538 140.03298 
L 161.761658 138.184521 
L 162.833018 135.198875 
L 163.190138 133.535928 
L 163.547258 133.170724 
L 163.904378 131.71159 
L 164.261498 131.243699 
L 165.332858 127.528097 
L 165.689978 126.82918 
L 166.047098 126.961506 
L 166.404218 125.971193 
L 166.761338 126.611481 
L 167.118458 126.598676 
L 167.475578 126.090713 
L 168.189818 124.225343 
L 168.546938 125.609938 
L 168.904058 126.018147 
L 169.975418 124.688302 
L 170.332538 126.432201 
L 170.689658 126.214503 
L 171.046778 126.154742 
L 171.403898 126.846254 
L 171.761018 128.314468 
L 172.118138 128.582259 
L 172.475258 128.161445 
L 172.832378 128.403732 
L 173.546618 131.146748 
L 173.903738 130.898049 
L 174.260858 131.787464 
L 174.617978 133.863352 
L 174.975098 132.93565 
L 175.332218 134.501409 
L 175.689338 135.052561 
L 176.403578 137.24727 
L 177.117818 138.392681 
L 177.832058 140.644013 
L 178.903418 143.106816 
L 179.260538 142.600988 
L 179.617658 144.16408 
L 180.331898 146.320069 
L 180.689018 147.964154 
L 181.046138 146.919464 
L 181.403258 148.740446 
L 181.760378 147.609042 
L 182.117498 148.567019 
L 182.474618 149.041878 
L 182.831738 150.119602 
L 183.188858 149.702552 
L 183.545978 151.502887 
L 183.903098 150.784405 
L 184.260218 151.787803 
L 184.617338 152.403055 
L 184.974457 151.548309 
L 185.331578 151.618505 
L 186.045818 152.258533 
L 186.402938 151.345977 
L 186.760058 152.671944 
L 187.117178 151.742381 
L 187.474298 151.519404 
L 188.188538 151.300556 
L 188.902778 149.677776 
L 189.259898 149.81404 
L 189.617018 148.789996 
L 189.974138 149.871849 
L 190.331258 148.125193 
L 190.688378 148.418367 
L 191.045498 146.667582 
L 191.402618 145.834971 
L 191.759738 146.228854 
L 192.116858 144.773561 
L 192.473978 144.616008 
L 192.831098 142.659034 
L 193.188218 143.139985 
L 193.545338 142.331489 
L 194.259578 139.645803 
L 194.616698 139.791514 
L 194.973818 138.446802 
L 195.330938 137.826486 
L 195.688058 136.068398 
L 196.045178 136.009872 
L 196.402298 134.623143 
L 196.759418 134.430047 
L 197.116538 132.738356 
L 197.473658 132.683786 
L 197.830778 132.297507 
L 198.187898 131.572487 
L 198.545018 131.214192 
L 198.902138 129.973574 
L 199.259258 129.24552 
L 199.616378 128.862803 
L 199.973498 128.029674 
L 200.330618 128.331471 
L 200.687738 127.349948 
L 201.044858 125.954119 
L 201.401978 125.830329 
L 201.759098 126.188891 
L 202.473338 125.322731 
L 202.830458 125.567071 
L 203.187578 125.03981 
L 203.544698 124.825476 
L 203.901818 126.453544 
L 204.258938 125.198417 
L 204.616058 124.821189 
L 204.973178 126.560258 
L 205.330298 125.729965 
L 205.687418 126.782225 
L 206.044538 127.081026 
L 206.401658 128.182698 
L 206.758778 127.787387 
L 207.115898 128.599262 
L 207.830138 131.117242 
L 208.187258 130.485751 
L 208.544378 131.648361 
L 208.901498 133.242086 
L 209.258618 133.359622 
L 209.615738 135.320106 
L 209.972858 136.106021 
L 210.329978 137.205466 
L 210.687098 139.799841 
L 211.044218 139.383521 
L 213.544058 150.664658 
L 213.901178 151.217972 
L 214.258298 153.397517 
L 214.615418 154.251621 
L 214.972538 155.706913 
L 215.329658 158.450953 
L 215.686778 159.13788 
L 216.043898 161.715138 
L 216.401018 162.885649 
L 216.758138 163.654842 
L 217.472378 167.300809 
L 217.829498 168.391107 
L 218.543738 172.276861 
L 219.257978 175.040597 
L 219.615098 177.095163 
L 219.972218 176.658508 
L 221.043578 181.77043 
L 221.400698 183.132089 
L 221.757818 183.850897 
L 222.829178 187.620901 
L 223.186298 187.03378 
L 223.543418 188.268109 
L 224.257658 191.627435 
L 224.614778 191.567382 
L 224.971898 191.936615 
L 225.329018 192.971255 
L 225.686138 192.066552 
L 226.400378 193.292933 
L 226.757498 192.985241 
L 227.114618 193.153073 
L 227.471738 194.118514 
L 227.828858 194.528291 
L 228.185978 193.659523 
L 228.543098 193.598636 
L 228.900218 193.837499 
L 229.257338 193.664206 
L 229.614458 193.339553 
L 229.971578 193.250975 
L 230.328698 191.863026 
L 230.685818 191.091581 
L 231.042938 191.114679 
L 231.400058 190.497946 
L 231.757178 189.593827 
L 232.114298 189.406145 
L 232.828538 187.327341 
L 233.185658 186.929905 
L 233.542778 186.093687 
L 233.899898 183.95758 
L 234.257018 183.726658 
L 234.614138 182.680478 
L 234.971258 182.724655 
L 235.328378 180.904446 
L 235.685498 179.735018 
L 236.042618 177.912565 
L 236.399738 177.921248 
L 236.756858 175.897276 
L 237.471098 173.517843 
L 237.828218 173.787904 
L 238.185338 169.830283 
L 238.542458 169.787954 
L 238.899578 169.00064 
L 239.613818 166.164988 
L 239.970938 164.662196 
L 239.970938 164.662196 
" style="fill:none;stroke:#d62728;stroke-linecap:square;stroke-width:1.5;"/>
   </g>
   <g id="line2d_23">
    <path clip-path="url(#p1da729468f)" d="M 61.410938 23.543308 
L 418.530938 23.543308 
" style="fill:none;stroke:#99aaaa;stroke-dasharray:9.6,2.4,1.5,2.4;stroke-dashoffset:0;stroke-width:1.5;"/>
   </g>
   <g id="line2d_24">
    <defs>
     <path d="M -3 3 
L 3 3 
L 3 -3 
L -3 -3 
z
" id="m9e0ac68bfd" style="stroke:#1f77b4;stroke-linejoin:miter;"/>
    </defs>
    <g clip-path="url(#p1da729468f)">
     <use style="fill:#1f77b4;stroke:#1f77b4;stroke-linejoin:miter;" x="61.410938" xlink:href="#m9e0ac68bfd" y="278.419468"/>
     <use style="fill:#1f77b4;stroke:#1f77b4;stroke-linejoin:miter;" x="72.688411" xlink:href="#m9e0ac68bfd" y="226.422028"/>
     <use style="fill:#1f77b4;stroke:#1f77b4;stroke-linejoin:miter;" x="83.965885" xlink:href="#m9e0ac68bfd" y="134.820435"/>
     <use style="fill:#1f77b4;stroke:#1f77b4;stroke-linejoin:miter;" x="95.243359" xlink:href="#m9e0ac68bfd" y="42.004828"/>
     <use style="fill:#1f77b4;stroke:#1f77b4;stroke-linejoin:miter;" x="106.520832" xlink:href="#m9e0ac68bfd" y="43.40435"/>
     <use style="fill:#1f77b4;stroke:#1f77b4;stroke-linejoin:miter;" x="117.798306" xlink:href="#m9e0ac68bfd" y="113.773842"/>
     <use style="fill:#1f77b4;stroke:#1f77b4;stroke-linejoin:miter;" x="129.07578" xlink:href="#m9e0ac68bfd" y="180.611275"/>
     <use style="fill:#1f77b4;stroke:#1f77b4;stroke-linejoin:miter;" x="140.353253" xlink:href="#m9e0ac68bfd" y="220.204828"/>
     <use style="fill:#1f77b4;stroke:#1f77b4;stroke-linejoin:miter;" x="151.630727" xlink:href="#m9e0ac68bfd" y="190.120475"/>
     <use style="fill:#1f77b4;stroke:#1f77b4;stroke-linejoin:miter;" x="162.908201" xlink:href="#m9e0ac68bfd" y="111.983083"/>
     <use style="fill:#1f77b4;stroke:#1f77b4;stroke-linejoin:miter;" x="174.185674" xlink:href="#m9e0ac68bfd" y="54.752124"/>
     <use style="fill:#1f77b4;stroke:#1f77b4;stroke-linejoin:miter;" x="185.463148" xlink:href="#m9e0ac68bfd" y="40.939555"/>
     <use style="fill:#1f77b4;stroke:#1f77b4;stroke-linejoin:miter;" x="196.740622" xlink:href="#m9e0ac68bfd" y="86.463444"/>
     <use style="fill:#1f77b4;stroke:#1f77b4;stroke-linejoin:miter;" x="208.018095" xlink:href="#m9e0ac68bfd" y="141.26563"/>
     <use style="fill:#1f77b4;stroke:#1f77b4;stroke-linejoin:miter;" x="219.295569" xlink:href="#m9e0ac68bfd" y="240.202828"/>
     <use style="fill:#1f77b4;stroke:#1f77b4;stroke-linejoin:miter;" x="230.573043" xlink:href="#m9e0ac68bfd" y="243.327628"/>
     <use style="fill:#1f77b4;stroke:#1f77b4;stroke-linejoin:miter;" x="241.850516" xlink:href="#m9e0ac68bfd" y="172.682234"/>
     <use style="fill:#1f77b4;stroke:#1f77b4;stroke-linejoin:miter;" x="253.12799" xlink:href="#m9e0ac68bfd" y="71.965744"/>
     <use style="fill:#1f77b4;stroke:#1f77b4;stroke-linejoin:miter;" x="264.405464" xlink:href="#m9e0ac68bfd" y="40.5962"/>
     <use style="fill:#1f77b4;stroke:#1f77b4;stroke-linejoin:miter;" x="275.682938" xlink:href="#m9e0ac68bfd" y="82.396828"/>
     <use style="fill:#1f77b4;stroke:#1f77b4;stroke-linejoin:miter;" x="286.960411" xlink:href="#m9e0ac68bfd" y="170.830515"/>
     <use style="fill:#1f77b4;stroke:#1f77b4;stroke-linejoin:miter;" x="298.237885" xlink:href="#m9e0ac68bfd" y="246.057707"/>
     <use style="fill:#1f77b4;stroke:#1f77b4;stroke-linejoin:miter;" x="309.515359" xlink:href="#m9e0ac68bfd" y="227.790156"/>
     <use style="fill:#1f77b4;stroke:#1f77b4;stroke-linejoin:miter;" x="320.792832" xlink:href="#m9e0ac68bfd" y="160.947053"/>
     <use style="fill:#1f77b4;stroke:#1f77b4;stroke-linejoin:miter;" x="332.070306" xlink:href="#m9e0ac68bfd" y="73.778224"/>
     <use style="fill:#1f77b4;stroke:#1f77b4;stroke-linejoin:miter;" x="343.34778" xlink:href="#m9e0ac68bfd" y="36.342028"/>
     <use style="fill:#1f77b4;stroke:#1f77b4;stroke-linejoin:miter;" x="354.625253" xlink:href="#m9e0ac68bfd" y="62.368367"/>
     <use style="fill:#1f77b4;stroke:#1f77b4;stroke-linejoin:miter;" x="365.902727" xlink:href="#m9e0ac68bfd" y="134.231833"/>
     <use style="fill:#1f77b4;stroke:#1f77b4;stroke-linejoin:miter;" x="377.180201" xlink:href="#m9e0ac68bfd" y="208.249228"/>
     <use style="fill:#1f77b4;stroke:#1f77b4;stroke-linejoin:miter;" x="388.457674" xlink:href="#m9e0ac68bfd" y="225.183628"/>
     <use style="fill:#1f77b4;stroke:#1f77b4;stroke-linejoin:miter;" x="399.735148" xlink:href="#m9e0ac68bfd" y="176.872405"/>
    </g>
   </g>
   <g id="line2d_25">
    <defs>
     <path d="M 0 3 
C 0.795609 3 1.55874 2.683901 2.12132 2.12132 
C 2.683901 1.55874 3 0.795609 3 0 
C 3 -0.795609 2.683901 -1.55874 2.12132 -2.12132 
C 1.55874 -2.683901 0.795609 -3 0 -3 
C -0.795609 -3 -1.55874 -2.683901 -2.12132 -2.12132 
C -2.683901 -1.55874 -3 -0.795609 -3 0 
C -3 0.795609 -2.683901 1.55874 -2.12132 2.12132 
C -1.55874 2.683901 -0.795609 3 0 3 
z
" id="m4d17eb6f4c" style="stroke:#d62728;"/>
    </defs>
    <g clip-path="url(#p1da729468f)">
     <use style="fill:#d62728;stroke:#d62728;" x="61.410938" xlink:href="#m4d17eb6f4c" y="271.284996"/>
     <use style="fill:#d62728;stroke:#d62728;" x="72.688411" xlink:href="#m4d17eb6f4c" y="195.850828"/>
     <use style="fill:#d62728;stroke:#d62728;" x="83.965885" xlink:href="#m4d17eb6f4c" y="74.379876"/>
     <use style="fill:#d62728;stroke:#d62728;" x="95.243359" xlink:href="#m4d17eb6f4c" y="106.200292"/>
     <use style="fill:#d62728;stroke:#d62728;" x="106.520832" xlink:href="#m4d17eb6f4c" y="186.703228"/>
     <use style="fill:#d62728;stroke:#d62728;" x="117.798306" xlink:href="#m4d17eb6f4c" y="149.260567"/>
     <use style="fill:#d62728;stroke:#d62728;" x="129.07578" xlink:href="#m4d17eb6f4c" y="129.628939"/>
     <use style="fill:#d62728;stroke:#d62728;" x="140.353253" xlink:href="#m4d17eb6f4c" y="176.029129"/>
     <use style="fill:#d62728;stroke:#d62728;" x="151.630727" xlink:href="#m4d17eb6f4c" y="146.766145"/>
     <use style="fill:#d62728;stroke:#d62728;" x="162.908201" xlink:href="#m4d17eb6f4c" y="142.47624"/>
     <use style="fill:#d62728;stroke:#d62728;" x="174.185674" xlink:href="#m4d17eb6f4c" y="115.880527"/>
     <use style="fill:#d62728;stroke:#d62728;" x="185.463148" xlink:href="#m4d17eb6f4c" y="131.083863"/>
     <use style="fill:#d62728;stroke:#d62728;" x="196.740622" xlink:href="#m4d17eb6f4c" y="125.946407"/>
     <use style="fill:#d62728;stroke:#d62728;" x="208.018095" xlink:href="#m4d17eb6f4c" y="141.690213"/>
     <use style="fill:#d62728;stroke:#d62728;" x="219.295569" xlink:href="#m4d17eb6f4c" y="171.707602"/>
     <use style="fill:#d62728;stroke:#d62728;" x="230.573043" xlink:href="#m4d17eb6f4c" y="206.206602"/>
    </g>
   </g>
   <g id="patch_3">
    <path d="M 61.410938 279.010828 
L 61.410938 12.898828 
" style="fill:none;stroke:#000000;stroke-linecap:square;stroke-linejoin:miter;stroke-width:0.8;"/>
   </g>
   <g id="patch_4">
    <path d="M 418.530938 279.010828 
L 418.530938 12.898828 
" style="fill:none;stroke:#000000;stroke-linecap:square;stroke-linejoin:miter;stroke-width:0.8;"/>
   </g>
   <g id="patch_5">
    <path d="M 61.410938 279.010828 
L 418.530938 279.010828 
" style="fill:none;stroke:#000000;stroke-linecap:square;stroke-linejoin:miter;stroke-width:0.8;"/>
   </g>
   <g id="patch_6">
    <path d="M 61.410938 12.898828 
L 418.530938 12.898828 
" style="fill:none;stroke:#000000;stroke-linecap:square;stroke-linejoin:miter;stroke-width:0.8;"/>
   </g>
   <g id="text_13">
    <!-- (D) -->
    <defs>
     <path d="M 19.671875 64.796875 
L 19.671875 8.109375 
L 31.59375 8.109375 
Q 46.6875 8.109375 53.6875 14.9375 
Q 60.6875 21.78125 60.6875 36.53125 
Q 60.6875 51.171875 53.6875 57.984375 
Q 46.6875 64.796875 31.59375 64.796875 
z
M 9.8125 72.90625 
L 30.078125 72.90625 
Q 51.265625 72.90625 61.171875 64.09375 
Q 71.09375 55.28125 71.09375 36.53125 
Q 71.09375 17.671875 61.125 8.828125 
Q 51.171875 0 30.078125 0 
L 9.8125 0 
z
" id="DejaVuSans-44"/>
    </defs>
    <g transform="translate(380.939359 39.510028)scale(0.2 -0.2)">
     <use xlink:href="#DejaVuSans-28"/>
     <use x="39.013672" xlink:href="#DejaVuSans-44"/>
     <use x="116.015625" xlink:href="#DejaVuSans-29"/>
    </g>
   </g>
  </g>
 </g>
 <defs>
  <clipPath id="p1da729468f">
   <rect height="266.112" width="357.12" x="61.410938" y="12.898828"/>
  </clipPath>
 </defs>
</svg>
