<?xml version="1.0" encoding="utf-8" standalone="no"?>
<!DOCTYPE svg PUBLIC "-//W3C//DTD SVG 1.1//EN"
  "http://www.w3.org/Graphics/SVG/1.1/DTD/svg11.dtd">
<!-- Created with matplotlib (http://matplotlib.org/) -->
<svg height="331pt" version="1.1" viewBox="0 0 429 331" width="429pt" xmlns="http://www.w3.org/2000/svg" xmlns:xlink="http://www.w3.org/1999/xlink">
 <defs>
  <style type="text/css">
*{stroke-linecap:butt;stroke-linejoin:round;}
  </style>
 </defs>
 <g id="figure_1">
  <g id="patch_1">
   <path d="M 0 331.128016 
L 429.230937 331.128016 
L 429.230937 0 
L 0 0 
z
" style="fill:none;"/>
  </g>
  <g id="axes_1">
   <g id="patch_2">
    <path d="M 61.410938 279.010828 
L 418.530938 279.010828 
L 418.530938 12.898828 
L 61.410938 12.898828 
z
" style="fill:none;"/>
   </g>
   <g id="matplotlib.axis_1">
    <g id="xtick_1">
     <g id="line2d_1">
      <path clip-path="url(#p1da729468f)" d="M 61.410938 279.010828 
L 61.410938 12.898828 
" style="fill:none;stroke:#b0b0b0;stroke-linecap:square;stroke-width:0.8;"/>
     </g>
     <g id="line2d_2">
      <defs>
       <path d="M 0 0 
L 0 3.5 
" id="m005f0a59be" style="stroke:#000000;stroke-width:0.8;"/>
      </defs>
      <g>
       <use style="stroke:#000000;stroke-width:0.8;" x="61.410938" xlink:href="#m005f0a59be" y="279.010828"/>
      </g>
     </g>
     <g id="text_1">
      <!-- 0 -->
      <defs>
       <path d="M 31.78125 66.40625 
Q 24.171875 66.40625 20.328125 58.90625 
Q 16.5 51.421875 16.5 36.375 
Q 16.5 21.390625 20.328125 13.890625 
Q 24.171875 6.390625 31.78125 6.390625 
Q 39.453125 6.390625 43.28125 13.890625 
Q 47.125 21.390625 47.125 36.375 
Q 47.125 51.421875 43.28125 58.90625 
Q 39.453125 66.40625 31.78125 66.40625 
z
M 31.78125 74.21875 
Q 44.046875 74.21875 50.515625 64.515625 
Q 56.984375 54.828125 56.984375 36.375 
Q 56.984375 17.96875 50.515625 8.265625 
Q 44.046875 -1.421875 31.78125 -1.421875 
Q 19.53125 -1.421875 13.0625 8.265625 
Q 6.59375 17.96875 6.59375 36.375 
Q 6.59375 54.828125 13.0625 64.515625 
Q 19.53125 74.21875 31.78125 74.21875 
z
" id="DejaVuSans-30"/>
      </defs>
      <g transform="translate(56.639063 297.408484)scale(0.15 -0.15)">
       <use xlink:href="#DejaVuSans-30"/>
      </g>
     </g>
    </g>
    <g id="xtick_2">
     <g id="line2d_3">
      <path clip-path="url(#p1da729468f)" d="M 130.087861 279.010828 
L 130.087861 12.898828 
" style="fill:none;stroke:#b0b0b0;stroke-linecap:square;stroke-width:0.8;"/>
     </g>
     <g id="line2d_4">
      <g>
       <use style="stroke:#000000;stroke-width:0.8;" x="130.087861" xlink:href="#m005f0a59be" y="279.010828"/>
      </g>
     </g>
     <g id="text_2">
      <!-- 100 -->
      <defs>
       <path d="M 12.40625 8.296875 
L 28.515625 8.296875 
L 28.515625 63.921875 
L 10.984375 60.40625 
L 10.984375 69.390625 
L 28.421875 72.90625 
L 38.28125 72.90625 
L 38.28125 8.296875 
L 54.390625 8.296875 
L 54.390625 0 
L 12.40625 0 
z
" id="DejaVuSans-31"/>
      </defs>
      <g transform="translate(115.772236 297.408484)scale(0.15 -0.15)">
       <use xlink:href="#DejaVuSans-31"/>
       <use x="63.623047" xlink:href="#DejaVuSans-30"/>
       <use x="127.246094" xlink:href="#DejaVuSans-30"/>
      </g>
     </g>
    </g>
    <g id="xtick_3">
     <g id="line2d_5">
      <path clip-path="url(#p1da729468f)" d="M 198.764784 279.010828 
L 198.764784 12.898828 
" style="fill:none;stroke:#b0b0b0;stroke-linecap:square;stroke-width:0.8;"/>
     </g>
     <g id="line2d_6">
      <g>
       <use style="stroke:#000000;stroke-width:0.8;" x="198.764784" xlink:href="#m005f0a59be" y="279.010828"/>
      </g>
     </g>
     <g id="text_3">
      <!-- 200 -->
      <defs>
       <path d="M 19.1875 8.296875 
L 53.609375 8.296875 
L 53.609375 0 
L 7.328125 0 
L 7.328125 8.296875 
Q 12.9375 14.109375 22.625 23.890625 
Q 32.328125 33.6875 34.8125 36.53125 
Q 39.546875 41.84375 41.421875 45.53125 
Q 43.3125 49.21875 43.3125 52.78125 
Q 43.3125 58.59375 39.234375 62.25 
Q 35.15625 65.921875 28.609375 65.921875 
Q 23.96875 65.921875 18.8125 64.3125 
Q 13.671875 62.703125 7.8125 59.421875 
L 7.8125 69.390625 
Q 13.765625 71.78125 18.9375 73 
Q 24.125 74.21875 28.421875 74.21875 
Q 39.75 74.21875 46.484375 68.546875 
Q 53.21875 62.890625 53.21875 53.421875 
Q 53.21875 48.921875 51.53125 44.890625 
Q 49.859375 40.875 45.40625 35.40625 
Q 44.1875 33.984375 37.640625 27.21875 
Q 31.109375 20.453125 19.1875 8.296875 
z
" id="DejaVuSans-32"/>
      </defs>
      <g transform="translate(184.449159 297.408484)scale(0.15 -0.15)">
       <use xlink:href="#DejaVuSans-32"/>
       <use x="63.623047" xlink:href="#DejaVuSans-30"/>
       <use x="127.246094" xlink:href="#DejaVuSans-30"/>
      </g>
     </g>
    </g>
    <g id="xtick_4">
     <g id="line2d_7">
      <path clip-path="url(#p1da729468f)" d="M 267.441707 279.010828 
L 267.441707 12.898828 
" style="fill:none;stroke:#b0b0b0;stroke-linecap:square;stroke-width:0.8;"/>
     </g>
     <g id="line2d_8">
      <g>
       <use style="stroke:#000000;stroke-width:0.8;" x="267.441707" xlink:href="#m005f0a59be" y="279.010828"/>
      </g>
     </g>
     <g id="text_4">
      <!-- 300 -->
      <defs>
       <path d="M 40.578125 39.3125 
Q 47.65625 37.796875 51.625 33 
Q 55.609375 28.21875 55.609375 21.1875 
Q 55.609375 10.40625 48.1875 4.484375 
Q 40.765625 -1.421875 27.09375 -1.421875 
Q 22.515625 -1.421875 17.65625 -0.515625 
Q 12.796875 0.390625 7.625 2.203125 
L 7.625 11.71875 
Q 11.71875 9.328125 16.59375 8.109375 
Q 21.484375 6.890625 26.8125 6.890625 
Q 36.078125 6.890625 40.9375 10.546875 
Q 45.796875 14.203125 45.796875 21.1875 
Q 45.796875 27.640625 41.28125 31.265625 
Q 36.765625 34.90625 28.71875 34.90625 
L 20.21875 34.90625 
L 20.21875 43.015625 
L 29.109375 43.015625 
Q 36.375 43.015625 40.234375 45.921875 
Q 44.09375 48.828125 44.09375 54.296875 
Q 44.09375 59.90625 40.109375 62.90625 
Q 36.140625 65.921875 28.71875 65.921875 
Q 24.65625 65.921875 20.015625 65.03125 
Q 15.375 64.15625 9.8125 62.3125 
L 9.8125 71.09375 
Q 15.4375 72.65625 20.34375 73.4375 
Q 25.25 74.21875 29.59375 74.21875 
Q 40.828125 74.21875 47.359375 69.109375 
Q 53.90625 64.015625 53.90625 55.328125 
Q 53.90625 49.265625 50.4375 45.09375 
Q 46.96875 40.921875 40.578125 39.3125 
z
" id="DejaVuSans-33"/>
      </defs>
      <g transform="translate(253.126082 297.408484)scale(0.15 -0.15)">
       <use xlink:href="#DejaVuSans-33"/>
       <use x="63.623047" xlink:href="#DejaVuSans-30"/>
       <use x="127.246094" xlink:href="#DejaVuSans-30"/>
      </g>
     </g>
    </g>
    <g id="xtick_5">
     <g id="line2d_9">
      <path clip-path="url(#p1da729468f)" d="M 336.11863 279.010828 
L 336.11863 12.898828 
" style="fill:none;stroke:#b0b0b0;stroke-linecap:square;stroke-width:0.8;"/>
     </g>
     <g id="line2d_10">
      <g>
       <use style="stroke:#000000;stroke-width:0.8;" x="336.11863" xlink:href="#m005f0a59be" y="279.010828"/>
      </g>
     </g>
     <g id="text_5">
      <!-- 400 -->
      <defs>
       <path d="M 37.796875 64.3125 
L 12.890625 25.390625 
L 37.796875 25.390625 
z
M 35.203125 72.90625 
L 47.609375 72.90625 
L 47.609375 25.390625 
L 58.015625 25.390625 
L 58.015625 17.1875 
L 47.609375 17.1875 
L 47.609375 0 
L 37.796875 0 
L 37.796875 17.1875 
L 4.890625 17.1875 
L 4.890625 26.703125 
z
" id="DejaVuSans-34"/>
      </defs>
      <g transform="translate(321.803005 297.408484)scale(0.15 -0.15)">
       <use xlink:href="#DejaVuSans-34"/>
       <use x="63.623047" xlink:href="#DejaVuSans-30"/>
       <use x="127.246094" xlink:href="#DejaVuSans-30"/>
      </g>
     </g>
    </g>
    <g id="xtick_6">
     <g id="line2d_11">
      <path clip-path="url(#p1da729468f)" d="M 404.795553 279.010828 
L 404.795553 12.898828 
" style="fill:none;stroke:#b0b0b0;stroke-linecap:square;stroke-width:0.8;"/>
     </g>
     <g id="line2d_12">
      <g>
       <use style="stroke:#000000;stroke-width:0.8;" x="404.795553" xlink:href="#m005f0a59be" y="279.010828"/>
      </g>
     </g>
     <g id="text_6">
      <!-- 500 -->
      <defs>
       <path d="M 10.796875 72.90625 
L 49.515625 72.90625 
L 49.515625 64.59375 
L 19.828125 64.59375 
L 19.828125 46.734375 
Q 21.96875 47.46875 24.109375 47.828125 
Q 26.265625 48.1875 28.421875 48.1875 
Q 40.625 48.1875 47.75 41.5 
Q 54.890625 34.8125 54.890625 23.390625 
Q 54.890625 11.625 47.5625 5.09375 
Q 40.234375 -1.421875 26.90625 -1.421875 
Q 22.3125 -1.421875 17.546875 -0.640625 
Q 12.796875 0.140625 7.71875 1.703125 
L 7.71875 11.625 
Q 12.109375 9.234375 16.796875 8.0625 
Q 21.484375 6.890625 26.703125 6.890625 
Q 35.15625 6.890625 40.078125 11.328125 
Q 45.015625 15.765625 45.015625 23.390625 
Q 45.015625 31 40.078125 35.4375 
Q 35.15625 39.890625 26.703125 39.890625 
Q 22.75 39.890625 18.8125 39.015625 
Q 14.890625 38.140625 10.796875 36.28125 
z
" id="DejaVuSans-35"/>
      </defs>
      <g transform="translate(390.479928 297.408484)scale(0.15 -0.15)">
       <use xlink:href="#DejaVuSans-35"/>
       <use x="63.623047" xlink:href="#DejaVuSans-30"/>
       <use x="127.246094" xlink:href="#DejaVuSans-30"/>
      </g>
     </g>
    </g>
    <g id="text_7">
     <!-- Time ($\mu s$) -->
     <defs>
      <path d="M -0.296875 72.90625 
L 61.375 72.90625 
L 61.375 64.59375 
L 35.5 64.59375 
L 35.5 0 
L 25.59375 0 
L 25.59375 64.59375 
L -0.296875 64.59375 
z
" id="DejaVuSans-54"/>
      <path d="M 9.421875 54.6875 
L 18.40625 54.6875 
L 18.40625 0 
L 9.421875 0 
z
M 9.421875 75.984375 
L 18.40625 75.984375 
L 18.40625 64.59375 
L 9.421875 64.59375 
z
" id="DejaVuSans-69"/>
      <path d="M 52 44.1875 
Q 55.375 50.25 60.0625 53.125 
Q 64.75 56 71.09375 56 
Q 79.640625 56 84.28125 50.015625 
Q 88.921875 44.046875 88.921875 33.015625 
L 88.921875 0 
L 79.890625 0 
L 79.890625 32.71875 
Q 79.890625 40.578125 77.09375 44.375 
Q 74.3125 48.1875 68.609375 48.1875 
Q 61.625 48.1875 57.5625 43.546875 
Q 53.515625 38.921875 53.515625 30.90625 
L 53.515625 0 
L 44.484375 0 
L 44.484375 32.71875 
Q 44.484375 40.625 41.703125 44.40625 
Q 38.921875 48.1875 33.109375 48.1875 
Q 26.21875 48.1875 22.15625 43.53125 
Q 18.109375 38.875 18.109375 30.90625 
L 18.109375 0 
L 9.078125 0 
L 9.078125 54.6875 
L 18.109375 54.6875 
L 18.109375 46.1875 
Q 21.1875 51.21875 25.484375 53.609375 
Q 29.78125 56 35.6875 56 
Q 41.65625 56 45.828125 52.96875 
Q 50 49.953125 52 44.1875 
z
" id="DejaVuSans-6d"/>
      <path d="M 56.203125 29.59375 
L 56.203125 25.203125 
L 14.890625 25.203125 
Q 15.484375 15.921875 20.484375 11.0625 
Q 25.484375 6.203125 34.421875 6.203125 
Q 39.59375 6.203125 44.453125 7.46875 
Q 49.3125 8.734375 54.109375 11.28125 
L 54.109375 2.78125 
Q 49.265625 0.734375 44.1875 -0.34375 
Q 39.109375 -1.421875 33.890625 -1.421875 
Q 20.796875 -1.421875 13.15625 6.1875 
Q 5.515625 13.8125 5.515625 26.8125 
Q 5.515625 40.234375 12.765625 48.109375 
Q 20.015625 56 32.328125 56 
Q 43.359375 56 49.78125 48.890625 
Q 56.203125 41.796875 56.203125 29.59375 
z
M 47.21875 32.234375 
Q 47.125 39.59375 43.09375 43.984375 
Q 39.0625 48.390625 32.421875 48.390625 
Q 24.90625 48.390625 20.390625 44.140625 
Q 15.875 39.890625 15.1875 32.171875 
z
" id="DejaVuSans-65"/>
      <path id="DejaVuSans-20"/>
      <path d="M 31 75.875 
Q 24.46875 64.65625 21.28125 53.65625 
Q 18.109375 42.671875 18.109375 31.390625 
Q 18.109375 20.125 21.3125 9.0625 
Q 24.515625 -2 31 -13.1875 
L 23.1875 -13.1875 
Q 15.875 -1.703125 12.234375 9.375 
Q 8.59375 20.453125 8.59375 31.390625 
Q 8.59375 42.28125 12.203125 53.3125 
Q 15.828125 64.359375 23.1875 75.875 
z
" id="DejaVuSans-28"/>
      <path d="M -1.3125 -20.796875 
L 13.375 54.6875 
L 22.40625 54.6875 
L 15.765625 20.65625 
Q 15.578125 19.625 15.421875 18.359375 
Q 15.28125 17.09375 15.28125 15.828125 
Q 15.28125 11.28125 18.140625 8.828125 
Q 21 6.390625 26.3125 6.390625 
Q 33.546875 6.390625 37.984375 10.484375 
Q 42.4375 14.59375 44 22.796875 
L 50.203125 54.6875 
L 59.1875 54.6875 
L 51.03125 12.640625 
Q 50.828125 11.71875 50.75 11.03125 
Q 50.6875 10.359375 50.6875 9.8125 
Q 50.6875 8.296875 51.296875 7.59375 
Q 51.90625 6.890625 53.21875 6.890625 
Q 53.71875 6.890625 54.5625 7.125 
Q 55.421875 7.375 56.984375 8.015625 
L 55.609375 0.78125 
Q 53.46875 -0.296875 51.515625 -0.859375 
Q 49.5625 -1.421875 47.703125 -1.421875 
Q 44.484375 -1.421875 42.65625 0.625 
Q 40.828125 2.6875 40.828125 6.296875 
Q 38.09375 2.390625 34.296875 0.484375 
Q 30.515625 -1.421875 25.390625 -1.421875 
Q 20.84375 -1.421875 17.453125 0.671875 
Q 14.0625 2.78125 12.984375 6.203125 
L 7.71875 -20.796875 
z
" id="DejaVuSans-Oblique-3bc"/>
      <path d="M 50 53.078125 
L 48.296875 44.578125 
Q 44.734375 46.53125 40.765625 47.5 
Q 36.8125 48.484375 32.625 48.484375 
Q 25.53125 48.484375 21.453125 46.0625 
Q 17.390625 43.65625 17.390625 39.5 
Q 17.390625 34.671875 26.859375 32.078125 
Q 27.59375 31.890625 27.9375 31.78125 
L 30.8125 30.90625 
Q 39.796875 28.421875 42.796875 25.6875 
Q 45.796875 22.953125 45.796875 18.21875 
Q 45.796875 9.515625 38.890625 4.046875 
Q 31.984375 -1.421875 20.796875 -1.421875 
Q 16.453125 -1.421875 11.671875 -0.578125 
Q 6.890625 0.25 1.125 2 
L 2.875 11.28125 
Q 7.8125 8.734375 12.59375 7.421875 
Q 17.390625 6.109375 21.78125 6.109375 
Q 28.375 6.109375 32.5 8.9375 
Q 36.625 11.765625 36.625 16.109375 
Q 36.625 20.796875 25.78125 23.6875 
L 24.859375 23.921875 
L 21.78125 24.703125 
Q 14.9375 26.515625 11.765625 29.46875 
Q 8.59375 32.421875 8.59375 37.015625 
Q 8.59375 45.75 15.15625 50.875 
Q 21.734375 56 33.015625 56 
Q 37.453125 56 41.671875 55.265625 
Q 45.90625 54.546875 50 53.078125 
z
" id="DejaVuSans-Oblique-73"/>
      <path d="M 8.015625 75.875 
L 15.828125 75.875 
Q 23.140625 64.359375 26.78125 53.3125 
Q 30.421875 42.28125 30.421875 31.390625 
Q 30.421875 20.453125 26.78125 9.375 
Q 23.140625 -1.703125 15.828125 -13.1875 
L 8.015625 -13.1875 
Q 14.5 -2 17.703125 9.0625 
Q 20.90625 20.125 20.90625 31.390625 
Q 20.90625 42.671875 17.703125 53.65625 
Q 14.5 64.65625 8.015625 75.875 
z
" id="DejaVuSans-29"/>
     </defs>
     <g transform="translate(192.570938 319.728016)scale(0.2 -0.2)">
      <use transform="translate(0 0.015625)" xlink:href="#DejaVuSans-54"/>
      <use transform="translate(61.083984 0.015625)" xlink:href="#DejaVuSans-69"/>
      <use transform="translate(88.867188 0.015625)" xlink:href="#DejaVuSans-6d"/>
      <use transform="translate(186.279297 0.015625)" xlink:href="#DejaVuSans-65"/>
      <use transform="translate(247.802734 0.015625)" xlink:href="#DejaVuSans-20"/>
      <use transform="translate(279.589844 0.015625)" xlink:href="#DejaVuSans-28"/>
      <use transform="translate(318.603516 0.015625)" xlink:href="#DejaVuSans-Oblique-3bc"/>
      <use transform="translate(382.226562 0.015625)" xlink:href="#DejaVuSans-Oblique-73"/>
      <use transform="translate(434.326172 0.015625)" xlink:href="#DejaVuSans-29"/>
     </g>
    </g>
   </g>
   <g id="matplotlib.axis_2">
    <g id="ytick_1">
     <g id="line2d_13">
      <path clip-path="url(#p1da729468f)" d="M 61.410938 279.010828 
L 418.530938 279.010828 
" style="fill:none;stroke:#b0b0b0;stroke-linecap:square;stroke-width:0.8;"/>
     </g>
     <g id="line2d_14">
      <defs>
       <path d="M 0 0 
L -3.5 0 
" id="mc3ce260a5b" style="stroke:#000000;stroke-width:0.8;"/>
      </defs>
      <g>
       <use style="stroke:#000000;stroke-width:0.8;" x="61.410938" xlink:href="#mc3ce260a5b" y="279.010828"/>
      </g>
     </g>
     <g id="text_8">
      <!-- 0.0 -->
      <defs>
       <path d="M 10.6875 12.40625 
L 21 12.40625 
L 21 0 
L 10.6875 0 
z
" id="DejaVuSans-2e"/>
      </defs>
      <g transform="translate(30.55625 284.709656)scale(0.15 -0.15)">
       <use xlink:href="#DejaVuSans-30"/>
       <use x="63.623047" xlink:href="#DejaVuSans-2e"/>
       <use x="95.410156" xlink:href="#DejaVuSans-30"/>
      </g>
     </g>
    </g>
    <g id="ytick_2">
     <g id="line2d_15">
      <path clip-path="url(#p1da729468f)" d="M 61.410938 225.788428 
L 418.530938 225.788428 
" style="fill:none;stroke:#b0b0b0;stroke-linecap:square;stroke-width:0.8;"/>
     </g>
     <g id="line2d_16">
      <g>
       <use style="stroke:#000000;stroke-width:0.8;" x="61.410938" xlink:href="#mc3ce260a5b" y="225.788428"/>
      </g>
     </g>
     <g id="text_9">
      <!-- 0.2 -->
      <g transform="translate(30.55625 231.487256)scale(0.15 -0.15)">
       <use xlink:href="#DejaVuSans-30"/>
       <use x="63.623047" xlink:href="#DejaVuSans-2e"/>
       <use x="95.410156" xlink:href="#DejaVuSans-32"/>
      </g>
     </g>
    </g>
    <g id="ytick_3">
     <g id="line2d_17">
      <path clip-path="url(#p1da729468f)" d="M 61.410938 172.566028 
L 418.530938 172.566028 
" style="fill:none;stroke:#b0b0b0;stroke-linecap:square;stroke-width:0.8;"/>
     </g>
     <g id="line2d_18">
      <g>
       <use style="stroke:#000000;stroke-width:0.8;" x="61.410938" xlink:href="#mc3ce260a5b" y="172.566028"/>
      </g>
     </g>
     <g id="text_10">
      <!-- 0.4 -->
      <g transform="translate(30.55625 178.264856)scale(0.15 -0.15)">
       <use xlink:href="#DejaVuSans-30"/>
       <use x="63.623047" xlink:href="#DejaVuSans-2e"/>
       <use x="95.410156" xlink:href="#DejaVuSans-34"/>
      </g>
     </g>
    </g>
    <g id="ytick_4">
     <g id="line2d_19">
      <path clip-path="url(#p1da729468f)" d="M 61.410938 119.343628 
L 418.530938 119.343628 
" style="fill:none;stroke:#b0b0b0;stroke-linecap:square;stroke-width:0.8;"/>
     </g>
     <g id="line2d_20">
      <g>
       <use style="stroke:#000000;stroke-width:0.8;" x="61.410938" xlink:href="#mc3ce260a5b" y="119.343628"/>
      </g>
     </g>
     <g id="text_11">
      <!-- 0.6 -->
      <defs>
       <path d="M 33.015625 40.375 
Q 26.375 40.375 22.484375 35.828125 
Q 18.609375 31.296875 18.609375 23.390625 
Q 18.609375 15.53125 22.484375 10.953125 
Q 26.375 6.390625 33.015625 6.390625 
Q 39.65625 6.390625 43.53125 10.953125 
Q 47.40625 15.53125 47.40625 23.390625 
Q 47.40625 31.296875 43.53125 35.828125 
Q 39.65625 40.375 33.015625 40.375 
z
M 52.59375 71.296875 
L 52.59375 62.3125 
Q 48.875 64.0625 45.09375 64.984375 
Q 41.3125 65.921875 37.59375 65.921875 
Q 27.828125 65.921875 22.671875 59.328125 
Q 17.53125 52.734375 16.796875 39.40625 
Q 19.671875 43.65625 24.015625 45.921875 
Q 28.375 48.1875 33.59375 48.1875 
Q 44.578125 48.1875 50.953125 41.515625 
Q 57.328125 34.859375 57.328125 23.390625 
Q 57.328125 12.15625 50.6875 5.359375 
Q 44.046875 -1.421875 33.015625 -1.421875 
Q 20.359375 -1.421875 13.671875 8.265625 
Q 6.984375 17.96875 6.984375 36.375 
Q 6.984375 53.65625 15.1875 63.9375 
Q 23.390625 74.21875 37.203125 74.21875 
Q 40.921875 74.21875 44.703125 73.484375 
Q 48.484375 72.75 52.59375 71.296875 
z
" id="DejaVuSans-36"/>
      </defs>
      <g transform="translate(30.55625 125.042456)scale(0.15 -0.15)">
       <use xlink:href="#DejaVuSans-30"/>
       <use x="63.623047" xlink:href="#DejaVuSans-2e"/>
       <use x="95.410156" xlink:href="#DejaVuSans-36"/>
      </g>
     </g>
    </g>
    <g id="ytick_5">
     <g id="line2d_21">
      <path clip-path="url(#p1da729468f)" d="M 61.410938 66.121228 
L 418.530938 66.121228 
" style="fill:none;stroke:#b0b0b0;stroke-linecap:square;stroke-width:0.8;"/>
     </g>
     <g id="line2d_22">
      <g>
       <use style="stroke:#000000;stroke-width:0.8;" x="61.410938" xlink:href="#mc3ce260a5b" y="66.121228"/>
      </g>
     </g>
     <g id="text_12">
      <!-- 0.8 -->
      <defs>
       <path d="M 31.78125 34.625 
Q 24.75 34.625 20.71875 30.859375 
Q 16.703125 27.09375 16.703125 20.515625 
Q 16.703125 13.921875 20.71875 10.15625 
Q 24.75 6.390625 31.78125 6.390625 
Q 38.8125 6.390625 42.859375 10.171875 
Q 46.921875 13.96875 46.921875 20.515625 
Q 46.921875 27.09375 42.890625 30.859375 
Q 38.875 34.625 31.78125 34.625 
z
M 21.921875 38.8125 
Q 15.578125 40.375 12.03125 44.71875 
Q 8.5 49.078125 8.5 55.328125 
Q 8.5 64.0625 14.71875 69.140625 
Q 20.953125 74.21875 31.78125 74.21875 
Q 42.671875 74.21875 48.875 69.140625 
Q 55.078125 64.0625 55.078125 55.328125 
Q 55.078125 49.078125 51.53125 44.71875 
Q 48 40.375 41.703125 38.8125 
Q 48.828125 37.15625 52.796875 32.3125 
Q 56.78125 27.484375 56.78125 20.515625 
Q 56.78125 9.90625 50.3125 4.234375 
Q 43.84375 -1.421875 31.78125 -1.421875 
Q 19.734375 -1.421875 13.25 4.234375 
Q 6.78125 9.90625 6.78125 20.515625 
Q 6.78125 27.484375 10.78125 32.3125 
Q 14.796875 37.15625 21.921875 38.8125 
z
M 18.3125 54.390625 
Q 18.3125 48.734375 21.84375 45.5625 
Q 25.390625 42.390625 31.78125 42.390625 
Q 38.140625 42.390625 41.71875 45.5625 
Q 45.3125 48.734375 45.3125 54.390625 
Q 45.3125 60.0625 41.71875 63.234375 
Q 38.140625 66.40625 31.78125 66.40625 
Q 25.390625 66.40625 21.84375 63.234375 
Q 18.3125 60.0625 18.3125 54.390625 
z
" id="DejaVuSans-38"/>
      </defs>
      <g transform="translate(30.55625 71.820056)scale(0.15 -0.15)">
       <use xlink:href="#DejaVuSans-30"/>
       <use x="63.623047" xlink:href="#DejaVuSans-2e"/>
       <use x="95.410156" xlink:href="#DejaVuSans-38"/>
      </g>
     </g>
    </g>
    <g id="ytick_6">
     <g id="line2d_23">
      <path clip-path="url(#p1da729468f)" d="M 61.410938 12.898828 
L 418.530938 12.898828 
" style="fill:none;stroke:#b0b0b0;stroke-linecap:square;stroke-width:0.8;"/>
     </g>
     <g id="line2d_24">
      <g>
       <use style="stroke:#000000;stroke-width:0.8;" x="61.410938" xlink:href="#mc3ce260a5b" y="12.898828"/>
      </g>
     </g>
     <g id="text_13">
      <!-- 1.0 -->
      <g transform="translate(30.55625 18.597656)scale(0.15 -0.15)">
       <use xlink:href="#DejaVuSans-31"/>
       <use x="63.623047" xlink:href="#DejaVuSans-2e"/>
       <use x="95.410156" xlink:href="#DejaVuSans-30"/>
      </g>
     </g>
    </g>
    <g id="text_14">
     <!-- Survival -->
     <defs>
      <path d="M 53.515625 70.515625 
L 53.515625 60.890625 
Q 47.90625 63.578125 42.921875 64.890625 
Q 37.9375 66.21875 33.296875 66.21875 
Q 25.25 66.21875 20.875 63.09375 
Q 16.5 59.96875 16.5 54.203125 
Q 16.5 49.359375 19.40625 46.890625 
Q 22.3125 44.4375 30.421875 42.921875 
L 36.375 41.703125 
Q 47.40625 39.59375 52.65625 34.296875 
Q 57.90625 29 57.90625 20.125 
Q 57.90625 9.515625 50.796875 4.046875 
Q 43.703125 -1.421875 29.984375 -1.421875 
Q 24.8125 -1.421875 18.96875 -0.25 
Q 13.140625 0.921875 6.890625 3.21875 
L 6.890625 13.375 
Q 12.890625 10.015625 18.65625 8.296875 
Q 24.421875 6.59375 29.984375 6.59375 
Q 38.421875 6.59375 43.015625 9.90625 
Q 47.609375 13.234375 47.609375 19.390625 
Q 47.609375 24.75 44.3125 27.78125 
Q 41.015625 30.8125 33.5 32.328125 
L 27.484375 33.5 
Q 16.453125 35.6875 11.515625 40.375 
Q 6.59375 45.0625 6.59375 53.421875 
Q 6.59375 63.09375 13.40625 68.65625 
Q 20.21875 74.21875 32.171875 74.21875 
Q 37.3125 74.21875 42.625 73.28125 
Q 47.953125 72.359375 53.515625 70.515625 
z
" id="DejaVuSans-53"/>
      <path d="M 8.5 21.578125 
L 8.5 54.6875 
L 17.484375 54.6875 
L 17.484375 21.921875 
Q 17.484375 14.15625 20.5 10.265625 
Q 23.53125 6.390625 29.59375 6.390625 
Q 36.859375 6.390625 41.078125 11.03125 
Q 45.3125 15.671875 45.3125 23.6875 
L 45.3125 54.6875 
L 54.296875 54.6875 
L 54.296875 0 
L 45.3125 0 
L 45.3125 8.40625 
Q 42.046875 3.421875 37.71875 1 
Q 33.40625 -1.421875 27.6875 -1.421875 
Q 18.265625 -1.421875 13.375 4.4375 
Q 8.5 10.296875 8.5 21.578125 
z
M 31.109375 56 
z
" id="DejaVuSans-75"/>
      <path d="M 41.109375 46.296875 
Q 39.59375 47.171875 37.8125 47.578125 
Q 36.03125 48 33.890625 48 
Q 26.265625 48 22.1875 43.046875 
Q 18.109375 38.09375 18.109375 28.8125 
L 18.109375 0 
L 9.078125 0 
L 9.078125 54.6875 
L 18.109375 54.6875 
L 18.109375 46.1875 
Q 20.953125 51.171875 25.484375 53.578125 
Q 30.03125 56 36.53125 56 
Q 37.453125 56 38.578125 55.875 
Q 39.703125 55.765625 41.0625 55.515625 
z
" id="DejaVuSans-72"/>
      <path d="M 2.984375 54.6875 
L 12.5 54.6875 
L 29.59375 8.796875 
L 46.6875 54.6875 
L 56.203125 54.6875 
L 35.6875 0 
L 23.484375 0 
z
" id="DejaVuSans-76"/>
      <path d="M 34.28125 27.484375 
Q 23.390625 27.484375 19.1875 25 
Q 14.984375 22.515625 14.984375 16.5 
Q 14.984375 11.71875 18.140625 8.90625 
Q 21.296875 6.109375 26.703125 6.109375 
Q 34.1875 6.109375 38.703125 11.40625 
Q 43.21875 16.703125 43.21875 25.484375 
L 43.21875 27.484375 
z
M 52.203125 31.203125 
L 52.203125 0 
L 43.21875 0 
L 43.21875 8.296875 
Q 40.140625 3.328125 35.546875 0.953125 
Q 30.953125 -1.421875 24.3125 -1.421875 
Q 15.921875 -1.421875 10.953125 3.296875 
Q 6 8.015625 6 15.921875 
Q 6 25.140625 12.171875 29.828125 
Q 18.359375 34.515625 30.609375 34.515625 
L 43.21875 34.515625 
L 43.21875 35.40625 
Q 43.21875 41.609375 39.140625 45 
Q 35.0625 48.390625 27.6875 48.390625 
Q 23 48.390625 18.546875 47.265625 
Q 14.109375 46.140625 10.015625 43.890625 
L 10.015625 52.203125 
Q 14.9375 54.109375 19.578125 55.046875 
Q 24.21875 56 28.609375 56 
Q 40.484375 56 46.34375 49.84375 
Q 52.203125 43.703125 52.203125 31.203125 
z
" id="DejaVuSans-61"/>
      <path d="M 9.421875 75.984375 
L 18.40625 75.984375 
L 18.40625 0 
L 9.421875 0 
z
" id="DejaVuSans-6c"/>
     </defs>
     <g transform="translate(22.396875 186.273578)rotate(-90)scale(0.2 -0.2)">
      <use xlink:href="#DejaVuSans-53"/>
      <use x="63.476562" xlink:href="#DejaVuSans-75"/>
      <use x="126.855469" xlink:href="#DejaVuSans-72"/>
      <use x="167.96875" xlink:href="#DejaVuSans-76"/>
      <use x="227.148438" xlink:href="#DejaVuSans-69"/>
      <use x="254.931641" xlink:href="#DejaVuSans-76"/>
      <use x="314.111328" xlink:href="#DejaVuSans-61"/>
      <use x="375.390625" xlink:href="#DejaVuSans-6c"/>
     </g>
    </g>
   </g>
   <g id="LineCollection_1">
    <path clip-path="url(#p1da729468f)" d="M 61.410938 279.010828 
L 61.410938 277.828108 
" style="fill:none;stroke:#1f77b4;stroke-width:1.5;"/>
    <path clip-path="url(#p1da729468f)" d="M 73.086014 229.629923 
L 73.086014 214.700691 
" style="fill:none;stroke:#1f77b4;stroke-width:1.5;"/>
    <path clip-path="url(#p1da729468f)" d="M 84.761091 148.337002 
L 84.761091 130.733917 
" style="fill:none;stroke:#1f77b4;stroke-width:1.5;"/>
    <path clip-path="url(#p1da729468f)" d="M 96.436168 71.678143 
L 96.436168 58.155068 
" style="fill:none;stroke:#1f77b4;stroke-width:1.5;"/>
    <path clip-path="url(#p1da729468f)" d="M 108.111245 85.893494 
L 108.111245 69.54847 
" style="fill:none;stroke:#1f77b4;stroke-width:1.5;"/>
    <path clip-path="url(#p1da729468f)" d="M 119.786322 128.715479 
L 119.786322 111.577626 
" style="fill:none;stroke:#1f77b4;stroke-width:1.5;"/>
    <path clip-path="url(#p1da729468f)" d="M 131.461399 228.245979 
L 131.461399 213.501515 
" style="fill:none;stroke:#1f77b4;stroke-width:1.5;"/>
    <path clip-path="url(#p1da729468f)" d="M 143.136476 248.859356 
L 143.136476 236.6943 
" style="fill:none;stroke:#1f77b4;stroke-width:1.5;"/>
    <path clip-path="url(#p1da729468f)" d="M 154.811553 199.823814 
L 154.811553 183.454769 
" style="fill:none;stroke:#1f77b4;stroke-width:1.5;"/>
    <path clip-path="url(#p1da729468f)" d="M 166.48663 139.648073 
L 166.48663 121.744152 
" style="fill:none;stroke:#1f77b4;stroke-width:1.5;"/>
    <path clip-path="url(#p1da729468f)" d="M 178.161707 64.760821 
L 178.161707 51.346337 
" style="fill:none;stroke:#1f77b4;stroke-width:1.5;"/>
    <path clip-path="url(#p1da729468f)" d="M 189.836784 69.60455 
L 189.836784 55.985106 
" style="fill:none;stroke:#1f77b4;stroke-width:1.5;"/>
    <path clip-path="url(#p1da729468f)" d="M 201.511861 153.700648 
L 201.511861 135.800754 
" style="fill:none;stroke:#1f77b4;stroke-width:1.5;"/>
    <path clip-path="url(#p1da729468f)" d="M 213.186938 229.164197 
L 213.186938 214.970544 
" style="fill:none;stroke:#1f77b4;stroke-width:1.5;"/>
    <path clip-path="url(#p1da729468f)" d="M 224.862014 236.825179 
L 224.862014 223.276477 
" style="fill:none;stroke:#1f77b4;stroke-width:1.5;"/>
    <path clip-path="url(#p1da729468f)" d="M 236.537091 185.598028 
L 236.537091 167.818647 
" style="fill:none;stroke:#1f77b4;stroke-width:1.5;"/>
    <path clip-path="url(#p1da729468f)" d="M 248.212168 109.555734 
L 248.212168 92.40057 
" style="fill:none;stroke:#1f77b4;stroke-width:1.5;"/>
    <path clip-path="url(#p1da729468f)" d="M 259.887245 71.150238 
L 259.887245 56.903418 
" style="fill:none;stroke:#1f77b4;stroke-width:1.5;"/>
    <path clip-path="url(#p1da729468f)" d="M 271.562322 85.586888 
L 271.562322 70.28345 
" style="fill:none;stroke:#1f77b4;stroke-width:1.5;"/>
    <path clip-path="url(#p1da729468f)" d="M 283.237399 156.007596 
L 283.237399 138.2675 
" style="fill:none;stroke:#1f77b4;stroke-width:1.5;"/>
    <path clip-path="url(#p1da729468f)" d="M 294.912476 220.555216 
L 294.912476 205.018002 
" style="fill:none;stroke:#1f77b4;stroke-width:1.5;"/>
    <path clip-path="url(#p1da729468f)" d="M 306.587553 225.771278 
L 306.587553 211.391178 
" style="fill:none;stroke:#1f77b4;stroke-width:1.5;"/>
    <path clip-path="url(#p1da729468f)" d="M 318.26263 185.791346 
L 318.26263 168.997095 
" style="fill:none;stroke:#1f77b4;stroke-width:1.5;"/>
    <path clip-path="url(#p1da729468f)" d="M 329.937707 127.388352 
L 329.937707 109.549812 
" style="fill:none;stroke:#1f77b4;stroke-width:1.5;"/>
    <path clip-path="url(#p1da729468f)" d="M 341.612784 87.818034 
L 341.612784 72.245222 
" style="fill:none;stroke:#1f77b4;stroke-width:1.5;"/>
    <path clip-path="url(#p1da729468f)" d="M 353.287861 110.325524 
L 353.287861 93.288906 
" style="fill:none;stroke:#1f77b4;stroke-width:1.5;"/>
    <path clip-path="url(#p1da729468f)" d="M 364.962938 158.156639 
L 364.962938 139.970587 
" style="fill:none;stroke:#1f77b4;stroke-width:1.5;"/>
    <path clip-path="url(#p1da729468f)" d="M 376.638014 223.389397 
L 376.638014 207.475294 
" style="fill:none;stroke:#1f77b4;stroke-width:1.5;"/>
    <path clip-path="url(#p1da729468f)" d="M 388.313091 216.175024 
L 388.313091 200.89748 
" style="fill:none;stroke:#1f77b4;stroke-width:1.5;"/>
    <path clip-path="url(#p1da729468f)" d="M 399.988168 194.236861 
L 399.988168 177.389165 
" style="fill:none;stroke:#1f77b4;stroke-width:1.5;"/>
    <path clip-path="url(#p1da729468f)" d="M 411.663245 125.330724 
L 411.663245 107.715449 
" style="fill:none;stroke:#1f77b4;stroke-width:1.5;"/>
   </g>
   <g id="LineCollection_2">
    <path clip-path="url(#p1da729468f)" d="M 61.410938 274.780846 
L 61.410938 267.789145 
" style="fill:none;stroke:#d62728;stroke-width:1.5;"/>
    <path clip-path="url(#p1da729468f)" d="M 73.086014 244.498795 
L 73.086014 229.226513 
" style="fill:none;stroke:#d62728;stroke-width:1.5;"/>
    <path clip-path="url(#p1da729468f)" d="M 84.761091 171.788241 
L 84.761091 151.873416 
" style="fill:none;stroke:#d62728;stroke-width:1.5;"/>
    <path clip-path="url(#p1da729468f)" d="M 96.436168 193.132676 
L 96.436168 173.949861 
" style="fill:none;stroke:#d62728;stroke-width:1.5;"/>
    <path clip-path="url(#p1da729468f)" d="M 108.111245 209.353699 
L 108.111245 190.306828 
" style="fill:none;stroke:#d62728;stroke-width:1.5;"/>
    <path clip-path="url(#p1da729468f)" d="M 119.786322 208.196763 
L 119.786322 189.535209 
" style="fill:none;stroke:#d62728;stroke-width:1.5;"/>
    <path clip-path="url(#p1da729468f)" d="M 131.461399 196.798207 
L 131.461399 176.178681 
" style="fill:none;stroke:#d62728;stroke-width:1.5;"/>
    <path clip-path="url(#p1da729468f)" d="M 143.136476 173.845857 
L 143.136476 152.990999 
" style="fill:none;stroke:#d62728;stroke-width:1.5;"/>
    <path clip-path="url(#p1da729468f)" d="M 154.811553 198.91833 
L 154.811553 178.888238 
" style="fill:none;stroke:#d62728;stroke-width:1.5;"/>
    <path clip-path="url(#p1da729468f)" d="M 166.48663 189.481254 
L 166.48663 169.739084 
" style="fill:none;stroke:#d62728;stroke-width:1.5;"/>
    <path clip-path="url(#p1da729468f)" d="M 178.161707 178.990023 
L 178.161707 159.066222 
" style="fill:none;stroke:#d62728;stroke-width:1.5;"/>
    <path clip-path="url(#p1da729468f)" d="M 189.836784 160.792204 
L 189.836784 140.454715 
" style="fill:none;stroke:#d62728;stroke-width:1.5;"/>
    <path clip-path="url(#p1da729468f)" d="M 201.511861 182.052838 
L 201.511861 161.416019 
" style="fill:none;stroke:#d62728;stroke-width:1.5;"/>
    <path clip-path="url(#p1da729468f)" d="M 213.186938 189.419048 
L 213.186938 168.583785 
" style="fill:none;stroke:#d62728;stroke-width:1.5;"/>
    <path clip-path="url(#p1da729468f)" d="M 224.862014 173.882357 
L 224.862014 152.190326 
" style="fill:none;stroke:#d62728;stroke-width:1.5;"/>
    <path clip-path="url(#p1da729468f)" d="M 236.537091 172.463294 
L 236.537091 151.447173 
" style="fill:none;stroke:#d62728;stroke-width:1.5;"/>
   </g>
   <g id="line2d_25">
    <path clip-path="url(#p1da729468f)" d="M 61.410938 278.518987 
L 62.482298 278.518987 
L 63.553658 277.612745 
L 64.267898 275.520196 
L 64.625018 275.094665 
L 65.339258 273.288688 
L 65.696378 271.128113 
L 66.053498 271.0952 
L 66.410618 269.877271 
L 66.767738 267.831674 
L 67.481978 265.571663 
L 67.839098 262.676582 
L 68.196218 261.817827 
L 69.624698 254.689786 
L 69.981818 251.584748 
L 70.696058 248.01207 
L 71.767418 241.055503 
L 72.124538 237.488432 
L 72.481658 236.165621 
L 72.838778 233.337325 
L 73.195898 229.212153 
L 73.553018 227.403046 
L 76.767098 200.163126 
L 77.838458 190.575749 
L 82.838138 145.148696 
L 83.552378 138.241626 
L 83.909498 135.984561 
L 84.980858 125.533791 
L 87.123578 108.128284 
L 87.480698 105.792321 
L 87.837818 101.305719 
L 88.194938 99.878724 
L 88.552058 97.596588 
L 88.909178 94.051673 
L 90.694778 81.877795 
L 91.051898 80.847184 
L 91.766138 75.601869 
L 92.123258 73.805185 
L 92.837498 69.106881 
L 93.194618 68.61994 
L 93.908858 63.420093 
L 94.265978 63.725214 
L 95.694458 56.858885 
L 96.051578 56.650389 
L 96.408698 55.055977 
L 96.765818 54.480101 
L 97.122938 54.614793 
L 97.480058 52.47038 
L 97.837178 51.950282 
L 98.194298 52.560566 
L 98.551418 51.222488 
L 98.908538 51.662593 
L 99.265658 50.862726 
L 99.622778 51.640402 
L 100.337018 50.479001 
L 100.694138 49.897964 
L 101.051258 51.662593 
L 101.408378 51.390809 
L 101.765498 51.618212 
L 102.122618 52.700102 
L 102.479738 52.133985 
L 102.836858 52.5713 
L 103.193978 52.796703 
L 103.551098 53.724059 
L 103.908218 55.36984 
L 104.265338 56.056553 
L 104.622458 57.352241 
L 104.979578 57.268398 
L 105.336698 59.214181 
L 106.408058 62.834767 
L 106.765178 65.214333 
L 107.122298 65.996692 
L 107.479418 68.416279 
L 107.836538 69.565503 
L 108.907898 75.227661 
L 109.265018 76.494146 
L 109.979258 81.848405 
L 110.336378 83.199489 
L 111.407738 90.686864 
L 111.764858 92.354173 
L 112.121978 94.813128 
L 112.479098 98.472565 
L 113.193338 102.51805 
L 113.550458 105.839123 
L 113.907578 107.395576 
L 114.264698 111.096083 
L 115.336058 118.840945 
L 116.050298 125.004012 
L 117.835898 139.553738 
L 118.550138 145.306536 
L 119.264378 150.765621 
L 119.978618 157.739438 
L 120.335738 159.872296 
L 121.049978 166.196079 
L 121.407098 168.432357 
L 121.764218 172.868155 
L 122.835578 180.639306 
L 123.192698 184.32432 
L 123.906938 188.40808 
L 124.978298 197.903132 
L 129.263738 228.129397 
L 129.977978 231.100655 
L 130.692218 236.230023 
L 131.049338 237.620735 
L 131.406458 239.514852 
L 131.763578 240.659211 
L 132.477818 244.779222 
L 132.834938 246.82682 
L 133.192058 247.434254 
L 133.906298 251.27382 
L 134.977658 254.284085 
L 135.334778 255.883372 
L 135.691898 256.925558 
L 136.406138 258.133783 
L 136.763258 259.635258 
L 137.477498 261.000974 
L 137.834618 261.19789 
L 138.191738 262.684271 
L 138.548858 262.280636 
L 138.905978 262.232072 
L 139.263098 262.684271 
L 139.620218 262.594294 
L 140.334458 263.884815 
L 140.691578 263.168929 
L 141.405818 263.410735 
L 142.120058 262.024876 
L 142.477178 262.040802 
L 142.834298 261.495102 
L 143.191418 260.506868 
L 143.548538 260.227149 
L 144.262778 259.465978 
L 144.619898 258.470054 
L 144.977018 257.090137 
L 145.691258 255.364881 
L 146.048378 253.474996 
L 146.405498 252.972756 
L 146.762618 250.867499 
L 147.119738 250.199177 
L 147.476858 248.450926 
L 147.833978 247.881647 
L 148.191098 245.248253 
L 148.548218 244.598898 
L 148.905338 241.682766 
L 149.262458 240.933515 
L 150.333818 235.324646 
L 150.690938 232.939961 
L 151.405178 229.465904 
L 151.762298 227.139258 
L 152.119418 225.749368 
L 152.476538 223.000757 
L 152.833658 221.382589 
L 153.190778 217.766405 
L 153.547898 216.534935 
L 153.905018 213.822338 
L 154.262138 212.362057 
L 156.047738 199.26381 
L 156.761978 194.585748 
L 157.476218 189.304123 
L 158.904698 178.460095 
L 159.261818 176.324573 
L 159.618938 172.89305 
L 159.976058 171.304187 
L 160.333178 167.60875 
L 160.690298 165.637035 
L 161.047418 162.397379 
L 161.404538 160.912419 
L 162.475898 151.410525 
L 162.833018 148.576648 
L 163.190138 147.079196 
L 164.618618 135.787059 
L 164.975738 134.105265 
L 165.689978 128.953448 
L 166.047098 125.607288 
L 166.404218 124.135889 
L 167.118458 118.906198 
L 168.189818 113.156478 
L 168.546938 109.363045 
L 169.618298 104.394629 
L 170.332538 98.610816 
L 171.046778 95.555147 
L 171.403898 93.548637 
L 171.761018 90.901807 
L 172.475258 88.288949 
L 173.189498 84.819782 
L 173.546618 82.709891 
L 173.903738 82.849303 
L 174.975098 78.471448 
L 175.332218 76.060442 
L 175.689338 75.710879 
L 176.046458 73.475149 
L 176.403578 73.194031 
L 176.760698 73.369109 
L 177.117818 71.871121 
L 177.474938 72.007328 
L 177.832058 70.344172 
L 178.189178 69.961145 
L 178.546298 69.918824 
L 178.903418 68.706436 
L 179.260538 69.380792 
L 179.617658 67.675584 
L 179.974778 67.895064 
L 180.331898 67.601891 
L 180.689018 68.72806 
L 181.046138 66.970193 
L 181.403258 66.934888 
L 181.760378 67.909694 
L 182.831738 67.85849 
L 183.188858 68.61994 
L 183.545978 68.857805 
L 183.903098 68.828973 
L 184.260218 69.437626 
L 184.617338 70.414207 
L 184.974458 70.71485 
L 185.331578 71.673622 
L 185.688698 73.260754 
L 186.045818 74.242026 
L 186.402938 74.268185 
L 186.760058 75.563395 
L 187.117178 76.405524 
L 187.474298 77.793578 
L 187.831418 77.843264 
L 189.617018 86.182695 
L 189.974138 87.432393 
L 190.331258 90.026554 
L 190.688378 90.363005 
L 191.045498 92.150403 
L 191.759738 97.541727 
L 192.116858 98.066552 
L 193.188218 104.002462 
L 193.902458 108.615337 
L 194.973818 115.011483 
L 195.330938 117.891918 
L 195.688058 118.266711 
L 196.045178 122.674584 
L 196.759418 126.742501 
L 197.473658 131.915585 
L 197.830778 133.345008 
L 198.545018 139.361949 
L 199.973498 150.028012 
L 200.330618 151.982877 
L 201.401978 159.653749 
L 201.759098 161.267636 
L 202.473338 167.3588 
L 204.258938 180.819721 
L 204.616058 182.489373 
L 205.330298 188.017465 
L 205.687418 189.436378 
L 206.044538 193.451655 
L 206.758778 197.608413 
L 208.187258 206.495815 
L 208.901498 211.307594 
L 212.115578 229.224895 
L 212.472698 229.632624 
L 213.544058 236.386284 
L 213.901178 236.415116 
L 214.258298 239.210968 
L 214.615418 239.583747 
L 215.329658 241.569679 
L 215.686778 243.774927 
L 216.043898 244.762048 
L 216.401018 246.356331 
L 216.758138 245.974386 
L 217.115258 247.723276 
L 217.472378 248.38446 
L 217.829498 248.796585 
L 218.186618 250.129355 
L 218.543738 250.298924 
L 218.900858 249.766418 
L 219.257978 251.615932 
L 219.615098 250.938761 
L 219.972218 251.923303 
L 220.686458 252.525888 
L 221.043578 253.264974 
L 221.400698 253.663616 
L 221.757818 253.712234 
L 222.114938 252.601023 
L 222.472058 252.078011 
L 222.829178 253.155254 
L 223.543418 251.797241 
L 223.900538 251.65751 
L 224.257658 251.098953 
L 224.971898 250.836958 
L 225.329018 248.25292 
L 225.686138 249.061891 
L 226.043258 247.38811 
L 226.400378 247.369652 
L 226.757498 247.16887 
L 227.114618 245.154607 
L 227.471738 244.064582 
L 227.828858 243.691241 
L 228.185978 241.378551 
L 228.543098 240.28471 
L 228.900218 240.42467 
L 229.257338 237.834447 
L 229.614458 236.559276 
L 229.971578 234.024423 
L 230.685818 231.647322 
L 231.042938 230.366727 
L 231.757178 226.237424 
L 232.114298 225.182965 
L 232.828538 220.91085 
L 233.185658 219.983544 
L 233.542778 216.56749 
L 234.257018 213.58603 
L 234.614138 211.723492 
L 234.971258 208.057559 
L 235.328378 206.722941 
L 235.685498 203.899856 
L 236.042618 202.83143 
L 236.399738 199.155531 
L 236.756858 198.130305 
L 237.113978 196.012224 
L 237.471098 192.471509 
L 237.828218 190.991427 
L 238.542458 186.013987 
L 238.899578 182.912591 
L 239.256698 180.858029 
L 239.613818 179.519345 
L 239.970938 176.839249 
L 240.328058 172.818365 
L 240.685178 171.564493 
L 241.042298 167.80953 
L 241.756538 163.888802 
L 242.470778 158.573155 
L 242.827898 156.804542 
L 243.542138 151.599966 
L 244.256378 146.28595 
L 244.613498 144.476866 
L 245.684858 137.348361 
L 246.399098 132.58475 
L 247.113338 127.537517 
L 247.470458 126.510395 
L 247.827578 124.52933 
L 248.184698 121.548348 
L 249.256058 115.858231 
L 249.613178 112.846987 
L 249.970298 111.61029 
L 251.041658 105.74084 
L 251.398778 105.460032 
L 251.755898 101.686029 
L 252.470138 99.247924 
L 253.541498 94.314133 
L 253.898618 92.338499 
L 254.255738 91.086634 
L 254.612858 90.99158 
L 255.327098 87.454337 
L 256.041338 85.502305 
L 256.398458 85.186569 
L 256.755578 82.826068 
L 257.112698 82.919009 
L 257.469818 81.954208 
L 257.826938 81.472012 
L 258.184058 79.803479 
L 258.541178 79.726395 
L 258.898298 79.008311 
L 259.255418 78.606386 
L 259.612538 77.768736 
L 259.969658 77.507584 
L 260.326778 76.978933 
L 260.683898 78.075998 
L 261.041018 77.656943 
L 261.398138 76.922324 
L 261.755258 77.694207 
L 262.112378 77.05441 
L 262.469498 77.004092 
L 263.183738 78.341389 
L 263.540858 77.731471 
L 263.897978 79.17899 
L 264.255098 79.057077 
L 264.612218 79.197277 
L 264.969338 79.550704 
L 265.326458 79.490121 
L 265.683578 81.683821 
L 266.040698 81.318269 
L 266.397818 82.791215 
L 267.112058 84.08179 
L 267.826298 85.965109 
L 268.183418 86.38388 
L 268.540538 89.153756 
L 269.254778 90.389529 
L 269.611898 92.660896 
L 270.326138 94.54438 
L 270.683258 96.780989 
L 271.040378 97.282382 
L 271.754618 100.899098 
L 272.111738 102.287952 
L 276.754298 126.69608 
L 277.111418 129.665759 
L 277.468538 131.484068 
L 278.182778 136.013364 
L 278.539898 137.475384 
L 281.396858 156.140807 
L 281.753978 157.824429 
L 282.111098 160.527937 
L 282.468218 161.621189 
L 283.539578 169.712106 
L 284.968058 178.35849 
L 285.682298 182.275626 
L 286.039418 185.429278 
L 286.396538 186.878941 
L 287.825018 194.395495 
L 288.182138 195.971078 
L 288.539258 199.568019 
L 290.681978 209.741135 
L 291.396218 212.866308 
L 291.753338 215.410738 
L 292.824698 219.578292 
L 293.181818 220.916558 
L 293.538938 222.82546 
L 293.896058 222.731969 
L 294.253178 225.363606 
L 294.967418 227.757673 
L 295.324538 228.562857 
L 296.038778 231.514772 
L 296.395898 232.314806 
L 296.753018 234.155629 
L 297.110138 234.815056 
L 297.467258 235.144222 
L 297.824378 236.357452 
L 298.181498 236.172777 
L 298.538618 236.740889 
L 298.895738 238.133691 
L 299.252858 238.776038 
L 299.609978 239.165392 
L 299.967098 240.588676 
L 300.324218 239.218564 
L 300.681338 240.331363 
L 301.038458 239.690917 
L 301.395578 240.992304 
L 302.109818 239.862057 
L 302.466938 241.673206 
L 302.824058 240.199179 
L 303.181178 241.197702 
L 303.538298 239.461267 
L 303.895418 239.28693 
L 304.252538 240.315812 
L 304.609658 240.101216 
L 304.966778 238.715733 
L 305.323898 239.32491 
L 305.681018 238.700657 
L 306.038138 237.819708 
L 306.395258 237.598627 
L 306.752378 236.294425 
L 307.109498 237.125723 
L 307.823738 233.23517 
L 308.180858 233.398618 
L 308.537978 231.779872 
L 308.895098 231.258654 
L 309.252218 230.34074 
L 309.609338 229.831407 
L 309.966458 227.378203 
L 310.323578 226.867695 
L 310.680698 225.327478 
L 311.037818 224.409714 
L 311.394938 222.470512 
L 312.109178 220.293902 
L 312.466298 219.466075 
L 313.180538 215.662981 
L 313.894778 212.310083 
L 314.251898 210.747625 
L 314.609018 210.675993 
L 314.966138 206.86613 
L 315.323258 205.869073 
L 315.680378 202.6253 
L 316.037498 202.450461 
L 316.751738 197.879951 
L 318.180218 191.231631 
L 318.894458 186.400413 
L 319.251578 185.152083 
L 319.608698 182.450898 
L 320.322938 178.63312 
L 322.465658 165.820663 
L 322.822778 164.571994 
L 323.537018 159.204513 
L 323.894138 158.172485 
L 324.251258 155.412961 
L 324.965498 151.652364 
L 325.322618 148.734488 
L 325.679738 147.17228 
L 326.036858 144.351404 
L 326.751098 141.484943 
L 327.108218 138.492778 
L 327.465338 137.418019 
L 328.179578 133.113625 
L 328.536698 131.728871 
L 328.893818 129.016214 
L 329.250938 127.819062 
L 329.608058 124.855674 
L 329.965178 124.306149 
L 330.322298 121.913296 
L 331.036538 118.919249 
L 331.393658 116.456063 
L 331.750778 115.567269 
L 332.107898 115.401172 
L 332.465018 111.750074 
L 332.822138 111.623817 
L 333.179258 108.923072 
L 333.893498 105.310763 
L 334.607738 103.915964 
L 335.321978 101.560784 
L 336.036218 99.556073 
L 337.464698 95.332325 
L 337.821818 93.686502 
L 338.178938 92.759646 
L 338.536058 92.427322 
L 338.893178 92.2967 
L 339.964538 89.734749 
L 340.321658 90.996861 
L 340.678778 88.479565 
L 341.035898 89.304849 
L 341.750138 88.294404 
L 342.107258 88.506694 
L 342.464378 88.321684 
L 343.178618 88.152553 
L 343.535738 87.912497 
L 343.892858 88.79969 
L 344.249978 88.57723 
L 344.607098 86.952441 
L 344.964218 89.402003 
L 345.321338 89.115983 
L 345.678458 89.33183 
L 346.035578 90.250745 
L 346.392698 90.686864 
L 346.749818 90.649699 
L 347.106938 92.281025 
L 347.464058 92.582935 
L 347.821178 92.660896 
L 348.178298 93.773937 
L 348.535418 94.247617 
L 348.892538 95.727328 
L 349.249658 96.188829 
L 349.606778 97.412055 
L 349.963898 97.773774 
L 351.035258 101.729383 
L 351.392378 103.384229 
L 351.749498 104.10641 
L 352.106618 105.287251 
L 352.820858 108.720977 
L 353.535098 110.345049 
L 354.249338 114.032556 
L 354.606458 115.919951 
L 354.963578 116.785232 
L 355.320698 119.543432 
L 356.034938 121.891829 
L 356.392058 124.35297 
L 357.463418 129.007845 
L 357.820538 132.537964 
L 358.177658 131.857496 
L 358.534778 135.272732 
L 359.249018 138.517261 
L 359.606138 140.859114 
L 359.963258 142.159538 
L 361.391738 150.737407 
L 362.463098 156.768118 
L 363.177338 159.989664 
L 363.891578 164.792347 
L 365.320058 172.43631 
L 365.677178 174.025781 
L 366.391418 179.401182 
L 366.748538 180.134956 
L 367.105658 182.536397 
L 368.534138 188.911765 
L 368.891258 191.804081 
L 370.676858 200.214853 
L 371.033978 202.797874 
L 371.391098 203.948263 
L 371.748218 204.716812 
L 372.105338 207.188403 
L 372.462458 208.21872 
L 372.819578 210.461095 
L 373.176698 210.798791 
L 373.890938 213.811776 
L 374.248058 214.613339 
L 374.605178 215.861841 
L 374.962298 217.557932 
L 375.319418 217.297303 
L 375.676538 219.367308 
L 376.747898 222.412424 
L 377.462138 224.451356 
L 377.819258 226.011883 
L 378.533498 227.163945 
L 378.890618 227.35336 
L 379.604858 228.67047 
L 379.961978 228.989169 
L 380.319098 230.692022 
L 380.676218 230.174768 
L 381.033338 230.43819 
L 381.390458 230.168314 
L 381.747578 230.973231 
L 382.104698 230.947072 
L 382.461818 231.726852 
L 382.818938 231.469321 
L 383.176058 230.026321 
L 383.533178 231.495654 
L 383.890298 231.107238 
L 384.247418 231.442988 
L 384.604538 230.561628 
L 385.318778 230.711641 
L 385.675898 230.032775 
L 386.033018 229.773696 
L 386.390138 228.613498 
L 386.747258 229.664686 
L 387.104378 227.489996 
L 387.461498 227.421678 
L 387.818618 226.334955 
L 388.175738 226.406464 
L 388.532858 225.561561 
L 389.247098 223.176053 
L 389.604218 223.065032 
L 389.961338 221.325176 
L 390.318458 221.462967 
L 391.032698 218.2904 
L 391.389818 218.102829 
L 391.746938 216.556638 
L 392.104058 214.191992 
L 392.461178 214.533702 
L 393.175418 211.081291 
L 393.532538 210.947173 
L 394.246778 206.92538 
L 394.603898 206.481002 
L 395.318138 202.035423 
L 395.675258 201.113572 
L 396.389498 198.352842 
L 396.746618 195.45725 
L 397.103738 195.45725 
L 397.460858 194.974874 
L 397.817978 191.558322 
L 398.889338 187.410728 
L 399.603578 183.383537 
L 399.960698 181.688047 
L 400.317818 178.966509 
L 400.674938 178.10636 
L 402.460538 168.997819 
L 402.817658 166.285853 
L 403.174778 165.763534 
L 403.531898 163.900994 
L 403.889018 160.633164 
L 404.246138 160.499607 
L 404.603258 157.496608 
L 404.960378 156.573854 
L 405.317498 154.115091 
L 406.388858 149.556063 
L 406.745978 147.018488 
L 407.103098 146.524733 
L 407.460218 144.161187 
L 407.817338 142.858515 
L 408.174458 140.125024 
L 408.531578 138.415246 
L 408.888698 137.96709 
L 409.245818 136.827972 
L 409.960058 132.642595 
L 411.745658 125.020965 
L 412.102778 123.280332 
L 412.459898 122.678859 
L 413.174138 119.97655 
L 413.531258 119.820627 
L 414.245498 116.429729 
L 414.602618 115.210756 
L 414.959738 114.406207 
L 415.316858 113.983625 
L 416.031098 110.41331 
L 416.388218 110.09476 
L 417.102458 109.015588 
L 417.459578 107.597614 
L 417.816698 107.080315 
L 418.173818 107.06177 
L 418.530938 106.260021 
L 418.530938 106.260021 
" style="fill:none;stroke:#2ca02c;stroke-dasharray:9.6,2.4,1.5,2.4;stroke-dashoffset:0;stroke-width:1.5;"/>
   </g>
   <g id="line2d_26">
    <path clip-path="url(#p1da729468f)" d="M 61.410938 278.518987 
L 62.125178 278.518987 
L 62.482298 277.925399 
L 62.839418 278.518987 
L 63.196538 278.518987 
L 63.553658 277.728048 
L 64.267898 275.731749 
L 64.625018 275.092545 
L 64.982138 273.627467 
L 65.339258 273.950751 
L 65.696378 271.537292 
L 66.410618 269.314933 
L 66.767738 268.668173 
L 67.839098 263.151904 
L 68.196218 262.16732 
L 69.267578 256.268003 
L 69.624698 253.663616 
L 69.981818 252.131102 
L 70.338938 249.70398 
L 70.696058 248.25292 
L 74.981498 215.060593 
L 75.338618 210.381768 
L 75.695738 209.243073 
L 78.909818 180.079859 
L 79.624058 172.822514 
L 79.981178 169.312987 
L 80.338298 164.674009 
L 80.695418 163.092293 
L 81.766778 151.732977 
L 82.481018 145.541271 
L 82.838138 141.196412 
L 83.552378 135.527838 
L 83.909498 130.782435 
L 84.980858 122.34969 
L 85.337978 119.123308 
L 85.695098 114.856493 
L 86.052218 112.209595 
L 86.409338 108.408649 
L 86.766458 106.371814 
L 87.480698 99.095622 
L 87.837818 96.921345 
L 88.194938 92.842804 
L 88.552058 90.51697 
L 88.909178 86.661268 
L 89.623418 81.648553 
L 89.980538 78.551184 
L 90.337658 76.658729 
L 90.694778 73.587817 
L 91.051898 72.322641 
L 91.409018 69.071103 
L 91.766138 66.934888 
L 92.123258 63.468263 
L 93.194618 57.370873 
L 93.551738 55.677487 
L 93.908858 52.871792 
L 94.265978 51.424473 
L 94.623098 50.828279 
L 94.980218 47.922464 
L 95.694458 43.909362 
L 96.051578 43.893933 
L 96.408698 42.530985 
L 96.765818 39.960953 
L 97.122938 38.218273 
L 97.480058 38.64404 
L 97.837178 36.377489 
L 98.194298 36.273549 
L 98.551418 34.34252 
L 98.908538 33.677964 
L 99.265658 33.592201 
L 99.622778 33.134388 
L 99.979898 31.926568 
L 100.337018 32.016327 
L 100.694138 31.702171 
L 101.051258 31.836809 
L 101.408378 30.64727 
L 101.765498 31.011127 
L 102.122618 30.531117 
L 102.479738 30.531117 
L 102.836858 30.839304 
L 103.193978 32.016327 
L 103.551098 31.681822 
L 103.908218 32.021251 
L 104.622458 33.9163 
L 105.336698 34.427656 
L 105.693818 35.653468 
L 106.050938 37.383582 
L 106.408058 37.548154 
L 106.765178 38.799578 
L 107.122298 41.150904 
L 107.479418 41.642247 
L 107.836538 43.429283 
L 108.193658 44.495002 
L 108.550778 46.948031 
L 108.907898 47.119118 
L 109.622138 51.40203 
L 109.979258 52.549832 
L 111.050618 59.54546 
L 111.407738 60.367339 
L 111.764858 64.033354 
L 112.121978 65.33777 
L 112.479098 68.329147 
L 112.836218 70.01052 
L 113.907578 77.351333 
L 114.621818 81.771991 
L 114.978938 86.328402 
L 115.336058 88.981078 
L 115.693178 90.798356 
L 116.407418 95.894444 
L 116.764538 99.277401 
L 117.121658 101.387368 
L 117.835898 108.243299 
L 118.193018 110.742754 
L 118.550138 115.042481 
L 119.264378 120.420899 
L 119.621498 125.402406 
L 119.978618 126.556816 
L 120.335738 129.509968 
L 121.049978 136.971386 
L 121.407098 139.56598 
L 121.764218 143.138919 
L 122.478458 148.220497 
L 123.192698 155.865599 
L 123.906938 161.397678 
L 124.264058 165.698244 
L 124.621178 168.047188 
L 125.335418 174.682823 
L 126.763898 187.070352 
L 127.478138 192.969751 
L 128.192378 197.603799 
L 129.263738 206.979985 
L 129.620858 208.779551 
L 130.692218 217.428243 
L 131.406458 221.537604 
L 132.120698 227.514838 
L 132.477818 230.600608 
L 132.834938 231.547909 
L 133.906298 238.926801 
L 134.620538 242.07291 
L 134.977658 244.367745 
L 135.334778 245.256992 
L 136.049018 249.625763 
L 136.763258 252.407173 
L 137.120378 254.421424 
L 137.477498 255.035071 
L 138.191738 258.148803 
L 138.548858 260.660408 
L 138.905978 260.645446 
L 139.263098 261.38304 
L 139.620218 262.610751 
L 139.977338 263.117854 
L 140.691578 264.91117 
L 141.048698 265.118771 
L 141.405818 266.35265 
L 142.120058 266.081475 
L 142.477178 266.415678 
L 142.834298 267.106699 
L 143.191418 267.217684 
L 143.548538 267.992544 
L 143.905658 267.083034 
L 144.262778 267.262568 
L 144.619898 267.127917 
L 144.977018 266.37366 
L 145.334138 266.54975 
L 145.691258 267.105476 
L 146.048378 265.760911 
L 146.405498 265.025106 
L 146.762618 263.920722 
L 147.119738 263.462706 
L 148.191098 260.5856 
L 148.548218 259.86967 
L 148.905338 258.551217 
L 149.262458 256.780115 
L 149.619578 256.680117 
L 149.976698 254.75949 
L 150.333818 253.858112 
L 150.690938 251.439224 
L 152.476538 243.14991 
L 152.833658 240.960704 
L 153.190778 239.622022 
L 153.547898 236.733628 
L 153.905018 236.094063 
L 154.262138 233.194308 
L 154.619258 231.73348 
L 154.976378 228.299222 
L 155.333498 226.621138 
L 159.261818 198.181303 
L 159.618938 194.861105 
L 159.976058 193.253252 
L 160.333178 190.305624 
L 160.690298 185.962013 
L 161.404538 181.751895 
L 161.761658 177.358375 
L 162.118778 175.299495 
L 163.547258 162.856591 
L 163.904378 158.779561 
L 164.261498 157.484467 
L 164.618618 153.703965 
L 165.689978 145.844809 
L 166.047098 141.050114 
L 166.404218 138.163773 
L 166.761338 136.225632 
L 169.975418 108.771501 
L 170.332538 106.955138 
L 171.046778 101.165338 
L 172.118138 92.650501 
L 172.475258 90.670936 
L 172.832378 87.32267 
L 173.903738 81.129047 
L 174.260858 77.6321 
L 174.617978 76.411854 
L 175.332218 72.085912 
L 175.689338 68.329147 
L 176.046458 67.975527 
L 177.117818 61.091593 
L 177.474938 59.75727 
L 177.832058 57.63334 
L 178.189178 56.495369 
L 178.546298 54.103431 
L 179.260538 52.448678 
L 179.974778 48.447641 
L 180.331898 48.150439 
L 180.689018 47.382445 
L 181.046138 45.345586 
L 181.403258 45.220453 
L 182.117498 43.673132 
L 182.474618 41.856493 
L 182.831738 41.007089 
L 183.188858 41.007274 
L 183.545978 40.399034 
L 183.903098 40.266108 
L 184.617338 38.799578 
L 184.974458 38.757559 
L 185.331578 38.306045 
L 185.688698 39.154353 
L 186.045818 37.858461 
L 186.402938 37.997572 
L 186.760058 39.494649 
L 187.117178 39.575257 
L 187.474298 40.323076 
L 187.831418 40.209139 
L 188.188538 41.294534 
L 188.902778 41.204765 
L 189.259898 42.999372 
L 189.617018 42.785539 
L 189.974138 44.199091 
L 190.331258 46.111578 
L 190.688378 46.372161 
L 191.045498 46.894654 
L 191.402618 49.202898 
L 191.759738 50.121407 
L 192.116858 51.829022 
L 192.473978 52.199094 
L 192.831098 54.398659 
L 193.188218 55.280966 
L 194.259578 62.106837 
L 194.616698 63.227411 
L 194.973818 65.516685 
L 195.688058 68.749684 
L 196.045178 72.079148 
L 197.473658 80.525995 
L 198.187898 85.892581 
L 198.545018 86.831072 
L 198.902138 91.87085 
L 199.259258 93.279787 
L 199.616378 95.74252 
L 200.330618 102.599543 
L 201.044858 106.460317 
L 202.473338 119.552094 
L 202.830458 121.754436 
L 204.616058 137.807286 
L 205.330298 143.768812 
L 205.687418 146.217149 
L 206.044538 149.616886 
L 206.401658 151.942571 
L 206.758778 156.371495 
L 207.473018 161.531785 
L 207.830138 165.939 
L 210.329978 187.318969 
L 210.687098 188.92499 
L 211.044218 193.447146 
L 211.758458 198.596565 
L 212.115578 202.402756 
L 212.472698 203.904697 
L 213.901178 215.926595 
L 214.615418 220.671545 
L 214.972538 223.590215 
L 215.329658 225.122752 
L 215.686778 228.531945 
L 216.401018 232.453956 
L 218.186618 243.174805 
L 218.543738 244.796396 
L 219.257978 249.178066 
L 219.615098 251.511986 
L 219.972218 251.975828 
L 221.043578 257.077477 
L 221.400698 257.203022 
L 221.757818 259.240553 
L 222.472058 261.865607 
L 222.829178 261.897461 
L 223.186298 264.046398 
L 223.543418 265.21558 
L 223.900538 265.293027 
L 224.257658 266.394669 
L 224.614778 266.678547 
L 224.971898 266.700013 
L 225.329018 268.490942 
L 225.686138 267.540504 
L 226.043258 268.516261 
L 226.400378 267.402722 
L 226.757498 268.693491 
L 227.114618 267.992544 
L 227.471738 269.09659 
L 227.828858 268.040711 
L 228.543098 267.379759 
L 228.900218 267.620081 
L 229.257338 266.592682 
L 229.614458 266.310631 
L 229.971578 264.208168 
L 230.328698 264.89218 
L 231.400058 261.510776 
L 232.114298 261.046549 
L 233.185658 254.782725 
L 233.542778 254.75949 
L 233.899898 253.24303 
L 234.257018 250.069508 
L 235.328378 245.819683 
L 237.828218 230.626595 
L 239.256698 219.949687 
L 239.613818 218.764803 
L 239.970938 214.959174 
L 240.328058 212.35686 
L 240.685178 211.41046 
L 241.042298 207.282688 
L 242.113658 199.670981 
L 242.470778 195.297975 
L 242.827898 193.320889 
L 245.327738 171.118254 
L 245.684858 169.051087 
L 246.756218 159.85206 
L 247.113338 155.441175 
L 247.470458 153.437942 
L 249.256058 137.188556 
L 249.970298 131.600246 
L 250.327418 127.209748 
L 250.684538 125.343071 
L 251.041658 121.342259 
L 251.755898 115.659848 
L 252.113018 112.618064 
L 252.470138 110.742754 
L 253.541498 101.223426 
L 256.041338 82.448228 
L 256.398458 80.609783 
L 256.755578 77.401334 
L 257.112698 75.672405 
L 257.469818 74.608151 
L 257.826938 71.156305 
L 258.184058 69.551295 
L 258.541178 66.235689 
L 258.898298 65.098611 
L 259.255418 62.835526 
L 259.612538 61.924275 
L 260.326778 56.631399 
L 260.683898 56.380322 
L 261.041018 54.480101 
L 261.398138 51.55164 
L 262.469498 48.922566 
L 263.183738 45.664638 
L 263.540858 45.234975 
L 263.897978 44.001937 
L 264.255098 43.720155 
L 264.612218 41.804522 
L 264.969338 41.75255 
L 265.683578 39.454345 
L 266.040698 40.209139 
L 266.397818 39.257212 
L 266.754938 38.673521 
L 267.112058 39.174925 
L 267.469178 38.686972 
L 267.826298 38.946644 
L 268.183418 38.306045 
L 268.540538 38.622574 
L 268.897658 38.708438 
L 269.254778 39.575257 
L 269.611898 38.862606 
L 269.969018 38.946644 
L 270.326138 40.209139 
L 270.683258 40.154571 
L 271.040378 41.821845 
L 271.397498 42.182528 
L 271.754618 43.206308 
L 272.111738 43.301868 
L 272.468858 46.058152 
L 272.825978 46.772256 
L 273.183098 46.745202 
L 273.540218 48.848505 
L 273.897338 50.015605 
L 274.611578 53.126627 
L 274.968698 53.312964 
L 275.325818 57.056383 
L 275.682938 57.203186 
L 276.040058 59.956703 
L 276.397178 61.192874 
L 277.111418 64.930546 
L 277.825658 68.999545 
L 278.897018 76.367543 
L 279.611258 80.561904 
L 280.682618 88.588082 
L 281.039738 91.007422 
L 281.396858 92.108604 
L 282.468218 102.565987 
L 282.825338 104.441878 
L 283.539578 110.199426 
L 283.896698 112.519314 
L 284.968058 121.900416 
L 285.325178 124.008194 
L 285.682298 128.334163 
L 286.753658 136.598509 
L 287.110778 140.341297 
L 287.467898 141.830368 
L 287.825018 145.901469 
L 288.182138 147.840063 
L 289.253498 158.633862 
L 289.610618 160.564362 
L 289.967738 164.694413 
L 290.324858 166.775527 
L 291.039098 174.520322 
L 291.396218 175.977272 
L 291.753338 178.018115 
L 292.110458 183.332015 
L 293.181818 190.929151 
L 293.538938 194.436263 
L 294.610298 202.087899 
L 294.967418 205.664072 
L 295.324538 207.252914 
L 296.395898 216.234179 
L 296.753018 217.492099 
L 297.824378 225.876592 
L 298.181498 226.389816 
L 298.538618 230.672072 
L 298.895738 231.927813 
L 299.609978 237.613366 
L 299.967098 238.676862 
L 300.324218 241.031803 
L 301.038458 243.699609 
L 301.395578 246.499966 
L 302.466938 250.735156 
L 303.181178 254.034378 
L 303.538298 254.747873 
L 303.895418 256.03674 
L 304.252538 258.387324 
L 304.609658 257.851594 
L 305.323898 260.595298 
L 305.681018 261.573472 
L 306.038138 261.651842 
L 306.752378 264.082306 
L 307.109498 263.643542 
L 307.466618 264.854201 
L 307.823738 264.136167 
L 308.180858 265.740759 
L 308.537978 265.551914 
L 308.895098 265.176856 
L 309.252218 266.226594 
L 309.609338 264.968138 
L 309.966458 264.778244 
L 310.323578 266.060903 
L 310.680698 264.154121 
L 311.037818 264.89218 
L 311.752058 263.938676 
L 312.109178 263.066778 
L 312.466298 261.60482 
L 312.823418 260.615523 
L 313.180538 261.636168 
L 313.894778 257.695677 
L 314.251898 257.613401 
L 314.966138 254.204633 
L 315.323258 253.813226 
L 315.680378 251.263533 
L 316.037498 250.269 
L 316.751738 247.095723 
L 317.108858 244.894741 
L 317.823098 242.698013 
L 318.537338 237.503062 
L 318.894458 236.230023 
L 320.322938 227.01582 
L 320.680058 224.320482 
L 321.037178 222.731969 
L 323.179898 208.489407 
L 323.894138 201.58415 
L 324.608378 195.728773 
L 324.965498 194.961221 
L 325.679738 187.965655 
L 327.108218 175.370329 
L 327.822458 169.946639 
L 329.250938 157.091891 
L 329.608058 154.72775 
L 330.322298 147.904818 
L 331.750778 136.959093 
L 332.107898 132.873978 
L 332.822138 127.319004 
L 333.536378 120.899561 
L 333.893498 118.632132 
L 335.679098 102.888829 
L 336.036218 101.339604 
L 336.393338 98.363939 
L 336.750458 94.25785 
L 337.107578 93.409042 
L 339.607418 75.272841 
L 339.964538 74.088268 
L 340.678778 68.467106 
L 341.035898 67.022167 
L 342.107258 61.175994 
L 342.821498 58.442793 
L 343.892858 52.517632 
L 344.249978 51.662593 
L 344.607098 49.624325 
L 344.964218 49.683812 
L 345.321338 48.823818 
L 345.678458 47.001408 
L 347.106938 43.064124 
L 347.464058 43.375326 
L 347.821178 41.927151 
L 348.178298 42.430565 
L 348.535418 41.079089 
L 348.892538 41.13295 
L 349.249658 40.842513 
L 349.606778 40.842513 
L 350.321018 41.342483 
L 350.678138 41.043661 
L 351.035258 40.559748 
L 351.392378 41.873817 
L 351.749498 41.717902 
L 352.106618 41.75255 
L 352.463738 41.571714 
L 352.820858 42.604505 
L 353.177978 44.092748 
L 353.535098 44.723127 
L 353.892218 44.811557 
L 354.606458 46.772256 
L 354.963578 48.150439 
L 355.320698 50.015605 
L 355.677818 50.269887 
L 356.034938 51.99417 
L 356.392058 52.78597 
L 356.749178 55.036028 
L 357.106298 56.488973 
L 357.463418 58.742221 
L 357.820538 59.098529 
L 358.177658 61.167554 
L 358.534778 64.001754 
L 358.891898 63.978054 
L 359.249018 66.409066 
L 359.606138 70.031681 
L 359.963258 71.011288 
L 361.034618 78.477581 
L 361.391738 79.833586 
L 361.748858 83.62598 
L 362.105978 85.440586 
L 364.248698 101.150816 
L 364.962938 106.269337 
L 365.677178 111.894367 
L 367.462778 127.150917 
L 367.819898 128.857208 
L 368.891258 139.068144 
L 369.605498 144.711602 
L 369.962618 148.714252 
L 370.319738 150.656794 
L 371.033978 157.496608 
L 371.391098 159.775164 
L 372.105338 167.108849 
L 372.462458 169.362363 
L 373.176698 175.922875 
L 373.890938 180.478253 
L 374.248058 185.381635 
L 375.319418 193.019127 
L 375.676538 197.031598 
L 376.033658 198.255482 
L 376.390778 201.807289 
L 376.747898 203.70746 
L 377.819258 212.528374 
L 378.533498 217.390052 
L 379.604858 224.009337 
L 379.961978 225.225115 
L 380.319098 229.314089 
L 380.676218 230.803197 
L 381.747578 236.755411 
L 382.818938 242.689852 
L 383.176058 243.299279 
L 383.890298 246.781523 
L 384.247418 249.479106 
L 384.604538 250.129355 
L 384.961658 251.109239 
L 385.675898 254.170582 
L 386.033018 254.170582 
L 386.390138 256.440812 
L 386.747258 256.183033 
L 387.818618 259.826736 
L 388.175738 259.755181 
L 388.532858 260.140019 
L 388.889978 261.321323 
L 389.247098 260.660408 
L 389.604218 262.88511 
L 389.961338 262.118757 
L 390.318458 260.985782 
L 390.675578 261.929315 
L 391.032698 261.107316 
L 391.389818 261.993022 
L 392.104058 260.839947 
L 392.461178 261.429327 
L 392.818298 259.705792 
L 393.175418 258.760806 
L 393.889658 258.727068 
L 394.246778 257.369738 
L 394.603898 256.817614 
L 395.318138 253.779562 
L 395.675258 254.034378 
L 396.032378 251.786736 
L 396.389498 251.818251 
L 396.746618 249.036267 
L 397.103738 248.130659 
L 397.460858 246.365309 
L 397.817978 245.300686 
L 399.246458 238.926801 
L 399.960698 234.969134 
L 400.317818 231.885912 
L 400.674938 230.75088 
L 401.389178 226.40033 
L 402.103418 222.336909 
L 402.817658 217.700572 
L 403.174778 214.065253 
L 403.531898 212.585545 
L 403.889018 210.573661 
L 404.960378 202.278721 
L 405.674618 197.659173 
L 406.388858 191.102633 
L 408.174458 178.04753 
L 408.531578 174.399487 
L 408.888698 172.399124 
L 409.245818 169.745023 
L 409.602938 166.032855 
L 409.960058 163.649037 
L 410.674298 156.824778 
L 411.031418 155.154999 
L 416.031098 114.949487 
L 416.388218 113.312871 
L 417.102458 107.284307 
L 417.459578 105.605116 
L 418.530938 98.50219 
L 418.530938 98.50219 
" style="fill:none;stroke:#1f77b4;stroke-linecap:square;stroke-width:1.5;"/>
   </g>
   <g id="line2d_27">
    <path clip-path="url(#p1da729468f)" d="M 61.410938 271.333963 
L 63.333891 271.333963 
L 63.718482 271.003937 
L 64.103073 268.998895 
L 64.487664 269.407313 
L 64.872254 269.308599 
L 65.256845 266.863212 
L 65.641436 266.283182 
L 66.026027 264.284172 
L 66.410618 264.895844 
L 67.179799 261.096524 
L 67.56439 259.364726 
L 67.948981 258.515431 
L 68.333571 256.546684 
L 68.718162 255.277608 
L 69.102753 253.129254 
L 69.487344 251.958172 
L 69.871934 249.382596 
L 70.256525 247.955849 
L 70.641116 246.068978 
L 71.025707 243.234064 
L 71.410298 241.446308 
L 71.794888 240.498409 
L 72.179479 236.862678 
L 72.948661 233.364465 
L 73.333251 230.113224 
L 73.717842 228.808858 
L 74.102433 225.978139 
L 74.871614 221.893339 
L 76.025387 213.401391 
L 77.179159 206.621471 
L 77.56375 203.675167 
L 77.948341 202.616881 
L 78.717522 196.310484 
L 79.102113 193.763176 
L 79.871294 190.294183 
L 80.255885 188.217618 
L 80.640476 185.421145 
L 81.025067 183.479291 
L 81.409658 180.544678 
L 82.178839 176.821072 
L 82.56343 174.094399 
L 83.332611 169.8216 
L 84.486384 163.805144 
L 85.255565 160.612213 
L 85.640156 158.31327 
L 86.409338 156.102332 
L 87.178519 152.853206 
L 87.56311 151.76047 
L 88.332291 148.18763 
L 88.716882 147.619308 
L 89.486064 144.624535 
L 89.870654 145.535462 
L 90.255245 143.217839 
L 90.639836 143.125134 
L 91.024427 141.715397 
L 91.409018 141.379482 
L 91.793608 140.246275 
L 92.178199 140.060105 
L 92.56279 140.400068 
L 92.947381 138.934993 
L 93.331971 140.226039 
L 93.716562 138.769059 
L 94.101153 137.89487 
L 94.870334 137.146144 
L 95.639516 138.364342 
L 96.024107 138.364342 
L 96.408698 138.170078 
L 96.793288 138.959276 
L 97.177879 138.671927 
L 97.56247 139.890124 
L 97.947061 139.776804 
L 98.716242 140.149143 
L 99.485424 142.010841 
L 99.870014 142.443954 
L 100.639196 143.495953 
L 101.023787 145.362144 
L 101.792968 145.83373 
L 102.177559 147.216243 
L 102.56215 147.345224 
L 102.946741 149.01649 
L 103.331331 149.704509 
L 103.715922 149.906867 
L 104.869694 153.500753 
L 105.254285 153.897376 
L 105.638876 154.558079 
L 106.023467 154.854739 
L 106.408058 156.504651 
L 106.792648 156.923225 
L 107.177239 158.525462 
L 107.56183 159.031458 
L 107.946421 160.755628 
L 108.331011 161.841478 
L 108.715602 162.082703 
L 109.100193 164.148086 
L 109.484784 164.048922 
L 110.253965 166.766071 
L 110.638556 166.239123 
L 111.023147 166.952785 
L 111.407738 168.493641 
L 111.792328 168.67927 
L 112.176919 170.038882 
L 112.56151 169.929626 
L 112.946101 172.496441 
L 113.330691 173.149129 
L 113.715282 171.625341 
L 114.484464 173.681518 
L 114.869054 173.471235 
L 115.638236 175.770316 
L 116.022827 175.897967 
L 116.407418 176.919371 
L 117.56119 178.222598 
L 117.945781 177.807697 
L 118.330371 178.235592 
L 118.714962 178.058014 
L 119.099553 178.837625 
L 119.484144 178.746671 
L 119.868734 178.776989 
L 120.253325 180.068402 
L 120.637916 179.332846 
L 121.022507 179.289343 
L 121.407098 178.963074 
L 121.791688 179.615613 
L 122.176279 179.880978 
L 122.945461 178.001708 
L 123.330051 179.032678 
L 123.714642 178.491131 
L 124.099233 178.213936 
L 124.483824 179.289343 
L 124.868414 177.56621 
L 125.253005 178.945673 
L 125.637596 177.583459 
L 126.022187 176.782431 
L 126.406778 177.26004 
L 126.791368 177.122047 
L 127.175959 176.400308 
L 127.56055 176.93662 
L 127.945141 176.572048 
L 128.329731 175.97525 
L 129.098913 176.026772 
L 129.483504 174.817007 
L 129.868094 174.95808 
L 130.252685 174.626462 
L 130.637276 174.804182 
L 131.021867 173.702801 
L 131.406458 173.915626 
L 131.791048 173.28899 
L 132.175639 172.949932 
L 132.56023 171.975611 
L 132.944821 172.076894 
L 133.329411 171.363693 
L 133.714002 171.730844 
L 134.098593 171.811026 
L 134.483184 171.072614 
L 134.867774 171.452316 
L 135.252365 170.757452 
L 135.636956 169.532879 
L 136.021547 170.55995 
L 136.406138 170.648196 
L 136.790728 170.391864 
L 137.175319 170.433885 
L 137.55991 169.528695 
L 137.944501 169.574723 
L 138.329091 169.49522 
L 138.713682 169.566354 
L 139.098273 169.018203 
L 139.482864 170.614578 
L 140.252045 169.173024 
L 140.636636 169.39898 
L 141.021227 169.763019 
L 142.174999 169.908615 
L 142.55959 169.478482 
L 142.944181 169.570538 
L 143.328771 169.076784 
L 143.713362 169.800678 
L 144.097953 169.959041 
L 144.482544 169.570538 
L 144.867134 170.017871 
L 145.251725 171.26241 
L 145.636316 171.819466 
L 146.020907 170.770059 
L 146.405498 171.701303 
L 146.790088 171.439655 
L 147.174679 172.009372 
L 147.55927 171.718183 
L 147.943861 172.903311 
L 148.328451 172.351202 
L 148.713042 173.647466 
L 149.097633 173.36104 
L 149.482224 173.864548 
L 149.866814 174.715848 
L 150.635996 174.703079 
L 151.020587 175.650618 
L 151.405178 175.000829 
L 151.789768 176.095468 
L 152.174359 176.786724 
L 152.55895 176.580635 
L 152.943541 177.876693 
L 153.328131 177.346285 
L 153.712722 177.518775 
L 154.097313 178.421833 
L 154.481904 177.445467 
L 154.866494 178.772658 
L 155.251085 178.976125 
L 155.635676 179.56776 
L 156.020267 179.950426 
L 156.404858 179.74612 
L 157.174039 181.288889 
L 157.55863 181.858996 
L 157.943221 180.466027 
L 158.327811 181.056276 
L 158.712402 180.964109 
L 159.096993 181.604892 
L 159.481584 182.568767 
L 159.866174 181.978026 
L 161.019947 183.293303 
L 161.404538 183.240164 
L 161.789128 183.632922 
L 162.173719 183.766369 
L 162.942901 183.699645 
L 163.327491 183.257877 
L 163.712082 183.421723 
L 164.096673 184.578842 
L 164.481264 184.453728 
L 164.865854 184.44926 
L 165.250445 183.049747 
L 165.635036 184.735235 
L 166.019627 184.42245 
L 166.404218 184.940779 
L 166.788808 183.187024 
L 167.942581 183.521716 
L 168.327171 184.14002 
L 168.711762 182.894757 
L 169.096353 182.612852 
L 169.480944 183.61068 
L 169.865534 182.127916 
L 170.250125 181.836953 
L 170.634716 182.220494 
L 171.019307 181.596114 
L 171.403898 181.933941 
L 171.788488 181.345945 
L 172.173079 181.302056 
L 172.55767 180.317464 
L 172.942261 180.893886 
L 173.326851 179.815724 
L 173.711442 179.750471 
L 174.096033 180.251921 
L 174.480624 180.182009 
L 174.865214 179.954795 
L 175.249805 180.138314 
L 175.634396 178.828963 
L 176.018987 178.296228 
L 176.403578 176.958181 
L 176.788168 177.734388 
L 177.172759 177.665392 
L 177.55735 177.380783 
L 177.941941 177.436842 
L 178.326531 175.689092 
L 178.711122 176.361666 
L 179.095713 175.885086 
L 179.864894 175.659168 
L 180.249485 174.490254 
L 180.634076 175.086328 
L 181.018667 174.778533 
L 181.403258 175.171826 
L 181.787848 173.677262 
L 182.172439 174.23912 
L 182.55703 172.797355 
L 182.941621 173.783674 
L 183.326211 173.953934 
L 183.710802 173.136414 
L 184.095393 172.996552 
L 184.479984 173.356802 
L 184.864574 173.144891 
L 185.249165 171.891208 
L 185.633756 172.856691 
L 186.018347 171.878548 
L 186.402938 172.822785 
L 186.787528 171.283511 
L 187.172119 171.638001 
L 187.55671 172.309 
L 187.941301 172.034693 
L 188.325891 171.899649 
L 188.710482 172.005152 
L 189.095073 171.984051 
L 189.479664 170.631387 
L 189.864254 171.10203 
L 190.248845 170.954954 
L 190.633436 170.475907 
L 191.018027 171.043199 
L 191.787208 171.684422 
L 192.171799 172.043133 
L 192.55639 170.576759 
L 192.940981 172.026252 
L 193.325571 171.806806 
L 193.710162 171.988271 
L 194.094753 171.325712 
L 194.479344 172.325881 
L 195.248525 172.670208 
L 195.633116 172.704114 
L 196.017707 172.623588 
L 196.786888 173.24237 
L 197.171479 173.127938 
L 197.55607 173.775161 
L 197.940661 173.284752 
L 198.325251 173.779418 
L 198.709842 173.932652 
L 199.094433 173.843265 
L 199.479024 174.256146 
L 200.248205 174.354046 
L 201.401978 175.667718 
L 201.786568 174.741387 
L 202.171159 175.616419 
L 202.55575 176.005305 
L 202.940341 175.51382 
L 203.324931 176.791018 
L 203.709522 177.130672 
L 204.094113 176.906434 
L 204.478704 176.5377 
L 204.863294 177.665392 
L 205.247885 177.445467 
L 205.632476 177.419593 
L 206.017067 178.421833 
L 206.401658 178.174955 
L 206.786248 178.222598 
L 207.170839 178.673041 
L 207.55543 177.945403 
L 207.940021 179.532958 
L 208.324611 178.976125 
L 208.709202 178.928272 
L 209.093793 179.667816 
L 209.862974 178.923922 
L 210.247565 179.711318 
L 210.632156 179.959165 
L 211.016747 179.589511 
L 211.401338 179.946056 
L 211.785928 180.059663 
L 212.170519 178.837625 
L 212.55511 178.984826 
L 212.939701 179.91547 
L 213.324291 180.278139 
L 213.708882 179.437252 
L 214.093473 180.413593 
L 214.478064 180.632068 
L 214.862654 181.060665 
L 215.247245 180.164531 
L 215.631836 180.081511 
L 216.016427 179.57211 
L 216.401018 180.649546 
L 216.785608 179.767872 
L 217.170199 179.994121 
L 217.55479 179.724369 
L 217.939381 180.933387 
L 218.323971 178.967425 
L 218.708562 179.163186 
L 219.093153 179.554709 
L 219.477744 179.593861 
L 219.862334 179.354597 
L 220.246925 180.203857 
L 220.631516 178.720684 
L 221.016107 179.685217 
L 221.400698 179.089232 
L 221.785288 178.828963 
L 222.169879 179.950426 
L 222.55447 178.465144 
L 223.323651 179.976643 
L 223.708242 178.239923 
L 224.092833 179.124034 
L 224.477424 177.436842 
L 224.862014 178.352534 
L 225.246605 177.350597 
L 226.015787 179.254541 
L 226.400378 177.768887 
L 226.784968 178.30056 
L 227.169559 177.406656 
L 227.55415 177.975721 
L 227.938741 177.087549 
L 228.323331 176.85542 
L 228.707922 177.044426 
L 229.092513 176.923683 
L 229.477104 178.309222 
L 229.861694 177.691266 
L 230.246285 177.380783 
L 230.630876 177.708515 
L 231.015467 176.112642 
L 231.400058 177.24279 
L 231.784648 176.791018 
L 232.169239 177.178107 
L 232.55383 175.573669 
L 232.938421 177.009928 
L 233.323011 177.5274 
L 233.707602 177.065988 
L 234.092193 177.846507 
L 234.476784 177.285913 
L 234.861374 176.469004 
L 235.245965 176.803898 
L 235.630556 177.415281 
L 236.015147 176.91553 
L 236.399738 177.613645 
L 236.784328 177.829258 
L 237.168919 176.829659 
L 237.55351 177.652455 
L 237.938101 177.454091 
L 238.322691 176.984055 
L 238.707282 177.674017 
L 239.091873 177.479965 
L 239.861054 177.876693 
L 240.245645 177.372158 
L 240.630236 177.454091 
L 241.014827 176.846833 
L 241.399418 176.971118 
L 241.784008 177.743013 
L 242.168599 179.22409 
L 242.55319 177.505839 
L 242.937781 178.41317 
L 243.322371 178.880937 
L 243.706962 178.980475 
L 244.091553 178.599411 
L 244.476144 177.492902 
L 244.860734 178.569092 
L 245.245325 178.811638 
L 245.629916 179.454653 
L 246.399098 178.902593 
L 246.783688 178.872275 
L 247.168279 178.616735 
L 247.55287 179.685217 
L 247.937461 179.672166 
L 248.322051 179.211039 
L 248.706642 178.52145 
L 249.091233 179.211039 
L 249.475824 179.332846 
L 249.860414 179.57646 
L 250.245005 179.371998 
L 250.629596 178.681703 
L 251.014187 179.489455 
L 251.398778 179.876628 
L 251.783368 179.271942 
L 252.167959 179.585161 
L 252.55255 180.216965 
L 252.937141 179.502506 
L 253.321731 179.74177 
L 253.706322 179.472054 
L 253.706322 179.472054 
" style="fill:none;stroke:#d62728;stroke-linecap:square;stroke-width:1.5;"/>
   </g>
   <g id="line2d_28">
    <path clip-path="url(#p1da729468f)" d="M 61.410938 23.543308 
L 418.530938 23.543308 
" style="fill:none;stroke:#99aaaa;stroke-dasharray:9.6,2.4,1.5,2.4;stroke-dashoffset:0;stroke-width:1.5;"/>
   </g>
   <g id="line2d_29">
    <defs>
     <path d="M -3 3 
L 3 3 
L 3 -3 
L -3 -3 
z
" id="m9e0ac68bfd" style="stroke:#1f77b4;stroke-linejoin:miter;"/>
    </defs>
    <g clip-path="url(#p1da729468f)">
     <use style="fill:#1f77b4;stroke:#1f77b4;stroke-linejoin:miter;" x="61.410938" xlink:href="#m9e0ac68bfd" y="278.419468"/>
     <use style="fill:#1f77b4;stroke:#1f77b4;stroke-linejoin:miter;" x="73.086014" xlink:href="#m9e0ac68bfd" y="222.165307"/>
     <use style="fill:#1f77b4;stroke:#1f77b4;stroke-linejoin:miter;" x="84.761091" xlink:href="#m9e0ac68bfd" y="139.53546"/>
     <use style="fill:#1f77b4;stroke:#1f77b4;stroke-linejoin:miter;" x="96.436168" xlink:href="#m9e0ac68bfd" y="64.916606"/>
     <use style="fill:#1f77b4;stroke:#1f77b4;stroke-linejoin:miter;" x="108.111245" xlink:href="#m9e0ac68bfd" y="77.720982"/>
     <use style="fill:#1f77b4;stroke:#1f77b4;stroke-linejoin:miter;" x="119.786322" xlink:href="#m9e0ac68bfd" y="120.146552"/>
     <use style="fill:#1f77b4;stroke:#1f77b4;stroke-linejoin:miter;" x="131.461399" xlink:href="#m9e0ac68bfd" y="220.873747"/>
     <use style="fill:#1f77b4;stroke:#1f77b4;stroke-linejoin:miter;" x="143.136476" xlink:href="#m9e0ac68bfd" y="242.776828"/>
     <use style="fill:#1f77b4;stroke:#1f77b4;stroke-linejoin:miter;" x="154.811553" xlink:href="#m9e0ac68bfd" y="191.639292"/>
     <use style="fill:#1f77b4;stroke:#1f77b4;stroke-linejoin:miter;" x="166.48663" xlink:href="#m9e0ac68bfd" y="130.696113"/>
     <use style="fill:#1f77b4;stroke:#1f77b4;stroke-linejoin:miter;" x="178.161707" xlink:href="#m9e0ac68bfd" y="58.053579"/>
     <use style="fill:#1f77b4;stroke:#1f77b4;stroke-linejoin:miter;" x="189.836784" xlink:href="#m9e0ac68bfd" y="62.794828"/>
     <use style="fill:#1f77b4;stroke:#1f77b4;stroke-linejoin:miter;" x="201.511861" xlink:href="#m9e0ac68bfd" y="144.750701"/>
     <use style="fill:#1f77b4;stroke:#1f77b4;stroke-linejoin:miter;" x="213.186938" xlink:href="#m9e0ac68bfd" y="222.06737"/>
     <use style="fill:#1f77b4;stroke:#1f77b4;stroke-linejoin:miter;" x="224.862014" xlink:href="#m9e0ac68bfd" y="230.050828"/>
     <use style="fill:#1f77b4;stroke:#1f77b4;stroke-linejoin:miter;" x="236.537091" xlink:href="#m9e0ac68bfd" y="176.708338"/>
     <use style="fill:#1f77b4;stroke:#1f77b4;stroke-linejoin:miter;" x="248.212168" xlink:href="#m9e0ac68bfd" y="100.978152"/>
     <use style="fill:#1f77b4;stroke:#1f77b4;stroke-linejoin:miter;" x="259.887245" xlink:href="#m9e0ac68bfd" y="64.026828"/>
     <use style="fill:#1f77b4;stroke:#1f77b4;stroke-linejoin:miter;" x="271.562322" xlink:href="#m9e0ac68bfd" y="77.935169"/>
     <use style="fill:#1f77b4;stroke:#1f77b4;stroke-linejoin:miter;" x="283.237399" xlink:href="#m9e0ac68bfd" y="147.137548"/>
     <use style="fill:#1f77b4;stroke:#1f77b4;stroke-linejoin:miter;" x="294.912476" xlink:href="#m9e0ac68bfd" y="212.786609"/>
     <use style="fill:#1f77b4;stroke:#1f77b4;stroke-linejoin:miter;" x="306.587553" xlink:href="#m9e0ac68bfd" y="218.581228"/>
     <use style="fill:#1f77b4;stroke:#1f77b4;stroke-linejoin:miter;" x="318.26263" xlink:href="#m9e0ac68bfd" y="177.394221"/>
     <use style="fill:#1f77b4;stroke:#1f77b4;stroke-linejoin:miter;" x="329.937707" xlink:href="#m9e0ac68bfd" y="118.469082"/>
     <use style="fill:#1f77b4;stroke:#1f77b4;stroke-linejoin:miter;" x="341.612784" xlink:href="#m9e0ac68bfd" y="80.031628"/>
     <use style="fill:#1f77b4;stroke:#1f77b4;stroke-linejoin:miter;" x="353.287861" xlink:href="#m9e0ac68bfd" y="101.807215"/>
     <use style="fill:#1f77b4;stroke:#1f77b4;stroke-linejoin:miter;" x="364.962938" xlink:href="#m9e0ac68bfd" y="149.063613"/>
     <use style="fill:#1f77b4;stroke:#1f77b4;stroke-linejoin:miter;" x="376.638014" xlink:href="#m9e0ac68bfd" y="215.432345"/>
     <use style="fill:#1f77b4;stroke:#1f77b4;stroke-linejoin:miter;" x="388.313091" xlink:href="#m9e0ac68bfd" y="208.536252"/>
     <use style="fill:#1f77b4;stroke:#1f77b4;stroke-linejoin:miter;" x="399.988168" xlink:href="#m9e0ac68bfd" y="185.813013"/>
     <use style="fill:#1f77b4;stroke:#1f77b4;stroke-linejoin:miter;" x="411.663245" xlink:href="#m9e0ac68bfd" y="116.523086"/>
    </g>
   </g>
   <g id="line2d_30">
    <defs>
     <path d="M 0 3 
C 0.795609 3 1.55874 2.683901 2.12132 2.12132 
C 2.683901 1.55874 3 0.795609 3 0 
C 3 -0.795609 2.683901 -1.55874 2.12132 -2.12132 
C 1.55874 -2.683901 0.795609 -3 0 -3 
C -0.795609 -3 -1.55874 -2.683901 -2.12132 -2.12132 
C -2.683901 -1.55874 -3 -0.795609 -3 0 
C -3 0.795609 -2.683901 1.55874 -2.12132 2.12132 
C -1.55874 2.683901 -0.795609 3 0 3 
z
" id="m4d17eb6f4c" style="stroke:#d62728;"/>
    </defs>
    <g clip-path="url(#p1da729468f)">
     <use style="fill:#d62728;stroke:#d62728;" x="61.410938" xlink:href="#m4d17eb6f4c" y="271.284996"/>
     <use style="fill:#d62728;stroke:#d62728;" x="73.086014" xlink:href="#m4d17eb6f4c" y="236.862654"/>
     <use style="fill:#d62728;stroke:#d62728;" x="84.761091" xlink:href="#m4d17eb6f4c" y="161.830828"/>
     <use style="fill:#d62728;stroke:#d62728;" x="96.436168" xlink:href="#m4d17eb6f4c" y="183.541269"/>
     <use style="fill:#d62728;stroke:#d62728;" x="108.111245" xlink:href="#m4d17eb6f4c" y="199.830264"/>
     <use style="fill:#d62728;stroke:#d62728;" x="119.786322" xlink:href="#m4d17eb6f4c" y="198.865986"/>
     <use style="fill:#d62728;stroke:#d62728;" x="131.461399" xlink:href="#m4d17eb6f4c" y="186.488444"/>
     <use style="fill:#d62728;stroke:#d62728;" x="143.136476" xlink:href="#m4d17eb6f4c" y="163.418428"/>
     <use style="fill:#d62728;stroke:#d62728;" x="154.811553" xlink:href="#m4d17eb6f4c" y="188.903284"/>
     <use style="fill:#d62728;stroke:#d62728;" x="166.48663" xlink:href="#m4d17eb6f4c" y="179.610169"/>
     <use style="fill:#d62728;stroke:#d62728;" x="178.161707" xlink:href="#m4d17eb6f4c" y="169.028123"/>
     <use style="fill:#d62728;stroke:#d62728;" x="189.836784" xlink:href="#m4d17eb6f4c" y="150.62346"/>
     <use style="fill:#d62728;stroke:#d62728;" x="201.511861" xlink:href="#m4d17eb6f4c" y="171.734428"/>
     <use style="fill:#d62728;stroke:#d62728;" x="213.186938" xlink:href="#m4d17eb6f4c" y="179.001416"/>
     <use style="fill:#d62728;stroke:#d62728;" x="224.862014" xlink:href="#m4d17eb6f4c" y="163.036342"/>
     <use style="fill:#d62728;stroke:#d62728;" x="236.537091" xlink:href="#m4d17eb6f4c" y="161.955233"/>
    </g>
   </g>
   <g id="patch_3">
    <path d="M 61.410938 279.010828 
L 61.410938 12.898828 
" style="fill:none;stroke:#000000;stroke-linecap:square;stroke-linejoin:miter;stroke-width:0.8;"/>
   </g>
   <g id="patch_4">
    <path d="M 418.530938 279.010828 
L 418.530938 12.898828 
" style="fill:none;stroke:#000000;stroke-linecap:square;stroke-linejoin:miter;stroke-width:0.8;"/>
   </g>
   <g id="patch_5">
    <path d="M 61.410938 279.010828 
L 418.530938 279.010828 
" style="fill:none;stroke:#000000;stroke-linecap:square;stroke-linejoin:miter;stroke-width:0.8;"/>
   </g>
   <g id="patch_6">
    <path d="M 61.410938 12.898828 
L 418.530938 12.898828 
" style="fill:none;stroke:#000000;stroke-linecap:square;stroke-linejoin:miter;stroke-width:0.8;"/>
   </g>
   <g id="text_15">
    <!-- (C) -->
    <defs>
     <path d="M 64.40625 67.28125 
L 64.40625 56.890625 
Q 59.421875 61.53125 53.78125 63.8125 
Q 48.140625 66.109375 41.796875 66.109375 
Q 29.296875 66.109375 22.65625 58.46875 
Q 16.015625 50.828125 16.015625 36.375 
Q 16.015625 21.96875 22.65625 14.328125 
Q 29.296875 6.6875 41.796875 6.6875 
Q 48.140625 6.6875 53.78125 8.984375 
Q 59.421875 11.28125 64.40625 15.921875 
L 64.40625 5.609375 
Q 59.234375 2.09375 53.4375 0.328125 
Q 47.65625 -1.421875 41.21875 -1.421875 
Q 24.65625 -1.421875 15.125 8.703125 
Q 5.609375 18.84375 5.609375 36.375 
Q 5.609375 53.953125 15.125 64.078125 
Q 24.65625 74.21875 41.21875 74.21875 
Q 47.75 74.21875 53.53125 72.484375 
Q 59.328125 70.75 64.40625 67.28125 
z
" id="DejaVuSans-43"/>
    </defs>
    <g transform="translate(380.071861 39.510028)scale(0.2 -0.2)">
     <use xlink:href="#DejaVuSans-28"/>
     <use x="39.013672" xlink:href="#DejaVuSans-43"/>
     <use x="108.837891" xlink:href="#DejaVuSans-29"/>
    </g>
   </g>
  </g>
 </g>
 <defs>
  <clipPath id="p1da729468f">
   <rect height="266.112" width="357.12" x="61.410938" y="12.898828"/>
  </clipPath>
 </defs>
</svg>
