<?xml version="1.0" encoding="utf-8" standalone="no"?>
<!DOCTYPE svg PUBLIC "-//W3C//DTD SVG 1.1//EN"
  "http://www.w3.org/Graphics/SVG/1.1/DTD/svg11.dtd">
<!-- Created with matplotlib (http://matplotlib.org/) -->
<svg height="349pt" version="1.1" viewBox="0 0 429 349" width="429pt" xmlns="http://www.w3.org/2000/svg" xmlns:xlink="http://www.w3.org/1999/xlink">
 <defs>
  <style type="text/css">
*{stroke-linecap:butt;stroke-linejoin:round;}
  </style>
 </defs>
 <g id="figure_1">
  <g id="patch_1">
   <path d="M 0 349.665437 
L 429.230937 349.665437 
L 429.230937 0 
L 0 0 
z
" style="fill:none;"/>
  </g>
  <g id="axes_1">
   <g id="patch_2">
    <path d="M 61.410938 297.54825 
L 418.530938 297.54825 
L 418.530938 31.43625 
L 61.410938 31.43625 
z
" style="fill:none;"/>
   </g>
   <g id="matplotlib.axis_1">
    <g id="xtick_1">
     <g id="line2d_1">
      <path clip-path="url(#pcd39df9889)" d="M 61.410938 297.54825 
L 61.410938 31.43625 
" style="fill:none;stroke:#b0b0b0;stroke-linecap:square;stroke-width:0.8;"/>
     </g>
     <g id="line2d_2">
      <defs>
       <path d="M 0 0 
L 0 3.5 
" id="m005f0a59be" style="stroke:#000000;stroke-width:0.8;"/>
      </defs>
      <g>
       <use style="stroke:#000000;stroke-width:0.8;" x="61.410938" xlink:href="#m005f0a59be" y="297.54825"/>
      </g>
     </g>
     <g id="text_1">
      <!-- 0 -->
      <defs>
       <path d="M 31.78125 66.40625 
Q 24.171875 66.40625 20.328125 58.90625 
Q 16.5 51.421875 16.5 36.375 
Q 16.5 21.390625 20.328125 13.890625 
Q 24.171875 6.390625 31.78125 6.390625 
Q 39.453125 6.390625 43.28125 13.890625 
Q 47.125 21.390625 47.125 36.375 
Q 47.125 51.421875 43.28125 58.90625 
Q 39.453125 66.40625 31.78125 66.40625 
z
M 31.78125 74.21875 
Q 44.046875 74.21875 50.515625 64.515625 
Q 56.984375 54.828125 56.984375 36.375 
Q 56.984375 17.96875 50.515625 8.265625 
Q 44.046875 -1.421875 31.78125 -1.421875 
Q 19.53125 -1.421875 13.0625 8.265625 
Q 6.59375 17.96875 6.59375 36.375 
Q 6.59375 54.828125 13.0625 64.515625 
Q 19.53125 74.21875 31.78125 74.21875 
z
" id="DejaVuSans-30"/>
      </defs>
      <g transform="translate(56.639063 315.945906)scale(0.15 -0.15)">
       <use xlink:href="#DejaVuSans-30"/>
      </g>
     </g>
    </g>
    <g id="xtick_2">
     <g id="line2d_3">
      <path clip-path="url(#pcd39df9889)" d="M 125.182366 297.54825 
L 125.182366 31.43625 
" style="fill:none;stroke:#b0b0b0;stroke-linecap:square;stroke-width:0.8;"/>
     </g>
     <g id="line2d_4">
      <g>
       <use style="stroke:#000000;stroke-width:0.8;" x="125.182366" xlink:href="#m005f0a59be" y="297.54825"/>
      </g>
     </g>
     <g id="text_2">
      <!-- 50 -->
      <defs>
       <path d="M 10.796875 72.90625 
L 49.515625 72.90625 
L 49.515625 64.59375 
L 19.828125 64.59375 
L 19.828125 46.734375 
Q 21.96875 47.46875 24.109375 47.828125 
Q 26.265625 48.1875 28.421875 48.1875 
Q 40.625 48.1875 47.75 41.5 
Q 54.890625 34.8125 54.890625 23.390625 
Q 54.890625 11.625 47.5625 5.09375 
Q 40.234375 -1.421875 26.90625 -1.421875 
Q 22.3125 -1.421875 17.546875 -0.640625 
Q 12.796875 0.140625 7.71875 1.703125 
L 7.71875 11.625 
Q 12.109375 9.234375 16.796875 8.0625 
Q 21.484375 6.890625 26.703125 6.890625 
Q 35.15625 6.890625 40.078125 11.328125 
Q 45.015625 15.765625 45.015625 23.390625 
Q 45.015625 31 40.078125 35.4375 
Q 35.15625 39.890625 26.703125 39.890625 
Q 22.75 39.890625 18.8125 39.015625 
Q 14.890625 38.140625 10.796875 36.28125 
z
" id="DejaVuSans-35"/>
      </defs>
      <g transform="translate(115.638616 315.945906)scale(0.15 -0.15)">
       <use xlink:href="#DejaVuSans-35"/>
       <use x="63.623047" xlink:href="#DejaVuSans-30"/>
      </g>
     </g>
    </g>
    <g id="xtick_3">
     <g id="line2d_5">
      <path clip-path="url(#pcd39df9889)" d="M 188.953795 297.54825 
L 188.953795 31.43625 
" style="fill:none;stroke:#b0b0b0;stroke-linecap:square;stroke-width:0.8;"/>
     </g>
     <g id="line2d_6">
      <g>
       <use style="stroke:#000000;stroke-width:0.8;" x="188.953795" xlink:href="#m005f0a59be" y="297.54825"/>
      </g>
     </g>
     <g id="text_3">
      <!-- 100 -->
      <defs>
       <path d="M 12.40625 8.296875 
L 28.515625 8.296875 
L 28.515625 63.921875 
L 10.984375 60.40625 
L 10.984375 69.390625 
L 28.421875 72.90625 
L 38.28125 72.90625 
L 38.28125 8.296875 
L 54.390625 8.296875 
L 54.390625 0 
L 12.40625 0 
z
" id="DejaVuSans-31"/>
      </defs>
      <g transform="translate(174.63817 315.945906)scale(0.15 -0.15)">
       <use xlink:href="#DejaVuSans-31"/>
       <use x="63.623047" xlink:href="#DejaVuSans-30"/>
       <use x="127.246094" xlink:href="#DejaVuSans-30"/>
      </g>
     </g>
    </g>
    <g id="xtick_4">
     <g id="line2d_7">
      <path clip-path="url(#pcd39df9889)" d="M 252.725223 297.54825 
L 252.725223 31.43625 
" style="fill:none;stroke:#b0b0b0;stroke-linecap:square;stroke-width:0.8;"/>
     </g>
     <g id="line2d_8">
      <g>
       <use style="stroke:#000000;stroke-width:0.8;" x="252.725223" xlink:href="#m005f0a59be" y="297.54825"/>
      </g>
     </g>
     <g id="text_4">
      <!-- 150 -->
      <g transform="translate(238.409598 315.945906)scale(0.15 -0.15)">
       <use xlink:href="#DejaVuSans-31"/>
       <use x="63.623047" xlink:href="#DejaVuSans-35"/>
       <use x="127.246094" xlink:href="#DejaVuSans-30"/>
      </g>
     </g>
    </g>
    <g id="xtick_5">
     <g id="line2d_9">
      <path clip-path="url(#pcd39df9889)" d="M 316.496652 297.54825 
L 316.496652 31.43625 
" style="fill:none;stroke:#b0b0b0;stroke-linecap:square;stroke-width:0.8;"/>
     </g>
     <g id="line2d_10">
      <g>
       <use style="stroke:#000000;stroke-width:0.8;" x="316.496652" xlink:href="#m005f0a59be" y="297.54825"/>
      </g>
     </g>
     <g id="text_5">
      <!-- 200 -->
      <defs>
       <path d="M 19.1875 8.296875 
L 53.609375 8.296875 
L 53.609375 0 
L 7.328125 0 
L 7.328125 8.296875 
Q 12.9375 14.109375 22.625 23.890625 
Q 32.328125 33.6875 34.8125 36.53125 
Q 39.546875 41.84375 41.421875 45.53125 
Q 43.3125 49.21875 43.3125 52.78125 
Q 43.3125 58.59375 39.234375 62.25 
Q 35.15625 65.921875 28.609375 65.921875 
Q 23.96875 65.921875 18.8125 64.3125 
Q 13.671875 62.703125 7.8125 59.421875 
L 7.8125 69.390625 
Q 13.765625 71.78125 18.9375 73 
Q 24.125 74.21875 28.421875 74.21875 
Q 39.75 74.21875 46.484375 68.546875 
Q 53.21875 62.890625 53.21875 53.421875 
Q 53.21875 48.921875 51.53125 44.890625 
Q 49.859375 40.875 45.40625 35.40625 
Q 44.1875 33.984375 37.640625 27.21875 
Q 31.109375 20.453125 19.1875 8.296875 
z
" id="DejaVuSans-32"/>
      </defs>
      <g transform="translate(302.181027 315.945906)scale(0.15 -0.15)">
       <use xlink:href="#DejaVuSans-32"/>
       <use x="63.623047" xlink:href="#DejaVuSans-30"/>
       <use x="127.246094" xlink:href="#DejaVuSans-30"/>
      </g>
     </g>
    </g>
    <g id="xtick_6">
     <g id="line2d_11">
      <path clip-path="url(#pcd39df9889)" d="M 380.26808 297.54825 
L 380.26808 31.43625 
" style="fill:none;stroke:#b0b0b0;stroke-linecap:square;stroke-width:0.8;"/>
     </g>
     <g id="line2d_12">
      <g>
       <use style="stroke:#000000;stroke-width:0.8;" x="380.26808" xlink:href="#m005f0a59be" y="297.54825"/>
      </g>
     </g>
     <g id="text_6">
      <!-- 250 -->
      <g transform="translate(365.952455 315.945906)scale(0.15 -0.15)">
       <use xlink:href="#DejaVuSans-32"/>
       <use x="63.623047" xlink:href="#DejaVuSans-35"/>
       <use x="127.246094" xlink:href="#DejaVuSans-30"/>
      </g>
     </g>
    </g>
    <g id="text_7">
     <!-- Time ($\mu s$) -->
     <defs>
      <path d="M -0.296875 72.90625 
L 61.375 72.90625 
L 61.375 64.59375 
L 35.5 64.59375 
L 35.5 0 
L 25.59375 0 
L 25.59375 64.59375 
L -0.296875 64.59375 
z
" id="DejaVuSans-54"/>
      <path d="M 9.421875 54.6875 
L 18.40625 54.6875 
L 18.40625 0 
L 9.421875 0 
z
M 9.421875 75.984375 
L 18.40625 75.984375 
L 18.40625 64.59375 
L 9.421875 64.59375 
z
" id="DejaVuSans-69"/>
      <path d="M 52 44.1875 
Q 55.375 50.25 60.0625 53.125 
Q 64.75 56 71.09375 56 
Q 79.640625 56 84.28125 50.015625 
Q 88.921875 44.046875 88.921875 33.015625 
L 88.921875 0 
L 79.890625 0 
L 79.890625 32.71875 
Q 79.890625 40.578125 77.09375 44.375 
Q 74.3125 48.1875 68.609375 48.1875 
Q 61.625 48.1875 57.5625 43.546875 
Q 53.515625 38.921875 53.515625 30.90625 
L 53.515625 0 
L 44.484375 0 
L 44.484375 32.71875 
Q 44.484375 40.625 41.703125 44.40625 
Q 38.921875 48.1875 33.109375 48.1875 
Q 26.21875 48.1875 22.15625 43.53125 
Q 18.109375 38.875 18.109375 30.90625 
L 18.109375 0 
L 9.078125 0 
L 9.078125 54.6875 
L 18.109375 54.6875 
L 18.109375 46.1875 
Q 21.1875 51.21875 25.484375 53.609375 
Q 29.78125 56 35.6875 56 
Q 41.65625 56 45.828125 52.96875 
Q 50 49.953125 52 44.1875 
z
" id="DejaVuSans-6d"/>
      <path d="M 56.203125 29.59375 
L 56.203125 25.203125 
L 14.890625 25.203125 
Q 15.484375 15.921875 20.484375 11.0625 
Q 25.484375 6.203125 34.421875 6.203125 
Q 39.59375 6.203125 44.453125 7.46875 
Q 49.3125 8.734375 54.109375 11.28125 
L 54.109375 2.78125 
Q 49.265625 0.734375 44.1875 -0.34375 
Q 39.109375 -1.421875 33.890625 -1.421875 
Q 20.796875 -1.421875 13.15625 6.1875 
Q 5.515625 13.8125 5.515625 26.8125 
Q 5.515625 40.234375 12.765625 48.109375 
Q 20.015625 56 32.328125 56 
Q 43.359375 56 49.78125 48.890625 
Q 56.203125 41.796875 56.203125 29.59375 
z
M 47.21875 32.234375 
Q 47.125 39.59375 43.09375 43.984375 
Q 39.0625 48.390625 32.421875 48.390625 
Q 24.90625 48.390625 20.390625 44.140625 
Q 15.875 39.890625 15.1875 32.171875 
z
" id="DejaVuSans-65"/>
      <path id="DejaVuSans-20"/>
      <path d="M 31 75.875 
Q 24.46875 64.65625 21.28125 53.65625 
Q 18.109375 42.671875 18.109375 31.390625 
Q 18.109375 20.125 21.3125 9.0625 
Q 24.515625 -2 31 -13.1875 
L 23.1875 -13.1875 
Q 15.875 -1.703125 12.234375 9.375 
Q 8.59375 20.453125 8.59375 31.390625 
Q 8.59375 42.28125 12.203125 53.3125 
Q 15.828125 64.359375 23.1875 75.875 
z
" id="DejaVuSans-28"/>
      <path d="M -1.3125 -20.796875 
L 13.375 54.6875 
L 22.40625 54.6875 
L 15.765625 20.65625 
Q 15.578125 19.625 15.421875 18.359375 
Q 15.28125 17.09375 15.28125 15.828125 
Q 15.28125 11.28125 18.140625 8.828125 
Q 21 6.390625 26.3125 6.390625 
Q 33.546875 6.390625 37.984375 10.484375 
Q 42.4375 14.59375 44 22.796875 
L 50.203125 54.6875 
L 59.1875 54.6875 
L 51.03125 12.640625 
Q 50.828125 11.71875 50.75 11.03125 
Q 50.6875 10.359375 50.6875 9.8125 
Q 50.6875 8.296875 51.296875 7.59375 
Q 51.90625 6.890625 53.21875 6.890625 
Q 53.71875 6.890625 54.5625 7.125 
Q 55.421875 7.375 56.984375 8.015625 
L 55.609375 0.78125 
Q 53.46875 -0.296875 51.515625 -0.859375 
Q 49.5625 -1.421875 47.703125 -1.421875 
Q 44.484375 -1.421875 42.65625 0.625 
Q 40.828125 2.6875 40.828125 6.296875 
Q 38.09375 2.390625 34.296875 0.484375 
Q 30.515625 -1.421875 25.390625 -1.421875 
Q 20.84375 -1.421875 17.453125 0.671875 
Q 14.0625 2.78125 12.984375 6.203125 
L 7.71875 -20.796875 
z
" id="DejaVuSans-Oblique-3bc"/>
      <path d="M 50 53.078125 
L 48.296875 44.578125 
Q 44.734375 46.53125 40.765625 47.5 
Q 36.8125 48.484375 32.625 48.484375 
Q 25.53125 48.484375 21.453125 46.0625 
Q 17.390625 43.65625 17.390625 39.5 
Q 17.390625 34.671875 26.859375 32.078125 
Q 27.59375 31.890625 27.9375 31.78125 
L 30.8125 30.90625 
Q 39.796875 28.421875 42.796875 25.6875 
Q 45.796875 22.953125 45.796875 18.21875 
Q 45.796875 9.515625 38.890625 4.046875 
Q 31.984375 -1.421875 20.796875 -1.421875 
Q 16.453125 -1.421875 11.671875 -0.578125 
Q 6.890625 0.25 1.125 2 
L 2.875 11.28125 
Q 7.8125 8.734375 12.59375 7.421875 
Q 17.390625 6.109375 21.78125 6.109375 
Q 28.375 6.109375 32.5 8.9375 
Q 36.625 11.765625 36.625 16.109375 
Q 36.625 20.796875 25.78125 23.6875 
L 24.859375 23.921875 
L 21.78125 24.703125 
Q 14.9375 26.515625 11.765625 29.46875 
Q 8.59375 32.421875 8.59375 37.015625 
Q 8.59375 45.75 15.15625 50.875 
Q 21.734375 56 33.015625 56 
Q 37.453125 56 41.671875 55.265625 
Q 45.90625 54.546875 50 53.078125 
z
" id="DejaVuSans-Oblique-73"/>
      <path d="M 8.015625 75.875 
L 15.828125 75.875 
Q 23.140625 64.359375 26.78125 53.3125 
Q 30.421875 42.28125 30.421875 31.390625 
Q 30.421875 20.453125 26.78125 9.375 
Q 23.140625 -1.703125 15.828125 -13.1875 
L 8.015625 -13.1875 
Q 14.5 -2 17.703125 9.0625 
Q 20.90625 20.125 20.90625 31.390625 
Q 20.90625 42.671875 17.703125 53.65625 
Q 14.5 64.65625 8.015625 75.875 
z
" id="DejaVuSans-29"/>
     </defs>
     <g transform="translate(192.570938 338.265437)scale(0.2 -0.2)">
      <use transform="translate(0 0.015625)" xlink:href="#DejaVuSans-54"/>
      <use transform="translate(61.083984 0.015625)" xlink:href="#DejaVuSans-69"/>
      <use transform="translate(88.867188 0.015625)" xlink:href="#DejaVuSans-6d"/>
      <use transform="translate(186.279297 0.015625)" xlink:href="#DejaVuSans-65"/>
      <use transform="translate(247.802734 0.015625)" xlink:href="#DejaVuSans-20"/>
      <use transform="translate(279.589844 0.015625)" xlink:href="#DejaVuSans-28"/>
      <use transform="translate(318.603516 0.015625)" xlink:href="#DejaVuSans-Oblique-3bc"/>
      <use transform="translate(382.226562 0.015625)" xlink:href="#DejaVuSans-Oblique-73"/>
      <use transform="translate(434.326172 0.015625)" xlink:href="#DejaVuSans-29"/>
     </g>
    </g>
   </g>
   <g id="matplotlib.axis_2">
    <g id="ytick_1">
     <g id="line2d_13">
      <path clip-path="url(#pcd39df9889)" d="M 61.410938 297.54825 
L 418.530938 297.54825 
" style="fill:none;stroke:#b0b0b0;stroke-linecap:square;stroke-width:0.8;"/>
     </g>
     <g id="line2d_14">
      <defs>
       <path d="M 0 0 
L -3.5 0 
" id="mc3ce260a5b" style="stroke:#000000;stroke-width:0.8;"/>
      </defs>
      <g>
       <use style="stroke:#000000;stroke-width:0.8;" x="61.410938" xlink:href="#mc3ce260a5b" y="297.54825"/>
      </g>
     </g>
     <g id="text_8">
      <!-- 0.0 -->
      <defs>
       <path d="M 10.6875 12.40625 
L 21 12.40625 
L 21 0 
L 10.6875 0 
z
" id="DejaVuSans-2e"/>
      </defs>
      <g transform="translate(30.55625 303.247078)scale(0.15 -0.15)">
       <use xlink:href="#DejaVuSans-30"/>
       <use x="63.623047" xlink:href="#DejaVuSans-2e"/>
       <use x="95.410156" xlink:href="#DejaVuSans-30"/>
      </g>
     </g>
    </g>
    <g id="ytick_2">
     <g id="line2d_15">
      <path clip-path="url(#pcd39df9889)" d="M 61.410938 244.32585 
L 418.530938 244.32585 
" style="fill:none;stroke:#b0b0b0;stroke-linecap:square;stroke-width:0.8;"/>
     </g>
     <g id="line2d_16">
      <g>
       <use style="stroke:#000000;stroke-width:0.8;" x="61.410938" xlink:href="#mc3ce260a5b" y="244.32585"/>
      </g>
     </g>
     <g id="text_9">
      <!-- 0.2 -->
      <g transform="translate(30.55625 250.024678)scale(0.15 -0.15)">
       <use xlink:href="#DejaVuSans-30"/>
       <use x="63.623047" xlink:href="#DejaVuSans-2e"/>
       <use x="95.410156" xlink:href="#DejaVuSans-32"/>
      </g>
     </g>
    </g>
    <g id="ytick_3">
     <g id="line2d_17">
      <path clip-path="url(#pcd39df9889)" d="M 61.410938 191.10345 
L 418.530938 191.10345 
" style="fill:none;stroke:#b0b0b0;stroke-linecap:square;stroke-width:0.8;"/>
     </g>
     <g id="line2d_18">
      <g>
       <use style="stroke:#000000;stroke-width:0.8;" x="61.410938" xlink:href="#mc3ce260a5b" y="191.10345"/>
      </g>
     </g>
     <g id="text_10">
      <!-- 0.4 -->
      <defs>
       <path d="M 37.796875 64.3125 
L 12.890625 25.390625 
L 37.796875 25.390625 
z
M 35.203125 72.90625 
L 47.609375 72.90625 
L 47.609375 25.390625 
L 58.015625 25.390625 
L 58.015625 17.1875 
L 47.609375 17.1875 
L 47.609375 0 
L 37.796875 0 
L 37.796875 17.1875 
L 4.890625 17.1875 
L 4.890625 26.703125 
z
" id="DejaVuSans-34"/>
      </defs>
      <g transform="translate(30.55625 196.802278)scale(0.15 -0.15)">
       <use xlink:href="#DejaVuSans-30"/>
       <use x="63.623047" xlink:href="#DejaVuSans-2e"/>
       <use x="95.410156" xlink:href="#DejaVuSans-34"/>
      </g>
     </g>
    </g>
    <g id="ytick_4">
     <g id="line2d_19">
      <path clip-path="url(#pcd39df9889)" d="M 61.410938 137.88105 
L 418.530938 137.88105 
" style="fill:none;stroke:#b0b0b0;stroke-linecap:square;stroke-width:0.8;"/>
     </g>
     <g id="line2d_20">
      <g>
       <use style="stroke:#000000;stroke-width:0.8;" x="61.410938" xlink:href="#mc3ce260a5b" y="137.88105"/>
      </g>
     </g>
     <g id="text_11">
      <!-- 0.6 -->
      <defs>
       <path d="M 33.015625 40.375 
Q 26.375 40.375 22.484375 35.828125 
Q 18.609375 31.296875 18.609375 23.390625 
Q 18.609375 15.53125 22.484375 10.953125 
Q 26.375 6.390625 33.015625 6.390625 
Q 39.65625 6.390625 43.53125 10.953125 
Q 47.40625 15.53125 47.40625 23.390625 
Q 47.40625 31.296875 43.53125 35.828125 
Q 39.65625 40.375 33.015625 40.375 
z
M 52.59375 71.296875 
L 52.59375 62.3125 
Q 48.875 64.0625 45.09375 64.984375 
Q 41.3125 65.921875 37.59375 65.921875 
Q 27.828125 65.921875 22.671875 59.328125 
Q 17.53125 52.734375 16.796875 39.40625 
Q 19.671875 43.65625 24.015625 45.921875 
Q 28.375 48.1875 33.59375 48.1875 
Q 44.578125 48.1875 50.953125 41.515625 
Q 57.328125 34.859375 57.328125 23.390625 
Q 57.328125 12.15625 50.6875 5.359375 
Q 44.046875 -1.421875 33.015625 -1.421875 
Q 20.359375 -1.421875 13.671875 8.265625 
Q 6.984375 17.96875 6.984375 36.375 
Q 6.984375 53.65625 15.1875 63.9375 
Q 23.390625 74.21875 37.203125 74.21875 
Q 40.921875 74.21875 44.703125 73.484375 
Q 48.484375 72.75 52.59375 71.296875 
z
" id="DejaVuSans-36"/>
      </defs>
      <g transform="translate(30.55625 143.579878)scale(0.15 -0.15)">
       <use xlink:href="#DejaVuSans-30"/>
       <use x="63.623047" xlink:href="#DejaVuSans-2e"/>
       <use x="95.410156" xlink:href="#DejaVuSans-36"/>
      </g>
     </g>
    </g>
    <g id="ytick_5">
     <g id="line2d_21">
      <path clip-path="url(#pcd39df9889)" d="M 61.410938 84.65865 
L 418.530938 84.65865 
" style="fill:none;stroke:#b0b0b0;stroke-linecap:square;stroke-width:0.8;"/>
     </g>
     <g id="line2d_22">
      <g>
       <use style="stroke:#000000;stroke-width:0.8;" x="61.410938" xlink:href="#mc3ce260a5b" y="84.65865"/>
      </g>
     </g>
     <g id="text_12">
      <!-- 0.8 -->
      <defs>
       <path d="M 31.78125 34.625 
Q 24.75 34.625 20.71875 30.859375 
Q 16.703125 27.09375 16.703125 20.515625 
Q 16.703125 13.921875 20.71875 10.15625 
Q 24.75 6.390625 31.78125 6.390625 
Q 38.8125 6.390625 42.859375 10.171875 
Q 46.921875 13.96875 46.921875 20.515625 
Q 46.921875 27.09375 42.890625 30.859375 
Q 38.875 34.625 31.78125 34.625 
z
M 21.921875 38.8125 
Q 15.578125 40.375 12.03125 44.71875 
Q 8.5 49.078125 8.5 55.328125 
Q 8.5 64.0625 14.71875 69.140625 
Q 20.953125 74.21875 31.78125 74.21875 
Q 42.671875 74.21875 48.875 69.140625 
Q 55.078125 64.0625 55.078125 55.328125 
Q 55.078125 49.078125 51.53125 44.71875 
Q 48 40.375 41.703125 38.8125 
Q 48.828125 37.15625 52.796875 32.3125 
Q 56.78125 27.484375 56.78125 20.515625 
Q 56.78125 9.90625 50.3125 4.234375 
Q 43.84375 -1.421875 31.78125 -1.421875 
Q 19.734375 -1.421875 13.25 4.234375 
Q 6.78125 9.90625 6.78125 20.515625 
Q 6.78125 27.484375 10.78125 32.3125 
Q 14.796875 37.15625 21.921875 38.8125 
z
M 18.3125 54.390625 
Q 18.3125 48.734375 21.84375 45.5625 
Q 25.390625 42.390625 31.78125 42.390625 
Q 38.140625 42.390625 41.71875 45.5625 
Q 45.3125 48.734375 45.3125 54.390625 
Q 45.3125 60.0625 41.71875 63.234375 
Q 38.140625 66.40625 31.78125 66.40625 
Q 25.390625 66.40625 21.84375 63.234375 
Q 18.3125 60.0625 18.3125 54.390625 
z
" id="DejaVuSans-38"/>
      </defs>
      <g transform="translate(30.55625 90.357478)scale(0.15 -0.15)">
       <use xlink:href="#DejaVuSans-30"/>
       <use x="63.623047" xlink:href="#DejaVuSans-2e"/>
       <use x="95.410156" xlink:href="#DejaVuSans-38"/>
      </g>
     </g>
    </g>
    <g id="ytick_6">
     <g id="line2d_23">
      <path clip-path="url(#pcd39df9889)" d="M 61.410938 31.43625 
L 418.530938 31.43625 
" style="fill:none;stroke:#b0b0b0;stroke-linecap:square;stroke-width:0.8;"/>
     </g>
     <g id="line2d_24">
      <g>
       <use style="stroke:#000000;stroke-width:0.8;" x="61.410938" xlink:href="#mc3ce260a5b" y="31.43625"/>
      </g>
     </g>
     <g id="text_13">
      <!-- 1.0 -->
      <g transform="translate(30.55625 37.135078)scale(0.15 -0.15)">
       <use xlink:href="#DejaVuSans-31"/>
       <use x="63.623047" xlink:href="#DejaVuSans-2e"/>
       <use x="95.410156" xlink:href="#DejaVuSans-30"/>
      </g>
     </g>
    </g>
    <g id="text_14">
     <!-- Survival -->
     <defs>
      <path d="M 53.515625 70.515625 
L 53.515625 60.890625 
Q 47.90625 63.578125 42.921875 64.890625 
Q 37.9375 66.21875 33.296875 66.21875 
Q 25.25 66.21875 20.875 63.09375 
Q 16.5 59.96875 16.5 54.203125 
Q 16.5 49.359375 19.40625 46.890625 
Q 22.3125 44.4375 30.421875 42.921875 
L 36.375 41.703125 
Q 47.40625 39.59375 52.65625 34.296875 
Q 57.90625 29 57.90625 20.125 
Q 57.90625 9.515625 50.796875 4.046875 
Q 43.703125 -1.421875 29.984375 -1.421875 
Q 24.8125 -1.421875 18.96875 -0.25 
Q 13.140625 0.921875 6.890625 3.21875 
L 6.890625 13.375 
Q 12.890625 10.015625 18.65625 8.296875 
Q 24.421875 6.59375 29.984375 6.59375 
Q 38.421875 6.59375 43.015625 9.90625 
Q 47.609375 13.234375 47.609375 19.390625 
Q 47.609375 24.75 44.3125 27.78125 
Q 41.015625 30.8125 33.5 32.328125 
L 27.484375 33.5 
Q 16.453125 35.6875 11.515625 40.375 
Q 6.59375 45.0625 6.59375 53.421875 
Q 6.59375 63.09375 13.40625 68.65625 
Q 20.21875 74.21875 32.171875 74.21875 
Q 37.3125 74.21875 42.625 73.28125 
Q 47.953125 72.359375 53.515625 70.515625 
z
" id="DejaVuSans-53"/>
      <path d="M 8.5 21.578125 
L 8.5 54.6875 
L 17.484375 54.6875 
L 17.484375 21.921875 
Q 17.484375 14.15625 20.5 10.265625 
Q 23.53125 6.390625 29.59375 6.390625 
Q 36.859375 6.390625 41.078125 11.03125 
Q 45.3125 15.671875 45.3125 23.6875 
L 45.3125 54.6875 
L 54.296875 54.6875 
L 54.296875 0 
L 45.3125 0 
L 45.3125 8.40625 
Q 42.046875 3.421875 37.71875 1 
Q 33.40625 -1.421875 27.6875 -1.421875 
Q 18.265625 -1.421875 13.375 4.4375 
Q 8.5 10.296875 8.5 21.578125 
z
M 31.109375 56 
z
" id="DejaVuSans-75"/>
      <path d="M 41.109375 46.296875 
Q 39.59375 47.171875 37.8125 47.578125 
Q 36.03125 48 33.890625 48 
Q 26.265625 48 22.1875 43.046875 
Q 18.109375 38.09375 18.109375 28.8125 
L 18.109375 0 
L 9.078125 0 
L 9.078125 54.6875 
L 18.109375 54.6875 
L 18.109375 46.1875 
Q 20.953125 51.171875 25.484375 53.578125 
Q 30.03125 56 36.53125 56 
Q 37.453125 56 38.578125 55.875 
Q 39.703125 55.765625 41.0625 55.515625 
z
" id="DejaVuSans-72"/>
      <path d="M 2.984375 54.6875 
L 12.5 54.6875 
L 29.59375 8.796875 
L 46.6875 54.6875 
L 56.203125 54.6875 
L 35.6875 0 
L 23.484375 0 
z
" id="DejaVuSans-76"/>
      <path d="M 34.28125 27.484375 
Q 23.390625 27.484375 19.1875 25 
Q 14.984375 22.515625 14.984375 16.5 
Q 14.984375 11.71875 18.140625 8.90625 
Q 21.296875 6.109375 26.703125 6.109375 
Q 34.1875 6.109375 38.703125 11.40625 
Q 43.21875 16.703125 43.21875 25.484375 
L 43.21875 27.484375 
z
M 52.203125 31.203125 
L 52.203125 0 
L 43.21875 0 
L 43.21875 8.296875 
Q 40.140625 3.328125 35.546875 0.953125 
Q 30.953125 -1.421875 24.3125 -1.421875 
Q 15.921875 -1.421875 10.953125 3.296875 
Q 6 8.015625 6 15.921875 
Q 6 25.140625 12.171875 29.828125 
Q 18.359375 34.515625 30.609375 34.515625 
L 43.21875 34.515625 
L 43.21875 35.40625 
Q 43.21875 41.609375 39.140625 45 
Q 35.0625 48.390625 27.6875 48.390625 
Q 23 48.390625 18.546875 47.265625 
Q 14.109375 46.140625 10.015625 43.890625 
L 10.015625 52.203125 
Q 14.9375 54.109375 19.578125 55.046875 
Q 24.21875 56 28.609375 56 
Q 40.484375 56 46.34375 49.84375 
Q 52.203125 43.703125 52.203125 31.203125 
z
" id="DejaVuSans-61"/>
      <path d="M 9.421875 75.984375 
L 18.40625 75.984375 
L 18.40625 0 
L 9.421875 0 
z
" id="DejaVuSans-6c"/>
     </defs>
     <g transform="translate(22.396875 204.811)rotate(-90)scale(0.2 -0.2)">
      <use xlink:href="#DejaVuSans-53"/>
      <use x="63.476562" xlink:href="#DejaVuSans-75"/>
      <use x="126.855469" xlink:href="#DejaVuSans-72"/>
      <use x="167.96875" xlink:href="#DejaVuSans-76"/>
      <use x="227.148438" xlink:href="#DejaVuSans-69"/>
      <use x="254.931641" xlink:href="#DejaVuSans-76"/>
      <use x="314.111328" xlink:href="#DejaVuSans-61"/>
      <use x="375.390625" xlink:href="#DejaVuSans-6c"/>
     </g>
    </g>
   </g>
   <g id="LineCollection_1">
    <path clip-path="url(#pcd39df9889)" d="M 61.410938 297.54825 
L 61.410938 296.36553 
" style="fill:none;stroke:#1f77b4;stroke-width:1.5;"/>
    <path clip-path="url(#pcd39df9889)" d="M 72.889795 252.894387 
L 72.889795 238.846113 
" style="fill:none;stroke:#1f77b4;stroke-width:1.5;"/>
    <path clip-path="url(#pcd39df9889)" d="M 84.368652 149.233079 
L 84.368652 131.897947 
" style="fill:none;stroke:#1f77b4;stroke-width:1.5;"/>
    <path clip-path="url(#pcd39df9889)" d="M 95.847509 83.970474 
L 95.847509 70.704856 
" style="fill:none;stroke:#1f77b4;stroke-width:1.5;"/>
    <path clip-path="url(#pcd39df9889)" d="M 107.326366 95.746387 
L 107.326366 80.817155 
" style="fill:none;stroke:#1f77b4;stroke-width:1.5;"/>
    <path clip-path="url(#pcd39df9889)" d="M 118.805223 165.916831 
L 118.805223 147.180386 
" style="fill:none;stroke:#1f77b4;stroke-width:1.5;"/>
    <path clip-path="url(#pcd39df9889)" d="M 130.28408 249.68533 
L 130.28408 235.495344 
" style="fill:none;stroke:#1f77b4;stroke-width:1.5;"/>
    <path clip-path="url(#pcd39df9889)" d="M 141.762938 290.517621 
L 141.762938 283.537465 
" style="fill:none;stroke:#1f77b4;stroke-width:1.5;"/>
    <path clip-path="url(#pcd39df9889)" d="M 153.241795 246.27751 
L 153.241795 231.234618 
" style="fill:none;stroke:#1f77b4;stroke-width:1.5;"/>
    <path clip-path="url(#pcd39df9889)" d="M 164.720652 128.514379 
L 164.720652 112.143585 
" style="fill:none;stroke:#1f77b4;stroke-width:1.5;"/>
    <path clip-path="url(#pcd39df9889)" d="M 176.199509 71.379025 
L 176.199509 59.513134 
" style="fill:none;stroke:#1f77b4;stroke-width:1.5;"/>
    <path clip-path="url(#pcd39df9889)" d="M 187.678366 89.719004 
L 187.678366 75.310235 
" style="fill:none;stroke:#1f77b4;stroke-width:1.5;"/>
    <path clip-path="url(#pcd39df9889)" d="M 199.157223 164.606689 
L 199.157223 147.172294 
" style="fill:none;stroke:#1f77b4;stroke-width:1.5;"/>
    <path clip-path="url(#pcd39df9889)" d="M 210.63608 253.246249 
L 210.63608 238.715936 
" style="fill:none;stroke:#1f77b4;stroke-width:1.5;"/>
    <path clip-path="url(#pcd39df9889)" d="M 222.114938 278.419338 
L 222.114938 267.95243 
" style="fill:none;stroke:#1f77b4;stroke-width:1.5;"/>
    <path clip-path="url(#pcd39df9889)" d="M 233.593795 246.032967 
L 233.593795 230.929701 
" style="fill:none;stroke:#1f77b4;stroke-width:1.5;"/>
    <path clip-path="url(#pcd39df9889)" d="M 245.072652 151.120912 
L 245.072652 133.511588 
" style="fill:none;stroke:#1f77b4;stroke-width:1.5;"/>
    <path clip-path="url(#pcd39df9889)" d="M 256.551509 70.543745 
L 256.551509 58.544417 
" style="fill:none;stroke:#1f77b4;stroke-width:1.5;"/>
    <path clip-path="url(#pcd39df9889)" d="M 268.030366 96.266173 
L 268.030366 81.518327 
" style="fill:none;stroke:#1f77b4;stroke-width:1.5;"/>
    <path clip-path="url(#pcd39df9889)" d="M 279.509223 176.172937 
L 279.509223 157.85634 
" style="fill:none;stroke:#1f77b4;stroke-width:1.5;"/>
    <path clip-path="url(#pcd39df9889)" d="M 290.98808 249.095723 
L 290.98808 234.405422 
" style="fill:none;stroke:#1f77b4;stroke-width:1.5;"/>
    <path clip-path="url(#pcd39df9889)" d="M 302.466938 272.027226 
L 302.466938 261.157502 
" style="fill:none;stroke:#1f77b4;stroke-width:1.5;"/>
    <path clip-path="url(#pcd39df9889)" d="M 313.945795 234.995774 
L 313.945795 219.357046 
" style="fill:none;stroke:#1f77b4;stroke-width:1.5;"/>
    <path clip-path="url(#pcd39df9889)" d="M 325.424652 149.901553 
L 325.424652 131.745716 
" style="fill:none;stroke:#1f77b4;stroke-width:1.5;"/>
    <path clip-path="url(#pcd39df9889)" d="M 336.903509 68.012818 
L 336.903509 56.366701 
" style="fill:none;stroke:#1f77b4;stroke-width:1.5;"/>
    <path clip-path="url(#pcd39df9889)" d="M 348.382366 90.455081 
L 348.382366 76.882873 
" style="fill:none;stroke:#1f77b4;stroke-width:1.5;"/>
    <path clip-path="url(#pcd39df9889)" d="M 359.861223 167.352236 
L 359.861223 149.138743 
" style="fill:none;stroke:#1f77b4;stroke-width:1.5;"/>
    <path clip-path="url(#pcd39df9889)" d="M 371.34008 238.484239 
L 371.34008 223.556261 
" style="fill:none;stroke:#1f77b4;stroke-width:1.5;"/>
    <path clip-path="url(#pcd39df9889)" d="M 382.818938 271.834904 
L 382.818938 260.137354 
" style="fill:none;stroke:#1f77b4;stroke-width:1.5;"/>
    <path clip-path="url(#pcd39df9889)" d="M 394.297795 226.557949 
L 394.297795 211.043694 
" style="fill:none;stroke:#1f77b4;stroke-width:1.5;"/>
    <path clip-path="url(#pcd39df9889)" d="M 405.776652 150.267612 
L 405.776652 132.272812 
" style="fill:none;stroke:#1f77b4;stroke-width:1.5;"/>
   </g>
   <g id="LineCollection_2">
    <path clip-path="url(#pcd39df9889)" d="M 61.410938 293.318268 
L 61.410938 286.326567 
" style="fill:none;stroke:#d62728;stroke-width:1.5;"/>
    <path clip-path="url(#pcd39df9889)" d="M 72.889795 198.710011 
L 72.889795 178.934969 
" style="fill:none;stroke:#d62728;stroke-width:1.5;"/>
    <path clip-path="url(#pcd39df9889)" d="M 84.368652 119.031529 
L 84.368652 99.221803 
" style="fill:none;stroke:#d62728;stroke-width:1.5;"/>
    <path clip-path="url(#pcd39df9889)" d="M 95.847509 127.731698 
L 95.847509 109.079931 
" style="fill:none;stroke:#d62728;stroke-width:1.5;"/>
    <path clip-path="url(#pcd39df9889)" d="M 107.326366 195.074901 
L 107.326366 174.849907 
" style="fill:none;stroke:#d62728;stroke-width:1.5;"/>
    <path clip-path="url(#pcd39df9889)" d="M 118.805223 195.600939 
L 118.805223 173.759175 
" style="fill:none;stroke:#d62728;stroke-width:1.5;"/>
    <path clip-path="url(#pcd39df9889)" d="M 130.28408 155.891461 
L 130.28408 135.743987 
" style="fill:none;stroke:#d62728;stroke-width:1.5;"/>
    <path clip-path="url(#pcd39df9889)" d="M 141.762938 197.791083 
L 141.762938 175.855571 
" style="fill:none;stroke:#d62728;stroke-width:1.5;"/>
    <path clip-path="url(#pcd39df9889)" d="M 153.241795 224.087066 
L 153.241795 203.790407 
" style="fill:none;stroke:#d62728;stroke-width:1.5;"/>
    <path clip-path="url(#pcd39df9889)" d="M 164.720652 171.575188 
L 164.720652 151.110803 
" style="fill:none;stroke:#d62728;stroke-width:1.5;"/>
    <path clip-path="url(#pcd39df9889)" d="M 176.199509 165.838605 
L 176.199509 144.850695 
" style="fill:none;stroke:#d62728;stroke-width:1.5;"/>
    <path clip-path="url(#pcd39df9889)" d="M 187.678366 154.447612 
L 187.678366 133.332449 
" style="fill:none;stroke:#d62728;stroke-width:1.5;"/>
    <path clip-path="url(#pcd39df9889)" d="M 199.157223 188.618253 
L 199.157223 167.951028 
" style="fill:none;stroke:#d62728;stroke-width:1.5;"/>
    <path clip-path="url(#pcd39df9889)" d="M 210.63608 173.369777 
L 210.63608 152.267403 
" style="fill:none;stroke:#d62728;stroke-width:1.5;"/>
    <path clip-path="url(#pcd39df9889)" d="M 222.114938 175.997959 
L 222.114938 154.692388 
" style="fill:none;stroke:#d62728;stroke-width:1.5;"/>
    <path clip-path="url(#pcd39df9889)" d="M 233.593795 199.038512 
L 233.593795 178.017833 
" style="fill:none;stroke:#d62728;stroke-width:1.5;"/>
   </g>
   <g id="line2d_25">
    <path clip-path="url(#pcd39df9889)" d="M 61.410938 297.056409 
L 62.125178 297.056409 
L 62.482298 296.685009 
L 62.839418 297.056409 
L 63.196538 295.882615 
L 63.553658 295.985686 
L 64.267898 295.129758 
L 64.625018 292.637622 
L 65.339258 291.559713 
L 65.696378 290.210906 
L 66.053498 287.980944 
L 66.410618 287.401174 
L 66.767738 285.917181 
L 67.124858 284.995119 
L 67.839098 281.338849 
L 68.196218 278.435714 
L 68.553338 276.697894 
L 68.910458 275.778917 
L 69.267578 272.776106 
L 69.624698 271.531881 
L 69.981818 269.811242 
L 70.338938 266.174711 
L 70.696058 264.313021 
L 71.410298 259.094748 
L 71.767418 257.35115 
L 72.124538 253.618612 
L 72.481658 251.632948 
L 72.838778 248.067449 
L 73.195898 246.495095 
L 73.910138 239.163564 
L 76.052858 220.373196 
L 76.409978 216.524005 
L 76.767098 214.229621 
L 77.124218 210.118085 
L 77.481338 207.85477 
L 78.552698 196.610165 
L 78.909818 194.594196 
L 79.624058 186.478073 
L 80.338298 179.308189 
L 81.766778 165.709702 
L 82.123898 161.233384 
L 82.481018 158.788945 
L 84.266618 140.97261 
L 84.980858 135.722046 
L 85.695098 128.03762 
L 87.480698 112.357648 
L 87.837818 108.50526 
L 88.552058 104.418845 
L 89.623418 95.459746 
L 90.337658 90.976273 
L 91.051898 84.40498 
L 91.409018 83.790329 
L 91.766138 80.49489 
L 92.480378 76.318424 
L 92.837498 73.563475 
L 93.194618 72.813917 
L 93.551738 71.269724 
L 94.265978 65.992036 
L 94.623098 64.089207 
L 94.980218 62.858047 
L 95.337338 62.584595 
L 95.694458 61.001461 
L 96.051578 60.003337 
L 96.408698 57.951463 
L 97.122938 55.897494 
L 97.480058 55.54185 
L 97.837178 55.443107 
L 98.194298 53.404112 
L 98.908538 52.20015 
L 99.622778 51.927798 
L 99.979898 51.278244 
L 100.337018 50.933447 
L 100.694138 50.284472 
L 101.408378 52.181338 
L 101.765498 50.974587 
L 102.122618 52.129622 
L 102.479738 51.634499 
L 102.836858 54.328032 
L 103.193978 53.643075 
L 103.551098 54.784986 
L 103.908218 55.18578 
L 104.622458 56.395883 
L 104.979578 58.418003 
L 105.693818 60.850831 
L 106.050938 61.743729 
L 106.765178 65.325322 
L 107.122298 65.761871 
L 107.836538 69.782353 
L 108.193658 71.934427 
L 108.550778 73.111909 
L 109.265018 78.259737 
L 109.622138 79.738736 
L 110.336378 84.023486 
L 111.407738 91.658058 
L 111.764858 95.012577 
L 112.479098 99.301322 
L 113.193338 104.396528 
L 113.907578 110.985643 
L 114.264698 112.969237 
L 114.621818 117.098862 
L 114.978938 118.870471 
L 115.336058 122.761954 
L 115.693178 125.260751 
L 116.050298 129.524788 
L 116.407418 130.747017 
L 118.550138 151.217204 
L 118.907258 155.090858 
L 119.264378 157.748388 
L 119.621498 161.643831 
L 119.978618 163.973467 
L 121.764218 181.5078 
L 122.121338 183.521558 
L 122.478458 187.648793 
L 122.835578 190.300243 
L 123.192698 194.552353 
L 123.549818 196.929995 
L 124.978298 209.733467 
L 125.335418 212.182971 
L 126.763898 225.497364 
L 127.121018 226.846371 
L 127.835258 232.739975 
L 128.549498 237.379894 
L 129.620858 245.67668 
L 130.335098 250.098586 
L 130.692218 254.038407 
L 131.049338 254.767445 
L 131.406458 257.626852 
L 132.120698 261.368981 
L 132.834938 265.554493 
L 133.192058 266.639867 
L 133.549178 269.445642 
L 133.906298 270.387188 
L 134.977658 275.292537 
L 135.334778 275.492532 
L 135.691898 276.32405 
L 136.049018 278.941121 
L 137.120378 282.180964 
L 137.477498 282.691543 
L 137.834618 283.965981 
L 138.191738 284.237877 
L 138.548858 284.827044 
L 139.263098 286.674468 
L 139.977338 285.79999 
L 140.334458 285.894217 
L 140.691578 285.687781 
L 141.048698 285.022774 
L 141.405818 285.687781 
L 141.762938 285.42469 
L 142.120058 284.148583 
L 142.477178 284.785025 
L 142.834298 283.990591 
L 143.191418 283.951093 
L 143.548538 282.017452 
L 143.905658 280.866621 
L 144.262777 281.809566 
L 144.977018 278.633876 
L 145.334138 278.648398 
L 146.048378 274.842456 
L 146.762618 272.605851 
L 147.476858 270.132565 
L 149.976698 256.552317 
L 150.333818 255.532446 
L 150.690938 251.867936 
L 151.762298 245.571758 
L 152.476538 239.27707 
L 152.833658 238.825681 
L 153.190778 235.63286 
L 153.547898 231.294007 
L 153.905018 229.778154 
L 154.262138 226.50022 
L 154.619258 225.373926 
L 154.976378 221.282565 
L 155.333498 218.945073 
L 156.047738 212.543349 
L 156.404858 210.779403 
L 157.119098 204.29587 
L 157.833338 198.727475 
L 158.190458 194.313844 
L 158.547578 192.310102 
L 159.976058 179.247482 
L 160.333178 177.458633 
L 160.690298 174.617521 
L 161.404538 167.834466 
L 163.904378 147.043144 
L 164.261498 142.843571 
L 164.618618 140.895662 
L 164.975738 137.204356 
L 165.332858 134.958373 
L 166.047098 128.645834 
L 166.404218 127.308923 
L 166.761338 123.537826 
L 167.475578 119.451042 
L 168.189818 113.452354 
L 168.546938 111.302265 
L 168.904058 107.642612 
L 169.261178 105.281907 
L 169.975418 102.146178 
L 171.046778 93.777991 
L 171.403898 92.48744 
L 171.761018 90.510698 
L 172.118138 89.161867 
L 172.832378 85.10574 
L 173.189498 84.222516 
L 174.260858 78.896174 
L 174.617978 76.401484 
L 174.975098 76.42837 
L 175.332218 73.709764 
L 175.689338 73.798638 
L 176.046458 71.610958 
L 176.403578 71.965942 
L 176.760698 71.130188 
L 177.117818 69.638848 
L 177.474938 68.830544 
L 177.832058 67.484675 
L 178.189178 67.533072 
L 178.546298 66.421413 
L 178.903418 66.459886 
L 179.260538 65.854035 
L 179.617658 64.609482 
L 179.974778 65.405387 
L 180.331898 64.895868 
L 180.689018 64.745004 
L 181.046138 65.052664 
L 181.403258 65.722372 
L 181.760378 65.25557 
L 182.474618 66.408588 
L 182.831738 66.005029 
L 183.188858 67.373584 
L 183.545978 67.715938 
L 183.903098 68.256926 
L 184.260218 69.004805 
L 184.617338 69.170501 
L 184.974458 70.834179 
L 186.045818 73.403882 
L 186.402938 75.603209 
L 186.760058 76.528947 
L 187.117178 78.417036 
L 187.474298 78.831951 
L 188.188538 83.265804 
L 188.902778 85.829799 
L 189.259898 88.413925 
L 189.617018 89.54871 
L 189.974138 92.355774 
L 190.331258 92.766368 
L 192.831098 109.492036 
L 193.188218 110.588552 
L 194.259578 120.435403 
L 194.616698 121.807896 
L 195.330938 127.722167 
L 195.688058 130.526481 
L 196.045178 132.289739 
L 198.187898 150.477902 
L 199.259258 158.335997 
L 199.616378 162.743128 
L 200.687738 170.995916 
L 207.115898 222.897146 
L 209.615738 240.599388 
L 210.329978 244.476157 
L 211.044218 250.251019 
L 211.401338 251.592366 
L 211.758458 252.243341 
L 212.115578 255.41627 
L 213.544058 263.27371 
L 213.901178 263.596745 
L 214.258298 264.929662 
L 214.615418 267.621625 
L 214.972538 268.372964 
L 215.329658 270.142959 
L 215.686778 270.966708 
L 216.401018 273.69005 
L 216.758138 274.009379 
L 217.115258 275.81739 
L 217.472378 275.690859 
L 217.829498 276.620393 
L 218.186618 277.889239 
L 218.543738 277.237436 
L 219.257978 278.852691 
L 219.615098 279.347446 
L 219.972218 279.167907 
L 220.329338 280.204938 
L 220.686458 280.737118 
L 221.043578 279.812458 
L 221.400698 280.371176 
L 221.757818 280.403029 
L 222.472058 279.182868 
L 222.829178 280.126568 
L 223.186298 278.335536 
L 223.900538 277.503952 
L 224.257658 276.422899 
L 224.971898 275.455033 
L 225.686138 272.58315 
L 226.043258 271.325704 
L 226.400378 269.656947 
L 226.757498 268.71665 
L 227.114618 268.172962 
L 227.471738 266.658677 
L 227.828858 264.304204 
L 228.900218 260.236244 
L 229.257338 257.862332 
L 229.614458 257.146955 
L 229.971578 254.229801 
L 230.328698 252.483358 
L 230.685818 251.457092 
L 231.400058 245.17696 
L 231.757178 244.524922 
L 232.471418 238.425037 
L 232.828538 236.958263 
L 233.185658 234.334575 
L 233.542778 232.734694 
L 234.971258 221.627713 
L 235.328378 219.334424 
L 236.756858 207.164948 
L 238.899578 190.841513 
L 239.613818 184.292795 
L 239.970938 182.178331 
L 240.328058 178.571605 
L 240.685178 176.353756 
L 241.042298 171.777862 
L 241.399418 169.7182 
L 242.827898 157.625969 
L 243.185018 154.044687 
L 243.542138 152.002253 
L 244.256378 145.684137 
L 245.327738 137.43057 
L 245.684858 135.05493 
L 246.756218 126.453438 
L 247.827578 119.094241 
L 248.184698 115.338462 
L 248.541818 114.229301 
L 248.898938 111.343844 
L 249.256058 109.58181 
L 249.613178 106.211204 
L 252.113018 92.513774 
L 252.470138 89.861603 
L 253.541498 84.518921 
L 253.898618 84.038796 
L 254.255738 82.657675 
L 254.612858 80.345522 
L 254.969978 78.887587 
L 255.327098 77.950628 
L 255.684218 76.519804 
L 256.041337 76.346111 
L 256.398458 74.380987 
L 256.755578 73.897387 
L 257.112698 73.132062 
L 257.469818 71.923922 
L 258.184058 70.899288 
L 258.541178 70.823328 
L 258.898298 69.672899 
L 259.255418 69.894566 
L 259.612538 69.36644 
L 259.969658 69.616147 
L 260.326778 69.308289 
L 261.041018 67.801275 
L 261.398138 69.616147 
L 261.755258 70.310968 
L 262.112378 69.905788 
L 262.469497 69.75991 
L 262.826617 70.00678 
L 263.183738 72.199114 
L 263.540858 73.132062 
L 263.897978 72.417141 
L 264.255098 72.53029 
L 264.969337 75.880347 
L 265.326458 76.989275 
L 265.683578 76.835262 
L 266.040698 78.537436 
L 266.397818 80.789454 
L 266.754938 81.323982 
L 267.469178 84.344211 
L 268.540538 90.292767 
L 268.897658 90.129051 
L 269.254778 93.294998 
L 269.611898 94.604235 
L 269.969018 96.51467 
L 270.326138 97.783465 
L 270.683258 101.713811 
L 271.040378 102.255263 
L 271.754617 107.459141 
L 272.111738 109.351705 
L 272.825978 114.529758 
L 273.183098 116.326082 
L 273.540218 120.184914 
L 273.897338 121.340381 
L 274.254458 123.102148 
L 274.968698 131.227305 
L 275.325818 132.681183 
L 276.040058 138.811704 
L 276.397178 140.835813 
L 276.754298 144.663785 
L 277.468538 149.30319 
L 278.182778 155.685003 
L 278.897018 161.586937 
L 279.254138 165.175476 
L 279.611258 167.08574 
L 280.325497 173.712574 
L 281.396858 181.609396 
L 281.753978 185.312949 
L 282.111098 187.428705 
L 282.468218 191.027446 
L 282.825338 193.457747 
L 283.182457 197.617874 
L 284.610938 207.581442 
L 285.682298 217.036168 
L 286.396538 221.763172 
L 286.753658 224.617753 
L 287.110778 226.560069 
L 287.467898 229.603283 
L 287.825018 231.39328 
L 290.324858 247.762317 
L 290.681978 249.556431 
L 291.039098 252.421639 
L 293.896058 265.527314 
L 294.967418 268.646828 
L 295.324538 269.005914 
L 296.038778 273.17701 
L 296.395898 272.023513 
L 296.753018 274.324454 
L 297.110138 274.372624 
L 297.824378 275.417534 
L 298.181498 275.652879 
L 298.538617 276.673059 
L 298.895737 276.777959 
L 299.252858 277.311943 
L 299.609978 276.831336 
L 299.967098 276.951434 
L 300.324218 276.791303 
L 300.681338 277.961079 
L 301.038458 277.115692 
L 301.752698 276.646726 
L 302.109818 276.064189 
L 302.824058 274.635117 
L 303.181178 274.360582 
L 303.895418 272.001323 
L 304.252538 272.28332 
L 305.323898 268.616904 
L 305.681018 267.372356 
L 306.038138 265.724579 
L 306.395258 265.436719 
L 306.752378 263.213601 
L 307.109498 262.052923 
L 307.466618 259.664025 
L 307.823737 259.251494 
L 308.895098 252.55494 
L 309.609338 249.868493 
L 310.323578 245.330299 
L 311.037818 241.660886 
L 311.394938 237.953 
L 311.752058 236.568533 
L 312.109178 234.631299 
L 312.823418 228.634137 
L 313.180538 227.614232 
L 313.537658 224.137941 
L 313.894778 222.288236 
L 314.251898 219.850957 
L 314.609018 216.081232 
L 315.323258 211.327627 
L 318.180218 188.887294 
L 318.537338 185.084434 
L 318.894457 183.256318 
L 319.251577 180.187057 
L 319.608698 178.251878 
L 319.965818 174.783455 
L 320.322938 172.978996 
L 321.037178 166.701259 
L 322.108538 158.486979 
L 322.465658 156.016904 
L 323.537018 146.875769 
L 324.251258 141.545451 
L 324.965498 136.821534 
L 327.108218 121.450104 
L 327.465338 120.488391 
L 327.822458 116.851986 
L 328.179577 115.625295 
L 329.250938 108.1541 
L 329.608058 107.858922 
L 329.965178 104.191219 
L 330.322298 104.348322 
L 330.679417 100.82204 
L 332.107898 94.280362 
L 332.465018 93.470409 
L 332.822138 91.437872 
L 333.536378 89.693727 
L 333.893498 87.415318 
L 334.607737 85.581863 
L 334.964857 84.40498 
L 335.321978 84.115346 
L 335.679098 82.712975 
L 336.036218 81.885259 
L 336.393338 80.772996 
L 336.750458 80.715392 
L 337.107577 80.061437 
L 337.464697 79.797817 
L 337.821818 79.024977 
L 338.178938 78.693355 
L 338.536058 79.145194 
L 338.893178 78.118149 
L 339.250298 77.871277 
L 339.607418 78.189826 
L 339.964538 78.939109 
L 340.321658 79.179541 
L 340.678778 79.196715 
L 341.035898 79.401959 
L 341.393018 78.250998 
L 342.107258 79.637455 
L 342.464378 81.477413 
L 342.821498 81.582638 
L 344.607098 86.072988 
L 344.964218 87.458253 
L 345.321338 87.868483 
L 346.392697 92.32944 
L 346.749818 94.425848 
L 347.106938 95.120189 
L 348.178298 99.087356 
L 348.892538 104.185608 
L 349.249658 105.83742 
L 349.606778 108.207768 
L 349.963898 109.054392 
L 350.678138 114.43693 
L 351.035258 115.278309 
L 351.392378 118.611691 
L 353.177977 128.714094 
L 354.249338 136.547316 
L 354.606458 137.859964 
L 355.320697 144.46544 
L 355.677818 145.490838 
L 357.106298 156.061977 
L 357.463418 159.494068 
L 357.820538 160.680704 
L 358.177658 165.135004 
L 359.249018 172.334092 
L 359.606138 175.746681 
L 359.963258 177.333171 
L 361.034618 186.437098 
L 361.391738 188.33182 
L 361.748857 191.733364 
L 362.105977 193.232745 
L 362.463098 195.464543 
L 362.820218 199.155536 
L 363.891578 205.499018 
L 364.605818 211.61939 
L 364.962938 213.082402 
L 365.677178 218.785191 
L 366.034298 219.793986 
L 366.391418 223.482868 
L 366.748538 224.450712 
L 367.462778 229.259464 
L 367.819898 230.121319 
L 368.177018 234.339941 
L 368.534138 235.43645 
L 369.605498 241.555708 
L 369.962618 243.37032 
L 370.319738 246.151631 
L 370.676858 246.754876 
L 371.033977 248.189283 
L 371.391098 249.125037 
L 371.748218 250.832211 
L 372.105338 253.281226 
L 373.533817 257.456684 
L 373.890938 259.43175 
L 374.248058 259.836336 
L 374.605178 260.772216 
L 374.962298 261.080374 
L 375.319418 262.399442 
L 376.033658 264.26012 
L 376.390778 265.482016 
L 376.747898 265.391421 
L 377.105018 265.93476 
L 377.462138 266.912602 
L 377.819258 266.752723 
L 378.176378 267.197239 
L 378.533498 266.297962 
L 379.247738 267.314833 
L 379.604858 267.42988 
L 379.961977 266.82796 
L 380.319097 267.111784 
L 380.676218 267.244715 
L 381.033338 266.045507 
L 381.390458 265.916303 
L 381.747578 265.541711 
L 382.104698 265.733723 
L 382.461818 264.574082 
L 382.818938 264.091535 
L 383.176058 263.873064 
L 383.890298 261.591166 
L 384.247418 261.227274 
L 384.604538 260.493153 
L 384.961658 260.618426 
L 385.318778 258.337761 
L 386.033018 255.358182 
L 386.747258 252.270771 
L 387.104378 251.970091 
L 387.461498 250.578664 
L 387.818618 248.54438 
L 388.175738 247.170004 
L 388.532858 245.256696 
L 388.889978 244.389781 
L 389.247098 242.923341 
L 389.604218 240.27023 
L 390.318458 236.292855 
L 390.675578 234.485602 
L 391.032698 233.443217 
L 391.389818 229.973598 
L 391.746938 229.249231 
L 394.246778 214.691372 
L 394.603898 210.941601 
L 396.032378 201.706283 
L 397.103738 194.841073 
L 397.460858 191.372383 
L 397.817978 189.705258 
L 398.532218 184.541712 
L 399.246458 179.506501 
L 401.032058 167.235485 
L 401.389178 165.871589 
L 401.746297 162.115234 
L 402.103418 160.408428 
L 403.174778 152.675742 
L 403.531898 150.739301 
L 403.889018 147.486686 
L 404.246138 145.516051 
L 404.603257 144.191132 
L 405.317498 138.236776 
L 405.674618 137.556727 
L 406.031738 133.168072 
L 406.388858 132.534392 
L 406.745978 131.37992 
L 407.103098 128.413747 
L 407.460217 126.822059 
L 408.531578 120.117474 
L 408.888698 119.099106 
L 409.245818 116.094111 
L 409.960058 112.542806 
L 410.317178 111.656933 
L 410.674298 109.128721 
L 411.031418 108.1702 
L 411.388537 106.348357 
L 411.745658 105.882036 
L 412.102778 104.619693 
L 412.459898 101.540565 
L 412.817018 100.786981 
L 414.959738 94.425848 
L 416.031098 91.365899 
L 416.745338 90.718025 
L 417.102458 90.914172 
L 417.816698 89.064508 
L 418.530938 88.463299 
L 418.530938 88.463299 
" style="fill:none;stroke:#1f77b4;stroke-linecap:square;stroke-width:1.5;"/>
   </g>
   <g id="line2d_26">
    <path clip-path="url(#pcd39df9889)" d="M 61.410938 297.053029 
L 62.558823 297.053029 
L 62.941452 295.746941 
L 63.32408 293.737717 
L 63.706709 293.891627 
L 64.089338 292.012729 
L 65.237223 284.389899 
L 65.619852 282.864814 
L 67.150366 270.515891 
L 69.063509 251.807739 
L 72.889795 205.103136 
L 77.481338 144.665977 
L 78.629223 130.747679 
L 80.159738 114.237808 
L 80.542366 111.400991 
L 80.924995 106.766203 
L 82.07288 97.855197 
L 82.838138 90.506794 
L 83.603395 87.278485 
L 83.986023 85.455407 
L 84.368652 82.579357 
L 84.75128 80.573069 
L 85.133909 79.911167 
L 85.516538 77.937235 
L 85.899166 77.102259 
L 86.281795 75.910672 
L 86.664423 75.212733 
L 87.047052 75.437199 
L 87.42968 74.798226 
L 87.812309 73.41688 
L 88.194938 74.954958 
L 88.577566 74.182259 
L 88.960195 74.742472 
L 89.725452 77.937235 
L 90.490709 79.324836 
L 90.873338 81.31626 
L 91.255966 81.406764 
L 91.638595 84.478839 
L 92.021223 85.72616 
L 92.403852 87.778938 
L 93.551738 96.355527 
L 93.934366 97.488603 
L 94.316995 100.138215 
L 94.699623 103.759641 
L 95.46488 108.33272 
L 96.995395 123.309101 
L 98.14328 131.292995 
L 98.908538 139.544131 
L 99.673795 145.364099 
L 101.586938 162.59105 
L 102.734823 171.510198 
L 103.117452 175.21126 
L 103.50008 177.550298 
L 103.882709 182.052512 
L 104.265338 182.553125 
L 104.647966 186.119165 
L 105.030595 187.312042 
L 105.795852 193.726641 
L 106.17848 195.125357 
L 106.943738 199.573851 
L 109.239509 208.83444 
L 109.622138 209.751253 
L 110.004766 210.0077 
L 110.387395 209.989704 
L 110.770023 210.549855 
L 111.152652 210.735155 
L 111.53528 211.296727 
L 111.917909 212.283061 
L 112.300538 211.019884 
L 112.683166 211.578216 
L 113.065795 211.37845 
L 113.448423 210.350996 
L 113.831052 209.742255 
L 114.21368 209.499306 
L 114.596309 209.917719 
L 114.978938 208.117574 
L 115.361566 207.433742 
L 115.744195 205.512292 
L 116.126823 205.331912 
L 116.89208 202.54108 
L 118.039966 198.347135 
L 118.422595 196.344816 
L 118.805223 195.116894 
L 119.187852 193.426321 
L 119.57048 190.170673 
L 119.953109 189.193019 
L 120.335738 186.787529 
L 120.718366 186.346079 
L 121.100995 183.839135 
L 121.483623 183.091359 
L 122.24888 178.096346 
L 123.014138 175.166436 
L 123.396766 172.618127 
L 123.779395 171.526431 
L 124.162023 169.095481 
L 125.692538 162.766274 
L 126.075166 161.751604 
L 126.457795 159.142813 
L 126.840423 158.770464 
L 127.988309 155.106246 
L 128.753566 153.439737 
L 129.136195 152.739588 
L 129.518823 151.33078 
L 129.901452 150.856514 
L 130.28408 149.538317 
L 130.666709 149.329432 
L 131.049338 148.057965 
L 131.431966 148.573267 
L 131.814595 148.435545 
L 132.579852 149.224989 
L 132.96248 148.355833 
L 133.345109 149.358676 
L 134.110366 150.09813 
L 134.492995 150.827392 
L 134.875623 151.973153 
L 135.258252 151.226774 
L 135.64088 151.873723 
L 136.023509 153.199449 
L 136.406138 154.033563 
L 137.171395 156.964414 
L 137.554023 157.757385 
L 137.936652 160.288502 
L 138.31928 160.607659 
L 138.701909 162.163177 
L 139.084538 163.014847 
L 139.467166 164.542965 
L 139.849795 166.914603 
L 140.232423 167.72376 
L 140.99768 170.71882 
L 141.380309 173.528294 
L 141.762938 174.742638 
L 142.145566 176.543779 
L 142.528195 176.698628 
L 142.910823 179.740675 
L 143.293452 181.643338 
L 143.67608 182.290171 
L 144.058709 185.813863 
L 144.441338 186.725644 
L 145.206595 191.03967 
L 145.589223 191.820901 
L 145.971852 193.128452 
L 146.737109 196.378809 
L 147.502366 199.65528 
L 147.884995 200.613189 
L 148.650252 203.301842 
L 149.03288 203.323647 
L 150.180766 207.278383 
L 150.563395 207.651244 
L 151.328652 210.039194 
L 151.71128 210.10218 
L 152.093909 211.555515 
L 152.476538 210.789389 
L 152.859166 211.873326 
L 153.241795 212.146232 
L 153.624423 211.042482 
L 154.007052 212.13711 
L 154.38968 211.373909 
L 154.772309 212.597768 
L 155.537566 210.956611 
L 155.920195 210.87074 
L 156.302823 209.998702 
L 156.685452 209.899723 
L 157.06808 209.962709 
L 158.215966 206.345013 
L 158.598595 206.124059 
L 158.981223 203.951622 
L 159.363852 202.56279 
L 159.74648 201.972823 
L 160.511738 198.317263 
L 160.894366 197.75824 
L 161.276995 194.918952 
L 161.659623 193.785625 
L 162.042252 193.027764 
L 163.572766 185.24039 
L 163.955395 184.541715 
L 165.868538 175.18681 
L 166.251166 174.428864 
L 167.016423 169.111715 
L 167.399052 168.470496 
L 168.164309 164.636689 
L 168.546938 163.44272 
L 169.312195 159.273749 
L 169.694823 158.217554 
L 170.46008 154.871081 
L 170.842709 155.135126 
L 171.607966 150.382248 
L 171.990595 149.855823 
L 172.373223 148.64011 
L 172.755852 147.898542 
L 173.13848 146.489231 
L 173.521109 146.114264 
L 173.903738 144.216603 
L 174.286366 144.805601 
L 174.668995 143.982901 
L 175.051623 142.568511 
L 175.434252 142.2954 
L 175.81688 141.124786 
L 176.582138 140.889069 
L 176.964766 139.956949 
L 177.347395 141.236215 
L 177.730023 140.322814 
L 178.112652 140.936213 
L 178.49528 141.021928 
L 178.877909 141.699076 
L 179.260538 140.667159 
L 180.025795 140.773354 
L 180.408423 142.653858 
L 180.791052 141.767648 
L 181.17368 143.145824 
L 181.556309 143.042188 
L 181.938938 144.742136 
L 182.321566 145.118698 
L 182.704195 146.396542 
L 183.086823 146.147969 
L 183.469452 146.699886 
L 184.617338 150.877315 
L 184.999966 151.621996 
L 185.382595 151.50967 
L 185.765223 153.835529 
L 186.913109 157.186282 
L 187.295738 157.03837 
L 187.678366 158.700904 
L 188.060995 159.535621 
L 188.826252 162.778499 
L 189.591509 164.954538 
L 189.974138 164.909713 
L 190.739395 167.630418 
L 191.122023 168.222937 
L 191.504652 169.627125 
L 193.035166 172.934678 
L 193.417795 172.760169 
L 193.800423 173.210645 
L 194.183052 175.256085 
L 194.56568 175.508734 
L 194.948309 175.34981 
L 195.330938 175.635058 
L 195.713566 176.364479 
L 196.096195 176.678253 
L 196.478823 177.766272 
L 196.861452 178.035221 
L 197.626709 179.437885 
L 198.009338 178.153395 
L 198.774595 178.858367 
L 199.157223 178.283795 
L 199.539852 178.010771 
L 199.92248 178.128945 
L 200.305109 177.802947 
L 200.687738 177.994471 
L 201.070366 177.15095 
L 201.452995 177.725523 
L 202.218252 175.170511 
L 202.60088 175.19496 
L 202.983509 175.33351 
L 203.366138 175.133836 
L 204.131395 172.228525 
L 204.514023 171.838924 
L 204.896652 172.224467 
L 206.044538 169.095481 
L 206.427166 167.520843 
L 206.809795 167.561426 
L 207.575052 166.140356 
L 207.95768 164.852663 
L 208.340309 164.000992 
L 208.722938 162.741824 
L 209.105566 162.497325 
L 209.488195 161.303256 
L 209.870823 160.971824 
L 210.253452 160.975916 
L 210.63608 159.085528 
L 211.018709 159.036427 
L 211.401338 158.492225 
L 211.783966 158.844115 
L 212.166595 157.132869 
L 212.549223 156.171444 
L 213.31448 154.994852 
L 213.697109 154.31411 
L 214.079738 153.860283 
L 214.462366 153.178735 
L 214.844995 154.243973 
L 215.227623 154.173836 
L 215.99288 153.166306 
L 216.375509 153.149735 
L 217.140766 152.623587 
L 217.523395 153.037877 
L 217.906023 153.008876 
L 218.288652 152.710588 
L 218.67128 154.879332 
L 219.053909 153.856157 
L 219.436538 155.634336 
L 219.819166 155.74573 
L 220.201795 156.615178 
L 220.584423 157.178064 
L 220.967052 157.457453 
L 221.34968 157.46567 
L 222.114938 159.224648 
L 222.497566 160.640393 
L 222.880195 160.754962 
L 223.262823 162.5503 
L 223.645452 163.56497 
L 224.02808 164.229191 
L 224.793338 167.203926 
L 225.558595 168.636888 
L 226.323852 172.411151 
L 227.089109 175.35796 
L 227.471738 176.906452 
L 228.236995 180.497648 
L 228.619623 181.352823 
L 229.38488 183.633702 
L 229.767509 186.951611 
L 230.150138 186.416216 
L 230.532766 189.38023 
L 231.298023 191.946233 
L 231.680652 194.581903 
L 232.445909 196.27683 
L 232.828538 198.665272 
L 233.211166 199.14099 
L 233.593795 200.449626 
L 233.976423 201.311401 
L 234.359052 203.52425 
L 235.124309 204.047407 
L 235.506938 207.424864 
L 235.889566 207.211801 
L 236.272195 208.740386 
L 236.654823 209.439078 
L 237.42008 212.100622 
L 237.802709 211.900567 
L 238.185338 212.082378 
L 238.567966 212.69811 
L 239.333223 214.547925 
L 239.715852 214.288946 
L 240.09848 215.358807 
L 240.481109 215.549302 
L 240.863738 215.279821 
L 241.628995 215.981245 
L 242.011623 215.901888 
L 242.77688 215.098618 
L 243.159509 215.405269 
L 243.542138 215.312345 
L 243.924766 213.804393 
L 244.690023 212.861524 
L 245.072652 211.619078 
L 245.45528 212.634256 
L 245.837909 210.802947 
L 246.220538 210.947572 
L 246.603166 209.259926 
L 246.985795 209.053901 
L 247.368423 207.778712 
L 247.751052 207.522518 
L 248.13368 204.498562 
L 248.516309 204.099968 
L 248.898938 203.14921 
L 249.664195 199.890067 
L 250.429452 196.633757 
L 250.81208 195.785399 
L 251.577338 192.641793 
L 251.959966 191.424019 
L 252.342595 189.089014 
L 252.725223 187.887905 
L 252.725223 187.887905 
" style="fill:none;stroke:#d62728;stroke-linecap:square;stroke-width:1.5;"/>
   </g>
   <g id="line2d_27">
    <defs>
     <path d="M 0 3 
C 0.795609 3 1.55874 2.683901 2.12132 2.12132 
C 2.683901 1.55874 3 0.795609 3 0 
C 3 -0.795609 2.683901 -1.55874 2.12132 -2.12132 
C 1.55874 -2.683901 0.795609 -3 0 -3 
C -0.795609 -3 -1.55874 -2.683901 -2.12132 -2.12132 
C -2.683901 -1.55874 -3 -0.795609 -3 0 
C -3 0.795609 -2.683901 1.55874 -2.12132 2.12132 
C -1.55874 2.683901 -0.795609 3 0 3 
z
" id="mcb2457e3ba" style="stroke:#1f77b4;"/>
    </defs>
    <g clip-path="url(#pcd39df9889)">
     <use style="fill:#1f77b4;stroke:#1f77b4;" x="61.410938" xlink:href="#mcb2457e3ba" y="296.95689"/>
     <use style="fill:#1f77b4;stroke:#1f77b4;" x="72.889795" xlink:href="#mcb2457e3ba" y="245.87025"/>
     <use style="fill:#1f77b4;stroke:#1f77b4;" x="84.368652" xlink:href="#mcb2457e3ba" y="140.565513"/>
     <use style="fill:#1f77b4;stroke:#1f77b4;" x="95.847509" xlink:href="#mcb2457e3ba" y="77.337665"/>
     <use style="fill:#1f77b4;stroke:#1f77b4;" x="107.326366" xlink:href="#mcb2457e3ba" y="88.281771"/>
     <use style="fill:#1f77b4;stroke:#1f77b4;" x="118.805223" xlink:href="#mcb2457e3ba" y="156.548608"/>
     <use style="fill:#1f77b4;stroke:#1f77b4;" x="130.28408" xlink:href="#mcb2457e3ba" y="242.590337"/>
     <use style="fill:#1f77b4;stroke:#1f77b4;" x="141.762938" xlink:href="#mcb2457e3ba" y="287.027543"/>
     <use style="fill:#1f77b4;stroke:#1f77b4;" x="153.241795" xlink:href="#mcb2457e3ba" y="238.756064"/>
     <use style="fill:#1f77b4;stroke:#1f77b4;" x="164.720652" xlink:href="#mcb2457e3ba" y="120.328982"/>
     <use style="fill:#1f77b4;stroke:#1f77b4;" x="176.199509" xlink:href="#mcb2457e3ba" y="65.44608"/>
     <use style="fill:#1f77b4;stroke:#1f77b4;" x="187.678366" xlink:href="#mcb2457e3ba" y="82.51462"/>
     <use style="fill:#1f77b4;stroke:#1f77b4;" x="199.157223" xlink:href="#mcb2457e3ba" y="155.889491"/>
     <use style="fill:#1f77b4;stroke:#1f77b4;" x="210.63608" xlink:href="#mcb2457e3ba" y="245.981092"/>
     <use style="fill:#1f77b4;stroke:#1f77b4;" x="222.114938" xlink:href="#mcb2457e3ba" y="273.185884"/>
     <use style="fill:#1f77b4;stroke:#1f77b4;" x="233.593795" xlink:href="#mcb2457e3ba" y="238.481334"/>
     <use style="fill:#1f77b4;stroke:#1f77b4;" x="245.072652" xlink:href="#mcb2457e3ba" y="142.31625"/>
     <use style="fill:#1f77b4;stroke:#1f77b4;" x="256.551509" xlink:href="#mcb2457e3ba" y="64.544081"/>
     <use style="fill:#1f77b4;stroke:#1f77b4;" x="268.030366" xlink:href="#mcb2457e3ba" y="88.89225"/>
     <use style="fill:#1f77b4;stroke:#1f77b4;" x="279.509223" xlink:href="#mcb2457e3ba" y="167.014639"/>
     <use style="fill:#1f77b4;stroke:#1f77b4;" x="290.98808" xlink:href="#mcb2457e3ba" y="241.750573"/>
     <use style="fill:#1f77b4;stroke:#1f77b4;" x="302.466938" xlink:href="#mcb2457e3ba" y="266.592364"/>
     <use style="fill:#1f77b4;stroke:#1f77b4;" x="313.945795" xlink:href="#mcb2457e3ba" y="227.17641"/>
     <use style="fill:#1f77b4;stroke:#1f77b4;" x="325.424652" xlink:href="#mcb2457e3ba" y="140.823635"/>
     <use style="fill:#1f77b4;stroke:#1f77b4;" x="336.903509" xlink:href="#mcb2457e3ba" y="62.189759"/>
     <use style="fill:#1f77b4;stroke:#1f77b4;" x="348.382366" xlink:href="#mcb2457e3ba" y="83.668977"/>
     <use style="fill:#1f77b4;stroke:#1f77b4;" x="359.861223" xlink:href="#mcb2457e3ba" y="158.245489"/>
     <use style="fill:#1f77b4;stroke:#1f77b4;" x="371.34008" xlink:href="#mcb2457e3ba" y="231.02025"/>
     <use style="fill:#1f77b4;stroke:#1f77b4;" x="382.818938" xlink:href="#mcb2457e3ba" y="265.986129"/>
     <use style="fill:#1f77b4;stroke:#1f77b4;" x="394.297795" xlink:href="#mcb2457e3ba" y="218.800821"/>
     <use style="fill:#1f77b4;stroke:#1f77b4;" x="405.776652" xlink:href="#mcb2457e3ba" y="141.270212"/>
    </g>
   </g>
   <g id="line2d_28">
    <defs>
     <path d="M 0 3 
C 0.795609 3 1.55874 2.683901 2.12132 2.12132 
C 2.683901 1.55874 3 0.795609 3 0 
C 3 -0.795609 2.683901 -1.55874 2.12132 -2.12132 
C 1.55874 -2.683901 0.795609 -3 0 -3 
C -0.795609 -3 -1.55874 -2.683901 -2.12132 -2.12132 
C -2.683901 -1.55874 -3 -0.795609 -3 0 
C -3 0.795609 -2.683901 1.55874 -2.12132 2.12132 
C -1.55874 2.683901 -0.795609 3 0 3 
z
" id="m4d17eb6f4c" style="stroke:#d62728;"/>
    </defs>
    <g clip-path="url(#pcd39df9889)">
     <use style="fill:#d62728;stroke:#d62728;" x="61.410938" xlink:href="#m4d17eb6f4c" y="289.822418"/>
     <use style="fill:#d62728;stroke:#d62728;" x="72.889795" xlink:href="#m4d17eb6f4c" y="188.82249"/>
     <use style="fill:#d62728;stroke:#d62728;" x="84.368652" xlink:href="#m4d17eb6f4c" y="109.126666"/>
     <use style="fill:#d62728;stroke:#d62728;" x="95.847509" xlink:href="#m4d17eb6f4c" y="118.405814"/>
     <use style="fill:#d62728;stroke:#d62728;" x="107.326366" xlink:href="#m4d17eb6f4c" y="184.962404"/>
     <use style="fill:#d62728;stroke:#d62728;" x="118.805223" xlink:href="#m4d17eb6f4c" y="184.680057"/>
     <use style="fill:#d62728;stroke:#d62728;" x="130.28408" xlink:href="#m4d17eb6f4c" y="145.817724"/>
     <use style="fill:#d62728;stroke:#d62728;" x="141.762938" xlink:href="#m4d17eb6f4c" y="186.823327"/>
     <use style="fill:#d62728;stroke:#d62728;" x="153.241795" xlink:href="#m4d17eb6f4c" y="213.938736"/>
     <use style="fill:#d62728;stroke:#d62728;" x="164.720652" xlink:href="#m4d17eb6f4c" y="161.342996"/>
     <use style="fill:#d62728;stroke:#d62728;" x="176.199509" xlink:href="#m4d17eb6f4c" y="155.34465"/>
     <use style="fill:#d62728;stroke:#d62728;" x="187.678366" xlink:href="#m4d17eb6f4c" y="143.890031"/>
     <use style="fill:#d62728;stroke:#d62728;" x="199.157223" xlink:href="#m4d17eb6f4c" y="178.28464"/>
     <use style="fill:#d62728;stroke:#d62728;" x="210.63608" xlink:href="#m4d17eb6f4c" y="162.81859"/>
     <use style="fill:#d62728;stroke:#d62728;" x="222.114938" xlink:href="#m4d17eb6f4c" y="165.345173"/>
     <use style="fill:#d62728;stroke:#d62728;" x="233.593795" xlink:href="#m4d17eb6f4c" y="188.528173"/>
    </g>
   </g>
   <g id="patch_3">
    <path d="M 61.410938 297.54825 
L 61.410938 31.43625 
" style="fill:none;stroke:#000000;stroke-linecap:square;stroke-linejoin:miter;stroke-width:0.8;"/>
   </g>
   <g id="patch_4">
    <path d="M 418.530938 297.54825 
L 418.530938 31.43625 
" style="fill:none;stroke:#000000;stroke-linecap:square;stroke-linejoin:miter;stroke-width:0.8;"/>
   </g>
   <g id="patch_5">
    <path d="M 61.410938 297.54825 
L 418.530938 297.54825 
" style="fill:none;stroke:#000000;stroke-linecap:square;stroke-linejoin:miter;stroke-width:0.8;"/>
   </g>
   <g id="patch_6">
    <path d="M 61.410938 31.43625 
L 418.530938 31.43625 
" style="fill:none;stroke:#000000;stroke-linecap:square;stroke-linejoin:miter;stroke-width:0.8;"/>
   </g>
   <g id="text_15">
    <!-- (D) -->
    <defs>
     <path d="M 19.671875 64.796875 
L 19.671875 8.109375 
L 31.59375 8.109375 
Q 46.6875 8.109375 53.6875 14.9375 
Q 60.6875 21.78125 60.6875 36.53125 
Q 60.6875 51.171875 53.6875 57.984375 
Q 46.6875 64.796875 31.59375 64.796875 
z
M 9.8125 72.90625 
L 30.078125 72.90625 
Q 51.265625 72.90625 61.171875 64.09375 
Q 71.09375 55.28125 71.09375 36.53125 
Q 71.09375 17.671875 61.125 8.828125 
Q 51.171875 0 30.078125 0 
L 9.8125 0 
z
" id="DejaVuSans-44"/>
    </defs>
    <g transform="translate(380.26808 58.04745)scale(0.2 -0.2)">
     <use xlink:href="#DejaVuSans-28"/>
     <use x="39.013672" xlink:href="#DejaVuSans-44"/>
     <use x="116.015625" xlink:href="#DejaVuSans-29"/>
    </g>
   </g>
   <g id="text_16">
    <!-- X heating -->
    <defs>
     <path d="M 6.296875 72.90625 
L 16.890625 72.90625 
L 35.015625 45.796875 
L 53.21875 72.90625 
L 63.8125 72.90625 
L 40.375 37.890625 
L 65.375 0 
L 54.78125 0 
L 34.28125 31 
L 13.625 0 
L 2.984375 0 
L 29 38.921875 
z
" id="DejaVuSans-58"/>
     <path d="M 54.890625 33.015625 
L 54.890625 0 
L 45.90625 0 
L 45.90625 32.71875 
Q 45.90625 40.484375 42.875 44.328125 
Q 39.84375 48.1875 33.796875 48.1875 
Q 26.515625 48.1875 22.3125 43.546875 
Q 18.109375 38.921875 18.109375 30.90625 
L 18.109375 0 
L 9.078125 0 
L 9.078125 75.984375 
L 18.109375 75.984375 
L 18.109375 46.1875 
Q 21.34375 51.125 25.703125 53.5625 
Q 30.078125 56 35.796875 56 
Q 45.21875 56 50.046875 50.171875 
Q 54.890625 44.34375 54.890625 33.015625 
z
" id="DejaVuSans-68"/>
     <path d="M 18.3125 70.21875 
L 18.3125 54.6875 
L 36.8125 54.6875 
L 36.8125 47.703125 
L 18.3125 47.703125 
L 18.3125 18.015625 
Q 18.3125 11.328125 20.140625 9.421875 
Q 21.96875 7.515625 27.59375 7.515625 
L 36.8125 7.515625 
L 36.8125 0 
L 27.59375 0 
Q 17.1875 0 13.234375 3.875 
Q 9.28125 7.765625 9.28125 18.015625 
L 9.28125 47.703125 
L 2.6875 47.703125 
L 2.6875 54.6875 
L 9.28125 54.6875 
L 9.28125 70.21875 
z
" id="DejaVuSans-74"/>
     <path d="M 54.890625 33.015625 
L 54.890625 0 
L 45.90625 0 
L 45.90625 32.71875 
Q 45.90625 40.484375 42.875 44.328125 
Q 39.84375 48.1875 33.796875 48.1875 
Q 26.515625 48.1875 22.3125 43.546875 
Q 18.109375 38.921875 18.109375 30.90625 
L 18.109375 0 
L 9.078125 0 
L 9.078125 54.6875 
L 18.109375 54.6875 
L 18.109375 46.1875 
Q 21.34375 51.125 25.703125 53.5625 
Q 30.078125 56 35.796875 56 
Q 45.21875 56 50.046875 50.171875 
Q 54.890625 44.34375 54.890625 33.015625 
z
" id="DejaVuSans-6e"/>
     <path d="M 45.40625 27.984375 
Q 45.40625 37.75 41.375 43.109375 
Q 37.359375 48.484375 30.078125 48.484375 
Q 22.859375 48.484375 18.828125 43.109375 
Q 14.796875 37.75 14.796875 27.984375 
Q 14.796875 18.265625 18.828125 12.890625 
Q 22.859375 7.515625 30.078125 7.515625 
Q 37.359375 7.515625 41.375 12.890625 
Q 45.40625 18.265625 45.40625 27.984375 
z
M 54.390625 6.78125 
Q 54.390625 -7.171875 48.1875 -13.984375 
Q 42 -20.796875 29.203125 -20.796875 
Q 24.46875 -20.796875 20.265625 -20.09375 
Q 16.0625 -19.390625 12.109375 -17.921875 
L 12.109375 -9.1875 
Q 16.0625 -11.328125 19.921875 -12.34375 
Q 23.78125 -13.375 27.78125 -13.375 
Q 36.625 -13.375 41.015625 -8.765625 
Q 45.40625 -4.15625 45.40625 5.171875 
L 45.40625 9.625 
Q 42.625 4.78125 38.28125 2.390625 
Q 33.9375 0 27.875 0 
Q 17.828125 0 11.671875 7.65625 
Q 5.515625 15.328125 5.515625 27.984375 
Q 5.515625 40.671875 11.671875 48.328125 
Q 17.828125 56 27.875 56 
Q 33.9375 56 38.28125 53.609375 
Q 42.625 51.21875 45.40625 46.390625 
L 45.40625 54.6875 
L 54.390625 54.6875 
z
" id="DejaVuSans-67"/>
    </defs>
    <g transform="translate(182.333438 25.43625)scale(0.24 -0.24)">
     <use xlink:href="#DejaVuSans-58"/>
     <use x="68.505859" xlink:href="#DejaVuSans-20"/>
     <use x="100.292969" xlink:href="#DejaVuSans-68"/>
     <use x="163.671875" xlink:href="#DejaVuSans-65"/>
     <use x="225.195312" xlink:href="#DejaVuSans-61"/>
     <use x="286.474609" xlink:href="#DejaVuSans-74"/>
     <use x="325.683594" xlink:href="#DejaVuSans-69"/>
     <use x="353.466797" xlink:href="#DejaVuSans-6e"/>
     <use x="416.845703" xlink:href="#DejaVuSans-67"/>
    </g>
   </g>
   <g id="legend_1">
    <g id="patch_7">
     <path d="M 296.074687 196.8485 
L 404.530937 196.8485 
Q 408.530937 196.8485 408.530937 192.8485 
L 408.530937 136.136 
Q 408.530937 132.136 404.530937 132.136 
L 296.074687 132.136 
Q 292.074687 132.136 292.074687 136.136 
L 292.074687 192.8485 
Q 292.074687 196.8485 296.074687 196.8485 
z
" style="fill:#ffffff;opacity:0.8;stroke:#cccccc;stroke-linejoin:miter;"/>
    </g>
    <g id="LineCollection_3">
     <path d="M 320.074687 158.332875 
L 320.074687 138.332875 
" style="fill:none;stroke:#1f77b4;stroke-width:1.5;"/>
    </g>
    <g id="line2d_29"/>
    <g id="line2d_30">
     <g>
      <use style="fill:#1f77b4;stroke:#1f77b4;" x="320.074687" xlink:href="#mcb2457e3ba" y="148.332875"/>
     </g>
    </g>
    <g id="text_17">
     <!-- Cold -->
     <defs>
      <path d="M 64.40625 67.28125 
L 64.40625 56.890625 
Q 59.421875 61.53125 53.78125 63.8125 
Q 48.140625 66.109375 41.796875 66.109375 
Q 29.296875 66.109375 22.65625 58.46875 
Q 16.015625 50.828125 16.015625 36.375 
Q 16.015625 21.96875 22.65625 14.328125 
Q 29.296875 6.6875 41.796875 6.6875 
Q 48.140625 6.6875 53.78125 8.984375 
Q 59.421875 11.28125 64.40625 15.921875 
L 64.40625 5.609375 
Q 59.234375 2.09375 53.4375 0.328125 
Q 47.65625 -1.421875 41.21875 -1.421875 
Q 24.65625 -1.421875 15.125 8.703125 
Q 5.609375 18.84375 5.609375 36.375 
Q 5.609375 53.953125 15.125 64.078125 
Q 24.65625 74.21875 41.21875 74.21875 
Q 47.75 74.21875 53.53125 72.484375 
Q 59.328125 70.75 64.40625 67.28125 
z
" id="DejaVuSans-43"/>
      <path d="M 30.609375 48.390625 
Q 23.390625 48.390625 19.1875 42.75 
Q 14.984375 37.109375 14.984375 27.296875 
Q 14.984375 17.484375 19.15625 11.84375 
Q 23.34375 6.203125 30.609375 6.203125 
Q 37.796875 6.203125 41.984375 11.859375 
Q 46.1875 17.53125 46.1875 27.296875 
Q 46.1875 37.015625 41.984375 42.703125 
Q 37.796875 48.390625 30.609375 48.390625 
z
M 30.609375 56 
Q 42.328125 56 49.015625 48.375 
Q 55.71875 40.765625 55.71875 27.296875 
Q 55.71875 13.875 49.015625 6.21875 
Q 42.328125 -1.421875 30.609375 -1.421875 
Q 18.84375 -1.421875 12.171875 6.21875 
Q 5.515625 13.875 5.515625 27.296875 
Q 5.515625 40.765625 12.171875 48.375 
Q 18.84375 56 30.609375 56 
z
" id="DejaVuSans-6f"/>
      <path d="M 45.40625 46.390625 
L 45.40625 75.984375 
L 54.390625 75.984375 
L 54.390625 0 
L 45.40625 0 
L 45.40625 8.203125 
Q 42.578125 3.328125 38.25 0.953125 
Q 33.9375 -1.421875 27.875 -1.421875 
Q 17.96875 -1.421875 11.734375 6.484375 
Q 5.515625 14.40625 5.515625 27.296875 
Q 5.515625 40.1875 11.734375 48.09375 
Q 17.96875 56 27.875 56 
Q 33.9375 56 38.25 53.625 
Q 42.578125 51.265625 45.40625 46.390625 
z
M 14.796875 27.296875 
Q 14.796875 17.390625 18.875 11.75 
Q 22.953125 6.109375 30.078125 6.109375 
Q 37.203125 6.109375 41.296875 11.75 
Q 45.40625 17.390625 45.40625 27.296875 
Q 45.40625 37.203125 41.296875 42.84375 
Q 37.203125 48.484375 30.078125 48.484375 
Q 22.953125 48.484375 18.875 42.84375 
Q 14.796875 37.203125 14.796875 27.296875 
z
" id="DejaVuSans-64"/>
     </defs>
     <g transform="translate(356.074687 155.332875)scale(0.2 -0.2)">
      <use xlink:href="#DejaVuSans-43"/>
      <use x="69.824219" xlink:href="#DejaVuSans-6f"/>
      <use x="131.005859" xlink:href="#DejaVuSans-6c"/>
      <use x="158.789062" xlink:href="#DejaVuSans-64"/>
     </g>
    </g>
    <g id="LineCollection_4">
     <path d="M 320.074687 187.689125 
L 320.074687 167.689125 
" style="fill:none;stroke:#d62728;stroke-width:1.5;"/>
    </g>
    <g id="line2d_31"/>
    <g id="line2d_32">
     <g>
      <use style="fill:#d62728;stroke:#d62728;" x="320.074687" xlink:href="#m4d17eb6f4c" y="177.689125"/>
     </g>
    </g>
    <g id="text_18">
     <!-- Hot -->
     <defs>
      <path d="M 9.8125 72.90625 
L 19.671875 72.90625 
L 19.671875 43.015625 
L 55.515625 43.015625 
L 55.515625 72.90625 
L 65.375 72.90625 
L 65.375 0 
L 55.515625 0 
L 55.515625 34.71875 
L 19.671875 34.71875 
L 19.671875 0 
L 9.8125 0 
z
" id="DejaVuSans-48"/>
     </defs>
     <g transform="translate(356.074687 184.689125)scale(0.2 -0.2)">
      <use xlink:href="#DejaVuSans-48"/>
      <use x="75.195312" xlink:href="#DejaVuSans-6f"/>
      <use x="136.376953" xlink:href="#DejaVuSans-74"/>
     </g>
    </g>
   </g>
  </g>
 </g>
 <defs>
  <clipPath id="pcd39df9889">
   <rect height="266.112" width="357.12" x="61.410938" y="31.43625"/>
  </clipPath>
 </defs>
</svg>
