<?xml version="1.0" encoding="utf-8" standalone="no"?>
<!DOCTYPE svg PUBLIC "-//W3C//DTD SVG 1.1//EN"
  "http://www.w3.org/Graphics/SVG/1.1/DTD/svg11.dtd">
<!-- Created with matplotlib (http://matplotlib.org/) -->
<svg height="331pt" version="1.1" viewBox="0 0 429 331" width="429pt" xmlns="http://www.w3.org/2000/svg" xmlns:xlink="http://www.w3.org/1999/xlink">
 <defs>
  <style type="text/css">
*{stroke-linecap:butt;stroke-linejoin:round;}
  </style>
 </defs>
 <g id="figure_1">
  <g id="patch_1">
   <path d="M 0 331.128016 
L 429.230937 331.128016 
L 429.230937 0 
L 0 0 
z
" style="fill:none;"/>
  </g>
  <g id="axes_1">
   <g id="patch_2">
    <path d="M 61.410938 279.010828 
L 418.530938 279.010828 
L 418.530938 12.898828 
L 61.410938 12.898828 
z
" style="fill:none;"/>
   </g>
   <g id="matplotlib.axis_1">
    <g id="xtick_1">
     <g id="line2d_1">
      <path clip-path="url(#p1da729468f)" d="M 61.410938 279.010828 
L 61.410938 12.898828 
" style="fill:none;stroke:#b0b0b0;stroke-linecap:square;stroke-width:0.8;"/>
     </g>
     <g id="line2d_2">
      <defs>
       <path d="M 0 0 
L 0 3.5 
" id="m005f0a59be" style="stroke:#000000;stroke-width:0.8;"/>
      </defs>
      <g>
       <use style="stroke:#000000;stroke-width:0.8;" x="61.410938" xlink:href="#m005f0a59be" y="279.010828"/>
      </g>
     </g>
     <g id="text_1">
      <!-- 0 -->
      <defs>
       <path d="M 31.78125 66.40625 
Q 24.171875 66.40625 20.328125 58.90625 
Q 16.5 51.421875 16.5 36.375 
Q 16.5 21.390625 20.328125 13.890625 
Q 24.171875 6.390625 31.78125 6.390625 
Q 39.453125 6.390625 43.28125 13.890625 
Q 47.125 21.390625 47.125 36.375 
Q 47.125 51.421875 43.28125 58.90625 
Q 39.453125 66.40625 31.78125 66.40625 
z
M 31.78125 74.21875 
Q 44.046875 74.21875 50.515625 64.515625 
Q 56.984375 54.828125 56.984375 36.375 
Q 56.984375 17.96875 50.515625 8.265625 
Q 44.046875 -1.421875 31.78125 -1.421875 
Q 19.53125 -1.421875 13.0625 8.265625 
Q 6.59375 17.96875 6.59375 36.375 
Q 6.59375 54.828125 13.0625 64.515625 
Q 19.53125 74.21875 31.78125 74.21875 
z
" id="DejaVuSans-30"/>
      </defs>
      <g transform="translate(56.639063 297.408484)scale(0.15 -0.15)">
       <use xlink:href="#DejaVuSans-30"/>
      </g>
     </g>
    </g>
    <g id="xtick_2">
     <g id="line2d_3">
      <path clip-path="url(#p1da729468f)" d="M 123.410938 279.010828 
L 123.410938 12.898828 
" style="fill:none;stroke:#b0b0b0;stroke-linecap:square;stroke-width:0.8;"/>
     </g>
     <g id="line2d_4">
      <g>
       <use style="stroke:#000000;stroke-width:0.8;" x="123.410938" xlink:href="#m005f0a59be" y="279.010828"/>
      </g>
     </g>
     <g id="text_2">
      <!-- 25 -->
      <defs>
       <path d="M 19.1875 8.296875 
L 53.609375 8.296875 
L 53.609375 0 
L 7.328125 0 
L 7.328125 8.296875 
Q 12.9375 14.109375 22.625 23.890625 
Q 32.328125 33.6875 34.8125 36.53125 
Q 39.546875 41.84375 41.421875 45.53125 
Q 43.3125 49.21875 43.3125 52.78125 
Q 43.3125 58.59375 39.234375 62.25 
Q 35.15625 65.921875 28.609375 65.921875 
Q 23.96875 65.921875 18.8125 64.3125 
Q 13.671875 62.703125 7.8125 59.421875 
L 7.8125 69.390625 
Q 13.765625 71.78125 18.9375 73 
Q 24.125 74.21875 28.421875 74.21875 
Q 39.75 74.21875 46.484375 68.546875 
Q 53.21875 62.890625 53.21875 53.421875 
Q 53.21875 48.921875 51.53125 44.890625 
Q 49.859375 40.875 45.40625 35.40625 
Q 44.1875 33.984375 37.640625 27.21875 
Q 31.109375 20.453125 19.1875 8.296875 
z
" id="DejaVuSans-32"/>
       <path d="M 10.796875 72.90625 
L 49.515625 72.90625 
L 49.515625 64.59375 
L 19.828125 64.59375 
L 19.828125 46.734375 
Q 21.96875 47.46875 24.109375 47.828125 
Q 26.265625 48.1875 28.421875 48.1875 
Q 40.625 48.1875 47.75 41.5 
Q 54.890625 34.8125 54.890625 23.390625 
Q 54.890625 11.625 47.5625 5.09375 
Q 40.234375 -1.421875 26.90625 -1.421875 
Q 22.3125 -1.421875 17.546875 -0.640625 
Q 12.796875 0.140625 7.71875 1.703125 
L 7.71875 11.625 
Q 12.109375 9.234375 16.796875 8.0625 
Q 21.484375 6.890625 26.703125 6.890625 
Q 35.15625 6.890625 40.078125 11.328125 
Q 45.015625 15.765625 45.015625 23.390625 
Q 45.015625 31 40.078125 35.4375 
Q 35.15625 39.890625 26.703125 39.890625 
Q 22.75 39.890625 18.8125 39.015625 
Q 14.890625 38.140625 10.796875 36.28125 
z
" id="DejaVuSans-35"/>
      </defs>
      <g transform="translate(113.867188 297.408484)scale(0.15 -0.15)">
       <use xlink:href="#DejaVuSans-32"/>
       <use x="63.623047" xlink:href="#DejaVuSans-35"/>
      </g>
     </g>
    </g>
    <g id="xtick_3">
     <g id="line2d_5">
      <path clip-path="url(#p1da729468f)" d="M 185.410938 279.010828 
L 185.410938 12.898828 
" style="fill:none;stroke:#b0b0b0;stroke-linecap:square;stroke-width:0.8;"/>
     </g>
     <g id="line2d_6">
      <g>
       <use style="stroke:#000000;stroke-width:0.8;" x="185.410938" xlink:href="#m005f0a59be" y="279.010828"/>
      </g>
     </g>
     <g id="text_3">
      <!-- 50 -->
      <g transform="translate(175.867188 297.408484)scale(0.15 -0.15)">
       <use xlink:href="#DejaVuSans-35"/>
       <use x="63.623047" xlink:href="#DejaVuSans-30"/>
      </g>
     </g>
    </g>
    <g id="xtick_4">
     <g id="line2d_7">
      <path clip-path="url(#p1da729468f)" d="M 247.410938 279.010828 
L 247.410938 12.898828 
" style="fill:none;stroke:#b0b0b0;stroke-linecap:square;stroke-width:0.8;"/>
     </g>
     <g id="line2d_8">
      <g>
       <use style="stroke:#000000;stroke-width:0.8;" x="247.410938" xlink:href="#m005f0a59be" y="279.010828"/>
      </g>
     </g>
     <g id="text_4">
      <!-- 75 -->
      <defs>
       <path d="M 8.203125 72.90625 
L 55.078125 72.90625 
L 55.078125 68.703125 
L 28.609375 0 
L 18.3125 0 
L 43.21875 64.59375 
L 8.203125 64.59375 
z
" id="DejaVuSans-37"/>
      </defs>
      <g transform="translate(237.867188 297.408484)scale(0.15 -0.15)">
       <use xlink:href="#DejaVuSans-37"/>
       <use x="63.623047" xlink:href="#DejaVuSans-35"/>
      </g>
     </g>
    </g>
    <g id="xtick_5">
     <g id="line2d_9">
      <path clip-path="url(#p1da729468f)" d="M 309.410938 279.010828 
L 309.410938 12.898828 
" style="fill:none;stroke:#b0b0b0;stroke-linecap:square;stroke-width:0.8;"/>
     </g>
     <g id="line2d_10">
      <g>
       <use style="stroke:#000000;stroke-width:0.8;" x="309.410938" xlink:href="#m005f0a59be" y="279.010828"/>
      </g>
     </g>
     <g id="text_5">
      <!-- 100 -->
      <defs>
       <path d="M 12.40625 8.296875 
L 28.515625 8.296875 
L 28.515625 63.921875 
L 10.984375 60.40625 
L 10.984375 69.390625 
L 28.421875 72.90625 
L 38.28125 72.90625 
L 38.28125 8.296875 
L 54.390625 8.296875 
L 54.390625 0 
L 12.40625 0 
z
" id="DejaVuSans-31"/>
      </defs>
      <g transform="translate(295.095313 297.408484)scale(0.15 -0.15)">
       <use xlink:href="#DejaVuSans-31"/>
       <use x="63.623047" xlink:href="#DejaVuSans-30"/>
       <use x="127.246094" xlink:href="#DejaVuSans-30"/>
      </g>
     </g>
    </g>
    <g id="xtick_6">
     <g id="line2d_11">
      <path clip-path="url(#p1da729468f)" d="M 371.410938 279.010828 
L 371.410938 12.898828 
" style="fill:none;stroke:#b0b0b0;stroke-linecap:square;stroke-width:0.8;"/>
     </g>
     <g id="line2d_12">
      <g>
       <use style="stroke:#000000;stroke-width:0.8;" x="371.410938" xlink:href="#m005f0a59be" y="279.010828"/>
      </g>
     </g>
     <g id="text_6">
      <!-- 125 -->
      <g transform="translate(357.095313 297.408484)scale(0.15 -0.15)">
       <use xlink:href="#DejaVuSans-31"/>
       <use x="63.623047" xlink:href="#DejaVuSans-32"/>
       <use x="127.246094" xlink:href="#DejaVuSans-35"/>
      </g>
     </g>
    </g>
    <g id="text_7">
     <!-- Time ($\mu s$) -->
     <defs>
      <path d="M -0.296875 72.90625 
L 61.375 72.90625 
L 61.375 64.59375 
L 35.5 64.59375 
L 35.5 0 
L 25.59375 0 
L 25.59375 64.59375 
L -0.296875 64.59375 
z
" id="DejaVuSans-54"/>
      <path d="M 9.421875 54.6875 
L 18.40625 54.6875 
L 18.40625 0 
L 9.421875 0 
z
M 9.421875 75.984375 
L 18.40625 75.984375 
L 18.40625 64.59375 
L 9.421875 64.59375 
z
" id="DejaVuSans-69"/>
      <path d="M 52 44.1875 
Q 55.375 50.25 60.0625 53.125 
Q 64.75 56 71.09375 56 
Q 79.640625 56 84.28125 50.015625 
Q 88.921875 44.046875 88.921875 33.015625 
L 88.921875 0 
L 79.890625 0 
L 79.890625 32.71875 
Q 79.890625 40.578125 77.09375 44.375 
Q 74.3125 48.1875 68.609375 48.1875 
Q 61.625 48.1875 57.5625 43.546875 
Q 53.515625 38.921875 53.515625 30.90625 
L 53.515625 0 
L 44.484375 0 
L 44.484375 32.71875 
Q 44.484375 40.625 41.703125 44.40625 
Q 38.921875 48.1875 33.109375 48.1875 
Q 26.21875 48.1875 22.15625 43.53125 
Q 18.109375 38.875 18.109375 30.90625 
L 18.109375 0 
L 9.078125 0 
L 9.078125 54.6875 
L 18.109375 54.6875 
L 18.109375 46.1875 
Q 21.1875 51.21875 25.484375 53.609375 
Q 29.78125 56 35.6875 56 
Q 41.65625 56 45.828125 52.96875 
Q 50 49.953125 52 44.1875 
z
" id="DejaVuSans-6d"/>
      <path d="M 56.203125 29.59375 
L 56.203125 25.203125 
L 14.890625 25.203125 
Q 15.484375 15.921875 20.484375 11.0625 
Q 25.484375 6.203125 34.421875 6.203125 
Q 39.59375 6.203125 44.453125 7.46875 
Q 49.3125 8.734375 54.109375 11.28125 
L 54.109375 2.78125 
Q 49.265625 0.734375 44.1875 -0.34375 
Q 39.109375 -1.421875 33.890625 -1.421875 
Q 20.796875 -1.421875 13.15625 6.1875 
Q 5.515625 13.8125 5.515625 26.8125 
Q 5.515625 40.234375 12.765625 48.109375 
Q 20.015625 56 32.328125 56 
Q 43.359375 56 49.78125 48.890625 
Q 56.203125 41.796875 56.203125 29.59375 
z
M 47.21875 32.234375 
Q 47.125 39.59375 43.09375 43.984375 
Q 39.0625 48.390625 32.421875 48.390625 
Q 24.90625 48.390625 20.390625 44.140625 
Q 15.875 39.890625 15.1875 32.171875 
z
" id="DejaVuSans-65"/>
      <path id="DejaVuSans-20"/>
      <path d="M 31 75.875 
Q 24.46875 64.65625 21.28125 53.65625 
Q 18.109375 42.671875 18.109375 31.390625 
Q 18.109375 20.125 21.3125 9.0625 
Q 24.515625 -2 31 -13.1875 
L 23.1875 -13.1875 
Q 15.875 -1.703125 12.234375 9.375 
Q 8.59375 20.453125 8.59375 31.390625 
Q 8.59375 42.28125 12.203125 53.3125 
Q 15.828125 64.359375 23.1875 75.875 
z
" id="DejaVuSans-28"/>
      <path d="M -1.3125 -20.796875 
L 13.375 54.6875 
L 22.40625 54.6875 
L 15.765625 20.65625 
Q 15.578125 19.625 15.421875 18.359375 
Q 15.28125 17.09375 15.28125 15.828125 
Q 15.28125 11.28125 18.140625 8.828125 
Q 21 6.390625 26.3125 6.390625 
Q 33.546875 6.390625 37.984375 10.484375 
Q 42.4375 14.59375 44 22.796875 
L 50.203125 54.6875 
L 59.1875 54.6875 
L 51.03125 12.640625 
Q 50.828125 11.71875 50.75 11.03125 
Q 50.6875 10.359375 50.6875 9.8125 
Q 50.6875 8.296875 51.296875 7.59375 
Q 51.90625 6.890625 53.21875 6.890625 
Q 53.71875 6.890625 54.5625 7.125 
Q 55.421875 7.375 56.984375 8.015625 
L 55.609375 0.78125 
Q 53.46875 -0.296875 51.515625 -0.859375 
Q 49.5625 -1.421875 47.703125 -1.421875 
Q 44.484375 -1.421875 42.65625 0.625 
Q 40.828125 2.6875 40.828125 6.296875 
Q 38.09375 2.390625 34.296875 0.484375 
Q 30.515625 -1.421875 25.390625 -1.421875 
Q 20.84375 -1.421875 17.453125 0.671875 
Q 14.0625 2.78125 12.984375 6.203125 
L 7.71875 -20.796875 
z
" id="DejaVuSans-Oblique-3bc"/>
      <path d="M 50 53.078125 
L 48.296875 44.578125 
Q 44.734375 46.53125 40.765625 47.5 
Q 36.8125 48.484375 32.625 48.484375 
Q 25.53125 48.484375 21.453125 46.0625 
Q 17.390625 43.65625 17.390625 39.5 
Q 17.390625 34.671875 26.859375 32.078125 
Q 27.59375 31.890625 27.9375 31.78125 
L 30.8125 30.90625 
Q 39.796875 28.421875 42.796875 25.6875 
Q 45.796875 22.953125 45.796875 18.21875 
Q 45.796875 9.515625 38.890625 4.046875 
Q 31.984375 -1.421875 20.796875 -1.421875 
Q 16.453125 -1.421875 11.671875 -0.578125 
Q 6.890625 0.25 1.125 2 
L 2.875 11.28125 
Q 7.8125 8.734375 12.59375 7.421875 
Q 17.390625 6.109375 21.78125 6.109375 
Q 28.375 6.109375 32.5 8.9375 
Q 36.625 11.765625 36.625 16.109375 
Q 36.625 20.796875 25.78125 23.6875 
L 24.859375 23.921875 
L 21.78125 24.703125 
Q 14.9375 26.515625 11.765625 29.46875 
Q 8.59375 32.421875 8.59375 37.015625 
Q 8.59375 45.75 15.15625 50.875 
Q 21.734375 56 33.015625 56 
Q 37.453125 56 41.671875 55.265625 
Q 45.90625 54.546875 50 53.078125 
z
" id="DejaVuSans-Oblique-73"/>
      <path d="M 8.015625 75.875 
L 15.828125 75.875 
Q 23.140625 64.359375 26.78125 53.3125 
Q 30.421875 42.28125 30.421875 31.390625 
Q 30.421875 20.453125 26.78125 9.375 
Q 23.140625 -1.703125 15.828125 -13.1875 
L 8.015625 -13.1875 
Q 14.5 -2 17.703125 9.0625 
Q 20.90625 20.125 20.90625 31.390625 
Q 20.90625 42.671875 17.703125 53.65625 
Q 14.5 64.65625 8.015625 75.875 
z
" id="DejaVuSans-29"/>
     </defs>
     <g transform="translate(192.570938 319.728016)scale(0.2 -0.2)">
      <use transform="translate(0 0.015625)" xlink:href="#DejaVuSans-54"/>
      <use transform="translate(61.083984 0.015625)" xlink:href="#DejaVuSans-69"/>
      <use transform="translate(88.867188 0.015625)" xlink:href="#DejaVuSans-6d"/>
      <use transform="translate(186.279297 0.015625)" xlink:href="#DejaVuSans-65"/>
      <use transform="translate(247.802734 0.015625)" xlink:href="#DejaVuSans-20"/>
      <use transform="translate(279.589844 0.015625)" xlink:href="#DejaVuSans-28"/>
      <use transform="translate(318.603516 0.015625)" xlink:href="#DejaVuSans-Oblique-3bc"/>
      <use transform="translate(382.226562 0.015625)" xlink:href="#DejaVuSans-Oblique-73"/>
      <use transform="translate(434.326172 0.015625)" xlink:href="#DejaVuSans-29"/>
     </g>
    </g>
   </g>
   <g id="matplotlib.axis_2">
    <g id="ytick_1">
     <g id="line2d_13">
      <path clip-path="url(#p1da729468f)" d="M 61.410938 279.010828 
L 418.530938 279.010828 
" style="fill:none;stroke:#b0b0b0;stroke-linecap:square;stroke-width:0.8;"/>
     </g>
     <g id="line2d_14">
      <defs>
       <path d="M 0 0 
L -3.5 0 
" id="mc3ce260a5b" style="stroke:#000000;stroke-width:0.8;"/>
      </defs>
      <g>
       <use style="stroke:#000000;stroke-width:0.8;" x="61.410938" xlink:href="#mc3ce260a5b" y="279.010828"/>
      </g>
     </g>
     <g id="text_8">
      <!-- 0.0 -->
      <defs>
       <path d="M 10.6875 12.40625 
L 21 12.40625 
L 21 0 
L 10.6875 0 
z
" id="DejaVuSans-2e"/>
      </defs>
      <g transform="translate(30.55625 284.709656)scale(0.15 -0.15)">
       <use xlink:href="#DejaVuSans-30"/>
       <use x="63.623047" xlink:href="#DejaVuSans-2e"/>
       <use x="95.410156" xlink:href="#DejaVuSans-30"/>
      </g>
     </g>
    </g>
    <g id="ytick_2">
     <g id="line2d_15">
      <path clip-path="url(#p1da729468f)" d="M 61.410938 225.788428 
L 418.530938 225.788428 
" style="fill:none;stroke:#b0b0b0;stroke-linecap:square;stroke-width:0.8;"/>
     </g>
     <g id="line2d_16">
      <g>
       <use style="stroke:#000000;stroke-width:0.8;" x="61.410938" xlink:href="#mc3ce260a5b" y="225.788428"/>
      </g>
     </g>
     <g id="text_9">
      <!-- 0.2 -->
      <g transform="translate(30.55625 231.487256)scale(0.15 -0.15)">
       <use xlink:href="#DejaVuSans-30"/>
       <use x="63.623047" xlink:href="#DejaVuSans-2e"/>
       <use x="95.410156" xlink:href="#DejaVuSans-32"/>
      </g>
     </g>
    </g>
    <g id="ytick_3">
     <g id="line2d_17">
      <path clip-path="url(#p1da729468f)" d="M 61.410938 172.566028 
L 418.530938 172.566028 
" style="fill:none;stroke:#b0b0b0;stroke-linecap:square;stroke-width:0.8;"/>
     </g>
     <g id="line2d_18">
      <g>
       <use style="stroke:#000000;stroke-width:0.8;" x="61.410938" xlink:href="#mc3ce260a5b" y="172.566028"/>
      </g>
     </g>
     <g id="text_10">
      <!-- 0.4 -->
      <defs>
       <path d="M 37.796875 64.3125 
L 12.890625 25.390625 
L 37.796875 25.390625 
z
M 35.203125 72.90625 
L 47.609375 72.90625 
L 47.609375 25.390625 
L 58.015625 25.390625 
L 58.015625 17.1875 
L 47.609375 17.1875 
L 47.609375 0 
L 37.796875 0 
L 37.796875 17.1875 
L 4.890625 17.1875 
L 4.890625 26.703125 
z
" id="DejaVuSans-34"/>
      </defs>
      <g transform="translate(30.55625 178.264856)scale(0.15 -0.15)">
       <use xlink:href="#DejaVuSans-30"/>
       <use x="63.623047" xlink:href="#DejaVuSans-2e"/>
       <use x="95.410156" xlink:href="#DejaVuSans-34"/>
      </g>
     </g>
    </g>
    <g id="ytick_4">
     <g id="line2d_19">
      <path clip-path="url(#p1da729468f)" d="M 61.410938 119.343628 
L 418.530938 119.343628 
" style="fill:none;stroke:#b0b0b0;stroke-linecap:square;stroke-width:0.8;"/>
     </g>
     <g id="line2d_20">
      <g>
       <use style="stroke:#000000;stroke-width:0.8;" x="61.410938" xlink:href="#mc3ce260a5b" y="119.343628"/>
      </g>
     </g>
     <g id="text_11">
      <!-- 0.6 -->
      <defs>
       <path d="M 33.015625 40.375 
Q 26.375 40.375 22.484375 35.828125 
Q 18.609375 31.296875 18.609375 23.390625 
Q 18.609375 15.53125 22.484375 10.953125 
Q 26.375 6.390625 33.015625 6.390625 
Q 39.65625 6.390625 43.53125 10.953125 
Q 47.40625 15.53125 47.40625 23.390625 
Q 47.40625 31.296875 43.53125 35.828125 
Q 39.65625 40.375 33.015625 40.375 
z
M 52.59375 71.296875 
L 52.59375 62.3125 
Q 48.875 64.0625 45.09375 64.984375 
Q 41.3125 65.921875 37.59375 65.921875 
Q 27.828125 65.921875 22.671875 59.328125 
Q 17.53125 52.734375 16.796875 39.40625 
Q 19.671875 43.65625 24.015625 45.921875 
Q 28.375 48.1875 33.59375 48.1875 
Q 44.578125 48.1875 50.953125 41.515625 
Q 57.328125 34.859375 57.328125 23.390625 
Q 57.328125 12.15625 50.6875 5.359375 
Q 44.046875 -1.421875 33.015625 -1.421875 
Q 20.359375 -1.421875 13.671875 8.265625 
Q 6.984375 17.96875 6.984375 36.375 
Q 6.984375 53.65625 15.1875 63.9375 
Q 23.390625 74.21875 37.203125 74.21875 
Q 40.921875 74.21875 44.703125 73.484375 
Q 48.484375 72.75 52.59375 71.296875 
z
" id="DejaVuSans-36"/>
      </defs>
      <g transform="translate(30.55625 125.042456)scale(0.15 -0.15)">
       <use xlink:href="#DejaVuSans-30"/>
       <use x="63.623047" xlink:href="#DejaVuSans-2e"/>
       <use x="95.410156" xlink:href="#DejaVuSans-36"/>
      </g>
     </g>
    </g>
    <g id="ytick_5">
     <g id="line2d_21">
      <path clip-path="url(#p1da729468f)" d="M 61.410938 66.121228 
L 418.530938 66.121228 
" style="fill:none;stroke:#b0b0b0;stroke-linecap:square;stroke-width:0.8;"/>
     </g>
     <g id="line2d_22">
      <g>
       <use style="stroke:#000000;stroke-width:0.8;" x="61.410938" xlink:href="#mc3ce260a5b" y="66.121228"/>
      </g>
     </g>
     <g id="text_12">
      <!-- 0.8 -->
      <defs>
       <path d="M 31.78125 34.625 
Q 24.75 34.625 20.71875 30.859375 
Q 16.703125 27.09375 16.703125 20.515625 
Q 16.703125 13.921875 20.71875 10.15625 
Q 24.75 6.390625 31.78125 6.390625 
Q 38.8125 6.390625 42.859375 10.171875 
Q 46.921875 13.96875 46.921875 20.515625 
Q 46.921875 27.09375 42.890625 30.859375 
Q 38.875 34.625 31.78125 34.625 
z
M 21.921875 38.8125 
Q 15.578125 40.375 12.03125 44.71875 
Q 8.5 49.078125 8.5 55.328125 
Q 8.5 64.0625 14.71875 69.140625 
Q 20.953125 74.21875 31.78125 74.21875 
Q 42.671875 74.21875 48.875 69.140625 
Q 55.078125 64.0625 55.078125 55.328125 
Q 55.078125 49.078125 51.53125 44.71875 
Q 48 40.375 41.703125 38.8125 
Q 48.828125 37.15625 52.796875 32.3125 
Q 56.78125 27.484375 56.78125 20.515625 
Q 56.78125 9.90625 50.3125 4.234375 
Q 43.84375 -1.421875 31.78125 -1.421875 
Q 19.734375 -1.421875 13.25 4.234375 
Q 6.78125 9.90625 6.78125 20.515625 
Q 6.78125 27.484375 10.78125 32.3125 
Q 14.796875 37.15625 21.921875 38.8125 
z
M 18.3125 54.390625 
Q 18.3125 48.734375 21.84375 45.5625 
Q 25.390625 42.390625 31.78125 42.390625 
Q 38.140625 42.390625 41.71875 45.5625 
Q 45.3125 48.734375 45.3125 54.390625 
Q 45.3125 60.0625 41.71875 63.234375 
Q 38.140625 66.40625 31.78125 66.40625 
Q 25.390625 66.40625 21.84375 63.234375 
Q 18.3125 60.0625 18.3125 54.390625 
z
" id="DejaVuSans-38"/>
      </defs>
      <g transform="translate(30.55625 71.820056)scale(0.15 -0.15)">
       <use xlink:href="#DejaVuSans-30"/>
       <use x="63.623047" xlink:href="#DejaVuSans-2e"/>
       <use x="95.410156" xlink:href="#DejaVuSans-38"/>
      </g>
     </g>
    </g>
    <g id="ytick_6">
     <g id="line2d_23">
      <path clip-path="url(#p1da729468f)" d="M 61.410938 12.898828 
L 418.530938 12.898828 
" style="fill:none;stroke:#b0b0b0;stroke-linecap:square;stroke-width:0.8;"/>
     </g>
     <g id="line2d_24">
      <g>
       <use style="stroke:#000000;stroke-width:0.8;" x="61.410938" xlink:href="#mc3ce260a5b" y="12.898828"/>
      </g>
     </g>
     <g id="text_13">
      <!-- 1.0 -->
      <g transform="translate(30.55625 18.597656)scale(0.15 -0.15)">
       <use xlink:href="#DejaVuSans-31"/>
       <use x="63.623047" xlink:href="#DejaVuSans-2e"/>
       <use x="95.410156" xlink:href="#DejaVuSans-30"/>
      </g>
     </g>
    </g>
    <g id="text_14">
     <!-- Survival -->
     <defs>
      <path d="M 53.515625 70.515625 
L 53.515625 60.890625 
Q 47.90625 63.578125 42.921875 64.890625 
Q 37.9375 66.21875 33.296875 66.21875 
Q 25.25 66.21875 20.875 63.09375 
Q 16.5 59.96875 16.5 54.203125 
Q 16.5 49.359375 19.40625 46.890625 
Q 22.3125 44.4375 30.421875 42.921875 
L 36.375 41.703125 
Q 47.40625 39.59375 52.65625 34.296875 
Q 57.90625 29 57.90625 20.125 
Q 57.90625 9.515625 50.796875 4.046875 
Q 43.703125 -1.421875 29.984375 -1.421875 
Q 24.8125 -1.421875 18.96875 -0.25 
Q 13.140625 0.921875 6.890625 3.21875 
L 6.890625 13.375 
Q 12.890625 10.015625 18.65625 8.296875 
Q 24.421875 6.59375 29.984375 6.59375 
Q 38.421875 6.59375 43.015625 9.90625 
Q 47.609375 13.234375 47.609375 19.390625 
Q 47.609375 24.75 44.3125 27.78125 
Q 41.015625 30.8125 33.5 32.328125 
L 27.484375 33.5 
Q 16.453125 35.6875 11.515625 40.375 
Q 6.59375 45.0625 6.59375 53.421875 
Q 6.59375 63.09375 13.40625 68.65625 
Q 20.21875 74.21875 32.171875 74.21875 
Q 37.3125 74.21875 42.625 73.28125 
Q 47.953125 72.359375 53.515625 70.515625 
z
" id="DejaVuSans-53"/>
      <path d="M 8.5 21.578125 
L 8.5 54.6875 
L 17.484375 54.6875 
L 17.484375 21.921875 
Q 17.484375 14.15625 20.5 10.265625 
Q 23.53125 6.390625 29.59375 6.390625 
Q 36.859375 6.390625 41.078125 11.03125 
Q 45.3125 15.671875 45.3125 23.6875 
L 45.3125 54.6875 
L 54.296875 54.6875 
L 54.296875 0 
L 45.3125 0 
L 45.3125 8.40625 
Q 42.046875 3.421875 37.71875 1 
Q 33.40625 -1.421875 27.6875 -1.421875 
Q 18.265625 -1.421875 13.375 4.4375 
Q 8.5 10.296875 8.5 21.578125 
z
M 31.109375 56 
z
" id="DejaVuSans-75"/>
      <path d="M 41.109375 46.296875 
Q 39.59375 47.171875 37.8125 47.578125 
Q 36.03125 48 33.890625 48 
Q 26.265625 48 22.1875 43.046875 
Q 18.109375 38.09375 18.109375 28.8125 
L 18.109375 0 
L 9.078125 0 
L 9.078125 54.6875 
L 18.109375 54.6875 
L 18.109375 46.1875 
Q 20.953125 51.171875 25.484375 53.578125 
Q 30.03125 56 36.53125 56 
Q 37.453125 56 38.578125 55.875 
Q 39.703125 55.765625 41.0625 55.515625 
z
" id="DejaVuSans-72"/>
      <path d="M 2.984375 54.6875 
L 12.5 54.6875 
L 29.59375 8.796875 
L 46.6875 54.6875 
L 56.203125 54.6875 
L 35.6875 0 
L 23.484375 0 
z
" id="DejaVuSans-76"/>
      <path d="M 34.28125 27.484375 
Q 23.390625 27.484375 19.1875 25 
Q 14.984375 22.515625 14.984375 16.5 
Q 14.984375 11.71875 18.140625 8.90625 
Q 21.296875 6.109375 26.703125 6.109375 
Q 34.1875 6.109375 38.703125 11.40625 
Q 43.21875 16.703125 43.21875 25.484375 
L 43.21875 27.484375 
z
M 52.203125 31.203125 
L 52.203125 0 
L 43.21875 0 
L 43.21875 8.296875 
Q 40.140625 3.328125 35.546875 0.953125 
Q 30.953125 -1.421875 24.3125 -1.421875 
Q 15.921875 -1.421875 10.953125 3.296875 
Q 6 8.015625 6 15.921875 
Q 6 25.140625 12.171875 29.828125 
Q 18.359375 34.515625 30.609375 34.515625 
L 43.21875 34.515625 
L 43.21875 35.40625 
Q 43.21875 41.609375 39.140625 45 
Q 35.0625 48.390625 27.6875 48.390625 
Q 23 48.390625 18.546875 47.265625 
Q 14.109375 46.140625 10.015625 43.890625 
L 10.015625 52.203125 
Q 14.9375 54.109375 19.578125 55.046875 
Q 24.21875 56 28.609375 56 
Q 40.484375 56 46.34375 49.84375 
Q 52.203125 43.703125 52.203125 31.203125 
z
" id="DejaVuSans-61"/>
      <path d="M 9.421875 75.984375 
L 18.40625 75.984375 
L 18.40625 0 
L 9.421875 0 
z
" id="DejaVuSans-6c"/>
     </defs>
     <g transform="translate(22.396875 186.273578)rotate(-90)scale(0.2 -0.2)">
      <use xlink:href="#DejaVuSans-53"/>
      <use x="63.476562" xlink:href="#DejaVuSans-75"/>
      <use x="126.855469" xlink:href="#DejaVuSans-72"/>
      <use x="167.96875" xlink:href="#DejaVuSans-76"/>
      <use x="227.148438" xlink:href="#DejaVuSans-69"/>
      <use x="254.931641" xlink:href="#DejaVuSans-76"/>
      <use x="314.111328" xlink:href="#DejaVuSans-61"/>
      <use x="375.390625" xlink:href="#DejaVuSans-6c"/>
     </g>
    </g>
   </g>
   <g id="LineCollection_1">
    <path clip-path="url(#p1da729468f)" d="M 61.410938 279.010828 
L 61.410938 277.828108 
" style="fill:none;stroke:#1f77b4;stroke-width:1.5;"/>
    <path clip-path="url(#p1da729468f)" d="M 70.090938 206.975733 
L 70.090938 190.665924 
" style="fill:none;stroke:#1f77b4;stroke-width:1.5;"/>
    <path clip-path="url(#p1da729468f)" d="M 78.770938 74.620388 
L 78.770938 60.880582 
" style="fill:none;stroke:#1f77b4;stroke-width:1.5;"/>
    <path clip-path="url(#p1da729468f)" d="M 87.450938 40.107283 
L 87.450938 30.243061 
" style="fill:none;stroke:#1f77b4;stroke-width:1.5;"/>
    <path clip-path="url(#p1da729468f)" d="M 96.130938 147.588579 
L 96.130938 129.468314 
" style="fill:none;stroke:#1f77b4;stroke-width:1.5;"/>
    <path clip-path="url(#p1da729468f)" d="M 104.810938 259.933109 
L 104.810938 249.811592 
" style="fill:none;stroke:#1f77b4;stroke-width:1.5;"/>
    <path clip-path="url(#p1da729468f)" d="M 113.490938 266.493926 
L 113.490938 257.636108 
" style="fill:none;stroke:#1f77b4;stroke-width:1.5;"/>
    <path clip-path="url(#p1da729468f)" d="M 122.170938 141.456265 
L 122.170938 124.071598 
" style="fill:none;stroke:#1f77b4;stroke-width:1.5;"/>
    <path clip-path="url(#p1da729468f)" d="M 130.850938 48.845379 
L 130.850938 37.936277 
" style="fill:none;stroke:#1f77b4;stroke-width:1.5;"/>
    <path clip-path="url(#p1da729468f)" d="M 139.530938 90.59395 
L 139.530938 74.535932 
" style="fill:none;stroke:#1f77b4;stroke-width:1.5;"/>
    <path clip-path="url(#p1da729468f)" d="M 148.210938 204.457803 
L 148.210938 187.848653 
" style="fill:none;stroke:#1f77b4;stroke-width:1.5;"/>
    <path clip-path="url(#p1da729468f)" d="M 156.890938 273.936234 
L 156.890938 268.370147 
" style="fill:none;stroke:#1f77b4;stroke-width:1.5;"/>
    <path clip-path="url(#p1da729468f)" d="M 165.570938 204.457803 
L 165.570938 187.848653 
" style="fill:none;stroke:#1f77b4;stroke-width:1.5;"/>
    <path clip-path="url(#p1da729468f)" d="M 174.250938 94.495261 
L 174.250938 78.166093 
" style="fill:none;stroke:#1f77b4;stroke-width:1.5;"/>
    <path clip-path="url(#p1da729468f)" d="M 182.930938 51.391687 
L 182.930938 40.09889 
" style="fill:none;stroke:#1f77b4;stroke-width:1.5;"/>
    <path clip-path="url(#p1da729468f)" d="M 191.610938 136.470504 
L 191.610938 118.937063 
" style="fill:none;stroke:#1f77b4;stroke-width:1.5;"/>
    <path clip-path="url(#p1da729468f)" d="M 200.290938 252.158504 
L 200.290938 240.523152 
" style="fill:none;stroke:#1f77b4;stroke-width:1.5;"/>
    <path clip-path="url(#p1da729468f)" d="M 208.970938 257.517525 
L 208.970938 246.528584 
" style="fill:none;stroke:#1f77b4;stroke-width:1.5;"/>
    <path clip-path="url(#p1da729468f)" d="M 217.650938 155.438917 
L 217.650938 137.658739 
" style="fill:none;stroke:#1f77b4;stroke-width:1.5;"/>
    <path clip-path="url(#p1da729468f)" d="M 226.330938 56.227129 
L 226.330938 44.127769 
" style="fill:none;stroke:#1f77b4;stroke-width:1.5;"/>
    <path clip-path="url(#p1da729468f)" d="M 235.010938 69.850812 
L 235.010938 55.88936 
" style="fill:none;stroke:#1f77b4;stroke-width:1.5;"/>
    <path clip-path="url(#p1da729468f)" d="M 243.690938 216.458353 
L 243.690938 200.819624 
" style="fill:none;stroke:#1f77b4;stroke-width:1.5;"/>
    <path clip-path="url(#p1da729468f)" d="M 252.370938 265.142639 
L 252.370938 256.214697 
" style="fill:none;stroke:#1f77b4;stroke-width:1.5;"/>
    <path clip-path="url(#p1da729468f)" d="M 261.050938 215.605602 
L 261.050938 199.94016 
" style="fill:none;stroke:#1f77b4;stroke-width:1.5;"/>
    <path clip-path="url(#p1da729468f)" d="M 269.730938 113.975742 
L 269.730938 96.890714 
" style="fill:none;stroke:#1f77b4;stroke-width:1.5;"/>
    <path clip-path="url(#p1da729468f)" d="M 278.410938 49.757999 
L 278.410938 38.587349 
" style="fill:none;stroke:#1f77b4;stroke-width:1.5;"/>
    <path clip-path="url(#p1da729468f)" d="M 287.090938 124.918918 
L 287.090938 108.337481 
" style="fill:none;stroke:#1f77b4;stroke-width:1.5;"/>
    <path clip-path="url(#p1da729468f)" d="M 295.770938 247.124471 
L 295.770938 234.327223 
" style="fill:none;stroke:#1f77b4;stroke-width:1.5;"/>
    <path clip-path="url(#p1da729468f)" d="M 304.450938 260.667324 
L 304.450938 250.604926 
" style="fill:none;stroke:#1f77b4;stroke-width:1.5;"/>
    <path clip-path="url(#p1da729468f)" d="M 313.130938 163.617129 
L 313.130938 145.954828 
" style="fill:none;stroke:#1f77b4;stroke-width:1.5;"/>
    <path clip-path="url(#p1da729468f)" d="M 321.810938 69.592758 
L 321.810938 55.537027 
" style="fill:none;stroke:#1f77b4;stroke-width:1.5;"/>
    <path clip-path="url(#p1da729468f)" d="M 330.490938 71.479344 
L 330.490938 57.86817 
" style="fill:none;stroke:#1f77b4;stroke-width:1.5;"/>
    <path clip-path="url(#p1da729468f)" d="M 339.170938 193.475657 
L 339.170938 176.633578 
" style="fill:none;stroke:#1f77b4;stroke-width:1.5;"/>
    <path clip-path="url(#p1da729468f)" d="M 347.850938 254.99781 
L 347.850938 244.016403 
" style="fill:none;stroke:#1f77b4;stroke-width:1.5;"/>
    <path clip-path="url(#p1da729468f)" d="M 356.530938 230.398214 
L 356.530938 215.088517 
" style="fill:none;stroke:#1f77b4;stroke-width:1.5;"/>
    <path clip-path="url(#p1da729468f)" d="M 365.210938 118.273477 
L 365.210938 101.168179 
" style="fill:none;stroke:#1f77b4;stroke-width:1.5;"/>
    <path clip-path="url(#p1da729468f)" d="M 373.890938 61.339751 
L 373.890938 48.431025 
" style="fill:none;stroke:#1f77b4;stroke-width:1.5;"/>
    <path clip-path="url(#p1da729468f)" d="M 382.570938 126.796576 
L 382.570938 109.217409 
" style="fill:none;stroke:#1f77b4;stroke-width:1.5;"/>
    <path clip-path="url(#p1da729468f)" d="M 391.250938 225.700423 
L 391.250938 211.155344 
" style="fill:none;stroke:#1f77b4;stroke-width:1.5;"/>
    <path clip-path="url(#p1da729468f)" d="M 399.930938 245.233639 
L 399.930938 232.474937 
" style="fill:none;stroke:#1f77b4;stroke-width:1.5;"/>
    <path clip-path="url(#p1da729468f)" d="M 408.610938 172.079916 
L 408.610938 154.166773 
" style="fill:none;stroke:#1f77b4;stroke-width:1.5;"/>
   </g>
   <g id="LineCollection_2">
    <path clip-path="url(#p1da729468f)" d="M 61.410938 274.780846 
L 61.410938 267.789145 
" style="fill:none;stroke:#d62728;stroke-width:1.5;"/>
    <path clip-path="url(#p1da729468f)" d="M 70.090938 237.288136 
L 70.090938 220.729648 
" style="fill:none;stroke:#d62728;stroke-width:1.5;"/>
    <path clip-path="url(#p1da729468f)" d="M 78.770938 163.039554 
L 78.770938 142.093059 
" style="fill:none;stroke:#d62728;stroke-width:1.5;"/>
    <path clip-path="url(#p1da729468f)" d="M 87.450938 100.968772 
L 87.450938 81.851493 
" style="fill:none;stroke:#d62728;stroke-width:1.5;"/>
    <path clip-path="url(#p1da729468f)" d="M 96.130938 120.325553 
L 96.130938 100.066503 
" style="fill:none;stroke:#d62728;stroke-width:1.5;"/>
    <path clip-path="url(#p1da729468f)" d="M 104.810938 144.831053 
L 104.810938 123.938429 
" style="fill:none;stroke:#d62728;stroke-width:1.5;"/>
    <path clip-path="url(#p1da729468f)" d="M 113.490938 184.938079 
L 113.490938 163.995578 
" style="fill:none;stroke:#d62728;stroke-width:1.5;"/>
    <path clip-path="url(#p1da729468f)" d="M 122.170938 205.850105 
L 122.170938 185.851552 
" style="fill:none;stroke:#d62728;stroke-width:1.5;"/>
    <path clip-path="url(#p1da729468f)" d="M 130.850938 159.144608 
L 130.850938 138.917927 
" style="fill:none;stroke:#d62728;stroke-width:1.5;"/>
    <path clip-path="url(#p1da729468f)" d="M 139.530938 147.031917 
L 139.530938 125.362859 
" style="fill:none;stroke:#d62728;stroke-width:1.5;"/>
    <path clip-path="url(#p1da729468f)" d="M 148.210938 115.416312 
L 148.210938 94.472522 
" style="fill:none;stroke:#d62728;stroke-width:1.5;"/>
    <path clip-path="url(#p1da729468f)" d="M 156.890938 156.313224 
L 156.890938 135.596433 
" style="fill:none;stroke:#d62728;stroke-width:1.5;"/>
    <path clip-path="url(#p1da729468f)" d="M 165.570938 182.525487 
L 165.570938 162.285952 
" style="fill:none;stroke:#d62728;stroke-width:1.5;"/>
    <path clip-path="url(#p1da729468f)" d="M 174.250938 184.987566 
L 174.250938 162.844178 
" style="fill:none;stroke:#d62728;stroke-width:1.5;"/>
    <path clip-path="url(#p1da729468f)" d="M 182.930938 185.134895 
L 182.930938 164.404112 
" style="fill:none;stroke:#d62728;stroke-width:1.5;"/>
    <path clip-path="url(#p1da729468f)" d="M 191.610938 134.204782 
L 191.610938 114.130979 
" style="fill:none;stroke:#d62728;stroke-width:1.5;"/>
   </g>
   <g id="line2d_25">
    <path clip-path="url(#p1da729468f)" d="M 61.410938 278.518987 
L 62.839418 278.518987 
L 63.196538 275.215955 
L 63.910778 273.024932 
L 64.267898 270.93644 
L 66.767738 249.547546 
L 67.481978 241.714879 
L 67.839098 236.357452 
L 68.196218 232.879088 
L 69.267578 218.224198 
L 72.124538 174.586989 
L 72.838778 162.4624 
L 73.553018 151.168686 
L 73.910138 144.225942 
L 74.267258 139.56598 
L 76.409978 104.011911 
L 79.266938 65.63151 
L 79.624058 62.827365 
L 80.695418 51.222488 
L 81.052538 47.584545 
L 81.409658 45.431453 
L 82.481018 37.266031 
L 82.838138 34.674507 
L 83.909498 30.307827 
L 84.623738 28.721634 
L 84.980858 28.721634 
L 85.337978 27.487208 
L 85.695098 28.721634 
L 86.052218 26.696269 
L 86.409338 28.240204 
L 86.766458 30.369532 
L 87.837818 33.170958 
L 88.194938 36.22158 
L 88.552058 37.005959 
L 88.909178 40.708797 
L 89.266298 42.447302 
L 89.623418 47.316613 
L 89.980538 49.572733 
L 90.694778 56.915313 
L 91.051898 58.885018 
L 92.123258 71.550483 
L 92.480378 77.388833 
L 92.837498 81.188179 
L 93.551738 91.755291 
L 93.908858 95.585532 
L 94.265978 102.369445 
L 94.980218 112.173686 
L 98.908538 175.545331 
L 99.265658 180.270579 
L 99.979898 192.803671 
L 100.694138 203.176578 
L 102.836858 233.207928 
L 103.551098 240.378017 
L 104.979578 255.117361 
L 106.050938 264.409316 
L 106.408058 265.619847 
L 106.765178 268.516261 
L 107.122298 269.045646 
L 107.479418 272.736951 
L 107.836538 273.996272 
L 108.193658 273.996272 
L 108.907898 276.183919 
L 109.265018 276.652764 
L 109.622138 275.925817 
L 109.979258 276.652764 
L 110.336378 276.008084 
L 111.407738 272.156156 
L 111.764858 271.000143 
L 112.121978 268.516261 
L 112.479098 267.540504 
L 112.836218 265.351112 
L 113.193338 262.008949 
L 113.550458 260.24167 
L 113.907578 255.341087 
L 114.264698 253.232058 
L 115.336058 243.108419 
L 115.693178 237.746014 
L 116.050298 234.121101 
L 119.264378 190.110779 
L 124.264058 110.440615 
L 127.121018 73.16067 
L 128.192378 60.590598 
L 129.620858 47.493593 
L 131.049338 38.778568 
L 132.120698 33.712012 
L 132.477818 26.696269 
L 132.834938 32.278822 
L 133.192058 31.412605 
L 133.549178 32.064179 
L 133.906298 32.437165 
L 134.263418 33.390376 
L 134.620538 32.560586 
L 135.691898 36.403473 
L 136.049018 38.925634 
L 136.406138 39.980315 
L 136.763258 41.683255 
L 137.477498 47.18495 
L 137.834618 51.435694 
L 138.191738 53.397005 
L 138.548858 56.11464 
L 139.620218 68.533444 
L 141.048698 85.045497 
L 149.976698 218.932137 
L 150.333818 222.499556 
L 151.048058 231.934485 
L 151.405178 235.458664 
L 151.762298 240.729746 
L 152.476538 246.464058 
L 152.833658 250.529929 
L 153.190778 252.766579 
L 154.262138 261.510776 
L 154.619258 264.082306 
L 155.333498 267.586431 
L 155.690618 267.471613 
L 156.047738 270.22888 
L 156.404858 271.062287 
L 156.761978 272.513929 
L 157.119098 273.486418 
L 157.833338 273.06522 
L 158.190458 272.044299 
L 158.547578 272.156156 
L 158.904698 270.479036 
L 159.261818 269.630388 
L 159.976058 267.195243 
L 161.047418 260.705293 
L 162.118778 251.294392 
L 162.475898 249.139341 
L 163.547258 239.294526 
L 164.618618 225.062538 
L 165.332858 217.470154 
L 166.404218 201.066322 
L 166.761338 197.188492 
L 170.332538 143.350238 
L 171.403898 126.177005 
L 171.761018 121.591283 
L 172.475258 110.588739 
L 173.546618 95.580468 
L 174.617978 82.354737 
L 175.689338 69.359479 
L 176.760698 58.769153 
L 177.117818 56.821301 
L 177.474938 52.988591 
L 177.832058 51.192229 
L 178.903418 42.983184 
L 179.260538 42.413829 
L 179.974778 39.174925 
L 180.331898 39.454345 
L 180.689018 36.673677 
L 181.046138 36.597721 
L 181.760378 36.698995 
L 182.117498 37.266031 
L 182.474618 36.757571 
L 183.188858 39.841083 
L 183.545978 39.70284 
L 184.260218 43.986508 
L 184.617338 44.737865 
L 184.974458 48.572638 
L 185.331578 50.027361 
L 186.045818 57.084597 
L 186.402938 58.180066 
L 187.117178 66.559829 
L 187.474298 69.078258 
L 189.259898 90.856757 
L 189.617018 96.173714 
L 189.974138 99.619626 
L 192.473978 135.536068 
L 193.902458 158.111778 
L 194.616698 168.497918 
L 197.116538 205.155653 
L 197.473658 208.804742 
L 198.187898 218.681587 
L 200.330618 242.583758 
L 201.759098 254.181932 
L 202.116218 256.061122 
L 202.473338 259.550618 
L 202.830458 261.244178 
L 203.187578 262.264448 
L 203.901818 266.331641 
L 204.973178 267.784653 
L 205.330298 267.878695 
L 205.687418 268.358942 
L 206.044538 267.96846 
L 206.401658 268.915722 
L 207.115898 266.37366 
L 207.473018 265.619847 
L 208.187258 261.60482 
L 208.544378 260.403699 
L 209.972858 251.040563 
L 210.329978 246.872118 
L 210.687098 244.547376 
L 211.758458 234.300647 
L 212.115578 228.67047 
L 212.472698 225.478012 
L 212.829818 220.039973 
L 213.544058 212.424426 
L 214.615418 198.480114 
L 214.972538 192.13474 
L 215.329658 188.131577 
L 215.686778 182.014856 
L 216.401018 172.735381 
L 217.115258 161.787806 
L 217.829498 151.06792 
L 218.543738 140.271926 
L 219.257978 129.183588 
L 220.329338 115.897908 
L 221.043578 104.6356 
L 222.472058 85.135783 
L 222.829178 83.020468 
L 224.257658 67.557674 
L 224.614778 65.63151 
L 225.329018 58.261602 
L 226.400378 49.980338 
L 227.114618 47.329779 
L 227.471738 45.147845 
L 227.828858 44.899987 
L 228.900218 41.27658 
L 229.257338 41.13295 
L 229.971578 41.700579 
L 230.685818 41.943112 
L 231.042938 43.688807 
L 231.757178 45.503009 
L 233.185658 53.062918 
L 233.542778 57.141025 
L 233.899898 58.849948 
L 235.328378 71.687242 
L 236.399738 82.849303 
L 237.471098 96.208982 
L 237.828218 101.560784 
L 238.185338 105.230822 
L 241.042298 145.974318 
L 241.756538 155.659193 
L 244.256378 192.377247 
L 246.041978 215.076607 
L 246.756218 223.784636 
L 247.113338 226.737675 
L 247.827578 235.06018 
L 249.256058 248.077282 
L 249.613178 249.776292 
L 250.327418 255.082094 
L 250.684538 256.988857 
L 251.041658 260.506868 
L 251.398778 260.735216 
L 251.755898 261.573472 
L 252.113018 263.376087 
L 252.470138 262.643667 
L 252.827258 265.041324 
L 253.184378 264.263026 
L 253.541498 265.413671 
L 253.898618 264.797233 
L 254.255738 264.580984 
L 254.612858 264.711402 
L 255.684218 261.000974 
L 256.041338 260.183584 
L 256.398458 256.988857 
L 258.184057 245.881402 
L 260.326778 224.492997 
L 260.683898 219.651232 
L 261.398138 212.33607 
L 262.112378 202.86978 
L 269.969018 94.787676 
L 271.754618 74.692609 
L 272.468858 68.42354 
L 272.825978 65.214333 
L 273.183098 63.05331 
L 273.540218 60.008676 
L 273.897338 57.973238 
L 274.254458 54.826561 
L 275.682938 48.597638 
L 276.040058 46.474661 
L 276.397178 46.636986 
L 276.754298 46.113784 
L 277.111418 46.099876 
L 277.468538 45.331275 
L 277.825658 45.060716 
L 278.539898 46.66404 
L 278.897018 46.948031 
L 279.254138 47.571552 
L 280.325498 52.147778 
L 281.039738 56.773825 
L 281.753978 60.051987 
L 282.111098 64.548208 
L 282.825338 70.28114 
L 283.182458 73.765685 
L 283.539578 78.538917 
L 283.896698 80.66872 
L 285.682298 101.739017 
L 289.610618 155.513727 
L 291.396218 181.296449 
L 292.110458 189.678846 
L 292.824698 200.398247 
L 293.538938 208.971006 
L 294.253178 216.948131 
L 296.038778 236.674604 
L 297.824378 250.550081 
L 298.538618 254.875664 
L 298.895738 257.472333 
L 299.252858 257.604725 
L 299.609978 259.451871 
L 299.967098 259.649365 
L 300.324218 261.833754 
L 300.681338 262.329199 
L 301.038458 261.714538 
L 301.395578 261.398469 
L 301.752698 262.215884 
L 302.109818 260.780101 
L 302.466938 261.305894 
L 302.824058 260.447914 
L 303.181178 259.073656 
L 303.538298 259.073656 
L 303.895418 256.755115 
L 304.252538 255.799075 
L 304.609658 252.918499 
L 305.323898 249.469329 
L 305.681018 247.324309 
L 308.180858 223.543191 
L 309.252218 210.901124 
L 309.966458 200.815902 
L 310.323578 198.68041 
L 310.680698 192.3805 
L 311.394938 183.383537 
L 313.180538 158.548872 
L 313.537658 152.422218 
L 313.894778 149.195865 
L 316.037498 119.227256 
L 316.751738 110.235832 
L 318.180218 92.686883 
L 319.608698 78.347561 
L 319.965818 73.620954 
L 320.322938 71.197738 
L 320.680058 67.697693 
L 321.751418 60.898589 
L 322.465658 55.290841 
L 322.822778 55.530831 
L 323.537018 50.828279 
L 323.894138 50.575668 
L 324.251258 49.588633 
L 324.608378 48.959596 
L 324.965498 48.749757 
L 325.322618 47.807045 
L 325.679738 48.460141 
L 326.036857 47.4806 
L 326.393978 48.959596 
L 326.751098 49.476393 
L 327.822458 53.354985 
L 328.179578 55.125799 
L 328.536698 56.294037 
L 329.250938 61.007192 
L 329.965178 66.999892 
L 331.750778 82.091792 
L 332.465018 89.783051 
L 335.679098 130.161596 
L 336.750458 145.703158 
L 338.536058 169.629813 
L 338.893178 175.722026 
L 339.250298 179.578427 
L 340.678778 198.759597 
L 341.393018 207.838114 
L 342.464378 220.181045 
L 343.535738 231.038628 
L 344.249978 236.871587 
L 345.678458 248.940394 
L 347.106938 256.601277 
L 347.464058 257.090137 
L 347.821178 258.88424 
L 348.178298 259.021389 
L 348.892538 260.940207 
L 349.249658 261.152892 
L 349.963898 260.183584 
L 350.321018 259.755181 
L 350.678138 257.951308 
L 351.035258 258.133783 
L 351.392378 256.391438 
L 351.749498 255.799075 
L 352.106618 254.238684 
L 352.820858 249.430221 
L 353.535098 245.571591 
L 355.320698 231.442988 
L 355.677818 226.535268 
L 356.392058 219.317096 
L 360.677498 164.356142 
L 365.320058 103.136899 
L 367.462778 79.611287 
L 369.248378 64.782811 
L 369.962618 60.320515 
L 371.033978 55.340215 
L 371.391098 54.174693 
L 371.748218 51.829022 
L 372.105338 50.816797 
L 372.462458 50.747903 
L 373.176698 50.351209 
L 373.533818 49.874169 
L 373.890938 50.133162 
L 374.248058 50.598632 
L 376.033658 56.792816 
L 376.390778 58.542448 
L 376.747898 59.298587 
L 377.105018 63.004745 
L 377.462138 64.650092 
L 378.890618 76.196629 
L 379.247738 80.621752 
L 379.604858 83.448 
L 381.747578 107.330669 
L 389.604218 210.757859 
L 391.746938 233.637343 
L 393.175418 245.111296 
L 394.961018 254.724638 
L 395.318138 255.939212 
L 395.675258 256.391438 
L 396.032378 258.747092 
L 396.389498 258.801951 
L 396.746618 260.009325 
L 397.103738 260.052889 
L 398.175098 259.607045 
L 398.532218 258.043473 
L 398.889338 257.819645 
L 399.246458 256.342064 
L 399.603578 255.895414 
L 399.960698 254.968604 
L 400.317818 251.860272 
L 400.674938 250.989662 
L 401.389178 244.529489 
L 401.746298 243.174805 
L 402.817657 234.086574 
L 403.889018 223.578459 
L 405.674618 203.962786 
L 406.031738 198.563959 
L 406.388858 195.175105 
L 407.460218 180.427394 
L 408.888698 161.873146 
L 409.602938 151.362157 
L 412.459898 113.934694 
L 414.245498 92.150403 
L 414.959738 86.389427 
L 415.673978 77.176333 
L 416.031098 75.117939 
L 416.745338 68.481628 
L 417.102458 67.096415 
L 418.173818 59.134114 
L 418.530938 57.790231 
L 418.530938 57.790231 
" style="fill:none;stroke:#1f77b4;stroke-linecap:square;stroke-width:1.5;"/>
   </g>
   <g id="line2d_26">
    <path clip-path="url(#p1da729468f)" d="M 61.410938 278.515607 
L 62.006138 278.514319 
L 62.303738 278.183313 
L 62.601338 278.515607 
L 62.898938 277.236263 
L 63.196538 277.209519 
L 63.791738 275.200296 
L 64.089338 275.134025 
L 64.386938 273.249368 
L 64.684538 272.776685 
L 64.982138 271.280245 
L 65.279738 270.720603 
L 65.577338 269.028464 
L 65.874938 268.211181 
L 66.172538 266.013343 
L 66.470138 265.320237 
L 66.767738 262.957218 
L 67.065338 262.498057 
L 67.660538 256.715454 
L 68.255738 254.529926 
L 68.553338 252.80476 
L 68.850938 249.404152 
L 69.148538 248.022626 
L 69.743738 243.662983 
L 70.041338 239.732864 
L 72.422138 219.424118 
L 80.457338 137.403937 
L 80.754938 135.64054 
L 81.647738 127.311416 
L 82.242938 121.032647 
L 82.540538 119.969395 
L 82.838138 116.635193 
L 84.028538 108.539988 
L 84.326138 105.279313 
L 84.623738 104.210917 
L 85.218938 98.66257 
L 85.516538 97.715865 
L 85.814138 95.246141 
L 86.111738 94.054794 
L 86.706938 89.949493 
L 87.302138 88.47195 
L 87.599738 87.843705 
L 87.897338 84.936305 
L 88.194938 83.934233 
L 88.492538 83.435988 
L 88.790138 81.877214 
L 89.087738 81.086102 
L 89.385338 79.479497 
L 89.682938 80.703347 
L 89.980538 78.271597 
L 90.278138 78.446736 
L 90.575738 77.118128 
L 91.170938 77.192236 
L 91.468538 76.047423 
L 92.063738 77.005973 
L 92.361338 76.467179 
L 92.658938 74.794147 
L 92.956538 76.467179 
L 93.551738 77.037844 
L 94.146938 78.314296 
L 94.444538 77.954401 
L 94.742138 77.972701 
L 95.337338 79.959809 
L 95.634938 80.62098 
L 95.932538 82.811288 
L 96.527738 83.401702 
L 96.825338 85.060228 
L 97.122938 85.266906 
L 97.718138 88.03965 
L 99.206138 95.316802 
L 99.503738 96.334921 
L 99.801338 99.232599 
L 100.098938 99.938384 
L 100.396538 101.08324 
L 101.289338 106.967989 
L 101.586938 108.572062 
L 102.182138 112.943682 
L 102.479738 114.555124 
L 103.670138 122.79308 
L 103.967738 124.278596 
L 104.265338 126.885911 
L 104.562938 128.073989 
L 104.860538 130.88392 
L 105.158138 132.181805 
L 105.455738 134.044736 
L 106.050938 138.969335 
L 106.348538 140.22895 
L 106.646138 143.336431 
L 106.943738 144.5141 
L 107.241338 148.181582 
L 107.538938 147.994133 
L 108.134138 152.554766 
L 108.729338 156.270415 
L 109.324538 159.493724 
L 109.622138 163.09364 
L 109.919738 163.429164 
L 110.217338 165.848164 
L 111.407738 171.371157 
L 111.705338 174.595225 
L 112.002938 175.408301 
L 112.598138 177.756405 
L 112.895738 179.929199 
L 113.490938 182.006899 
L 113.788538 182.916639 
L 114.086138 184.733894 
L 114.383738 185.270289 
L 115.276538 188.205309 
L 115.574138 188.749839 
L 116.466938 192.491501 
L 116.764538 192.31976 
L 117.062138 194.356176 
L 117.359738 194.142444 
L 117.657338 193.290503 
L 117.954938 195.05062 
L 118.252538 194.64026 
L 118.550138 194.61735 
L 118.847738 195.386654 
L 119.145338 196.524026 
L 119.442938 194.576112 
L 119.740538 196.385097 
L 120.038138 195.478719 
L 120.335738 195.968882 
L 120.633338 195.243955 
L 120.930938 195.584592 
L 121.228538 194.379086 
L 121.526138 195.894888 
L 121.823738 194.452398 
L 122.121338 195.340622 
L 122.418938 193.285963 
L 122.716538 193.503907 
L 123.014138 192.772925 
L 123.311738 192.364955 
L 123.609338 191.105854 
L 123.906938 191.249824 
L 124.204538 190.086515 
L 124.502138 190.377637 
L 124.799738 189.981437 
L 125.097338 188.002031 
L 125.394938 186.869282 
L 125.692538 186.193288 
L 125.990138 186.110065 
L 126.287738 185.08713 
L 127.180538 180.723569 
L 127.775738 179.45979 
L 128.668538 175.454645 
L 128.966138 173.108016 
L 129.263738 172.539847 
L 129.561338 171.562527 
L 130.156538 168.505332 
L 130.751738 166.037162 
L 131.049338 164.406026 
L 131.346938 164.200593 
L 131.644538 160.884096 
L 131.942138 161.731088 
L 132.239738 158.972127 
L 132.537338 158.784678 
L 132.834938 157.391035 
L 133.132538 155.109046 
L 133.727738 152.984951 
L 134.322938 149.961483 
L 134.620538 148.881962 
L 135.215738 146.078892 
L 135.810938 144.693399 
L 136.703738 139.53633 
L 137.596538 137.383394 
L 137.894138 135.537398 
L 138.191738 134.728314 
L 138.489338 133.547589 
L 138.786938 133.146978 
L 139.084538 130.720989 
L 139.382138 130.553881 
L 139.679738 130.616546 
L 139.977338 129.063251 
L 140.274938 129.382097 
L 140.572538 127.551563 
L 140.870138 127.193449 
L 141.465338 125.955083 
L 141.762938 125.68343 
L 142.060538 123.93294 
L 142.358138 124.557413 
L 142.655738 123.344045 
L 142.953338 123.856128 
L 143.250938 122.295933 
L 143.548538 123.007367 
L 143.846138 122.398791 
L 144.143738 122.223075 
L 145.036538 121.15266 
L 145.334138 121.12253 
L 145.631738 122.013521 
L 145.929338 121.247355 
L 146.226938 121.58309 
L 146.524538 121.445353 
L 146.822138 120.574407 
L 147.119738 122.215823 
L 147.417338 121.98339 
L 147.714938 123.063082 
L 148.012538 122.295933 
L 148.607738 123.634225 
L 148.905338 124.261527 
L 149.202938 123.523274 
L 149.500538 124.808111 
L 150.095738 125.368995 
L 150.393338 127.256646 
L 150.988538 127.374613 
L 151.286138 127.770645 
L 151.583738 129.663184 
L 151.881338 129.805826 
L 152.476538 131.410311 
L 152.774138 131.628494 
L 153.071738 132.032036 
L 153.369338 133.829306 
L 153.964538 135.558026 
L 154.262138 136.445053 
L 154.559738 137.933954 
L 154.857338 138.291407 
L 155.154938 139.166551 
L 155.750138 142.233907 
L 156.047738 142.643082 
L 156.345338 143.446456 
L 156.642938 143.58093 
L 156.940538 145.288346 
L 157.238138 146.237817 
L 157.535738 146.787939 
L 158.428538 151.706572 
L 158.726138 151.633522 
L 159.321338 153.171635 
L 159.916538 156.237816 
L 160.214138 156.584189 
L 160.511738 158.079706 
L 160.809338 158.422005 
L 161.702138 161.698354 
L 161.999738 161.894758 
L 162.297338 162.623089 
L 162.594938 164.217028 
L 162.892538 165.00589 
L 163.190138 165.182562 
L 163.487738 166.443049 
L 163.785338 166.674088 
L 164.082938 168.331331 
L 164.380538 168.795335 
L 164.678138 170.227094 
L 164.975738 170.231254 
L 165.273338 170.901051 
L 165.570938 170.984255 
L 165.868538 173.266769 
L 166.166138 172.113721 
L 166.463738 173.049528 
L 166.761338 174.490342 
L 167.058938 173.96173 
L 167.356538 174.939243 
L 167.654138 174.767234 
L 167.951738 175.779055 
L 168.249338 175.661088 
L 168.844538 176.31412 
L 169.142138 177.192973 
L 169.439738 175.661088 
L 169.737338 177.061811 
L 170.034938 177.247977 
L 170.332538 177.070273 
L 170.630138 177.095659 
L 170.927738 177.871131 
L 171.225338 177.006808 
L 171.522938 177.05758 
L 171.820538 177.455298 
L 172.118138 176.613321 
L 172.415738 177.786149 
L 172.713338 177.002577 
L 173.010938 176.668324 
L 173.308538 176.841797 
L 173.606138 175.585252 
L 174.201338 175.656875 
L 174.796538 174.523905 
L 175.094138 174.784015 
L 175.391738 173.44641 
L 175.689338 173.070416 
L 175.986938 172.222342 
L 176.284538 172.874064 
L 176.879738 171.088261 
L 177.177338 170.121061 
L 177.772538 169.768915 
L 178.070138 168.497047 
L 178.367738 168.633762 
L 178.665338 166.843242 
L 178.962938 166.612203 
L 179.260538 165.314039 
L 179.558138 166.455426 
L 179.855738 163.929422 
L 180.153338 163.991051 
L 180.450938 163.118191 
L 180.748538 161.272812 
L 181.046138 161.767914 
L 181.641338 159.3837 
L 181.938938 158.556479 
L 182.236538 158.104156 
L 182.534138 156.967237 
L 183.129338 153.869671 
L 183.426938 155.243521 
L 183.724538 153.557178 
L 184.022138 152.932193 
L 184.319738 151.56453 
L 184.617338 150.781269 
L 184.914938 151.17087 
L 185.510138 149.486656 
L 185.807738 147.578485 
L 186.402938 145.65917 
L 186.700538 146.082967 
L 187.890938 142.831302 
L 188.188538 143.011339 
L 188.486138 140.679043 
L 188.783738 140.756786 
L 189.378938 139.577416 
L 189.676538 139.684241 
L 189.974138 138.71049 
L 190.271738 138.944683 
L 190.569338 137.97504 
L 190.866938 136.572949 
L 191.164538 136.156253 
L 191.462138 136.366664 
L 191.759738 135.25685 
L 192.057338 135.34349 
L 192.652538 134.053022 
L 192.950138 134.384454 
L 193.247738 133.626304 
L 193.545338 134.26431 
L 193.842938 133.31973 
L 194.140538 133.311444 
L 194.438138 132.119401 
L 194.735738 133.560018 
L 195.033338 132.265009 
L 195.330938 132.739275 
L 195.926138 131.574411 
L 196.223738 131.443732 
L 196.521338 132.385656 
L 196.818938 132.319092 
L 197.116538 132.452219 
L 197.414138 133.448159 
L 197.711738 132.764236 
L 198.009338 132.560385 
L 198.306938 133.299015 
L 198.604538 133.01385 
L 198.902138 133.825163 
L 199.199738 133.779591 
L 199.497338 134.032308 
L 199.794938 135.306358 
L 200.092538 134.235309 
L 200.390138 134.63717 
L 200.687738 134.554312 
L 200.985338 135.945842 
L 201.282938 136.733852 
L 201.580538 136.989646 
L 201.878138 137.979149 
L 202.175738 138.46397 
L 202.473338 139.232289 
L 202.770938 139.495243 
L 203.366138 140.237134 
L 203.663738 140.629942 
L 203.961338 140.785428 
L 204.258938 142.368935 
L 204.556538 142.577614 
L 204.854138 143.837654 
L 205.151738 143.385331 
L 205.746938 145.272046 
L 206.044538 146.360066 
L 206.342138 146.930563 
L 206.639738 148.108232 
L 206.937338 147.423636 
L 207.532538 149.579998 
L 207.830138 150.054825 
L 208.127738 151.24392 
L 208.722938 152.307207 
L 209.020538 153.776329 
L 209.318138 153.57747 
L 209.615738 155.117196 
L 209.913338 155.35762 
L 210.210938 156.706438 
L 210.210938 156.706438 
" style="fill:none;stroke:#d62728;stroke-linecap:square;stroke-width:1.5;"/>
   </g>
   <g id="line2d_27">
    <path clip-path="url(#p1da729468f)" d="M 61.410938 23.543308 
L 418.530938 23.543308 
" style="fill:none;stroke:#99aaaa;stroke-dasharray:9.6,2.4,1.5,2.4;stroke-dashoffset:0;stroke-width:1.5;"/>
   </g>
   <g id="line2d_28">
    <defs>
     <path d="M -3 3 
L 3 3 
L 3 -3 
L -3 -3 
z
" id="m9e0ac68bfd" style="stroke:#1f77b4;stroke-linejoin:miter;"/>
    </defs>
    <g clip-path="url(#p1da729468f)">
     <use style="fill:#1f77b4;stroke:#1f77b4;stroke-linejoin:miter;" x="61.410938" xlink:href="#m9e0ac68bfd" y="278.419468"/>
     <use style="fill:#1f77b4;stroke:#1f77b4;stroke-linejoin:miter;" x="70.090938" xlink:href="#m9e0ac68bfd" y="198.820828"/>
     <use style="fill:#1f77b4;stroke:#1f77b4;stroke-linejoin:miter;" x="78.770938" xlink:href="#m9e0ac68bfd" y="67.750485"/>
     <use style="fill:#1f77b4;stroke:#1f77b4;stroke-linejoin:miter;" x="87.450938" xlink:href="#m9e0ac68bfd" y="35.175172"/>
     <use style="fill:#1f77b4;stroke:#1f77b4;stroke-linejoin:miter;" x="96.130938" xlink:href="#m9e0ac68bfd" y="138.528447"/>
     <use style="fill:#1f77b4;stroke:#1f77b4;stroke-linejoin:miter;" x="104.810938" xlink:href="#m9e0ac68bfd" y="254.87235"/>
     <use style="fill:#1f77b4;stroke:#1f77b4;stroke-linejoin:miter;" x="113.490938" xlink:href="#m9e0ac68bfd" y="262.065017"/>
     <use style="fill:#1f77b4;stroke:#1f77b4;stroke-linejoin:miter;" x="122.170938" xlink:href="#m9e0ac68bfd" y="132.763932"/>
     <use style="fill:#1f77b4;stroke:#1f77b4;stroke-linejoin:miter;" x="130.850938" xlink:href="#m9e0ac68bfd" y="43.390828"/>
     <use style="fill:#1f77b4;stroke:#1f77b4;stroke-linejoin:miter;" x="139.530938" xlink:href="#m9e0ac68bfd" y="82.564941"/>
     <use style="fill:#1f77b4;stroke:#1f77b4;stroke-linejoin:miter;" x="148.210938" xlink:href="#m9e0ac68bfd" y="196.153228"/>
     <use style="fill:#1f77b4;stroke:#1f77b4;stroke-linejoin:miter;" x="156.890938" xlink:href="#m9e0ac68bfd" y="271.15319"/>
     <use style="fill:#1f77b4;stroke:#1f77b4;stroke-linejoin:miter;" x="165.570938" xlink:href="#m9e0ac68bfd" y="196.153228"/>
     <use style="fill:#1f77b4;stroke:#1f77b4;stroke-linejoin:miter;" x="174.250938" xlink:href="#m9e0ac68bfd" y="86.330677"/>
     <use style="fill:#1f77b4;stroke:#1f77b4;stroke-linejoin:miter;" x="182.930938" xlink:href="#m9e0ac68bfd" y="45.745288"/>
     <use style="fill:#1f77b4;stroke:#1f77b4;stroke-linejoin:miter;" x="191.610938" xlink:href="#m9e0ac68bfd" y="127.703784"/>
     <use style="fill:#1f77b4;stroke:#1f77b4;stroke-linejoin:miter;" x="200.290938" xlink:href="#m9e0ac68bfd" y="246.340828"/>
     <use style="fill:#1f77b4;stroke:#1f77b4;stroke-linejoin:miter;" x="208.970938" xlink:href="#m9e0ac68bfd" y="252.023055"/>
     <use style="fill:#1f77b4;stroke:#1f77b4;stroke-linejoin:miter;" x="217.650938" xlink:href="#m9e0ac68bfd" y="146.548828"/>
     <use style="fill:#1f77b4;stroke:#1f77b4;stroke-linejoin:miter;" x="226.330938" xlink:href="#m9e0ac68bfd" y="50.177449"/>
     <use style="fill:#1f77b4;stroke:#1f77b4;stroke-linejoin:miter;" x="235.010938" xlink:href="#m9e0ac68bfd" y="62.870086"/>
     <use style="fill:#1f77b4;stroke:#1f77b4;stroke-linejoin:miter;" x="243.690938" xlink:href="#m9e0ac68bfd" y="208.638988"/>
     <use style="fill:#1f77b4;stroke:#1f77b4;stroke-linejoin:miter;" x="252.370938" xlink:href="#m9e0ac68bfd" y="260.678668"/>
     <use style="fill:#1f77b4;stroke:#1f77b4;stroke-linejoin:miter;" x="261.050938" xlink:href="#m9e0ac68bfd" y="207.772881"/>
     <use style="fill:#1f77b4;stroke:#1f77b4;stroke-linejoin:miter;" x="269.730938" xlink:href="#m9e0ac68bfd" y="105.433228"/>
     <use style="fill:#1f77b4;stroke:#1f77b4;stroke-linejoin:miter;" x="278.410938" xlink:href="#m9e0ac68bfd" y="44.172674"/>
     <use style="fill:#1f77b4;stroke:#1f77b4;stroke-linejoin:miter;" x="287.090938" xlink:href="#m9e0ac68bfd" y="116.6282"/>
     <use style="fill:#1f77b4;stroke:#1f77b4;stroke-linejoin:miter;" x="295.770938" xlink:href="#m9e0ac68bfd" y="240.725847"/>
     <use style="fill:#1f77b4;stroke:#1f77b4;stroke-linejoin:miter;" x="304.450938" xlink:href="#m9e0ac68bfd" y="255.636125"/>
     <use style="fill:#1f77b4;stroke:#1f77b4;stroke-linejoin:miter;" x="313.130938" xlink:href="#m9e0ac68bfd" y="154.785979"/>
     <use style="fill:#1f77b4;stroke:#1f77b4;stroke-linejoin:miter;" x="321.810938" xlink:href="#m9e0ac68bfd" y="62.564893"/>
     <use style="fill:#1f77b4;stroke:#1f77b4;stroke-linejoin:miter;" x="330.490938" xlink:href="#m9e0ac68bfd" y="64.673757"/>
     <use style="fill:#1f77b4;stroke:#1f77b4;stroke-linejoin:miter;" x="339.170938" xlink:href="#m9e0ac68bfd" y="185.054618"/>
     <use style="fill:#1f77b4;stroke:#1f77b4;stroke-linejoin:miter;" x="347.850938" xlink:href="#m9e0ac68bfd" y="249.507106"/>
     <use style="fill:#1f77b4;stroke:#1f77b4;stroke-linejoin:miter;" x="356.530938" xlink:href="#m9e0ac68bfd" y="222.743365"/>
     <use style="fill:#1f77b4;stroke:#1f77b4;stroke-linejoin:miter;" x="365.210938" xlink:href="#m9e0ac68bfd" y="109.720828"/>
     <use style="fill:#1f77b4;stroke:#1f77b4;stroke-linejoin:miter;" x="373.890938" xlink:href="#m9e0ac68bfd" y="54.885388"/>
     <use style="fill:#1f77b4;stroke:#1f77b4;stroke-linejoin:miter;" x="382.570938" xlink:href="#m9e0ac68bfd" y="118.006993"/>
     <use style="fill:#1f77b4;stroke:#1f77b4;stroke-linejoin:miter;" x="391.250938" xlink:href="#m9e0ac68bfd" y="218.427883"/>
     <use style="fill:#1f77b4;stroke:#1f77b4;stroke-linejoin:miter;" x="399.930938" xlink:href="#m9e0ac68bfd" y="238.854288"/>
     <use style="fill:#1f77b4;stroke:#1f77b4;stroke-linejoin:miter;" x="408.610938" xlink:href="#m9e0ac68bfd" y="163.123344"/>
    </g>
   </g>
   <g id="line2d_29">
    <defs>
     <path d="M 0 3 
C 0.795609 3 1.55874 2.683901 2.12132 2.12132 
C 2.683901 1.55874 3 0.795609 3 0 
C 3 -0.795609 2.683901 -1.55874 2.12132 -2.12132 
C 1.55874 -2.683901 0.795609 -3 0 -3 
C -0.795609 -3 -1.55874 -2.683901 -2.12132 -2.12132 
C -2.683901 -1.55874 -3 -0.795609 -3 0 
C -3 0.795609 -2.683901 1.55874 -2.12132 2.12132 
C -1.55874 2.683901 -0.795609 3 0 3 
z
" id="m4d17eb6f4c" style="stroke:#d62728;"/>
    </defs>
    <g clip-path="url(#p1da729468f)">
     <use style="fill:#d62728;stroke:#d62728;" x="61.410938" xlink:href="#m4d17eb6f4c" y="271.284996"/>
     <use style="fill:#d62728;stroke:#d62728;" x="70.090938" xlink:href="#m4d17eb6f4c" y="229.008892"/>
     <use style="fill:#d62728;stroke:#d62728;" x="78.770938" xlink:href="#m4d17eb6f4c" y="152.566306"/>
     <use style="fill:#d62728;stroke:#d62728;" x="87.450938" xlink:href="#m4d17eb6f4c" y="91.410132"/>
     <use style="fill:#d62728;stroke:#d62728;" x="96.130938" xlink:href="#m4d17eb6f4c" y="110.196028"/>
     <use style="fill:#d62728;stroke:#d62728;" x="104.810938" xlink:href="#m4d17eb6f4c" y="134.384741"/>
     <use style="fill:#d62728;stroke:#d62728;" x="113.490938" xlink:href="#m4d17eb6f4c" y="174.466828"/>
     <use style="fill:#d62728;stroke:#d62728;" x="122.170938" xlink:href="#m4d17eb6f4c" y="195.850828"/>
     <use style="fill:#d62728;stroke:#d62728;" x="130.850938" xlink:href="#m4d17eb6f4c" y="149.031267"/>
     <use style="fill:#d62728;stroke:#d62728;" x="139.530938" xlink:href="#m4d17eb6f4c" y="136.197388"/>
     <use style="fill:#d62728;stroke:#d62728;" x="148.210938" xlink:href="#m4d17eb6f4c" y="104.944417"/>
     <use style="fill:#d62728;stroke:#d62728;" x="156.890938" xlink:href="#m4d17eb6f4c" y="145.954828"/>
     <use style="fill:#d62728;stroke:#d62728;" x="165.570938" xlink:href="#m4d17eb6f4c" y="172.40572"/>
     <use style="fill:#d62728;stroke:#d62728;" x="174.250938" xlink:href="#m4d17eb6f4c" y="173.915872"/>
     <use style="fill:#d62728;stroke:#d62728;" x="182.930938" xlink:href="#m4d17eb6f4c" y="174.769503"/>
     <use style="fill:#d62728;stroke:#d62728;" x="191.610938" xlink:href="#m4d17eb6f4c" y="124.167881"/>
    </g>
   </g>
   <g id="patch_3">
    <path d="M 61.410938 279.010828 
L 61.410938 12.898828 
" style="fill:none;stroke:#000000;stroke-linecap:square;stroke-linejoin:miter;stroke-width:0.8;"/>
   </g>
   <g id="patch_4">
    <path d="M 418.530938 279.010828 
L 418.530938 12.898828 
" style="fill:none;stroke:#000000;stroke-linecap:square;stroke-linejoin:miter;stroke-width:0.8;"/>
   </g>
   <g id="patch_5">
    <path d="M 61.410938 279.010828 
L 418.530938 279.010828 
" style="fill:none;stroke:#000000;stroke-linecap:square;stroke-linejoin:miter;stroke-width:0.8;"/>
   </g>
   <g id="patch_6">
    <path d="M 61.410938 12.898828 
L 418.530938 12.898828 
" style="fill:none;stroke:#000000;stroke-linecap:square;stroke-linejoin:miter;stroke-width:0.8;"/>
   </g>
   <g id="text_15">
    <!-- (C) -->
    <defs>
     <path d="M 64.40625 67.28125 
L 64.40625 56.890625 
Q 59.421875 61.53125 53.78125 63.8125 
Q 48.140625 66.109375 41.796875 66.109375 
Q 29.296875 66.109375 22.65625 58.46875 
Q 16.015625 50.828125 16.015625 36.375 
Q 16.015625 21.96875 22.65625 14.328125 
Q 29.296875 6.6875 41.796875 6.6875 
Q 48.140625 6.6875 53.78125 8.984375 
Q 59.421875 11.28125 64.40625 15.921875 
L 64.40625 5.609375 
Q 59.234375 2.09375 53.4375 0.328125 
Q 47.65625 -1.421875 41.21875 -1.421875 
Q 24.65625 -1.421875 15.125 8.703125 
Q 5.609375 18.84375 5.609375 36.375 
Q 5.609375 53.953125 15.125 64.078125 
Q 24.65625 74.21875 41.21875 74.21875 
Q 47.75 74.21875 53.53125 72.484375 
Q 59.328125 70.75 64.40625 67.28125 
z
" id="DejaVuSans-43"/>
    </defs>
    <g transform="translate(381.330938 39.510028)scale(0.2 -0.2)">
     <use xlink:href="#DejaVuSans-28"/>
     <use x="39.013672" xlink:href="#DejaVuSans-43"/>
     <use x="108.837891" xlink:href="#DejaVuSans-29"/>
    </g>
   </g>
  </g>
 </g>
 <defs>
  <clipPath id="p1da729468f">
   <rect height="266.112" width="357.12" x="61.410938" y="12.898828"/>
  </clipPath>
 </defs>
</svg>
