<?xml version="1.0" encoding="utf-8" standalone="no"?>
<!DOCTYPE svg PUBLIC "-//W3C//DTD SVG 1.1//EN"
  "http://www.w3.org/Graphics/SVG/1.1/DTD/svg11.dtd">
<!-- Created with matplotlib (http://matplotlib.org/) -->
<svg height="331pt" version="1.1" viewBox="0 0 429 331" width="429pt" xmlns="http://www.w3.org/2000/svg" xmlns:xlink="http://www.w3.org/1999/xlink">
 <defs>
  <style type="text/css">
*{stroke-linecap:butt;stroke-linejoin:round;}
  </style>
 </defs>
 <g id="figure_1">
  <g id="patch_1">
   <path d="M 0 331.128016 
L 429.230937 331.128016 
L 429.230937 0 
L 0 0 
z
" style="fill:none;"/>
  </g>
  <g id="axes_1">
   <g id="patch_2">
    <path d="M 61.410938 279.010828 
L 418.530938 279.010828 
L 418.530938 12.898828 
L 61.410938 12.898828 
z
" style="fill:none;"/>
   </g>
   <g id="matplotlib.axis_1">
    <g id="xtick_1">
     <g id="line2d_1">
      <path clip-path="url(#p304c686b55)" d="M 61.410938 279.010828 
L 61.410938 12.898828 
" style="fill:none;stroke:#b0b0b0;stroke-linecap:square;stroke-width:0.8;"/>
     </g>
     <g id="line2d_2">
      <defs>
       <path d="M 0 0 
L 0 3.5 
" id="m005f0a59be" style="stroke:#000000;stroke-width:0.8;"/>
      </defs>
      <g>
       <use style="stroke:#000000;stroke-width:0.8;" x="61.410938" xlink:href="#m005f0a59be" y="279.010828"/>
      </g>
     </g>
     <g id="text_1">
      <!-- 0 -->
      <defs>
       <path d="M 31.78125 66.40625 
Q 24.171875 66.40625 20.328125 58.90625 
Q 16.5 51.421875 16.5 36.375 
Q 16.5 21.390625 20.328125 13.890625 
Q 24.171875 6.390625 31.78125 6.390625 
Q 39.453125 6.390625 43.28125 13.890625 
Q 47.125 21.390625 47.125 36.375 
Q 47.125 51.421875 43.28125 58.90625 
Q 39.453125 66.40625 31.78125 66.40625 
z
M 31.78125 74.21875 
Q 44.046875 74.21875 50.515625 64.515625 
Q 56.984375 54.828125 56.984375 36.375 
Q 56.984375 17.96875 50.515625 8.265625 
Q 44.046875 -1.421875 31.78125 -1.421875 
Q 19.53125 -1.421875 13.0625 8.265625 
Q 6.59375 17.96875 6.59375 36.375 
Q 6.59375 54.828125 13.0625 64.515625 
Q 19.53125 74.21875 31.78125 74.21875 
z
" id="DejaVuSans-30"/>
      </defs>
      <g transform="translate(56.639063 297.408484)scale(0.15 -0.15)">
       <use xlink:href="#DejaVuSans-30"/>
      </g>
     </g>
    </g>
    <g id="xtick_2">
     <g id="line2d_3">
      <path clip-path="url(#p304c686b55)" d="M 129.433795 279.010828 
L 129.433795 12.898828 
" style="fill:none;stroke:#b0b0b0;stroke-linecap:square;stroke-width:0.8;"/>
     </g>
     <g id="line2d_4">
      <g>
       <use style="stroke:#000000;stroke-width:0.8;" x="129.433795" xlink:href="#m005f0a59be" y="279.010828"/>
      </g>
     </g>
     <g id="text_2">
      <!-- 20 -->
      <defs>
       <path d="M 19.1875 8.296875 
L 53.609375 8.296875 
L 53.609375 0 
L 7.328125 0 
L 7.328125 8.296875 
Q 12.9375 14.109375 22.625 23.890625 
Q 32.328125 33.6875 34.8125 36.53125 
Q 39.546875 41.84375 41.421875 45.53125 
Q 43.3125 49.21875 43.3125 52.78125 
Q 43.3125 58.59375 39.234375 62.25 
Q 35.15625 65.921875 28.609375 65.921875 
Q 23.96875 65.921875 18.8125 64.3125 
Q 13.671875 62.703125 7.8125 59.421875 
L 7.8125 69.390625 
Q 13.765625 71.78125 18.9375 73 
Q 24.125 74.21875 28.421875 74.21875 
Q 39.75 74.21875 46.484375 68.546875 
Q 53.21875 62.890625 53.21875 53.421875 
Q 53.21875 48.921875 51.53125 44.890625 
Q 49.859375 40.875 45.40625 35.40625 
Q 44.1875 33.984375 37.640625 27.21875 
Q 31.109375 20.453125 19.1875 8.296875 
z
" id="DejaVuSans-32"/>
      </defs>
      <g transform="translate(119.890045 297.408484)scale(0.15 -0.15)">
       <use xlink:href="#DejaVuSans-32"/>
       <use x="63.623047" xlink:href="#DejaVuSans-30"/>
      </g>
     </g>
    </g>
    <g id="xtick_3">
     <g id="line2d_5">
      <path clip-path="url(#p304c686b55)" d="M 197.456652 279.010828 
L 197.456652 12.898828 
" style="fill:none;stroke:#b0b0b0;stroke-linecap:square;stroke-width:0.8;"/>
     </g>
     <g id="line2d_6">
      <g>
       <use style="stroke:#000000;stroke-width:0.8;" x="197.456652" xlink:href="#m005f0a59be" y="279.010828"/>
      </g>
     </g>
     <g id="text_3">
      <!-- 40 -->
      <defs>
       <path d="M 37.796875 64.3125 
L 12.890625 25.390625 
L 37.796875 25.390625 
z
M 35.203125 72.90625 
L 47.609375 72.90625 
L 47.609375 25.390625 
L 58.015625 25.390625 
L 58.015625 17.1875 
L 47.609375 17.1875 
L 47.609375 0 
L 37.796875 0 
L 37.796875 17.1875 
L 4.890625 17.1875 
L 4.890625 26.703125 
z
" id="DejaVuSans-34"/>
      </defs>
      <g transform="translate(187.912902 297.408484)scale(0.15 -0.15)">
       <use xlink:href="#DejaVuSans-34"/>
       <use x="63.623047" xlink:href="#DejaVuSans-30"/>
      </g>
     </g>
    </g>
    <g id="xtick_4">
     <g id="line2d_7">
      <path clip-path="url(#p304c686b55)" d="M 265.479509 279.010828 
L 265.479509 12.898828 
" style="fill:none;stroke:#b0b0b0;stroke-linecap:square;stroke-width:0.8;"/>
     </g>
     <g id="line2d_8">
      <g>
       <use style="stroke:#000000;stroke-width:0.8;" x="265.479509" xlink:href="#m005f0a59be" y="279.010828"/>
      </g>
     </g>
     <g id="text_4">
      <!-- 60 -->
      <defs>
       <path d="M 33.015625 40.375 
Q 26.375 40.375 22.484375 35.828125 
Q 18.609375 31.296875 18.609375 23.390625 
Q 18.609375 15.53125 22.484375 10.953125 
Q 26.375 6.390625 33.015625 6.390625 
Q 39.65625 6.390625 43.53125 10.953125 
Q 47.40625 15.53125 47.40625 23.390625 
Q 47.40625 31.296875 43.53125 35.828125 
Q 39.65625 40.375 33.015625 40.375 
z
M 52.59375 71.296875 
L 52.59375 62.3125 
Q 48.875 64.0625 45.09375 64.984375 
Q 41.3125 65.921875 37.59375 65.921875 
Q 27.828125 65.921875 22.671875 59.328125 
Q 17.53125 52.734375 16.796875 39.40625 
Q 19.671875 43.65625 24.015625 45.921875 
Q 28.375 48.1875 33.59375 48.1875 
Q 44.578125 48.1875 50.953125 41.515625 
Q 57.328125 34.859375 57.328125 23.390625 
Q 57.328125 12.15625 50.6875 5.359375 
Q 44.046875 -1.421875 33.015625 -1.421875 
Q 20.359375 -1.421875 13.671875 8.265625 
Q 6.984375 17.96875 6.984375 36.375 
Q 6.984375 53.65625 15.1875 63.9375 
Q 23.390625 74.21875 37.203125 74.21875 
Q 40.921875 74.21875 44.703125 73.484375 
Q 48.484375 72.75 52.59375 71.296875 
z
" id="DejaVuSans-36"/>
      </defs>
      <g transform="translate(255.935759 297.408484)scale(0.15 -0.15)">
       <use xlink:href="#DejaVuSans-36"/>
       <use x="63.623047" xlink:href="#DejaVuSans-30"/>
      </g>
     </g>
    </g>
    <g id="xtick_5">
     <g id="line2d_9">
      <path clip-path="url(#p304c686b55)" d="M 333.502366 279.010828 
L 333.502366 12.898828 
" style="fill:none;stroke:#b0b0b0;stroke-linecap:square;stroke-width:0.8;"/>
     </g>
     <g id="line2d_10">
      <g>
       <use style="stroke:#000000;stroke-width:0.8;" x="333.502366" xlink:href="#m005f0a59be" y="279.010828"/>
      </g>
     </g>
     <g id="text_5">
      <!-- 80 -->
      <defs>
       <path d="M 31.78125 34.625 
Q 24.75 34.625 20.71875 30.859375 
Q 16.703125 27.09375 16.703125 20.515625 
Q 16.703125 13.921875 20.71875 10.15625 
Q 24.75 6.390625 31.78125 6.390625 
Q 38.8125 6.390625 42.859375 10.171875 
Q 46.921875 13.96875 46.921875 20.515625 
Q 46.921875 27.09375 42.890625 30.859375 
Q 38.875 34.625 31.78125 34.625 
z
M 21.921875 38.8125 
Q 15.578125 40.375 12.03125 44.71875 
Q 8.5 49.078125 8.5 55.328125 
Q 8.5 64.0625 14.71875 69.140625 
Q 20.953125 74.21875 31.78125 74.21875 
Q 42.671875 74.21875 48.875 69.140625 
Q 55.078125 64.0625 55.078125 55.328125 
Q 55.078125 49.078125 51.53125 44.71875 
Q 48 40.375 41.703125 38.8125 
Q 48.828125 37.15625 52.796875 32.3125 
Q 56.78125 27.484375 56.78125 20.515625 
Q 56.78125 9.90625 50.3125 4.234375 
Q 43.84375 -1.421875 31.78125 -1.421875 
Q 19.734375 -1.421875 13.25 4.234375 
Q 6.78125 9.90625 6.78125 20.515625 
Q 6.78125 27.484375 10.78125 32.3125 
Q 14.796875 37.15625 21.921875 38.8125 
z
M 18.3125 54.390625 
Q 18.3125 48.734375 21.84375 45.5625 
Q 25.390625 42.390625 31.78125 42.390625 
Q 38.140625 42.390625 41.71875 45.5625 
Q 45.3125 48.734375 45.3125 54.390625 
Q 45.3125 60.0625 41.71875 63.234375 
Q 38.140625 66.40625 31.78125 66.40625 
Q 25.390625 66.40625 21.84375 63.234375 
Q 18.3125 60.0625 18.3125 54.390625 
z
" id="DejaVuSans-38"/>
      </defs>
      <g transform="translate(323.958616 297.408484)scale(0.15 -0.15)">
       <use xlink:href="#DejaVuSans-38"/>
       <use x="63.623047" xlink:href="#DejaVuSans-30"/>
      </g>
     </g>
    </g>
    <g id="xtick_6">
     <g id="line2d_11">
      <path clip-path="url(#p304c686b55)" d="M 401.525223 279.010828 
L 401.525223 12.898828 
" style="fill:none;stroke:#b0b0b0;stroke-linecap:square;stroke-width:0.8;"/>
     </g>
     <g id="line2d_12">
      <g>
       <use style="stroke:#000000;stroke-width:0.8;" x="401.525223" xlink:href="#m005f0a59be" y="279.010828"/>
      </g>
     </g>
     <g id="text_6">
      <!-- 100 -->
      <defs>
       <path d="M 12.40625 8.296875 
L 28.515625 8.296875 
L 28.515625 63.921875 
L 10.984375 60.40625 
L 10.984375 69.390625 
L 28.421875 72.90625 
L 38.28125 72.90625 
L 38.28125 8.296875 
L 54.390625 8.296875 
L 54.390625 0 
L 12.40625 0 
z
" id="DejaVuSans-31"/>
      </defs>
      <g transform="translate(387.209598 297.408484)scale(0.15 -0.15)">
       <use xlink:href="#DejaVuSans-31"/>
       <use x="63.623047" xlink:href="#DejaVuSans-30"/>
       <use x="127.246094" xlink:href="#DejaVuSans-30"/>
      </g>
     </g>
    </g>
    <g id="text_7">
     <!-- Time ($\mu s$) -->
     <defs>
      <path d="M -0.296875 72.90625 
L 61.375 72.90625 
L 61.375 64.59375 
L 35.5 64.59375 
L 35.5 0 
L 25.59375 0 
L 25.59375 64.59375 
L -0.296875 64.59375 
z
" id="DejaVuSans-54"/>
      <path d="M 9.421875 54.6875 
L 18.40625 54.6875 
L 18.40625 0 
L 9.421875 0 
z
M 9.421875 75.984375 
L 18.40625 75.984375 
L 18.40625 64.59375 
L 9.421875 64.59375 
z
" id="DejaVuSans-69"/>
      <path d="M 52 44.1875 
Q 55.375 50.25 60.0625 53.125 
Q 64.75 56 71.09375 56 
Q 79.640625 56 84.28125 50.015625 
Q 88.921875 44.046875 88.921875 33.015625 
L 88.921875 0 
L 79.890625 0 
L 79.890625 32.71875 
Q 79.890625 40.578125 77.09375 44.375 
Q 74.3125 48.1875 68.609375 48.1875 
Q 61.625 48.1875 57.5625 43.546875 
Q 53.515625 38.921875 53.515625 30.90625 
L 53.515625 0 
L 44.484375 0 
L 44.484375 32.71875 
Q 44.484375 40.625 41.703125 44.40625 
Q 38.921875 48.1875 33.109375 48.1875 
Q 26.21875 48.1875 22.15625 43.53125 
Q 18.109375 38.875 18.109375 30.90625 
L 18.109375 0 
L 9.078125 0 
L 9.078125 54.6875 
L 18.109375 54.6875 
L 18.109375 46.1875 
Q 21.1875 51.21875 25.484375 53.609375 
Q 29.78125 56 35.6875 56 
Q 41.65625 56 45.828125 52.96875 
Q 50 49.953125 52 44.1875 
z
" id="DejaVuSans-6d"/>
      <path d="M 56.203125 29.59375 
L 56.203125 25.203125 
L 14.890625 25.203125 
Q 15.484375 15.921875 20.484375 11.0625 
Q 25.484375 6.203125 34.421875 6.203125 
Q 39.59375 6.203125 44.453125 7.46875 
Q 49.3125 8.734375 54.109375 11.28125 
L 54.109375 2.78125 
Q 49.265625 0.734375 44.1875 -0.34375 
Q 39.109375 -1.421875 33.890625 -1.421875 
Q 20.796875 -1.421875 13.15625 6.1875 
Q 5.515625 13.8125 5.515625 26.8125 
Q 5.515625 40.234375 12.765625 48.109375 
Q 20.015625 56 32.328125 56 
Q 43.359375 56 49.78125 48.890625 
Q 56.203125 41.796875 56.203125 29.59375 
z
M 47.21875 32.234375 
Q 47.125 39.59375 43.09375 43.984375 
Q 39.0625 48.390625 32.421875 48.390625 
Q 24.90625 48.390625 20.390625 44.140625 
Q 15.875 39.890625 15.1875 32.171875 
z
" id="DejaVuSans-65"/>
      <path id="DejaVuSans-20"/>
      <path d="M 31 75.875 
Q 24.46875 64.65625 21.28125 53.65625 
Q 18.109375 42.671875 18.109375 31.390625 
Q 18.109375 20.125 21.3125 9.0625 
Q 24.515625 -2 31 -13.1875 
L 23.1875 -13.1875 
Q 15.875 -1.703125 12.234375 9.375 
Q 8.59375 20.453125 8.59375 31.390625 
Q 8.59375 42.28125 12.203125 53.3125 
Q 15.828125 64.359375 23.1875 75.875 
z
" id="DejaVuSans-28"/>
      <path d="M -1.3125 -20.796875 
L 13.375 54.6875 
L 22.40625 54.6875 
L 15.765625 20.65625 
Q 15.578125 19.625 15.421875 18.359375 
Q 15.28125 17.09375 15.28125 15.828125 
Q 15.28125 11.28125 18.140625 8.828125 
Q 21 6.390625 26.3125 6.390625 
Q 33.546875 6.390625 37.984375 10.484375 
Q 42.4375 14.59375 44 22.796875 
L 50.203125 54.6875 
L 59.1875 54.6875 
L 51.03125 12.640625 
Q 50.828125 11.71875 50.75 11.03125 
Q 50.6875 10.359375 50.6875 9.8125 
Q 50.6875 8.296875 51.296875 7.59375 
Q 51.90625 6.890625 53.21875 6.890625 
Q 53.71875 6.890625 54.5625 7.125 
Q 55.421875 7.375 56.984375 8.015625 
L 55.609375 0.78125 
Q 53.46875 -0.296875 51.515625 -0.859375 
Q 49.5625 -1.421875 47.703125 -1.421875 
Q 44.484375 -1.421875 42.65625 0.625 
Q 40.828125 2.6875 40.828125 6.296875 
Q 38.09375 2.390625 34.296875 0.484375 
Q 30.515625 -1.421875 25.390625 -1.421875 
Q 20.84375 -1.421875 17.453125 0.671875 
Q 14.0625 2.78125 12.984375 6.203125 
L 7.71875 -20.796875 
z
" id="DejaVuSans-Oblique-3bc"/>
      <path d="M 50 53.078125 
L 48.296875 44.578125 
Q 44.734375 46.53125 40.765625 47.5 
Q 36.8125 48.484375 32.625 48.484375 
Q 25.53125 48.484375 21.453125 46.0625 
Q 17.390625 43.65625 17.390625 39.5 
Q 17.390625 34.671875 26.859375 32.078125 
Q 27.59375 31.890625 27.9375 31.78125 
L 30.8125 30.90625 
Q 39.796875 28.421875 42.796875 25.6875 
Q 45.796875 22.953125 45.796875 18.21875 
Q 45.796875 9.515625 38.890625 4.046875 
Q 31.984375 -1.421875 20.796875 -1.421875 
Q 16.453125 -1.421875 11.671875 -0.578125 
Q 6.890625 0.25 1.125 2 
L 2.875 11.28125 
Q 7.8125 8.734375 12.59375 7.421875 
Q 17.390625 6.109375 21.78125 6.109375 
Q 28.375 6.109375 32.5 8.9375 
Q 36.625 11.765625 36.625 16.109375 
Q 36.625 20.796875 25.78125 23.6875 
L 24.859375 23.921875 
L 21.78125 24.703125 
Q 14.9375 26.515625 11.765625 29.46875 
Q 8.59375 32.421875 8.59375 37.015625 
Q 8.59375 45.75 15.15625 50.875 
Q 21.734375 56 33.015625 56 
Q 37.453125 56 41.671875 55.265625 
Q 45.90625 54.546875 50 53.078125 
z
" id="DejaVuSans-Oblique-73"/>
      <path d="M 8.015625 75.875 
L 15.828125 75.875 
Q 23.140625 64.359375 26.78125 53.3125 
Q 30.421875 42.28125 30.421875 31.390625 
Q 30.421875 20.453125 26.78125 9.375 
Q 23.140625 -1.703125 15.828125 -13.1875 
L 8.015625 -13.1875 
Q 14.5 -2 17.703125 9.0625 
Q 20.90625 20.125 20.90625 31.390625 
Q 20.90625 42.671875 17.703125 53.65625 
Q 14.5 64.65625 8.015625 75.875 
z
" id="DejaVuSans-29"/>
     </defs>
     <g transform="translate(192.570938 319.728016)scale(0.2 -0.2)">
      <use transform="translate(0 0.015625)" xlink:href="#DejaVuSans-54"/>
      <use transform="translate(61.083984 0.015625)" xlink:href="#DejaVuSans-69"/>
      <use transform="translate(88.867188 0.015625)" xlink:href="#DejaVuSans-6d"/>
      <use transform="translate(186.279297 0.015625)" xlink:href="#DejaVuSans-65"/>
      <use transform="translate(247.802734 0.015625)" xlink:href="#DejaVuSans-20"/>
      <use transform="translate(279.589844 0.015625)" xlink:href="#DejaVuSans-28"/>
      <use transform="translate(318.603516 0.015625)" xlink:href="#DejaVuSans-Oblique-3bc"/>
      <use transform="translate(382.226562 0.015625)" xlink:href="#DejaVuSans-Oblique-73"/>
      <use transform="translate(434.326172 0.015625)" xlink:href="#DejaVuSans-29"/>
     </g>
    </g>
   </g>
   <g id="matplotlib.axis_2">
    <g id="ytick_1">
     <g id="line2d_13">
      <path clip-path="url(#p304c686b55)" d="M 61.410938 279.010828 
L 418.530938 279.010828 
" style="fill:none;stroke:#b0b0b0;stroke-linecap:square;stroke-width:0.8;"/>
     </g>
     <g id="line2d_14">
      <defs>
       <path d="M 0 0 
L -3.5 0 
" id="mc3ce260a5b" style="stroke:#000000;stroke-width:0.8;"/>
      </defs>
      <g>
       <use style="stroke:#000000;stroke-width:0.8;" x="61.410938" xlink:href="#mc3ce260a5b" y="279.010828"/>
      </g>
     </g>
     <g id="text_8">
      <!-- 0.0 -->
      <defs>
       <path d="M 10.6875 12.40625 
L 21 12.40625 
L 21 0 
L 10.6875 0 
z
" id="DejaVuSans-2e"/>
      </defs>
      <g transform="translate(30.55625 284.709656)scale(0.15 -0.15)">
       <use xlink:href="#DejaVuSans-30"/>
       <use x="63.623047" xlink:href="#DejaVuSans-2e"/>
       <use x="95.410156" xlink:href="#DejaVuSans-30"/>
      </g>
     </g>
    </g>
    <g id="ytick_2">
     <g id="line2d_15">
      <path clip-path="url(#p304c686b55)" d="M 61.410938 225.788428 
L 418.530938 225.788428 
" style="fill:none;stroke:#b0b0b0;stroke-linecap:square;stroke-width:0.8;"/>
     </g>
     <g id="line2d_16">
      <g>
       <use style="stroke:#000000;stroke-width:0.8;" x="61.410938" xlink:href="#mc3ce260a5b" y="225.788428"/>
      </g>
     </g>
     <g id="text_9">
      <!-- 0.2 -->
      <g transform="translate(30.55625 231.487256)scale(0.15 -0.15)">
       <use xlink:href="#DejaVuSans-30"/>
       <use x="63.623047" xlink:href="#DejaVuSans-2e"/>
       <use x="95.410156" xlink:href="#DejaVuSans-32"/>
      </g>
     </g>
    </g>
    <g id="ytick_3">
     <g id="line2d_17">
      <path clip-path="url(#p304c686b55)" d="M 61.410938 172.566028 
L 418.530938 172.566028 
" style="fill:none;stroke:#b0b0b0;stroke-linecap:square;stroke-width:0.8;"/>
     </g>
     <g id="line2d_18">
      <g>
       <use style="stroke:#000000;stroke-width:0.8;" x="61.410938" xlink:href="#mc3ce260a5b" y="172.566028"/>
      </g>
     </g>
     <g id="text_10">
      <!-- 0.4 -->
      <g transform="translate(30.55625 178.264856)scale(0.15 -0.15)">
       <use xlink:href="#DejaVuSans-30"/>
       <use x="63.623047" xlink:href="#DejaVuSans-2e"/>
       <use x="95.410156" xlink:href="#DejaVuSans-34"/>
      </g>
     </g>
    </g>
    <g id="ytick_4">
     <g id="line2d_19">
      <path clip-path="url(#p304c686b55)" d="M 61.410938 119.343628 
L 418.530938 119.343628 
" style="fill:none;stroke:#b0b0b0;stroke-linecap:square;stroke-width:0.8;"/>
     </g>
     <g id="line2d_20">
      <g>
       <use style="stroke:#000000;stroke-width:0.8;" x="61.410938" xlink:href="#mc3ce260a5b" y="119.343628"/>
      </g>
     </g>
     <g id="text_11">
      <!-- 0.6 -->
      <g transform="translate(30.55625 125.042456)scale(0.15 -0.15)">
       <use xlink:href="#DejaVuSans-30"/>
       <use x="63.623047" xlink:href="#DejaVuSans-2e"/>
       <use x="95.410156" xlink:href="#DejaVuSans-36"/>
      </g>
     </g>
    </g>
    <g id="ytick_5">
     <g id="line2d_21">
      <path clip-path="url(#p304c686b55)" d="M 61.410938 66.121228 
L 418.530938 66.121228 
" style="fill:none;stroke:#b0b0b0;stroke-linecap:square;stroke-width:0.8;"/>
     </g>
     <g id="line2d_22">
      <g>
       <use style="stroke:#000000;stroke-width:0.8;" x="61.410938" xlink:href="#mc3ce260a5b" y="66.121228"/>
      </g>
     </g>
     <g id="text_12">
      <!-- 0.8 -->
      <g transform="translate(30.55625 71.820056)scale(0.15 -0.15)">
       <use xlink:href="#DejaVuSans-30"/>
       <use x="63.623047" xlink:href="#DejaVuSans-2e"/>
       <use x="95.410156" xlink:href="#DejaVuSans-38"/>
      </g>
     </g>
    </g>
    <g id="ytick_6">
     <g id="line2d_23">
      <path clip-path="url(#p304c686b55)" d="M 61.410938 12.898828 
L 418.530938 12.898828 
" style="fill:none;stroke:#b0b0b0;stroke-linecap:square;stroke-width:0.8;"/>
     </g>
     <g id="line2d_24">
      <g>
       <use style="stroke:#000000;stroke-width:0.8;" x="61.410938" xlink:href="#mc3ce260a5b" y="12.898828"/>
      </g>
     </g>
     <g id="text_13">
      <!-- 1.0 -->
      <g transform="translate(30.55625 18.597656)scale(0.15 -0.15)">
       <use xlink:href="#DejaVuSans-31"/>
       <use x="63.623047" xlink:href="#DejaVuSans-2e"/>
       <use x="95.410156" xlink:href="#DejaVuSans-30"/>
      </g>
     </g>
    </g>
    <g id="text_14">
     <!-- F=1 population -->
     <defs>
      <path d="M 9.8125 72.90625 
L 51.703125 72.90625 
L 51.703125 64.59375 
L 19.671875 64.59375 
L 19.671875 43.109375 
L 48.578125 43.109375 
L 48.578125 34.8125 
L 19.671875 34.8125 
L 19.671875 0 
L 9.8125 0 
z
" id="DejaVuSans-46"/>
      <path d="M 10.59375 45.40625 
L 73.1875 45.40625 
L 73.1875 37.203125 
L 10.59375 37.203125 
z
M 10.59375 25.484375 
L 73.1875 25.484375 
L 73.1875 17.1875 
L 10.59375 17.1875 
z
" id="DejaVuSans-3d"/>
      <path d="M 18.109375 8.203125 
L 18.109375 -20.796875 
L 9.078125 -20.796875 
L 9.078125 54.6875 
L 18.109375 54.6875 
L 18.109375 46.390625 
Q 20.953125 51.265625 25.265625 53.625 
Q 29.59375 56 35.59375 56 
Q 45.5625 56 51.78125 48.09375 
Q 58.015625 40.1875 58.015625 27.296875 
Q 58.015625 14.40625 51.78125 6.484375 
Q 45.5625 -1.421875 35.59375 -1.421875 
Q 29.59375 -1.421875 25.265625 0.953125 
Q 20.953125 3.328125 18.109375 8.203125 
z
M 48.6875 27.296875 
Q 48.6875 37.203125 44.609375 42.84375 
Q 40.53125 48.484375 33.40625 48.484375 
Q 26.265625 48.484375 22.1875 42.84375 
Q 18.109375 37.203125 18.109375 27.296875 
Q 18.109375 17.390625 22.1875 11.75 
Q 26.265625 6.109375 33.40625 6.109375 
Q 40.53125 6.109375 44.609375 11.75 
Q 48.6875 17.390625 48.6875 27.296875 
z
" id="DejaVuSans-70"/>
      <path d="M 30.609375 48.390625 
Q 23.390625 48.390625 19.1875 42.75 
Q 14.984375 37.109375 14.984375 27.296875 
Q 14.984375 17.484375 19.15625 11.84375 
Q 23.34375 6.203125 30.609375 6.203125 
Q 37.796875 6.203125 41.984375 11.859375 
Q 46.1875 17.53125 46.1875 27.296875 
Q 46.1875 37.015625 41.984375 42.703125 
Q 37.796875 48.390625 30.609375 48.390625 
z
M 30.609375 56 
Q 42.328125 56 49.015625 48.375 
Q 55.71875 40.765625 55.71875 27.296875 
Q 55.71875 13.875 49.015625 6.21875 
Q 42.328125 -1.421875 30.609375 -1.421875 
Q 18.84375 -1.421875 12.171875 6.21875 
Q 5.515625 13.875 5.515625 27.296875 
Q 5.515625 40.765625 12.171875 48.375 
Q 18.84375 56 30.609375 56 
z
" id="DejaVuSans-6f"/>
      <path d="M 8.5 21.578125 
L 8.5 54.6875 
L 17.484375 54.6875 
L 17.484375 21.921875 
Q 17.484375 14.15625 20.5 10.265625 
Q 23.53125 6.390625 29.59375 6.390625 
Q 36.859375 6.390625 41.078125 11.03125 
Q 45.3125 15.671875 45.3125 23.6875 
L 45.3125 54.6875 
L 54.296875 54.6875 
L 54.296875 0 
L 45.3125 0 
L 45.3125 8.40625 
Q 42.046875 3.421875 37.71875 1 
Q 33.40625 -1.421875 27.6875 -1.421875 
Q 18.265625 -1.421875 13.375 4.4375 
Q 8.5 10.296875 8.5 21.578125 
z
M 31.109375 56 
z
" id="DejaVuSans-75"/>
      <path d="M 9.421875 75.984375 
L 18.40625 75.984375 
L 18.40625 0 
L 9.421875 0 
z
" id="DejaVuSans-6c"/>
      <path d="M 34.28125 27.484375 
Q 23.390625 27.484375 19.1875 25 
Q 14.984375 22.515625 14.984375 16.5 
Q 14.984375 11.71875 18.140625 8.90625 
Q 21.296875 6.109375 26.703125 6.109375 
Q 34.1875 6.109375 38.703125 11.40625 
Q 43.21875 16.703125 43.21875 25.484375 
L 43.21875 27.484375 
z
M 52.203125 31.203125 
L 52.203125 0 
L 43.21875 0 
L 43.21875 8.296875 
Q 40.140625 3.328125 35.546875 0.953125 
Q 30.953125 -1.421875 24.3125 -1.421875 
Q 15.921875 -1.421875 10.953125 3.296875 
Q 6 8.015625 6 15.921875 
Q 6 25.140625 12.171875 29.828125 
Q 18.359375 34.515625 30.609375 34.515625 
L 43.21875 34.515625 
L 43.21875 35.40625 
Q 43.21875 41.609375 39.140625 45 
Q 35.0625 48.390625 27.6875 48.390625 
Q 23 48.390625 18.546875 47.265625 
Q 14.109375 46.140625 10.015625 43.890625 
L 10.015625 52.203125 
Q 14.9375 54.109375 19.578125 55.046875 
Q 24.21875 56 28.609375 56 
Q 40.484375 56 46.34375 49.84375 
Q 52.203125 43.703125 52.203125 31.203125 
z
" id="DejaVuSans-61"/>
      <path d="M 18.3125 70.21875 
L 18.3125 54.6875 
L 36.8125 54.6875 
L 36.8125 47.703125 
L 18.3125 47.703125 
L 18.3125 18.015625 
Q 18.3125 11.328125 20.140625 9.421875 
Q 21.96875 7.515625 27.59375 7.515625 
L 36.8125 7.515625 
L 36.8125 0 
L 27.59375 0 
Q 17.1875 0 13.234375 3.875 
Q 9.28125 7.765625 9.28125 18.015625 
L 9.28125 47.703125 
L 2.6875 47.703125 
L 2.6875 54.6875 
L 9.28125 54.6875 
L 9.28125 70.21875 
z
" id="DejaVuSans-74"/>
      <path d="M 54.890625 33.015625 
L 54.890625 0 
L 45.90625 0 
L 45.90625 32.71875 
Q 45.90625 40.484375 42.875 44.328125 
Q 39.84375 48.1875 33.796875 48.1875 
Q 26.515625 48.1875 22.3125 43.546875 
Q 18.109375 38.921875 18.109375 30.90625 
L 18.109375 0 
L 9.078125 0 
L 9.078125 54.6875 
L 18.109375 54.6875 
L 18.109375 46.1875 
Q 21.34375 51.125 25.703125 53.5625 
Q 30.078125 56 35.796875 56 
Q 45.21875 56 50.046875 50.171875 
Q 54.890625 44.34375 54.890625 33.015625 
z
" id="DejaVuSans-6e"/>
     </defs>
     <g transform="translate(22.396875 222.840766)rotate(-90)scale(0.2 -0.2)">
      <use xlink:href="#DejaVuSans-46"/>
      <use x="57.519531" xlink:href="#DejaVuSans-3d"/>
      <use x="141.308594" xlink:href="#DejaVuSans-31"/>
      <use x="204.931641" xlink:href="#DejaVuSans-20"/>
      <use x="236.71875" xlink:href="#DejaVuSans-70"/>
      <use x="300.195312" xlink:href="#DejaVuSans-6f"/>
      <use x="361.376953" xlink:href="#DejaVuSans-70"/>
      <use x="424.853516" xlink:href="#DejaVuSans-75"/>
      <use x="488.232422" xlink:href="#DejaVuSans-6c"/>
      <use x="516.015625" xlink:href="#DejaVuSans-61"/>
      <use x="577.294922" xlink:href="#DejaVuSans-74"/>
      <use x="616.503906" xlink:href="#DejaVuSans-69"/>
      <use x="644.287109" xlink:href="#DejaVuSans-6f"/>
      <use x="705.46875" xlink:href="#DejaVuSans-6e"/>
     </g>
    </g>
   </g>
   <g id="LineCollection_1">
    <path clip-path="url(#p304c686b55)" d="M 61.410938 279.010828 
L 61.410938 277.828108 
" style="fill:none;stroke:#1f77b4;stroke-width:1.5;"/>
    <path clip-path="url(#p304c686b55)" d="M 69.913795 223.291573 
L 69.913795 208.792305 
" style="fill:none;stroke:#1f77b4;stroke-width:1.5;"/>
    <path clip-path="url(#p304c686b55)" d="M 78.416652 80.135688 
L 78.416652 64.91027 
" style="fill:none;stroke:#1f77b4;stroke-width:1.5;"/>
    <path clip-path="url(#p304c686b55)" d="M 86.919509 46.209127 
L 86.919509 35.551997 
" style="fill:none;stroke:#1f77b4;stroke-width:1.5;"/>
    <path clip-path="url(#p304c686b55)" d="M 95.422366 157.313684 
L 95.422366 140.139972 
" style="fill:none;stroke:#1f77b4;stroke-width:1.5;"/>
    <path clip-path="url(#p304c686b55)" d="M 103.925223 274.154652 
L 103.925223 268.213357 
" style="fill:none;stroke:#1f77b4;stroke-width:1.5;"/>
    <path clip-path="url(#p304c686b55)" d="M 112.42808 231.620047 
L 112.42808 218.025352 
" style="fill:none;stroke:#1f77b4;stroke-width:1.5;"/>
    <path clip-path="url(#p304c686b55)" d="M 120.930938 106.526666 
L 120.930938 90.006565 
" style="fill:none;stroke:#1f77b4;stroke-width:1.5;"/>
    <path clip-path="url(#p304c686b55)" d="M 129.433795 47.893253 
L 129.433795 36.911847 
" style="fill:none;stroke:#1f77b4;stroke-width:1.5;"/>
    <path clip-path="url(#p304c686b55)" d="M 137.936652 155.306702 
L 137.936652 137.759963 
" style="fill:none;stroke:#1f77b4;stroke-width:1.5;"/>
    <path clip-path="url(#p304c686b55)" d="M 146.439509 265.204699 
L 146.439509 256.314869 
" style="fill:none;stroke:#1f77b4;stroke-width:1.5;"/>
    <path clip-path="url(#p304c686b55)" d="M 154.942366 244.603448 
L 154.942366 231.631493 
" style="fill:none;stroke:#1f77b4;stroke-width:1.5;"/>
    <path clip-path="url(#p304c686b55)" d="M 163.445223 114.491977 
L 163.445223 98.031327 
" style="fill:none;stroke:#1f77b4;stroke-width:1.5;"/>
    <path clip-path="url(#p304c686b55)" d="M 171.94808 37.865832 
L 171.94808 28.787193 
" style="fill:none;stroke:#1f77b4;stroke-width:1.5;"/>
    <path clip-path="url(#p304c686b55)" d="M 180.450938 152.386103 
L 180.450938 134.955107 
" style="fill:none;stroke:#1f77b4;stroke-width:1.5;"/>
    <path clip-path="url(#p304c686b55)" d="M 188.953795 259.133198 
L 188.953795 249.199496 
" style="fill:none;stroke:#1f77b4;stroke-width:1.5;"/>
    <path clip-path="url(#p304c686b55)" d="M 197.456652 257.018719 
L 197.456652 246.386063 
" style="fill:none;stroke:#1f77b4;stroke-width:1.5;"/>
    <path clip-path="url(#p304c686b55)" d="M 205.959509 125.260711 
L 205.959509 108.033967 
" style="fill:none;stroke:#1f77b4;stroke-width:1.5;"/>
    <path clip-path="url(#p304c686b55)" d="M 214.462366 48.446071 
L 214.462366 36.909985 
" style="fill:none;stroke:#1f77b4;stroke-width:1.5;"/>
    <path clip-path="url(#p304c686b55)" d="M 222.965223 112.646022 
L 222.965223 95.73072 
" style="fill:none;stroke:#1f77b4;stroke-width:1.5;"/>
    <path clip-path="url(#p304c686b55)" d="M 231.46808 228.478179 
L 231.46808 213.790724 
" style="fill:none;stroke:#1f77b4;stroke-width:1.5;"/>
    <path clip-path="url(#p304c686b55)" d="M 239.970938 257.408808 
L 239.970938 246.671227 
" style="fill:none;stroke:#1f77b4;stroke-width:1.5;"/>
    <path clip-path="url(#p304c686b55)" d="M 248.473795 152.495417 
L 248.473795 134.597732 
" style="fill:none;stroke:#1f77b4;stroke-width:1.5;"/>
    <path clip-path="url(#p304c686b55)" d="M 256.976652 46.448476 
L 256.976652 35.89798 
" style="fill:none;stroke:#1f77b4;stroke-width:1.5;"/>
    <path clip-path="url(#p304c686b55)" d="M 265.479509 90.750202 
L 265.479509 75.168375 
" style="fill:none;stroke:#1f77b4;stroke-width:1.5;"/>
    <path clip-path="url(#p304c686b55)" d="M 273.982366 216.174146 
L 273.982366 200.621405 
" style="fill:none;stroke:#1f77b4;stroke-width:1.5;"/>
    <path clip-path="url(#p304c686b55)" d="M 282.485223 253.960456 
L 282.485223 242.262679 
" style="fill:none;stroke:#1f77b4;stroke-width:1.5;"/>
    <path clip-path="url(#p304c686b55)" d="M 290.98808 179.251198 
L 290.98808 161.895039 
" style="fill:none;stroke:#1f77b4;stroke-width:1.5;"/>
    <path clip-path="url(#p304c686b55)" d="M 299.490938 74.530696 
L 299.490938 60.290819 
" style="fill:none;stroke:#1f77b4;stroke-width:1.5;"/>
    <path clip-path="url(#p304c686b55)" d="M 307.993795 92.127523 
L 307.993795 76.315754 
" style="fill:none;stroke:#1f77b4;stroke-width:1.5;"/>
    <path clip-path="url(#p304c686b55)" d="M 316.496652 214.175533 
L 316.496652 198.371563 
" style="fill:none;stroke:#1f77b4;stroke-width:1.5;"/>
    <path clip-path="url(#p304c686b55)" d="M 324.999509 258.775721 
L 324.999509 248.388975 
" style="fill:none;stroke:#1f77b4;stroke-width:1.5;"/>
    <path clip-path="url(#p304c686b55)" d="M 333.502366 185.722453 
L 333.502366 168.073715 
" style="fill:none;stroke:#1f77b4;stroke-width:1.5;"/>
    <path clip-path="url(#p304c686b55)" d="M 342.005223 67.652155 
L 342.005223 54.177223 
" style="fill:none;stroke:#1f77b4;stroke-width:1.5;"/>
    <path clip-path="url(#p304c686b55)" d="M 350.50808 72.054685 
L 350.50808 58.703481 
" style="fill:none;stroke:#1f77b4;stroke-width:1.5;"/>
    <path clip-path="url(#p304c686b55)" d="M 359.010938 180.940234 
L 359.010938 163.966304 
" style="fill:none;stroke:#1f77b4;stroke-width:1.5;"/>
    <path clip-path="url(#p304c686b55)" d="M 367.513795 242.785629 
L 367.513795 229.43356 
" style="fill:none;stroke:#1f77b4;stroke-width:1.5;"/>
    <path clip-path="url(#p304c686b55)" d="M 376.016652 198.342675 
L 376.016652 181.003781 
" style="fill:none;stroke:#1f77b4;stroke-width:1.5;"/>
    <path clip-path="url(#p304c686b55)" d="M 384.519509 94.170723 
L 384.519509 78.718376 
" style="fill:none;stroke:#1f77b4;stroke-width:1.5;"/>
    <path clip-path="url(#p304c686b55)" d="M 393.022366 82.43563 
L 393.022366 67.047886 
" style="fill:none;stroke:#1f77b4;stroke-width:1.5;"/>
    <path clip-path="url(#p304c686b55)" d="M 401.525223 185.761045 
L 401.525223 168.555407 
" style="fill:none;stroke:#1f77b4;stroke-width:1.5;"/>
   </g>
   <g id="LineCollection_2">
    <path clip-path="url(#p304c686b55)" d="M 61.410938 274.780846 
L 61.410938 267.789145 
" style="fill:none;stroke:#d62728;stroke-width:1.5;"/>
    <path clip-path="url(#p304c686b55)" d="M 69.913795 237.845983 
L 69.913795 221.794873 
" style="fill:none;stroke:#d62728;stroke-width:1.5;"/>
    <path clip-path="url(#p304c686b55)" d="M 78.416652 137.513864 
L 78.416652 117.478521 
" style="fill:none;stroke:#d62728;stroke-width:1.5;"/>
    <path clip-path="url(#p304c686b55)" d="M 86.919509 88.584288 
L 86.919509 70.269368 
" style="fill:none;stroke:#d62728;stroke-width:1.5;"/>
    <path clip-path="url(#p304c686b55)" d="M 95.422366 109.242968 
L 95.422366 90.434688 
" style="fill:none;stroke:#d62728;stroke-width:1.5;"/>
    <path clip-path="url(#p304c686b55)" d="M 103.925223 198.010646 
L 103.925223 177.172154 
" style="fill:none;stroke:#d62728;stroke-width:1.5;"/>
    <path clip-path="url(#p304c686b55)" d="M 112.42808 191.843153 
L 112.42808 171.584103 
" style="fill:none;stroke:#d62728;stroke-width:1.5;"/>
    <path clip-path="url(#p304c686b55)" d="M 120.930938 149.052816 
L 120.930938 128.429082 
" style="fill:none;stroke:#d62728;stroke-width:1.5;"/>
    <path clip-path="url(#p304c686b55)" d="M 129.433795 133.181616 
L 129.433795 112.07204 
" style="fill:none;stroke:#d62728;stroke-width:1.5;"/>
    <path clip-path="url(#p304c686b55)" d="M 137.936652 134.606332 
L 137.936652 113.788155 
" style="fill:none;stroke:#d62728;stroke-width:1.5;"/>
    <path clip-path="url(#p304c686b55)" d="M 146.439509 167.368943 
L 146.439509 146.849504 
" style="fill:none;stroke:#d62728;stroke-width:1.5;"/>
    <path clip-path="url(#p304c686b55)" d="M 154.942366 194.092099 
L 154.942366 174.72854 
" style="fill:none;stroke:#d62728;stroke-width:1.5;"/>
    <path clip-path="url(#p304c686b55)" d="M 163.445223 180.209268 
L 163.445223 158.970283 
" style="fill:none;stroke:#d62728;stroke-width:1.5;"/>
    <path clip-path="url(#p304c686b55)" d="M 171.94808 132.151673 
L 171.94808 109.981638 
" style="fill:none;stroke:#d62728;stroke-width:1.5;"/>
    <path clip-path="url(#p304c686b55)" d="M 180.450938 139.536973 
L 180.450938 118.473066 
" style="fill:none;stroke:#d62728;stroke-width:1.5;"/>
    <path clip-path="url(#p304c686b55)" d="M 188.953795 157.155879 
L 188.953795 136.376412 
" style="fill:none;stroke:#d62728;stroke-width:1.5;"/>
   </g>
   <g id="line2d_25">
    <path clip-path="url(#p304c686b55)" d="M 61.410938 278.518987 
L 61.768058 278.518987 
L 62.125178 278.188961 
L 62.482298 277.345193 
L 62.839418 276.008084 
L 63.196538 275.37916 
L 64.625018 266.060903 
L 66.053498 251.839261 
L 66.410618 248.049334 
L 67.124858 239.142603 
L 68.196218 224.641383 
L 68.553338 217.04088 
L 69.267578 207.257876 
L 76.409978 83.396329 
L 76.767098 79.556763 
L 77.838458 63.275582 
L 78.552698 55.969422 
L 79.266938 48.277039 
L 79.981178 41.413016 
L 80.338298 40.304087 
L 81.052538 34.152969 
L 81.409658 32.819812 
L 81.766778 29.791501 
L 82.481018 28.240204 
L 82.838138 27.993444 
L 83.195258 27.067669 
L 83.552378 27.684889 
L 83.909498 27.766992 
L 84.266618 28.85185 
L 84.623738 29.28944 
L 84.980858 30.531117 
L 85.337978 32.859307 
L 85.695098 34.215113 
L 87.123578 45.359897 
L 87.837818 52.935501 
L 88.194938 55.921015 
L 89.266298 69.437626 
L 91.051898 95.403223 
L 93.194618 132.214327 
L 94.265978 150.701131 
L 94.980218 164.083866 
L 95.694458 175.927059 
L 96.408698 188.675804 
L 97.837178 212.502387 
L 99.622778 238.58709 
L 101.051258 254.559212 
L 101.408378 257.140777 
L 102.479738 266.909211 
L 102.836858 269.630388 
L 103.193978 270.777181 
L 103.551098 273.378447 
L 104.622458 276.273663 
L 104.979578 276.090351 
L 105.693818 277.098432 
L 106.050938 275.160483 
L 106.408058 276.183919 
L 106.765178 272.65467 
L 107.479418 270.99646 
L 107.836538 268.71881 
L 108.193658 265.234941 
L 108.550778 263.766974 
L 108.907898 259.712247 
L 109.265018 257.215846 
L 109.979258 250.089457 
L 111.050618 237.03133 
L 114.264698 188.013076 
L 118.193018 119.443815 
L 118.550138 114.772355 
L 118.907258 107.588385 
L 119.264378 102.941306 
L 120.335738 85.175283 
L 122.835578 52.764503 
L 123.192698 51.135477 
L 123.549818 47.224449 
L 123.906938 45.345586 
L 124.264058 41.186812 
L 124.621178 40.115847 
L 125.335418 36.011918 
L 126.049658 34.021317 
L 126.406778 32.235893 
L 127.121018 30.184417 
L 127.478138 31.634806 
L 127.835258 31.971448 
L 128.192378 30.894154 
L 128.549498 33.317237 
L 128.906618 33.848204 
L 129.620858 38.218273 
L 129.977978 40.077124 
L 130.335098 44.031981 
L 130.692218 45.833919 
L 132.120698 59.870875 
L 133.549178 77.004092 
L 134.263418 87.756074 
L 134.977658 99.002275 
L 136.763258 127.936722 
L 137.120378 135.186325 
L 137.477498 140.080137 
L 138.548858 158.7229 
L 141.405818 205.878899 
L 142.120058 216.293537 
L 142.477178 222.284629 
L 142.834298 225.963118 
L 144.262778 245.335642 
L 146.762618 265.532165 
L 147.476858 269.715023 
L 147.833978 270.664175 
L 148.191098 271.264908 
L 148.548218 273.06522 
L 148.905338 271.587792 
L 149.619578 273.151077 
L 149.976698 271.86145 
L 150.690938 269.993437 
L 151.048058 268.915722 
L 151.405178 267.105476 
L 152.119418 261.398469 
L 152.476538 259.883981 
L 152.833658 255.666608 
L 153.547898 249.694202 
L 154.619258 237.687059 
L 157.476218 197.926313 
L 158.904698 173.20424 
L 159.618938 161.974741 
L 161.047418 137.590116 
L 162.833018 107.800653 
L 163.904378 92.139953 
L 164.261498 88.321684 
L 164.618618 81.930696 
L 165.332858 73.501659 
L 166.404218 60.821973 
L 166.761338 58.562678 
L 167.832698 48.385143 
L 169.261178 40.304087 
L 169.618298 39.860832 
L 169.975418 36.930371 
L 170.332538 35.845466 
L 170.689658 36.16961 
L 171.046778 36.299534 
L 171.403898 36.955057 
L 171.761018 36.782257 
L 172.118138 37.477623 
L 172.832378 40.787654 
L 173.189498 42.522216 
L 173.546618 43.673132 
L 173.903738 46.66404 
L 174.260858 47.960937 
L 175.332218 58.406555 
L 175.689338 60.745357 
L 176.403578 68.51182 
L 176.760698 74.163549 
L 177.117818 77.388833 
L 179.617658 113.411175 
L 181.760378 149.029931 
L 182.831738 166.783688 
L 184.260218 189.321757 
L 185.688698 212.543966 
L 186.045818 216.379876 
L 186.760058 226.145988 
L 187.474298 234.437818 
L 188.188538 243.012599 
L 188.545658 246.598715 
L 188.902778 248.98833 
L 189.617018 256.25566 
L 189.974138 257.990807 
L 190.688378 263.083804 
L 191.045498 262.709498 
L 191.402618 265.099409 
L 192.116858 267.127917 
L 192.473978 267.060592 
L 192.831098 267.714123 
L 193.545338 267.379759 
L 193.902458 266.060903 
L 194.259578 266.678547 
L 194.616698 264.118213 
L 194.973818 263.625909 
L 195.330938 261.817827 
L 195.688058 258.767649 
L 196.045178 257.382563 
L 198.545018 233.180687 
L 198.902138 227.763923 
L 199.259258 224.136069 
L 201.044858 198.624514 
L 201.401978 192.402842 
L 201.759098 188.601192 
L 202.473338 176.584004 
L 203.901818 152.942172 
L 204.616058 142.590303 
L 205.330298 129.928261 
L 207.473018 97.046663 
L 208.544378 83.878597 
L 209.258618 74.497075 
L 209.972858 67.25976 
L 210.687098 60.147271 
L 212.115578 49.215089 
L 212.472698 48.175759 
L 212.829818 45.417142 
L 213.186938 43.863075 
L 213.901178 41.961201 
L 214.258298 42.046327 
L 214.972538 41.377749 
L 215.329658 41.294534 
L 215.686778 42.818455 
L 216.043898 43.110747 
L 216.401018 44.69365 
L 216.758138 45.503009 
L 217.472378 50.656044 
L 218.543738 57.504136 
L 219.257978 64.320928 
L 219.615098 67.579783 
L 220.686458 79.881757 
L 221.043578 83.591533 
L 222.472058 103.854245 
L 223.900538 123.484644 
L 224.257658 131.206072 
L 225.686138 153.720088 
L 227.114618 176.512869 
L 230.685818 226.353242 
L 231.400058 234.382185 
L 232.114298 241.063403 
L 232.828538 248.262325 
L 233.185658 250.308898 
L 233.899898 256.527216 
L 234.257018 257.102797 
L 234.614138 259.437764 
L 234.971258 260.645446 
L 235.328378 260.720254 
L 236.042618 263.20298 
L 236.399738 262.851637 
L 236.756858 263.884815 
L 237.113978 262.594294 
L 237.471098 263.376087 
L 238.542458 259.131108 
L 238.899578 258.480733 
L 239.256698 254.999804 
L 239.613818 253.880555 
L 240.328058 247.535771 
L 241.042298 241.923618 
L 241.756538 233.657915 
L 242.113658 230.633092 
L 243.899258 208.263835 
L 244.613498 198.260118 
L 244.970618 192.264323 
L 245.327738 188.522192 
L 248.184698 143.399004 
L 251.755898 91.660742 
L 252.827258 79.326547 
L 253.898618 66.955344 
L 255.327098 55.419214 
L 255.684218 54.184873 
L 256.755578 47.807045 
L 257.469818 47.329779 
L 257.826938 46.385875 
L 258.184058 44.988108 
L 258.541178 46.030336 
L 258.898298 46.1416 
L 259.255418 46.569351 
L 259.612538 47.4806 
L 260.683898 51.950282 
L 262.112378 61.235075 
L 262.469498 64.301952 
L 262.826618 68.562276 
L 263.183738 70.176087 
L 264.255098 82.738935 
L 264.612218 86.227328 
L 266.397818 110.458817 
L 266.754938 114.526309 
L 267.826298 132.085702 
L 268.183418 136.291193 
L 269.969018 164.376461 
L 270.683258 175.42033 
L 271.397498 185.511571 
L 271.754618 189.92922 
L 272.111738 195.989365 
L 272.468858 199.876279 
L 273.540218 216.676007 
L 274.254458 223.643117 
L 274.968698 232.440521 
L 276.397178 245.076647 
L 278.182778 257.203022 
L 278.539898 257.305617 
L 279.254138 259.381337 
L 279.611258 259.480084 
L 279.968378 260.433176 
L 280.325498 260.052889 
L 280.682618 260.315269 
L 281.039738 259.494191 
L 281.396858 257.695677 
L 281.753978 257.734656 
L 282.111098 256.354408 
L 282.825338 251.73421 
L 283.182458 251.119525 
L 283.539578 248.98833 
L 283.896698 244.727701 
L 284.253818 242.17004 
L 286.396538 220.079473 
L 286.753658 214.67174 
L 287.467898 207.064345 
L 288.182138 196.448348 
L 288.539258 192.431111 
L 288.896378 186.322109 
L 289.253498 182.220052 
L 289.610618 175.320329 
L 289.967738 171.295923 
L 290.681978 159.55257 
L 294.253178 107.247218 
L 295.681658 87.509198 
L 296.038778 85.265569 
L 296.753018 76.297912 
L 297.467258 70.309154 
L 297.824378 66.295994 
L 298.181498 64.159753 
L 298.895738 58.046386 
L 299.252858 56.631399 
L 299.967098 52.988591 
L 300.324218 51.345923 
L 301.038458 50.027361 
L 301.395578 48.289699 
L 301.752698 49.10537 
L 302.109818 48.848505 
L 302.466938 49.440266 
L 302.824058 49.814683 
L 303.538298 52.426975 
L 303.895418 52.646434 
L 304.252538 54.408839 
L 304.609658 57.00936 
L 304.966778 57.864062 
L 305.323898 61.277275 
L 305.681018 63.621687 
L 306.395258 70.085041 
L 306.752378 73.013879 
L 307.466618 81.037546 
L 308.180858 87.536629 
L 308.537978 94.108249 
L 308.895098 97.6315 
L 311.037818 127.041661 
L 311.752058 138.411165 
L 312.109178 142.70409 
L 313.180538 160.179881 
L 316.394618 206.387189 
L 316.751738 210.2087 
L 317.108858 215.975161 
L 317.823098 222.936481 
L 318.180218 226.651806 
L 318.537338 231.967847 
L 318.894458 234.368276 
L 319.608698 240.808119 
L 320.322938 246.881178 
L 321.394298 253.319834 
L 321.751418 254.478836 
L 322.108538 257.115457 
L 322.465658 256.440812 
L 322.822778 257.859144 
L 323.179898 258.173816 
L 323.537018 259.059748 
L 323.894138 259.007674 
L 324.251258 257.656698 
L 324.608378 258.470054 
L 324.965498 258.043473 
L 325.322618 255.328964 
L 325.679738 254.375495 
L 326.393978 251.740667 
L 326.751098 248.949981 
L 327.108218 247.104867 
L 328.536698 233.719634 
L 328.893818 231.449571 
L 329.250938 226.381929 
L 329.608058 223.208146 
L 331.036538 205.551633 
L 331.393658 201.266059 
L 332.107898 190.791256 
L 332.465018 186.335159 
L 333.536378 169.370592 
L 334.250618 159.76707 
L 336.036218 131.591947 
L 336.750458 122.760083 
L 337.464698 111.362285 
L 340.678778 72.566487 
L 341.035898 70.687033 
L 341.750138 64.344439 
L 343.178618 54.665175 
L 343.535738 54.12659 
L 344.249978 50.805314 
L 344.607098 50.78235 
L 344.964218 49.368012 
L 345.321338 49.552941 
L 345.678458 50.851244 
L 346.035578 50.074384 
L 346.392698 51.88445 
L 346.749818 52.416123 
L 347.106938 53.920864 
L 347.464058 54.368118 
L 347.821178 56.783321 
L 348.178298 57.900091 
L 349.249658 64.469836 
L 351.035258 81.783747 
L 352.106618 94.447164 
L 352.463738 100.313591 
L 352.820858 103.887478 
L 355.320698 138.811066 
L 357.106298 166.4654 
L 360.677498 215.518075 
L 361.391738 223.778723 
L 362.463098 235.965259 
L 363.177338 241.330769 
L 363.891578 247.260305 
L 364.962938 253.696902 
L 365.320058 254.306786 
L 365.677178 256.195224 
L 366.034298 257.408212 
L 366.391418 257.395387 
L 366.748538 259.059748 
L 367.105658 259.171012 
L 367.462778 258.28057 
L 367.819898 258.9391 
L 368.534138 257.318441 
L 368.891258 256.830113 
L 369.248378 254.782725 
L 369.605498 253.463901 
L 371.391098 241.063403 
L 371.748218 237.203155 
L 372.105338 234.913105 
L 372.462458 230.308256 
L 372.819578 227.225664 
L 374.962298 200.891501 
L 377.105018 170.20586 
L 379.961978 126.632778 
L 380.319098 122.670309 
L 381.390458 107.09886 
L 382.818938 87.808836 
L 383.176058 84.960854 
L 384.247418 73.528169 
L 384.604538 71.059627 
L 384.961658 66.613204 
L 385.318778 64.088653 
L 385.675898 62.45776 
L 386.033018 58.064673 
L 386.390138 57.00936 
L 386.747258 55.340215 
L 387.104378 52.5713 
L 387.461498 51.906394 
L 387.818618 50.506774 
L 388.532858 49.044414 
L 388.889978 49.093178 
L 389.247098 49.755196 
L 389.604218 50.039117 
L 389.961338 51.211267 
L 390.318458 50.564185 
L 390.675578 53.186902 
L 391.032698 53.505773 
L 392.104058 59.492559 
L 393.889658 73.302834 
L 396.746618 107.0015 
L 397.817978 122.90543 
L 398.175098 128.413666 
L 398.532218 131.903137 
L 399.246458 144.739932 
L 399.960698 155.046171 
L 402.103418 187.362664 
L 403.174778 201.118296 
L 403.889018 211.604577 
L 404.960378 224.862823 
L 405.317498 227.62042 
L 406.031738 236.115531 
L 407.103098 245.137283 
L 407.460218 247.251161 
L 407.817338 250.46947 
L 408.174458 252.173574 
L 408.888698 257.812615 
L 409.245818 257.990807 
L 409.602938 259.726558 
L 409.960058 259.783803 
L 410.317178 260.344746 
L 410.674298 260.330008 
L 411.031418 260.67537 
L 411.388538 258.774521 
L 411.745658 258.740595 
L 412.102778 259.129288 
L 412.459898 258.28057 
L 412.817018 257.039497 
L 413.531258 252.568822 
L 413.888378 251.201816 
L 414.245498 247.825752 
L 414.602618 246.598715 
L 415.316858 239.157796 
L 416.745338 225.610027 
L 418.173818 208.799704 
L 418.530938 202.6253 
L 418.530938 202.6253 
" style="fill:none;stroke:#1f77b4;stroke-linecap:square;stroke-width:1.5;"/>
   </g>
   <g id="line2d_26">
    <path clip-path="url(#p304c686b55)" d="M 61.410938 278.50696 
L 62.227212 278.50565 
L 62.499303 277.178066 
L 62.771395 277.69668 
L 63.587669 274.459347 
L 63.85976 274.206426 
L 64.403943 271.145261 
L 64.676035 270.608478 
L 65.492309 264.798909 
L 66.036492 260.150382 
L 66.308583 259.269668 
L 66.580675 256.134072 
L 66.852766 255.474963 
L 67.124858 252.158188 
L 67.66904 248.349397 
L 69.029498 233.777402 
L 69.301589 231.951989 
L 69.845772 225.233252 
L 70.934138 211.78712 
L 72.294595 195.268086 
L 72.838778 187.54864 
L 73.927143 173.766471 
L 75.831783 148.546373 
L 78.280606 118.304969 
L 79.641063 104.674576 
L 80.185246 98.386694 
L 80.729429 92.940831 
L 81.273612 89.481514 
L 81.817795 84.489138 
L 82.089886 82.787138 
L 82.361978 80.044299 
L 83.178252 75.408876 
L 83.450343 74.816127 
L 83.994526 69.829602 
L 84.266618 70.595139 
L 85.082892 65.861482 
L 85.354983 65.868556 
L 85.627075 65.471856 
L 86.171258 64.018162 
L 86.71544 63.726394 
L 86.987532 62.954269 
L 87.259623 63.467945 
L 87.531715 63.364566 
L 87.803806 63.563941 
L 88.075898 64.047485 
L 88.347989 63.966847 
L 89.164263 66.002971 
L 89.436355 66.854848 
L 89.708446 67.171564 
L 89.980538 69.328685 
L 90.252629 69.723113 
L 90.796812 71.652323 
L 91.340995 74.859572 
L 91.613086 75.946713 
L 91.885178 77.832455 
L 92.157269 78.748318 
L 92.701452 82.989468 
L 92.973543 83.194926 
L 93.517726 88.444916 
L 96.782823 114.919913 
L 97.054915 117.992675 
L 97.327006 119.690341 
L 97.871189 125.344164 
L 98.415372 128.820296 
L 98.959555 135.173793 
L 99.231646 137.100956 
L 100.864195 153.078265 
L 101.408378 156.200303 
L 102.496743 166.16079 
L 102.768835 168.382641 
L 103.040926 169.0599 
L 103.8572 175.763823 
L 104.129292 177.269968 
L 104.401383 179.840125 
L 104.945566 182.746743 
L 105.217658 185.085814 
L 105.76184 186.673702 
L 106.033932 189.139883 
L 106.850206 192.089756 
L 107.122298 194.240287 
L 107.394389 194.311844 
L 107.66648 195.263358 
L 107.938572 195.782098 
L 108.210663 198.167649 
L 108.482755 198.312171 
L 109.026938 199.121651 
L 109.299029 200.894979 
L 109.57112 200.197156 
L 109.843212 201.351697 
L 110.115303 201.007931 
L 110.387395 200.475728 
L 110.659486 201.40715 
L 110.931578 201.426889 
L 111.203669 199.958369 
L 111.47576 201.086506 
L 112.019943 200.187382 
L 112.292035 200.187382 
L 112.564126 199.339471 
L 112.836218 198.869947 
L 113.108309 198.652127 
L 113.652492 196.56819 
L 113.924583 196.494531 
L 114.196675 195.145174 
L 114.468766 194.523586 
L 114.740858 194.368309 
L 115.012949 192.103677 
L 115.28504 190.773852 
L 115.557132 190.060745 
L 116.373406 186.884742 
L 116.645498 184.799883 
L 116.917589 183.84646 
L 117.461772 180.829671 
L 117.733863 180.479526 
L 118.005955 177.87783 
L 118.278046 176.515839 
L 118.550138 175.910575 
L 119.09432 171.807316 
L 119.366412 169.85568 
L 119.638503 168.928681 
L 120.454778 163.721729 
L 120.726869 161.086255 
L 120.99896 160.582509 
L 121.543143 156.502971 
L 121.815235 155.889343 
L 122.359418 151.275781 
L 122.631509 150.152636 
L 123.447783 145.055498 
L 123.719875 144.707223 
L 123.991966 141.709569 
L 124.264058 140.420157 
L 124.536149 139.679108 
L 125.080332 135.616915 
L 125.352423 134.476222 
L 125.896606 130.889619 
L 126.168698 130.642368 
L 126.440789 129.414835 
L 126.71288 126.850523 
L 126.984972 126.244383 
L 127.257063 125.279864 
L 127.529155 125.254144 
L 127.801246 123.687228 
L 128.073338 121.094859 
L 128.345429 120.743167 
L 128.61752 120.20489 
L 128.889612 118.917444 
L 129.161703 118.313766 
L 129.433795 116.719667 
L 129.705886 117.97948 
L 130.250069 115.812644 
L 131.066343 113.732795 
L 131.338435 114.902086 
L 131.610526 113.56717 
L 131.882618 113.280684 
L 132.698892 113.43288 
L 132.970983 112.831878 
L 133.243075 112.728464 
L 133.515166 113.065683 
L 133.787258 113.893944 
L 134.059349 113.858133 
L 134.33144 113.160104 
L 134.603532 115.000132 
L 134.875623 114.456423 
L 135.147715 114.674798 
L 135.419806 116.759426 
L 135.691898 116.118803 
L 136.780263 119.215247 
L 137.052355 120.156923 
L 137.324446 120.287741 
L 137.596538 121.955604 
L 137.868629 122.565192 
L 138.14072 122.565192 
L 138.684903 126.265726 
L 138.956995 126.269994 
L 139.773269 130.655066 
L 140.04536 130.371464 
L 141.95 138.950549 
L 142.222092 141.398609 
L 142.494183 142.721226 
L 142.766275 143.380461 
L 143.038366 144.881361 
L 143.310458 147.844407 
L 143.582549 147.369548 
L 143.85464 147.856795 
L 144.126732 150.309546 
L 144.398823 151.056933 
L 145.215098 154.355274 
L 145.487189 156.627355 
L 145.75928 156.979776 
L 146.303463 160.944707 
L 146.575555 161.111235 
L 146.847646 163.253524 
L 147.119738 162.806222 
L 147.391829 165.283462 
L 147.66392 165.581502 
L 147.936012 167.650673 
L 148.208103 167.49471 
L 148.480195 168.093273 
L 149.296469 171.148322 
L 149.56856 171.747556 
L 149.840652 173.659304 
L 150.112743 174.117978 
L 150.384835 174.238005 
L 151.201109 176.658508 
L 151.4732 176.087831 
L 151.745292 177.439301 
L 152.017383 176.34723 
L 152.289475 176.675802 
L 152.561566 178.042821 
L 152.833658 177.0649 
L 153.105749 179.3911 
L 153.37784 178.312017 
L 153.922023 178.972484 
L 154.194115 179.369297 
L 154.466206 178.955042 
L 154.738298 179.430345 
L 155.010389 178.898354 
L 155.28248 178.64108 
L 155.554572 178.989926 
L 156.642938 176.221854 
L 156.915029 177.595608 
L 157.731303 175.079341 
L 158.003395 174.790912 
L 158.275486 174.954499 
L 158.547578 174.075111 
L 158.819669 172.695183 
L 159.09176 172.349427 
L 159.363852 172.272592 
L 159.635943 170.914536 
L 160.180126 169.559379 
L 160.452218 168.894818 
L 161.540583 164.595032 
L 161.812675 164.519473 
L 162.084766 163.295328 
L 162.356858 161.331884 
L 162.628949 161.506738 
L 162.90104 160.311901 
L 163.173132 159.983009 
L 163.445223 157.98314 
L 163.717315 157.012945 
L 163.989406 155.221816 
L 164.261498 154.819641 
L 164.80568 153.584093 
L 165.077772 151.259264 
L 165.349863 150.941315 
L 165.894046 147.592525 
L 166.166138 147.914604 
L 166.438229 145.73961 
L 166.71032 146.754296 
L 166.982412 144.085303 
L 167.254503 142.812441 
L 167.526595 142.68391 
L 167.798686 141.999799 
L 168.070778 140.399341 
L 168.342869 140.016327 
L 168.61496 138.596677 
L 168.887052 138.051299 
L 169.159143 137.218007 
L 169.431235 135.554209 
L 169.703326 135.729785 
L 170.247509 133.4016 
L 170.5196 133.090967 
L 171.335875 130.570409 
L 171.880058 130.045533 
L 172.152149 129.986273 
L 172.42424 128.216703 
L 172.696332 128.284714 
L 172.968423 127.931909 
L 173.240515 126.37244 
L 173.784698 126.837717 
L 174.056789 127.068221 
L 174.600972 125.89009 
L 174.873063 125.862852 
L 175.145155 126.777956 
L 175.417246 125.747112 
L 175.689338 126.543184 
L 175.961429 126.440738 
L 176.23352 125.811412 
L 176.505612 125.924238 
L 176.777703 127.315799 
L 177.049795 126.22304 
L 177.321886 127.072489 
L 177.593978 127.324336 
L 177.866069 126.410858 
L 178.13816 127.059683 
L 178.410252 128.046677 
L 178.682343 128.233706 
L 178.954435 128.616265 
L 179.226526 128.52275 
L 179.498618 130.058232 
L 180.0428 130.553477 
L 180.314892 131.939212 
L 180.586983 132.654402 
L 180.859075 132.801323 
L 181.131166 132.432395 
L 181.675349 134.956412 
L 181.94744 136.427912 
L 182.219532 136.060037 
L 182.491623 137.297435 
L 182.763715 137.151121 
L 183.035806 139.287768 
L 183.307898 139.337726 
L 183.579989 140.611664 
L 183.85208 141.03375 
L 184.124172 141.000581 
L 184.396263 143.040478 
L 184.668355 143.77849 
L 185.212538 144.520647 
L 185.484629 145.743756 
L 185.75672 147.637947 
L 186.028812 147.67098 
L 186.572995 150.437551 
L 186.845086 150.321933 
L 187.117178 151.304685 
L 187.389269 153.339472 
L 187.66136 153.712624 
L 187.933452 155.072555 
L 188.205543 155.151332 
L 188.749726 156.888561 
L 189.021818 158.103378 
L 189.293909 158.613318 
L 189.566 158.871436 
L 189.838092 159.371019 
L 190.110183 161.065439 
L 190.382275 160.978012 
L 190.654366 162.88983 
L 190.926458 163.10303 
L 191.742732 165.069377 
L 192.014823 165.766202 
L 192.286915 165.904728 
L 192.559006 167.410405 
L 192.831098 167.047895 
L 193.103189 169.25038 
L 193.37528 167.629597 
L 193.647372 169.144558 
L 193.919463 168.505394 
L 194.191555 169.910707 
L 194.463646 170.060155 
L 194.735738 170.425711 
L 195.007829 170.493722 
L 195.27992 171.535132 
L 195.552012 171.059059 
L 195.824103 171.0038 
L 196.368286 171.305597 
L 196.640378 170.863529 
L 196.912469 171.632897 
L 197.18456 171.229085 
L 197.456652 172.255518 
L 197.456652 172.255518 
" style="fill:none;stroke:#d62728;stroke-linecap:square;stroke-width:1.5;"/>
   </g>
   <g id="line2d_27">
    <path clip-path="url(#p304c686b55)" d="M 61.410938 23.543308 
L 418.530938 23.543308 
" style="fill:none;stroke:#99aaaa;stroke-dasharray:9.6,2.4,1.5,2.4;stroke-dashoffset:0;stroke-width:1.5;"/>
   </g>
   <g id="line2d_28">
    <defs>
     <path d="M -3 3 
L 3 3 
L 3 -3 
L -3 -3 
z
" id="m9e0ac68bfd" style="stroke:#1f77b4;stroke-linejoin:miter;"/>
    </defs>
    <g clip-path="url(#p304c686b55)">
     <use style="fill:#1f77b4;stroke:#1f77b4;stroke-linejoin:miter;" x="61.410938" xlink:href="#m9e0ac68bfd" y="278.419468"/>
     <use style="fill:#1f77b4;stroke:#1f77b4;stroke-linejoin:miter;" x="69.913795" xlink:href="#m9e0ac68bfd" y="216.041939"/>
     <use style="fill:#1f77b4;stroke:#1f77b4;stroke-linejoin:miter;" x="78.416652" xlink:href="#m9e0ac68bfd" y="72.522979"/>
     <use style="fill:#1f77b4;stroke:#1f77b4;stroke-linejoin:miter;" x="86.919509" xlink:href="#m9e0ac68bfd" y="40.880562"/>
     <use style="fill:#1f77b4;stroke:#1f77b4;stroke-linejoin:miter;" x="95.422366" xlink:href="#m9e0ac68bfd" y="148.726828"/>
     <use style="fill:#1f77b4;stroke:#1f77b4;stroke-linejoin:miter;" x="103.925223" xlink:href="#m9e0ac68bfd" y="271.184005"/>
     <use style="fill:#1f77b4;stroke:#1f77b4;stroke-linejoin:miter;" x="112.42808" xlink:href="#m9e0ac68bfd" y="224.822699"/>
     <use style="fill:#1f77b4;stroke:#1f77b4;stroke-linejoin:miter;" x="120.930938" xlink:href="#m9e0ac68bfd" y="98.266616"/>
     <use style="fill:#1f77b4;stroke:#1f77b4;stroke-linejoin:miter;" x="129.433795" xlink:href="#m9e0ac68bfd" y="42.40255"/>
     <use style="fill:#1f77b4;stroke:#1f77b4;stroke-linejoin:miter;" x="137.936652" xlink:href="#m9e0ac68bfd" y="146.533332"/>
     <use style="fill:#1f77b4;stroke:#1f77b4;stroke-linejoin:miter;" x="146.439509" xlink:href="#m9e0ac68bfd" y="260.759784"/>
     <use style="fill:#1f77b4;stroke:#1f77b4;stroke-linejoin:miter;" x="154.942366" xlink:href="#m9e0ac68bfd" y="238.11747"/>
     <use style="fill:#1f77b4;stroke:#1f77b4;stroke-linejoin:miter;" x="163.445223" xlink:href="#m9e0ac68bfd" y="106.261652"/>
     <use style="fill:#1f77b4;stroke:#1f77b4;stroke-linejoin:miter;" x="171.94808" xlink:href="#m9e0ac68bfd" y="33.326513"/>
     <use style="fill:#1f77b4;stroke:#1f77b4;stroke-linejoin:miter;" x="180.450938" xlink:href="#m9e0ac68bfd" y="143.670605"/>
     <use style="fill:#1f77b4;stroke:#1f77b4;stroke-linejoin:miter;" x="188.953795" xlink:href="#m9e0ac68bfd" y="254.166347"/>
     <use style="fill:#1f77b4;stroke:#1f77b4;stroke-linejoin:miter;" x="197.456652" xlink:href="#m9e0ac68bfd" y="251.702391"/>
     <use style="fill:#1f77b4;stroke:#1f77b4;stroke-linejoin:miter;" x="205.959509" xlink:href="#m9e0ac68bfd" y="116.647339"/>
     <use style="fill:#1f77b4;stroke:#1f77b4;stroke-linejoin:miter;" x="214.462366" xlink:href="#m9e0ac68bfd" y="42.678028"/>
     <use style="fill:#1f77b4;stroke:#1f77b4;stroke-linejoin:miter;" x="222.965223" xlink:href="#m9e0ac68bfd" y="104.188371"/>
     <use style="fill:#1f77b4;stroke:#1f77b4;stroke-linejoin:miter;" x="231.46808" xlink:href="#m9e0ac68bfd" y="221.134451"/>
     <use style="fill:#1f77b4;stroke:#1f77b4;stroke-linejoin:miter;" x="239.970938" xlink:href="#m9e0ac68bfd" y="252.040017"/>
     <use style="fill:#1f77b4;stroke:#1f77b4;stroke-linejoin:miter;" x="248.473795" xlink:href="#m9e0ac68bfd" y="143.546575"/>
     <use style="fill:#1f77b4;stroke:#1f77b4;stroke-linejoin:miter;" x="256.976652" xlink:href="#m9e0ac68bfd" y="41.173228"/>
     <use style="fill:#1f77b4;stroke:#1f77b4;stroke-linejoin:miter;" x="265.479509" xlink:href="#m9e0ac68bfd" y="82.959288"/>
     <use style="fill:#1f77b4;stroke:#1f77b4;stroke-linejoin:miter;" x="273.982366" xlink:href="#m9e0ac68bfd" y="208.397775"/>
     <use style="fill:#1f77b4;stroke:#1f77b4;stroke-linejoin:miter;" x="282.485223" xlink:href="#m9e0ac68bfd" y="248.111567"/>
     <use style="fill:#1f77b4;stroke:#1f77b4;stroke-linejoin:miter;" x="290.98808" xlink:href="#m9e0ac68bfd" y="170.573119"/>
     <use style="fill:#1f77b4;stroke:#1f77b4;stroke-linejoin:miter;" x="299.490938" xlink:href="#m9e0ac68bfd" y="67.410758"/>
     <use style="fill:#1f77b4;stroke:#1f77b4;stroke-linejoin:miter;" x="307.993795" xlink:href="#m9e0ac68bfd" y="84.221639"/>
     <use style="fill:#1f77b4;stroke:#1f77b4;stroke-linejoin:miter;" x="316.496652" xlink:href="#m9e0ac68bfd" y="206.273548"/>
     <use style="fill:#1f77b4;stroke:#1f77b4;stroke-linejoin:miter;" x="324.999509" xlink:href="#m9e0ac68bfd" y="253.582348"/>
     <use style="fill:#1f77b4;stroke:#1f77b4;stroke-linejoin:miter;" x="333.502366" xlink:href="#m9e0ac68bfd" y="176.898084"/>
     <use style="fill:#1f77b4;stroke:#1f77b4;stroke-linejoin:miter;" x="342.005223" xlink:href="#m9e0ac68bfd" y="60.914689"/>
     <use style="fill:#1f77b4;stroke:#1f77b4;stroke-linejoin:miter;" x="350.50808" xlink:href="#m9e0ac68bfd" y="65.379083"/>
     <use style="fill:#1f77b4;stroke:#1f77b4;stroke-linejoin:miter;" x="359.010938" xlink:href="#m9e0ac68bfd" y="172.453269"/>
     <use style="fill:#1f77b4;stroke:#1f77b4;stroke-linejoin:miter;" x="367.513795" xlink:href="#m9e0ac68bfd" y="236.109594"/>
     <use style="fill:#1f77b4;stroke:#1f77b4;stroke-linejoin:miter;" x="376.016652" xlink:href="#m9e0ac68bfd" y="189.673228"/>
     <use style="fill:#1f77b4;stroke:#1f77b4;stroke-linejoin:miter;" x="384.519509" xlink:href="#m9e0ac68bfd" y="86.44455"/>
     <use style="fill:#1f77b4;stroke:#1f77b4;stroke-linejoin:miter;" x="393.022366" xlink:href="#m9e0ac68bfd" y="74.741758"/>
     <use style="fill:#1f77b4;stroke:#1f77b4;stroke-linejoin:miter;" x="401.525223" xlink:href="#m9e0ac68bfd" y="177.158226"/>
    </g>
   </g>
   <g id="line2d_29">
    <defs>
     <path d="M 0 3 
C 0.795609 3 1.55874 2.683901 2.12132 2.12132 
C 2.683901 1.55874 3 0.795609 3 0 
C 3 -0.795609 2.683901 -1.55874 2.12132 -2.12132 
C 1.55874 -2.683901 0.795609 -3 0 -3 
C -0.795609 -3 -1.55874 -2.683901 -2.12132 -2.12132 
C -2.683901 -1.55874 -3 -0.795609 -3 0 
C -3 0.795609 -2.683901 1.55874 -2.12132 2.12132 
C -1.55874 2.683901 -0.795609 3 0 3 
z
" id="m4d17eb6f4c" style="stroke:#d62728;"/>
    </defs>
    <g clip-path="url(#p304c686b55)">
     <use style="fill:#d62728;stroke:#d62728;" x="61.410938" xlink:href="#m4d17eb6f4c" y="271.284996"/>
     <use style="fill:#d62728;stroke:#d62728;" x="69.913795" xlink:href="#m4d17eb6f4c" y="229.820428"/>
     <use style="fill:#d62728;stroke:#d62728;" x="78.416652" xlink:href="#m4d17eb6f4c" y="127.496192"/>
     <use style="fill:#d62728;stroke:#d62728;" x="86.919509" xlink:href="#m4d17eb6f4c" y="79.426828"/>
     <use style="fill:#d62728;stroke:#d62728;" x="95.422366" xlink:href="#m4d17eb6f4c" y="99.838828"/>
     <use style="fill:#d62728;stroke:#d62728;" x="103.925223" xlink:href="#m4d17eb6f4c" y="187.5914"/>
     <use style="fill:#d62728;stroke:#d62728;" x="112.42808" xlink:href="#m4d17eb6f4c" y="181.713628"/>
     <use style="fill:#d62728;stroke:#d62728;" x="120.930938" xlink:href="#m4d17eb6f4c" y="138.740949"/>
     <use style="fill:#d62728;stroke:#d62728;" x="129.433795" xlink:href="#m4d17eb6f4c" y="122.626828"/>
     <use style="fill:#d62728;stroke:#d62728;" x="137.936652" xlink:href="#m4d17eb6f4c" y="124.197243"/>
     <use style="fill:#d62728;stroke:#d62728;" x="146.439509" xlink:href="#m4d17eb6f4c" y="157.109223"/>
     <use style="fill:#d62728;stroke:#d62728;" x="154.942366" xlink:href="#m4d17eb6f4c" y="184.410319"/>
     <use style="fill:#d62728;stroke:#d62728;" x="163.445223" xlink:href="#m4d17eb6f4c" y="169.589775"/>
     <use style="fill:#d62728;stroke:#d62728;" x="171.94808" xlink:href="#m4d17eb6f4c" y="121.066655"/>
     <use style="fill:#d62728;stroke:#d62728;" x="180.450938" xlink:href="#m4d17eb6f4c" y="129.005019"/>
     <use style="fill:#d62728;stroke:#d62728;" x="188.953795" xlink:href="#m4d17eb6f4c" y="146.766145"/>
    </g>
   </g>
   <g id="patch_3">
    <path d="M 61.410938 279.010828 
L 61.410938 12.898828 
" style="fill:none;stroke:#000000;stroke-linecap:square;stroke-linejoin:miter;stroke-width:0.8;"/>
   </g>
   <g id="patch_4">
    <path d="M 418.530938 279.010828 
L 418.530938 12.898828 
" style="fill:none;stroke:#000000;stroke-linecap:square;stroke-linejoin:miter;stroke-width:0.8;"/>
   </g>
   <g id="patch_5">
    <path d="M 61.410938 279.010828 
L 418.530938 279.010828 
" style="fill:none;stroke:#000000;stroke-linecap:square;stroke-linejoin:miter;stroke-width:0.8;"/>
   </g>
   <g id="patch_6">
    <path d="M 61.410938 12.898828 
L 418.530938 12.898828 
" style="fill:none;stroke:#000000;stroke-linecap:square;stroke-linejoin:miter;stroke-width:0.8;"/>
   </g>
   <g id="text_15">
    <!-- (C) -->
    <defs>
     <path d="M 64.40625 67.28125 
L 64.40625 56.890625 
Q 59.421875 61.53125 53.78125 63.8125 
Q 48.140625 66.109375 41.796875 66.109375 
Q 29.296875 66.109375 22.65625 58.46875 
Q 16.015625 50.828125 16.015625 36.375 
Q 16.015625 21.96875 22.65625 14.328125 
Q 29.296875 6.6875 41.796875 6.6875 
Q 48.140625 6.6875 53.78125 8.984375 
Q 59.421875 11.28125 64.40625 15.921875 
L 64.40625 5.609375 
Q 59.234375 2.09375 53.4375 0.328125 
Q 47.65625 -1.421875 41.21875 -1.421875 
Q 24.65625 -1.421875 15.125 8.703125 
Q 5.609375 18.84375 5.609375 36.375 
Q 5.609375 53.953125 15.125 64.078125 
Q 24.65625 74.21875 41.21875 74.21875 
Q 47.75 74.21875 53.53125 72.484375 
Q 59.328125 70.75 64.40625 67.28125 
z
" id="DejaVuSans-43"/>
    </defs>
    <g transform="translate(381.118366 39.510028)scale(0.2 -0.2)">
     <use xlink:href="#DejaVuSans-28"/>
     <use x="39.013672" xlink:href="#DejaVuSans-43"/>
     <use x="108.837891" xlink:href="#DejaVuSans-29"/>
    </g>
   </g>
  </g>
 </g>
 <defs>
  <clipPath id="p304c686b55">
   <rect height="266.112" width="357.12" x="61.410938" y="12.898828"/>
  </clipPath>
 </defs>
</svg>
