<?xml version="1.0" encoding="utf-8" standalone="no"?>
<!DOCTYPE svg PUBLIC "-//W3C//DTD SVG 1.1//EN"
  "http://www.w3.org/Graphics/SVG/1.1/DTD/svg11.dtd">
<!-- Created with matplotlib (http://matplotlib.org/) -->
<svg height="349pt" version="1.1" viewBox="0 0 429 349" width="429pt" xmlns="http://www.w3.org/2000/svg" xmlns:xlink="http://www.w3.org/1999/xlink">
 <defs>
  <style type="text/css">
*{stroke-linecap:butt;stroke-linejoin:round;}
  </style>
 </defs>
 <g id="figure_1">
  <g id="patch_1">
   <path d="M 0 349.665437 
L 429.230937 349.665437 
L 429.230937 0 
L 0 0 
z
" style="fill:none;"/>
  </g>
  <g id="axes_1">
   <g id="patch_2">
    <path d="M 61.410938 297.54825 
L 418.530938 297.54825 
L 418.530938 31.43625 
L 61.410938 31.43625 
z
" style="fill:none;"/>
   </g>
   <g id="matplotlib.axis_1">
    <g id="xtick_1">
     <g id="line2d_1">
      <path clip-path="url(#pcd39df9889)" d="M 77.643665 297.54825 
L 77.643665 31.43625 
" style="fill:none;stroke:#b0b0b0;stroke-linecap:square;stroke-width:0.8;"/>
     </g>
     <g id="line2d_2">
      <defs>
       <path d="M 0 0 
L 0 3.5 
" id="m005f0a59be" style="stroke:#000000;stroke-width:0.8;"/>
      </defs>
      <g>
       <use style="stroke:#000000;stroke-width:0.8;" x="77.643665" xlink:href="#m005f0a59be" y="297.54825"/>
      </g>
     </g>
     <g id="text_1">
      <!-- 0 -->
      <defs>
       <path d="M 31.78125 66.40625 
Q 24.171875 66.40625 20.328125 58.90625 
Q 16.5 51.421875 16.5 36.375 
Q 16.5 21.390625 20.328125 13.890625 
Q 24.171875 6.390625 31.78125 6.390625 
Q 39.453125 6.390625 43.28125 13.890625 
Q 47.125 21.390625 47.125 36.375 
Q 47.125 51.421875 43.28125 58.90625 
Q 39.453125 66.40625 31.78125 66.40625 
z
M 31.78125 74.21875 
Q 44.046875 74.21875 50.515625 64.515625 
Q 56.984375 54.828125 56.984375 36.375 
Q 56.984375 17.96875 50.515625 8.265625 
Q 44.046875 -1.421875 31.78125 -1.421875 
Q 19.53125 -1.421875 13.0625 8.265625 
Q 6.59375 17.96875 6.59375 36.375 
Q 6.59375 54.828125 13.0625 64.515625 
Q 19.53125 74.21875 31.78125 74.21875 
z
" id="DejaVuSans-30"/>
      </defs>
      <g transform="translate(72.87179 315.945906)scale(0.15 -0.15)">
       <use xlink:href="#DejaVuSans-30"/>
      </g>
     </g>
    </g>
    <g id="xtick_2">
     <g id="line2d_3">
      <path clip-path="url(#pcd39df9889)" d="M 134.600603 297.54825 
L 134.600603 31.43625 
" style="fill:none;stroke:#b0b0b0;stroke-linecap:square;stroke-width:0.8;"/>
     </g>
     <g id="line2d_4">
      <g>
       <use style="stroke:#000000;stroke-width:0.8;" x="134.600603" xlink:href="#m005f0a59be" y="297.54825"/>
      </g>
     </g>
     <g id="text_2">
      <!-- 50 -->
      <defs>
       <path d="M 10.796875 72.90625 
L 49.515625 72.90625 
L 49.515625 64.59375 
L 19.828125 64.59375 
L 19.828125 46.734375 
Q 21.96875 47.46875 24.109375 47.828125 
Q 26.265625 48.1875 28.421875 48.1875 
Q 40.625 48.1875 47.75 41.5 
Q 54.890625 34.8125 54.890625 23.390625 
Q 54.890625 11.625 47.5625 5.09375 
Q 40.234375 -1.421875 26.90625 -1.421875 
Q 22.3125 -1.421875 17.546875 -0.640625 
Q 12.796875 0.140625 7.71875 1.703125 
L 7.71875 11.625 
Q 12.109375 9.234375 16.796875 8.0625 
Q 21.484375 6.890625 26.703125 6.890625 
Q 35.15625 6.890625 40.078125 11.328125 
Q 45.015625 15.765625 45.015625 23.390625 
Q 45.015625 31 40.078125 35.4375 
Q 35.15625 39.890625 26.703125 39.890625 
Q 22.75 39.890625 18.8125 39.015625 
Q 14.890625 38.140625 10.796875 36.28125 
z
" id="DejaVuSans-35"/>
      </defs>
      <g transform="translate(125.056853 315.945906)scale(0.15 -0.15)">
       <use xlink:href="#DejaVuSans-35"/>
       <use x="63.623047" xlink:href="#DejaVuSans-30"/>
      </g>
     </g>
    </g>
    <g id="xtick_3">
     <g id="line2d_5">
      <path clip-path="url(#pcd39df9889)" d="M 191.55754 297.54825 
L 191.55754 31.43625 
" style="fill:none;stroke:#b0b0b0;stroke-linecap:square;stroke-width:0.8;"/>
     </g>
     <g id="line2d_6">
      <g>
       <use style="stroke:#000000;stroke-width:0.8;" x="191.55754" xlink:href="#m005f0a59be" y="297.54825"/>
      </g>
     </g>
     <g id="text_3">
      <!-- 100 -->
      <defs>
       <path d="M 12.40625 8.296875 
L 28.515625 8.296875 
L 28.515625 63.921875 
L 10.984375 60.40625 
L 10.984375 69.390625 
L 28.421875 72.90625 
L 38.28125 72.90625 
L 38.28125 8.296875 
L 54.390625 8.296875 
L 54.390625 0 
L 12.40625 0 
z
" id="DejaVuSans-31"/>
      </defs>
      <g transform="translate(177.241915 315.945906)scale(0.15 -0.15)">
       <use xlink:href="#DejaVuSans-31"/>
       <use x="63.623047" xlink:href="#DejaVuSans-30"/>
       <use x="127.246094" xlink:href="#DejaVuSans-30"/>
      </g>
     </g>
    </g>
    <g id="xtick_4">
     <g id="line2d_7">
      <path clip-path="url(#pcd39df9889)" d="M 248.514478 297.54825 
L 248.514478 31.43625 
" style="fill:none;stroke:#b0b0b0;stroke-linecap:square;stroke-width:0.8;"/>
     </g>
     <g id="line2d_8">
      <g>
       <use style="stroke:#000000;stroke-width:0.8;" x="248.514478" xlink:href="#m005f0a59be" y="297.54825"/>
      </g>
     </g>
     <g id="text_4">
      <!-- 150 -->
      <g transform="translate(234.198853 315.945906)scale(0.15 -0.15)">
       <use xlink:href="#DejaVuSans-31"/>
       <use x="63.623047" xlink:href="#DejaVuSans-35"/>
       <use x="127.246094" xlink:href="#DejaVuSans-30"/>
      </g>
     </g>
    </g>
    <g id="xtick_5">
     <g id="line2d_9">
      <path clip-path="url(#pcd39df9889)" d="M 305.471416 297.54825 
L 305.471416 31.43625 
" style="fill:none;stroke:#b0b0b0;stroke-linecap:square;stroke-width:0.8;"/>
     </g>
     <g id="line2d_10">
      <g>
       <use style="stroke:#000000;stroke-width:0.8;" x="305.471416" xlink:href="#m005f0a59be" y="297.54825"/>
      </g>
     </g>
     <g id="text_5">
      <!-- 200 -->
      <defs>
       <path d="M 19.1875 8.296875 
L 53.609375 8.296875 
L 53.609375 0 
L 7.328125 0 
L 7.328125 8.296875 
Q 12.9375 14.109375 22.625 23.890625 
Q 32.328125 33.6875 34.8125 36.53125 
Q 39.546875 41.84375 41.421875 45.53125 
Q 43.3125 49.21875 43.3125 52.78125 
Q 43.3125 58.59375 39.234375 62.25 
Q 35.15625 65.921875 28.609375 65.921875 
Q 23.96875 65.921875 18.8125 64.3125 
Q 13.671875 62.703125 7.8125 59.421875 
L 7.8125 69.390625 
Q 13.765625 71.78125 18.9375 73 
Q 24.125 74.21875 28.421875 74.21875 
Q 39.75 74.21875 46.484375 68.546875 
Q 53.21875 62.890625 53.21875 53.421875 
Q 53.21875 48.921875 51.53125 44.890625 
Q 49.859375 40.875 45.40625 35.40625 
Q 44.1875 33.984375 37.640625 27.21875 
Q 31.109375 20.453125 19.1875 8.296875 
z
" id="DejaVuSans-32"/>
      </defs>
      <g transform="translate(291.155791 315.945906)scale(0.15 -0.15)">
       <use xlink:href="#DejaVuSans-32"/>
       <use x="63.623047" xlink:href="#DejaVuSans-30"/>
       <use x="127.246094" xlink:href="#DejaVuSans-30"/>
      </g>
     </g>
    </g>
    <g id="xtick_6">
     <g id="line2d_11">
      <path clip-path="url(#pcd39df9889)" d="M 362.428354 297.54825 
L 362.428354 31.43625 
" style="fill:none;stroke:#b0b0b0;stroke-linecap:square;stroke-width:0.8;"/>
     </g>
     <g id="line2d_12">
      <g>
       <use style="stroke:#000000;stroke-width:0.8;" x="362.428354" xlink:href="#m005f0a59be" y="297.54825"/>
      </g>
     </g>
     <g id="text_6">
      <!-- 250 -->
      <g transform="translate(348.112729 315.945906)scale(0.15 -0.15)">
       <use xlink:href="#DejaVuSans-32"/>
       <use x="63.623047" xlink:href="#DejaVuSans-35"/>
       <use x="127.246094" xlink:href="#DejaVuSans-30"/>
      </g>
     </g>
    </g>
    <g id="text_7">
     <!-- Time ($\mu s$) -->
     <defs>
      <path d="M -0.296875 72.90625 
L 61.375 72.90625 
L 61.375 64.59375 
L 35.5 64.59375 
L 35.5 0 
L 25.59375 0 
L 25.59375 64.59375 
L -0.296875 64.59375 
z
" id="DejaVuSans-54"/>
      <path d="M 9.421875 54.6875 
L 18.40625 54.6875 
L 18.40625 0 
L 9.421875 0 
z
M 9.421875 75.984375 
L 18.40625 75.984375 
L 18.40625 64.59375 
L 9.421875 64.59375 
z
" id="DejaVuSans-69"/>
      <path d="M 52 44.1875 
Q 55.375 50.25 60.0625 53.125 
Q 64.75 56 71.09375 56 
Q 79.640625 56 84.28125 50.015625 
Q 88.921875 44.046875 88.921875 33.015625 
L 88.921875 0 
L 79.890625 0 
L 79.890625 32.71875 
Q 79.890625 40.578125 77.09375 44.375 
Q 74.3125 48.1875 68.609375 48.1875 
Q 61.625 48.1875 57.5625 43.546875 
Q 53.515625 38.921875 53.515625 30.90625 
L 53.515625 0 
L 44.484375 0 
L 44.484375 32.71875 
Q 44.484375 40.625 41.703125 44.40625 
Q 38.921875 48.1875 33.109375 48.1875 
Q 26.21875 48.1875 22.15625 43.53125 
Q 18.109375 38.875 18.109375 30.90625 
L 18.109375 0 
L 9.078125 0 
L 9.078125 54.6875 
L 18.109375 54.6875 
L 18.109375 46.1875 
Q 21.1875 51.21875 25.484375 53.609375 
Q 29.78125 56 35.6875 56 
Q 41.65625 56 45.828125 52.96875 
Q 50 49.953125 52 44.1875 
z
" id="DejaVuSans-6d"/>
      <path d="M 56.203125 29.59375 
L 56.203125 25.203125 
L 14.890625 25.203125 
Q 15.484375 15.921875 20.484375 11.0625 
Q 25.484375 6.203125 34.421875 6.203125 
Q 39.59375 6.203125 44.453125 7.46875 
Q 49.3125 8.734375 54.109375 11.28125 
L 54.109375 2.78125 
Q 49.265625 0.734375 44.1875 -0.34375 
Q 39.109375 -1.421875 33.890625 -1.421875 
Q 20.796875 -1.421875 13.15625 6.1875 
Q 5.515625 13.8125 5.515625 26.8125 
Q 5.515625 40.234375 12.765625 48.109375 
Q 20.015625 56 32.328125 56 
Q 43.359375 56 49.78125 48.890625 
Q 56.203125 41.796875 56.203125 29.59375 
z
M 47.21875 32.234375 
Q 47.125 39.59375 43.09375 43.984375 
Q 39.0625 48.390625 32.421875 48.390625 
Q 24.90625 48.390625 20.390625 44.140625 
Q 15.875 39.890625 15.1875 32.171875 
z
" id="DejaVuSans-65"/>
      <path id="DejaVuSans-20"/>
      <path d="M 31 75.875 
Q 24.46875 64.65625 21.28125 53.65625 
Q 18.109375 42.671875 18.109375 31.390625 
Q 18.109375 20.125 21.3125 9.0625 
Q 24.515625 -2 31 -13.1875 
L 23.1875 -13.1875 
Q 15.875 -1.703125 12.234375 9.375 
Q 8.59375 20.453125 8.59375 31.390625 
Q 8.59375 42.28125 12.203125 53.3125 
Q 15.828125 64.359375 23.1875 75.875 
z
" id="DejaVuSans-28"/>
      <path d="M -1.3125 -20.796875 
L 13.375 54.6875 
L 22.40625 54.6875 
L 15.765625 20.65625 
Q 15.578125 19.625 15.421875 18.359375 
Q 15.28125 17.09375 15.28125 15.828125 
Q 15.28125 11.28125 18.140625 8.828125 
Q 21 6.390625 26.3125 6.390625 
Q 33.546875 6.390625 37.984375 10.484375 
Q 42.4375 14.59375 44 22.796875 
L 50.203125 54.6875 
L 59.1875 54.6875 
L 51.03125 12.640625 
Q 50.828125 11.71875 50.75 11.03125 
Q 50.6875 10.359375 50.6875 9.8125 
Q 50.6875 8.296875 51.296875 7.59375 
Q 51.90625 6.890625 53.21875 6.890625 
Q 53.71875 6.890625 54.5625 7.125 
Q 55.421875 7.375 56.984375 8.015625 
L 55.609375 0.78125 
Q 53.46875 -0.296875 51.515625 -0.859375 
Q 49.5625 -1.421875 47.703125 -1.421875 
Q 44.484375 -1.421875 42.65625 0.625 
Q 40.828125 2.6875 40.828125 6.296875 
Q 38.09375 2.390625 34.296875 0.484375 
Q 30.515625 -1.421875 25.390625 -1.421875 
Q 20.84375 -1.421875 17.453125 0.671875 
Q 14.0625 2.78125 12.984375 6.203125 
L 7.71875 -20.796875 
z
" id="DejaVuSans-Oblique-3bc"/>
      <path d="M 50 53.078125 
L 48.296875 44.578125 
Q 44.734375 46.53125 40.765625 47.5 
Q 36.8125 48.484375 32.625 48.484375 
Q 25.53125 48.484375 21.453125 46.0625 
Q 17.390625 43.65625 17.390625 39.5 
Q 17.390625 34.671875 26.859375 32.078125 
Q 27.59375 31.890625 27.9375 31.78125 
L 30.8125 30.90625 
Q 39.796875 28.421875 42.796875 25.6875 
Q 45.796875 22.953125 45.796875 18.21875 
Q 45.796875 9.515625 38.890625 4.046875 
Q 31.984375 -1.421875 20.796875 -1.421875 
Q 16.453125 -1.421875 11.671875 -0.578125 
Q 6.890625 0.25 1.125 2 
L 2.875 11.28125 
Q 7.8125 8.734375 12.59375 7.421875 
Q 17.390625 6.109375 21.78125 6.109375 
Q 28.375 6.109375 32.5 8.9375 
Q 36.625 11.765625 36.625 16.109375 
Q 36.625 20.796875 25.78125 23.6875 
L 24.859375 23.921875 
L 21.78125 24.703125 
Q 14.9375 26.515625 11.765625 29.46875 
Q 8.59375 32.421875 8.59375 37.015625 
Q 8.59375 45.75 15.15625 50.875 
Q 21.734375 56 33.015625 56 
Q 37.453125 56 41.671875 55.265625 
Q 45.90625 54.546875 50 53.078125 
z
" id="DejaVuSans-Oblique-73"/>
      <path d="M 8.015625 75.875 
L 15.828125 75.875 
Q 23.140625 64.359375 26.78125 53.3125 
Q 30.421875 42.28125 30.421875 31.390625 
Q 30.421875 20.453125 26.78125 9.375 
Q 23.140625 -1.703125 15.828125 -13.1875 
L 8.015625 -13.1875 
Q 14.5 -2 17.703125 9.0625 
Q 20.90625 20.125 20.90625 31.390625 
Q 20.90625 42.671875 17.703125 53.65625 
Q 14.5 64.65625 8.015625 75.875 
z
" id="DejaVuSans-29"/>
     </defs>
     <g transform="translate(192.570938 338.265437)scale(0.2 -0.2)">
      <use transform="translate(0 0.015625)" xlink:href="#DejaVuSans-54"/>
      <use transform="translate(61.083984 0.015625)" xlink:href="#DejaVuSans-69"/>
      <use transform="translate(88.867188 0.015625)" xlink:href="#DejaVuSans-6d"/>
      <use transform="translate(186.279297 0.015625)" xlink:href="#DejaVuSans-65"/>
      <use transform="translate(247.802734 0.015625)" xlink:href="#DejaVuSans-20"/>
      <use transform="translate(279.589844 0.015625)" xlink:href="#DejaVuSans-28"/>
      <use transform="translate(318.603516 0.015625)" xlink:href="#DejaVuSans-Oblique-3bc"/>
      <use transform="translate(382.226562 0.015625)" xlink:href="#DejaVuSans-Oblique-73"/>
      <use transform="translate(434.326172 0.015625)" xlink:href="#DejaVuSans-29"/>
     </g>
    </g>
   </g>
   <g id="matplotlib.axis_2">
    <g id="ytick_1">
     <g id="line2d_13">
      <path clip-path="url(#pcd39df9889)" d="M 61.410938 297.54825 
L 418.530938 297.54825 
" style="fill:none;stroke:#b0b0b0;stroke-linecap:square;stroke-width:0.8;"/>
     </g>
     <g id="line2d_14">
      <defs>
       <path d="M 0 0 
L -3.5 0 
" id="mc3ce260a5b" style="stroke:#000000;stroke-width:0.8;"/>
      </defs>
      <g>
       <use style="stroke:#000000;stroke-width:0.8;" x="61.410938" xlink:href="#mc3ce260a5b" y="297.54825"/>
      </g>
     </g>
     <g id="text_8">
      <!-- 0.0 -->
      <defs>
       <path d="M 10.6875 12.40625 
L 21 12.40625 
L 21 0 
L 10.6875 0 
z
" id="DejaVuSans-2e"/>
      </defs>
      <g transform="translate(30.55625 303.247078)scale(0.15 -0.15)">
       <use xlink:href="#DejaVuSans-30"/>
       <use x="63.623047" xlink:href="#DejaVuSans-2e"/>
       <use x="95.410156" xlink:href="#DejaVuSans-30"/>
      </g>
     </g>
    </g>
    <g id="ytick_2">
     <g id="line2d_15">
      <path clip-path="url(#pcd39df9889)" d="M 61.410938 244.32585 
L 418.530938 244.32585 
" style="fill:none;stroke:#b0b0b0;stroke-linecap:square;stroke-width:0.8;"/>
     </g>
     <g id="line2d_16">
      <g>
       <use style="stroke:#000000;stroke-width:0.8;" x="61.410938" xlink:href="#mc3ce260a5b" y="244.32585"/>
      </g>
     </g>
     <g id="text_9">
      <!-- 0.2 -->
      <g transform="translate(30.55625 250.024678)scale(0.15 -0.15)">
       <use xlink:href="#DejaVuSans-30"/>
       <use x="63.623047" xlink:href="#DejaVuSans-2e"/>
       <use x="95.410156" xlink:href="#DejaVuSans-32"/>
      </g>
     </g>
    </g>
    <g id="ytick_3">
     <g id="line2d_17">
      <path clip-path="url(#pcd39df9889)" d="M 61.410938 191.10345 
L 418.530938 191.10345 
" style="fill:none;stroke:#b0b0b0;stroke-linecap:square;stroke-width:0.8;"/>
     </g>
     <g id="line2d_18">
      <g>
       <use style="stroke:#000000;stroke-width:0.8;" x="61.410938" xlink:href="#mc3ce260a5b" y="191.10345"/>
      </g>
     </g>
     <g id="text_10">
      <!-- 0.4 -->
      <defs>
       <path d="M 37.796875 64.3125 
L 12.890625 25.390625 
L 37.796875 25.390625 
z
M 35.203125 72.90625 
L 47.609375 72.90625 
L 47.609375 25.390625 
L 58.015625 25.390625 
L 58.015625 17.1875 
L 47.609375 17.1875 
L 47.609375 0 
L 37.796875 0 
L 37.796875 17.1875 
L 4.890625 17.1875 
L 4.890625 26.703125 
z
" id="DejaVuSans-34"/>
      </defs>
      <g transform="translate(30.55625 196.802278)scale(0.15 -0.15)">
       <use xlink:href="#DejaVuSans-30"/>
       <use x="63.623047" xlink:href="#DejaVuSans-2e"/>
       <use x="95.410156" xlink:href="#DejaVuSans-34"/>
      </g>
     </g>
    </g>
    <g id="ytick_4">
     <g id="line2d_19">
      <path clip-path="url(#pcd39df9889)" d="M 61.410938 137.88105 
L 418.530938 137.88105 
" style="fill:none;stroke:#b0b0b0;stroke-linecap:square;stroke-width:0.8;"/>
     </g>
     <g id="line2d_20">
      <g>
       <use style="stroke:#000000;stroke-width:0.8;" x="61.410938" xlink:href="#mc3ce260a5b" y="137.88105"/>
      </g>
     </g>
     <g id="text_11">
      <!-- 0.6 -->
      <defs>
       <path d="M 33.015625 40.375 
Q 26.375 40.375 22.484375 35.828125 
Q 18.609375 31.296875 18.609375 23.390625 
Q 18.609375 15.53125 22.484375 10.953125 
Q 26.375 6.390625 33.015625 6.390625 
Q 39.65625 6.390625 43.53125 10.953125 
Q 47.40625 15.53125 47.40625 23.390625 
Q 47.40625 31.296875 43.53125 35.828125 
Q 39.65625 40.375 33.015625 40.375 
z
M 52.59375 71.296875 
L 52.59375 62.3125 
Q 48.875 64.0625 45.09375 64.984375 
Q 41.3125 65.921875 37.59375 65.921875 
Q 27.828125 65.921875 22.671875 59.328125 
Q 17.53125 52.734375 16.796875 39.40625 
Q 19.671875 43.65625 24.015625 45.921875 
Q 28.375 48.1875 33.59375 48.1875 
Q 44.578125 48.1875 50.953125 41.515625 
Q 57.328125 34.859375 57.328125 23.390625 
Q 57.328125 12.15625 50.6875 5.359375 
Q 44.046875 -1.421875 33.015625 -1.421875 
Q 20.359375 -1.421875 13.671875 8.265625 
Q 6.984375 17.96875 6.984375 36.375 
Q 6.984375 53.65625 15.1875 63.9375 
Q 23.390625 74.21875 37.203125 74.21875 
Q 40.921875 74.21875 44.703125 73.484375 
Q 48.484375 72.75 52.59375 71.296875 
z
" id="DejaVuSans-36"/>
      </defs>
      <g transform="translate(30.55625 143.579878)scale(0.15 -0.15)">
       <use xlink:href="#DejaVuSans-30"/>
       <use x="63.623047" xlink:href="#DejaVuSans-2e"/>
       <use x="95.410156" xlink:href="#DejaVuSans-36"/>
      </g>
     </g>
    </g>
    <g id="ytick_5">
     <g id="line2d_21">
      <path clip-path="url(#pcd39df9889)" d="M 61.410938 84.65865 
L 418.530938 84.65865 
" style="fill:none;stroke:#b0b0b0;stroke-linecap:square;stroke-width:0.8;"/>
     </g>
     <g id="line2d_22">
      <g>
       <use style="stroke:#000000;stroke-width:0.8;" x="61.410938" xlink:href="#mc3ce260a5b" y="84.65865"/>
      </g>
     </g>
     <g id="text_12">
      <!-- 0.8 -->
      <defs>
       <path d="M 31.78125 34.625 
Q 24.75 34.625 20.71875 30.859375 
Q 16.703125 27.09375 16.703125 20.515625 
Q 16.703125 13.921875 20.71875 10.15625 
Q 24.75 6.390625 31.78125 6.390625 
Q 38.8125 6.390625 42.859375 10.171875 
Q 46.921875 13.96875 46.921875 20.515625 
Q 46.921875 27.09375 42.890625 30.859375 
Q 38.875 34.625 31.78125 34.625 
z
M 21.921875 38.8125 
Q 15.578125 40.375 12.03125 44.71875 
Q 8.5 49.078125 8.5 55.328125 
Q 8.5 64.0625 14.71875 69.140625 
Q 20.953125 74.21875 31.78125 74.21875 
Q 42.671875 74.21875 48.875 69.140625 
Q 55.078125 64.0625 55.078125 55.328125 
Q 55.078125 49.078125 51.53125 44.71875 
Q 48 40.375 41.703125 38.8125 
Q 48.828125 37.15625 52.796875 32.3125 
Q 56.78125 27.484375 56.78125 20.515625 
Q 56.78125 9.90625 50.3125 4.234375 
Q 43.84375 -1.421875 31.78125 -1.421875 
Q 19.734375 -1.421875 13.25 4.234375 
Q 6.78125 9.90625 6.78125 20.515625 
Q 6.78125 27.484375 10.78125 32.3125 
Q 14.796875 37.15625 21.921875 38.8125 
z
M 18.3125 54.390625 
Q 18.3125 48.734375 21.84375 45.5625 
Q 25.390625 42.390625 31.78125 42.390625 
Q 38.140625 42.390625 41.71875 45.5625 
Q 45.3125 48.734375 45.3125 54.390625 
Q 45.3125 60.0625 41.71875 63.234375 
Q 38.140625 66.40625 31.78125 66.40625 
Q 25.390625 66.40625 21.84375 63.234375 
Q 18.3125 60.0625 18.3125 54.390625 
z
" id="DejaVuSans-38"/>
      </defs>
      <g transform="translate(30.55625 90.357478)scale(0.15 -0.15)">
       <use xlink:href="#DejaVuSans-30"/>
       <use x="63.623047" xlink:href="#DejaVuSans-2e"/>
       <use x="95.410156" xlink:href="#DejaVuSans-38"/>
      </g>
     </g>
    </g>
    <g id="ytick_6">
     <g id="line2d_23">
      <path clip-path="url(#pcd39df9889)" d="M 61.410938 31.43625 
L 418.530938 31.43625 
" style="fill:none;stroke:#b0b0b0;stroke-linecap:square;stroke-width:0.8;"/>
     </g>
     <g id="line2d_24">
      <g>
       <use style="stroke:#000000;stroke-width:0.8;" x="61.410938" xlink:href="#mc3ce260a5b" y="31.43625"/>
      </g>
     </g>
     <g id="text_13">
      <!-- 1.0 -->
      <g transform="translate(30.55625 37.135078)scale(0.15 -0.15)">
       <use xlink:href="#DejaVuSans-31"/>
       <use x="63.623047" xlink:href="#DejaVuSans-2e"/>
       <use x="95.410156" xlink:href="#DejaVuSans-30"/>
      </g>
     </g>
    </g>
    <g id="text_14">
     <!-- Survival -->
     <defs>
      <path d="M 53.515625 70.515625 
L 53.515625 60.890625 
Q 47.90625 63.578125 42.921875 64.890625 
Q 37.9375 66.21875 33.296875 66.21875 
Q 25.25 66.21875 20.875 63.09375 
Q 16.5 59.96875 16.5 54.203125 
Q 16.5 49.359375 19.40625 46.890625 
Q 22.3125 44.4375 30.421875 42.921875 
L 36.375 41.703125 
Q 47.40625 39.59375 52.65625 34.296875 
Q 57.90625 29 57.90625 20.125 
Q 57.90625 9.515625 50.796875 4.046875 
Q 43.703125 -1.421875 29.984375 -1.421875 
Q 24.8125 -1.421875 18.96875 -0.25 
Q 13.140625 0.921875 6.890625 3.21875 
L 6.890625 13.375 
Q 12.890625 10.015625 18.65625 8.296875 
Q 24.421875 6.59375 29.984375 6.59375 
Q 38.421875 6.59375 43.015625 9.90625 
Q 47.609375 13.234375 47.609375 19.390625 
Q 47.609375 24.75 44.3125 27.78125 
Q 41.015625 30.8125 33.5 32.328125 
L 27.484375 33.5 
Q 16.453125 35.6875 11.515625 40.375 
Q 6.59375 45.0625 6.59375 53.421875 
Q 6.59375 63.09375 13.40625 68.65625 
Q 20.21875 74.21875 32.171875 74.21875 
Q 37.3125 74.21875 42.625 73.28125 
Q 47.953125 72.359375 53.515625 70.515625 
z
" id="DejaVuSans-53"/>
      <path d="M 8.5 21.578125 
L 8.5 54.6875 
L 17.484375 54.6875 
L 17.484375 21.921875 
Q 17.484375 14.15625 20.5 10.265625 
Q 23.53125 6.390625 29.59375 6.390625 
Q 36.859375 6.390625 41.078125 11.03125 
Q 45.3125 15.671875 45.3125 23.6875 
L 45.3125 54.6875 
L 54.296875 54.6875 
L 54.296875 0 
L 45.3125 0 
L 45.3125 8.40625 
Q 42.046875 3.421875 37.71875 1 
Q 33.40625 -1.421875 27.6875 -1.421875 
Q 18.265625 -1.421875 13.375 4.4375 
Q 8.5 10.296875 8.5 21.578125 
z
M 31.109375 56 
z
" id="DejaVuSans-75"/>
      <path d="M 41.109375 46.296875 
Q 39.59375 47.171875 37.8125 47.578125 
Q 36.03125 48 33.890625 48 
Q 26.265625 48 22.1875 43.046875 
Q 18.109375 38.09375 18.109375 28.8125 
L 18.109375 0 
L 9.078125 0 
L 9.078125 54.6875 
L 18.109375 54.6875 
L 18.109375 46.1875 
Q 20.953125 51.171875 25.484375 53.578125 
Q 30.03125 56 36.53125 56 
Q 37.453125 56 38.578125 55.875 
Q 39.703125 55.765625 41.0625 55.515625 
z
" id="DejaVuSans-72"/>
      <path d="M 2.984375 54.6875 
L 12.5 54.6875 
L 29.59375 8.796875 
L 46.6875 54.6875 
L 56.203125 54.6875 
L 35.6875 0 
L 23.484375 0 
z
" id="DejaVuSans-76"/>
      <path d="M 34.28125 27.484375 
Q 23.390625 27.484375 19.1875 25 
Q 14.984375 22.515625 14.984375 16.5 
Q 14.984375 11.71875 18.140625 8.90625 
Q 21.296875 6.109375 26.703125 6.109375 
Q 34.1875 6.109375 38.703125 11.40625 
Q 43.21875 16.703125 43.21875 25.484375 
L 43.21875 27.484375 
z
M 52.203125 31.203125 
L 52.203125 0 
L 43.21875 0 
L 43.21875 8.296875 
Q 40.140625 3.328125 35.546875 0.953125 
Q 30.953125 -1.421875 24.3125 -1.421875 
Q 15.921875 -1.421875 10.953125 3.296875 
Q 6 8.015625 6 15.921875 
Q 6 25.140625 12.171875 29.828125 
Q 18.359375 34.515625 30.609375 34.515625 
L 43.21875 34.515625 
L 43.21875 35.40625 
Q 43.21875 41.609375 39.140625 45 
Q 35.0625 48.390625 27.6875 48.390625 
Q 23 48.390625 18.546875 47.265625 
Q 14.109375 46.140625 10.015625 43.890625 
L 10.015625 52.203125 
Q 14.9375 54.109375 19.578125 55.046875 
Q 24.21875 56 28.609375 56 
Q 40.484375 56 46.34375 49.84375 
Q 52.203125 43.703125 52.203125 31.203125 
z
" id="DejaVuSans-61"/>
      <path d="M 9.421875 75.984375 
L 18.40625 75.984375 
L 18.40625 0 
L 9.421875 0 
z
" id="DejaVuSans-6c"/>
     </defs>
     <g transform="translate(22.396875 204.811)rotate(-90)scale(0.2 -0.2)">
      <use xlink:href="#DejaVuSans-53"/>
      <use x="63.476562" xlink:href="#DejaVuSans-75"/>
      <use x="126.855469" xlink:href="#DejaVuSans-72"/>
      <use x="167.96875" xlink:href="#DejaVuSans-76"/>
      <use x="227.148438" xlink:href="#DejaVuSans-69"/>
      <use x="254.931641" xlink:href="#DejaVuSans-76"/>
      <use x="314.111328" xlink:href="#DejaVuSans-61"/>
      <use x="375.390625" xlink:href="#DejaVuSans-6c"/>
     </g>
    </g>
   </g>
   <g id="LineCollection_1">
    <path clip-path="url(#pcd39df9889)" d="M 77.643665 297.54825 
L 77.643665 296.36553 
" style="fill:none;stroke:#1f77b4;stroke-width:1.5;"/>
    <path clip-path="url(#pcd39df9889)" d="M 85.617636 238.670718 
L 85.617636 223.917337 
" style="fill:none;stroke:#1f77b4;stroke-width:1.5;"/>
    <path clip-path="url(#pcd39df9889)" d="M 93.591607 141.882825 
L 93.591607 124.487087 
" style="fill:none;stroke:#1f77b4;stroke-width:1.5;"/>
    <path clip-path="url(#pcd39df9889)" d="M 101.565579 84.154221 
L 101.565579 71.133744 
" style="fill:none;stroke:#1f77b4;stroke-width:1.5;"/>
    <path clip-path="url(#pcd39df9889)" d="M 109.53955 138.650432 
L 109.53955 121.807373 
" style="fill:none;stroke:#1f77b4;stroke-width:1.5;"/>
    <path clip-path="url(#pcd39df9889)" d="M 117.513521 240.142168 
L 117.513521 225.281111 
" style="fill:none;stroke:#1f77b4;stroke-width:1.5;"/>
    <path clip-path="url(#pcd39df9889)" d="M 125.487493 290.862871 
L 125.487493 284.216355 
" style="fill:none;stroke:#1f77b4;stroke-width:1.5;"/>
    <path clip-path="url(#pcd39df9889)" d="M 133.461464 247.929659 
L 133.461464 232.93952 
" style="fill:none;stroke:#1f77b4;stroke-width:1.5;"/>
    <path clip-path="url(#pcd39df9889)" d="M 141.435435 140.106688 
L 141.435435 123.458612 
" style="fill:none;stroke:#1f77b4;stroke-width:1.5;"/>
    <path clip-path="url(#pcd39df9889)" d="M 149.409406 81.730913 
L 149.409406 69.121473 
" style="fill:none;stroke:#1f77b4;stroke-width:1.5;"/>
    <path clip-path="url(#pcd39df9889)" d="M 157.383378 114.158834 
L 157.383378 98.25448 
" style="fill:none;stroke:#1f77b4;stroke-width:1.5;"/>
    <path clip-path="url(#pcd39df9889)" d="M 165.357349 221.938307 
L 165.357349 205.151999 
" style="fill:none;stroke:#1f77b4;stroke-width:1.5;"/>
    <path clip-path="url(#pcd39df9889)" d="M 173.33132 286.459702 
L 173.33132 278.573936 
" style="fill:none;stroke:#1f77b4;stroke-width:1.5;"/>
    <path clip-path="url(#pcd39df9889)" d="M 181.305292 253.258605 
L 181.305292 239.659869 
" style="fill:none;stroke:#1f77b4;stroke-width:1.5;"/>
    <path clip-path="url(#pcd39df9889)" d="M 189.279263 159.457134 
L 189.279263 142.116688 
" style="fill:none;stroke:#1f77b4;stroke-width:1.5;"/>
    <path clip-path="url(#pcd39df9889)" d="M 197.253234 78.827117 
L 197.253234 66.017383 
" style="fill:none;stroke:#1f77b4;stroke-width:1.5;"/>
    <path clip-path="url(#pcd39df9889)" d="M 205.227205 121.04852 
L 205.227205 104.773619 
" style="fill:none;stroke:#1f77b4;stroke-width:1.5;"/>
    <path clip-path="url(#pcd39df9889)" d="M 213.201177 204.298467 
L 213.201177 187.092829 
" style="fill:none;stroke:#1f77b4;stroke-width:1.5;"/>
    <path clip-path="url(#pcd39df9889)" d="M 221.175148 281.282952 
L 221.175148 271.669114 
" style="fill:none;stroke:#1f77b4;stroke-width:1.5;"/>
    <path clip-path="url(#pcd39df9889)" d="M 229.149119 254.797461 
L 229.149119 241.090618 
" style="fill:none;stroke:#1f77b4;stroke-width:1.5;"/>
    <path clip-path="url(#pcd39df9889)" d="M 237.123091 182.460282 
L 237.123091 164.180939 
" style="fill:none;stroke:#1f77b4;stroke-width:1.5;"/>
    <path clip-path="url(#pcd39df9889)" d="M 245.097062 104.446176 
L 245.097062 89.084918 
" style="fill:none;stroke:#1f77b4;stroke-width:1.5;"/>
    <path clip-path="url(#pcd39df9889)" d="M 253.071033 104.928509 
L 253.071033 89.852956 
" style="fill:none;stroke:#1f77b4;stroke-width:1.5;"/>
    <path clip-path="url(#pcd39df9889)" d="M 261.045004 173.595158 
L 261.045004 156.488978 
" style="fill:none;stroke:#1f77b4;stroke-width:1.5;"/>
    <path clip-path="url(#pcd39df9889)" d="M 269.018976 252.690375 
L 269.018976 238.586645 
" style="fill:none;stroke:#1f77b4;stroke-width:1.5;"/>
    <path clip-path="url(#pcd39df9889)" d="M 276.992947 262.334308 
L 276.992947 249.528923 
" style="fill:none;stroke:#1f77b4;stroke-width:1.5;"/>
    <path clip-path="url(#pcd39df9889)" d="M 284.966918 200.542209 
L 284.966918 183.298712 
" style="fill:none;stroke:#1f77b4;stroke-width:1.5;"/>
    <path clip-path="url(#pcd39df9889)" d="M 292.94089 118.004644 
L 292.94089 101.61876 
" style="fill:none;stroke:#1f77b4;stroke-width:1.5;"/>
    <path clip-path="url(#pcd39df9889)" d="M 300.914861 88.62825 
L 300.914861 74.904007 
" style="fill:none;stroke:#1f77b4;stroke-width:1.5;"/>
    <path clip-path="url(#pcd39df9889)" d="M 308.888832 168.096664 
L 308.888832 151.072229 
" style="fill:none;stroke:#1f77b4;stroke-width:1.5;"/>
    <path clip-path="url(#pcd39df9889)" d="M 316.862804 230.642082 
L 316.862804 215.117304 
" style="fill:none;stroke:#1f77b4;stroke-width:1.5;"/>
    <path clip-path="url(#pcd39df9889)" d="M 324.836775 257.784345 
L 324.836775 244.172955 
" style="fill:none;stroke:#1f77b4;stroke-width:1.5;"/>
    <path clip-path="url(#pcd39df9889)" d="M 332.810746 206.946448 
L 332.810746 189.754052 
" style="fill:none;stroke:#1f77b4;stroke-width:1.5;"/>
    <path clip-path="url(#pcd39df9889)" d="M 340.784717 140.128496 
L 340.784717 122.634584 
" style="fill:none;stroke:#1f77b4;stroke-width:1.5;"/>
    <path clip-path="url(#pcd39df9889)" d="M 348.758689 111.058594 
L 348.758689 95.86627 
" style="fill:none;stroke:#1f77b4;stroke-width:1.5;"/>
    <path clip-path="url(#pcd39df9889)" d="M 356.73266 136.855651 
L 356.73266 119.440849 
" style="fill:none;stroke:#1f77b4;stroke-width:1.5;"/>
    <path clip-path="url(#pcd39df9889)" d="M 364.706631 212.000421 
L 364.706631 195.043599 
" style="fill:none;stroke:#1f77b4;stroke-width:1.5;"/>
    <path clip-path="url(#pcd39df9889)" d="M 372.680603 253.821116 
L 372.680603 239.842559 
" style="fill:none;stroke:#1f77b4;stroke-width:1.5;"/>
    <path clip-path="url(#pcd39df9889)" d="M 380.654574 222.315599 
L 380.654574 205.181516 
" style="fill:none;stroke:#1f77b4;stroke-width:1.5;"/>
    <path clip-path="url(#pcd39df9889)" d="M 388.628545 176.566199 
L 388.628545 159.21265 
" style="fill:none;stroke:#1f77b4;stroke-width:1.5;"/>
    <path clip-path="url(#pcd39df9889)" d="M 396.602516 111.187296 
L 396.602516 95.164946 
" style="fill:none;stroke:#1f77b4;stroke-width:1.5;"/>
   </g>
   <g id="LineCollection_2">
    <path clip-path="url(#pcd39df9889)" d="M 77.643665 293.318268 
L 77.643665 286.326567 
" style="fill:none;stroke:#d62728;stroke-width:1.5;"/>
    <path clip-path="url(#pcd39df9889)" d="M 85.617636 287.666289 
L 85.617636 278.702211 
" style="fill:none;stroke:#d62728;stroke-width:1.5;"/>
    <path clip-path="url(#pcd39df9889)" d="M 93.591607 267.770786 
L 93.591607 254.070164 
" style="fill:none;stroke:#d62728;stroke-width:1.5;"/>
    <path clip-path="url(#pcd39df9889)" d="M 101.565579 246.909551 
L 101.565579 229.357063 
" style="fill:none;stroke:#d62728;stroke-width:1.5;"/>
    <path clip-path="url(#pcd39df9889)" d="M 109.53955 233.123371 
L 109.53955 214.992664 
" style="fill:none;stroke:#d62728;stroke-width:1.5;"/>
    <path clip-path="url(#pcd39df9889)" d="M 117.513521 237.526876 
L 117.513521 219.977624 
" style="fill:none;stroke:#d62728;stroke-width:1.5;"/>
    <path clip-path="url(#pcd39df9889)" d="M 125.487493 252.646454 
L 125.487493 235.66625 
" style="fill:none;stroke:#d62728;stroke-width:1.5;"/>
    <path clip-path="url(#pcd39df9889)" d="M 133.461464 238.707578 
L 133.461464 220.998606 
" style="fill:none;stroke:#d62728;stroke-width:1.5;"/>
    <path clip-path="url(#pcd39df9889)" d="M 141.435435 257.409689 
L 141.435435 241.072901 
" style="fill:none;stroke:#d62728;stroke-width:1.5;"/>
    <path clip-path="url(#pcd39df9889)" d="M 149.409406 249.116787 
L 149.409406 231.931713 
" style="fill:none;stroke:#d62728;stroke-width:1.5;"/>
    <path clip-path="url(#pcd39df9889)" d="M 157.383378 247.152417 
L 157.383378 229.080723 
" style="fill:none;stroke:#d62728;stroke-width:1.5;"/>
    <path clip-path="url(#pcd39df9889)" d="M 165.357349 256.880137 
L 165.357349 240.355821 
" style="fill:none;stroke:#d62728;stroke-width:1.5;"/>
    <path clip-path="url(#pcd39df9889)" d="M 173.33132 261.433995 
L 173.33132 245.534505 
" style="fill:none;stroke:#d62728;stroke-width:1.5;"/>
    <path clip-path="url(#pcd39df9889)" d="M 181.305292 265.683689 
L 181.305292 250.750774 
" style="fill:none;stroke:#d62728;stroke-width:1.5;"/>
    <path clip-path="url(#pcd39df9889)" d="M 189.279263 244.751514 
L 189.279263 226.279257 
" style="fill:none;stroke:#d62728;stroke-width:1.5;"/>
    <path clip-path="url(#pcd39df9889)" d="M 197.253234 250.124002 
L 197.253234 232.652498 
" style="fill:none;stroke:#d62728;stroke-width:1.5;"/>
   </g>
   <g id="line2d_25">
    <path clip-path="url(#pcd39df9889)" d="M 77.643665 297.056409 
L 77.968319 297.056409 
L 78.292974 296.660171 
L 78.617628 297.056409 
L 79.266938 297.056409 
L 79.916247 291.82611 
L 80.240901 290.266269 
L 80.565556 289.314603 
L 81.864174 280.672367 
L 82.188828 276.978122 
L 82.838138 272.034609 
L 83.162792 268.075191 
L 83.487447 265.554493 
L 84.136756 257.61166 
L 85.760028 237.642512 
L 87.058647 218.74287 
L 88.681919 195.54823 
L 89.980538 173.31354 
L 90.305192 169.84315 
L 93.227083 124.75552 
L 96.148974 86.556838 
L 96.473628 83.875191 
L 96.798283 78.947695 
L 98.096901 67.813467 
L 98.421556 63.699789 
L 98.74621 61.48823 
L 99.070865 60.867568 
L 99.395519 58.708582 
L 99.720174 55.663799 
L 100.044828 54.273175 
L 100.369483 53.553719 
L 100.694138 51.317739 
L 101.018792 50.933447 
L 101.343447 50.768886 
L 101.668101 50.374231 
L 101.992756 49.444621 
L 102.31741 49.184692 
L 102.642065 49.184692 
L 102.966719 50.172227 
L 103.291374 49.984162 
L 103.616028 50.329352 
L 103.940683 51.238749 
L 104.589992 54.469279 
L 104.914647 55.18578 
L 105.88861 60.702925 
L 106.537919 65.854035 
L 106.862574 67.497018 
L 107.836538 76.871501 
L 109.45981 94.248301 
L 109.784465 99.277527 
L 110.109119 101.933256 
L 112.706356 139.242931 
L 113.03101 142.694593 
L 113.680319 154.563129 
L 114.004974 158.189094 
L 117.251519 208.378076 
L 117.576174 212.282173 
L 118.225483 223.234775 
L 120.17341 247.340824 
L 120.822719 255.568751 
L 121.472028 262.237031 
L 122.770647 273.654783 
L 123.419956 279.182868 
L 123.74461 280.834246 
L 124.393919 286.204524 
L 124.718574 287.401174 
L 125.043228 287.767447 
L 125.692538 291.011856 
L 126.017192 290.932866 
L 126.341847 292.117873 
L 126.666501 292.586906 
L 126.991156 292.488173 
L 127.31581 293.632087 
L 127.640465 292.689586 
L 127.965119 293.163485 
L 128.289774 292.858524 
L 129.913047 285.620456 
L 130.562356 281.439269 
L 130.88701 281.338849 
L 131.211665 277.142747 
L 131.536319 275.551599 
L 131.860974 271.990228 
L 132.185628 270.080592 
L 134.133556 250.251019 
L 134.45821 244.774845 
L 134.782865 241.874884 
L 137.380101 205.747153 
L 138.354065 192.231267 
L 139.003374 182.239288 
L 143.223883 120.464306 
L 143.548538 117.316114 
L 144.197847 108.036029 
L 146.145774 86.447116 
L 146.470428 82.175036 
L 146.795083 80.295732 
L 147.444392 74.4778 
L 147.769047 71.355592 
L 148.093701 70.051666 
L 148.418356 67.618409 
L 148.74301 66.789141 
L 149.392319 61.902998 
L 149.716974 60.393915 
L 150.041628 59.778095 
L 150.366283 58.517737 
L 150.690938 58.382205 
L 151.015592 57.337 
L 151.340247 57.031199 
L 151.664901 57.75349 
L 151.989556 56.333018 
L 152.31421 56.445227 
L 152.638865 57.224394 
L 152.963519 57.547094 
L 153.288174 58.822519 
L 153.612828 58.993424 
L 154.586792 64.679022 
L 154.911447 65.432076 
L 155.236101 67.654983 
L 155.560756 68.900248 
L 156.859374 79.418985 
L 157.508683 86.205637 
L 157.833338 87.687238 
L 160.105919 114.806864 
L 160.755228 122.842278 
L 164.001774 169.166001 
L 164.651083 179.105831 
L 165.625047 192.131686 
L 166.59901 206.888445 
L 168.222283 227.883555 
L 168.546938 233.140143 
L 168.871592 235.572846 
L 170.819519 257.124512 
L 171.468828 261.911385 
L 171.793483 266.251382 
L 173.74141 278.313747 
L 174.390719 280.983597 
L 174.715374 283.155668 
L 175.040028 282.58382 
L 175.364683 284.148583 
L 175.689338 284.495466 
L 176.013992 285.108638 
L 176.338647 284.358789 
L 176.663301 285.15157 
L 176.987956 283.694916 
L 177.31261 284.128834 
L 177.637265 282.987988 
L 177.961919 282.818734 
L 178.286574 281.338849 
L 178.611228 281.456005 
L 179.260538 277.284513 
L 179.585192 276.194119 
L 180.234501 270.710996 
L 180.559156 269.646661 
L 180.88381 267.628356 
L 181.208465 263.614069 
L 181.533119 262.2454 
L 183.805701 238.29526 
L 184.779665 226.570044 
L 186.078283 210.127022 
L 192.571374 120.825373 
L 193.869992 104.681063 
L 194.519301 99.277527 
L 195.16861 91.804848 
L 195.817919 85.797182 
L 196.142574 83.203599 
L 196.467228 82.037799 
L 197.116538 75.824451 
L 197.441192 73.473704 
L 197.765847 72.126351 
L 198.090501 70.055776 
L 198.415156 69.02804 
L 198.73981 67.373584 
L 200.038428 64.373045 
L 200.687738 63.09227 
L 201.012392 63.911631 
L 201.337047 63.393194 
L 201.661701 63.911631 
L 201.986356 63.868697 
L 203.284974 67.905434 
L 203.609628 70.322063 
L 203.934283 70.866733 
L 204.583592 75.731292 
L 204.908247 77.07081 
L 205.232901 79.007804 
L 205.88221 84.750496 
L 206.206865 86.87383 
L 206.531519 91.224827 
L 207.505483 98.973644 
L 208.479447 111.016993 
L 209.128756 118.499253 
L 209.45341 122.04509 
L 210.427374 136.232712 
L 210.752028 139.286053 
L 216.59581 219.433647 
L 216.920465 222.302687 
L 217.569774 230.627996 
L 217.894428 233.368487 
L 218.219083 237.848939 
L 218.543738 240.599388 
L 218.868392 245.287364 
L 219.193047 247.372475 
L 220.16701 258.090549 
L 220.816319 261.836701 
L 221.140974 264.769801 
L 221.790283 268.114299 
L 222.114938 271.956005 
L 222.439592 272.272099 
L 222.764247 274.586353 
L 223.088901 275.101668 
L 223.73821 278.706484 
L 224.062865 278.532225 
L 224.387519 278.911645 
L 225.361483 281.115258 
L 225.686138 279.750741 
L 226.010792 280.126568 
L 226.335447 280.236286 
L 226.660101 278.76457 
L 226.984756 278.392781 
L 227.634065 275.564259 
L 227.958719 274.54978 
L 228.283374 271.868228 
L 228.608028 271.615872 
L 228.932683 269.636374 
L 229.581992 264.645253 
L 229.906647 263.402513 
L 230.555956 257.649641 
L 230.88061 254.172966 
L 231.205265 252.236483 
L 234.127156 220.558533 
L 235.101119 206.774333 
L 235.750428 199.463555 
L 238.347665 163.787297 
L 241.918865 118.176602 
L 244.516101 90.61657 
L 244.840756 89.31486 
L 245.490065 82.936722 
L 245.814719 81.598826 
L 246.139374 78.364603 
L 247.437992 71.610958 
L 248.087301 70.177824 
L 248.411956 67.789084 
L 248.73661 67.36124 
L 249.061265 66.254696 
L 249.385919 66.498359 
L 249.710574 66.523282 
L 250.035228 66.344467 
L 250.359883 66.624561 
L 250.684538 66.573922 
L 251.009192 67.98973 
L 251.333847 68.470737 
L 251.658501 69.342736 
L 251.983156 71.419832 
L 252.30781 70.619368 
L 252.632465 72.053589 
L 253.931083 80.986952 
L 254.255738 82.594475 
L 254.905047 87.790336 
L 257.502283 112.43994 
L 258.151592 119.881866 
L 260.424174 149.851373 
L 260.748828 151.993989 
L 261.398138 162.273723 
L 262.372101 175.236738 
L 263.670719 192.67938 
L 263.995374 195.963032 
L 265.618647 217.609108 
L 267.241919 236.947168 
L 267.566574 239.499645 
L 268.540538 249.523732 
L 268.865192 251.098861 
L 269.189847 255.226442 
L 269.839156 259.829924 
L 270.813119 266.82796 
L 271.137774 268.856295 
L 271.462428 269.903818 
L 271.787083 271.670732 
L 272.761047 275.039951 
L 273.410356 275.945633 
L 273.73501 277.764066 
L 274.384319 276.831336 
L 274.708974 276.711238 
L 275.033628 276.84468 
L 275.358283 276.051196 
L 275.682938 276.409732 
L 276.007592 275.716178 
L 276.332247 274.191988 
L 276.656901 273.678294 
L 277.955519 266.7057 
L 278.604828 262.433202 
L 279.254138 258.422623 
L 279.578792 254.652953 
L 279.903447 252.97524 
L 281.202065 241.345353 
L 281.851374 234.152101 
L 282.176028 230.727965 
L 282.825338 222.597022 
L 283.474647 215.772059 
L 284.123956 206.699722 
L 284.773265 199.740228 
L 286.721192 172.0721 
L 287.695156 159.961408 
L 288.344465 151.494037 
L 288.993774 143.261711 
L 289.967737 130.21084 
L 290.617047 124.053616 
L 291.266356 116.63871 
L 291.915665 108.702761 
L 292.240319 106.255093 
L 293.214283 96.343422 
L 294.188247 88.399817 
L 295.811519 78.012347 
L 296.136174 77.342484 
L 296.460828 74.652062 
L 296.785483 73.623323 
L 297.110138 72.209508 
L 297.759447 71.344859 
L 298.084101 70.703962 
L 298.408756 70.725664 
L 298.73341 70.432844 
L 299.058065 70.63034 
L 299.382719 69.883345 
L 299.707374 71.248257 
L 300.356683 72.324564 
L 300.681338 73.670265 
L 301.005992 73.19252 
L 301.330647 75.954874 
L 301.655301 76.299966 
L 301.979956 78.076221 
L 302.30461 80.633101 
L 302.629265 80.937578 
L 303.278574 86.220357 
L 303.603228 87.758796 
L 303.927883 89.861603 
L 304.577192 95.926255 
L 304.901847 98.581755 
L 305.226501 102.522174 
L 305.551156 104.814962 
L 307.174428 122.234995 
L 308.148392 133.540048 
L 310.745628 166.341061 
L 311.394938 175.451238 
L 313.992174 208.269171 
L 314.316828 211.889875 
L 314.641483 216.973715 
L 314.966138 219.452547 
L 315.290792 223.88862 
L 315.940101 230.421189 
L 317.238719 244.027476 
L 317.563374 245.713711 
L 318.212683 252.455927 
L 318.537338 254.172966 
L 318.861992 257.131993 
L 319.186647 258.075239 
L 319.835956 262.450082 
L 320.485265 266.288646 
L 320.809919 267.149764 
L 321.134574 269.945462 
L 321.459228 270.604815 
L 321.783883 271.618693 
L 322.108538 271.681704 
L 322.433192 272.912917 
L 322.757847 272.639902 
L 323.082501 272.787456 
L 323.407156 273.131081 
L 323.73181 273.273677 
L 324.056465 272.406755 
L 324.381119 272.798806 
L 324.705774 271.084777 
L 325.030428 271.095511 
L 325.355083 269.127809 
L 326.329047 265.916303 
L 326.653701 264.471725 
L 327.627665 258.360905 
L 327.952319 256.944967 
L 328.276974 254.617174 
L 328.601628 250.416707 
L 328.926283 248.71219 
L 330.224901 236.458197 
L 333.146792 204.399818 
L 333.471447 199.43376 
L 333.796101 196.618569 
L 334.120756 190.891095 
L 335.419374 175.317681 
L 337.367301 150.789091 
L 338.341265 138.755645 
L 339.639883 123.241574 
L 340.613847 114.026735 
L 340.938501 109.250831 
L 343.211083 89.923322 
L 343.535738 88.081612 
L 343.860392 85.544739 
L 344.185047 84.458152 
L 344.509701 81.453131 
L 344.834356 81.679768 
L 345.15901 78.814626 
L 345.483665 79.110846 
L 345.808319 76.916798 
L 346.132974 76.419226 
L 346.457628 75.292257 
L 346.782283 75.03589 
L 347.106938 73.769014 
L 347.431592 73.593399 
L 347.756247 73.583424 
L 348.080901 73.996135 
L 348.405556 74.671425 
L 348.73021 75.023204 
L 349.054865 75.149831 
L 349.379519 75.852399 
L 349.704174 77.86246 
L 350.028828 78.443253 
L 351.652101 86.439801 
L 351.976756 88.87459 
L 352.30141 89.659199 
L 355.223301 115.819804 
L 356.197265 127.516436 
L 356.521919 130.269459 
L 356.846574 135.357765 
L 357.171228 137.117351 
L 357.820538 146.398505 
L 359.44381 166.037523 
L 360.093119 175.39053 
L 360.417774 178.628265 
L 361.067083 187.28529 
L 361.716392 195.05866 
L 363.01501 211.04484 
L 363.664319 218.484237 
L 364.638283 229.716435 
L 365.612247 238.712824 
L 366.910865 249.647987 
L 368.534138 261.679034 
L 368.858792 262.652645 
L 370.15741 268.71665 
L 370.482065 269.343839 
L 370.806719 269.272577 
L 371.131374 270.944594 
L 371.780683 271.76948 
L 372.105338 270.849032 
L 372.429992 271.390812 
L 372.754647 270.817177 
L 373.079301 271.084777 
L 373.403956 269.698092 
L 373.72861 270.132565 
L 374.053265 268.333464 
L 374.377919 268.114299 
L 375.027228 264.05658 
L 375.676538 261.517104 
L 376.650501 255.365443 
L 377.624465 247.845139 
L 378.598428 240.166887 
L 379.247738 232.343917 
L 379.572392 230.235063 
L 379.897047 225.008549 
L 380.87101 215.642853 
L 382.169628 200.259521 
L 383.468247 183.284882 
L 383.792901 179.733142 
L 384.44221 170.21397 
L 388.987374 115.939502 
L 390.610647 100.321169 
L 390.935301 98.00331 
L 391.259956 94.655203 
L 391.58461 93.054116 
L 392.233919 86.815742 
L 392.558574 84.720344 
L 392.883228 83.666892 
L 393.532538 79.721856 
L 393.857192 78.719342 
L 394.181847 76.565521 
L 394.506501 76.748389 
L 394.831156 74.390669 
L 395.15581 73.848012 
L 395.480465 73.017523 
L 395.805119 72.9259 
L 396.129774 73.182444 
L 396.454428 71.81887 
L 396.779083 73.354009 
L 397.103738 72.793557 
L 397.753047 72.854638 
L 398.077701 73.907262 
L 398.402356 74.468119 
L 398.72701 76.355222 
L 399.051665 77.025513 
L 399.376319 79.92754 
L 399.700974 80.011226 
L 400.674938 86.425171 
L 400.999592 87.701549 
L 402.29821 97.96696 
L 402.29821 97.96696 
" style="fill:none;stroke:#1f77b4;stroke-linecap:square;stroke-width:1.5;"/>
   </g>
   <g id="line2d_26">
    <path clip-path="url(#pcd39df9889)" d="M 77.643665 289.871385 
L 79.557418 289.871385 
L 79.830811 289.541359 
L 80.104204 289.871385 
L 80.377598 289.871385 
L 80.650991 289.499985 
L 80.924384 289.871385 
L 81.197778 288.32745 
L 81.744564 288.600772 
L 82.017958 287.360482 
L 82.291351 287.747307 
L 82.564744 289.080446 
L 82.838138 286.802076 
L 83.384924 287.278215 
L 83.658317 285.556527 
L 83.931711 285.401882 
L 84.205104 285.504562 
L 85.025284 283.010717 
L 85.298677 282.975454 
L 85.572071 281.790728 
L 85.845464 282.480511 
L 86.118857 281.010997 
L 86.39225 280.502362 
L 86.665644 280.722188 
L 86.939037 280.475675 
L 87.21243 279.736026 
L 87.485824 279.785397 
L 87.759217 279.231093 
L 88.03261 276.924061 
L 88.306004 277.51616 
L 88.579397 276.684148 
L 88.85279 276.606701 
L 89.126183 276.301546 
L 89.67297 274.086879 
L 89.946363 273.782115 
L 90.219757 273.732742 
L 91.039937 270.931229 
L 91.31333 271.107579 
L 91.586723 270.606859 
L 91.860116 269.822452 
L 92.13351 269.566247 
L 92.680296 267.620401 
L 92.95369 267.620401 
L 93.227083 266.729177 
L 93.500476 266.413941 
L 94.047263 264.485708 
L 94.320656 264.249194 
L 94.867443 262.96833 
L 95.140836 262.770833 
L 95.687623 260.433651 
L 95.961016 261.007492 
L 96.234409 259.92676 
L 96.507803 259.841304 
L 96.781196 258.197337 
L 97.054589 258.004976 
L 97.327982 257.198532 
L 97.601376 256.969293 
L 97.874769 256.273125 
L 98.148162 255.205978 
L 98.421556 255.180657 
L 98.694949 255.450741 
L 99.241736 254.134582 
L 99.515129 252.922077 
L 99.788522 253.123476 
L 100.061915 252.882258 
L 100.335309 251.012695 
L 100.608702 250.472213 
L 100.882095 251.551577 
L 101.155489 250.105821 
L 101.428882 250.090745 
L 101.702275 250.449424 
L 101.975669 249.345018 
L 102.249062 249.201583 
L 102.522455 248.340161 
L 102.795849 246.76874 
L 103.069242 247.439305 
L 103.616028 246.52892 
L 103.889422 246.55008 
L 104.162815 245.325764 
L 104.436208 245.328482 
L 104.709602 244.866791 
L 104.982995 243.907119 
L 105.256388 244.737395 
L 105.529782 244.305886 
L 105.803175 243.447018 
L 106.076568 243.251565 
L 106.349961 243.507069 
L 106.896748 242.070579 
L 107.170141 242.683469 
L 107.443535 242.253691 
L 107.716928 241.45617 
L 107.990321 242.558386 
L 108.263715 241.385173 
L 108.537108 242.077119 
L 108.810501 241.268996 
L 109.083894 241.972496 
L 109.357288 240.437132 
L 109.630681 240.418019 
L 110.177468 240.62189 
L 110.450861 239.896922 
L 110.724254 240.736567 
L 110.997648 239.934246 
L 111.271041 240.086169 
L 111.544434 238.941765 
L 112.091221 239.808865 
L 112.364614 239.310071 
L 112.638007 239.695648 
L 112.911401 238.60275 
L 113.184794 239.927916 
L 113.458187 238.618808 
L 113.731581 238.72439 
L 114.004974 238.534859 
L 114.278367 238.065539 
L 114.55176 239.253821 
L 114.825154 238.306499 
L 115.098547 238.674705 
L 115.37194 238.368218 
L 115.645334 239.478821 
L 115.918727 238.071672 
L 116.19212 239.022504 
L 116.738907 238.077806 
L 117.0123 238.429937 
L 117.285693 239.241321 
L 117.559087 237.99807 
L 117.83248 237.789529 
L 118.105873 238.164546 
L 118.379267 237.881532 
L 118.65266 237.887666 
L 118.926053 238.718179 
L 119.199447 237.150232 
L 119.47284 238.27564 
L 119.746233 238.504 
L 120.019626 237.973536 
L 120.29302 238.522515 
L 120.566413 237.887666 
L 120.839806 237.541056 
L 121.1132 237.777262 
L 121.386593 239.166321 
L 121.659986 237.728194 
L 121.93338 239.316321 
L 122.206773 238.189234 
L 122.480166 237.979669 
L 122.75356 238.294156 
L 123.026953 238.9045 
L 123.300346 238.774076 
L 123.573739 237.838598 
L 123.847133 237.985803 
L 124.120526 237.259282 
L 124.393919 237.955135 
L 124.667313 239.103821 
L 124.940706 238.99145 
L 125.214099 238.736812 
L 125.487493 238.873447 
L 125.760886 238.411421 
L 126.307672 239.041321 
L 126.581066 238.565718 
L 126.854459 238.639781 
L 127.127852 238.829972 
L 127.401246 238.448453 
L 127.674639 238.368218 
L 127.948032 238.836183 
L 128.221426 238.674705 
L 128.768212 239.041321 
L 129.041605 240.367051 
L 129.314999 239.391321 
L 129.861785 238.454624 
L 130.135179 239.285071 
L 130.408572 238.892079 
L 130.681965 237.832464 
L 130.955359 238.423765 
L 131.228752 239.683069 
L 131.502145 239.016293 
L 131.775538 239.815155 
L 132.048932 239.720807 
L 132.322325 238.941765 
L 132.595718 239.322571 
L 132.869112 238.606387 
L 133.142505 239.506954 
L 133.415898 238.9045 
L 133.689292 239.435071 
L 133.962685 238.349703 
L 134.236078 239.972226 
L 134.782865 238.047138 
L 135.056258 239.041321 
L 135.329651 239.247571 
L 135.603045 239.053557 
L 135.876438 239.303821 
L 136.149831 238.565718 
L 136.696618 239.550983 
L 136.970011 238.355874 
L 137.243404 238.189234 
L 137.516798 238.615093 
L 137.790191 239.422571 
L 138.063584 239.391321 
L 138.336978 238.848604 
L 138.610371 238.761654 
L 138.883764 239.228821 
L 139.157158 238.687126 
L 139.430551 238.805129 
L 139.977338 238.047138 
L 140.250731 239.016293 
L 140.524124 239.422571 
L 140.797517 239.478821 
L 141.070911 239.091321 
L 141.344304 239.253821 
L 141.891091 238.151409 
L 142.164484 238.380562 
L 142.437877 238.755444 
L 142.711271 239.701938 
L 142.984664 239.588721 
L 143.258057 238.090073 
L 143.53145 238.553375 
L 143.804844 239.347571 
L 144.078237 237.844731 
L 144.35163 238.767865 
L 144.898417 238.331187 
L 145.17181 238.674705 
L 145.445204 238.250952 
L 145.718597 238.466968 
L 145.99199 239.116321 
L 146.265383 238.114607 
L 146.81217 237.961269 
L 147.085563 239.525823 
L 147.358957 238.81134 
L 147.63235 237.777262 
L 147.905743 238.63123 
L 148.179137 239.022504 
L 148.45253 238.643651 
L 148.725923 237.99807 
L 148.999316 238.935554 
L 149.27271 238.065539 
L 149.819496 239.028714 
L 150.09289 238.491656 
L 150.366283 239.808865 
L 150.639676 238.584234 
L 150.91307 238.578062 
L 151.186463 238.047138 
L 151.733249 239.085071 
L 152.006643 239.576142 
L 152.280036 238.504 
L 152.553429 238.608921 
L 152.826823 238.213921 
L 153.100216 239.122571 
L 153.373609 239.128821 
L 153.647003 238.749233 
L 153.920396 238.170718 
L 154.193789 237.973536 
L 154.467182 238.836183 
L 154.740576 238.873447 
L 155.013969 238.662283 
L 155.287362 239.460071 
L 155.560756 239.385071 
L 155.834149 238.873447 
L 156.107542 239.466321 
L 156.380936 239.478821 
L 156.654329 238.114607 
L 157.201115 240.411648 
L 157.474509 239.513244 
L 157.747902 239.378821 
L 158.294689 239.64533 
L 158.841475 238.89829 
L 159.114869 240.086169 
L 159.388262 239.745967 
L 159.661655 239.708228 
L 160.208442 240.972198 
L 160.481835 239.160071 
L 160.755228 239.360071 
L 161.028622 240.212771 
L 161.302015 239.991217 
L 161.575408 240.373422 
L 161.848802 240.532696 
L 162.122195 239.915255 
L 162.395588 240.933724 
L 162.668982 241.314176 
L 162.942375 240.500841 
L 163.215768 240.539067 
L 163.489161 241.417444 
L 163.762555 241.217362 
L 164.035948 241.372264 
L 164.309341 242.485969 
L 164.582735 241.494895 
L 164.856128 241.998483 
L 165.129521 240.481728 
L 165.402915 242.247152 
L 165.676308 240.824714 
L 165.949701 242.05096 
L 166.223094 241.654157 
L 166.496488 241.901032 
L 166.769881 241.881542 
L 167.043274 242.351787 
L 167.316668 242.260231 
L 167.590061 243.346934 
L 167.863454 242.168675 
L 168.136848 243.039485 
L 168.410241 242.657136 
L 168.683634 241.972496 
L 168.957027 242.795385 
L 169.230421 242.109817 
L 169.503814 242.848052 
L 169.777207 242.149056 
L 170.050601 243.23831 
L 170.323994 242.410645 
L 170.597387 243.593808 
L 170.870781 242.505719 
L 171.144174 243.225055 
L 171.417567 243.48038 
L 171.69096 243.427001 
L 171.964354 243.772766 
L 172.237747 243.26482 
L 172.51114 244.36676 
L 172.784534 243.467035 
L 173.057927 244.143558 
L 173.33132 243.473707 
L 173.604714 243.886966 
L 173.878107 245.010313 
L 174.1515 245.017171 
L 174.424893 243.745895 
L 174.698287 244.63524 
L 174.97168 243.967579 
L 175.245073 244.921164 
L 175.518467 244.887222 
L 175.79186 244.123267 
L 176.065253 244.49527 
L 176.338647 245.154323 
L 176.61204 244.62843 
L 176.885433 244.662481 
L 177.158826 244.23825 
L 177.705613 244.299123 
L 177.979006 246.005797 
L 178.2524 245.97798 
L 178.525793 245.604705 
L 178.799186 245.901484 
L 179.07258 245.243473 
L 179.345973 244.941737 
L 179.619366 245.590894 
L 179.89276 245.929301 
L 180.166153 245.790216 
L 180.439546 246.237489 
L 180.712939 244.710154 
L 180.986333 245.673761 
L 181.533119 245.2229 
L 181.806513 245.887575 
L 182.079906 245.936255 
L 182.626693 246.662937 
L 182.900086 246.454599 
L 183.446872 246.811062 
L 183.720266 245.790216 
L 183.993659 246.181461 
L 184.267052 245.964072 
L 184.540446 246.026659 
L 185.087232 247.023464 
L 185.360626 246.475609 
L 185.907412 247.016359 
L 186.180805 246.916899 
L 186.454199 246.592402 
L 186.727592 247.21528 
L 187.274379 246.39857 
L 187.547772 246.52892 
L 187.821165 246.27951 
L 188.094559 246.923919 
L 188.914738 246.167454 
L 189.188132 246.535973 
L 189.461525 247.810762 
L 189.734918 247.731474 
L 190.008312 247.839594 
L 190.281705 247.26501 
L 190.555098 246.349546 
L 191.101885 247.646823 
L 191.375278 247.695434 
L 191.648671 247.496552 
L 191.922065 248.091874 
L 192.195458 246.909795 
L 192.742245 246.980838 
L 193.015638 246.923919 
L 193.289031 247.78193 
L 193.562425 247.331969 
L 193.835818 247.99817 
L 194.655998 247.108715 
L 194.929391 247.339125 
L 195.202784 247.396371 
L 195.749571 246.804008 
L 196.022964 247.367748 
L 196.296358 247.653979 
L 196.569751 246.916899 
L 196.843144 247.396371 
L 197.116538 247.16555 
L 197.389931 247.832386 
L 197.663324 247.382059 
L 198.210111 248.107809 
L 198.483504 247.48224 
L 199.030291 247.861218 
L 199.303684 248.877331 
L 199.850471 247.846802 
L 200.123864 248.127914 
L 200.397257 248.238507 
L 200.67065 247.11582 
L 200.944044 248.782312 
L 201.49083 247.11582 
L 201.764224 247.875634 
L 202.31101 247.503707 
L 202.584404 248.340161 
L 202.857797 248.048626 
L 203.13119 248.951025 
L 203.404583 247.695434 
L 203.677977 248.136853 
L 203.95137 247.475084 
L 204.224763 247.6182 
L 204.498157 248.223985 
L 204.77155 247.675446 
L 205.318337 248.07025 
L 205.59173 248.122331 
L 205.865123 247.918882 
L 206.138516 248.282073 
L 206.41191 247.738682 
L 206.685303 248.129592 
L 206.958696 247.151341 
L 207.23209 248.03421 
L 207.505483 248.091874 
L 207.778876 248.449076 
L 208.325663 247.89005 
L 208.599056 248.782312 
L 208.872449 247.796346 
L 209.145843 248.511664 
L 209.419236 247.151341 
L 209.692629 249.382142 
L 210.239416 247.023464 
L 210.512809 248.818886 
L 210.786203 248.958394 
L 211.606382 248.238507 
L 211.879776 248.238507 
L 212.153169 248.796941 
L 212.426562 247.186862 
L 212.699956 248.18768 
L 212.973349 247.803554 
L 213.520136 249.098412 
L 214.066922 247.897258 
L 214.340315 248.325639 
L 214.340315 248.325639 
" style="fill:none;stroke:#d62728;stroke-linecap:square;stroke-width:1.5;"/>
   </g>
   <g id="line2d_27">
    <defs>
     <path d="M 0 3 
C 0.795609 3 1.55874 2.683901 2.12132 2.12132 
C 2.683901 1.55874 3 0.795609 3 0 
C 3 -0.795609 2.683901 -1.55874 2.12132 -2.12132 
C 1.55874 -2.683901 0.795609 -3 0 -3 
C -0.795609 -3 -1.55874 -2.683901 -2.12132 -2.12132 
C -2.683901 -1.55874 -3 -0.795609 -3 0 
C -3 0.795609 -2.683901 1.55874 -2.12132 2.12132 
C -1.55874 2.683901 -0.795609 3 0 3 
z
" id="mcb2457e3ba" style="stroke:#1f77b4;"/>
    </defs>
    <g clip-path="url(#pcd39df9889)">
     <use style="fill:#1f77b4;stroke:#1f77b4;" x="77.643665" xlink:href="#mcb2457e3ba" y="296.95689"/>
     <use style="fill:#1f77b4;stroke:#1f77b4;" x="85.617636" xlink:href="#mcb2457e3ba" y="231.294028"/>
     <use style="fill:#1f77b4;stroke:#1f77b4;" x="93.591607" xlink:href="#mcb2457e3ba" y="133.184956"/>
     <use style="fill:#1f77b4;stroke:#1f77b4;" x="101.565579" xlink:href="#mcb2457e3ba" y="77.643982"/>
     <use style="fill:#1f77b4;stroke:#1f77b4;" x="109.53955" xlink:href="#mcb2457e3ba" y="130.228902"/>
     <use style="fill:#1f77b4;stroke:#1f77b4;" x="117.513521" xlink:href="#mcb2457e3ba" y="232.71164"/>
     <use style="fill:#1f77b4;stroke:#1f77b4;" x="125.487493" xlink:href="#mcb2457e3ba" y="287.539613"/>
     <use style="fill:#1f77b4;stroke:#1f77b4;" x="133.461464" xlink:href="#mcb2457e3ba" y="240.43459"/>
     <use style="fill:#1f77b4;stroke:#1f77b4;" x="141.435435" xlink:href="#mcb2457e3ba" y="131.78265"/>
     <use style="fill:#1f77b4;stroke:#1f77b4;" x="149.409406" xlink:href="#mcb2457e3ba" y="75.426193"/>
     <use style="fill:#1f77b4;stroke:#1f77b4;" x="157.383378" xlink:href="#mcb2457e3ba" y="106.206657"/>
     <use style="fill:#1f77b4;stroke:#1f77b4;" x="165.357349" xlink:href="#mcb2457e3ba" y="213.545153"/>
     <use style="fill:#1f77b4;stroke:#1f77b4;" x="173.33132" xlink:href="#mcb2457e3ba" y="282.516819"/>
     <use style="fill:#1f77b4;stroke:#1f77b4;" x="181.305292" xlink:href="#mcb2457e3ba" y="246.459237"/>
     <use style="fill:#1f77b4;stroke:#1f77b4;" x="189.279263" xlink:href="#mcb2457e3ba" y="150.786911"/>
     <use style="fill:#1f77b4;stroke:#1f77b4;" x="197.253234" xlink:href="#mcb2457e3ba" y="72.42225"/>
     <use style="fill:#1f77b4;stroke:#1f77b4;" x="205.227205" xlink:href="#mcb2457e3ba" y="112.911069"/>
     <use style="fill:#1f77b4;stroke:#1f77b4;" x="213.201177" xlink:href="#mcb2457e3ba" y="195.695648"/>
     <use style="fill:#1f77b4;stroke:#1f77b4;" x="221.175148" xlink:href="#mcb2457e3ba" y="276.476033"/>
     <use style="fill:#1f77b4;stroke:#1f77b4;" x="229.149119" xlink:href="#mcb2457e3ba" y="247.944039"/>
     <use style="fill:#1f77b4;stroke:#1f77b4;" x="237.123091" xlink:href="#mcb2457e3ba" y="173.32061"/>
     <use style="fill:#1f77b4;stroke:#1f77b4;" x="245.097062" xlink:href="#mcb2457e3ba" y="96.765547"/>
     <use style="fill:#1f77b4;stroke:#1f77b4;" x="253.071033" xlink:href="#mcb2457e3ba" y="97.390733"/>
     <use style="fill:#1f77b4;stroke:#1f77b4;" x="261.045004" xlink:href="#mcb2457e3ba" y="165.042068"/>
     <use style="fill:#1f77b4;stroke:#1f77b4;" x="269.018976" xlink:href="#mcb2457e3ba" y="245.63851"/>
     <use style="fill:#1f77b4;stroke:#1f77b4;" x="276.992947" xlink:href="#mcb2457e3ba" y="255.931616"/>
     <use style="fill:#1f77b4;stroke:#1f77b4;" x="284.966918" xlink:href="#mcb2457e3ba" y="191.920461"/>
     <use style="fill:#1f77b4;stroke:#1f77b4;" x="292.94089" xlink:href="#mcb2457e3ba" y="109.811702"/>
     <use style="fill:#1f77b4;stroke:#1f77b4;" x="300.914861" xlink:href="#mcb2457e3ba" y="81.766128"/>
     <use style="fill:#1f77b4;stroke:#1f77b4;" x="308.888832" xlink:href="#mcb2457e3ba" y="159.584447"/>
     <use style="fill:#1f77b4;stroke:#1f77b4;" x="316.862804" xlink:href="#mcb2457e3ba" y="222.879693"/>
     <use style="fill:#1f77b4;stroke:#1f77b4;" x="324.836775" xlink:href="#mcb2457e3ba" y="250.97865"/>
     <use style="fill:#1f77b4;stroke:#1f77b4;" x="332.810746" xlink:href="#mcb2457e3ba" y="198.35025"/>
     <use style="fill:#1f77b4;stroke:#1f77b4;" x="340.784717" xlink:href="#mcb2457e3ba" y="131.38154"/>
     <use style="fill:#1f77b4;stroke:#1f77b4;" x="348.758689" xlink:href="#mcb2457e3ba" y="103.462432"/>
     <use style="fill:#1f77b4;stroke:#1f77b4;" x="356.73266" xlink:href="#mcb2457e3ba" y="128.14825"/>
     <use style="fill:#1f77b4;stroke:#1f77b4;" x="364.706631" xlink:href="#mcb2457e3ba" y="203.52201"/>
     <use style="fill:#1f77b4;stroke:#1f77b4;" x="372.680603" xlink:href="#mcb2457e3ba" y="246.831837"/>
     <use style="fill:#1f77b4;stroke:#1f77b4;" x="380.654574" xlink:href="#mcb2457e3ba" y="213.748558"/>
     <use style="fill:#1f77b4;stroke:#1f77b4;" x="388.628545" xlink:href="#mcb2457e3ba" y="167.889424"/>
     <use style="fill:#1f77b4;stroke:#1f77b4;" x="396.602516" xlink:href="#mcb2457e3ba" y="103.176121"/>
    </g>
   </g>
   <g id="line2d_28">
    <defs>
     <path d="M 0 3 
C 0.795609 3 1.55874 2.683901 2.12132 2.12132 
C 2.683901 1.55874 3 0.795609 3 0 
C 3 -0.795609 2.683901 -1.55874 2.12132 -2.12132 
C 1.55874 -2.683901 0.795609 -3 0 -3 
C -0.795609 -3 -1.55874 -2.683901 -2.12132 -2.12132 
C -2.683901 -1.55874 -3 -0.795609 -3 0 
C -3 0.795609 -2.683901 1.55874 -2.12132 2.12132 
C -1.55874 2.683901 -0.795609 3 0 3 
z
" id="m4d17eb6f4c" style="stroke:#d62728;"/>
    </defs>
    <g clip-path="url(#pcd39df9889)">
     <use style="fill:#d62728;stroke:#d62728;" x="77.643665" xlink:href="#m4d17eb6f4c" y="289.822418"/>
     <use style="fill:#d62728;stroke:#d62728;" x="85.617636" xlink:href="#m4d17eb6f4c" y="283.18425"/>
     <use style="fill:#d62728;stroke:#d62728;" x="93.591607" xlink:href="#m4d17eb6f4c" y="260.920475"/>
     <use style="fill:#d62728;stroke:#d62728;" x="101.565579" xlink:href="#m4d17eb6f4c" y="238.133307"/>
     <use style="fill:#d62728;stroke:#d62728;" x="109.53955" xlink:href="#m4d17eb6f4c" y="224.058017"/>
     <use style="fill:#d62728;stroke:#d62728;" x="117.513521" xlink:href="#m4d17eb6f4c" y="228.75225"/>
     <use style="fill:#d62728;stroke:#d62728;" x="125.487493" xlink:href="#m4d17eb6f4c" y="244.156352"/>
     <use style="fill:#d62728;stroke:#d62728;" x="133.461464" xlink:href="#m4d17eb6f4c" y="229.853092"/>
     <use style="fill:#d62728;stroke:#d62728;" x="141.435435" xlink:href="#m4d17eb6f4c" y="249.241295"/>
     <use style="fill:#d62728;stroke:#d62728;" x="149.409406" xlink:href="#m4d17eb6f4c" y="240.52425"/>
     <use style="fill:#d62728;stroke:#d62728;" x="157.383378" xlink:href="#m4d17eb6f4c" y="238.11657"/>
     <use style="fill:#d62728;stroke:#d62728;" x="165.357349" xlink:href="#m4d17eb6f4c" y="248.617979"/>
     <use style="fill:#d62728;stroke:#d62728;" x="173.33132" xlink:href="#m4d17eb6f4c" y="253.48425"/>
     <use style="fill:#d62728;stroke:#d62728;" x="181.305292" xlink:href="#m4d17eb6f4c" y="258.217231"/>
     <use style="fill:#d62728;stroke:#d62728;" x="189.279263" xlink:href="#m4d17eb6f4c" y="235.515385"/>
     <use style="fill:#d62728;stroke:#d62728;" x="197.253234" xlink:href="#m4d17eb6f4c" y="241.38825"/>
    </g>
   </g>
   <g id="patch_3">
    <path d="M 61.410938 297.54825 
L 61.410938 31.43625 
" style="fill:none;stroke:#000000;stroke-linecap:square;stroke-linejoin:miter;stroke-width:0.8;"/>
   </g>
   <g id="patch_4">
    <path d="M 418.530938 297.54825 
L 418.530938 31.43625 
" style="fill:none;stroke:#000000;stroke-linecap:square;stroke-linejoin:miter;stroke-width:0.8;"/>
   </g>
   <g id="patch_5">
    <path d="M 61.410938 297.54825 
L 418.530938 297.54825 
" style="fill:none;stroke:#000000;stroke-linecap:square;stroke-linejoin:miter;stroke-width:0.8;"/>
   </g>
   <g id="patch_6">
    <path d="M 61.410938 31.43625 
L 418.530938 31.43625 
" style="fill:none;stroke:#000000;stroke-linecap:square;stroke-linejoin:miter;stroke-width:0.8;"/>
   </g>
   <g id="text_15">
    <!-- Z carrier -->
    <defs>
     <path d="M 5.609375 72.90625 
L 62.890625 72.90625 
L 62.890625 65.375 
L 16.796875 8.296875 
L 64.015625 8.296875 
L 64.015625 0 
L 4.5 0 
L 4.5 7.515625 
L 50.59375 64.59375 
L 5.609375 64.59375 
z
" id="DejaVuSans-5a"/>
     <path d="M 48.78125 52.59375 
L 48.78125 44.1875 
Q 44.96875 46.296875 41.140625 47.34375 
Q 37.3125 48.390625 33.40625 48.390625 
Q 24.65625 48.390625 19.8125 42.84375 
Q 14.984375 37.3125 14.984375 27.296875 
Q 14.984375 17.28125 19.8125 11.734375 
Q 24.65625 6.203125 33.40625 6.203125 
Q 37.3125 6.203125 41.140625 7.25 
Q 44.96875 8.296875 48.78125 10.40625 
L 48.78125 2.09375 
Q 45.015625 0.34375 40.984375 -0.53125 
Q 36.96875 -1.421875 32.421875 -1.421875 
Q 20.0625 -1.421875 12.78125 6.34375 
Q 5.515625 14.109375 5.515625 27.296875 
Q 5.515625 40.671875 12.859375 48.328125 
Q 20.21875 56 33.015625 56 
Q 37.15625 56 41.109375 55.140625 
Q 45.0625 54.296875 48.78125 52.59375 
z
" id="DejaVuSans-63"/>
    </defs>
    <g transform="translate(188.470313 25.43625)scale(0.24 -0.24)">
     <use xlink:href="#DejaVuSans-5a"/>
     <use x="68.505859" xlink:href="#DejaVuSans-20"/>
     <use x="100.292969" xlink:href="#DejaVuSans-63"/>
     <use x="155.273438" xlink:href="#DejaVuSans-61"/>
     <use x="216.552734" xlink:href="#DejaVuSans-72"/>
     <use x="257.650391" xlink:href="#DejaVuSans-72"/>
     <use x="298.763672" xlink:href="#DejaVuSans-69"/>
     <use x="326.546875" xlink:href="#DejaVuSans-65"/>
     <use x="388.070312" xlink:href="#DejaVuSans-72"/>
    </g>
   </g>
   <g id="legend_1">
    <g id="patch_7">
     <path d="M 75.410938 196.8485 
L 183.867188 196.8485 
Q 187.867188 196.8485 187.867188 192.8485 
L 187.867188 136.136 
Q 187.867188 132.136 183.867188 132.136 
L 75.410938 132.136 
Q 71.410938 132.136 71.410938 136.136 
L 71.410938 192.8485 
Q 71.410938 196.8485 75.410938 196.8485 
z
" style="fill:#ffffff;opacity:0.8;stroke:#cccccc;stroke-linejoin:miter;"/>
    </g>
    <g id="LineCollection_3">
     <path d="M 99.410938 158.332875 
L 99.410938 138.332875 
" style="fill:none;stroke:#1f77b4;stroke-width:1.5;"/>
    </g>
    <g id="line2d_29"/>
    <g id="line2d_30">
     <g>
      <use style="fill:#1f77b4;stroke:#1f77b4;" x="99.410938" xlink:href="#mcb2457e3ba" y="148.332875"/>
     </g>
    </g>
    <g id="text_16">
     <!-- Cold -->
     <defs>
      <path d="M 64.40625 67.28125 
L 64.40625 56.890625 
Q 59.421875 61.53125 53.78125 63.8125 
Q 48.140625 66.109375 41.796875 66.109375 
Q 29.296875 66.109375 22.65625 58.46875 
Q 16.015625 50.828125 16.015625 36.375 
Q 16.015625 21.96875 22.65625 14.328125 
Q 29.296875 6.6875 41.796875 6.6875 
Q 48.140625 6.6875 53.78125 8.984375 
Q 59.421875 11.28125 64.40625 15.921875 
L 64.40625 5.609375 
Q 59.234375 2.09375 53.4375 0.328125 
Q 47.65625 -1.421875 41.21875 -1.421875 
Q 24.65625 -1.421875 15.125 8.703125 
Q 5.609375 18.84375 5.609375 36.375 
Q 5.609375 53.953125 15.125 64.078125 
Q 24.65625 74.21875 41.21875 74.21875 
Q 47.75 74.21875 53.53125 72.484375 
Q 59.328125 70.75 64.40625 67.28125 
z
" id="DejaVuSans-43"/>
      <path d="M 30.609375 48.390625 
Q 23.390625 48.390625 19.1875 42.75 
Q 14.984375 37.109375 14.984375 27.296875 
Q 14.984375 17.484375 19.15625 11.84375 
Q 23.34375 6.203125 30.609375 6.203125 
Q 37.796875 6.203125 41.984375 11.859375 
Q 46.1875 17.53125 46.1875 27.296875 
Q 46.1875 37.015625 41.984375 42.703125 
Q 37.796875 48.390625 30.609375 48.390625 
z
M 30.609375 56 
Q 42.328125 56 49.015625 48.375 
Q 55.71875 40.765625 55.71875 27.296875 
Q 55.71875 13.875 49.015625 6.21875 
Q 42.328125 -1.421875 30.609375 -1.421875 
Q 18.84375 -1.421875 12.171875 6.21875 
Q 5.515625 13.875 5.515625 27.296875 
Q 5.515625 40.765625 12.171875 48.375 
Q 18.84375 56 30.609375 56 
z
" id="DejaVuSans-6f"/>
      <path d="M 45.40625 46.390625 
L 45.40625 75.984375 
L 54.390625 75.984375 
L 54.390625 0 
L 45.40625 0 
L 45.40625 8.203125 
Q 42.578125 3.328125 38.25 0.953125 
Q 33.9375 -1.421875 27.875 -1.421875 
Q 17.96875 -1.421875 11.734375 6.484375 
Q 5.515625 14.40625 5.515625 27.296875 
Q 5.515625 40.1875 11.734375 48.09375 
Q 17.96875 56 27.875 56 
Q 33.9375 56 38.25 53.625 
Q 42.578125 51.265625 45.40625 46.390625 
z
M 14.796875 27.296875 
Q 14.796875 17.390625 18.875 11.75 
Q 22.953125 6.109375 30.078125 6.109375 
Q 37.203125 6.109375 41.296875 11.75 
Q 45.40625 17.390625 45.40625 27.296875 
Q 45.40625 37.203125 41.296875 42.84375 
Q 37.203125 48.484375 30.078125 48.484375 
Q 22.953125 48.484375 18.875 42.84375 
Q 14.796875 37.203125 14.796875 27.296875 
z
" id="DejaVuSans-64"/>
     </defs>
     <g transform="translate(135.410938 155.332875)scale(0.2 -0.2)">
      <use xlink:href="#DejaVuSans-43"/>
      <use x="69.824219" xlink:href="#DejaVuSans-6f"/>
      <use x="131.005859" xlink:href="#DejaVuSans-6c"/>
      <use x="158.789062" xlink:href="#DejaVuSans-64"/>
     </g>
    </g>
    <g id="LineCollection_4">
     <path d="M 99.410938 187.689125 
L 99.410938 167.689125 
" style="fill:none;stroke:#d62728;stroke-width:1.5;"/>
    </g>
    <g id="line2d_31"/>
    <g id="line2d_32">
     <g>
      <use style="fill:#d62728;stroke:#d62728;" x="99.410938" xlink:href="#m4d17eb6f4c" y="177.689125"/>
     </g>
    </g>
    <g id="text_17">
     <!-- Hot -->
     <defs>
      <path d="M 9.8125 72.90625 
L 19.671875 72.90625 
L 19.671875 43.015625 
L 55.515625 43.015625 
L 55.515625 72.90625 
L 65.375 72.90625 
L 65.375 0 
L 55.515625 0 
L 55.515625 34.71875 
L 19.671875 34.71875 
L 19.671875 0 
L 9.8125 0 
z
" id="DejaVuSans-48"/>
      <path d="M 18.3125 70.21875 
L 18.3125 54.6875 
L 36.8125 54.6875 
L 36.8125 47.703125 
L 18.3125 47.703125 
L 18.3125 18.015625 
Q 18.3125 11.328125 20.140625 9.421875 
Q 21.96875 7.515625 27.59375 7.515625 
L 36.8125 7.515625 
L 36.8125 0 
L 27.59375 0 
Q 17.1875 0 13.234375 3.875 
Q 9.28125 7.765625 9.28125 18.015625 
L 9.28125 47.703125 
L 2.6875 47.703125 
L 2.6875 54.6875 
L 9.28125 54.6875 
L 9.28125 70.21875 
z
" id="DejaVuSans-74"/>
     </defs>
     <g transform="translate(135.410938 184.689125)scale(0.2 -0.2)">
      <use xlink:href="#DejaVuSans-48"/>
      <use x="75.195312" xlink:href="#DejaVuSans-6f"/>
      <use x="136.376953" xlink:href="#DejaVuSans-74"/>
     </g>
    </g>
   </g>
  </g>
 </g>
 <defs>
  <clipPath id="pcd39df9889">
   <rect height="266.112" width="357.12" x="61.410938" y="31.43625"/>
  </clipPath>
 </defs>
</svg>
