<?xml version="1.0" encoding="utf-8" standalone="no"?>
<!DOCTYPE svg PUBLIC "-//W3C//DTD SVG 1.1//EN"
  "http://www.w3.org/Graphics/SVG/1.1/DTD/svg11.dtd">
<!-- Created with matplotlib (http://matplotlib.org/) -->
<svg height="349pt" version="1.1" viewBox="0 0 429 349" width="429pt" xmlns="http://www.w3.org/2000/svg" xmlns:xlink="http://www.w3.org/1999/xlink">
 <defs>
  <style type="text/css">
*{stroke-linecap:butt;stroke-linejoin:round;}
  </style>
 </defs>
 <g id="figure_1">
  <g id="patch_1">
   <path d="M 0 349.665437 
L 429.230937 349.665437 
L 429.230937 0 
L 0 0 
z
" style="fill:none;"/>
  </g>
  <g id="axes_1">
   <g id="patch_2">
    <path d="M 61.410938 297.54825 
L 418.530938 297.54825 
L 418.530938 31.43625 
L 61.410938 31.43625 
z
" style="fill:none;"/>
   </g>
   <g id="matplotlib.axis_1">
    <g id="xtick_1">
     <g id="line2d_1">
      <path clip-path="url(#pcd39df9889)" d="M 61.410938 297.54825 
L 61.410938 31.43625 
" style="fill:none;stroke:#b0b0b0;stroke-linecap:square;stroke-width:0.8;"/>
     </g>
     <g id="line2d_2">
      <defs>
       <path d="M 0 0 
L 0 3.5 
" id="m005f0a59be" style="stroke:#000000;stroke-width:0.8;"/>
      </defs>
      <g>
       <use style="stroke:#000000;stroke-width:0.8;" x="61.410938" xlink:href="#m005f0a59be" y="297.54825"/>
      </g>
     </g>
     <g id="text_1">
      <!-- 0 -->
      <defs>
       <path d="M 31.78125 66.40625 
Q 24.171875 66.40625 20.328125 58.90625 
Q 16.5 51.421875 16.5 36.375 
Q 16.5 21.390625 20.328125 13.890625 
Q 24.171875 6.390625 31.78125 6.390625 
Q 39.453125 6.390625 43.28125 13.890625 
Q 47.125 21.390625 47.125 36.375 
Q 47.125 51.421875 43.28125 58.90625 
Q 39.453125 66.40625 31.78125 66.40625 
z
M 31.78125 74.21875 
Q 44.046875 74.21875 50.515625 64.515625 
Q 56.984375 54.828125 56.984375 36.375 
Q 56.984375 17.96875 50.515625 8.265625 
Q 44.046875 -1.421875 31.78125 -1.421875 
Q 19.53125 -1.421875 13.0625 8.265625 
Q 6.59375 17.96875 6.59375 36.375 
Q 6.59375 54.828125 13.0625 64.515625 
Q 19.53125 74.21875 31.78125 74.21875 
z
" id="DejaVuSans-30"/>
      </defs>
      <g transform="translate(56.639063 315.945906)scale(0.15 -0.15)">
       <use xlink:href="#DejaVuSans-30"/>
      </g>
     </g>
    </g>
    <g id="xtick_2">
     <g id="line2d_3">
      <path clip-path="url(#pcd39df9889)" d="M 155.389885 297.54825 
L 155.389885 31.43625 
" style="fill:none;stroke:#b0b0b0;stroke-linecap:square;stroke-width:0.8;"/>
     </g>
     <g id="line2d_4">
      <g>
       <use style="stroke:#000000;stroke-width:0.8;" x="155.389885" xlink:href="#m005f0a59be" y="297.54825"/>
      </g>
     </g>
     <g id="text_2">
      <!-- 50 -->
      <defs>
       <path d="M 10.796875 72.90625 
L 49.515625 72.90625 
L 49.515625 64.59375 
L 19.828125 64.59375 
L 19.828125 46.734375 
Q 21.96875 47.46875 24.109375 47.828125 
Q 26.265625 48.1875 28.421875 48.1875 
Q 40.625 48.1875 47.75 41.5 
Q 54.890625 34.8125 54.890625 23.390625 
Q 54.890625 11.625 47.5625 5.09375 
Q 40.234375 -1.421875 26.90625 -1.421875 
Q 22.3125 -1.421875 17.546875 -0.640625 
Q 12.796875 0.140625 7.71875 1.703125 
L 7.71875 11.625 
Q 12.109375 9.234375 16.796875 8.0625 
Q 21.484375 6.890625 26.703125 6.890625 
Q 35.15625 6.890625 40.078125 11.328125 
Q 45.015625 15.765625 45.015625 23.390625 
Q 45.015625 31 40.078125 35.4375 
Q 35.15625 39.890625 26.703125 39.890625 
Q 22.75 39.890625 18.8125 39.015625 
Q 14.890625 38.140625 10.796875 36.28125 
z
" id="DejaVuSans-35"/>
      </defs>
      <g transform="translate(145.846135 315.945906)scale(0.15 -0.15)">
       <use xlink:href="#DejaVuSans-35"/>
       <use x="63.623047" xlink:href="#DejaVuSans-30"/>
      </g>
     </g>
    </g>
    <g id="xtick_3">
     <g id="line2d_5">
      <path clip-path="url(#pcd39df9889)" d="M 249.368832 297.54825 
L 249.368832 31.43625 
" style="fill:none;stroke:#b0b0b0;stroke-linecap:square;stroke-width:0.8;"/>
     </g>
     <g id="line2d_6">
      <g>
       <use style="stroke:#000000;stroke-width:0.8;" x="249.368832" xlink:href="#m005f0a59be" y="297.54825"/>
      </g>
     </g>
     <g id="text_3">
      <!-- 100 -->
      <defs>
       <path d="M 12.40625 8.296875 
L 28.515625 8.296875 
L 28.515625 63.921875 
L 10.984375 60.40625 
L 10.984375 69.390625 
L 28.421875 72.90625 
L 38.28125 72.90625 
L 38.28125 8.296875 
L 54.390625 8.296875 
L 54.390625 0 
L 12.40625 0 
z
" id="DejaVuSans-31"/>
      </defs>
      <g transform="translate(235.053207 315.945906)scale(0.15 -0.15)">
       <use xlink:href="#DejaVuSans-31"/>
       <use x="63.623047" xlink:href="#DejaVuSans-30"/>
       <use x="127.246094" xlink:href="#DejaVuSans-30"/>
      </g>
     </g>
    </g>
    <g id="xtick_4">
     <g id="line2d_7">
      <path clip-path="url(#pcd39df9889)" d="M 343.34778 297.54825 
L 343.34778 31.43625 
" style="fill:none;stroke:#b0b0b0;stroke-linecap:square;stroke-width:0.8;"/>
     </g>
     <g id="line2d_8">
      <g>
       <use style="stroke:#000000;stroke-width:0.8;" x="343.34778" xlink:href="#m005f0a59be" y="297.54825"/>
      </g>
     </g>
     <g id="text_4">
      <!-- 150 -->
      <g transform="translate(329.032155 315.945906)scale(0.15 -0.15)">
       <use xlink:href="#DejaVuSans-31"/>
       <use x="63.623047" xlink:href="#DejaVuSans-35"/>
       <use x="127.246094" xlink:href="#DejaVuSans-30"/>
      </g>
     </g>
    </g>
    <g id="text_5">
     <!-- Time ($\mu s$) -->
     <defs>
      <path d="M -0.296875 72.90625 
L 61.375 72.90625 
L 61.375 64.59375 
L 35.5 64.59375 
L 35.5 0 
L 25.59375 0 
L 25.59375 64.59375 
L -0.296875 64.59375 
z
" id="DejaVuSans-54"/>
      <path d="M 9.421875 54.6875 
L 18.40625 54.6875 
L 18.40625 0 
L 9.421875 0 
z
M 9.421875 75.984375 
L 18.40625 75.984375 
L 18.40625 64.59375 
L 9.421875 64.59375 
z
" id="DejaVuSans-69"/>
      <path d="M 52 44.1875 
Q 55.375 50.25 60.0625 53.125 
Q 64.75 56 71.09375 56 
Q 79.640625 56 84.28125 50.015625 
Q 88.921875 44.046875 88.921875 33.015625 
L 88.921875 0 
L 79.890625 0 
L 79.890625 32.71875 
Q 79.890625 40.578125 77.09375 44.375 
Q 74.3125 48.1875 68.609375 48.1875 
Q 61.625 48.1875 57.5625 43.546875 
Q 53.515625 38.921875 53.515625 30.90625 
L 53.515625 0 
L 44.484375 0 
L 44.484375 32.71875 
Q 44.484375 40.625 41.703125 44.40625 
Q 38.921875 48.1875 33.109375 48.1875 
Q 26.21875 48.1875 22.15625 43.53125 
Q 18.109375 38.875 18.109375 30.90625 
L 18.109375 0 
L 9.078125 0 
L 9.078125 54.6875 
L 18.109375 54.6875 
L 18.109375 46.1875 
Q 21.1875 51.21875 25.484375 53.609375 
Q 29.78125 56 35.6875 56 
Q 41.65625 56 45.828125 52.96875 
Q 50 49.953125 52 44.1875 
z
" id="DejaVuSans-6d"/>
      <path d="M 56.203125 29.59375 
L 56.203125 25.203125 
L 14.890625 25.203125 
Q 15.484375 15.921875 20.484375 11.0625 
Q 25.484375 6.203125 34.421875 6.203125 
Q 39.59375 6.203125 44.453125 7.46875 
Q 49.3125 8.734375 54.109375 11.28125 
L 54.109375 2.78125 
Q 49.265625 0.734375 44.1875 -0.34375 
Q 39.109375 -1.421875 33.890625 -1.421875 
Q 20.796875 -1.421875 13.15625 6.1875 
Q 5.515625 13.8125 5.515625 26.8125 
Q 5.515625 40.234375 12.765625 48.109375 
Q 20.015625 56 32.328125 56 
Q 43.359375 56 49.78125 48.890625 
Q 56.203125 41.796875 56.203125 29.59375 
z
M 47.21875 32.234375 
Q 47.125 39.59375 43.09375 43.984375 
Q 39.0625 48.390625 32.421875 48.390625 
Q 24.90625 48.390625 20.390625 44.140625 
Q 15.875 39.890625 15.1875 32.171875 
z
" id="DejaVuSans-65"/>
      <path id="DejaVuSans-20"/>
      <path d="M 31 75.875 
Q 24.46875 64.65625 21.28125 53.65625 
Q 18.109375 42.671875 18.109375 31.390625 
Q 18.109375 20.125 21.3125 9.0625 
Q 24.515625 -2 31 -13.1875 
L 23.1875 -13.1875 
Q 15.875 -1.703125 12.234375 9.375 
Q 8.59375 20.453125 8.59375 31.390625 
Q 8.59375 42.28125 12.203125 53.3125 
Q 15.828125 64.359375 23.1875 75.875 
z
" id="DejaVuSans-28"/>
      <path d="M -1.3125 -20.796875 
L 13.375 54.6875 
L 22.40625 54.6875 
L 15.765625 20.65625 
Q 15.578125 19.625 15.421875 18.359375 
Q 15.28125 17.09375 15.28125 15.828125 
Q 15.28125 11.28125 18.140625 8.828125 
Q 21 6.390625 26.3125 6.390625 
Q 33.546875 6.390625 37.984375 10.484375 
Q 42.4375 14.59375 44 22.796875 
L 50.203125 54.6875 
L 59.1875 54.6875 
L 51.03125 12.640625 
Q 50.828125 11.71875 50.75 11.03125 
Q 50.6875 10.359375 50.6875 9.8125 
Q 50.6875 8.296875 51.296875 7.59375 
Q 51.90625 6.890625 53.21875 6.890625 
Q 53.71875 6.890625 54.5625 7.125 
Q 55.421875 7.375 56.984375 8.015625 
L 55.609375 0.78125 
Q 53.46875 -0.296875 51.515625 -0.859375 
Q 49.5625 -1.421875 47.703125 -1.421875 
Q 44.484375 -1.421875 42.65625 0.625 
Q 40.828125 2.6875 40.828125 6.296875 
Q 38.09375 2.390625 34.296875 0.484375 
Q 30.515625 -1.421875 25.390625 -1.421875 
Q 20.84375 -1.421875 17.453125 0.671875 
Q 14.0625 2.78125 12.984375 6.203125 
L 7.71875 -20.796875 
z
" id="DejaVuSans-Oblique-3bc"/>
      <path d="M 50 53.078125 
L 48.296875 44.578125 
Q 44.734375 46.53125 40.765625 47.5 
Q 36.8125 48.484375 32.625 48.484375 
Q 25.53125 48.484375 21.453125 46.0625 
Q 17.390625 43.65625 17.390625 39.5 
Q 17.390625 34.671875 26.859375 32.078125 
Q 27.59375 31.890625 27.9375 31.78125 
L 30.8125 30.90625 
Q 39.796875 28.421875 42.796875 25.6875 
Q 45.796875 22.953125 45.796875 18.21875 
Q 45.796875 9.515625 38.890625 4.046875 
Q 31.984375 -1.421875 20.796875 -1.421875 
Q 16.453125 -1.421875 11.671875 -0.578125 
Q 6.890625 0.25 1.125 2 
L 2.875 11.28125 
Q 7.8125 8.734375 12.59375 7.421875 
Q 17.390625 6.109375 21.78125 6.109375 
Q 28.375 6.109375 32.5 8.9375 
Q 36.625 11.765625 36.625 16.109375 
Q 36.625 20.796875 25.78125 23.6875 
L 24.859375 23.921875 
L 21.78125 24.703125 
Q 14.9375 26.515625 11.765625 29.46875 
Q 8.59375 32.421875 8.59375 37.015625 
Q 8.59375 45.75 15.15625 50.875 
Q 21.734375 56 33.015625 56 
Q 37.453125 56 41.671875 55.265625 
Q 45.90625 54.546875 50 53.078125 
z
" id="DejaVuSans-Oblique-73"/>
      <path d="M 8.015625 75.875 
L 15.828125 75.875 
Q 23.140625 64.359375 26.78125 53.3125 
Q 30.421875 42.28125 30.421875 31.390625 
Q 30.421875 20.453125 26.78125 9.375 
Q 23.140625 -1.703125 15.828125 -13.1875 
L 8.015625 -13.1875 
Q 14.5 -2 17.703125 9.0625 
Q 20.90625 20.125 20.90625 31.390625 
Q 20.90625 42.671875 17.703125 53.65625 
Q 14.5 64.65625 8.015625 75.875 
z
" id="DejaVuSans-29"/>
     </defs>
     <g transform="translate(192.570938 338.265437)scale(0.2 -0.2)">
      <use transform="translate(0 0.015625)" xlink:href="#DejaVuSans-54"/>
      <use transform="translate(61.083984 0.015625)" xlink:href="#DejaVuSans-69"/>
      <use transform="translate(88.867188 0.015625)" xlink:href="#DejaVuSans-6d"/>
      <use transform="translate(186.279297 0.015625)" xlink:href="#DejaVuSans-65"/>
      <use transform="translate(247.802734 0.015625)" xlink:href="#DejaVuSans-20"/>
      <use transform="translate(279.589844 0.015625)" xlink:href="#DejaVuSans-28"/>
      <use transform="translate(318.603516 0.015625)" xlink:href="#DejaVuSans-Oblique-3bc"/>
      <use transform="translate(382.226562 0.015625)" xlink:href="#DejaVuSans-Oblique-73"/>
      <use transform="translate(434.326172 0.015625)" xlink:href="#DejaVuSans-29"/>
     </g>
    </g>
   </g>
   <g id="matplotlib.axis_2">
    <g id="ytick_1">
     <g id="line2d_9">
      <path clip-path="url(#pcd39df9889)" d="M 61.410938 297.54825 
L 418.530938 297.54825 
" style="fill:none;stroke:#b0b0b0;stroke-linecap:square;stroke-width:0.8;"/>
     </g>
     <g id="line2d_10">
      <defs>
       <path d="M 0 0 
L -3.5 0 
" id="mc3ce260a5b" style="stroke:#000000;stroke-width:0.8;"/>
      </defs>
      <g>
       <use style="stroke:#000000;stroke-width:0.8;" x="61.410938" xlink:href="#mc3ce260a5b" y="297.54825"/>
      </g>
     </g>
     <g id="text_6">
      <!-- 0.0 -->
      <defs>
       <path d="M 10.6875 12.40625 
L 21 12.40625 
L 21 0 
L 10.6875 0 
z
" id="DejaVuSans-2e"/>
      </defs>
      <g transform="translate(30.55625 303.247078)scale(0.15 -0.15)">
       <use xlink:href="#DejaVuSans-30"/>
       <use x="63.623047" xlink:href="#DejaVuSans-2e"/>
       <use x="95.410156" xlink:href="#DejaVuSans-30"/>
      </g>
     </g>
    </g>
    <g id="ytick_2">
     <g id="line2d_11">
      <path clip-path="url(#pcd39df9889)" d="M 61.410938 244.32585 
L 418.530938 244.32585 
" style="fill:none;stroke:#b0b0b0;stroke-linecap:square;stroke-width:0.8;"/>
     </g>
     <g id="line2d_12">
      <g>
       <use style="stroke:#000000;stroke-width:0.8;" x="61.410938" xlink:href="#mc3ce260a5b" y="244.32585"/>
      </g>
     </g>
     <g id="text_7">
      <!-- 0.2 -->
      <defs>
       <path d="M 19.1875 8.296875 
L 53.609375 8.296875 
L 53.609375 0 
L 7.328125 0 
L 7.328125 8.296875 
Q 12.9375 14.109375 22.625 23.890625 
Q 32.328125 33.6875 34.8125 36.53125 
Q 39.546875 41.84375 41.421875 45.53125 
Q 43.3125 49.21875 43.3125 52.78125 
Q 43.3125 58.59375 39.234375 62.25 
Q 35.15625 65.921875 28.609375 65.921875 
Q 23.96875 65.921875 18.8125 64.3125 
Q 13.671875 62.703125 7.8125 59.421875 
L 7.8125 69.390625 
Q 13.765625 71.78125 18.9375 73 
Q 24.125 74.21875 28.421875 74.21875 
Q 39.75 74.21875 46.484375 68.546875 
Q 53.21875 62.890625 53.21875 53.421875 
Q 53.21875 48.921875 51.53125 44.890625 
Q 49.859375 40.875 45.40625 35.40625 
Q 44.1875 33.984375 37.640625 27.21875 
Q 31.109375 20.453125 19.1875 8.296875 
z
" id="DejaVuSans-32"/>
      </defs>
      <g transform="translate(30.55625 250.024678)scale(0.15 -0.15)">
       <use xlink:href="#DejaVuSans-30"/>
       <use x="63.623047" xlink:href="#DejaVuSans-2e"/>
       <use x="95.410156" xlink:href="#DejaVuSans-32"/>
      </g>
     </g>
    </g>
    <g id="ytick_3">
     <g id="line2d_13">
      <path clip-path="url(#pcd39df9889)" d="M 61.410938 191.10345 
L 418.530938 191.10345 
" style="fill:none;stroke:#b0b0b0;stroke-linecap:square;stroke-width:0.8;"/>
     </g>
     <g id="line2d_14">
      <g>
       <use style="stroke:#000000;stroke-width:0.8;" x="61.410938" xlink:href="#mc3ce260a5b" y="191.10345"/>
      </g>
     </g>
     <g id="text_8">
      <!-- 0.4 -->
      <defs>
       <path d="M 37.796875 64.3125 
L 12.890625 25.390625 
L 37.796875 25.390625 
z
M 35.203125 72.90625 
L 47.609375 72.90625 
L 47.609375 25.390625 
L 58.015625 25.390625 
L 58.015625 17.1875 
L 47.609375 17.1875 
L 47.609375 0 
L 37.796875 0 
L 37.796875 17.1875 
L 4.890625 17.1875 
L 4.890625 26.703125 
z
" id="DejaVuSans-34"/>
      </defs>
      <g transform="translate(30.55625 196.802278)scale(0.15 -0.15)">
       <use xlink:href="#DejaVuSans-30"/>
       <use x="63.623047" xlink:href="#DejaVuSans-2e"/>
       <use x="95.410156" xlink:href="#DejaVuSans-34"/>
      </g>
     </g>
    </g>
    <g id="ytick_4">
     <g id="line2d_15">
      <path clip-path="url(#pcd39df9889)" d="M 61.410938 137.88105 
L 418.530938 137.88105 
" style="fill:none;stroke:#b0b0b0;stroke-linecap:square;stroke-width:0.8;"/>
     </g>
     <g id="line2d_16">
      <g>
       <use style="stroke:#000000;stroke-width:0.8;" x="61.410938" xlink:href="#mc3ce260a5b" y="137.88105"/>
      </g>
     </g>
     <g id="text_9">
      <!-- 0.6 -->
      <defs>
       <path d="M 33.015625 40.375 
Q 26.375 40.375 22.484375 35.828125 
Q 18.609375 31.296875 18.609375 23.390625 
Q 18.609375 15.53125 22.484375 10.953125 
Q 26.375 6.390625 33.015625 6.390625 
Q 39.65625 6.390625 43.53125 10.953125 
Q 47.40625 15.53125 47.40625 23.390625 
Q 47.40625 31.296875 43.53125 35.828125 
Q 39.65625 40.375 33.015625 40.375 
z
M 52.59375 71.296875 
L 52.59375 62.3125 
Q 48.875 64.0625 45.09375 64.984375 
Q 41.3125 65.921875 37.59375 65.921875 
Q 27.828125 65.921875 22.671875 59.328125 
Q 17.53125 52.734375 16.796875 39.40625 
Q 19.671875 43.65625 24.015625 45.921875 
Q 28.375 48.1875 33.59375 48.1875 
Q 44.578125 48.1875 50.953125 41.515625 
Q 57.328125 34.859375 57.328125 23.390625 
Q 57.328125 12.15625 50.6875 5.359375 
Q 44.046875 -1.421875 33.015625 -1.421875 
Q 20.359375 -1.421875 13.671875 8.265625 
Q 6.984375 17.96875 6.984375 36.375 
Q 6.984375 53.65625 15.1875 63.9375 
Q 23.390625 74.21875 37.203125 74.21875 
Q 40.921875 74.21875 44.703125 73.484375 
Q 48.484375 72.75 52.59375 71.296875 
z
" id="DejaVuSans-36"/>
      </defs>
      <g transform="translate(30.55625 143.579878)scale(0.15 -0.15)">
       <use xlink:href="#DejaVuSans-30"/>
       <use x="63.623047" xlink:href="#DejaVuSans-2e"/>
       <use x="95.410156" xlink:href="#DejaVuSans-36"/>
      </g>
     </g>
    </g>
    <g id="ytick_5">
     <g id="line2d_17">
      <path clip-path="url(#pcd39df9889)" d="M 61.410938 84.65865 
L 418.530938 84.65865 
" style="fill:none;stroke:#b0b0b0;stroke-linecap:square;stroke-width:0.8;"/>
     </g>
     <g id="line2d_18">
      <g>
       <use style="stroke:#000000;stroke-width:0.8;" x="61.410938" xlink:href="#mc3ce260a5b" y="84.65865"/>
      </g>
     </g>
     <g id="text_10">
      <!-- 0.8 -->
      <defs>
       <path d="M 31.78125 34.625 
Q 24.75 34.625 20.71875 30.859375 
Q 16.703125 27.09375 16.703125 20.515625 
Q 16.703125 13.921875 20.71875 10.15625 
Q 24.75 6.390625 31.78125 6.390625 
Q 38.8125 6.390625 42.859375 10.171875 
Q 46.921875 13.96875 46.921875 20.515625 
Q 46.921875 27.09375 42.890625 30.859375 
Q 38.875 34.625 31.78125 34.625 
z
M 21.921875 38.8125 
Q 15.578125 40.375 12.03125 44.71875 
Q 8.5 49.078125 8.5 55.328125 
Q 8.5 64.0625 14.71875 69.140625 
Q 20.953125 74.21875 31.78125 74.21875 
Q 42.671875 74.21875 48.875 69.140625 
Q 55.078125 64.0625 55.078125 55.328125 
Q 55.078125 49.078125 51.53125 44.71875 
Q 48 40.375 41.703125 38.8125 
Q 48.828125 37.15625 52.796875 32.3125 
Q 56.78125 27.484375 56.78125 20.515625 
Q 56.78125 9.90625 50.3125 4.234375 
Q 43.84375 -1.421875 31.78125 -1.421875 
Q 19.734375 -1.421875 13.25 4.234375 
Q 6.78125 9.90625 6.78125 20.515625 
Q 6.78125 27.484375 10.78125 32.3125 
Q 14.796875 37.15625 21.921875 38.8125 
z
M 18.3125 54.390625 
Q 18.3125 48.734375 21.84375 45.5625 
Q 25.390625 42.390625 31.78125 42.390625 
Q 38.140625 42.390625 41.71875 45.5625 
Q 45.3125 48.734375 45.3125 54.390625 
Q 45.3125 60.0625 41.71875 63.234375 
Q 38.140625 66.40625 31.78125 66.40625 
Q 25.390625 66.40625 21.84375 63.234375 
Q 18.3125 60.0625 18.3125 54.390625 
z
" id="DejaVuSans-38"/>
      </defs>
      <g transform="translate(30.55625 90.357478)scale(0.15 -0.15)">
       <use xlink:href="#DejaVuSans-30"/>
       <use x="63.623047" xlink:href="#DejaVuSans-2e"/>
       <use x="95.410156" xlink:href="#DejaVuSans-38"/>
      </g>
     </g>
    </g>
    <g id="ytick_6">
     <g id="line2d_19">
      <path clip-path="url(#pcd39df9889)" d="M 61.410938 31.43625 
L 418.530938 31.43625 
" style="fill:none;stroke:#b0b0b0;stroke-linecap:square;stroke-width:0.8;"/>
     </g>
     <g id="line2d_20">
      <g>
       <use style="stroke:#000000;stroke-width:0.8;" x="61.410938" xlink:href="#mc3ce260a5b" y="31.43625"/>
      </g>
     </g>
     <g id="text_11">
      <!-- 1.0 -->
      <g transform="translate(30.55625 37.135078)scale(0.15 -0.15)">
       <use xlink:href="#DejaVuSans-31"/>
       <use x="63.623047" xlink:href="#DejaVuSans-2e"/>
       <use x="95.410156" xlink:href="#DejaVuSans-30"/>
      </g>
     </g>
    </g>
    <g id="text_12">
     <!-- Survival -->
     <defs>
      <path d="M 53.515625 70.515625 
L 53.515625 60.890625 
Q 47.90625 63.578125 42.921875 64.890625 
Q 37.9375 66.21875 33.296875 66.21875 
Q 25.25 66.21875 20.875 63.09375 
Q 16.5 59.96875 16.5 54.203125 
Q 16.5 49.359375 19.40625 46.890625 
Q 22.3125 44.4375 30.421875 42.921875 
L 36.375 41.703125 
Q 47.40625 39.59375 52.65625 34.296875 
Q 57.90625 29 57.90625 20.125 
Q 57.90625 9.515625 50.796875 4.046875 
Q 43.703125 -1.421875 29.984375 -1.421875 
Q 24.8125 -1.421875 18.96875 -0.25 
Q 13.140625 0.921875 6.890625 3.21875 
L 6.890625 13.375 
Q 12.890625 10.015625 18.65625 8.296875 
Q 24.421875 6.59375 29.984375 6.59375 
Q 38.421875 6.59375 43.015625 9.90625 
Q 47.609375 13.234375 47.609375 19.390625 
Q 47.609375 24.75 44.3125 27.78125 
Q 41.015625 30.8125 33.5 32.328125 
L 27.484375 33.5 
Q 16.453125 35.6875 11.515625 40.375 
Q 6.59375 45.0625 6.59375 53.421875 
Q 6.59375 63.09375 13.40625 68.65625 
Q 20.21875 74.21875 32.171875 74.21875 
Q 37.3125 74.21875 42.625 73.28125 
Q 47.953125 72.359375 53.515625 70.515625 
z
" id="DejaVuSans-53"/>
      <path d="M 8.5 21.578125 
L 8.5 54.6875 
L 17.484375 54.6875 
L 17.484375 21.921875 
Q 17.484375 14.15625 20.5 10.265625 
Q 23.53125 6.390625 29.59375 6.390625 
Q 36.859375 6.390625 41.078125 11.03125 
Q 45.3125 15.671875 45.3125 23.6875 
L 45.3125 54.6875 
L 54.296875 54.6875 
L 54.296875 0 
L 45.3125 0 
L 45.3125 8.40625 
Q 42.046875 3.421875 37.71875 1 
Q 33.40625 -1.421875 27.6875 -1.421875 
Q 18.265625 -1.421875 13.375 4.4375 
Q 8.5 10.296875 8.5 21.578125 
z
M 31.109375 56 
z
" id="DejaVuSans-75"/>
      <path d="M 41.109375 46.296875 
Q 39.59375 47.171875 37.8125 47.578125 
Q 36.03125 48 33.890625 48 
Q 26.265625 48 22.1875 43.046875 
Q 18.109375 38.09375 18.109375 28.8125 
L 18.109375 0 
L 9.078125 0 
L 9.078125 54.6875 
L 18.109375 54.6875 
L 18.109375 46.1875 
Q 20.953125 51.171875 25.484375 53.578125 
Q 30.03125 56 36.53125 56 
Q 37.453125 56 38.578125 55.875 
Q 39.703125 55.765625 41.0625 55.515625 
z
" id="DejaVuSans-72"/>
      <path d="M 2.984375 54.6875 
L 12.5 54.6875 
L 29.59375 8.796875 
L 46.6875 54.6875 
L 56.203125 54.6875 
L 35.6875 0 
L 23.484375 0 
z
" id="DejaVuSans-76"/>
      <path d="M 34.28125 27.484375 
Q 23.390625 27.484375 19.1875 25 
Q 14.984375 22.515625 14.984375 16.5 
Q 14.984375 11.71875 18.140625 8.90625 
Q 21.296875 6.109375 26.703125 6.109375 
Q 34.1875 6.109375 38.703125 11.40625 
Q 43.21875 16.703125 43.21875 25.484375 
L 43.21875 27.484375 
z
M 52.203125 31.203125 
L 52.203125 0 
L 43.21875 0 
L 43.21875 8.296875 
Q 40.140625 3.328125 35.546875 0.953125 
Q 30.953125 -1.421875 24.3125 -1.421875 
Q 15.921875 -1.421875 10.953125 3.296875 
Q 6 8.015625 6 15.921875 
Q 6 25.140625 12.171875 29.828125 
Q 18.359375 34.515625 30.609375 34.515625 
L 43.21875 34.515625 
L 43.21875 35.40625 
Q 43.21875 41.609375 39.140625 45 
Q 35.0625 48.390625 27.6875 48.390625 
Q 23 48.390625 18.546875 47.265625 
Q 14.109375 46.140625 10.015625 43.890625 
L 10.015625 52.203125 
Q 14.9375 54.109375 19.578125 55.046875 
Q 24.21875 56 28.609375 56 
Q 40.484375 56 46.34375 49.84375 
Q 52.203125 43.703125 52.203125 31.203125 
z
" id="DejaVuSans-61"/>
      <path d="M 9.421875 75.984375 
L 18.40625 75.984375 
L 18.40625 0 
L 9.421875 0 
z
" id="DejaVuSans-6c"/>
     </defs>
     <g transform="translate(22.396875 204.811)rotate(-90)scale(0.2 -0.2)">
      <use xlink:href="#DejaVuSans-53"/>
      <use x="63.476562" xlink:href="#DejaVuSans-75"/>
      <use x="126.855469" xlink:href="#DejaVuSans-72"/>
      <use x="167.96875" xlink:href="#DejaVuSans-76"/>
      <use x="227.148438" xlink:href="#DejaVuSans-69"/>
      <use x="254.931641" xlink:href="#DejaVuSans-76"/>
      <use x="314.111328" xlink:href="#DejaVuSans-61"/>
      <use x="375.390625" xlink:href="#DejaVuSans-6c"/>
     </g>
    </g>
   </g>
   <g id="LineCollection_1">
    <path clip-path="url(#pcd39df9889)" d="M 61.410938 297.54825 
L 61.410938 296.36553 
" style="fill:none;stroke:#1f77b4;stroke-width:1.5;"/>
    <path clip-path="url(#pcd39df9889)" d="M 72.688411 252.261748 
L 72.688411 237.657152 
" style="fill:none;stroke:#1f77b4;stroke-width:1.5;"/>
    <path clip-path="url(#pcd39df9889)" d="M 83.965885 161.934219 
L 83.965885 144.781494 
" style="fill:none;stroke:#1f77b4;stroke-width:1.5;"/>
    <path clip-path="url(#pcd39df9889)" d="M 95.243359 66.072137 
L 95.243359 55.012363 
" style="fill:none;stroke:#1f77b4;stroke-width:1.5;"/>
    <path clip-path="url(#pcd39df9889)" d="M 106.520832 67.841647 
L 106.520832 56.041897 
" style="fill:none;stroke:#1f77b4;stroke-width:1.5;"/>
    <path clip-path="url(#pcd39df9889)" d="M 117.798306 141.114922 
L 117.798306 123.507606 
" style="fill:none;stroke:#1f77b4;stroke-width:1.5;"/>
    <path clip-path="url(#pcd39df9889)" d="M 129.07578 207.908334 
L 129.07578 190.389059 
" style="fill:none;stroke:#1f77b4;stroke-width:1.5;"/>
    <path clip-path="url(#pcd39df9889)" d="M 140.353253 246.111986 
L 140.353253 231.372514 
" style="fill:none;stroke:#1f77b4;stroke-width:1.5;"/>
    <path clip-path="url(#pcd39df9889)" d="M 151.630727 216.791514 
L 151.630727 200.52428 
" style="fill:none;stroke:#1f77b4;stroke-width:1.5;"/>
    <path clip-path="url(#pcd39df9889)" d="M 162.908201 138.911201 
L 162.908201 122.129809 
" style="fill:none;stroke:#1f77b4;stroke-width:1.5;"/>
    <path clip-path="url(#pcd39df9889)" d="M 174.185674 79.913847 
L 174.185674 66.665245 
" style="fill:none;stroke:#1f77b4;stroke-width:1.5;"/>
    <path clip-path="url(#pcd39df9889)" d="M 185.463148 64.711135 
L 185.463148 54.242819 
" style="fill:none;stroke:#1f77b4;stroke-width:1.5;"/>
    <path clip-path="url(#pcd39df9889)" d="M 196.740622 113.248119 
L 196.740622 96.753612 
" style="fill:none;stroke:#1f77b4;stroke-width:1.5;"/>
    <path clip-path="url(#pcd39df9889)" d="M 208.018095 168.628778 
L 208.018095 150.977325 
" style="fill:none;stroke:#1f77b4;stroke-width:1.5;"/>
    <path clip-path="url(#pcd39df9889)" d="M 219.295569 265.115803 
L 219.295569 252.364697 
" style="fill:none;stroke:#1f77b4;stroke-width:1.5;"/>
    <path clip-path="url(#pcd39df9889)" d="M 230.573043 267.96242 
L 230.573043 255.76768 
" style="fill:none;stroke:#1f77b4;stroke-width:1.5;"/>
    <path clip-path="url(#pcd39df9889)" d="M 241.850516 199.832232 
L 241.850516 182.60708 
" style="fill:none;stroke:#1f77b4;stroke-width:1.5;"/>
    <path clip-path="url(#pcd39df9889)" d="M 253.12799 98.054799 
L 253.12799 82.951533 
" style="fill:none;stroke:#1f77b4;stroke-width:1.5;"/>
    <path clip-path="url(#pcd39df9889)" d="M 264.405464 64.307325 
L 264.405464 53.959918 
" style="fill:none;stroke:#1f77b4;stroke-width:1.5;"/>
    <path clip-path="url(#pcd39df9889)" d="M 275.682938 108.739401 
L 275.682938 93.129099 
" style="fill:none;stroke:#1f77b4;stroke-width:1.5;"/>
    <path clip-path="url(#pcd39df9889)" d="M 286.960411 197.986016 
L 286.960411 180.749858 
" style="fill:none;stroke:#1f77b4;stroke-width:1.5;"/>
    <path clip-path="url(#pcd39df9889)" d="M 298.237885 270.568695 
L 298.237885 258.621562 
" style="fill:none;stroke:#1f77b4;stroke-width:1.5;"/>
    <path clip-path="url(#pcd39df9889)" d="M 309.515359 253.296889 
L 309.515359 239.358266 
" style="fill:none;stroke:#1f77b4;stroke-width:1.5;"/>
    <path clip-path="url(#pcd39df9889)" d="M 320.792832 188.542989 
L 320.792832 170.425961 
" style="fill:none;stroke:#1f77b4;stroke-width:1.5;"/>
    <path clip-path="url(#pcd39df9889)" d="M 332.070306 99.985038 
L 332.070306 84.646255 
" style="fill:none;stroke:#1f77b4;stroke-width:1.5;"/>
    <path clip-path="url(#pcd39df9889)" d="M 343.34778 60.057906 
L 343.34778 49.700994 
" style="fill:none;stroke:#1f77b4;stroke-width:1.5;"/>
    <path clip-path="url(#pcd39df9889)" d="M 354.625253 87.663885 
L 354.625253 74.147692 
" style="fill:none;stroke:#1f77b4;stroke-width:1.5;"/>
    <path clip-path="url(#pcd39df9889)" d="M 365.902727 161.565995 
L 365.902727 143.972513 
" style="fill:none;stroke:#1f77b4;stroke-width:1.5;"/>
    <path clip-path="url(#pcd39df9889)" d="M 377.180201 234.708308 
L 377.180201 218.864992 
" style="fill:none;stroke:#1f77b4;stroke-width:1.5;"/>
    <path clip-path="url(#pcd39df9889)" d="M 388.457674 250.918914 
L 388.457674 236.523186 
" style="fill:none;stroke:#1f77b4;stroke-width:1.5;"/>
    <path clip-path="url(#pcd39df9889)" d="M 399.735148 203.745129 
L 399.735148 187.074525 
" style="fill:none;stroke:#1f77b4;stroke-width:1.5;"/>
   </g>
   <g id="LineCollection_2">
    <path clip-path="url(#pcd39df9889)" d="M 61.410938 293.318268 
L 61.410938 286.326567 
" style="fill:none;stroke:#d62728;stroke-width:1.5;"/>
    <path clip-path="url(#pcd39df9889)" d="M 72.688411 223.899953 
L 72.688411 204.876547 
" style="fill:none;stroke:#d62728;stroke-width:1.5;"/>
    <path clip-path="url(#pcd39df9889)" d="M 83.965885 102.218892 
L 83.965885 83.615704 
" style="fill:none;stroke:#d62728;stroke-width:1.5;"/>
    <path clip-path="url(#pcd39df9889)" d="M 95.243359 134.650067 
L 95.243359 114.82536 
" style="fill:none;stroke:#d62728;stroke-width:1.5;"/>
    <path clip-path="url(#pcd39df9889)" d="M 106.520832 215.250965 
L 106.520832 195.230335 
" style="fill:none;stroke:#d62728;stroke-width:1.5;"/>
    <path clip-path="url(#pcd39df9889)" d="M 117.798306 178.281014 
L 117.798306 157.314964 
" style="fill:none;stroke:#d62728;stroke-width:1.5;"/>
    <path clip-path="url(#pcd39df9889)" d="M 129.07578 158.508875 
L 129.07578 137.823846 
" style="fill:none;stroke:#d62728;stroke-width:1.5;"/>
    <path clip-path="url(#pcd39df9889)" d="M 140.353253 205.291378 
L 140.353253 183.841725 
" style="fill:none;stroke:#d62728;stroke-width:1.5;"/>
    <path clip-path="url(#pcd39df9889)" d="M 151.630727 175.693301 
L 151.630727 154.913833 
" style="fill:none;stroke:#d62728;stroke-width:1.5;"/>
    <path clip-path="url(#pcd39df9889)" d="M 162.908201 171.766901 
L 162.908201 150.260423 
" style="fill:none;stroke:#d62728;stroke-width:1.5;"/>
    <path clip-path="url(#pcd39df9889)" d="M 174.185674 145.142775 
L 174.185674 123.693122 
" style="fill:none;stroke:#d62728;stroke-width:1.5;"/>
    <path clip-path="url(#pcd39df9889)" d="M 185.463148 159.761898 
L 185.463148 139.480672 
" style="fill:none;stroke:#d62728;stroke-width:1.5;"/>
    <path clip-path="url(#pcd39df9889)" d="M 196.740622 155.889054 
L 196.740622 133.078603 
" style="fill:none;stroke:#d62728;stroke-width:1.5;"/>
    <path clip-path="url(#pcd39df9889)" d="M 208.018095 170.875132 
L 208.018095 149.580137 
" style="fill:none;stroke:#d62728;stroke-width:1.5;"/>
    <path clip-path="url(#pcd39df9889)" d="M 219.295569 200.728925 
L 219.295569 179.761123 
" style="fill:none;stroke:#d62728;stroke-width:1.5;"/>
    <path clip-path="url(#pcd39df9889)" d="M 230.573043 234.144494 
L 230.573043 215.343553 
" style="fill:none;stroke:#d62728;stroke-width:1.5;"/>
   </g>
   <g id="line2d_21">
    <path clip-path="url(#pcd39df9889)" d="M 61.410938 297.056409 
L 62.125178 297.056409 
L 62.482298 296.685009 
L 62.839418 296.660171 
L 63.553658 295.512474 
L 63.910778 294.932331 
L 64.267898 294.721341 
L 64.982138 292.533693 
L 65.339258 292.290706 
L 65.696378 290.545151 
L 66.053498 288.154066 
L 66.410618 287.847508 
L 67.481978 283.619497 
L 67.839098 280.967139 
L 69.267578 274.009379 
L 69.624698 271.127711 
L 69.981818 269.455822 
L 70.338938 266.602249 
L 71.053178 262.559804 
L 71.410298 260.493153 
L 71.767418 257.403917 
L 72.124538 255.34177 
L 72.481658 251.970091 
L 72.838778 249.796076 
L 74.624378 234.577337 
L 74.981498 230.904676 
L 75.338618 228.725761 
L 75.695738 224.494928 
L 76.052858 222.635747 
L 76.767098 214.695944 
L 77.124218 212.421957 
L 77.838458 205.843282 
L 78.552698 199.467812 
L 79.266938 191.708468 
L 80.695418 178.405671 
L 81.766778 166.948136 
L 82.481018 161.099278 
L 82.838138 156.787243 
L 83.195258 154.857298 
L 83.909498 146.955272 
L 84.266618 144.283974 
L 85.337978 133.783604 
L 85.695098 131.17793 
L 86.409338 124.053616 
L 86.766458 121.349922 
L 87.480698 114.514643 
L 88.552058 106.11794 
L 88.909178 102.961952 
L 89.266298 101.450622 
L 89.623418 96.343422 
L 89.980538 95.120189 
L 90.337658 92.072218 
L 90.694778 90.081047 
L 91.051898 86.685044 
L 91.409018 85.090778 
L 91.766138 82.077941 
L 92.123258 80.178597 
L 92.480378 79.050738 
L 93.908858 69.377183 
L 94.265978 69.039657 
L 94.980218 64.512125 
L 96.765818 58.200764 
L 97.122938 56.988267 
L 97.480058 56.557435 
L 97.837178 56.602093 
L 98.194298 53.981231 
L 98.551418 53.150216 
L 98.908538 52.975497 
L 99.265658 53.344269 
L 99.622778 52.419674 
L 100.694138 51.15976 
L 101.051258 51.357234 
L 101.408378 51.854658 
L 102.122618 50.933447 
L 102.479738 51.596523 
L 102.836858 51.953303 
L 103.193978 52.023831 
L 103.551098 53.463955 
L 104.622458 55.873983 
L 104.979578 56.18921 
L 106.050938 60.754 
L 106.408058 61.109011 
L 106.765178 62.022466 
L 107.122298 64.145633 
L 107.479418 65.392043 
L 108.550778 71.029505 
L 108.907898 71.787355 
L 109.265018 74.302903 
L 109.622138 75.675396 
L 109.979258 78.805964 
L 110.336378 80.552978 
L 110.693498 83.421315 
L 111.050618 84.230171 
L 111.407738 87.265482 
L 111.764858 89.252272 
L 112.479098 94.757138 
L 113.193338 99.259681 
L 113.550458 101.456431 
L 113.907578 105.616748 
L 114.264698 107.309983 
L 114.621818 110.959519 
L 114.978938 113.452354 
L 115.693178 119.8383 
L 116.050298 122.310957 
L 116.407418 123.974054 
L 116.764538 128.227167 
L 117.121658 131.04327 
L 117.835898 138.28875 
L 119.264378 149.81403 
L 120.335738 160.302769 
L 122.121338 175.252926 
L 122.478458 179.332473 
L 123.192698 184.966096 
L 123.549818 188.628073 
L 123.906938 190.672108 
L 125.692538 207.217615 
L 126.406778 212.969155 
L 127.121018 218.794596 
L 127.478138 220.70642 
L 129.263738 235.419611 
L 129.620858 237.14134 
L 129.977978 239.977424 
L 130.335098 241.491433 
L 131.406458 250.013326 
L 132.477818 255.97465 
L 133.192058 259.29068 
L 133.549178 262.061291 
L 133.906298 262.73491 
L 134.620538 266.602249 
L 135.334778 269.228573 
L 136.049018 272.832858 
L 136.406138 272.605851 
L 136.763258 274.941203 
L 137.120378 276.436065 
L 137.477498 276.422899 
L 138.548858 280.157916 
L 138.905978 280.818058 
L 139.263098 280.482663 
L 139.620218 281.519075 
L 139.977338 280.672367 
L 140.334458 282.017452 
L 140.691578 282.494052 
L 141.048698 283.277687 
L 141.405818 283.056455 
L 141.762938 284.069587 
L 142.120058 282.987988 
L 142.477178 283.467581 
L 142.834298 282.946737 
L 143.191418 283.248824 
L 143.548538 282.110432 
L 143.905658 281.930833 
L 144.262778 280.967139 
L 144.619898 280.898997 
L 144.977018 279.935891 
L 145.334138 279.920462 
L 145.691258 278.662919 
L 146.048378 278.464336 
L 146.405498 276.48873 
L 146.762618 275.753268 
L 147.119738 273.666539 
L 147.833978 272.123371 
L 148.191098 270.324158 
L 148.548218 267.899431 
L 148.905338 266.596072 
L 149.262458 265.879387 
L 149.619578 263.553434 
L 149.976698 263.196428 
L 151.405178 255.08949 
L 151.762298 253.429517 
L 152.119418 250.498596 
L 152.476538 248.878162 
L 152.833658 245.738399 
L 153.190778 244.847994 
L 153.547898 241.473903 
L 153.905018 240.149663 
L 154.262138 236.596117 
L 154.619258 234.65828 
L 155.333498 230.276424 
L 156.404858 222.897146 
L 157.119098 216.141221 
L 157.476218 214.293626 
L 158.190458 208.741195 
L 158.904698 203.48702 
L 159.618938 196.58075 
L 161.047418 186.531342 
L 161.404538 181.812587 
L 161.761658 180.016377 
L 164.618618 157.124054 
L 164.975738 154.83681 
L 165.332858 150.726854 
L 167.475578 135.204153 
L 167.832698 130.657244 
L 168.189818 129.230348 
L 169.261178 121.369005 
L 169.618298 119.857663 
L 169.975418 115.969426 
L 170.332538 114.680907 
L 170.689658 110.508073 
L 171.046778 109.181812 
L 171.761018 104.224884 
L 172.118138 103.086809 
L 172.475258 99.26563 
L 172.832378 98.179 
L 174.260858 90.367681 
L 174.975098 87.402434 
L 175.332218 84.916335 
L 176.046458 82.286527 
L 176.403578 81.50979 
L 177.117818 76.096931 
L 177.474938 76.4558 
L 177.832058 75.75924 
L 178.546298 72.61258 
L 178.903418 72.701934 
L 179.260538 71.237524 
L 179.617658 70.487704 
L 179.974778 70.244396 
L 180.689018 67.801275 
L 181.046138 68.013815 
L 181.403258 67.941561 
L 182.117498 66.649881 
L 182.474618 66.897565 
L 182.831738 65.992036 
L 183.188858 66.897565 
L 183.545978 65.888091 
L 183.903098 66.81446 
L 184.260218 67.047562 
L 184.974457 67.801275 
L 185.331578 67.789084 
L 185.688698 67.905434 
L 186.402938 69.582096 
L 186.760058 69.849681 
L 187.117178 69.872124 
L 188.188538 74.087807 
L 188.545658 74.293126 
L 188.902778 76.730102 
L 189.259898 76.925858 
L 190.331258 81.485507 
L 190.688378 81.925401 
L 191.045498 83.08563 
L 191.759738 87.730173 
L 192.116858 89.127096 
L 192.473978 91.271851 
L 192.831098 92.231279 
L 193.545338 96.767717 
L 193.902458 99.015538 
L 194.259578 99.861604 
L 194.973818 105.671916 
L 195.330938 106.255093 
L 195.688058 110.024826 
L 196.045178 111.8534 
L 196.759418 116.827298 
L 197.116538 118.416146 
L 197.830778 124.73223 
L 198.187898 126.09812 
L 198.902138 131.903913 
L 199.616378 136.346319 
L 200.330618 142.931128 
L 201.044858 147.91349 
L 201.401978 151.86177 
L 202.116218 156.635634 
L 206.044538 188.628073 
L 206.401658 191.882735 
L 206.758778 193.899418 
L 208.187258 205.098794 
L 208.544378 208.998036 
L 209.258618 213.334817 
L 209.972858 218.667631 
L 210.687098 225.215925 
L 211.758458 231.341031 
L 212.115578 234.485602 
L 212.472698 235.960209 
L 212.829818 239.659472 
L 213.186938 240.82786 
L 214.972538 251.915609 
L 215.329658 252.919607 
L 215.686778 256.834458 
L 216.043898 257.809159 
L 216.758138 261.113018 
L 217.472378 264.734216 
L 217.829498 267.197239 
L 218.186618 268.016528 
L 218.543738 268.026305 
L 218.900858 269.598346 
L 219.257978 271.76948 
L 219.615098 271.736564 
L 219.972218 274.348539 
L 220.329338 276.077182 
L 220.686458 276.422899 
L 221.043578 276.077182 
L 221.400698 277.435377 
L 221.757818 276.220106 
L 222.114938 278.364158 
L 222.472058 279.407292 
L 222.829178 279.152945 
L 223.900538 281.338849 
L 224.257658 280.110894 
L 224.614778 280.673785 
L 224.971898 280.818058 
L 225.329018 280.514517 
L 225.686138 280.387102 
L 226.043258 280.110894 
L 226.757498 279.437216 
L 227.114618 278.492959 
L 227.471738 279.212791 
L 227.828858 277.764066 
L 228.185978 276.804648 
L 228.543098 276.607227 
L 229.257338 273.548982 
L 229.614458 272.156657 
L 229.971578 271.747536 
L 230.328698 270.934508 
L 231.042938 268.065414 
L 231.400058 266.649272 
L 231.757178 265.852587 
L 232.828538 259.188795 
L 233.185658 258.907663 
L 236.756858 237.726198 
L 237.113978 234.582734 
L 237.471098 233.278181 
L 239.256698 218.58769 
L 239.613818 216.820721 
L 239.970938 212.883088 
L 240.685178 208.185409 
L 241.042298 205.01614 
L 241.399418 202.947987 
L 242.113658 195.205113 
L 242.470778 193.432747 
L 242.827898 189.713522 
L 243.185018 187.607647 
L 243.542138 183.856169 
L 244.613498 175.97737 
L 244.970618 171.846383 
L 245.327738 169.605342 
L 245.684858 165.572099 
L 246.399098 160.802619 
L 246.756218 156.709389 
L 247.113338 155.140029 
L 247.470458 150.370023 
L 247.827578 148.244848 
L 248.184698 144.642685 
L 248.898938 139.810985 
L 249.256058 136.223973 
L 249.613178 134.091466 
L 250.327418 128.536616 
L 252.827258 109.766637 
L 254.255738 99.701948 
L 254.612858 97.765178 
L 255.684218 90.183912 
L 256.041337 89.238363 
L 256.398458 85.789757 
L 256.755578 84.833416 
L 257.469818 80.600184 
L 257.826938 79.865338 
L 258.184057 77.827192 
L 258.541178 76.808084 
L 258.898298 74.668475 
L 259.255418 74.371306 
L 259.612538 72.540576 
L 260.326777 70.089062 
L 260.683898 69.616147 
L 261.041018 67.299523 
L 261.398138 65.761871 
L 261.755258 66.199925 
L 262.469498 64.069053 
L 262.826617 63.811452 
L 263.183738 63.71431 
L 263.540858 63.911631 
L 263.897978 62.570217 
L 264.255098 62.584595 
L 264.612218 62.415926 
L 264.969337 63.216334 
L 265.326458 62.006792 
L 265.683578 61.743729 
L 266.040698 62.369638 
L 266.754938 64.216167 
L 267.112057 64.060993 
L 267.469178 64.813578 
L 267.826298 64.651206 
L 268.897658 68.185542 
L 269.254778 68.14985 
L 269.611897 69.804795 
L 269.969018 70.310968 
L 270.683258 73.999813 
L 271.397498 76.309195 
L 271.754617 78.408297 
L 272.468858 80.781225 
L 272.825978 83.203189 
L 273.540218 86.235114 
L 274.611578 92.910242 
L 274.968698 94.604235 
L 275.682938 99.384606 
L 276.040058 100.915531 
L 276.754298 106.515389 
L 277.468538 111.291871 
L 278.182778 116.837173 
L 281.753978 145.237722 
L 282.111098 147.633138 
L 283.182457 158.372722 
L 283.539578 161.074895 
L 283.896698 164.944787 
L 284.253818 166.980513 
L 284.610938 169.77866 
L 284.968058 173.962474 
L 286.039418 182.446543 
L 286.753658 189.109483 
L 287.110778 192.185626 
L 287.467897 194.17442 
L 287.825018 198.672378 
L 288.182138 201.180692 
L 289.253498 210.614073 
L 290.324858 218.063319 
L 290.681978 221.878782 
L 291.753338 229.259464 
L 292.110457 232.77166 
L 292.467578 234.485602 
L 293.181818 240.006131 
L 296.395898 259.923936 
L 296.753017 260.893629 
L 297.110138 263.744002 
L 297.824378 266.771532 
L 298.181498 267.73485 
L 298.895737 271.582956 
L 299.252858 272.090085 
L 299.967098 275.18004 
L 300.324218 276.298064 
L 300.681338 277.791883 
L 301.038457 278.378469 
L 301.395578 278.691962 
L 301.752698 280.032524 
L 302.109818 281.913509 
L 302.466938 281.0988 
L 302.824058 280.917766 
L 303.181177 281.164631 
L 303.538297 282.601774 
L 303.895418 282.928451 
L 304.252538 282.494052 
L 304.609658 283.714278 
L 304.966778 283.137037 
L 305.323898 283.099775 
L 305.681018 282.404283 
L 306.038138 283.429602 
L 306.395258 282.374929 
L 306.752378 282.818734 
L 307.109498 282.110432 
L 307.466618 280.482663 
L 307.823737 280.142242 
L 308.180858 279.49282 
L 308.537978 278.278291 
L 308.895098 278.017506 
L 309.609338 274.191988 
L 309.966458 273.914201 
L 310.323578 271.956942 
L 310.680698 271.747536 
L 311.037818 270.966708 
L 312.466297 263.692029 
L 313.180538 260.925313 
L 314.609018 251.484147 
L 314.966138 250.658731 
L 315.680378 245.565586 
L 316.037498 244.341315 
L 316.394618 240.909184 
L 316.751737 239.57385 
L 317.465978 233.464569 
L 317.823098 231.602275 
L 318.537338 225.988829 
L 319.251578 219.907929 
L 319.608698 218.119481 
L 324.251258 180.174866 
L 324.608378 176.24853 
L 325.322618 171.197448 
L 325.679737 167.725192 
L 326.036857 165.713749 
L 326.393978 162.346872 
L 326.751098 160.152407 
L 327.822458 150.204055 
L 329.250938 139.656908 
L 331.750778 120.969185 
L 332.107898 119.281617 
L 332.465018 115.685144 
L 333.179258 111.401016 
L 333.536378 108.43053 
L 333.893498 107.277428 
L 335.321978 98.328859 
L 335.679098 97.051804 
L 336.036218 94.260202 
L 336.393338 92.897163 
L 337.464697 87.350916 
L 337.821818 86.600726 
L 338.178938 85.277804 
L 338.893178 81.877231 
L 339.250297 82.143181 
L 339.607417 80.997538 
L 339.964538 78.641382 
L 340.321658 77.796084 
L 340.678778 76.161533 
L 341.035898 76.087703 
L 341.393018 74.613337 
L 341.750138 73.887512 
L 342.107258 73.633298 
L 342.464378 73.633298 
L 343.178618 71.387978 
L 343.535737 72.396568 
L 343.892857 72.653726 
L 344.249977 71.589722 
L 344.607098 71.04432 
L 344.964218 71.076521 
L 345.321338 72.489145 
L 345.678458 72.261481 
L 346.035578 72.834278 
L 346.749818 72.793557 
L 347.106938 72.684584 
L 348.178297 74.75476 
L 348.892538 77.034572 
L 349.606778 78.771315 
L 350.678138 81.869202 
L 351.035258 83.452417 
L 351.392378 84.450556 
L 351.749498 86.154051 
L 352.106618 86.48369 
L 352.463737 89.106233 
L 353.892218 95.732505 
L 354.606458 99.46194 
L 354.963578 100.705176 
L 355.677818 105.649849 
L 356.034938 107.044116 
L 356.392058 109.065011 
L 356.749178 112.959003 
L 357.106297 114.20398 
L 358.177658 120.233085 
L 358.534778 124.226781 
L 358.891898 125.919089 
L 359.963257 133.274351 
L 360.677498 138.180471 
L 361.034618 141.318879 
L 361.391738 143.435478 
L 361.748857 147.055697 
L 362.105977 148.944854 
L 364.248698 164.948835 
L 364.605818 167.458079 
L 365.320058 173.785126 
L 365.677178 175.783105 
L 367.105658 187.211535 
L 367.819898 191.85369 
L 369.248378 202.766872 
L 369.962618 207.340505 
L 370.319738 209.555538 
L 370.676857 212.53882 
L 371.033977 214.211334 
L 372.105338 221.825794 
L 373.890938 232.154968 
L 374.605178 236.128271 
L 375.319417 241.275234 
L 375.676537 241.951297 
L 376.390778 245.890782 
L 377.462138 250.491924 
L 377.819258 252.483358 
L 378.176378 253.394499 
L 378.890618 256.268697 
L 379.247738 258.358474 
L 379.604857 258.376335 
L 379.961977 260.828875 
L 380.319097 262.374121 
L 381.033338 263.213601 
L 381.390458 263.838108 
L 381.747578 264.83989 
L 382.104698 264.636357 
L 382.818938 268.075191 
L 383.176058 266.940872 
L 383.533178 269.527084 
L 383.890298 269.282758 
L 384.247417 269.404921 
L 384.604537 269.037121 
L 385.318778 270.018224 
L 385.675898 270.049408 
L 386.033018 268.706676 
L 386.390138 269.8421 
L 386.747258 268.896193 
L 387.461498 269.626088 
L 387.818618 267.938311 
L 388.175738 267.372356 
L 388.532858 267.276484 
L 388.889977 266.771532 
L 389.247097 267.73485 
L 389.961338 264.62746 
L 390.675578 263.846847 
L 391.389818 261.37721 
L 391.746938 260.075246 
L 392.104058 258.213029 
L 392.461178 258.266614 
L 393.889657 251.956471 
L 394.246778 251.436801 
L 394.603898 250.171489 
L 394.961018 247.660381 
L 395.318138 246.507595 
L 395.675258 244.329198 
L 396.032377 243.967263 
L 397.103738 236.380633 
L 397.460858 235.338223 
L 397.817977 233.875584 
L 398.175097 231.029414 
L 398.532218 229.515295 
L 398.889338 226.866422 
L 399.246458 225.646428 
L 399.603578 222.090735 
L 399.960698 220.520368 
L 400.317818 217.474025 
L 401.032058 213.999223 
L 402.103417 206.30208 
L 402.460537 204.343512 
L 402.817657 201.321765 
L 403.174778 200.110543 
L 403.889018 193.920251 
L 404.603258 190.035805 
L 405.317498 183.909217 
L 406.031738 179.559114 
L 406.388858 176.341615 
L 406.745977 175.532181 
L 407.103097 171.914904 
L 407.460218 169.976161 
L 408.174458 164.572448 
L 408.531578 162.795741 
L 408.888698 159.583472 
L 409.245818 157.401535 
L 410.317178 149.536034 
L 410.674298 147.863278 
L 411.031418 144.343056 
L 411.388537 142.61372 
L 412.459898 136.110366 
L 414.245497 124.20806 
L 414.602618 121.807896 
L 414.959738 121.321299 
L 416.388218 112.609668 
L 416.745338 111.297068 
L 418.173818 103.757848 
L 418.530938 102.352865 
L 418.530938 102.352865 
" style="fill:none;stroke:#1f77b4;stroke-linecap:square;stroke-width:1.5;"/>
   </g>
   <g id="line2d_22">
    <path clip-path="url(#pcd39df9889)" d="M 61.410938 297.044382 
L 62.482298 297.043071 
L 62.839418 295.947477 
L 63.553658 292.212719 
L 63.910778 291.325321 
L 64.625018 287.364243 
L 66.053498 277.733785 
L 66.410618 273.421604 
L 66.767738 271.603965 
L 67.481978 263.545494 
L 69.267578 242.984407 
L 72.838778 194.219452 
L 74.624378 168.450563 
L 78.909818 112.640876 
L 79.624058 106.177475 
L 81.052538 92.325077 
L 81.766778 88.440235 
L 82.123898 86.589324 
L 82.838138 80.271168 
L 83.195258 79.278666 
L 83.552378 77.112554 
L 83.909498 75.769188 
L 84.266618 74.966216 
L 84.623738 73.558352 
L 84.980858 73.699102 
L 85.337978 71.948676 
L 85.695098 72.770571 
L 86.409338 71.902693 
L 86.766458 73.190919 
L 87.480698 73.893288 
L 88.909178 77.443501 
L 89.266298 80.596492 
L 89.980538 83.492154 
L 90.694778 88.26719 
L 91.051898 89.21139 
L 91.409018 92.592698 
L 91.766138 94.308039 
L 93.551738 108.550145 
L 93.908858 111.309644 
L 94.265978 115.946611 
L 94.623098 118.205901 
L 96.408698 134.185894 
L 98.551418 154.338274 
L 98.908538 156.713617 
L 99.979898 167.191154 
L 100.337018 169.127754 
L 100.694138 172.034447 
L 101.051258 173.717776 
L 102.479738 184.282636 
L 103.551098 189.766507 
L 103.908218 191.948098 
L 104.265338 193.160442 
L 104.979578 196.293679 
L 105.336698 196.693131 
L 105.693818 197.802065 
L 106.050938 199.679387 
L 106.408058 199.600214 
L 106.765178 201.500902 
L 107.122298 201.195811 
L 107.479418 202.757943 
L 108.193658 202.927295 
L 108.550778 202.468262 
L 109.265018 202.210835 
L 109.622138 202.215272 
L 110.336378 201.638451 
L 111.050618 199.578221 
L 111.407738 199.270326 
L 111.764858 198.767319 
L 112.121978 196.845097 
L 112.836218 195.200254 
L 113.550458 191.900945 
L 113.907578 191.712331 
L 114.264698 190.238023 
L 114.621818 187.199432 
L 115.336058 185.669621 
L 115.693178 183.514448 
L 116.050298 182.551779 
L 117.478778 174.57188 
L 117.835898 173.788261 
L 118.193018 172.146392 
L 118.550138 169.965983 
L 119.264378 167.480199 
L 119.621498 165.679863 
L 119.978618 164.496777 
L 120.335738 162.805155 
L 120.692858 162.962708 
L 121.049978 160.201384 
L 121.764218 157.945922 
L 122.121338 157.629519 
L 122.478458 155.253781 
L 122.835578 154.697788 
L 123.192698 153.786462 
L 123.549818 153.719575 
L 123.906938 152.81635 
L 125.335418 150.716902 
L 125.692538 151.016184 
L 126.049658 150.21529 
L 126.406778 150.021389 
L 126.763898 150.67475 
L 127.121018 150.864436 
L 127.478138 151.305162 
L 127.835258 150.442912 
L 128.906618 152.849932 
L 129.620858 154.71869 
L 129.977978 154.283929 
L 130.335098 154.936071 
L 130.692218 157.063325 
L 131.049338 157.442176 
L 132.834938 164.923829 
L 133.192058 165.448628 
L 134.263418 169.383765 
L 135.691898 176.748599 
L 136.049018 178.162396 
L 136.406138 180.653878 
L 136.763258 180.591172 
L 137.120378 181.711519 
L 137.477498 184.530302 
L 137.834618 185.703343 
L 138.191738 188.020609 
L 138.548858 189.116157 
L 138.905978 191.258216 
L 139.263098 192.008112 
L 139.977338 195.489916 
L 140.334458 195.675818 
L 140.691578 196.706157 
L 141.048698 198.973153 
L 141.405818 200.220402 
L 141.762938 200.731952 
L 142.120058 202.042226 
L 142.834298 203.301652 
L 144.262778 206.937091 
L 144.619898 206.596848 
L 144.977018 207.704647 
L 145.334138 208.044274 
L 145.691258 209.012376 
L 146.048378 209.168723 
L 146.405498 208.231957 
L 146.762618 208.998581 
L 147.119738 207.217047 
L 147.476858 206.732946 
L 147.833978 207.308188 
L 148.191098 206.710263 
L 148.548218 206.855433 
L 149.262458 205.206628 
L 149.619578 205.170658 
L 149.976698 203.529233 
L 150.333818 204.093253 
L 150.690938 202.201961 
L 151.048058 200.948419 
L 151.405178 200.837977 
L 151.762298 198.846149 
L 152.119418 197.802065 
L 152.833658 194.197927 
L 153.190778 193.758825 
L 153.547898 192.861161 
L 154.262138 188.997138 
L 154.619258 188.19839 
L 154.976378 187.059748 
L 156.761978 178.083295 
L 157.119098 177.030007 
L 157.833338 173.344624 
L 158.190458 172.013716 
L 158.547578 169.945337 
L 158.904698 169.676939 
L 159.618938 165.452757 
L 159.976058 163.244645 
L 160.690298 161.428639 
L 161.047418 159.662386 
L 161.404538 158.570401 
L 161.761658 156.721943 
L 162.833018 153.736297 
L 163.190138 152.07335 
L 163.547258 151.708146 
L 163.904378 150.249011 
L 164.261498 149.78112 
L 165.332858 146.065519 
L 165.689978 145.366601 
L 166.047098 145.498928 
L 166.404218 144.508615 
L 166.761338 145.148903 
L 167.118458 145.136098 
L 167.475578 144.628135 
L 168.189818 142.762765 
L 168.546938 144.14736 
L 168.904058 144.555569 
L 169.975418 143.225724 
L 170.332538 144.969623 
L 170.689658 144.751924 
L 171.046778 144.692164 
L 171.403898 145.383676 
L 171.761018 146.85189 
L 172.118138 147.119681 
L 172.475258 146.698866 
L 172.832378 146.941154 
L 173.546618 149.68417 
L 173.903738 149.435471 
L 174.260858 150.324886 
L 174.617978 152.400774 
L 174.975098 151.473072 
L 175.332218 153.038831 
L 175.689338 153.589983 
L 176.403578 155.784692 
L 177.117818 156.930103 
L 177.832058 159.181435 
L 178.903418 161.644238 
L 179.260538 161.13841 
L 179.617658 162.701502 
L 180.331898 164.857491 
L 180.689018 166.501576 
L 181.046138 165.456886 
L 181.403258 167.277868 
L 181.760378 166.146464 
L 182.117498 167.104441 
L 182.474618 167.5793 
L 182.831738 168.657024 
L 183.188858 168.239974 
L 183.545978 170.040309 
L 183.903098 169.321827 
L 184.260218 170.325225 
L 184.617338 170.940477 
L 184.974457 170.08573 
L 185.331578 170.155927 
L 186.045818 170.795955 
L 186.402938 169.883399 
L 186.760058 171.209366 
L 187.117178 170.279803 
L 187.474298 170.056826 
L 188.188538 169.837978 
L 188.902778 168.215198 
L 189.259898 168.351462 
L 189.617018 167.327418 
L 189.974138 168.409271 
L 190.331258 166.662615 
L 190.688378 166.955789 
L 191.045498 165.205004 
L 191.402618 164.372393 
L 191.759738 164.766276 
L 192.116858 163.310983 
L 192.473978 163.15343 
L 192.831098 161.196456 
L 193.188218 161.677407 
L 193.545338 160.868911 
L 194.259578 158.183224 
L 194.616698 158.328936 
L 194.973818 156.984224 
L 195.330938 156.363908 
L 195.688058 154.60582 
L 196.045178 154.547294 
L 196.402298 153.160565 
L 196.759418 152.967469 
L 197.116538 151.275778 
L 197.473658 151.221208 
L 197.830778 150.834929 
L 198.187898 150.109909 
L 198.545018 149.751614 
L 198.902138 148.510996 
L 199.259258 147.782942 
L 199.616378 147.400225 
L 199.973498 146.567096 
L 200.330618 146.868893 
L 200.687738 145.887369 
L 201.044858 144.49154 
L 201.401978 144.367751 
L 201.759098 144.726313 
L 202.473338 143.860153 
L 202.830458 144.104493 
L 203.187578 143.577232 
L 203.544698 143.362898 
L 203.901818 144.990966 
L 204.258938 143.735839 
L 204.616058 143.358611 
L 204.973178 145.09768 
L 205.330298 144.267387 
L 205.687418 145.319647 
L 206.044538 145.618448 
L 206.401658 146.72012 
L 206.758778 146.324809 
L 207.115898 147.136684 
L 207.830138 149.654663 
L 208.187258 149.023173 
L 208.544378 150.185783 
L 208.901498 151.779508 
L 209.258618 151.897044 
L 209.615738 153.857528 
L 209.972858 154.643443 
L 210.329978 155.742888 
L 210.687098 158.337263 
L 211.044218 157.920943 
L 213.544058 169.20208 
L 213.901178 169.755394 
L 214.258298 171.934939 
L 214.615418 172.789043 
L 214.972538 174.244335 
L 215.329658 176.988375 
L 215.686778 177.675302 
L 216.043898 180.25256 
L 216.401018 181.423071 
L 216.758138 182.192264 
L 217.472378 185.838231 
L 217.829498 186.928529 
L 218.543738 190.814283 
L 219.257978 193.578019 
L 219.615098 195.632585 
L 219.972218 195.19593 
L 221.043578 200.307851 
L 221.400698 201.669511 
L 221.757818 202.388319 
L 222.829178 206.158323 
L 223.186298 205.571202 
L 223.543418 206.805531 
L 224.257658 210.164857 
L 224.614778 210.104804 
L 224.971898 210.474037 
L 225.329018 211.508677 
L 225.686138 210.603974 
L 226.400378 211.830355 
L 226.757498 211.522663 
L 227.114618 211.690495 
L 227.471738 212.655936 
L 227.828858 213.065713 
L 228.185978 212.196945 
L 228.543098 212.136058 
L 228.900218 212.374921 
L 229.257338 212.201628 
L 229.614458 211.876975 
L 229.971578 211.788397 
L 230.328698 210.400448 
L 230.685818 209.629003 
L 231.042938 209.6521 
L 231.400058 209.035368 
L 231.757178 208.131249 
L 232.114298 207.943567 
L 232.828538 205.864763 
L 233.185658 205.467327 
L 233.542778 204.631108 
L 233.899898 202.495001 
L 234.257018 202.26408 
L 234.614138 201.2179 
L 234.971258 201.262077 
L 235.328378 199.441868 
L 235.685498 198.27244 
L 236.042618 196.449987 
L 236.399738 196.45867 
L 236.756858 194.434698 
L 237.471098 192.055265 
L 237.828218 192.325326 
L 238.185338 188.367705 
L 238.542458 188.325376 
L 238.899578 187.538062 
L 239.613818 184.70241 
L 239.970938 183.199618 
L 239.970938 183.199618 
" style="fill:none;stroke:#d62728;stroke-linecap:square;stroke-width:1.5;"/>
   </g>
   <g id="line2d_23">
    <defs>
     <path d="M 0 3 
C 0.795609 3 1.55874 2.683901 2.12132 2.12132 
C 2.683901 1.55874 3 0.795609 3 0 
C 3 -0.795609 2.683901 -1.55874 2.12132 -2.12132 
C 1.55874 -2.683901 0.795609 -3 0 -3 
C -0.795609 -3 -1.55874 -2.683901 -2.12132 -2.12132 
C -2.683901 -1.55874 -3 -0.795609 -3 0 
C -3 0.795609 -2.683901 1.55874 -2.12132 2.12132 
C -1.55874 2.683901 -0.795609 3 0 3 
z
" id="mcb2457e3ba" style="stroke:#1f77b4;"/>
    </defs>
    <g clip-path="url(#pcd39df9889)">
     <use style="fill:#1f77b4;stroke:#1f77b4;" x="61.410938" xlink:href="#mcb2457e3ba" y="296.95689"/>
     <use style="fill:#1f77b4;stroke:#1f77b4;" x="72.688411" xlink:href="#mcb2457e3ba" y="244.95945"/>
     <use style="fill:#1f77b4;stroke:#1f77b4;" x="83.965885" xlink:href="#mcb2457e3ba" y="153.357857"/>
     <use style="fill:#1f77b4;stroke:#1f77b4;" x="95.243359" xlink:href="#mcb2457e3ba" y="60.54225"/>
     <use style="fill:#1f77b4;stroke:#1f77b4;" x="106.520832" xlink:href="#mcb2457e3ba" y="61.941772"/>
     <use style="fill:#1f77b4;stroke:#1f77b4;" x="117.798306" xlink:href="#mcb2457e3ba" y="132.311264"/>
     <use style="fill:#1f77b4;stroke:#1f77b4;" x="129.07578" xlink:href="#mcb2457e3ba" y="199.148697"/>
     <use style="fill:#1f77b4;stroke:#1f77b4;" x="140.353253" xlink:href="#mcb2457e3ba" y="238.74225"/>
     <use style="fill:#1f77b4;stroke:#1f77b4;" x="151.630727" xlink:href="#mcb2457e3ba" y="208.657897"/>
     <use style="fill:#1f77b4;stroke:#1f77b4;" x="162.908201" xlink:href="#mcb2457e3ba" y="130.520505"/>
     <use style="fill:#1f77b4;stroke:#1f77b4;" x="174.185674" xlink:href="#mcb2457e3ba" y="73.289546"/>
     <use style="fill:#1f77b4;stroke:#1f77b4;" x="185.463148" xlink:href="#mcb2457e3ba" y="59.476977"/>
     <use style="fill:#1f77b4;stroke:#1f77b4;" x="196.740622" xlink:href="#mcb2457e3ba" y="105.000865"/>
     <use style="fill:#1f77b4;stroke:#1f77b4;" x="208.018095" xlink:href="#mcb2457e3ba" y="159.803052"/>
     <use style="fill:#1f77b4;stroke:#1f77b4;" x="219.295569" xlink:href="#mcb2457e3ba" y="258.74025"/>
     <use style="fill:#1f77b4;stroke:#1f77b4;" x="230.573043" xlink:href="#mcb2457e3ba" y="261.86505"/>
     <use style="fill:#1f77b4;stroke:#1f77b4;" x="241.850516" xlink:href="#mcb2457e3ba" y="191.219656"/>
     <use style="fill:#1f77b4;stroke:#1f77b4;" x="253.12799" xlink:href="#mcb2457e3ba" y="90.503166"/>
     <use style="fill:#1f77b4;stroke:#1f77b4;" x="264.405464" xlink:href="#mcb2457e3ba" y="59.133621"/>
     <use style="fill:#1f77b4;stroke:#1f77b4;" x="275.682938" xlink:href="#mcb2457e3ba" y="100.93425"/>
     <use style="fill:#1f77b4;stroke:#1f77b4;" x="286.960411" xlink:href="#mcb2457e3ba" y="189.367937"/>
     <use style="fill:#1f77b4;stroke:#1f77b4;" x="298.237885" xlink:href="#mcb2457e3ba" y="264.595129"/>
     <use style="fill:#1f77b4;stroke:#1f77b4;" x="309.515359" xlink:href="#mcb2457e3ba" y="246.327577"/>
     <use style="fill:#1f77b4;stroke:#1f77b4;" x="320.792832" xlink:href="#mcb2457e3ba" y="179.484475"/>
     <use style="fill:#1f77b4;stroke:#1f77b4;" x="332.070306" xlink:href="#mcb2457e3ba" y="92.315646"/>
     <use style="fill:#1f77b4;stroke:#1f77b4;" x="343.34778" xlink:href="#mcb2457e3ba" y="54.87945"/>
     <use style="fill:#1f77b4;stroke:#1f77b4;" x="354.625253" xlink:href="#mcb2457e3ba" y="80.905788"/>
     <use style="fill:#1f77b4;stroke:#1f77b4;" x="365.902727" xlink:href="#mcb2457e3ba" y="152.769254"/>
     <use style="fill:#1f77b4;stroke:#1f77b4;" x="377.180201" xlink:href="#mcb2457e3ba" y="226.78665"/>
     <use style="fill:#1f77b4;stroke:#1f77b4;" x="388.457674" xlink:href="#mcb2457e3ba" y="243.72105"/>
     <use style="fill:#1f77b4;stroke:#1f77b4;" x="399.735148" xlink:href="#mcb2457e3ba" y="195.409827"/>
    </g>
   </g>
   <g id="line2d_24">
    <defs>
     <path d="M 0 3 
C 0.795609 3 1.55874 2.683901 2.12132 2.12132 
C 2.683901 1.55874 3 0.795609 3 0 
C 3 -0.795609 2.683901 -1.55874 2.12132 -2.12132 
C 1.55874 -2.683901 0.795609 -3 0 -3 
C -0.795609 -3 -1.55874 -2.683901 -2.12132 -2.12132 
C -2.683901 -1.55874 -3 -0.795609 -3 0 
C -3 0.795609 -2.683901 1.55874 -2.12132 2.12132 
C -1.55874 2.683901 -0.795609 3 0 3 
z
" id="m4d17eb6f4c" style="stroke:#d62728;"/>
    </defs>
    <g clip-path="url(#pcd39df9889)">
     <use style="fill:#d62728;stroke:#d62728;" x="61.410938" xlink:href="#m4d17eb6f4c" y="289.822418"/>
     <use style="fill:#d62728;stroke:#d62728;" x="72.688411" xlink:href="#m4d17eb6f4c" y="214.38825"/>
     <use style="fill:#d62728;stroke:#d62728;" x="83.965885" xlink:href="#m4d17eb6f4c" y="92.917298"/>
     <use style="fill:#d62728;stroke:#d62728;" x="95.243359" xlink:href="#m4d17eb6f4c" y="124.737713"/>
     <use style="fill:#d62728;stroke:#d62728;" x="106.520832" xlink:href="#m4d17eb6f4c" y="205.24065"/>
     <use style="fill:#d62728;stroke:#d62728;" x="117.798306" xlink:href="#m4d17eb6f4c" y="167.797989"/>
     <use style="fill:#d62728;stroke:#d62728;" x="129.07578" xlink:href="#m4d17eb6f4c" y="148.16636"/>
     <use style="fill:#d62728;stroke:#d62728;" x="140.353253" xlink:href="#m4d17eb6f4c" y="194.566551"/>
     <use style="fill:#d62728;stroke:#d62728;" x="151.630727" xlink:href="#m4d17eb6f4c" y="165.303567"/>
     <use style="fill:#d62728;stroke:#d62728;" x="162.908201" xlink:href="#m4d17eb6f4c" y="161.013662"/>
     <use style="fill:#d62728;stroke:#d62728;" x="174.185674" xlink:href="#m4d17eb6f4c" y="134.417949"/>
     <use style="fill:#d62728;stroke:#d62728;" x="185.463148" xlink:href="#m4d17eb6f4c" y="149.621285"/>
     <use style="fill:#d62728;stroke:#d62728;" x="196.740622" xlink:href="#m4d17eb6f4c" y="144.483829"/>
     <use style="fill:#d62728;stroke:#d62728;" x="208.018095" xlink:href="#m4d17eb6f4c" y="160.227635"/>
     <use style="fill:#d62728;stroke:#d62728;" x="219.295569" xlink:href="#m4d17eb6f4c" y="190.245024"/>
     <use style="fill:#d62728;stroke:#d62728;" x="230.573043" xlink:href="#m4d17eb6f4c" y="224.744024"/>
    </g>
   </g>
   <g id="patch_3">
    <path d="M 61.410938 297.54825 
L 61.410938 31.43625 
" style="fill:none;stroke:#000000;stroke-linecap:square;stroke-linejoin:miter;stroke-width:0.8;"/>
   </g>
   <g id="patch_4">
    <path d="M 418.530938 297.54825 
L 418.530938 31.43625 
" style="fill:none;stroke:#000000;stroke-linecap:square;stroke-linejoin:miter;stroke-width:0.8;"/>
   </g>
   <g id="patch_5">
    <path d="M 61.410938 297.54825 
L 418.530938 297.54825 
" style="fill:none;stroke:#000000;stroke-linecap:square;stroke-linejoin:miter;stroke-width:0.8;"/>
   </g>
   <g id="patch_6">
    <path d="M 61.410938 31.43625 
L 418.530938 31.43625 
" style="fill:none;stroke:#000000;stroke-linecap:square;stroke-linejoin:miter;stroke-width:0.8;"/>
   </g>
   <g id="text_13">
    <!-- (D) -->
    <defs>
     <path d="M 19.671875 64.796875 
L 19.671875 8.109375 
L 31.59375 8.109375 
Q 46.6875 8.109375 53.6875 14.9375 
Q 60.6875 21.78125 60.6875 36.53125 
Q 60.6875 51.171875 53.6875 57.984375 
Q 46.6875 64.796875 31.59375 64.796875 
z
M 9.8125 72.90625 
L 30.078125 72.90625 
Q 51.265625 72.90625 61.171875 64.09375 
Q 71.09375 55.28125 71.09375 36.53125 
Q 71.09375 17.671875 61.125 8.828125 
Q 51.171875 0 30.078125 0 
L 9.8125 0 
z
" id="DejaVuSans-44"/>
    </defs>
    <g transform="translate(380.939359 58.04745)scale(0.2 -0.2)">
     <use xlink:href="#DejaVuSans-28"/>
     <use x="39.013672" xlink:href="#DejaVuSans-44"/>
     <use x="116.015625" xlink:href="#DejaVuSans-29"/>
    </g>
   </g>
   <g id="text_14">
    <!-- Y heating -->
    <defs>
     <path d="M -0.203125 72.90625 
L 10.40625 72.90625 
L 30.609375 42.921875 
L 50.6875 72.90625 
L 61.28125 72.90625 
L 35.5 34.71875 
L 35.5 0 
L 25.59375 0 
L 25.59375 34.71875 
z
" id="DejaVuSans-59"/>
     <path d="M 54.890625 33.015625 
L 54.890625 0 
L 45.90625 0 
L 45.90625 32.71875 
Q 45.90625 40.484375 42.875 44.328125 
Q 39.84375 48.1875 33.796875 48.1875 
Q 26.515625 48.1875 22.3125 43.546875 
Q 18.109375 38.921875 18.109375 30.90625 
L 18.109375 0 
L 9.078125 0 
L 9.078125 75.984375 
L 18.109375 75.984375 
L 18.109375 46.1875 
Q 21.34375 51.125 25.703125 53.5625 
Q 30.078125 56 35.796875 56 
Q 45.21875 56 50.046875 50.171875 
Q 54.890625 44.34375 54.890625 33.015625 
z
" id="DejaVuSans-68"/>
     <path d="M 18.3125 70.21875 
L 18.3125 54.6875 
L 36.8125 54.6875 
L 36.8125 47.703125 
L 18.3125 47.703125 
L 18.3125 18.015625 
Q 18.3125 11.328125 20.140625 9.421875 
Q 21.96875 7.515625 27.59375 7.515625 
L 36.8125 7.515625 
L 36.8125 0 
L 27.59375 0 
Q 17.1875 0 13.234375 3.875 
Q 9.28125 7.765625 9.28125 18.015625 
L 9.28125 47.703125 
L 2.6875 47.703125 
L 2.6875 54.6875 
L 9.28125 54.6875 
L 9.28125 70.21875 
z
" id="DejaVuSans-74"/>
     <path d="M 54.890625 33.015625 
L 54.890625 0 
L 45.90625 0 
L 45.90625 32.71875 
Q 45.90625 40.484375 42.875 44.328125 
Q 39.84375 48.1875 33.796875 48.1875 
Q 26.515625 48.1875 22.3125 43.546875 
Q 18.109375 38.921875 18.109375 30.90625 
L 18.109375 0 
L 9.078125 0 
L 9.078125 54.6875 
L 18.109375 54.6875 
L 18.109375 46.1875 
Q 21.34375 51.125 25.703125 53.5625 
Q 30.078125 56 35.796875 56 
Q 45.21875 56 50.046875 50.171875 
Q 54.890625 44.34375 54.890625 33.015625 
z
" id="DejaVuSans-6e"/>
     <path d="M 45.40625 27.984375 
Q 45.40625 37.75 41.375 43.109375 
Q 37.359375 48.484375 30.078125 48.484375 
Q 22.859375 48.484375 18.828125 43.109375 
Q 14.796875 37.75 14.796875 27.984375 
Q 14.796875 18.265625 18.828125 12.890625 
Q 22.859375 7.515625 30.078125 7.515625 
Q 37.359375 7.515625 41.375 12.890625 
Q 45.40625 18.265625 45.40625 27.984375 
z
M 54.390625 6.78125 
Q 54.390625 -7.171875 48.1875 -13.984375 
Q 42 -20.796875 29.203125 -20.796875 
Q 24.46875 -20.796875 20.265625 -20.09375 
Q 16.0625 -19.390625 12.109375 -17.921875 
L 12.109375 -9.1875 
Q 16.0625 -11.328125 19.921875 -12.34375 
Q 23.78125 -13.375 27.78125 -13.375 
Q 36.625 -13.375 41.015625 -8.765625 
Q 45.40625 -4.15625 45.40625 5.171875 
L 45.40625 9.625 
Q 42.625 4.78125 38.28125 2.390625 
Q 33.9375 0 27.875 0 
Q 17.828125 0 11.671875 7.65625 
Q 5.515625 15.328125 5.515625 27.984375 
Q 5.515625 40.671875 11.671875 48.328125 
Q 17.828125 56 27.875 56 
Q 33.9375 56 38.28125 53.609375 
Q 42.625 51.21875 45.40625 46.390625 
L 45.40625 54.6875 
L 54.390625 54.6875 
z
" id="DejaVuSans-67"/>
    </defs>
    <g transform="translate(183.224063 25.43625)scale(0.24 -0.24)">
     <use xlink:href="#DejaVuSans-59"/>
     <use x="61.083984" xlink:href="#DejaVuSans-20"/>
     <use x="92.871094" xlink:href="#DejaVuSans-68"/>
     <use x="156.25" xlink:href="#DejaVuSans-65"/>
     <use x="217.773438" xlink:href="#DejaVuSans-61"/>
     <use x="279.052734" xlink:href="#DejaVuSans-74"/>
     <use x="318.261719" xlink:href="#DejaVuSans-69"/>
     <use x="346.044922" xlink:href="#DejaVuSans-6e"/>
     <use x="409.423828" xlink:href="#DejaVuSans-67"/>
    </g>
   </g>
   <g id="legend_1">
    <g id="patch_7">
     <path d="M 296.074687 196.8485 
L 404.530937 196.8485 
Q 408.530937 196.8485 408.530937 192.8485 
L 408.530937 136.136 
Q 408.530937 132.136 404.530937 132.136 
L 296.074687 132.136 
Q 292.074687 132.136 292.074687 136.136 
L 292.074687 192.8485 
Q 292.074687 196.8485 296.074687 196.8485 
z
" style="fill:#ffffff;opacity:0.8;stroke:#cccccc;stroke-linejoin:miter;"/>
    </g>
    <g id="LineCollection_3">
     <path d="M 320.074687 158.332875 
L 320.074687 138.332875 
" style="fill:none;stroke:#1f77b4;stroke-width:1.5;"/>
    </g>
    <g id="line2d_25"/>
    <g id="line2d_26">
     <g>
      <use style="fill:#1f77b4;stroke:#1f77b4;" x="320.074687" xlink:href="#mcb2457e3ba" y="148.332875"/>
     </g>
    </g>
    <g id="text_15">
     <!-- Cold -->
     <defs>
      <path d="M 64.40625 67.28125 
L 64.40625 56.890625 
Q 59.421875 61.53125 53.78125 63.8125 
Q 48.140625 66.109375 41.796875 66.109375 
Q 29.296875 66.109375 22.65625 58.46875 
Q 16.015625 50.828125 16.015625 36.375 
Q 16.015625 21.96875 22.65625 14.328125 
Q 29.296875 6.6875 41.796875 6.6875 
Q 48.140625 6.6875 53.78125 8.984375 
Q 59.421875 11.28125 64.40625 15.921875 
L 64.40625 5.609375 
Q 59.234375 2.09375 53.4375 0.328125 
Q 47.65625 -1.421875 41.21875 -1.421875 
Q 24.65625 -1.421875 15.125 8.703125 
Q 5.609375 18.84375 5.609375 36.375 
Q 5.609375 53.953125 15.125 64.078125 
Q 24.65625 74.21875 41.21875 74.21875 
Q 47.75 74.21875 53.53125 72.484375 
Q 59.328125 70.75 64.40625 67.28125 
z
" id="DejaVuSans-43"/>
      <path d="M 30.609375 48.390625 
Q 23.390625 48.390625 19.1875 42.75 
Q 14.984375 37.109375 14.984375 27.296875 
Q 14.984375 17.484375 19.15625 11.84375 
Q 23.34375 6.203125 30.609375 6.203125 
Q 37.796875 6.203125 41.984375 11.859375 
Q 46.1875 17.53125 46.1875 27.296875 
Q 46.1875 37.015625 41.984375 42.703125 
Q 37.796875 48.390625 30.609375 48.390625 
z
M 30.609375 56 
Q 42.328125 56 49.015625 48.375 
Q 55.71875 40.765625 55.71875 27.296875 
Q 55.71875 13.875 49.015625 6.21875 
Q 42.328125 -1.421875 30.609375 -1.421875 
Q 18.84375 -1.421875 12.171875 6.21875 
Q 5.515625 13.875 5.515625 27.296875 
Q 5.515625 40.765625 12.171875 48.375 
Q 18.84375 56 30.609375 56 
z
" id="DejaVuSans-6f"/>
      <path d="M 45.40625 46.390625 
L 45.40625 75.984375 
L 54.390625 75.984375 
L 54.390625 0 
L 45.40625 0 
L 45.40625 8.203125 
Q 42.578125 3.328125 38.25 0.953125 
Q 33.9375 -1.421875 27.875 -1.421875 
Q 17.96875 -1.421875 11.734375 6.484375 
Q 5.515625 14.40625 5.515625 27.296875 
Q 5.515625 40.1875 11.734375 48.09375 
Q 17.96875 56 27.875 56 
Q 33.9375 56 38.25 53.625 
Q 42.578125 51.265625 45.40625 46.390625 
z
M 14.796875 27.296875 
Q 14.796875 17.390625 18.875 11.75 
Q 22.953125 6.109375 30.078125 6.109375 
Q 37.203125 6.109375 41.296875 11.75 
Q 45.40625 17.390625 45.40625 27.296875 
Q 45.40625 37.203125 41.296875 42.84375 
Q 37.203125 48.484375 30.078125 48.484375 
Q 22.953125 48.484375 18.875 42.84375 
Q 14.796875 37.203125 14.796875 27.296875 
z
" id="DejaVuSans-64"/>
     </defs>
     <g transform="translate(356.074687 155.332875)scale(0.2 -0.2)">
      <use xlink:href="#DejaVuSans-43"/>
      <use x="69.824219" xlink:href="#DejaVuSans-6f"/>
      <use x="131.005859" xlink:href="#DejaVuSans-6c"/>
      <use x="158.789062" xlink:href="#DejaVuSans-64"/>
     </g>
    </g>
    <g id="LineCollection_4">
     <path d="M 320.074687 187.689125 
L 320.074687 167.689125 
" style="fill:none;stroke:#d62728;stroke-width:1.5;"/>
    </g>
    <g id="line2d_27"/>
    <g id="line2d_28">
     <g>
      <use style="fill:#d62728;stroke:#d62728;" x="320.074687" xlink:href="#m4d17eb6f4c" y="177.689125"/>
     </g>
    </g>
    <g id="text_16">
     <!-- Hot -->
     <defs>
      <path d="M 9.8125 72.90625 
L 19.671875 72.90625 
L 19.671875 43.015625 
L 55.515625 43.015625 
L 55.515625 72.90625 
L 65.375 72.90625 
L 65.375 0 
L 55.515625 0 
L 55.515625 34.71875 
L 19.671875 34.71875 
L 19.671875 0 
L 9.8125 0 
z
" id="DejaVuSans-48"/>
     </defs>
     <g transform="translate(356.074687 184.689125)scale(0.2 -0.2)">
      <use xlink:href="#DejaVuSans-48"/>
      <use x="75.195312" xlink:href="#DejaVuSans-6f"/>
      <use x="136.376953" xlink:href="#DejaVuSans-74"/>
     </g>
    </g>
   </g>
  </g>
 </g>
 <defs>
  <clipPath id="pcd39df9889">
   <rect height="266.112" width="357.12" x="61.410938" y="31.43625"/>
  </clipPath>
 </defs>
</svg>
