<?xml version="1.0" encoding="utf-8" standalone="no"?>
<!DOCTYPE svg PUBLIC "-//W3C//DTD SVG 1.1//EN"
  "http://www.w3.org/Graphics/SVG/1.1/DTD/svg11.dtd">
<!-- Created with matplotlib (http://matplotlib.org/) -->
<svg height="331pt" version="1.1" viewBox="0 0 429 331" width="429pt" xmlns="http://www.w3.org/2000/svg" xmlns:xlink="http://www.w3.org/1999/xlink">
 <defs>
  <style type="text/css">
*{stroke-linecap:butt;stroke-linejoin:round;}
  </style>
 </defs>
 <g id="figure_1">
  <g id="patch_1">
   <path d="M 0 331.128016 
L 429.230937 331.128016 
L 429.230937 0 
L 0 0 
z
" style="fill:none;"/>
  </g>
  <g id="axes_1">
   <g id="patch_2">
    <path d="M 61.410938 279.010828 
L 418.530938 279.010828 
L 418.530938 12.898828 
L 61.410938 12.898828 
z
" style="fill:none;"/>
   </g>
   <g id="matplotlib.axis_1">
    <g id="xtick_1">
     <g id="line2d_1">
      <path clip-path="url(#p304c686b55)" d="M 61.410938 279.010828 
L 61.410938 12.898828 
" style="fill:none;stroke:#b0b0b0;stroke-linecap:square;stroke-width:0.8;"/>
     </g>
     <g id="line2d_2">
      <defs>
       <path d="M 0 0 
L 0 3.5 
" id="m005f0a59be" style="stroke:#000000;stroke-width:0.8;"/>
      </defs>
      <g>
       <use style="stroke:#000000;stroke-width:0.8;" x="61.410938" xlink:href="#m005f0a59be" y="279.010828"/>
      </g>
     </g>
     <g id="text_1">
      <!-- 0 -->
      <defs>
       <path d="M 31.78125 66.40625 
Q 24.171875 66.40625 20.328125 58.90625 
Q 16.5 51.421875 16.5 36.375 
Q 16.5 21.390625 20.328125 13.890625 
Q 24.171875 6.390625 31.78125 6.390625 
Q 39.453125 6.390625 43.28125 13.890625 
Q 47.125 21.390625 47.125 36.375 
Q 47.125 51.421875 43.28125 58.90625 
Q 39.453125 66.40625 31.78125 66.40625 
z
M 31.78125 74.21875 
Q 44.046875 74.21875 50.515625 64.515625 
Q 56.984375 54.828125 56.984375 36.375 
Q 56.984375 17.96875 50.515625 8.265625 
Q 44.046875 -1.421875 31.78125 -1.421875 
Q 19.53125 -1.421875 13.0625 8.265625 
Q 6.59375 17.96875 6.59375 36.375 
Q 6.59375 54.828125 13.0625 64.515625 
Q 19.53125 74.21875 31.78125 74.21875 
z
" id="DejaVuSans-30"/>
      </defs>
      <g transform="translate(56.639063 297.408484)scale(0.15 -0.15)">
       <use xlink:href="#DejaVuSans-30"/>
      </g>
     </g>
    </g>
    <g id="xtick_2">
     <g id="line2d_3">
      <path clip-path="url(#p304c686b55)" d="M 155.389885 279.010828 
L 155.389885 12.898828 
" style="fill:none;stroke:#b0b0b0;stroke-linecap:square;stroke-width:0.8;"/>
     </g>
     <g id="line2d_4">
      <g>
       <use style="stroke:#000000;stroke-width:0.8;" x="155.389885" xlink:href="#m005f0a59be" y="279.010828"/>
      </g>
     </g>
     <g id="text_2">
      <!-- 50 -->
      <defs>
       <path d="M 10.796875 72.90625 
L 49.515625 72.90625 
L 49.515625 64.59375 
L 19.828125 64.59375 
L 19.828125 46.734375 
Q 21.96875 47.46875 24.109375 47.828125 
Q 26.265625 48.1875 28.421875 48.1875 
Q 40.625 48.1875 47.75 41.5 
Q 54.890625 34.8125 54.890625 23.390625 
Q 54.890625 11.625 47.5625 5.09375 
Q 40.234375 -1.421875 26.90625 -1.421875 
Q 22.3125 -1.421875 17.546875 -0.640625 
Q 12.796875 0.140625 7.71875 1.703125 
L 7.71875 11.625 
Q 12.109375 9.234375 16.796875 8.0625 
Q 21.484375 6.890625 26.703125 6.890625 
Q 35.15625 6.890625 40.078125 11.328125 
Q 45.015625 15.765625 45.015625 23.390625 
Q 45.015625 31 40.078125 35.4375 
Q 35.15625 39.890625 26.703125 39.890625 
Q 22.75 39.890625 18.8125 39.015625 
Q 14.890625 38.140625 10.796875 36.28125 
z
" id="DejaVuSans-35"/>
      </defs>
      <g transform="translate(145.846135 297.408484)scale(0.15 -0.15)">
       <use xlink:href="#DejaVuSans-35"/>
       <use x="63.623047" xlink:href="#DejaVuSans-30"/>
      </g>
     </g>
    </g>
    <g id="xtick_3">
     <g id="line2d_5">
      <path clip-path="url(#p304c686b55)" d="M 249.368832 279.010828 
L 249.368832 12.898828 
" style="fill:none;stroke:#b0b0b0;stroke-linecap:square;stroke-width:0.8;"/>
     </g>
     <g id="line2d_6">
      <g>
       <use style="stroke:#000000;stroke-width:0.8;" x="249.368832" xlink:href="#m005f0a59be" y="279.010828"/>
      </g>
     </g>
     <g id="text_3">
      <!-- 100 -->
      <defs>
       <path d="M 12.40625 8.296875 
L 28.515625 8.296875 
L 28.515625 63.921875 
L 10.984375 60.40625 
L 10.984375 69.390625 
L 28.421875 72.90625 
L 38.28125 72.90625 
L 38.28125 8.296875 
L 54.390625 8.296875 
L 54.390625 0 
L 12.40625 0 
z
" id="DejaVuSans-31"/>
      </defs>
      <g transform="translate(235.053207 297.408484)scale(0.15 -0.15)">
       <use xlink:href="#DejaVuSans-31"/>
       <use x="63.623047" xlink:href="#DejaVuSans-30"/>
       <use x="127.246094" xlink:href="#DejaVuSans-30"/>
      </g>
     </g>
    </g>
    <g id="xtick_4">
     <g id="line2d_7">
      <path clip-path="url(#p304c686b55)" d="M 343.34778 279.010828 
L 343.34778 12.898828 
" style="fill:none;stroke:#b0b0b0;stroke-linecap:square;stroke-width:0.8;"/>
     </g>
     <g id="line2d_8">
      <g>
       <use style="stroke:#000000;stroke-width:0.8;" x="343.34778" xlink:href="#m005f0a59be" y="279.010828"/>
      </g>
     </g>
     <g id="text_4">
      <!-- 150 -->
      <g transform="translate(329.032155 297.408484)scale(0.15 -0.15)">
       <use xlink:href="#DejaVuSans-31"/>
       <use x="63.623047" xlink:href="#DejaVuSans-35"/>
       <use x="127.246094" xlink:href="#DejaVuSans-30"/>
      </g>
     </g>
    </g>
    <g id="text_5">
     <!-- Time ($\mu s$) -->
     <defs>
      <path d="M -0.296875 72.90625 
L 61.375 72.90625 
L 61.375 64.59375 
L 35.5 64.59375 
L 35.5 0 
L 25.59375 0 
L 25.59375 64.59375 
L -0.296875 64.59375 
z
" id="DejaVuSans-54"/>
      <path d="M 9.421875 54.6875 
L 18.40625 54.6875 
L 18.40625 0 
L 9.421875 0 
z
M 9.421875 75.984375 
L 18.40625 75.984375 
L 18.40625 64.59375 
L 9.421875 64.59375 
z
" id="DejaVuSans-69"/>
      <path d="M 52 44.1875 
Q 55.375 50.25 60.0625 53.125 
Q 64.75 56 71.09375 56 
Q 79.640625 56 84.28125 50.015625 
Q 88.921875 44.046875 88.921875 33.015625 
L 88.921875 0 
L 79.890625 0 
L 79.890625 32.71875 
Q 79.890625 40.578125 77.09375 44.375 
Q 74.3125 48.1875 68.609375 48.1875 
Q 61.625 48.1875 57.5625 43.546875 
Q 53.515625 38.921875 53.515625 30.90625 
L 53.515625 0 
L 44.484375 0 
L 44.484375 32.71875 
Q 44.484375 40.625 41.703125 44.40625 
Q 38.921875 48.1875 33.109375 48.1875 
Q 26.21875 48.1875 22.15625 43.53125 
Q 18.109375 38.875 18.109375 30.90625 
L 18.109375 0 
L 9.078125 0 
L 9.078125 54.6875 
L 18.109375 54.6875 
L 18.109375 46.1875 
Q 21.1875 51.21875 25.484375 53.609375 
Q 29.78125 56 35.6875 56 
Q 41.65625 56 45.828125 52.96875 
Q 50 49.953125 52 44.1875 
z
" id="DejaVuSans-6d"/>
      <path d="M 56.203125 29.59375 
L 56.203125 25.203125 
L 14.890625 25.203125 
Q 15.484375 15.921875 20.484375 11.0625 
Q 25.484375 6.203125 34.421875 6.203125 
Q 39.59375 6.203125 44.453125 7.46875 
Q 49.3125 8.734375 54.109375 11.28125 
L 54.109375 2.78125 
Q 49.265625 0.734375 44.1875 -0.34375 
Q 39.109375 -1.421875 33.890625 -1.421875 
Q 20.796875 -1.421875 13.15625 6.1875 
Q 5.515625 13.8125 5.515625 26.8125 
Q 5.515625 40.234375 12.765625 48.109375 
Q 20.015625 56 32.328125 56 
Q 43.359375 56 49.78125 48.890625 
Q 56.203125 41.796875 56.203125 29.59375 
z
M 47.21875 32.234375 
Q 47.125 39.59375 43.09375 43.984375 
Q 39.0625 48.390625 32.421875 48.390625 
Q 24.90625 48.390625 20.390625 44.140625 
Q 15.875 39.890625 15.1875 32.171875 
z
" id="DejaVuSans-65"/>
      <path id="DejaVuSans-20"/>
      <path d="M 31 75.875 
Q 24.46875 64.65625 21.28125 53.65625 
Q 18.109375 42.671875 18.109375 31.390625 
Q 18.109375 20.125 21.3125 9.0625 
Q 24.515625 -2 31 -13.1875 
L 23.1875 -13.1875 
Q 15.875 -1.703125 12.234375 9.375 
Q 8.59375 20.453125 8.59375 31.390625 
Q 8.59375 42.28125 12.203125 53.3125 
Q 15.828125 64.359375 23.1875 75.875 
z
" id="DejaVuSans-28"/>
      <path d="M -1.3125 -20.796875 
L 13.375 54.6875 
L 22.40625 54.6875 
L 15.765625 20.65625 
Q 15.578125 19.625 15.421875 18.359375 
Q 15.28125 17.09375 15.28125 15.828125 
Q 15.28125 11.28125 18.140625 8.828125 
Q 21 6.390625 26.3125 6.390625 
Q 33.546875 6.390625 37.984375 10.484375 
Q 42.4375 14.59375 44 22.796875 
L 50.203125 54.6875 
L 59.1875 54.6875 
L 51.03125 12.640625 
Q 50.828125 11.71875 50.75 11.03125 
Q 50.6875 10.359375 50.6875 9.8125 
Q 50.6875 8.296875 51.296875 7.59375 
Q 51.90625 6.890625 53.21875 6.890625 
Q 53.71875 6.890625 54.5625 7.125 
Q 55.421875 7.375 56.984375 8.015625 
L 55.609375 0.78125 
Q 53.46875 -0.296875 51.515625 -0.859375 
Q 49.5625 -1.421875 47.703125 -1.421875 
Q 44.484375 -1.421875 42.65625 0.625 
Q 40.828125 2.6875 40.828125 6.296875 
Q 38.09375 2.390625 34.296875 0.484375 
Q 30.515625 -1.421875 25.390625 -1.421875 
Q 20.84375 -1.421875 17.453125 0.671875 
Q 14.0625 2.78125 12.984375 6.203125 
L 7.71875 -20.796875 
z
" id="DejaVuSans-Oblique-3bc"/>
      <path d="M 50 53.078125 
L 48.296875 44.578125 
Q 44.734375 46.53125 40.765625 47.5 
Q 36.8125 48.484375 32.625 48.484375 
Q 25.53125 48.484375 21.453125 46.0625 
Q 17.390625 43.65625 17.390625 39.5 
Q 17.390625 34.671875 26.859375 32.078125 
Q 27.59375 31.890625 27.9375 31.78125 
L 30.8125 30.90625 
Q 39.796875 28.421875 42.796875 25.6875 
Q 45.796875 22.953125 45.796875 18.21875 
Q 45.796875 9.515625 38.890625 4.046875 
Q 31.984375 -1.421875 20.796875 -1.421875 
Q 16.453125 -1.421875 11.671875 -0.578125 
Q 6.890625 0.25 1.125 2 
L 2.875 11.28125 
Q 7.8125 8.734375 12.59375 7.421875 
Q 17.390625 6.109375 21.78125 6.109375 
Q 28.375 6.109375 32.5 8.9375 
Q 36.625 11.765625 36.625 16.109375 
Q 36.625 20.796875 25.78125 23.6875 
L 24.859375 23.921875 
L 21.78125 24.703125 
Q 14.9375 26.515625 11.765625 29.46875 
Q 8.59375 32.421875 8.59375 37.015625 
Q 8.59375 45.75 15.15625 50.875 
Q 21.734375 56 33.015625 56 
Q 37.453125 56 41.671875 55.265625 
Q 45.90625 54.546875 50 53.078125 
z
" id="DejaVuSans-Oblique-73"/>
      <path d="M 8.015625 75.875 
L 15.828125 75.875 
Q 23.140625 64.359375 26.78125 53.3125 
Q 30.421875 42.28125 30.421875 31.390625 
Q 30.421875 20.453125 26.78125 9.375 
Q 23.140625 -1.703125 15.828125 -13.1875 
L 8.015625 -13.1875 
Q 14.5 -2 17.703125 9.0625 
Q 20.90625 20.125 20.90625 31.390625 
Q 20.90625 42.671875 17.703125 53.65625 
Q 14.5 64.65625 8.015625 75.875 
z
" id="DejaVuSans-29"/>
     </defs>
     <g transform="translate(192.570938 319.728016)scale(0.2 -0.2)">
      <use transform="translate(0 0.015625)" xlink:href="#DejaVuSans-54"/>
      <use transform="translate(61.083984 0.015625)" xlink:href="#DejaVuSans-69"/>
      <use transform="translate(88.867188 0.015625)" xlink:href="#DejaVuSans-6d"/>
      <use transform="translate(186.279297 0.015625)" xlink:href="#DejaVuSans-65"/>
      <use transform="translate(247.802734 0.015625)" xlink:href="#DejaVuSans-20"/>
      <use transform="translate(279.589844 0.015625)" xlink:href="#DejaVuSans-28"/>
      <use transform="translate(318.603516 0.015625)" xlink:href="#DejaVuSans-Oblique-3bc"/>
      <use transform="translate(382.226562 0.015625)" xlink:href="#DejaVuSans-Oblique-73"/>
      <use transform="translate(434.326172 0.015625)" xlink:href="#DejaVuSans-29"/>
     </g>
    </g>
   </g>
   <g id="matplotlib.axis_2">
    <g id="ytick_1">
     <g id="line2d_9">
      <path clip-path="url(#p304c686b55)" d="M 61.410938 279.010828 
L 418.530938 279.010828 
" style="fill:none;stroke:#b0b0b0;stroke-linecap:square;stroke-width:0.8;"/>
     </g>
     <g id="line2d_10">
      <defs>
       <path d="M 0 0 
L -3.5 0 
" id="mc3ce260a5b" style="stroke:#000000;stroke-width:0.8;"/>
      </defs>
      <g>
       <use style="stroke:#000000;stroke-width:0.8;" x="61.410938" xlink:href="#mc3ce260a5b" y="279.010828"/>
      </g>
     </g>
     <g id="text_6">
      <!-- 0.0 -->
      <defs>
       <path d="M 10.6875 12.40625 
L 21 12.40625 
L 21 0 
L 10.6875 0 
z
" id="DejaVuSans-2e"/>
      </defs>
      <g transform="translate(30.55625 284.709656)scale(0.15 -0.15)">
       <use xlink:href="#DejaVuSans-30"/>
       <use x="63.623047" xlink:href="#DejaVuSans-2e"/>
       <use x="95.410156" xlink:href="#DejaVuSans-30"/>
      </g>
     </g>
    </g>
    <g id="ytick_2">
     <g id="line2d_11">
      <path clip-path="url(#p304c686b55)" d="M 61.410938 225.788428 
L 418.530938 225.788428 
" style="fill:none;stroke:#b0b0b0;stroke-linecap:square;stroke-width:0.8;"/>
     </g>
     <g id="line2d_12">
      <g>
       <use style="stroke:#000000;stroke-width:0.8;" x="61.410938" xlink:href="#mc3ce260a5b" y="225.788428"/>
      </g>
     </g>
     <g id="text_7">
      <!-- 0.2 -->
      <defs>
       <path d="M 19.1875 8.296875 
L 53.609375 8.296875 
L 53.609375 0 
L 7.328125 0 
L 7.328125 8.296875 
Q 12.9375 14.109375 22.625 23.890625 
Q 32.328125 33.6875 34.8125 36.53125 
Q 39.546875 41.84375 41.421875 45.53125 
Q 43.3125 49.21875 43.3125 52.78125 
Q 43.3125 58.59375 39.234375 62.25 
Q 35.15625 65.921875 28.609375 65.921875 
Q 23.96875 65.921875 18.8125 64.3125 
Q 13.671875 62.703125 7.8125 59.421875 
L 7.8125 69.390625 
Q 13.765625 71.78125 18.9375 73 
Q 24.125 74.21875 28.421875 74.21875 
Q 39.75 74.21875 46.484375 68.546875 
Q 53.21875 62.890625 53.21875 53.421875 
Q 53.21875 48.921875 51.53125 44.890625 
Q 49.859375 40.875 45.40625 35.40625 
Q 44.1875 33.984375 37.640625 27.21875 
Q 31.109375 20.453125 19.1875 8.296875 
z
" id="DejaVuSans-32"/>
      </defs>
      <g transform="translate(30.55625 231.487256)scale(0.15 -0.15)">
       <use xlink:href="#DejaVuSans-30"/>
       <use x="63.623047" xlink:href="#DejaVuSans-2e"/>
       <use x="95.410156" xlink:href="#DejaVuSans-32"/>
      </g>
     </g>
    </g>
    <g id="ytick_3">
     <g id="line2d_13">
      <path clip-path="url(#p304c686b55)" d="M 61.410938 172.566028 
L 418.530938 172.566028 
" style="fill:none;stroke:#b0b0b0;stroke-linecap:square;stroke-width:0.8;"/>
     </g>
     <g id="line2d_14">
      <g>
       <use style="stroke:#000000;stroke-width:0.8;" x="61.410938" xlink:href="#mc3ce260a5b" y="172.566028"/>
      </g>
     </g>
     <g id="text_8">
      <!-- 0.4 -->
      <defs>
       <path d="M 37.796875 64.3125 
L 12.890625 25.390625 
L 37.796875 25.390625 
z
M 35.203125 72.90625 
L 47.609375 72.90625 
L 47.609375 25.390625 
L 58.015625 25.390625 
L 58.015625 17.1875 
L 47.609375 17.1875 
L 47.609375 0 
L 37.796875 0 
L 37.796875 17.1875 
L 4.890625 17.1875 
L 4.890625 26.703125 
z
" id="DejaVuSans-34"/>
      </defs>
      <g transform="translate(30.55625 178.264856)scale(0.15 -0.15)">
       <use xlink:href="#DejaVuSans-30"/>
       <use x="63.623047" xlink:href="#DejaVuSans-2e"/>
       <use x="95.410156" xlink:href="#DejaVuSans-34"/>
      </g>
     </g>
    </g>
    <g id="ytick_4">
     <g id="line2d_15">
      <path clip-path="url(#p304c686b55)" d="M 61.410938 119.343628 
L 418.530938 119.343628 
" style="fill:none;stroke:#b0b0b0;stroke-linecap:square;stroke-width:0.8;"/>
     </g>
     <g id="line2d_16">
      <g>
       <use style="stroke:#000000;stroke-width:0.8;" x="61.410938" xlink:href="#mc3ce260a5b" y="119.343628"/>
      </g>
     </g>
     <g id="text_9">
      <!-- 0.6 -->
      <defs>
       <path d="M 33.015625 40.375 
Q 26.375 40.375 22.484375 35.828125 
Q 18.609375 31.296875 18.609375 23.390625 
Q 18.609375 15.53125 22.484375 10.953125 
Q 26.375 6.390625 33.015625 6.390625 
Q 39.65625 6.390625 43.53125 10.953125 
Q 47.40625 15.53125 47.40625 23.390625 
Q 47.40625 31.296875 43.53125 35.828125 
Q 39.65625 40.375 33.015625 40.375 
z
M 52.59375 71.296875 
L 52.59375 62.3125 
Q 48.875 64.0625 45.09375 64.984375 
Q 41.3125 65.921875 37.59375 65.921875 
Q 27.828125 65.921875 22.671875 59.328125 
Q 17.53125 52.734375 16.796875 39.40625 
Q 19.671875 43.65625 24.015625 45.921875 
Q 28.375 48.1875 33.59375 48.1875 
Q 44.578125 48.1875 50.953125 41.515625 
Q 57.328125 34.859375 57.328125 23.390625 
Q 57.328125 12.15625 50.6875 5.359375 
Q 44.046875 -1.421875 33.015625 -1.421875 
Q 20.359375 -1.421875 13.671875 8.265625 
Q 6.984375 17.96875 6.984375 36.375 
Q 6.984375 53.65625 15.1875 63.9375 
Q 23.390625 74.21875 37.203125 74.21875 
Q 40.921875 74.21875 44.703125 73.484375 
Q 48.484375 72.75 52.59375 71.296875 
z
" id="DejaVuSans-36"/>
      </defs>
      <g transform="translate(30.55625 125.042456)scale(0.15 -0.15)">
       <use xlink:href="#DejaVuSans-30"/>
       <use x="63.623047" xlink:href="#DejaVuSans-2e"/>
       <use x="95.410156" xlink:href="#DejaVuSans-36"/>
      </g>
     </g>
    </g>
    <g id="ytick_5">
     <g id="line2d_17">
      <path clip-path="url(#p304c686b55)" d="M 61.410938 66.121228 
L 418.530938 66.121228 
" style="fill:none;stroke:#b0b0b0;stroke-linecap:square;stroke-width:0.8;"/>
     </g>
     <g id="line2d_18">
      <g>
       <use style="stroke:#000000;stroke-width:0.8;" x="61.410938" xlink:href="#mc3ce260a5b" y="66.121228"/>
      </g>
     </g>
     <g id="text_10">
      <!-- 0.8 -->
      <defs>
       <path d="M 31.78125 34.625 
Q 24.75 34.625 20.71875 30.859375 
Q 16.703125 27.09375 16.703125 20.515625 
Q 16.703125 13.921875 20.71875 10.15625 
Q 24.75 6.390625 31.78125 6.390625 
Q 38.8125 6.390625 42.859375 10.171875 
Q 46.921875 13.96875 46.921875 20.515625 
Q 46.921875 27.09375 42.890625 30.859375 
Q 38.875 34.625 31.78125 34.625 
z
M 21.921875 38.8125 
Q 15.578125 40.375 12.03125 44.71875 
Q 8.5 49.078125 8.5 55.328125 
Q 8.5 64.0625 14.71875 69.140625 
Q 20.953125 74.21875 31.78125 74.21875 
Q 42.671875 74.21875 48.875 69.140625 
Q 55.078125 64.0625 55.078125 55.328125 
Q 55.078125 49.078125 51.53125 44.71875 
Q 48 40.375 41.703125 38.8125 
Q 48.828125 37.15625 52.796875 32.3125 
Q 56.78125 27.484375 56.78125 20.515625 
Q 56.78125 9.90625 50.3125 4.234375 
Q 43.84375 -1.421875 31.78125 -1.421875 
Q 19.734375 -1.421875 13.25 4.234375 
Q 6.78125 9.90625 6.78125 20.515625 
Q 6.78125 27.484375 10.78125 32.3125 
Q 14.796875 37.15625 21.921875 38.8125 
z
M 18.3125 54.390625 
Q 18.3125 48.734375 21.84375 45.5625 
Q 25.390625 42.390625 31.78125 42.390625 
Q 38.140625 42.390625 41.71875 45.5625 
Q 45.3125 48.734375 45.3125 54.390625 
Q 45.3125 60.0625 41.71875 63.234375 
Q 38.140625 66.40625 31.78125 66.40625 
Q 25.390625 66.40625 21.84375 63.234375 
Q 18.3125 60.0625 18.3125 54.390625 
z
" id="DejaVuSans-38"/>
      </defs>
      <g transform="translate(30.55625 71.820056)scale(0.15 -0.15)">
       <use xlink:href="#DejaVuSans-30"/>
       <use x="63.623047" xlink:href="#DejaVuSans-2e"/>
       <use x="95.410156" xlink:href="#DejaVuSans-38"/>
      </g>
     </g>
    </g>
    <g id="ytick_6">
     <g id="line2d_19">
      <path clip-path="url(#p304c686b55)" d="M 61.410938 12.898828 
L 418.530938 12.898828 
" style="fill:none;stroke:#b0b0b0;stroke-linecap:square;stroke-width:0.8;"/>
     </g>
     <g id="line2d_20">
      <g>
       <use style="stroke:#000000;stroke-width:0.8;" x="61.410938" xlink:href="#mc3ce260a5b" y="12.898828"/>
      </g>
     </g>
     <g id="text_11">
      <!-- 1.0 -->
      <g transform="translate(30.55625 18.597656)scale(0.15 -0.15)">
       <use xlink:href="#DejaVuSans-31"/>
       <use x="63.623047" xlink:href="#DejaVuSans-2e"/>
       <use x="95.410156" xlink:href="#DejaVuSans-30"/>
      </g>
     </g>
    </g>
    <g id="text_12">
     <!-- F=1 population -->
     <defs>
      <path d="M 9.8125 72.90625 
L 51.703125 72.90625 
L 51.703125 64.59375 
L 19.671875 64.59375 
L 19.671875 43.109375 
L 48.578125 43.109375 
L 48.578125 34.8125 
L 19.671875 34.8125 
L 19.671875 0 
L 9.8125 0 
z
" id="DejaVuSans-46"/>
      <path d="M 10.59375 45.40625 
L 73.1875 45.40625 
L 73.1875 37.203125 
L 10.59375 37.203125 
z
M 10.59375 25.484375 
L 73.1875 25.484375 
L 73.1875 17.1875 
L 10.59375 17.1875 
z
" id="DejaVuSans-3d"/>
      <path d="M 18.109375 8.203125 
L 18.109375 -20.796875 
L 9.078125 -20.796875 
L 9.078125 54.6875 
L 18.109375 54.6875 
L 18.109375 46.390625 
Q 20.953125 51.265625 25.265625 53.625 
Q 29.59375 56 35.59375 56 
Q 45.5625 56 51.78125 48.09375 
Q 58.015625 40.1875 58.015625 27.296875 
Q 58.015625 14.40625 51.78125 6.484375 
Q 45.5625 -1.421875 35.59375 -1.421875 
Q 29.59375 -1.421875 25.265625 0.953125 
Q 20.953125 3.328125 18.109375 8.203125 
z
M 48.6875 27.296875 
Q 48.6875 37.203125 44.609375 42.84375 
Q 40.53125 48.484375 33.40625 48.484375 
Q 26.265625 48.484375 22.1875 42.84375 
Q 18.109375 37.203125 18.109375 27.296875 
Q 18.109375 17.390625 22.1875 11.75 
Q 26.265625 6.109375 33.40625 6.109375 
Q 40.53125 6.109375 44.609375 11.75 
Q 48.6875 17.390625 48.6875 27.296875 
z
" id="DejaVuSans-70"/>
      <path d="M 30.609375 48.390625 
Q 23.390625 48.390625 19.1875 42.75 
Q 14.984375 37.109375 14.984375 27.296875 
Q 14.984375 17.484375 19.15625 11.84375 
Q 23.34375 6.203125 30.609375 6.203125 
Q 37.796875 6.203125 41.984375 11.859375 
Q 46.1875 17.53125 46.1875 27.296875 
Q 46.1875 37.015625 41.984375 42.703125 
Q 37.796875 48.390625 30.609375 48.390625 
z
M 30.609375 56 
Q 42.328125 56 49.015625 48.375 
Q 55.71875 40.765625 55.71875 27.296875 
Q 55.71875 13.875 49.015625 6.21875 
Q 42.328125 -1.421875 30.609375 -1.421875 
Q 18.84375 -1.421875 12.171875 6.21875 
Q 5.515625 13.875 5.515625 27.296875 
Q 5.515625 40.765625 12.171875 48.375 
Q 18.84375 56 30.609375 56 
z
" id="DejaVuSans-6f"/>
      <path d="M 8.5 21.578125 
L 8.5 54.6875 
L 17.484375 54.6875 
L 17.484375 21.921875 
Q 17.484375 14.15625 20.5 10.265625 
Q 23.53125 6.390625 29.59375 6.390625 
Q 36.859375 6.390625 41.078125 11.03125 
Q 45.3125 15.671875 45.3125 23.6875 
L 45.3125 54.6875 
L 54.296875 54.6875 
L 54.296875 0 
L 45.3125 0 
L 45.3125 8.40625 
Q 42.046875 3.421875 37.71875 1 
Q 33.40625 -1.421875 27.6875 -1.421875 
Q 18.265625 -1.421875 13.375 4.4375 
Q 8.5 10.296875 8.5 21.578125 
z
M 31.109375 56 
z
" id="DejaVuSans-75"/>
      <path d="M 9.421875 75.984375 
L 18.40625 75.984375 
L 18.40625 0 
L 9.421875 0 
z
" id="DejaVuSans-6c"/>
      <path d="M 34.28125 27.484375 
Q 23.390625 27.484375 19.1875 25 
Q 14.984375 22.515625 14.984375 16.5 
Q 14.984375 11.71875 18.140625 8.90625 
Q 21.296875 6.109375 26.703125 6.109375 
Q 34.1875 6.109375 38.703125 11.40625 
Q 43.21875 16.703125 43.21875 25.484375 
L 43.21875 27.484375 
z
M 52.203125 31.203125 
L 52.203125 0 
L 43.21875 0 
L 43.21875 8.296875 
Q 40.140625 3.328125 35.546875 0.953125 
Q 30.953125 -1.421875 24.3125 -1.421875 
Q 15.921875 -1.421875 10.953125 3.296875 
Q 6 8.015625 6 15.921875 
Q 6 25.140625 12.171875 29.828125 
Q 18.359375 34.515625 30.609375 34.515625 
L 43.21875 34.515625 
L 43.21875 35.40625 
Q 43.21875 41.609375 39.140625 45 
Q 35.0625 48.390625 27.6875 48.390625 
Q 23 48.390625 18.546875 47.265625 
Q 14.109375 46.140625 10.015625 43.890625 
L 10.015625 52.203125 
Q 14.9375 54.109375 19.578125 55.046875 
Q 24.21875 56 28.609375 56 
Q 40.484375 56 46.34375 49.84375 
Q 52.203125 43.703125 52.203125 31.203125 
z
" id="DejaVuSans-61"/>
      <path d="M 18.3125 70.21875 
L 18.3125 54.6875 
L 36.8125 54.6875 
L 36.8125 47.703125 
L 18.3125 47.703125 
L 18.3125 18.015625 
Q 18.3125 11.328125 20.140625 9.421875 
Q 21.96875 7.515625 27.59375 7.515625 
L 36.8125 7.515625 
L 36.8125 0 
L 27.59375 0 
Q 17.1875 0 13.234375 3.875 
Q 9.28125 7.765625 9.28125 18.015625 
L 9.28125 47.703125 
L 2.6875 47.703125 
L 2.6875 54.6875 
L 9.28125 54.6875 
L 9.28125 70.21875 
z
" id="DejaVuSans-74"/>
      <path d="M 54.890625 33.015625 
L 54.890625 0 
L 45.90625 0 
L 45.90625 32.71875 
Q 45.90625 40.484375 42.875 44.328125 
Q 39.84375 48.1875 33.796875 48.1875 
Q 26.515625 48.1875 22.3125 43.546875 
Q 18.109375 38.921875 18.109375 30.90625 
L 18.109375 0 
L 9.078125 0 
L 9.078125 54.6875 
L 18.109375 54.6875 
L 18.109375 46.1875 
Q 21.34375 51.125 25.703125 53.5625 
Q 30.078125 56 35.796875 56 
Q 45.21875 56 50.046875 50.171875 
Q 54.890625 44.34375 54.890625 33.015625 
z
" id="DejaVuSans-6e"/>
     </defs>
     <g transform="translate(22.396875 222.840766)rotate(-90)scale(0.2 -0.2)">
      <use xlink:href="#DejaVuSans-46"/>
      <use x="57.519531" xlink:href="#DejaVuSans-3d"/>
      <use x="141.308594" xlink:href="#DejaVuSans-31"/>
      <use x="204.931641" xlink:href="#DejaVuSans-20"/>
      <use x="236.71875" xlink:href="#DejaVuSans-70"/>
      <use x="300.195312" xlink:href="#DejaVuSans-6f"/>
      <use x="361.376953" xlink:href="#DejaVuSans-70"/>
      <use x="424.853516" xlink:href="#DejaVuSans-75"/>
      <use x="488.232422" xlink:href="#DejaVuSans-6c"/>
      <use x="516.015625" xlink:href="#DejaVuSans-61"/>
      <use x="577.294922" xlink:href="#DejaVuSans-74"/>
      <use x="616.503906" xlink:href="#DejaVuSans-69"/>
      <use x="644.287109" xlink:href="#DejaVuSans-6f"/>
      <use x="705.46875" xlink:href="#DejaVuSans-6e"/>
     </g>
    </g>
   </g>
   <g id="LineCollection_1">
    <path clip-path="url(#p304c686b55)" d="M 61.410938 279.010828 
L 61.410938 277.828108 
" style="fill:none;stroke:#1f77b4;stroke-width:1.5;"/>
    <path clip-path="url(#p304c686b55)" d="M 72.688411 233.724327 
L 72.688411 219.11973 
" style="fill:none;stroke:#1f77b4;stroke-width:1.5;"/>
    <path clip-path="url(#p304c686b55)" d="M 83.965885 143.396797 
L 83.965885 126.244073 
" style="fill:none;stroke:#1f77b4;stroke-width:1.5;"/>
    <path clip-path="url(#p304c686b55)" d="M 95.243359 47.534715 
L 95.243359 36.474941 
" style="fill:none;stroke:#1f77b4;stroke-width:1.5;"/>
    <path clip-path="url(#p304c686b55)" d="M 106.520832 49.304225 
L 106.520832 37.504475 
" style="fill:none;stroke:#1f77b4;stroke-width:1.5;"/>
    <path clip-path="url(#p304c686b55)" d="M 117.798306 122.5775 
L 117.798306 104.970184 
" style="fill:none;stroke:#1f77b4;stroke-width:1.5;"/>
    <path clip-path="url(#p304c686b55)" d="M 129.07578 189.370912 
L 129.07578 171.851637 
" style="fill:none;stroke:#1f77b4;stroke-width:1.5;"/>
    <path clip-path="url(#p304c686b55)" d="M 140.353253 227.574564 
L 140.353253 212.835092 
" style="fill:none;stroke:#1f77b4;stroke-width:1.5;"/>
    <path clip-path="url(#p304c686b55)" d="M 151.630727 198.254093 
L 151.630727 181.986858 
" style="fill:none;stroke:#1f77b4;stroke-width:1.5;"/>
    <path clip-path="url(#p304c686b55)" d="M 162.908201 120.373779 
L 162.908201 103.592388 
" style="fill:none;stroke:#1f77b4;stroke-width:1.5;"/>
    <path clip-path="url(#p304c686b55)" d="M 174.185674 61.376425 
L 174.185674 48.127823 
" style="fill:none;stroke:#1f77b4;stroke-width:1.5;"/>
    <path clip-path="url(#p304c686b55)" d="M 185.463148 46.173713 
L 185.463148 35.705397 
" style="fill:none;stroke:#1f77b4;stroke-width:1.5;"/>
    <path clip-path="url(#p304c686b55)" d="M 196.740622 94.710697 
L 196.740622 78.21619 
" style="fill:none;stroke:#1f77b4;stroke-width:1.5;"/>
    <path clip-path="url(#p304c686b55)" d="M 208.018095 150.091357 
L 208.018095 132.439903 
" style="fill:none;stroke:#1f77b4;stroke-width:1.5;"/>
    <path clip-path="url(#p304c686b55)" d="M 219.295569 246.578381 
L 219.295569 233.827275 
" style="fill:none;stroke:#1f77b4;stroke-width:1.5;"/>
    <path clip-path="url(#p304c686b55)" d="M 230.573043 249.424998 
L 230.573043 237.230258 
" style="fill:none;stroke:#1f77b4;stroke-width:1.5;"/>
    <path clip-path="url(#p304c686b55)" d="M 241.850516 181.294811 
L 241.850516 164.069658 
" style="fill:none;stroke:#1f77b4;stroke-width:1.5;"/>
    <path clip-path="url(#p304c686b55)" d="M 253.12799 79.517377 
L 253.12799 64.414111 
" style="fill:none;stroke:#1f77b4;stroke-width:1.5;"/>
    <path clip-path="url(#p304c686b55)" d="M 264.405464 45.769903 
L 264.405464 35.422496 
" style="fill:none;stroke:#1f77b4;stroke-width:1.5;"/>
    <path clip-path="url(#p304c686b55)" d="M 275.682938 90.201979 
L 275.682938 74.591677 
" style="fill:none;stroke:#1f77b4;stroke-width:1.5;"/>
    <path clip-path="url(#p304c686b55)" d="M 286.960411 179.448594 
L 286.960411 162.212436 
" style="fill:none;stroke:#1f77b4;stroke-width:1.5;"/>
    <path clip-path="url(#p304c686b55)" d="M 298.237885 252.031273 
L 298.237885 240.08414 
" style="fill:none;stroke:#1f77b4;stroke-width:1.5;"/>
    <path clip-path="url(#p304c686b55)" d="M 309.515359 234.759467 
L 309.515359 220.820844 
" style="fill:none;stroke:#1f77b4;stroke-width:1.5;"/>
    <path clip-path="url(#p304c686b55)" d="M 320.792832 170.005568 
L 320.792832 151.888539 
" style="fill:none;stroke:#1f77b4;stroke-width:1.5;"/>
    <path clip-path="url(#p304c686b55)" d="M 332.070306 81.447616 
L 332.070306 66.108833 
" style="fill:none;stroke:#1f77b4;stroke-width:1.5;"/>
    <path clip-path="url(#p304c686b55)" d="M 343.34778 41.520484 
L 343.34778 31.163572 
" style="fill:none;stroke:#1f77b4;stroke-width:1.5;"/>
    <path clip-path="url(#p304c686b55)" d="M 354.625253 69.126463 
L 354.625253 55.61027 
" style="fill:none;stroke:#1f77b4;stroke-width:1.5;"/>
    <path clip-path="url(#p304c686b55)" d="M 365.902727 143.028574 
L 365.902727 125.435091 
" style="fill:none;stroke:#1f77b4;stroke-width:1.5;"/>
    <path clip-path="url(#p304c686b55)" d="M 377.180201 216.170886 
L 377.180201 200.32757 
" style="fill:none;stroke:#1f77b4;stroke-width:1.5;"/>
    <path clip-path="url(#p304c686b55)" d="M 388.457674 232.381492 
L 388.457674 217.985764 
" style="fill:none;stroke:#1f77b4;stroke-width:1.5;"/>
    <path clip-path="url(#p304c686b55)" d="M 399.735148 185.207707 
L 399.735148 168.537103 
" style="fill:none;stroke:#1f77b4;stroke-width:1.5;"/>
   </g>
   <g id="LineCollection_2">
    <path clip-path="url(#p304c686b55)" d="M 61.410938 274.780846 
L 61.410938 267.789145 
" style="fill:none;stroke:#d62728;stroke-width:1.5;"/>
    <path clip-path="url(#p304c686b55)" d="M 72.688411 205.362532 
L 72.688411 186.339125 
" style="fill:none;stroke:#d62728;stroke-width:1.5;"/>
    <path clip-path="url(#p304c686b55)" d="M 83.965885 83.68147 
L 83.965885 65.078282 
" style="fill:none;stroke:#d62728;stroke-width:1.5;"/>
    <path clip-path="url(#p304c686b55)" d="M 95.243359 116.112645 
L 95.243359 96.287938 
" style="fill:none;stroke:#d62728;stroke-width:1.5;"/>
    <path clip-path="url(#p304c686b55)" d="M 106.520832 196.713543 
L 106.520832 176.692913 
" style="fill:none;stroke:#d62728;stroke-width:1.5;"/>
    <path clip-path="url(#p304c686b55)" d="M 117.798306 159.743592 
L 117.798306 138.777543 
" style="fill:none;stroke:#d62728;stroke-width:1.5;"/>
    <path clip-path="url(#p304c686b55)" d="M 129.07578 139.971453 
L 129.07578 119.286424 
" style="fill:none;stroke:#d62728;stroke-width:1.5;"/>
    <path clip-path="url(#p304c686b55)" d="M 140.353253 186.753956 
L 140.353253 165.304303 
" style="fill:none;stroke:#d62728;stroke-width:1.5;"/>
    <path clip-path="url(#p304c686b55)" d="M 151.630727 157.155879 
L 151.630727 136.376412 
" style="fill:none;stroke:#d62728;stroke-width:1.5;"/>
    <path clip-path="url(#p304c686b55)" d="M 162.908201 153.229479 
L 162.908201 131.723001 
" style="fill:none;stroke:#d62728;stroke-width:1.5;"/>
    <path clip-path="url(#p304c686b55)" d="M 174.185674 126.605353 
L 174.185674 105.1557 
" style="fill:none;stroke:#d62728;stroke-width:1.5;"/>
    <path clip-path="url(#p304c686b55)" d="M 185.463148 141.224476 
L 185.463148 120.943251 
" style="fill:none;stroke:#d62728;stroke-width:1.5;"/>
    <path clip-path="url(#p304c686b55)" d="M 196.740622 137.351633 
L 196.740622 114.541182 
" style="fill:none;stroke:#d62728;stroke-width:1.5;"/>
    <path clip-path="url(#p304c686b55)" d="M 208.018095 152.33771 
L 208.018095 131.042715 
" style="fill:none;stroke:#d62728;stroke-width:1.5;"/>
    <path clip-path="url(#p304c686b55)" d="M 219.295569 182.191503 
L 219.295569 161.223702 
" style="fill:none;stroke:#d62728;stroke-width:1.5;"/>
    <path clip-path="url(#p304c686b55)" d="M 230.573043 215.607072 
L 230.573043 196.806131 
" style="fill:none;stroke:#d62728;stroke-width:1.5;"/>
   </g>
   <g id="line2d_21">
    <path clip-path="url(#p304c686b55)" d="M 61.410938 278.518987 
L 62.839418 278.518987 
L 63.196538 278.188961 
L 63.553658 277.098432 
L 63.910778 277.248374 
L 64.982138 273.288688 
L 65.339258 273.333567 
L 65.696378 270.777181 
L 66.053498 269.397218 
L 66.410618 268.811783 
L 66.767738 267.471613 
L 67.481978 263.661175 
L 67.839098 263.220005 
L 68.553338 258.980245 
L 68.910458 258.173816 
L 69.267578 255.01156 
L 69.624698 253.352751 
L 69.981818 250.119381 
L 70.338938 249.168385 
L 70.696058 245.361858 
L 71.053178 243.88734 
L 71.767418 238.700657 
L 72.124538 236.755411 
L 72.481658 234.065857 
L 73.195898 227.751423 
L 76.052858 203.92406 
L 76.409978 199.287211 
L 77.124218 195.498207 
L 77.838458 186.600525 
L 79.981178 167.510409 
L 80.338298 163.071974 
L 80.695418 160.633164 
L 81.052538 155.991061 
L 81.409658 154.078815 
L 82.123898 145.994554 
L 83.195258 135.83232 
L 83.552378 131.197774 
L 83.909498 129.292381 
L 84.266618 124.503901 
L 84.623738 122.106504 
L 87.837818 93.665929 
L 88.194938 91.318988 
L 89.266298 81.836649 
L 90.694778 70.840026 
L 91.051898 69.763646 
L 91.409018 65.761645 
L 92.837498 57.103406 
L 93.194618 56.409084 
L 93.551738 52.700102 
L 93.908858 51.829022 
L 95.694458 43.333722 
L 96.051578 42.489301 
L 96.408698 40.247118 
L 96.765818 39.474497 
L 97.122938 37.246796 
L 97.480058 37.862921 
L 98.194298 36.011918 
L 99.265658 34.05423 
L 99.622778 33.662728 
L 99.979898 34.246965 
L 100.337018 32.701327 
L 100.694138 33.353806 
L 101.051258 32.859307 
L 101.408378 32.560586 
L 101.765498 32.582843 
L 102.122618 33.662728 
L 102.836858 34.717083 
L 103.193978 34.612794 
L 103.551098 34.960445 
L 103.908218 34.643651 
L 104.622458 37.571665 
L 104.979578 37.78957 
L 105.336698 39.454345 
L 105.693818 40.361055 
L 106.050938 41.769874 
L 106.408058 42.670336 
L 107.122298 45.474387 
L 107.479418 46.596405 
L 107.836538 49.215089 
L 108.907898 53.58893 
L 109.622138 57.688714 
L 109.979258 60.478969 
L 110.336378 61.749967 
L 111.050618 66.522138 
L 111.407738 68.778517 
L 111.764858 70.309154 
L 113.193338 81.883673 
L 113.550458 83.574309 
L 114.978938 95.118542 
L 115.336058 97.362181 
L 116.050298 104.517477 
L 116.407418 106.637323 
L 116.764538 110.697456 
L 117.121658 112.627042 
L 117.835898 119.266237 
L 119.978618 137.344263 
L 120.335738 142.053878 
L 122.121338 156.990712 
L 123.192698 167.383385 
L 123.906938 172.710486 
L 124.264058 175.357829 
L 124.621178 179.753515 
L 125.692538 187.865157 
L 126.406778 194.76554 
L 126.763898 196.824979 
L 127.121018 200.711954 
L 127.478138 202.288262 
L 127.835258 204.609791 
L 128.192378 209.091925 
L 128.549498 211.122437 
L 129.263738 216.937219 
L 129.620858 219.289201 
L 129.977978 220.836128 
L 130.335098 223.396242 
L 130.692218 226.941758 
L 131.049338 228.123107 
L 131.406458 230.226402 
L 131.763578 233.493962 
L 132.120698 235.254111 
L 132.477818 237.628104 
L 132.834938 238.881572 
L 133.192058 240.745421 
L 133.906298 245.309425 
L 134.263418 246.383263 
L 134.620538 248.488906 
L 134.977658 249.527992 
L 135.334778 251.501592 
L 137.120378 258.148803 
L 137.477498 258.109304 
L 137.834618 260.067411 
L 138.548858 260.97059 
L 138.905978 262.296824 
L 139.263098 262.69304 
L 139.620218 264.046398 
L 139.977338 263.749341 
L 140.334458 263.884815 
L 140.691578 263.819874 
L 141.048698 264.91117 
L 141.405818 265.118771 
L 141.762938 266.081475 
L 142.120058 264.67414 
L 142.477178 264.506459 
L 142.834298 263.95663 
L 143.191418 263.625909 
L 143.548538 262.627209 
L 143.905658 263.48003 
L 144.262778 262.232072 
L 144.619898 262.024876 
L 144.977018 262.008949 
L 145.334138 261.573472 
L 145.691258 259.712247 
L 146.048378 258.591798 
L 146.405498 258.510636 
L 147.119738 256.317377 
L 147.476858 254.701403 
L 147.833978 253.835669 
L 148.548218 250.278974 
L 148.905338 248.892458 
L 149.262458 246.881178 
L 149.619578 245.599261 
L 150.333818 242.003902 
L 150.690938 241.290951 
L 151.048058 237.672321 
L 151.405178 236.01535 
L 151.762298 234.934116 
L 156.404858 204.614656 
L 157.119098 198.380659 
L 158.547578 187.681638 
L 159.261818 181.5263 
L 159.618938 179.084673 
L 160.333178 172.642902 
L 160.690298 170.300496 
L 161.047418 166.969533 
L 161.404538 164.922927 
L 162.118778 158.459834 
L 162.833018 152.551199 
L 163.190138 150.729345 
L 163.547258 146.694714 
L 164.261498 141.858815 
L 164.975738 134.680226 
L 165.332858 132.890506 
L 166.761338 120.645137 
L 167.475578 116.543841 
L 167.832698 112.371188 
L 168.189818 110.276789 
L 169.261178 102.110584 
L 169.618298 99.727176 
L 169.975418 98.571316 
L 170.332538 96.219059 
L 170.689658 92.634909 
L 171.046778 90.761192 
L 171.403898 87.799963 
L 172.475258 82.37811 
L 172.832378 79.130225 
L 173.189498 78.001936 
L 173.903738 73.107291 
L 174.260858 73.020552 
L 174.975098 67.829231 
L 175.332218 66.318608 
L 176.046458 63.954354 
L 176.403578 62.753915 
L 177.117818 59.009566 
L 177.832058 57.361557 
L 178.189178 54.806244 
L 178.546298 54.195053 
L 178.903418 54.408839 
L 179.260538 52.092918 
L 179.617658 51.88445 
L 179.974778 50.953872 
L 180.331898 50.942521 
L 180.689018 49.596818 
L 181.046138 49.572733 
L 181.403258 48.774444 
L 181.760378 48.315018 
L 182.117498 49.343927 
L 182.831738 47.29028 
L 183.188858 48.397643 
L 183.545978 48.188419 
L 183.903098 47.263948 
L 184.260218 49.3078 
L 184.974457 48.112459 
L 185.688698 50.144918 
L 186.045818 49.850375 
L 186.402938 51.40203 
L 186.760058 51.762451 
L 187.117178 52.753769 
L 187.474298 53.36549 
L 187.831418 54.398659 
L 188.188538 54.715557 
L 188.545658 55.221717 
L 188.902778 57.501296 
L 189.617018 59.254503 
L 189.974138 60.956552 
L 190.331258 61.824696 
L 191.759738 68.785725 
L 192.116858 70.036017 
L 192.473978 72.741147 
L 192.831098 73.548052 
L 193.188218 76.0477 
L 193.545338 77.195083 
L 194.973818 87.178629 
L 195.330938 87.885218 
L 196.402298 95.957068 
L 196.759418 97.97723 
L 197.116538 100.870054 
L 197.473658 102.465319 
L 197.830778 104.694747 
L 199.616378 118.832244 
L 200.330618 123.459105 
L 201.044858 129.932428 
L 202.473338 140.782003 
L 206.401658 172.8972 
L 206.758778 174.720323 
L 207.115898 179.215496 
L 207.473018 181.17301 
L 207.830138 184.729673 
L 208.187258 186.33951 
L 209.972858 200.48289 
L 210.687098 206.747629 
L 211.044218 207.608693 
L 211.401338 210.957406 
L 212.472698 217.079071 
L 212.829818 220.299545 
L 213.186938 221.73855 
L 213.901178 227.707673 
L 214.258298 228.267773 
L 214.615418 231.826265 
L 214.972538 233.969179 
L 215.329658 235.08119 
L 216.043898 238.881572 
L 216.401018 241.394478 
L 216.758138 243.020828 
L 217.115258 244.005502 
L 217.472378 246.383263 
L 217.829498 247.738807 
L 218.186618 248.25292 
L 218.900858 252.049364 
L 219.257978 252.719091 
L 219.615098 254.386238 
L 219.972218 254.570694 
L 220.329338 255.714778 
L 220.686458 257.695677 
L 221.043578 257.485158 
L 221.400698 258.829381 
L 221.757818 259.101472 
L 222.114938 260.198105 
L 222.472058 260.009325 
L 222.829178 261.667516 
L 223.186298 261.38304 
L 223.543418 261.38304 
L 223.900538 261.244178 
L 224.257658 261.83993 
L 224.614778 261.865607 
L 224.971898 261.275036 
L 225.329018 261.961168 
L 226.043258 261.730212 
L 226.400378 261.305894 
L 226.757498 261.38304 
L 227.114618 261.213319 
L 227.471738 258.9391 
L 227.828858 260.140019 
L 228.185978 257.964475 
L 228.543098 257.408212 
L 228.900218 255.931541 
L 229.257338 255.352984 
L 229.614458 254.397589 
L 229.971578 253.992768 
L 230.685818 251.709483 
L 231.042938 249.469329 
L 231.757178 246.643601 
L 232.114298 244.308155 
L 232.471418 243.666135 
L 232.828538 241.458187 
L 233.185658 240.222506 
L 233.542778 237.925797 
L 233.899898 236.588108 
L 234.257018 233.76078 
L 234.614138 231.994536 
L 234.971258 229.294976 
L 235.328378 228.280352 
L 236.042618 223.100091 
L 236.399738 220.237474 
L 236.756858 218.853568 
L 237.113978 216.724839 
L 237.828218 210.660643 
L 238.542458 207.143742 
L 239.256698 200.65998 
L 240.685178 189.454012 
L 241.399418 183.400711 
L 241.756538 181.500761 
L 242.470778 174.67449 
L 243.185018 169.006014 
L 243.542138 165.045346 
L 243.899258 163.193889 
L 244.613498 157.132363 
L 245.327738 151.25333 
L 245.684858 148.40262 
L 246.041978 144.003347 
L 246.399098 141.480879 
L 246.756218 138.090017 
L 247.470458 133.092966 
L 248.184698 126.738281 
L 248.898938 119.638718 
L 249.256058 117.721507 
L 249.613178 114.263864 
L 249.970298 112.137777 
L 250.684538 106.026328 
L 251.398778 101.087886 
L 251.755898 97.778736 
L 252.113018 96.294633 
L 253.184378 87.542115 
L 253.541498 85.83679 
L 254.612858 78.612519 
L 254.969978 76.570107 
L 255.327098 73.488404 
L 255.684218 72.126494 
L 257.826938 61.116913 
L 258.541178 57.982382 
L 258.898298 55.697042 
L 259.255418 54.164513 
L 259.612538 55.5015 
L 259.969658 52.82932 
L 260.326777 52.060002 
L 261.398138 48.922566 
L 261.755258 48.327678 
L 262.112378 47.04144 
L 263.183738 44.584772 
L 263.540858 44.914725 
L 263.897978 44.300501 
L 264.255098 44.390271 
L 264.612218 43.720155 
L 264.969337 44.214283 
L 265.326458 43.673132 
L 265.683578 44.885249 
L 266.040698 44.899987 
L 266.397818 43.847646 
L 266.754938 44.988108 
L 267.112057 45.545942 
L 267.469178 45.460076 
L 267.826298 46.276156 
L 268.183418 47.623524 
L 268.540538 48.163099 
L 268.897658 49.636223 
L 269.254778 50.621597 
L 269.611897 50.644562 
L 269.969018 51.607116 
L 270.683258 55.251341 
L 271.040378 57.103406 
L 271.397498 57.7164 
L 272.111738 60.711306 
L 272.825978 64.775035 
L 273.183098 65.905538 
L 273.897337 69.629442 
L 274.254458 73.442011 
L 274.968698 75.91391 
L 275.325818 77.924003 
L 276.754298 88.207111 
L 277.111418 90.298785 
L 277.468538 93.753364 
L 277.825658 94.950564 
L 278.897018 103.58363 
L 279.254138 106.213441 
L 279.968378 112.69886 
L 280.325498 114.555369 
L 282.825338 137.163971 
L 283.182457 138.370359 
L 283.896698 145.727441 
L 284.610938 151.277514 
L 284.968058 154.401267 
L 285.325177 158.678381 
L 285.682298 160.317485 
L 288.539258 185.624181 
L 288.896378 188.035021 
L 289.610618 194.658226 
L 292.110457 214.809778 
L 292.467578 215.937388 
L 292.824698 218.411769 
L 293.181818 222.240987 
L 294.253177 228.525655 
L 294.610298 231.574419 
L 295.681658 237.118462 
L 296.038778 239.736847 
L 296.395898 240.77677 
L 296.753017 242.632724 
L 297.110138 245.28454 
L 297.467258 246.107831 
L 298.181498 249.149022 
L 298.538618 252.343464 
L 298.895737 252.343464 
L 299.609978 255.762948 
L 300.324218 258.551217 
L 300.681338 258.980245 
L 301.395578 260.894631 
L 301.752698 261.475615 
L 302.109818 260.925015 
L 302.466938 263.117854 
L 302.824058 262.296824 
L 303.181177 264.010491 
L 303.538297 263.766974 
L 303.895418 264.450566 
L 304.252538 264.655509 
L 304.609658 264.354457 
L 304.966778 264.391029 
L 305.323898 265.099409 
L 305.681018 265.354424 
L 306.395258 262.660124 
L 306.752378 263.185954 
L 307.109498 262.643667 
L 307.466618 262.495548 
L 308.180858 260.536344 
L 308.537978 260.615523 
L 308.895098 259.089964 
L 309.252218 258.122471 
L 309.609338 256.024549 
L 309.966458 256.015838 
L 310.323578 254.409942 
L 310.680698 254.023027 
L 311.037818 251.35611 
L 311.394938 250.229101 
L 311.752058 248.583857 
L 312.109178 247.646518 
L 313.537658 239.172988 
L 313.894778 238.407545 
L 314.251898 235.317593 
L 314.609018 233.767637 
L 314.966138 231.271821 
L 315.323258 230.265128 
L 316.037498 224.791004 
L 317.823098 212.829733 
L 318.180218 209.432223 
L 318.537338 208.534521 
L 318.894458 203.919219 
L 319.965818 197.276168 
L 320.322938 192.462532 
L 320.680058 190.737877 
L 321.394297 185.199726 
L 321.751418 181.547583 
L 322.108538 179.3421 
L 322.465657 175.722026 
L 322.822778 174.782824 
L 323.179898 170.119453 
L 324.965498 156.088193 
L 325.322618 153.627383 
L 325.679737 149.098733 
L 329.965177 115.046909 
L 331.750778 102.63599 
L 332.107898 99.179142 
L 332.465018 97.917681 
L 332.822138 94.54438 
L 333.179258 93.212575 
L 333.536378 90.005203 
L 333.893498 88.723728 
L 334.607737 83.775254 
L 334.964857 81.666187 
L 335.321978 80.340464 
L 336.036218 76.187861 
L 336.393338 73.408874 
L 337.821818 68.169405 
L 338.536058 64.76726 
L 338.893178 63.908378 
L 339.964538 60.53049 
L 340.321658 58.406555 
L 340.678778 58.524329 
L 341.035898 56.971741 
L 341.393018 56.322798 
L 341.750138 56.083117 
L 342.107258 55.095876 
L 342.821498 54.675251 
L 343.178618 53.692875 
L 343.535737 53.713664 
L 343.892857 52.383569 
L 344.249977 53.672086 
L 344.607098 52.678635 
L 344.964218 53.333974 
L 345.321338 52.818702 
L 345.678458 52.977973 
L 346.035578 52.481232 
L 346.392697 53.70327 
L 346.749818 54.034013 
L 347.106938 54.956231 
L 347.821178 54.926307 
L 348.178297 56.678875 
L 348.535417 56.640894 
L 349.249658 60.086636 
L 349.606778 59.272137 
L 349.963898 60.99223 
L 351.035258 64.595232 
L 352.106618 69.049635 
L 352.463737 69.501565 
L 353.177977 74.757576 
L 353.535098 75.085668 
L 353.892218 76.316902 
L 354.606458 81.754357 
L 356.392058 91.223934 
L 356.749178 93.08849 
L 358.534778 105.315465 
L 358.891898 107.149858 
L 359.606138 112.824543 
L 360.320378 117.830745 
L 360.677498 119.781647 
L 362.463098 134.297567 
L 362.820218 136.282998 
L 363.891578 144.234036 
L 364.248698 146.350705 
L 366.034297 159.82373 
L 367.462778 170.197631 
L 368.891258 182.284176 
L 369.248378 183.207503 
L 370.319738 191.638752 
L 371.391098 198.545327 
L 371.748218 201.812036 
L 372.105338 202.687619 
L 372.462458 206.154025 
L 372.819578 207.763302 
L 373.890938 214.028288 
L 375.676537 224.707216 
L 376.033658 225.279307 
L 376.390778 227.995173 
L 376.747898 228.575973 
L 377.105018 230.232857 
L 377.462138 233.507583 
L 378.176378 234.674262 
L 378.890618 239.203372 
L 379.247738 239.713882 
L 379.604857 240.541652 
L 380.676218 244.598898 
L 381.033338 244.123663 
L 381.390458 245.992179 
L 381.747578 246.926475 
L 382.104698 247.251161 
L 382.818938 248.892458 
L 383.176058 249.178066 
L 383.533178 249.875041 
L 383.890298 251.050744 
L 384.247417 250.209152 
L 384.604537 251.54317 
L 384.961658 251.782245 
L 385.318778 251.060924 
L 385.675898 250.771762 
L 386.033018 250.836958 
L 386.390138 251.881282 
L 386.747258 251.35611 
L 387.104377 250.189203 
L 387.461498 250.189203 
L 387.818618 250.46947 
L 388.532858 248.555372 
L 388.889977 248.526886 
L 389.247097 247.591145 
L 389.961338 246.654689 
L 390.318458 245.819683 
L 390.675578 244.452873 
L 391.389818 242.831559 
L 392.461178 239.112219 
L 392.818298 238.738347 
L 393.175417 237.060374 
L 393.532537 235.993882 
L 393.889657 234.403047 
L 394.246778 231.212571 
L 394.603898 230.796658 
L 396.746618 220.68857 
L 397.103738 218.79809 
L 397.460858 215.684448 
L 397.817977 214.570866 
L 398.532218 211.333311 
L 398.889338 207.952824 
L 399.603578 204.354884 
L 399.960698 201.342021 
L 400.317818 200.299496 
L 401.032058 195.343482 
L 401.389178 193.618494 
L 401.746298 189.753791 
L 402.103417 188.206189 
L 403.174778 181.27091 
L 403.531898 178.160989 
L 403.889018 176.680244 
L 404.246138 173.179345 
L 404.603258 170.977772 
L 404.960378 167.780847 
L 406.031738 161.279828 
L 411.031418 126.177005 
L 411.745657 121.896122 
L 412.459898 116.605286 
L 413.888378 108.564813 
L 415.316858 99.795617 
L 415.673977 98.245196 
L 416.031097 95.317061 
L 416.388218 94.467631 
L 417.459578 87.939776 
L 417.816698 87.32267 
L 418.173818 86.400523 
L 418.530938 84.116039 
L 418.530938 84.116039 
" style="fill:none;stroke:#1f77b4;stroke-linecap:square;stroke-width:1.5;"/>
   </g>
   <g id="line2d_22">
    <path clip-path="url(#p304c686b55)" d="M 61.410938 278.50696 
L 62.125178 278.50696 
L 62.482298 277.205277 
L 62.839418 277.410055 
L 63.196538 275.860026 
L 63.553658 274.875823 
L 63.910778 272.476444 
L 64.267898 271.406279 
L 64.982138 266.906321 
L 65.339258 265.060953 
L 65.696378 260.888768 
L 66.053498 258.728621 
L 66.767738 253.458521 
L 67.124858 248.398986 
L 67.839098 241.542528 
L 70.696058 205.49316 
L 71.410298 195.891338 
L 72.481658 179.686844 
L 73.553018 165.245682 
L 74.981498 144.446017 
L 78.909818 94.386716 
L 79.624058 87.971037 
L 79.981178 83.068152 
L 80.338298 80.885473 
L 80.695418 76.834569 
L 81.052538 74.267597 
L 81.409658 70.536017 
L 81.766778 68.902021 
L 82.838138 61.364842 
L 83.195258 60.547141 
L 83.552378 58.808961 
L 83.909498 58.049635 
L 84.266618 56.437367 
L 84.623738 55.953117 
L 84.980858 54.333276 
L 85.337978 54.169922 
L 85.695098 53.190534 
L 86.052218 53.821347 
L 86.409338 53.803119 
L 86.766458 54.052499 
L 87.123578 54.458612 
L 87.480698 55.179274 
L 87.837818 56.462917 
L 88.194938 57.315373 
L 89.266298 61.009609 
L 89.980538 64.647002 
L 90.694778 69.254989 
L 91.051898 70.81712 
L 91.766138 76.239238 
L 92.123258 79.379587 
L 92.480378 80.937205 
L 92.837498 85.128443 
L 93.194618 87.698932 
L 93.551738 91.429307 
L 93.908858 92.981705 
L 96.765818 120.191808 
L 97.480058 125.567071 
L 97.837178 130.401094 
L 98.194298 131.471321 
L 98.551418 135.947166 
L 101.408378 158.64246 
L 101.765498 159.874766 
L 102.122618 164.649603 
L 102.479738 165.312846 
L 102.836858 166.78655 
L 103.551098 171.046307 
L 104.622458 176.040274 
L 104.979578 176.930877 
L 105.336698 179.897058 
L 105.693818 179.770053 
L 106.050938 181.159559 
L 106.765178 182.145935 
L 107.122298 184.198238 
L 107.479418 184.068995 
L 107.836538 184.389873 
L 108.193658 183.855334 
L 108.550778 183.828337 
L 108.907898 185.327537 
L 109.265018 183.793215 
L 109.622138 183.043347 
L 109.979258 183.921927 
L 110.336378 182.053163 
L 110.693498 181.911796 
L 111.407738 180.763694 
L 111.764858 179.142547 
L 112.121978 178.277282 
L 112.479098 177.851778 
L 112.836218 176.502869 
L 113.193338 174.657459 
L 113.550458 174.238005 
L 114.978938 167.549508 
L 115.336058 166.370677 
L 116.407418 161.519228 
L 116.764538 159.067106 
L 117.121658 158.546707 
L 118.550138 150.747242 
L 119.264378 149.586934 
L 119.621498 147.20025 
L 119.978618 146.245439 
L 120.335738 143.824097 
L 120.692858 143.766051 
L 121.407098 140.524237 
L 121.764218 140.378525 
L 122.121338 137.913913 
L 122.478458 137.634979 
L 123.192698 135.14871 
L 123.549818 134.93969 
L 123.906938 134.914608 
L 124.264058 133.460368 
L 124.621178 132.986023 
L 124.978298 132.099391 
L 125.335418 131.901275 
L 125.692538 132.729961 
L 126.049658 132.474547 
L 126.406778 131.424954 
L 126.763898 130.737871 
L 127.478138 133.007012 
L 127.835258 132.792927 
L 128.192378 132.078315 
L 128.549498 133.078374 
L 128.906618 134.803646 
L 129.263738 133.989284 
L 129.620858 135.888641 
L 130.692218 137.272352 
L 131.406458 141.017165 
L 131.763578 140.772543 
L 132.477818 145.184029 
L 132.834938 146.667582 
L 133.192058 146.195685 
L 133.906298 149.966821 
L 134.263418 150.681174 
L 134.620538 152.068589 
L 135.691898 157.891925 
L 136.049018 158.339708 
L 136.406138 161.498412 
L 137.477498 165.929914 
L 137.834618 167.279733 
L 138.191738 169.377366 
L 138.905978 171.403362 
L 139.263098 173.36781 
L 139.977338 176.126741 
L 140.691578 178.863469 
L 141.048698 179.229758 
L 141.405818 181.339897 
L 142.477178 183.518115 
L 142.834298 184.76423 
L 143.191418 186.651221 
L 143.548538 187.322824 
L 143.905658 187.232498 
L 144.262778 187.517026 
L 144.619898 188.939375 
L 145.334138 190.033279 
L 145.691258 189.726578 
L 146.048378 189.804398 
L 146.405498 188.875577 
L 146.762618 189.575517 
L 147.119738 188.893805 
L 147.476858 190.005814 
L 147.833978 188.349767 
L 148.191098 187.453798 
L 148.548218 187.782696 
L 148.905338 186.44889 
L 149.262458 185.945311 
L 149.619578 186.975068 
L 150.333818 184.051169 
L 151.048058 183.127652 
L 151.405178 181.106777 
L 151.762298 180.702115 
L 152.476538 178.107949 
L 152.833658 175.888666 
L 153.190778 175.16544 
L 153.905018 171.879882 
L 154.262138 171.45862 
L 156.404858 161.273599 
L 156.761978 159.895582 
L 157.476218 155.284008 
L 158.190458 153.438979 
L 158.904698 149.595192 
L 161.047418 140.917658 
L 161.404538 138.413497 
L 161.761658 138.492598 
L 162.475898 135.395354 
L 162.833018 135.45806 
L 163.190138 134.291522 
L 163.547258 132.335444 
L 163.904378 131.960288 
L 164.261498 130.236012 
L 164.618618 130.113259 
L 164.975738 128.501497 
L 165.332858 128.603513 
L 165.689978 127.426081 
L 166.047098 128.169946 
L 166.404218 126.329755 
L 166.761338 127.042609 
L 167.118458 125.545638 
L 167.475578 124.881203 
L 167.832698 125.369884 
L 168.189818 124.966936 
L 168.546938 124.915496 
L 169.618298 126.141937 
L 169.975418 125.545638 
L 170.332538 125.725678 
L 170.689658 127.604609 
L 171.046778 126.453544 
L 171.403898 127.74488 
L 171.761018 126.850523 
L 172.118138 129.452931 
L 172.475258 129.114301 
L 172.832378 129.355575 
L 173.189498 129.042343 
L 173.903738 131.424954 
L 174.260858 131.580917 
L 174.617978 132.251139 
L 174.975098 134.241149 
L 175.332218 135.520766 
L 175.689338 135.683801 
L 176.046458 136.331763 
L 176.403578 136.377747 
L 177.117818 137.984688 
L 177.474938 138.917243 
L 177.832058 140.90522 
L 178.189178 140.511747 
L 178.903418 142.476604 
L 179.260538 143.338999 
L 179.617658 144.586985 
L 179.974778 144.951845 
L 180.331898 146.203977 
L 180.689018 145.980086 
L 181.046138 147.82789 
L 181.403258 148.344042 
L 181.760378 148.513339 
L 182.117498 149.826428 
L 182.474618 149.723198 
L 182.831738 150.33845 
L 183.188858 150.136119 
L 183.903098 151.189067 
L 184.260218 151.407915 
L 184.617338 152.250274 
L 184.974457 152.609752 
L 185.331578 151.626764 
L 185.688698 151.32946 
L 186.402938 152.788036 
L 186.760058 151.80019 
L 187.117178 152.151173 
L 187.474298 151.395528 
L 187.831418 151.791932 
L 188.188538 150.524264 
L 188.545658 150.871118 
L 188.902778 150.776146 
L 189.259898 150.18154 
L 189.617018 150.842214 
L 189.974138 149.021232 
L 190.331258 148.806513 
L 190.688378 147.220896 
L 191.402618 146.307631 
L 191.759738 146.187393 
L 192.116858 144.993306 
L 192.831098 143.538014 
L 193.188218 141.755177 
L 193.902458 141.042042 
L 194.616698 138.83398 
L 195.330938 137.572532 
L 195.688058 137.335058 
L 196.045178 135.713064 
L 196.402298 135.320106 
L 196.759418 133.527532 
L 197.116538 133.317645 
L 197.473658 132.128898 
L 197.830778 131.424954 
L 198.545018 130.413793 
L 198.902138 129.965108 
L 199.259258 128.77779 
L 199.616378 128.161445 
L 199.973498 127.110907 
L 200.330618 127.766134 
L 200.687738 127.19201 
L 201.044858 126.927357 
L 201.401978 126.957237 
L 201.759098 125.622798 
L 202.116218 125.434184 
L 202.473338 125.048383 
L 202.830458 125.279864 
L 203.187578 126.449275 
L 203.544698 125.395604 
L 204.258938 124.735456 
L 204.616058 125.537064 
L 204.973178 125.824272 
L 205.330298 126.457812 
L 206.044538 127.320067 
L 206.401658 127.19201 
L 207.830138 131.066659 
L 208.187258 131.382801 
L 208.901498 133.01121 
L 209.258618 134.868624 
L 209.615738 135.069283 
L 209.972858 135.621095 
L 210.687098 139.308584 
L 211.044218 139.604171 
L 211.758458 142.53465 
L 212.115578 142.795856 
L 212.472698 146.150077 
L 212.829818 146.692358 
L 213.186938 148.789996 
L 214.615418 154.081629 
L 214.972538 156.627355 
L 215.686778 159.154533 
L 216.758138 165.039993 
L 217.472378 167.410405 
L 217.829498 169.233448 
L 218.186618 170.302442 
L 221.043578 181.621402 
L 221.400698 182.287302 
L 221.757818 184.349763 
L 222.114938 184.830662 
L 222.829178 186.957003 
L 223.186298 187.345406 
L 223.543418 189.076085 
L 223.900538 189.41786 
L 224.257658 190.364592 
L 224.614778 190.921002 
L 224.971898 192.252177 
L 225.329018 192.933959 
L 225.686138 192.567739 
L 226.043258 194.076362 
L 226.400378 194.188768 
L 226.757498 193.748511 
L 227.114618 194.193451 
L 227.471738 193.428131 
L 227.828858 194.37772 
L 228.185978 193.460765 
L 228.543098 193.832815 
L 228.900218 193.636105 
L 229.257338 193.059833 
L 229.614458 193.931171 
L 229.971578 192.544536 
L 230.328698 192.340349 
L 231.042938 190.617505 
L 231.757178 190.097366 
L 232.114298 189.413303 
L 232.471418 188.059427 
L 232.828538 187.651135 
L 233.185658 186.44889 
L 233.542778 185.645358 
L 233.899898 185.372301 
L 234.257018 183.584672 
L 234.614138 182.96348 
L 234.971258 181.251927 
L 235.328378 181.128769 
L 235.685498 179.818228 
L 236.399738 176.053244 
L 237.113978 174.700509 
L 237.828218 172.716526 
L 238.185338 171.122819 
L 238.542458 170.459716 
L 238.899578 167.562153 
L 239.256698 166.127208 
L 239.613818 166.508345 
L 239.970938 163.642301 
L 239.970938 163.642301 
" style="fill:none;stroke:#d62728;stroke-linecap:square;stroke-width:1.5;"/>
   </g>
   <g id="line2d_23">
    <path clip-path="url(#p304c686b55)" d="M 61.410938 23.543308 
L 418.530938 23.543308 
" style="fill:none;stroke:#99aaaa;stroke-dasharray:9.6,2.4,1.5,2.4;stroke-dashoffset:0;stroke-width:1.5;"/>
   </g>
   <g id="line2d_24">
    <defs>
     <path d="M -3 3 
L 3 3 
L 3 -3 
L -3 -3 
z
" id="m9e0ac68bfd" style="stroke:#1f77b4;stroke-linejoin:miter;"/>
    </defs>
    <g clip-path="url(#p304c686b55)">
     <use style="fill:#1f77b4;stroke:#1f77b4;stroke-linejoin:miter;" x="61.410938" xlink:href="#m9e0ac68bfd" y="278.419468"/>
     <use style="fill:#1f77b4;stroke:#1f77b4;stroke-linejoin:miter;" x="72.688411" xlink:href="#m9e0ac68bfd" y="226.422028"/>
     <use style="fill:#1f77b4;stroke:#1f77b4;stroke-linejoin:miter;" x="83.965885" xlink:href="#m9e0ac68bfd" y="134.820435"/>
     <use style="fill:#1f77b4;stroke:#1f77b4;stroke-linejoin:miter;" x="95.243359" xlink:href="#m9e0ac68bfd" y="42.004828"/>
     <use style="fill:#1f77b4;stroke:#1f77b4;stroke-linejoin:miter;" x="106.520832" xlink:href="#m9e0ac68bfd" y="43.40435"/>
     <use style="fill:#1f77b4;stroke:#1f77b4;stroke-linejoin:miter;" x="117.798306" xlink:href="#m9e0ac68bfd" y="113.773842"/>
     <use style="fill:#1f77b4;stroke:#1f77b4;stroke-linejoin:miter;" x="129.07578" xlink:href="#m9e0ac68bfd" y="180.611275"/>
     <use style="fill:#1f77b4;stroke:#1f77b4;stroke-linejoin:miter;" x="140.353253" xlink:href="#m9e0ac68bfd" y="220.204828"/>
     <use style="fill:#1f77b4;stroke:#1f77b4;stroke-linejoin:miter;" x="151.630727" xlink:href="#m9e0ac68bfd" y="190.120475"/>
     <use style="fill:#1f77b4;stroke:#1f77b4;stroke-linejoin:miter;" x="162.908201" xlink:href="#m9e0ac68bfd" y="111.983083"/>
     <use style="fill:#1f77b4;stroke:#1f77b4;stroke-linejoin:miter;" x="174.185674" xlink:href="#m9e0ac68bfd" y="54.752124"/>
     <use style="fill:#1f77b4;stroke:#1f77b4;stroke-linejoin:miter;" x="185.463148" xlink:href="#m9e0ac68bfd" y="40.939555"/>
     <use style="fill:#1f77b4;stroke:#1f77b4;stroke-linejoin:miter;" x="196.740622" xlink:href="#m9e0ac68bfd" y="86.463444"/>
     <use style="fill:#1f77b4;stroke:#1f77b4;stroke-linejoin:miter;" x="208.018095" xlink:href="#m9e0ac68bfd" y="141.26563"/>
     <use style="fill:#1f77b4;stroke:#1f77b4;stroke-linejoin:miter;" x="219.295569" xlink:href="#m9e0ac68bfd" y="240.202828"/>
     <use style="fill:#1f77b4;stroke:#1f77b4;stroke-linejoin:miter;" x="230.573043" xlink:href="#m9e0ac68bfd" y="243.327628"/>
     <use style="fill:#1f77b4;stroke:#1f77b4;stroke-linejoin:miter;" x="241.850516" xlink:href="#m9e0ac68bfd" y="172.682234"/>
     <use style="fill:#1f77b4;stroke:#1f77b4;stroke-linejoin:miter;" x="253.12799" xlink:href="#m9e0ac68bfd" y="71.965744"/>
     <use style="fill:#1f77b4;stroke:#1f77b4;stroke-linejoin:miter;" x="264.405464" xlink:href="#m9e0ac68bfd" y="40.5962"/>
     <use style="fill:#1f77b4;stroke:#1f77b4;stroke-linejoin:miter;" x="275.682938" xlink:href="#m9e0ac68bfd" y="82.396828"/>
     <use style="fill:#1f77b4;stroke:#1f77b4;stroke-linejoin:miter;" x="286.960411" xlink:href="#m9e0ac68bfd" y="170.830515"/>
     <use style="fill:#1f77b4;stroke:#1f77b4;stroke-linejoin:miter;" x="298.237885" xlink:href="#m9e0ac68bfd" y="246.057707"/>
     <use style="fill:#1f77b4;stroke:#1f77b4;stroke-linejoin:miter;" x="309.515359" xlink:href="#m9e0ac68bfd" y="227.790156"/>
     <use style="fill:#1f77b4;stroke:#1f77b4;stroke-linejoin:miter;" x="320.792832" xlink:href="#m9e0ac68bfd" y="160.947053"/>
     <use style="fill:#1f77b4;stroke:#1f77b4;stroke-linejoin:miter;" x="332.070306" xlink:href="#m9e0ac68bfd" y="73.778224"/>
     <use style="fill:#1f77b4;stroke:#1f77b4;stroke-linejoin:miter;" x="343.34778" xlink:href="#m9e0ac68bfd" y="36.342028"/>
     <use style="fill:#1f77b4;stroke:#1f77b4;stroke-linejoin:miter;" x="354.625253" xlink:href="#m9e0ac68bfd" y="62.368367"/>
     <use style="fill:#1f77b4;stroke:#1f77b4;stroke-linejoin:miter;" x="365.902727" xlink:href="#m9e0ac68bfd" y="134.231833"/>
     <use style="fill:#1f77b4;stroke:#1f77b4;stroke-linejoin:miter;" x="377.180201" xlink:href="#m9e0ac68bfd" y="208.249228"/>
     <use style="fill:#1f77b4;stroke:#1f77b4;stroke-linejoin:miter;" x="388.457674" xlink:href="#m9e0ac68bfd" y="225.183628"/>
     <use style="fill:#1f77b4;stroke:#1f77b4;stroke-linejoin:miter;" x="399.735148" xlink:href="#m9e0ac68bfd" y="176.872405"/>
    </g>
   </g>
   <g id="line2d_25">
    <defs>
     <path d="M 0 3 
C 0.795609 3 1.55874 2.683901 2.12132 2.12132 
C 2.683901 1.55874 3 0.795609 3 0 
C 3 -0.795609 2.683901 -1.55874 2.12132 -2.12132 
C 1.55874 -2.683901 0.795609 -3 0 -3 
C -0.795609 -3 -1.55874 -2.683901 -2.12132 -2.12132 
C -2.683901 -1.55874 -3 -0.795609 -3 0 
C -3 0.795609 -2.683901 1.55874 -2.12132 2.12132 
C -1.55874 2.683901 -0.795609 3 0 3 
z
" id="m4d17eb6f4c" style="stroke:#d62728;"/>
    </defs>
    <g clip-path="url(#p304c686b55)">
     <use style="fill:#d62728;stroke:#d62728;" x="61.410938" xlink:href="#m4d17eb6f4c" y="271.284996"/>
     <use style="fill:#d62728;stroke:#d62728;" x="72.688411" xlink:href="#m4d17eb6f4c" y="195.850828"/>
     <use style="fill:#d62728;stroke:#d62728;" x="83.965885" xlink:href="#m4d17eb6f4c" y="74.379876"/>
     <use style="fill:#d62728;stroke:#d62728;" x="95.243359" xlink:href="#m4d17eb6f4c" y="106.200292"/>
     <use style="fill:#d62728;stroke:#d62728;" x="106.520832" xlink:href="#m4d17eb6f4c" y="186.703228"/>
     <use style="fill:#d62728;stroke:#d62728;" x="117.798306" xlink:href="#m4d17eb6f4c" y="149.260567"/>
     <use style="fill:#d62728;stroke:#d62728;" x="129.07578" xlink:href="#m4d17eb6f4c" y="129.628939"/>
     <use style="fill:#d62728;stroke:#d62728;" x="140.353253" xlink:href="#m4d17eb6f4c" y="176.029129"/>
     <use style="fill:#d62728;stroke:#d62728;" x="151.630727" xlink:href="#m4d17eb6f4c" y="146.766145"/>
     <use style="fill:#d62728;stroke:#d62728;" x="162.908201" xlink:href="#m4d17eb6f4c" y="142.47624"/>
     <use style="fill:#d62728;stroke:#d62728;" x="174.185674" xlink:href="#m4d17eb6f4c" y="115.880527"/>
     <use style="fill:#d62728;stroke:#d62728;" x="185.463148" xlink:href="#m4d17eb6f4c" y="131.083863"/>
     <use style="fill:#d62728;stroke:#d62728;" x="196.740622" xlink:href="#m4d17eb6f4c" y="125.946407"/>
     <use style="fill:#d62728;stroke:#d62728;" x="208.018095" xlink:href="#m4d17eb6f4c" y="141.690213"/>
     <use style="fill:#d62728;stroke:#d62728;" x="219.295569" xlink:href="#m4d17eb6f4c" y="171.707602"/>
     <use style="fill:#d62728;stroke:#d62728;" x="230.573043" xlink:href="#m4d17eb6f4c" y="206.206602"/>
    </g>
   </g>
   <g id="patch_3">
    <path d="M 61.410938 279.010828 
L 61.410938 12.898828 
" style="fill:none;stroke:#000000;stroke-linecap:square;stroke-linejoin:miter;stroke-width:0.8;"/>
   </g>
   <g id="patch_4">
    <path d="M 418.530938 279.010828 
L 418.530938 12.898828 
" style="fill:none;stroke:#000000;stroke-linecap:square;stroke-linejoin:miter;stroke-width:0.8;"/>
   </g>
   <g id="patch_5">
    <path d="M 61.410938 279.010828 
L 418.530938 279.010828 
" style="fill:none;stroke:#000000;stroke-linecap:square;stroke-linejoin:miter;stroke-width:0.8;"/>
   </g>
   <g id="patch_6">
    <path d="M 61.410938 12.898828 
L 418.530938 12.898828 
" style="fill:none;stroke:#000000;stroke-linecap:square;stroke-linejoin:miter;stroke-width:0.8;"/>
   </g>
   <g id="text_13">
    <!-- (D) -->
    <defs>
     <path d="M 19.671875 64.796875 
L 19.671875 8.109375 
L 31.59375 8.109375 
Q 46.6875 8.109375 53.6875 14.9375 
Q 60.6875 21.78125 60.6875 36.53125 
Q 60.6875 51.171875 53.6875 57.984375 
Q 46.6875 64.796875 31.59375 64.796875 
z
M 9.8125 72.90625 
L 30.078125 72.90625 
Q 51.265625 72.90625 61.171875 64.09375 
Q 71.09375 55.28125 71.09375 36.53125 
Q 71.09375 17.671875 61.125 8.828125 
Q 51.171875 0 30.078125 0 
L 9.8125 0 
z
" id="DejaVuSans-44"/>
    </defs>
    <g transform="translate(380.939359 39.510028)scale(0.2 -0.2)">
     <use xlink:href="#DejaVuSans-28"/>
     <use x="39.013672" xlink:href="#DejaVuSans-44"/>
     <use x="116.015625" xlink:href="#DejaVuSans-29"/>
    </g>
   </g>
  </g>
 </g>
 <defs>
  <clipPath id="p304c686b55">
   <rect height="266.112" width="357.12" x="61.410938" y="12.898828"/>
  </clipPath>
 </defs>
</svg>
