<?xml version="1.0" encoding="utf-8" standalone="no"?>
<!DOCTYPE svg PUBLIC "-//W3C//DTD SVG 1.1//EN"
  "http://www.w3.org/Graphics/SVG/1.1/DTD/svg11.dtd">
<!-- Created with matplotlib (http://matplotlib.org/) -->
<svg height="349pt" version="1.1" viewBox="0 0 429 349" width="429pt" xmlns="http://www.w3.org/2000/svg" xmlns:xlink="http://www.w3.org/1999/xlink">
 <defs>
  <style type="text/css">
*{stroke-linecap:butt;stroke-linejoin:round;}
  </style>
 </defs>
 <g id="figure_1">
  <g id="patch_1">
   <path d="M 0 349.665437 
L 429.230937 349.665437 
L 429.230937 0 
L 0 0 
z
" style="fill:none;"/>
  </g>
  <g id="axes_1">
   <g id="patch_2">
    <path d="M 61.410938 297.54825 
L 418.530938 297.54825 
L 418.530938 31.43625 
L 61.410938 31.43625 
z
" style="fill:none;"/>
   </g>
   <g id="matplotlib.axis_1">
    <g id="xtick_1">
     <g id="line2d_1">
      <path clip-path="url(#pcd39df9889)" d="M 77.643665 297.54825 
L 77.643665 31.43625 
" style="fill:none;stroke:#b0b0b0;stroke-linecap:square;stroke-width:0.8;"/>
     </g>
     <g id="line2d_2">
      <defs>
       <path d="M 0 0 
L 0 3.5 
" id="m005f0a59be" style="stroke:#000000;stroke-width:0.8;"/>
      </defs>
      <g>
       <use style="stroke:#000000;stroke-width:0.8;" x="77.643665" xlink:href="#m005f0a59be" y="297.54825"/>
      </g>
     </g>
     <g id="text_1">
      <!-- 0 -->
      <defs>
       <path d="M 31.78125 66.40625 
Q 24.171875 66.40625 20.328125 58.90625 
Q 16.5 51.421875 16.5 36.375 
Q 16.5 21.390625 20.328125 13.890625 
Q 24.171875 6.390625 31.78125 6.390625 
Q 39.453125 6.390625 43.28125 13.890625 
Q 47.125 21.390625 47.125 36.375 
Q 47.125 51.421875 43.28125 58.90625 
Q 39.453125 66.40625 31.78125 66.40625 
z
M 31.78125 74.21875 
Q 44.046875 74.21875 50.515625 64.515625 
Q 56.984375 54.828125 56.984375 36.375 
Q 56.984375 17.96875 50.515625 8.265625 
Q 44.046875 -1.421875 31.78125 -1.421875 
Q 19.53125 -1.421875 13.0625 8.265625 
Q 6.59375 17.96875 6.59375 36.375 
Q 6.59375 54.828125 13.0625 64.515625 
Q 19.53125 74.21875 31.78125 74.21875 
z
" id="DejaVuSans-30"/>
      </defs>
      <g transform="translate(72.87179 315.945906)scale(0.15 -0.15)">
       <use xlink:href="#DejaVuSans-30"/>
      </g>
     </g>
    </g>
    <g id="xtick_2">
     <g id="line2d_3">
      <path clip-path="url(#pcd39df9889)" d="M 135.617691 297.54825 
L 135.617691 31.43625 
" style="fill:none;stroke:#b0b0b0;stroke-linecap:square;stroke-width:0.8;"/>
     </g>
     <g id="line2d_4">
      <g>
       <use style="stroke:#000000;stroke-width:0.8;" x="135.617691" xlink:href="#m005f0a59be" y="297.54825"/>
      </g>
     </g>
     <g id="text_2">
      <!-- 50 -->
      <defs>
       <path d="M 10.796875 72.90625 
L 49.515625 72.90625 
L 49.515625 64.59375 
L 19.828125 64.59375 
L 19.828125 46.734375 
Q 21.96875 47.46875 24.109375 47.828125 
Q 26.265625 48.1875 28.421875 48.1875 
Q 40.625 48.1875 47.75 41.5 
Q 54.890625 34.8125 54.890625 23.390625 
Q 54.890625 11.625 47.5625 5.09375 
Q 40.234375 -1.421875 26.90625 -1.421875 
Q 22.3125 -1.421875 17.546875 -0.640625 
Q 12.796875 0.140625 7.71875 1.703125 
L 7.71875 11.625 
Q 12.109375 9.234375 16.796875 8.0625 
Q 21.484375 6.890625 26.703125 6.890625 
Q 35.15625 6.890625 40.078125 11.328125 
Q 45.015625 15.765625 45.015625 23.390625 
Q 45.015625 31 40.078125 35.4375 
Q 35.15625 39.890625 26.703125 39.890625 
Q 22.75 39.890625 18.8125 39.015625 
Q 14.890625 38.140625 10.796875 36.28125 
z
" id="DejaVuSans-35"/>
      </defs>
      <g transform="translate(126.073941 315.945906)scale(0.15 -0.15)">
       <use xlink:href="#DejaVuSans-35"/>
       <use x="63.623047" xlink:href="#DejaVuSans-30"/>
      </g>
     </g>
    </g>
    <g id="xtick_3">
     <g id="line2d_5">
      <path clip-path="url(#pcd39df9889)" d="M 193.591717 297.54825 
L 193.591717 31.43625 
" style="fill:none;stroke:#b0b0b0;stroke-linecap:square;stroke-width:0.8;"/>
     </g>
     <g id="line2d_6">
      <g>
       <use style="stroke:#000000;stroke-width:0.8;" x="193.591717" xlink:href="#m005f0a59be" y="297.54825"/>
      </g>
     </g>
     <g id="text_3">
      <!-- 100 -->
      <defs>
       <path d="M 12.40625 8.296875 
L 28.515625 8.296875 
L 28.515625 63.921875 
L 10.984375 60.40625 
L 10.984375 69.390625 
L 28.421875 72.90625 
L 38.28125 72.90625 
L 38.28125 8.296875 
L 54.390625 8.296875 
L 54.390625 0 
L 12.40625 0 
z
" id="DejaVuSans-31"/>
      </defs>
      <g transform="translate(179.276092 315.945906)scale(0.15 -0.15)">
       <use xlink:href="#DejaVuSans-31"/>
       <use x="63.623047" xlink:href="#DejaVuSans-30"/>
       <use x="127.246094" xlink:href="#DejaVuSans-30"/>
      </g>
     </g>
    </g>
    <g id="xtick_4">
     <g id="line2d_7">
      <path clip-path="url(#pcd39df9889)" d="M 251.565743 297.54825 
L 251.565743 31.43625 
" style="fill:none;stroke:#b0b0b0;stroke-linecap:square;stroke-width:0.8;"/>
     </g>
     <g id="line2d_8">
      <g>
       <use style="stroke:#000000;stroke-width:0.8;" x="251.565743" xlink:href="#m005f0a59be" y="297.54825"/>
      </g>
     </g>
     <g id="text_4">
      <!-- 150 -->
      <g transform="translate(237.250118 315.945906)scale(0.15 -0.15)">
       <use xlink:href="#DejaVuSans-31"/>
       <use x="63.623047" xlink:href="#DejaVuSans-35"/>
       <use x="127.246094" xlink:href="#DejaVuSans-30"/>
      </g>
     </g>
    </g>
    <g id="xtick_5">
     <g id="line2d_9">
      <path clip-path="url(#pcd39df9889)" d="M 309.539769 297.54825 
L 309.539769 31.43625 
" style="fill:none;stroke:#b0b0b0;stroke-linecap:square;stroke-width:0.8;"/>
     </g>
     <g id="line2d_10">
      <g>
       <use style="stroke:#000000;stroke-width:0.8;" x="309.539769" xlink:href="#m005f0a59be" y="297.54825"/>
      </g>
     </g>
     <g id="text_5">
      <!-- 200 -->
      <defs>
       <path d="M 19.1875 8.296875 
L 53.609375 8.296875 
L 53.609375 0 
L 7.328125 0 
L 7.328125 8.296875 
Q 12.9375 14.109375 22.625 23.890625 
Q 32.328125 33.6875 34.8125 36.53125 
Q 39.546875 41.84375 41.421875 45.53125 
Q 43.3125 49.21875 43.3125 52.78125 
Q 43.3125 58.59375 39.234375 62.25 
Q 35.15625 65.921875 28.609375 65.921875 
Q 23.96875 65.921875 18.8125 64.3125 
Q 13.671875 62.703125 7.8125 59.421875 
L 7.8125 69.390625 
Q 13.765625 71.78125 18.9375 73 
Q 24.125 74.21875 28.421875 74.21875 
Q 39.75 74.21875 46.484375 68.546875 
Q 53.21875 62.890625 53.21875 53.421875 
Q 53.21875 48.921875 51.53125 44.890625 
Q 49.859375 40.875 45.40625 35.40625 
Q 44.1875 33.984375 37.640625 27.21875 
Q 31.109375 20.453125 19.1875 8.296875 
z
" id="DejaVuSans-32"/>
      </defs>
      <g transform="translate(295.224144 315.945906)scale(0.15 -0.15)">
       <use xlink:href="#DejaVuSans-32"/>
       <use x="63.623047" xlink:href="#DejaVuSans-30"/>
       <use x="127.246094" xlink:href="#DejaVuSans-30"/>
      </g>
     </g>
    </g>
    <g id="xtick_6">
     <g id="line2d_11">
      <path clip-path="url(#pcd39df9889)" d="M 367.513795 297.54825 
L 367.513795 31.43625 
" style="fill:none;stroke:#b0b0b0;stroke-linecap:square;stroke-width:0.8;"/>
     </g>
     <g id="line2d_12">
      <g>
       <use style="stroke:#000000;stroke-width:0.8;" x="367.513795" xlink:href="#m005f0a59be" y="297.54825"/>
      </g>
     </g>
     <g id="text_6">
      <!-- 250 -->
      <g transform="translate(353.19817 315.945906)scale(0.15 -0.15)">
       <use xlink:href="#DejaVuSans-32"/>
       <use x="63.623047" xlink:href="#DejaVuSans-35"/>
       <use x="127.246094" xlink:href="#DejaVuSans-30"/>
      </g>
     </g>
    </g>
    <g id="text_7">
     <!-- Time ($\mu s$) -->
     <defs>
      <path d="M -0.296875 72.90625 
L 61.375 72.90625 
L 61.375 64.59375 
L 35.5 64.59375 
L 35.5 0 
L 25.59375 0 
L 25.59375 64.59375 
L -0.296875 64.59375 
z
" id="DejaVuSans-54"/>
      <path d="M 9.421875 54.6875 
L 18.40625 54.6875 
L 18.40625 0 
L 9.421875 0 
z
M 9.421875 75.984375 
L 18.40625 75.984375 
L 18.40625 64.59375 
L 9.421875 64.59375 
z
" id="DejaVuSans-69"/>
      <path d="M 52 44.1875 
Q 55.375 50.25 60.0625 53.125 
Q 64.75 56 71.09375 56 
Q 79.640625 56 84.28125 50.015625 
Q 88.921875 44.046875 88.921875 33.015625 
L 88.921875 0 
L 79.890625 0 
L 79.890625 32.71875 
Q 79.890625 40.578125 77.09375 44.375 
Q 74.3125 48.1875 68.609375 48.1875 
Q 61.625 48.1875 57.5625 43.546875 
Q 53.515625 38.921875 53.515625 30.90625 
L 53.515625 0 
L 44.484375 0 
L 44.484375 32.71875 
Q 44.484375 40.625 41.703125 44.40625 
Q 38.921875 48.1875 33.109375 48.1875 
Q 26.21875 48.1875 22.15625 43.53125 
Q 18.109375 38.875 18.109375 30.90625 
L 18.109375 0 
L 9.078125 0 
L 9.078125 54.6875 
L 18.109375 54.6875 
L 18.109375 46.1875 
Q 21.1875 51.21875 25.484375 53.609375 
Q 29.78125 56 35.6875 56 
Q 41.65625 56 45.828125 52.96875 
Q 50 49.953125 52 44.1875 
z
" id="DejaVuSans-6d"/>
      <path d="M 56.203125 29.59375 
L 56.203125 25.203125 
L 14.890625 25.203125 
Q 15.484375 15.921875 20.484375 11.0625 
Q 25.484375 6.203125 34.421875 6.203125 
Q 39.59375 6.203125 44.453125 7.46875 
Q 49.3125 8.734375 54.109375 11.28125 
L 54.109375 2.78125 
Q 49.265625 0.734375 44.1875 -0.34375 
Q 39.109375 -1.421875 33.890625 -1.421875 
Q 20.796875 -1.421875 13.15625 6.1875 
Q 5.515625 13.8125 5.515625 26.8125 
Q 5.515625 40.234375 12.765625 48.109375 
Q 20.015625 56 32.328125 56 
Q 43.359375 56 49.78125 48.890625 
Q 56.203125 41.796875 56.203125 29.59375 
z
M 47.21875 32.234375 
Q 47.125 39.59375 43.09375 43.984375 
Q 39.0625 48.390625 32.421875 48.390625 
Q 24.90625 48.390625 20.390625 44.140625 
Q 15.875 39.890625 15.1875 32.171875 
z
" id="DejaVuSans-65"/>
      <path id="DejaVuSans-20"/>
      <path d="M 31 75.875 
Q 24.46875 64.65625 21.28125 53.65625 
Q 18.109375 42.671875 18.109375 31.390625 
Q 18.109375 20.125 21.3125 9.0625 
Q 24.515625 -2 31 -13.1875 
L 23.1875 -13.1875 
Q 15.875 -1.703125 12.234375 9.375 
Q 8.59375 20.453125 8.59375 31.390625 
Q 8.59375 42.28125 12.203125 53.3125 
Q 15.828125 64.359375 23.1875 75.875 
z
" id="DejaVuSans-28"/>
      <path d="M -1.3125 -20.796875 
L 13.375 54.6875 
L 22.40625 54.6875 
L 15.765625 20.65625 
Q 15.578125 19.625 15.421875 18.359375 
Q 15.28125 17.09375 15.28125 15.828125 
Q 15.28125 11.28125 18.140625 8.828125 
Q 21 6.390625 26.3125 6.390625 
Q 33.546875 6.390625 37.984375 10.484375 
Q 42.4375 14.59375 44 22.796875 
L 50.203125 54.6875 
L 59.1875 54.6875 
L 51.03125 12.640625 
Q 50.828125 11.71875 50.75 11.03125 
Q 50.6875 10.359375 50.6875 9.8125 
Q 50.6875 8.296875 51.296875 7.59375 
Q 51.90625 6.890625 53.21875 6.890625 
Q 53.71875 6.890625 54.5625 7.125 
Q 55.421875 7.375 56.984375 8.015625 
L 55.609375 0.78125 
Q 53.46875 -0.296875 51.515625 -0.859375 
Q 49.5625 -1.421875 47.703125 -1.421875 
Q 44.484375 -1.421875 42.65625 0.625 
Q 40.828125 2.6875 40.828125 6.296875 
Q 38.09375 2.390625 34.296875 0.484375 
Q 30.515625 -1.421875 25.390625 -1.421875 
Q 20.84375 -1.421875 17.453125 0.671875 
Q 14.0625 2.78125 12.984375 6.203125 
L 7.71875 -20.796875 
z
" id="DejaVuSans-Oblique-3bc"/>
      <path d="M 50 53.078125 
L 48.296875 44.578125 
Q 44.734375 46.53125 40.765625 47.5 
Q 36.8125 48.484375 32.625 48.484375 
Q 25.53125 48.484375 21.453125 46.0625 
Q 17.390625 43.65625 17.390625 39.5 
Q 17.390625 34.671875 26.859375 32.078125 
Q 27.59375 31.890625 27.9375 31.78125 
L 30.8125 30.90625 
Q 39.796875 28.421875 42.796875 25.6875 
Q 45.796875 22.953125 45.796875 18.21875 
Q 45.796875 9.515625 38.890625 4.046875 
Q 31.984375 -1.421875 20.796875 -1.421875 
Q 16.453125 -1.421875 11.671875 -0.578125 
Q 6.890625 0.25 1.125 2 
L 2.875 11.28125 
Q 7.8125 8.734375 12.59375 7.421875 
Q 17.390625 6.109375 21.78125 6.109375 
Q 28.375 6.109375 32.5 8.9375 
Q 36.625 11.765625 36.625 16.109375 
Q 36.625 20.796875 25.78125 23.6875 
L 24.859375 23.921875 
L 21.78125 24.703125 
Q 14.9375 26.515625 11.765625 29.46875 
Q 8.59375 32.421875 8.59375 37.015625 
Q 8.59375 45.75 15.15625 50.875 
Q 21.734375 56 33.015625 56 
Q 37.453125 56 41.671875 55.265625 
Q 45.90625 54.546875 50 53.078125 
z
" id="DejaVuSans-Oblique-73"/>
      <path d="M 8.015625 75.875 
L 15.828125 75.875 
Q 23.140625 64.359375 26.78125 53.3125 
Q 30.421875 42.28125 30.421875 31.390625 
Q 30.421875 20.453125 26.78125 9.375 
Q 23.140625 -1.703125 15.828125 -13.1875 
L 8.015625 -13.1875 
Q 14.5 -2 17.703125 9.0625 
Q 20.90625 20.125 20.90625 31.390625 
Q 20.90625 42.671875 17.703125 53.65625 
Q 14.5 64.65625 8.015625 75.875 
z
" id="DejaVuSans-29"/>
     </defs>
     <g transform="translate(192.570938 338.265437)scale(0.2 -0.2)">
      <use transform="translate(0 0.015625)" xlink:href="#DejaVuSans-54"/>
      <use transform="translate(61.083984 0.015625)" xlink:href="#DejaVuSans-69"/>
      <use transform="translate(88.867188 0.015625)" xlink:href="#DejaVuSans-6d"/>
      <use transform="translate(186.279297 0.015625)" xlink:href="#DejaVuSans-65"/>
      <use transform="translate(247.802734 0.015625)" xlink:href="#DejaVuSans-20"/>
      <use transform="translate(279.589844 0.015625)" xlink:href="#DejaVuSans-28"/>
      <use transform="translate(318.603516 0.015625)" xlink:href="#DejaVuSans-Oblique-3bc"/>
      <use transform="translate(382.226562 0.015625)" xlink:href="#DejaVuSans-Oblique-73"/>
      <use transform="translate(434.326172 0.015625)" xlink:href="#DejaVuSans-29"/>
     </g>
    </g>
   </g>
   <g id="matplotlib.axis_2">
    <g id="ytick_1">
     <g id="line2d_13">
      <path clip-path="url(#pcd39df9889)" d="M 61.410938 297.54825 
L 418.530938 297.54825 
" style="fill:none;stroke:#b0b0b0;stroke-linecap:square;stroke-width:0.8;"/>
     </g>
     <g id="line2d_14">
      <defs>
       <path d="M 0 0 
L -3.5 0 
" id="mc3ce260a5b" style="stroke:#000000;stroke-width:0.8;"/>
      </defs>
      <g>
       <use style="stroke:#000000;stroke-width:0.8;" x="61.410938" xlink:href="#mc3ce260a5b" y="297.54825"/>
      </g>
     </g>
     <g id="text_8">
      <!-- 0.0 -->
      <defs>
       <path d="M 10.6875 12.40625 
L 21 12.40625 
L 21 0 
L 10.6875 0 
z
" id="DejaVuSans-2e"/>
      </defs>
      <g transform="translate(30.55625 303.247078)scale(0.15 -0.15)">
       <use xlink:href="#DejaVuSans-30"/>
       <use x="63.623047" xlink:href="#DejaVuSans-2e"/>
       <use x="95.410156" xlink:href="#DejaVuSans-30"/>
      </g>
     </g>
    </g>
    <g id="ytick_2">
     <g id="line2d_15">
      <path clip-path="url(#pcd39df9889)" d="M 61.410938 244.32585 
L 418.530938 244.32585 
" style="fill:none;stroke:#b0b0b0;stroke-linecap:square;stroke-width:0.8;"/>
     </g>
     <g id="line2d_16">
      <g>
       <use style="stroke:#000000;stroke-width:0.8;" x="61.410938" xlink:href="#mc3ce260a5b" y="244.32585"/>
      </g>
     </g>
     <g id="text_9">
      <!-- 0.2 -->
      <g transform="translate(30.55625 250.024678)scale(0.15 -0.15)">
       <use xlink:href="#DejaVuSans-30"/>
       <use x="63.623047" xlink:href="#DejaVuSans-2e"/>
       <use x="95.410156" xlink:href="#DejaVuSans-32"/>
      </g>
     </g>
    </g>
    <g id="ytick_3">
     <g id="line2d_17">
      <path clip-path="url(#pcd39df9889)" d="M 61.410938 191.10345 
L 418.530938 191.10345 
" style="fill:none;stroke:#b0b0b0;stroke-linecap:square;stroke-width:0.8;"/>
     </g>
     <g id="line2d_18">
      <g>
       <use style="stroke:#000000;stroke-width:0.8;" x="61.410938" xlink:href="#mc3ce260a5b" y="191.10345"/>
      </g>
     </g>
     <g id="text_10">
      <!-- 0.4 -->
      <defs>
       <path d="M 37.796875 64.3125 
L 12.890625 25.390625 
L 37.796875 25.390625 
z
M 35.203125 72.90625 
L 47.609375 72.90625 
L 47.609375 25.390625 
L 58.015625 25.390625 
L 58.015625 17.1875 
L 47.609375 17.1875 
L 47.609375 0 
L 37.796875 0 
L 37.796875 17.1875 
L 4.890625 17.1875 
L 4.890625 26.703125 
z
" id="DejaVuSans-34"/>
      </defs>
      <g transform="translate(30.55625 196.802278)scale(0.15 -0.15)">
       <use xlink:href="#DejaVuSans-30"/>
       <use x="63.623047" xlink:href="#DejaVuSans-2e"/>
       <use x="95.410156" xlink:href="#DejaVuSans-34"/>
      </g>
     </g>
    </g>
    <g id="ytick_4">
     <g id="line2d_19">
      <path clip-path="url(#pcd39df9889)" d="M 61.410938 137.88105 
L 418.530938 137.88105 
" style="fill:none;stroke:#b0b0b0;stroke-linecap:square;stroke-width:0.8;"/>
     </g>
     <g id="line2d_20">
      <g>
       <use style="stroke:#000000;stroke-width:0.8;" x="61.410938" xlink:href="#mc3ce260a5b" y="137.88105"/>
      </g>
     </g>
     <g id="text_11">
      <!-- 0.6 -->
      <defs>
       <path d="M 33.015625 40.375 
Q 26.375 40.375 22.484375 35.828125 
Q 18.609375 31.296875 18.609375 23.390625 
Q 18.609375 15.53125 22.484375 10.953125 
Q 26.375 6.390625 33.015625 6.390625 
Q 39.65625 6.390625 43.53125 10.953125 
Q 47.40625 15.53125 47.40625 23.390625 
Q 47.40625 31.296875 43.53125 35.828125 
Q 39.65625 40.375 33.015625 40.375 
z
M 52.59375 71.296875 
L 52.59375 62.3125 
Q 48.875 64.0625 45.09375 64.984375 
Q 41.3125 65.921875 37.59375 65.921875 
Q 27.828125 65.921875 22.671875 59.328125 
Q 17.53125 52.734375 16.796875 39.40625 
Q 19.671875 43.65625 24.015625 45.921875 
Q 28.375 48.1875 33.59375 48.1875 
Q 44.578125 48.1875 50.953125 41.515625 
Q 57.328125 34.859375 57.328125 23.390625 
Q 57.328125 12.15625 50.6875 5.359375 
Q 44.046875 -1.421875 33.015625 -1.421875 
Q 20.359375 -1.421875 13.671875 8.265625 
Q 6.984375 17.96875 6.984375 36.375 
Q 6.984375 53.65625 15.1875 63.9375 
Q 23.390625 74.21875 37.203125 74.21875 
Q 40.921875 74.21875 44.703125 73.484375 
Q 48.484375 72.75 52.59375 71.296875 
z
" id="DejaVuSans-36"/>
      </defs>
      <g transform="translate(30.55625 143.579878)scale(0.15 -0.15)">
       <use xlink:href="#DejaVuSans-30"/>
       <use x="63.623047" xlink:href="#DejaVuSans-2e"/>
       <use x="95.410156" xlink:href="#DejaVuSans-36"/>
      </g>
     </g>
    </g>
    <g id="ytick_5">
     <g id="line2d_21">
      <path clip-path="url(#pcd39df9889)" d="M 61.410938 84.65865 
L 418.530938 84.65865 
" style="fill:none;stroke:#b0b0b0;stroke-linecap:square;stroke-width:0.8;"/>
     </g>
     <g id="line2d_22">
      <g>
       <use style="stroke:#000000;stroke-width:0.8;" x="61.410938" xlink:href="#mc3ce260a5b" y="84.65865"/>
      </g>
     </g>
     <g id="text_12">
      <!-- 0.8 -->
      <defs>
       <path d="M 31.78125 34.625 
Q 24.75 34.625 20.71875 30.859375 
Q 16.703125 27.09375 16.703125 20.515625 
Q 16.703125 13.921875 20.71875 10.15625 
Q 24.75 6.390625 31.78125 6.390625 
Q 38.8125 6.390625 42.859375 10.171875 
Q 46.921875 13.96875 46.921875 20.515625 
Q 46.921875 27.09375 42.890625 30.859375 
Q 38.875 34.625 31.78125 34.625 
z
M 21.921875 38.8125 
Q 15.578125 40.375 12.03125 44.71875 
Q 8.5 49.078125 8.5 55.328125 
Q 8.5 64.0625 14.71875 69.140625 
Q 20.953125 74.21875 31.78125 74.21875 
Q 42.671875 74.21875 48.875 69.140625 
Q 55.078125 64.0625 55.078125 55.328125 
Q 55.078125 49.078125 51.53125 44.71875 
Q 48 40.375 41.703125 38.8125 
Q 48.828125 37.15625 52.796875 32.3125 
Q 56.78125 27.484375 56.78125 20.515625 
Q 56.78125 9.90625 50.3125 4.234375 
Q 43.84375 -1.421875 31.78125 -1.421875 
Q 19.734375 -1.421875 13.25 4.234375 
Q 6.78125 9.90625 6.78125 20.515625 
Q 6.78125 27.484375 10.78125 32.3125 
Q 14.796875 37.15625 21.921875 38.8125 
z
M 18.3125 54.390625 
Q 18.3125 48.734375 21.84375 45.5625 
Q 25.390625 42.390625 31.78125 42.390625 
Q 38.140625 42.390625 41.71875 45.5625 
Q 45.3125 48.734375 45.3125 54.390625 
Q 45.3125 60.0625 41.71875 63.234375 
Q 38.140625 66.40625 31.78125 66.40625 
Q 25.390625 66.40625 21.84375 63.234375 
Q 18.3125 60.0625 18.3125 54.390625 
z
" id="DejaVuSans-38"/>
      </defs>
      <g transform="translate(30.55625 90.357478)scale(0.15 -0.15)">
       <use xlink:href="#DejaVuSans-30"/>
       <use x="63.623047" xlink:href="#DejaVuSans-2e"/>
       <use x="95.410156" xlink:href="#DejaVuSans-38"/>
      </g>
     </g>
    </g>
    <g id="ytick_6">
     <g id="line2d_23">
      <path clip-path="url(#pcd39df9889)" d="M 61.410938 31.43625 
L 418.530938 31.43625 
" style="fill:none;stroke:#b0b0b0;stroke-linecap:square;stroke-width:0.8;"/>
     </g>
     <g id="line2d_24">
      <g>
       <use style="stroke:#000000;stroke-width:0.8;" x="61.410938" xlink:href="#mc3ce260a5b" y="31.43625"/>
      </g>
     </g>
     <g id="text_13">
      <!-- 1.0 -->
      <g transform="translate(30.55625 37.135078)scale(0.15 -0.15)">
       <use xlink:href="#DejaVuSans-31"/>
       <use x="63.623047" xlink:href="#DejaVuSans-2e"/>
       <use x="95.410156" xlink:href="#DejaVuSans-30"/>
      </g>
     </g>
    </g>
    <g id="text_14">
     <!-- Survival -->
     <defs>
      <path d="M 53.515625 70.515625 
L 53.515625 60.890625 
Q 47.90625 63.578125 42.921875 64.890625 
Q 37.9375 66.21875 33.296875 66.21875 
Q 25.25 66.21875 20.875 63.09375 
Q 16.5 59.96875 16.5 54.203125 
Q 16.5 49.359375 19.40625 46.890625 
Q 22.3125 44.4375 30.421875 42.921875 
L 36.375 41.703125 
Q 47.40625 39.59375 52.65625 34.296875 
Q 57.90625 29 57.90625 20.125 
Q 57.90625 9.515625 50.796875 4.046875 
Q 43.703125 -1.421875 29.984375 -1.421875 
Q 24.8125 -1.421875 18.96875 -0.25 
Q 13.140625 0.921875 6.890625 3.21875 
L 6.890625 13.375 
Q 12.890625 10.015625 18.65625 8.296875 
Q 24.421875 6.59375 29.984375 6.59375 
Q 38.421875 6.59375 43.015625 9.90625 
Q 47.609375 13.234375 47.609375 19.390625 
Q 47.609375 24.75 44.3125 27.78125 
Q 41.015625 30.8125 33.5 32.328125 
L 27.484375 33.5 
Q 16.453125 35.6875 11.515625 40.375 
Q 6.59375 45.0625 6.59375 53.421875 
Q 6.59375 63.09375 13.40625 68.65625 
Q 20.21875 74.21875 32.171875 74.21875 
Q 37.3125 74.21875 42.625 73.28125 
Q 47.953125 72.359375 53.515625 70.515625 
z
" id="DejaVuSans-53"/>
      <path d="M 8.5 21.578125 
L 8.5 54.6875 
L 17.484375 54.6875 
L 17.484375 21.921875 
Q 17.484375 14.15625 20.5 10.265625 
Q 23.53125 6.390625 29.59375 6.390625 
Q 36.859375 6.390625 41.078125 11.03125 
Q 45.3125 15.671875 45.3125 23.6875 
L 45.3125 54.6875 
L 54.296875 54.6875 
L 54.296875 0 
L 45.3125 0 
L 45.3125 8.40625 
Q 42.046875 3.421875 37.71875 1 
Q 33.40625 -1.421875 27.6875 -1.421875 
Q 18.265625 -1.421875 13.375 4.4375 
Q 8.5 10.296875 8.5 21.578125 
z
M 31.109375 56 
z
" id="DejaVuSans-75"/>
      <path d="M 41.109375 46.296875 
Q 39.59375 47.171875 37.8125 47.578125 
Q 36.03125 48 33.890625 48 
Q 26.265625 48 22.1875 43.046875 
Q 18.109375 38.09375 18.109375 28.8125 
L 18.109375 0 
L 9.078125 0 
L 9.078125 54.6875 
L 18.109375 54.6875 
L 18.109375 46.1875 
Q 20.953125 51.171875 25.484375 53.578125 
Q 30.03125 56 36.53125 56 
Q 37.453125 56 38.578125 55.875 
Q 39.703125 55.765625 41.0625 55.515625 
z
" id="DejaVuSans-72"/>
      <path d="M 2.984375 54.6875 
L 12.5 54.6875 
L 29.59375 8.796875 
L 46.6875 54.6875 
L 56.203125 54.6875 
L 35.6875 0 
L 23.484375 0 
z
" id="DejaVuSans-76"/>
      <path d="M 34.28125 27.484375 
Q 23.390625 27.484375 19.1875 25 
Q 14.984375 22.515625 14.984375 16.5 
Q 14.984375 11.71875 18.140625 8.90625 
Q 21.296875 6.109375 26.703125 6.109375 
Q 34.1875 6.109375 38.703125 11.40625 
Q 43.21875 16.703125 43.21875 25.484375 
L 43.21875 27.484375 
z
M 52.203125 31.203125 
L 52.203125 0 
L 43.21875 0 
L 43.21875 8.296875 
Q 40.140625 3.328125 35.546875 0.953125 
Q 30.953125 -1.421875 24.3125 -1.421875 
Q 15.921875 -1.421875 10.953125 3.296875 
Q 6 8.015625 6 15.921875 
Q 6 25.140625 12.171875 29.828125 
Q 18.359375 34.515625 30.609375 34.515625 
L 43.21875 34.515625 
L 43.21875 35.40625 
Q 43.21875 41.609375 39.140625 45 
Q 35.0625 48.390625 27.6875 48.390625 
Q 23 48.390625 18.546875 47.265625 
Q 14.109375 46.140625 10.015625 43.890625 
L 10.015625 52.203125 
Q 14.9375 54.109375 19.578125 55.046875 
Q 24.21875 56 28.609375 56 
Q 40.484375 56 46.34375 49.84375 
Q 52.203125 43.703125 52.203125 31.203125 
z
" id="DejaVuSans-61"/>
      <path d="M 9.421875 75.984375 
L 18.40625 75.984375 
L 18.40625 0 
L 9.421875 0 
z
" id="DejaVuSans-6c"/>
     </defs>
     <g transform="translate(22.396875 204.811)rotate(-90)scale(0.2 -0.2)">
      <use xlink:href="#DejaVuSans-53"/>
      <use x="63.476562" xlink:href="#DejaVuSans-75"/>
      <use x="126.855469" xlink:href="#DejaVuSans-72"/>
      <use x="167.96875" xlink:href="#DejaVuSans-76"/>
      <use x="227.148438" xlink:href="#DejaVuSans-69"/>
      <use x="254.931641" xlink:href="#DejaVuSans-76"/>
      <use x="314.111328" xlink:href="#DejaVuSans-61"/>
      <use x="375.390625" xlink:href="#DejaVuSans-6c"/>
     </g>
    </g>
   </g>
   <g id="LineCollection_1">
    <path clip-path="url(#pcd39df9889)" d="M 77.643665 297.54825 
L 77.643665 296.36553 
" style="fill:none;stroke:#1f77b4;stroke-width:1.5;"/>
    <path clip-path="url(#pcd39df9889)" d="M 88.078989 252.894387 
L 88.078989 238.846113 
" style="fill:none;stroke:#1f77b4;stroke-width:1.5;"/>
    <path clip-path="url(#pcd39df9889)" d="M 98.514314 149.233079 
L 98.514314 131.897947 
" style="fill:none;stroke:#1f77b4;stroke-width:1.5;"/>
    <path clip-path="url(#pcd39df9889)" d="M 108.949639 83.970474 
L 108.949639 70.704856 
" style="fill:none;stroke:#1f77b4;stroke-width:1.5;"/>
    <path clip-path="url(#pcd39df9889)" d="M 119.384963 95.746387 
L 119.384963 80.817155 
" style="fill:none;stroke:#1f77b4;stroke-width:1.5;"/>
    <path clip-path="url(#pcd39df9889)" d="M 129.820288 165.916831 
L 129.820288 147.180386 
" style="fill:none;stroke:#1f77b4;stroke-width:1.5;"/>
    <path clip-path="url(#pcd39df9889)" d="M 140.255613 249.68533 
L 140.255613 235.495344 
" style="fill:none;stroke:#1f77b4;stroke-width:1.5;"/>
    <path clip-path="url(#pcd39df9889)" d="M 150.690938 290.517621 
L 150.690938 283.537465 
" style="fill:none;stroke:#1f77b4;stroke-width:1.5;"/>
    <path clip-path="url(#pcd39df9889)" d="M 161.126262 246.27751 
L 161.126262 231.234618 
" style="fill:none;stroke:#1f77b4;stroke-width:1.5;"/>
    <path clip-path="url(#pcd39df9889)" d="M 171.561587 128.514379 
L 171.561587 112.143585 
" style="fill:none;stroke:#1f77b4;stroke-width:1.5;"/>
    <path clip-path="url(#pcd39df9889)" d="M 181.996912 71.379025 
L 181.996912 59.513134 
" style="fill:none;stroke:#1f77b4;stroke-width:1.5;"/>
    <path clip-path="url(#pcd39df9889)" d="M 192.432236 89.719004 
L 192.432236 75.310235 
" style="fill:none;stroke:#1f77b4;stroke-width:1.5;"/>
    <path clip-path="url(#pcd39df9889)" d="M 202.867561 164.606689 
L 202.867561 147.172294 
" style="fill:none;stroke:#1f77b4;stroke-width:1.5;"/>
    <path clip-path="url(#pcd39df9889)" d="M 213.302886 253.246249 
L 213.302886 238.715936 
" style="fill:none;stroke:#1f77b4;stroke-width:1.5;"/>
    <path clip-path="url(#pcd39df9889)" d="M 223.73821 278.419338 
L 223.73821 267.95243 
" style="fill:none;stroke:#1f77b4;stroke-width:1.5;"/>
    <path clip-path="url(#pcd39df9889)" d="M 234.173535 246.032967 
L 234.173535 230.929701 
" style="fill:none;stroke:#1f77b4;stroke-width:1.5;"/>
    <path clip-path="url(#pcd39df9889)" d="M 244.60886 151.120912 
L 244.60886 133.511588 
" style="fill:none;stroke:#1f77b4;stroke-width:1.5;"/>
    <path clip-path="url(#pcd39df9889)" d="M 255.044184 70.543745 
L 255.044184 58.544417 
" style="fill:none;stroke:#1f77b4;stroke-width:1.5;"/>
    <path clip-path="url(#pcd39df9889)" d="M 265.479509 96.266173 
L 265.479509 81.518327 
" style="fill:none;stroke:#1f77b4;stroke-width:1.5;"/>
    <path clip-path="url(#pcd39df9889)" d="M 275.914834 176.172937 
L 275.914834 157.85634 
" style="fill:none;stroke:#1f77b4;stroke-width:1.5;"/>
    <path clip-path="url(#pcd39df9889)" d="M 286.350158 249.095723 
L 286.350158 234.405422 
" style="fill:none;stroke:#1f77b4;stroke-width:1.5;"/>
    <path clip-path="url(#pcd39df9889)" d="M 296.785483 272.027226 
L 296.785483 261.157502 
" style="fill:none;stroke:#1f77b4;stroke-width:1.5;"/>
    <path clip-path="url(#pcd39df9889)" d="M 307.220808 234.995774 
L 307.220808 219.357046 
" style="fill:none;stroke:#1f77b4;stroke-width:1.5;"/>
    <path clip-path="url(#pcd39df9889)" d="M 317.656132 149.901553 
L 317.656132 131.745716 
" style="fill:none;stroke:#1f77b4;stroke-width:1.5;"/>
    <path clip-path="url(#pcd39df9889)" d="M 328.091457 68.012818 
L 328.091457 56.366701 
" style="fill:none;stroke:#1f77b4;stroke-width:1.5;"/>
    <path clip-path="url(#pcd39df9889)" d="M 338.526782 90.455081 
L 338.526782 76.882873 
" style="fill:none;stroke:#1f77b4;stroke-width:1.5;"/>
    <path clip-path="url(#pcd39df9889)" d="M 348.962106 167.352236 
L 348.962106 149.138743 
" style="fill:none;stroke:#1f77b4;stroke-width:1.5;"/>
    <path clip-path="url(#pcd39df9889)" d="M 359.397431 238.484239 
L 359.397431 223.556261 
" style="fill:none;stroke:#1f77b4;stroke-width:1.5;"/>
    <path clip-path="url(#pcd39df9889)" d="M 369.832756 271.834904 
L 369.832756 260.137354 
" style="fill:none;stroke:#1f77b4;stroke-width:1.5;"/>
    <path clip-path="url(#pcd39df9889)" d="M 380.26808 226.557949 
L 380.26808 211.043694 
" style="fill:none;stroke:#1f77b4;stroke-width:1.5;"/>
    <path clip-path="url(#pcd39df9889)" d="M 390.703405 150.267612 
L 390.703405 132.272812 
" style="fill:none;stroke:#1f77b4;stroke-width:1.5;"/>
   </g>
   <g id="LineCollection_2">
    <path clip-path="url(#pcd39df9889)" d="M 77.643665 293.318268 
L 77.643665 286.326567 
" style="fill:none;stroke:#d62728;stroke-width:1.5;"/>
    <path clip-path="url(#pcd39df9889)" d="M 88.078989 198.710011 
L 88.078989 178.934969 
" style="fill:none;stroke:#d62728;stroke-width:1.5;"/>
    <path clip-path="url(#pcd39df9889)" d="M 98.514314 119.031529 
L 98.514314 99.221803 
" style="fill:none;stroke:#d62728;stroke-width:1.5;"/>
    <path clip-path="url(#pcd39df9889)" d="M 108.949639 127.731698 
L 108.949639 109.079931 
" style="fill:none;stroke:#d62728;stroke-width:1.5;"/>
    <path clip-path="url(#pcd39df9889)" d="M 119.384963 195.074901 
L 119.384963 174.849907 
" style="fill:none;stroke:#d62728;stroke-width:1.5;"/>
    <path clip-path="url(#pcd39df9889)" d="M 129.820288 195.600939 
L 129.820288 173.759175 
" style="fill:none;stroke:#d62728;stroke-width:1.5;"/>
    <path clip-path="url(#pcd39df9889)" d="M 140.255613 155.891461 
L 140.255613 135.743987 
" style="fill:none;stroke:#d62728;stroke-width:1.5;"/>
    <path clip-path="url(#pcd39df9889)" d="M 150.690938 197.791083 
L 150.690938 175.855571 
" style="fill:none;stroke:#d62728;stroke-width:1.5;"/>
    <path clip-path="url(#pcd39df9889)" d="M 161.126262 224.087066 
L 161.126262 203.790407 
" style="fill:none;stroke:#d62728;stroke-width:1.5;"/>
    <path clip-path="url(#pcd39df9889)" d="M 171.561587 171.575188 
L 171.561587 151.110803 
" style="fill:none;stroke:#d62728;stroke-width:1.5;"/>
    <path clip-path="url(#pcd39df9889)" d="M 181.996912 165.838605 
L 181.996912 144.850695 
" style="fill:none;stroke:#d62728;stroke-width:1.5;"/>
    <path clip-path="url(#pcd39df9889)" d="M 192.432236 154.447612 
L 192.432236 133.332449 
" style="fill:none;stroke:#d62728;stroke-width:1.5;"/>
    <path clip-path="url(#pcd39df9889)" d="M 202.867561 188.618253 
L 202.867561 167.951028 
" style="fill:none;stroke:#d62728;stroke-width:1.5;"/>
    <path clip-path="url(#pcd39df9889)" d="M 213.302886 173.369777 
L 213.302886 152.267403 
" style="fill:none;stroke:#d62728;stroke-width:1.5;"/>
    <path clip-path="url(#pcd39df9889)" d="M 223.73821 175.997959 
L 223.73821 154.692388 
" style="fill:none;stroke:#d62728;stroke-width:1.5;"/>
    <path clip-path="url(#pcd39df9889)" d="M 234.173535 199.038512 
L 234.173535 178.017833 
" style="fill:none;stroke:#d62728;stroke-width:1.5;"/>
   </g>
   <g id="line2d_25">
    <path clip-path="url(#pcd39df9889)" d="M 77.643665 297.056409 
L 79.591592 297.056409 
L 79.916247 294.548595 
L 80.240901 294.026994 
L 80.565556 293.105408 
L 80.89021 292.858524 
L 81.539519 288.73415 
L 81.864174 289.232453 
L 82.188828 286.970421 
L 82.513483 286.896364 
L 83.162792 281.861538 
L 83.487447 280.418956 
L 83.812101 280.339322 
L 84.136756 277.196855 
L 84.46141 275.665539 
L 86.733992 259.235819 
L 87.707956 251.092143 
L 89.006574 239.864964 
L 89.655883 232.835029 
L 90.305192 227.684768 
L 90.954501 220.53945 
L 91.279156 218.156922 
L 91.60381 213.453136 
L 92.253119 208.048745 
L 93.227083 196.589154 
L 95.499665 173.164406 
L 96.473628 162.468787 
L 96.798283 158.107482 
L 97.122938 155.775149 
L 97.772247 148.84902 
L 98.74621 138.358049 
L 99.395519 130.73804 
L 99.720174 128.115341 
L 100.044828 123.978734 
L 100.369483 122.040342 
L 101.343447 112.70739 
L 104.265338 86.917396 
L 104.589992 85.507615 
L 105.239301 80.863516 
L 105.563956 79.076499 
L 106.213265 73.663221 
L 106.862574 69.616147 
L 107.187228 68.399694 
L 108.161192 62.147858 
L 108.485847 62.614978 
L 108.810501 60.834095 
L 109.45981 58.398254 
L 109.784465 55.968025 
L 110.109119 55.059187 
L 110.433774 54.96688 
L 110.758428 54.037655 
L 111.083083 52.756218 
L 111.407738 52.752535 
L 111.732392 51.988567 
L 112.057047 51.63524 
L 112.381701 51.988567 
L 112.706356 51.63524 
L 113.03101 50.933447 
L 113.355665 51.882776 
L 113.680319 50.773315 
L 114.004974 51.357234 
L 114.329628 51.520571 
L 114.654283 51.238749 
L 114.978938 52.453722 
L 115.303592 53.181073 
L 115.628247 53.434034 
L 115.952901 53.434034 
L 116.277556 55.808301 
L 116.60221 56.395883 
L 116.926865 57.991767 
L 117.251519 58.689593 
L 117.576174 57.931311 
L 118.225483 62.721321 
L 118.550138 63.363717 
L 118.874792 64.55385 
L 119.199447 66.960064 
L 119.524101 67.941561 
L 119.848756 70.531592 
L 120.17341 71.808365 
L 120.498065 73.553501 
L 120.822719 76.198449 
L 121.147374 77.324529 
L 121.796683 81.772861 
L 124.718574 105.34848 
L 125.367883 111.271081 
L 125.692538 114.360968 
L 126.017192 115.378564 
L 126.666501 122.410657 
L 129.588392 150.706108 
L 129.913047 155.402272 
L 130.237701 157.075086 
L 130.562356 161.416256 
L 130.88701 163.888476 
L 131.536319 171.157142 
L 133.159592 188.22484 
L 133.484247 190.345693 
L 134.133556 197.748698 
L 134.45821 199.384401 
L 135.107519 206.651444 
L 135.756828 212.624887 
L 138.354065 236.139243 
L 138.678719 238.194265 
L 139.003374 242.280666 
L 139.328028 242.738928 
L 139.977338 248.71219 
L 140.301992 250.264274 
L 141.925265 261.778613 
L 144.847156 276.725724 
L 145.821119 279.735312 
L 146.145774 281.221693 
L 146.470428 281.322113 
L 146.795083 282.440191 
L 147.119738 282.26913 
L 148.418356 285.622178 
L 148.74301 286.157503 
L 149.716974 285.940144 
L 150.041628 285.894217 
L 150.366283 285.087172 
L 150.690938 285.622178 
L 151.015592 284.01034 
L 151.340247 283.19293 
L 151.664901 284.577753 
L 151.989556 283.118406 
L 152.31421 282.987988 
L 152.638865 281.016512 
L 152.963519 281.049427 
L 153.288174 280.323395 
L 155.236101 272.810157 
L 156.210065 268.333464 
L 156.534719 266.082422 
L 156.859374 264.992502 
L 157.184028 262.568244 
L 157.508683 261.194629 
L 158.482647 254.478451 
L 159.131956 249.76316 
L 159.45661 248.343179 
L 160.430574 239.590974 
L 161.079883 234.990969 
L 161.404538 233.838219 
L 161.729192 229.187832 
L 162.053847 227.307541 
L 162.703156 221.282565 
L 163.02781 220.197534 
L 163.352465 215.818204 
L 165.300392 198.511325 
L 165.625047 194.677883 
L 166.274356 189.150629 
L 166.59901 185.71593 
L 166.923665 183.721508 
L 171.793483 137.030346 
L 172.118138 135.62549 
L 175.040028 110.129879 
L 175.689338 106.531756 
L 176.663301 98.563691 
L 176.987956 96.915842 
L 177.31261 94.216239 
L 177.637265 93.047577 
L 177.961919 90.503888 
L 178.286574 89.064508 
L 178.611228 86.190898 
L 178.935883 85.730359 
L 179.260538 83.140491 
L 179.909847 80.186966 
L 180.234501 77.941812 
L 180.559156 77.618158 
L 180.88381 75.650233 
L 181.208465 75.480949 
L 181.533119 72.448 
L 181.857774 71.986953 
L 182.507083 70.111252 
L 183.805701 66.885066 
L 184.130356 66.561262 
L 184.45501 65.814536 
L 184.779665 66.318818 
L 185.753628 65.066191 
L 186.078283 65.392043 
L 186.402938 64.882153 
L 186.727592 65.120299 
L 187.376901 65.775037 
L 187.701556 65.16088 
L 188.02621 66.700521 
L 188.350865 66.561262 
L 188.675519 67.789084 
L 189.000174 67.98973 
L 189.324828 69.319772 
L 189.974138 70.542564 
L 190.298792 72.063984 
L 190.623447 72.885179 
L 190.948101 73.252979 
L 191.922065 78.1446 
L 192.246719 78.956282 
L 193.220683 84.450556 
L 193.869992 86.757654 
L 194.194647 89.0506 
L 194.519301 92.210941 
L 195.493265 97.752986 
L 196.142574 102.910875 
L 196.467228 103.413633 
L 197.116538 109.171194 
L 197.765847 114.219172 
L 198.73981 122.761954 
L 199.064465 124.395265 
L 200.038428 133.451482 
L 200.363083 135.734589 
L 200.687738 139.03163 
L 201.012392 141.002535 
L 205.232901 179.595538 
L 205.557556 182.292118 
L 205.88221 186.539537 
L 206.206865 188.521092 
L 206.531519 191.861989 
L 207.180828 196.589154 
L 208.154792 207.230782 
L 208.479447 209.06446 
L 208.804101 211.984568 
L 209.128756 213.735281 
L 209.778065 220.297234 
L 210.102719 222.563137 
L 210.752028 228.842836 
L 211.076683 230.753952 
L 211.401338 233.715448 
L 211.725992 235.126615 
L 212.699956 242.834109 
L 213.349265 246.470095 
L 213.673919 249.74341 
L 214.323228 253.142141 
L 214.647883 255.481619 
L 214.972538 256.60429 
L 215.621847 261.645841 
L 215.946501 261.79521 
L 216.59581 266.260698 
L 216.920465 267.763894 
L 217.245119 268.491462 
L 217.569774 268.746574 
L 217.894428 270.85965 
L 219.193047 274.953547 
L 219.842356 277.142747 
L 220.16701 277.944871 
L 220.491665 278.031613 
L 220.816319 279.523204 
L 221.140974 278.721006 
L 221.465628 279.477628 
L 221.790283 279.76617 
L 222.114938 279.874174 
L 222.439592 279.137983 
L 222.764247 279.889603 
L 223.088901 279.719883 
L 223.413556 279.212791 
L 224.062865 279.583971 
L 224.387519 279.088504 
L 224.712174 277.875331 
L 225.036828 278.306914 
L 225.361483 277.007476 
L 225.686138 276.777959 
L 226.335447 274.793082 
L 226.660101 273.199975 
L 226.984756 272.563854 
L 227.634065 269.903818 
L 227.958719 268.986739 
L 228.283374 267.121279 
L 228.608028 266.193169 
L 229.257338 263.127733 
L 230.231301 258.35319 
L 230.555956 255.103906 
L 230.88061 254.545616 
L 231.205265 253.003057 
L 231.854574 247.480087 
L 232.179228 246.363845 
L 234.127156 232.343917 
L 234.45181 228.116505 
L 234.776465 227.207287 
L 235.101119 223.932618 
L 235.750428 220.221272 
L 236.075083 215.605936 
L 236.399738 213.894556 
L 237.049047 207.867996 
L 237.698356 202.909177 
L 238.02301 198.574898 
L 239.321628 188.11786 
L 239.970938 180.422759 
L 240.295592 178.353058 
L 240.620247 174.556813 
L 240.944901 173.394153 
L 241.59421 166.591985 
L 242.243519 161.24964 
L 242.892828 154.283335 
L 243.217483 152.212976 
L 243.866792 145.978289 
L 247.113338 118.58236 
L 247.437992 116.851986 
L 247.762647 113.91026 
L 248.087301 112.24964 
L 248.411956 108.638706 
L 249.385919 102.163402 
L 249.710574 101.044004 
L 250.359883 95.604412 
L 250.684538 94.261125 
L 251.009192 91.097191 
L 251.333847 91.150933 
L 251.658501 88.152655 
L 251.983156 87.287106 
L 253.281774 79.848458 
L 253.931083 78.624058 
L 254.255738 76.711816 
L 254.905047 75.368093 
L 255.229701 73.493653 
L 255.554356 73.739389 
L 255.87901 72.90554 
L 256.203665 70.454788 
L 256.528319 69.827238 
L 256.852974 69.70695 
L 257.177628 70.288777 
L 257.502283 69.044196 
L 257.826938 70.033585 
L 258.151592 69.647696 
L 258.476247 69.513994 
L 258.800901 68.772457 
L 259.125556 68.935101 
L 259.45021 69.502644 
L 259.774865 69.536695 
L 260.099519 69.216431 
L 260.424174 70.432844 
L 261.073483 70.996951 
L 261.398138 71.860891 
L 261.722792 72.178324 
L 262.047447 73.907262 
L 262.372101 74.593975 
L 262.696756 74.898569 
L 263.346065 77.466921 
L 263.670719 78.719342 
L 263.995374 79.110846 
L 264.320028 82.013714 
L 264.644683 81.885259 
L 264.969338 84.450556 
L 265.293992 85.567013 
L 265.943301 89.714444 
L 266.267956 90.183912 
L 267.241919 96.798577 
L 267.566574 99.135235 
L 267.891228 100.174219 
L 268.540538 105.19869 
L 269.189847 109.845848 
L 271.137774 124.960475 
L 274.059665 149.818179 
L 275.033628 159.461557 
L 275.358283 162.090851 
L 275.682938 163.593033 
L 276.332247 170.334889 
L 277.30621 179.63601 
L 277.630865 181.893863 
L 278.604828 192.252013 
L 278.929483 194.225973 
L 282.500683 224.755316 
L 282.825338 228.00003 
L 283.149992 228.217787 
L 284.123956 236.756103 
L 284.773265 240.804625 
L 285.422574 245.841097 
L 286.071883 249.690743 
L 286.721192 253.883229 
L 288.01981 260.162846 
L 288.344465 262.785987 
L 288.669119 262.483843 
L 288.993774 265.06432 
L 289.318428 265.587428 
L 289.967738 269.292938 
L 290.617047 270.679142 
L 290.941701 272.134466 
L 291.266356 272.91231 
L 291.59101 273.250443 
L 291.915665 273.413086 
L 292.240319 275.126355 
L 292.564974 275.576919 
L 292.889628 276.422899 
L 293.214283 276.791303 
L 293.863592 277.975186 
L 294.188247 276.699391 
L 294.512901 277.339373 
L 294.837556 276.594061 
L 295.16221 276.964778 
L 295.486865 277.66671 
L 295.811519 276.436065 
L 296.136174 276.697894 
L 296.460828 276.285071 
L 297.110138 274.744837 
L 297.434792 275.330036 
L 298.084101 272.496526 
L 298.73341 269.455822 
L 299.058065 269.435462 
L 299.707374 267.477816 
L 300.032028 265.201171 
L 300.356683 264.689734 
L 300.681338 263.562096 
L 301.005992 261.186468 
L 301.330647 260.836969 
L 301.655301 258.090549 
L 302.30461 255.010202 
L 302.953919 250.778832 
L 303.278574 250.478579 
L 304.252538 242.697286 
L 306.200465 229.489711 
L 306.849774 224.337714 
L 307.174428 221.059442 
L 307.499083 219.239926 
L 308.473047 210.752592 
L 308.797701 209.06446 
L 309.122356 206.686555 
L 309.771665 200.417012 
L 310.096319 198.23584 
L 310.745628 191.824646 
L 311.394938 186.838658 
L 312.368901 177.86335 
L 312.693556 175.524087 
L 313.01821 171.447349 
L 313.667519 166.130608 
L 314.316828 160.92047 
L 314.641483 158.735897 
L 315.290792 152.225372 
L 316.264756 145.136439 
L 316.58941 142.928701 
L 316.914065 139.079065 
L 317.888028 132.145204 
L 318.212683 128.677689 
L 318.537338 126.739384 
L 318.861992 123.763541 
L 319.511301 120.513782 
L 320.16061 115.645245 
L 320.809919 110.523831 
L 321.134574 109.054392 
L 322.108538 102.493634 
L 322.433192 101.171798 
L 322.757847 98.605841 
L 323.082501 98.00331 
L 324.056465 92.746749 
L 325.030428 89.54871 
L 325.355083 87.443942 
L 325.679738 86.461745 
L 326.004392 84.961564 
L 326.329047 85.50019 
L 326.653701 83.643747 
L 327.627665 80.503189 
L 327.952319 80.789454 
L 328.276974 79.730296 
L 328.601628 79.299805 
L 328.926283 79.637455 
L 329.250938 78.460731 
L 329.575592 79.43601 
L 329.900247 79.359395 
L 330.224901 79.059325 
L 330.549556 78.486947 
L 330.87421 78.762653 
L 331.198865 78.443253 
L 331.523519 79.205302 
L 331.848174 78.338387 
L 332.497483 80.411908 
L 332.822138 80.627662 
L 333.146792 81.736428 
L 333.471447 81.234209 
L 333.796101 82.968071 
L 334.120756 83.211026 
L 334.44541 84.153621 
L 334.770065 84.655652 
L 335.419374 87.443942 
L 335.744028 88.195281 
L 336.717992 91.618024 
L 337.042647 93.681178 
L 337.367301 94.765702 
L 337.691956 97.156074 
L 338.01661 97.906377 
L 338.990574 103.588562 
L 339.315228 106.337385 
L 339.639883 107.405179 
L 340.938501 115.543983 
L 341.263156 117.365489 
L 341.58781 120.839755 
L 341.912465 121.645697 
L 342.886428 128.950732 
L 343.211083 131.787736 
L 343.535738 133.393915 
L 343.860392 136.952041 
L 344.834356 143.295617 
L 345.15901 147.256546 
L 345.808319 151.142831 
L 347.431592 163.864193 
L 347.756247 166.110372 
L 348.405556 172.531594 
L 349.054865 178.259973 
L 349.379519 182.00765 
L 350.028828 185.166046 
L 350.353483 188.809116 
L 351.002792 193.332746 
L 351.652101 198.532516 
L 351.976756 201.078094 
L 352.30141 202.650441 
L 352.626065 206.734833 
L 352.950719 208.49764 
L 353.275374 211.574503 
L 353.600028 212.652066 
L 353.924683 214.654798 
L 354.249338 218.667631 
L 354.573992 219.400573 
L 355.547956 227.04688 
L 355.87261 228.679949 
L 356.197265 231.424629 
L 356.521919 232.980868 
L 356.846574 235.69833 
L 357.820538 240.506991 
L 358.145192 241.951297 
L 358.469847 244.201974 
L 358.794501 245.57793 
L 359.119156 248.118748 
L 359.44381 249.09905 
L 360.093119 253.030874 
L 360.742428 254.485555 
L 361.067083 255.372704 
L 361.716392 258.677212 
L 362.041047 259.466526 
L 362.690356 262.103134 
L 363.01501 262.686405 
L 363.339665 262.990295 
L 363.988974 264.591875 
L 364.313628 264.591875 
L 364.638283 266.251382 
L 364.962938 267.054813 
L 365.287592 266.447017 
L 365.612247 267.111784 
L 365.936901 267.206734 
L 366.261556 266.073193 
L 366.58621 267.554514 
L 366.910865 267.696125 
L 367.235519 268.006751 
L 367.560174 267.88975 
L 367.884828 266.7057 
L 368.209483 266.649272 
L 368.534138 266.959862 
L 368.858792 266.865579 
L 369.183447 265.971676 
L 369.508101 264.28657 
L 369.832756 264.974548 
L 370.15741 264.848867 
L 370.482065 262.871115 
L 370.806719 262.30398 
L 371.131374 260.610332 
L 371.456028 260.553672 
L 372.105338 257.975724 
L 372.754647 256.172896 
L 373.079301 254.631485 
L 373.403956 252.50393 
L 373.72861 251.687057 
L 374.377919 248.402386 
L 374.702574 247.11927 
L 376.001192 239.830715 
L 376.325847 238.949825 
L 376.975156 234.996395 
L 377.624465 230.400508 
L 377.949119 230.131659 
L 378.273774 226.415435 
L 378.923083 222.240065 
L 379.897047 215.785903 
L 380.221701 214.325628 
L 381.520319 204.157272 
L 381.844974 203.387838 
L 382.169628 198.685092 
L 382.494283 197.322466 
L 382.818938 194.380794 
L 383.143592 193.39108 
L 384.117556 184.166295 
L 384.44221 182.308373 
L 384.766865 178.923708 
L 385.091519 177.644803 
L 385.416174 174.155946 
L 385.740828 172.519502 
L 386.714792 164.349854 
L 387.039447 162.803835 
L 387.364101 160.416556 
L 387.688756 157.09957 
L 388.338065 153.563276 
L 388.662719 149.946805 
L 389.312028 145.734563 
L 390.285992 138.080854 
L 390.610647 136.656554 
L 390.935301 133.779176 
L 391.259956 132.552184 
L 392.233919 126.702622 
L 392.558574 123.27449 
L 392.883228 121.916904 
L 393.857192 115.989376 
L 394.181847 114.862285 
L 394.506501 112.465657 
L 394.831156 111.4322 
L 395.15581 109.85641 
L 395.480465 107.437557 
L 395.805119 106.455375 
L 396.129774 105.85397 
L 396.454428 103.712705 
L 396.779083 102.347124 
L 397.103738 101.55789 
L 397.428392 99.76108 
L 398.402356 96.508498 
L 398.72701 95.988755 
L 399.376319 93.126083 
L 399.700974 92.237906 
L 400.025628 92.36894 
L 400.350283 92.217524 
L 400.674938 91.497923 
L 400.999592 89.895892 
L 401.324247 89.854746 
L 401.648901 89.950753 
L 401.973556 89.738166 
L 402.29821 88.923615 
L 402.29821 88.923615 
" style="fill:none;stroke:#1f77b4;stroke-linecap:square;stroke-width:1.5;"/>
   </g>
   <g id="line2d_26">
    <path clip-path="url(#pcd39df9889)" d="M 77.643665 297.053029 
L 78.339353 297.053029 
L 78.687197 295.773685 
L 79.035041 295.622713 
L 79.73073 291.831978 
L 80.078574 291.475339 
L 81.46995 282.42676 
L 81.817795 279.131991 
L 82.165639 277.165968 
L 82.861327 270.419671 
L 83.209171 266.446417 
L 83.557015 264.05801 
L 85.296236 243.719502 
L 85.991925 234.372825 
L 88.426834 200.910186 
L 89.122522 189.796252 
L 89.470366 185.421921 
L 90.166054 174.086566 
L 92.948808 136.09378 
L 94.340184 119.131055 
L 95.731561 103.541791 
L 96.427249 99.113867 
L 97.122938 92.351774 
L 98.862158 82.067359 
L 99.557847 80.008965 
L 100.253535 78.140064 
L 100.601379 77.359106 
L 100.949223 78.005806 
L 101.297067 77.198198 
L 101.644912 77.032486 
L 101.992756 77.049929 
L 102.3406 75.711817 
L 102.688444 78.735481 
L 103.384132 79.992665 
L 104.079821 82.748924 
L 104.427665 82.894459 
L 104.775509 85.747932 
L 105.471197 89.412548 
L 105.819041 90.397784 
L 106.862574 98.503185 
L 107.210418 102.267116 
L 107.558262 104.00542 
L 108.25395 109.698403 
L 110.341015 128.806719 
L 111.036704 136.466093 
L 111.384548 139.180997 
L 112.775925 153.687003 
L 113.471613 159.32285 
L 113.819457 164.037667 
L 114.167301 166.727154 
L 114.515145 170.601128 
L 114.862989 172.2407 
L 115.906522 182.273737 
L 116.254366 183.337879 
L 116.60221 188.041192 
L 117.297899 191.561883 
L 118.689275 201.536198 
L 119.037119 202.315302 
L 119.732808 206.004744 
L 120.080652 207.273945 
L 120.428496 209.027029 
L 120.77634 210.025696 
L 121.472028 212.634256 
L 121.819873 213.090624 
L 122.167717 213.735345 
L 122.515561 214.057569 
L 122.863405 214.608045 
L 123.211249 214.195666 
L 123.559093 213.997728 
L 123.906938 214.264714 
L 124.254782 215.038217 
L 124.602626 213.560423 
L 124.95047 213.574233 
L 125.298314 211.809764 
L 125.646158 212.611451 
L 125.994002 211.287647 
L 126.341847 211.342128 
L 126.689691 208.735907 
L 127.037535 207.894639 
L 127.385379 207.908015 
L 127.733223 205.653077 
L 128.081067 204.919056 
L 128.428912 202.506345 
L 128.776756 201.039051 
L 129.1246 200.686363 
L 129.472444 197.946003 
L 129.820288 196.489286 
L 130.515976 192.532714 
L 130.863821 190.926872 
L 131.211665 188.588054 
L 131.559509 188.219336 
L 132.255197 183.033838 
L 132.603041 181.164603 
L 132.950886 180.149849 
L 133.29873 177.974096 
L 133.646574 176.698628 
L 133.994418 174.147691 
L 134.342262 173.291812 
L 134.690106 170.304869 
L 135.03795 169.298399 
L 135.385795 167.946969 
L 135.733639 165.162361 
L 136.081483 164.49814 
L 136.429327 163.53237 
L 137.125015 159.380134 
L 137.47286 158.537234 
L 138.516392 155.126874 
L 139.21208 154.198591 
L 139.559925 152.644302 
L 139.907769 152.992305 
L 140.255613 151.077006 
L 140.603457 150.948039 
L 140.951301 151.172691 
L 141.299145 151.093647 
L 141.646989 150.752508 
L 141.994834 151.759283 
L 142.342678 150.219999 
L 142.690522 151.426465 
L 143.038366 151.788405 
L 143.38621 151.796726 
L 143.734054 152.561444 
L 144.081899 153.934546 
L 144.429743 154.008808 
L 145.125431 155.176383 
L 145.473275 154.9866 
L 146.168963 159.269657 
L 146.516808 158.868666 
L 146.864652 159.163272 
L 147.212496 162.159102 
L 147.908184 164.587789 
L 148.603873 167.55331 
L 148.951717 168.596305 
L 149.995249 174.143616 
L 150.343093 176.951276 
L 150.690938 176.882002 
L 151.038782 178.662768 
L 151.386626 181.471484 
L 151.73447 182.302497 
L 152.082314 185.083613 
L 152.430158 185.463178 
L 153.125847 190.166513 
L 153.473691 190.663676 
L 154.169379 195.028043 
L 154.517223 195.523074 
L 154.865067 197.66009 
L 155.212912 197.856389 
L 155.560756 200.759536 
L 155.9086 201.10822 
L 156.256444 203.05763 
L 156.604288 203.358535 
L 156.952132 205.367108 
L 157.299976 205.960553 
L 157.647821 208.246877 
L 157.995665 207.818841 
L 158.343509 208.300382 
L 158.691353 209.728758 
L 159.039197 209.367417 
L 159.387041 211.246785 
L 159.734886 211.922744 
L 160.08273 211.991158 
L 160.430574 212.237451 
L 160.778418 211.777983 
L 161.474106 213.191427 
L 162.169795 211.723501 
L 162.517639 212.273939 
L 162.865483 211.541895 
L 163.213327 211.900567 
L 163.909015 209.557794 
L 164.25686 210.192162 
L 164.604704 208.451978 
L 164.952548 207.841134 
L 165.300392 206.870013 
L 165.99608 203.960344 
L 166.343925 203.375978 
L 167.387457 199.642423 
L 167.735301 197.753972 
L 168.083145 196.994932 
L 168.430989 193.99628 
L 168.778834 193.384367 
L 169.126678 191.98801 
L 169.474522 189.721368 
L 169.822366 188.447196 
L 170.17021 186.259439 
L 170.518054 185.03823 
L 170.865899 182.122072 
L 171.213743 181.217796 
L 171.561587 178.760567 
L 172.257275 175.802132 
L 172.952963 171.380331 
L 173.300808 170.475319 
L 174.34434 164.705964 
L 174.692184 164.115092 
L 175.387873 160.734503 
L 175.735717 159.126446 
L 176.083561 158.151816 
L 176.779249 154.404876 
L 177.127093 152.930161 
L 177.474938 152.056011 
L 177.822782 150.877315 
L 178.170626 150.340646 
L 178.866314 148.200606 
L 180.605535 143.247803 
L 180.953379 143.392273 
L 181.301223 143.260551 
L 181.649067 142.239925 
L 181.996912 142.218588 
L 182.344756 140.611203 
L 182.6926 141.583361 
L 183.040444 140.692984 
L 183.388288 141.360502 
L 183.736132 141.051928 
L 184.779665 142.645324 
L 185.475353 144.395191 
L 186.171041 143.354031 
L 186.518886 145.106005 
L 186.86673 145.304864 
L 187.214574 146.097411 
L 187.910262 148.573267 
L 188.258106 148.506866 
L 189.301639 151.351581 
L 189.649483 153.394165 
L 190.345171 154.611161 
L 191.04086 157.971035 
L 191.388704 158.533142 
L 192.084392 160.877714 
L 192.432236 162.668474 
L 192.78008 163.018922 
L 193.127925 164.791538 
L 193.475769 165.182736 
L 193.823613 166.115907 
L 194.171457 167.975378 
L 194.519301 168.28787 
L 195.214989 171.01508 
L 195.562834 171.384389 
L 195.910678 173.194412 
L 196.258522 174.24549 
L 196.95421 175.097161 
L 197.302054 176.478579 
L 197.649899 176.861627 
L 197.997743 177.436199 
L 198.345587 178.27972 
L 198.693431 178.528293 
L 199.041275 179.548362 
L 199.736963 179.82251 
L 200.084808 181.307814 
L 200.432652 180.092565 
L 200.780496 181.459209 
L 201.12834 181.676072 
L 201.476184 180.698144 
L 201.824028 182.331258 
L 202.171873 181.733356 
L 202.519717 181.680163 
L 202.867561 180.976383 
L 203.215405 181.53286 
L 203.563249 180.931373 
L 203.911093 180.919098 
L 204.258938 180.43218 
L 204.954626 179.75295 
L 205.30247 178.336769 
L 205.650314 178.666843 
L 205.998158 178.446794 
L 206.346002 176.808652 
L 206.693847 176.902377 
L 207.041691 176.869777 
L 207.737379 174.180291 
L 208.085223 173.948017 
L 208.433067 172.890036 
L 208.780912 173.166003 
L 209.128756 171.534548 
L 209.4766 171.993141 
L 209.824444 169.805692 
L 210.520132 168.466438 
L 211.215821 167.004252 
L 211.911509 164.45739 
L 212.259353 163.699444 
L 212.955041 162.986323 
L 213.302886 162.224301 
L 213.65073 162.032777 
L 214.346418 159.850685 
L 214.694262 160.435805 
L 215.042106 159.576538 
L 215.38995 159.290116 
L 215.737795 157.897079 
L 216.085639 158.20112 
L 216.433483 157.408149 
L 216.781327 156.968523 
L 217.129171 158.040882 
L 217.477015 157.535517 
L 217.82486 156.598744 
L 218.172704 156.175552 
L 218.520548 156.315247 
L 219.216236 156.989066 
L 219.56408 157.777928 
L 219.911925 157.564278 
L 220.259769 157.568387 
L 220.607613 158.647711 
L 220.955457 158.602702 
L 221.303301 158.954592 
L 221.998989 160.636301 
L 222.346834 161.47511 
L 222.694678 161.17232 
L 223.042522 162.701074 
L 223.390366 163.202296 
L 223.73821 164.078417 
L 224.086054 165.749158 
L 224.433899 165.846958 
L 224.781743 167.195776 
L 225.477431 168.872272 
L 226.173119 171.985024 
L 226.520963 173.113245 
L 226.868808 174.991211 
L 227.564496 177.729597 
L 227.91234 178.145245 
L 228.260184 180.350345 
L 228.955873 182.738015 
L 229.999405 188.099192 
L 231.042938 191.812546 
L 231.390782 193.655018 
L 232.08647 195.730395 
L 232.434314 196.47229 
L 232.782158 198.888131 
L 233.130002 199.530993 
L 233.477847 202.21978 
L 233.825691 202.319644 
L 234.521379 204.371538 
L 234.869223 205.261519 
L 235.217067 207.233995 
L 236.608444 211.69626 
L 236.956288 210.77583 
L 237.304132 212.246573 
L 237.651976 213.223501 
L 238.347665 212.861524 
L 238.695509 213.592645 
L 239.043353 213.77217 
L 239.391197 214.25195 
L 239.739041 215.326283 
L 240.086886 214.584922 
L 240.782574 215.303052 
L 241.130418 214.464682 
L 241.826106 214.714411 
L 242.17395 214.783781 
L 242.521795 213.832012 
L 242.869639 213.397617 
L 243.217483 212.6525 
L 243.565327 212.292183 
L 243.913171 211.237705 
L 244.261015 211.859706 
L 244.60886 211.092196 
L 244.956704 208.740386 
L 245.304548 208.518859 
L 245.652392 206.786921 
L 246.000236 205.732269 
L 246.34808 205.477096 
L 246.695925 204.270794 
L 247.391613 200.909361 
L 247.739457 200.062239 
L 248.087301 199.650994 
L 248.435145 197.402847 
L 250.52221 188.530053 
L 251.217899 184.599236 
L 251.565743 183.621376 
L 251.565743 183.621376 
" style="fill:none;stroke:#d62728;stroke-linecap:square;stroke-width:1.5;"/>
   </g>
   <g id="line2d_27">
    <defs>
     <path d="M 0 3 
C 0.795609 3 1.55874 2.683901 2.12132 2.12132 
C 2.683901 1.55874 3 0.795609 3 0 
C 3 -0.795609 2.683901 -1.55874 2.12132 -2.12132 
C 1.55874 -2.683901 0.795609 -3 0 -3 
C -0.795609 -3 -1.55874 -2.683901 -2.12132 -2.12132 
C -2.683901 -1.55874 -3 -0.795609 -3 0 
C -3 0.795609 -2.683901 1.55874 -2.12132 2.12132 
C -1.55874 2.683901 -0.795609 3 0 3 
z
" id="mcb2457e3ba" style="stroke:#1f77b4;"/>
    </defs>
    <g clip-path="url(#pcd39df9889)">
     <use style="fill:#1f77b4;stroke:#1f77b4;" x="77.643665" xlink:href="#mcb2457e3ba" y="296.95689"/>
     <use style="fill:#1f77b4;stroke:#1f77b4;" x="88.078989" xlink:href="#mcb2457e3ba" y="245.87025"/>
     <use style="fill:#1f77b4;stroke:#1f77b4;" x="98.514314" xlink:href="#mcb2457e3ba" y="140.565513"/>
     <use style="fill:#1f77b4;stroke:#1f77b4;" x="108.949639" xlink:href="#mcb2457e3ba" y="77.337665"/>
     <use style="fill:#1f77b4;stroke:#1f77b4;" x="119.384963" xlink:href="#mcb2457e3ba" y="88.281771"/>
     <use style="fill:#1f77b4;stroke:#1f77b4;" x="129.820288" xlink:href="#mcb2457e3ba" y="156.548608"/>
     <use style="fill:#1f77b4;stroke:#1f77b4;" x="140.255613" xlink:href="#mcb2457e3ba" y="242.590337"/>
     <use style="fill:#1f77b4;stroke:#1f77b4;" x="150.690938" xlink:href="#mcb2457e3ba" y="287.027543"/>
     <use style="fill:#1f77b4;stroke:#1f77b4;" x="161.126262" xlink:href="#mcb2457e3ba" y="238.756064"/>
     <use style="fill:#1f77b4;stroke:#1f77b4;" x="171.561587" xlink:href="#mcb2457e3ba" y="120.328982"/>
     <use style="fill:#1f77b4;stroke:#1f77b4;" x="181.996912" xlink:href="#mcb2457e3ba" y="65.44608"/>
     <use style="fill:#1f77b4;stroke:#1f77b4;" x="192.432236" xlink:href="#mcb2457e3ba" y="82.51462"/>
     <use style="fill:#1f77b4;stroke:#1f77b4;" x="202.867561" xlink:href="#mcb2457e3ba" y="155.889491"/>
     <use style="fill:#1f77b4;stroke:#1f77b4;" x="213.302886" xlink:href="#mcb2457e3ba" y="245.981092"/>
     <use style="fill:#1f77b4;stroke:#1f77b4;" x="223.73821" xlink:href="#mcb2457e3ba" y="273.185884"/>
     <use style="fill:#1f77b4;stroke:#1f77b4;" x="234.173535" xlink:href="#mcb2457e3ba" y="238.481334"/>
     <use style="fill:#1f77b4;stroke:#1f77b4;" x="244.60886" xlink:href="#mcb2457e3ba" y="142.31625"/>
     <use style="fill:#1f77b4;stroke:#1f77b4;" x="255.044184" xlink:href="#mcb2457e3ba" y="64.544081"/>
     <use style="fill:#1f77b4;stroke:#1f77b4;" x="265.479509" xlink:href="#mcb2457e3ba" y="88.89225"/>
     <use style="fill:#1f77b4;stroke:#1f77b4;" x="275.914834" xlink:href="#mcb2457e3ba" y="167.014639"/>
     <use style="fill:#1f77b4;stroke:#1f77b4;" x="286.350158" xlink:href="#mcb2457e3ba" y="241.750573"/>
     <use style="fill:#1f77b4;stroke:#1f77b4;" x="296.785483" xlink:href="#mcb2457e3ba" y="266.592364"/>
     <use style="fill:#1f77b4;stroke:#1f77b4;" x="307.220808" xlink:href="#mcb2457e3ba" y="227.17641"/>
     <use style="fill:#1f77b4;stroke:#1f77b4;" x="317.656132" xlink:href="#mcb2457e3ba" y="140.823635"/>
     <use style="fill:#1f77b4;stroke:#1f77b4;" x="328.091457" xlink:href="#mcb2457e3ba" y="62.189759"/>
     <use style="fill:#1f77b4;stroke:#1f77b4;" x="338.526782" xlink:href="#mcb2457e3ba" y="83.668977"/>
     <use style="fill:#1f77b4;stroke:#1f77b4;" x="348.962106" xlink:href="#mcb2457e3ba" y="158.245489"/>
     <use style="fill:#1f77b4;stroke:#1f77b4;" x="359.397431" xlink:href="#mcb2457e3ba" y="231.02025"/>
     <use style="fill:#1f77b4;stroke:#1f77b4;" x="369.832756" xlink:href="#mcb2457e3ba" y="265.986129"/>
     <use style="fill:#1f77b4;stroke:#1f77b4;" x="380.26808" xlink:href="#mcb2457e3ba" y="218.800821"/>
     <use style="fill:#1f77b4;stroke:#1f77b4;" x="390.703405" xlink:href="#mcb2457e3ba" y="141.270212"/>
    </g>
   </g>
   <g id="line2d_28">
    <defs>
     <path d="M 0 3 
C 0.795609 3 1.55874 2.683901 2.12132 2.12132 
C 2.683901 1.55874 3 0.795609 3 0 
C 3 -0.795609 2.683901 -1.55874 2.12132 -2.12132 
C 1.55874 -2.683901 0.795609 -3 0 -3 
C -0.795609 -3 -1.55874 -2.683901 -2.12132 -2.12132 
C -2.683901 -1.55874 -3 -0.795609 -3 0 
C -3 0.795609 -2.683901 1.55874 -2.12132 2.12132 
C -1.55874 2.683901 -0.795609 3 0 3 
z
" id="m4d17eb6f4c" style="stroke:#d62728;"/>
    </defs>
    <g clip-path="url(#pcd39df9889)">
     <use style="fill:#d62728;stroke:#d62728;" x="77.643665" xlink:href="#m4d17eb6f4c" y="289.822418"/>
     <use style="fill:#d62728;stroke:#d62728;" x="88.078989" xlink:href="#m4d17eb6f4c" y="188.82249"/>
     <use style="fill:#d62728;stroke:#d62728;" x="98.514314" xlink:href="#m4d17eb6f4c" y="109.126666"/>
     <use style="fill:#d62728;stroke:#d62728;" x="108.949639" xlink:href="#m4d17eb6f4c" y="118.405814"/>
     <use style="fill:#d62728;stroke:#d62728;" x="119.384963" xlink:href="#m4d17eb6f4c" y="184.962404"/>
     <use style="fill:#d62728;stroke:#d62728;" x="129.820288" xlink:href="#m4d17eb6f4c" y="184.680057"/>
     <use style="fill:#d62728;stroke:#d62728;" x="140.255613" xlink:href="#m4d17eb6f4c" y="145.817724"/>
     <use style="fill:#d62728;stroke:#d62728;" x="150.690938" xlink:href="#m4d17eb6f4c" y="186.823327"/>
     <use style="fill:#d62728;stroke:#d62728;" x="161.126262" xlink:href="#m4d17eb6f4c" y="213.938736"/>
     <use style="fill:#d62728;stroke:#d62728;" x="171.561587" xlink:href="#m4d17eb6f4c" y="161.342996"/>
     <use style="fill:#d62728;stroke:#d62728;" x="181.996912" xlink:href="#m4d17eb6f4c" y="155.34465"/>
     <use style="fill:#d62728;stroke:#d62728;" x="192.432236" xlink:href="#m4d17eb6f4c" y="143.890031"/>
     <use style="fill:#d62728;stroke:#d62728;" x="202.867561" xlink:href="#m4d17eb6f4c" y="178.28464"/>
     <use style="fill:#d62728;stroke:#d62728;" x="213.302886" xlink:href="#m4d17eb6f4c" y="162.81859"/>
     <use style="fill:#d62728;stroke:#d62728;" x="223.73821" xlink:href="#m4d17eb6f4c" y="165.345173"/>
     <use style="fill:#d62728;stroke:#d62728;" x="234.173535" xlink:href="#m4d17eb6f4c" y="188.528173"/>
    </g>
   </g>
   <g id="patch_3">
    <path d="M 61.410938 297.54825 
L 61.410938 31.43625 
" style="fill:none;stroke:#000000;stroke-linecap:square;stroke-linejoin:miter;stroke-width:0.8;"/>
   </g>
   <g id="patch_4">
    <path d="M 418.530938 297.54825 
L 418.530938 31.43625 
" style="fill:none;stroke:#000000;stroke-linecap:square;stroke-linejoin:miter;stroke-width:0.8;"/>
   </g>
   <g id="patch_5">
    <path d="M 61.410938 297.54825 
L 418.530938 297.54825 
" style="fill:none;stroke:#000000;stroke-linecap:square;stroke-linejoin:miter;stroke-width:0.8;"/>
   </g>
   <g id="patch_6">
    <path d="M 61.410938 31.43625 
L 418.530938 31.43625 
" style="fill:none;stroke:#000000;stroke-linecap:square;stroke-linejoin:miter;stroke-width:0.8;"/>
   </g>
   <g id="text_15">
    <!-- X heating -->
    <defs>
     <path d="M 6.296875 72.90625 
L 16.890625 72.90625 
L 35.015625 45.796875 
L 53.21875 72.90625 
L 63.8125 72.90625 
L 40.375 37.890625 
L 65.375 0 
L 54.78125 0 
L 34.28125 31 
L 13.625 0 
L 2.984375 0 
L 29 38.921875 
z
" id="DejaVuSans-58"/>
     <path d="M 54.890625 33.015625 
L 54.890625 0 
L 45.90625 0 
L 45.90625 32.71875 
Q 45.90625 40.484375 42.875 44.328125 
Q 39.84375 48.1875 33.796875 48.1875 
Q 26.515625 48.1875 22.3125 43.546875 
Q 18.109375 38.921875 18.109375 30.90625 
L 18.109375 0 
L 9.078125 0 
L 9.078125 75.984375 
L 18.109375 75.984375 
L 18.109375 46.1875 
Q 21.34375 51.125 25.703125 53.5625 
Q 30.078125 56 35.796875 56 
Q 45.21875 56 50.046875 50.171875 
Q 54.890625 44.34375 54.890625 33.015625 
z
" id="DejaVuSans-68"/>
     <path d="M 18.3125 70.21875 
L 18.3125 54.6875 
L 36.8125 54.6875 
L 36.8125 47.703125 
L 18.3125 47.703125 
L 18.3125 18.015625 
Q 18.3125 11.328125 20.140625 9.421875 
Q 21.96875 7.515625 27.59375 7.515625 
L 36.8125 7.515625 
L 36.8125 0 
L 27.59375 0 
Q 17.1875 0 13.234375 3.875 
Q 9.28125 7.765625 9.28125 18.015625 
L 9.28125 47.703125 
L 2.6875 47.703125 
L 2.6875 54.6875 
L 9.28125 54.6875 
L 9.28125 70.21875 
z
" id="DejaVuSans-74"/>
     <path d="M 54.890625 33.015625 
L 54.890625 0 
L 45.90625 0 
L 45.90625 32.71875 
Q 45.90625 40.484375 42.875 44.328125 
Q 39.84375 48.1875 33.796875 48.1875 
Q 26.515625 48.1875 22.3125 43.546875 
Q 18.109375 38.921875 18.109375 30.90625 
L 18.109375 0 
L 9.078125 0 
L 9.078125 54.6875 
L 18.109375 54.6875 
L 18.109375 46.1875 
Q 21.34375 51.125 25.703125 53.5625 
Q 30.078125 56 35.796875 56 
Q 45.21875 56 50.046875 50.171875 
Q 54.890625 44.34375 54.890625 33.015625 
z
" id="DejaVuSans-6e"/>
     <path d="M 45.40625 27.984375 
Q 45.40625 37.75 41.375 43.109375 
Q 37.359375 48.484375 30.078125 48.484375 
Q 22.859375 48.484375 18.828125 43.109375 
Q 14.796875 37.75 14.796875 27.984375 
Q 14.796875 18.265625 18.828125 12.890625 
Q 22.859375 7.515625 30.078125 7.515625 
Q 37.359375 7.515625 41.375 12.890625 
Q 45.40625 18.265625 45.40625 27.984375 
z
M 54.390625 6.78125 
Q 54.390625 -7.171875 48.1875 -13.984375 
Q 42 -20.796875 29.203125 -20.796875 
Q 24.46875 -20.796875 20.265625 -20.09375 
Q 16.0625 -19.390625 12.109375 -17.921875 
L 12.109375 -9.1875 
Q 16.0625 -11.328125 19.921875 -12.34375 
Q 23.78125 -13.375 27.78125 -13.375 
Q 36.625 -13.375 41.015625 -8.765625 
Q 45.40625 -4.15625 45.40625 5.171875 
L 45.40625 9.625 
Q 42.625 4.78125 38.28125 2.390625 
Q 33.9375 0 27.875 0 
Q 17.828125 0 11.671875 7.65625 
Q 5.515625 15.328125 5.515625 27.984375 
Q 5.515625 40.671875 11.671875 48.328125 
Q 17.828125 56 27.875 56 
Q 33.9375 56 38.28125 53.609375 
Q 42.625 51.21875 45.40625 46.390625 
L 45.40625 54.6875 
L 54.390625 54.6875 
z
" id="DejaVuSans-67"/>
    </defs>
    <g transform="translate(182.333438 25.43625)scale(0.24 -0.24)">
     <use xlink:href="#DejaVuSans-58"/>
     <use x="68.505859" xlink:href="#DejaVuSans-20"/>
     <use x="100.292969" xlink:href="#DejaVuSans-68"/>
     <use x="163.671875" xlink:href="#DejaVuSans-65"/>
     <use x="225.195312" xlink:href="#DejaVuSans-61"/>
     <use x="286.474609" xlink:href="#DejaVuSans-74"/>
     <use x="325.683594" xlink:href="#DejaVuSans-69"/>
     <use x="353.466797" xlink:href="#DejaVuSans-6e"/>
     <use x="416.845703" xlink:href="#DejaVuSans-67"/>
    </g>
   </g>
   <g id="legend_1">
    <g id="patch_7">
     <path d="M 296.074687 106.14875 
L 404.530937 106.14875 
Q 408.530937 106.14875 408.530937 102.14875 
L 408.530937 45.43625 
Q 408.530937 41.43625 404.530937 41.43625 
L 296.074687 41.43625 
Q 292.074687 41.43625 292.074687 45.43625 
L 292.074687 102.14875 
Q 292.074687 106.14875 296.074687 106.14875 
z
" style="fill:#ffffff;opacity:0.8;stroke:#cccccc;stroke-linejoin:miter;"/>
    </g>
    <g id="LineCollection_3">
     <path d="M 320.074687 67.633125 
L 320.074687 47.633125 
" style="fill:none;stroke:#1f77b4;stroke-width:1.5;"/>
    </g>
    <g id="line2d_29"/>
    <g id="line2d_30">
     <g>
      <use style="fill:#1f77b4;stroke:#1f77b4;" x="320.074687" xlink:href="#mcb2457e3ba" y="57.633125"/>
     </g>
    </g>
    <g id="text_16">
     <!-- Cold -->
     <defs>
      <path d="M 64.40625 67.28125 
L 64.40625 56.890625 
Q 59.421875 61.53125 53.78125 63.8125 
Q 48.140625 66.109375 41.796875 66.109375 
Q 29.296875 66.109375 22.65625 58.46875 
Q 16.015625 50.828125 16.015625 36.375 
Q 16.015625 21.96875 22.65625 14.328125 
Q 29.296875 6.6875 41.796875 6.6875 
Q 48.140625 6.6875 53.78125 8.984375 
Q 59.421875 11.28125 64.40625 15.921875 
L 64.40625 5.609375 
Q 59.234375 2.09375 53.4375 0.328125 
Q 47.65625 -1.421875 41.21875 -1.421875 
Q 24.65625 -1.421875 15.125 8.703125 
Q 5.609375 18.84375 5.609375 36.375 
Q 5.609375 53.953125 15.125 64.078125 
Q 24.65625 74.21875 41.21875 74.21875 
Q 47.75 74.21875 53.53125 72.484375 
Q 59.328125 70.75 64.40625 67.28125 
z
" id="DejaVuSans-43"/>
      <path d="M 30.609375 48.390625 
Q 23.390625 48.390625 19.1875 42.75 
Q 14.984375 37.109375 14.984375 27.296875 
Q 14.984375 17.484375 19.15625 11.84375 
Q 23.34375 6.203125 30.609375 6.203125 
Q 37.796875 6.203125 41.984375 11.859375 
Q 46.1875 17.53125 46.1875 27.296875 
Q 46.1875 37.015625 41.984375 42.703125 
Q 37.796875 48.390625 30.609375 48.390625 
z
M 30.609375 56 
Q 42.328125 56 49.015625 48.375 
Q 55.71875 40.765625 55.71875 27.296875 
Q 55.71875 13.875 49.015625 6.21875 
Q 42.328125 -1.421875 30.609375 -1.421875 
Q 18.84375 -1.421875 12.171875 6.21875 
Q 5.515625 13.875 5.515625 27.296875 
Q 5.515625 40.765625 12.171875 48.375 
Q 18.84375 56 30.609375 56 
z
" id="DejaVuSans-6f"/>
      <path d="M 45.40625 46.390625 
L 45.40625 75.984375 
L 54.390625 75.984375 
L 54.390625 0 
L 45.40625 0 
L 45.40625 8.203125 
Q 42.578125 3.328125 38.25 0.953125 
Q 33.9375 -1.421875 27.875 -1.421875 
Q 17.96875 -1.421875 11.734375 6.484375 
Q 5.515625 14.40625 5.515625 27.296875 
Q 5.515625 40.1875 11.734375 48.09375 
Q 17.96875 56 27.875 56 
Q 33.9375 56 38.25 53.625 
Q 42.578125 51.265625 45.40625 46.390625 
z
M 14.796875 27.296875 
Q 14.796875 17.390625 18.875 11.75 
Q 22.953125 6.109375 30.078125 6.109375 
Q 37.203125 6.109375 41.296875 11.75 
Q 45.40625 17.390625 45.40625 27.296875 
Q 45.40625 37.203125 41.296875 42.84375 
Q 37.203125 48.484375 30.078125 48.484375 
Q 22.953125 48.484375 18.875 42.84375 
Q 14.796875 37.203125 14.796875 27.296875 
z
" id="DejaVuSans-64"/>
     </defs>
     <g transform="translate(356.074687 64.633125)scale(0.2 -0.2)">
      <use xlink:href="#DejaVuSans-43"/>
      <use x="69.824219" xlink:href="#DejaVuSans-6f"/>
      <use x="131.005859" xlink:href="#DejaVuSans-6c"/>
      <use x="158.789062" xlink:href="#DejaVuSans-64"/>
     </g>
    </g>
    <g id="LineCollection_4">
     <path d="M 320.074687 96.989375 
L 320.074687 76.989375 
" style="fill:none;stroke:#d62728;stroke-width:1.5;"/>
    </g>
    <g id="line2d_31"/>
    <g id="line2d_32">
     <g>
      <use style="fill:#d62728;stroke:#d62728;" x="320.074687" xlink:href="#m4d17eb6f4c" y="86.989375"/>
     </g>
    </g>
    <g id="text_17">
     <!-- Hot -->
     <defs>
      <path d="M 9.8125 72.90625 
L 19.671875 72.90625 
L 19.671875 43.015625 
L 55.515625 43.015625 
L 55.515625 72.90625 
L 65.375 72.90625 
L 65.375 0 
L 55.515625 0 
L 55.515625 34.71875 
L 19.671875 34.71875 
L 19.671875 0 
L 9.8125 0 
z
" id="DejaVuSans-48"/>
     </defs>
     <g transform="translate(356.074687 93.989375)scale(0.2 -0.2)">
      <use xlink:href="#DejaVuSans-48"/>
      <use x="75.195312" xlink:href="#DejaVuSans-6f"/>
      <use x="136.376953" xlink:href="#DejaVuSans-74"/>
     </g>
    </g>
   </g>
  </g>
 </g>
 <defs>
  <clipPath id="pcd39df9889">
   <rect height="266.112" width="357.12" x="61.410938" y="31.43625"/>
  </clipPath>
 </defs>
</svg>
