<?xml version="1.0" encoding="utf-8" standalone="no"?>
<!DOCTYPE svg PUBLIC "-//W3C//DTD SVG 1.1//EN"
  "http://www.w3.org/Graphics/SVG/1.1/DTD/svg11.dtd">
<!-- Created with matplotlib (http://matplotlib.org/) -->
<svg height="349pt" version="1.1" viewBox="0 0 429 349" width="429pt" xmlns="http://www.w3.org/2000/svg" xmlns:xlink="http://www.w3.org/1999/xlink">
 <defs>
  <style type="text/css">
*{stroke-linecap:butt;stroke-linejoin:round;}
  </style>
 </defs>
 <g id="figure_1">
  <g id="patch_1">
   <path d="M 0 349.665437 
L 429.230937 349.665437 
L 429.230937 0 
L 0 0 
z
" style="fill:none;"/>
  </g>
  <g id="axes_1">
   <g id="patch_2">
    <path d="M 61.410938 297.54825 
L 418.530938 297.54825 
L 418.530938 31.43625 
L 61.410938 31.43625 
z
" style="fill:none;"/>
   </g>
   <g id="matplotlib.axis_1">
    <g id="xtick_1">
     <g id="line2d_1">
      <path clip-path="url(#pcd39df9889)" d="M 61.410938 297.54825 
L 61.410938 31.43625 
" style="fill:none;stroke:#b0b0b0;stroke-linecap:square;stroke-width:0.8;"/>
     </g>
     <g id="line2d_2">
      <defs>
       <path d="M 0 0 
L 0 3.5 
" id="m005f0a59be" style="stroke:#000000;stroke-width:0.8;"/>
      </defs>
      <g>
       <use style="stroke:#000000;stroke-width:0.8;" x="61.410938" xlink:href="#m005f0a59be" y="297.54825"/>
      </g>
     </g>
     <g id="text_1">
      <!-- 0 -->
      <defs>
       <path d="M 31.78125 66.40625 
Q 24.171875 66.40625 20.328125 58.90625 
Q 16.5 51.421875 16.5 36.375 
Q 16.5 21.390625 20.328125 13.890625 
Q 24.171875 6.390625 31.78125 6.390625 
Q 39.453125 6.390625 43.28125 13.890625 
Q 47.125 21.390625 47.125 36.375 
Q 47.125 51.421875 43.28125 58.90625 
Q 39.453125 66.40625 31.78125 66.40625 
z
M 31.78125 74.21875 
Q 44.046875 74.21875 50.515625 64.515625 
Q 56.984375 54.828125 56.984375 36.375 
Q 56.984375 17.96875 50.515625 8.265625 
Q 44.046875 -1.421875 31.78125 -1.421875 
Q 19.53125 -1.421875 13.0625 8.265625 
Q 6.59375 17.96875 6.59375 36.375 
Q 6.59375 54.828125 13.0625 64.515625 
Q 19.53125 74.21875 31.78125 74.21875 
z
" id="DejaVuSans-30"/>
      </defs>
      <g transform="translate(56.639063 315.945906)scale(0.15 -0.15)">
       <use xlink:href="#DejaVuSans-30"/>
      </g>
     </g>
    </g>
    <g id="xtick_2">
     <g id="line2d_3">
      <path clip-path="url(#pcd39df9889)" d="M 123.410938 297.54825 
L 123.410938 31.43625 
" style="fill:none;stroke:#b0b0b0;stroke-linecap:square;stroke-width:0.8;"/>
     </g>
     <g id="line2d_4">
      <g>
       <use style="stroke:#000000;stroke-width:0.8;" x="123.410938" xlink:href="#m005f0a59be" y="297.54825"/>
      </g>
     </g>
     <g id="text_2">
      <!-- 25 -->
      <defs>
       <path d="M 19.1875 8.296875 
L 53.609375 8.296875 
L 53.609375 0 
L 7.328125 0 
L 7.328125 8.296875 
Q 12.9375 14.109375 22.625 23.890625 
Q 32.328125 33.6875 34.8125 36.53125 
Q 39.546875 41.84375 41.421875 45.53125 
Q 43.3125 49.21875 43.3125 52.78125 
Q 43.3125 58.59375 39.234375 62.25 
Q 35.15625 65.921875 28.609375 65.921875 
Q 23.96875 65.921875 18.8125 64.3125 
Q 13.671875 62.703125 7.8125 59.421875 
L 7.8125 69.390625 
Q 13.765625 71.78125 18.9375 73 
Q 24.125 74.21875 28.421875 74.21875 
Q 39.75 74.21875 46.484375 68.546875 
Q 53.21875 62.890625 53.21875 53.421875 
Q 53.21875 48.921875 51.53125 44.890625 
Q 49.859375 40.875 45.40625 35.40625 
Q 44.1875 33.984375 37.640625 27.21875 
Q 31.109375 20.453125 19.1875 8.296875 
z
" id="DejaVuSans-32"/>
       <path d="M 10.796875 72.90625 
L 49.515625 72.90625 
L 49.515625 64.59375 
L 19.828125 64.59375 
L 19.828125 46.734375 
Q 21.96875 47.46875 24.109375 47.828125 
Q 26.265625 48.1875 28.421875 48.1875 
Q 40.625 48.1875 47.75 41.5 
Q 54.890625 34.8125 54.890625 23.390625 
Q 54.890625 11.625 47.5625 5.09375 
Q 40.234375 -1.421875 26.90625 -1.421875 
Q 22.3125 -1.421875 17.546875 -0.640625 
Q 12.796875 0.140625 7.71875 1.703125 
L 7.71875 11.625 
Q 12.109375 9.234375 16.796875 8.0625 
Q 21.484375 6.890625 26.703125 6.890625 
Q 35.15625 6.890625 40.078125 11.328125 
Q 45.015625 15.765625 45.015625 23.390625 
Q 45.015625 31 40.078125 35.4375 
Q 35.15625 39.890625 26.703125 39.890625 
Q 22.75 39.890625 18.8125 39.015625 
Q 14.890625 38.140625 10.796875 36.28125 
z
" id="DejaVuSans-35"/>
      </defs>
      <g transform="translate(113.867188 315.945906)scale(0.15 -0.15)">
       <use xlink:href="#DejaVuSans-32"/>
       <use x="63.623047" xlink:href="#DejaVuSans-35"/>
      </g>
     </g>
    </g>
    <g id="xtick_3">
     <g id="line2d_5">
      <path clip-path="url(#pcd39df9889)" d="M 185.410938 297.54825 
L 185.410938 31.43625 
" style="fill:none;stroke:#b0b0b0;stroke-linecap:square;stroke-width:0.8;"/>
     </g>
     <g id="line2d_6">
      <g>
       <use style="stroke:#000000;stroke-width:0.8;" x="185.410938" xlink:href="#m005f0a59be" y="297.54825"/>
      </g>
     </g>
     <g id="text_3">
      <!-- 50 -->
      <g transform="translate(175.867188 315.945906)scale(0.15 -0.15)">
       <use xlink:href="#DejaVuSans-35"/>
       <use x="63.623047" xlink:href="#DejaVuSans-30"/>
      </g>
     </g>
    </g>
    <g id="xtick_4">
     <g id="line2d_7">
      <path clip-path="url(#pcd39df9889)" d="M 247.410938 297.54825 
L 247.410938 31.43625 
" style="fill:none;stroke:#b0b0b0;stroke-linecap:square;stroke-width:0.8;"/>
     </g>
     <g id="line2d_8">
      <g>
       <use style="stroke:#000000;stroke-width:0.8;" x="247.410938" xlink:href="#m005f0a59be" y="297.54825"/>
      </g>
     </g>
     <g id="text_4">
      <!-- 75 -->
      <defs>
       <path d="M 8.203125 72.90625 
L 55.078125 72.90625 
L 55.078125 68.703125 
L 28.609375 0 
L 18.3125 0 
L 43.21875 64.59375 
L 8.203125 64.59375 
z
" id="DejaVuSans-37"/>
      </defs>
      <g transform="translate(237.867188 315.945906)scale(0.15 -0.15)">
       <use xlink:href="#DejaVuSans-37"/>
       <use x="63.623047" xlink:href="#DejaVuSans-35"/>
      </g>
     </g>
    </g>
    <g id="xtick_5">
     <g id="line2d_9">
      <path clip-path="url(#pcd39df9889)" d="M 309.410938 297.54825 
L 309.410938 31.43625 
" style="fill:none;stroke:#b0b0b0;stroke-linecap:square;stroke-width:0.8;"/>
     </g>
     <g id="line2d_10">
      <g>
       <use style="stroke:#000000;stroke-width:0.8;" x="309.410938" xlink:href="#m005f0a59be" y="297.54825"/>
      </g>
     </g>
     <g id="text_5">
      <!-- 100 -->
      <defs>
       <path d="M 12.40625 8.296875 
L 28.515625 8.296875 
L 28.515625 63.921875 
L 10.984375 60.40625 
L 10.984375 69.390625 
L 28.421875 72.90625 
L 38.28125 72.90625 
L 38.28125 8.296875 
L 54.390625 8.296875 
L 54.390625 0 
L 12.40625 0 
z
" id="DejaVuSans-31"/>
      </defs>
      <g transform="translate(295.095313 315.945906)scale(0.15 -0.15)">
       <use xlink:href="#DejaVuSans-31"/>
       <use x="63.623047" xlink:href="#DejaVuSans-30"/>
       <use x="127.246094" xlink:href="#DejaVuSans-30"/>
      </g>
     </g>
    </g>
    <g id="xtick_6">
     <g id="line2d_11">
      <path clip-path="url(#pcd39df9889)" d="M 371.410938 297.54825 
L 371.410938 31.43625 
" style="fill:none;stroke:#b0b0b0;stroke-linecap:square;stroke-width:0.8;"/>
     </g>
     <g id="line2d_12">
      <g>
       <use style="stroke:#000000;stroke-width:0.8;" x="371.410938" xlink:href="#m005f0a59be" y="297.54825"/>
      </g>
     </g>
     <g id="text_6">
      <!-- 125 -->
      <g transform="translate(357.095313 315.945906)scale(0.15 -0.15)">
       <use xlink:href="#DejaVuSans-31"/>
       <use x="63.623047" xlink:href="#DejaVuSans-32"/>
       <use x="127.246094" xlink:href="#DejaVuSans-35"/>
      </g>
     </g>
    </g>
    <g id="text_7">
     <!-- Time ($\mu s$) -->
     <defs>
      <path d="M -0.296875 72.90625 
L 61.375 72.90625 
L 61.375 64.59375 
L 35.5 64.59375 
L 35.5 0 
L 25.59375 0 
L 25.59375 64.59375 
L -0.296875 64.59375 
z
" id="DejaVuSans-54"/>
      <path d="M 9.421875 54.6875 
L 18.40625 54.6875 
L 18.40625 0 
L 9.421875 0 
z
M 9.421875 75.984375 
L 18.40625 75.984375 
L 18.40625 64.59375 
L 9.421875 64.59375 
z
" id="DejaVuSans-69"/>
      <path d="M 52 44.1875 
Q 55.375 50.25 60.0625 53.125 
Q 64.75 56 71.09375 56 
Q 79.640625 56 84.28125 50.015625 
Q 88.921875 44.046875 88.921875 33.015625 
L 88.921875 0 
L 79.890625 0 
L 79.890625 32.71875 
Q 79.890625 40.578125 77.09375 44.375 
Q 74.3125 48.1875 68.609375 48.1875 
Q 61.625 48.1875 57.5625 43.546875 
Q 53.515625 38.921875 53.515625 30.90625 
L 53.515625 0 
L 44.484375 0 
L 44.484375 32.71875 
Q 44.484375 40.625 41.703125 44.40625 
Q 38.921875 48.1875 33.109375 48.1875 
Q 26.21875 48.1875 22.15625 43.53125 
Q 18.109375 38.875 18.109375 30.90625 
L 18.109375 0 
L 9.078125 0 
L 9.078125 54.6875 
L 18.109375 54.6875 
L 18.109375 46.1875 
Q 21.1875 51.21875 25.484375 53.609375 
Q 29.78125 56 35.6875 56 
Q 41.65625 56 45.828125 52.96875 
Q 50 49.953125 52 44.1875 
z
" id="DejaVuSans-6d"/>
      <path d="M 56.203125 29.59375 
L 56.203125 25.203125 
L 14.890625 25.203125 
Q 15.484375 15.921875 20.484375 11.0625 
Q 25.484375 6.203125 34.421875 6.203125 
Q 39.59375 6.203125 44.453125 7.46875 
Q 49.3125 8.734375 54.109375 11.28125 
L 54.109375 2.78125 
Q 49.265625 0.734375 44.1875 -0.34375 
Q 39.109375 -1.421875 33.890625 -1.421875 
Q 20.796875 -1.421875 13.15625 6.1875 
Q 5.515625 13.8125 5.515625 26.8125 
Q 5.515625 40.234375 12.765625 48.109375 
Q 20.015625 56 32.328125 56 
Q 43.359375 56 49.78125 48.890625 
Q 56.203125 41.796875 56.203125 29.59375 
z
M 47.21875 32.234375 
Q 47.125 39.59375 43.09375 43.984375 
Q 39.0625 48.390625 32.421875 48.390625 
Q 24.90625 48.390625 20.390625 44.140625 
Q 15.875 39.890625 15.1875 32.171875 
z
" id="DejaVuSans-65"/>
      <path id="DejaVuSans-20"/>
      <path d="M 31 75.875 
Q 24.46875 64.65625 21.28125 53.65625 
Q 18.109375 42.671875 18.109375 31.390625 
Q 18.109375 20.125 21.3125 9.0625 
Q 24.515625 -2 31 -13.1875 
L 23.1875 -13.1875 
Q 15.875 -1.703125 12.234375 9.375 
Q 8.59375 20.453125 8.59375 31.390625 
Q 8.59375 42.28125 12.203125 53.3125 
Q 15.828125 64.359375 23.1875 75.875 
z
" id="DejaVuSans-28"/>
      <path d="M -1.3125 -20.796875 
L 13.375 54.6875 
L 22.40625 54.6875 
L 15.765625 20.65625 
Q 15.578125 19.625 15.421875 18.359375 
Q 15.28125 17.09375 15.28125 15.828125 
Q 15.28125 11.28125 18.140625 8.828125 
Q 21 6.390625 26.3125 6.390625 
Q 33.546875 6.390625 37.984375 10.484375 
Q 42.4375 14.59375 44 22.796875 
L 50.203125 54.6875 
L 59.1875 54.6875 
L 51.03125 12.640625 
Q 50.828125 11.71875 50.75 11.03125 
Q 50.6875 10.359375 50.6875 9.8125 
Q 50.6875 8.296875 51.296875 7.59375 
Q 51.90625 6.890625 53.21875 6.890625 
Q 53.71875 6.890625 54.5625 7.125 
Q 55.421875 7.375 56.984375 8.015625 
L 55.609375 0.78125 
Q 53.46875 -0.296875 51.515625 -0.859375 
Q 49.5625 -1.421875 47.703125 -1.421875 
Q 44.484375 -1.421875 42.65625 0.625 
Q 40.828125 2.6875 40.828125 6.296875 
Q 38.09375 2.390625 34.296875 0.484375 
Q 30.515625 -1.421875 25.390625 -1.421875 
Q 20.84375 -1.421875 17.453125 0.671875 
Q 14.0625 2.78125 12.984375 6.203125 
L 7.71875 -20.796875 
z
" id="DejaVuSans-Oblique-3bc"/>
      <path d="M 50 53.078125 
L 48.296875 44.578125 
Q 44.734375 46.53125 40.765625 47.5 
Q 36.8125 48.484375 32.625 48.484375 
Q 25.53125 48.484375 21.453125 46.0625 
Q 17.390625 43.65625 17.390625 39.5 
Q 17.390625 34.671875 26.859375 32.078125 
Q 27.59375 31.890625 27.9375 31.78125 
L 30.8125 30.90625 
Q 39.796875 28.421875 42.796875 25.6875 
Q 45.796875 22.953125 45.796875 18.21875 
Q 45.796875 9.515625 38.890625 4.046875 
Q 31.984375 -1.421875 20.796875 -1.421875 
Q 16.453125 -1.421875 11.671875 -0.578125 
Q 6.890625 0.25 1.125 2 
L 2.875 11.28125 
Q 7.8125 8.734375 12.59375 7.421875 
Q 17.390625 6.109375 21.78125 6.109375 
Q 28.375 6.109375 32.5 8.9375 
Q 36.625 11.765625 36.625 16.109375 
Q 36.625 20.796875 25.78125 23.6875 
L 24.859375 23.921875 
L 21.78125 24.703125 
Q 14.9375 26.515625 11.765625 29.46875 
Q 8.59375 32.421875 8.59375 37.015625 
Q 8.59375 45.75 15.15625 50.875 
Q 21.734375 56 33.015625 56 
Q 37.453125 56 41.671875 55.265625 
Q 45.90625 54.546875 50 53.078125 
z
" id="DejaVuSans-Oblique-73"/>
      <path d="M 8.015625 75.875 
L 15.828125 75.875 
Q 23.140625 64.359375 26.78125 53.3125 
Q 30.421875 42.28125 30.421875 31.390625 
Q 30.421875 20.453125 26.78125 9.375 
Q 23.140625 -1.703125 15.828125 -13.1875 
L 8.015625 -13.1875 
Q 14.5 -2 17.703125 9.0625 
Q 20.90625 20.125 20.90625 31.390625 
Q 20.90625 42.671875 17.703125 53.65625 
Q 14.5 64.65625 8.015625 75.875 
z
" id="DejaVuSans-29"/>
     </defs>
     <g transform="translate(192.570938 338.265437)scale(0.2 -0.2)">
      <use transform="translate(0 0.015625)" xlink:href="#DejaVuSans-54"/>
      <use transform="translate(61.083984 0.015625)" xlink:href="#DejaVuSans-69"/>
      <use transform="translate(88.867188 0.015625)" xlink:href="#DejaVuSans-6d"/>
      <use transform="translate(186.279297 0.015625)" xlink:href="#DejaVuSans-65"/>
      <use transform="translate(247.802734 0.015625)" xlink:href="#DejaVuSans-20"/>
      <use transform="translate(279.589844 0.015625)" xlink:href="#DejaVuSans-28"/>
      <use transform="translate(318.603516 0.015625)" xlink:href="#DejaVuSans-Oblique-3bc"/>
      <use transform="translate(382.226562 0.015625)" xlink:href="#DejaVuSans-Oblique-73"/>
      <use transform="translate(434.326172 0.015625)" xlink:href="#DejaVuSans-29"/>
     </g>
    </g>
   </g>
   <g id="matplotlib.axis_2">
    <g id="ytick_1">
     <g id="line2d_13">
      <path clip-path="url(#pcd39df9889)" d="M 61.410938 297.54825 
L 418.530938 297.54825 
" style="fill:none;stroke:#b0b0b0;stroke-linecap:square;stroke-width:0.8;"/>
     </g>
     <g id="line2d_14">
      <defs>
       <path d="M 0 0 
L -3.5 0 
" id="mc3ce260a5b" style="stroke:#000000;stroke-width:0.8;"/>
      </defs>
      <g>
       <use style="stroke:#000000;stroke-width:0.8;" x="61.410938" xlink:href="#mc3ce260a5b" y="297.54825"/>
      </g>
     </g>
     <g id="text_8">
      <!-- 0.0 -->
      <defs>
       <path d="M 10.6875 12.40625 
L 21 12.40625 
L 21 0 
L 10.6875 0 
z
" id="DejaVuSans-2e"/>
      </defs>
      <g transform="translate(30.55625 303.247078)scale(0.15 -0.15)">
       <use xlink:href="#DejaVuSans-30"/>
       <use x="63.623047" xlink:href="#DejaVuSans-2e"/>
       <use x="95.410156" xlink:href="#DejaVuSans-30"/>
      </g>
     </g>
    </g>
    <g id="ytick_2">
     <g id="line2d_15">
      <path clip-path="url(#pcd39df9889)" d="M 61.410938 244.32585 
L 418.530938 244.32585 
" style="fill:none;stroke:#b0b0b0;stroke-linecap:square;stroke-width:0.8;"/>
     </g>
     <g id="line2d_16">
      <g>
       <use style="stroke:#000000;stroke-width:0.8;" x="61.410938" xlink:href="#mc3ce260a5b" y="244.32585"/>
      </g>
     </g>
     <g id="text_9">
      <!-- 0.2 -->
      <g transform="translate(30.55625 250.024678)scale(0.15 -0.15)">
       <use xlink:href="#DejaVuSans-30"/>
       <use x="63.623047" xlink:href="#DejaVuSans-2e"/>
       <use x="95.410156" xlink:href="#DejaVuSans-32"/>
      </g>
     </g>
    </g>
    <g id="ytick_3">
     <g id="line2d_17">
      <path clip-path="url(#pcd39df9889)" d="M 61.410938 191.10345 
L 418.530938 191.10345 
" style="fill:none;stroke:#b0b0b0;stroke-linecap:square;stroke-width:0.8;"/>
     </g>
     <g id="line2d_18">
      <g>
       <use style="stroke:#000000;stroke-width:0.8;" x="61.410938" xlink:href="#mc3ce260a5b" y="191.10345"/>
      </g>
     </g>
     <g id="text_10">
      <!-- 0.4 -->
      <defs>
       <path d="M 37.796875 64.3125 
L 12.890625 25.390625 
L 37.796875 25.390625 
z
M 35.203125 72.90625 
L 47.609375 72.90625 
L 47.609375 25.390625 
L 58.015625 25.390625 
L 58.015625 17.1875 
L 47.609375 17.1875 
L 47.609375 0 
L 37.796875 0 
L 37.796875 17.1875 
L 4.890625 17.1875 
L 4.890625 26.703125 
z
" id="DejaVuSans-34"/>
      </defs>
      <g transform="translate(30.55625 196.802278)scale(0.15 -0.15)">
       <use xlink:href="#DejaVuSans-30"/>
       <use x="63.623047" xlink:href="#DejaVuSans-2e"/>
       <use x="95.410156" xlink:href="#DejaVuSans-34"/>
      </g>
     </g>
    </g>
    <g id="ytick_4">
     <g id="line2d_19">
      <path clip-path="url(#pcd39df9889)" d="M 61.410938 137.88105 
L 418.530938 137.88105 
" style="fill:none;stroke:#b0b0b0;stroke-linecap:square;stroke-width:0.8;"/>
     </g>
     <g id="line2d_20">
      <g>
       <use style="stroke:#000000;stroke-width:0.8;" x="61.410938" xlink:href="#mc3ce260a5b" y="137.88105"/>
      </g>
     </g>
     <g id="text_11">
      <!-- 0.6 -->
      <defs>
       <path d="M 33.015625 40.375 
Q 26.375 40.375 22.484375 35.828125 
Q 18.609375 31.296875 18.609375 23.390625 
Q 18.609375 15.53125 22.484375 10.953125 
Q 26.375 6.390625 33.015625 6.390625 
Q 39.65625 6.390625 43.53125 10.953125 
Q 47.40625 15.53125 47.40625 23.390625 
Q 47.40625 31.296875 43.53125 35.828125 
Q 39.65625 40.375 33.015625 40.375 
z
M 52.59375 71.296875 
L 52.59375 62.3125 
Q 48.875 64.0625 45.09375 64.984375 
Q 41.3125 65.921875 37.59375 65.921875 
Q 27.828125 65.921875 22.671875 59.328125 
Q 17.53125 52.734375 16.796875 39.40625 
Q 19.671875 43.65625 24.015625 45.921875 
Q 28.375 48.1875 33.59375 48.1875 
Q 44.578125 48.1875 50.953125 41.515625 
Q 57.328125 34.859375 57.328125 23.390625 
Q 57.328125 12.15625 50.6875 5.359375 
Q 44.046875 -1.421875 33.015625 -1.421875 
Q 20.359375 -1.421875 13.671875 8.265625 
Q 6.984375 17.96875 6.984375 36.375 
Q 6.984375 53.65625 15.1875 63.9375 
Q 23.390625 74.21875 37.203125 74.21875 
Q 40.921875 74.21875 44.703125 73.484375 
Q 48.484375 72.75 52.59375 71.296875 
z
" id="DejaVuSans-36"/>
      </defs>
      <g transform="translate(30.55625 143.579878)scale(0.15 -0.15)">
       <use xlink:href="#DejaVuSans-30"/>
       <use x="63.623047" xlink:href="#DejaVuSans-2e"/>
       <use x="95.410156" xlink:href="#DejaVuSans-36"/>
      </g>
     </g>
    </g>
    <g id="ytick_5">
     <g id="line2d_21">
      <path clip-path="url(#pcd39df9889)" d="M 61.410938 84.65865 
L 418.530938 84.65865 
" style="fill:none;stroke:#b0b0b0;stroke-linecap:square;stroke-width:0.8;"/>
     </g>
     <g id="line2d_22">
      <g>
       <use style="stroke:#000000;stroke-width:0.8;" x="61.410938" xlink:href="#mc3ce260a5b" y="84.65865"/>
      </g>
     </g>
     <g id="text_12">
      <!-- 0.8 -->
      <defs>
       <path d="M 31.78125 34.625 
Q 24.75 34.625 20.71875 30.859375 
Q 16.703125 27.09375 16.703125 20.515625 
Q 16.703125 13.921875 20.71875 10.15625 
Q 24.75 6.390625 31.78125 6.390625 
Q 38.8125 6.390625 42.859375 10.171875 
Q 46.921875 13.96875 46.921875 20.515625 
Q 46.921875 27.09375 42.890625 30.859375 
Q 38.875 34.625 31.78125 34.625 
z
M 21.921875 38.8125 
Q 15.578125 40.375 12.03125 44.71875 
Q 8.5 49.078125 8.5 55.328125 
Q 8.5 64.0625 14.71875 69.140625 
Q 20.953125 74.21875 31.78125 74.21875 
Q 42.671875 74.21875 48.875 69.140625 
Q 55.078125 64.0625 55.078125 55.328125 
Q 55.078125 49.078125 51.53125 44.71875 
Q 48 40.375 41.703125 38.8125 
Q 48.828125 37.15625 52.796875 32.3125 
Q 56.78125 27.484375 56.78125 20.515625 
Q 56.78125 9.90625 50.3125 4.234375 
Q 43.84375 -1.421875 31.78125 -1.421875 
Q 19.734375 -1.421875 13.25 4.234375 
Q 6.78125 9.90625 6.78125 20.515625 
Q 6.78125 27.484375 10.78125 32.3125 
Q 14.796875 37.15625 21.921875 38.8125 
z
M 18.3125 54.390625 
Q 18.3125 48.734375 21.84375 45.5625 
Q 25.390625 42.390625 31.78125 42.390625 
Q 38.140625 42.390625 41.71875 45.5625 
Q 45.3125 48.734375 45.3125 54.390625 
Q 45.3125 60.0625 41.71875 63.234375 
Q 38.140625 66.40625 31.78125 66.40625 
Q 25.390625 66.40625 21.84375 63.234375 
Q 18.3125 60.0625 18.3125 54.390625 
z
" id="DejaVuSans-38"/>
      </defs>
      <g transform="translate(30.55625 90.357478)scale(0.15 -0.15)">
       <use xlink:href="#DejaVuSans-30"/>
       <use x="63.623047" xlink:href="#DejaVuSans-2e"/>
       <use x="95.410156" xlink:href="#DejaVuSans-38"/>
      </g>
     </g>
    </g>
    <g id="ytick_6">
     <g id="line2d_23">
      <path clip-path="url(#pcd39df9889)" d="M 61.410938 31.43625 
L 418.530938 31.43625 
" style="fill:none;stroke:#b0b0b0;stroke-linecap:square;stroke-width:0.8;"/>
     </g>
     <g id="line2d_24">
      <g>
       <use style="stroke:#000000;stroke-width:0.8;" x="61.410938" xlink:href="#mc3ce260a5b" y="31.43625"/>
      </g>
     </g>
     <g id="text_13">
      <!-- 1.0 -->
      <g transform="translate(30.55625 37.135078)scale(0.15 -0.15)">
       <use xlink:href="#DejaVuSans-31"/>
       <use x="63.623047" xlink:href="#DejaVuSans-2e"/>
       <use x="95.410156" xlink:href="#DejaVuSans-30"/>
      </g>
     </g>
    </g>
    <g id="text_14">
     <!-- Survival -->
     <defs>
      <path d="M 53.515625 70.515625 
L 53.515625 60.890625 
Q 47.90625 63.578125 42.921875 64.890625 
Q 37.9375 66.21875 33.296875 66.21875 
Q 25.25 66.21875 20.875 63.09375 
Q 16.5 59.96875 16.5 54.203125 
Q 16.5 49.359375 19.40625 46.890625 
Q 22.3125 44.4375 30.421875 42.921875 
L 36.375 41.703125 
Q 47.40625 39.59375 52.65625 34.296875 
Q 57.90625 29 57.90625 20.125 
Q 57.90625 9.515625 50.796875 4.046875 
Q 43.703125 -1.421875 29.984375 -1.421875 
Q 24.8125 -1.421875 18.96875 -0.25 
Q 13.140625 0.921875 6.890625 3.21875 
L 6.890625 13.375 
Q 12.890625 10.015625 18.65625 8.296875 
Q 24.421875 6.59375 29.984375 6.59375 
Q 38.421875 6.59375 43.015625 9.90625 
Q 47.609375 13.234375 47.609375 19.390625 
Q 47.609375 24.75 44.3125 27.78125 
Q 41.015625 30.8125 33.5 32.328125 
L 27.484375 33.5 
Q 16.453125 35.6875 11.515625 40.375 
Q 6.59375 45.0625 6.59375 53.421875 
Q 6.59375 63.09375 13.40625 68.65625 
Q 20.21875 74.21875 32.171875 74.21875 
Q 37.3125 74.21875 42.625 73.28125 
Q 47.953125 72.359375 53.515625 70.515625 
z
" id="DejaVuSans-53"/>
      <path d="M 8.5 21.578125 
L 8.5 54.6875 
L 17.484375 54.6875 
L 17.484375 21.921875 
Q 17.484375 14.15625 20.5 10.265625 
Q 23.53125 6.390625 29.59375 6.390625 
Q 36.859375 6.390625 41.078125 11.03125 
Q 45.3125 15.671875 45.3125 23.6875 
L 45.3125 54.6875 
L 54.296875 54.6875 
L 54.296875 0 
L 45.3125 0 
L 45.3125 8.40625 
Q 42.046875 3.421875 37.71875 1 
Q 33.40625 -1.421875 27.6875 -1.421875 
Q 18.265625 -1.421875 13.375 4.4375 
Q 8.5 10.296875 8.5 21.578125 
z
M 31.109375 56 
z
" id="DejaVuSans-75"/>
      <path d="M 41.109375 46.296875 
Q 39.59375 47.171875 37.8125 47.578125 
Q 36.03125 48 33.890625 48 
Q 26.265625 48 22.1875 43.046875 
Q 18.109375 38.09375 18.109375 28.8125 
L 18.109375 0 
L 9.078125 0 
L 9.078125 54.6875 
L 18.109375 54.6875 
L 18.109375 46.1875 
Q 20.953125 51.171875 25.484375 53.578125 
Q 30.03125 56 36.53125 56 
Q 37.453125 56 38.578125 55.875 
Q 39.703125 55.765625 41.0625 55.515625 
z
" id="DejaVuSans-72"/>
      <path d="M 2.984375 54.6875 
L 12.5 54.6875 
L 29.59375 8.796875 
L 46.6875 54.6875 
L 56.203125 54.6875 
L 35.6875 0 
L 23.484375 0 
z
" id="DejaVuSans-76"/>
      <path d="M 34.28125 27.484375 
Q 23.390625 27.484375 19.1875 25 
Q 14.984375 22.515625 14.984375 16.5 
Q 14.984375 11.71875 18.140625 8.90625 
Q 21.296875 6.109375 26.703125 6.109375 
Q 34.1875 6.109375 38.703125 11.40625 
Q 43.21875 16.703125 43.21875 25.484375 
L 43.21875 27.484375 
z
M 52.203125 31.203125 
L 52.203125 0 
L 43.21875 0 
L 43.21875 8.296875 
Q 40.140625 3.328125 35.546875 0.953125 
Q 30.953125 -1.421875 24.3125 -1.421875 
Q 15.921875 -1.421875 10.953125 3.296875 
Q 6 8.015625 6 15.921875 
Q 6 25.140625 12.171875 29.828125 
Q 18.359375 34.515625 30.609375 34.515625 
L 43.21875 34.515625 
L 43.21875 35.40625 
Q 43.21875 41.609375 39.140625 45 
Q 35.0625 48.390625 27.6875 48.390625 
Q 23 48.390625 18.546875 47.265625 
Q 14.109375 46.140625 10.015625 43.890625 
L 10.015625 52.203125 
Q 14.9375 54.109375 19.578125 55.046875 
Q 24.21875 56 28.609375 56 
Q 40.484375 56 46.34375 49.84375 
Q 52.203125 43.703125 52.203125 31.203125 
z
" id="DejaVuSans-61"/>
      <path d="M 9.421875 75.984375 
L 18.40625 75.984375 
L 18.40625 0 
L 9.421875 0 
z
" id="DejaVuSans-6c"/>
     </defs>
     <g transform="translate(22.396875 204.811)rotate(-90)scale(0.2 -0.2)">
      <use xlink:href="#DejaVuSans-53"/>
      <use x="63.476562" xlink:href="#DejaVuSans-75"/>
      <use x="126.855469" xlink:href="#DejaVuSans-72"/>
      <use x="167.96875" xlink:href="#DejaVuSans-76"/>
      <use x="227.148438" xlink:href="#DejaVuSans-69"/>
      <use x="254.931641" xlink:href="#DejaVuSans-76"/>
      <use x="314.111328" xlink:href="#DejaVuSans-61"/>
      <use x="375.390625" xlink:href="#DejaVuSans-6c"/>
     </g>
    </g>
   </g>
   <g id="LineCollection_1">
    <path clip-path="url(#pcd39df9889)" d="M 61.410938 297.54825 
L 61.410938 296.36553 
" style="fill:none;stroke:#1f77b4;stroke-width:1.5;"/>
    <path clip-path="url(#pcd39df9889)" d="M 70.090938 225.513154 
L 70.090938 209.203346 
" style="fill:none;stroke:#1f77b4;stroke-width:1.5;"/>
    <path clip-path="url(#pcd39df9889)" d="M 78.770938 93.15781 
L 78.770938 79.418004 
" style="fill:none;stroke:#1f77b4;stroke-width:1.5;"/>
    <path clip-path="url(#pcd39df9889)" d="M 87.450938 58.644705 
L 87.450938 48.780483 
" style="fill:none;stroke:#1f77b4;stroke-width:1.5;"/>
    <path clip-path="url(#pcd39df9889)" d="M 96.130938 166.126001 
L 96.130938 148.005736 
" style="fill:none;stroke:#1f77b4;stroke-width:1.5;"/>
    <path clip-path="url(#pcd39df9889)" d="M 104.810938 278.47053 
L 104.810938 268.349014 
" style="fill:none;stroke:#1f77b4;stroke-width:1.5;"/>
    <path clip-path="url(#pcd39df9889)" d="M 113.490938 285.031348 
L 113.490938 276.17353 
" style="fill:none;stroke:#1f77b4;stroke-width:1.5;"/>
    <path clip-path="url(#pcd39df9889)" d="M 122.170938 159.993687 
L 122.170938 142.60902 
" style="fill:none;stroke:#1f77b4;stroke-width:1.5;"/>
    <path clip-path="url(#pcd39df9889)" d="M 130.850938 67.382801 
L 130.850938 56.473699 
" style="fill:none;stroke:#1f77b4;stroke-width:1.5;"/>
    <path clip-path="url(#pcd39df9889)" d="M 139.530938 109.131372 
L 139.530938 93.073354 
" style="fill:none;stroke:#1f77b4;stroke-width:1.5;"/>
    <path clip-path="url(#pcd39df9889)" d="M 148.210938 222.995225 
L 148.210938 206.386075 
" style="fill:none;stroke:#1f77b4;stroke-width:1.5;"/>
    <path clip-path="url(#pcd39df9889)" d="M 156.890938 292.473656 
L 156.890938 286.907569 
" style="fill:none;stroke:#1f77b4;stroke-width:1.5;"/>
    <path clip-path="url(#pcd39df9889)" d="M 165.570938 222.995225 
L 165.570938 206.386075 
" style="fill:none;stroke:#1f77b4;stroke-width:1.5;"/>
    <path clip-path="url(#pcd39df9889)" d="M 174.250938 113.032683 
L 174.250938 96.703515 
" style="fill:none;stroke:#1f77b4;stroke-width:1.5;"/>
    <path clip-path="url(#pcd39df9889)" d="M 182.930938 69.929109 
L 182.930938 58.636312 
" style="fill:none;stroke:#1f77b4;stroke-width:1.5;"/>
    <path clip-path="url(#pcd39df9889)" d="M 191.610938 155.007926 
L 191.610938 137.474485 
" style="fill:none;stroke:#1f77b4;stroke-width:1.5;"/>
    <path clip-path="url(#pcd39df9889)" d="M 200.290938 270.695926 
L 200.290938 259.060574 
" style="fill:none;stroke:#1f77b4;stroke-width:1.5;"/>
    <path clip-path="url(#pcd39df9889)" d="M 208.970938 276.054947 
L 208.970938 265.066006 
" style="fill:none;stroke:#1f77b4;stroke-width:1.5;"/>
    <path clip-path="url(#pcd39df9889)" d="M 217.650938 173.976339 
L 217.650938 156.196161 
" style="fill:none;stroke:#1f77b4;stroke-width:1.5;"/>
    <path clip-path="url(#pcd39df9889)" d="M 226.330938 74.764551 
L 226.330938 62.665191 
" style="fill:none;stroke:#1f77b4;stroke-width:1.5;"/>
    <path clip-path="url(#pcd39df9889)" d="M 235.010938 88.388234 
L 235.010938 74.426782 
" style="fill:none;stroke:#1f77b4;stroke-width:1.5;"/>
    <path clip-path="url(#pcd39df9889)" d="M 243.690938 234.995774 
L 243.690938 219.357046 
" style="fill:none;stroke:#1f77b4;stroke-width:1.5;"/>
    <path clip-path="url(#pcd39df9889)" d="M 252.370938 283.680061 
L 252.370938 274.752119 
" style="fill:none;stroke:#1f77b4;stroke-width:1.5;"/>
    <path clip-path="url(#pcd39df9889)" d="M 261.050938 234.143024 
L 261.050938 218.477582 
" style="fill:none;stroke:#1f77b4;stroke-width:1.5;"/>
    <path clip-path="url(#pcd39df9889)" d="M 269.730938 132.513164 
L 269.730938 115.428136 
" style="fill:none;stroke:#1f77b4;stroke-width:1.5;"/>
    <path clip-path="url(#pcd39df9889)" d="M 278.410938 68.295421 
L 278.410938 57.124771 
" style="fill:none;stroke:#1f77b4;stroke-width:1.5;"/>
    <path clip-path="url(#pcd39df9889)" d="M 287.090938 143.45634 
L 287.090938 126.874903 
" style="fill:none;stroke:#1f77b4;stroke-width:1.5;"/>
    <path clip-path="url(#pcd39df9889)" d="M 295.770938 265.661893 
L 295.770938 252.864645 
" style="fill:none;stroke:#1f77b4;stroke-width:1.5;"/>
    <path clip-path="url(#pcd39df9889)" d="M 304.450938 279.204746 
L 304.450938 269.142348 
" style="fill:none;stroke:#1f77b4;stroke-width:1.5;"/>
    <path clip-path="url(#pcd39df9889)" d="M 313.130938 182.154551 
L 313.130938 164.49225 
" style="fill:none;stroke:#1f77b4;stroke-width:1.5;"/>
    <path clip-path="url(#pcd39df9889)" d="M 321.810938 88.13018 
L 321.810938 74.074449 
" style="fill:none;stroke:#1f77b4;stroke-width:1.5;"/>
    <path clip-path="url(#pcd39df9889)" d="M 330.490938 90.016766 
L 330.490938 76.405592 
" style="fill:none;stroke:#1f77b4;stroke-width:1.5;"/>
    <path clip-path="url(#pcd39df9889)" d="M 339.170938 212.013079 
L 339.170938 195.171 
" style="fill:none;stroke:#1f77b4;stroke-width:1.5;"/>
    <path clip-path="url(#pcd39df9889)" d="M 347.850938 273.535232 
L 347.850938 262.553825 
" style="fill:none;stroke:#1f77b4;stroke-width:1.5;"/>
    <path clip-path="url(#pcd39df9889)" d="M 356.530938 248.935636 
L 356.530938 233.625939 
" style="fill:none;stroke:#1f77b4;stroke-width:1.5;"/>
    <path clip-path="url(#pcd39df9889)" d="M 365.210938 136.810899 
L 365.210938 119.705601 
" style="fill:none;stroke:#1f77b4;stroke-width:1.5;"/>
    <path clip-path="url(#pcd39df9889)" d="M 373.890938 79.877173 
L 373.890938 66.968447 
" style="fill:none;stroke:#1f77b4;stroke-width:1.5;"/>
    <path clip-path="url(#pcd39df9889)" d="M 382.570938 145.333998 
L 382.570938 127.754831 
" style="fill:none;stroke:#1f77b4;stroke-width:1.5;"/>
    <path clip-path="url(#pcd39df9889)" d="M 391.250938 244.237845 
L 391.250938 229.692766 
" style="fill:none;stroke:#1f77b4;stroke-width:1.5;"/>
    <path clip-path="url(#pcd39df9889)" d="M 399.930938 263.77106 
L 399.930938 251.012358 
" style="fill:none;stroke:#1f77b4;stroke-width:1.5;"/>
    <path clip-path="url(#pcd39df9889)" d="M 408.610938 190.617337 
L 408.610938 172.704195 
" style="fill:none;stroke:#1f77b4;stroke-width:1.5;"/>
   </g>
   <g id="LineCollection_2">
    <path clip-path="url(#pcd39df9889)" d="M 61.410938 293.318268 
L 61.410938 286.326567 
" style="fill:none;stroke:#d62728;stroke-width:1.5;"/>
    <path clip-path="url(#pcd39df9889)" d="M 70.090938 255.825558 
L 70.090938 239.26707 
" style="fill:none;stroke:#d62728;stroke-width:1.5;"/>
    <path clip-path="url(#pcd39df9889)" d="M 78.770938 181.576976 
L 78.770938 160.630481 
" style="fill:none;stroke:#d62728;stroke-width:1.5;"/>
    <path clip-path="url(#pcd39df9889)" d="M 87.450938 119.506194 
L 87.450938 100.388915 
" style="fill:none;stroke:#d62728;stroke-width:1.5;"/>
    <path clip-path="url(#pcd39df9889)" d="M 96.130938 138.862975 
L 96.130938 118.603925 
" style="fill:none;stroke:#d62728;stroke-width:1.5;"/>
    <path clip-path="url(#pcd39df9889)" d="M 104.810938 163.368475 
L 104.810938 142.475851 
" style="fill:none;stroke:#d62728;stroke-width:1.5;"/>
    <path clip-path="url(#pcd39df9889)" d="M 113.490938 203.475501 
L 113.490938 182.532999 
" style="fill:none;stroke:#d62728;stroke-width:1.5;"/>
    <path clip-path="url(#pcd39df9889)" d="M 122.170938 224.387527 
L 122.170938 204.388973 
" style="fill:none;stroke:#d62728;stroke-width:1.5;"/>
    <path clip-path="url(#pcd39df9889)" d="M 130.850938 177.68203 
L 130.850938 157.455349 
" style="fill:none;stroke:#d62728;stroke-width:1.5;"/>
    <path clip-path="url(#pcd39df9889)" d="M 139.530938 165.569339 
L 139.530938 143.900281 
" style="fill:none;stroke:#d62728;stroke-width:1.5;"/>
    <path clip-path="url(#pcd39df9889)" d="M 148.210938 133.953734 
L 148.210938 113.009944 
" style="fill:none;stroke:#d62728;stroke-width:1.5;"/>
    <path clip-path="url(#pcd39df9889)" d="M 156.890938 174.850646 
L 156.890938 154.133854 
" style="fill:none;stroke:#d62728;stroke-width:1.5;"/>
    <path clip-path="url(#pcd39df9889)" d="M 165.570938 201.062909 
L 165.570938 180.823374 
" style="fill:none;stroke:#d62728;stroke-width:1.5;"/>
    <path clip-path="url(#pcd39df9889)" d="M 174.250938 203.524988 
L 174.250938 181.381599 
" style="fill:none;stroke:#d62728;stroke-width:1.5;"/>
    <path clip-path="url(#pcd39df9889)" d="M 182.930938 203.672317 
L 182.930938 182.941533 
" style="fill:none;stroke:#d62728;stroke-width:1.5;"/>
    <path clip-path="url(#pcd39df9889)" d="M 191.610938 152.742204 
L 191.610938 132.668401 
" style="fill:none;stroke:#d62728;stroke-width:1.5;"/>
   </g>
   <g id="line2d_25">
    <path clip-path="url(#pcd39df9889)" d="M 61.410938 297.056409 
L 62.839418 297.056409 
L 63.196538 293.753377 
L 63.910778 291.562354 
L 64.267898 289.473861 
L 66.767738 268.084968 
L 67.481978 260.252301 
L 67.839098 254.894874 
L 68.196218 251.41651 
L 69.267578 236.76162 
L 72.124538 193.124411 
L 72.838778 180.999822 
L 73.553018 169.706108 
L 73.910138 162.763363 
L 74.267258 158.103401 
L 76.409978 122.549333 
L 79.266938 84.168931 
L 79.624058 81.364787 
L 80.695418 69.75991 
L 81.052538 66.121967 
L 81.409658 63.968875 
L 82.481018 55.803452 
L 82.838138 53.211929 
L 83.909498 48.845249 
L 84.623738 47.259055 
L 84.980858 47.259055 
L 85.337978 46.02463 
L 85.695098 47.259055 
L 86.052218 45.233691 
L 86.409338 46.777626 
L 86.766458 48.906954 
L 87.837818 51.70838 
L 88.194938 54.759002 
L 88.552058 55.543381 
L 88.909178 59.246219 
L 89.266298 60.984724 
L 89.623418 65.854035 
L 89.980538 68.110155 
L 90.694778 75.452735 
L 91.051898 77.422439 
L 92.123258 90.087905 
L 92.480378 95.926255 
L 92.837498 99.725601 
L 93.551738 110.292713 
L 93.908858 114.122954 
L 94.265978 120.906867 
L 94.980218 130.711108 
L 98.908538 194.082753 
L 99.265658 198.808001 
L 99.979898 211.341093 
L 100.694138 221.714 
L 102.836858 251.74535 
L 103.551098 258.915439 
L 104.979578 273.654783 
L 106.050938 282.946737 
L 106.408058 284.157269 
L 106.765178 287.053683 
L 107.122298 287.583068 
L 107.479418 291.274373 
L 107.836538 292.533693 
L 108.193658 292.533693 
L 108.907898 294.721341 
L 109.265018 295.190186 
L 109.622138 294.463239 
L 109.979258 295.190186 
L 110.336378 294.545506 
L 111.407738 290.693577 
L 111.764858 289.537565 
L 112.121978 287.053683 
L 112.479098 286.077926 
L 112.836218 283.888534 
L 113.193338 280.546371 
L 113.550458 278.779092 
L 113.907578 273.878509 
L 114.264698 271.76948 
L 115.336058 261.645841 
L 115.693178 256.283436 
L 116.050298 252.658523 
L 119.264378 208.648201 
L 124.264058 128.978036 
L 127.121018 91.698092 
L 128.192378 79.12802 
L 129.620858 66.031015 
L 131.049338 57.31599 
L 132.120698 52.249434 
L 132.477818 45.233691 
L 132.834938 50.816244 
L 133.192058 49.950027 
L 133.549178 50.601601 
L 133.906298 50.974587 
L 134.263418 51.927798 
L 134.620538 51.098008 
L 135.691898 54.940895 
L 136.049018 57.463056 
L 136.406138 58.517737 
L 136.763258 60.220677 
L 137.477498 65.722372 
L 137.834618 69.973116 
L 138.191738 71.934427 
L 138.548858 74.652062 
L 139.620218 87.070866 
L 141.048698 103.582919 
L 149.976698 237.469559 
L 150.333818 241.036978 
L 151.048058 250.471907 
L 151.405178 253.996086 
L 151.762298 259.267168 
L 152.476538 265.00148 
L 152.833658 269.06735 
L 153.190778 271.304001 
L 154.262138 280.048198 
L 154.619258 282.619728 
L 155.333498 286.123853 
L 155.690618 286.009035 
L 156.047738 288.766302 
L 156.404858 289.599709 
L 156.761978 291.051351 
L 157.119098 292.02384 
L 157.833338 291.602642 
L 158.190458 290.58172 
L 158.547578 290.693577 
L 158.904698 289.016458 
L 159.261818 288.167809 
L 159.976058 285.732665 
L 161.047418 279.242715 
L 162.118778 269.831814 
L 162.475898 267.676763 
L 163.547258 257.831948 
L 164.618618 243.59996 
L 165.332858 236.007576 
L 166.404218 219.603744 
L 166.761338 215.725914 
L 170.332538 161.88766 
L 171.403898 144.714427 
L 171.761018 140.128705 
L 172.475258 129.126161 
L 173.546618 114.11789 
L 174.617978 100.892159 
L 175.689338 87.896901 
L 176.760698 77.306575 
L 177.117818 75.358723 
L 177.474938 71.526013 
L 177.832058 69.729651 
L 178.903418 61.520606 
L 179.260538 60.951251 
L 179.974778 57.712347 
L 180.331898 57.991767 
L 180.689018 55.211099 
L 181.046138 55.135143 
L 181.760378 55.236417 
L 182.117498 55.803452 
L 182.474618 55.294993 
L 183.188858 58.378505 
L 183.545978 58.240262 
L 184.260218 62.52393 
L 184.617338 63.275287 
L 184.974458 67.11006 
L 185.331578 68.564783 
L 186.045818 75.622019 
L 186.402938 76.717488 
L 187.117178 85.09725 
L 187.474298 87.61568 
L 189.259898 109.394179 
L 189.617018 114.711136 
L 189.974138 118.157048 
L 192.473978 154.073489 
L 193.902458 176.6492 
L 194.616698 187.03534 
L 197.116538 223.693075 
L 197.473658 227.342164 
L 198.187898 237.219009 
L 200.330618 261.121179 
L 201.759098 272.719354 
L 202.116218 274.598544 
L 202.473338 278.08804 
L 202.830458 279.781599 
L 203.187578 280.80187 
L 203.901818 284.869063 
L 204.973178 286.322075 
L 205.330298 286.416117 
L 205.687418 286.896364 
L 206.044538 286.505882 
L 206.401658 287.453144 
L 207.115898 284.911081 
L 207.473018 284.157269 
L 208.187258 280.142242 
L 208.544378 278.941121 
L 209.972858 269.577985 
L 210.329978 265.40954 
L 210.687098 263.084798 
L 211.758458 252.838068 
L 212.115578 247.207892 
L 212.472698 244.015434 
L 212.829818 238.577395 
L 213.544058 230.961848 
L 214.615418 217.017536 
L 214.972538 210.672162 
L 215.329658 206.668999 
L 215.686778 200.552278 
L 216.401018 191.272803 
L 217.115258 180.325227 
L 217.829498 169.605342 
L 218.543738 158.809348 
L 219.257978 147.72101 
L 220.329338 134.43533 
L 221.043578 123.173022 
L 222.472058 103.673205 
L 222.829178 101.55789 
L 224.257658 86.095096 
L 224.614778 84.168931 
L 225.329018 76.799024 
L 226.400378 68.51776 
L 227.114618 65.867201 
L 227.471738 63.685267 
L 227.828858 63.437409 
L 228.900218 59.814002 
L 229.257338 59.670372 
L 229.971578 60.238001 
L 230.685818 60.480534 
L 231.042938 62.226228 
L 231.757178 64.040431 
L 233.185658 71.60034 
L 233.542778 75.678447 
L 233.899898 77.387369 
L 235.328378 90.224664 
L 236.399738 101.386725 
L 237.471098 114.746404 
L 237.828218 120.098206 
L 238.185338 123.768244 
L 241.042298 164.51174 
L 241.756538 174.196615 
L 244.256378 210.914669 
L 246.041978 233.614029 
L 246.756218 242.322058 
L 247.113338 245.275097 
L 247.827578 253.597601 
L 249.256058 266.614704 
L 249.613178 268.313714 
L 250.327418 273.619516 
L 250.684538 275.526279 
L 251.041658 279.044289 
L 251.398778 279.272638 
L 251.755898 280.110894 
L 252.113018 281.913509 
L 252.470138 281.181089 
L 252.827258 283.578746 
L 253.184378 282.800448 
L 253.541498 283.951093 
L 253.898618 283.334655 
L 254.255738 283.118406 
L 254.612858 283.248824 
L 255.684218 279.538396 
L 256.041338 278.721006 
L 256.398458 275.526279 
L 258.184057 264.418823 
L 260.326778 243.030419 
L 260.683898 238.188654 
L 261.398138 230.873492 
L 262.112378 221.407202 
L 269.969018 113.325098 
L 271.754618 93.23003 
L 272.468858 86.960962 
L 272.825978 83.751755 
L 273.183098 81.590732 
L 273.540218 78.546098 
L 273.897338 76.51066 
L 274.254458 73.363983 
L 275.682938 67.13506 
L 276.040058 65.012083 
L 276.397178 65.174408 
L 276.754298 64.651206 
L 277.111418 64.637298 
L 277.468538 63.868697 
L 277.825658 63.598138 
L 278.539898 65.201462 
L 278.897018 65.485452 
L 279.254138 66.108974 
L 280.325498 70.6852 
L 281.039738 75.311247 
L 281.753978 78.589409 
L 282.111098 83.08563 
L 282.825338 88.818562 
L 283.182458 92.303107 
L 283.539578 97.076338 
L 283.896698 99.206141 
L 285.682298 120.276439 
L 289.610618 174.051149 
L 291.396218 199.833871 
L 292.110458 208.216268 
L 292.824698 218.935669 
L 293.538938 227.508428 
L 294.253178 235.485553 
L 296.038778 255.212026 
L 297.824378 269.087503 
L 298.538618 273.413086 
L 298.895738 276.009755 
L 299.252858 276.142147 
L 299.609978 277.989293 
L 299.967098 278.186787 
L 300.324218 280.371176 
L 300.681338 280.866621 
L 301.038458 280.25196 
L 301.395578 279.935891 
L 301.752698 280.753306 
L 302.109818 279.317523 
L 302.466938 279.843316 
L 302.824058 278.985336 
L 303.181178 277.611078 
L 303.538298 277.611078 
L 303.895418 275.292537 
L 304.252538 274.336497 
L 304.609658 271.455921 
L 305.323898 268.006751 
L 305.681018 265.86173 
L 308.180858 242.080613 
L 309.252218 229.438545 
L 309.966458 219.353324 
L 310.323578 217.217832 
L 310.680698 210.917922 
L 311.394938 201.920959 
L 313.180538 177.086294 
L 313.537658 170.95964 
L 313.894778 167.733287 
L 316.037498 137.764678 
L 316.751738 128.773254 
L 318.180218 111.224304 
L 319.608698 96.884983 
L 319.965818 92.158376 
L 320.322938 89.73516 
L 320.680058 86.235114 
L 321.751418 79.43601 
L 322.465658 73.828263 
L 322.822778 74.068253 
L 323.537018 69.365701 
L 323.894138 69.11309 
L 324.251258 68.126055 
L 324.608378 67.497018 
L 324.965498 67.287179 
L 325.322618 66.344467 
L 325.679738 66.997563 
L 326.036857 66.018022 
L 326.393978 67.497018 
L 326.751098 68.013815 
L 327.822458 71.892406 
L 328.179578 73.663221 
L 328.536698 74.831458 
L 329.250938 79.544614 
L 329.965178 85.537314 
L 331.750778 100.629214 
L 332.465018 108.320473 
L 335.679098 148.699018 
L 336.750458 164.24058 
L 338.536058 188.167235 
L 338.893178 194.259447 
L 339.250298 198.115849 
L 340.678778 217.297019 
L 341.393018 226.375535 
L 342.464378 238.718467 
L 343.535738 249.57605 
L 344.249978 255.409009 
L 345.678458 267.477816 
L 347.106938 275.138699 
L 347.464058 275.627559 
L 347.821178 277.421662 
L 348.178298 277.558811 
L 348.892538 279.477628 
L 349.249658 279.690313 
L 349.963898 278.721006 
L 350.321018 278.292603 
L 350.678138 276.48873 
L 351.035258 276.671205 
L 351.392378 274.92886 
L 351.749498 274.336497 
L 352.106618 272.776106 
L 352.820858 267.967643 
L 353.535098 264.109013 
L 355.320698 249.980409 
L 355.677818 245.07269 
L 356.392058 237.854518 
L 360.677498 182.893564 
L 365.320058 121.674321 
L 367.462778 98.148709 
L 369.248378 83.320233 
L 369.962618 78.857937 
L 371.033978 73.877637 
L 371.391098 72.712115 
L 371.748218 70.366444 
L 372.105338 69.354219 
L 372.462458 69.285325 
L 373.176698 68.888631 
L 373.533818 68.411591 
L 373.890938 68.670584 
L 374.248058 69.136054 
L 376.033658 75.330238 
L 376.390778 77.07987 
L 376.747898 77.836009 
L 377.105018 81.542167 
L 377.462138 83.187514 
L 378.890618 94.734051 
L 379.247738 99.159174 
L 379.604858 101.985422 
L 381.747578 125.868091 
L 389.604218 229.29528 
L 391.746938 252.174764 
L 393.175418 263.648718 
L 394.961018 273.26206 
L 395.318138 274.476633 
L 395.675258 274.92886 
L 396.032378 277.284513 
L 396.389498 277.339373 
L 396.746618 278.546747 
L 397.103738 278.590311 
L 398.175098 278.144467 
L 398.532218 276.580895 
L 398.889338 276.357067 
L 399.246458 274.879486 
L 399.603578 274.432836 
L 399.960698 273.506026 
L 400.317818 270.397694 
L 400.674938 269.527084 
L 401.389178 263.066911 
L 401.746298 261.712227 
L 402.817657 252.623995 
L 403.889018 242.115881 
L 405.674618 222.500207 
L 406.031738 217.101381 
L 406.388858 213.712527 
L 407.460218 198.964816 
L 408.888698 180.410568 
L 409.602938 169.899579 
L 412.459898 132.472116 
L 414.245498 110.687825 
L 414.959738 104.926849 
L 415.673978 95.713755 
L 416.031098 93.655361 
L 416.745338 87.01905 
L 417.102458 85.633836 
L 418.173818 77.671536 
L 418.530938 76.327653 
L 418.530938 76.327653 
" style="fill:none;stroke:#1f77b4;stroke-linecap:square;stroke-width:1.5;"/>
   </g>
   <g id="line2d_26">
    <path clip-path="url(#pcd39df9889)" d="M 61.410938 297.053029 
L 62.006138 297.051741 
L 62.303738 296.720735 
L 62.601338 297.053029 
L 62.898938 295.773685 
L 63.196538 295.746941 
L 63.791738 293.803988 
L 64.089338 293.671447 
L 64.386938 291.78679 
L 64.684538 291.314107 
L 64.982138 289.851949 
L 65.279738 289.193884 
L 65.577338 287.565885 
L 65.874938 286.623997 
L 66.172538 284.467912 
L 66.470138 283.502248 
L 66.767738 281.528924 
L 67.065338 281.193762 
L 67.660538 275.374954 
L 68.255738 273.044225 
L 68.553338 271.385886 
L 68.850938 267.833287 
L 69.148538 266.645271 
L 69.743738 262.061796 
L 70.338938 255.762441 
L 70.636538 254.372604 
L 72.719738 234.970836 
L 74.802938 214.779156 
L 75.398138 207.380476 
L 75.695738 205.635479 
L 75.993338 201.367601 
L 76.290938 199.320992 
L 76.588538 195.269212 
L 76.886138 193.22914 
L 77.778938 183.904873 
L 78.671738 174.180291 
L 80.159738 159.588813 
L 80.457338 155.867403 
L 80.754938 154.149082 
L 81.350138 149.321076 
L 82.242938 139.634914 
L 82.540538 138.74005 
L 83.135738 133.407702 
L 83.730938 129.627947 
L 84.028538 127.393567 
L 84.326138 124.282258 
L 84.623738 122.852009 
L 85.218938 117.515325 
L 85.516538 116.816058 
L 85.814138 114.121723 
L 86.111738 113.061391 
L 86.409338 110.728349 
L 87.004538 107.78587 
L 87.302138 107.753796 
L 87.599738 106.60409 
L 87.897338 104.103462 
L 88.194938 102.896447 
L 88.492538 102.42052 
L 88.790138 100.97688 
L 89.087738 100.138215 
L 89.385338 98.936315 
L 89.682938 99.546704 
L 89.980538 97.069036 
L 90.278138 98.028898 
L 90.575738 96.674821 
L 90.873338 95.914929 
L 91.170938 96.540622 
L 91.468538 95.263752 
L 92.063738 96.632121 
L 92.658938 94.396056 
L 92.956538 95.686428 
L 94.146938 97.311545 
L 94.444538 97.269106 
L 94.742138 97.422317 
L 95.337338 99.664371 
L 95.634938 100.344861 
L 95.932538 102.159165 
L 96.230138 102.238708 
L 96.825338 104.020142 
L 97.122938 104.620225 
L 97.420538 105.88802 
L 98.015738 109.090592 
L 98.313338 110.189921 
L 99.206138 115.30564 
L 99.503738 115.834033 
L 99.801338 118.922496 
L 100.098938 119.635142 
L 100.694138 122.903844 
L 104.265338 146.868411 
L 104.562938 147.839807 
L 104.860538 150.523696 
L 105.455738 154.1037 
L 106.050938 158.721363 
L 106.348538 160.038906 
L 106.646138 163.059672 
L 109.324538 179.716124 
L 109.622138 182.63119 
L 109.919738 183.3954 
L 110.514938 187.013754 
L 110.812538 187.689046 
L 111.407738 191.845968 
L 111.705338 193.827756 
L 112.002938 194.876821 
L 112.895738 200.122499 
L 113.193338 200.664841 
L 113.490938 202.593183 
L 113.788538 203.079435 
L 114.086138 204.467901 
L 114.383738 205.045942 
L 115.871738 209.598285 
L 116.466938 212.191841 
L 116.764538 211.905107 
L 117.062138 213.910267 
L 117.359738 213.666297 
L 117.657338 213.026476 
L 117.954938 214.589547 
L 118.252538 214.15884 
L 118.550138 214.30282 
L 118.847738 214.654291 
L 119.145338 215.939232 
L 119.442938 213.868838 
L 119.740538 216.139958 
L 120.038138 215.168312 
L 120.335738 215.929896 
L 120.633338 214.959516 
L 120.930938 215.070741 
L 121.228538 214.085189 
L 121.526138 215.395977 
L 121.823738 214.25195 
L 122.121338 214.534051 
L 122.418938 212.870688 
L 122.716538 212.934836 
L 123.014138 212.301305 
L 123.311738 211.931866 
L 123.609338 211.019884 
L 123.906938 210.739674 
L 124.204538 209.679268 
L 124.502138 209.656773 
L 124.799738 209.273363 
L 125.097338 207.074198 
L 125.394938 206.614577 
L 125.692538 205.314313 
L 126.287738 204.393438 
L 127.180538 200.471147 
L 128.073338 197.813715 
L 128.370938 195.451147 
L 128.668538 194.506067 
L 128.966138 192.85995 
L 129.561338 190.520132 
L 130.454138 186.32545 
L 130.751738 185.475555 
L 131.049338 183.567963 
L 131.346938 183.69944 
L 131.644538 180.591758 
L 131.942138 180.755428 
L 132.239738 178.373444 
L 132.537338 177.3058 
L 132.834938 176.865702 
L 133.132538 174.567414 
L 133.727738 172.386801 
L 134.322938 169.5906 
L 134.620538 168.324396 
L 134.918138 166.46228 
L 136.406138 160.934999 
L 136.703738 158.962776 
L 137.596538 156.627504 
L 137.894138 155.019606 
L 138.191738 154.309985 
L 138.489338 152.702302 
L 138.786938 152.453728 
L 139.084538 150.081419 
L 139.382138 150.161756 
L 139.679738 149.981154 
L 140.274938 148.452326 
L 140.572538 147.185335 
L 140.870138 146.994804 
L 141.167738 145.853051 
L 141.465338 145.537571 
L 141.762938 145.520647 
L 142.060538 143.740701 
L 142.358138 143.74495 
L 142.655738 142.965375 
L 142.953338 143.133077 
L 143.250938 142.000953 
L 143.548538 143.093396 
L 143.846138 142.248459 
L 144.441338 141.639076 
L 144.738938 141.437645 
L 145.334138 140.794783 
L 145.631738 141.609075 
L 145.929338 140.914784 
L 146.226938 141.343359 
L 146.524538 140.585377 
L 146.822138 140.641333 
L 147.417338 142.534372 
L 147.714938 142.662393 
L 148.012538 142.064963 
L 148.310138 143.067792 
L 148.607738 143.226558 
L 148.905338 144.267592 
L 149.202938 143.439014 
L 149.500538 145.055233 
L 149.798138 145.177933 
L 150.095738 145.16524 
L 150.393338 146.906329 
L 150.690938 147.613259 
L 150.988538 147.739119 
L 151.286138 148.091527 
L 151.583738 149.747203 
L 151.881338 149.797335 
L 152.178938 151.226774 
L 152.476538 151.588714 
L 152.774138 151.289178 
L 153.071738 152.196869 
L 153.369338 153.777769 
L 153.666938 154.235722 
L 153.964538 156.118031 
L 154.262138 156.594635 
L 154.857338 158.610886 
L 155.154938 159.535621 
L 155.750138 162.208002 
L 156.345338 163.805393 
L 156.642938 163.58127 
L 156.940538 165.525035 
L 157.535738 167.228376 
L 158.428538 171.916033 
L 158.726138 171.595423 
L 159.023738 172.338101 
L 159.916538 176.657878 
L 160.214138 176.771977 
L 160.511738 178.381594 
L 160.809338 178.569043 
L 161.702138 181.987044 
L 161.999738 182.150714 
L 162.297338 182.853057 
L 162.594938 184.811317 
L 162.892538 185.162002 
L 163.190138 185.178504 
L 163.487738 186.872896 
L 163.785338 186.947468 
L 164.082938 188.46791 
L 164.380538 189.01829 
L 164.678138 190.357883 
L 164.975738 190.191474 
L 165.273338 190.964471 
L 165.570938 191.344643 
L 165.868538 192.92288 
L 166.463738 192.385878 
L 166.761338 194.939191 
L 167.058938 194.156378 
L 167.356538 194.687231 
L 167.654138 194.771493 
L 167.951738 195.501919 
L 168.249338 195.493457 
L 168.546938 196.136575 
L 168.844538 195.857326 
L 169.142138 196.884455 
L 169.439738 195.662699 
L 169.737338 197.058669 
L 170.034938 197.67716 
L 170.332538 196.506283 
L 170.927738 197.523535 
L 171.522938 197.237132 
L 172.118138 196.684746 
L 172.415738 197.462335 
L 172.713338 196.608262 
L 173.308538 196.697493 
L 173.606138 195.552692 
L 173.903738 195.599233 
L 174.498938 194.792558 
L 174.796538 194.088969 
L 175.094138 194.725149 
L 175.391738 193.313047 
L 175.986938 192.255822 
L 176.284538 193.094889 
L 176.582138 191.620371 
L 177.474938 189.39687 
L 177.772538 189.579921 
L 178.070138 187.916905 
L 178.367738 188.405767 
L 178.665338 186.379084 
L 178.962938 186.337827 
L 179.260538 185.133122 
L 179.558138 185.842743 
L 179.855738 183.97472 
L 180.153338 183.152989 
L 180.450938 182.750341 
L 180.748538 180.902731 
L 181.046138 181.225979 
L 181.938938 178.17377 
L 182.236538 178.035221 
L 183.129338 173.507919 
L 183.426938 174.783387 
L 183.724538 173.145712 
L 184.022138 172.601893 
L 184.319738 170.990729 
L 184.617338 170.402269 
L 184.914938 170.840571 
L 185.212538 169.192882 
L 185.510138 169.209115 
L 185.807738 167.220226 
L 186.402938 165.345736 
L 186.700538 165.007512 
L 186.998138 165.101237 
L 187.295738 164.017292 
L 187.593338 163.357146 
L 187.890938 162.236526 
L 188.188538 162.481025 
L 188.486138 160.808155 
L 188.783738 160.640393 
L 189.081338 160.280319 
L 189.378938 159.654281 
L 189.676538 159.564263 
L 189.974138 158.287402 
L 190.271738 159.314666 
L 190.866938 156.097488 
L 191.462138 155.904381 
L 191.759738 155.271274 
L 192.057338 155.663216 
L 192.354938 154.95772 
L 193.247738 153.72826 
L 193.842938 153.72826 
L 194.438138 152.607016 
L 194.735738 152.946733 
L 195.033338 152.130583 
L 195.330938 152.979876 
L 195.926138 151.815723 
L 196.223738 151.935867 
L 196.818938 152.810017 
L 197.116538 152.263155 
L 197.414138 153.535024 
L 197.711738 152.619444 
L 198.009338 153.290593 
L 198.306938 153.588882 
L 198.604538 153.54331 
L 198.902138 154.421379 
L 199.199738 153.93042 
L 199.497338 154.070694 
L 199.794938 155.436302 
L 200.092538 154.619413 
L 200.390138 154.578156 
L 201.282938 157.412258 
L 201.580538 156.853481 
L 201.878138 158.64362 
L 202.175738 158.934134 
L 202.473338 160.030722 
L 202.770938 159.875236 
L 203.068538 160.210759 
L 203.366138 160.804063 
L 203.663738 160.783604 
L 203.961338 161.417825 
L 204.258938 163.336771 
L 204.556538 162.631799 
L 204.854138 163.890968 
L 205.449338 164.453315 
L 205.746938 166.466355 
L 206.044538 167.155026 
L 206.342138 167.411267 
L 206.639738 168.571955 
L 206.937338 168.222937 
L 207.234938 169.322749 
L 207.532538 169.773225 
L 208.127738 171.77399 
L 208.425338 171.993141 
L 208.722938 172.772344 
L 209.020538 174.489989 
L 209.318138 174.620388 
L 209.615738 175.533184 
L 209.913338 175.920307 
L 210.210938 176.930902 
L 210.210938 176.930902 
" style="fill:none;stroke:#d62728;stroke-linecap:square;stroke-width:1.5;"/>
   </g>
   <g id="line2d_27">
    <defs>
     <path d="M 0 3 
C 0.795609 3 1.55874 2.683901 2.12132 2.12132 
C 2.683901 1.55874 3 0.795609 3 0 
C 3 -0.795609 2.683901 -1.55874 2.12132 -2.12132 
C 1.55874 -2.683901 0.795609 -3 0 -3 
C -0.795609 -3 -1.55874 -2.683901 -2.12132 -2.12132 
C -2.683901 -1.55874 -3 -0.795609 -3 0 
C -3 0.795609 -2.683901 1.55874 -2.12132 2.12132 
C -1.55874 2.683901 -0.795609 3 0 3 
z
" id="mcb2457e3ba" style="stroke:#1f77b4;"/>
    </defs>
    <g clip-path="url(#pcd39df9889)">
     <use style="fill:#1f77b4;stroke:#1f77b4;" x="61.410938" xlink:href="#mcb2457e3ba" y="296.95689"/>
     <use style="fill:#1f77b4;stroke:#1f77b4;" x="70.090938" xlink:href="#mcb2457e3ba" y="217.35825"/>
     <use style="fill:#1f77b4;stroke:#1f77b4;" x="78.770938" xlink:href="#mcb2457e3ba" y="86.287907"/>
     <use style="fill:#1f77b4;stroke:#1f77b4;" x="87.450938" xlink:href="#mcb2457e3ba" y="53.712594"/>
     <use style="fill:#1f77b4;stroke:#1f77b4;" x="96.130938" xlink:href="#mcb2457e3ba" y="157.065869"/>
     <use style="fill:#1f77b4;stroke:#1f77b4;" x="104.810938" xlink:href="#mcb2457e3ba" y="273.409772"/>
     <use style="fill:#1f77b4;stroke:#1f77b4;" x="113.490938" xlink:href="#mcb2457e3ba" y="280.602439"/>
     <use style="fill:#1f77b4;stroke:#1f77b4;" x="122.170938" xlink:href="#mcb2457e3ba" y="151.301353"/>
     <use style="fill:#1f77b4;stroke:#1f77b4;" x="130.850938" xlink:href="#mcb2457e3ba" y="61.92825"/>
     <use style="fill:#1f77b4;stroke:#1f77b4;" x="139.530938" xlink:href="#mcb2457e3ba" y="101.102363"/>
     <use style="fill:#1f77b4;stroke:#1f77b4;" x="148.210938" xlink:href="#mcb2457e3ba" y="214.69065"/>
     <use style="fill:#1f77b4;stroke:#1f77b4;" x="156.890938" xlink:href="#mcb2457e3ba" y="289.690612"/>
     <use style="fill:#1f77b4;stroke:#1f77b4;" x="165.570938" xlink:href="#mcb2457e3ba" y="214.69065"/>
     <use style="fill:#1f77b4;stroke:#1f77b4;" x="174.250938" xlink:href="#mcb2457e3ba" y="104.868099"/>
     <use style="fill:#1f77b4;stroke:#1f77b4;" x="182.930938" xlink:href="#mcb2457e3ba" y="64.28271"/>
     <use style="fill:#1f77b4;stroke:#1f77b4;" x="191.610938" xlink:href="#mcb2457e3ba" y="146.241206"/>
     <use style="fill:#1f77b4;stroke:#1f77b4;" x="200.290938" xlink:href="#mcb2457e3ba" y="264.87825"/>
     <use style="fill:#1f77b4;stroke:#1f77b4;" x="208.970938" xlink:href="#mcb2457e3ba" y="270.560476"/>
     <use style="fill:#1f77b4;stroke:#1f77b4;" x="217.650938" xlink:href="#mcb2457e3ba" y="165.08625"/>
     <use style="fill:#1f77b4;stroke:#1f77b4;" x="226.330938" xlink:href="#mcb2457e3ba" y="68.714871"/>
     <use style="fill:#1f77b4;stroke:#1f77b4;" x="235.010938" xlink:href="#mcb2457e3ba" y="81.407508"/>
     <use style="fill:#1f77b4;stroke:#1f77b4;" x="243.690938" xlink:href="#mcb2457e3ba" y="227.17641"/>
     <use style="fill:#1f77b4;stroke:#1f77b4;" x="252.370938" xlink:href="#mcb2457e3ba" y="279.21609"/>
     <use style="fill:#1f77b4;stroke:#1f77b4;" x="261.050938" xlink:href="#mcb2457e3ba" y="226.310303"/>
     <use style="fill:#1f77b4;stroke:#1f77b4;" x="269.730938" xlink:href="#mcb2457e3ba" y="123.97065"/>
     <use style="fill:#1f77b4;stroke:#1f77b4;" x="278.410938" xlink:href="#mcb2457e3ba" y="62.710096"/>
     <use style="fill:#1f77b4;stroke:#1f77b4;" x="287.090938" xlink:href="#mcb2457e3ba" y="135.165621"/>
     <use style="fill:#1f77b4;stroke:#1f77b4;" x="295.770938" xlink:href="#mcb2457e3ba" y="259.263269"/>
     <use style="fill:#1f77b4;stroke:#1f77b4;" x="304.450938" xlink:href="#mcb2457e3ba" y="274.173547"/>
     <use style="fill:#1f77b4;stroke:#1f77b4;" x="313.130938" xlink:href="#mcb2457e3ba" y="173.3234"/>
     <use style="fill:#1f77b4;stroke:#1f77b4;" x="321.810938" xlink:href="#mcb2457e3ba" y="81.102315"/>
     <use style="fill:#1f77b4;stroke:#1f77b4;" x="330.490938" xlink:href="#mcb2457e3ba" y="83.211179"/>
     <use style="fill:#1f77b4;stroke:#1f77b4;" x="339.170938" xlink:href="#mcb2457e3ba" y="203.592039"/>
     <use style="fill:#1f77b4;stroke:#1f77b4;" x="347.850938" xlink:href="#mcb2457e3ba" y="268.044528"/>
     <use style="fill:#1f77b4;stroke:#1f77b4;" x="356.530938" xlink:href="#mcb2457e3ba" y="241.280787"/>
     <use style="fill:#1f77b4;stroke:#1f77b4;" x="365.210938" xlink:href="#mcb2457e3ba" y="128.25825"/>
     <use style="fill:#1f77b4;stroke:#1f77b4;" x="373.890938" xlink:href="#mcb2457e3ba" y="73.42281"/>
     <use style="fill:#1f77b4;stroke:#1f77b4;" x="382.570938" xlink:href="#mcb2457e3ba" y="136.544414"/>
     <use style="fill:#1f77b4;stroke:#1f77b4;" x="391.250938" xlink:href="#mcb2457e3ba" y="236.965305"/>
     <use style="fill:#1f77b4;stroke:#1f77b4;" x="399.930938" xlink:href="#mcb2457e3ba" y="257.391709"/>
     <use style="fill:#1f77b4;stroke:#1f77b4;" x="408.610938" xlink:href="#mcb2457e3ba" y="181.660766"/>
    </g>
   </g>
   <g id="line2d_28">
    <defs>
     <path d="M 0 3 
C 0.795609 3 1.55874 2.683901 2.12132 2.12132 
C 2.683901 1.55874 3 0.795609 3 0 
C 3 -0.795609 2.683901 -1.55874 2.12132 -2.12132 
C 1.55874 -2.683901 0.795609 -3 0 -3 
C -0.795609 -3 -1.55874 -2.683901 -2.12132 -2.12132 
C -2.683901 -1.55874 -3 -0.795609 -3 0 
C -3 0.795609 -2.683901 1.55874 -2.12132 2.12132 
C -1.55874 2.683901 -0.795609 3 0 3 
z
" id="m4d17eb6f4c" style="stroke:#d62728;"/>
    </defs>
    <g clip-path="url(#pcd39df9889)">
     <use style="fill:#d62728;stroke:#d62728;" x="61.410938" xlink:href="#m4d17eb6f4c" y="289.822418"/>
     <use style="fill:#d62728;stroke:#d62728;" x="70.090938" xlink:href="#m4d17eb6f4c" y="247.546314"/>
     <use style="fill:#d62728;stroke:#d62728;" x="78.770938" xlink:href="#m4d17eb6f4c" y="171.103728"/>
     <use style="fill:#d62728;stroke:#d62728;" x="87.450938" xlink:href="#m4d17eb6f4c" y="109.947554"/>
     <use style="fill:#d62728;stroke:#d62728;" x="96.130938" xlink:href="#m4d17eb6f4c" y="128.73345"/>
     <use style="fill:#d62728;stroke:#d62728;" x="104.810938" xlink:href="#m4d17eb6f4c" y="152.922163"/>
     <use style="fill:#d62728;stroke:#d62728;" x="113.490938" xlink:href="#m4d17eb6f4c" y="193.00425"/>
     <use style="fill:#d62728;stroke:#d62728;" x="122.170938" xlink:href="#m4d17eb6f4c" y="214.38825"/>
     <use style="fill:#d62728;stroke:#d62728;" x="130.850938" xlink:href="#m4d17eb6f4c" y="167.568689"/>
     <use style="fill:#d62728;stroke:#d62728;" x="139.530938" xlink:href="#m4d17eb6f4c" y="154.73481"/>
     <use style="fill:#d62728;stroke:#d62728;" x="148.210938" xlink:href="#m4d17eb6f4c" y="123.481839"/>
     <use style="fill:#d62728;stroke:#d62728;" x="156.890938" xlink:href="#m4d17eb6f4c" y="164.49225"/>
     <use style="fill:#d62728;stroke:#d62728;" x="165.570938" xlink:href="#m4d17eb6f4c" y="190.943142"/>
     <use style="fill:#d62728;stroke:#d62728;" x="174.250938" xlink:href="#m4d17eb6f4c" y="192.453293"/>
     <use style="fill:#d62728;stroke:#d62728;" x="182.930938" xlink:href="#m4d17eb6f4c" y="193.306925"/>
     <use style="fill:#d62728;stroke:#d62728;" x="191.610938" xlink:href="#m4d17eb6f4c" y="142.705303"/>
    </g>
   </g>
   <g id="patch_3">
    <path d="M 61.410938 297.54825 
L 61.410938 31.43625 
" style="fill:none;stroke:#000000;stroke-linecap:square;stroke-linejoin:miter;stroke-width:0.8;"/>
   </g>
   <g id="patch_4">
    <path d="M 418.530938 297.54825 
L 418.530938 31.43625 
" style="fill:none;stroke:#000000;stroke-linecap:square;stroke-linejoin:miter;stroke-width:0.8;"/>
   </g>
   <g id="patch_5">
    <path d="M 61.410938 297.54825 
L 418.530938 297.54825 
" style="fill:none;stroke:#000000;stroke-linecap:square;stroke-linejoin:miter;stroke-width:0.8;"/>
   </g>
   <g id="patch_6">
    <path d="M 61.410938 31.43625 
L 418.530938 31.43625 
" style="fill:none;stroke:#000000;stroke-linecap:square;stroke-linejoin:miter;stroke-width:0.8;"/>
   </g>
   <g id="text_15">
    <!-- (C) -->
    <defs>
     <path d="M 64.40625 67.28125 
L 64.40625 56.890625 
Q 59.421875 61.53125 53.78125 63.8125 
Q 48.140625 66.109375 41.796875 66.109375 
Q 29.296875 66.109375 22.65625 58.46875 
Q 16.015625 50.828125 16.015625 36.375 
Q 16.015625 21.96875 22.65625 14.328125 
Q 29.296875 6.6875 41.796875 6.6875 
Q 48.140625 6.6875 53.78125 8.984375 
Q 59.421875 11.28125 64.40625 15.921875 
L 64.40625 5.609375 
Q 59.234375 2.09375 53.4375 0.328125 
Q 47.65625 -1.421875 41.21875 -1.421875 
Q 24.65625 -1.421875 15.125 8.703125 
Q 5.609375 18.84375 5.609375 36.375 
Q 5.609375 53.953125 15.125 64.078125 
Q 24.65625 74.21875 41.21875 74.21875 
Q 47.75 74.21875 53.53125 72.484375 
Q 59.328125 70.75 64.40625 67.28125 
z
" id="DejaVuSans-43"/>
    </defs>
    <g transform="translate(381.330938 58.04745)scale(0.2 -0.2)">
     <use xlink:href="#DejaVuSans-28"/>
     <use x="39.013672" xlink:href="#DejaVuSans-43"/>
     <use x="108.837891" xlink:href="#DejaVuSans-29"/>
    </g>
   </g>
   <g id="text_16">
    <!-- X carrier -->
    <defs>
     <path d="M 6.296875 72.90625 
L 16.890625 72.90625 
L 35.015625 45.796875 
L 53.21875 72.90625 
L 63.8125 72.90625 
L 40.375 37.890625 
L 65.375 0 
L 54.78125 0 
L 34.28125 31 
L 13.625 0 
L 2.984375 0 
L 29 38.921875 
z
" id="DejaVuSans-58"/>
     <path d="M 48.78125 52.59375 
L 48.78125 44.1875 
Q 44.96875 46.296875 41.140625 47.34375 
Q 37.3125 48.390625 33.40625 48.390625 
Q 24.65625 48.390625 19.8125 42.84375 
Q 14.984375 37.3125 14.984375 27.296875 
Q 14.984375 17.28125 19.8125 11.734375 
Q 24.65625 6.203125 33.40625 6.203125 
Q 37.3125 6.203125 41.140625 7.25 
Q 44.96875 8.296875 48.78125 10.40625 
L 48.78125 2.09375 
Q 45.015625 0.34375 40.984375 -0.53125 
Q 36.96875 -1.421875 32.421875 -1.421875 
Q 20.0625 -1.421875 12.78125 6.34375 
Q 5.515625 14.109375 5.515625 27.296875 
Q 5.515625 40.671875 12.859375 48.328125 
Q 20.21875 56 33.015625 56 
Q 37.15625 56 41.109375 55.140625 
Q 45.0625 54.296875 48.78125 52.59375 
z
" id="DejaVuSans-63"/>
    </defs>
    <g transform="translate(188.470313 25.43625)scale(0.24 -0.24)">
     <use xlink:href="#DejaVuSans-58"/>
     <use x="68.505859" xlink:href="#DejaVuSans-20"/>
     <use x="100.292969" xlink:href="#DejaVuSans-63"/>
     <use x="155.273438" xlink:href="#DejaVuSans-61"/>
     <use x="216.552734" xlink:href="#DejaVuSans-72"/>
     <use x="257.650391" xlink:href="#DejaVuSans-72"/>
     <use x="298.763672" xlink:href="#DejaVuSans-69"/>
     <use x="326.546875" xlink:href="#DejaVuSans-65"/>
     <use x="388.070312" xlink:href="#DejaVuSans-72"/>
    </g>
   </g>
   <g id="legend_1">
    <g id="patch_7">
     <path d="M 296.074687 196.8485 
L 404.530937 196.8485 
Q 408.530937 196.8485 408.530937 192.8485 
L 408.530937 136.136 
Q 408.530937 132.136 404.530937 132.136 
L 296.074687 132.136 
Q 292.074687 132.136 292.074687 136.136 
L 292.074687 192.8485 
Q 292.074687 196.8485 296.074687 196.8485 
z
" style="fill:#ffffff;opacity:0.8;stroke:#cccccc;stroke-linejoin:miter;"/>
    </g>
    <g id="LineCollection_3">
     <path d="M 320.074687 158.332875 
L 320.074687 138.332875 
" style="fill:none;stroke:#1f77b4;stroke-width:1.5;"/>
    </g>
    <g id="line2d_29"/>
    <g id="line2d_30">
     <g>
      <use style="fill:#1f77b4;stroke:#1f77b4;" x="320.074687" xlink:href="#mcb2457e3ba" y="148.332875"/>
     </g>
    </g>
    <g id="text_17">
     <!-- Cold -->
     <defs>
      <path d="M 30.609375 48.390625 
Q 23.390625 48.390625 19.1875 42.75 
Q 14.984375 37.109375 14.984375 27.296875 
Q 14.984375 17.484375 19.15625 11.84375 
Q 23.34375 6.203125 30.609375 6.203125 
Q 37.796875 6.203125 41.984375 11.859375 
Q 46.1875 17.53125 46.1875 27.296875 
Q 46.1875 37.015625 41.984375 42.703125 
Q 37.796875 48.390625 30.609375 48.390625 
z
M 30.609375 56 
Q 42.328125 56 49.015625 48.375 
Q 55.71875 40.765625 55.71875 27.296875 
Q 55.71875 13.875 49.015625 6.21875 
Q 42.328125 -1.421875 30.609375 -1.421875 
Q 18.84375 -1.421875 12.171875 6.21875 
Q 5.515625 13.875 5.515625 27.296875 
Q 5.515625 40.765625 12.171875 48.375 
Q 18.84375 56 30.609375 56 
z
" id="DejaVuSans-6f"/>
      <path d="M 45.40625 46.390625 
L 45.40625 75.984375 
L 54.390625 75.984375 
L 54.390625 0 
L 45.40625 0 
L 45.40625 8.203125 
Q 42.578125 3.328125 38.25 0.953125 
Q 33.9375 -1.421875 27.875 -1.421875 
Q 17.96875 -1.421875 11.734375 6.484375 
Q 5.515625 14.40625 5.515625 27.296875 
Q 5.515625 40.1875 11.734375 48.09375 
Q 17.96875 56 27.875 56 
Q 33.9375 56 38.25 53.625 
Q 42.578125 51.265625 45.40625 46.390625 
z
M 14.796875 27.296875 
Q 14.796875 17.390625 18.875 11.75 
Q 22.953125 6.109375 30.078125 6.109375 
Q 37.203125 6.109375 41.296875 11.75 
Q 45.40625 17.390625 45.40625 27.296875 
Q 45.40625 37.203125 41.296875 42.84375 
Q 37.203125 48.484375 30.078125 48.484375 
Q 22.953125 48.484375 18.875 42.84375 
Q 14.796875 37.203125 14.796875 27.296875 
z
" id="DejaVuSans-64"/>
     </defs>
     <g transform="translate(356.074687 155.332875)scale(0.2 -0.2)">
      <use xlink:href="#DejaVuSans-43"/>
      <use x="69.824219" xlink:href="#DejaVuSans-6f"/>
      <use x="131.005859" xlink:href="#DejaVuSans-6c"/>
      <use x="158.789062" xlink:href="#DejaVuSans-64"/>
     </g>
    </g>
    <g id="LineCollection_4">
     <path d="M 320.074687 187.689125 
L 320.074687 167.689125 
" style="fill:none;stroke:#d62728;stroke-width:1.5;"/>
    </g>
    <g id="line2d_31"/>
    <g id="line2d_32">
     <g>
      <use style="fill:#d62728;stroke:#d62728;" x="320.074687" xlink:href="#m4d17eb6f4c" y="177.689125"/>
     </g>
    </g>
    <g id="text_18">
     <!-- Hot -->
     <defs>
      <path d="M 9.8125 72.90625 
L 19.671875 72.90625 
L 19.671875 43.015625 
L 55.515625 43.015625 
L 55.515625 72.90625 
L 65.375 72.90625 
L 65.375 0 
L 55.515625 0 
L 55.515625 34.71875 
L 19.671875 34.71875 
L 19.671875 0 
L 9.8125 0 
z
" id="DejaVuSans-48"/>
      <path d="M 18.3125 70.21875 
L 18.3125 54.6875 
L 36.8125 54.6875 
L 36.8125 47.703125 
L 18.3125 47.703125 
L 18.3125 18.015625 
Q 18.3125 11.328125 20.140625 9.421875 
Q 21.96875 7.515625 27.59375 7.515625 
L 36.8125 7.515625 
L 36.8125 0 
L 27.59375 0 
Q 17.1875 0 13.234375 3.875 
Q 9.28125 7.765625 9.28125 18.015625 
L 9.28125 47.703125 
L 2.6875 47.703125 
L 2.6875 54.6875 
L 9.28125 54.6875 
L 9.28125 70.21875 
z
" id="DejaVuSans-74"/>
     </defs>
     <g transform="translate(356.074687 184.689125)scale(0.2 -0.2)">
      <use xlink:href="#DejaVuSans-48"/>
      <use x="75.195312" xlink:href="#DejaVuSans-6f"/>
      <use x="136.376953" xlink:href="#DejaVuSans-74"/>
     </g>
    </g>
   </g>
  </g>
 </g>
 <defs>
  <clipPath id="pcd39df9889">
   <rect height="266.112" width="357.12" x="61.410938" y="31.43625"/>
  </clipPath>
 </defs>
</svg>
