<?xml version="1.0" encoding="utf-8" standalone="no"?>
<!DOCTYPE svg PUBLIC "-//W3C//DTD SVG 1.1//EN"
  "http://www.w3.org/Graphics/SVG/1.1/DTD/svg11.dtd">
<!-- Created with matplotlib (http://matplotlib.org/) -->
<svg height="349pt" version="1.1" viewBox="0 0 429 349" width="429pt" xmlns="http://www.w3.org/2000/svg" xmlns:xlink="http://www.w3.org/1999/xlink">
 <defs>
  <style type="text/css">
*{stroke-linecap:butt;stroke-linejoin:round;}
  </style>
 </defs>
 <g id="figure_1">
  <g id="patch_1">
   <path d="M 0 349.665437 
L 429.230937 349.665437 
L 429.230937 0 
L 0 0 
z
" style="fill:none;"/>
  </g>
  <g id="axes_1">
   <g id="patch_2">
    <path d="M 61.410938 297.54825 
L 418.530938 297.54825 
L 418.530938 31.43625 
L 61.410938 31.43625 
z
" style="fill:none;"/>
   </g>
   <g id="matplotlib.axis_1">
    <g id="xtick_1">
     <g id="line2d_1">
      <path clip-path="url(#pcd39df9889)" d="M 61.410938 297.54825 
L 61.410938 31.43625 
" style="fill:none;stroke:#b0b0b0;stroke-linecap:square;stroke-width:0.8;"/>
     </g>
     <g id="line2d_2">
      <defs>
       <path d="M 0 0 
L 0 3.5 
" id="m005f0a59be" style="stroke:#000000;stroke-width:0.8;"/>
      </defs>
      <g>
       <use style="stroke:#000000;stroke-width:0.8;" x="61.410938" xlink:href="#m005f0a59be" y="297.54825"/>
      </g>
     </g>
     <g id="text_1">
      <!-- 0 -->
      <defs>
       <path d="M 31.78125 66.40625 
Q 24.171875 66.40625 20.328125 58.90625 
Q 16.5 51.421875 16.5 36.375 
Q 16.5 21.390625 20.328125 13.890625 
Q 24.171875 6.390625 31.78125 6.390625 
Q 39.453125 6.390625 43.28125 13.890625 
Q 47.125 21.390625 47.125 36.375 
Q 47.125 51.421875 43.28125 58.90625 
Q 39.453125 66.40625 31.78125 66.40625 
z
M 31.78125 74.21875 
Q 44.046875 74.21875 50.515625 64.515625 
Q 56.984375 54.828125 56.984375 36.375 
Q 56.984375 17.96875 50.515625 8.265625 
Q 44.046875 -1.421875 31.78125 -1.421875 
Q 19.53125 -1.421875 13.0625 8.265625 
Q 6.59375 17.96875 6.59375 36.375 
Q 6.59375 54.828125 13.0625 64.515625 
Q 19.53125 74.21875 31.78125 74.21875 
z
" id="DejaVuSans-30"/>
      </defs>
      <g transform="translate(56.639063 315.945906)scale(0.15 -0.15)">
       <use xlink:href="#DejaVuSans-30"/>
      </g>
     </g>
    </g>
    <g id="xtick_2">
     <g id="line2d_3">
      <path clip-path="url(#pcd39df9889)" d="M 155.389885 297.54825 
L 155.389885 31.43625 
" style="fill:none;stroke:#b0b0b0;stroke-linecap:square;stroke-width:0.8;"/>
     </g>
     <g id="line2d_4">
      <g>
       <use style="stroke:#000000;stroke-width:0.8;" x="155.389885" xlink:href="#m005f0a59be" y="297.54825"/>
      </g>
     </g>
     <g id="text_2">
      <!-- 50 -->
      <defs>
       <path d="M 10.796875 72.90625 
L 49.515625 72.90625 
L 49.515625 64.59375 
L 19.828125 64.59375 
L 19.828125 46.734375 
Q 21.96875 47.46875 24.109375 47.828125 
Q 26.265625 48.1875 28.421875 48.1875 
Q 40.625 48.1875 47.75 41.5 
Q 54.890625 34.8125 54.890625 23.390625 
Q 54.890625 11.625 47.5625 5.09375 
Q 40.234375 -1.421875 26.90625 -1.421875 
Q 22.3125 -1.421875 17.546875 -0.640625 
Q 12.796875 0.140625 7.71875 1.703125 
L 7.71875 11.625 
Q 12.109375 9.234375 16.796875 8.0625 
Q 21.484375 6.890625 26.703125 6.890625 
Q 35.15625 6.890625 40.078125 11.328125 
Q 45.015625 15.765625 45.015625 23.390625 
Q 45.015625 31 40.078125 35.4375 
Q 35.15625 39.890625 26.703125 39.890625 
Q 22.75 39.890625 18.8125 39.015625 
Q 14.890625 38.140625 10.796875 36.28125 
z
" id="DejaVuSans-35"/>
      </defs>
      <g transform="translate(145.846135 315.945906)scale(0.15 -0.15)">
       <use xlink:href="#DejaVuSans-35"/>
       <use x="63.623047" xlink:href="#DejaVuSans-30"/>
      </g>
     </g>
    </g>
    <g id="xtick_3">
     <g id="line2d_5">
      <path clip-path="url(#pcd39df9889)" d="M 249.368832 297.54825 
L 249.368832 31.43625 
" style="fill:none;stroke:#b0b0b0;stroke-linecap:square;stroke-width:0.8;"/>
     </g>
     <g id="line2d_6">
      <g>
       <use style="stroke:#000000;stroke-width:0.8;" x="249.368832" xlink:href="#m005f0a59be" y="297.54825"/>
      </g>
     </g>
     <g id="text_3">
      <!-- 100 -->
      <defs>
       <path d="M 12.40625 8.296875 
L 28.515625 8.296875 
L 28.515625 63.921875 
L 10.984375 60.40625 
L 10.984375 69.390625 
L 28.421875 72.90625 
L 38.28125 72.90625 
L 38.28125 8.296875 
L 54.390625 8.296875 
L 54.390625 0 
L 12.40625 0 
z
" id="DejaVuSans-31"/>
      </defs>
      <g transform="translate(235.053207 315.945906)scale(0.15 -0.15)">
       <use xlink:href="#DejaVuSans-31"/>
       <use x="63.623047" xlink:href="#DejaVuSans-30"/>
       <use x="127.246094" xlink:href="#DejaVuSans-30"/>
      </g>
     </g>
    </g>
    <g id="xtick_4">
     <g id="line2d_7">
      <path clip-path="url(#pcd39df9889)" d="M 343.34778 297.54825 
L 343.34778 31.43625 
" style="fill:none;stroke:#b0b0b0;stroke-linecap:square;stroke-width:0.8;"/>
     </g>
     <g id="line2d_8">
      <g>
       <use style="stroke:#000000;stroke-width:0.8;" x="343.34778" xlink:href="#m005f0a59be" y="297.54825"/>
      </g>
     </g>
     <g id="text_4">
      <!-- 150 -->
      <g transform="translate(329.032155 315.945906)scale(0.15 -0.15)">
       <use xlink:href="#DejaVuSans-31"/>
       <use x="63.623047" xlink:href="#DejaVuSans-35"/>
       <use x="127.246094" xlink:href="#DejaVuSans-30"/>
      </g>
     </g>
    </g>
    <g id="text_5">
     <!-- Time ($\mu s$) -->
     <defs>
      <path d="M -0.296875 72.90625 
L 61.375 72.90625 
L 61.375 64.59375 
L 35.5 64.59375 
L 35.5 0 
L 25.59375 0 
L 25.59375 64.59375 
L -0.296875 64.59375 
z
" id="DejaVuSans-54"/>
      <path d="M 9.421875 54.6875 
L 18.40625 54.6875 
L 18.40625 0 
L 9.421875 0 
z
M 9.421875 75.984375 
L 18.40625 75.984375 
L 18.40625 64.59375 
L 9.421875 64.59375 
z
" id="DejaVuSans-69"/>
      <path d="M 52 44.1875 
Q 55.375 50.25 60.0625 53.125 
Q 64.75 56 71.09375 56 
Q 79.640625 56 84.28125 50.015625 
Q 88.921875 44.046875 88.921875 33.015625 
L 88.921875 0 
L 79.890625 0 
L 79.890625 32.71875 
Q 79.890625 40.578125 77.09375 44.375 
Q 74.3125 48.1875 68.609375 48.1875 
Q 61.625 48.1875 57.5625 43.546875 
Q 53.515625 38.921875 53.515625 30.90625 
L 53.515625 0 
L 44.484375 0 
L 44.484375 32.71875 
Q 44.484375 40.625 41.703125 44.40625 
Q 38.921875 48.1875 33.109375 48.1875 
Q 26.21875 48.1875 22.15625 43.53125 
Q 18.109375 38.875 18.109375 30.90625 
L 18.109375 0 
L 9.078125 0 
L 9.078125 54.6875 
L 18.109375 54.6875 
L 18.109375 46.1875 
Q 21.1875 51.21875 25.484375 53.609375 
Q 29.78125 56 35.6875 56 
Q 41.65625 56 45.828125 52.96875 
Q 50 49.953125 52 44.1875 
z
" id="DejaVuSans-6d"/>
      <path d="M 56.203125 29.59375 
L 56.203125 25.203125 
L 14.890625 25.203125 
Q 15.484375 15.921875 20.484375 11.0625 
Q 25.484375 6.203125 34.421875 6.203125 
Q 39.59375 6.203125 44.453125 7.46875 
Q 49.3125 8.734375 54.109375 11.28125 
L 54.109375 2.78125 
Q 49.265625 0.734375 44.1875 -0.34375 
Q 39.109375 -1.421875 33.890625 -1.421875 
Q 20.796875 -1.421875 13.15625 6.1875 
Q 5.515625 13.8125 5.515625 26.8125 
Q 5.515625 40.234375 12.765625 48.109375 
Q 20.015625 56 32.328125 56 
Q 43.359375 56 49.78125 48.890625 
Q 56.203125 41.796875 56.203125 29.59375 
z
M 47.21875 32.234375 
Q 47.125 39.59375 43.09375 43.984375 
Q 39.0625 48.390625 32.421875 48.390625 
Q 24.90625 48.390625 20.390625 44.140625 
Q 15.875 39.890625 15.1875 32.171875 
z
" id="DejaVuSans-65"/>
      <path id="DejaVuSans-20"/>
      <path d="M 31 75.875 
Q 24.46875 64.65625 21.28125 53.65625 
Q 18.109375 42.671875 18.109375 31.390625 
Q 18.109375 20.125 21.3125 9.0625 
Q 24.515625 -2 31 -13.1875 
L 23.1875 -13.1875 
Q 15.875 -1.703125 12.234375 9.375 
Q 8.59375 20.453125 8.59375 31.390625 
Q 8.59375 42.28125 12.203125 53.3125 
Q 15.828125 64.359375 23.1875 75.875 
z
" id="DejaVuSans-28"/>
      <path d="M -1.3125 -20.796875 
L 13.375 54.6875 
L 22.40625 54.6875 
L 15.765625 20.65625 
Q 15.578125 19.625 15.421875 18.359375 
Q 15.28125 17.09375 15.28125 15.828125 
Q 15.28125 11.28125 18.140625 8.828125 
Q 21 6.390625 26.3125 6.390625 
Q 33.546875 6.390625 37.984375 10.484375 
Q 42.4375 14.59375 44 22.796875 
L 50.203125 54.6875 
L 59.1875 54.6875 
L 51.03125 12.640625 
Q 50.828125 11.71875 50.75 11.03125 
Q 50.6875 10.359375 50.6875 9.8125 
Q 50.6875 8.296875 51.296875 7.59375 
Q 51.90625 6.890625 53.21875 6.890625 
Q 53.71875 6.890625 54.5625 7.125 
Q 55.421875 7.375 56.984375 8.015625 
L 55.609375 0.78125 
Q 53.46875 -0.296875 51.515625 -0.859375 
Q 49.5625 -1.421875 47.703125 -1.421875 
Q 44.484375 -1.421875 42.65625 0.625 
Q 40.828125 2.6875 40.828125 6.296875 
Q 38.09375 2.390625 34.296875 0.484375 
Q 30.515625 -1.421875 25.390625 -1.421875 
Q 20.84375 -1.421875 17.453125 0.671875 
Q 14.0625 2.78125 12.984375 6.203125 
L 7.71875 -20.796875 
z
" id="DejaVuSans-Oblique-3bc"/>
      <path d="M 50 53.078125 
L 48.296875 44.578125 
Q 44.734375 46.53125 40.765625 47.5 
Q 36.8125 48.484375 32.625 48.484375 
Q 25.53125 48.484375 21.453125 46.0625 
Q 17.390625 43.65625 17.390625 39.5 
Q 17.390625 34.671875 26.859375 32.078125 
Q 27.59375 31.890625 27.9375 31.78125 
L 30.8125 30.90625 
Q 39.796875 28.421875 42.796875 25.6875 
Q 45.796875 22.953125 45.796875 18.21875 
Q 45.796875 9.515625 38.890625 4.046875 
Q 31.984375 -1.421875 20.796875 -1.421875 
Q 16.453125 -1.421875 11.671875 -0.578125 
Q 6.890625 0.25 1.125 2 
L 2.875 11.28125 
Q 7.8125 8.734375 12.59375 7.421875 
Q 17.390625 6.109375 21.78125 6.109375 
Q 28.375 6.109375 32.5 8.9375 
Q 36.625 11.765625 36.625 16.109375 
Q 36.625 20.796875 25.78125 23.6875 
L 24.859375 23.921875 
L 21.78125 24.703125 
Q 14.9375 26.515625 11.765625 29.46875 
Q 8.59375 32.421875 8.59375 37.015625 
Q 8.59375 45.75 15.15625 50.875 
Q 21.734375 56 33.015625 56 
Q 37.453125 56 41.671875 55.265625 
Q 45.90625 54.546875 50 53.078125 
z
" id="DejaVuSans-Oblique-73"/>
      <path d="M 8.015625 75.875 
L 15.828125 75.875 
Q 23.140625 64.359375 26.78125 53.3125 
Q 30.421875 42.28125 30.421875 31.390625 
Q 30.421875 20.453125 26.78125 9.375 
Q 23.140625 -1.703125 15.828125 -13.1875 
L 8.015625 -13.1875 
Q 14.5 -2 17.703125 9.0625 
Q 20.90625 20.125 20.90625 31.390625 
Q 20.90625 42.671875 17.703125 53.65625 
Q 14.5 64.65625 8.015625 75.875 
z
" id="DejaVuSans-29"/>
     </defs>
     <g transform="translate(192.570938 338.265437)scale(0.2 -0.2)">
      <use transform="translate(0 0.015625)" xlink:href="#DejaVuSans-54"/>
      <use transform="translate(61.083984 0.015625)" xlink:href="#DejaVuSans-69"/>
      <use transform="translate(88.867188 0.015625)" xlink:href="#DejaVuSans-6d"/>
      <use transform="translate(186.279297 0.015625)" xlink:href="#DejaVuSans-65"/>
      <use transform="translate(247.802734 0.015625)" xlink:href="#DejaVuSans-20"/>
      <use transform="translate(279.589844 0.015625)" xlink:href="#DejaVuSans-28"/>
      <use transform="translate(318.603516 0.015625)" xlink:href="#DejaVuSans-Oblique-3bc"/>
      <use transform="translate(382.226562 0.015625)" xlink:href="#DejaVuSans-Oblique-73"/>
      <use transform="translate(434.326172 0.015625)" xlink:href="#DejaVuSans-29"/>
     </g>
    </g>
   </g>
   <g id="matplotlib.axis_2">
    <g id="ytick_1">
     <g id="line2d_9">
      <path clip-path="url(#pcd39df9889)" d="M 61.410938 297.54825 
L 418.530938 297.54825 
" style="fill:none;stroke:#b0b0b0;stroke-linecap:square;stroke-width:0.8;"/>
     </g>
     <g id="line2d_10">
      <defs>
       <path d="M 0 0 
L -3.5 0 
" id="mc3ce260a5b" style="stroke:#000000;stroke-width:0.8;"/>
      </defs>
      <g>
       <use style="stroke:#000000;stroke-width:0.8;" x="61.410938" xlink:href="#mc3ce260a5b" y="297.54825"/>
      </g>
     </g>
     <g id="text_6">
      <!-- 0.0 -->
      <defs>
       <path d="M 10.6875 12.40625 
L 21 12.40625 
L 21 0 
L 10.6875 0 
z
" id="DejaVuSans-2e"/>
      </defs>
      <g transform="translate(30.55625 303.247078)scale(0.15 -0.15)">
       <use xlink:href="#DejaVuSans-30"/>
       <use x="63.623047" xlink:href="#DejaVuSans-2e"/>
       <use x="95.410156" xlink:href="#DejaVuSans-30"/>
      </g>
     </g>
    </g>
    <g id="ytick_2">
     <g id="line2d_11">
      <path clip-path="url(#pcd39df9889)" d="M 61.410938 244.32585 
L 418.530938 244.32585 
" style="fill:none;stroke:#b0b0b0;stroke-linecap:square;stroke-width:0.8;"/>
     </g>
     <g id="line2d_12">
      <g>
       <use style="stroke:#000000;stroke-width:0.8;" x="61.410938" xlink:href="#mc3ce260a5b" y="244.32585"/>
      </g>
     </g>
     <g id="text_7">
      <!-- 0.2 -->
      <defs>
       <path d="M 19.1875 8.296875 
L 53.609375 8.296875 
L 53.609375 0 
L 7.328125 0 
L 7.328125 8.296875 
Q 12.9375 14.109375 22.625 23.890625 
Q 32.328125 33.6875 34.8125 36.53125 
Q 39.546875 41.84375 41.421875 45.53125 
Q 43.3125 49.21875 43.3125 52.78125 
Q 43.3125 58.59375 39.234375 62.25 
Q 35.15625 65.921875 28.609375 65.921875 
Q 23.96875 65.921875 18.8125 64.3125 
Q 13.671875 62.703125 7.8125 59.421875 
L 7.8125 69.390625 
Q 13.765625 71.78125 18.9375 73 
Q 24.125 74.21875 28.421875 74.21875 
Q 39.75 74.21875 46.484375 68.546875 
Q 53.21875 62.890625 53.21875 53.421875 
Q 53.21875 48.921875 51.53125 44.890625 
Q 49.859375 40.875 45.40625 35.40625 
Q 44.1875 33.984375 37.640625 27.21875 
Q 31.109375 20.453125 19.1875 8.296875 
z
" id="DejaVuSans-32"/>
      </defs>
      <g transform="translate(30.55625 250.024678)scale(0.15 -0.15)">
       <use xlink:href="#DejaVuSans-30"/>
       <use x="63.623047" xlink:href="#DejaVuSans-2e"/>
       <use x="95.410156" xlink:href="#DejaVuSans-32"/>
      </g>
     </g>
    </g>
    <g id="ytick_3">
     <g id="line2d_13">
      <path clip-path="url(#pcd39df9889)" d="M 61.410938 191.10345 
L 418.530938 191.10345 
" style="fill:none;stroke:#b0b0b0;stroke-linecap:square;stroke-width:0.8;"/>
     </g>
     <g id="line2d_14">
      <g>
       <use style="stroke:#000000;stroke-width:0.8;" x="61.410938" xlink:href="#mc3ce260a5b" y="191.10345"/>
      </g>
     </g>
     <g id="text_8">
      <!-- 0.4 -->
      <defs>
       <path d="M 37.796875 64.3125 
L 12.890625 25.390625 
L 37.796875 25.390625 
z
M 35.203125 72.90625 
L 47.609375 72.90625 
L 47.609375 25.390625 
L 58.015625 25.390625 
L 58.015625 17.1875 
L 47.609375 17.1875 
L 47.609375 0 
L 37.796875 0 
L 37.796875 17.1875 
L 4.890625 17.1875 
L 4.890625 26.703125 
z
" id="DejaVuSans-34"/>
      </defs>
      <g transform="translate(30.55625 196.802278)scale(0.15 -0.15)">
       <use xlink:href="#DejaVuSans-30"/>
       <use x="63.623047" xlink:href="#DejaVuSans-2e"/>
       <use x="95.410156" xlink:href="#DejaVuSans-34"/>
      </g>
     </g>
    </g>
    <g id="ytick_4">
     <g id="line2d_15">
      <path clip-path="url(#pcd39df9889)" d="M 61.410938 137.88105 
L 418.530938 137.88105 
" style="fill:none;stroke:#b0b0b0;stroke-linecap:square;stroke-width:0.8;"/>
     </g>
     <g id="line2d_16">
      <g>
       <use style="stroke:#000000;stroke-width:0.8;" x="61.410938" xlink:href="#mc3ce260a5b" y="137.88105"/>
      </g>
     </g>
     <g id="text_9">
      <!-- 0.6 -->
      <defs>
       <path d="M 33.015625 40.375 
Q 26.375 40.375 22.484375 35.828125 
Q 18.609375 31.296875 18.609375 23.390625 
Q 18.609375 15.53125 22.484375 10.953125 
Q 26.375 6.390625 33.015625 6.390625 
Q 39.65625 6.390625 43.53125 10.953125 
Q 47.40625 15.53125 47.40625 23.390625 
Q 47.40625 31.296875 43.53125 35.828125 
Q 39.65625 40.375 33.015625 40.375 
z
M 52.59375 71.296875 
L 52.59375 62.3125 
Q 48.875 64.0625 45.09375 64.984375 
Q 41.3125 65.921875 37.59375 65.921875 
Q 27.828125 65.921875 22.671875 59.328125 
Q 17.53125 52.734375 16.796875 39.40625 
Q 19.671875 43.65625 24.015625 45.921875 
Q 28.375 48.1875 33.59375 48.1875 
Q 44.578125 48.1875 50.953125 41.515625 
Q 57.328125 34.859375 57.328125 23.390625 
Q 57.328125 12.15625 50.6875 5.359375 
Q 44.046875 -1.421875 33.015625 -1.421875 
Q 20.359375 -1.421875 13.671875 8.265625 
Q 6.984375 17.96875 6.984375 36.375 
Q 6.984375 53.65625 15.1875 63.9375 
Q 23.390625 74.21875 37.203125 74.21875 
Q 40.921875 74.21875 44.703125 73.484375 
Q 48.484375 72.75 52.59375 71.296875 
z
" id="DejaVuSans-36"/>
      </defs>
      <g transform="translate(30.55625 143.579878)scale(0.15 -0.15)">
       <use xlink:href="#DejaVuSans-30"/>
       <use x="63.623047" xlink:href="#DejaVuSans-2e"/>
       <use x="95.410156" xlink:href="#DejaVuSans-36"/>
      </g>
     </g>
    </g>
    <g id="ytick_5">
     <g id="line2d_17">
      <path clip-path="url(#pcd39df9889)" d="M 61.410938 84.65865 
L 418.530938 84.65865 
" style="fill:none;stroke:#b0b0b0;stroke-linecap:square;stroke-width:0.8;"/>
     </g>
     <g id="line2d_18">
      <g>
       <use style="stroke:#000000;stroke-width:0.8;" x="61.410938" xlink:href="#mc3ce260a5b" y="84.65865"/>
      </g>
     </g>
     <g id="text_10">
      <!-- 0.8 -->
      <defs>
       <path d="M 31.78125 34.625 
Q 24.75 34.625 20.71875 30.859375 
Q 16.703125 27.09375 16.703125 20.515625 
Q 16.703125 13.921875 20.71875 10.15625 
Q 24.75 6.390625 31.78125 6.390625 
Q 38.8125 6.390625 42.859375 10.171875 
Q 46.921875 13.96875 46.921875 20.515625 
Q 46.921875 27.09375 42.890625 30.859375 
Q 38.875 34.625 31.78125 34.625 
z
M 21.921875 38.8125 
Q 15.578125 40.375 12.03125 44.71875 
Q 8.5 49.078125 8.5 55.328125 
Q 8.5 64.0625 14.71875 69.140625 
Q 20.953125 74.21875 31.78125 74.21875 
Q 42.671875 74.21875 48.875 69.140625 
Q 55.078125 64.0625 55.078125 55.328125 
Q 55.078125 49.078125 51.53125 44.71875 
Q 48 40.375 41.703125 38.8125 
Q 48.828125 37.15625 52.796875 32.3125 
Q 56.78125 27.484375 56.78125 20.515625 
Q 56.78125 9.90625 50.3125 4.234375 
Q 43.84375 -1.421875 31.78125 -1.421875 
Q 19.734375 -1.421875 13.25 4.234375 
Q 6.78125 9.90625 6.78125 20.515625 
Q 6.78125 27.484375 10.78125 32.3125 
Q 14.796875 37.15625 21.921875 38.8125 
z
M 18.3125 54.390625 
Q 18.3125 48.734375 21.84375 45.5625 
Q 25.390625 42.390625 31.78125 42.390625 
Q 38.140625 42.390625 41.71875 45.5625 
Q 45.3125 48.734375 45.3125 54.390625 
Q 45.3125 60.0625 41.71875 63.234375 
Q 38.140625 66.40625 31.78125 66.40625 
Q 25.390625 66.40625 21.84375 63.234375 
Q 18.3125 60.0625 18.3125 54.390625 
z
" id="DejaVuSans-38"/>
      </defs>
      <g transform="translate(30.55625 90.357478)scale(0.15 -0.15)">
       <use xlink:href="#DejaVuSans-30"/>
       <use x="63.623047" xlink:href="#DejaVuSans-2e"/>
       <use x="95.410156" xlink:href="#DejaVuSans-38"/>
      </g>
     </g>
    </g>
    <g id="ytick_6">
     <g id="line2d_19">
      <path clip-path="url(#pcd39df9889)" d="M 61.410938 31.43625 
L 418.530938 31.43625 
" style="fill:none;stroke:#b0b0b0;stroke-linecap:square;stroke-width:0.8;"/>
     </g>
     <g id="line2d_20">
      <g>
       <use style="stroke:#000000;stroke-width:0.8;" x="61.410938" xlink:href="#mc3ce260a5b" y="31.43625"/>
      </g>
     </g>
     <g id="text_11">
      <!-- 1.0 -->
      <g transform="translate(30.55625 37.135078)scale(0.15 -0.15)">
       <use xlink:href="#DejaVuSans-31"/>
       <use x="63.623047" xlink:href="#DejaVuSans-2e"/>
       <use x="95.410156" xlink:href="#DejaVuSans-30"/>
      </g>
     </g>
    </g>
    <g id="text_12">
     <!-- Survival -->
     <defs>
      <path d="M 53.515625 70.515625 
L 53.515625 60.890625 
Q 47.90625 63.578125 42.921875 64.890625 
Q 37.9375 66.21875 33.296875 66.21875 
Q 25.25 66.21875 20.875 63.09375 
Q 16.5 59.96875 16.5 54.203125 
Q 16.5 49.359375 19.40625 46.890625 
Q 22.3125 44.4375 30.421875 42.921875 
L 36.375 41.703125 
Q 47.40625 39.59375 52.65625 34.296875 
Q 57.90625 29 57.90625 20.125 
Q 57.90625 9.515625 50.796875 4.046875 
Q 43.703125 -1.421875 29.984375 -1.421875 
Q 24.8125 -1.421875 18.96875 -0.25 
Q 13.140625 0.921875 6.890625 3.21875 
L 6.890625 13.375 
Q 12.890625 10.015625 18.65625 8.296875 
Q 24.421875 6.59375 29.984375 6.59375 
Q 38.421875 6.59375 43.015625 9.90625 
Q 47.609375 13.234375 47.609375 19.390625 
Q 47.609375 24.75 44.3125 27.78125 
Q 41.015625 30.8125 33.5 32.328125 
L 27.484375 33.5 
Q 16.453125 35.6875 11.515625 40.375 
Q 6.59375 45.0625 6.59375 53.421875 
Q 6.59375 63.09375 13.40625 68.65625 
Q 20.21875 74.21875 32.171875 74.21875 
Q 37.3125 74.21875 42.625 73.28125 
Q 47.953125 72.359375 53.515625 70.515625 
z
" id="DejaVuSans-53"/>
      <path d="M 8.5 21.578125 
L 8.5 54.6875 
L 17.484375 54.6875 
L 17.484375 21.921875 
Q 17.484375 14.15625 20.5 10.265625 
Q 23.53125 6.390625 29.59375 6.390625 
Q 36.859375 6.390625 41.078125 11.03125 
Q 45.3125 15.671875 45.3125 23.6875 
L 45.3125 54.6875 
L 54.296875 54.6875 
L 54.296875 0 
L 45.3125 0 
L 45.3125 8.40625 
Q 42.046875 3.421875 37.71875 1 
Q 33.40625 -1.421875 27.6875 -1.421875 
Q 18.265625 -1.421875 13.375 4.4375 
Q 8.5 10.296875 8.5 21.578125 
z
M 31.109375 56 
z
" id="DejaVuSans-75"/>
      <path d="M 41.109375 46.296875 
Q 39.59375 47.171875 37.8125 47.578125 
Q 36.03125 48 33.890625 48 
Q 26.265625 48 22.1875 43.046875 
Q 18.109375 38.09375 18.109375 28.8125 
L 18.109375 0 
L 9.078125 0 
L 9.078125 54.6875 
L 18.109375 54.6875 
L 18.109375 46.1875 
Q 20.953125 51.171875 25.484375 53.578125 
Q 30.03125 56 36.53125 56 
Q 37.453125 56 38.578125 55.875 
Q 39.703125 55.765625 41.0625 55.515625 
z
" id="DejaVuSans-72"/>
      <path d="M 2.984375 54.6875 
L 12.5 54.6875 
L 29.59375 8.796875 
L 46.6875 54.6875 
L 56.203125 54.6875 
L 35.6875 0 
L 23.484375 0 
z
" id="DejaVuSans-76"/>
      <path d="M 34.28125 27.484375 
Q 23.390625 27.484375 19.1875 25 
Q 14.984375 22.515625 14.984375 16.5 
Q 14.984375 11.71875 18.140625 8.90625 
Q 21.296875 6.109375 26.703125 6.109375 
Q 34.1875 6.109375 38.703125 11.40625 
Q 43.21875 16.703125 43.21875 25.484375 
L 43.21875 27.484375 
z
M 52.203125 31.203125 
L 52.203125 0 
L 43.21875 0 
L 43.21875 8.296875 
Q 40.140625 3.328125 35.546875 0.953125 
Q 30.953125 -1.421875 24.3125 -1.421875 
Q 15.921875 -1.421875 10.953125 3.296875 
Q 6 8.015625 6 15.921875 
Q 6 25.140625 12.171875 29.828125 
Q 18.359375 34.515625 30.609375 34.515625 
L 43.21875 34.515625 
L 43.21875 35.40625 
Q 43.21875 41.609375 39.140625 45 
Q 35.0625 48.390625 27.6875 48.390625 
Q 23 48.390625 18.546875 47.265625 
Q 14.109375 46.140625 10.015625 43.890625 
L 10.015625 52.203125 
Q 14.9375 54.109375 19.578125 55.046875 
Q 24.21875 56 28.609375 56 
Q 40.484375 56 46.34375 49.84375 
Q 52.203125 43.703125 52.203125 31.203125 
z
" id="DejaVuSans-61"/>
      <path d="M 9.421875 75.984375 
L 18.40625 75.984375 
L 18.40625 0 
L 9.421875 0 
z
" id="DejaVuSans-6c"/>
     </defs>
     <g transform="translate(22.396875 204.811)rotate(-90)scale(0.2 -0.2)">
      <use xlink:href="#DejaVuSans-53"/>
      <use x="63.476562" xlink:href="#DejaVuSans-75"/>
      <use x="126.855469" xlink:href="#DejaVuSans-72"/>
      <use x="167.96875" xlink:href="#DejaVuSans-76"/>
      <use x="227.148438" xlink:href="#DejaVuSans-69"/>
      <use x="254.931641" xlink:href="#DejaVuSans-76"/>
      <use x="314.111328" xlink:href="#DejaVuSans-61"/>
      <use x="375.390625" xlink:href="#DejaVuSans-6c"/>
     </g>
    </g>
   </g>
   <g id="LineCollection_1">
    <path clip-path="url(#pcd39df9889)" d="M 61.410938 297.54825 
L 61.410938 296.36553 
" style="fill:none;stroke:#1f77b4;stroke-width:1.5;"/>
    <path clip-path="url(#pcd39df9889)" d="M 72.688411 252.261748 
L 72.688411 237.657152 
" style="fill:none;stroke:#1f77b4;stroke-width:1.5;"/>
    <path clip-path="url(#pcd39df9889)" d="M 83.965885 161.934219 
L 83.965885 144.781494 
" style="fill:none;stroke:#1f77b4;stroke-width:1.5;"/>
    <path clip-path="url(#pcd39df9889)" d="M 95.243359 66.072137 
L 95.243359 55.012363 
" style="fill:none;stroke:#1f77b4;stroke-width:1.5;"/>
    <path clip-path="url(#pcd39df9889)" d="M 106.520832 67.841647 
L 106.520832 56.041897 
" style="fill:none;stroke:#1f77b4;stroke-width:1.5;"/>
    <path clip-path="url(#pcd39df9889)" d="M 117.798306 141.114922 
L 117.798306 123.507606 
" style="fill:none;stroke:#1f77b4;stroke-width:1.5;"/>
    <path clip-path="url(#pcd39df9889)" d="M 129.07578 207.908334 
L 129.07578 190.389059 
" style="fill:none;stroke:#1f77b4;stroke-width:1.5;"/>
    <path clip-path="url(#pcd39df9889)" d="M 140.353253 246.111986 
L 140.353253 231.372514 
" style="fill:none;stroke:#1f77b4;stroke-width:1.5;"/>
    <path clip-path="url(#pcd39df9889)" d="M 151.630727 216.791514 
L 151.630727 200.52428 
" style="fill:none;stroke:#1f77b4;stroke-width:1.5;"/>
    <path clip-path="url(#pcd39df9889)" d="M 162.908201 138.911201 
L 162.908201 122.129809 
" style="fill:none;stroke:#1f77b4;stroke-width:1.5;"/>
    <path clip-path="url(#pcd39df9889)" d="M 174.185674 79.913847 
L 174.185674 66.665245 
" style="fill:none;stroke:#1f77b4;stroke-width:1.5;"/>
    <path clip-path="url(#pcd39df9889)" d="M 185.463148 64.711135 
L 185.463148 54.242819 
" style="fill:none;stroke:#1f77b4;stroke-width:1.5;"/>
    <path clip-path="url(#pcd39df9889)" d="M 196.740622 113.248119 
L 196.740622 96.753612 
" style="fill:none;stroke:#1f77b4;stroke-width:1.5;"/>
    <path clip-path="url(#pcd39df9889)" d="M 208.018095 168.628778 
L 208.018095 150.977325 
" style="fill:none;stroke:#1f77b4;stroke-width:1.5;"/>
    <path clip-path="url(#pcd39df9889)" d="M 219.295569 265.115803 
L 219.295569 252.364697 
" style="fill:none;stroke:#1f77b4;stroke-width:1.5;"/>
    <path clip-path="url(#pcd39df9889)" d="M 230.573043 267.96242 
L 230.573043 255.76768 
" style="fill:none;stroke:#1f77b4;stroke-width:1.5;"/>
    <path clip-path="url(#pcd39df9889)" d="M 241.850516 199.832232 
L 241.850516 182.60708 
" style="fill:none;stroke:#1f77b4;stroke-width:1.5;"/>
    <path clip-path="url(#pcd39df9889)" d="M 253.12799 98.054799 
L 253.12799 82.951533 
" style="fill:none;stroke:#1f77b4;stroke-width:1.5;"/>
    <path clip-path="url(#pcd39df9889)" d="M 264.405464 64.307325 
L 264.405464 53.959918 
" style="fill:none;stroke:#1f77b4;stroke-width:1.5;"/>
    <path clip-path="url(#pcd39df9889)" d="M 275.682938 108.739401 
L 275.682938 93.129099 
" style="fill:none;stroke:#1f77b4;stroke-width:1.5;"/>
    <path clip-path="url(#pcd39df9889)" d="M 286.960411 197.986016 
L 286.960411 180.749858 
" style="fill:none;stroke:#1f77b4;stroke-width:1.5;"/>
    <path clip-path="url(#pcd39df9889)" d="M 298.237885 270.568695 
L 298.237885 258.621562 
" style="fill:none;stroke:#1f77b4;stroke-width:1.5;"/>
    <path clip-path="url(#pcd39df9889)" d="M 309.515359 253.296889 
L 309.515359 239.358266 
" style="fill:none;stroke:#1f77b4;stroke-width:1.5;"/>
    <path clip-path="url(#pcd39df9889)" d="M 320.792832 188.542989 
L 320.792832 170.425961 
" style="fill:none;stroke:#1f77b4;stroke-width:1.5;"/>
    <path clip-path="url(#pcd39df9889)" d="M 332.070306 99.985038 
L 332.070306 84.646255 
" style="fill:none;stroke:#1f77b4;stroke-width:1.5;"/>
    <path clip-path="url(#pcd39df9889)" d="M 343.34778 60.057906 
L 343.34778 49.700994 
" style="fill:none;stroke:#1f77b4;stroke-width:1.5;"/>
    <path clip-path="url(#pcd39df9889)" d="M 354.625253 87.663885 
L 354.625253 74.147692 
" style="fill:none;stroke:#1f77b4;stroke-width:1.5;"/>
    <path clip-path="url(#pcd39df9889)" d="M 365.902727 161.565995 
L 365.902727 143.972513 
" style="fill:none;stroke:#1f77b4;stroke-width:1.5;"/>
    <path clip-path="url(#pcd39df9889)" d="M 377.180201 234.708308 
L 377.180201 218.864992 
" style="fill:none;stroke:#1f77b4;stroke-width:1.5;"/>
    <path clip-path="url(#pcd39df9889)" d="M 388.457674 250.918914 
L 388.457674 236.523186 
" style="fill:none;stroke:#1f77b4;stroke-width:1.5;"/>
    <path clip-path="url(#pcd39df9889)" d="M 399.735148 203.745129 
L 399.735148 187.074525 
" style="fill:none;stroke:#1f77b4;stroke-width:1.5;"/>
   </g>
   <g id="LineCollection_2">
    <path clip-path="url(#pcd39df9889)" d="M 61.410938 293.318268 
L 61.410938 286.326567 
" style="fill:none;stroke:#d62728;stroke-width:1.5;"/>
    <path clip-path="url(#pcd39df9889)" d="M 72.688411 223.899953 
L 72.688411 204.876547 
" style="fill:none;stroke:#d62728;stroke-width:1.5;"/>
    <path clip-path="url(#pcd39df9889)" d="M 83.965885 102.218892 
L 83.965885 83.615704 
" style="fill:none;stroke:#d62728;stroke-width:1.5;"/>
    <path clip-path="url(#pcd39df9889)" d="M 95.243359 134.650067 
L 95.243359 114.82536 
" style="fill:none;stroke:#d62728;stroke-width:1.5;"/>
    <path clip-path="url(#pcd39df9889)" d="M 106.520832 215.250965 
L 106.520832 195.230335 
" style="fill:none;stroke:#d62728;stroke-width:1.5;"/>
    <path clip-path="url(#pcd39df9889)" d="M 117.798306 178.281014 
L 117.798306 157.314964 
" style="fill:none;stroke:#d62728;stroke-width:1.5;"/>
    <path clip-path="url(#pcd39df9889)" d="M 129.07578 158.508875 
L 129.07578 137.823846 
" style="fill:none;stroke:#d62728;stroke-width:1.5;"/>
    <path clip-path="url(#pcd39df9889)" d="M 140.353253 205.291378 
L 140.353253 183.841725 
" style="fill:none;stroke:#d62728;stroke-width:1.5;"/>
    <path clip-path="url(#pcd39df9889)" d="M 151.630727 175.693301 
L 151.630727 154.913833 
" style="fill:none;stroke:#d62728;stroke-width:1.5;"/>
    <path clip-path="url(#pcd39df9889)" d="M 162.908201 171.766901 
L 162.908201 150.260423 
" style="fill:none;stroke:#d62728;stroke-width:1.5;"/>
    <path clip-path="url(#pcd39df9889)" d="M 174.185674 145.142775 
L 174.185674 123.693122 
" style="fill:none;stroke:#d62728;stroke-width:1.5;"/>
    <path clip-path="url(#pcd39df9889)" d="M 185.463148 159.761898 
L 185.463148 139.480672 
" style="fill:none;stroke:#d62728;stroke-width:1.5;"/>
    <path clip-path="url(#pcd39df9889)" d="M 196.740622 155.889054 
L 196.740622 133.078603 
" style="fill:none;stroke:#d62728;stroke-width:1.5;"/>
    <path clip-path="url(#pcd39df9889)" d="M 208.018095 170.875132 
L 208.018095 149.580137 
" style="fill:none;stroke:#d62728;stroke-width:1.5;"/>
    <path clip-path="url(#pcd39df9889)" d="M 219.295569 200.728925 
L 219.295569 179.761123 
" style="fill:none;stroke:#d62728;stroke-width:1.5;"/>
    <path clip-path="url(#pcd39df9889)" d="M 230.573043 234.144494 
L 230.573043 215.343553 
" style="fill:none;stroke:#d62728;stroke-width:1.5;"/>
   </g>
   <g id="line2d_21">
    <path clip-path="url(#pcd39df9889)" d="M 61.410938 297.056409 
L 62.125178 297.05513 
L 62.482298 296.726383 
L 62.839418 297.056409 
L 63.196538 297.056409 
L 63.553658 295.785796 
L 63.910778 295.031045 
L 64.267898 294.545506 
L 64.625018 293.629967 
L 65.339258 291.192092 
L 65.696378 291.090845 
L 66.053498 288.706459 
L 66.767738 286.55405 
L 67.124858 284.157269 
L 67.481978 283.043881 
L 67.839098 281.065885 
L 68.196218 279.843316 
L 68.553338 276.831336 
L 68.910458 275.678199 
L 69.267578 273.062187 
L 69.624698 271.293149 
L 70.338938 267.092794 
L 70.696058 265.19 
L 71.410298 260.003573 
L 72.124538 255.474358 
L 72.481658 251.840695 
L 72.838778 249.934326 
L 73.195898 247.176241 
L 73.553018 242.947136 
L 73.910138 241.82786 
L 74.267258 237.71504 
L 74.624378 234.915007 
L 74.981498 230.498742 
L 75.338618 228.659588 
L 75.695738 225.033237 
L 76.052858 222.751925 
L 76.767098 214.962805 
L 78.552698 199.855153 
L 78.909818 194.56909 
L 80.338298 182.149884 
L 81.766778 167.016938 
L 82.123898 164.536023 
L 82.838138 157.577002 
L 84.623738 140.528001 
L 84.980858 137.521925 
L 85.337978 133.56219 
L 85.695098 131.124066 
L 86.409338 124.175299 
L 86.766458 121.373775 
L 87.480698 114.595256 
L 88.194938 109.080938 
L 88.552058 105.633299 
L 89.266298 100.734392 
L 90.337658 91.791504 
L 90.694778 90.609806 
L 91.409018 84.742958 
L 91.766138 82.342273 
L 92.123258 81.177082 
L 92.480378 78.939109 
L 92.837498 75.499758 
L 95.694458 61.439667 
L 96.051578 60.116734 
L 96.765818 58.537099 
L 97.122938 57.815206 
L 97.480058 56.624761 
L 97.837178 54.810971 
L 98.194298 53.788282 
L 98.551418 54.522653 
L 98.908538 53.523798 
L 99.622778 52.690391 
L 99.979898 51.596523 
L 100.337018 51.67181 
L 100.694138 52.094359 
L 101.051258 50.50887 
L 101.765498 51.596523 
L 102.122618 51.63524 
L 102.479738 51.357234 
L 102.836858 51.854658 
L 103.193978 53.374191 
L 103.551098 53.583641 
L 104.265338 55.059187 
L 104.622458 54.810971 
L 104.979578 56.975126 
L 105.336698 57.75349 
L 105.693818 59.471366 
L 106.050938 59.652419 
L 106.408058 61.455854 
L 107.479418 64.882153 
L 107.836538 67.472331 
L 108.193658 68.705851 
L 108.550778 71.43045 
L 108.907898 72.550863 
L 109.622138 76.263051 
L 111.050618 84.473345 
L 111.764858 90.217854 
L 112.479098 93.461733 
L 112.836218 96.194365 
L 113.550458 102.347124 
L 113.907578 105.688467 
L 114.264698 107.615631 
L 115.336058 116.48984 
L 115.693178 118.191268 
L 119.978618 156.96899 
L 120.335738 159.664748 
L 120.692858 163.694212 
L 121.407098 168.710537 
L 122.121338 175.564558 
L 122.835578 182.267735 
L 123.192698 184.59068 
L 123.549818 187.747544 
L 124.264058 195.209297 
L 124.978298 200.69335 
L 126.763898 215.868964 
L 127.121018 217.843353 
L 127.835258 224.093943 
L 128.906618 232.560429 
L 130.335098 242.469888 
L 130.692218 245.392773 
L 131.049338 246.918411 
L 131.406458 249.769743 
L 132.120698 253.051737 
L 132.477818 256.062355 
L 132.834938 257.343612 
L 133.192058 259.329866 
L 133.549178 260.565409 
L 133.906298 263.256536 
L 134.263418 264.671942 
L 134.620538 266.809151 
L 134.977658 268.14363 
L 135.334778 270.355673 
L 135.691898 271.009642 
L 136.049018 272.28332 
L 136.406138 273.039222 
L 136.763258 275.894336 
L 137.120378 275.830214 
L 137.477498 276.422899 
L 137.834618 276.501897 
L 138.191738 278.911645 
L 138.905978 280.220612 
L 139.263098 281.638251 
L 139.620218 281.655276 
L 139.977338 282.251497 
L 140.334458 282.017452 
L 140.691578 283.543539 
L 141.048698 282.673589 
L 141.405818 283.315666 
L 141.762938 282.476098 
L 142.120058 283.617469 
L 142.477178 282.601774 
L 142.834298 283.619497 
L 143.191418 283.062512 
L 143.548538 283.038168 
L 144.262778 281.896185 
L 144.619898 279.935891 
L 144.977018 279.843316 
L 145.691258 277.975186 
L 146.048378 277.875331 
L 147.833978 271.412515 
L 148.191098 270.597291 
L 148.905338 267.516165 
L 149.262458 267.092794 
L 149.619578 264.05658 
L 149.976698 263.316644 
L 150.333818 260.796498 
L 150.690938 259.521826 
L 151.405178 255.111114 
L 152.476538 248.421749 
L 154.262138 237.280034 
L 154.619258 234.028663 
L 155.690618 227.76538 
L 156.047738 225.492427 
L 156.761978 219.104955 
L 157.119098 216.941262 
L 157.476218 213.236416 
L 158.547578 205.873869 
L 158.904698 203.551704 
L 159.261818 199.202157 
L 161.047418 186.592805 
L 161.404538 182.105182 
L 162.475898 174.613474 
L 163.190138 168.460637 
L 163.547258 166.077995 
L 164.261498 158.858315 
L 164.618618 157.548438 
L 165.689978 147.725194 
L 166.047098 145.642116 
L 166.404218 142.18807 
L 167.475578 135.370932 
L 167.832698 130.814347 
L 168.189818 129.17146 
L 169.975418 116.316158 
L 170.332538 114.580141 
L 171.046778 108.574652 
L 171.403898 106.384449 
L 171.761018 104.888015 
L 172.118138 102.721958 
L 172.475258 99.790646 
L 172.832378 98.263817 
L 173.903738 91.271851 
L 174.260858 90.643625 
L 174.617978 88.498567 
L 174.975098 87.501188 
L 176.046458 81.332143 
L 176.403578 81.396471 
L 176.760698 79.470062 
L 177.117818 76.538091 
L 177.474938 76.583808 
L 177.832058 75.273267 
L 178.546298 73.33359 
L 178.903418 71.419832 
L 179.260538 71.22679 
L 179.617658 70.725664 
L 180.689018 68.447283 
L 181.046138 67.484675 
L 181.403258 67.185058 
L 181.760378 67.618409 
L 182.117498 66.83978 
L 182.474618 66.801801 
L 182.831738 66.238904 
L 183.188858 67.047562 
L 183.903098 66.095981 
L 184.260218 66.847567 
L 184.617338 67.085061 
L 184.974457 68.256926 
L 185.331578 67.893391 
L 185.688698 67.813467 
L 186.760058 70.608396 
L 187.117178 69.748688 
L 187.474298 71.04432 
L 187.831418 72.773196 
L 189.259898 76.862441 
L 189.617018 79.145194 
L 189.974138 79.747176 
L 190.331258 82.175036 
L 190.688378 82.2706 
L 191.045498 83.460192 
L 191.759738 87.005994 
L 192.116858 89.541804 
L 192.831098 92.573024 
L 193.188218 93.874805 
L 193.902458 98.967659 
L 194.259578 99.997608 
L 194.973818 105.462279 
L 195.330938 106.59177 
L 195.688058 109.497317 
L 196.045178 110.891595 
L 196.402298 115.032686 
L 196.759418 116.316158 
L 198.902138 132.525495 
L 199.259258 133.655184 
L 200.330618 142.622233 
L 200.687738 145.642116 
L 201.044858 147.486686 
L 202.116218 157.372971 
L 202.473338 159.237813 
L 203.544698 167.781853 
L 204.616058 177.070105 
L 206.044538 187.982077 
L 206.401658 192.297654 
L 207.115898 195.97984 
L 207.473018 200.573652 
L 207.830138 202.230092 
L 211.044218 227.227337 
L 211.758458 230.847505 
L 212.115578 234.733827 
L 212.829818 238.441966 
L 213.186938 241.684259 
L 213.544058 242.617718 
L 213.901178 246.008785 
L 214.258298 247.410456 
L 214.615418 250.026493 
L 214.972538 251.511202 
L 215.329658 253.960818 
L 215.686778 254.54239 
L 216.043898 258.228339 
L 216.758138 261.550021 
L 217.472378 264.189585 
L 218.186618 268.323589 
L 218.543738 269.117732 
L 218.900858 269.415101 
L 219.257978 270.817177 
L 219.615098 272.730704 
L 219.972218 272.912917 
L 220.686458 276.711238 
L 221.043578 276.993949 
L 221.400698 276.884713 
L 221.757818 277.833607 
L 222.114938 277.586241 
L 222.472058 278.492959 
L 222.829178 280.17359 
L 223.543418 279.599163 
L 224.257658 281.049427 
L 224.614778 281.57015 
L 224.971898 280.283308 
L 225.329018 280.371176 
L 225.686138 280.737118 
L 226.043258 280.298982 
L 226.400378 280.063872 
L 226.757498 279.182868 
L 227.114618 278.633876 
L 227.471738 277.462807 
L 227.828858 278.8517 
L 228.185978 276.791303 
L 228.543098 276.103168 
L 228.900218 275.984106 
L 229.257338 274.009379 
L 229.614458 272.947364 
L 229.971578 270.891504 
L 230.328698 270.74285 
L 231.042938 267.42988 
L 231.400058 266.642651 
L 232.114298 264.538497 
L 232.471418 261.451272 
L 232.828538 259.915973 
L 233.185658 257.763582 
L 233.899898 255.204818 
L 234.614138 250.436589 
L 234.971258 248.596014 
L 236.042618 241.567394 
L 236.399738 240.628263 
L 237.113978 234.399263 
L 237.828218 231.024216 
L 238.185338 226.781206 
L 238.542458 225.057924 
L 239.613818 215.836662 
L 239.970938 214.193046 
L 240.685178 208.066379 
L 241.042298 205.651024 
L 242.470778 192.866075 
L 242.827898 190.506835 
L 243.542138 183.986748 
L 243.899258 182.141757 
L 244.970618 172.741187 
L 245.327738 168.504974 
L 245.684858 166.9279 
L 246.756218 157.038361 
L 247.113338 154.377971 
L 247.470458 150.519394 
L 247.827578 148.211514 
L 248.184698 144.448559 
L 248.541818 142.596694 
L 249.613178 133.243353 
L 250.327418 128.791457 
L 251.041658 122.405909 
L 251.755898 117.549523 
L 252.470138 111.930953 
L 253.541498 104.736854 
L 253.898618 101.736911 
L 254.612858 97.771273 
L 255.327098 92.540107 
L 255.684218 91.177804 
L 256.041337 87.79744 
L 256.398458 86.815742 
L 257.112698 82.665575 
L 259.612538 72.448 
L 259.969658 71.734829 
L 260.326777 70.277682 
L 260.683898 67.809094 
L 261.041018 68.134239 
L 261.398138 66.459886 
L 261.755258 66.005029 
L 262.112378 64.59414 
L 262.469498 64.679022 
L 263.183738 63.641702 
L 263.540858 63.728832 
L 263.897978 62.852884 
L 264.255098 62.972577 
L 264.612218 62.493071 
L 264.969337 61.56917 
L 265.326458 61.56917 
L 265.683578 63.152117 
L 266.040698 63.290026 
L 266.397818 63.09227 
L 266.754938 64.20206 
L 267.112057 63.378455 
L 267.826298 65.512141 
L 268.183418 66.408588 
L 268.540538 66.675201 
L 269.254778 68.958335 
L 269.611897 69.319772 
L 269.969018 70.877585 
L 270.326138 73.242902 
L 270.683258 73.986261 
L 272.111738 78.831951 
L 272.825978 82.776174 
L 273.183098 84.337341 
L 274.611578 92.700971 
L 275.682938 98.800083 
L 277.111418 109.049083 
L 277.468538 111.187923 
L 278.897018 123.182471 
L 279.254138 124.820733 
L 279.968378 131.330544 
L 281.039738 139.255867 
L 281.753978 145.094238 
L 282.468218 151.27505 
L 283.539578 161.501597 
L 290.681978 222.03293 
L 291.396218 226.330649 
L 291.753338 228.761392 
L 292.110457 232.853448 
L 292.824698 236.958263 
L 293.181818 240.218558 
L 293.538938 242.110003 
L 294.610298 249.634907 
L 295.324538 253.562584 
L 296.038778 257.976274 
L 297.110138 262.862602 
L 297.467258 265.605715 
L 297.824378 267.178249 
L 298.181498 267.802619 
L 298.538618 268.946434 
L 298.895737 271.582956 
L 299.252858 272.571799 
L 300.681338 277.875331 
L 301.395578 278.478648 
L 301.752698 279.462437 
L 302.109818 281.878861 
L 302.466938 281.638251 
L 302.824058 281.740401 
L 303.181177 281.672301 
L 303.538297 281.757427 
L 303.895418 283.02525 
L 304.609658 282.58382 
L 304.966778 283.656193 
L 305.323898 282.98331 
L 306.038138 282.476098 
L 306.395258 282.637681 
L 307.109498 282.156042 
L 307.466618 281.148173 
L 307.823737 279.553587 
L 308.180858 279.257676 
L 308.537978 278.335536 
L 308.895098 278.08804 
L 309.966458 273.584249 
L 310.680698 270.945241 
L 311.037818 271.325704 
L 312.466297 263.368165 
L 312.823418 262.019263 
L 313.180538 261.401897 
L 314.251898 253.784479 
L 314.609018 252.181622 
L 314.966138 249.654526 
L 315.323258 248.182871 
L 316.394618 241.170581 
L 316.751737 239.57385 
L 317.823098 231.226083 
L 318.537338 226.161077 
L 319.251578 219.471447 
L 319.608698 217.969717 
L 322.822778 191.409726 
L 323.537018 185.382319 
L 323.894137 183.741911 
L 324.608378 176.483266 
L 327.108218 156.656121 
L 328.179578 147.549451 
L 328.893818 142.294482 
L 329.250938 140.051421 
L 329.965177 133.571046 
L 331.036538 126.361147 
L 331.393658 123.144672 
L 331.750778 121.33084 
L 333.536378 108.537287 
L 333.893498 107.250298 
L 334.250618 105.326289 
L 334.607737 102.255263 
L 335.321978 98.599819 
L 335.679098 96.929133 
L 336.036218 94.292057 
L 336.393338 93.060656 
L 337.464697 87.150154 
L 337.821818 86.629985 
L 338.178938 85.52989 
L 338.536058 83.195824 
L 339.607417 80.863516 
L 339.964538 78.460731 
L 340.321658 77.800742 
L 340.678778 76.383026 
L 341.035898 75.697256 
L 341.393018 75.518568 
L 342.107258 72.946261 
L 342.464378 73.936886 
L 342.821498 71.913417 
L 343.178618 71.860891 
L 343.535737 72.271876 
L 343.892857 73.091757 
L 344.607098 70.542564 
L 345.678458 72.520004 
L 346.035578 72.742656 
L 346.749818 72.854638 
L 347.464058 73.483678 
L 347.821178 74.283349 
L 348.178297 74.468119 
L 348.535417 75.936243 
L 348.892538 76.647812 
L 349.249658 78.320909 
L 349.606778 78.753991 
L 350.321018 80.312329 
L 351.035258 83.597458 
L 351.392378 84.359403 
L 352.106618 86.721349 
L 352.463737 89.252272 
L 352.820857 90.428974 
L 353.535098 94.049518 
L 353.892218 95.484906 
L 354.606458 99.473838 
L 354.963578 100.979807 
L 355.320698 103.814277 
L 356.392058 109.038465 
L 356.749178 112.795272 
L 357.463417 116.014313 
L 358.177658 120.502843 
L 358.534778 124.034895 
L 359.249018 128.142771 
L 359.963257 133.22564 
L 361.391738 143.210852 
L 361.748857 147.1352 
L 362.105977 148.857353 
L 363.177338 157.417858 
L 363.534458 159.53877 
L 363.891578 162.880731 
L 364.248698 164.96907 
L 367.105658 187.096803 
L 367.819898 191.737513 
L 369.248378 202.80137 
L 369.605498 204.464785 
L 370.676857 212.575058 
L 371.033977 214.04473 
L 371.748218 219.32025 
L 372.462458 223.932618 
L 372.819578 226.776193 
L 374.248058 234.1199 
L 374.962298 239.493936 
L 375.319417 239.733677 
L 375.676537 242.2511 
L 376.033658 243.585775 
L 376.390778 246.108156 
L 376.747898 247.14459 
L 377.105018 249.464874 
L 377.462138 250.290784 
L 377.819258 252.713768 
L 378.533498 254.279531 
L 378.890618 257.094588 
L 379.247738 257.975724 
L 380.319097 262.002711 
L 380.676218 262.73491 
L 381.033338 263.110559 
L 381.390458 264.154317 
L 381.747578 263.881803 
L 382.104698 264.814283 
L 382.461818 267.026328 
L 382.818938 267.130774 
L 383.176058 268.636853 
L 383.890298 269.137885 
L 384.247417 268.816396 
L 384.961658 269.955857 
L 385.318778 270.039014 
L 385.675898 268.706676 
L 386.033018 269.476183 
L 386.390138 269.404921 
L 386.747258 269.811242 
L 387.818618 268.343339 
L 388.175738 267.334007 
L 388.889977 267.744531 
L 389.247097 267.045318 
L 389.604218 265.624002 
L 389.961338 265.192111 
L 390.675578 263.110559 
L 391.032698 262.888141 
L 392.104058 258.569205 
L 392.461178 258.105859 
L 392.818298 256.364499 
L 393.175417 255.430792 
L 393.532537 252.665429 
L 393.889657 253.373488 
L 394.246778 250.964508 
L 394.603898 250.019909 
L 394.961018 247.711349 
L 395.318138 246.817774 
L 395.675258 244.543209 
L 396.032377 243.678238 
L 396.389498 241.462217 
L 396.746618 238.261595 
L 397.103738 236.496815 
L 397.460858 235.86746 
L 398.175097 231.221717 
L 398.889338 226.941613 
L 399.246458 225.939206 
L 399.960698 220.150058 
L 400.317818 217.310993 
L 400.674937 216.547186 
L 401.032058 213.254536 
L 401.389178 211.561037 
L 401.746298 209.288644 
L 402.103417 205.886977 
L 402.460537 204.304532 
L 402.817657 201.598945 
L 403.174778 199.812588 
L 403.531898 197.322466 
L 403.889018 194.016085 
L 404.246138 192.156582 
L 407.460218 169.790752 
L 407.817338 167.721145 
L 408.174458 164.220344 
L 408.531578 163.091184 
L 408.888698 159.139878 
L 409.245818 157.238311 
L 410.317178 149.614869 
L 410.674298 148.244848 
L 411.031418 144.088166 
L 411.745657 140.369141 
L 412.102778 138.859139 
L 412.459898 135.612323 
L 412.817018 133.985661 
L 413.531258 129.135221 
L 413.888378 125.617737 
L 414.245497 124.516948 
L 414.602618 122.211257 
L 414.959738 121.564598 
L 416.031097 114.285006 
L 416.388218 112.553092 
L 416.745338 112.034357 
L 417.102458 108.628031 
L 417.459578 107.353389 
L 417.816698 105.159856 
L 418.173818 103.978008 
L 418.530938 102.301193 
L 418.530938 102.301193 
" style="fill:none;stroke:#1f77b4;stroke-linecap:square;stroke-width:1.5;"/>
   </g>
   <g id="line2d_22">
    <path clip-path="url(#pcd39df9889)" d="M 61.410938 297.044382 
L 61.768058 297.044382 
L 62.482298 296.436279 
L 62.839418 294.868364 
L 63.196538 294.086257 
L 63.553658 292.687656 
L 63.910778 291.824119 
L 64.267898 288.704826 
L 64.625018 286.585319 
L 64.982138 285.512714 
L 65.339258 283.026003 
L 66.053498 276.532916 
L 66.410618 275.065601 
L 68.553338 252.141786 
L 71.767418 209.58718 
L 72.481658 198.714765 
L 73.553018 184.635246 
L 74.267258 174.302381 
L 76.409978 144.504346 
L 77.124218 134.877166 
L 78.552698 116.513856 
L 78.909818 113.611126 
L 80.338298 99.158486 
L 81.052538 93.148737 
L 82.123898 87.074947 
L 82.481018 83.177197 
L 82.838138 81.789233 
L 83.552378 78.137554 
L 84.266618 75.379536 
L 84.623738 74.974789 
L 84.980858 74.352195 
L 85.695098 73.430517 
L 86.409338 73.474888 
L 86.766458 74.525125 
L 87.123578 74.92335 
L 87.480698 75.051346 
L 87.837818 75.362676 
L 88.194938 77.289731 
L 88.552058 78.397412 
L 88.909178 79.029667 
L 89.266298 80.984907 
L 89.623418 83.693048 
L 89.980538 84.258627 
L 90.337658 87.412465 
L 91.051898 90.932039 
L 91.409018 93.167356 
L 93.551738 111.884556 
L 93.908858 112.661109 
L 94.980218 123.611624 
L 96.051578 133.074065 
L 97.122938 142.870388 
L 99.265658 163.049777 
L 99.622778 165.027448 
L 101.408378 178.782712 
L 101.765498 181.544303 
L 102.479738 185.315542 
L 103.193978 190.149066 
L 103.551098 191.364931 
L 103.908218 193.285284 
L 104.265338 194.5042 
L 104.622458 195.187284 
L 105.336698 199.16585 
L 106.050938 201.434345 
L 106.408058 201.80706 
L 106.765178 202.994144 
L 107.122298 202.508371 
L 107.836538 204.860417 
L 108.193658 204.272307 
L 108.550778 203.4218 
L 108.907898 203.448659 
L 109.265018 203.123386 
L 109.622138 203.110016 
L 109.979258 203.386328 
L 110.336378 202.905011 
L 111.050618 200.070853 
L 111.407738 200.572914 
L 114.264698 190.916729 
L 114.978938 187.089378 
L 115.693178 184.965677 
L 116.050298 182.685551 
L 116.407418 181.816029 
L 117.478778 175.753528 
L 117.835898 174.629926 
L 118.193018 172.457352 
L 118.550138 171.408381 
L 119.264378 167.99635 
L 119.621498 167.038373 
L 120.335738 163.679989 
L 120.692858 163.277814 
L 121.049978 160.707212 
L 121.407098 160.15163 
L 122.121338 158.179061 
L 122.478458 156.030853 
L 122.835578 155.809774 
L 123.549818 154.016383 
L 123.906938 153.598344 
L 124.264058 152.904503 
L 124.621178 152.904503 
L 124.978298 151.930626 
L 125.335418 151.678762 
L 125.692538 152.589672 
L 126.049658 151.263185 
L 126.406778 150.931879 
L 126.763898 151.317756 
L 127.121018 151.330349 
L 127.478138 152.358796 
L 127.835258 151.884451 
L 128.192378 152.917096 
L 128.549498 152.786966 
L 128.906618 153.523097 
L 129.263738 153.987121 
L 129.620858 155.182714 
L 129.977978 155.980894 
L 130.335098 155.893382 
L 131.049338 159.10329 
L 131.406458 160.33406 
L 131.763578 161.088656 
L 132.120698 163.248791 
L 132.477818 164.264594 
L 132.834938 166.076268 
L 133.192058 166.646099 
L 133.549178 167.653626 
L 135.334778 175.600121 
L 136.406138 181.473236 
L 136.763258 182.589402 
L 137.120378 183.178629 
L 138.191738 189.052397 
L 138.548858 189.889776 
L 138.905978 191.253948 
L 139.263098 193.444566 
L 139.620218 194.521493 
L 139.977338 196.562875 
L 140.334458 196.775627 
L 141.048698 199.056363 
L 141.405818 200.617091 
L 141.762938 201.580769 
L 142.120058 203.172409 
L 142.477178 202.833705 
L 142.834298 204.218591 
L 143.191418 204.47374 
L 143.548538 205.787985 
L 143.905658 206.072513 
L 144.619898 207.695533 
L 144.977018 207.394771 
L 145.334138 208.41964 
L 145.691258 208.791651 
L 146.048378 209.638242 
L 146.405498 209.223904 
L 146.762618 208.282311 
L 147.119738 208.076318 
L 147.476858 206.869043 
L 147.833978 206.678507 
L 148.191098 206.83275 
L 148.548218 206.22485 
L 148.905338 206.533337 
L 149.262458 204.801966 
L 149.619578 205.247094 
L 150.333818 202.486088 
L 150.690938 202.664353 
L 151.048058 200.321105 
L 151.405178 200.307851 
L 152.476538 195.334276 
L 152.833658 194.146268 
L 153.190778 194.327075 
L 153.905018 190.383155 
L 154.619258 187.457638 
L 154.976378 186.567466 
L 155.333498 185.083704 
L 156.047738 180.963227 
L 157.833338 172.896842 
L 158.547578 170.060955 
L 159.976058 163.062215 
L 160.333178 162.191527 
L 160.690298 160.918665 
L 161.047418 158.899294 
L 161.404538 158.903457 
L 161.761658 155.642558 
L 162.118778 155.521327 
L 163.190138 151.964208 
L 163.547258 151.926429 
L 163.904378 149.608296 
L 164.261498 149.94973 
L 164.618618 147.506491 
L 164.975738 146.703117 
L 166.047098 145.259887 
L 166.404218 145.481853 
L 166.761338 144.854371 
L 167.118458 145.933749 
L 167.475578 143.225724 
L 167.832698 143.821572 
L 168.189818 143.731552 
L 168.546938 144.559838 
L 168.904058 144.773267 
L 169.261178 144.09592 
L 169.618298 144.220233 
L 169.975418 143.958746 
L 170.332538 144.956817 
L 170.689658 145.059263 
L 171.046778 145.618448 
L 171.403898 146.992162 
L 171.761018 146.936903 
L 172.118138 147.230198 
L 172.475258 147.072924 
L 172.832378 148.058079 
L 173.189498 150.130985 
L 173.546618 149.124762 
L 173.903738 150.485065 
L 174.260858 150.834929 
L 174.617978 152.791164 
L 174.975098 152.577079 
L 176.046458 155.985058 
L 176.403578 156.401377 
L 177.117818 158.316447 
L 177.474938 159.318257 
L 178.546298 161.329132 
L 178.903418 163.128553 
L 179.260538 162.730525 
L 179.617658 163.053923 
L 179.974778 164.952852 
L 180.331898 166.059751 
L 180.689018 166.666745 
L 181.046138 166.629582 
L 181.403258 168.20694 
L 181.760378 167.575171 
L 182.117498 167.959187 
L 182.474618 168.867613 
L 182.831738 169.276405 
L 183.188858 169.875141 
L 183.545978 170.758792 
L 183.903098 170.527556 
L 184.260218 171.060224 
L 184.617338 172.614905 
L 184.974457 170.721629 
L 185.331578 171.781532 
L 185.688698 171.188635 
L 186.045818 172.316384 
L 186.402938 170.994157 
L 186.760058 171.802263 
L 187.117178 170.911572 
L 187.831418 170.639045 
L 188.188538 170.981769 
L 188.545658 169.486995 
L 188.902778 169.602613 
L 189.617018 168.545535 
L 189.974138 169.214467 
L 190.331258 167.715564 
L 190.688378 167.306772 
L 191.045498 166.229048 
L 191.402618 165.989554 
L 191.759738 165.163712 
L 192.116858 164.687499 
L 192.831098 162.340788 
L 193.188218 162.32835 
L 193.545338 162.050559 
L 194.616698 158.791051 
L 194.973818 158.953415 
L 195.330938 157.388054 
L 195.688058 156.438846 
L 196.045178 155.074024 
L 196.402298 154.19196 
L 196.759418 154.476227 
L 197.116538 152.467937 
L 197.473658 152.820548 
L 198.545018 150.780131 
L 198.902138 149.747399 
L 199.259258 149.243283 
L 199.616378 148.455969 
L 199.973498 148.227394 
L 200.330618 148.498297 
L 201.044858 146.350313 
L 201.401978 146.052767 
L 201.759098 146.358814 
L 202.116218 145.550151 
L 202.473338 146.193038 
L 203.187578 145.7337 
L 203.544698 145.605643 
L 203.901818 146.46508 
L 204.258938 146.346062 
L 204.616058 145.631254 
L 204.973178 146.749874 
L 205.330298 146.562846 
L 205.687418 147.234449 
L 206.044538 147.268454 
L 206.401658 148.595653 
L 206.758778 148.786133 
L 207.830138 151.113134 
L 208.187258 151.263185 
L 208.544378 153.055622 
L 208.901498 153.527277 
L 209.258618 154.263027 
L 209.615738 156.467988 
L 209.972858 157.184058 
L 211.044218 161.063779 
L 211.758458 163.28196 
L 212.115578 165.262813 
L 212.829818 167.955058 
L 213.186938 169.862753 
L 213.901178 172.233461 
L 214.258298 174.33555 
L 214.615418 174.513834 
L 215.329658 179.265643 
L 215.686778 180.185673 
L 216.043898 182.685551 
L 216.401018 183.619392 
L 216.758138 184.186087 
L 217.115258 186.769797 
L 217.829498 189.379697 
L 218.186618 191.870938 
L 218.543738 192.43678 
L 218.900858 194.694426 
L 219.615098 196.973554 
L 219.972218 196.960472 
L 220.329338 198.706006 
L 220.686458 201.634014 
L 221.043578 201.385537 
L 221.400698 203.292738 
L 221.757818 204.13354 
L 222.114938 205.584751 
L 222.829178 207.139578 
L 223.186298 207.476797 
L 223.543418 208.323509 
L 223.900538 210.576131 
L 224.257658 210.979864 
L 224.614778 210.900974 
L 225.329018 212.314034 
L 225.686138 211.601917 
L 226.043258 211.732453 
L 226.400378 212.66062 
L 226.757498 211.704481 
L 227.114618 211.667185 
L 227.471738 213.112767 
L 227.828858 212.971606 
L 228.185978 212.506061 
L 229.614458 211.545973 
L 229.971578 210.942739 
L 230.685818 209.334266 
L 231.042938 209.463022 
L 231.400058 209.348061 
L 231.757178 207.65452 
L 232.471418 206.176388 
L 232.828538 204.824447 
L 233.185658 204.864913 
L 233.542778 203.538186 
L 233.899898 201.62514 
L 234.614138 200.176417 
L 234.971258 199.987282 
L 235.328378 198.727904 
L 235.685498 196.432619 
L 236.042618 195.716211 
L 236.399738 194.30555 
L 236.756858 193.397212 
L 237.471098 190.515481 
L 237.828218 190.11081 
L 238.185338 187.178268 
L 238.542458 186.807734 
L 238.899578 185.871953 
L 239.970938 181.234953 
L 239.970938 181.234953 
" style="fill:none;stroke:#d62728;stroke-linecap:square;stroke-width:1.5;"/>
   </g>
   <g id="line2d_23">
    <defs>
     <path d="M 0 3 
C 0.795609 3 1.55874 2.683901 2.12132 2.12132 
C 2.683901 1.55874 3 0.795609 3 0 
C 3 -0.795609 2.683901 -1.55874 2.12132 -2.12132 
C 1.55874 -2.683901 0.795609 -3 0 -3 
C -0.795609 -3 -1.55874 -2.683901 -2.12132 -2.12132 
C -2.683901 -1.55874 -3 -0.795609 -3 0 
C -3 0.795609 -2.683901 1.55874 -2.12132 2.12132 
C -1.55874 2.683901 -0.795609 3 0 3 
z
" id="mcb2457e3ba" style="stroke:#1f77b4;"/>
    </defs>
    <g clip-path="url(#pcd39df9889)">
     <use style="fill:#1f77b4;stroke:#1f77b4;" x="61.410938" xlink:href="#mcb2457e3ba" y="296.95689"/>
     <use style="fill:#1f77b4;stroke:#1f77b4;" x="72.688411" xlink:href="#mcb2457e3ba" y="244.95945"/>
     <use style="fill:#1f77b4;stroke:#1f77b4;" x="83.965885" xlink:href="#mcb2457e3ba" y="153.357857"/>
     <use style="fill:#1f77b4;stroke:#1f77b4;" x="95.243359" xlink:href="#mcb2457e3ba" y="60.54225"/>
     <use style="fill:#1f77b4;stroke:#1f77b4;" x="106.520832" xlink:href="#mcb2457e3ba" y="61.941772"/>
     <use style="fill:#1f77b4;stroke:#1f77b4;" x="117.798306" xlink:href="#mcb2457e3ba" y="132.311264"/>
     <use style="fill:#1f77b4;stroke:#1f77b4;" x="129.07578" xlink:href="#mcb2457e3ba" y="199.148697"/>
     <use style="fill:#1f77b4;stroke:#1f77b4;" x="140.353253" xlink:href="#mcb2457e3ba" y="238.74225"/>
     <use style="fill:#1f77b4;stroke:#1f77b4;" x="151.630727" xlink:href="#mcb2457e3ba" y="208.657897"/>
     <use style="fill:#1f77b4;stroke:#1f77b4;" x="162.908201" xlink:href="#mcb2457e3ba" y="130.520505"/>
     <use style="fill:#1f77b4;stroke:#1f77b4;" x="174.185674" xlink:href="#mcb2457e3ba" y="73.289546"/>
     <use style="fill:#1f77b4;stroke:#1f77b4;" x="185.463148" xlink:href="#mcb2457e3ba" y="59.476977"/>
     <use style="fill:#1f77b4;stroke:#1f77b4;" x="196.740622" xlink:href="#mcb2457e3ba" y="105.000865"/>
     <use style="fill:#1f77b4;stroke:#1f77b4;" x="208.018095" xlink:href="#mcb2457e3ba" y="159.803052"/>
     <use style="fill:#1f77b4;stroke:#1f77b4;" x="219.295569" xlink:href="#mcb2457e3ba" y="258.74025"/>
     <use style="fill:#1f77b4;stroke:#1f77b4;" x="230.573043" xlink:href="#mcb2457e3ba" y="261.86505"/>
     <use style="fill:#1f77b4;stroke:#1f77b4;" x="241.850516" xlink:href="#mcb2457e3ba" y="191.219656"/>
     <use style="fill:#1f77b4;stroke:#1f77b4;" x="253.12799" xlink:href="#mcb2457e3ba" y="90.503166"/>
     <use style="fill:#1f77b4;stroke:#1f77b4;" x="264.405464" xlink:href="#mcb2457e3ba" y="59.133621"/>
     <use style="fill:#1f77b4;stroke:#1f77b4;" x="275.682938" xlink:href="#mcb2457e3ba" y="100.93425"/>
     <use style="fill:#1f77b4;stroke:#1f77b4;" x="286.960411" xlink:href="#mcb2457e3ba" y="189.367937"/>
     <use style="fill:#1f77b4;stroke:#1f77b4;" x="298.237885" xlink:href="#mcb2457e3ba" y="264.595129"/>
     <use style="fill:#1f77b4;stroke:#1f77b4;" x="309.515359" xlink:href="#mcb2457e3ba" y="246.327577"/>
     <use style="fill:#1f77b4;stroke:#1f77b4;" x="320.792832" xlink:href="#mcb2457e3ba" y="179.484475"/>
     <use style="fill:#1f77b4;stroke:#1f77b4;" x="332.070306" xlink:href="#mcb2457e3ba" y="92.315646"/>
     <use style="fill:#1f77b4;stroke:#1f77b4;" x="343.34778" xlink:href="#mcb2457e3ba" y="54.87945"/>
     <use style="fill:#1f77b4;stroke:#1f77b4;" x="354.625253" xlink:href="#mcb2457e3ba" y="80.905788"/>
     <use style="fill:#1f77b4;stroke:#1f77b4;" x="365.902727" xlink:href="#mcb2457e3ba" y="152.769254"/>
     <use style="fill:#1f77b4;stroke:#1f77b4;" x="377.180201" xlink:href="#mcb2457e3ba" y="226.78665"/>
     <use style="fill:#1f77b4;stroke:#1f77b4;" x="388.457674" xlink:href="#mcb2457e3ba" y="243.72105"/>
     <use style="fill:#1f77b4;stroke:#1f77b4;" x="399.735148" xlink:href="#mcb2457e3ba" y="195.409827"/>
    </g>
   </g>
   <g id="line2d_24">
    <defs>
     <path d="M 0 3 
C 0.795609 3 1.55874 2.683901 2.12132 2.12132 
C 2.683901 1.55874 3 0.795609 3 0 
C 3 -0.795609 2.683901 -1.55874 2.12132 -2.12132 
C 1.55874 -2.683901 0.795609 -3 0 -3 
C -0.795609 -3 -1.55874 -2.683901 -2.12132 -2.12132 
C -2.683901 -1.55874 -3 -0.795609 -3 0 
C -3 0.795609 -2.683901 1.55874 -2.12132 2.12132 
C -1.55874 2.683901 -0.795609 3 0 3 
z
" id="m4d17eb6f4c" style="stroke:#d62728;"/>
    </defs>
    <g clip-path="url(#pcd39df9889)">
     <use style="fill:#d62728;stroke:#d62728;" x="61.410938" xlink:href="#m4d17eb6f4c" y="289.822418"/>
     <use style="fill:#d62728;stroke:#d62728;" x="72.688411" xlink:href="#m4d17eb6f4c" y="214.38825"/>
     <use style="fill:#d62728;stroke:#d62728;" x="83.965885" xlink:href="#m4d17eb6f4c" y="92.917298"/>
     <use style="fill:#d62728;stroke:#d62728;" x="95.243359" xlink:href="#m4d17eb6f4c" y="124.737713"/>
     <use style="fill:#d62728;stroke:#d62728;" x="106.520832" xlink:href="#m4d17eb6f4c" y="205.24065"/>
     <use style="fill:#d62728;stroke:#d62728;" x="117.798306" xlink:href="#m4d17eb6f4c" y="167.797989"/>
     <use style="fill:#d62728;stroke:#d62728;" x="129.07578" xlink:href="#m4d17eb6f4c" y="148.16636"/>
     <use style="fill:#d62728;stroke:#d62728;" x="140.353253" xlink:href="#m4d17eb6f4c" y="194.566551"/>
     <use style="fill:#d62728;stroke:#d62728;" x="151.630727" xlink:href="#m4d17eb6f4c" y="165.303567"/>
     <use style="fill:#d62728;stroke:#d62728;" x="162.908201" xlink:href="#m4d17eb6f4c" y="161.013662"/>
     <use style="fill:#d62728;stroke:#d62728;" x="174.185674" xlink:href="#m4d17eb6f4c" y="134.417949"/>
     <use style="fill:#d62728;stroke:#d62728;" x="185.463148" xlink:href="#m4d17eb6f4c" y="149.621285"/>
     <use style="fill:#d62728;stroke:#d62728;" x="196.740622" xlink:href="#m4d17eb6f4c" y="144.483829"/>
     <use style="fill:#d62728;stroke:#d62728;" x="208.018095" xlink:href="#m4d17eb6f4c" y="160.227635"/>
     <use style="fill:#d62728;stroke:#d62728;" x="219.295569" xlink:href="#m4d17eb6f4c" y="190.245024"/>
     <use style="fill:#d62728;stroke:#d62728;" x="230.573043" xlink:href="#m4d17eb6f4c" y="224.744024"/>
    </g>
   </g>
   <g id="patch_3">
    <path d="M 61.410938 297.54825 
L 61.410938 31.43625 
" style="fill:none;stroke:#000000;stroke-linecap:square;stroke-linejoin:miter;stroke-width:0.8;"/>
   </g>
   <g id="patch_4">
    <path d="M 418.530938 297.54825 
L 418.530938 31.43625 
" style="fill:none;stroke:#000000;stroke-linecap:square;stroke-linejoin:miter;stroke-width:0.8;"/>
   </g>
   <g id="patch_5">
    <path d="M 61.410938 297.54825 
L 418.530938 297.54825 
" style="fill:none;stroke:#000000;stroke-linecap:square;stroke-linejoin:miter;stroke-width:0.8;"/>
   </g>
   <g id="patch_6">
    <path d="M 61.410938 31.43625 
L 418.530938 31.43625 
" style="fill:none;stroke:#000000;stroke-linecap:square;stroke-linejoin:miter;stroke-width:0.8;"/>
   </g>
   <g id="text_13">
    <!-- (D) -->
    <defs>
     <path d="M 19.671875 64.796875 
L 19.671875 8.109375 
L 31.59375 8.109375 
Q 46.6875 8.109375 53.6875 14.9375 
Q 60.6875 21.78125 60.6875 36.53125 
Q 60.6875 51.171875 53.6875 57.984375 
Q 46.6875 64.796875 31.59375 64.796875 
z
M 9.8125 72.90625 
L 30.078125 72.90625 
Q 51.265625 72.90625 61.171875 64.09375 
Q 71.09375 55.28125 71.09375 36.53125 
Q 71.09375 17.671875 61.125 8.828125 
Q 51.171875 0 30.078125 0 
L 9.8125 0 
z
" id="DejaVuSans-44"/>
    </defs>
    <g transform="translate(380.939359 58.04745)scale(0.2 -0.2)">
     <use xlink:href="#DejaVuSans-28"/>
     <use x="39.013672" xlink:href="#DejaVuSans-44"/>
     <use x="116.015625" xlink:href="#DejaVuSans-29"/>
    </g>
   </g>
   <g id="text_14">
    <!-- Y heating -->
    <defs>
     <path d="M -0.203125 72.90625 
L 10.40625 72.90625 
L 30.609375 42.921875 
L 50.6875 72.90625 
L 61.28125 72.90625 
L 35.5 34.71875 
L 35.5 0 
L 25.59375 0 
L 25.59375 34.71875 
z
" id="DejaVuSans-59"/>
     <path d="M 54.890625 33.015625 
L 54.890625 0 
L 45.90625 0 
L 45.90625 32.71875 
Q 45.90625 40.484375 42.875 44.328125 
Q 39.84375 48.1875 33.796875 48.1875 
Q 26.515625 48.1875 22.3125 43.546875 
Q 18.109375 38.921875 18.109375 30.90625 
L 18.109375 0 
L 9.078125 0 
L 9.078125 75.984375 
L 18.109375 75.984375 
L 18.109375 46.1875 
Q 21.34375 51.125 25.703125 53.5625 
Q 30.078125 56 35.796875 56 
Q 45.21875 56 50.046875 50.171875 
Q 54.890625 44.34375 54.890625 33.015625 
z
" id="DejaVuSans-68"/>
     <path d="M 18.3125 70.21875 
L 18.3125 54.6875 
L 36.8125 54.6875 
L 36.8125 47.703125 
L 18.3125 47.703125 
L 18.3125 18.015625 
Q 18.3125 11.328125 20.140625 9.421875 
Q 21.96875 7.515625 27.59375 7.515625 
L 36.8125 7.515625 
L 36.8125 0 
L 27.59375 0 
Q 17.1875 0 13.234375 3.875 
Q 9.28125 7.765625 9.28125 18.015625 
L 9.28125 47.703125 
L 2.6875 47.703125 
L 2.6875 54.6875 
L 9.28125 54.6875 
L 9.28125 70.21875 
z
" id="DejaVuSans-74"/>
     <path d="M 54.890625 33.015625 
L 54.890625 0 
L 45.90625 0 
L 45.90625 32.71875 
Q 45.90625 40.484375 42.875 44.328125 
Q 39.84375 48.1875 33.796875 48.1875 
Q 26.515625 48.1875 22.3125 43.546875 
Q 18.109375 38.921875 18.109375 30.90625 
L 18.109375 0 
L 9.078125 0 
L 9.078125 54.6875 
L 18.109375 54.6875 
L 18.109375 46.1875 
Q 21.34375 51.125 25.703125 53.5625 
Q 30.078125 56 35.796875 56 
Q 45.21875 56 50.046875 50.171875 
Q 54.890625 44.34375 54.890625 33.015625 
z
" id="DejaVuSans-6e"/>
     <path d="M 45.40625 27.984375 
Q 45.40625 37.75 41.375 43.109375 
Q 37.359375 48.484375 30.078125 48.484375 
Q 22.859375 48.484375 18.828125 43.109375 
Q 14.796875 37.75 14.796875 27.984375 
Q 14.796875 18.265625 18.828125 12.890625 
Q 22.859375 7.515625 30.078125 7.515625 
Q 37.359375 7.515625 41.375 12.890625 
Q 45.40625 18.265625 45.40625 27.984375 
z
M 54.390625 6.78125 
Q 54.390625 -7.171875 48.1875 -13.984375 
Q 42 -20.796875 29.203125 -20.796875 
Q 24.46875 -20.796875 20.265625 -20.09375 
Q 16.0625 -19.390625 12.109375 -17.921875 
L 12.109375 -9.1875 
Q 16.0625 -11.328125 19.921875 -12.34375 
Q 23.78125 -13.375 27.78125 -13.375 
Q 36.625 -13.375 41.015625 -8.765625 
Q 45.40625 -4.15625 45.40625 5.171875 
L 45.40625 9.625 
Q 42.625 4.78125 38.28125 2.390625 
Q 33.9375 0 27.875 0 
Q 17.828125 0 11.671875 7.65625 
Q 5.515625 15.328125 5.515625 27.984375 
Q 5.515625 40.671875 11.671875 48.328125 
Q 17.828125 56 27.875 56 
Q 33.9375 56 38.28125 53.609375 
Q 42.625 51.21875 45.40625 46.390625 
L 45.40625 54.6875 
L 54.390625 54.6875 
z
" id="DejaVuSans-67"/>
    </defs>
    <g transform="translate(183.224063 25.43625)scale(0.24 -0.24)">
     <use xlink:href="#DejaVuSans-59"/>
     <use x="61.083984" xlink:href="#DejaVuSans-20"/>
     <use x="92.871094" xlink:href="#DejaVuSans-68"/>
     <use x="156.25" xlink:href="#DejaVuSans-65"/>
     <use x="217.773438" xlink:href="#DejaVuSans-61"/>
     <use x="279.052734" xlink:href="#DejaVuSans-74"/>
     <use x="318.261719" xlink:href="#DejaVuSans-69"/>
     <use x="346.044922" xlink:href="#DejaVuSans-6e"/>
     <use x="409.423828" xlink:href="#DejaVuSans-67"/>
    </g>
   </g>
   <g id="legend_1">
    <g id="patch_7">
     <path d="M 296.074687 196.8485 
L 404.530937 196.8485 
Q 408.530937 196.8485 408.530937 192.8485 
L 408.530937 136.136 
Q 408.530937 132.136 404.530937 132.136 
L 296.074687 132.136 
Q 292.074687 132.136 292.074687 136.136 
L 292.074687 192.8485 
Q 292.074687 196.8485 296.074687 196.8485 
z
" style="fill:#ffffff;opacity:0.8;stroke:#cccccc;stroke-linejoin:miter;"/>
    </g>
    <g id="LineCollection_3">
     <path d="M 320.074687 158.332875 
L 320.074687 138.332875 
" style="fill:none;stroke:#1f77b4;stroke-width:1.5;"/>
    </g>
    <g id="line2d_25"/>
    <g id="line2d_26">
     <g>
      <use style="fill:#1f77b4;stroke:#1f77b4;" x="320.074687" xlink:href="#mcb2457e3ba" y="148.332875"/>
     </g>
    </g>
    <g id="text_15">
     <!-- Cold -->
     <defs>
      <path d="M 64.40625 67.28125 
L 64.40625 56.890625 
Q 59.421875 61.53125 53.78125 63.8125 
Q 48.140625 66.109375 41.796875 66.109375 
Q 29.296875 66.109375 22.65625 58.46875 
Q 16.015625 50.828125 16.015625 36.375 
Q 16.015625 21.96875 22.65625 14.328125 
Q 29.296875 6.6875 41.796875 6.6875 
Q 48.140625 6.6875 53.78125 8.984375 
Q 59.421875 11.28125 64.40625 15.921875 
L 64.40625 5.609375 
Q 59.234375 2.09375 53.4375 0.328125 
Q 47.65625 -1.421875 41.21875 -1.421875 
Q 24.65625 -1.421875 15.125 8.703125 
Q 5.609375 18.84375 5.609375 36.375 
Q 5.609375 53.953125 15.125 64.078125 
Q 24.65625 74.21875 41.21875 74.21875 
Q 47.75 74.21875 53.53125 72.484375 
Q 59.328125 70.75 64.40625 67.28125 
z
" id="DejaVuSans-43"/>
      <path d="M 30.609375 48.390625 
Q 23.390625 48.390625 19.1875 42.75 
Q 14.984375 37.109375 14.984375 27.296875 
Q 14.984375 17.484375 19.15625 11.84375 
Q 23.34375 6.203125 30.609375 6.203125 
Q 37.796875 6.203125 41.984375 11.859375 
Q 46.1875 17.53125 46.1875 27.296875 
Q 46.1875 37.015625 41.984375 42.703125 
Q 37.796875 48.390625 30.609375 48.390625 
z
M 30.609375 56 
Q 42.328125 56 49.015625 48.375 
Q 55.71875 40.765625 55.71875 27.296875 
Q 55.71875 13.875 49.015625 6.21875 
Q 42.328125 -1.421875 30.609375 -1.421875 
Q 18.84375 -1.421875 12.171875 6.21875 
Q 5.515625 13.875 5.515625 27.296875 
Q 5.515625 40.765625 12.171875 48.375 
Q 18.84375 56 30.609375 56 
z
" id="DejaVuSans-6f"/>
      <path d="M 45.40625 46.390625 
L 45.40625 75.984375 
L 54.390625 75.984375 
L 54.390625 0 
L 45.40625 0 
L 45.40625 8.203125 
Q 42.578125 3.328125 38.25 0.953125 
Q 33.9375 -1.421875 27.875 -1.421875 
Q 17.96875 -1.421875 11.734375 6.484375 
Q 5.515625 14.40625 5.515625 27.296875 
Q 5.515625 40.1875 11.734375 48.09375 
Q 17.96875 56 27.875 56 
Q 33.9375 56 38.25 53.625 
Q 42.578125 51.265625 45.40625 46.390625 
z
M 14.796875 27.296875 
Q 14.796875 17.390625 18.875 11.75 
Q 22.953125 6.109375 30.078125 6.109375 
Q 37.203125 6.109375 41.296875 11.75 
Q 45.40625 17.390625 45.40625 27.296875 
Q 45.40625 37.203125 41.296875 42.84375 
Q 37.203125 48.484375 30.078125 48.484375 
Q 22.953125 48.484375 18.875 42.84375 
Q 14.796875 37.203125 14.796875 27.296875 
z
" id="DejaVuSans-64"/>
     </defs>
     <g transform="translate(356.074687 155.332875)scale(0.2 -0.2)">
      <use xlink:href="#DejaVuSans-43"/>
      <use x="69.824219" xlink:href="#DejaVuSans-6f"/>
      <use x="131.005859" xlink:href="#DejaVuSans-6c"/>
      <use x="158.789062" xlink:href="#DejaVuSans-64"/>
     </g>
    </g>
    <g id="LineCollection_4">
     <path d="M 320.074687 187.689125 
L 320.074687 167.689125 
" style="fill:none;stroke:#d62728;stroke-width:1.5;"/>
    </g>
    <g id="line2d_27"/>
    <g id="line2d_28">
     <g>
      <use style="fill:#d62728;stroke:#d62728;" x="320.074687" xlink:href="#m4d17eb6f4c" y="177.689125"/>
     </g>
    </g>
    <g id="text_16">
     <!-- Hot -->
     <defs>
      <path d="M 9.8125 72.90625 
L 19.671875 72.90625 
L 19.671875 43.015625 
L 55.515625 43.015625 
L 55.515625 72.90625 
L 65.375 72.90625 
L 65.375 0 
L 55.515625 0 
L 55.515625 34.71875 
L 19.671875 34.71875 
L 19.671875 0 
L 9.8125 0 
z
" id="DejaVuSans-48"/>
     </defs>
     <g transform="translate(356.074687 184.689125)scale(0.2 -0.2)">
      <use xlink:href="#DejaVuSans-48"/>
      <use x="75.195312" xlink:href="#DejaVuSans-6f"/>
      <use x="136.376953" xlink:href="#DejaVuSans-74"/>
     </g>
    </g>
   </g>
  </g>
 </g>
 <defs>
  <clipPath id="pcd39df9889">
   <rect height="266.112" width="357.12" x="61.410938" y="31.43625"/>
  </clipPath>
 </defs>
</svg>
