<?xml version="1.0" encoding="utf-8" standalone="no"?>
<!DOCTYPE svg PUBLIC "-//W3C//DTD SVG 1.1//EN"
  "http://www.w3.org/Graphics/SVG/1.1/DTD/svg11.dtd">
<!-- Created with matplotlib (http://matplotlib.org/) -->
<svg height="349pt" version="1.1" viewBox="0 0 429 349" width="429pt" xmlns="http://www.w3.org/2000/svg" xmlns:xlink="http://www.w3.org/1999/xlink">
 <defs>
  <style type="text/css">
*{stroke-linecap:butt;stroke-linejoin:round;}
  </style>
 </defs>
 <g id="figure_1">
  <g id="patch_1">
   <path d="M 0 349.665437 
L 429.230937 349.665437 
L 429.230937 0 
L 0 0 
z
" style="fill:none;"/>
  </g>
  <g id="axes_1">
   <g id="patch_2">
    <path d="M 61.410938 297.54825 
L 418.530938 297.54825 
L 418.530938 31.43625 
L 61.410938 31.43625 
z
" style="fill:none;"/>
   </g>
   <g id="matplotlib.axis_1">
    <g id="xtick_1">
     <g id="line2d_1">
      <path clip-path="url(#pcd39df9889)" d="M 61.410938 297.54825 
L 61.410938 31.43625 
" style="fill:none;stroke:#b0b0b0;stroke-linecap:square;stroke-width:0.8;"/>
     </g>
     <g id="line2d_2">
      <defs>
       <path d="M 0 0 
L 0 3.5 
" id="m005f0a59be" style="stroke:#000000;stroke-width:0.8;"/>
      </defs>
      <g>
       <use style="stroke:#000000;stroke-width:0.8;" x="61.410938" xlink:href="#m005f0a59be" y="297.54825"/>
      </g>
     </g>
     <g id="text_1">
      <!-- 0 -->
      <defs>
       <path d="M 31.78125 66.40625 
Q 24.171875 66.40625 20.328125 58.90625 
Q 16.5 51.421875 16.5 36.375 
Q 16.5 21.390625 20.328125 13.890625 
Q 24.171875 6.390625 31.78125 6.390625 
Q 39.453125 6.390625 43.28125 13.890625 
Q 47.125 21.390625 47.125 36.375 
Q 47.125 51.421875 43.28125 58.90625 
Q 39.453125 66.40625 31.78125 66.40625 
z
M 31.78125 74.21875 
Q 44.046875 74.21875 50.515625 64.515625 
Q 56.984375 54.828125 56.984375 36.375 
Q 56.984375 17.96875 50.515625 8.265625 
Q 44.046875 -1.421875 31.78125 -1.421875 
Q 19.53125 -1.421875 13.0625 8.265625 
Q 6.59375 17.96875 6.59375 36.375 
Q 6.59375 54.828125 13.0625 64.515625 
Q 19.53125 74.21875 31.78125 74.21875 
z
" id="DejaVuSans-30"/>
      </defs>
      <g transform="translate(56.639063 315.945906)scale(0.15 -0.15)">
       <use xlink:href="#DejaVuSans-30"/>
      </g>
     </g>
    </g>
    <g id="xtick_2">
     <g id="line2d_3">
      <path clip-path="url(#pcd39df9889)" d="M 129.433795 297.54825 
L 129.433795 31.43625 
" style="fill:none;stroke:#b0b0b0;stroke-linecap:square;stroke-width:0.8;"/>
     </g>
     <g id="line2d_4">
      <g>
       <use style="stroke:#000000;stroke-width:0.8;" x="129.433795" xlink:href="#m005f0a59be" y="297.54825"/>
      </g>
     </g>
     <g id="text_2">
      <!-- 20 -->
      <defs>
       <path d="M 19.1875 8.296875 
L 53.609375 8.296875 
L 53.609375 0 
L 7.328125 0 
L 7.328125 8.296875 
Q 12.9375 14.109375 22.625 23.890625 
Q 32.328125 33.6875 34.8125 36.53125 
Q 39.546875 41.84375 41.421875 45.53125 
Q 43.3125 49.21875 43.3125 52.78125 
Q 43.3125 58.59375 39.234375 62.25 
Q 35.15625 65.921875 28.609375 65.921875 
Q 23.96875 65.921875 18.8125 64.3125 
Q 13.671875 62.703125 7.8125 59.421875 
L 7.8125 69.390625 
Q 13.765625 71.78125 18.9375 73 
Q 24.125 74.21875 28.421875 74.21875 
Q 39.75 74.21875 46.484375 68.546875 
Q 53.21875 62.890625 53.21875 53.421875 
Q 53.21875 48.921875 51.53125 44.890625 
Q 49.859375 40.875 45.40625 35.40625 
Q 44.1875 33.984375 37.640625 27.21875 
Q 31.109375 20.453125 19.1875 8.296875 
z
" id="DejaVuSans-32"/>
      </defs>
      <g transform="translate(119.890045 315.945906)scale(0.15 -0.15)">
       <use xlink:href="#DejaVuSans-32"/>
       <use x="63.623047" xlink:href="#DejaVuSans-30"/>
      </g>
     </g>
    </g>
    <g id="xtick_3">
     <g id="line2d_5">
      <path clip-path="url(#pcd39df9889)" d="M 197.456652 297.54825 
L 197.456652 31.43625 
" style="fill:none;stroke:#b0b0b0;stroke-linecap:square;stroke-width:0.8;"/>
     </g>
     <g id="line2d_6">
      <g>
       <use style="stroke:#000000;stroke-width:0.8;" x="197.456652" xlink:href="#m005f0a59be" y="297.54825"/>
      </g>
     </g>
     <g id="text_3">
      <!-- 40 -->
      <defs>
       <path d="M 37.796875 64.3125 
L 12.890625 25.390625 
L 37.796875 25.390625 
z
M 35.203125 72.90625 
L 47.609375 72.90625 
L 47.609375 25.390625 
L 58.015625 25.390625 
L 58.015625 17.1875 
L 47.609375 17.1875 
L 47.609375 0 
L 37.796875 0 
L 37.796875 17.1875 
L 4.890625 17.1875 
L 4.890625 26.703125 
z
" id="DejaVuSans-34"/>
      </defs>
      <g transform="translate(187.912902 315.945906)scale(0.15 -0.15)">
       <use xlink:href="#DejaVuSans-34"/>
       <use x="63.623047" xlink:href="#DejaVuSans-30"/>
      </g>
     </g>
    </g>
    <g id="xtick_4">
     <g id="line2d_7">
      <path clip-path="url(#pcd39df9889)" d="M 265.479509 297.54825 
L 265.479509 31.43625 
" style="fill:none;stroke:#b0b0b0;stroke-linecap:square;stroke-width:0.8;"/>
     </g>
     <g id="line2d_8">
      <g>
       <use style="stroke:#000000;stroke-width:0.8;" x="265.479509" xlink:href="#m005f0a59be" y="297.54825"/>
      </g>
     </g>
     <g id="text_4">
      <!-- 60 -->
      <defs>
       <path d="M 33.015625 40.375 
Q 26.375 40.375 22.484375 35.828125 
Q 18.609375 31.296875 18.609375 23.390625 
Q 18.609375 15.53125 22.484375 10.953125 
Q 26.375 6.390625 33.015625 6.390625 
Q 39.65625 6.390625 43.53125 10.953125 
Q 47.40625 15.53125 47.40625 23.390625 
Q 47.40625 31.296875 43.53125 35.828125 
Q 39.65625 40.375 33.015625 40.375 
z
M 52.59375 71.296875 
L 52.59375 62.3125 
Q 48.875 64.0625 45.09375 64.984375 
Q 41.3125 65.921875 37.59375 65.921875 
Q 27.828125 65.921875 22.671875 59.328125 
Q 17.53125 52.734375 16.796875 39.40625 
Q 19.671875 43.65625 24.015625 45.921875 
Q 28.375 48.1875 33.59375 48.1875 
Q 44.578125 48.1875 50.953125 41.515625 
Q 57.328125 34.859375 57.328125 23.390625 
Q 57.328125 12.15625 50.6875 5.359375 
Q 44.046875 -1.421875 33.015625 -1.421875 
Q 20.359375 -1.421875 13.671875 8.265625 
Q 6.984375 17.96875 6.984375 36.375 
Q 6.984375 53.65625 15.1875 63.9375 
Q 23.390625 74.21875 37.203125 74.21875 
Q 40.921875 74.21875 44.703125 73.484375 
Q 48.484375 72.75 52.59375 71.296875 
z
" id="DejaVuSans-36"/>
      </defs>
      <g transform="translate(255.935759 315.945906)scale(0.15 -0.15)">
       <use xlink:href="#DejaVuSans-36"/>
       <use x="63.623047" xlink:href="#DejaVuSans-30"/>
      </g>
     </g>
    </g>
    <g id="xtick_5">
     <g id="line2d_9">
      <path clip-path="url(#pcd39df9889)" d="M 333.502366 297.54825 
L 333.502366 31.43625 
" style="fill:none;stroke:#b0b0b0;stroke-linecap:square;stroke-width:0.8;"/>
     </g>
     <g id="line2d_10">
      <g>
       <use style="stroke:#000000;stroke-width:0.8;" x="333.502366" xlink:href="#m005f0a59be" y="297.54825"/>
      </g>
     </g>
     <g id="text_5">
      <!-- 80 -->
      <defs>
       <path d="M 31.78125 34.625 
Q 24.75 34.625 20.71875 30.859375 
Q 16.703125 27.09375 16.703125 20.515625 
Q 16.703125 13.921875 20.71875 10.15625 
Q 24.75 6.390625 31.78125 6.390625 
Q 38.8125 6.390625 42.859375 10.171875 
Q 46.921875 13.96875 46.921875 20.515625 
Q 46.921875 27.09375 42.890625 30.859375 
Q 38.875 34.625 31.78125 34.625 
z
M 21.921875 38.8125 
Q 15.578125 40.375 12.03125 44.71875 
Q 8.5 49.078125 8.5 55.328125 
Q 8.5 64.0625 14.71875 69.140625 
Q 20.953125 74.21875 31.78125 74.21875 
Q 42.671875 74.21875 48.875 69.140625 
Q 55.078125 64.0625 55.078125 55.328125 
Q 55.078125 49.078125 51.53125 44.71875 
Q 48 40.375 41.703125 38.8125 
Q 48.828125 37.15625 52.796875 32.3125 
Q 56.78125 27.484375 56.78125 20.515625 
Q 56.78125 9.90625 50.3125 4.234375 
Q 43.84375 -1.421875 31.78125 -1.421875 
Q 19.734375 -1.421875 13.25 4.234375 
Q 6.78125 9.90625 6.78125 20.515625 
Q 6.78125 27.484375 10.78125 32.3125 
Q 14.796875 37.15625 21.921875 38.8125 
z
M 18.3125 54.390625 
Q 18.3125 48.734375 21.84375 45.5625 
Q 25.390625 42.390625 31.78125 42.390625 
Q 38.140625 42.390625 41.71875 45.5625 
Q 45.3125 48.734375 45.3125 54.390625 
Q 45.3125 60.0625 41.71875 63.234375 
Q 38.140625 66.40625 31.78125 66.40625 
Q 25.390625 66.40625 21.84375 63.234375 
Q 18.3125 60.0625 18.3125 54.390625 
z
" id="DejaVuSans-38"/>
      </defs>
      <g transform="translate(323.958616 315.945906)scale(0.15 -0.15)">
       <use xlink:href="#DejaVuSans-38"/>
       <use x="63.623047" xlink:href="#DejaVuSans-30"/>
      </g>
     </g>
    </g>
    <g id="xtick_6">
     <g id="line2d_11">
      <path clip-path="url(#pcd39df9889)" d="M 401.525223 297.54825 
L 401.525223 31.43625 
" style="fill:none;stroke:#b0b0b0;stroke-linecap:square;stroke-width:0.8;"/>
     </g>
     <g id="line2d_12">
      <g>
       <use style="stroke:#000000;stroke-width:0.8;" x="401.525223" xlink:href="#m005f0a59be" y="297.54825"/>
      </g>
     </g>
     <g id="text_6">
      <!-- 100 -->
      <defs>
       <path d="M 12.40625 8.296875 
L 28.515625 8.296875 
L 28.515625 63.921875 
L 10.984375 60.40625 
L 10.984375 69.390625 
L 28.421875 72.90625 
L 38.28125 72.90625 
L 38.28125 8.296875 
L 54.390625 8.296875 
L 54.390625 0 
L 12.40625 0 
z
" id="DejaVuSans-31"/>
      </defs>
      <g transform="translate(387.209598 315.945906)scale(0.15 -0.15)">
       <use xlink:href="#DejaVuSans-31"/>
       <use x="63.623047" xlink:href="#DejaVuSans-30"/>
       <use x="127.246094" xlink:href="#DejaVuSans-30"/>
      </g>
     </g>
    </g>
    <g id="text_7">
     <!-- Time ($\mu s$) -->
     <defs>
      <path d="M -0.296875 72.90625 
L 61.375 72.90625 
L 61.375 64.59375 
L 35.5 64.59375 
L 35.5 0 
L 25.59375 0 
L 25.59375 64.59375 
L -0.296875 64.59375 
z
" id="DejaVuSans-54"/>
      <path d="M 9.421875 54.6875 
L 18.40625 54.6875 
L 18.40625 0 
L 9.421875 0 
z
M 9.421875 75.984375 
L 18.40625 75.984375 
L 18.40625 64.59375 
L 9.421875 64.59375 
z
" id="DejaVuSans-69"/>
      <path d="M 52 44.1875 
Q 55.375 50.25 60.0625 53.125 
Q 64.75 56 71.09375 56 
Q 79.640625 56 84.28125 50.015625 
Q 88.921875 44.046875 88.921875 33.015625 
L 88.921875 0 
L 79.890625 0 
L 79.890625 32.71875 
Q 79.890625 40.578125 77.09375 44.375 
Q 74.3125 48.1875 68.609375 48.1875 
Q 61.625 48.1875 57.5625 43.546875 
Q 53.515625 38.921875 53.515625 30.90625 
L 53.515625 0 
L 44.484375 0 
L 44.484375 32.71875 
Q 44.484375 40.625 41.703125 44.40625 
Q 38.921875 48.1875 33.109375 48.1875 
Q 26.21875 48.1875 22.15625 43.53125 
Q 18.109375 38.875 18.109375 30.90625 
L 18.109375 0 
L 9.078125 0 
L 9.078125 54.6875 
L 18.109375 54.6875 
L 18.109375 46.1875 
Q 21.1875 51.21875 25.484375 53.609375 
Q 29.78125 56 35.6875 56 
Q 41.65625 56 45.828125 52.96875 
Q 50 49.953125 52 44.1875 
z
" id="DejaVuSans-6d"/>
      <path d="M 56.203125 29.59375 
L 56.203125 25.203125 
L 14.890625 25.203125 
Q 15.484375 15.921875 20.484375 11.0625 
Q 25.484375 6.203125 34.421875 6.203125 
Q 39.59375 6.203125 44.453125 7.46875 
Q 49.3125 8.734375 54.109375 11.28125 
L 54.109375 2.78125 
Q 49.265625 0.734375 44.1875 -0.34375 
Q 39.109375 -1.421875 33.890625 -1.421875 
Q 20.796875 -1.421875 13.15625 6.1875 
Q 5.515625 13.8125 5.515625 26.8125 
Q 5.515625 40.234375 12.765625 48.109375 
Q 20.015625 56 32.328125 56 
Q 43.359375 56 49.78125 48.890625 
Q 56.203125 41.796875 56.203125 29.59375 
z
M 47.21875 32.234375 
Q 47.125 39.59375 43.09375 43.984375 
Q 39.0625 48.390625 32.421875 48.390625 
Q 24.90625 48.390625 20.390625 44.140625 
Q 15.875 39.890625 15.1875 32.171875 
z
" id="DejaVuSans-65"/>
      <path id="DejaVuSans-20"/>
      <path d="M 31 75.875 
Q 24.46875 64.65625 21.28125 53.65625 
Q 18.109375 42.671875 18.109375 31.390625 
Q 18.109375 20.125 21.3125 9.0625 
Q 24.515625 -2 31 -13.1875 
L 23.1875 -13.1875 
Q 15.875 -1.703125 12.234375 9.375 
Q 8.59375 20.453125 8.59375 31.390625 
Q 8.59375 42.28125 12.203125 53.3125 
Q 15.828125 64.359375 23.1875 75.875 
z
" id="DejaVuSans-28"/>
      <path d="M -1.3125 -20.796875 
L 13.375 54.6875 
L 22.40625 54.6875 
L 15.765625 20.65625 
Q 15.578125 19.625 15.421875 18.359375 
Q 15.28125 17.09375 15.28125 15.828125 
Q 15.28125 11.28125 18.140625 8.828125 
Q 21 6.390625 26.3125 6.390625 
Q 33.546875 6.390625 37.984375 10.484375 
Q 42.4375 14.59375 44 22.796875 
L 50.203125 54.6875 
L 59.1875 54.6875 
L 51.03125 12.640625 
Q 50.828125 11.71875 50.75 11.03125 
Q 50.6875 10.359375 50.6875 9.8125 
Q 50.6875 8.296875 51.296875 7.59375 
Q 51.90625 6.890625 53.21875 6.890625 
Q 53.71875 6.890625 54.5625 7.125 
Q 55.421875 7.375 56.984375 8.015625 
L 55.609375 0.78125 
Q 53.46875 -0.296875 51.515625 -0.859375 
Q 49.5625 -1.421875 47.703125 -1.421875 
Q 44.484375 -1.421875 42.65625 0.625 
Q 40.828125 2.6875 40.828125 6.296875 
Q 38.09375 2.390625 34.296875 0.484375 
Q 30.515625 -1.421875 25.390625 -1.421875 
Q 20.84375 -1.421875 17.453125 0.671875 
Q 14.0625 2.78125 12.984375 6.203125 
L 7.71875 -20.796875 
z
" id="DejaVuSans-Oblique-3bc"/>
      <path d="M 50 53.078125 
L 48.296875 44.578125 
Q 44.734375 46.53125 40.765625 47.5 
Q 36.8125 48.484375 32.625 48.484375 
Q 25.53125 48.484375 21.453125 46.0625 
Q 17.390625 43.65625 17.390625 39.5 
Q 17.390625 34.671875 26.859375 32.078125 
Q 27.59375 31.890625 27.9375 31.78125 
L 30.8125 30.90625 
Q 39.796875 28.421875 42.796875 25.6875 
Q 45.796875 22.953125 45.796875 18.21875 
Q 45.796875 9.515625 38.890625 4.046875 
Q 31.984375 -1.421875 20.796875 -1.421875 
Q 16.453125 -1.421875 11.671875 -0.578125 
Q 6.890625 0.25 1.125 2 
L 2.875 11.28125 
Q 7.8125 8.734375 12.59375 7.421875 
Q 17.390625 6.109375 21.78125 6.109375 
Q 28.375 6.109375 32.5 8.9375 
Q 36.625 11.765625 36.625 16.109375 
Q 36.625 20.796875 25.78125 23.6875 
L 24.859375 23.921875 
L 21.78125 24.703125 
Q 14.9375 26.515625 11.765625 29.46875 
Q 8.59375 32.421875 8.59375 37.015625 
Q 8.59375 45.75 15.15625 50.875 
Q 21.734375 56 33.015625 56 
Q 37.453125 56 41.671875 55.265625 
Q 45.90625 54.546875 50 53.078125 
z
" id="DejaVuSans-Oblique-73"/>
      <path d="M 8.015625 75.875 
L 15.828125 75.875 
Q 23.140625 64.359375 26.78125 53.3125 
Q 30.421875 42.28125 30.421875 31.390625 
Q 30.421875 20.453125 26.78125 9.375 
Q 23.140625 -1.703125 15.828125 -13.1875 
L 8.015625 -13.1875 
Q 14.5 -2 17.703125 9.0625 
Q 20.90625 20.125 20.90625 31.390625 
Q 20.90625 42.671875 17.703125 53.65625 
Q 14.5 64.65625 8.015625 75.875 
z
" id="DejaVuSans-29"/>
     </defs>
     <g transform="translate(192.570938 338.265437)scale(0.2 -0.2)">
      <use transform="translate(0 0.015625)" xlink:href="#DejaVuSans-54"/>
      <use transform="translate(61.083984 0.015625)" xlink:href="#DejaVuSans-69"/>
      <use transform="translate(88.867188 0.015625)" xlink:href="#DejaVuSans-6d"/>
      <use transform="translate(186.279297 0.015625)" xlink:href="#DejaVuSans-65"/>
      <use transform="translate(247.802734 0.015625)" xlink:href="#DejaVuSans-20"/>
      <use transform="translate(279.589844 0.015625)" xlink:href="#DejaVuSans-28"/>
      <use transform="translate(318.603516 0.015625)" xlink:href="#DejaVuSans-Oblique-3bc"/>
      <use transform="translate(382.226562 0.015625)" xlink:href="#DejaVuSans-Oblique-73"/>
      <use transform="translate(434.326172 0.015625)" xlink:href="#DejaVuSans-29"/>
     </g>
    </g>
   </g>
   <g id="matplotlib.axis_2">
    <g id="ytick_1">
     <g id="line2d_13">
      <path clip-path="url(#pcd39df9889)" d="M 61.410938 297.54825 
L 418.530938 297.54825 
" style="fill:none;stroke:#b0b0b0;stroke-linecap:square;stroke-width:0.8;"/>
     </g>
     <g id="line2d_14">
      <defs>
       <path d="M 0 0 
L -3.5 0 
" id="mc3ce260a5b" style="stroke:#000000;stroke-width:0.8;"/>
      </defs>
      <g>
       <use style="stroke:#000000;stroke-width:0.8;" x="61.410938" xlink:href="#mc3ce260a5b" y="297.54825"/>
      </g>
     </g>
     <g id="text_8">
      <!-- 0.0 -->
      <defs>
       <path d="M 10.6875 12.40625 
L 21 12.40625 
L 21 0 
L 10.6875 0 
z
" id="DejaVuSans-2e"/>
      </defs>
      <g transform="translate(30.55625 303.247078)scale(0.15 -0.15)">
       <use xlink:href="#DejaVuSans-30"/>
       <use x="63.623047" xlink:href="#DejaVuSans-2e"/>
       <use x="95.410156" xlink:href="#DejaVuSans-30"/>
      </g>
     </g>
    </g>
    <g id="ytick_2">
     <g id="line2d_15">
      <path clip-path="url(#pcd39df9889)" d="M 61.410938 244.32585 
L 418.530938 244.32585 
" style="fill:none;stroke:#b0b0b0;stroke-linecap:square;stroke-width:0.8;"/>
     </g>
     <g id="line2d_16">
      <g>
       <use style="stroke:#000000;stroke-width:0.8;" x="61.410938" xlink:href="#mc3ce260a5b" y="244.32585"/>
      </g>
     </g>
     <g id="text_9">
      <!-- 0.2 -->
      <g transform="translate(30.55625 250.024678)scale(0.15 -0.15)">
       <use xlink:href="#DejaVuSans-30"/>
       <use x="63.623047" xlink:href="#DejaVuSans-2e"/>
       <use x="95.410156" xlink:href="#DejaVuSans-32"/>
      </g>
     </g>
    </g>
    <g id="ytick_3">
     <g id="line2d_17">
      <path clip-path="url(#pcd39df9889)" d="M 61.410938 191.10345 
L 418.530938 191.10345 
" style="fill:none;stroke:#b0b0b0;stroke-linecap:square;stroke-width:0.8;"/>
     </g>
     <g id="line2d_18">
      <g>
       <use style="stroke:#000000;stroke-width:0.8;" x="61.410938" xlink:href="#mc3ce260a5b" y="191.10345"/>
      </g>
     </g>
     <g id="text_10">
      <!-- 0.4 -->
      <g transform="translate(30.55625 196.802278)scale(0.15 -0.15)">
       <use xlink:href="#DejaVuSans-30"/>
       <use x="63.623047" xlink:href="#DejaVuSans-2e"/>
       <use x="95.410156" xlink:href="#DejaVuSans-34"/>
      </g>
     </g>
    </g>
    <g id="ytick_4">
     <g id="line2d_19">
      <path clip-path="url(#pcd39df9889)" d="M 61.410938 137.88105 
L 418.530938 137.88105 
" style="fill:none;stroke:#b0b0b0;stroke-linecap:square;stroke-width:0.8;"/>
     </g>
     <g id="line2d_20">
      <g>
       <use style="stroke:#000000;stroke-width:0.8;" x="61.410938" xlink:href="#mc3ce260a5b" y="137.88105"/>
      </g>
     </g>
     <g id="text_11">
      <!-- 0.6 -->
      <g transform="translate(30.55625 143.579878)scale(0.15 -0.15)">
       <use xlink:href="#DejaVuSans-30"/>
       <use x="63.623047" xlink:href="#DejaVuSans-2e"/>
       <use x="95.410156" xlink:href="#DejaVuSans-36"/>
      </g>
     </g>
    </g>
    <g id="ytick_5">
     <g id="line2d_21">
      <path clip-path="url(#pcd39df9889)" d="M 61.410938 84.65865 
L 418.530938 84.65865 
" style="fill:none;stroke:#b0b0b0;stroke-linecap:square;stroke-width:0.8;"/>
     </g>
     <g id="line2d_22">
      <g>
       <use style="stroke:#000000;stroke-width:0.8;" x="61.410938" xlink:href="#mc3ce260a5b" y="84.65865"/>
      </g>
     </g>
     <g id="text_12">
      <!-- 0.8 -->
      <g transform="translate(30.55625 90.357478)scale(0.15 -0.15)">
       <use xlink:href="#DejaVuSans-30"/>
       <use x="63.623047" xlink:href="#DejaVuSans-2e"/>
       <use x="95.410156" xlink:href="#DejaVuSans-38"/>
      </g>
     </g>
    </g>
    <g id="ytick_6">
     <g id="line2d_23">
      <path clip-path="url(#pcd39df9889)" d="M 61.410938 31.43625 
L 418.530938 31.43625 
" style="fill:none;stroke:#b0b0b0;stroke-linecap:square;stroke-width:0.8;"/>
     </g>
     <g id="line2d_24">
      <g>
       <use style="stroke:#000000;stroke-width:0.8;" x="61.410938" xlink:href="#mc3ce260a5b" y="31.43625"/>
      </g>
     </g>
     <g id="text_13">
      <!-- 1.0 -->
      <g transform="translate(30.55625 37.135078)scale(0.15 -0.15)">
       <use xlink:href="#DejaVuSans-31"/>
       <use x="63.623047" xlink:href="#DejaVuSans-2e"/>
       <use x="95.410156" xlink:href="#DejaVuSans-30"/>
      </g>
     </g>
    </g>
    <g id="text_14">
     <!-- Survival -->
     <defs>
      <path d="M 53.515625 70.515625 
L 53.515625 60.890625 
Q 47.90625 63.578125 42.921875 64.890625 
Q 37.9375 66.21875 33.296875 66.21875 
Q 25.25 66.21875 20.875 63.09375 
Q 16.5 59.96875 16.5 54.203125 
Q 16.5 49.359375 19.40625 46.890625 
Q 22.3125 44.4375 30.421875 42.921875 
L 36.375 41.703125 
Q 47.40625 39.59375 52.65625 34.296875 
Q 57.90625 29 57.90625 20.125 
Q 57.90625 9.515625 50.796875 4.046875 
Q 43.703125 -1.421875 29.984375 -1.421875 
Q 24.8125 -1.421875 18.96875 -0.25 
Q 13.140625 0.921875 6.890625 3.21875 
L 6.890625 13.375 
Q 12.890625 10.015625 18.65625 8.296875 
Q 24.421875 6.59375 29.984375 6.59375 
Q 38.421875 6.59375 43.015625 9.90625 
Q 47.609375 13.234375 47.609375 19.390625 
Q 47.609375 24.75 44.3125 27.78125 
Q 41.015625 30.8125 33.5 32.328125 
L 27.484375 33.5 
Q 16.453125 35.6875 11.515625 40.375 
Q 6.59375 45.0625 6.59375 53.421875 
Q 6.59375 63.09375 13.40625 68.65625 
Q 20.21875 74.21875 32.171875 74.21875 
Q 37.3125 74.21875 42.625 73.28125 
Q 47.953125 72.359375 53.515625 70.515625 
z
" id="DejaVuSans-53"/>
      <path d="M 8.5 21.578125 
L 8.5 54.6875 
L 17.484375 54.6875 
L 17.484375 21.921875 
Q 17.484375 14.15625 20.5 10.265625 
Q 23.53125 6.390625 29.59375 6.390625 
Q 36.859375 6.390625 41.078125 11.03125 
Q 45.3125 15.671875 45.3125 23.6875 
L 45.3125 54.6875 
L 54.296875 54.6875 
L 54.296875 0 
L 45.3125 0 
L 45.3125 8.40625 
Q 42.046875 3.421875 37.71875 1 
Q 33.40625 -1.421875 27.6875 -1.421875 
Q 18.265625 -1.421875 13.375 4.4375 
Q 8.5 10.296875 8.5 21.578125 
z
M 31.109375 56 
z
" id="DejaVuSans-75"/>
      <path d="M 41.109375 46.296875 
Q 39.59375 47.171875 37.8125 47.578125 
Q 36.03125 48 33.890625 48 
Q 26.265625 48 22.1875 43.046875 
Q 18.109375 38.09375 18.109375 28.8125 
L 18.109375 0 
L 9.078125 0 
L 9.078125 54.6875 
L 18.109375 54.6875 
L 18.109375 46.1875 
Q 20.953125 51.171875 25.484375 53.578125 
Q 30.03125 56 36.53125 56 
Q 37.453125 56 38.578125 55.875 
Q 39.703125 55.765625 41.0625 55.515625 
z
" id="DejaVuSans-72"/>
      <path d="M 2.984375 54.6875 
L 12.5 54.6875 
L 29.59375 8.796875 
L 46.6875 54.6875 
L 56.203125 54.6875 
L 35.6875 0 
L 23.484375 0 
z
" id="DejaVuSans-76"/>
      <path d="M 34.28125 27.484375 
Q 23.390625 27.484375 19.1875 25 
Q 14.984375 22.515625 14.984375 16.5 
Q 14.984375 11.71875 18.140625 8.90625 
Q 21.296875 6.109375 26.703125 6.109375 
Q 34.1875 6.109375 38.703125 11.40625 
Q 43.21875 16.703125 43.21875 25.484375 
L 43.21875 27.484375 
z
M 52.203125 31.203125 
L 52.203125 0 
L 43.21875 0 
L 43.21875 8.296875 
Q 40.140625 3.328125 35.546875 0.953125 
Q 30.953125 -1.421875 24.3125 -1.421875 
Q 15.921875 -1.421875 10.953125 3.296875 
Q 6 8.015625 6 15.921875 
Q 6 25.140625 12.171875 29.828125 
Q 18.359375 34.515625 30.609375 34.515625 
L 43.21875 34.515625 
L 43.21875 35.40625 
Q 43.21875 41.609375 39.140625 45 
Q 35.0625 48.390625 27.6875 48.390625 
Q 23 48.390625 18.546875 47.265625 
Q 14.109375 46.140625 10.015625 43.890625 
L 10.015625 52.203125 
Q 14.9375 54.109375 19.578125 55.046875 
Q 24.21875 56 28.609375 56 
Q 40.484375 56 46.34375 49.84375 
Q 52.203125 43.703125 52.203125 31.203125 
z
" id="DejaVuSans-61"/>
      <path d="M 9.421875 75.984375 
L 18.40625 75.984375 
L 18.40625 0 
L 9.421875 0 
z
" id="DejaVuSans-6c"/>
     </defs>
     <g transform="translate(22.396875 204.811)rotate(-90)scale(0.2 -0.2)">
      <use xlink:href="#DejaVuSans-53"/>
      <use x="63.476562" xlink:href="#DejaVuSans-75"/>
      <use x="126.855469" xlink:href="#DejaVuSans-72"/>
      <use x="167.96875" xlink:href="#DejaVuSans-76"/>
      <use x="227.148438" xlink:href="#DejaVuSans-69"/>
      <use x="254.931641" xlink:href="#DejaVuSans-76"/>
      <use x="314.111328" xlink:href="#DejaVuSans-61"/>
      <use x="375.390625" xlink:href="#DejaVuSans-6c"/>
     </g>
    </g>
   </g>
   <g id="LineCollection_1">
    <path clip-path="url(#pcd39df9889)" d="M 61.410938 297.54825 
L 61.410938 296.36553 
" style="fill:none;stroke:#1f77b4;stroke-width:1.5;"/>
    <path clip-path="url(#pcd39df9889)" d="M 69.913795 241.828995 
L 69.913795 227.329727 
" style="fill:none;stroke:#1f77b4;stroke-width:1.5;"/>
    <path clip-path="url(#pcd39df9889)" d="M 78.416652 98.67311 
L 78.416652 83.447692 
" style="fill:none;stroke:#1f77b4;stroke-width:1.5;"/>
    <path clip-path="url(#pcd39df9889)" d="M 86.919509 64.746548 
L 86.919509 54.089419 
" style="fill:none;stroke:#1f77b4;stroke-width:1.5;"/>
    <path clip-path="url(#pcd39df9889)" d="M 95.422366 175.851106 
L 95.422366 158.677394 
" style="fill:none;stroke:#1f77b4;stroke-width:1.5;"/>
    <path clip-path="url(#pcd39df9889)" d="M 103.925223 292.692074 
L 103.925223 286.750779 
" style="fill:none;stroke:#1f77b4;stroke-width:1.5;"/>
    <path clip-path="url(#pcd39df9889)" d="M 112.42808 250.157468 
L 112.42808 236.562773 
" style="fill:none;stroke:#1f77b4;stroke-width:1.5;"/>
    <path clip-path="url(#pcd39df9889)" d="M 120.930938 125.064088 
L 120.930938 108.543987 
" style="fill:none;stroke:#1f77b4;stroke-width:1.5;"/>
    <path clip-path="url(#pcd39df9889)" d="M 129.433795 66.430675 
L 129.433795 55.449268 
" style="fill:none;stroke:#1f77b4;stroke-width:1.5;"/>
    <path clip-path="url(#pcd39df9889)" d="M 137.936652 173.844124 
L 137.936652 156.297385 
" style="fill:none;stroke:#1f77b4;stroke-width:1.5;"/>
    <path clip-path="url(#pcd39df9889)" d="M 146.439509 283.742121 
L 146.439509 274.852291 
" style="fill:none;stroke:#1f77b4;stroke-width:1.5;"/>
    <path clip-path="url(#pcd39df9889)" d="M 154.942366 263.14087 
L 154.942366 250.168914 
" style="fill:none;stroke:#1f77b4;stroke-width:1.5;"/>
    <path clip-path="url(#pcd39df9889)" d="M 163.445223 133.029398 
L 163.445223 116.568749 
" style="fill:none;stroke:#1f77b4;stroke-width:1.5;"/>
    <path clip-path="url(#pcd39df9889)" d="M 171.94808 56.403254 
L 171.94808 47.324615 
" style="fill:none;stroke:#1f77b4;stroke-width:1.5;"/>
    <path clip-path="url(#pcd39df9889)" d="M 180.450938 170.923525 
L 180.450938 153.492529 
" style="fill:none;stroke:#1f77b4;stroke-width:1.5;"/>
    <path clip-path="url(#pcd39df9889)" d="M 188.953795 277.67062 
L 188.953795 267.736918 
" style="fill:none;stroke:#1f77b4;stroke-width:1.5;"/>
    <path clip-path="url(#pcd39df9889)" d="M 197.456652 275.556141 
L 197.456652 264.923485 
" style="fill:none;stroke:#1f77b4;stroke-width:1.5;"/>
    <path clip-path="url(#pcd39df9889)" d="M 205.959509 143.798133 
L 205.959509 126.571389 
" style="fill:none;stroke:#1f77b4;stroke-width:1.5;"/>
    <path clip-path="url(#pcd39df9889)" d="M 214.462366 66.983493 
L 214.462366 55.447407 
" style="fill:none;stroke:#1f77b4;stroke-width:1.5;"/>
    <path clip-path="url(#pcd39df9889)" d="M 222.965223 131.183443 
L 222.965223 114.268142 
" style="fill:none;stroke:#1f77b4;stroke-width:1.5;"/>
    <path clip-path="url(#pcd39df9889)" d="M 231.46808 247.015601 
L 231.46808 232.328146 
" style="fill:none;stroke:#1f77b4;stroke-width:1.5;"/>
    <path clip-path="url(#pcd39df9889)" d="M 239.970938 275.94623 
L 239.970938 265.208649 
" style="fill:none;stroke:#1f77b4;stroke-width:1.5;"/>
    <path clip-path="url(#pcd39df9889)" d="M 248.473795 171.032839 
L 248.473795 153.135154 
" style="fill:none;stroke:#1f77b4;stroke-width:1.5;"/>
    <path clip-path="url(#pcd39df9889)" d="M 256.976652 64.985898 
L 256.976652 54.435402 
" style="fill:none;stroke:#1f77b4;stroke-width:1.5;"/>
    <path clip-path="url(#pcd39df9889)" d="M 265.479509 109.287624 
L 265.479509 93.705797 
" style="fill:none;stroke:#1f77b4;stroke-width:1.5;"/>
    <path clip-path="url(#pcd39df9889)" d="M 273.982366 234.711568 
L 273.982366 219.158827 
" style="fill:none;stroke:#1f77b4;stroke-width:1.5;"/>
    <path clip-path="url(#pcd39df9889)" d="M 282.485223 272.497878 
L 282.485223 260.800101 
" style="fill:none;stroke:#1f77b4;stroke-width:1.5;"/>
    <path clip-path="url(#pcd39df9889)" d="M 290.98808 197.78862 
L 290.98808 180.432461 
" style="fill:none;stroke:#1f77b4;stroke-width:1.5;"/>
    <path clip-path="url(#pcd39df9889)" d="M 299.490938 93.068118 
L 299.490938 78.828241 
" style="fill:none;stroke:#1f77b4;stroke-width:1.5;"/>
    <path clip-path="url(#pcd39df9889)" d="M 307.993795 110.664945 
L 307.993795 94.853176 
" style="fill:none;stroke:#1f77b4;stroke-width:1.5;"/>
    <path clip-path="url(#pcd39df9889)" d="M 316.496652 232.712955 
L 316.496652 216.908985 
" style="fill:none;stroke:#1f77b4;stroke-width:1.5;"/>
    <path clip-path="url(#pcd39df9889)" d="M 324.999509 277.313143 
L 324.999509 266.926397 
" style="fill:none;stroke:#1f77b4;stroke-width:1.5;"/>
    <path clip-path="url(#pcd39df9889)" d="M 333.502366 204.259875 
L 333.502366 186.611137 
" style="fill:none;stroke:#1f77b4;stroke-width:1.5;"/>
    <path clip-path="url(#pcd39df9889)" d="M 342.005223 86.189577 
L 342.005223 72.714645 
" style="fill:none;stroke:#1f77b4;stroke-width:1.5;"/>
    <path clip-path="url(#pcd39df9889)" d="M 350.50808 90.592107 
L 350.50808 77.240903 
" style="fill:none;stroke:#1f77b4;stroke-width:1.5;"/>
    <path clip-path="url(#pcd39df9889)" d="M 359.010938 199.477656 
L 359.010938 182.503726 
" style="fill:none;stroke:#1f77b4;stroke-width:1.5;"/>
    <path clip-path="url(#pcd39df9889)" d="M 367.513795 261.32305 
L 367.513795 247.970982 
" style="fill:none;stroke:#1f77b4;stroke-width:1.5;"/>
    <path clip-path="url(#pcd39df9889)" d="M 376.016652 216.880097 
L 376.016652 199.541203 
" style="fill:none;stroke:#1f77b4;stroke-width:1.5;"/>
    <path clip-path="url(#pcd39df9889)" d="M 384.519509 112.708145 
L 384.519509 97.255798 
" style="fill:none;stroke:#1f77b4;stroke-width:1.5;"/>
    <path clip-path="url(#pcd39df9889)" d="M 393.022366 100.973051 
L 393.022366 85.585308 
" style="fill:none;stroke:#1f77b4;stroke-width:1.5;"/>
    <path clip-path="url(#pcd39df9889)" d="M 401.525223 204.298467 
L 401.525223 187.092829 
" style="fill:none;stroke:#1f77b4;stroke-width:1.5;"/>
   </g>
   <g id="LineCollection_2">
    <path clip-path="url(#pcd39df9889)" d="M 61.410938 293.318268 
L 61.410938 286.326567 
" style="fill:none;stroke:#d62728;stroke-width:1.5;"/>
    <path clip-path="url(#pcd39df9889)" d="M 69.913795 256.383405 
L 69.913795 240.332295 
" style="fill:none;stroke:#d62728;stroke-width:1.5;"/>
    <path clip-path="url(#pcd39df9889)" d="M 78.416652 156.051286 
L 78.416652 136.015943 
" style="fill:none;stroke:#d62728;stroke-width:1.5;"/>
    <path clip-path="url(#pcd39df9889)" d="M 86.919509 107.12171 
L 86.919509 88.80679 
" style="fill:none;stroke:#d62728;stroke-width:1.5;"/>
    <path clip-path="url(#pcd39df9889)" d="M 95.422366 127.78039 
L 95.422366 108.97211 
" style="fill:none;stroke:#d62728;stroke-width:1.5;"/>
    <path clip-path="url(#pcd39df9889)" d="M 103.925223 216.548067 
L 103.925223 195.709575 
" style="fill:none;stroke:#d62728;stroke-width:1.5;"/>
    <path clip-path="url(#pcd39df9889)" d="M 112.42808 210.380575 
L 112.42808 190.121525 
" style="fill:none;stroke:#d62728;stroke-width:1.5;"/>
    <path clip-path="url(#pcd39df9889)" d="M 120.930938 167.590237 
L 120.930938 146.966504 
" style="fill:none;stroke:#d62728;stroke-width:1.5;"/>
    <path clip-path="url(#pcd39df9889)" d="M 129.433795 151.719038 
L 129.433795 130.609462 
" style="fill:none;stroke:#d62728;stroke-width:1.5;"/>
    <path clip-path="url(#pcd39df9889)" d="M 137.936652 153.143754 
L 137.936652 132.325577 
" style="fill:none;stroke:#d62728;stroke-width:1.5;"/>
    <path clip-path="url(#pcd39df9889)" d="M 146.439509 185.906365 
L 146.439509 165.386925 
" style="fill:none;stroke:#d62728;stroke-width:1.5;"/>
    <path clip-path="url(#pcd39df9889)" d="M 154.942366 212.629521 
L 154.942366 193.265962 
" style="fill:none;stroke:#d62728;stroke-width:1.5;"/>
    <path clip-path="url(#pcd39df9889)" d="M 163.445223 198.746689 
L 163.445223 177.507705 
" style="fill:none;stroke:#d62728;stroke-width:1.5;"/>
    <path clip-path="url(#pcd39df9889)" d="M 171.94808 150.689095 
L 171.94808 128.519059 
" style="fill:none;stroke:#d62728;stroke-width:1.5;"/>
    <path clip-path="url(#pcd39df9889)" d="M 180.450938 158.074395 
L 180.450938 137.010487 
" style="fill:none;stroke:#d62728;stroke-width:1.5;"/>
    <path clip-path="url(#pcd39df9889)" d="M 188.953795 175.693301 
L 188.953795 154.913833 
" style="fill:none;stroke:#d62728;stroke-width:1.5;"/>
   </g>
   <g id="line2d_25">
    <path clip-path="url(#pcd39df9889)" d="M 61.410938 297.056409 
L 62.125178 297.056409 
L 62.482298 296.26547 
L 62.839418 295.031045 
L 63.553658 290.58172 
L 63.910778 289.870426 
L 64.982138 281.82689 
L 65.339258 277.12922 
L 65.696378 275.425 
L 66.053498 270.12217 
L 66.410618 266.837365 
L 68.910458 232.317513 
L 74.624378 131.434735 
L 75.695738 114.406545 
L 76.409978 103.024381 
L 77.481338 88.336336 
L 77.838458 84.291038 
L 78.552698 73.818388 
L 79.266938 67.188432 
L 79.981178 59.985704 
L 80.695418 54.759002 
L 81.052538 53.242785 
L 81.409658 50.768886 
L 81.766778 49.376725 
L 82.123898 46.880559 
L 82.481018 47.061628 
L 82.838138 45.233691 
L 83.195258 45.233691 
L 83.552378 45.82728 
L 83.909498 46.990237 
L 84.266618 45.233691 
L 85.337978 51.854658 
L 85.695098 52.65698 
L 86.766458 61.018197 
L 87.480698 67.435543 
L 87.837818 70.57548 
L 90.337658 102.876077 
L 91.766138 126.739384 
L 92.480378 137.382717 
L 93.194618 151.075386 
L 93.551738 156.098855 
L 94.623098 177.082247 
L 95.337338 188.632187 
L 96.408698 207.894447 
L 97.837178 230.374658 
L 98.908538 246.351345 
L 99.979898 261.055891 
L 100.337018 264.506992 
L 100.694138 269.425281 
L 102.836858 287.852355 
L 103.193978 288.736381 
L 103.551098 291.78123 
L 103.908218 291.248825 
L 104.265338 293.916582 
L 104.622458 295.228472 
L 105.336698 294.463239 
L 105.693818 295.190186 
L 106.050938 293.383146 
L 106.408058 293.279637 
L 107.122298 291.438933 
L 107.479418 289.97257 
L 108.193658 284.516038 
L 108.550778 281.000054 
L 108.907898 279.497062 
L 111.050618 255.517924 
L 112.479098 236.221535 
L 119.978618 109.750794 
L 120.335738 105.29855 
L 120.692858 98.943719 
L 121.407098 89.555615 
L 122.121338 80.270652 
L 122.835578 73.323513 
L 123.549818 66.561262 
L 124.621178 57.588916 
L 124.978298 56.132597 
L 125.335418 53.526909 
L 126.049658 51.357234 
L 127.121018 49.900661 
L 127.478138 48.592195 
L 127.835258 49.999394 
L 128.192378 50.553749 
L 128.906618 53.404112 
L 129.977978 58.651614 
L 130.692218 64.62339 
L 131.049338 68.623561 
L 131.406458 69.536695 
L 131.763578 75.023204 
L 132.120698 78.065248 
L 132.477818 83.296906 
L 133.192058 90.537939 
L 134.263418 106.924748 
L 134.620538 111.271081 
L 135.334778 122.648556 
L 136.406138 140.287565 
L 136.763258 145.271483 
L 137.834618 164.548165 
L 138.905978 183.260399 
L 139.263098 188.442915 
L 139.620218 196.54293 
L 140.334458 207.19567 
L 141.405818 224.372104 
L 143.548538 255.060658 
L 143.905658 258.258959 
L 144.619898 267.669561 
L 144.977018 270.12217 
L 146.048378 279.614354 
L 147.476858 287.852355 
L 148.191098 290.074714 
L 148.548218 291.731428 
L 148.905338 291.78123 
L 149.262458 291.274373 
L 149.619578 291.011856 
L 150.333818 289.665535 
L 150.690938 288.016925 
L 151.048058 287.349205 
L 151.405178 284.499853 
L 151.762298 283.50556 
L 152.833658 274.513207 
L 153.905018 263.942975 
L 156.047738 237.936168 
L 156.761978 226.986727 
L 157.833338 209.82688 
L 158.190458 205.285855 
L 159.261818 186.453488 
L 160.333178 169.024928 
L 161.761658 144.267094 
L 163.190138 121.531204 
L 163.904378 111.198317 
L 166.047098 83.007257 
L 166.404218 80.195335 
L 167.118458 72.550863 
L 168.189818 64.216167 
L 168.546938 62.63017 
L 168.904058 60.179668 
L 169.261178 58.860498 
L 169.618298 56.902402 
L 169.975418 56.18921 
L 170.689658 53.953019 
L 171.046778 54.576027 
L 171.761018 54.733017 
L 172.118138 56.422785 
L 172.475258 57.484066 
L 172.832378 59.134432 
L 173.189498 59.688326 
L 173.903738 65.44542 
L 174.260858 66.81446 
L 174.975098 72.722295 
L 175.689338 80.616643 
L 176.046458 83.109142 
L 176.760698 91.0021 
L 177.117818 96.880065 
L 177.832058 104.787066 
L 178.546298 117.222301 
L 178.903418 121.49781 
L 179.974778 139.428358 
L 180.689018 149.805732 
L 185.688698 230.498742 
L 187.474298 252.961332 
L 188.545658 264.40119 
L 189.617018 274.179945 
L 189.974138 275.614899 
L 190.331258 278.837953 
L 191.402618 283.990591 
L 191.759738 284.932091 
L 192.116858 286.298565 
L 192.473978 286.251544 
L 192.831098 286.369096 
L 193.188218 286.846993 
L 193.545338 286.157503 
L 193.902458 284.9531 
L 194.259578 284.557181 
L 194.616698 282.128065 
L 194.973818 281.372322 
L 195.688058 277.380518 
L 196.759418 269.313299 
L 197.473658 262.153346 
L 197.830778 259.915973 
L 199.973498 233.469906 
L 200.687738 221.67565 
L 201.401978 212.444503 
L 202.473338 194.364056 
L 203.187578 184.382568 
L 204.616058 160.099578 
L 206.401658 132.783493 
L 206.758778 125.863455 
L 208.901498 98.292731 
L 209.258618 94.642461 
L 209.615738 88.881594 
L 211.401338 72.864819 
L 212.115578 67.373584 
L 212.472698 66.535942 
L 213.186938 61.695949 
L 213.544058 61.727803 
L 214.615418 60.144402 
L 214.972538 59.814002 
L 215.329658 60.07387 
L 215.686778 60.498623 
L 216.401018 64.069053 
L 216.758138 64.651206 
L 217.115258 66.972564 
L 217.472378 67.679365 
L 218.186618 73.283208 
L 218.900858 79.282779 
L 219.257978 83.069956 
L 219.615098 84.690191 
L 220.329338 94.725283 
L 221.043578 102.283969 
L 221.400698 107.928691 
L 221.757818 111.57253 
L 223.543418 138.483653 
L 223.900538 143.130325 
L 224.614778 155.013005 
L 225.686138 172.124498 
L 227.114618 194.11192 
L 227.471738 198.85886 
L 228.185978 210.408529 
L 228.543098 216.528641 
L 228.900218 220.587156 
L 229.971578 236.706452 
L 232.114298 259.868191 
L 232.828538 266.437701 
L 233.542778 272.045704 
L 234.971258 278.985336 
L 235.328378 279.95132 
L 235.685498 281.655276 
L 236.042618 281.982804 
L 236.399738 281.57015 
L 236.756858 282.818734 
L 237.113978 281.57015 
L 237.471098 280.898997 
L 238.542458 278.073933 
L 239.613818 272.067895 
L 240.328058 265.642288 
L 240.685178 264.180768 
L 241.399418 256.054986 
L 241.756538 253.702654 
L 242.827898 240.501216 
L 244.613498 217.352916 
L 245.327738 205.921933 
L 251.041658 118.661295 
L 252.470138 101.74846 
L 253.184378 93.047577 
L 254.969978 76.464943 
L 255.327098 74.802697 
L 255.684218 72.063984 
L 256.041338 70.641312 
L 256.755578 67.13506 
L 257.112698 66.216223 
L 257.469818 64.813578 
L 257.826938 64.300807 
L 258.541178 65.617041 
L 258.898298 64.651206 
L 259.255418 64.665114 
L 259.969658 66.8651 
L 260.326778 67.715938 
L 262.826618 85.3975 
L 264.612218 104.258549 
L 264.969338 110.536303 
L 266.397818 127.877607 
L 268.183418 155.996416 
L 268.540538 160.083322 
L 270.683258 193.736916 
L 274.254458 242.82816 
L 275.325818 253.911443 
L 275.682938 256.312914 
L 276.397178 263.873064 
L 276.754298 266.630463 
L 277.111418 268.084968 
L 277.825658 272.924399 
L 278.182778 273.93692 
L 278.539898 275.430034 
L 278.897018 278.031613 
L 279.254138 278.04572 
L 279.968378 278.823215 
L 280.325498 278.706484 
L 280.682618 278.464336 
L 281.039738 278.04572 
L 281.396858 277.989293 
L 281.753978 275.317536 
L 282.111098 274.312412 
L 282.825338 271.009642 
L 283.539578 267.007338 
L 285.325178 251.355637 
L 286.039418 241.701788 
L 287.110778 229.649573 
L 287.825018 220.816143 
L 289.967738 188.870835 
L 291.396218 168.053013 
L 291.753338 161.347171 
L 292.467578 151.3205 
L 294.610298 119.939242 
L 294.967418 116.465028 
L 296.395898 98.660033 
L 297.467258 88.286961 
L 298.181498 82.037799 
L 298.538618 78.823288 
L 298.895738 76.817143 
L 299.252858 75.593805 
L 299.967098 71.269724 
L 300.324218 70.747367 
L 300.681338 68.553027 
L 301.038458 68.185542 
L 301.395578 67.484307 
L 301.752698 67.965646 
L 302.109818 67.435301 
L 302.466938 67.941561 
L 302.824058 67.953603 
L 303.538298 69.894566 
L 304.609658 75.917611 
L 304.966778 76.844322 
L 306.038138 85.678385 
L 306.395258 87.989256 
L 307.109498 96.113626 
L 307.823738 102.922225 
L 308.895098 116.350894 
L 309.609338 125.742914 
L 311.394938 151.597333 
L 312.466298 168.093485 
L 312.823418 171.503778 
L 313.537658 183.794959 
L 316.394618 224.558797 
L 318.180218 246.476345 
L 319.965818 262.85409 
L 320.322938 264.671942 
L 321.394298 272.189943 
L 322.108538 274.769219 
L 322.465658 275.665539 
L 322.822778 277.03453 
L 323.179898 276.567728 
L 323.537018 276.475564 
L 323.894138 277.611078 
L 324.251258 276.462398 
L 324.608378 277.462807 
L 324.965498 275.500959 
L 325.679738 273.389852 
L 326.036858 271.44507 
L 326.393978 270.267694 
L 326.751098 266.621058 
L 327.465338 262.990295 
L 330.322298 232.607956 
L 331.036538 224.084166 
L 331.750778 213.930962 
L 332.107898 209.62671 
L 333.179258 193.395247 
L 333.893498 182.479054 
L 335.679098 157.572921 
L 336.393338 143.994925 
L 336.750458 141.075208 
L 337.107578 134.980318 
L 337.821818 126.259628 
L 338.893178 111.484174 
L 340.321658 95.560383 
L 341.035898 88.713509 
L 343.178618 73.946761 
L 343.535738 71.881901 
L 344.607098 68.865396 
L 344.964218 68.98157 
L 345.321338 68.658828 
L 345.678458 68.588294 
L 346.392698 69.729651 
L 346.749818 69.638848 
L 347.106938 71.642812 
L 347.464058 72.653726 
L 348.178298 76.799024 
L 348.535418 78.126966 
L 349.249658 83.643747 
L 349.606778 86.161421 
L 352.463738 117.187738 
L 353.535098 132.721217 
L 353.892218 135.861304 
L 354.606458 147.495055 
L 356.749178 179.332473 
L 359.963258 225.770486 
L 360.320378 228.92937 
L 360.677498 234.920433 
L 361.034618 237.910309 
L 362.105978 250.396824 
L 363.534458 263.325231 
L 365.320058 273.678294 
L 365.677178 275.330036 
L 366.034298 275.602239 
L 366.391418 277.169801 
L 366.748538 277.490237 
L 367.105658 276.686225 
L 367.462778 277.311943 
L 367.819898 276.528229 
L 368.177018 276.817992 
L 368.534138 275.488299 
L 369.248378 273.914201 
L 369.605498 271.325704 
L 369.962618 270.278089 
L 370.319738 266.583439 
L 370.676858 265.427659 
L 372.462458 248.923639 
L 373.176698 241.141537 
L 374.962298 219.034419 
L 376.033658 204.798627 
L 376.747898 193.311912 
L 377.462138 183.92962 
L 378.176378 172.180927 
L 378.890618 161.367491 
L 381.033338 130.850257 
L 381.747578 120.61445 
L 382.461818 111.006543 
L 383.176058 103.44749 
L 383.890298 95.478616 
L 384.961658 85.412462 
L 385.675898 80.657788 
L 387.104378 71.183856 
L 387.461498 71.065787 
L 387.818618 69.570746 
L 388.175738 69.159019 
L 388.889978 67.881349 
L 389.247098 68.268823 
L 389.604218 69.136054 
L 389.961338 68.68234 
L 390.318458 69.917009 
L 390.675578 70.476732 
L 391.032698 72.674298 
L 391.389818 73.583424 
L 392.461178 80.245546 
L 393.532538 88.294014 
L 394.961018 103.673205 
L 396.032378 117.019862 
L 398.175098 146.750239 
L 398.889338 157.446422 
L 399.603578 167.761617 
L 401.389178 195.677285 
L 404.603258 240.189852 
L 404.960378 243.442138 
L 405.317498 247.857881 
L 406.031738 254.0243 
L 407.103098 264.180768 
L 407.460218 266.988348 
L 407.817338 268.676752 
L 408.174458 272.474083 
L 408.531578 273.119599 
L 408.888698 273.997482 
L 409.602938 277.833607 
L 410.317178 279.182868 
L 410.674298 278.896906 
L 411.031418 279.103243 
L 411.388538 277.975186 
L 411.745658 277.708434 
L 412.459898 276.580895 
L 413.531258 272.395534 
L 414.245498 267.026328 
L 414.602618 264.867661 
L 414.959738 260.990602 
L 415.316858 259.592925 
L 415.673978 254.48837 
L 416.388218 247.264863 
L 417.102458 239.237343 
L 417.816698 230.894282 
L 418.530938 220.735044 
L 418.530938 220.735044 
" style="fill:none;stroke:#1f77b4;stroke-linecap:square;stroke-width:1.5;"/>
   </g>
   <g id="line2d_26">
    <path clip-path="url(#pcd39df9889)" d="M 61.410938 297.044382 
L 62.771395 297.044382 
L 63.315578 294.387802 
L 63.587669 294.116747 
L 63.85976 292.081417 
L 64.131852 292.033252 
L 64.403943 290.730642 
L 64.676035 288.429367 
L 64.948126 287.232912 
L 65.220218 287.099811 
L 65.492309 283.237155 
L 65.7644 282.052366 
L 66.852766 272.986223 
L 67.124858 271.768988 
L 67.66904 266.526438 
L 68.213223 261.202115 
L 68.485315 259.340317 
L 69.029498 252.091916 
L 69.301589 249.006213 
L 69.57368 247.220477 
L 76.375966 159.989931 
L 76.920149 152.644243 
L 77.19224 150.649459 
L 77.464332 146.520339 
L 77.736423 144.18594 
L 78.280606 137.967262 
L 78.824789 131.702022 
L 79.09688 127.16032 
L 79.368972 125.39761 
L 81.545703 104.858584 
L 81.817795 103.368967 
L 82.361978 98.279388 
L 82.90616 96.155233 
L 83.178252 93.80903 
L 83.450343 92.698858 
L 83.722435 90.582587 
L 83.994526 89.910894 
L 84.266618 87.79911 
L 84.538709 87.074947 
L 84.8108 86.773881 
L 85.082892 85.217849 
L 85.354983 84.733941 
L 85.627075 83.22778 
L 85.899166 83.054216 
L 86.171258 83.292814 
L 86.443349 82.401638 
L 86.71544 82.624813 
L 87.803806 81.375061 
L 88.075898 83.220554 
L 88.347989 82.937768 
L 88.62008 83.671523 
L 88.892172 83.664349 
L 89.164263 85.611978 
L 89.436355 85.923787 
L 89.708446 85.952573 
L 89.980538 86.145267 
L 91.068903 91.832814 
L 91.340995 92.611432 
L 92.157269 97.473954 
L 92.42936 98.325901 
L 92.701452 101.104372 
L 92.973543 102.38023 
L 94.606092 114.090984 
L 94.878183 117.515469 
L 95.422366 121.66531 
L 98.687463 151.041475 
L 98.959555 154.697788 
L 99.231646 156.343092 
L 100.04792 164.534092 
L 100.320012 166.191885 
L 100.592103 169.19795 
L 100.864195 170.725758 
L 101.136286 174.401888 
L 101.408378 175.620851 
L 101.95256 180.486662 
L 102.224652 181.41053 
L 103.585109 193.194881 
L 104.401383 197.91544 
L 105.217658 202.954034 
L 105.489749 203.905246 
L 105.76184 206.419922 
L 106.306023 209.076754 
L 106.578115 209.790683 
L 106.850206 210.86849 
L 107.122298 212.407706 
L 107.394389 213.15041 
L 107.938572 215.620982 
L 108.210663 215.306033 
L 109.026938 218.612398 
L 109.299029 218.866533 
L 109.57112 219.4766 
L 109.843212 219.776167 
L 110.115303 219.110894 
L 110.387395 219.623928 
L 110.659486 219.830187 
L 110.931578 219.37347 
L 111.203669 219.910027 
L 111.47576 219.052247 
L 111.747852 219.149991 
L 112.019943 219.398025 
L 112.292035 218.374198 
L 112.564126 218.223422 
L 112.836218 218.388789 
L 113.108309 216.497922 
L 113.3804 216.478653 
L 113.924583 214.240424 
L 114.196675 213.554958 
L 114.740858 212.758975 
L 115.012949 210.938099 
L 115.28504 210.192573 
L 115.557132 208.598167 
L 115.829223 207.79123 
L 118.005955 197.104372 
L 118.278046 195.420743 
L 118.550138 193.028341 
L 118.822229 191.990965 
L 119.09432 191.45884 
L 119.366412 188.94188 
L 119.638503 188.024842 
L 121.543143 175.007224 
L 121.815235 173.788261 
L 122.9036 166.670874 
L 123.175692 165.783094 
L 124.264058 159.214604 
L 124.536149 158.249836 
L 124.80824 156.671985 
L 125.080332 153.627606 
L 125.352423 152.602265 
L 125.624515 152.543497 
L 125.896606 149.810627 
L 126.168698 148.693009 
L 126.440789 148.858091 
L 126.71288 145.912981 
L 126.984972 145.353796 
L 127.529155 142.797204 
L 128.073338 140.882125 
L 128.345429 139.871083 
L 128.61752 139.575836 
L 128.889612 137.923468 
L 129.161703 136.977504 
L 129.433795 137.135165 
L 130.250069 133.928543 
L 130.52216 133.421682 
L 130.794252 133.22559 
L 131.066343 133.189937 
L 131.338435 133.680166 
L 131.610526 132.516416 
L 131.882618 132.261265 
L 132.154709 132.7089 
L 132.698892 131.220924 
L 132.970983 131.15348 
L 133.243075 132.22993 
L 133.515166 132.722329 
L 133.787258 131.661556 
L 134.059349 132.167261 
L 134.33144 132.055352 
L 134.603532 132.976019 
L 135.147715 132.726805 
L 135.419806 135.014115 
L 135.691898 135.606088 
L 135.963989 135.553075 
L 136.23608 136.794007 
L 136.508172 136.723631 
L 136.780263 137.682597 
L 137.052355 137.82274 
L 137.324446 139.953579 
L 137.596538 140.392108 
L 137.868629 141.09829 
L 138.14072 142.327968 
L 138.412812 142.633617 
L 138.684903 144.271674 
L 138.956995 144.956817 
L 139.229086 146.125028 
L 139.501178 148.058079 
L 139.773269 148.616818 
L 140.04536 149.886501 
L 140.317452 150.050895 
L 140.861635 152.656836 
L 141.133726 153.677771 
L 141.95 158.745256 
L 142.222092 159.169902 
L 143.582549 166.088655 
L 143.85464 166.778233 
L 144.126732 169.008007 
L 144.398823 170.073343 
L 144.670915 171.876894 
L 145.215098 172.959034 
L 145.487189 175.927665 
L 145.75928 176.400324 
L 146.031372 177.995868 
L 146.303463 178.212354 
L 147.936012 185.922535 
L 148.208103 185.842446 
L 148.480195 187.749706 
L 148.752286 188.046007 
L 149.296469 189.711248 
L 149.56856 190.17882 
L 149.840652 191.360662 
L 150.112743 191.236873 
L 150.656926 193.27237 
L 150.929018 194.103219 
L 151.201109 193.991291 
L 151.4732 194.966795 
L 151.745292 195.316983 
L 152.017383 196.376175 
L 152.289475 195.85515 
L 153.105749 197.322401 
L 153.37784 196.979695 
L 153.649932 197.182862 
L 153.922023 197.69305 
L 154.194115 197.605839 
L 154.466206 198.158574 
L 154.738298 197.941604 
L 155.010389 197.156699 
L 155.28248 197.749738 
L 155.554572 196.701815 
L 155.826663 197.352925 
L 156.098755 197.632002 
L 156.370846 195.842125 
L 156.642938 195.113787 
L 156.915029 195.711869 
L 157.18712 194.633899 
L 157.459212 194.633899 
L 157.731303 194.383039 
L 158.003395 192.848301 
L 158.275486 193.015481 
L 158.547578 192.715414 
L 158.819669 192.711127 
L 159.09176 190.741717 
L 159.363852 191.040518 
L 159.908035 188.852616 
L 160.180126 188.674088 
L 160.452218 187.03435 
L 160.9964 185.37034 
L 161.540583 183.657172 
L 161.812675 181.824389 
L 162.084766 181.10118 
L 162.356858 181.218232 
L 162.628949 179.32809 
L 162.90104 179.265643 
L 163.173132 176.852253 
L 163.445223 175.786697 
L 163.717315 175.63329 
L 164.261498 172.714412 
L 164.533589 172.855381 
L 164.80568 171.03132 
L 165.077772 170.816601 
L 165.349863 169.718231 
L 165.621955 167.451294 
L 165.894046 166.27447 
L 166.166138 166.175369 
L 166.438229 164.716522 
L 166.71032 164.384832 
L 167.254503 161.822522 
L 167.798686 159.71214 
L 168.070778 159.430203 
L 168.342869 158.637013 
L 168.61496 156.6137 
L 168.887052 156.397214 
L 169.159143 156.684474 
L 169.431235 154.8232 
L 169.703326 154.848283 
L 170.247509 151.86766 
L 170.5196 150.818068 
L 170.791692 151.426897 
L 171.063783 150.227935 
L 171.335875 149.671524 
L 171.607966 148.35438 
L 171.880058 148.891954 
L 172.152149 148.519462 
L 172.42424 146.868893 
L 172.696332 147.383222 
L 172.968423 147.153687 
L 173.240515 146.188788 
L 173.784698 146.222793 
L 174.056789 145.426362 
L 174.32888 145.110486 
L 174.600972 144.474466 
L 174.873063 145.016577 
L 175.417246 143.915879 
L 175.689338 144.181653 
L 175.961429 144.267387 
L 176.23352 145.678209 
L 176.505612 144.048766 
L 176.777703 144.585449 
L 177.049795 145.447705 
L 177.593978 144.640941 
L 177.866069 145.79346 
L 178.13816 145.486122 
L 178.410252 145.562957 
L 178.954435 147.225948 
L 179.226526 147.846435 
L 179.498618 148.062312 
L 179.770709 149.069735 
L 180.0428 148.38401 
L 180.586983 150.556723 
L 181.94744 153.932776 
L 182.219532 155.266322 
L 182.491623 154.756314 
L 182.763715 155.985058 
L 183.035806 156.40554 
L 183.307898 158.108287 
L 183.579989 158.145756 
L 183.85208 159.737017 
L 184.124172 160.043831 
L 184.396263 161.913737 
L 184.668355 162.307619 
L 184.940446 163.0249 
L 185.212538 163.377321 
L 185.75672 165.659217 
L 186.028812 167.649497 
L 186.300903 167.765114 
L 187.389269 171.943232 
L 187.933452 171.88104 
L 188.477635 175.247699 
L 189.021818 176.852253 
L 189.293909 177.983379 
L 189.566 177.067476 
L 189.838092 179.877632 
L 190.110183 178.745243 
L 190.382275 180.039997 
L 190.654366 180.344529 
L 191.198549 182.998126 
L 191.742732 183.711742 
L 192.014823 184.681421 
L 192.286915 185.214376 
L 192.559006 184.92774 
L 193.103189 186.419933 
L 193.37528 186.407287 
L 193.647372 187.051282 
L 193.919463 188.105267 
L 194.191555 187.4915 
L 194.463646 189.171415 
L 194.735738 189.031143 
L 195.007829 188.623081 
L 195.27992 189.026893 
L 195.552012 190.144815 
L 195.824103 190.034298 
L 196.096195 189.366945 
L 196.640378 191.394811 
L 196.912469 190.132063 
L 197.18456 190.306321 
L 197.456652 190.724642 
L 197.456652 190.724642 
" style="fill:none;stroke:#d62728;stroke-linecap:square;stroke-width:1.5;"/>
   </g>
   <g id="line2d_27">
    <defs>
     <path d="M 0 3 
C 0.795609 3 1.55874 2.683901 2.12132 2.12132 
C 2.683901 1.55874 3 0.795609 3 0 
C 3 -0.795609 2.683901 -1.55874 2.12132 -2.12132 
C 1.55874 -2.683901 0.795609 -3 0 -3 
C -0.795609 -3 -1.55874 -2.683901 -2.12132 -2.12132 
C -2.683901 -1.55874 -3 -0.795609 -3 0 
C -3 0.795609 -2.683901 1.55874 -2.12132 2.12132 
C -1.55874 2.683901 -0.795609 3 0 3 
z
" id="mcb2457e3ba" style="stroke:#1f77b4;"/>
    </defs>
    <g clip-path="url(#pcd39df9889)">
     <use style="fill:#1f77b4;stroke:#1f77b4;" x="61.410938" xlink:href="#mcb2457e3ba" y="296.95689"/>
     <use style="fill:#1f77b4;stroke:#1f77b4;" x="69.913795" xlink:href="#mcb2457e3ba" y="234.579361"/>
     <use style="fill:#1f77b4;stroke:#1f77b4;" x="78.416652" xlink:href="#mcb2457e3ba" y="91.060401"/>
     <use style="fill:#1f77b4;stroke:#1f77b4;" x="86.919509" xlink:href="#mcb2457e3ba" y="59.417984"/>
     <use style="fill:#1f77b4;stroke:#1f77b4;" x="95.422366" xlink:href="#mcb2457e3ba" y="167.26425"/>
     <use style="fill:#1f77b4;stroke:#1f77b4;" x="103.925223" xlink:href="#mcb2457e3ba" y="289.721426"/>
     <use style="fill:#1f77b4;stroke:#1f77b4;" x="112.42808" xlink:href="#mcb2457e3ba" y="243.360121"/>
     <use style="fill:#1f77b4;stroke:#1f77b4;" x="120.930938" xlink:href="#mcb2457e3ba" y="116.804038"/>
     <use style="fill:#1f77b4;stroke:#1f77b4;" x="129.433795" xlink:href="#mcb2457e3ba" y="60.939972"/>
     <use style="fill:#1f77b4;stroke:#1f77b4;" x="137.936652" xlink:href="#mcb2457e3ba" y="165.070754"/>
     <use style="fill:#1f77b4;stroke:#1f77b4;" x="146.439509" xlink:href="#mcb2457e3ba" y="279.297206"/>
     <use style="fill:#1f77b4;stroke:#1f77b4;" x="154.942366" xlink:href="#mcb2457e3ba" y="256.654892"/>
     <use style="fill:#1f77b4;stroke:#1f77b4;" x="163.445223" xlink:href="#mcb2457e3ba" y="124.799074"/>
     <use style="fill:#1f77b4;stroke:#1f77b4;" x="171.94808" xlink:href="#mcb2457e3ba" y="51.863935"/>
     <use style="fill:#1f77b4;stroke:#1f77b4;" x="180.450938" xlink:href="#mcb2457e3ba" y="162.208027"/>
     <use style="fill:#1f77b4;stroke:#1f77b4;" x="188.953795" xlink:href="#mcb2457e3ba" y="272.703769"/>
     <use style="fill:#1f77b4;stroke:#1f77b4;" x="197.456652" xlink:href="#mcb2457e3ba" y="270.239813"/>
     <use style="fill:#1f77b4;stroke:#1f77b4;" x="205.959509" xlink:href="#mcb2457e3ba" y="135.184761"/>
     <use style="fill:#1f77b4;stroke:#1f77b4;" x="214.462366" xlink:href="#mcb2457e3ba" y="61.21545"/>
     <use style="fill:#1f77b4;stroke:#1f77b4;" x="222.965223" xlink:href="#mcb2457e3ba" y="122.725793"/>
     <use style="fill:#1f77b4;stroke:#1f77b4;" x="231.46808" xlink:href="#mcb2457e3ba" y="239.671873"/>
     <use style="fill:#1f77b4;stroke:#1f77b4;" x="239.970938" xlink:href="#mcb2457e3ba" y="270.577439"/>
     <use style="fill:#1f77b4;stroke:#1f77b4;" x="248.473795" xlink:href="#mcb2457e3ba" y="162.083997"/>
     <use style="fill:#1f77b4;stroke:#1f77b4;" x="256.976652" xlink:href="#mcb2457e3ba" y="59.71065"/>
     <use style="fill:#1f77b4;stroke:#1f77b4;" x="265.479509" xlink:href="#mcb2457e3ba" y="101.49671"/>
     <use style="fill:#1f77b4;stroke:#1f77b4;" x="273.982366" xlink:href="#mcb2457e3ba" y="226.935197"/>
     <use style="fill:#1f77b4;stroke:#1f77b4;" x="282.485223" xlink:href="#mcb2457e3ba" y="266.648989"/>
     <use style="fill:#1f77b4;stroke:#1f77b4;" x="290.98808" xlink:href="#mcb2457e3ba" y="189.110541"/>
     <use style="fill:#1f77b4;stroke:#1f77b4;" x="299.490938" xlink:href="#mcb2457e3ba" y="85.94818"/>
     <use style="fill:#1f77b4;stroke:#1f77b4;" x="307.993795" xlink:href="#mcb2457e3ba" y="102.759061"/>
     <use style="fill:#1f77b4;stroke:#1f77b4;" x="316.496652" xlink:href="#mcb2457e3ba" y="224.81097"/>
     <use style="fill:#1f77b4;stroke:#1f77b4;" x="324.999509" xlink:href="#mcb2457e3ba" y="272.11977"/>
     <use style="fill:#1f77b4;stroke:#1f77b4;" x="333.502366" xlink:href="#mcb2457e3ba" y="195.435506"/>
     <use style="fill:#1f77b4;stroke:#1f77b4;" x="342.005223" xlink:href="#mcb2457e3ba" y="79.452111"/>
     <use style="fill:#1f77b4;stroke:#1f77b4;" x="350.50808" xlink:href="#mcb2457e3ba" y="83.916505"/>
     <use style="fill:#1f77b4;stroke:#1f77b4;" x="359.010938" xlink:href="#mcb2457e3ba" y="190.990691"/>
     <use style="fill:#1f77b4;stroke:#1f77b4;" x="367.513795" xlink:href="#mcb2457e3ba" y="254.647016"/>
     <use style="fill:#1f77b4;stroke:#1f77b4;" x="376.016652" xlink:href="#mcb2457e3ba" y="208.21065"/>
     <use style="fill:#1f77b4;stroke:#1f77b4;" x="384.519509" xlink:href="#mcb2457e3ba" y="104.981972"/>
     <use style="fill:#1f77b4;stroke:#1f77b4;" x="393.022366" xlink:href="#mcb2457e3ba" y="93.27918"/>
     <use style="fill:#1f77b4;stroke:#1f77b4;" x="401.525223" xlink:href="#mcb2457e3ba" y="195.695648"/>
    </g>
   </g>
   <g id="line2d_28">
    <defs>
     <path d="M 0 3 
C 0.795609 3 1.55874 2.683901 2.12132 2.12132 
C 2.683901 1.55874 3 0.795609 3 0 
C 3 -0.795609 2.683901 -1.55874 2.12132 -2.12132 
C 1.55874 -2.683901 0.795609 -3 0 -3 
C -0.795609 -3 -1.55874 -2.683901 -2.12132 -2.12132 
C -2.683901 -1.55874 -3 -0.795609 -3 0 
C -3 0.795609 -2.683901 1.55874 -2.12132 2.12132 
C -1.55874 2.683901 -0.795609 3 0 3 
z
" id="m4d17eb6f4c" style="stroke:#d62728;"/>
    </defs>
    <g clip-path="url(#pcd39df9889)">
     <use style="fill:#d62728;stroke:#d62728;" x="61.410938" xlink:href="#m4d17eb6f4c" y="289.822418"/>
     <use style="fill:#d62728;stroke:#d62728;" x="69.913795" xlink:href="#m4d17eb6f4c" y="248.35785"/>
     <use style="fill:#d62728;stroke:#d62728;" x="78.416652" xlink:href="#m4d17eb6f4c" y="146.033614"/>
     <use style="fill:#d62728;stroke:#d62728;" x="86.919509" xlink:href="#m4d17eb6f4c" y="97.96425"/>
     <use style="fill:#d62728;stroke:#d62728;" x="95.422366" xlink:href="#m4d17eb6f4c" y="118.37625"/>
     <use style="fill:#d62728;stroke:#d62728;" x="103.925223" xlink:href="#m4d17eb6f4c" y="206.128821"/>
     <use style="fill:#d62728;stroke:#d62728;" x="112.42808" xlink:href="#m4d17eb6f4c" y="200.25105"/>
     <use style="fill:#d62728;stroke:#d62728;" x="120.930938" xlink:href="#m4d17eb6f4c" y="157.27837"/>
     <use style="fill:#d62728;stroke:#d62728;" x="129.433795" xlink:href="#m4d17eb6f4c" y="141.16425"/>
     <use style="fill:#d62728;stroke:#d62728;" x="137.936652" xlink:href="#m4d17eb6f4c" y="142.734665"/>
     <use style="fill:#d62728;stroke:#d62728;" x="146.439509" xlink:href="#m4d17eb6f4c" y="175.646645"/>
     <use style="fill:#d62728;stroke:#d62728;" x="154.942366" xlink:href="#m4d17eb6f4c" y="202.947741"/>
     <use style="fill:#d62728;stroke:#d62728;" x="163.445223" xlink:href="#m4d17eb6f4c" y="188.127197"/>
     <use style="fill:#d62728;stroke:#d62728;" x="171.94808" xlink:href="#m4d17eb6f4c" y="139.604077"/>
     <use style="fill:#d62728;stroke:#d62728;" x="180.450938" xlink:href="#m4d17eb6f4c" y="147.542441"/>
     <use style="fill:#d62728;stroke:#d62728;" x="188.953795" xlink:href="#m4d17eb6f4c" y="165.303567"/>
    </g>
   </g>
   <g id="patch_3">
    <path d="M 61.410938 297.54825 
L 61.410938 31.43625 
" style="fill:none;stroke:#000000;stroke-linecap:square;stroke-linejoin:miter;stroke-width:0.8;"/>
   </g>
   <g id="patch_4">
    <path d="M 418.530938 297.54825 
L 418.530938 31.43625 
" style="fill:none;stroke:#000000;stroke-linecap:square;stroke-linejoin:miter;stroke-width:0.8;"/>
   </g>
   <g id="patch_5">
    <path d="M 61.410938 297.54825 
L 418.530938 297.54825 
" style="fill:none;stroke:#000000;stroke-linecap:square;stroke-linejoin:miter;stroke-width:0.8;"/>
   </g>
   <g id="patch_6">
    <path d="M 61.410938 31.43625 
L 418.530938 31.43625 
" style="fill:none;stroke:#000000;stroke-linecap:square;stroke-linejoin:miter;stroke-width:0.8;"/>
   </g>
   <g id="text_15">
    <!-- (C) -->
    <defs>
     <path d="M 64.40625 67.28125 
L 64.40625 56.890625 
Q 59.421875 61.53125 53.78125 63.8125 
Q 48.140625 66.109375 41.796875 66.109375 
Q 29.296875 66.109375 22.65625 58.46875 
Q 16.015625 50.828125 16.015625 36.375 
Q 16.015625 21.96875 22.65625 14.328125 
Q 29.296875 6.6875 41.796875 6.6875 
Q 48.140625 6.6875 53.78125 8.984375 
Q 59.421875 11.28125 64.40625 15.921875 
L 64.40625 5.609375 
Q 59.234375 2.09375 53.4375 0.328125 
Q 47.65625 -1.421875 41.21875 -1.421875 
Q 24.65625 -1.421875 15.125 8.703125 
Q 5.609375 18.84375 5.609375 36.375 
Q 5.609375 53.953125 15.125 64.078125 
Q 24.65625 74.21875 41.21875 74.21875 
Q 47.75 74.21875 53.53125 72.484375 
Q 59.328125 70.75 64.40625 67.28125 
z
" id="DejaVuSans-43"/>
    </defs>
    <g transform="translate(381.118366 58.04745)scale(0.2 -0.2)">
     <use xlink:href="#DejaVuSans-28"/>
     <use x="39.013672" xlink:href="#DejaVuSans-43"/>
     <use x="108.837891" xlink:href="#DejaVuSans-29"/>
    </g>
   </g>
   <g id="text_16">
    <!-- Y carrier -->
    <defs>
     <path d="M -0.203125 72.90625 
L 10.40625 72.90625 
L 30.609375 42.921875 
L 50.6875 72.90625 
L 61.28125 72.90625 
L 35.5 34.71875 
L 35.5 0 
L 25.59375 0 
L 25.59375 34.71875 
z
" id="DejaVuSans-59"/>
     <path d="M 48.78125 52.59375 
L 48.78125 44.1875 
Q 44.96875 46.296875 41.140625 47.34375 
Q 37.3125 48.390625 33.40625 48.390625 
Q 24.65625 48.390625 19.8125 42.84375 
Q 14.984375 37.3125 14.984375 27.296875 
Q 14.984375 17.28125 19.8125 11.734375 
Q 24.65625 6.203125 33.40625 6.203125 
Q 37.3125 6.203125 41.140625 7.25 
Q 44.96875 8.296875 48.78125 10.40625 
L 48.78125 2.09375 
Q 45.015625 0.34375 40.984375 -0.53125 
Q 36.96875 -1.421875 32.421875 -1.421875 
Q 20.0625 -1.421875 12.78125 6.34375 
Q 5.515625 14.109375 5.515625 27.296875 
Q 5.515625 40.671875 12.859375 48.328125 
Q 20.21875 56 33.015625 56 
Q 37.15625 56 41.109375 55.140625 
Q 45.0625 54.296875 48.78125 52.59375 
z
" id="DejaVuSans-63"/>
    </defs>
    <g transform="translate(189.360938 25.43625)scale(0.24 -0.24)">
     <use xlink:href="#DejaVuSans-59"/>
     <use x="61.083984" xlink:href="#DejaVuSans-20"/>
     <use x="92.871094" xlink:href="#DejaVuSans-63"/>
     <use x="147.851562" xlink:href="#DejaVuSans-61"/>
     <use x="209.130859" xlink:href="#DejaVuSans-72"/>
     <use x="250.228516" xlink:href="#DejaVuSans-72"/>
     <use x="291.341797" xlink:href="#DejaVuSans-69"/>
     <use x="319.125" xlink:href="#DejaVuSans-65"/>
     <use x="380.648438" xlink:href="#DejaVuSans-72"/>
    </g>
   </g>
   <g id="legend_1">
    <g id="patch_7">
     <path d="M 296.074687 196.8485 
L 404.530937 196.8485 
Q 408.530937 196.8485 408.530937 192.8485 
L 408.530937 136.136 
Q 408.530937 132.136 404.530937 132.136 
L 296.074687 132.136 
Q 292.074687 132.136 292.074687 136.136 
L 292.074687 192.8485 
Q 292.074687 196.8485 296.074687 196.8485 
z
" style="fill:#ffffff;opacity:0.8;stroke:#cccccc;stroke-linejoin:miter;"/>
    </g>
    <g id="LineCollection_3">
     <path d="M 320.074687 158.332875 
L 320.074687 138.332875 
" style="fill:none;stroke:#1f77b4;stroke-width:1.5;"/>
    </g>
    <g id="line2d_29"/>
    <g id="line2d_30">
     <g>
      <use style="fill:#1f77b4;stroke:#1f77b4;" x="320.074687" xlink:href="#mcb2457e3ba" y="148.332875"/>
     </g>
    </g>
    <g id="text_17">
     <!-- Cold -->
     <defs>
      <path d="M 30.609375 48.390625 
Q 23.390625 48.390625 19.1875 42.75 
Q 14.984375 37.109375 14.984375 27.296875 
Q 14.984375 17.484375 19.15625 11.84375 
Q 23.34375 6.203125 30.609375 6.203125 
Q 37.796875 6.203125 41.984375 11.859375 
Q 46.1875 17.53125 46.1875 27.296875 
Q 46.1875 37.015625 41.984375 42.703125 
Q 37.796875 48.390625 30.609375 48.390625 
z
M 30.609375 56 
Q 42.328125 56 49.015625 48.375 
Q 55.71875 40.765625 55.71875 27.296875 
Q 55.71875 13.875 49.015625 6.21875 
Q 42.328125 -1.421875 30.609375 -1.421875 
Q 18.84375 -1.421875 12.171875 6.21875 
Q 5.515625 13.875 5.515625 27.296875 
Q 5.515625 40.765625 12.171875 48.375 
Q 18.84375 56 30.609375 56 
z
" id="DejaVuSans-6f"/>
      <path d="M 45.40625 46.390625 
L 45.40625 75.984375 
L 54.390625 75.984375 
L 54.390625 0 
L 45.40625 0 
L 45.40625 8.203125 
Q 42.578125 3.328125 38.25 0.953125 
Q 33.9375 -1.421875 27.875 -1.421875 
Q 17.96875 -1.421875 11.734375 6.484375 
Q 5.515625 14.40625 5.515625 27.296875 
Q 5.515625 40.1875 11.734375 48.09375 
Q 17.96875 56 27.875 56 
Q 33.9375 56 38.25 53.625 
Q 42.578125 51.265625 45.40625 46.390625 
z
M 14.796875 27.296875 
Q 14.796875 17.390625 18.875 11.75 
Q 22.953125 6.109375 30.078125 6.109375 
Q 37.203125 6.109375 41.296875 11.75 
Q 45.40625 17.390625 45.40625 27.296875 
Q 45.40625 37.203125 41.296875 42.84375 
Q 37.203125 48.484375 30.078125 48.484375 
Q 22.953125 48.484375 18.875 42.84375 
Q 14.796875 37.203125 14.796875 27.296875 
z
" id="DejaVuSans-64"/>
     </defs>
     <g transform="translate(356.074687 155.332875)scale(0.2 -0.2)">
      <use xlink:href="#DejaVuSans-43"/>
      <use x="69.824219" xlink:href="#DejaVuSans-6f"/>
      <use x="131.005859" xlink:href="#DejaVuSans-6c"/>
      <use x="158.789062" xlink:href="#DejaVuSans-64"/>
     </g>
    </g>
    <g id="LineCollection_4">
     <path d="M 320.074687 187.689125 
L 320.074687 167.689125 
" style="fill:none;stroke:#d62728;stroke-width:1.5;"/>
    </g>
    <g id="line2d_31"/>
    <g id="line2d_32">
     <g>
      <use style="fill:#d62728;stroke:#d62728;" x="320.074687" xlink:href="#m4d17eb6f4c" y="177.689125"/>
     </g>
    </g>
    <g id="text_18">
     <!-- Hot -->
     <defs>
      <path d="M 9.8125 72.90625 
L 19.671875 72.90625 
L 19.671875 43.015625 
L 55.515625 43.015625 
L 55.515625 72.90625 
L 65.375 72.90625 
L 65.375 0 
L 55.515625 0 
L 55.515625 34.71875 
L 19.671875 34.71875 
L 19.671875 0 
L 9.8125 0 
z
" id="DejaVuSans-48"/>
      <path d="M 18.3125 70.21875 
L 18.3125 54.6875 
L 36.8125 54.6875 
L 36.8125 47.703125 
L 18.3125 47.703125 
L 18.3125 18.015625 
Q 18.3125 11.328125 20.140625 9.421875 
Q 21.96875 7.515625 27.59375 7.515625 
L 36.8125 7.515625 
L 36.8125 0 
L 27.59375 0 
Q 17.1875 0 13.234375 3.875 
Q 9.28125 7.765625 9.28125 18.015625 
L 9.28125 47.703125 
L 2.6875 47.703125 
L 2.6875 54.6875 
L 9.28125 54.6875 
L 9.28125 70.21875 
z
" id="DejaVuSans-74"/>
     </defs>
     <g transform="translate(356.074687 184.689125)scale(0.2 -0.2)">
      <use xlink:href="#DejaVuSans-48"/>
      <use x="75.195312" xlink:href="#DejaVuSans-6f"/>
      <use x="136.376953" xlink:href="#DejaVuSans-74"/>
     </g>
    </g>
   </g>
  </g>
 </g>
 <defs>
  <clipPath id="pcd39df9889">
   <rect height="266.112" width="357.12" x="61.410938" y="31.43625"/>
  </clipPath>
 </defs>
</svg>
