<?xml version="1.0" encoding="utf-8" standalone="no"?>
<!DOCTYPE svg PUBLIC "-//W3C//DTD SVG 1.1//EN"
  "http://www.w3.org/Graphics/SVG/1.1/DTD/svg11.dtd">
<!-- Created with matplotlib (http://matplotlib.org/) -->
<svg height="349pt" version="1.1" viewBox="0 0 429 349" width="429pt" xmlns="http://www.w3.org/2000/svg" xmlns:xlink="http://www.w3.org/1999/xlink">
 <defs>
  <style type="text/css">
*{stroke-linecap:butt;stroke-linejoin:round;}
  </style>
 </defs>
 <g id="figure_1">
  <g id="patch_1">
   <path d="M 0 349.665437 
L 429.230937 349.665437 
L 429.230937 0 
L 0 0 
z
" style="fill:none;"/>
  </g>
  <g id="axes_1">
   <g id="patch_2">
    <path d="M 61.410938 297.54825 
L 418.530938 297.54825 
L 418.530938 31.43625 
L 61.410938 31.43625 
z
" style="fill:none;"/>
   </g>
   <g id="matplotlib.axis_1">
    <g id="xtick_1">
     <g id="line2d_1">
      <path clip-path="url(#pcd39df9889)" d="M 61.410938 297.54825 
L 61.410938 31.43625 
" style="fill:none;stroke:#b0b0b0;stroke-linecap:square;stroke-width:0.8;"/>
     </g>
     <g id="line2d_2">
      <defs>
       <path d="M 0 0 
L 0 3.5 
" id="m005f0a59be" style="stroke:#000000;stroke-width:0.8;"/>
      </defs>
      <g>
       <use style="stroke:#000000;stroke-width:0.8;" x="61.410938" xlink:href="#m005f0a59be" y="297.54825"/>
      </g>
     </g>
     <g id="text_1">
      <!-- 0 -->
      <defs>
       <path d="M 31.78125 66.40625 
Q 24.171875 66.40625 20.328125 58.90625 
Q 16.5 51.421875 16.5 36.375 
Q 16.5 21.390625 20.328125 13.890625 
Q 24.171875 6.390625 31.78125 6.390625 
Q 39.453125 6.390625 43.28125 13.890625 
Q 47.125 21.390625 47.125 36.375 
Q 47.125 51.421875 43.28125 58.90625 
Q 39.453125 66.40625 31.78125 66.40625 
z
M 31.78125 74.21875 
Q 44.046875 74.21875 50.515625 64.515625 
Q 56.984375 54.828125 56.984375 36.375 
Q 56.984375 17.96875 50.515625 8.265625 
Q 44.046875 -1.421875 31.78125 -1.421875 
Q 19.53125 -1.421875 13.0625 8.265625 
Q 6.59375 17.96875 6.59375 36.375 
Q 6.59375 54.828125 13.0625 64.515625 
Q 19.53125 74.21875 31.78125 74.21875 
z
" id="DejaVuSans-30"/>
      </defs>
      <g transform="translate(56.639063 315.945906)scale(0.15 -0.15)">
       <use xlink:href="#DejaVuSans-30"/>
      </g>
     </g>
    </g>
    <g id="xtick_2">
     <g id="line2d_3">
      <path clip-path="url(#pcd39df9889)" d="M 129.433795 297.54825 
L 129.433795 31.43625 
" style="fill:none;stroke:#b0b0b0;stroke-linecap:square;stroke-width:0.8;"/>
     </g>
     <g id="line2d_4">
      <g>
       <use style="stroke:#000000;stroke-width:0.8;" x="129.433795" xlink:href="#m005f0a59be" y="297.54825"/>
      </g>
     </g>
     <g id="text_2">
      <!-- 20 -->
      <defs>
       <path d="M 19.1875 8.296875 
L 53.609375 8.296875 
L 53.609375 0 
L 7.328125 0 
L 7.328125 8.296875 
Q 12.9375 14.109375 22.625 23.890625 
Q 32.328125 33.6875 34.8125 36.53125 
Q 39.546875 41.84375 41.421875 45.53125 
Q 43.3125 49.21875 43.3125 52.78125 
Q 43.3125 58.59375 39.234375 62.25 
Q 35.15625 65.921875 28.609375 65.921875 
Q 23.96875 65.921875 18.8125 64.3125 
Q 13.671875 62.703125 7.8125 59.421875 
L 7.8125 69.390625 
Q 13.765625 71.78125 18.9375 73 
Q 24.125 74.21875 28.421875 74.21875 
Q 39.75 74.21875 46.484375 68.546875 
Q 53.21875 62.890625 53.21875 53.421875 
Q 53.21875 48.921875 51.53125 44.890625 
Q 49.859375 40.875 45.40625 35.40625 
Q 44.1875 33.984375 37.640625 27.21875 
Q 31.109375 20.453125 19.1875 8.296875 
z
" id="DejaVuSans-32"/>
      </defs>
      <g transform="translate(119.890045 315.945906)scale(0.15 -0.15)">
       <use xlink:href="#DejaVuSans-32"/>
       <use x="63.623047" xlink:href="#DejaVuSans-30"/>
      </g>
     </g>
    </g>
    <g id="xtick_3">
     <g id="line2d_5">
      <path clip-path="url(#pcd39df9889)" d="M 197.456652 297.54825 
L 197.456652 31.43625 
" style="fill:none;stroke:#b0b0b0;stroke-linecap:square;stroke-width:0.8;"/>
     </g>
     <g id="line2d_6">
      <g>
       <use style="stroke:#000000;stroke-width:0.8;" x="197.456652" xlink:href="#m005f0a59be" y="297.54825"/>
      </g>
     </g>
     <g id="text_3">
      <!-- 40 -->
      <defs>
       <path d="M 37.796875 64.3125 
L 12.890625 25.390625 
L 37.796875 25.390625 
z
M 35.203125 72.90625 
L 47.609375 72.90625 
L 47.609375 25.390625 
L 58.015625 25.390625 
L 58.015625 17.1875 
L 47.609375 17.1875 
L 47.609375 0 
L 37.796875 0 
L 37.796875 17.1875 
L 4.890625 17.1875 
L 4.890625 26.703125 
z
" id="DejaVuSans-34"/>
      </defs>
      <g transform="translate(187.912902 315.945906)scale(0.15 -0.15)">
       <use xlink:href="#DejaVuSans-34"/>
       <use x="63.623047" xlink:href="#DejaVuSans-30"/>
      </g>
     </g>
    </g>
    <g id="xtick_4">
     <g id="line2d_7">
      <path clip-path="url(#pcd39df9889)" d="M 265.479509 297.54825 
L 265.479509 31.43625 
" style="fill:none;stroke:#b0b0b0;stroke-linecap:square;stroke-width:0.8;"/>
     </g>
     <g id="line2d_8">
      <g>
       <use style="stroke:#000000;stroke-width:0.8;" x="265.479509" xlink:href="#m005f0a59be" y="297.54825"/>
      </g>
     </g>
     <g id="text_4">
      <!-- 60 -->
      <defs>
       <path d="M 33.015625 40.375 
Q 26.375 40.375 22.484375 35.828125 
Q 18.609375 31.296875 18.609375 23.390625 
Q 18.609375 15.53125 22.484375 10.953125 
Q 26.375 6.390625 33.015625 6.390625 
Q 39.65625 6.390625 43.53125 10.953125 
Q 47.40625 15.53125 47.40625 23.390625 
Q 47.40625 31.296875 43.53125 35.828125 
Q 39.65625 40.375 33.015625 40.375 
z
M 52.59375 71.296875 
L 52.59375 62.3125 
Q 48.875 64.0625 45.09375 64.984375 
Q 41.3125 65.921875 37.59375 65.921875 
Q 27.828125 65.921875 22.671875 59.328125 
Q 17.53125 52.734375 16.796875 39.40625 
Q 19.671875 43.65625 24.015625 45.921875 
Q 28.375 48.1875 33.59375 48.1875 
Q 44.578125 48.1875 50.953125 41.515625 
Q 57.328125 34.859375 57.328125 23.390625 
Q 57.328125 12.15625 50.6875 5.359375 
Q 44.046875 -1.421875 33.015625 -1.421875 
Q 20.359375 -1.421875 13.671875 8.265625 
Q 6.984375 17.96875 6.984375 36.375 
Q 6.984375 53.65625 15.1875 63.9375 
Q 23.390625 74.21875 37.203125 74.21875 
Q 40.921875 74.21875 44.703125 73.484375 
Q 48.484375 72.75 52.59375 71.296875 
z
" id="DejaVuSans-36"/>
      </defs>
      <g transform="translate(255.935759 315.945906)scale(0.15 -0.15)">
       <use xlink:href="#DejaVuSans-36"/>
       <use x="63.623047" xlink:href="#DejaVuSans-30"/>
      </g>
     </g>
    </g>
    <g id="xtick_5">
     <g id="line2d_9">
      <path clip-path="url(#pcd39df9889)" d="M 333.502366 297.54825 
L 333.502366 31.43625 
" style="fill:none;stroke:#b0b0b0;stroke-linecap:square;stroke-width:0.8;"/>
     </g>
     <g id="line2d_10">
      <g>
       <use style="stroke:#000000;stroke-width:0.8;" x="333.502366" xlink:href="#m005f0a59be" y="297.54825"/>
      </g>
     </g>
     <g id="text_5">
      <!-- 80 -->
      <defs>
       <path d="M 31.78125 34.625 
Q 24.75 34.625 20.71875 30.859375 
Q 16.703125 27.09375 16.703125 20.515625 
Q 16.703125 13.921875 20.71875 10.15625 
Q 24.75 6.390625 31.78125 6.390625 
Q 38.8125 6.390625 42.859375 10.171875 
Q 46.921875 13.96875 46.921875 20.515625 
Q 46.921875 27.09375 42.890625 30.859375 
Q 38.875 34.625 31.78125 34.625 
z
M 21.921875 38.8125 
Q 15.578125 40.375 12.03125 44.71875 
Q 8.5 49.078125 8.5 55.328125 
Q 8.5 64.0625 14.71875 69.140625 
Q 20.953125 74.21875 31.78125 74.21875 
Q 42.671875 74.21875 48.875 69.140625 
Q 55.078125 64.0625 55.078125 55.328125 
Q 55.078125 49.078125 51.53125 44.71875 
Q 48 40.375 41.703125 38.8125 
Q 48.828125 37.15625 52.796875 32.3125 
Q 56.78125 27.484375 56.78125 20.515625 
Q 56.78125 9.90625 50.3125 4.234375 
Q 43.84375 -1.421875 31.78125 -1.421875 
Q 19.734375 -1.421875 13.25 4.234375 
Q 6.78125 9.90625 6.78125 20.515625 
Q 6.78125 27.484375 10.78125 32.3125 
Q 14.796875 37.15625 21.921875 38.8125 
z
M 18.3125 54.390625 
Q 18.3125 48.734375 21.84375 45.5625 
Q 25.390625 42.390625 31.78125 42.390625 
Q 38.140625 42.390625 41.71875 45.5625 
Q 45.3125 48.734375 45.3125 54.390625 
Q 45.3125 60.0625 41.71875 63.234375 
Q 38.140625 66.40625 31.78125 66.40625 
Q 25.390625 66.40625 21.84375 63.234375 
Q 18.3125 60.0625 18.3125 54.390625 
z
" id="DejaVuSans-38"/>
      </defs>
      <g transform="translate(323.958616 315.945906)scale(0.15 -0.15)">
       <use xlink:href="#DejaVuSans-38"/>
       <use x="63.623047" xlink:href="#DejaVuSans-30"/>
      </g>
     </g>
    </g>
    <g id="xtick_6">
     <g id="line2d_11">
      <path clip-path="url(#pcd39df9889)" d="M 401.525223 297.54825 
L 401.525223 31.43625 
" style="fill:none;stroke:#b0b0b0;stroke-linecap:square;stroke-width:0.8;"/>
     </g>
     <g id="line2d_12">
      <g>
       <use style="stroke:#000000;stroke-width:0.8;" x="401.525223" xlink:href="#m005f0a59be" y="297.54825"/>
      </g>
     </g>
     <g id="text_6">
      <!-- 100 -->
      <defs>
       <path d="M 12.40625 8.296875 
L 28.515625 8.296875 
L 28.515625 63.921875 
L 10.984375 60.40625 
L 10.984375 69.390625 
L 28.421875 72.90625 
L 38.28125 72.90625 
L 38.28125 8.296875 
L 54.390625 8.296875 
L 54.390625 0 
L 12.40625 0 
z
" id="DejaVuSans-31"/>
      </defs>
      <g transform="translate(387.209598 315.945906)scale(0.15 -0.15)">
       <use xlink:href="#DejaVuSans-31"/>
       <use x="63.623047" xlink:href="#DejaVuSans-30"/>
       <use x="127.246094" xlink:href="#DejaVuSans-30"/>
      </g>
     </g>
    </g>
    <g id="text_7">
     <!-- Time ($\mu s$) -->
     <defs>
      <path d="M -0.296875 72.90625 
L 61.375 72.90625 
L 61.375 64.59375 
L 35.5 64.59375 
L 35.5 0 
L 25.59375 0 
L 25.59375 64.59375 
L -0.296875 64.59375 
z
" id="DejaVuSans-54"/>
      <path d="M 9.421875 54.6875 
L 18.40625 54.6875 
L 18.40625 0 
L 9.421875 0 
z
M 9.421875 75.984375 
L 18.40625 75.984375 
L 18.40625 64.59375 
L 9.421875 64.59375 
z
" id="DejaVuSans-69"/>
      <path d="M 52 44.1875 
Q 55.375 50.25 60.0625 53.125 
Q 64.75 56 71.09375 56 
Q 79.640625 56 84.28125 50.015625 
Q 88.921875 44.046875 88.921875 33.015625 
L 88.921875 0 
L 79.890625 0 
L 79.890625 32.71875 
Q 79.890625 40.578125 77.09375 44.375 
Q 74.3125 48.1875 68.609375 48.1875 
Q 61.625 48.1875 57.5625 43.546875 
Q 53.515625 38.921875 53.515625 30.90625 
L 53.515625 0 
L 44.484375 0 
L 44.484375 32.71875 
Q 44.484375 40.625 41.703125 44.40625 
Q 38.921875 48.1875 33.109375 48.1875 
Q 26.21875 48.1875 22.15625 43.53125 
Q 18.109375 38.875 18.109375 30.90625 
L 18.109375 0 
L 9.078125 0 
L 9.078125 54.6875 
L 18.109375 54.6875 
L 18.109375 46.1875 
Q 21.1875 51.21875 25.484375 53.609375 
Q 29.78125 56 35.6875 56 
Q 41.65625 56 45.828125 52.96875 
Q 50 49.953125 52 44.1875 
z
" id="DejaVuSans-6d"/>
      <path d="M 56.203125 29.59375 
L 56.203125 25.203125 
L 14.890625 25.203125 
Q 15.484375 15.921875 20.484375 11.0625 
Q 25.484375 6.203125 34.421875 6.203125 
Q 39.59375 6.203125 44.453125 7.46875 
Q 49.3125 8.734375 54.109375 11.28125 
L 54.109375 2.78125 
Q 49.265625 0.734375 44.1875 -0.34375 
Q 39.109375 -1.421875 33.890625 -1.421875 
Q 20.796875 -1.421875 13.15625 6.1875 
Q 5.515625 13.8125 5.515625 26.8125 
Q 5.515625 40.234375 12.765625 48.109375 
Q 20.015625 56 32.328125 56 
Q 43.359375 56 49.78125 48.890625 
Q 56.203125 41.796875 56.203125 29.59375 
z
M 47.21875 32.234375 
Q 47.125 39.59375 43.09375 43.984375 
Q 39.0625 48.390625 32.421875 48.390625 
Q 24.90625 48.390625 20.390625 44.140625 
Q 15.875 39.890625 15.1875 32.171875 
z
" id="DejaVuSans-65"/>
      <path id="DejaVuSans-20"/>
      <path d="M 31 75.875 
Q 24.46875 64.65625 21.28125 53.65625 
Q 18.109375 42.671875 18.109375 31.390625 
Q 18.109375 20.125 21.3125 9.0625 
Q 24.515625 -2 31 -13.1875 
L 23.1875 -13.1875 
Q 15.875 -1.703125 12.234375 9.375 
Q 8.59375 20.453125 8.59375 31.390625 
Q 8.59375 42.28125 12.203125 53.3125 
Q 15.828125 64.359375 23.1875 75.875 
z
" id="DejaVuSans-28"/>
      <path d="M -1.3125 -20.796875 
L 13.375 54.6875 
L 22.40625 54.6875 
L 15.765625 20.65625 
Q 15.578125 19.625 15.421875 18.359375 
Q 15.28125 17.09375 15.28125 15.828125 
Q 15.28125 11.28125 18.140625 8.828125 
Q 21 6.390625 26.3125 6.390625 
Q 33.546875 6.390625 37.984375 10.484375 
Q 42.4375 14.59375 44 22.796875 
L 50.203125 54.6875 
L 59.1875 54.6875 
L 51.03125 12.640625 
Q 50.828125 11.71875 50.75 11.03125 
Q 50.6875 10.359375 50.6875 9.8125 
Q 50.6875 8.296875 51.296875 7.59375 
Q 51.90625 6.890625 53.21875 6.890625 
Q 53.71875 6.890625 54.5625 7.125 
Q 55.421875 7.375 56.984375 8.015625 
L 55.609375 0.78125 
Q 53.46875 -0.296875 51.515625 -0.859375 
Q 49.5625 -1.421875 47.703125 -1.421875 
Q 44.484375 -1.421875 42.65625 0.625 
Q 40.828125 2.6875 40.828125 6.296875 
Q 38.09375 2.390625 34.296875 0.484375 
Q 30.515625 -1.421875 25.390625 -1.421875 
Q 20.84375 -1.421875 17.453125 0.671875 
Q 14.0625 2.78125 12.984375 6.203125 
L 7.71875 -20.796875 
z
" id="DejaVuSans-Oblique-3bc"/>
      <path d="M 50 53.078125 
L 48.296875 44.578125 
Q 44.734375 46.53125 40.765625 47.5 
Q 36.8125 48.484375 32.625 48.484375 
Q 25.53125 48.484375 21.453125 46.0625 
Q 17.390625 43.65625 17.390625 39.5 
Q 17.390625 34.671875 26.859375 32.078125 
Q 27.59375 31.890625 27.9375 31.78125 
L 30.8125 30.90625 
Q 39.796875 28.421875 42.796875 25.6875 
Q 45.796875 22.953125 45.796875 18.21875 
Q 45.796875 9.515625 38.890625 4.046875 
Q 31.984375 -1.421875 20.796875 -1.421875 
Q 16.453125 -1.421875 11.671875 -0.578125 
Q 6.890625 0.25 1.125 2 
L 2.875 11.28125 
Q 7.8125 8.734375 12.59375 7.421875 
Q 17.390625 6.109375 21.78125 6.109375 
Q 28.375 6.109375 32.5 8.9375 
Q 36.625 11.765625 36.625 16.109375 
Q 36.625 20.796875 25.78125 23.6875 
L 24.859375 23.921875 
L 21.78125 24.703125 
Q 14.9375 26.515625 11.765625 29.46875 
Q 8.59375 32.421875 8.59375 37.015625 
Q 8.59375 45.75 15.15625 50.875 
Q 21.734375 56 33.015625 56 
Q 37.453125 56 41.671875 55.265625 
Q 45.90625 54.546875 50 53.078125 
z
" id="DejaVuSans-Oblique-73"/>
      <path d="M 8.015625 75.875 
L 15.828125 75.875 
Q 23.140625 64.359375 26.78125 53.3125 
Q 30.421875 42.28125 30.421875 31.390625 
Q 30.421875 20.453125 26.78125 9.375 
Q 23.140625 -1.703125 15.828125 -13.1875 
L 8.015625 -13.1875 
Q 14.5 -2 17.703125 9.0625 
Q 20.90625 20.125 20.90625 31.390625 
Q 20.90625 42.671875 17.703125 53.65625 
Q 14.5 64.65625 8.015625 75.875 
z
" id="DejaVuSans-29"/>
     </defs>
     <g transform="translate(192.570938 338.265437)scale(0.2 -0.2)">
      <use transform="translate(0 0.015625)" xlink:href="#DejaVuSans-54"/>
      <use transform="translate(61.083984 0.015625)" xlink:href="#DejaVuSans-69"/>
      <use transform="translate(88.867188 0.015625)" xlink:href="#DejaVuSans-6d"/>
      <use transform="translate(186.279297 0.015625)" xlink:href="#DejaVuSans-65"/>
      <use transform="translate(247.802734 0.015625)" xlink:href="#DejaVuSans-20"/>
      <use transform="translate(279.589844 0.015625)" xlink:href="#DejaVuSans-28"/>
      <use transform="translate(318.603516 0.015625)" xlink:href="#DejaVuSans-Oblique-3bc"/>
      <use transform="translate(382.226562 0.015625)" xlink:href="#DejaVuSans-Oblique-73"/>
      <use transform="translate(434.326172 0.015625)" xlink:href="#DejaVuSans-29"/>
     </g>
    </g>
   </g>
   <g id="matplotlib.axis_2">
    <g id="ytick_1">
     <g id="line2d_13">
      <path clip-path="url(#pcd39df9889)" d="M 61.410938 297.54825 
L 418.530938 297.54825 
" style="fill:none;stroke:#b0b0b0;stroke-linecap:square;stroke-width:0.8;"/>
     </g>
     <g id="line2d_14">
      <defs>
       <path d="M 0 0 
L -3.5 0 
" id="mc3ce260a5b" style="stroke:#000000;stroke-width:0.8;"/>
      </defs>
      <g>
       <use style="stroke:#000000;stroke-width:0.8;" x="61.410938" xlink:href="#mc3ce260a5b" y="297.54825"/>
      </g>
     </g>
     <g id="text_8">
      <!-- 0.0 -->
      <defs>
       <path d="M 10.6875 12.40625 
L 21 12.40625 
L 21 0 
L 10.6875 0 
z
" id="DejaVuSans-2e"/>
      </defs>
      <g transform="translate(30.55625 303.247078)scale(0.15 -0.15)">
       <use xlink:href="#DejaVuSans-30"/>
       <use x="63.623047" xlink:href="#DejaVuSans-2e"/>
       <use x="95.410156" xlink:href="#DejaVuSans-30"/>
      </g>
     </g>
    </g>
    <g id="ytick_2">
     <g id="line2d_15">
      <path clip-path="url(#pcd39df9889)" d="M 61.410938 244.32585 
L 418.530938 244.32585 
" style="fill:none;stroke:#b0b0b0;stroke-linecap:square;stroke-width:0.8;"/>
     </g>
     <g id="line2d_16">
      <g>
       <use style="stroke:#000000;stroke-width:0.8;" x="61.410938" xlink:href="#mc3ce260a5b" y="244.32585"/>
      </g>
     </g>
     <g id="text_9">
      <!-- 0.2 -->
      <g transform="translate(30.55625 250.024678)scale(0.15 -0.15)">
       <use xlink:href="#DejaVuSans-30"/>
       <use x="63.623047" xlink:href="#DejaVuSans-2e"/>
       <use x="95.410156" xlink:href="#DejaVuSans-32"/>
      </g>
     </g>
    </g>
    <g id="ytick_3">
     <g id="line2d_17">
      <path clip-path="url(#pcd39df9889)" d="M 61.410938 191.10345 
L 418.530938 191.10345 
" style="fill:none;stroke:#b0b0b0;stroke-linecap:square;stroke-width:0.8;"/>
     </g>
     <g id="line2d_18">
      <g>
       <use style="stroke:#000000;stroke-width:0.8;" x="61.410938" xlink:href="#mc3ce260a5b" y="191.10345"/>
      </g>
     </g>
     <g id="text_10">
      <!-- 0.4 -->
      <g transform="translate(30.55625 196.802278)scale(0.15 -0.15)">
       <use xlink:href="#DejaVuSans-30"/>
       <use x="63.623047" xlink:href="#DejaVuSans-2e"/>
       <use x="95.410156" xlink:href="#DejaVuSans-34"/>
      </g>
     </g>
    </g>
    <g id="ytick_4">
     <g id="line2d_19">
      <path clip-path="url(#pcd39df9889)" d="M 61.410938 137.88105 
L 418.530938 137.88105 
" style="fill:none;stroke:#b0b0b0;stroke-linecap:square;stroke-width:0.8;"/>
     </g>
     <g id="line2d_20">
      <g>
       <use style="stroke:#000000;stroke-width:0.8;" x="61.410938" xlink:href="#mc3ce260a5b" y="137.88105"/>
      </g>
     </g>
     <g id="text_11">
      <!-- 0.6 -->
      <g transform="translate(30.55625 143.579878)scale(0.15 -0.15)">
       <use xlink:href="#DejaVuSans-30"/>
       <use x="63.623047" xlink:href="#DejaVuSans-2e"/>
       <use x="95.410156" xlink:href="#DejaVuSans-36"/>
      </g>
     </g>
    </g>
    <g id="ytick_5">
     <g id="line2d_21">
      <path clip-path="url(#pcd39df9889)" d="M 61.410938 84.65865 
L 418.530938 84.65865 
" style="fill:none;stroke:#b0b0b0;stroke-linecap:square;stroke-width:0.8;"/>
     </g>
     <g id="line2d_22">
      <g>
       <use style="stroke:#000000;stroke-width:0.8;" x="61.410938" xlink:href="#mc3ce260a5b" y="84.65865"/>
      </g>
     </g>
     <g id="text_12">
      <!-- 0.8 -->
      <g transform="translate(30.55625 90.357478)scale(0.15 -0.15)">
       <use xlink:href="#DejaVuSans-30"/>
       <use x="63.623047" xlink:href="#DejaVuSans-2e"/>
       <use x="95.410156" xlink:href="#DejaVuSans-38"/>
      </g>
     </g>
    </g>
    <g id="ytick_6">
     <g id="line2d_23">
      <path clip-path="url(#pcd39df9889)" d="M 61.410938 31.43625 
L 418.530938 31.43625 
" style="fill:none;stroke:#b0b0b0;stroke-linecap:square;stroke-width:0.8;"/>
     </g>
     <g id="line2d_24">
      <g>
       <use style="stroke:#000000;stroke-width:0.8;" x="61.410938" xlink:href="#mc3ce260a5b" y="31.43625"/>
      </g>
     </g>
     <g id="text_13">
      <!-- 1.0 -->
      <g transform="translate(30.55625 37.135078)scale(0.15 -0.15)">
       <use xlink:href="#DejaVuSans-31"/>
       <use x="63.623047" xlink:href="#DejaVuSans-2e"/>
       <use x="95.410156" xlink:href="#DejaVuSans-30"/>
      </g>
     </g>
    </g>
    <g id="text_14">
     <!-- Survival -->
     <defs>
      <path d="M 53.515625 70.515625 
L 53.515625 60.890625 
Q 47.90625 63.578125 42.921875 64.890625 
Q 37.9375 66.21875 33.296875 66.21875 
Q 25.25 66.21875 20.875 63.09375 
Q 16.5 59.96875 16.5 54.203125 
Q 16.5 49.359375 19.40625 46.890625 
Q 22.3125 44.4375 30.421875 42.921875 
L 36.375 41.703125 
Q 47.40625 39.59375 52.65625 34.296875 
Q 57.90625 29 57.90625 20.125 
Q 57.90625 9.515625 50.796875 4.046875 
Q 43.703125 -1.421875 29.984375 -1.421875 
Q 24.8125 -1.421875 18.96875 -0.25 
Q 13.140625 0.921875 6.890625 3.21875 
L 6.890625 13.375 
Q 12.890625 10.015625 18.65625 8.296875 
Q 24.421875 6.59375 29.984375 6.59375 
Q 38.421875 6.59375 43.015625 9.90625 
Q 47.609375 13.234375 47.609375 19.390625 
Q 47.609375 24.75 44.3125 27.78125 
Q 41.015625 30.8125 33.5 32.328125 
L 27.484375 33.5 
Q 16.453125 35.6875 11.515625 40.375 
Q 6.59375 45.0625 6.59375 53.421875 
Q 6.59375 63.09375 13.40625 68.65625 
Q 20.21875 74.21875 32.171875 74.21875 
Q 37.3125 74.21875 42.625 73.28125 
Q 47.953125 72.359375 53.515625 70.515625 
z
" id="DejaVuSans-53"/>
      <path d="M 8.5 21.578125 
L 8.5 54.6875 
L 17.484375 54.6875 
L 17.484375 21.921875 
Q 17.484375 14.15625 20.5 10.265625 
Q 23.53125 6.390625 29.59375 6.390625 
Q 36.859375 6.390625 41.078125 11.03125 
Q 45.3125 15.671875 45.3125 23.6875 
L 45.3125 54.6875 
L 54.296875 54.6875 
L 54.296875 0 
L 45.3125 0 
L 45.3125 8.40625 
Q 42.046875 3.421875 37.71875 1 
Q 33.40625 -1.421875 27.6875 -1.421875 
Q 18.265625 -1.421875 13.375 4.4375 
Q 8.5 10.296875 8.5 21.578125 
z
M 31.109375 56 
z
" id="DejaVuSans-75"/>
      <path d="M 41.109375 46.296875 
Q 39.59375 47.171875 37.8125 47.578125 
Q 36.03125 48 33.890625 48 
Q 26.265625 48 22.1875 43.046875 
Q 18.109375 38.09375 18.109375 28.8125 
L 18.109375 0 
L 9.078125 0 
L 9.078125 54.6875 
L 18.109375 54.6875 
L 18.109375 46.1875 
Q 20.953125 51.171875 25.484375 53.578125 
Q 30.03125 56 36.53125 56 
Q 37.453125 56 38.578125 55.875 
Q 39.703125 55.765625 41.0625 55.515625 
z
" id="DejaVuSans-72"/>
      <path d="M 2.984375 54.6875 
L 12.5 54.6875 
L 29.59375 8.796875 
L 46.6875 54.6875 
L 56.203125 54.6875 
L 35.6875 0 
L 23.484375 0 
z
" id="DejaVuSans-76"/>
      <path d="M 34.28125 27.484375 
Q 23.390625 27.484375 19.1875 25 
Q 14.984375 22.515625 14.984375 16.5 
Q 14.984375 11.71875 18.140625 8.90625 
Q 21.296875 6.109375 26.703125 6.109375 
Q 34.1875 6.109375 38.703125 11.40625 
Q 43.21875 16.703125 43.21875 25.484375 
L 43.21875 27.484375 
z
M 52.203125 31.203125 
L 52.203125 0 
L 43.21875 0 
L 43.21875 8.296875 
Q 40.140625 3.328125 35.546875 0.953125 
Q 30.953125 -1.421875 24.3125 -1.421875 
Q 15.921875 -1.421875 10.953125 3.296875 
Q 6 8.015625 6 15.921875 
Q 6 25.140625 12.171875 29.828125 
Q 18.359375 34.515625 30.609375 34.515625 
L 43.21875 34.515625 
L 43.21875 35.40625 
Q 43.21875 41.609375 39.140625 45 
Q 35.0625 48.390625 27.6875 48.390625 
Q 23 48.390625 18.546875 47.265625 
Q 14.109375 46.140625 10.015625 43.890625 
L 10.015625 52.203125 
Q 14.9375 54.109375 19.578125 55.046875 
Q 24.21875 56 28.609375 56 
Q 40.484375 56 46.34375 49.84375 
Q 52.203125 43.703125 52.203125 31.203125 
z
" id="DejaVuSans-61"/>
      <path d="M 9.421875 75.984375 
L 18.40625 75.984375 
L 18.40625 0 
L 9.421875 0 
z
" id="DejaVuSans-6c"/>
     </defs>
     <g transform="translate(22.396875 204.811)rotate(-90)scale(0.2 -0.2)">
      <use xlink:href="#DejaVuSans-53"/>
      <use x="63.476562" xlink:href="#DejaVuSans-75"/>
      <use x="126.855469" xlink:href="#DejaVuSans-72"/>
      <use x="167.96875" xlink:href="#DejaVuSans-76"/>
      <use x="227.148438" xlink:href="#DejaVuSans-69"/>
      <use x="254.931641" xlink:href="#DejaVuSans-76"/>
      <use x="314.111328" xlink:href="#DejaVuSans-61"/>
      <use x="375.390625" xlink:href="#DejaVuSans-6c"/>
     </g>
    </g>
   </g>
   <g id="LineCollection_1">
    <path clip-path="url(#pcd39df9889)" d="M 61.410938 297.54825 
L 61.410938 296.36553 
" style="fill:none;stroke:#1f77b4;stroke-width:1.5;"/>
    <path clip-path="url(#pcd39df9889)" d="M 69.913795 241.828995 
L 69.913795 227.329727 
" style="fill:none;stroke:#1f77b4;stroke-width:1.5;"/>
    <path clip-path="url(#pcd39df9889)" d="M 78.416652 98.67311 
L 78.416652 83.447692 
" style="fill:none;stroke:#1f77b4;stroke-width:1.5;"/>
    <path clip-path="url(#pcd39df9889)" d="M 86.919509 64.746548 
L 86.919509 54.089419 
" style="fill:none;stroke:#1f77b4;stroke-width:1.5;"/>
    <path clip-path="url(#pcd39df9889)" d="M 95.422366 175.851106 
L 95.422366 158.677394 
" style="fill:none;stroke:#1f77b4;stroke-width:1.5;"/>
    <path clip-path="url(#pcd39df9889)" d="M 103.925223 292.692074 
L 103.925223 286.750779 
" style="fill:none;stroke:#1f77b4;stroke-width:1.5;"/>
    <path clip-path="url(#pcd39df9889)" d="M 112.42808 250.157468 
L 112.42808 236.562773 
" style="fill:none;stroke:#1f77b4;stroke-width:1.5;"/>
    <path clip-path="url(#pcd39df9889)" d="M 120.930938 125.064088 
L 120.930938 108.543987 
" style="fill:none;stroke:#1f77b4;stroke-width:1.5;"/>
    <path clip-path="url(#pcd39df9889)" d="M 129.433795 66.430675 
L 129.433795 55.449268 
" style="fill:none;stroke:#1f77b4;stroke-width:1.5;"/>
    <path clip-path="url(#pcd39df9889)" d="M 137.936652 173.844124 
L 137.936652 156.297385 
" style="fill:none;stroke:#1f77b4;stroke-width:1.5;"/>
    <path clip-path="url(#pcd39df9889)" d="M 146.439509 283.742121 
L 146.439509 274.852291 
" style="fill:none;stroke:#1f77b4;stroke-width:1.5;"/>
    <path clip-path="url(#pcd39df9889)" d="M 154.942366 263.14087 
L 154.942366 250.168914 
" style="fill:none;stroke:#1f77b4;stroke-width:1.5;"/>
    <path clip-path="url(#pcd39df9889)" d="M 163.445223 133.029398 
L 163.445223 116.568749 
" style="fill:none;stroke:#1f77b4;stroke-width:1.5;"/>
    <path clip-path="url(#pcd39df9889)" d="M 171.94808 56.403254 
L 171.94808 47.324615 
" style="fill:none;stroke:#1f77b4;stroke-width:1.5;"/>
    <path clip-path="url(#pcd39df9889)" d="M 180.450938 170.923525 
L 180.450938 153.492529 
" style="fill:none;stroke:#1f77b4;stroke-width:1.5;"/>
    <path clip-path="url(#pcd39df9889)" d="M 188.953795 277.67062 
L 188.953795 267.736918 
" style="fill:none;stroke:#1f77b4;stroke-width:1.5;"/>
    <path clip-path="url(#pcd39df9889)" d="M 197.456652 275.556141 
L 197.456652 264.923485 
" style="fill:none;stroke:#1f77b4;stroke-width:1.5;"/>
    <path clip-path="url(#pcd39df9889)" d="M 205.959509 143.798133 
L 205.959509 126.571389 
" style="fill:none;stroke:#1f77b4;stroke-width:1.5;"/>
    <path clip-path="url(#pcd39df9889)" d="M 214.462366 66.983493 
L 214.462366 55.447407 
" style="fill:none;stroke:#1f77b4;stroke-width:1.5;"/>
    <path clip-path="url(#pcd39df9889)" d="M 222.965223 131.183443 
L 222.965223 114.268142 
" style="fill:none;stroke:#1f77b4;stroke-width:1.5;"/>
    <path clip-path="url(#pcd39df9889)" d="M 231.46808 247.015601 
L 231.46808 232.328146 
" style="fill:none;stroke:#1f77b4;stroke-width:1.5;"/>
    <path clip-path="url(#pcd39df9889)" d="M 239.970938 275.94623 
L 239.970938 265.208649 
" style="fill:none;stroke:#1f77b4;stroke-width:1.5;"/>
    <path clip-path="url(#pcd39df9889)" d="M 248.473795 171.032839 
L 248.473795 153.135154 
" style="fill:none;stroke:#1f77b4;stroke-width:1.5;"/>
    <path clip-path="url(#pcd39df9889)" d="M 256.976652 64.985898 
L 256.976652 54.435402 
" style="fill:none;stroke:#1f77b4;stroke-width:1.5;"/>
    <path clip-path="url(#pcd39df9889)" d="M 265.479509 109.287624 
L 265.479509 93.705797 
" style="fill:none;stroke:#1f77b4;stroke-width:1.5;"/>
    <path clip-path="url(#pcd39df9889)" d="M 273.982366 234.711568 
L 273.982366 219.158827 
" style="fill:none;stroke:#1f77b4;stroke-width:1.5;"/>
    <path clip-path="url(#pcd39df9889)" d="M 282.485223 272.497878 
L 282.485223 260.800101 
" style="fill:none;stroke:#1f77b4;stroke-width:1.5;"/>
    <path clip-path="url(#pcd39df9889)" d="M 290.98808 197.78862 
L 290.98808 180.432461 
" style="fill:none;stroke:#1f77b4;stroke-width:1.5;"/>
    <path clip-path="url(#pcd39df9889)" d="M 299.490938 93.068118 
L 299.490938 78.828241 
" style="fill:none;stroke:#1f77b4;stroke-width:1.5;"/>
    <path clip-path="url(#pcd39df9889)" d="M 307.993795 110.664945 
L 307.993795 94.853176 
" style="fill:none;stroke:#1f77b4;stroke-width:1.5;"/>
    <path clip-path="url(#pcd39df9889)" d="M 316.496652 232.712955 
L 316.496652 216.908985 
" style="fill:none;stroke:#1f77b4;stroke-width:1.5;"/>
    <path clip-path="url(#pcd39df9889)" d="M 324.999509 277.313143 
L 324.999509 266.926397 
" style="fill:none;stroke:#1f77b4;stroke-width:1.5;"/>
    <path clip-path="url(#pcd39df9889)" d="M 333.502366 204.259875 
L 333.502366 186.611137 
" style="fill:none;stroke:#1f77b4;stroke-width:1.5;"/>
    <path clip-path="url(#pcd39df9889)" d="M 342.005223 86.189577 
L 342.005223 72.714645 
" style="fill:none;stroke:#1f77b4;stroke-width:1.5;"/>
    <path clip-path="url(#pcd39df9889)" d="M 350.50808 90.592107 
L 350.50808 77.240903 
" style="fill:none;stroke:#1f77b4;stroke-width:1.5;"/>
    <path clip-path="url(#pcd39df9889)" d="M 359.010938 199.477656 
L 359.010938 182.503726 
" style="fill:none;stroke:#1f77b4;stroke-width:1.5;"/>
    <path clip-path="url(#pcd39df9889)" d="M 367.513795 261.32305 
L 367.513795 247.970982 
" style="fill:none;stroke:#1f77b4;stroke-width:1.5;"/>
    <path clip-path="url(#pcd39df9889)" d="M 376.016652 216.880097 
L 376.016652 199.541203 
" style="fill:none;stroke:#1f77b4;stroke-width:1.5;"/>
    <path clip-path="url(#pcd39df9889)" d="M 384.519509 112.708145 
L 384.519509 97.255798 
" style="fill:none;stroke:#1f77b4;stroke-width:1.5;"/>
    <path clip-path="url(#pcd39df9889)" d="M 393.022366 100.973051 
L 393.022366 85.585308 
" style="fill:none;stroke:#1f77b4;stroke-width:1.5;"/>
    <path clip-path="url(#pcd39df9889)" d="M 401.525223 204.298467 
L 401.525223 187.092829 
" style="fill:none;stroke:#1f77b4;stroke-width:1.5;"/>
   </g>
   <g id="LineCollection_2">
    <path clip-path="url(#pcd39df9889)" d="M 61.410938 293.318268 
L 61.410938 286.326567 
" style="fill:none;stroke:#d62728;stroke-width:1.5;"/>
    <path clip-path="url(#pcd39df9889)" d="M 69.913795 256.383405 
L 69.913795 240.332295 
" style="fill:none;stroke:#d62728;stroke-width:1.5;"/>
    <path clip-path="url(#pcd39df9889)" d="M 78.416652 156.051286 
L 78.416652 136.015943 
" style="fill:none;stroke:#d62728;stroke-width:1.5;"/>
    <path clip-path="url(#pcd39df9889)" d="M 86.919509 107.12171 
L 86.919509 88.80679 
" style="fill:none;stroke:#d62728;stroke-width:1.5;"/>
    <path clip-path="url(#pcd39df9889)" d="M 95.422366 127.78039 
L 95.422366 108.97211 
" style="fill:none;stroke:#d62728;stroke-width:1.5;"/>
    <path clip-path="url(#pcd39df9889)" d="M 103.925223 216.548067 
L 103.925223 195.709575 
" style="fill:none;stroke:#d62728;stroke-width:1.5;"/>
    <path clip-path="url(#pcd39df9889)" d="M 112.42808 210.380575 
L 112.42808 190.121525 
" style="fill:none;stroke:#d62728;stroke-width:1.5;"/>
    <path clip-path="url(#pcd39df9889)" d="M 120.930938 167.590237 
L 120.930938 146.966504 
" style="fill:none;stroke:#d62728;stroke-width:1.5;"/>
    <path clip-path="url(#pcd39df9889)" d="M 129.433795 151.719038 
L 129.433795 130.609462 
" style="fill:none;stroke:#d62728;stroke-width:1.5;"/>
    <path clip-path="url(#pcd39df9889)" d="M 137.936652 153.143754 
L 137.936652 132.325577 
" style="fill:none;stroke:#d62728;stroke-width:1.5;"/>
    <path clip-path="url(#pcd39df9889)" d="M 146.439509 185.906365 
L 146.439509 165.386925 
" style="fill:none;stroke:#d62728;stroke-width:1.5;"/>
    <path clip-path="url(#pcd39df9889)" d="M 154.942366 212.629521 
L 154.942366 193.265962 
" style="fill:none;stroke:#d62728;stroke-width:1.5;"/>
    <path clip-path="url(#pcd39df9889)" d="M 163.445223 198.746689 
L 163.445223 177.507705 
" style="fill:none;stroke:#d62728;stroke-width:1.5;"/>
    <path clip-path="url(#pcd39df9889)" d="M 171.94808 150.689095 
L 171.94808 128.519059 
" style="fill:none;stroke:#d62728;stroke-width:1.5;"/>
    <path clip-path="url(#pcd39df9889)" d="M 180.450938 158.074395 
L 180.450938 137.010487 
" style="fill:none;stroke:#d62728;stroke-width:1.5;"/>
    <path clip-path="url(#pcd39df9889)" d="M 188.953795 175.693301 
L 188.953795 154.913833 
" style="fill:none;stroke:#d62728;stroke-width:1.5;"/>
   </g>
   <g id="line2d_25">
    <path clip-path="url(#pcd39df9889)" d="M 61.410938 297.056409 
L 61.768058 297.056409 
L 62.125178 296.685009 
L 62.482298 295.785796 
L 62.839418 294.057618 
L 63.196538 293.568262 
L 63.553658 291.915869 
L 63.910778 289.731362 
L 64.982138 280.434883 
L 65.339258 278.941121 
L 66.053498 270.565776 
L 68.910458 232.102441 
L 75.338618 119.877025 
L 75.695738 114.998319 
L 76.052858 107.594046 
L 76.409978 103.376249 
L 77.481338 87.594213 
L 77.838458 84.176586 
L 78.552698 73.848012 
L 78.909818 71.301925 
L 79.624058 62.736513 
L 81.052538 52.591652 
L 81.409658 51.482594 
L 81.766778 48.526377 
L 82.123898 48.592195 
L 82.838138 46.504304 
L 83.552378 46.777626 
L 83.909498 46.504304 
L 84.266618 46.02463 
L 84.623738 48.526377 
L 84.980858 49.184692 
L 86.409338 57.712347 
L 87.837818 71.216056 
L 88.194938 76.038718 
L 88.552058 78.693355 
L 90.694778 108.953518 
L 93.908858 163.945137 
L 96.051578 201.607532 
L 98.908538 246.685688 
L 99.979898 260.501182 
L 101.051258 272.947364 
L 101.408378 276.951434 
L 101.765498 279.257676 
L 102.122618 283.372634 
L 102.836858 286.797621 
L 103.551098 292.389439 
L 103.908218 291.473856 
L 104.265338 295.299863 
L 104.622458 294.721341 
L 104.979578 294.900828 
L 105.336698 294.811085 
L 105.693818 295.080314 
L 106.050938 294.71004 
L 106.765178 291.192092 
L 107.122298 291.559713 
L 107.479418 289.282752 
L 107.836538 287.852355 
L 108.193658 284.237877 
L 108.550778 281.808502 
L 109.622138 272.316984 
L 109.979258 269.37438 
L 111.050618 254.902082 
L 111.407738 251.315055 
L 112.479098 235.807446 
L 114.978938 194.410084 
L 115.336058 189.998619 
L 116.407418 169.093449 
L 118.193018 138.336393 
L 119.621498 116.114061 
L 120.692858 99.063416 
L 121.764218 84.871106 
L 123.549818 65.933033 
L 123.906938 63.954564 
L 124.978298 55.591548 
L 126.406778 51.098008 
L 126.763898 49.157323 
L 127.121018 49.267024 
L 127.478138 50.078195 
L 127.835258 50.194713 
L 128.549498 52.164886 
L 128.906618 52.720684 
L 129.263738 55.319679 
L 129.620858 56.166247 
L 130.692218 64.595574 
L 131.049338 66.005029 
L 131.406458 71.653431 
L 132.834938 86.866569 
L 133.906298 101.540565 
L 136.049018 134.250172 
L 137.477498 157.874887 
L 138.191738 171.092652 
L 138.905978 182.556267 
L 139.263098 190.320902 
L 139.977338 200.855798 
L 141.048698 218.752274 
L 142.834298 245.374258 
L 144.262778 263.230775 
L 144.619898 267.178249 
L 144.977018 269.506723 
L 145.334138 273.889897 
L 146.762618 284.495466 
L 147.833978 289.109027 
L 148.191098 289.232453 
L 148.548218 290.231005 
L 148.905338 292.164889 
L 149.619578 291.011856 
L 150.333818 289.201597 
L 150.690938 288.766302 
L 151.405178 285.710223 
L 151.762298 282.782162 
L 152.119418 280.915185 
L 152.476538 276.777959 
L 153.190778 271.802396 
L 155.333498 246.94357 
L 156.761978 227.342164 
L 157.476218 215.661311 
L 163.904378 110.980418 
L 164.261498 106.799091 
L 164.618618 100.927218 
L 165.332858 92.792527 
L 165.689978 86.663261 
L 168.189818 64.103313 
L 168.546938 61.934851 
L 168.904058 61.174842 
L 169.261178 57.810399 
L 169.618298 57.650632 
L 169.975418 55.873983 
L 171.046778 54.122291 
L 171.403898 54.940895 
L 171.761018 55.109824 
L 172.118138 55.968025 
L 172.475258 58.032071 
L 172.832378 59.115801 
L 173.189498 60.934514 
L 173.546618 61.695949 
L 175.332218 76.528947 
L 177.117818 95.751255 
L 179.617658 133.030795 
L 180.331898 144.292415 
L 181.760378 167.834466 
L 182.474618 179.922909 
L 182.831738 184.672292 
L 183.903098 203.327466 
L 187.474298 253.267317 
L 187.831418 256.320283 
L 188.188538 262.019448 
L 189.259898 271.020376 
L 189.974138 276.272078 
L 190.331258 277.972687 
L 190.688378 281.181089 
L 191.045498 281.844214 
L 191.402618 283.334655 
L 191.759738 285.380804 
L 192.116858 285.258901 
L 192.473978 286.602217 
L 192.831098 287.10432 
L 193.188218 285.917181 
L 193.902458 285.402747 
L 194.259578 283.891846 
L 194.616698 283.043881 
L 194.973818 280.371176 
L 195.688058 277.764066 
L 196.045178 274.622926 
L 196.402298 272.776106 
L 198.545018 252.045005 
L 199.259258 241.608297 
L 199.973498 232.776941 
L 202.116218 200.37019 
L 202.830458 189.245266 
L 203.187578 184.623324 
L 204.258938 165.632806 
L 207.473018 116.450141 
L 209.972858 85.826881 
L 210.329978 81.623109 
L 210.687098 79.213889 
L 211.401338 72.956441 
L 212.115578 67.348897 
L 212.472698 65.525485 
L 213.186938 63.047385 
L 213.544058 60.6859 
L 213.901178 60.702925 
L 214.258298 60.109136 
L 214.615418 60.736975 
L 215.329658 60.445886 
L 215.686778 59.932804 
L 217.829498 70.4109 
L 218.186618 72.824098 
L 218.543738 76.35534 
L 218.900858 78.753991 
L 219.257978 83.093467 
L 219.972218 89.203592 
L 221.043578 102.295452 
L 221.400698 106.548124 
L 222.472058 122.615482 
L 223.900538 142.754184 
L 224.257658 150.112772 
L 225.329018 165.28475 
L 226.043258 178.26402 
L 226.757498 187.945046 
L 227.114618 194.79923 
L 227.471738 199.142822 
L 228.543098 216.108919 
L 230.685818 245.054289 
L 232.471418 263.179254 
L 233.899898 274.456921 
L 234.614138 277.196855 
L 234.971258 279.935891 
L 235.328378 279.827887 
L 235.685498 281.706351 
L 236.042618 281.472742 
L 236.399738 282.74559 
L 236.756858 282.000128 
L 237.113978 282.180964 
L 237.471098 281.506215 
L 238.185338 279.568779 
L 238.542458 276.673059 
L 238.899578 276.422899 
L 239.256698 274.476633 
L 240.685178 263.325231 
L 241.399418 256.530042 
L 241.756538 253.744675 
L 242.113658 249.907993 
L 242.827898 240.472341 
L 243.899258 226.821307 
L 251.041658 118.499253 
L 251.398778 114.821979 
L 252.827258 96.64428 
L 254.969978 76.898679 
L 255.327098 73.980259 
L 255.684218 72.966621 
L 256.398458 67.715938 
L 256.755578 67.32421 
L 257.469818 64.937012 
L 258.184058 65.748704 
L 258.541178 64.442585 
L 258.898298 64.651206 
L 259.255418 65.35201 
L 259.612538 65.296151 
L 260.326778 68.013815 
L 260.683898 70.855882 
L 261.041018 72.742656 
L 262.112378 79.814697 
L 262.469498 82.077941 
L 264.612218 105.115473 
L 267.826298 150.166712 
L 268.183418 155.88988 
L 268.540538 159.579408 
L 268.897658 166.948136 
L 269.611898 177.40602 
L 270.683258 193.320246 
L 272.825978 225.077675 
L 274.968698 250.264274 
L 275.325818 252.769013 
L 276.040058 261.064052 
L 276.397178 264.154317 
L 277.111418 268.104522 
L 277.825658 272.981811 
L 278.182778 274.068866 
L 278.539898 276.791303 
L 278.897018 277.183328 
L 279.254138 278.271427 
L 279.611258 278.648398 
L 279.968378 278.808135 
L 280.325498 278.735527 
L 280.682618 279.675122 
L 281.753978 275.741498 
L 282.468218 273.119599 
L 283.896698 263.614069 
L 285.682298 246.332595 
L 286.396538 237.77641 
L 287.825018 221.282565 
L 288.539258 210.488959 
L 291.753338 161.830766 
L 292.824698 145.990895 
L 293.538938 135.252431 
L 293.896058 131.361965 
L 294.610298 119.915156 
L 294.967418 116.340969 
L 296.395898 98.497456 
L 296.753018 95.688755 
L 297.824378 84.176586 
L 298.181498 82.302454 
L 298.538618 78.857937 
L 298.895738 76.547234 
L 299.252858 75.593805 
L 299.609978 73.071604 
L 299.967098 71.589722 
L 300.324218 70.84503 
L 300.681338 68.752874 
L 301.038458 68.110155 
L 301.395578 67.12256 
L 301.752698 67.893391 
L 302.109818 67.789084 
L 302.466938 67.869306 
L 302.824058 68.233131 
L 303.538298 70.055776 
L 303.895418 72.550863 
L 304.252538 73.343666 
L 304.609658 76.001454 
L 304.966778 77.234757 
L 306.038138 85.014331 
L 307.466618 99.241834 
L 308.537978 111.001318 
L 309.252218 121.235429 
L 311.037818 145.313684 
L 312.109178 162.261532 
L 312.466298 168.162369 
L 312.823418 171.798015 
L 313.894778 189.208234 
L 317.465978 238.757967 
L 317.823098 241.998321 
L 318.537338 250.264274 
L 318.894458 252.97524 
L 319.608698 260.525267 
L 320.680058 267.121279 
L 321.037178 270.334663 
L 322.108538 275.205039 
L 322.465658 276.051196 
L 323.179898 276.711238 
L 323.537018 276.831336 
L 323.894138 276.697894 
L 324.251258 276.357067 
L 324.608378 277.339373 
L 324.965498 275.480032 
L 325.322618 274.54978 
L 326.393978 269.852387 
L 327.108218 264.591875 
L 327.465338 263.187841 
L 327.822458 259.016521 
L 328.179578 256.44837 
L 330.679418 228.756302 
L 332.107898 209.033462 
L 333.893498 182.491245 
L 335.679098 157.49947 
L 336.393338 144.058499 
L 336.750458 141.241931 
L 337.464698 130.935541 
L 339.250298 107.185188 
L 339.607418 103.871402 
L 339.964538 99.229937 
L 340.321658 96.275104 
L 340.678778 91.271851 
L 341.393018 86.190898 
L 342.107258 80.178597 
L 342.464378 78.896174 
L 342.821498 75.424521 
L 343.535738 71.913417 
L 343.892858 70.736516 
L 344.249978 70.018001 
L 344.607098 68.717607 
L 344.964218 68.830544 
L 345.321338 68.470737 
L 345.678458 69.593447 
L 346.035578 68.842161 
L 346.392698 69.6956 
L 346.749818 69.883345 
L 348.178298 76.410713 
L 348.892538 81.079149 
L 349.606778 85.797182 
L 350.321018 93.797354 
L 350.678138 96.455214 
L 351.035258 100.050826 
L 351.392378 105.401594 
L 352.106618 112.841321 
L 352.463738 117.246988 
L 353.177978 127.594156 
L 356.034938 167.494504 
L 356.749178 179.223199 
L 357.820538 195.38504 
L 358.177658 199.791306 
L 358.891898 211.11217 
L 361.391738 242.667542 
L 363.177338 260.756027 
L 364.962938 272.201038 
L 365.677178 274.793082 
L 366.034298 275.614899 
L 366.391418 276.911401 
L 366.748538 277.73625 
L 367.105658 276.884713 
L 367.462778 277.169801 
L 368.177018 276.924746 
L 368.534138 275.052295 
L 368.891258 275.039951 
L 369.962618 270.604815 
L 370.319738 266.558808 
L 370.676858 265.282706 
L 372.462458 248.679919 
L 374.605178 223.991282 
L 376.747898 193.720249 
L 381.747578 120.199365 
L 382.818938 107.621027 
L 384.247418 91.899903 
L 386.390138 74.526206 
L 386.747258 72.571435 
L 387.104378 72.115957 
L 387.818618 69.502644 
L 388.175738 68.969953 
L 388.532858 68.061985 
L 388.889978 68.245029 
L 389.247098 68.553027 
L 389.604218 67.776893 
L 389.961338 69.354219 
L 390.318458 69.849681 
L 390.675578 71.536631 
L 391.032698 71.724324 
L 392.104058 78.329648 
L 392.461178 79.603695 
L 393.175418 85.367576 
L 393.532538 89.486559 
L 393.889658 92.191514 
L 395.675258 112.26507 
L 396.389498 122.291966 
L 396.746618 127.617015 
L 397.103738 130.881677 
L 403.531898 226.54012 
L 403.889018 229.711292 
L 404.603258 240.501216 
L 404.960378 243.322441 
L 406.031738 254.357678 
L 407.103098 264.339472 
L 407.460218 265.264587 
L 407.817338 269.770096 
L 408.174458 271.65976 
L 408.531578 272.316984 
L 408.888698 274.904173 
L 409.245818 276.129154 
L 409.602938 278.144467 
L 409.960058 278.243214 
L 410.317178 278.706484 
L 411.031418 278.633876 
L 411.745658 278.26398 
L 412.102778 277.73625 
L 412.817018 275.330036 
L 413.174138 274.481006 
L 413.531258 271.44507 
L 414.245498 267.783256 
L 414.602618 263.674704 
L 414.959738 262.044554 
L 416.745338 242.905494 
L 418.173818 225.973942 
L 418.530938 220.649173 
L 418.530938 220.649173 
" style="fill:none;stroke:#1f77b4;stroke-linecap:square;stroke-width:1.5;"/>
   </g>
   <g id="line2d_26">
    <path clip-path="url(#pcd39df9889)" d="M 61.410938 297.044382 
L 62.227212 297.044382 
L 62.499303 296.436279 
L 62.771395 295.244884 
L 63.043486 297.044382 
L 63.587669 293.281298 
L 63.85976 293.827778 
L 64.948126 287.232912 
L 65.220218 285.083278 
L 65.492309 284.5375 
L 65.7644 281.442461 
L 66.036492 279.812963 
L 66.580675 275.377979 
L 67.124858 271.964416 
L 68.485315 259.085507 
L 68.757406 254.333963 
L 69.029498 252.894991 
L 69.301589 249.436969 
L 69.57368 247.405615 
L 70.389955 236.81188 
L 70.662046 234.502745 
L 71.206229 227.267102 
L 78.008515 140.088177 
L 78.280606 138.188517 
L 78.824789 130.39711 
L 79.09688 128.572281 
L 80.457338 114.171115 
L 80.729429 112.342088 
L 81.817795 102.067702 
L 82.089886 101.838543 
L 82.361978 98.955573 
L 82.634069 98.401484 
L 83.178252 93.623972 
L 83.450343 92.394196 
L 83.722435 90.189745 
L 84.266618 88.894453 
L 85.082892 85.085207 
L 85.354983 84.101893 
L 85.627075 84.611137 
L 85.899166 83.909538 
L 86.171258 83.966532 
L 86.443349 82.61423 
L 86.71544 82.555584 
L 86.987532 81.916756 
L 87.259623 82.843154 
L 87.531715 82.226895 
L 87.803806 82.256432 
L 88.075898 83.26391 
L 88.347989 83.40843 
L 88.62008 84.547467 
L 88.892172 84.63236 
L 89.164263 84.271564 
L 89.436355 84.902549 
L 89.708446 86.644007 
L 89.980538 87.000262 
L 90.252629 88.656419 
L 90.52472 88.955194 
L 92.157269 97.450427 
L 93.245635 105.552388 
L 93.517726 106.833253 
L 93.789818 109.689602 
L 94.061909 109.992536 
L 94.334 113.37457 
L 94.606092 115.165524 
L 94.878183 117.816804 
L 95.150275 119.06603 
L 95.694458 124.706867 
L 95.966549 126.123619 
L 96.23864 128.554053 
L 96.782823 134.757887 
L 97.327006 139.341375 
L 97.599098 142.246175 
L 97.871189 143.521505 
L 98.959555 155.596574 
L 99.231646 157.030019 
L 99.775829 161.34157 
L 100.320012 167.129216 
L 100.592103 169.846236 
L 100.864195 171.089128 
L 101.136286 175.106731 
L 101.408378 176.354717 
L 101.95256 181.293479 
L 102.224652 181.698977 
L 103.313018 192.106705 
L 103.585109 193.440262 
L 104.401383 198.819872 
L 104.673475 199.859725 
L 104.945566 202.374672 
L 105.217658 203.07882 
L 106.033932 208.296044 
L 106.306023 209.173321 
L 106.578115 210.529724 
L 106.850206 210.998427 
L 107.122298 212.79176 
L 107.394389 213.753507 
L 107.938572 216.225184 
L 108.210663 216.033401 
L 108.482755 216.412172 
L 108.754846 217.562263 
L 109.026938 219.31945 
L 109.57112 220.00379 
L 109.843212 218.949616 
L 110.115303 220.171577 
L 110.387395 219.979116 
L 110.659486 220.319623 
L 110.931578 219.771256 
L 111.203669 220.092618 
L 111.47576 219.159766 
L 111.747852 219.442223 
L 112.019943 220.364037 
L 112.564126 218.111557 
L 112.836218 217.363805 
L 113.108309 217.917008 
L 113.3804 216.3882 
L 113.652492 215.749825 
L 113.924583 214.784976 
L 114.196675 214.419261 
L 114.468766 213.061008 
L 114.740858 212.646569 
L 115.012949 211.909609 
L 115.28504 210.469396 
L 115.557132 208.300621 
L 115.829223 207.727432 
L 116.373406 205.891861 
L 118.550138 194.180707 
L 118.822229 191.883798 
L 119.09432 191.292365 
L 119.366412 189.864272 
L 119.910595 186.154373 
L 120.726869 179.311438 
L 120.99896 178.557899 
L 121.543143 175.425983 
L 122.9036 166.947531 
L 123.447783 164.281178 
L 123.719875 161.768622 
L 124.80824 156.642842 
L 125.624515 151.485665 
L 125.896606 150.683181 
L 126.168698 148.84116 
L 126.440789 148.32475 
L 126.984972 145.323916 
L 127.257063 144.564106 
L 127.529155 142.977097 
L 127.801246 142.457116 
L 128.345429 139.975288 
L 128.61752 139.732144 
L 128.889612 137.949745 
L 129.161703 137.380415 
L 129.433795 137.805222 
L 130.250069 133.870861 
L 130.52216 134.00841 
L 130.794252 132.833406 
L 131.066343 134.314569 
L 131.882618 132.364221 
L 132.154709 132.989389 
L 132.4268 131.89868 
L 132.970983 132.001636 
L 133.243075 132.944822 
L 133.515166 131.916586 
L 133.787258 132.993845 
L 134.059349 132.024018 
L 134.33144 133.051781 
L 135.147715 133.986225 
L 135.419806 135.367531 
L 135.691898 135.821938 
L 135.963989 136.512503 
L 136.23608 136.662052 
L 136.508172 137.00816 
L 137.052355 139.095519 
L 137.596538 141.392276 
L 137.868629 140.955621 
L 138.14072 143.084264 
L 138.412812 143.045684 
L 139.229086 147.596696 
L 139.501178 147.757545 
L 140.04536 150.021389 
L 140.317452 150.826498 
L 140.589543 152.312621 
L 140.861635 152.656836 
L 141.133726 155.053122 
L 141.405818 156.201544 
L 141.95 159.227043 
L 142.222092 159.749455 
L 142.494183 160.723796 
L 143.038366 164.430439 
L 143.310458 165.419723 
L 143.582549 165.911099 
L 143.85464 168.396884 
L 144.670915 171.661295 
L 144.943006 173.738507 
L 145.215098 174.148974 
L 146.303463 178.766059 
L 146.575555 179.702778 
L 147.119738 182.627026 
L 147.391829 183.774709 
L 147.66392 185.446214 
L 147.936012 185.897244 
L 148.480195 188.185691 
L 148.752286 188.359239 
L 149.296469 190.660614 
L 149.56856 190.60939 
L 149.840652 192.068125 
L 150.112743 191.918092 
L 150.656926 193.866448 
L 151.201109 194.914915 
L 151.4732 195.541796 
L 151.745292 195.733578 
L 152.017383 197.147977 
L 152.289475 196.245919 
L 152.561566 197.01716 
L 152.833658 197.121814 
L 153.105749 197.854392 
L 153.37784 197.61892 
L 153.649932 197.845671 
L 153.922023 197.84131 
L 154.466206 198.368788 
L 154.738298 198.020094 
L 155.010389 197.945964 
L 155.28248 198.171712 
L 155.554572 197.701772 
L 155.826663 197.741017 
L 156.098755 197.640723 
L 156.642938 196.185132 
L 157.18712 195.022998 
L 157.459212 194.945178 
L 157.731303 194.737659 
L 158.003395 193.651203 
L 158.547578 193.164747 
L 158.819669 192.955467 
L 159.09176 191.010638 
L 159.363852 191.206993 
L 159.635943 189.991792 
L 159.908035 189.672992 
L 160.180126 188.788856 
L 160.452218 186.816165 
L 160.724309 186.748721 
L 161.268492 184.940386 
L 161.540583 184.026573 
L 161.812675 182.087754 
L 162.084766 181.255855 
L 162.356858 181.352004 
L 162.628949 179.711104 
L 162.90104 179.540413 
L 163.445223 175.658167 
L 163.717315 175.898642 
L 164.261498 173.25341 
L 164.533589 172.96318 
L 164.80568 171.594956 
L 165.077772 171.147174 
L 165.349863 169.887528 
L 165.621955 167.637109 
L 165.894046 166.654357 
L 166.166138 166.600677 
L 166.438229 165.064611 
L 166.71032 164.260448 
L 167.526595 161.026464 
L 168.342869 159.02419 
L 168.61496 157.184058 
L 168.887052 157.067488 
L 169.159143 157.250669 
L 169.431235 154.969514 
L 169.703326 155.224518 
L 169.975418 152.996853 
L 170.5196 151.460479 
L 170.791692 151.401711 
L 171.063783 150.877081 
L 171.607966 149.230584 
L 172.152149 148.963913 
L 172.42424 147.715216 
L 172.696332 148.117339 
L 172.968423 147.455483 
L 173.240515 146.371566 
L 173.512606 146.771128 
L 174.32888 145.886991 
L 174.600972 144.892788 
L 174.873063 145.34099 
L 175.417246 144.31454 
L 175.689338 144.49154 
L 176.23352 146.193038 
L 176.505612 144.293107 
L 177.049795 146.299305 
L 177.321886 145.853221 
L 177.593978 145.050726 
L 177.866069 145.870295 
L 178.410252 146.401321 
L 178.682343 147.166439 
L 178.954435 147.391723 
L 179.226526 148.917352 
L 179.498618 148.663379 
L 179.770709 149.346951 
L 180.0428 149.41018 
L 180.314892 150.160492 
L 180.586983 151.733332 
L 180.859075 152.132118 
L 181.131166 153.013644 
L 181.403258 153.118588 
L 181.675349 153.372602 
L 181.94744 154.977875 
L 182.219532 155.508785 
L 182.491623 155.412636 
L 182.763715 157.021693 
L 183.035806 157.034183 
L 184.396263 162.262012 
L 185.484629 165.361914 
L 186.028812 168.330816 
L 186.300903 168.09958 
L 186.572995 169.288793 
L 186.845086 171.109775 
L 187.117178 171.375211 
L 187.389269 172.440768 
L 187.66136 172.150538 
L 187.933452 172.988057 
L 189.021818 177.958399 
L 189.293909 177.891788 
L 189.566 178.457983 
L 189.838092 180.486662 
L 190.110183 179.619514 
L 190.382275 180.645517 
L 190.654366 181.163886 
L 190.926458 182.771448 
L 191.198549 183.291968 
L 191.47064 184.374986 
L 191.742732 184.093737 
L 192.014823 185.812939 
L 192.286915 185.10478 
L 192.559006 185.758141 
L 192.831098 186.932762 
L 193.103189 187.275624 
L 193.37528 186.221817 
L 193.647372 187.85976 
L 193.919463 188.661336 
L 194.191555 188.933378 
L 194.463646 189.664491 
L 194.735738 189.14166 
L 195.007829 189.311687 
L 195.27992 190.127813 
L 195.824103 190.788671 
L 196.096195 189.762256 
L 196.368286 192.072412 
L 196.640378 191.522869 
L 196.912469 190.349006 
L 197.18456 190.8527 
L 197.456652 190.895386 
L 197.456652 190.895386 
" style="fill:none;stroke:#d62728;stroke-linecap:square;stroke-width:1.5;"/>
   </g>
   <g id="line2d_27">
    <defs>
     <path d="M 0 3 
C 0.795609 3 1.55874 2.683901 2.12132 2.12132 
C 2.683901 1.55874 3 0.795609 3 0 
C 3 -0.795609 2.683901 -1.55874 2.12132 -2.12132 
C 1.55874 -2.683901 0.795609 -3 0 -3 
C -0.795609 -3 -1.55874 -2.683901 -2.12132 -2.12132 
C -2.683901 -1.55874 -3 -0.795609 -3 0 
C -3 0.795609 -2.683901 1.55874 -2.12132 2.12132 
C -1.55874 2.683901 -0.795609 3 0 3 
z
" id="mcb2457e3ba" style="stroke:#1f77b4;"/>
    </defs>
    <g clip-path="url(#pcd39df9889)">
     <use style="fill:#1f77b4;stroke:#1f77b4;" x="61.410938" xlink:href="#mcb2457e3ba" y="296.95689"/>
     <use style="fill:#1f77b4;stroke:#1f77b4;" x="69.913795" xlink:href="#mcb2457e3ba" y="234.579361"/>
     <use style="fill:#1f77b4;stroke:#1f77b4;" x="78.416652" xlink:href="#mcb2457e3ba" y="91.060401"/>
     <use style="fill:#1f77b4;stroke:#1f77b4;" x="86.919509" xlink:href="#mcb2457e3ba" y="59.417984"/>
     <use style="fill:#1f77b4;stroke:#1f77b4;" x="95.422366" xlink:href="#mcb2457e3ba" y="167.26425"/>
     <use style="fill:#1f77b4;stroke:#1f77b4;" x="103.925223" xlink:href="#mcb2457e3ba" y="289.721426"/>
     <use style="fill:#1f77b4;stroke:#1f77b4;" x="112.42808" xlink:href="#mcb2457e3ba" y="243.360121"/>
     <use style="fill:#1f77b4;stroke:#1f77b4;" x="120.930938" xlink:href="#mcb2457e3ba" y="116.804038"/>
     <use style="fill:#1f77b4;stroke:#1f77b4;" x="129.433795" xlink:href="#mcb2457e3ba" y="60.939972"/>
     <use style="fill:#1f77b4;stroke:#1f77b4;" x="137.936652" xlink:href="#mcb2457e3ba" y="165.070754"/>
     <use style="fill:#1f77b4;stroke:#1f77b4;" x="146.439509" xlink:href="#mcb2457e3ba" y="279.297206"/>
     <use style="fill:#1f77b4;stroke:#1f77b4;" x="154.942366" xlink:href="#mcb2457e3ba" y="256.654892"/>
     <use style="fill:#1f77b4;stroke:#1f77b4;" x="163.445223" xlink:href="#mcb2457e3ba" y="124.799074"/>
     <use style="fill:#1f77b4;stroke:#1f77b4;" x="171.94808" xlink:href="#mcb2457e3ba" y="51.863935"/>
     <use style="fill:#1f77b4;stroke:#1f77b4;" x="180.450938" xlink:href="#mcb2457e3ba" y="162.208027"/>
     <use style="fill:#1f77b4;stroke:#1f77b4;" x="188.953795" xlink:href="#mcb2457e3ba" y="272.703769"/>
     <use style="fill:#1f77b4;stroke:#1f77b4;" x="197.456652" xlink:href="#mcb2457e3ba" y="270.239813"/>
     <use style="fill:#1f77b4;stroke:#1f77b4;" x="205.959509" xlink:href="#mcb2457e3ba" y="135.184761"/>
     <use style="fill:#1f77b4;stroke:#1f77b4;" x="214.462366" xlink:href="#mcb2457e3ba" y="61.21545"/>
     <use style="fill:#1f77b4;stroke:#1f77b4;" x="222.965223" xlink:href="#mcb2457e3ba" y="122.725793"/>
     <use style="fill:#1f77b4;stroke:#1f77b4;" x="231.46808" xlink:href="#mcb2457e3ba" y="239.671873"/>
     <use style="fill:#1f77b4;stroke:#1f77b4;" x="239.970938" xlink:href="#mcb2457e3ba" y="270.577439"/>
     <use style="fill:#1f77b4;stroke:#1f77b4;" x="248.473795" xlink:href="#mcb2457e3ba" y="162.083997"/>
     <use style="fill:#1f77b4;stroke:#1f77b4;" x="256.976652" xlink:href="#mcb2457e3ba" y="59.71065"/>
     <use style="fill:#1f77b4;stroke:#1f77b4;" x="265.479509" xlink:href="#mcb2457e3ba" y="101.49671"/>
     <use style="fill:#1f77b4;stroke:#1f77b4;" x="273.982366" xlink:href="#mcb2457e3ba" y="226.935197"/>
     <use style="fill:#1f77b4;stroke:#1f77b4;" x="282.485223" xlink:href="#mcb2457e3ba" y="266.648989"/>
     <use style="fill:#1f77b4;stroke:#1f77b4;" x="290.98808" xlink:href="#mcb2457e3ba" y="189.110541"/>
     <use style="fill:#1f77b4;stroke:#1f77b4;" x="299.490938" xlink:href="#mcb2457e3ba" y="85.94818"/>
     <use style="fill:#1f77b4;stroke:#1f77b4;" x="307.993795" xlink:href="#mcb2457e3ba" y="102.759061"/>
     <use style="fill:#1f77b4;stroke:#1f77b4;" x="316.496652" xlink:href="#mcb2457e3ba" y="224.81097"/>
     <use style="fill:#1f77b4;stroke:#1f77b4;" x="324.999509" xlink:href="#mcb2457e3ba" y="272.11977"/>
     <use style="fill:#1f77b4;stroke:#1f77b4;" x="333.502366" xlink:href="#mcb2457e3ba" y="195.435506"/>
     <use style="fill:#1f77b4;stroke:#1f77b4;" x="342.005223" xlink:href="#mcb2457e3ba" y="79.452111"/>
     <use style="fill:#1f77b4;stroke:#1f77b4;" x="350.50808" xlink:href="#mcb2457e3ba" y="83.916505"/>
     <use style="fill:#1f77b4;stroke:#1f77b4;" x="359.010938" xlink:href="#mcb2457e3ba" y="190.990691"/>
     <use style="fill:#1f77b4;stroke:#1f77b4;" x="367.513795" xlink:href="#mcb2457e3ba" y="254.647016"/>
     <use style="fill:#1f77b4;stroke:#1f77b4;" x="376.016652" xlink:href="#mcb2457e3ba" y="208.21065"/>
     <use style="fill:#1f77b4;stroke:#1f77b4;" x="384.519509" xlink:href="#mcb2457e3ba" y="104.981972"/>
     <use style="fill:#1f77b4;stroke:#1f77b4;" x="393.022366" xlink:href="#mcb2457e3ba" y="93.27918"/>
     <use style="fill:#1f77b4;stroke:#1f77b4;" x="401.525223" xlink:href="#mcb2457e3ba" y="195.695648"/>
    </g>
   </g>
   <g id="line2d_28">
    <defs>
     <path d="M 0 3 
C 0.795609 3 1.55874 2.683901 2.12132 2.12132 
C 2.683901 1.55874 3 0.795609 3 0 
C 3 -0.795609 2.683901 -1.55874 2.12132 -2.12132 
C 1.55874 -2.683901 0.795609 -3 0 -3 
C -0.795609 -3 -1.55874 -2.683901 -2.12132 -2.12132 
C -2.683901 -1.55874 -3 -0.795609 -3 0 
C -3 0.795609 -2.683901 1.55874 -2.12132 2.12132 
C -1.55874 2.683901 -0.795609 3 0 3 
z
" id="m4d17eb6f4c" style="stroke:#d62728;"/>
    </defs>
    <g clip-path="url(#pcd39df9889)">
     <use style="fill:#d62728;stroke:#d62728;" x="61.410938" xlink:href="#m4d17eb6f4c" y="289.822418"/>
     <use style="fill:#d62728;stroke:#d62728;" x="69.913795" xlink:href="#m4d17eb6f4c" y="248.35785"/>
     <use style="fill:#d62728;stroke:#d62728;" x="78.416652" xlink:href="#m4d17eb6f4c" y="146.033614"/>
     <use style="fill:#d62728;stroke:#d62728;" x="86.919509" xlink:href="#m4d17eb6f4c" y="97.96425"/>
     <use style="fill:#d62728;stroke:#d62728;" x="95.422366" xlink:href="#m4d17eb6f4c" y="118.37625"/>
     <use style="fill:#d62728;stroke:#d62728;" x="103.925223" xlink:href="#m4d17eb6f4c" y="206.128821"/>
     <use style="fill:#d62728;stroke:#d62728;" x="112.42808" xlink:href="#m4d17eb6f4c" y="200.25105"/>
     <use style="fill:#d62728;stroke:#d62728;" x="120.930938" xlink:href="#m4d17eb6f4c" y="157.27837"/>
     <use style="fill:#d62728;stroke:#d62728;" x="129.433795" xlink:href="#m4d17eb6f4c" y="141.16425"/>
     <use style="fill:#d62728;stroke:#d62728;" x="137.936652" xlink:href="#m4d17eb6f4c" y="142.734665"/>
     <use style="fill:#d62728;stroke:#d62728;" x="146.439509" xlink:href="#m4d17eb6f4c" y="175.646645"/>
     <use style="fill:#d62728;stroke:#d62728;" x="154.942366" xlink:href="#m4d17eb6f4c" y="202.947741"/>
     <use style="fill:#d62728;stroke:#d62728;" x="163.445223" xlink:href="#m4d17eb6f4c" y="188.127197"/>
     <use style="fill:#d62728;stroke:#d62728;" x="171.94808" xlink:href="#m4d17eb6f4c" y="139.604077"/>
     <use style="fill:#d62728;stroke:#d62728;" x="180.450938" xlink:href="#m4d17eb6f4c" y="147.542441"/>
     <use style="fill:#d62728;stroke:#d62728;" x="188.953795" xlink:href="#m4d17eb6f4c" y="165.303567"/>
    </g>
   </g>
   <g id="patch_3">
    <path d="M 61.410938 297.54825 
L 61.410938 31.43625 
" style="fill:none;stroke:#000000;stroke-linecap:square;stroke-linejoin:miter;stroke-width:0.8;"/>
   </g>
   <g id="patch_4">
    <path d="M 418.530938 297.54825 
L 418.530938 31.43625 
" style="fill:none;stroke:#000000;stroke-linecap:square;stroke-linejoin:miter;stroke-width:0.8;"/>
   </g>
   <g id="patch_5">
    <path d="M 61.410938 297.54825 
L 418.530938 297.54825 
" style="fill:none;stroke:#000000;stroke-linecap:square;stroke-linejoin:miter;stroke-width:0.8;"/>
   </g>
   <g id="patch_6">
    <path d="M 61.410938 31.43625 
L 418.530938 31.43625 
" style="fill:none;stroke:#000000;stroke-linecap:square;stroke-linejoin:miter;stroke-width:0.8;"/>
   </g>
   <g id="text_15">
    <!-- (C) -->
    <defs>
     <path d="M 64.40625 67.28125 
L 64.40625 56.890625 
Q 59.421875 61.53125 53.78125 63.8125 
Q 48.140625 66.109375 41.796875 66.109375 
Q 29.296875 66.109375 22.65625 58.46875 
Q 16.015625 50.828125 16.015625 36.375 
Q 16.015625 21.96875 22.65625 14.328125 
Q 29.296875 6.6875 41.796875 6.6875 
Q 48.140625 6.6875 53.78125 8.984375 
Q 59.421875 11.28125 64.40625 15.921875 
L 64.40625 5.609375 
Q 59.234375 2.09375 53.4375 0.328125 
Q 47.65625 -1.421875 41.21875 -1.421875 
Q 24.65625 -1.421875 15.125 8.703125 
Q 5.609375 18.84375 5.609375 36.375 
Q 5.609375 53.953125 15.125 64.078125 
Q 24.65625 74.21875 41.21875 74.21875 
Q 47.75 74.21875 53.53125 72.484375 
Q 59.328125 70.75 64.40625 67.28125 
z
" id="DejaVuSans-43"/>
    </defs>
    <g transform="translate(381.118366 58.04745)scale(0.2 -0.2)">
     <use xlink:href="#DejaVuSans-28"/>
     <use x="39.013672" xlink:href="#DejaVuSans-43"/>
     <use x="108.837891" xlink:href="#DejaVuSans-29"/>
    </g>
   </g>
   <g id="text_16">
    <!-- Y carrier -->
    <defs>
     <path d="M -0.203125 72.90625 
L 10.40625 72.90625 
L 30.609375 42.921875 
L 50.6875 72.90625 
L 61.28125 72.90625 
L 35.5 34.71875 
L 35.5 0 
L 25.59375 0 
L 25.59375 34.71875 
z
" id="DejaVuSans-59"/>
     <path d="M 48.78125 52.59375 
L 48.78125 44.1875 
Q 44.96875 46.296875 41.140625 47.34375 
Q 37.3125 48.390625 33.40625 48.390625 
Q 24.65625 48.390625 19.8125 42.84375 
Q 14.984375 37.3125 14.984375 27.296875 
Q 14.984375 17.28125 19.8125 11.734375 
Q 24.65625 6.203125 33.40625 6.203125 
Q 37.3125 6.203125 41.140625 7.25 
Q 44.96875 8.296875 48.78125 10.40625 
L 48.78125 2.09375 
Q 45.015625 0.34375 40.984375 -0.53125 
Q 36.96875 -1.421875 32.421875 -1.421875 
Q 20.0625 -1.421875 12.78125 6.34375 
Q 5.515625 14.109375 5.515625 27.296875 
Q 5.515625 40.671875 12.859375 48.328125 
Q 20.21875 56 33.015625 56 
Q 37.15625 56 41.109375 55.140625 
Q 45.0625 54.296875 48.78125 52.59375 
z
" id="DejaVuSans-63"/>
    </defs>
    <g transform="translate(189.360938 25.43625)scale(0.24 -0.24)">
     <use xlink:href="#DejaVuSans-59"/>
     <use x="61.083984" xlink:href="#DejaVuSans-20"/>
     <use x="92.871094" xlink:href="#DejaVuSans-63"/>
     <use x="147.851562" xlink:href="#DejaVuSans-61"/>
     <use x="209.130859" xlink:href="#DejaVuSans-72"/>
     <use x="250.228516" xlink:href="#DejaVuSans-72"/>
     <use x="291.341797" xlink:href="#DejaVuSans-69"/>
     <use x="319.125" xlink:href="#DejaVuSans-65"/>
     <use x="380.648438" xlink:href="#DejaVuSans-72"/>
    </g>
   </g>
   <g id="legend_1">
    <g id="patch_7">
     <path d="M 296.074687 196.8485 
L 404.530937 196.8485 
Q 408.530937 196.8485 408.530937 192.8485 
L 408.530937 136.136 
Q 408.530937 132.136 404.530937 132.136 
L 296.074687 132.136 
Q 292.074687 132.136 292.074687 136.136 
L 292.074687 192.8485 
Q 292.074687 196.8485 296.074687 196.8485 
z
" style="fill:#ffffff;opacity:0.8;stroke:#cccccc;stroke-linejoin:miter;"/>
    </g>
    <g id="LineCollection_3">
     <path d="M 320.074687 158.332875 
L 320.074687 138.332875 
" style="fill:none;stroke:#1f77b4;stroke-width:1.5;"/>
    </g>
    <g id="line2d_29"/>
    <g id="line2d_30">
     <g>
      <use style="fill:#1f77b4;stroke:#1f77b4;" x="320.074687" xlink:href="#mcb2457e3ba" y="148.332875"/>
     </g>
    </g>
    <g id="text_17">
     <!-- Cold -->
     <defs>
      <path d="M 30.609375 48.390625 
Q 23.390625 48.390625 19.1875 42.75 
Q 14.984375 37.109375 14.984375 27.296875 
Q 14.984375 17.484375 19.15625 11.84375 
Q 23.34375 6.203125 30.609375 6.203125 
Q 37.796875 6.203125 41.984375 11.859375 
Q 46.1875 17.53125 46.1875 27.296875 
Q 46.1875 37.015625 41.984375 42.703125 
Q 37.796875 48.390625 30.609375 48.390625 
z
M 30.609375 56 
Q 42.328125 56 49.015625 48.375 
Q 55.71875 40.765625 55.71875 27.296875 
Q 55.71875 13.875 49.015625 6.21875 
Q 42.328125 -1.421875 30.609375 -1.421875 
Q 18.84375 -1.421875 12.171875 6.21875 
Q 5.515625 13.875 5.515625 27.296875 
Q 5.515625 40.765625 12.171875 48.375 
Q 18.84375 56 30.609375 56 
z
" id="DejaVuSans-6f"/>
      <path d="M 45.40625 46.390625 
L 45.40625 75.984375 
L 54.390625 75.984375 
L 54.390625 0 
L 45.40625 0 
L 45.40625 8.203125 
Q 42.578125 3.328125 38.25 0.953125 
Q 33.9375 -1.421875 27.875 -1.421875 
Q 17.96875 -1.421875 11.734375 6.484375 
Q 5.515625 14.40625 5.515625 27.296875 
Q 5.515625 40.1875 11.734375 48.09375 
Q 17.96875 56 27.875 56 
Q 33.9375 56 38.25 53.625 
Q 42.578125 51.265625 45.40625 46.390625 
z
M 14.796875 27.296875 
Q 14.796875 17.390625 18.875 11.75 
Q 22.953125 6.109375 30.078125 6.109375 
Q 37.203125 6.109375 41.296875 11.75 
Q 45.40625 17.390625 45.40625 27.296875 
Q 45.40625 37.203125 41.296875 42.84375 
Q 37.203125 48.484375 30.078125 48.484375 
Q 22.953125 48.484375 18.875 42.84375 
Q 14.796875 37.203125 14.796875 27.296875 
z
" id="DejaVuSans-64"/>
     </defs>
     <g transform="translate(356.074687 155.332875)scale(0.2 -0.2)">
      <use xlink:href="#DejaVuSans-43"/>
      <use x="69.824219" xlink:href="#DejaVuSans-6f"/>
      <use x="131.005859" xlink:href="#DejaVuSans-6c"/>
      <use x="158.789062" xlink:href="#DejaVuSans-64"/>
     </g>
    </g>
    <g id="LineCollection_4">
     <path d="M 320.074687 187.689125 
L 320.074687 167.689125 
" style="fill:none;stroke:#d62728;stroke-width:1.5;"/>
    </g>
    <g id="line2d_31"/>
    <g id="line2d_32">
     <g>
      <use style="fill:#d62728;stroke:#d62728;" x="320.074687" xlink:href="#m4d17eb6f4c" y="177.689125"/>
     </g>
    </g>
    <g id="text_18">
     <!-- Hot -->
     <defs>
      <path d="M 9.8125 72.90625 
L 19.671875 72.90625 
L 19.671875 43.015625 
L 55.515625 43.015625 
L 55.515625 72.90625 
L 65.375 72.90625 
L 65.375 0 
L 55.515625 0 
L 55.515625 34.71875 
L 19.671875 34.71875 
L 19.671875 0 
L 9.8125 0 
z
" id="DejaVuSans-48"/>
      <path d="M 18.3125 70.21875 
L 18.3125 54.6875 
L 36.8125 54.6875 
L 36.8125 47.703125 
L 18.3125 47.703125 
L 18.3125 18.015625 
Q 18.3125 11.328125 20.140625 9.421875 
Q 21.96875 7.515625 27.59375 7.515625 
L 36.8125 7.515625 
L 36.8125 0 
L 27.59375 0 
Q 17.1875 0 13.234375 3.875 
Q 9.28125 7.765625 9.28125 18.015625 
L 9.28125 47.703125 
L 2.6875 47.703125 
L 2.6875 54.6875 
L 9.28125 54.6875 
L 9.28125 70.21875 
z
" id="DejaVuSans-74"/>
     </defs>
     <g transform="translate(356.074687 184.689125)scale(0.2 -0.2)">
      <use xlink:href="#DejaVuSans-48"/>
      <use x="75.195312" xlink:href="#DejaVuSans-6f"/>
      <use x="136.376953" xlink:href="#DejaVuSans-74"/>
     </g>
    </g>
   </g>
  </g>
 </g>
 <defs>
  <clipPath id="pcd39df9889">
   <rect height="266.112" width="357.12" x="61.410938" y="31.43625"/>
  </clipPath>
 </defs>
</svg>
