<?xml version="1.0" encoding="utf-8" standalone="no"?>
<!DOCTYPE svg PUBLIC "-//W3C//DTD SVG 1.1//EN"
  "http://www.w3.org/Graphics/SVG/1.1/DTD/svg11.dtd">
<!-- Created with matplotlib (http://matplotlib.org/) -->
<svg height="349pt" version="1.1" viewBox="0 0 429 349" width="429pt" xmlns="http://www.w3.org/2000/svg" xmlns:xlink="http://www.w3.org/1999/xlink">
 <defs>
  <style type="text/css">
*{stroke-linecap:butt;stroke-linejoin:round;}
  </style>
 </defs>
 <g id="figure_1">
  <g id="patch_1">
   <path d="M 0 349.665437 
L 429.230937 349.665437 
L 429.230937 0 
L 0 0 
z
" style="fill:none;"/>
  </g>
  <g id="axes_1">
   <g id="patch_2">
    <path d="M 61.410938 297.54825 
L 418.530938 297.54825 
L 418.530938 31.43625 
L 61.410938 31.43625 
z
" style="fill:none;"/>
   </g>
   <g id="matplotlib.axis_1">
    <g id="xtick_1">
     <g id="line2d_1">
      <path clip-path="url(#pcd39df9889)" d="M 61.410938 297.54825 
L 61.410938 31.43625 
" style="fill:none;stroke:#b0b0b0;stroke-linecap:square;stroke-width:0.8;"/>
     </g>
     <g id="line2d_2">
      <defs>
       <path d="M 0 0 
L 0 3.5 
" id="m005f0a59be" style="stroke:#000000;stroke-width:0.8;"/>
      </defs>
      <g>
       <use style="stroke:#000000;stroke-width:0.8;" x="61.410938" xlink:href="#m005f0a59be" y="297.54825"/>
      </g>
     </g>
     <g id="text_1">
      <!-- 0 -->
      <defs>
       <path d="M 31.78125 66.40625 
Q 24.171875 66.40625 20.328125 58.90625 
Q 16.5 51.421875 16.5 36.375 
Q 16.5 21.390625 20.328125 13.890625 
Q 24.171875 6.390625 31.78125 6.390625 
Q 39.453125 6.390625 43.28125 13.890625 
Q 47.125 21.390625 47.125 36.375 
Q 47.125 51.421875 43.28125 58.90625 
Q 39.453125 66.40625 31.78125 66.40625 
z
M 31.78125 74.21875 
Q 44.046875 74.21875 50.515625 64.515625 
Q 56.984375 54.828125 56.984375 36.375 
Q 56.984375 17.96875 50.515625 8.265625 
Q 44.046875 -1.421875 31.78125 -1.421875 
Q 19.53125 -1.421875 13.0625 8.265625 
Q 6.59375 17.96875 6.59375 36.375 
Q 6.59375 54.828125 13.0625 64.515625 
Q 19.53125 74.21875 31.78125 74.21875 
z
" id="DejaVuSans-30"/>
      </defs>
      <g transform="translate(56.639063 315.945906)scale(0.15 -0.15)">
       <use xlink:href="#DejaVuSans-30"/>
      </g>
     </g>
    </g>
    <g id="xtick_2">
     <g id="line2d_3">
      <path clip-path="url(#pcd39df9889)" d="M 130.087861 297.54825 
L 130.087861 31.43625 
" style="fill:none;stroke:#b0b0b0;stroke-linecap:square;stroke-width:0.8;"/>
     </g>
     <g id="line2d_4">
      <g>
       <use style="stroke:#000000;stroke-width:0.8;" x="130.087861" xlink:href="#m005f0a59be" y="297.54825"/>
      </g>
     </g>
     <g id="text_2">
      <!-- 100 -->
      <defs>
       <path d="M 12.40625 8.296875 
L 28.515625 8.296875 
L 28.515625 63.921875 
L 10.984375 60.40625 
L 10.984375 69.390625 
L 28.421875 72.90625 
L 38.28125 72.90625 
L 38.28125 8.296875 
L 54.390625 8.296875 
L 54.390625 0 
L 12.40625 0 
z
" id="DejaVuSans-31"/>
      </defs>
      <g transform="translate(115.772236 315.945906)scale(0.15 -0.15)">
       <use xlink:href="#DejaVuSans-31"/>
       <use x="63.623047" xlink:href="#DejaVuSans-30"/>
       <use x="127.246094" xlink:href="#DejaVuSans-30"/>
      </g>
     </g>
    </g>
    <g id="xtick_3">
     <g id="line2d_5">
      <path clip-path="url(#pcd39df9889)" d="M 198.764784 297.54825 
L 198.764784 31.43625 
" style="fill:none;stroke:#b0b0b0;stroke-linecap:square;stroke-width:0.8;"/>
     </g>
     <g id="line2d_6">
      <g>
       <use style="stroke:#000000;stroke-width:0.8;" x="198.764784" xlink:href="#m005f0a59be" y="297.54825"/>
      </g>
     </g>
     <g id="text_3">
      <!-- 200 -->
      <defs>
       <path d="M 19.1875 8.296875 
L 53.609375 8.296875 
L 53.609375 0 
L 7.328125 0 
L 7.328125 8.296875 
Q 12.9375 14.109375 22.625 23.890625 
Q 32.328125 33.6875 34.8125 36.53125 
Q 39.546875 41.84375 41.421875 45.53125 
Q 43.3125 49.21875 43.3125 52.78125 
Q 43.3125 58.59375 39.234375 62.25 
Q 35.15625 65.921875 28.609375 65.921875 
Q 23.96875 65.921875 18.8125 64.3125 
Q 13.671875 62.703125 7.8125 59.421875 
L 7.8125 69.390625 
Q 13.765625 71.78125 18.9375 73 
Q 24.125 74.21875 28.421875 74.21875 
Q 39.75 74.21875 46.484375 68.546875 
Q 53.21875 62.890625 53.21875 53.421875 
Q 53.21875 48.921875 51.53125 44.890625 
Q 49.859375 40.875 45.40625 35.40625 
Q 44.1875 33.984375 37.640625 27.21875 
Q 31.109375 20.453125 19.1875 8.296875 
z
" id="DejaVuSans-32"/>
      </defs>
      <g transform="translate(184.449159 315.945906)scale(0.15 -0.15)">
       <use xlink:href="#DejaVuSans-32"/>
       <use x="63.623047" xlink:href="#DejaVuSans-30"/>
       <use x="127.246094" xlink:href="#DejaVuSans-30"/>
      </g>
     </g>
    </g>
    <g id="xtick_4">
     <g id="line2d_7">
      <path clip-path="url(#pcd39df9889)" d="M 267.441707 297.54825 
L 267.441707 31.43625 
" style="fill:none;stroke:#b0b0b0;stroke-linecap:square;stroke-width:0.8;"/>
     </g>
     <g id="line2d_8">
      <g>
       <use style="stroke:#000000;stroke-width:0.8;" x="267.441707" xlink:href="#m005f0a59be" y="297.54825"/>
      </g>
     </g>
     <g id="text_4">
      <!-- 300 -->
      <defs>
       <path d="M 40.578125 39.3125 
Q 47.65625 37.796875 51.625 33 
Q 55.609375 28.21875 55.609375 21.1875 
Q 55.609375 10.40625 48.1875 4.484375 
Q 40.765625 -1.421875 27.09375 -1.421875 
Q 22.515625 -1.421875 17.65625 -0.515625 
Q 12.796875 0.390625 7.625 2.203125 
L 7.625 11.71875 
Q 11.71875 9.328125 16.59375 8.109375 
Q 21.484375 6.890625 26.8125 6.890625 
Q 36.078125 6.890625 40.9375 10.546875 
Q 45.796875 14.203125 45.796875 21.1875 
Q 45.796875 27.640625 41.28125 31.265625 
Q 36.765625 34.90625 28.71875 34.90625 
L 20.21875 34.90625 
L 20.21875 43.015625 
L 29.109375 43.015625 
Q 36.375 43.015625 40.234375 45.921875 
Q 44.09375 48.828125 44.09375 54.296875 
Q 44.09375 59.90625 40.109375 62.90625 
Q 36.140625 65.921875 28.71875 65.921875 
Q 24.65625 65.921875 20.015625 65.03125 
Q 15.375 64.15625 9.8125 62.3125 
L 9.8125 71.09375 
Q 15.4375 72.65625 20.34375 73.4375 
Q 25.25 74.21875 29.59375 74.21875 
Q 40.828125 74.21875 47.359375 69.109375 
Q 53.90625 64.015625 53.90625 55.328125 
Q 53.90625 49.265625 50.4375 45.09375 
Q 46.96875 40.921875 40.578125 39.3125 
z
" id="DejaVuSans-33"/>
      </defs>
      <g transform="translate(253.126082 315.945906)scale(0.15 -0.15)">
       <use xlink:href="#DejaVuSans-33"/>
       <use x="63.623047" xlink:href="#DejaVuSans-30"/>
       <use x="127.246094" xlink:href="#DejaVuSans-30"/>
      </g>
     </g>
    </g>
    <g id="xtick_5">
     <g id="line2d_9">
      <path clip-path="url(#pcd39df9889)" d="M 336.11863 297.54825 
L 336.11863 31.43625 
" style="fill:none;stroke:#b0b0b0;stroke-linecap:square;stroke-width:0.8;"/>
     </g>
     <g id="line2d_10">
      <g>
       <use style="stroke:#000000;stroke-width:0.8;" x="336.11863" xlink:href="#m005f0a59be" y="297.54825"/>
      </g>
     </g>
     <g id="text_5">
      <!-- 400 -->
      <defs>
       <path d="M 37.796875 64.3125 
L 12.890625 25.390625 
L 37.796875 25.390625 
z
M 35.203125 72.90625 
L 47.609375 72.90625 
L 47.609375 25.390625 
L 58.015625 25.390625 
L 58.015625 17.1875 
L 47.609375 17.1875 
L 47.609375 0 
L 37.796875 0 
L 37.796875 17.1875 
L 4.890625 17.1875 
L 4.890625 26.703125 
z
" id="DejaVuSans-34"/>
      </defs>
      <g transform="translate(321.803005 315.945906)scale(0.15 -0.15)">
       <use xlink:href="#DejaVuSans-34"/>
       <use x="63.623047" xlink:href="#DejaVuSans-30"/>
       <use x="127.246094" xlink:href="#DejaVuSans-30"/>
      </g>
     </g>
    </g>
    <g id="xtick_6">
     <g id="line2d_11">
      <path clip-path="url(#pcd39df9889)" d="M 404.795553 297.54825 
L 404.795553 31.43625 
" style="fill:none;stroke:#b0b0b0;stroke-linecap:square;stroke-width:0.8;"/>
     </g>
     <g id="line2d_12">
      <g>
       <use style="stroke:#000000;stroke-width:0.8;" x="404.795553" xlink:href="#m005f0a59be" y="297.54825"/>
      </g>
     </g>
     <g id="text_6">
      <!-- 500 -->
      <defs>
       <path d="M 10.796875 72.90625 
L 49.515625 72.90625 
L 49.515625 64.59375 
L 19.828125 64.59375 
L 19.828125 46.734375 
Q 21.96875 47.46875 24.109375 47.828125 
Q 26.265625 48.1875 28.421875 48.1875 
Q 40.625 48.1875 47.75 41.5 
Q 54.890625 34.8125 54.890625 23.390625 
Q 54.890625 11.625 47.5625 5.09375 
Q 40.234375 -1.421875 26.90625 -1.421875 
Q 22.3125 -1.421875 17.546875 -0.640625 
Q 12.796875 0.140625 7.71875 1.703125 
L 7.71875 11.625 
Q 12.109375 9.234375 16.796875 8.0625 
Q 21.484375 6.890625 26.703125 6.890625 
Q 35.15625 6.890625 40.078125 11.328125 
Q 45.015625 15.765625 45.015625 23.390625 
Q 45.015625 31 40.078125 35.4375 
Q 35.15625 39.890625 26.703125 39.890625 
Q 22.75 39.890625 18.8125 39.015625 
Q 14.890625 38.140625 10.796875 36.28125 
z
" id="DejaVuSans-35"/>
      </defs>
      <g transform="translate(390.479928 315.945906)scale(0.15 -0.15)">
       <use xlink:href="#DejaVuSans-35"/>
       <use x="63.623047" xlink:href="#DejaVuSans-30"/>
       <use x="127.246094" xlink:href="#DejaVuSans-30"/>
      </g>
     </g>
    </g>
    <g id="text_7">
     <!-- Time ($\mu s$) -->
     <defs>
      <path d="M -0.296875 72.90625 
L 61.375 72.90625 
L 61.375 64.59375 
L 35.5 64.59375 
L 35.5 0 
L 25.59375 0 
L 25.59375 64.59375 
L -0.296875 64.59375 
z
" id="DejaVuSans-54"/>
      <path d="M 9.421875 54.6875 
L 18.40625 54.6875 
L 18.40625 0 
L 9.421875 0 
z
M 9.421875 75.984375 
L 18.40625 75.984375 
L 18.40625 64.59375 
L 9.421875 64.59375 
z
" id="DejaVuSans-69"/>
      <path d="M 52 44.1875 
Q 55.375 50.25 60.0625 53.125 
Q 64.75 56 71.09375 56 
Q 79.640625 56 84.28125 50.015625 
Q 88.921875 44.046875 88.921875 33.015625 
L 88.921875 0 
L 79.890625 0 
L 79.890625 32.71875 
Q 79.890625 40.578125 77.09375 44.375 
Q 74.3125 48.1875 68.609375 48.1875 
Q 61.625 48.1875 57.5625 43.546875 
Q 53.515625 38.921875 53.515625 30.90625 
L 53.515625 0 
L 44.484375 0 
L 44.484375 32.71875 
Q 44.484375 40.625 41.703125 44.40625 
Q 38.921875 48.1875 33.109375 48.1875 
Q 26.21875 48.1875 22.15625 43.53125 
Q 18.109375 38.875 18.109375 30.90625 
L 18.109375 0 
L 9.078125 0 
L 9.078125 54.6875 
L 18.109375 54.6875 
L 18.109375 46.1875 
Q 21.1875 51.21875 25.484375 53.609375 
Q 29.78125 56 35.6875 56 
Q 41.65625 56 45.828125 52.96875 
Q 50 49.953125 52 44.1875 
z
" id="DejaVuSans-6d"/>
      <path d="M 56.203125 29.59375 
L 56.203125 25.203125 
L 14.890625 25.203125 
Q 15.484375 15.921875 20.484375 11.0625 
Q 25.484375 6.203125 34.421875 6.203125 
Q 39.59375 6.203125 44.453125 7.46875 
Q 49.3125 8.734375 54.109375 11.28125 
L 54.109375 2.78125 
Q 49.265625 0.734375 44.1875 -0.34375 
Q 39.109375 -1.421875 33.890625 -1.421875 
Q 20.796875 -1.421875 13.15625 6.1875 
Q 5.515625 13.8125 5.515625 26.8125 
Q 5.515625 40.234375 12.765625 48.109375 
Q 20.015625 56 32.328125 56 
Q 43.359375 56 49.78125 48.890625 
Q 56.203125 41.796875 56.203125 29.59375 
z
M 47.21875 32.234375 
Q 47.125 39.59375 43.09375 43.984375 
Q 39.0625 48.390625 32.421875 48.390625 
Q 24.90625 48.390625 20.390625 44.140625 
Q 15.875 39.890625 15.1875 32.171875 
z
" id="DejaVuSans-65"/>
      <path id="DejaVuSans-20"/>
      <path d="M 31 75.875 
Q 24.46875 64.65625 21.28125 53.65625 
Q 18.109375 42.671875 18.109375 31.390625 
Q 18.109375 20.125 21.3125 9.0625 
Q 24.515625 -2 31 -13.1875 
L 23.1875 -13.1875 
Q 15.875 -1.703125 12.234375 9.375 
Q 8.59375 20.453125 8.59375 31.390625 
Q 8.59375 42.28125 12.203125 53.3125 
Q 15.828125 64.359375 23.1875 75.875 
z
" id="DejaVuSans-28"/>
      <path d="M -1.3125 -20.796875 
L 13.375 54.6875 
L 22.40625 54.6875 
L 15.765625 20.65625 
Q 15.578125 19.625 15.421875 18.359375 
Q 15.28125 17.09375 15.28125 15.828125 
Q 15.28125 11.28125 18.140625 8.828125 
Q 21 6.390625 26.3125 6.390625 
Q 33.546875 6.390625 37.984375 10.484375 
Q 42.4375 14.59375 44 22.796875 
L 50.203125 54.6875 
L 59.1875 54.6875 
L 51.03125 12.640625 
Q 50.828125 11.71875 50.75 11.03125 
Q 50.6875 10.359375 50.6875 9.8125 
Q 50.6875 8.296875 51.296875 7.59375 
Q 51.90625 6.890625 53.21875 6.890625 
Q 53.71875 6.890625 54.5625 7.125 
Q 55.421875 7.375 56.984375 8.015625 
L 55.609375 0.78125 
Q 53.46875 -0.296875 51.515625 -0.859375 
Q 49.5625 -1.421875 47.703125 -1.421875 
Q 44.484375 -1.421875 42.65625 0.625 
Q 40.828125 2.6875 40.828125 6.296875 
Q 38.09375 2.390625 34.296875 0.484375 
Q 30.515625 -1.421875 25.390625 -1.421875 
Q 20.84375 -1.421875 17.453125 0.671875 
Q 14.0625 2.78125 12.984375 6.203125 
L 7.71875 -20.796875 
z
" id="DejaVuSans-Oblique-3bc"/>
      <path d="M 50 53.078125 
L 48.296875 44.578125 
Q 44.734375 46.53125 40.765625 47.5 
Q 36.8125 48.484375 32.625 48.484375 
Q 25.53125 48.484375 21.453125 46.0625 
Q 17.390625 43.65625 17.390625 39.5 
Q 17.390625 34.671875 26.859375 32.078125 
Q 27.59375 31.890625 27.9375 31.78125 
L 30.8125 30.90625 
Q 39.796875 28.421875 42.796875 25.6875 
Q 45.796875 22.953125 45.796875 18.21875 
Q 45.796875 9.515625 38.890625 4.046875 
Q 31.984375 -1.421875 20.796875 -1.421875 
Q 16.453125 -1.421875 11.671875 -0.578125 
Q 6.890625 0.25 1.125 2 
L 2.875 11.28125 
Q 7.8125 8.734375 12.59375 7.421875 
Q 17.390625 6.109375 21.78125 6.109375 
Q 28.375 6.109375 32.5 8.9375 
Q 36.625 11.765625 36.625 16.109375 
Q 36.625 20.796875 25.78125 23.6875 
L 24.859375 23.921875 
L 21.78125 24.703125 
Q 14.9375 26.515625 11.765625 29.46875 
Q 8.59375 32.421875 8.59375 37.015625 
Q 8.59375 45.75 15.15625 50.875 
Q 21.734375 56 33.015625 56 
Q 37.453125 56 41.671875 55.265625 
Q 45.90625 54.546875 50 53.078125 
z
" id="DejaVuSans-Oblique-73"/>
      <path d="M 8.015625 75.875 
L 15.828125 75.875 
Q 23.140625 64.359375 26.78125 53.3125 
Q 30.421875 42.28125 30.421875 31.390625 
Q 30.421875 20.453125 26.78125 9.375 
Q 23.140625 -1.703125 15.828125 -13.1875 
L 8.015625 -13.1875 
Q 14.5 -2 17.703125 9.0625 
Q 20.90625 20.125 20.90625 31.390625 
Q 20.90625 42.671875 17.703125 53.65625 
Q 14.5 64.65625 8.015625 75.875 
z
" id="DejaVuSans-29"/>
     </defs>
     <g transform="translate(192.570938 338.265437)scale(0.2 -0.2)">
      <use transform="translate(0 0.015625)" xlink:href="#DejaVuSans-54"/>
      <use transform="translate(61.083984 0.015625)" xlink:href="#DejaVuSans-69"/>
      <use transform="translate(88.867188 0.015625)" xlink:href="#DejaVuSans-6d"/>
      <use transform="translate(186.279297 0.015625)" xlink:href="#DejaVuSans-65"/>
      <use transform="translate(247.802734 0.015625)" xlink:href="#DejaVuSans-20"/>
      <use transform="translate(279.589844 0.015625)" xlink:href="#DejaVuSans-28"/>
      <use transform="translate(318.603516 0.015625)" xlink:href="#DejaVuSans-Oblique-3bc"/>
      <use transform="translate(382.226562 0.015625)" xlink:href="#DejaVuSans-Oblique-73"/>
      <use transform="translate(434.326172 0.015625)" xlink:href="#DejaVuSans-29"/>
     </g>
    </g>
   </g>
   <g id="matplotlib.axis_2">
    <g id="ytick_1">
     <g id="line2d_13">
      <path clip-path="url(#pcd39df9889)" d="M 61.410938 297.54825 
L 418.530938 297.54825 
" style="fill:none;stroke:#b0b0b0;stroke-linecap:square;stroke-width:0.8;"/>
     </g>
     <g id="line2d_14">
      <defs>
       <path d="M 0 0 
L -3.5 0 
" id="mc3ce260a5b" style="stroke:#000000;stroke-width:0.8;"/>
      </defs>
      <g>
       <use style="stroke:#000000;stroke-width:0.8;" x="61.410938" xlink:href="#mc3ce260a5b" y="297.54825"/>
      </g>
     </g>
     <g id="text_8">
      <!-- 0.0 -->
      <defs>
       <path d="M 10.6875 12.40625 
L 21 12.40625 
L 21 0 
L 10.6875 0 
z
" id="DejaVuSans-2e"/>
      </defs>
      <g transform="translate(30.55625 303.247078)scale(0.15 -0.15)">
       <use xlink:href="#DejaVuSans-30"/>
       <use x="63.623047" xlink:href="#DejaVuSans-2e"/>
       <use x="95.410156" xlink:href="#DejaVuSans-30"/>
      </g>
     </g>
    </g>
    <g id="ytick_2">
     <g id="line2d_15">
      <path clip-path="url(#pcd39df9889)" d="M 61.410938 244.32585 
L 418.530938 244.32585 
" style="fill:none;stroke:#b0b0b0;stroke-linecap:square;stroke-width:0.8;"/>
     </g>
     <g id="line2d_16">
      <g>
       <use style="stroke:#000000;stroke-width:0.8;" x="61.410938" xlink:href="#mc3ce260a5b" y="244.32585"/>
      </g>
     </g>
     <g id="text_9">
      <!-- 0.2 -->
      <g transform="translate(30.55625 250.024678)scale(0.15 -0.15)">
       <use xlink:href="#DejaVuSans-30"/>
       <use x="63.623047" xlink:href="#DejaVuSans-2e"/>
       <use x="95.410156" xlink:href="#DejaVuSans-32"/>
      </g>
     </g>
    </g>
    <g id="ytick_3">
     <g id="line2d_17">
      <path clip-path="url(#pcd39df9889)" d="M 61.410938 191.10345 
L 418.530938 191.10345 
" style="fill:none;stroke:#b0b0b0;stroke-linecap:square;stroke-width:0.8;"/>
     </g>
     <g id="line2d_18">
      <g>
       <use style="stroke:#000000;stroke-width:0.8;" x="61.410938" xlink:href="#mc3ce260a5b" y="191.10345"/>
      </g>
     </g>
     <g id="text_10">
      <!-- 0.4 -->
      <g transform="translate(30.55625 196.802278)scale(0.15 -0.15)">
       <use xlink:href="#DejaVuSans-30"/>
       <use x="63.623047" xlink:href="#DejaVuSans-2e"/>
       <use x="95.410156" xlink:href="#DejaVuSans-34"/>
      </g>
     </g>
    </g>
    <g id="ytick_4">
     <g id="line2d_19">
      <path clip-path="url(#pcd39df9889)" d="M 61.410938 137.88105 
L 418.530938 137.88105 
" style="fill:none;stroke:#b0b0b0;stroke-linecap:square;stroke-width:0.8;"/>
     </g>
     <g id="line2d_20">
      <g>
       <use style="stroke:#000000;stroke-width:0.8;" x="61.410938" xlink:href="#mc3ce260a5b" y="137.88105"/>
      </g>
     </g>
     <g id="text_11">
      <!-- 0.6 -->
      <defs>
       <path d="M 33.015625 40.375 
Q 26.375 40.375 22.484375 35.828125 
Q 18.609375 31.296875 18.609375 23.390625 
Q 18.609375 15.53125 22.484375 10.953125 
Q 26.375 6.390625 33.015625 6.390625 
Q 39.65625 6.390625 43.53125 10.953125 
Q 47.40625 15.53125 47.40625 23.390625 
Q 47.40625 31.296875 43.53125 35.828125 
Q 39.65625 40.375 33.015625 40.375 
z
M 52.59375 71.296875 
L 52.59375 62.3125 
Q 48.875 64.0625 45.09375 64.984375 
Q 41.3125 65.921875 37.59375 65.921875 
Q 27.828125 65.921875 22.671875 59.328125 
Q 17.53125 52.734375 16.796875 39.40625 
Q 19.671875 43.65625 24.015625 45.921875 
Q 28.375 48.1875 33.59375 48.1875 
Q 44.578125 48.1875 50.953125 41.515625 
Q 57.328125 34.859375 57.328125 23.390625 
Q 57.328125 12.15625 50.6875 5.359375 
Q 44.046875 -1.421875 33.015625 -1.421875 
Q 20.359375 -1.421875 13.671875 8.265625 
Q 6.984375 17.96875 6.984375 36.375 
Q 6.984375 53.65625 15.1875 63.9375 
Q 23.390625 74.21875 37.203125 74.21875 
Q 40.921875 74.21875 44.703125 73.484375 
Q 48.484375 72.75 52.59375 71.296875 
z
" id="DejaVuSans-36"/>
      </defs>
      <g transform="translate(30.55625 143.579878)scale(0.15 -0.15)">
       <use xlink:href="#DejaVuSans-30"/>
       <use x="63.623047" xlink:href="#DejaVuSans-2e"/>
       <use x="95.410156" xlink:href="#DejaVuSans-36"/>
      </g>
     </g>
    </g>
    <g id="ytick_5">
     <g id="line2d_21">
      <path clip-path="url(#pcd39df9889)" d="M 61.410938 84.65865 
L 418.530938 84.65865 
" style="fill:none;stroke:#b0b0b0;stroke-linecap:square;stroke-width:0.8;"/>
     </g>
     <g id="line2d_22">
      <g>
       <use style="stroke:#000000;stroke-width:0.8;" x="61.410938" xlink:href="#mc3ce260a5b" y="84.65865"/>
      </g>
     </g>
     <g id="text_12">
      <!-- 0.8 -->
      <defs>
       <path d="M 31.78125 34.625 
Q 24.75 34.625 20.71875 30.859375 
Q 16.703125 27.09375 16.703125 20.515625 
Q 16.703125 13.921875 20.71875 10.15625 
Q 24.75 6.390625 31.78125 6.390625 
Q 38.8125 6.390625 42.859375 10.171875 
Q 46.921875 13.96875 46.921875 20.515625 
Q 46.921875 27.09375 42.890625 30.859375 
Q 38.875 34.625 31.78125 34.625 
z
M 21.921875 38.8125 
Q 15.578125 40.375 12.03125 44.71875 
Q 8.5 49.078125 8.5 55.328125 
Q 8.5 64.0625 14.71875 69.140625 
Q 20.953125 74.21875 31.78125 74.21875 
Q 42.671875 74.21875 48.875 69.140625 
Q 55.078125 64.0625 55.078125 55.328125 
Q 55.078125 49.078125 51.53125 44.71875 
Q 48 40.375 41.703125 38.8125 
Q 48.828125 37.15625 52.796875 32.3125 
Q 56.78125 27.484375 56.78125 20.515625 
Q 56.78125 9.90625 50.3125 4.234375 
Q 43.84375 -1.421875 31.78125 -1.421875 
Q 19.734375 -1.421875 13.25 4.234375 
Q 6.78125 9.90625 6.78125 20.515625 
Q 6.78125 27.484375 10.78125 32.3125 
Q 14.796875 37.15625 21.921875 38.8125 
z
M 18.3125 54.390625 
Q 18.3125 48.734375 21.84375 45.5625 
Q 25.390625 42.390625 31.78125 42.390625 
Q 38.140625 42.390625 41.71875 45.5625 
Q 45.3125 48.734375 45.3125 54.390625 
Q 45.3125 60.0625 41.71875 63.234375 
Q 38.140625 66.40625 31.78125 66.40625 
Q 25.390625 66.40625 21.84375 63.234375 
Q 18.3125 60.0625 18.3125 54.390625 
z
" id="DejaVuSans-38"/>
      </defs>
      <g transform="translate(30.55625 90.357478)scale(0.15 -0.15)">
       <use xlink:href="#DejaVuSans-30"/>
       <use x="63.623047" xlink:href="#DejaVuSans-2e"/>
       <use x="95.410156" xlink:href="#DejaVuSans-38"/>
      </g>
     </g>
    </g>
    <g id="ytick_6">
     <g id="line2d_23">
      <path clip-path="url(#pcd39df9889)" d="M 61.410938 31.43625 
L 418.530938 31.43625 
" style="fill:none;stroke:#b0b0b0;stroke-linecap:square;stroke-width:0.8;"/>
     </g>
     <g id="line2d_24">
      <g>
       <use style="stroke:#000000;stroke-width:0.8;" x="61.410938" xlink:href="#mc3ce260a5b" y="31.43625"/>
      </g>
     </g>
     <g id="text_13">
      <!-- 1.0 -->
      <g transform="translate(30.55625 37.135078)scale(0.15 -0.15)">
       <use xlink:href="#DejaVuSans-31"/>
       <use x="63.623047" xlink:href="#DejaVuSans-2e"/>
       <use x="95.410156" xlink:href="#DejaVuSans-30"/>
      </g>
     </g>
    </g>
    <g id="text_14">
     <!-- Survival -->
     <defs>
      <path d="M 53.515625 70.515625 
L 53.515625 60.890625 
Q 47.90625 63.578125 42.921875 64.890625 
Q 37.9375 66.21875 33.296875 66.21875 
Q 25.25 66.21875 20.875 63.09375 
Q 16.5 59.96875 16.5 54.203125 
Q 16.5 49.359375 19.40625 46.890625 
Q 22.3125 44.4375 30.421875 42.921875 
L 36.375 41.703125 
Q 47.40625 39.59375 52.65625 34.296875 
Q 57.90625 29 57.90625 20.125 
Q 57.90625 9.515625 50.796875 4.046875 
Q 43.703125 -1.421875 29.984375 -1.421875 
Q 24.8125 -1.421875 18.96875 -0.25 
Q 13.140625 0.921875 6.890625 3.21875 
L 6.890625 13.375 
Q 12.890625 10.015625 18.65625 8.296875 
Q 24.421875 6.59375 29.984375 6.59375 
Q 38.421875 6.59375 43.015625 9.90625 
Q 47.609375 13.234375 47.609375 19.390625 
Q 47.609375 24.75 44.3125 27.78125 
Q 41.015625 30.8125 33.5 32.328125 
L 27.484375 33.5 
Q 16.453125 35.6875 11.515625 40.375 
Q 6.59375 45.0625 6.59375 53.421875 
Q 6.59375 63.09375 13.40625 68.65625 
Q 20.21875 74.21875 32.171875 74.21875 
Q 37.3125 74.21875 42.625 73.28125 
Q 47.953125 72.359375 53.515625 70.515625 
z
" id="DejaVuSans-53"/>
      <path d="M 8.5 21.578125 
L 8.5 54.6875 
L 17.484375 54.6875 
L 17.484375 21.921875 
Q 17.484375 14.15625 20.5 10.265625 
Q 23.53125 6.390625 29.59375 6.390625 
Q 36.859375 6.390625 41.078125 11.03125 
Q 45.3125 15.671875 45.3125 23.6875 
L 45.3125 54.6875 
L 54.296875 54.6875 
L 54.296875 0 
L 45.3125 0 
L 45.3125 8.40625 
Q 42.046875 3.421875 37.71875 1 
Q 33.40625 -1.421875 27.6875 -1.421875 
Q 18.265625 -1.421875 13.375 4.4375 
Q 8.5 10.296875 8.5 21.578125 
z
M 31.109375 56 
z
" id="DejaVuSans-75"/>
      <path d="M 41.109375 46.296875 
Q 39.59375 47.171875 37.8125 47.578125 
Q 36.03125 48 33.890625 48 
Q 26.265625 48 22.1875 43.046875 
Q 18.109375 38.09375 18.109375 28.8125 
L 18.109375 0 
L 9.078125 0 
L 9.078125 54.6875 
L 18.109375 54.6875 
L 18.109375 46.1875 
Q 20.953125 51.171875 25.484375 53.578125 
Q 30.03125 56 36.53125 56 
Q 37.453125 56 38.578125 55.875 
Q 39.703125 55.765625 41.0625 55.515625 
z
" id="DejaVuSans-72"/>
      <path d="M 2.984375 54.6875 
L 12.5 54.6875 
L 29.59375 8.796875 
L 46.6875 54.6875 
L 56.203125 54.6875 
L 35.6875 0 
L 23.484375 0 
z
" id="DejaVuSans-76"/>
      <path d="M 34.28125 27.484375 
Q 23.390625 27.484375 19.1875 25 
Q 14.984375 22.515625 14.984375 16.5 
Q 14.984375 11.71875 18.140625 8.90625 
Q 21.296875 6.109375 26.703125 6.109375 
Q 34.1875 6.109375 38.703125 11.40625 
Q 43.21875 16.703125 43.21875 25.484375 
L 43.21875 27.484375 
z
M 52.203125 31.203125 
L 52.203125 0 
L 43.21875 0 
L 43.21875 8.296875 
Q 40.140625 3.328125 35.546875 0.953125 
Q 30.953125 -1.421875 24.3125 -1.421875 
Q 15.921875 -1.421875 10.953125 3.296875 
Q 6 8.015625 6 15.921875 
Q 6 25.140625 12.171875 29.828125 
Q 18.359375 34.515625 30.609375 34.515625 
L 43.21875 34.515625 
L 43.21875 35.40625 
Q 43.21875 41.609375 39.140625 45 
Q 35.0625 48.390625 27.6875 48.390625 
Q 23 48.390625 18.546875 47.265625 
Q 14.109375 46.140625 10.015625 43.890625 
L 10.015625 52.203125 
Q 14.9375 54.109375 19.578125 55.046875 
Q 24.21875 56 28.609375 56 
Q 40.484375 56 46.34375 49.84375 
Q 52.203125 43.703125 52.203125 31.203125 
z
" id="DejaVuSans-61"/>
      <path d="M 9.421875 75.984375 
L 18.40625 75.984375 
L 18.40625 0 
L 9.421875 0 
z
" id="DejaVuSans-6c"/>
     </defs>
     <g transform="translate(22.396875 204.811)rotate(-90)scale(0.2 -0.2)">
      <use xlink:href="#DejaVuSans-53"/>
      <use x="63.476562" xlink:href="#DejaVuSans-75"/>
      <use x="126.855469" xlink:href="#DejaVuSans-72"/>
      <use x="167.96875" xlink:href="#DejaVuSans-76"/>
      <use x="227.148438" xlink:href="#DejaVuSans-69"/>
      <use x="254.931641" xlink:href="#DejaVuSans-76"/>
      <use x="314.111328" xlink:href="#DejaVuSans-61"/>
      <use x="375.390625" xlink:href="#DejaVuSans-6c"/>
     </g>
    </g>
   </g>
   <g id="LineCollection_1">
    <path clip-path="url(#pcd39df9889)" d="M 61.410938 297.54825 
L 61.410938 296.36553 
" style="fill:none;stroke:#1f77b4;stroke-width:1.5;"/>
    <path clip-path="url(#pcd39df9889)" d="M 73.086014 248.167345 
L 73.086014 233.238113 
" style="fill:none;stroke:#1f77b4;stroke-width:1.5;"/>
    <path clip-path="url(#pcd39df9889)" d="M 84.761091 166.874424 
L 84.761091 149.271339 
" style="fill:none;stroke:#1f77b4;stroke-width:1.5;"/>
    <path clip-path="url(#pcd39df9889)" d="M 96.436168 90.215565 
L 96.436168 76.69249 
" style="fill:none;stroke:#1f77b4;stroke-width:1.5;"/>
    <path clip-path="url(#pcd39df9889)" d="M 108.111245 104.430916 
L 108.111245 88.085891 
" style="fill:none;stroke:#1f77b4;stroke-width:1.5;"/>
    <path clip-path="url(#pcd39df9889)" d="M 119.786322 147.252901 
L 119.786322 130.115048 
" style="fill:none;stroke:#1f77b4;stroke-width:1.5;"/>
    <path clip-path="url(#pcd39df9889)" d="M 131.461399 246.783401 
L 131.461399 232.038937 
" style="fill:none;stroke:#1f77b4;stroke-width:1.5;"/>
    <path clip-path="url(#pcd39df9889)" d="M 143.136476 267.396778 
L 143.136476 255.231722 
" style="fill:none;stroke:#1f77b4;stroke-width:1.5;"/>
    <path clip-path="url(#pcd39df9889)" d="M 154.811553 218.361236 
L 154.811553 201.992191 
" style="fill:none;stroke:#1f77b4;stroke-width:1.5;"/>
    <path clip-path="url(#pcd39df9889)" d="M 166.48663 158.185495 
L 166.48663 140.281573 
" style="fill:none;stroke:#1f77b4;stroke-width:1.5;"/>
    <path clip-path="url(#pcd39df9889)" d="M 178.161707 83.298243 
L 178.161707 69.883759 
" style="fill:none;stroke:#1f77b4;stroke-width:1.5;"/>
    <path clip-path="url(#pcd39df9889)" d="M 189.836784 88.141972 
L 189.836784 74.522528 
" style="fill:none;stroke:#1f77b4;stroke-width:1.5;"/>
    <path clip-path="url(#pcd39df9889)" d="M 201.511861 172.23807 
L 201.511861 154.338176 
" style="fill:none;stroke:#1f77b4;stroke-width:1.5;"/>
    <path clip-path="url(#pcd39df9889)" d="M 213.186938 247.701619 
L 213.186938 233.507966 
" style="fill:none;stroke:#1f77b4;stroke-width:1.5;"/>
    <path clip-path="url(#pcd39df9889)" d="M 224.862014 255.362601 
L 224.862014 241.813899 
" style="fill:none;stroke:#1f77b4;stroke-width:1.5;"/>
    <path clip-path="url(#pcd39df9889)" d="M 236.537091 204.13545 
L 236.537091 186.356069 
" style="fill:none;stroke:#1f77b4;stroke-width:1.5;"/>
    <path clip-path="url(#pcd39df9889)" d="M 248.212168 128.093156 
L 248.212168 110.937992 
" style="fill:none;stroke:#1f77b4;stroke-width:1.5;"/>
    <path clip-path="url(#pcd39df9889)" d="M 259.887245 89.68766 
L 259.887245 75.44084 
" style="fill:none;stroke:#1f77b4;stroke-width:1.5;"/>
    <path clip-path="url(#pcd39df9889)" d="M 271.562322 104.12431 
L 271.562322 88.820872 
" style="fill:none;stroke:#1f77b4;stroke-width:1.5;"/>
    <path clip-path="url(#pcd39df9889)" d="M 283.237399 174.545018 
L 283.237399 156.804922 
" style="fill:none;stroke:#1f77b4;stroke-width:1.5;"/>
    <path clip-path="url(#pcd39df9889)" d="M 294.912476 239.092638 
L 294.912476 223.555424 
" style="fill:none;stroke:#1f77b4;stroke-width:1.5;"/>
    <path clip-path="url(#pcd39df9889)" d="M 306.587553 244.3087 
L 306.587553 229.9286 
" style="fill:none;stroke:#1f77b4;stroke-width:1.5;"/>
    <path clip-path="url(#pcd39df9889)" d="M 318.26263 204.328768 
L 318.26263 187.534517 
" style="fill:none;stroke:#1f77b4;stroke-width:1.5;"/>
    <path clip-path="url(#pcd39df9889)" d="M 329.937707 145.925774 
L 329.937707 128.087234 
" style="fill:none;stroke:#1f77b4;stroke-width:1.5;"/>
    <path clip-path="url(#pcd39df9889)" d="M 341.612784 106.355456 
L 341.612784 90.782644 
" style="fill:none;stroke:#1f77b4;stroke-width:1.5;"/>
    <path clip-path="url(#pcd39df9889)" d="M 353.287861 128.862946 
L 353.287861 111.826328 
" style="fill:none;stroke:#1f77b4;stroke-width:1.5;"/>
    <path clip-path="url(#pcd39df9889)" d="M 364.962938 176.694061 
L 364.962938 158.508009 
" style="fill:none;stroke:#1f77b4;stroke-width:1.5;"/>
    <path clip-path="url(#pcd39df9889)" d="M 376.638014 241.926819 
L 376.638014 226.012716 
" style="fill:none;stroke:#1f77b4;stroke-width:1.5;"/>
    <path clip-path="url(#pcd39df9889)" d="M 388.313091 234.712446 
L 388.313091 219.434901 
" style="fill:none;stroke:#1f77b4;stroke-width:1.5;"/>
    <path clip-path="url(#pcd39df9889)" d="M 399.988168 212.774283 
L 399.988168 195.926587 
" style="fill:none;stroke:#1f77b4;stroke-width:1.5;"/>
    <path clip-path="url(#pcd39df9889)" d="M 411.663245 143.868145 
L 411.663245 126.252871 
" style="fill:none;stroke:#1f77b4;stroke-width:1.5;"/>
   </g>
   <g id="LineCollection_2">
    <path clip-path="url(#pcd39df9889)" d="M 61.410938 293.318268 
L 61.410938 286.326567 
" style="fill:none;stroke:#d62728;stroke-width:1.5;"/>
    <path clip-path="url(#pcd39df9889)" d="M 73.086014 263.036217 
L 73.086014 247.763935 
" style="fill:none;stroke:#d62728;stroke-width:1.5;"/>
    <path clip-path="url(#pcd39df9889)" d="M 84.761091 190.325663 
L 84.761091 170.410837 
" style="fill:none;stroke:#d62728;stroke-width:1.5;"/>
    <path clip-path="url(#pcd39df9889)" d="M 96.436168 211.670098 
L 96.436168 192.487283 
" style="fill:none;stroke:#d62728;stroke-width:1.5;"/>
    <path clip-path="url(#pcd39df9889)" d="M 108.111245 227.891121 
L 108.111245 208.84425 
" style="fill:none;stroke:#d62728;stroke-width:1.5;"/>
    <path clip-path="url(#pcd39df9889)" d="M 119.786322 226.734185 
L 119.786322 208.072631 
" style="fill:none;stroke:#d62728;stroke-width:1.5;"/>
    <path clip-path="url(#pcd39df9889)" d="M 131.461399 215.335629 
L 131.461399 194.716103 
" style="fill:none;stroke:#d62728;stroke-width:1.5;"/>
    <path clip-path="url(#pcd39df9889)" d="M 143.136476 192.383279 
L 143.136476 171.528421 
" style="fill:none;stroke:#d62728;stroke-width:1.5;"/>
    <path clip-path="url(#pcd39df9889)" d="M 154.811553 217.455751 
L 154.811553 197.42566 
" style="fill:none;stroke:#d62728;stroke-width:1.5;"/>
    <path clip-path="url(#pcd39df9889)" d="M 166.48663 208.018676 
L 166.48663 188.276506 
" style="fill:none;stroke:#d62728;stroke-width:1.5;"/>
    <path clip-path="url(#pcd39df9889)" d="M 178.161707 197.527445 
L 178.161707 177.603644 
" style="fill:none;stroke:#d62728;stroke-width:1.5;"/>
    <path clip-path="url(#pcd39df9889)" d="M 189.836784 179.329626 
L 189.836784 158.992137 
" style="fill:none;stroke:#d62728;stroke-width:1.5;"/>
    <path clip-path="url(#pcd39df9889)" d="M 201.511861 200.590259 
L 201.511861 179.953441 
" style="fill:none;stroke:#d62728;stroke-width:1.5;"/>
    <path clip-path="url(#pcd39df9889)" d="M 213.186938 207.95647 
L 213.186938 187.121207 
" style="fill:none;stroke:#d62728;stroke-width:1.5;"/>
    <path clip-path="url(#pcd39df9889)" d="M 224.862014 192.419779 
L 224.862014 170.727748 
" style="fill:none;stroke:#d62728;stroke-width:1.5;"/>
    <path clip-path="url(#pcd39df9889)" d="M 236.537091 191.000716 
L 236.537091 169.984594 
" style="fill:none;stroke:#d62728;stroke-width:1.5;"/>
   </g>
   <g id="line2d_25">
    <path clip-path="url(#pcd39df9889)" d="M 61.410938 297.056409 
L 62.482298 297.056409 
L 63.553658 296.150166 
L 64.267898 294.057618 
L 64.625018 293.632087 
L 65.339258 291.82611 
L 65.696378 289.665535 
L 66.053498 289.632622 
L 66.410618 288.414693 
L 66.767738 286.369096 
L 67.481978 284.109085 
L 67.839098 281.214004 
L 68.196218 280.355249 
L 69.624698 273.227208 
L 69.981818 270.12217 
L 70.696058 266.549492 
L 71.767418 259.592925 
L 72.124538 256.025854 
L 72.481658 254.703043 
L 72.838778 251.874747 
L 73.195898 247.749575 
L 73.553018 245.940468 
L 76.767098 218.700548 
L 77.838458 209.113171 
L 82.838138 163.686118 
L 83.552378 156.779048 
L 83.909498 154.521983 
L 84.980858 144.071213 
L 87.123578 126.665705 
L 87.480698 124.329743 
L 87.837818 119.84314 
L 88.194938 118.416146 
L 88.552058 116.13401 
L 88.909178 112.589095 
L 90.694778 100.415216 
L 91.051898 99.384606 
L 91.766138 94.139291 
L 92.123258 92.342607 
L 92.837498 87.644303 
L 93.194618 87.157362 
L 93.908858 81.957515 
L 94.265978 82.262636 
L 95.694458 75.396307 
L 96.051578 75.187811 
L 96.408698 73.593399 
L 96.765818 73.017523 
L 97.122938 73.152215 
L 97.480058 71.007802 
L 97.837178 70.487704 
L 98.194298 71.097988 
L 98.551418 69.75991 
L 98.908538 70.200015 
L 99.265658 69.400148 
L 99.622778 70.177824 
L 100.337018 69.016423 
L 100.694138 68.435386 
L 101.051258 70.200015 
L 101.408378 69.92823 
L 101.765498 70.155634 
L 102.122618 71.237524 
L 102.479738 70.671407 
L 102.836858 71.108721 
L 103.193978 71.334125 
L 103.551098 72.261481 
L 103.908218 73.907262 
L 104.265338 74.593975 
L 104.622458 75.889663 
L 104.979578 75.80582 
L 105.336698 77.751603 
L 106.408058 81.372189 
L 106.765178 83.751755 
L 107.122298 84.534114 
L 107.479418 86.953701 
L 107.836538 88.102925 
L 108.907898 93.765083 
L 109.265018 95.031567 
L 109.979258 100.385827 
L 110.336378 101.736911 
L 111.407738 109.224285 
L 111.764858 110.891595 
L 112.121978 113.35055 
L 112.479098 117.009987 
L 113.193338 121.055472 
L 113.550458 124.376545 
L 113.907578 125.932997 
L 114.264698 129.633504 
L 115.336058 137.378367 
L 116.050298 143.541434 
L 117.835898 158.09116 
L 118.550138 163.843957 
L 119.264378 169.303043 
L 119.978618 176.27686 
L 120.335738 178.409718 
L 121.049978 184.733501 
L 121.407098 186.969779 
L 121.764218 191.405577 
L 122.835578 199.176727 
L 123.192698 202.861742 
L 123.906938 206.945501 
L 124.978298 216.440554 
L 129.263738 246.666819 
L 129.977978 249.638076 
L 130.692218 254.767445 
L 131.049338 256.158157 
L 131.406458 258.052274 
L 131.763578 259.196633 
L 132.477818 263.316644 
L 132.834938 265.364242 
L 133.192058 265.971676 
L 133.906298 269.811242 
L 134.977658 272.821507 
L 135.334778 274.420794 
L 135.691898 275.46298 
L 136.406138 276.671205 
L 136.763258 278.17268 
L 137.477498 279.538396 
L 137.834618 279.735312 
L 138.191738 281.221693 
L 138.548858 280.818058 
L 138.905978 280.769494 
L 139.263098 281.221693 
L 139.620218 281.131716 
L 140.334458 282.422237 
L 140.691578 281.706351 
L 141.405818 281.948157 
L 142.120058 280.562297 
L 142.477178 280.578224 
L 142.834298 280.032524 
L 143.191418 279.044289 
L 143.548538 278.76457 
L 144.262778 278.003399 
L 144.619898 277.007476 
L 144.977018 275.627559 
L 145.691258 273.902303 
L 146.048378 272.012418 
L 146.405498 271.510178 
L 146.762618 269.404921 
L 147.119738 268.736599 
L 147.476858 266.988348 
L 147.833978 266.419069 
L 148.191098 263.785675 
L 148.548218 263.136319 
L 148.905338 260.220188 
L 149.262458 259.470937 
L 150.333818 253.862068 
L 150.690938 251.477383 
L 151.405178 248.003325 
L 151.762298 245.67668 
L 152.119418 244.28679 
L 152.476538 241.538178 
L 152.833658 239.920011 
L 153.190778 236.303827 
L 153.547898 235.072357 
L 153.905018 232.35976 
L 154.262138 230.899479 
L 156.047738 217.801232 
L 156.761978 213.12317 
L 157.476218 207.841544 
L 158.904698 196.997517 
L 159.261818 194.861995 
L 159.618938 191.430472 
L 159.976058 189.841609 
L 160.333178 186.146172 
L 160.690298 184.174457 
L 161.047418 180.934801 
L 161.404538 179.44984 
L 162.475898 169.947947 
L 162.833018 167.11407 
L 163.190138 165.616617 
L 164.618618 154.324481 
L 164.975738 152.642687 
L 165.689978 147.49087 
L 166.047098 144.14471 
L 166.404218 142.673311 
L 167.118458 137.44362 
L 168.189818 131.6939 
L 168.546938 127.900466 
L 169.618298 122.932051 
L 170.332538 117.148238 
L 171.046778 114.092569 
L 171.403898 112.086059 
L 171.761018 109.439229 
L 172.475258 106.826371 
L 173.189498 103.357204 
L 173.546618 101.247313 
L 173.903738 101.386725 
L 174.975098 97.008869 
L 175.332218 94.597864 
L 175.689338 94.248301 
L 176.046458 92.012571 
L 176.403578 91.731453 
L 176.760698 91.906531 
L 177.117818 90.408543 
L 177.474938 90.54475 
L 177.832058 88.881594 
L 178.189178 88.498567 
L 178.546298 88.456246 
L 178.903418 87.243858 
L 179.260538 87.918214 
L 179.617658 86.213006 
L 179.974778 86.432486 
L 180.331898 86.139313 
L 180.689018 87.265482 
L 181.046138 85.507615 
L 181.403258 85.47231 
L 181.760378 86.447116 
L 182.831738 86.395912 
L 183.188858 87.157362 
L 183.545978 87.395226 
L 183.903098 87.366394 
L 184.260218 87.975048 
L 184.617338 88.951629 
L 184.974458 89.252272 
L 185.331578 90.211043 
L 185.688698 91.798176 
L 186.045818 92.779448 
L 186.402938 92.805607 
L 186.760058 94.100817 
L 187.117178 94.942946 
L 187.474298 96.331 
L 187.831418 96.380686 
L 189.617018 104.720117 
L 189.974138 105.969814 
L 190.331258 108.563976 
L 190.688378 108.900427 
L 191.045498 110.687825 
L 191.759738 116.079149 
L 192.116858 116.603973 
L 193.188218 122.539883 
L 193.902458 127.152759 
L 194.973818 133.548905 
L 195.330938 136.42934 
L 195.688058 136.804133 
L 196.045178 141.212006 
L 196.759418 145.279923 
L 197.473658 150.453007 
L 197.830778 151.882429 
L 198.545018 157.899371 
L 199.973498 168.565434 
L 200.330618 170.520299 
L 201.401978 178.191171 
L 201.759098 179.805058 
L 202.473338 185.896222 
L 204.258938 199.357143 
L 204.616058 201.026795 
L 205.330298 206.554887 
L 205.687418 207.9738 
L 206.044538 211.989077 
L 206.758778 216.145835 
L 208.187258 225.033237 
L 208.901498 229.845016 
L 212.115578 247.762317 
L 212.472698 248.170046 
L 213.544058 254.923706 
L 213.901178 254.952538 
L 214.258298 257.74839 
L 214.615418 258.121169 
L 215.329658 260.107101 
L 215.686778 262.312349 
L 216.043898 263.29947 
L 216.401018 264.893753 
L 216.758138 264.511808 
L 217.115258 266.260698 
L 217.472378 266.921882 
L 217.829498 267.334007 
L 218.186618 268.666777 
L 218.543738 268.836345 
L 218.900858 268.303839 
L 219.257978 270.153354 
L 219.615098 269.476183 
L 219.972218 270.460724 
L 220.686458 271.06331 
L 221.043578 271.802396 
L 221.400698 272.201038 
L 221.757818 272.249656 
L 222.114938 271.138445 
L 222.472058 270.615433 
L 222.829178 271.692676 
L 223.543418 270.334663 
L 223.900538 270.194932 
L 224.257658 269.636374 
L 224.971898 269.37438 
L 225.329018 266.790342 
L 225.686138 267.599313 
L 226.043258 265.925531 
L 226.400378 265.907074 
L 226.757498 265.706292 
L 227.114618 263.692029 
L 227.471738 262.602004 
L 227.828858 262.228663 
L 228.185978 259.915973 
L 228.543098 258.822132 
L 228.900218 258.962092 
L 229.257338 256.371869 
L 229.614458 255.096698 
L 229.971578 252.561845 
L 230.685818 250.184744 
L 231.042938 248.904149 
L 231.757178 244.774845 
L 232.114298 243.720387 
L 232.828538 239.448272 
L 233.185658 238.520966 
L 233.542778 235.104912 
L 234.257018 232.123452 
L 234.614138 230.260914 
L 234.971258 226.594981 
L 235.328378 225.260363 
L 235.685498 222.437278 
L 236.042618 221.368852 
L 236.399738 217.692953 
L 236.756858 216.667727 
L 237.113978 214.549646 
L 237.471098 211.008931 
L 237.828218 209.528849 
L 238.542458 204.551409 
L 238.899578 201.450013 
L 239.256698 199.395451 
L 239.613818 198.056767 
L 239.970938 195.376671 
L 240.328058 191.355787 
L 240.685178 190.101915 
L 241.042298 186.346952 
L 241.756538 182.426224 
L 242.470778 177.110577 
L 242.827898 175.341964 
L 243.542138 170.137387 
L 244.256378 164.823372 
L 244.613498 163.014288 
L 245.684858 155.885782 
L 246.399098 151.122172 
L 247.113338 146.074938 
L 247.470458 145.047816 
L 247.827578 143.066752 
L 248.184698 140.085769 
L 249.256058 134.395653 
L 249.613178 131.384408 
L 249.970298 130.147711 
L 251.041658 124.278262 
L 251.398778 123.997454 
L 251.755898 120.223451 
L 252.470138 117.785346 
L 253.541498 112.851555 
L 253.898618 110.875921 
L 254.255738 109.624056 
L 254.612858 109.529002 
L 255.327098 105.991759 
L 256.041338 104.039727 
L 256.398458 103.723991 
L 256.755578 101.36349 
L 257.112698 101.456431 
L 257.469818 100.49163 
L 257.826938 100.009434 
L 258.184058 98.340901 
L 258.541178 98.263817 
L 258.898298 97.545733 
L 259.255418 97.143807 
L 259.612538 96.306157 
L 259.969658 96.045005 
L 260.326778 95.516355 
L 260.683898 96.61342 
L 261.041018 96.194365 
L 261.398138 95.459746 
L 261.755258 96.231629 
L 262.112378 95.591832 
L 262.469498 95.541514 
L 263.183738 96.878811 
L 263.540858 96.268893 
L 263.897978 97.716412 
L 264.255098 97.594498 
L 264.612218 97.734699 
L 264.969338 98.088126 
L 265.326458 98.027543 
L 265.683578 100.221243 
L 266.040698 99.855691 
L 266.397818 101.328637 
L 267.112058 102.619212 
L 267.826298 104.502531 
L 268.183418 104.921301 
L 268.540538 107.691178 
L 269.254778 108.926951 
L 269.611898 111.198317 
L 270.326138 113.081802 
L 270.683258 115.318411 
L 271.040378 115.819804 
L 271.754618 119.43652 
L 272.111738 120.825373 
L 276.754298 145.233502 
L 277.111418 148.203181 
L 277.468538 150.02149 
L 278.182778 154.550785 
L 278.539898 156.012806 
L 281.396858 174.678228 
L 281.753978 176.361851 
L 282.111098 179.065359 
L 282.468218 180.158611 
L 283.539578 188.249528 
L 284.968058 196.895912 
L 285.682298 200.813048 
L 286.039418 203.9667 
L 286.396538 205.416363 
L 287.825018 212.932916 
L 288.182138 214.5085 
L 288.539258 218.105441 
L 290.681978 228.278557 
L 291.396218 231.40373 
L 291.753338 233.94816 
L 292.824698 238.115714 
L 293.181818 239.45398 
L 293.538938 241.362882 
L 293.896058 241.269391 
L 294.253178 243.901028 
L 294.967418 246.295095 
L 295.324538 247.100279 
L 296.038778 250.052194 
L 296.395898 250.852228 
L 296.753018 252.693051 
L 297.110138 253.352478 
L 297.467258 253.681644 
L 297.824378 254.894874 
L 298.181498 254.710199 
L 298.538618 255.278311 
L 298.895738 256.671113 
L 299.252858 257.31346 
L 299.609978 257.702814 
L 299.967098 259.126097 
L 300.324218 257.755986 
L 300.681338 258.868785 
L 301.038458 258.228339 
L 301.395578 259.529726 
L 302.109818 258.399479 
L 302.466938 260.210628 
L 302.824058 258.736601 
L 303.181178 259.735124 
L 303.538298 257.998689 
L 303.895418 257.824351 
L 304.252538 258.853234 
L 304.609658 258.638638 
L 304.966778 257.253155 
L 305.323898 257.862332 
L 305.681018 257.238078 
L 306.038138 256.35713 
L 306.395258 256.136049 
L 306.752378 254.831847 
L 307.109498 255.663144 
L 307.823738 251.772592 
L 308.180858 251.93604 
L 308.537978 250.317294 
L 308.895098 249.796076 
L 309.252218 248.878162 
L 309.609338 248.368829 
L 309.966458 245.915625 
L 310.323578 245.405117 
L 310.680698 243.8649 
L 311.037818 242.947136 
L 311.394938 241.007934 
L 312.109178 238.831324 
L 312.466298 238.003497 
L 313.180538 234.200403 
L 313.894778 230.847505 
L 314.251898 229.285047 
L 314.609018 229.213415 
L 314.966138 225.403551 
L 315.323258 224.406495 
L 315.680378 221.162722 
L 316.037498 220.987883 
L 316.751738 216.417373 
L 318.180218 209.769053 
L 318.894458 204.937835 
L 319.251578 203.689505 
L 319.608698 200.98832 
L 320.322938 197.170542 
L 322.465658 184.358084 
L 322.822778 183.109416 
L 323.537018 177.741935 
L 323.894138 176.709907 
L 324.251258 173.950382 
L 324.965498 170.189786 
L 325.322618 167.271909 
L 325.679738 165.709702 
L 326.036858 162.888826 
L 326.751098 160.022365 
L 327.108218 157.030199 
L 327.465338 155.955441 
L 328.179578 151.651047 
L 328.536698 150.266293 
L 328.893818 147.553636 
L 329.250938 146.356483 
L 329.608058 143.393096 
L 329.965178 142.843571 
L 330.322298 140.450718 
L 331.036538 137.456671 
L 331.393658 134.993485 
L 331.750778 134.104691 
L 332.107898 133.938594 
L 332.465018 130.287496 
L 332.822138 130.161239 
L 333.179258 127.460494 
L 333.893498 123.848185 
L 334.607738 122.453386 
L 335.321978 120.098206 
L 336.036218 118.093495 
L 337.464698 113.869747 
L 337.821818 112.223924 
L 338.178938 111.297068 
L 338.536058 110.964744 
L 338.893178 110.834122 
L 339.964538 108.272171 
L 340.321658 109.534283 
L 340.678778 107.016987 
L 341.035898 107.842271 
L 341.750138 106.831826 
L 342.107258 107.044116 
L 342.464378 106.859105 
L 343.178618 106.689975 
L 343.535738 106.449919 
L 343.892858 107.337112 
L 344.249978 107.114652 
L 344.607098 105.489863 
L 344.964218 107.939425 
L 345.321338 107.653404 
L 345.678458 107.869252 
L 346.035578 108.788166 
L 346.392698 109.224285 
L 346.749818 109.187121 
L 347.106938 110.818447 
L 347.464058 111.120357 
L 347.821178 111.198317 
L 348.178298 112.311359 
L 348.535418 112.785039 
L 348.892538 114.264749 
L 349.249658 114.726251 
L 349.606778 115.949476 
L 349.963898 116.311195 
L 351.035258 120.266805 
L 351.392378 121.921651 
L 351.749498 122.643831 
L 352.106618 123.824673 
L 352.820858 127.258399 
L 353.535098 128.882471 
L 354.249338 132.569977 
L 354.606458 134.457373 
L 354.963578 135.322654 
L 355.320698 138.080854 
L 356.034938 140.429251 
L 356.392058 142.890392 
L 357.463418 147.545267 
L 357.820538 151.075386 
L 358.177658 150.394918 
L 358.534778 153.810154 
L 359.249018 157.054683 
L 359.606138 159.396536 
L 359.963258 160.69696 
L 361.391738 169.274828 
L 362.463098 175.30554 
L 363.177338 178.527086 
L 363.891578 183.329769 
L 365.320058 190.973732 
L 365.677178 192.563203 
L 366.391418 197.938604 
L 366.748538 198.672378 
L 367.105658 201.073819 
L 368.534138 207.449186 
L 368.891258 210.341503 
L 370.676858 218.752274 
L 371.033978 221.335296 
L 371.391098 222.485685 
L 371.748218 223.254233 
L 372.105338 225.725825 
L 372.462458 226.756142 
L 372.819578 228.998517 
L 373.176698 229.336213 
L 373.890938 232.349198 
L 374.248058 233.150761 
L 374.605178 234.399263 
L 374.962298 236.095354 
L 375.319418 235.834725 
L 375.676538 237.90473 
L 376.747898 240.949846 
L 377.462138 242.988778 
L 377.819258 244.549305 
L 378.533498 245.701367 
L 378.890618 245.890782 
L 379.604858 247.207892 
L 379.961978 247.526591 
L 380.319098 249.229444 
L 380.676218 248.71219 
L 381.033338 248.975612 
L 381.390458 248.705736 
L 381.747578 249.510652 
L 382.104698 249.484493 
L 382.461818 250.264274 
L 382.818938 250.006743 
L 383.176058 248.563743 
L 383.533178 250.033076 
L 383.890298 249.64466 
L 384.247418 249.980409 
L 384.604538 249.09905 
L 385.318778 249.249063 
L 385.675898 248.570197 
L 386.033018 248.311118 
L 386.390138 247.15092 
L 386.747258 248.202108 
L 387.104378 246.027417 
L 387.461498 245.9591 
L 387.818618 244.872376 
L 388.175738 244.943886 
L 388.532858 244.098983 
L 389.247098 241.713475 
L 389.604218 241.602454 
L 389.961338 239.862598 
L 390.318458 240.000389 
L 391.032698 236.827821 
L 391.389818 236.640251 
L 391.746938 235.09406 
L 392.104058 232.729414 
L 392.461178 233.071124 
L 393.175418 229.618713 
L 393.532538 229.484595 
L 394.246778 225.462802 
L 394.603898 225.018424 
L 395.318138 220.572844 
L 395.675258 219.650993 
L 396.389498 216.890264 
L 396.746618 213.994672 
L 397.103738 213.994672 
L 397.460858 213.512295 
L 397.817978 210.095744 
L 398.889338 205.94815 
L 399.603578 201.920959 
L 399.960698 200.225469 
L 400.317818 197.503931 
L 400.674938 196.643782 
L 402.460538 187.535241 
L 402.817658 184.823275 
L 403.174778 184.300956 
L 403.531898 182.438416 
L 403.889018 179.170586 
L 404.246138 179.037029 
L 404.603258 176.03403 
L 404.960378 175.111275 
L 405.317498 172.652513 
L 406.388858 168.093485 
L 406.745978 165.55591 
L 407.103098 165.062155 
L 407.460218 162.698609 
L 407.817338 161.395937 
L 408.174458 158.662446 
L 408.531578 156.952668 
L 408.888698 156.504512 
L 409.245818 155.365394 
L 409.960058 151.180017 
L 411.745658 143.558387 
L 412.102778 141.817754 
L 412.459898 141.216281 
L 413.174138 138.513972 
L 413.531258 138.358049 
L 414.245498 134.967151 
L 414.602618 133.748178 
L 414.959738 132.943629 
L 415.316858 132.521047 
L 416.031098 128.950732 
L 416.388218 128.632181 
L 417.102458 127.55301 
L 417.459578 126.135036 
L 417.816698 125.617737 
L 418.173818 125.599192 
L 418.530938 124.797443 
L 418.530938 124.797443 
" style="fill:none;stroke:#1f77b4;stroke-linecap:square;stroke-width:1.5;"/>
   </g>
   <g id="line2d_26">
    <path clip-path="url(#pcd39df9889)" d="M 61.410938 297.056409 
L 62.125178 297.056409 
L 62.482298 296.46282 
L 62.839418 297.056409 
L 63.196538 297.056409 
L 63.553658 296.26547 
L 64.267898 294.269171 
L 64.625018 293.629967 
L 64.982138 292.164889 
L 65.339258 292.488173 
L 65.696378 290.074714 
L 66.410618 287.852355 
L 66.767738 287.205595 
L 67.839098 281.689326 
L 68.196218 280.704742 
L 69.267578 274.805425 
L 69.624698 272.201038 
L 69.981818 270.668524 
L 70.338938 268.241401 
L 70.696058 266.790342 
L 74.981498 233.598015 
L 75.338618 228.91919 
L 75.695738 227.780495 
L 78.909818 198.617281 
L 79.624058 191.359936 
L 79.981178 187.850409 
L 80.338298 183.211431 
L 80.695418 181.629715 
L 81.766778 170.270399 
L 82.481018 164.078693 
L 82.838138 159.733833 
L 83.552378 154.06526 
L 83.909498 149.319857 
L 84.980858 140.887112 
L 85.337978 137.66073 
L 85.695098 133.393915 
L 86.052218 130.747017 
L 86.409338 126.946071 
L 86.766458 124.909236 
L 87.480698 117.633044 
L 87.837818 115.458767 
L 88.194938 111.380226 
L 88.552058 109.054392 
L 88.909178 105.19869 
L 89.623418 100.185975 
L 89.980538 97.088605 
L 90.337658 95.196151 
L 90.694778 92.125239 
L 91.051898 90.860063 
L 91.409018 87.608524 
L 91.766138 85.47231 
L 92.123258 82.005685 
L 93.194618 75.908295 
L 93.551738 74.214909 
L 93.908858 71.409214 
L 94.265978 69.961895 
L 94.623098 69.365701 
L 94.980218 66.459886 
L 95.694458 62.446784 
L 96.051578 62.431355 
L 96.408698 61.068407 
L 96.765818 58.498375 
L 97.122938 56.755695 
L 97.480058 57.181462 
L 97.837178 54.91491 
L 98.194298 54.810971 
L 98.551418 52.879942 
L 98.908538 52.215386 
L 99.265658 52.129622 
L 99.622778 51.67181 
L 99.979898 50.46399 
L 100.337018 50.553749 
L 100.694138 50.239593 
L 101.051258 50.374231 
L 101.408378 49.184692 
L 101.765498 49.548549 
L 102.122618 49.068539 
L 102.479738 49.068539 
L 102.836858 49.376725 
L 103.193978 50.553749 
L 103.551098 50.219244 
L 103.908218 50.558672 
L 104.622458 52.453722 
L 105.336698 52.965078 
L 105.693818 54.19089 
L 106.050938 55.921004 
L 106.408058 56.085576 
L 106.765178 57.337 
L 107.122298 59.688326 
L 107.479418 60.179668 
L 107.836538 61.966705 
L 108.193658 63.032424 
L 108.550778 65.485452 
L 108.907898 65.65654 
L 109.622138 69.939452 
L 109.979258 71.087254 
L 111.050618 78.082882 
L 111.407738 78.904761 
L 111.764858 82.570776 
L 112.121978 83.875191 
L 112.479098 86.866569 
L 112.836218 88.547942 
L 113.907578 95.888755 
L 114.621818 100.309413 
L 114.978938 104.865824 
L 115.336058 107.5185 
L 115.693178 109.335778 
L 116.407418 114.431866 
L 116.764538 117.814823 
L 117.121658 119.92479 
L 117.835898 126.780721 
L 118.193018 129.280176 
L 118.550138 133.579903 
L 119.264378 138.958321 
L 119.621498 143.939828 
L 119.978618 145.094238 
L 120.335738 148.04739 
L 121.049978 155.508808 
L 121.407098 158.103401 
L 121.764218 161.676341 
L 122.478458 166.757919 
L 123.192698 174.403021 
L 123.906938 179.9351 
L 124.264058 184.235666 
L 124.621178 186.58461 
L 125.335418 193.220245 
L 126.763898 205.607774 
L 127.478138 211.507173 
L 128.192378 216.141221 
L 129.263738 225.517407 
L 129.620858 227.316972 
L 130.692218 235.965665 
L 131.406458 240.075026 
L 132.120698 246.05226 
L 132.477818 249.13803 
L 132.834938 250.085331 
L 133.906298 257.464222 
L 134.620538 260.610332 
L 134.977658 262.905167 
L 135.334778 263.794414 
L 136.049018 268.163185 
L 136.763258 270.944594 
L 137.120378 272.958846 
L 137.477498 273.572493 
L 138.191738 276.686225 
L 138.548858 279.19783 
L 138.905978 279.182868 
L 139.263098 279.920462 
L 139.620218 281.148173 
L 139.977338 281.655276 
L 140.691578 283.448592 
L 141.048698 283.656193 
L 141.405818 284.890072 
L 142.120058 284.618897 
L 142.477178 284.9531 
L 142.834298 285.644121 
L 143.191418 285.755106 
L 143.548538 286.529966 
L 143.905658 285.620456 
L 144.262778 285.79999 
L 144.619898 285.665339 
L 144.977018 284.911081 
L 145.334138 285.087172 
L 145.691258 285.642898 
L 146.048378 284.298333 
L 146.405498 283.562528 
L 146.762618 282.458144 
L 147.119738 282.000128 
L 148.191098 279.123022 
L 148.548218 278.407092 
L 148.905338 277.088638 
L 149.262458 275.317536 
L 149.619578 275.217539 
L 149.976698 273.296912 
L 150.333818 272.395534 
L 150.690938 269.976646 
L 152.476538 261.687332 
L 152.833658 259.498126 
L 153.190778 258.159444 
L 153.547898 255.27105 
L 153.905018 254.631485 
L 154.262138 251.73173 
L 154.619258 250.270902 
L 154.976378 246.836644 
L 155.333498 245.15856 
L 159.261818 216.718725 
L 159.618938 213.398527 
L 159.976058 211.790674 
L 160.333178 208.843046 
L 160.690298 204.499435 
L 161.404538 200.289317 
L 161.761658 195.895797 
L 162.118778 193.836917 
L 163.547258 181.394013 
L 163.904378 177.316982 
L 164.261498 176.021888 
L 164.618618 172.241387 
L 165.689978 164.382231 
L 166.047098 159.587536 
L 166.404218 156.701194 
L 166.761338 154.763054 
L 169.975418 127.308923 
L 170.332538 125.49256 
L 171.046778 119.70276 
L 172.118138 111.187923 
L 172.475258 109.208358 
L 172.832378 105.860092 
L 173.903738 99.666469 
L 174.260858 96.169522 
L 174.617978 94.949276 
L 175.332218 90.623334 
L 175.689338 86.866569 
L 176.046458 86.512949 
L 177.117818 79.629015 
L 177.474938 78.294692 
L 177.832058 76.170762 
L 178.189178 75.032791 
L 178.546298 72.640853 
L 179.260538 70.986099 
L 179.974778 66.985063 
L 180.331898 66.687861 
L 180.689018 65.919866 
L 181.046138 63.883008 
L 181.403258 63.757875 
L 182.117498 62.210554 
L 182.474618 60.393915 
L 182.831738 59.54451 
L 183.188858 59.544696 
L 183.545978 58.936456 
L 183.903098 58.80353 
L 184.617338 57.337 
L 184.974458 57.294981 
L 185.331578 56.843467 
L 185.688698 57.691775 
L 186.045818 56.395883 
L 186.402938 56.534994 
L 186.760058 58.032071 
L 187.117178 58.112679 
L 187.474298 58.860498 
L 187.831418 58.746561 
L 188.188538 59.831956 
L 188.902778 59.742187 
L 189.259898 61.536794 
L 189.617018 61.322961 
L 189.974138 62.736513 
L 190.331258 64.649 
L 190.688378 64.909582 
L 191.045498 65.432076 
L 191.402618 67.74032 
L 191.759738 68.658828 
L 192.116858 70.366444 
L 192.473978 70.736516 
L 192.831098 72.93608 
L 193.188218 73.818388 
L 194.259578 80.644259 
L 194.616698 81.764833 
L 194.973818 84.054106 
L 195.688058 87.287106 
L 196.045178 90.61657 
L 197.473658 99.063416 
L 198.187898 104.430003 
L 198.545018 105.368493 
L 198.902138 110.408272 
L 199.259258 111.817209 
L 199.616378 114.279942 
L 200.330618 121.136965 
L 201.044858 124.997739 
L 202.473338 138.089516 
L 202.830458 140.291858 
L 204.616058 156.344708 
L 205.330298 162.306234 
L 205.687418 164.75457 
L 206.044538 168.154308 
L 206.401658 170.479993 
L 206.758778 174.908917 
L 207.473018 180.069207 
L 207.830138 184.476422 
L 210.329978 205.856391 
L 210.687098 207.462412 
L 211.044218 211.984568 
L 211.758458 217.133987 
L 212.115578 220.940178 
L 212.472698 222.442119 
L 213.901178 234.464017 
L 214.615418 239.208966 
L 214.972538 242.127637 
L 215.329658 243.660174 
L 215.686778 247.069367 
L 216.401018 250.991378 
L 218.186618 261.712227 
L 218.543738 263.333818 
L 219.257978 267.715488 
L 219.615098 270.049408 
L 219.972218 270.51325 
L 221.043578 275.614899 
L 221.400698 275.740444 
L 221.757818 277.777975 
L 222.472058 280.403029 
L 222.829178 280.434883 
L 223.186298 282.58382 
L 223.543418 283.753001 
L 223.900538 283.830448 
L 224.257658 284.932091 
L 224.614778 285.215969 
L 224.971898 285.237435 
L 225.329018 287.028364 
L 225.686138 286.077926 
L 226.043258 287.053683 
L 226.400378 285.940144 
L 226.757498 287.230913 
L 227.114618 286.529966 
L 227.471738 287.634012 
L 227.828858 286.578133 
L 228.543098 285.917181 
L 228.900218 286.157503 
L 229.257338 285.130104 
L 229.614458 284.848053 
L 229.971578 282.74559 
L 230.328698 283.429602 
L 231.400058 280.048198 
L 232.114298 279.583971 
L 233.185658 273.320147 
L 233.542778 273.296912 
L 233.899898 271.780452 
L 234.257018 268.606929 
L 235.328378 264.357105 
L 237.828218 249.164017 
L 239.256698 238.487109 
L 239.613818 237.302225 
L 239.970938 233.496596 
L 240.328058 230.894282 
L 240.685178 229.947881 
L 241.042298 225.82011 
L 242.113658 218.208403 
L 242.470778 213.835397 
L 242.827898 211.858311 
L 245.327738 189.655676 
L 245.684858 187.588509 
L 246.756218 178.389482 
L 247.113338 173.978597 
L 247.470458 171.975364 
L 249.256058 155.725978 
L 249.970298 150.137668 
L 250.327418 145.74717 
L 250.684538 143.880493 
L 251.041658 139.879681 
L 251.755898 134.19727 
L 252.113018 131.155486 
L 252.470138 129.280176 
L 253.541498 119.760848 
L 256.041338 100.98565 
L 256.398458 99.147204 
L 256.755578 95.938755 
L 257.112698 94.209826 
L 257.469818 93.145573 
L 257.826938 89.693727 
L 258.184058 88.088717 
L 258.541178 84.773111 
L 258.898298 83.636032 
L 259.255418 81.372948 
L 259.612538 80.461697 
L 260.326778 75.168821 
L 260.683898 74.917744 
L 261.041018 73.017523 
L 261.398138 70.089062 
L 262.469498 67.459988 
L 263.183738 64.20206 
L 263.540858 63.772397 
L 263.897978 62.539359 
L 264.255098 62.257576 
L 264.612218 60.341943 
L 264.969338 60.289972 
L 265.683578 57.991767 
L 266.040698 58.746561 
L 266.397818 57.794634 
L 266.754938 57.210943 
L 267.112058 57.712347 
L 267.469178 57.224394 
L 267.826298 57.484066 
L 268.183418 56.843467 
L 268.540538 57.159996 
L 268.897658 57.24586 
L 269.254778 58.112679 
L 269.611898 57.400028 
L 269.969018 57.484066 
L 270.326138 58.746561 
L 270.683258 58.691993 
L 271.040378 60.359267 
L 271.397498 60.71995 
L 271.754618 61.743729 
L 272.111738 61.83929 
L 272.468858 64.595574 
L 272.825978 65.309678 
L 273.183098 65.282624 
L 273.540218 67.385927 
L 273.897338 68.553027 
L 274.611578 71.664049 
L 274.968698 71.850386 
L 275.325818 75.593805 
L 275.682938 75.740608 
L 276.040058 78.494125 
L 276.397178 79.730296 
L 277.111418 83.467968 
L 277.825658 87.536967 
L 278.897018 94.904965 
L 279.611258 99.099326 
L 280.682618 107.125504 
L 281.039738 109.544844 
L 281.396858 110.646025 
L 282.468218 121.103409 
L 282.825338 122.9793 
L 283.539578 128.736848 
L 283.896698 131.056736 
L 284.968058 140.437838 
L 285.325178 142.545616 
L 285.682298 146.871585 
L 286.753658 155.135931 
L 287.110778 158.878718 
L 287.467898 160.36779 
L 287.825018 164.438891 
L 288.182138 166.377485 
L 289.253498 177.171284 
L 289.610618 179.101784 
L 289.967738 183.231834 
L 290.324858 185.312949 
L 291.039098 193.057744 
L 291.396218 194.514693 
L 291.753338 196.555537 
L 292.110458 201.869436 
L 293.181818 209.466573 
L 293.538938 212.973685 
L 294.610298 220.625321 
L 294.967418 224.201493 
L 295.324538 225.790336 
L 296.395898 234.7716 
L 296.753018 236.029521 
L 297.824378 244.414014 
L 298.181498 244.927238 
L 298.538618 249.209494 
L 298.895738 250.465235 
L 299.609978 256.150787 
L 299.967098 257.214284 
L 300.324218 259.569225 
L 301.038458 262.237031 
L 301.395578 265.037388 
L 302.466938 269.272577 
L 303.181178 272.571799 
L 303.538298 273.285295 
L 303.895418 274.574162 
L 304.252538 276.924746 
L 304.609658 276.389016 
L 305.323898 279.132719 
L 305.681018 280.110894 
L 306.038138 280.189264 
L 306.752378 282.619728 
L 307.109498 282.180964 
L 307.466618 283.391623 
L 307.823738 282.673589 
L 308.180858 284.278181 
L 308.537978 284.089336 
L 308.895098 283.714278 
L 309.252218 284.764015 
L 309.609338 283.50556 
L 309.966458 283.315666 
L 310.323578 284.598325 
L 310.680698 282.691543 
L 311.037818 283.429602 
L 311.752058 282.476098 
L 312.109178 281.6042 
L 312.466298 280.142242 
L 312.823418 279.152945 
L 313.180538 280.17359 
L 313.894778 276.233099 
L 314.251898 276.150823 
L 314.966138 272.742055 
L 315.323258 272.350648 
L 315.680378 269.800955 
L 316.037498 268.806422 
L 316.751738 265.633145 
L 317.108858 263.432163 
L 317.823098 261.235435 
L 318.537338 256.040484 
L 318.894458 254.767445 
L 320.322938 245.553242 
L 320.680058 242.857904 
L 321.037178 241.269391 
L 323.179898 227.026829 
L 323.894138 220.121572 
L 324.608378 214.266195 
L 324.965498 213.498643 
L 325.679738 206.503077 
L 327.108218 193.907751 
L 327.822458 188.484061 
L 329.250938 175.629313 
L 329.608058 173.265172 
L 330.322298 166.44224 
L 331.750778 155.496515 
L 332.107898 151.4114 
L 332.822138 145.856426 
L 333.536378 139.436982 
L 333.893498 137.169554 
L 335.679098 121.426251 
L 336.036218 119.877025 
L 336.393338 116.901361 
L 336.750458 112.795272 
L 337.107578 111.946464 
L 339.607418 93.810263 
L 339.964538 92.62569 
L 340.678778 87.004528 
L 341.035898 85.559589 
L 342.107258 79.713416 
L 342.821498 76.980215 
L 343.892858 71.055054 
L 344.249978 70.200015 
L 344.607098 68.161747 
L 344.964218 68.221234 
L 345.321338 67.36124 
L 345.678458 65.538829 
L 347.106938 61.601546 
L 347.464058 61.912748 
L 347.821178 60.464573 
L 348.178298 60.967987 
L 348.535418 59.616511 
L 348.892538 59.670372 
L 349.249658 59.379935 
L 349.606778 59.379935 
L 350.321018 59.879905 
L 350.678138 59.581083 
L 351.035258 59.09717 
L 351.392378 60.411239 
L 351.749498 60.255324 
L 352.106618 60.289972 
L 352.463738 60.109136 
L 352.820858 61.141927 
L 353.177978 62.63017 
L 353.535098 63.260549 
L 353.892218 63.348979 
L 354.606458 65.309678 
L 354.963578 66.687861 
L 355.320698 68.553027 
L 355.677818 68.807309 
L 356.034938 70.531592 
L 356.392058 71.323392 
L 356.749178 73.57345 
L 357.106298 75.026395 
L 357.463418 77.279643 
L 357.820538 77.635951 
L 358.177658 79.704976 
L 358.534778 82.539176 
L 358.891898 82.515476 
L 359.249018 84.946488 
L 359.606138 88.569103 
L 359.963258 89.54871 
L 361.034618 97.015003 
L 361.391738 98.371008 
L 361.748858 102.163402 
L 362.105978 103.978008 
L 364.248698 119.688238 
L 364.962938 124.806759 
L 365.677178 130.431789 
L 367.462778 145.688339 
L 367.819898 147.39463 
L 368.891258 157.605566 
L 369.605498 163.249024 
L 369.962618 167.251674 
L 370.319738 169.194215 
L 371.033978 176.03403 
L 371.391098 178.312586 
L 372.105338 185.646271 
L 372.462458 187.899785 
L 373.176698 194.460297 
L 373.890938 199.015675 
L 374.248058 203.919057 
L 375.319418 211.556549 
L 375.676538 215.56902 
L 376.033658 216.792904 
L 376.390778 220.344711 
L 376.747898 222.244882 
L 377.819258 231.065796 
L 378.533498 235.927474 
L 379.604858 242.546759 
L 379.961978 243.762537 
L 380.319098 247.85151 
L 380.676218 249.340619 
L 381.747578 255.292833 
L 382.818938 261.227274 
L 383.176058 261.836701 
L 383.890298 265.318945 
L 384.247418 268.016528 
L 384.604538 268.666777 
L 384.961658 269.646661 
L 385.675898 272.708004 
L 386.033018 272.708004 
L 386.390138 274.978234 
L 386.747258 274.720455 
L 387.818618 278.364158 
L 388.175738 278.292603 
L 388.532858 278.677441 
L 388.889978 279.858745 
L 389.247098 279.19783 
L 389.604218 281.422532 
L 389.961338 280.656179 
L 390.318458 279.523204 
L 390.675578 280.466736 
L 391.032698 279.644738 
L 391.389818 280.530444 
L 392.104058 279.377369 
L 392.461178 279.966749 
L 392.818298 278.243214 
L 393.175418 277.298228 
L 393.889658 277.26449 
L 394.246778 275.90716 
L 394.603898 275.355036 
L 395.318138 272.316984 
L 395.675258 272.571799 
L 396.032378 270.324158 
L 396.389498 270.355673 
L 396.746618 267.573689 
L 397.103738 266.668081 
L 397.460858 264.902731 
L 397.817978 263.838108 
L 399.246458 257.464222 
L 399.960698 253.506555 
L 400.317818 250.423334 
L 400.674938 249.288302 
L 401.389178 244.937752 
L 402.103418 240.874331 
L 402.817658 236.237994 
L 403.174778 232.602675 
L 403.531898 231.122967 
L 403.889018 229.111083 
L 404.960378 220.816143 
L 405.674618 216.196595 
L 406.388858 209.640054 
L 408.174458 196.584952 
L 408.531578 192.936909 
L 408.888698 190.936546 
L 409.245818 188.282445 
L 409.602938 184.570276 
L 409.960058 182.186459 
L 410.674298 175.3622 
L 411.031418 173.692421 
L 416.031098 133.486909 
L 416.388218 131.850293 
L 417.102458 125.821729 
L 417.459578 124.142538 
L 418.530938 117.039612 
L 418.530938 117.039612 
" style="fill:none;stroke:#2ca02c;stroke-dasharray:9.6,2.4,1.5,2.4;stroke-dashoffset:0;stroke-width:1.5;"/>
   </g>
   <g id="line2d_27">
    <path clip-path="url(#pcd39df9889)" d="M 61.410938 289.871385 
L 63.333891 289.871385 
L 63.718482 289.541359 
L 64.103073 287.536317 
L 64.487664 287.944734 
L 64.872254 287.846021 
L 65.256845 285.400634 
L 65.641436 284.820604 
L 66.026027 282.821594 
L 66.410618 283.433266 
L 67.179799 279.633946 
L 67.56439 277.902148 
L 67.948981 277.052853 
L 68.333571 275.084106 
L 68.718162 273.81503 
L 69.102753 271.666676 
L 69.487344 270.495594 
L 69.871934 267.920018 
L 70.256525 266.49327 
L 70.641116 264.6064 
L 71.025707 261.771486 
L 71.410298 259.98373 
L 71.794888 259.035831 
L 72.179479 255.4001 
L 72.948661 251.901887 
L 73.333251 248.650645 
L 73.717842 247.34628 
L 74.102433 244.515561 
L 74.871614 240.430761 
L 76.025387 231.938813 
L 77.179159 225.158893 
L 77.56375 222.212589 
L 77.948341 221.154303 
L 78.717522 214.847906 
L 79.102113 212.300598 
L 79.871294 208.831605 
L 80.255885 206.75504 
L 80.640476 203.958567 
L 81.025067 202.016713 
L 81.409658 199.0821 
L 82.178839 195.358494 
L 82.56343 192.631821 
L 83.332611 188.359022 
L 84.486384 182.342565 
L 85.255565 179.149635 
L 85.640156 176.850692 
L 86.409338 174.639754 
L 87.178519 171.390628 
L 87.56311 170.297892 
L 88.332291 166.725052 
L 88.716882 166.15673 
L 89.486064 163.161957 
L 89.870654 164.072884 
L 90.255245 161.75526 
L 90.639836 161.662555 
L 91.024427 160.252819 
L 91.409018 159.916904 
L 91.793608 158.783697 
L 92.178199 158.597527 
L 92.56279 158.93749 
L 92.947381 157.472414 
L 93.331971 158.763461 
L 93.716562 157.30648 
L 94.101153 156.432292 
L 94.870334 155.683566 
L 95.639516 156.901764 
L 96.024107 156.901764 
L 96.408698 156.707499 
L 96.793288 157.496697 
L 97.177879 157.209348 
L 97.56247 158.427546 
L 97.947061 158.314226 
L 98.716242 158.686565 
L 99.485424 160.548263 
L 99.870014 160.981376 
L 100.639196 162.033375 
L 101.023787 163.899566 
L 101.792968 164.371152 
L 102.177559 165.753665 
L 102.56215 165.882646 
L 102.946741 167.553912 
L 103.331331 168.241931 
L 103.715922 168.444289 
L 104.869694 172.038175 
L 105.254285 172.434797 
L 105.638876 173.095501 
L 106.023467 173.39216 
L 106.408058 175.042073 
L 106.792648 175.460647 
L 107.177239 177.062884 
L 107.56183 177.56888 
L 107.946421 179.293049 
L 108.331011 180.3789 
L 108.715602 180.620125 
L 109.100193 182.685508 
L 109.484784 182.586344 
L 110.253965 185.303493 
L 110.638556 184.776545 
L 111.023147 185.490207 
L 111.407738 187.031063 
L 111.792328 187.216692 
L 112.176919 188.576304 
L 112.56151 188.467048 
L 112.946101 191.033863 
L 113.330691 191.686551 
L 113.715282 190.162763 
L 114.484464 192.21894 
L 114.869054 192.008656 
L 115.638236 194.307738 
L 116.022827 194.435389 
L 116.407418 195.456793 
L 117.56119 196.76002 
L 117.945781 196.345119 
L 118.330371 196.773014 
L 118.714962 196.595436 
L 119.099553 197.375047 
L 119.484144 197.284093 
L 119.868734 197.314411 
L 120.253325 198.605824 
L 120.637916 197.870268 
L 121.022507 197.826765 
L 121.407098 197.500496 
L 121.791688 198.153035 
L 122.176279 198.4184 
L 122.945461 196.53913 
L 123.330051 197.5701 
L 123.714642 197.028553 
L 124.099233 196.751358 
L 124.483824 197.826765 
L 124.868414 196.103632 
L 125.253005 197.483095 
L 125.637596 196.120881 
L 126.022187 195.319853 
L 126.406778 195.797461 
L 126.791368 195.659469 
L 127.175959 194.93773 
L 127.56055 195.474042 
L 127.945141 195.10947 
L 128.329731 194.512672 
L 129.098913 194.564194 
L 129.483504 193.354429 
L 129.868094 193.495502 
L 130.252685 193.163884 
L 130.637276 193.341604 
L 131.021867 192.240223 
L 131.406458 192.453048 
L 131.791048 191.826412 
L 132.175639 191.487354 
L 132.56023 190.513033 
L 132.944821 190.614316 
L 133.329411 189.901115 
L 133.714002 190.268266 
L 134.098593 190.348448 
L 134.483184 189.610036 
L 134.867774 189.989738 
L 135.252365 189.294874 
L 135.636956 188.070301 
L 136.021547 189.097372 
L 136.406138 189.185618 
L 136.790728 188.929286 
L 137.175319 188.971307 
L 137.55991 188.066117 
L 137.944501 188.112144 
L 138.329091 188.032642 
L 138.713682 188.103776 
L 139.098273 187.555625 
L 139.482864 189.152 
L 140.252045 187.710446 
L 140.636636 187.936401 
L 141.021227 188.300441 
L 142.174999 188.446037 
L 142.55959 188.015904 
L 142.944181 188.10796 
L 143.328771 187.614206 
L 143.713362 188.3381 
L 144.097953 188.496463 
L 144.482544 188.10796 
L 144.867134 188.555293 
L 145.251725 189.799832 
L 145.636316 190.356888 
L 146.020907 189.30748 
L 146.405498 190.238725 
L 146.790088 189.977077 
L 147.174679 190.546794 
L 147.55927 190.255605 
L 147.943861 191.440733 
L 148.328451 190.888624 
L 148.713042 192.184888 
L 149.097633 191.898462 
L 149.482224 192.40197 
L 149.866814 193.25327 
L 150.635996 193.240501 
L 151.020587 194.18804 
L 151.405178 193.538251 
L 151.789768 194.63289 
L 152.174359 195.324146 
L 152.55895 195.118057 
L 152.943541 196.414115 
L 153.328131 195.883707 
L 153.712722 196.056197 
L 154.097313 196.959254 
L 154.481904 195.982889 
L 154.866494 197.31008 
L 155.251085 197.513547 
L 155.635676 198.105182 
L 156.020267 198.487848 
L 156.404858 198.283542 
L 157.174039 199.826311 
L 157.55863 200.396418 
L 157.943221 199.003449 
L 158.327811 199.593698 
L 158.712402 199.501531 
L 159.096993 200.142314 
L 159.481584 201.106189 
L 159.866174 200.515448 
L 161.019947 201.830725 
L 161.404538 201.777586 
L 161.789128 202.170344 
L 162.173719 202.303791 
L 162.942901 202.237067 
L 163.327491 201.795299 
L 163.712082 201.959145 
L 164.096673 203.116264 
L 164.481264 202.99115 
L 164.865854 202.986682 
L 165.250445 201.587169 
L 165.635036 203.272657 
L 166.019627 202.959872 
L 166.404218 203.478201 
L 166.788808 201.724446 
L 167.942581 202.059138 
L 168.327171 202.677442 
L 168.711762 201.432179 
L 169.096353 201.150274 
L 169.480944 202.148102 
L 169.865534 200.665337 
L 170.250125 200.374375 
L 170.634716 200.757916 
L 171.019307 200.133536 
L 171.403898 200.471363 
L 171.788488 199.883367 
L 172.173079 199.839478 
L 172.55767 198.854886 
L 172.942261 199.431308 
L 173.326851 198.353146 
L 173.711442 198.287892 
L 174.096033 198.789343 
L 174.480624 198.719431 
L 174.865214 198.492217 
L 175.249805 198.675736 
L 175.634396 197.366385 
L 176.018987 196.83365 
L 176.403578 195.495603 
L 176.788168 196.27181 
L 177.172759 196.202814 
L 177.55735 195.918205 
L 177.941941 195.974264 
L 178.326531 194.226514 
L 178.711122 194.899088 
L 179.095713 194.422508 
L 179.864894 194.19659 
L 180.249485 193.027675 
L 180.634076 193.623749 
L 181.018667 193.315955 
L 181.403258 193.709248 
L 181.787848 192.214684 
L 182.172439 192.776542 
L 182.55703 191.334777 
L 182.941621 192.321096 
L 183.326211 192.491356 
L 183.710802 191.673836 
L 184.095393 191.533974 
L 184.479984 191.894224 
L 184.864574 191.682312 
L 185.249165 190.42863 
L 185.633756 191.394113 
L 186.018347 190.41597 
L 186.402938 191.360207 
L 186.787528 189.820933 
L 187.172119 190.175423 
L 187.55671 190.846422 
L 187.941301 190.572114 
L 188.325891 190.437071 
L 188.710482 190.542574 
L 189.095073 190.521473 
L 189.479664 189.168809 
L 189.864254 189.639451 
L 190.248845 189.492376 
L 190.633436 189.013329 
L 191.018027 189.580621 
L 191.787208 190.221844 
L 192.171799 190.580555 
L 192.55639 189.114181 
L 192.940981 190.563674 
L 193.325571 190.344228 
L 193.710162 190.525693 
L 194.094753 189.863134 
L 194.479344 190.863303 
L 195.248525 191.20763 
L 195.633116 191.241536 
L 196.017707 191.16101 
L 196.786888 191.779792 
L 197.171479 191.665359 
L 197.55607 192.312583 
L 197.940661 191.822174 
L 198.325251 192.31684 
L 198.709842 192.470074 
L 199.094433 192.380687 
L 199.479024 192.793568 
L 200.248205 192.891467 
L 201.401978 194.20514 
L 201.786568 193.278809 
L 202.171159 194.15384 
L 202.55575 194.542726 
L 202.940341 194.051242 
L 203.324931 195.32844 
L 203.709522 195.668094 
L 204.094113 195.443856 
L 204.478704 195.075122 
L 204.863294 196.202814 
L 205.247885 195.982889 
L 205.632476 195.957015 
L 206.017067 196.959254 
L 206.401658 196.712377 
L 206.786248 196.76002 
L 207.170839 197.210463 
L 207.55543 196.482825 
L 207.940021 198.07038 
L 208.324611 197.513547 
L 208.709202 197.465694 
L 209.093793 198.205238 
L 209.862974 197.461344 
L 210.247565 198.24874 
L 210.632156 198.496587 
L 211.016747 198.126933 
L 211.401338 198.483478 
L 211.785928 198.597085 
L 212.170519 197.375047 
L 212.55511 197.522247 
L 212.939701 198.452892 
L 213.324291 198.81556 
L 213.708882 197.974674 
L 214.093473 198.951015 
L 214.478064 199.16949 
L 214.862654 199.598087 
L 215.247245 198.701953 
L 215.631836 198.618933 
L 216.016427 198.109532 
L 216.401018 199.186968 
L 216.785608 198.305293 
L 217.170199 198.531543 
L 217.55479 198.261791 
L 217.939381 199.470808 
L 218.323971 197.504846 
L 218.708562 197.700608 
L 219.093153 198.092131 
L 219.477744 198.131283 
L 219.862334 197.892019 
L 220.246925 198.741279 
L 220.631516 197.258106 
L 221.016107 198.222639 
L 221.400698 197.626654 
L 221.785288 197.366385 
L 222.169879 198.487848 
L 222.55447 197.002566 
L 223.323651 198.514065 
L 223.708242 196.777345 
L 224.092833 197.661456 
L 224.477424 195.974264 
L 224.862014 196.889956 
L 225.246605 195.888019 
L 226.015787 197.791963 
L 226.400378 196.306308 
L 226.784968 196.837981 
L 227.169559 195.944078 
L 227.55415 196.513143 
L 227.938741 195.624971 
L 228.323331 195.392842 
L 228.707922 195.581848 
L 229.092513 195.461105 
L 229.477104 196.846644 
L 229.861694 196.228688 
L 230.246285 195.918205 
L 230.630876 196.245937 
L 231.015467 194.650064 
L 231.400058 195.780212 
L 231.784648 195.32844 
L 232.169239 195.715528 
L 232.55383 194.111091 
L 232.938421 195.54735 
L 233.323011 196.064822 
L 233.707602 195.60341 
L 234.092193 196.383929 
L 234.476784 195.823335 
L 234.861374 195.006426 
L 235.245965 195.34132 
L 235.630556 195.952703 
L 236.015147 195.452951 
L 236.399738 196.151067 
L 236.784328 196.36668 
L 237.168919 195.367081 
L 237.55351 196.189877 
L 237.938101 195.991513 
L 238.322691 195.521477 
L 238.707282 196.211439 
L 239.091873 196.017387 
L 239.861054 196.414115 
L 240.245645 195.90958 
L 240.630236 195.991513 
L 241.014827 195.384255 
L 241.399418 195.50854 
L 241.784008 196.280435 
L 242.168599 197.761512 
L 242.55319 196.04326 
L 242.937781 196.950592 
L 243.322371 197.418359 
L 243.706962 197.517897 
L 244.091553 197.136833 
L 244.476144 196.030324 
L 244.860734 197.106514 
L 245.245325 197.34906 
L 245.629916 197.992075 
L 246.399098 197.440015 
L 246.783688 197.409697 
L 247.168279 197.154157 
L 247.55287 198.222639 
L 247.937461 198.209588 
L 248.322051 197.748461 
L 248.706642 197.058871 
L 249.091233 197.748461 
L 249.475824 197.870268 
L 249.860414 198.113882 
L 250.245005 197.90942 
L 250.629596 197.219125 
L 251.014187 198.026877 
L 251.398778 198.41405 
L 251.783368 197.809364 
L 252.167959 198.122583 
L 252.55255 198.754387 
L 252.937141 198.039928 
L 253.321731 198.279192 
L 253.706322 198.009476 
L 253.706322 198.009476 
" style="fill:none;stroke:#d62728;stroke-linecap:square;stroke-width:1.5;"/>
   </g>
   <g id="line2d_28">
    <defs>
     <path d="M 0 3 
C 0.795609 3 1.55874 2.683901 2.12132 2.12132 
C 2.683901 1.55874 3 0.795609 3 0 
C 3 -0.795609 2.683901 -1.55874 2.12132 -2.12132 
C 1.55874 -2.683901 0.795609 -3 0 -3 
C -0.795609 -3 -1.55874 -2.683901 -2.12132 -2.12132 
C -2.683901 -1.55874 -3 -0.795609 -3 0 
C -3 0.795609 -2.683901 1.55874 -2.12132 2.12132 
C -1.55874 2.683901 -0.795609 3 0 3 
z
" id="mcb2457e3ba" style="stroke:#1f77b4;"/>
    </defs>
    <g clip-path="url(#pcd39df9889)">
     <use style="fill:#1f77b4;stroke:#1f77b4;" x="61.410938" xlink:href="#mcb2457e3ba" y="296.95689"/>
     <use style="fill:#1f77b4;stroke:#1f77b4;" x="73.086014" xlink:href="#mcb2457e3ba" y="240.702729"/>
     <use style="fill:#1f77b4;stroke:#1f77b4;" x="84.761091" xlink:href="#mcb2457e3ba" y="158.072882"/>
     <use style="fill:#1f77b4;stroke:#1f77b4;" x="96.436168" xlink:href="#mcb2457e3ba" y="83.454028"/>
     <use style="fill:#1f77b4;stroke:#1f77b4;" x="108.111245" xlink:href="#mcb2457e3ba" y="96.258404"/>
     <use style="fill:#1f77b4;stroke:#1f77b4;" x="119.786322" xlink:href="#mcb2457e3ba" y="138.683974"/>
     <use style="fill:#1f77b4;stroke:#1f77b4;" x="131.461399" xlink:href="#mcb2457e3ba" y="239.411169"/>
     <use style="fill:#1f77b4;stroke:#1f77b4;" x="143.136476" xlink:href="#mcb2457e3ba" y="261.31425"/>
     <use style="fill:#1f77b4;stroke:#1f77b4;" x="154.811553" xlink:href="#mcb2457e3ba" y="210.176714"/>
     <use style="fill:#1f77b4;stroke:#1f77b4;" x="166.48663" xlink:href="#mcb2457e3ba" y="149.233534"/>
     <use style="fill:#1f77b4;stroke:#1f77b4;" x="178.161707" xlink:href="#mcb2457e3ba" y="76.591001"/>
     <use style="fill:#1f77b4;stroke:#1f77b4;" x="189.836784" xlink:href="#mcb2457e3ba" y="81.33225"/>
     <use style="fill:#1f77b4;stroke:#1f77b4;" x="201.511861" xlink:href="#mcb2457e3ba" y="163.288123"/>
     <use style="fill:#1f77b4;stroke:#1f77b4;" x="213.186938" xlink:href="#mcb2457e3ba" y="240.604792"/>
     <use style="fill:#1f77b4;stroke:#1f77b4;" x="224.862014" xlink:href="#mcb2457e3ba" y="248.58825"/>
     <use style="fill:#1f77b4;stroke:#1f77b4;" x="236.537091" xlink:href="#mcb2457e3ba" y="195.245759"/>
     <use style="fill:#1f77b4;stroke:#1f77b4;" x="248.212168" xlink:href="#mcb2457e3ba" y="119.515574"/>
     <use style="fill:#1f77b4;stroke:#1f77b4;" x="259.887245" xlink:href="#mcb2457e3ba" y="82.56425"/>
     <use style="fill:#1f77b4;stroke:#1f77b4;" x="271.562322" xlink:href="#mcb2457e3ba" y="96.472591"/>
     <use style="fill:#1f77b4;stroke:#1f77b4;" x="283.237399" xlink:href="#mcb2457e3ba" y="165.67497"/>
     <use style="fill:#1f77b4;stroke:#1f77b4;" x="294.912476" xlink:href="#mcb2457e3ba" y="231.324031"/>
     <use style="fill:#1f77b4;stroke:#1f77b4;" x="306.587553" xlink:href="#mcb2457e3ba" y="237.11865"/>
     <use style="fill:#1f77b4;stroke:#1f77b4;" x="318.26263" xlink:href="#mcb2457e3ba" y="195.931642"/>
     <use style="fill:#1f77b4;stroke:#1f77b4;" x="329.937707" xlink:href="#mcb2457e3ba" y="137.006504"/>
     <use style="fill:#1f77b4;stroke:#1f77b4;" x="341.612784" xlink:href="#mcb2457e3ba" y="98.56905"/>
     <use style="fill:#1f77b4;stroke:#1f77b4;" x="353.287861" xlink:href="#mcb2457e3ba" y="120.344637"/>
     <use style="fill:#1f77b4;stroke:#1f77b4;" x="364.962938" xlink:href="#mcb2457e3ba" y="167.601035"/>
     <use style="fill:#1f77b4;stroke:#1f77b4;" x="376.638014" xlink:href="#mcb2457e3ba" y="233.969767"/>
     <use style="fill:#1f77b4;stroke:#1f77b4;" x="388.313091" xlink:href="#mcb2457e3ba" y="227.073674"/>
     <use style="fill:#1f77b4;stroke:#1f77b4;" x="399.988168" xlink:href="#mcb2457e3ba" y="204.350435"/>
     <use style="fill:#1f77b4;stroke:#1f77b4;" x="411.663245" xlink:href="#mcb2457e3ba" y="135.060508"/>
    </g>
   </g>
   <g id="line2d_29">
    <defs>
     <path d="M 0 3 
C 0.795609 3 1.55874 2.683901 2.12132 2.12132 
C 2.683901 1.55874 3 0.795609 3 0 
C 3 -0.795609 2.683901 -1.55874 2.12132 -2.12132 
C 1.55874 -2.683901 0.795609 -3 0 -3 
C -0.795609 -3 -1.55874 -2.683901 -2.12132 -2.12132 
C -2.683901 -1.55874 -3 -0.795609 -3 0 
C -3 0.795609 -2.683901 1.55874 -2.12132 2.12132 
C -1.55874 2.683901 -0.795609 3 0 3 
z
" id="m4d17eb6f4c" style="stroke:#d62728;"/>
    </defs>
    <g clip-path="url(#pcd39df9889)">
     <use style="fill:#d62728;stroke:#d62728;" x="61.410938" xlink:href="#m4d17eb6f4c" y="289.822418"/>
     <use style="fill:#d62728;stroke:#d62728;" x="73.086014" xlink:href="#m4d17eb6f4c" y="255.400076"/>
     <use style="fill:#d62728;stroke:#d62728;" x="84.761091" xlink:href="#m4d17eb6f4c" y="180.36825"/>
     <use style="fill:#d62728;stroke:#d62728;" x="96.436168" xlink:href="#m4d17eb6f4c" y="202.078691"/>
     <use style="fill:#d62728;stroke:#d62728;" x="108.111245" xlink:href="#m4d17eb6f4c" y="218.367686"/>
     <use style="fill:#d62728;stroke:#d62728;" x="119.786322" xlink:href="#m4d17eb6f4c" y="217.403408"/>
     <use style="fill:#d62728;stroke:#d62728;" x="131.461399" xlink:href="#m4d17eb6f4c" y="205.025866"/>
     <use style="fill:#d62728;stroke:#d62728;" x="143.136476" xlink:href="#m4d17eb6f4c" y="181.95585"/>
     <use style="fill:#d62728;stroke:#d62728;" x="154.811553" xlink:href="#m4d17eb6f4c" y="207.440706"/>
     <use style="fill:#d62728;stroke:#d62728;" x="166.48663" xlink:href="#m4d17eb6f4c" y="198.147591"/>
     <use style="fill:#d62728;stroke:#d62728;" x="178.161707" xlink:href="#m4d17eb6f4c" y="187.565545"/>
     <use style="fill:#d62728;stroke:#d62728;" x="189.836784" xlink:href="#m4d17eb6f4c" y="169.160882"/>
     <use style="fill:#d62728;stroke:#d62728;" x="201.511861" xlink:href="#m4d17eb6f4c" y="190.27185"/>
     <use style="fill:#d62728;stroke:#d62728;" x="213.186938" xlink:href="#m4d17eb6f4c" y="197.538838"/>
     <use style="fill:#d62728;stroke:#d62728;" x="224.862014" xlink:href="#m4d17eb6f4c" y="181.573764"/>
     <use style="fill:#d62728;stroke:#d62728;" x="236.537091" xlink:href="#m4d17eb6f4c" y="180.492655"/>
    </g>
   </g>
   <g id="patch_3">
    <path d="M 61.410938 297.54825 
L 61.410938 31.43625 
" style="fill:none;stroke:#000000;stroke-linecap:square;stroke-linejoin:miter;stroke-width:0.8;"/>
   </g>
   <g id="patch_4">
    <path d="M 418.530938 297.54825 
L 418.530938 31.43625 
" style="fill:none;stroke:#000000;stroke-linecap:square;stroke-linejoin:miter;stroke-width:0.8;"/>
   </g>
   <g id="patch_5">
    <path d="M 61.410938 297.54825 
L 418.530938 297.54825 
" style="fill:none;stroke:#000000;stroke-linecap:square;stroke-linejoin:miter;stroke-width:0.8;"/>
   </g>
   <g id="patch_6">
    <path d="M 61.410938 31.43625 
L 418.530938 31.43625 
" style="fill:none;stroke:#000000;stroke-linecap:square;stroke-linejoin:miter;stroke-width:0.8;"/>
   </g>
   <g id="text_15">
    <!-- (C) -->
    <defs>
     <path d="M 64.40625 67.28125 
L 64.40625 56.890625 
Q 59.421875 61.53125 53.78125 63.8125 
Q 48.140625 66.109375 41.796875 66.109375 
Q 29.296875 66.109375 22.65625 58.46875 
Q 16.015625 50.828125 16.015625 36.375 
Q 16.015625 21.96875 22.65625 14.328125 
Q 29.296875 6.6875 41.796875 6.6875 
Q 48.140625 6.6875 53.78125 8.984375 
Q 59.421875 11.28125 64.40625 15.921875 
L 64.40625 5.609375 
Q 59.234375 2.09375 53.4375 0.328125 
Q 47.65625 -1.421875 41.21875 -1.421875 
Q 24.65625 -1.421875 15.125 8.703125 
Q 5.609375 18.84375 5.609375 36.375 
Q 5.609375 53.953125 15.125 64.078125 
Q 24.65625 74.21875 41.21875 74.21875 
Q 47.75 74.21875 53.53125 72.484375 
Q 59.328125 70.75 64.40625 67.28125 
z
" id="DejaVuSans-43"/>
    </defs>
    <g transform="translate(380.071861 58.04745)scale(0.2 -0.2)">
     <use xlink:href="#DejaVuSans-28"/>
     <use x="39.013672" xlink:href="#DejaVuSans-43"/>
     <use x="108.837891" xlink:href="#DejaVuSans-29"/>
    </g>
   </g>
   <g id="text_16">
    <!-- Z heating -->
    <defs>
     <path d="M 5.609375 72.90625 
L 62.890625 72.90625 
L 62.890625 65.375 
L 16.796875 8.296875 
L 64.015625 8.296875 
L 64.015625 0 
L 4.5 0 
L 4.5 7.515625 
L 50.59375 64.59375 
L 5.609375 64.59375 
z
" id="DejaVuSans-5a"/>
     <path d="M 54.890625 33.015625 
L 54.890625 0 
L 45.90625 0 
L 45.90625 32.71875 
Q 45.90625 40.484375 42.875 44.328125 
Q 39.84375 48.1875 33.796875 48.1875 
Q 26.515625 48.1875 22.3125 43.546875 
Q 18.109375 38.921875 18.109375 30.90625 
L 18.109375 0 
L 9.078125 0 
L 9.078125 75.984375 
L 18.109375 75.984375 
L 18.109375 46.1875 
Q 21.34375 51.125 25.703125 53.5625 
Q 30.078125 56 35.796875 56 
Q 45.21875 56 50.046875 50.171875 
Q 54.890625 44.34375 54.890625 33.015625 
z
" id="DejaVuSans-68"/>
     <path d="M 18.3125 70.21875 
L 18.3125 54.6875 
L 36.8125 54.6875 
L 36.8125 47.703125 
L 18.3125 47.703125 
L 18.3125 18.015625 
Q 18.3125 11.328125 20.140625 9.421875 
Q 21.96875 7.515625 27.59375 7.515625 
L 36.8125 7.515625 
L 36.8125 0 
L 27.59375 0 
Q 17.1875 0 13.234375 3.875 
Q 9.28125 7.765625 9.28125 18.015625 
L 9.28125 47.703125 
L 2.6875 47.703125 
L 2.6875 54.6875 
L 9.28125 54.6875 
L 9.28125 70.21875 
z
" id="DejaVuSans-74"/>
     <path d="M 54.890625 33.015625 
L 54.890625 0 
L 45.90625 0 
L 45.90625 32.71875 
Q 45.90625 40.484375 42.875 44.328125 
Q 39.84375 48.1875 33.796875 48.1875 
Q 26.515625 48.1875 22.3125 43.546875 
Q 18.109375 38.921875 18.109375 30.90625 
L 18.109375 0 
L 9.078125 0 
L 9.078125 54.6875 
L 18.109375 54.6875 
L 18.109375 46.1875 
Q 21.34375 51.125 25.703125 53.5625 
Q 30.078125 56 35.796875 56 
Q 45.21875 56 50.046875 50.171875 
Q 54.890625 44.34375 54.890625 33.015625 
z
" id="DejaVuSans-6e"/>
     <path d="M 45.40625 27.984375 
Q 45.40625 37.75 41.375 43.109375 
Q 37.359375 48.484375 30.078125 48.484375 
Q 22.859375 48.484375 18.828125 43.109375 
Q 14.796875 37.75 14.796875 27.984375 
Q 14.796875 18.265625 18.828125 12.890625 
Q 22.859375 7.515625 30.078125 7.515625 
Q 37.359375 7.515625 41.375 12.890625 
Q 45.40625 18.265625 45.40625 27.984375 
z
M 54.390625 6.78125 
Q 54.390625 -7.171875 48.1875 -13.984375 
Q 42 -20.796875 29.203125 -20.796875 
Q 24.46875 -20.796875 20.265625 -20.09375 
Q 16.0625 -19.390625 12.109375 -17.921875 
L 12.109375 -9.1875 
Q 16.0625 -11.328125 19.921875 -12.34375 
Q 23.78125 -13.375 27.78125 -13.375 
Q 36.625 -13.375 41.015625 -8.765625 
Q 45.40625 -4.15625 45.40625 5.171875 
L 45.40625 9.625 
Q 42.625 4.78125 38.28125 2.390625 
Q 33.9375 0 27.875 0 
Q 17.828125 0 11.671875 7.65625 
Q 5.515625 15.328125 5.515625 27.984375 
Q 5.515625 40.671875 11.671875 48.328125 
Q 17.828125 56 27.875 56 
Q 33.9375 56 38.28125 53.609375 
Q 42.625 51.21875 45.40625 46.390625 
L 45.40625 54.6875 
L 54.390625 54.6875 
z
" id="DejaVuSans-67"/>
    </defs>
    <g transform="translate(182.333438 25.43625)scale(0.24 -0.24)">
     <use xlink:href="#DejaVuSans-5a"/>
     <use x="68.505859" xlink:href="#DejaVuSans-20"/>
     <use x="100.292969" xlink:href="#DejaVuSans-68"/>
     <use x="163.671875" xlink:href="#DejaVuSans-65"/>
     <use x="225.195312" xlink:href="#DejaVuSans-61"/>
     <use x="286.474609" xlink:href="#DejaVuSans-74"/>
     <use x="325.683594" xlink:href="#DejaVuSans-69"/>
     <use x="353.466797" xlink:href="#DejaVuSans-6e"/>
     <use x="416.845703" xlink:href="#DejaVuSans-67"/>
    </g>
   </g>
   <g id="legend_1">
    <g id="patch_7">
     <path d="M 296.074687 196.8485 
L 404.530937 196.8485 
Q 408.530937 196.8485 408.530937 192.8485 
L 408.530937 136.136 
Q 408.530937 132.136 404.530937 132.136 
L 296.074687 132.136 
Q 292.074687 132.136 292.074687 136.136 
L 292.074687 192.8485 
Q 292.074687 196.8485 296.074687 196.8485 
z
" style="fill:#ffffff;opacity:0.8;stroke:#cccccc;stroke-linejoin:miter;"/>
    </g>
    <g id="LineCollection_3">
     <path d="M 320.074687 158.332875 
L 320.074687 138.332875 
" style="fill:none;stroke:#1f77b4;stroke-width:1.5;"/>
    </g>
    <g id="line2d_30"/>
    <g id="line2d_31">
     <g>
      <use style="fill:#1f77b4;stroke:#1f77b4;" x="320.074687" xlink:href="#mcb2457e3ba" y="148.332875"/>
     </g>
    </g>
    <g id="text_17">
     <!-- Cold -->
     <defs>
      <path d="M 30.609375 48.390625 
Q 23.390625 48.390625 19.1875 42.75 
Q 14.984375 37.109375 14.984375 27.296875 
Q 14.984375 17.484375 19.15625 11.84375 
Q 23.34375 6.203125 30.609375 6.203125 
Q 37.796875 6.203125 41.984375 11.859375 
Q 46.1875 17.53125 46.1875 27.296875 
Q 46.1875 37.015625 41.984375 42.703125 
Q 37.796875 48.390625 30.609375 48.390625 
z
M 30.609375 56 
Q 42.328125 56 49.015625 48.375 
Q 55.71875 40.765625 55.71875 27.296875 
Q 55.71875 13.875 49.015625 6.21875 
Q 42.328125 -1.421875 30.609375 -1.421875 
Q 18.84375 -1.421875 12.171875 6.21875 
Q 5.515625 13.875 5.515625 27.296875 
Q 5.515625 40.765625 12.171875 48.375 
Q 18.84375 56 30.609375 56 
z
" id="DejaVuSans-6f"/>
      <path d="M 45.40625 46.390625 
L 45.40625 75.984375 
L 54.390625 75.984375 
L 54.390625 0 
L 45.40625 0 
L 45.40625 8.203125 
Q 42.578125 3.328125 38.25 0.953125 
Q 33.9375 -1.421875 27.875 -1.421875 
Q 17.96875 -1.421875 11.734375 6.484375 
Q 5.515625 14.40625 5.515625 27.296875 
Q 5.515625 40.1875 11.734375 48.09375 
Q 17.96875 56 27.875 56 
Q 33.9375 56 38.25 53.625 
Q 42.578125 51.265625 45.40625 46.390625 
z
M 14.796875 27.296875 
Q 14.796875 17.390625 18.875 11.75 
Q 22.953125 6.109375 30.078125 6.109375 
Q 37.203125 6.109375 41.296875 11.75 
Q 45.40625 17.390625 45.40625 27.296875 
Q 45.40625 37.203125 41.296875 42.84375 
Q 37.203125 48.484375 30.078125 48.484375 
Q 22.953125 48.484375 18.875 42.84375 
Q 14.796875 37.203125 14.796875 27.296875 
z
" id="DejaVuSans-64"/>
     </defs>
     <g transform="translate(356.074687 155.332875)scale(0.2 -0.2)">
      <use xlink:href="#DejaVuSans-43"/>
      <use x="69.824219" xlink:href="#DejaVuSans-6f"/>
      <use x="131.005859" xlink:href="#DejaVuSans-6c"/>
      <use x="158.789062" xlink:href="#DejaVuSans-64"/>
     </g>
    </g>
    <g id="LineCollection_4">
     <path d="M 320.074687 187.689125 
L 320.074687 167.689125 
" style="fill:none;stroke:#d62728;stroke-width:1.5;"/>
    </g>
    <g id="line2d_32"/>
    <g id="line2d_33">
     <g>
      <use style="fill:#d62728;stroke:#d62728;" x="320.074687" xlink:href="#m4d17eb6f4c" y="177.689125"/>
     </g>
    </g>
    <g id="text_18">
     <!-- Hot -->
     <defs>
      <path d="M 9.8125 72.90625 
L 19.671875 72.90625 
L 19.671875 43.015625 
L 55.515625 43.015625 
L 55.515625 72.90625 
L 65.375 72.90625 
L 65.375 0 
L 55.515625 0 
L 55.515625 34.71875 
L 19.671875 34.71875 
L 19.671875 0 
L 9.8125 0 
z
" id="DejaVuSans-48"/>
     </defs>
     <g transform="translate(356.074687 184.689125)scale(0.2 -0.2)">
      <use xlink:href="#DejaVuSans-48"/>
      <use x="75.195312" xlink:href="#DejaVuSans-6f"/>
      <use x="136.376953" xlink:href="#DejaVuSans-74"/>
     </g>
    </g>
   </g>
  </g>
 </g>
 <defs>
  <clipPath id="pcd39df9889">
   <rect height="266.112" width="357.12" x="61.410938" y="31.43625"/>
  </clipPath>
 </defs>
</svg>
