<?xml version="1.0" encoding="utf-8" standalone="no"?>
<!DOCTYPE svg PUBLIC "-//W3C//DTD SVG 1.1//EN"
  "http://www.w3.org/Graphics/SVG/1.1/DTD/svg11.dtd">
<!-- Created with matplotlib (http://matplotlib.org/) -->
<svg height="331pt" version="1.1" viewBox="0 0 429 331" width="429pt" xmlns="http://www.w3.org/2000/svg" xmlns:xlink="http://www.w3.org/1999/xlink">
 <defs>
  <style type="text/css">
*{stroke-linecap:butt;stroke-linejoin:round;}
  </style>
 </defs>
 <g id="figure_1">
  <g id="patch_1">
   <path d="M 0 331.128016 
L 429.230937 331.128016 
L 429.230937 0 
L 0 0 
z
" style="fill:none;"/>
  </g>
  <g id="axes_1">
   <g id="patch_2">
    <path d="M 61.410938 279.010828 
L 418.530938 279.010828 
L 418.530938 12.898828 
L 61.410938 12.898828 
z
" style="fill:none;"/>
   </g>
   <g id="matplotlib.axis_1">
    <g id="xtick_1">
     <g id="line2d_1">
      <path clip-path="url(#p304c686b55)" d="M 61.410938 279.010828 
L 61.410938 12.898828 
" style="fill:none;stroke:#b0b0b0;stroke-linecap:square;stroke-width:0.8;"/>
     </g>
     <g id="line2d_2">
      <defs>
       <path d="M 0 0 
L 0 3.5 
" id="m005f0a59be" style="stroke:#000000;stroke-width:0.8;"/>
      </defs>
      <g>
       <use style="stroke:#000000;stroke-width:0.8;" x="61.410938" xlink:href="#m005f0a59be" y="279.010828"/>
      </g>
     </g>
     <g id="text_1">
      <!-- 0 -->
      <defs>
       <path d="M 31.78125 66.40625 
Q 24.171875 66.40625 20.328125 58.90625 
Q 16.5 51.421875 16.5 36.375 
Q 16.5 21.390625 20.328125 13.890625 
Q 24.171875 6.390625 31.78125 6.390625 
Q 39.453125 6.390625 43.28125 13.890625 
Q 47.125 21.390625 47.125 36.375 
Q 47.125 51.421875 43.28125 58.90625 
Q 39.453125 66.40625 31.78125 66.40625 
z
M 31.78125 74.21875 
Q 44.046875 74.21875 50.515625 64.515625 
Q 56.984375 54.828125 56.984375 36.375 
Q 56.984375 17.96875 50.515625 8.265625 
Q 44.046875 -1.421875 31.78125 -1.421875 
Q 19.53125 -1.421875 13.0625 8.265625 
Q 6.59375 17.96875 6.59375 36.375 
Q 6.59375 54.828125 13.0625 64.515625 
Q 19.53125 74.21875 31.78125 74.21875 
z
" id="DejaVuSans-30"/>
      </defs>
      <g transform="translate(56.639063 297.408484)scale(0.15 -0.15)">
       <use xlink:href="#DejaVuSans-30"/>
      </g>
     </g>
    </g>
    <g id="xtick_2">
     <g id="line2d_3">
      <path clip-path="url(#p304c686b55)" d="M 123.410938 279.010828 
L 123.410938 12.898828 
" style="fill:none;stroke:#b0b0b0;stroke-linecap:square;stroke-width:0.8;"/>
     </g>
     <g id="line2d_4">
      <g>
       <use style="stroke:#000000;stroke-width:0.8;" x="123.410938" xlink:href="#m005f0a59be" y="279.010828"/>
      </g>
     </g>
     <g id="text_2">
      <!-- 25 -->
      <defs>
       <path d="M 19.1875 8.296875 
L 53.609375 8.296875 
L 53.609375 0 
L 7.328125 0 
L 7.328125 8.296875 
Q 12.9375 14.109375 22.625 23.890625 
Q 32.328125 33.6875 34.8125 36.53125 
Q 39.546875 41.84375 41.421875 45.53125 
Q 43.3125 49.21875 43.3125 52.78125 
Q 43.3125 58.59375 39.234375 62.25 
Q 35.15625 65.921875 28.609375 65.921875 
Q 23.96875 65.921875 18.8125 64.3125 
Q 13.671875 62.703125 7.8125 59.421875 
L 7.8125 69.390625 
Q 13.765625 71.78125 18.9375 73 
Q 24.125 74.21875 28.421875 74.21875 
Q 39.75 74.21875 46.484375 68.546875 
Q 53.21875 62.890625 53.21875 53.421875 
Q 53.21875 48.921875 51.53125 44.890625 
Q 49.859375 40.875 45.40625 35.40625 
Q 44.1875 33.984375 37.640625 27.21875 
Q 31.109375 20.453125 19.1875 8.296875 
z
" id="DejaVuSans-32"/>
       <path d="M 10.796875 72.90625 
L 49.515625 72.90625 
L 49.515625 64.59375 
L 19.828125 64.59375 
L 19.828125 46.734375 
Q 21.96875 47.46875 24.109375 47.828125 
Q 26.265625 48.1875 28.421875 48.1875 
Q 40.625 48.1875 47.75 41.5 
Q 54.890625 34.8125 54.890625 23.390625 
Q 54.890625 11.625 47.5625 5.09375 
Q 40.234375 -1.421875 26.90625 -1.421875 
Q 22.3125 -1.421875 17.546875 -0.640625 
Q 12.796875 0.140625 7.71875 1.703125 
L 7.71875 11.625 
Q 12.109375 9.234375 16.796875 8.0625 
Q 21.484375 6.890625 26.703125 6.890625 
Q 35.15625 6.890625 40.078125 11.328125 
Q 45.015625 15.765625 45.015625 23.390625 
Q 45.015625 31 40.078125 35.4375 
Q 35.15625 39.890625 26.703125 39.890625 
Q 22.75 39.890625 18.8125 39.015625 
Q 14.890625 38.140625 10.796875 36.28125 
z
" id="DejaVuSans-35"/>
      </defs>
      <g transform="translate(113.867188 297.408484)scale(0.15 -0.15)">
       <use xlink:href="#DejaVuSans-32"/>
       <use x="63.623047" xlink:href="#DejaVuSans-35"/>
      </g>
     </g>
    </g>
    <g id="xtick_3">
     <g id="line2d_5">
      <path clip-path="url(#p304c686b55)" d="M 185.410938 279.010828 
L 185.410938 12.898828 
" style="fill:none;stroke:#b0b0b0;stroke-linecap:square;stroke-width:0.8;"/>
     </g>
     <g id="line2d_6">
      <g>
       <use style="stroke:#000000;stroke-width:0.8;" x="185.410938" xlink:href="#m005f0a59be" y="279.010828"/>
      </g>
     </g>
     <g id="text_3">
      <!-- 50 -->
      <g transform="translate(175.867188 297.408484)scale(0.15 -0.15)">
       <use xlink:href="#DejaVuSans-35"/>
       <use x="63.623047" xlink:href="#DejaVuSans-30"/>
      </g>
     </g>
    </g>
    <g id="xtick_4">
     <g id="line2d_7">
      <path clip-path="url(#p304c686b55)" d="M 247.410938 279.010828 
L 247.410938 12.898828 
" style="fill:none;stroke:#b0b0b0;stroke-linecap:square;stroke-width:0.8;"/>
     </g>
     <g id="line2d_8">
      <g>
       <use style="stroke:#000000;stroke-width:0.8;" x="247.410938" xlink:href="#m005f0a59be" y="279.010828"/>
      </g>
     </g>
     <g id="text_4">
      <!-- 75 -->
      <defs>
       <path d="M 8.203125 72.90625 
L 55.078125 72.90625 
L 55.078125 68.703125 
L 28.609375 0 
L 18.3125 0 
L 43.21875 64.59375 
L 8.203125 64.59375 
z
" id="DejaVuSans-37"/>
      </defs>
      <g transform="translate(237.867188 297.408484)scale(0.15 -0.15)">
       <use xlink:href="#DejaVuSans-37"/>
       <use x="63.623047" xlink:href="#DejaVuSans-35"/>
      </g>
     </g>
    </g>
    <g id="xtick_5">
     <g id="line2d_9">
      <path clip-path="url(#p304c686b55)" d="M 309.410938 279.010828 
L 309.410938 12.898828 
" style="fill:none;stroke:#b0b0b0;stroke-linecap:square;stroke-width:0.8;"/>
     </g>
     <g id="line2d_10">
      <g>
       <use style="stroke:#000000;stroke-width:0.8;" x="309.410938" xlink:href="#m005f0a59be" y="279.010828"/>
      </g>
     </g>
     <g id="text_5">
      <!-- 100 -->
      <defs>
       <path d="M 12.40625 8.296875 
L 28.515625 8.296875 
L 28.515625 63.921875 
L 10.984375 60.40625 
L 10.984375 69.390625 
L 28.421875 72.90625 
L 38.28125 72.90625 
L 38.28125 8.296875 
L 54.390625 8.296875 
L 54.390625 0 
L 12.40625 0 
z
" id="DejaVuSans-31"/>
      </defs>
      <g transform="translate(295.095313 297.408484)scale(0.15 -0.15)">
       <use xlink:href="#DejaVuSans-31"/>
       <use x="63.623047" xlink:href="#DejaVuSans-30"/>
       <use x="127.246094" xlink:href="#DejaVuSans-30"/>
      </g>
     </g>
    </g>
    <g id="xtick_6">
     <g id="line2d_11">
      <path clip-path="url(#p304c686b55)" d="M 371.410938 279.010828 
L 371.410938 12.898828 
" style="fill:none;stroke:#b0b0b0;stroke-linecap:square;stroke-width:0.8;"/>
     </g>
     <g id="line2d_12">
      <g>
       <use style="stroke:#000000;stroke-width:0.8;" x="371.410938" xlink:href="#m005f0a59be" y="279.010828"/>
      </g>
     </g>
     <g id="text_6">
      <!-- 125 -->
      <g transform="translate(357.095313 297.408484)scale(0.15 -0.15)">
       <use xlink:href="#DejaVuSans-31"/>
       <use x="63.623047" xlink:href="#DejaVuSans-32"/>
       <use x="127.246094" xlink:href="#DejaVuSans-35"/>
      </g>
     </g>
    </g>
    <g id="text_7">
     <!-- Time ($\mu s$) -->
     <defs>
      <path d="M -0.296875 72.90625 
L 61.375 72.90625 
L 61.375 64.59375 
L 35.5 64.59375 
L 35.5 0 
L 25.59375 0 
L 25.59375 64.59375 
L -0.296875 64.59375 
z
" id="DejaVuSans-54"/>
      <path d="M 9.421875 54.6875 
L 18.40625 54.6875 
L 18.40625 0 
L 9.421875 0 
z
M 9.421875 75.984375 
L 18.40625 75.984375 
L 18.40625 64.59375 
L 9.421875 64.59375 
z
" id="DejaVuSans-69"/>
      <path d="M 52 44.1875 
Q 55.375 50.25 60.0625 53.125 
Q 64.75 56 71.09375 56 
Q 79.640625 56 84.28125 50.015625 
Q 88.921875 44.046875 88.921875 33.015625 
L 88.921875 0 
L 79.890625 0 
L 79.890625 32.71875 
Q 79.890625 40.578125 77.09375 44.375 
Q 74.3125 48.1875 68.609375 48.1875 
Q 61.625 48.1875 57.5625 43.546875 
Q 53.515625 38.921875 53.515625 30.90625 
L 53.515625 0 
L 44.484375 0 
L 44.484375 32.71875 
Q 44.484375 40.625 41.703125 44.40625 
Q 38.921875 48.1875 33.109375 48.1875 
Q 26.21875 48.1875 22.15625 43.53125 
Q 18.109375 38.875 18.109375 30.90625 
L 18.109375 0 
L 9.078125 0 
L 9.078125 54.6875 
L 18.109375 54.6875 
L 18.109375 46.1875 
Q 21.1875 51.21875 25.484375 53.609375 
Q 29.78125 56 35.6875 56 
Q 41.65625 56 45.828125 52.96875 
Q 50 49.953125 52 44.1875 
z
" id="DejaVuSans-6d"/>
      <path d="M 56.203125 29.59375 
L 56.203125 25.203125 
L 14.890625 25.203125 
Q 15.484375 15.921875 20.484375 11.0625 
Q 25.484375 6.203125 34.421875 6.203125 
Q 39.59375 6.203125 44.453125 7.46875 
Q 49.3125 8.734375 54.109375 11.28125 
L 54.109375 2.78125 
Q 49.265625 0.734375 44.1875 -0.34375 
Q 39.109375 -1.421875 33.890625 -1.421875 
Q 20.796875 -1.421875 13.15625 6.1875 
Q 5.515625 13.8125 5.515625 26.8125 
Q 5.515625 40.234375 12.765625 48.109375 
Q 20.015625 56 32.328125 56 
Q 43.359375 56 49.78125 48.890625 
Q 56.203125 41.796875 56.203125 29.59375 
z
M 47.21875 32.234375 
Q 47.125 39.59375 43.09375 43.984375 
Q 39.0625 48.390625 32.421875 48.390625 
Q 24.90625 48.390625 20.390625 44.140625 
Q 15.875 39.890625 15.1875 32.171875 
z
" id="DejaVuSans-65"/>
      <path id="DejaVuSans-20"/>
      <path d="M 31 75.875 
Q 24.46875 64.65625 21.28125 53.65625 
Q 18.109375 42.671875 18.109375 31.390625 
Q 18.109375 20.125 21.3125 9.0625 
Q 24.515625 -2 31 -13.1875 
L 23.1875 -13.1875 
Q 15.875 -1.703125 12.234375 9.375 
Q 8.59375 20.453125 8.59375 31.390625 
Q 8.59375 42.28125 12.203125 53.3125 
Q 15.828125 64.359375 23.1875 75.875 
z
" id="DejaVuSans-28"/>
      <path d="M -1.3125 -20.796875 
L 13.375 54.6875 
L 22.40625 54.6875 
L 15.765625 20.65625 
Q 15.578125 19.625 15.421875 18.359375 
Q 15.28125 17.09375 15.28125 15.828125 
Q 15.28125 11.28125 18.140625 8.828125 
Q 21 6.390625 26.3125 6.390625 
Q 33.546875 6.390625 37.984375 10.484375 
Q 42.4375 14.59375 44 22.796875 
L 50.203125 54.6875 
L 59.1875 54.6875 
L 51.03125 12.640625 
Q 50.828125 11.71875 50.75 11.03125 
Q 50.6875 10.359375 50.6875 9.8125 
Q 50.6875 8.296875 51.296875 7.59375 
Q 51.90625 6.890625 53.21875 6.890625 
Q 53.71875 6.890625 54.5625 7.125 
Q 55.421875 7.375 56.984375 8.015625 
L 55.609375 0.78125 
Q 53.46875 -0.296875 51.515625 -0.859375 
Q 49.5625 -1.421875 47.703125 -1.421875 
Q 44.484375 -1.421875 42.65625 0.625 
Q 40.828125 2.6875 40.828125 6.296875 
Q 38.09375 2.390625 34.296875 0.484375 
Q 30.515625 -1.421875 25.390625 -1.421875 
Q 20.84375 -1.421875 17.453125 0.671875 
Q 14.0625 2.78125 12.984375 6.203125 
L 7.71875 -20.796875 
z
" id="DejaVuSans-Oblique-3bc"/>
      <path d="M 50 53.078125 
L 48.296875 44.578125 
Q 44.734375 46.53125 40.765625 47.5 
Q 36.8125 48.484375 32.625 48.484375 
Q 25.53125 48.484375 21.453125 46.0625 
Q 17.390625 43.65625 17.390625 39.5 
Q 17.390625 34.671875 26.859375 32.078125 
Q 27.59375 31.890625 27.9375 31.78125 
L 30.8125 30.90625 
Q 39.796875 28.421875 42.796875 25.6875 
Q 45.796875 22.953125 45.796875 18.21875 
Q 45.796875 9.515625 38.890625 4.046875 
Q 31.984375 -1.421875 20.796875 -1.421875 
Q 16.453125 -1.421875 11.671875 -0.578125 
Q 6.890625 0.25 1.125 2 
L 2.875 11.28125 
Q 7.8125 8.734375 12.59375 7.421875 
Q 17.390625 6.109375 21.78125 6.109375 
Q 28.375 6.109375 32.5 8.9375 
Q 36.625 11.765625 36.625 16.109375 
Q 36.625 20.796875 25.78125 23.6875 
L 24.859375 23.921875 
L 21.78125 24.703125 
Q 14.9375 26.515625 11.765625 29.46875 
Q 8.59375 32.421875 8.59375 37.015625 
Q 8.59375 45.75 15.15625 50.875 
Q 21.734375 56 33.015625 56 
Q 37.453125 56 41.671875 55.265625 
Q 45.90625 54.546875 50 53.078125 
z
" id="DejaVuSans-Oblique-73"/>
      <path d="M 8.015625 75.875 
L 15.828125 75.875 
Q 23.140625 64.359375 26.78125 53.3125 
Q 30.421875 42.28125 30.421875 31.390625 
Q 30.421875 20.453125 26.78125 9.375 
Q 23.140625 -1.703125 15.828125 -13.1875 
L 8.015625 -13.1875 
Q 14.5 -2 17.703125 9.0625 
Q 20.90625 20.125 20.90625 31.390625 
Q 20.90625 42.671875 17.703125 53.65625 
Q 14.5 64.65625 8.015625 75.875 
z
" id="DejaVuSans-29"/>
     </defs>
     <g transform="translate(192.570938 319.728016)scale(0.2 -0.2)">
      <use transform="translate(0 0.015625)" xlink:href="#DejaVuSans-54"/>
      <use transform="translate(61.083984 0.015625)" xlink:href="#DejaVuSans-69"/>
      <use transform="translate(88.867188 0.015625)" xlink:href="#DejaVuSans-6d"/>
      <use transform="translate(186.279297 0.015625)" xlink:href="#DejaVuSans-65"/>
      <use transform="translate(247.802734 0.015625)" xlink:href="#DejaVuSans-20"/>
      <use transform="translate(279.589844 0.015625)" xlink:href="#DejaVuSans-28"/>
      <use transform="translate(318.603516 0.015625)" xlink:href="#DejaVuSans-Oblique-3bc"/>
      <use transform="translate(382.226562 0.015625)" xlink:href="#DejaVuSans-Oblique-73"/>
      <use transform="translate(434.326172 0.015625)" xlink:href="#DejaVuSans-29"/>
     </g>
    </g>
   </g>
   <g id="matplotlib.axis_2">
    <g id="ytick_1">
     <g id="line2d_13">
      <path clip-path="url(#p304c686b55)" d="M 61.410938 279.010828 
L 418.530938 279.010828 
" style="fill:none;stroke:#b0b0b0;stroke-linecap:square;stroke-width:0.8;"/>
     </g>
     <g id="line2d_14">
      <defs>
       <path d="M 0 0 
L -3.5 0 
" id="mc3ce260a5b" style="stroke:#000000;stroke-width:0.8;"/>
      </defs>
      <g>
       <use style="stroke:#000000;stroke-width:0.8;" x="61.410938" xlink:href="#mc3ce260a5b" y="279.010828"/>
      </g>
     </g>
     <g id="text_8">
      <!-- 0.0 -->
      <defs>
       <path d="M 10.6875 12.40625 
L 21 12.40625 
L 21 0 
L 10.6875 0 
z
" id="DejaVuSans-2e"/>
      </defs>
      <g transform="translate(30.55625 284.709656)scale(0.15 -0.15)">
       <use xlink:href="#DejaVuSans-30"/>
       <use x="63.623047" xlink:href="#DejaVuSans-2e"/>
       <use x="95.410156" xlink:href="#DejaVuSans-30"/>
      </g>
     </g>
    </g>
    <g id="ytick_2">
     <g id="line2d_15">
      <path clip-path="url(#p304c686b55)" d="M 61.410938 225.788428 
L 418.530938 225.788428 
" style="fill:none;stroke:#b0b0b0;stroke-linecap:square;stroke-width:0.8;"/>
     </g>
     <g id="line2d_16">
      <g>
       <use style="stroke:#000000;stroke-width:0.8;" x="61.410938" xlink:href="#mc3ce260a5b" y="225.788428"/>
      </g>
     </g>
     <g id="text_9">
      <!-- 0.2 -->
      <g transform="translate(30.55625 231.487256)scale(0.15 -0.15)">
       <use xlink:href="#DejaVuSans-30"/>
       <use x="63.623047" xlink:href="#DejaVuSans-2e"/>
       <use x="95.410156" xlink:href="#DejaVuSans-32"/>
      </g>
     </g>
    </g>
    <g id="ytick_3">
     <g id="line2d_17">
      <path clip-path="url(#p304c686b55)" d="M 61.410938 172.566028 
L 418.530938 172.566028 
" style="fill:none;stroke:#b0b0b0;stroke-linecap:square;stroke-width:0.8;"/>
     </g>
     <g id="line2d_18">
      <g>
       <use style="stroke:#000000;stroke-width:0.8;" x="61.410938" xlink:href="#mc3ce260a5b" y="172.566028"/>
      </g>
     </g>
     <g id="text_10">
      <!-- 0.4 -->
      <defs>
       <path d="M 37.796875 64.3125 
L 12.890625 25.390625 
L 37.796875 25.390625 
z
M 35.203125 72.90625 
L 47.609375 72.90625 
L 47.609375 25.390625 
L 58.015625 25.390625 
L 58.015625 17.1875 
L 47.609375 17.1875 
L 47.609375 0 
L 37.796875 0 
L 37.796875 17.1875 
L 4.890625 17.1875 
L 4.890625 26.703125 
z
" id="DejaVuSans-34"/>
      </defs>
      <g transform="translate(30.55625 178.264856)scale(0.15 -0.15)">
       <use xlink:href="#DejaVuSans-30"/>
       <use x="63.623047" xlink:href="#DejaVuSans-2e"/>
       <use x="95.410156" xlink:href="#DejaVuSans-34"/>
      </g>
     </g>
    </g>
    <g id="ytick_4">
     <g id="line2d_19">
      <path clip-path="url(#p304c686b55)" d="M 61.410938 119.343628 
L 418.530938 119.343628 
" style="fill:none;stroke:#b0b0b0;stroke-linecap:square;stroke-width:0.8;"/>
     </g>
     <g id="line2d_20">
      <g>
       <use style="stroke:#000000;stroke-width:0.8;" x="61.410938" xlink:href="#mc3ce260a5b" y="119.343628"/>
      </g>
     </g>
     <g id="text_11">
      <!-- 0.6 -->
      <defs>
       <path d="M 33.015625 40.375 
Q 26.375 40.375 22.484375 35.828125 
Q 18.609375 31.296875 18.609375 23.390625 
Q 18.609375 15.53125 22.484375 10.953125 
Q 26.375 6.390625 33.015625 6.390625 
Q 39.65625 6.390625 43.53125 10.953125 
Q 47.40625 15.53125 47.40625 23.390625 
Q 47.40625 31.296875 43.53125 35.828125 
Q 39.65625 40.375 33.015625 40.375 
z
M 52.59375 71.296875 
L 52.59375 62.3125 
Q 48.875 64.0625 45.09375 64.984375 
Q 41.3125 65.921875 37.59375 65.921875 
Q 27.828125 65.921875 22.671875 59.328125 
Q 17.53125 52.734375 16.796875 39.40625 
Q 19.671875 43.65625 24.015625 45.921875 
Q 28.375 48.1875 33.59375 48.1875 
Q 44.578125 48.1875 50.953125 41.515625 
Q 57.328125 34.859375 57.328125 23.390625 
Q 57.328125 12.15625 50.6875 5.359375 
Q 44.046875 -1.421875 33.015625 -1.421875 
Q 20.359375 -1.421875 13.671875 8.265625 
Q 6.984375 17.96875 6.984375 36.375 
Q 6.984375 53.65625 15.1875 63.9375 
Q 23.390625 74.21875 37.203125 74.21875 
Q 40.921875 74.21875 44.703125 73.484375 
Q 48.484375 72.75 52.59375 71.296875 
z
" id="DejaVuSans-36"/>
      </defs>
      <g transform="translate(30.55625 125.042456)scale(0.15 -0.15)">
       <use xlink:href="#DejaVuSans-30"/>
       <use x="63.623047" xlink:href="#DejaVuSans-2e"/>
       <use x="95.410156" xlink:href="#DejaVuSans-36"/>
      </g>
     </g>
    </g>
    <g id="ytick_5">
     <g id="line2d_21">
      <path clip-path="url(#p304c686b55)" d="M 61.410938 66.121228 
L 418.530938 66.121228 
" style="fill:none;stroke:#b0b0b0;stroke-linecap:square;stroke-width:0.8;"/>
     </g>
     <g id="line2d_22">
      <g>
       <use style="stroke:#000000;stroke-width:0.8;" x="61.410938" xlink:href="#mc3ce260a5b" y="66.121228"/>
      </g>
     </g>
     <g id="text_12">
      <!-- 0.8 -->
      <defs>
       <path d="M 31.78125 34.625 
Q 24.75 34.625 20.71875 30.859375 
Q 16.703125 27.09375 16.703125 20.515625 
Q 16.703125 13.921875 20.71875 10.15625 
Q 24.75 6.390625 31.78125 6.390625 
Q 38.8125 6.390625 42.859375 10.171875 
Q 46.921875 13.96875 46.921875 20.515625 
Q 46.921875 27.09375 42.890625 30.859375 
Q 38.875 34.625 31.78125 34.625 
z
M 21.921875 38.8125 
Q 15.578125 40.375 12.03125 44.71875 
Q 8.5 49.078125 8.5 55.328125 
Q 8.5 64.0625 14.71875 69.140625 
Q 20.953125 74.21875 31.78125 74.21875 
Q 42.671875 74.21875 48.875 69.140625 
Q 55.078125 64.0625 55.078125 55.328125 
Q 55.078125 49.078125 51.53125 44.71875 
Q 48 40.375 41.703125 38.8125 
Q 48.828125 37.15625 52.796875 32.3125 
Q 56.78125 27.484375 56.78125 20.515625 
Q 56.78125 9.90625 50.3125 4.234375 
Q 43.84375 -1.421875 31.78125 -1.421875 
Q 19.734375 -1.421875 13.25 4.234375 
Q 6.78125 9.90625 6.78125 20.515625 
Q 6.78125 27.484375 10.78125 32.3125 
Q 14.796875 37.15625 21.921875 38.8125 
z
M 18.3125 54.390625 
Q 18.3125 48.734375 21.84375 45.5625 
Q 25.390625 42.390625 31.78125 42.390625 
Q 38.140625 42.390625 41.71875 45.5625 
Q 45.3125 48.734375 45.3125 54.390625 
Q 45.3125 60.0625 41.71875 63.234375 
Q 38.140625 66.40625 31.78125 66.40625 
Q 25.390625 66.40625 21.84375 63.234375 
Q 18.3125 60.0625 18.3125 54.390625 
z
" id="DejaVuSans-38"/>
      </defs>
      <g transform="translate(30.55625 71.820056)scale(0.15 -0.15)">
       <use xlink:href="#DejaVuSans-30"/>
       <use x="63.623047" xlink:href="#DejaVuSans-2e"/>
       <use x="95.410156" xlink:href="#DejaVuSans-38"/>
      </g>
     </g>
    </g>
    <g id="ytick_6">
     <g id="line2d_23">
      <path clip-path="url(#p304c686b55)" d="M 61.410938 12.898828 
L 418.530938 12.898828 
" style="fill:none;stroke:#b0b0b0;stroke-linecap:square;stroke-width:0.8;"/>
     </g>
     <g id="line2d_24">
      <g>
       <use style="stroke:#000000;stroke-width:0.8;" x="61.410938" xlink:href="#mc3ce260a5b" y="12.898828"/>
      </g>
     </g>
     <g id="text_13">
      <!-- 1.0 -->
      <g transform="translate(30.55625 18.597656)scale(0.15 -0.15)">
       <use xlink:href="#DejaVuSans-31"/>
       <use x="63.623047" xlink:href="#DejaVuSans-2e"/>
       <use x="95.410156" xlink:href="#DejaVuSans-30"/>
      </g>
     </g>
    </g>
    <g id="text_14">
     <!-- F=1 population -->
     <defs>
      <path d="M 9.8125 72.90625 
L 51.703125 72.90625 
L 51.703125 64.59375 
L 19.671875 64.59375 
L 19.671875 43.109375 
L 48.578125 43.109375 
L 48.578125 34.8125 
L 19.671875 34.8125 
L 19.671875 0 
L 9.8125 0 
z
" id="DejaVuSans-46"/>
      <path d="M 10.59375 45.40625 
L 73.1875 45.40625 
L 73.1875 37.203125 
L 10.59375 37.203125 
z
M 10.59375 25.484375 
L 73.1875 25.484375 
L 73.1875 17.1875 
L 10.59375 17.1875 
z
" id="DejaVuSans-3d"/>
      <path d="M 18.109375 8.203125 
L 18.109375 -20.796875 
L 9.078125 -20.796875 
L 9.078125 54.6875 
L 18.109375 54.6875 
L 18.109375 46.390625 
Q 20.953125 51.265625 25.265625 53.625 
Q 29.59375 56 35.59375 56 
Q 45.5625 56 51.78125 48.09375 
Q 58.015625 40.1875 58.015625 27.296875 
Q 58.015625 14.40625 51.78125 6.484375 
Q 45.5625 -1.421875 35.59375 -1.421875 
Q 29.59375 -1.421875 25.265625 0.953125 
Q 20.953125 3.328125 18.109375 8.203125 
z
M 48.6875 27.296875 
Q 48.6875 37.203125 44.609375 42.84375 
Q 40.53125 48.484375 33.40625 48.484375 
Q 26.265625 48.484375 22.1875 42.84375 
Q 18.109375 37.203125 18.109375 27.296875 
Q 18.109375 17.390625 22.1875 11.75 
Q 26.265625 6.109375 33.40625 6.109375 
Q 40.53125 6.109375 44.609375 11.75 
Q 48.6875 17.390625 48.6875 27.296875 
z
" id="DejaVuSans-70"/>
      <path d="M 30.609375 48.390625 
Q 23.390625 48.390625 19.1875 42.75 
Q 14.984375 37.109375 14.984375 27.296875 
Q 14.984375 17.484375 19.15625 11.84375 
Q 23.34375 6.203125 30.609375 6.203125 
Q 37.796875 6.203125 41.984375 11.859375 
Q 46.1875 17.53125 46.1875 27.296875 
Q 46.1875 37.015625 41.984375 42.703125 
Q 37.796875 48.390625 30.609375 48.390625 
z
M 30.609375 56 
Q 42.328125 56 49.015625 48.375 
Q 55.71875 40.765625 55.71875 27.296875 
Q 55.71875 13.875 49.015625 6.21875 
Q 42.328125 -1.421875 30.609375 -1.421875 
Q 18.84375 -1.421875 12.171875 6.21875 
Q 5.515625 13.875 5.515625 27.296875 
Q 5.515625 40.765625 12.171875 48.375 
Q 18.84375 56 30.609375 56 
z
" id="DejaVuSans-6f"/>
      <path d="M 8.5 21.578125 
L 8.5 54.6875 
L 17.484375 54.6875 
L 17.484375 21.921875 
Q 17.484375 14.15625 20.5 10.265625 
Q 23.53125 6.390625 29.59375 6.390625 
Q 36.859375 6.390625 41.078125 11.03125 
Q 45.3125 15.671875 45.3125 23.6875 
L 45.3125 54.6875 
L 54.296875 54.6875 
L 54.296875 0 
L 45.3125 0 
L 45.3125 8.40625 
Q 42.046875 3.421875 37.71875 1 
Q 33.40625 -1.421875 27.6875 -1.421875 
Q 18.265625 -1.421875 13.375 4.4375 
Q 8.5 10.296875 8.5 21.578125 
z
M 31.109375 56 
z
" id="DejaVuSans-75"/>
      <path d="M 9.421875 75.984375 
L 18.40625 75.984375 
L 18.40625 0 
L 9.421875 0 
z
" id="DejaVuSans-6c"/>
      <path d="M 34.28125 27.484375 
Q 23.390625 27.484375 19.1875 25 
Q 14.984375 22.515625 14.984375 16.5 
Q 14.984375 11.71875 18.140625 8.90625 
Q 21.296875 6.109375 26.703125 6.109375 
Q 34.1875 6.109375 38.703125 11.40625 
Q 43.21875 16.703125 43.21875 25.484375 
L 43.21875 27.484375 
z
M 52.203125 31.203125 
L 52.203125 0 
L 43.21875 0 
L 43.21875 8.296875 
Q 40.140625 3.328125 35.546875 0.953125 
Q 30.953125 -1.421875 24.3125 -1.421875 
Q 15.921875 -1.421875 10.953125 3.296875 
Q 6 8.015625 6 15.921875 
Q 6 25.140625 12.171875 29.828125 
Q 18.359375 34.515625 30.609375 34.515625 
L 43.21875 34.515625 
L 43.21875 35.40625 
Q 43.21875 41.609375 39.140625 45 
Q 35.0625 48.390625 27.6875 48.390625 
Q 23 48.390625 18.546875 47.265625 
Q 14.109375 46.140625 10.015625 43.890625 
L 10.015625 52.203125 
Q 14.9375 54.109375 19.578125 55.046875 
Q 24.21875 56 28.609375 56 
Q 40.484375 56 46.34375 49.84375 
Q 52.203125 43.703125 52.203125 31.203125 
z
" id="DejaVuSans-61"/>
      <path d="M 18.3125 70.21875 
L 18.3125 54.6875 
L 36.8125 54.6875 
L 36.8125 47.703125 
L 18.3125 47.703125 
L 18.3125 18.015625 
Q 18.3125 11.328125 20.140625 9.421875 
Q 21.96875 7.515625 27.59375 7.515625 
L 36.8125 7.515625 
L 36.8125 0 
L 27.59375 0 
Q 17.1875 0 13.234375 3.875 
Q 9.28125 7.765625 9.28125 18.015625 
L 9.28125 47.703125 
L 2.6875 47.703125 
L 2.6875 54.6875 
L 9.28125 54.6875 
L 9.28125 70.21875 
z
" id="DejaVuSans-74"/>
      <path d="M 54.890625 33.015625 
L 54.890625 0 
L 45.90625 0 
L 45.90625 32.71875 
Q 45.90625 40.484375 42.875 44.328125 
Q 39.84375 48.1875 33.796875 48.1875 
Q 26.515625 48.1875 22.3125 43.546875 
Q 18.109375 38.921875 18.109375 30.90625 
L 18.109375 0 
L 9.078125 0 
L 9.078125 54.6875 
L 18.109375 54.6875 
L 18.109375 46.1875 
Q 21.34375 51.125 25.703125 53.5625 
Q 30.078125 56 35.796875 56 
Q 45.21875 56 50.046875 50.171875 
Q 54.890625 44.34375 54.890625 33.015625 
z
" id="DejaVuSans-6e"/>
     </defs>
     <g transform="translate(22.396875 222.840766)rotate(-90)scale(0.2 -0.2)">
      <use xlink:href="#DejaVuSans-46"/>
      <use x="57.519531" xlink:href="#DejaVuSans-3d"/>
      <use x="141.308594" xlink:href="#DejaVuSans-31"/>
      <use x="204.931641" xlink:href="#DejaVuSans-20"/>
      <use x="236.71875" xlink:href="#DejaVuSans-70"/>
      <use x="300.195312" xlink:href="#DejaVuSans-6f"/>
      <use x="361.376953" xlink:href="#DejaVuSans-70"/>
      <use x="424.853516" xlink:href="#DejaVuSans-75"/>
      <use x="488.232422" xlink:href="#DejaVuSans-6c"/>
      <use x="516.015625" xlink:href="#DejaVuSans-61"/>
      <use x="577.294922" xlink:href="#DejaVuSans-74"/>
      <use x="616.503906" xlink:href="#DejaVuSans-69"/>
      <use x="644.287109" xlink:href="#DejaVuSans-6f"/>
      <use x="705.46875" xlink:href="#DejaVuSans-6e"/>
     </g>
    </g>
   </g>
   <g id="LineCollection_1">
    <path clip-path="url(#p304c686b55)" d="M 61.410938 279.010828 
L 61.410938 277.828108 
" style="fill:none;stroke:#1f77b4;stroke-width:1.5;"/>
    <path clip-path="url(#p304c686b55)" d="M 70.090938 206.975733 
L 70.090938 190.665924 
" style="fill:none;stroke:#1f77b4;stroke-width:1.5;"/>
    <path clip-path="url(#p304c686b55)" d="M 78.770938 74.620388 
L 78.770938 60.880582 
" style="fill:none;stroke:#1f77b4;stroke-width:1.5;"/>
    <path clip-path="url(#p304c686b55)" d="M 87.450938 40.107283 
L 87.450938 30.243061 
" style="fill:none;stroke:#1f77b4;stroke-width:1.5;"/>
    <path clip-path="url(#p304c686b55)" d="M 96.130938 147.588579 
L 96.130938 129.468314 
" style="fill:none;stroke:#1f77b4;stroke-width:1.5;"/>
    <path clip-path="url(#p304c686b55)" d="M 104.810938 259.933109 
L 104.810938 249.811592 
" style="fill:none;stroke:#1f77b4;stroke-width:1.5;"/>
    <path clip-path="url(#p304c686b55)" d="M 113.490938 266.493926 
L 113.490938 257.636108 
" style="fill:none;stroke:#1f77b4;stroke-width:1.5;"/>
    <path clip-path="url(#p304c686b55)" d="M 122.170938 141.456265 
L 122.170938 124.071598 
" style="fill:none;stroke:#1f77b4;stroke-width:1.5;"/>
    <path clip-path="url(#p304c686b55)" d="M 130.850938 48.845379 
L 130.850938 37.936277 
" style="fill:none;stroke:#1f77b4;stroke-width:1.5;"/>
    <path clip-path="url(#p304c686b55)" d="M 139.530938 90.59395 
L 139.530938 74.535932 
" style="fill:none;stroke:#1f77b4;stroke-width:1.5;"/>
    <path clip-path="url(#p304c686b55)" d="M 148.210938 204.457803 
L 148.210938 187.848653 
" style="fill:none;stroke:#1f77b4;stroke-width:1.5;"/>
    <path clip-path="url(#p304c686b55)" d="M 156.890938 273.936234 
L 156.890938 268.370147 
" style="fill:none;stroke:#1f77b4;stroke-width:1.5;"/>
    <path clip-path="url(#p304c686b55)" d="M 165.570938 204.457803 
L 165.570938 187.848653 
" style="fill:none;stroke:#1f77b4;stroke-width:1.5;"/>
    <path clip-path="url(#p304c686b55)" d="M 174.250938 94.495261 
L 174.250938 78.166093 
" style="fill:none;stroke:#1f77b4;stroke-width:1.5;"/>
    <path clip-path="url(#p304c686b55)" d="M 182.930938 51.391687 
L 182.930938 40.09889 
" style="fill:none;stroke:#1f77b4;stroke-width:1.5;"/>
    <path clip-path="url(#p304c686b55)" d="M 191.610938 136.470504 
L 191.610938 118.937063 
" style="fill:none;stroke:#1f77b4;stroke-width:1.5;"/>
    <path clip-path="url(#p304c686b55)" d="M 200.290938 252.158504 
L 200.290938 240.523152 
" style="fill:none;stroke:#1f77b4;stroke-width:1.5;"/>
    <path clip-path="url(#p304c686b55)" d="M 208.970938 257.517525 
L 208.970938 246.528584 
" style="fill:none;stroke:#1f77b4;stroke-width:1.5;"/>
    <path clip-path="url(#p304c686b55)" d="M 217.650938 155.438917 
L 217.650938 137.658739 
" style="fill:none;stroke:#1f77b4;stroke-width:1.5;"/>
    <path clip-path="url(#p304c686b55)" d="M 226.330938 56.227129 
L 226.330938 44.127769 
" style="fill:none;stroke:#1f77b4;stroke-width:1.5;"/>
    <path clip-path="url(#p304c686b55)" d="M 235.010938 69.850812 
L 235.010938 55.88936 
" style="fill:none;stroke:#1f77b4;stroke-width:1.5;"/>
    <path clip-path="url(#p304c686b55)" d="M 243.690938 216.458353 
L 243.690938 200.819624 
" style="fill:none;stroke:#1f77b4;stroke-width:1.5;"/>
    <path clip-path="url(#p304c686b55)" d="M 252.370938 265.142639 
L 252.370938 256.214697 
" style="fill:none;stroke:#1f77b4;stroke-width:1.5;"/>
    <path clip-path="url(#p304c686b55)" d="M 261.050938 215.605602 
L 261.050938 199.94016 
" style="fill:none;stroke:#1f77b4;stroke-width:1.5;"/>
    <path clip-path="url(#p304c686b55)" d="M 269.730938 113.975742 
L 269.730938 96.890714 
" style="fill:none;stroke:#1f77b4;stroke-width:1.5;"/>
    <path clip-path="url(#p304c686b55)" d="M 278.410938 49.757999 
L 278.410938 38.587349 
" style="fill:none;stroke:#1f77b4;stroke-width:1.5;"/>
    <path clip-path="url(#p304c686b55)" d="M 287.090938 124.918918 
L 287.090938 108.337481 
" style="fill:none;stroke:#1f77b4;stroke-width:1.5;"/>
    <path clip-path="url(#p304c686b55)" d="M 295.770938 247.124471 
L 295.770938 234.327223 
" style="fill:none;stroke:#1f77b4;stroke-width:1.5;"/>
    <path clip-path="url(#p304c686b55)" d="M 304.450938 260.667324 
L 304.450938 250.604926 
" style="fill:none;stroke:#1f77b4;stroke-width:1.5;"/>
    <path clip-path="url(#p304c686b55)" d="M 313.130938 163.617129 
L 313.130938 145.954828 
" style="fill:none;stroke:#1f77b4;stroke-width:1.5;"/>
    <path clip-path="url(#p304c686b55)" d="M 321.810938 69.592758 
L 321.810938 55.537027 
" style="fill:none;stroke:#1f77b4;stroke-width:1.5;"/>
    <path clip-path="url(#p304c686b55)" d="M 330.490938 71.479344 
L 330.490938 57.86817 
" style="fill:none;stroke:#1f77b4;stroke-width:1.5;"/>
    <path clip-path="url(#p304c686b55)" d="M 339.170938 193.475657 
L 339.170938 176.633578 
" style="fill:none;stroke:#1f77b4;stroke-width:1.5;"/>
    <path clip-path="url(#p304c686b55)" d="M 347.850938 254.99781 
L 347.850938 244.016403 
" style="fill:none;stroke:#1f77b4;stroke-width:1.5;"/>
    <path clip-path="url(#p304c686b55)" d="M 356.530938 230.398214 
L 356.530938 215.088517 
" style="fill:none;stroke:#1f77b4;stroke-width:1.5;"/>
    <path clip-path="url(#p304c686b55)" d="M 365.210938 118.273477 
L 365.210938 101.168179 
" style="fill:none;stroke:#1f77b4;stroke-width:1.5;"/>
    <path clip-path="url(#p304c686b55)" d="M 373.890938 61.339751 
L 373.890938 48.431025 
" style="fill:none;stroke:#1f77b4;stroke-width:1.5;"/>
    <path clip-path="url(#p304c686b55)" d="M 382.570938 126.796576 
L 382.570938 109.217409 
" style="fill:none;stroke:#1f77b4;stroke-width:1.5;"/>
    <path clip-path="url(#p304c686b55)" d="M 391.250938 225.700423 
L 391.250938 211.155344 
" style="fill:none;stroke:#1f77b4;stroke-width:1.5;"/>
    <path clip-path="url(#p304c686b55)" d="M 399.930938 245.233639 
L 399.930938 232.474937 
" style="fill:none;stroke:#1f77b4;stroke-width:1.5;"/>
    <path clip-path="url(#p304c686b55)" d="M 408.610938 172.079916 
L 408.610938 154.166773 
" style="fill:none;stroke:#1f77b4;stroke-width:1.5;"/>
   </g>
   <g id="LineCollection_2">
    <path clip-path="url(#p304c686b55)" d="M 61.410938 274.780846 
L 61.410938 267.789145 
" style="fill:none;stroke:#d62728;stroke-width:1.5;"/>
    <path clip-path="url(#p304c686b55)" d="M 70.090938 237.288136 
L 70.090938 220.729648 
" style="fill:none;stroke:#d62728;stroke-width:1.5;"/>
    <path clip-path="url(#p304c686b55)" d="M 78.770938 163.039554 
L 78.770938 142.093059 
" style="fill:none;stroke:#d62728;stroke-width:1.5;"/>
    <path clip-path="url(#p304c686b55)" d="M 87.450938 100.968772 
L 87.450938 81.851493 
" style="fill:none;stroke:#d62728;stroke-width:1.5;"/>
    <path clip-path="url(#p304c686b55)" d="M 96.130938 120.325553 
L 96.130938 100.066503 
" style="fill:none;stroke:#d62728;stroke-width:1.5;"/>
    <path clip-path="url(#p304c686b55)" d="M 104.810938 144.831053 
L 104.810938 123.938429 
" style="fill:none;stroke:#d62728;stroke-width:1.5;"/>
    <path clip-path="url(#p304c686b55)" d="M 113.490938 184.938079 
L 113.490938 163.995578 
" style="fill:none;stroke:#d62728;stroke-width:1.5;"/>
    <path clip-path="url(#p304c686b55)" d="M 122.170938 205.850105 
L 122.170938 185.851552 
" style="fill:none;stroke:#d62728;stroke-width:1.5;"/>
    <path clip-path="url(#p304c686b55)" d="M 130.850938 159.144608 
L 130.850938 138.917927 
" style="fill:none;stroke:#d62728;stroke-width:1.5;"/>
    <path clip-path="url(#p304c686b55)" d="M 139.530938 147.031917 
L 139.530938 125.362859 
" style="fill:none;stroke:#d62728;stroke-width:1.5;"/>
    <path clip-path="url(#p304c686b55)" d="M 148.210938 115.416312 
L 148.210938 94.472522 
" style="fill:none;stroke:#d62728;stroke-width:1.5;"/>
    <path clip-path="url(#p304c686b55)" d="M 156.890938 156.313224 
L 156.890938 135.596433 
" style="fill:none;stroke:#d62728;stroke-width:1.5;"/>
    <path clip-path="url(#p304c686b55)" d="M 165.570938 182.525487 
L 165.570938 162.285952 
" style="fill:none;stroke:#d62728;stroke-width:1.5;"/>
    <path clip-path="url(#p304c686b55)" d="M 174.250938 184.987566 
L 174.250938 162.844178 
" style="fill:none;stroke:#d62728;stroke-width:1.5;"/>
    <path clip-path="url(#p304c686b55)" d="M 182.930938 185.134895 
L 182.930938 164.404112 
" style="fill:none;stroke:#d62728;stroke-width:1.5;"/>
    <path clip-path="url(#p304c686b55)" d="M 191.610938 134.204782 
L 191.610938 114.130979 
" style="fill:none;stroke:#d62728;stroke-width:1.5;"/>
   </g>
   <g id="line2d_25">
    <path clip-path="url(#p304c686b55)" d="M 61.410938 278.518987 
L 62.839418 278.518987 
L 63.196538 275.215955 
L 63.910778 273.024932 
L 64.267898 270.93644 
L 66.767738 249.547546 
L 67.481978 241.714879 
L 67.839098 236.357452 
L 68.196218 232.879088 
L 69.267578 218.224198 
L 72.124538 174.586989 
L 72.838778 162.4624 
L 73.553018 151.168686 
L 73.910138 144.225942 
L 74.267258 139.56598 
L 76.409978 104.011911 
L 79.266938 65.63151 
L 79.624058 62.827365 
L 80.695418 51.222488 
L 81.052538 47.584545 
L 81.409658 45.431453 
L 82.481018 37.266031 
L 82.838138 34.674507 
L 83.909498 30.307827 
L 84.623738 28.721634 
L 84.980858 28.721634 
L 85.337978 27.487208 
L 85.695098 28.721634 
L 86.052218 26.696269 
L 86.409338 28.240204 
L 86.766458 30.369532 
L 87.837818 33.170958 
L 88.194938 36.22158 
L 88.552058 37.005959 
L 88.909178 40.708797 
L 89.266298 42.447302 
L 89.623418 47.316613 
L 89.980538 49.572733 
L 90.694778 56.915313 
L 91.051898 58.885018 
L 92.123258 71.550483 
L 92.480378 77.388833 
L 92.837498 81.188179 
L 93.551738 91.755291 
L 93.908858 95.585532 
L 94.265978 102.369445 
L 94.980218 112.173686 
L 98.908538 175.545331 
L 99.265658 180.270579 
L 99.979898 192.803671 
L 100.694138 203.176578 
L 102.836858 233.207928 
L 103.551098 240.378017 
L 104.979578 255.117361 
L 106.050938 264.409316 
L 106.408058 266.97504 
L 106.765178 268.088879 
L 107.122298 270.318645 
L 107.479418 271.693583 
L 107.836538 273.627467 
L 108.193658 274.784019 
L 108.550778 275.094665 
L 108.907898 276.493623 
L 109.265018 274.907429 
L 109.622138 276.592337 
L 109.979258 275.63147 
L 110.336378 275.226301 
L 110.693498 274.430803 
L 111.050618 273.288688 
L 111.407738 272.819231 
L 111.764858 270.43833 
L 112.121978 269.342362 
L 112.836218 265.273665 
L 113.907578 255.82316 
L 114.264698 253.891776 
L 114.978938 246.365309 
L 115.336058 243.657767 
L 115.693178 237.488432 
L 116.050298 234.079668 
L 117.121658 220.169759 
L 119.978618 177.871039 
L 121.049978 161.041928 
L 121.764218 150.173116 
L 123.549818 121.179105 
L 127.835258 64.422812 
L 129.977978 44.619959 
L 130.335098 42.756554 
L 130.692218 39.564598 
L 131.406458 36.455443 
L 131.763578 35.900323 
L 132.120698 33.627464 
L 132.477818 32.582843 
L 132.834938 32.780317 
L 133.192058 31.461972 
L 133.549178 32.235893 
L 133.906298 31.634806 
L 134.620538 33.390376 
L 134.977658 33.486409 
L 135.691898 36.724314 
L 136.049018 37.812534 
L 136.406138 40.933944 
L 137.120378 44.752604 
L 137.477498 47.068129 
L 137.834618 51.169528 
L 138.191738 52.956737 
L 138.905978 60.375926 
L 140.334458 75.691642 
L 141.048698 87.317184 
L 141.405818 90.127974 
L 143.905658 126.333149 
L 144.619898 137.96709 
L 145.691258 154.413359 
L 147.119738 177.194491 
L 148.548218 197.949494 
L 148.905338 202.464773 
L 149.262458 209.036504 
L 150.333818 222.189014 
L 151.405178 235.359914 
L 153.190778 253.18817 
L 153.905018 259.769492 
L 154.262138 261.1377 
L 155.333498 267.150359 
L 156.047738 269.479503 
L 156.761978 272.156156 
L 157.119098 272.227147 
L 157.476218 272.553424 
L 157.833338 272.434939 
L 158.190458 272.044299 
L 158.547578 270.99646 
L 159.261818 270.602462 
L 159.618938 268.358942 
L 159.976058 266.97504 
L 160.333178 264.930159 
L 160.690298 262.151133 
L 161.047418 260.645446 
L 161.404538 258.551217 
L 164.261498 231.071326 
L 164.618618 226.873867 
L 165.332858 216.659729 
L 167.118458 191.80855 
L 168.904058 164.927008 
L 170.332538 143.833833 
L 171.046778 131.538008 
L 174.617978 82.974269 
L 176.760698 59.386756 
L 177.117818 55.80484 
L 177.474938 53.796821 
L 177.832058 50.444148 
L 179.260538 41.683255 
L 179.974778 38.327988 
L 180.331898 38.472311 
L 180.689018 37.407092 
L 181.046138 37.24252 
L 181.403258 36.429458 
L 181.760378 36.091979 
L 182.117498 36.673677 
L 182.474618 38.109781 
L 183.188858 39.595409 
L 183.545978 40.437013 
L 183.903098 41.665931 
L 184.617338 45.791599 
L 185.331578 50.690491 
L 186.045818 55.657933 
L 187.117178 66.363837 
L 187.474298 69.242841 
L 188.545658 80.184858 
L 189.259898 90.421405 
L 191.402618 119.933238 
L 192.116858 131.766214 
L 192.473978 135.881696 
L 196.759418 199.535258 
L 199.616378 234.934116 
L 200.687738 245.248253 
L 201.759098 254.80596 
L 202.116218 256.490186 
L 203.544698 265.273665 
L 203.901818 265.492667 
L 204.258938 267.04087 
L 204.616058 268.064795 
L 204.973178 268.556428 
L 205.330298 267.609395 
L 205.687418 268.516261 
L 206.044538 268.185213 
L 206.401658 268.566898 
L 206.758778 267.855184 
L 207.830138 263.566649 
L 208.187258 261.573472 
L 208.901498 258.993959 
L 211.401338 238.392583 
L 211.758458 232.967016 
L 212.115578 229.683923 
L 213.901178 208.172269 
L 214.258298 202.173769 
L 214.615418 198.540669 
L 215.686778 181.479479 
L 216.401018 173.274776 
L 217.115258 162.076337 
L 219.257978 129.438834 
L 219.972218 119.331204 
L 220.686458 109.60535 
L 221.400698 100.235758 
L 222.472058 87.007608 
L 224.614778 64.868342 
L 225.329018 58.920603 
L 226.757498 47.922464 
L 227.114618 47.519579 
L 227.471738 44.914725 
L 227.828858 44.345386 
L 228.185978 42.233604 
L 228.543098 42.686793 
L 228.900218 41.150904 
L 229.257338 41.097043 
L 229.614458 42.818455 
L 229.971578 41.114997 
L 230.328698 40.915658 
L 230.685818 41.856493 
L 231.042938 44.584772 
L 231.400058 43.594762 
L 231.757178 46.420553 
L 232.114298 47.571552 
L 232.471418 49.166325 
L 232.828538 51.718069 
L 233.185658 53.207912 
L 234.614138 64.961648 
L 235.685498 74.764072 
L 236.399738 83.34386 
L 237.828218 99.981385 
L 238.542458 110.263136 
L 241.042298 145.723394 
L 243.542138 182.314101 
L 245.684858 210.356316 
L 246.041978 216.464399 
L 247.113338 226.966445 
L 247.827578 235.607127 
L 248.541818 241.52986 
L 249.256058 247.872331 
L 249.613178 250.867499 
L 250.327418 254.840812 
L 250.684538 257.526767 
L 251.398778 260.780101 
L 251.755898 261.321323 
L 252.113018 262.495548 
L 252.470138 264.24474 
L 252.827258 264.91117 
L 253.184378 265.060686 
L 253.541498 264.730033 
L 253.898618 265.176856 
L 254.255738 264.759254 
L 254.612858 263.48003 
L 255.327098 262.834901 
L 255.684218 260.300531 
L 256.041338 260.081933 
L 256.398458 256.842613 
L 256.755578 255.483855 
L 257.826938 248.612342 
L 258.541178 241.995873 
L 258.898298 239.42366 
L 261.041018 216.426418 
L 265.683578 153.224318 
L 266.040698 146.718997 
L 266.397818 142.891026 
L 269.611898 98.719441 
L 269.969018 96.052795 
L 270.326138 89.761583 
L 271.754618 74.790059 
L 273.540218 59.598361 
L 273.897338 58.192681 
L 274.254458 55.036028 
L 275.325818 50.168429 
L 275.682938 49.584775 
L 276.040058 47.675496 
L 276.754298 46.07206 
L 277.111418 45.51732 
L 277.468538 45.545942 
L 277.825658 45.202475 
L 278.182778 46.636986 
L 278.539898 47.237615 
L 278.897018 47.428628 
L 279.254138 48.51014 
L 279.611258 48.971268 
L 279.968378 50.598632 
L 280.325498 52.988591 
L 280.682618 54.347757 
L 281.039738 57.046978 
L 281.396858 58.524329 
L 283.182458 73.680602 
L 283.896698 81.330096 
L 284.610938 88.479565 
L 284.968058 93.722505 
L 285.325178 96.956434 
L 286.753658 115.321463 
L 287.110778 120.649449 
L 287.467898 124.178454 
L 288.182138 136.348559 
L 289.253498 149.911123 
L 290.681978 170.823053 
L 291.396218 181.138958 
L 291.753338 184.837479 
L 292.110458 191.23608 
L 292.467578 195.070439 
L 292.824698 200.612731 
L 293.181818 203.731546 
L 294.253178 217.199099 
L 296.753018 242.657207 
L 297.824378 250.328847 
L 299.252858 257.331265 
L 299.609978 258.53769 
L 299.967098 260.894631 
L 300.324218 260.67537 
L 300.681338 262.151133 
L 301.038458 262.380344 
L 301.752698 262.040802 
L 302.109818 263.015703 
L 302.466938 261.259607 
L 302.824058 261.259607 
L 303.181178 259.171012 
L 303.895418 256.780115 
L 304.252538 254.910517 
L 304.609658 253.84689 
L 305.323898 249.255516 
L 306.395258 241.229302 
L 307.109498 234.245402 
L 307.823738 227.225664 
L 308.180858 223.944292 
L 308.895098 215.389271 
L 309.252218 211.852746 
L 309.609338 205.869073 
L 310.323578 198.536011 
L 311.037818 188.131577 
L 311.394938 184.544246 
L 317.108858 105.445992 
L 318.537338 88.419881 
L 319.608698 77.946389 
L 319.965818 75.014671 
L 320.322938 70.429727 
L 320.680058 68.467106 
L 322.108538 58.433734 
L 322.822778 54.574487 
L 324.251258 49.392097 
L 324.608378 48.447641 
L 324.965498 48.947253 
L 325.322618 48.0365 
L 325.679738 47.896815 
L 326.393978 49.897964 
L 326.751098 50.529738 
L 327.108218 50.644562 
L 327.822458 53.218418 
L 329.608058 63.190912 
L 332.107898 86.126904 
L 333.179258 99.198794 
L 335.321978 124.787862 
L 335.679098 131.255862 
L 336.393338 140.186233 
L 337.464698 155.659193 
L 337.821818 160.086796 
L 338.536058 170.888887 
L 339.250298 179.498245 
L 340.321658 194.454383 
L 342.464378 219.791503 
L 342.821498 224.695247 
L 343.535738 230.816277 
L 343.892858 234.479544 
L 344.249978 236.393492 
L 344.964218 243.749821 
L 345.321338 245.345175 
L 346.392698 253.408424 
L 346.749818 253.719093 
L 347.106938 257.242056 
L 347.464058 258.133783 
L 347.821178 258.67296 
L 348.178298 258.856811 
L 348.535418 260.096454 
L 348.892538 259.826736 
L 349.249658 261.213319 
L 349.606778 259.536511 
L 350.321018 260.285793 
L 350.678138 258.510636 
L 351.035258 259.087564 
L 351.392378 256.692617 
L 351.749498 256.170842 
L 352.463738 251.923303 
L 352.820858 250.119381 
L 353.535098 244.452873 
L 354.249338 240.447997 
L 356.392058 219.211093 
L 356.749178 214.197272 
L 357.106298 211.873427 
L 357.463418 206.173677 
L 357.820538 202.745143 
L 358.177658 197.299241 
L 358.891898 189.092514 
L 365.320058 103.136899 
L 367.462778 79.17899 
L 367.819898 76.890875 
L 368.534138 70.02201 
L 369.248378 65.260621 
L 369.962618 60.659293 
L 370.319738 58.867902 
L 370.676858 56.313211 
L 371.748218 51.607116 
L 372.105338 52.39442 
L 372.462458 50.759385 
L 372.819578 49.778991 
L 373.176698 49.719504 
L 373.533818 50.133162 
L 373.890938 50.987923 
L 374.248058 51.424473 
L 374.605178 50.513853 
L 375.319418 53.449531 
L 376.033658 56.389909 
L 377.462138 64.946097 
L 378.533498 73.838102 
L 379.604858 83.442259 
L 379.961978 88.539249 
L 381.390458 102.664613 
L 381.747578 107.962161 
L 382.104698 111.493051 
L 382.461817 117.704029 
L 382.818938 121.157638 
L 384.961658 149.717652 
L 387.461498 185.69348 
L 387.818618 187.83457 
L 388.889978 202.550643 
L 389.247098 205.458749 
L 389.961338 214.464683 
L 390.675578 222.930638 
L 391.032698 225.188987 
L 391.746938 233.419049 
L 392.104058 235.374021 
L 392.461178 240.191404 
L 392.818298 243.398858 
L 393.175418 245.300686 
L 393.532537 248.064827 
L 393.889658 248.488906 
L 394.603898 253.474996 
L 395.318138 257.292792 
L 395.675258 256.502529 
L 396.032378 258.591798 
L 396.389498 259.826736 
L 397.103738 260.055715 
L 397.460858 258.925385 
L 397.817978 261.092124 
L 398.175098 259.282277 
L 398.532218 258.843096 
L 399.246458 256.061122 
L 399.603578 255.483855 
L 401.032058 248.688303 
L 401.389178 246.054453 
L 401.746298 242.032439 
L 402.103418 240.13979 
L 403.174778 231.133571 
L 403.889018 223.914727 
L 404.246138 220.226188 
L 404.603258 215.09262 
L 405.317498 207.868038 
L 406.031738 198.204484 
L 406.745978 190.017785 
L 407.103098 185.910039 
L 407.460218 179.664512 
L 408.531578 167.12524 
L 409.245818 156.925957 
L 412.102778 118.693036 
L 413.531258 100.734514 
L 416.388218 71.427046 
L 417.102458 67.528197 
L 417.459578 64.167653 
L 418.173818 60.251218 
L 418.530938 57.398821 
L 418.530938 57.398821 
" style="fill:none;stroke:#1f77b4;stroke-linecap:square;stroke-width:1.5;"/>
   </g>
   <g id="line2d_26">
    <path clip-path="url(#p304c686b55)" d="M 61.410938 278.515607 
L 62.601338 278.515607 
L 62.898938 277.719233 
L 63.196538 277.91794 
L 63.494138 278.515607 
L 63.791738 276.070282 
L 64.089338 275.837635 
L 64.386938 272.735262 
L 64.684538 272.900954 
L 64.982138 271.314527 
L 65.279738 271.007668 
L 65.577338 269.162816 
L 65.874938 268.16147 
L 66.172538 266.286822 
L 66.470138 265.99263 
L 66.767738 263.822014 
L 67.065338 263.042928 
L 67.660538 258.124684 
L 67.958138 256.198722 
L 68.255738 253.021775 
L 68.553338 253.154344 
L 68.850938 249.565462 
L 69.446138 245.564975 
L 71.529338 227.726423 
L 71.826938 223.854828 
L 72.124538 222.345185 
L 72.719738 215.16824 
L 73.017338 214.063914 
L 73.612538 207.354066 
L 74.505338 199.111655 
L 74.802938 195.853266 
L 75.100538 191.020372 
L 75.398138 189.834299 
L 76.290938 180.61214 
L 76.886138 173.33779 
L 77.481338 167.891171 
L 78.076538 160.435044 
L 78.374138 159.465199 
L 78.969338 152.144873 
L 79.564538 147.933008 
L 79.862138 143.690955 
L 80.457338 137.613478 
L 80.754938 133.816877 
L 81.052538 132.847441 
L 81.647738 127.353547 
L 82.242938 122.20291 
L 83.135738 114.254622 
L 83.433338 111.836834 
L 83.730938 111.022732 
L 84.028538 106.949404 
L 84.326138 105.810188 
L 84.921338 101.348706 
L 85.218938 100.307471 
L 85.814138 95.543924 
L 86.111738 93.752407 
L 86.409338 91.145199 
L 86.706938 91.239083 
L 87.004538 89.301905 
L 87.302138 88.109898 
L 87.599738 86.077279 
L 87.897338 85.627142 
L 88.492538 82.690594 
L 89.087738 81.448725 
L 89.385338 80.363383 
L 89.682938 79.828825 
L 89.980538 79.695126 
L 90.278138 77.707629 
L 90.575738 78.314296 
L 91.468538 76.385885 
L 91.766138 77.006966 
L 92.063738 76.442165 
L 92.361338 75.463994 
L 92.956538 77.068723 
L 93.254138 76.517206 
L 93.551738 76.279577 
L 93.849338 76.987331 
L 94.146938 78.0276 
L 94.444538 78.525551 
L 94.742138 78.344796 
L 95.039738 78.780186 
L 95.337338 80.511343 
L 95.634938 80.037209 
L 95.932538 81.015166 
L 96.230138 82.427897 
L 96.527738 82.65611 
L 96.825338 85.037885 
L 97.718138 88.47195 
L 98.015738 89.082654 
L 98.610938 93.003761 
L 98.908538 93.772908 
L 99.503738 96.808189 
L 99.801338 97.092781 
L 100.694138 105.190202 
L 100.991738 104.48423 
L 101.289338 107.769198 
L 101.586938 109.098991 
L 101.884538 111.280344 
L 102.182138 112.511694 
L 102.777338 116.151244 
L 103.074938 118.87065 
L 103.670138 121.165573 
L 103.967738 124.884595 
L 104.265338 126.63628 
L 104.562938 129.709333 
L 104.860538 129.570887 
L 105.158138 133.138657 
L 105.455738 133.419159 
L 106.050938 139.651372 
L 106.348538 140.654492 
L 106.943738 144.742299 
L 107.241338 145.663244 
L 107.538938 150.002066 
L 107.836538 150.184692 
L 108.134138 153.480069 
L 108.431738 154.303914 
L 108.729338 157.30546 
L 109.026938 158.275305 
L 109.324538 160.569032 
L 109.622138 161.006849 
L 110.217338 165.831729 
L 111.110138 169.835202 
L 111.407738 172.853175 
L 111.705338 173.642884 
L 112.895738 179.276293 
L 113.193338 180.474996 
L 113.490938 182.187679 
L 113.788538 182.985807 
L 114.383738 185.584447 
L 114.681338 186.057503 
L 114.978938 187.635247 
L 115.276538 188.112508 
L 115.574138 189.025045 
L 115.871738 190.449298 
L 116.169338 191.164342 
L 116.466938 192.288123 
L 116.764538 192.91821 
L 117.062138 193.882468 
L 117.359738 193.645297 
L 117.657338 194.392832 
L 117.954938 194.032981 
L 118.252538 195.046017 
L 118.550138 194.928925 
L 119.145338 195.06443 
L 119.442938 195.391258 
L 119.740538 195.918011 
L 120.038138 195.774648 
L 120.335738 196.649475 
L 121.228538 195.018398 
L 121.526138 195.142684 
L 122.121338 194.66317 
L 122.418938 195.124272 
L 123.609338 192.080225 
L 123.906938 190.646365 
L 124.204538 190.970882 
L 124.502138 189.758501 
L 124.799738 187.781077 
L 125.097338 188.249499 
L 125.394938 186.609709 
L 125.990138 184.921414 
L 126.287738 184.821113 
L 126.585338 183.578153 
L 126.882938 183.171697 
L 127.478138 179.681692 
L 127.775738 178.436264 
L 128.073338 178.0241 
L 128.370938 175.926514 
L 128.668538 175.993924 
L 129.858938 170.838647 
L 130.156538 168.352045 
L 130.454138 167.474475 
L 130.751738 165.252409 
L 131.049338 165.482494 
L 131.346938 163.32687 
L 132.834938 157.109861 
L 133.132538 156.335615 
L 133.430138 153.634287 
L 133.727738 153.041768 
L 134.025338 151.755272 
L 134.620538 148.552405 
L 135.513338 145.826244 
L 136.108538 141.79609 
L 136.406138 141.82064 
L 137.001338 138.722816 
L 137.298938 137.94628 
L 137.596538 136.288276 
L 137.894138 136.251145 
L 138.191738 135.092889 
L 138.489338 133.340444 
L 138.786938 132.938966 
L 139.084538 132.739275 
L 139.977338 129.012907 
L 140.870138 127.021305 
L 141.167738 126.856294 
L 141.465338 125.305258 
L 141.762938 126.179328 
L 142.060538 125.44123 
L 142.358138 123.49767 
L 142.655738 123.373916 
L 142.953338 124.069496 
L 143.250938 122.424505 
L 143.548538 122.484506 
L 144.143738 121.651959 
L 144.441338 121.789697 
L 144.738938 122.164171 
L 145.036538 121.479787 
L 145.334138 121.630438 
L 145.631738 121.458265 
L 145.929338 120.872695 
L 146.226938 121.329136 
L 146.524538 122.14265 
L 146.822138 120.029707 
L 147.119738 123.311656 
L 147.417338 122.313076 
L 148.012538 121.92313 
L 148.310138 123.281655 
L 148.607738 123.958544 
L 148.905338 124.32127 
L 149.202938 124.308468 
L 149.500538 124.638146 
L 149.798138 125.742918 
L 150.095738 125.3435 
L 150.393338 125.224525 
L 150.690938 127.669531 
L 150.988538 128.698257 
L 151.286138 128.335202 
L 151.583738 129.033884 
L 151.881338 129.168135 
L 152.178938 130.858853 
L 152.476538 131.213958 
L 152.774138 132.514623 
L 153.071738 132.373175 
L 153.666938 135.331112 
L 153.964538 135.417752 
L 154.262138 136.036608 
L 154.559738 138.377689 
L 154.857338 138.266755 
L 155.154938 139.90161 
L 155.452538 139.544547 
L 155.750138 142.176622 
L 156.047738 142.017044 
L 156.642938 144.937898 
L 156.940538 144.355176 
L 157.238138 146.294866 
L 157.535738 146.946863 
L 157.833338 149.105171 
L 158.130938 148.601305 
L 158.428538 151.085645 
L 159.023738 151.933839 
L 159.321338 153.861554 
L 159.916538 155.687693 
L 160.214138 157.643683 
L 160.511738 157.342135 
L 160.809338 158.878402 
L 161.106938 159.3185 
L 161.404538 160.912739 
L 161.702138 161.551051 
L 162.297338 163.429164 
L 162.594938 163.380063 
L 162.892538 163.900661 
L 163.190138 165.934446 
L 163.487738 166.257392 
L 163.785338 166.909253 
L 164.082938 167.981936 
L 164.975738 169.764772 
L 165.273338 171.213068 
L 165.570938 171.61245 
L 165.868538 172.690245 
L 166.463738 172.848998 
L 166.761338 173.016106 
L 167.356538 173.982706 
L 167.654138 174.586835 
L 167.951738 175.551547 
L 168.249338 175.454645 
L 168.546938 176.263563 
L 168.844538 175.661088 
L 169.142138 176.031842 
L 169.439738 176.714866 
L 170.034938 176.376383 
L 170.332538 176.723328 
L 170.630138 178.01985 
L 170.927738 176.389076 
L 171.225338 176.397538 
L 171.522938 176.537162 
L 171.820538 176.423661 
L 172.118138 177.243746 
L 172.415738 176.617552 
L 172.713338 177.620308 
L 173.308538 175.922301 
L 173.606138 175.505203 
L 173.903738 175.762202 
L 174.498938 174.712695 
L 175.094138 174.670741 
L 175.391738 173.400455 
L 175.986938 173.287657 
L 176.582138 171.084101 
L 176.879738 171.158985 
L 177.177338 170.51831 
L 177.474938 170.314459 
L 177.772538 169.594914 
L 178.070138 169.300768 
L 178.367738 168.200599 
L 178.665338 166.467803 
L 178.962938 167.061904 
L 179.260538 166.372912 
L 179.558138 164.500525 
L 179.855738 164.192376 
L 180.153338 163.641935 
L 181.938938 158.499429 
L 182.236538 158.222331 
L 182.534138 156.38044 
L 182.831738 156.005542 
L 183.129338 156.062592 
L 183.724538 153.569353 
L 184.022138 153.102643 
L 184.617338 150.452543 
L 184.914938 151.536121 
L 185.510138 147.427711 
L 185.807738 148.230481 
L 186.105338 147.297311 
L 186.402938 147.179137 
L 186.998138 144.778974 
L 187.295738 144.045478 
L 187.593338 143.743929 
L 188.486138 141.21097 
L 188.783738 141.239612 
L 189.081338 140.057097 
L 189.378938 140.363978 
L 189.974138 138.184582 
L 190.271738 138.151712 
L 190.569338 136.919509 
L 190.866938 137.096914 
L 191.164538 136.473933 
L 191.759738 136.053111 
L 192.354938 133.431588 
L 192.652538 134.239452 
L 192.950138 133.468874 
L 193.247738 133.767162 
L 193.545338 133.816877 
L 194.140538 132.914005 
L 194.438138 132.676872 
L 194.735738 132.635269 
L 195.330938 132.793358 
L 196.223738 132.185965 
L 196.521338 131.406133 
L 196.818938 132.755916 
L 197.116538 132.772557 
L 197.414138 132.577026 
L 198.009338 133.00969 
L 198.306938 131.969633 
L 198.902138 134.086165 
L 199.199738 134.040593 
L 199.794938 134.446597 
L 200.092538 134.939601 
L 200.390138 134.45074 
L 200.687738 134.7946 
L 200.985338 135.867454 
L 201.282938 136.263522 
L 201.580538 136.861749 
L 201.878138 137.896976 
L 202.175738 137.432698 
L 202.770938 138.854293 
L 203.663738 141.026841 
L 203.961338 142.012952 
L 204.258938 142.254366 
L 204.556538 143.491281 
L 204.854138 142.283008 
L 205.151738 144.065853 
L 206.044538 145.952568 
L 206.639738 147.692584 
L 206.937338 147.696659 
L 207.234938 148.821087 
L 207.532538 148.609454 
L 208.127738 151.341321 
L 208.425338 151.958189 
L 208.722938 152.899726 
L 209.020538 153.005243 
L 209.913338 155.369845 
L 210.210938 156.865362 
L 210.210938 156.865362 
" style="fill:none;stroke:#d62728;stroke-linecap:square;stroke-width:1.5;"/>
   </g>
   <g id="line2d_27">
    <path clip-path="url(#p304c686b55)" d="M 61.410938 23.543308 
L 418.530938 23.543308 
" style="fill:none;stroke:#99aaaa;stroke-dasharray:9.6,2.4,1.5,2.4;stroke-dashoffset:0;stroke-width:1.5;"/>
   </g>
   <g id="line2d_28">
    <defs>
     <path d="M -3 3 
L 3 3 
L 3 -3 
L -3 -3 
z
" id="m9e0ac68bfd" style="stroke:#1f77b4;stroke-linejoin:miter;"/>
    </defs>
    <g clip-path="url(#p304c686b55)">
     <use style="fill:#1f77b4;stroke:#1f77b4;stroke-linejoin:miter;" x="61.410938" xlink:href="#m9e0ac68bfd" y="278.419468"/>
     <use style="fill:#1f77b4;stroke:#1f77b4;stroke-linejoin:miter;" x="70.090938" xlink:href="#m9e0ac68bfd" y="198.820828"/>
     <use style="fill:#1f77b4;stroke:#1f77b4;stroke-linejoin:miter;" x="78.770938" xlink:href="#m9e0ac68bfd" y="67.750485"/>
     <use style="fill:#1f77b4;stroke:#1f77b4;stroke-linejoin:miter;" x="87.450938" xlink:href="#m9e0ac68bfd" y="35.175172"/>
     <use style="fill:#1f77b4;stroke:#1f77b4;stroke-linejoin:miter;" x="96.130938" xlink:href="#m9e0ac68bfd" y="138.528447"/>
     <use style="fill:#1f77b4;stroke:#1f77b4;stroke-linejoin:miter;" x="104.810938" xlink:href="#m9e0ac68bfd" y="254.87235"/>
     <use style="fill:#1f77b4;stroke:#1f77b4;stroke-linejoin:miter;" x="113.490938" xlink:href="#m9e0ac68bfd" y="262.065017"/>
     <use style="fill:#1f77b4;stroke:#1f77b4;stroke-linejoin:miter;" x="122.170938" xlink:href="#m9e0ac68bfd" y="132.763932"/>
     <use style="fill:#1f77b4;stroke:#1f77b4;stroke-linejoin:miter;" x="130.850938" xlink:href="#m9e0ac68bfd" y="43.390828"/>
     <use style="fill:#1f77b4;stroke:#1f77b4;stroke-linejoin:miter;" x="139.530938" xlink:href="#m9e0ac68bfd" y="82.564941"/>
     <use style="fill:#1f77b4;stroke:#1f77b4;stroke-linejoin:miter;" x="148.210938" xlink:href="#m9e0ac68bfd" y="196.153228"/>
     <use style="fill:#1f77b4;stroke:#1f77b4;stroke-linejoin:miter;" x="156.890938" xlink:href="#m9e0ac68bfd" y="271.15319"/>
     <use style="fill:#1f77b4;stroke:#1f77b4;stroke-linejoin:miter;" x="165.570938" xlink:href="#m9e0ac68bfd" y="196.153228"/>
     <use style="fill:#1f77b4;stroke:#1f77b4;stroke-linejoin:miter;" x="174.250938" xlink:href="#m9e0ac68bfd" y="86.330677"/>
     <use style="fill:#1f77b4;stroke:#1f77b4;stroke-linejoin:miter;" x="182.930938" xlink:href="#m9e0ac68bfd" y="45.745288"/>
     <use style="fill:#1f77b4;stroke:#1f77b4;stroke-linejoin:miter;" x="191.610938" xlink:href="#m9e0ac68bfd" y="127.703784"/>
     <use style="fill:#1f77b4;stroke:#1f77b4;stroke-linejoin:miter;" x="200.290938" xlink:href="#m9e0ac68bfd" y="246.340828"/>
     <use style="fill:#1f77b4;stroke:#1f77b4;stroke-linejoin:miter;" x="208.970938" xlink:href="#m9e0ac68bfd" y="252.023055"/>
     <use style="fill:#1f77b4;stroke:#1f77b4;stroke-linejoin:miter;" x="217.650938" xlink:href="#m9e0ac68bfd" y="146.548828"/>
     <use style="fill:#1f77b4;stroke:#1f77b4;stroke-linejoin:miter;" x="226.330938" xlink:href="#m9e0ac68bfd" y="50.177449"/>
     <use style="fill:#1f77b4;stroke:#1f77b4;stroke-linejoin:miter;" x="235.010938" xlink:href="#m9e0ac68bfd" y="62.870086"/>
     <use style="fill:#1f77b4;stroke:#1f77b4;stroke-linejoin:miter;" x="243.690938" xlink:href="#m9e0ac68bfd" y="208.638988"/>
     <use style="fill:#1f77b4;stroke:#1f77b4;stroke-linejoin:miter;" x="252.370938" xlink:href="#m9e0ac68bfd" y="260.678668"/>
     <use style="fill:#1f77b4;stroke:#1f77b4;stroke-linejoin:miter;" x="261.050938" xlink:href="#m9e0ac68bfd" y="207.772881"/>
     <use style="fill:#1f77b4;stroke:#1f77b4;stroke-linejoin:miter;" x="269.730938" xlink:href="#m9e0ac68bfd" y="105.433228"/>
     <use style="fill:#1f77b4;stroke:#1f77b4;stroke-linejoin:miter;" x="278.410938" xlink:href="#m9e0ac68bfd" y="44.172674"/>
     <use style="fill:#1f77b4;stroke:#1f77b4;stroke-linejoin:miter;" x="287.090938" xlink:href="#m9e0ac68bfd" y="116.6282"/>
     <use style="fill:#1f77b4;stroke:#1f77b4;stroke-linejoin:miter;" x="295.770938" xlink:href="#m9e0ac68bfd" y="240.725847"/>
     <use style="fill:#1f77b4;stroke:#1f77b4;stroke-linejoin:miter;" x="304.450938" xlink:href="#m9e0ac68bfd" y="255.636125"/>
     <use style="fill:#1f77b4;stroke:#1f77b4;stroke-linejoin:miter;" x="313.130938" xlink:href="#m9e0ac68bfd" y="154.785979"/>
     <use style="fill:#1f77b4;stroke:#1f77b4;stroke-linejoin:miter;" x="321.810938" xlink:href="#m9e0ac68bfd" y="62.564893"/>
     <use style="fill:#1f77b4;stroke:#1f77b4;stroke-linejoin:miter;" x="330.490938" xlink:href="#m9e0ac68bfd" y="64.673757"/>
     <use style="fill:#1f77b4;stroke:#1f77b4;stroke-linejoin:miter;" x="339.170938" xlink:href="#m9e0ac68bfd" y="185.054618"/>
     <use style="fill:#1f77b4;stroke:#1f77b4;stroke-linejoin:miter;" x="347.850938" xlink:href="#m9e0ac68bfd" y="249.507106"/>
     <use style="fill:#1f77b4;stroke:#1f77b4;stroke-linejoin:miter;" x="356.530938" xlink:href="#m9e0ac68bfd" y="222.743365"/>
     <use style="fill:#1f77b4;stroke:#1f77b4;stroke-linejoin:miter;" x="365.210938" xlink:href="#m9e0ac68bfd" y="109.720828"/>
     <use style="fill:#1f77b4;stroke:#1f77b4;stroke-linejoin:miter;" x="373.890938" xlink:href="#m9e0ac68bfd" y="54.885388"/>
     <use style="fill:#1f77b4;stroke:#1f77b4;stroke-linejoin:miter;" x="382.570938" xlink:href="#m9e0ac68bfd" y="118.006993"/>
     <use style="fill:#1f77b4;stroke:#1f77b4;stroke-linejoin:miter;" x="391.250938" xlink:href="#m9e0ac68bfd" y="218.427883"/>
     <use style="fill:#1f77b4;stroke:#1f77b4;stroke-linejoin:miter;" x="399.930938" xlink:href="#m9e0ac68bfd" y="238.854288"/>
     <use style="fill:#1f77b4;stroke:#1f77b4;stroke-linejoin:miter;" x="408.610938" xlink:href="#m9e0ac68bfd" y="163.123344"/>
    </g>
   </g>
   <g id="line2d_29">
    <defs>
     <path d="M 0 3 
C 0.795609 3 1.55874 2.683901 2.12132 2.12132 
C 2.683901 1.55874 3 0.795609 3 0 
C 3 -0.795609 2.683901 -1.55874 2.12132 -2.12132 
C 1.55874 -2.683901 0.795609 -3 0 -3 
C -0.795609 -3 -1.55874 -2.683901 -2.12132 -2.12132 
C -2.683901 -1.55874 -3 -0.795609 -3 0 
C -3 0.795609 -2.683901 1.55874 -2.12132 2.12132 
C -1.55874 2.683901 -0.795609 3 0 3 
z
" id="m4d17eb6f4c" style="stroke:#d62728;"/>
    </defs>
    <g clip-path="url(#p304c686b55)">
     <use style="fill:#d62728;stroke:#d62728;" x="61.410938" xlink:href="#m4d17eb6f4c" y="271.284996"/>
     <use style="fill:#d62728;stroke:#d62728;" x="70.090938" xlink:href="#m4d17eb6f4c" y="229.008892"/>
     <use style="fill:#d62728;stroke:#d62728;" x="78.770938" xlink:href="#m4d17eb6f4c" y="152.566306"/>
     <use style="fill:#d62728;stroke:#d62728;" x="87.450938" xlink:href="#m4d17eb6f4c" y="91.410132"/>
     <use style="fill:#d62728;stroke:#d62728;" x="96.130938" xlink:href="#m4d17eb6f4c" y="110.196028"/>
     <use style="fill:#d62728;stroke:#d62728;" x="104.810938" xlink:href="#m4d17eb6f4c" y="134.384741"/>
     <use style="fill:#d62728;stroke:#d62728;" x="113.490938" xlink:href="#m4d17eb6f4c" y="174.466828"/>
     <use style="fill:#d62728;stroke:#d62728;" x="122.170938" xlink:href="#m4d17eb6f4c" y="195.850828"/>
     <use style="fill:#d62728;stroke:#d62728;" x="130.850938" xlink:href="#m4d17eb6f4c" y="149.031267"/>
     <use style="fill:#d62728;stroke:#d62728;" x="139.530938" xlink:href="#m4d17eb6f4c" y="136.197388"/>
     <use style="fill:#d62728;stroke:#d62728;" x="148.210938" xlink:href="#m4d17eb6f4c" y="104.944417"/>
     <use style="fill:#d62728;stroke:#d62728;" x="156.890938" xlink:href="#m4d17eb6f4c" y="145.954828"/>
     <use style="fill:#d62728;stroke:#d62728;" x="165.570938" xlink:href="#m4d17eb6f4c" y="172.40572"/>
     <use style="fill:#d62728;stroke:#d62728;" x="174.250938" xlink:href="#m4d17eb6f4c" y="173.915872"/>
     <use style="fill:#d62728;stroke:#d62728;" x="182.930938" xlink:href="#m4d17eb6f4c" y="174.769503"/>
     <use style="fill:#d62728;stroke:#d62728;" x="191.610938" xlink:href="#m4d17eb6f4c" y="124.167881"/>
    </g>
   </g>
   <g id="patch_3">
    <path d="M 61.410938 279.010828 
L 61.410938 12.898828 
" style="fill:none;stroke:#000000;stroke-linecap:square;stroke-linejoin:miter;stroke-width:0.8;"/>
   </g>
   <g id="patch_4">
    <path d="M 418.530938 279.010828 
L 418.530938 12.898828 
" style="fill:none;stroke:#000000;stroke-linecap:square;stroke-linejoin:miter;stroke-width:0.8;"/>
   </g>
   <g id="patch_5">
    <path d="M 61.410938 279.010828 
L 418.530938 279.010828 
" style="fill:none;stroke:#000000;stroke-linecap:square;stroke-linejoin:miter;stroke-width:0.8;"/>
   </g>
   <g id="patch_6">
    <path d="M 61.410938 12.898828 
L 418.530938 12.898828 
" style="fill:none;stroke:#000000;stroke-linecap:square;stroke-linejoin:miter;stroke-width:0.8;"/>
   </g>
   <g id="text_15">
    <!-- (C) -->
    <defs>
     <path d="M 64.40625 67.28125 
L 64.40625 56.890625 
Q 59.421875 61.53125 53.78125 63.8125 
Q 48.140625 66.109375 41.796875 66.109375 
Q 29.296875 66.109375 22.65625 58.46875 
Q 16.015625 50.828125 16.015625 36.375 
Q 16.015625 21.96875 22.65625 14.328125 
Q 29.296875 6.6875 41.796875 6.6875 
Q 48.140625 6.6875 53.78125 8.984375 
Q 59.421875 11.28125 64.40625 15.921875 
L 64.40625 5.609375 
Q 59.234375 2.09375 53.4375 0.328125 
Q 47.65625 -1.421875 41.21875 -1.421875 
Q 24.65625 -1.421875 15.125 8.703125 
Q 5.609375 18.84375 5.609375 36.375 
Q 5.609375 53.953125 15.125 64.078125 
Q 24.65625 74.21875 41.21875 74.21875 
Q 47.75 74.21875 53.53125 72.484375 
Q 59.328125 70.75 64.40625 67.28125 
z
" id="DejaVuSans-43"/>
    </defs>
    <g transform="translate(381.330938 39.510028)scale(0.2 -0.2)">
     <use xlink:href="#DejaVuSans-28"/>
     <use x="39.013672" xlink:href="#DejaVuSans-43"/>
     <use x="108.837891" xlink:href="#DejaVuSans-29"/>
    </g>
   </g>
  </g>
 </g>
 <defs>
  <clipPath id="p304c686b55">
   <rect height="266.112" width="357.12" x="61.410938" y="12.898828"/>
  </clipPath>
 </defs>
</svg>
