<?xml version="1.0" encoding="utf-8" standalone="no"?>
<!DOCTYPE svg PUBLIC "-//W3C//DTD SVG 1.1//EN"
  "http://www.w3.org/Graphics/SVG/1.1/DTD/svg11.dtd">
<!-- Created with matplotlib (http://matplotlib.org/) -->
<svg height="331pt" version="1.1" viewBox="0 0 429 331" width="429pt" xmlns="http://www.w3.org/2000/svg" xmlns:xlink="http://www.w3.org/1999/xlink">
 <defs>
  <style type="text/css">
*{stroke-linecap:butt;stroke-linejoin:round;}
  </style>
 </defs>
 <g id="figure_1">
  <g id="patch_1">
   <path d="M 0 331.128016 
L 429.230937 331.128016 
L 429.230937 0 
L 0 0 
z
" style="fill:none;"/>
  </g>
  <g id="axes_1">
   <g id="patch_2">
    <path d="M 61.410938 279.010828 
L 418.530938 279.010828 
L 418.530938 12.898828 
L 61.410938 12.898828 
z
" style="fill:none;"/>
   </g>
   <g id="matplotlib.axis_1">
    <g id="xtick_1">
     <g id="line2d_1">
      <path clip-path="url(#p304c686b55)" d="M 61.410938 279.010828 
L 61.410938 12.898828 
" style="fill:none;stroke:#b0b0b0;stroke-linecap:square;stroke-width:0.8;"/>
     </g>
     <g id="line2d_2">
      <defs>
       <path d="M 0 0 
L 0 3.5 
" id="m005f0a59be" style="stroke:#000000;stroke-width:0.8;"/>
      </defs>
      <g>
       <use style="stroke:#000000;stroke-width:0.8;" x="61.410938" xlink:href="#m005f0a59be" y="279.010828"/>
      </g>
     </g>
     <g id="text_1">
      <!-- 0 -->
      <defs>
       <path d="M 31.78125 66.40625 
Q 24.171875 66.40625 20.328125 58.90625 
Q 16.5 51.421875 16.5 36.375 
Q 16.5 21.390625 20.328125 13.890625 
Q 24.171875 6.390625 31.78125 6.390625 
Q 39.453125 6.390625 43.28125 13.890625 
Q 47.125 21.390625 47.125 36.375 
Q 47.125 51.421875 43.28125 58.90625 
Q 39.453125 66.40625 31.78125 66.40625 
z
M 31.78125 74.21875 
Q 44.046875 74.21875 50.515625 64.515625 
Q 56.984375 54.828125 56.984375 36.375 
Q 56.984375 17.96875 50.515625 8.265625 
Q 44.046875 -1.421875 31.78125 -1.421875 
Q 19.53125 -1.421875 13.0625 8.265625 
Q 6.59375 17.96875 6.59375 36.375 
Q 6.59375 54.828125 13.0625 64.515625 
Q 19.53125 74.21875 31.78125 74.21875 
z
" id="DejaVuSans-30"/>
      </defs>
      <g transform="translate(56.639063 297.408484)scale(0.15 -0.15)">
       <use xlink:href="#DejaVuSans-30"/>
      </g>
     </g>
    </g>
    <g id="xtick_2">
     <g id="line2d_3">
      <path clip-path="url(#p304c686b55)" d="M 125.182366 279.010828 
L 125.182366 12.898828 
" style="fill:none;stroke:#b0b0b0;stroke-linecap:square;stroke-width:0.8;"/>
     </g>
     <g id="line2d_4">
      <g>
       <use style="stroke:#000000;stroke-width:0.8;" x="125.182366" xlink:href="#m005f0a59be" y="279.010828"/>
      </g>
     </g>
     <g id="text_2">
      <!-- 50 -->
      <defs>
       <path d="M 10.796875 72.90625 
L 49.515625 72.90625 
L 49.515625 64.59375 
L 19.828125 64.59375 
L 19.828125 46.734375 
Q 21.96875 47.46875 24.109375 47.828125 
Q 26.265625 48.1875 28.421875 48.1875 
Q 40.625 48.1875 47.75 41.5 
Q 54.890625 34.8125 54.890625 23.390625 
Q 54.890625 11.625 47.5625 5.09375 
Q 40.234375 -1.421875 26.90625 -1.421875 
Q 22.3125 -1.421875 17.546875 -0.640625 
Q 12.796875 0.140625 7.71875 1.703125 
L 7.71875 11.625 
Q 12.109375 9.234375 16.796875 8.0625 
Q 21.484375 6.890625 26.703125 6.890625 
Q 35.15625 6.890625 40.078125 11.328125 
Q 45.015625 15.765625 45.015625 23.390625 
Q 45.015625 31 40.078125 35.4375 
Q 35.15625 39.890625 26.703125 39.890625 
Q 22.75 39.890625 18.8125 39.015625 
Q 14.890625 38.140625 10.796875 36.28125 
z
" id="DejaVuSans-35"/>
      </defs>
      <g transform="translate(115.638616 297.408484)scale(0.15 -0.15)">
       <use xlink:href="#DejaVuSans-35"/>
       <use x="63.623047" xlink:href="#DejaVuSans-30"/>
      </g>
     </g>
    </g>
    <g id="xtick_3">
     <g id="line2d_5">
      <path clip-path="url(#p304c686b55)" d="M 188.953795 279.010828 
L 188.953795 12.898828 
" style="fill:none;stroke:#b0b0b0;stroke-linecap:square;stroke-width:0.8;"/>
     </g>
     <g id="line2d_6">
      <g>
       <use style="stroke:#000000;stroke-width:0.8;" x="188.953795" xlink:href="#m005f0a59be" y="279.010828"/>
      </g>
     </g>
     <g id="text_3">
      <!-- 100 -->
      <defs>
       <path d="M 12.40625 8.296875 
L 28.515625 8.296875 
L 28.515625 63.921875 
L 10.984375 60.40625 
L 10.984375 69.390625 
L 28.421875 72.90625 
L 38.28125 72.90625 
L 38.28125 8.296875 
L 54.390625 8.296875 
L 54.390625 0 
L 12.40625 0 
z
" id="DejaVuSans-31"/>
      </defs>
      <g transform="translate(174.63817 297.408484)scale(0.15 -0.15)">
       <use xlink:href="#DejaVuSans-31"/>
       <use x="63.623047" xlink:href="#DejaVuSans-30"/>
       <use x="127.246094" xlink:href="#DejaVuSans-30"/>
      </g>
     </g>
    </g>
    <g id="xtick_4">
     <g id="line2d_7">
      <path clip-path="url(#p304c686b55)" d="M 252.725223 279.010828 
L 252.725223 12.898828 
" style="fill:none;stroke:#b0b0b0;stroke-linecap:square;stroke-width:0.8;"/>
     </g>
     <g id="line2d_8">
      <g>
       <use style="stroke:#000000;stroke-width:0.8;" x="252.725223" xlink:href="#m005f0a59be" y="279.010828"/>
      </g>
     </g>
     <g id="text_4">
      <!-- 150 -->
      <g transform="translate(238.409598 297.408484)scale(0.15 -0.15)">
       <use xlink:href="#DejaVuSans-31"/>
       <use x="63.623047" xlink:href="#DejaVuSans-35"/>
       <use x="127.246094" xlink:href="#DejaVuSans-30"/>
      </g>
     </g>
    </g>
    <g id="xtick_5">
     <g id="line2d_9">
      <path clip-path="url(#p304c686b55)" d="M 316.496652 279.010828 
L 316.496652 12.898828 
" style="fill:none;stroke:#b0b0b0;stroke-linecap:square;stroke-width:0.8;"/>
     </g>
     <g id="line2d_10">
      <g>
       <use style="stroke:#000000;stroke-width:0.8;" x="316.496652" xlink:href="#m005f0a59be" y="279.010828"/>
      </g>
     </g>
     <g id="text_5">
      <!-- 200 -->
      <defs>
       <path d="M 19.1875 8.296875 
L 53.609375 8.296875 
L 53.609375 0 
L 7.328125 0 
L 7.328125 8.296875 
Q 12.9375 14.109375 22.625 23.890625 
Q 32.328125 33.6875 34.8125 36.53125 
Q 39.546875 41.84375 41.421875 45.53125 
Q 43.3125 49.21875 43.3125 52.78125 
Q 43.3125 58.59375 39.234375 62.25 
Q 35.15625 65.921875 28.609375 65.921875 
Q 23.96875 65.921875 18.8125 64.3125 
Q 13.671875 62.703125 7.8125 59.421875 
L 7.8125 69.390625 
Q 13.765625 71.78125 18.9375 73 
Q 24.125 74.21875 28.421875 74.21875 
Q 39.75 74.21875 46.484375 68.546875 
Q 53.21875 62.890625 53.21875 53.421875 
Q 53.21875 48.921875 51.53125 44.890625 
Q 49.859375 40.875 45.40625 35.40625 
Q 44.1875 33.984375 37.640625 27.21875 
Q 31.109375 20.453125 19.1875 8.296875 
z
" id="DejaVuSans-32"/>
      </defs>
      <g transform="translate(302.181027 297.408484)scale(0.15 -0.15)">
       <use xlink:href="#DejaVuSans-32"/>
       <use x="63.623047" xlink:href="#DejaVuSans-30"/>
       <use x="127.246094" xlink:href="#DejaVuSans-30"/>
      </g>
     </g>
    </g>
    <g id="xtick_6">
     <g id="line2d_11">
      <path clip-path="url(#p304c686b55)" d="M 380.26808 279.010828 
L 380.26808 12.898828 
" style="fill:none;stroke:#b0b0b0;stroke-linecap:square;stroke-width:0.8;"/>
     </g>
     <g id="line2d_12">
      <g>
       <use style="stroke:#000000;stroke-width:0.8;" x="380.26808" xlink:href="#m005f0a59be" y="279.010828"/>
      </g>
     </g>
     <g id="text_6">
      <!-- 250 -->
      <g transform="translate(365.952455 297.408484)scale(0.15 -0.15)">
       <use xlink:href="#DejaVuSans-32"/>
       <use x="63.623047" xlink:href="#DejaVuSans-35"/>
       <use x="127.246094" xlink:href="#DejaVuSans-30"/>
      </g>
     </g>
    </g>
    <g id="text_7">
     <!-- Time ($\mu s$) -->
     <defs>
      <path d="M -0.296875 72.90625 
L 61.375 72.90625 
L 61.375 64.59375 
L 35.5 64.59375 
L 35.5 0 
L 25.59375 0 
L 25.59375 64.59375 
L -0.296875 64.59375 
z
" id="DejaVuSans-54"/>
      <path d="M 9.421875 54.6875 
L 18.40625 54.6875 
L 18.40625 0 
L 9.421875 0 
z
M 9.421875 75.984375 
L 18.40625 75.984375 
L 18.40625 64.59375 
L 9.421875 64.59375 
z
" id="DejaVuSans-69"/>
      <path d="M 52 44.1875 
Q 55.375 50.25 60.0625 53.125 
Q 64.75 56 71.09375 56 
Q 79.640625 56 84.28125 50.015625 
Q 88.921875 44.046875 88.921875 33.015625 
L 88.921875 0 
L 79.890625 0 
L 79.890625 32.71875 
Q 79.890625 40.578125 77.09375 44.375 
Q 74.3125 48.1875 68.609375 48.1875 
Q 61.625 48.1875 57.5625 43.546875 
Q 53.515625 38.921875 53.515625 30.90625 
L 53.515625 0 
L 44.484375 0 
L 44.484375 32.71875 
Q 44.484375 40.625 41.703125 44.40625 
Q 38.921875 48.1875 33.109375 48.1875 
Q 26.21875 48.1875 22.15625 43.53125 
Q 18.109375 38.875 18.109375 30.90625 
L 18.109375 0 
L 9.078125 0 
L 9.078125 54.6875 
L 18.109375 54.6875 
L 18.109375 46.1875 
Q 21.1875 51.21875 25.484375 53.609375 
Q 29.78125 56 35.6875 56 
Q 41.65625 56 45.828125 52.96875 
Q 50 49.953125 52 44.1875 
z
" id="DejaVuSans-6d"/>
      <path d="M 56.203125 29.59375 
L 56.203125 25.203125 
L 14.890625 25.203125 
Q 15.484375 15.921875 20.484375 11.0625 
Q 25.484375 6.203125 34.421875 6.203125 
Q 39.59375 6.203125 44.453125 7.46875 
Q 49.3125 8.734375 54.109375 11.28125 
L 54.109375 2.78125 
Q 49.265625 0.734375 44.1875 -0.34375 
Q 39.109375 -1.421875 33.890625 -1.421875 
Q 20.796875 -1.421875 13.15625 6.1875 
Q 5.515625 13.8125 5.515625 26.8125 
Q 5.515625 40.234375 12.765625 48.109375 
Q 20.015625 56 32.328125 56 
Q 43.359375 56 49.78125 48.890625 
Q 56.203125 41.796875 56.203125 29.59375 
z
M 47.21875 32.234375 
Q 47.125 39.59375 43.09375 43.984375 
Q 39.0625 48.390625 32.421875 48.390625 
Q 24.90625 48.390625 20.390625 44.140625 
Q 15.875 39.890625 15.1875 32.171875 
z
" id="DejaVuSans-65"/>
      <path id="DejaVuSans-20"/>
      <path d="M 31 75.875 
Q 24.46875 64.65625 21.28125 53.65625 
Q 18.109375 42.671875 18.109375 31.390625 
Q 18.109375 20.125 21.3125 9.0625 
Q 24.515625 -2 31 -13.1875 
L 23.1875 -13.1875 
Q 15.875 -1.703125 12.234375 9.375 
Q 8.59375 20.453125 8.59375 31.390625 
Q 8.59375 42.28125 12.203125 53.3125 
Q 15.828125 64.359375 23.1875 75.875 
z
" id="DejaVuSans-28"/>
      <path d="M -1.3125 -20.796875 
L 13.375 54.6875 
L 22.40625 54.6875 
L 15.765625 20.65625 
Q 15.578125 19.625 15.421875 18.359375 
Q 15.28125 17.09375 15.28125 15.828125 
Q 15.28125 11.28125 18.140625 8.828125 
Q 21 6.390625 26.3125 6.390625 
Q 33.546875 6.390625 37.984375 10.484375 
Q 42.4375 14.59375 44 22.796875 
L 50.203125 54.6875 
L 59.1875 54.6875 
L 51.03125 12.640625 
Q 50.828125 11.71875 50.75 11.03125 
Q 50.6875 10.359375 50.6875 9.8125 
Q 50.6875 8.296875 51.296875 7.59375 
Q 51.90625 6.890625 53.21875 6.890625 
Q 53.71875 6.890625 54.5625 7.125 
Q 55.421875 7.375 56.984375 8.015625 
L 55.609375 0.78125 
Q 53.46875 -0.296875 51.515625 -0.859375 
Q 49.5625 -1.421875 47.703125 -1.421875 
Q 44.484375 -1.421875 42.65625 0.625 
Q 40.828125 2.6875 40.828125 6.296875 
Q 38.09375 2.390625 34.296875 0.484375 
Q 30.515625 -1.421875 25.390625 -1.421875 
Q 20.84375 -1.421875 17.453125 0.671875 
Q 14.0625 2.78125 12.984375 6.203125 
L 7.71875 -20.796875 
z
" id="DejaVuSans-Oblique-3bc"/>
      <path d="M 50 53.078125 
L 48.296875 44.578125 
Q 44.734375 46.53125 40.765625 47.5 
Q 36.8125 48.484375 32.625 48.484375 
Q 25.53125 48.484375 21.453125 46.0625 
Q 17.390625 43.65625 17.390625 39.5 
Q 17.390625 34.671875 26.859375 32.078125 
Q 27.59375 31.890625 27.9375 31.78125 
L 30.8125 30.90625 
Q 39.796875 28.421875 42.796875 25.6875 
Q 45.796875 22.953125 45.796875 18.21875 
Q 45.796875 9.515625 38.890625 4.046875 
Q 31.984375 -1.421875 20.796875 -1.421875 
Q 16.453125 -1.421875 11.671875 -0.578125 
Q 6.890625 0.25 1.125 2 
L 2.875 11.28125 
Q 7.8125 8.734375 12.59375 7.421875 
Q 17.390625 6.109375 21.78125 6.109375 
Q 28.375 6.109375 32.5 8.9375 
Q 36.625 11.765625 36.625 16.109375 
Q 36.625 20.796875 25.78125 23.6875 
L 24.859375 23.921875 
L 21.78125 24.703125 
Q 14.9375 26.515625 11.765625 29.46875 
Q 8.59375 32.421875 8.59375 37.015625 
Q 8.59375 45.75 15.15625 50.875 
Q 21.734375 56 33.015625 56 
Q 37.453125 56 41.671875 55.265625 
Q 45.90625 54.546875 50 53.078125 
z
" id="DejaVuSans-Oblique-73"/>
      <path d="M 8.015625 75.875 
L 15.828125 75.875 
Q 23.140625 64.359375 26.78125 53.3125 
Q 30.421875 42.28125 30.421875 31.390625 
Q 30.421875 20.453125 26.78125 9.375 
Q 23.140625 -1.703125 15.828125 -13.1875 
L 8.015625 -13.1875 
Q 14.5 -2 17.703125 9.0625 
Q 20.90625 20.125 20.90625 31.390625 
Q 20.90625 42.671875 17.703125 53.65625 
Q 14.5 64.65625 8.015625 75.875 
z
" id="DejaVuSans-29"/>
     </defs>
     <g transform="translate(192.570938 319.728016)scale(0.2 -0.2)">
      <use transform="translate(0 0.015625)" xlink:href="#DejaVuSans-54"/>
      <use transform="translate(61.083984 0.015625)" xlink:href="#DejaVuSans-69"/>
      <use transform="translate(88.867188 0.015625)" xlink:href="#DejaVuSans-6d"/>
      <use transform="translate(186.279297 0.015625)" xlink:href="#DejaVuSans-65"/>
      <use transform="translate(247.802734 0.015625)" xlink:href="#DejaVuSans-20"/>
      <use transform="translate(279.589844 0.015625)" xlink:href="#DejaVuSans-28"/>
      <use transform="translate(318.603516 0.015625)" xlink:href="#DejaVuSans-Oblique-3bc"/>
      <use transform="translate(382.226562 0.015625)" xlink:href="#DejaVuSans-Oblique-73"/>
      <use transform="translate(434.326172 0.015625)" xlink:href="#DejaVuSans-29"/>
     </g>
    </g>
   </g>
   <g id="matplotlib.axis_2">
    <g id="ytick_1">
     <g id="line2d_13">
      <path clip-path="url(#p304c686b55)" d="M 61.410938 279.010828 
L 418.530938 279.010828 
" style="fill:none;stroke:#b0b0b0;stroke-linecap:square;stroke-width:0.8;"/>
     </g>
     <g id="line2d_14">
      <defs>
       <path d="M 0 0 
L -3.5 0 
" id="mc3ce260a5b" style="stroke:#000000;stroke-width:0.8;"/>
      </defs>
      <g>
       <use style="stroke:#000000;stroke-width:0.8;" x="61.410938" xlink:href="#mc3ce260a5b" y="279.010828"/>
      </g>
     </g>
     <g id="text_8">
      <!-- 0.0 -->
      <defs>
       <path d="M 10.6875 12.40625 
L 21 12.40625 
L 21 0 
L 10.6875 0 
z
" id="DejaVuSans-2e"/>
      </defs>
      <g transform="translate(30.55625 284.709656)scale(0.15 -0.15)">
       <use xlink:href="#DejaVuSans-30"/>
       <use x="63.623047" xlink:href="#DejaVuSans-2e"/>
       <use x="95.410156" xlink:href="#DejaVuSans-30"/>
      </g>
     </g>
    </g>
    <g id="ytick_2">
     <g id="line2d_15">
      <path clip-path="url(#p304c686b55)" d="M 61.410938 225.788428 
L 418.530938 225.788428 
" style="fill:none;stroke:#b0b0b0;stroke-linecap:square;stroke-width:0.8;"/>
     </g>
     <g id="line2d_16">
      <g>
       <use style="stroke:#000000;stroke-width:0.8;" x="61.410938" xlink:href="#mc3ce260a5b" y="225.788428"/>
      </g>
     </g>
     <g id="text_9">
      <!-- 0.2 -->
      <g transform="translate(30.55625 231.487256)scale(0.15 -0.15)">
       <use xlink:href="#DejaVuSans-30"/>
       <use x="63.623047" xlink:href="#DejaVuSans-2e"/>
       <use x="95.410156" xlink:href="#DejaVuSans-32"/>
      </g>
     </g>
    </g>
    <g id="ytick_3">
     <g id="line2d_17">
      <path clip-path="url(#p304c686b55)" d="M 61.410938 172.566028 
L 418.530938 172.566028 
" style="fill:none;stroke:#b0b0b0;stroke-linecap:square;stroke-width:0.8;"/>
     </g>
     <g id="line2d_18">
      <g>
       <use style="stroke:#000000;stroke-width:0.8;" x="61.410938" xlink:href="#mc3ce260a5b" y="172.566028"/>
      </g>
     </g>
     <g id="text_10">
      <!-- 0.4 -->
      <defs>
       <path d="M 37.796875 64.3125 
L 12.890625 25.390625 
L 37.796875 25.390625 
z
M 35.203125 72.90625 
L 47.609375 72.90625 
L 47.609375 25.390625 
L 58.015625 25.390625 
L 58.015625 17.1875 
L 47.609375 17.1875 
L 47.609375 0 
L 37.796875 0 
L 37.796875 17.1875 
L 4.890625 17.1875 
L 4.890625 26.703125 
z
" id="DejaVuSans-34"/>
      </defs>
      <g transform="translate(30.55625 178.264856)scale(0.15 -0.15)">
       <use xlink:href="#DejaVuSans-30"/>
       <use x="63.623047" xlink:href="#DejaVuSans-2e"/>
       <use x="95.410156" xlink:href="#DejaVuSans-34"/>
      </g>
     </g>
    </g>
    <g id="ytick_4">
     <g id="line2d_19">
      <path clip-path="url(#p304c686b55)" d="M 61.410938 119.343628 
L 418.530938 119.343628 
" style="fill:none;stroke:#b0b0b0;stroke-linecap:square;stroke-width:0.8;"/>
     </g>
     <g id="line2d_20">
      <g>
       <use style="stroke:#000000;stroke-width:0.8;" x="61.410938" xlink:href="#mc3ce260a5b" y="119.343628"/>
      </g>
     </g>
     <g id="text_11">
      <!-- 0.6 -->
      <defs>
       <path d="M 33.015625 40.375 
Q 26.375 40.375 22.484375 35.828125 
Q 18.609375 31.296875 18.609375 23.390625 
Q 18.609375 15.53125 22.484375 10.953125 
Q 26.375 6.390625 33.015625 6.390625 
Q 39.65625 6.390625 43.53125 10.953125 
Q 47.40625 15.53125 47.40625 23.390625 
Q 47.40625 31.296875 43.53125 35.828125 
Q 39.65625 40.375 33.015625 40.375 
z
M 52.59375 71.296875 
L 52.59375 62.3125 
Q 48.875 64.0625 45.09375 64.984375 
Q 41.3125 65.921875 37.59375 65.921875 
Q 27.828125 65.921875 22.671875 59.328125 
Q 17.53125 52.734375 16.796875 39.40625 
Q 19.671875 43.65625 24.015625 45.921875 
Q 28.375 48.1875 33.59375 48.1875 
Q 44.578125 48.1875 50.953125 41.515625 
Q 57.328125 34.859375 57.328125 23.390625 
Q 57.328125 12.15625 50.6875 5.359375 
Q 44.046875 -1.421875 33.015625 -1.421875 
Q 20.359375 -1.421875 13.671875 8.265625 
Q 6.984375 17.96875 6.984375 36.375 
Q 6.984375 53.65625 15.1875 63.9375 
Q 23.390625 74.21875 37.203125 74.21875 
Q 40.921875 74.21875 44.703125 73.484375 
Q 48.484375 72.75 52.59375 71.296875 
z
" id="DejaVuSans-36"/>
      </defs>
      <g transform="translate(30.55625 125.042456)scale(0.15 -0.15)">
       <use xlink:href="#DejaVuSans-30"/>
       <use x="63.623047" xlink:href="#DejaVuSans-2e"/>
       <use x="95.410156" xlink:href="#DejaVuSans-36"/>
      </g>
     </g>
    </g>
    <g id="ytick_5">
     <g id="line2d_21">
      <path clip-path="url(#p304c686b55)" d="M 61.410938 66.121228 
L 418.530938 66.121228 
" style="fill:none;stroke:#b0b0b0;stroke-linecap:square;stroke-width:0.8;"/>
     </g>
     <g id="line2d_22">
      <g>
       <use style="stroke:#000000;stroke-width:0.8;" x="61.410938" xlink:href="#mc3ce260a5b" y="66.121228"/>
      </g>
     </g>
     <g id="text_12">
      <!-- 0.8 -->
      <defs>
       <path d="M 31.78125 34.625 
Q 24.75 34.625 20.71875 30.859375 
Q 16.703125 27.09375 16.703125 20.515625 
Q 16.703125 13.921875 20.71875 10.15625 
Q 24.75 6.390625 31.78125 6.390625 
Q 38.8125 6.390625 42.859375 10.171875 
Q 46.921875 13.96875 46.921875 20.515625 
Q 46.921875 27.09375 42.890625 30.859375 
Q 38.875 34.625 31.78125 34.625 
z
M 21.921875 38.8125 
Q 15.578125 40.375 12.03125 44.71875 
Q 8.5 49.078125 8.5 55.328125 
Q 8.5 64.0625 14.71875 69.140625 
Q 20.953125 74.21875 31.78125 74.21875 
Q 42.671875 74.21875 48.875 69.140625 
Q 55.078125 64.0625 55.078125 55.328125 
Q 55.078125 49.078125 51.53125 44.71875 
Q 48 40.375 41.703125 38.8125 
Q 48.828125 37.15625 52.796875 32.3125 
Q 56.78125 27.484375 56.78125 20.515625 
Q 56.78125 9.90625 50.3125 4.234375 
Q 43.84375 -1.421875 31.78125 -1.421875 
Q 19.734375 -1.421875 13.25 4.234375 
Q 6.78125 9.90625 6.78125 20.515625 
Q 6.78125 27.484375 10.78125 32.3125 
Q 14.796875 37.15625 21.921875 38.8125 
z
M 18.3125 54.390625 
Q 18.3125 48.734375 21.84375 45.5625 
Q 25.390625 42.390625 31.78125 42.390625 
Q 38.140625 42.390625 41.71875 45.5625 
Q 45.3125 48.734375 45.3125 54.390625 
Q 45.3125 60.0625 41.71875 63.234375 
Q 38.140625 66.40625 31.78125 66.40625 
Q 25.390625 66.40625 21.84375 63.234375 
Q 18.3125 60.0625 18.3125 54.390625 
z
" id="DejaVuSans-38"/>
      </defs>
      <g transform="translate(30.55625 71.820056)scale(0.15 -0.15)">
       <use xlink:href="#DejaVuSans-30"/>
       <use x="63.623047" xlink:href="#DejaVuSans-2e"/>
       <use x="95.410156" xlink:href="#DejaVuSans-38"/>
      </g>
     </g>
    </g>
    <g id="ytick_6">
     <g id="line2d_23">
      <path clip-path="url(#p304c686b55)" d="M 61.410938 12.898828 
L 418.530938 12.898828 
" style="fill:none;stroke:#b0b0b0;stroke-linecap:square;stroke-width:0.8;"/>
     </g>
     <g id="line2d_24">
      <g>
       <use style="stroke:#000000;stroke-width:0.8;" x="61.410938" xlink:href="#mc3ce260a5b" y="12.898828"/>
      </g>
     </g>
     <g id="text_13">
      <!-- 1.0 -->
      <g transform="translate(30.55625 18.597656)scale(0.15 -0.15)">
       <use xlink:href="#DejaVuSans-31"/>
       <use x="63.623047" xlink:href="#DejaVuSans-2e"/>
       <use x="95.410156" xlink:href="#DejaVuSans-30"/>
      </g>
     </g>
    </g>
    <g id="text_14">
     <!-- F=1 population -->
     <defs>
      <path d="M 9.8125 72.90625 
L 51.703125 72.90625 
L 51.703125 64.59375 
L 19.671875 64.59375 
L 19.671875 43.109375 
L 48.578125 43.109375 
L 48.578125 34.8125 
L 19.671875 34.8125 
L 19.671875 0 
L 9.8125 0 
z
" id="DejaVuSans-46"/>
      <path d="M 10.59375 45.40625 
L 73.1875 45.40625 
L 73.1875 37.203125 
L 10.59375 37.203125 
z
M 10.59375 25.484375 
L 73.1875 25.484375 
L 73.1875 17.1875 
L 10.59375 17.1875 
z
" id="DejaVuSans-3d"/>
      <path d="M 18.109375 8.203125 
L 18.109375 -20.796875 
L 9.078125 -20.796875 
L 9.078125 54.6875 
L 18.109375 54.6875 
L 18.109375 46.390625 
Q 20.953125 51.265625 25.265625 53.625 
Q 29.59375 56 35.59375 56 
Q 45.5625 56 51.78125 48.09375 
Q 58.015625 40.1875 58.015625 27.296875 
Q 58.015625 14.40625 51.78125 6.484375 
Q 45.5625 -1.421875 35.59375 -1.421875 
Q 29.59375 -1.421875 25.265625 0.953125 
Q 20.953125 3.328125 18.109375 8.203125 
z
M 48.6875 27.296875 
Q 48.6875 37.203125 44.609375 42.84375 
Q 40.53125 48.484375 33.40625 48.484375 
Q 26.265625 48.484375 22.1875 42.84375 
Q 18.109375 37.203125 18.109375 27.296875 
Q 18.109375 17.390625 22.1875 11.75 
Q 26.265625 6.109375 33.40625 6.109375 
Q 40.53125 6.109375 44.609375 11.75 
Q 48.6875 17.390625 48.6875 27.296875 
z
" id="DejaVuSans-70"/>
      <path d="M 30.609375 48.390625 
Q 23.390625 48.390625 19.1875 42.75 
Q 14.984375 37.109375 14.984375 27.296875 
Q 14.984375 17.484375 19.15625 11.84375 
Q 23.34375 6.203125 30.609375 6.203125 
Q 37.796875 6.203125 41.984375 11.859375 
Q 46.1875 17.53125 46.1875 27.296875 
Q 46.1875 37.015625 41.984375 42.703125 
Q 37.796875 48.390625 30.609375 48.390625 
z
M 30.609375 56 
Q 42.328125 56 49.015625 48.375 
Q 55.71875 40.765625 55.71875 27.296875 
Q 55.71875 13.875 49.015625 6.21875 
Q 42.328125 -1.421875 30.609375 -1.421875 
Q 18.84375 -1.421875 12.171875 6.21875 
Q 5.515625 13.875 5.515625 27.296875 
Q 5.515625 40.765625 12.171875 48.375 
Q 18.84375 56 30.609375 56 
z
" id="DejaVuSans-6f"/>
      <path d="M 8.5 21.578125 
L 8.5 54.6875 
L 17.484375 54.6875 
L 17.484375 21.921875 
Q 17.484375 14.15625 20.5 10.265625 
Q 23.53125 6.390625 29.59375 6.390625 
Q 36.859375 6.390625 41.078125 11.03125 
Q 45.3125 15.671875 45.3125 23.6875 
L 45.3125 54.6875 
L 54.296875 54.6875 
L 54.296875 0 
L 45.3125 0 
L 45.3125 8.40625 
Q 42.046875 3.421875 37.71875 1 
Q 33.40625 -1.421875 27.6875 -1.421875 
Q 18.265625 -1.421875 13.375 4.4375 
Q 8.5 10.296875 8.5 21.578125 
z
M 31.109375 56 
z
" id="DejaVuSans-75"/>
      <path d="M 9.421875 75.984375 
L 18.40625 75.984375 
L 18.40625 0 
L 9.421875 0 
z
" id="DejaVuSans-6c"/>
      <path d="M 34.28125 27.484375 
Q 23.390625 27.484375 19.1875 25 
Q 14.984375 22.515625 14.984375 16.5 
Q 14.984375 11.71875 18.140625 8.90625 
Q 21.296875 6.109375 26.703125 6.109375 
Q 34.1875 6.109375 38.703125 11.40625 
Q 43.21875 16.703125 43.21875 25.484375 
L 43.21875 27.484375 
z
M 52.203125 31.203125 
L 52.203125 0 
L 43.21875 0 
L 43.21875 8.296875 
Q 40.140625 3.328125 35.546875 0.953125 
Q 30.953125 -1.421875 24.3125 -1.421875 
Q 15.921875 -1.421875 10.953125 3.296875 
Q 6 8.015625 6 15.921875 
Q 6 25.140625 12.171875 29.828125 
Q 18.359375 34.515625 30.609375 34.515625 
L 43.21875 34.515625 
L 43.21875 35.40625 
Q 43.21875 41.609375 39.140625 45 
Q 35.0625 48.390625 27.6875 48.390625 
Q 23 48.390625 18.546875 47.265625 
Q 14.109375 46.140625 10.015625 43.890625 
L 10.015625 52.203125 
Q 14.9375 54.109375 19.578125 55.046875 
Q 24.21875 56 28.609375 56 
Q 40.484375 56 46.34375 49.84375 
Q 52.203125 43.703125 52.203125 31.203125 
z
" id="DejaVuSans-61"/>
      <path d="M 18.3125 70.21875 
L 18.3125 54.6875 
L 36.8125 54.6875 
L 36.8125 47.703125 
L 18.3125 47.703125 
L 18.3125 18.015625 
Q 18.3125 11.328125 20.140625 9.421875 
Q 21.96875 7.515625 27.59375 7.515625 
L 36.8125 7.515625 
L 36.8125 0 
L 27.59375 0 
Q 17.1875 0 13.234375 3.875 
Q 9.28125 7.765625 9.28125 18.015625 
L 9.28125 47.703125 
L 2.6875 47.703125 
L 2.6875 54.6875 
L 9.28125 54.6875 
L 9.28125 70.21875 
z
" id="DejaVuSans-74"/>
      <path d="M 54.890625 33.015625 
L 54.890625 0 
L 45.90625 0 
L 45.90625 32.71875 
Q 45.90625 40.484375 42.875 44.328125 
Q 39.84375 48.1875 33.796875 48.1875 
Q 26.515625 48.1875 22.3125 43.546875 
Q 18.109375 38.921875 18.109375 30.90625 
L 18.109375 0 
L 9.078125 0 
L 9.078125 54.6875 
L 18.109375 54.6875 
L 18.109375 46.1875 
Q 21.34375 51.125 25.703125 53.5625 
Q 30.078125 56 35.796875 56 
Q 45.21875 56 50.046875 50.171875 
Q 54.890625 44.34375 54.890625 33.015625 
z
" id="DejaVuSans-6e"/>
     </defs>
     <g transform="translate(22.396875 222.840766)rotate(-90)scale(0.2 -0.2)">
      <use xlink:href="#DejaVuSans-46"/>
      <use x="57.519531" xlink:href="#DejaVuSans-3d"/>
      <use x="141.308594" xlink:href="#DejaVuSans-31"/>
      <use x="204.931641" xlink:href="#DejaVuSans-20"/>
      <use x="236.71875" xlink:href="#DejaVuSans-70"/>
      <use x="300.195312" xlink:href="#DejaVuSans-6f"/>
      <use x="361.376953" xlink:href="#DejaVuSans-70"/>
      <use x="424.853516" xlink:href="#DejaVuSans-75"/>
      <use x="488.232422" xlink:href="#DejaVuSans-6c"/>
      <use x="516.015625" xlink:href="#DejaVuSans-61"/>
      <use x="577.294922" xlink:href="#DejaVuSans-74"/>
      <use x="616.503906" xlink:href="#DejaVuSans-69"/>
      <use x="644.287109" xlink:href="#DejaVuSans-6f"/>
      <use x="705.46875" xlink:href="#DejaVuSans-6e"/>
     </g>
    </g>
   </g>
   <g id="LineCollection_1">
    <path clip-path="url(#p304c686b55)" d="M 61.410938 279.010828 
L 61.410938 277.828108 
" style="fill:none;stroke:#1f77b4;stroke-width:1.5;"/>
    <path clip-path="url(#p304c686b55)" d="M 72.889795 234.356965 
L 72.889795 220.308691 
" style="fill:none;stroke:#1f77b4;stroke-width:1.5;"/>
    <path clip-path="url(#p304c686b55)" d="M 84.368652 130.695657 
L 84.368652 113.360525 
" style="fill:none;stroke:#1f77b4;stroke-width:1.5;"/>
    <path clip-path="url(#p304c686b55)" d="M 95.847509 65.433052 
L 95.847509 52.167434 
" style="fill:none;stroke:#1f77b4;stroke-width:1.5;"/>
    <path clip-path="url(#p304c686b55)" d="M 107.326366 77.208966 
L 107.326366 62.279733 
" style="fill:none;stroke:#1f77b4;stroke-width:1.5;"/>
    <path clip-path="url(#p304c686b55)" d="M 118.805223 147.379409 
L 118.805223 128.642964 
" style="fill:none;stroke:#1f77b4;stroke-width:1.5;"/>
    <path clip-path="url(#p304c686b55)" d="M 130.28408 231.147908 
L 130.28408 216.957922 
" style="fill:none;stroke:#1f77b4;stroke-width:1.5;"/>
    <path clip-path="url(#p304c686b55)" d="M 141.762938 271.980199 
L 141.762938 265.000044 
" style="fill:none;stroke:#1f77b4;stroke-width:1.5;"/>
    <path clip-path="url(#p304c686b55)" d="M 153.241795 227.740088 
L 153.241795 212.697196 
" style="fill:none;stroke:#1f77b4;stroke-width:1.5;"/>
    <path clip-path="url(#p304c686b55)" d="M 164.720652 109.976957 
L 164.720652 93.606163 
" style="fill:none;stroke:#1f77b4;stroke-width:1.5;"/>
    <path clip-path="url(#p304c686b55)" d="M 176.199509 52.841603 
L 176.199509 40.975712 
" style="fill:none;stroke:#1f77b4;stroke-width:1.5;"/>
    <path clip-path="url(#p304c686b55)" d="M 187.678366 71.181582 
L 187.678366 56.772813 
" style="fill:none;stroke:#1f77b4;stroke-width:1.5;"/>
    <path clip-path="url(#p304c686b55)" d="M 199.157223 146.069267 
L 199.157223 128.634872 
" style="fill:none;stroke:#1f77b4;stroke-width:1.5;"/>
    <path clip-path="url(#p304c686b55)" d="M 210.63608 234.708827 
L 210.63608 220.178514 
" style="fill:none;stroke:#1f77b4;stroke-width:1.5;"/>
    <path clip-path="url(#p304c686b55)" d="M 222.114938 259.881916 
L 222.114938 249.415008 
" style="fill:none;stroke:#1f77b4;stroke-width:1.5;"/>
    <path clip-path="url(#p304c686b55)" d="M 233.593795 227.495545 
L 233.593795 212.392279 
" style="fill:none;stroke:#1f77b4;stroke-width:1.5;"/>
    <path clip-path="url(#p304c686b55)" d="M 245.072652 132.58349 
L 245.072652 114.974166 
" style="fill:none;stroke:#1f77b4;stroke-width:1.5;"/>
    <path clip-path="url(#p304c686b55)" d="M 256.551509 52.006323 
L 256.551509 40.006995 
" style="fill:none;stroke:#1f77b4;stroke-width:1.5;"/>
    <path clip-path="url(#p304c686b55)" d="M 268.030366 77.728751 
L 268.030366 62.980906 
" style="fill:none;stroke:#1f77b4;stroke-width:1.5;"/>
    <path clip-path="url(#p304c686b55)" d="M 279.509223 157.635516 
L 279.509223 139.318918 
" style="fill:none;stroke:#1f77b4;stroke-width:1.5;"/>
    <path clip-path="url(#p304c686b55)" d="M 290.98808 230.558301 
L 290.98808 215.868001 
" style="fill:none;stroke:#1f77b4;stroke-width:1.5;"/>
    <path clip-path="url(#p304c686b55)" d="M 302.466938 253.489804 
L 302.466938 242.62008 
" style="fill:none;stroke:#1f77b4;stroke-width:1.5;"/>
    <path clip-path="url(#p304c686b55)" d="M 313.945795 216.458353 
L 313.945795 200.819624 
" style="fill:none;stroke:#1f77b4;stroke-width:1.5;"/>
    <path clip-path="url(#p304c686b55)" d="M 325.424652 131.364131 
L 325.424652 113.208294 
" style="fill:none;stroke:#1f77b4;stroke-width:1.5;"/>
    <path clip-path="url(#p304c686b55)" d="M 336.903509 49.475396 
L 336.903509 37.829279 
" style="fill:none;stroke:#1f77b4;stroke-width:1.5;"/>
    <path clip-path="url(#p304c686b55)" d="M 348.382366 71.917659 
L 348.382366 58.345451 
" style="fill:none;stroke:#1f77b4;stroke-width:1.5;"/>
    <path clip-path="url(#p304c686b55)" d="M 359.861223 148.814814 
L 359.861223 130.601321 
" style="fill:none;stroke:#1f77b4;stroke-width:1.5;"/>
    <path clip-path="url(#p304c686b55)" d="M 371.34008 219.946817 
L 371.34008 205.018839 
" style="fill:none;stroke:#1f77b4;stroke-width:1.5;"/>
    <path clip-path="url(#p304c686b55)" d="M 382.818938 253.297482 
L 382.818938 241.599932 
" style="fill:none;stroke:#1f77b4;stroke-width:1.5;"/>
    <path clip-path="url(#p304c686b55)" d="M 394.297795 208.020527 
L 394.297795 192.506272 
" style="fill:none;stroke:#1f77b4;stroke-width:1.5;"/>
    <path clip-path="url(#p304c686b55)" d="M 405.776652 131.730191 
L 405.776652 113.73539 
" style="fill:none;stroke:#1f77b4;stroke-width:1.5;"/>
   </g>
   <g id="LineCollection_2">
    <path clip-path="url(#p304c686b55)" d="M 61.410938 274.780846 
L 61.410938 267.789145 
" style="fill:none;stroke:#d62728;stroke-width:1.5;"/>
    <path clip-path="url(#p304c686b55)" d="M 72.889795 180.172589 
L 72.889795 160.397547 
" style="fill:none;stroke:#d62728;stroke-width:1.5;"/>
    <path clip-path="url(#p304c686b55)" d="M 84.368652 100.494107 
L 84.368652 80.684382 
" style="fill:none;stroke:#d62728;stroke-width:1.5;"/>
    <path clip-path="url(#p304c686b55)" d="M 95.847509 109.194276 
L 95.847509 90.542509 
" style="fill:none;stroke:#d62728;stroke-width:1.5;"/>
    <path clip-path="url(#p304c686b55)" d="M 107.326366 176.537479 
L 107.326366 156.312485 
" style="fill:none;stroke:#d62728;stroke-width:1.5;"/>
    <path clip-path="url(#p304c686b55)" d="M 118.805223 177.063517 
L 118.805223 155.221753 
" style="fill:none;stroke:#d62728;stroke-width:1.5;"/>
    <path clip-path="url(#p304c686b55)" d="M 130.28408 137.354039 
L 130.28408 117.206565 
" style="fill:none;stroke:#d62728;stroke-width:1.5;"/>
    <path clip-path="url(#p304c686b55)" d="M 141.762938 179.253661 
L 141.762938 157.318149 
" style="fill:none;stroke:#d62728;stroke-width:1.5;"/>
    <path clip-path="url(#p304c686b55)" d="M 153.241795 205.549644 
L 153.241795 185.252985 
" style="fill:none;stroke:#d62728;stroke-width:1.5;"/>
    <path clip-path="url(#p304c686b55)" d="M 164.720652 153.037766 
L 164.720652 132.573381 
" style="fill:none;stroke:#d62728;stroke-width:1.5;"/>
    <path clip-path="url(#p304c686b55)" d="M 176.199509 147.301183 
L 176.199509 126.313273 
" style="fill:none;stroke:#d62728;stroke-width:1.5;"/>
    <path clip-path="url(#p304c686b55)" d="M 187.678366 135.91019 
L 187.678366 114.795027 
" style="fill:none;stroke:#d62728;stroke-width:1.5;"/>
    <path clip-path="url(#p304c686b55)" d="M 199.157223 170.080831 
L 199.157223 149.413606 
" style="fill:none;stroke:#d62728;stroke-width:1.5;"/>
    <path clip-path="url(#p304c686b55)" d="M 210.63608 154.832355 
L 210.63608 133.729981 
" style="fill:none;stroke:#d62728;stroke-width:1.5;"/>
    <path clip-path="url(#p304c686b55)" d="M 222.114938 157.460537 
L 222.114938 136.154966 
" style="fill:none;stroke:#d62728;stroke-width:1.5;"/>
    <path clip-path="url(#p304c686b55)" d="M 233.593795 180.50109 
L 233.593795 159.480411 
" style="fill:none;stroke:#d62728;stroke-width:1.5;"/>
   </g>
   <g id="line2d_25">
    <path clip-path="url(#p304c686b55)" d="M 61.410938 278.518987 
L 61.768058 278.518987 
L 62.125178 278.188961 
L 62.482298 278.518987 
L 62.839418 278.518987 
L 63.553658 276.493623 
L 63.910778 276.172618 
L 64.267898 278.518987 
L 64.625018 274.626063 
L 64.982138 272.592918 
L 65.696378 271.435148 
L 66.053498 270.109603 
L 66.410618 269.424646 
L 67.124858 264.930159 
L 67.839098 263.220005 
L 68.910458 256.329721 
L 69.267578 254.147881 
L 69.624698 252.799133 
L 69.981818 250.979482 
L 70.696058 245.00735 
L 71.410298 240.910003 
L 72.124538 234.729895 
L 73.195898 227.157774 
L 73.910138 220.276974 
L 74.267258 218.400735 
L 74.624378 215.087283 
L 75.338618 207.501031 
L 76.052858 203.018385 
L 76.767098 195.225163 
L 77.481338 189.568634 
L 79.624058 168.637235 
L 79.981178 165.294263 
L 80.695418 156.942146 
L 82.838138 136.823874 
L 83.195258 132.597145 
L 83.909498 126.552596 
L 85.695098 109.408762 
L 86.052218 107.135949 
L 87.123578 97.282382 
L 90.337658 71.755346 
L 92.123258 60.069311 
L 92.480378 58.252543 
L 92.837498 55.271091 
L 93.194618 54.164513 
L 93.908858 49.572733 
L 94.265978 48.239059 
L 94.623098 45.805706 
L 94.980218 45.431453 
L 95.337338 43.381503 
L 95.694458 42.114428 
L 96.051578 41.430649 
L 96.765818 39.174925 
L 97.837178 35.90517 
L 98.194298 36.445809 
L 98.551418 34.278817 
L 98.908538 33.521673 
L 99.622778 33.244097 
L 99.979898 33.415881 
L 100.337018 33.097818 
L 100.694138 33.592201 
L 101.408378 31.881689 
L 101.765498 32.231464 
L 102.836858 34.551082 
L 103.193978 35.279902 
L 103.551098 35.359174 
L 104.265338 37.835497 
L 104.622458 38.904625 
L 104.979578 39.514801 
L 105.336698 40.897372 
L 105.693818 41.536448 
L 106.050938 42.555132 
L 106.408058 45.245408 
L 106.765178 45.863439 
L 107.479418 49.743299 
L 107.836538 50.805314 
L 109.265018 58.965084 
L 109.622138 60.830486 
L 110.693498 68.27832 
L 111.050618 70.7983 
L 111.407738 71.700863 
L 112.121978 78.230295 
L 113.193338 86.75558 
L 113.550458 89.994527 
L 113.907578 91.797312 
L 114.264698 95.529827 
L 114.978938 100.561684 
L 116.764538 117.013456 
L 117.478778 122.559161 
L 118.193018 129.861594 
L 121.049978 155.800844 
L 121.407098 158.200815 
L 121.764218 162.807825 
L 123.906938 181.6242 
L 124.264058 185.732461 
L 124.621178 187.83457 
L 124.978298 191.571727 
L 125.335418 193.771806 
L 127.121018 208.996197 
L 127.478138 211.888937 
L 128.192378 216.0615 
L 128.906618 222.697057 
L 129.620858 227.607999 
L 130.335098 233.160256 
L 131.049338 236.043973 
L 131.406458 238.267337 
L 131.763578 242.01193 
L 132.120698 242.445019 
L 133.192058 248.834934 
L 134.263418 254.375495 
L 134.977658 255.341087 
L 135.334778 258.043473 
L 135.691898 259.578831 
L 136.763258 262.232072 
L 137.120378 262.952057 
L 137.834618 264.987128 
L 138.548858 265.700455 
L 138.905978 267.060592 
L 139.263098 265.978616 
L 139.620218 267.018927 
L 139.977338 266.742945 
L 140.334458 267.471613 
L 140.691578 267.060592 
L 141.048698 267.262568 
L 141.405818 266.394669 
L 141.762938 266.499716 
L 142.477178 266.247603 
L 143.191418 264.816223 
L 143.548538 265.33175 
L 143.905658 262.627209 
L 144.262777 262.183508 
L 144.977018 260.624774 
L 145.334138 260.750178 
L 145.691258 257.885477 
L 146.048378 257.267144 
L 146.405498 255.531444 
L 146.762618 255.015073 
L 147.119738 252.686891 
L 147.476858 251.501592 
L 147.833978 249.061891 
L 148.905338 244.030822 
L 149.976698 237.181211 
L 150.690938 234.486498 
L 154.976378 203.403983 
L 155.333498 199.596099 
L 156.047738 194.173532 
L 156.404858 190.602319 
L 157.119098 185.979338 
L 157.833338 179.944235 
L 159.618938 164.80867 
L 160.690298 155.449236 
L 161.047418 151.599966 
L 161.404538 149.050167 
L 161.761658 145.347007 
L 162.118778 143.147047 
L 164.975738 118.797442 
L 165.332858 116.521897 
L 166.404218 107.754508 
L 166.761338 105.497473 
L 167.475578 99.306879 
L 167.832698 96.901295 
L 168.189818 95.539955 
L 168.546938 91.802565 
L 168.904058 90.320137 
L 169.261178 87.040709 
L 169.618298 84.960854 
L 169.975418 82.121008 
L 170.332538 80.615767 
L 170.689658 77.576204 
L 171.046778 76.386533 
L 171.403898 73.296206 
L 171.761018 72.000518 
L 173.189498 64.143953 
L 173.546618 63.174723 
L 173.903738 61.353236 
L 174.260858 61.268835 
L 174.617978 58.13782 
L 175.689338 54.836536 
L 176.046458 53.176397 
L 176.403578 52.924883 
L 176.760698 51.158178 
L 177.832058 48.898121 
L 178.189178 47.303447 
L 178.546298 47.623524 
L 178.903418 47.4806 
L 179.260538 48.226399 
L 179.617658 46.385875 
L 179.974778 46.745202 
L 180.331898 47.584545 
L 180.689018 46.193867 
L 181.046138 46.747867 
L 181.403258 46.623459 
L 181.760378 47.402642 
L 182.117498 46.677567 
L 182.474618 46.385875 
L 183.545978 49.178516 
L 183.903098 49.695709 
L 184.617338 51.267373 
L 184.974458 51.840118 
L 185.688698 54.184873 
L 186.045818 55.775258 
L 186.402938 56.124322 
L 186.760058 58.064673 
L 187.117178 58.991773 
L 187.474298 60.320515 
L 187.831418 62.541727 
L 188.188538 63.476292 
L 188.902778 67.520828 
L 189.259898 68.742476 
L 191.759738 84.05325 
L 192.116858 86.048796 
L 192.473978 88.750857 
L 192.831098 90.010541 
L 193.188218 94.061959 
L 193.902458 98.368877 
L 194.259578 101.782371 
L 194.616698 103.189375 
L 194.973818 107.560698 
L 195.330938 109.015588 
L 195.688058 111.218388 
L 202.116218 164.144823 
L 202.830458 170.345757 
L 206.401658 198.689726 
L 206.758778 200.584381 
L 207.830138 209.660109 
L 208.187258 211.728662 
L 208.544378 215.357069 
L 208.901498 216.110066 
L 209.615738 222.267203 
L 209.972858 223.484411 
L 211.401338 233.678488 
L 211.758458 234.507361 
L 213.544058 245.145945 
L 213.901178 245.899035 
L 214.258298 246.285757 
L 214.972538 250.288949 
L 215.686778 252.237283 
L 216.043898 254.409942 
L 216.401018 254.570694 
L 216.758138 255.270185 
L 217.829498 258.578271 
L 218.543738 259.607045 
L 218.900858 260.300531 
L 219.257978 259.841048 
L 219.615098 259.926914 
L 219.972218 260.315269 
L 220.329338 261.367611 
L 220.686458 261.046549 
L 221.400698 261.046549 
L 221.757818 260.750178 
L 222.114938 260.894631 
L 222.472058 260.565821 
L 222.829178 260.418438 
L 223.186298 259.494191 
L 223.543418 259.712247 
L 223.900538 258.227193 
L 224.614778 257.513774 
L 224.971898 256.29269 
L 225.329018 255.82316 
L 225.686138 254.432907 
L 226.043258 254.159231 
L 226.400378 250.999842 
L 226.757498 250.590387 
L 227.471738 247.572687 
L 227.828858 246.781523 
L 228.543098 242.996141 
L 228.900218 242.388584 
L 229.257338 238.655428 
L 229.614458 237.569149 
L 229.971578 234.864081 
L 230.328698 233.296463 
L 230.685818 230.763959 
L 231.042938 229.574913 
L 232.114298 223.202268 
L 232.471418 220.506961 
L 232.828538 219.606346 
L 233.185658 216.926308 
L 233.542778 213.111878 
L 233.899898 211.477322 
L 234.257018 208.032622 
L 234.971258 202.94648 
L 235.685498 197.963402 
L 236.042618 195.502758 
L 236.399738 191.271665 
L 236.756858 188.658248 
L 237.113978 186.948545 
L 240.685178 156.379589 
L 241.042298 155.215459 
L 241.399418 150.846234 
L 241.756538 148.633308 
L 242.113658 145.488658 
L 242.470778 143.443706 
L 242.827898 138.815146 
L 243.542138 133.493754 
L 244.970618 121.943351 
L 245.684858 115.71275 
L 246.041978 113.876867 
L 246.399098 111.375813 
L 246.756218 107.782195 
L 247.827578 100.586007 
L 248.184698 97.212558 
L 248.541818 95.88938 
L 248.898938 92.52137 
L 249.256058 91.070792 
L 249.613178 87.847027 
L 249.970298 85.636965 
L 250.327418 85.022926 
L 251.041658 80.07444 
L 251.755898 76.424514 
L 252.113018 72.403805 
L 252.470138 71.536768 
L 252.827258 69.34527 
L 253.184378 68.468572 
L 254.969978 61.38175 
L 255.327098 58.849948 
L 255.684218 59.062944 
L 256.041337 57.094001 
L 256.398458 57.084597 
L 256.755578 55.320465 
L 257.112698 54.876434 
L 257.469818 53.449531 
L 257.826938 53.470541 
L 258.541178 50.78235 
L 258.898298 50.58715 
L 259.255418 50.805314 
L 259.612538 50.444148 
L 259.969658 51.413251 
L 260.326778 50.316357 
L 260.683898 49.850375 
L 261.041018 51.078726 
L 261.398138 51.192229 
L 262.112378 50.942521 
L 262.469497 51.40203 
L 264.255098 55.046003 
L 264.612218 55.35009 
L 266.040698 60.864537 
L 266.397818 61.007192 
L 266.754938 62.090241 
L 267.469178 65.63151 
L 267.826298 67.960897 
L 268.183418 68.321886 
L 268.540538 71.239172 
L 268.897658 72.801606 
L 269.254778 73.594444 
L 269.611898 75.486447 
L 269.969018 78.624786 
L 270.683258 81.625041 
L 271.040378 85.017283 
L 271.754617 88.190744 
L 272.111738 91.613468 
L 273.540218 100.508174 
L 273.897338 104.08751 
L 274.968698 111.046254 
L 275.682938 116.802788 
L 276.040058 118.353716 
L 277.825658 134.187902 
L 285.325178 195.238816 
L 285.682298 197.188492 
L 286.039418 201.712336 
L 286.396538 203.870812 
L 286.753658 205.008685 
L 288.182138 216.399289 
L 288.539258 218.753708 
L 288.896378 220.203616 
L 289.253498 223.214024 
L 289.610617 224.409714 
L 289.967737 227.285043 
L 290.681978 230.685482 
L 291.039098 233.959651 
L 291.753338 237.760753 
L 292.110458 238.708195 
L 293.538938 245.749148 
L 293.896058 245.960753 
L 294.253178 247.816436 
L 294.610298 248.346966 
L 295.324538 251.129811 
L 295.681658 253.059568 
L 296.038778 253.07845 
L 296.395898 254.045728 
L 296.753018 255.436265 
L 297.110138 256.012358 
L 297.467258 256.366751 
L 297.824378 257.140777 
L 298.181498 258.564744 
L 298.895737 258.096138 
L 299.252858 258.293914 
L 299.609978 259.508298 
L 299.967098 257.859144 
L 300.324218 257.721663 
L 300.681338 259.089964 
L 301.038458 258.293914 
L 301.752698 257.898643 
L 302.109818 257.591732 
L 302.466938 256.268003 
L 302.824058 255.618439 
L 303.181178 256.024549 
L 303.895418 253.102974 
L 304.252538 252.65469 
L 304.609658 251.428114 
L 305.681018 249.216791 
L 306.395258 246.294653 
L 306.752378 245.405553 
L 307.109498 242.749268 
L 307.823737 239.340102 
L 308.180858 238.964491 
L 308.537978 235.958104 
L 309.252218 233.014362 
L 309.609338 230.288766 
L 310.323578 227.268867 
L 310.680698 224.03299 
L 311.037818 223.111777 
L 313.537658 204.716812 
L 313.894778 203.278738 
L 314.251898 200.398247 
L 314.966138 196.342708 
L 316.037498 186.670129 
L 316.394618 184.518372 
L 317.823098 173.432446 
L 318.180218 171.589284 
L 319.608698 159.091193 
L 319.965818 156.691221 
L 320.322938 152.954264 
L 320.680058 151.865989 
L 321.037178 148.48761 
L 321.394298 146.581394 
L 322.108538 138.847791 
L 322.822778 134.58559 
L 324.608378 120.502832 
L 324.965498 119.517445 
L 325.322617 115.571678 
L 327.465338 101.743834 
L 327.822458 100.025383 
L 328.536698 93.897375 
L 328.893818 92.853199 
L 329.608058 88.522972 
L 329.965178 86.566956 
L 330.322298 83.96192 
L 331.036538 81.075829 
L 331.393658 78.686122 
L 331.750778 78.403108 
L 332.107898 75.409499 
L 332.465018 74.569171 
L 332.822138 72.065621 
L 333.179258 71.612202 
L 333.536378 70.866271 
L 333.893498 69.249997 
L 334.250618 66.258303 
L 334.964857 65.229762 
L 335.321978 65.152614 
L 336.036218 63.412064 
L 336.750458 62.696788 
L 337.464697 60.81346 
L 337.821818 60.138609 
L 338.178938 59.923309 
L 338.536058 60.315818 
L 338.893178 60.077974 
L 339.250298 59.652404 
L 339.607418 59.800965 
L 339.964538 59.254503 
L 340.678778 60.233893 
L 341.035898 60.659293 
L 341.393018 60.294529 
L 341.750138 62.465989 
L 342.107258 61.899381 
L 342.464378 62.243803 
L 342.821498 63.339809 
L 343.178618 62.607015 
L 343.535737 64.603069 
L 344.249977 66.057461 
L 344.607098 66.295994 
L 345.678458 70.811026 
L 346.035578 70.983665 
L 346.392697 74.457837 
L 346.749818 75.454385 
L 348.178298 81.123134 
L 348.535418 84.367196 
L 348.892538 85.05114 
L 349.963898 90.686864 
L 350.678138 94.144252 
L 351.035258 97.591601 
L 351.749498 100.658975 
L 353.177977 111.109672 
L 353.535098 112.052492 
L 354.249338 118.501625 
L 354.606458 119.777316 
L 356.034938 130.174097 
L 356.392058 133.543336 
L 357.106298 137.885139 
L 357.820538 142.143282 
L 358.177658 146.544969 
L 358.891898 151.011491 
L 359.963258 158.884787 
L 360.320378 161.175485 
L 360.677498 164.54751 
L 361.034618 166.032855 
L 361.391738 169.683303 
L 361.748857 171.750425 
L 363.177338 183.314841 
L 363.534458 185.005658 
L 363.891578 187.528705 
L 364.248698 191.049254 
L 364.605818 192.157082 
L 364.962938 196.388639 
L 365.320058 196.889282 
L 366.034298 201.132471 
L 366.391418 204.68276 
L 367.462778 210.264692 
L 367.819898 213.706842 
L 368.177018 213.769874 
L 368.891258 219.311517 
L 369.248378 220.631817 
L 369.605498 222.418233 
L 369.962618 223.525557 
L 370.319738 226.830664 
L 371.033977 229.485141 
L 371.391098 230.646085 
L 372.462458 236.294425 
L 372.819578 237.096679 
L 373.176698 238.407545 
L 373.533817 238.7685 
L 373.890938 240.170649 
L 374.248058 240.557327 
L 374.605178 242.250982 
L 374.962298 243.116717 
L 375.319418 242.831559 
L 375.676538 243.85358 
L 376.033658 246.276861 
L 376.390778 246.20569 
L 376.747898 246.437126 
L 377.105018 247.769856 
L 377.462138 247.08658 
L 378.176378 248.902045 
L 378.533498 248.002754 
L 378.890618 248.98833 
L 379.247738 248.854109 
L 379.604858 248.093041 
L 380.319097 249.168385 
L 380.676218 248.074232 
L 381.033338 248.046018 
L 381.390458 247.480398 
L 381.747578 247.946859 
L 382.461818 245.519158 
L 382.818938 245.265731 
L 383.176058 245.643346 
L 383.890298 243.523869 
L 384.247418 242.624563 
L 384.604538 240.913304 
L 384.961658 240.346914 
L 385.318778 238.813729 
L 385.675898 238.730809 
L 386.033018 236.813499 
L 386.747258 234.293741 
L 387.104378 232.400215 
L 387.461498 232.134654 
L 388.175738 228.267773 
L 388.532858 227.322307 
L 388.889978 225.688785 
L 389.247098 222.901422 
L 389.961338 219.583903 
L 390.318458 218.102829 
L 390.675578 215.73275 
L 391.032698 214.191992 
L 391.389818 211.883767 
L 391.746938 210.89089 
L 392.104058 208.032622 
L 392.461178 206.431627 
L 393.175418 201.294545 
L 393.532537 200.087887 
L 393.889658 197.673017 
L 394.246778 193.690641 
L 394.603898 192.727363 
L 395.675257 186.413464 
L 396.032378 182.515022 
L 396.746618 178.451654 
L 397.103738 175.45783 
L 397.460858 173.594265 
L 397.817978 170.753105 
L 398.175098 169.046989 
L 399.246458 162.141358 
L 399.603578 158.763372 
L 400.674938 151.986908 
L 401.389178 146.1443 
L 402.103418 141.623113 
L 402.460537 138.354037 
L 402.817658 136.856655 
L 403.174778 133.514413 
L 403.531898 131.376189 
L 403.889018 130.311598 
L 405.317498 119.959225 
L 406.031738 116.025755 
L 406.388858 113.344149 
L 407.103098 109.698847 
L 407.460217 107.182311 
L 407.817338 105.675318 
L 408.174458 102.292745 
L 408.531578 102.637893 
L 408.888698 99.198794 
L 409.245818 96.916333 
L 409.602938 95.646301 
L 409.960058 93.948808 
L 410.317178 93.502105 
L 411.031418 89.530808 
L 411.388537 86.367236 
L 411.745658 86.266382 
L 412.102778 84.521011 
L 412.459898 84.024709 
L 412.817018 82.395639 
L 413.174138 80.080462 
L 413.531258 80.080462 
L 413.888378 79.550704 
L 414.602618 77.157583 
L 414.959738 76.652399 
L 415.673978 73.884185 
L 416.745338 72.833728 
L 417.102458 72.714276 
L 417.459578 71.694053 
L 417.816698 71.454476 
L 418.530938 69.44473 
L 418.530938 69.44473 
" style="fill:none;stroke:#1f77b4;stroke-linecap:square;stroke-width:1.5;"/>
   </g>
   <g id="line2d_26">
    <path clip-path="url(#p304c686b55)" d="M 61.410938 278.515607 
L 61.793566 278.515607 
L 62.176195 278.183313 
L 62.558823 278.515607 
L 62.941452 275.761173 
L 63.32408 276.67511 
L 63.706709 274.223421 
L 64.089338 272.937917 
L 64.854595 267.989579 
L 65.237223 267.565481 
L 65.619852 263.502436 
L 66.00248 261.731756 
L 66.385109 258.070941 
L 66.767738 256.385146 
L 67.532995 247.984749 
L 67.915623 246.168099 
L 69.063509 233.194904 
L 69.446138 230.741906 
L 70.211395 219.640432 
L 70.594023 215.944069 
L 72.507166 191.074361 
L 73.272423 181.335427 
L 73.655052 175.307186 
L 74.03768 171.724776 
L 74.420309 165.724904 
L 74.802938 161.784281 
L 75.185566 154.486539 
L 75.568195 150.472834 
L 76.71608 134.562598 
L 77.481338 126.204714 
L 77.863966 120.665191 
L 78.246595 116.85077 
L 79.011852 107.708054 
L 80.159738 96.113968 
L 81.307623 85.183118 
L 82.07288 78.41036 
L 82.455509 76.110352 
L 83.220766 69.897046 
L 85.899166 57.685916 
L 86.664423 56.463567 
L 87.047052 56.790316 
L 87.42968 55.979176 
L 87.812309 56.537217 
L 88.194938 56.528011 
L 88.577566 56.24222 
L 88.960195 56.55563 
L 89.342823 57.569469 
L 89.725452 58.099528 
L 90.10808 59.772604 
L 90.490709 60.87027 
L 90.873338 63.428161 
L 92.021223 67.413721 
L 92.403852 70.000618 
L 92.78648 70.915987 
L 93.169109 74.46058 
L 93.551738 76.066302 
L 96.995395 102.914055 
L 97.760652 110.246596 
L 98.908538 119.704539 
L 99.291166 124.235923 
L 99.673795 127.206088 
L 100.056423 131.368534 
L 100.82168 137.303199 
L 101.204309 140.834529 
L 101.586938 143.320131 
L 101.969566 148.132682 
L 102.352195 150.554001 
L 102.734823 154.113172 
L 103.882709 162.046153 
L 105.030595 170.435105 
L 105.413223 171.462682 
L 106.561109 180.192136 
L 106.943738 180.817856 
L 107.326366 183.197635 
L 108.091623 185.917339 
L 108.474252 186.556915 
L 109.622138 190.825517 
L 110.387395 191.913003 
L 110.770023 192.931831 
L 111.152652 192.777466 
L 111.53528 195.059827 
L 111.917909 193.9372 
L 112.300538 193.868785 
L 113.065795 192.845568 
L 113.448423 191.863289 
L 113.831052 191.236327 
L 114.596309 191.497273 
L 114.978938 189.745125 
L 115.361566 188.621114 
L 115.744195 188.085993 
L 116.126823 186.272131 
L 116.89208 184.664119 
L 117.274709 182.071463 
L 117.657338 181.421514 
L 118.422595 177.281825 
L 119.57048 173.112193 
L 119.953109 170.214613 
L 120.335738 169.309054 
L 121.483623 164.241679 
L 121.866252 161.051858 
L 122.631509 158.503504 
L 123.014138 155.887367 
L 123.396766 154.958272 
L 123.779395 151.941956 
L 124.162023 150.769094 
L 124.544652 150.075116 
L 125.309909 146.168542 
L 125.692538 144.795274 
L 126.457795 140.499006 
L 126.840423 139.721219 
L 127.223052 137.97504 
L 127.988309 136.123248 
L 128.370938 134.454883 
L 128.753566 134.898173 
L 129.136195 132.868242 
L 129.518823 133.460588 
L 129.901452 131.268269 
L 130.28408 132.65191 
L 130.666709 130.382595 
L 131.431966 129.692552 
L 131.814595 130.850498 
L 132.197223 130.595658 
L 132.579852 130.88392 
L 132.96248 129.948467 
L 134.492995 131.347645 
L 134.875623 132.884883 
L 135.64088 134.409311 
L 136.023509 134.682742 
L 136.406138 136.634835 
L 136.788766 136.700846 
L 137.171395 138.550252 
L 138.701909 143.177507 
L 139.467166 146.877588 
L 139.849795 148.303831 
L 140.232423 150.326734 
L 140.615052 151.495538 
L 140.99768 153.08641 
L 141.380309 153.918371 
L 142.145566 158.189731 
L 142.910823 161.215528 
L 144.058709 166.925756 
L 145.206595 172.030167 
L 145.589223 172.769621 
L 146.35448 177.561074 
L 146.737109 178.508499 
L 147.119738 178.584984 
L 147.884995 182.635643 
L 148.267623 183.812615 
L 149.03288 186.88248 
L 149.798138 188.612236 
L 150.180766 189.051678 
L 150.946023 190.726983 
L 151.328652 190.997876 
L 151.71128 192.981772 
L 152.093909 193.036254 
L 152.476538 192.459865 
L 152.859166 193.344984 
L 153.241795 193.832298 
L 153.624423 193.440054 
L 154.007052 192.700283 
L 154.772309 193.372225 
L 155.537566 192.166096 
L 156.302823 190.970882 
L 156.685452 191.578256 
L 157.06808 189.803088 
L 157.450709 189.370593 
L 157.833338 189.162649 
L 158.215966 187.062861 
L 158.598595 186.294031 
L 158.981223 186.044363 
L 159.74648 183.764854 
L 160.511738 178.89092 
L 160.894366 178.960509 
L 161.276995 177.01527 
L 161.659623 176.499083 
L 162.042252 174.628788 
L 162.42488 172.051056 
L 162.807509 171.396118 
L 163.190138 168.567476 
L 164.338023 164.286875 
L 164.720652 162.123896 
L 165.10328 160.712243 
L 165.485909 158.748003 
L 166.251166 156.197066 
L 166.633795 152.846967 
L 167.016423 151.109995 
L 167.399052 148.748037 
L 167.78168 148.511655 
L 168.164309 146.408966 
L 168.546938 143.66243 
L 168.929566 143.189732 
L 169.694823 138.911814 
L 170.46008 137.237188 
L 170.842709 135.599283 
L 171.225338 134.732457 
L 171.607966 133.543446 
L 171.990595 131.514753 
L 172.373223 130.612369 
L 173.13848 127.399891 
L 173.521109 127.222941 
L 173.903738 126.725132 
L 174.286366 125.182034 
L 174.668995 125.118297 
L 175.051623 124.897343 
L 175.434252 122.973081 
L 175.81688 122.865937 
L 176.199509 123.084511 
L 176.582138 122.921652 
L 176.964766 122.300218 
L 177.347395 122.026433 
L 177.730023 121.311919 
L 178.112652 121.871479 
L 178.49528 121.61322 
L 178.877909 122.227361 
L 179.260538 121.346354 
L 179.643166 123.033082 
L 180.025795 123.088796 
L 180.408423 123.672631 
L 180.791052 123.992683 
L 181.17368 124.982325 
L 181.556309 123.85186 
L 181.938938 125.967776 
L 182.321566 126.67859 
L 182.704195 127.774858 
L 183.086823 127.47994 
L 183.469452 127.905465 
L 183.85208 130.006601 
L 184.234709 129.201697 
L 184.999966 132.963927 
L 185.382595 132.889043 
L 185.765223 134.914744 
L 186.147852 136.024231 
L 186.53048 136.036608 
L 186.913109 138.357145 
L 187.295738 138.246212 
L 188.826252 142.986789 
L 189.20888 144.999023 
L 189.591509 145.162022 
L 189.974138 146.225592 
L 190.356766 147.672209 
L 190.739395 149.555648 
L 191.122023 150.622993 
L 191.504652 150.383551 
L 192.269909 152.372141 
L 192.652538 152.282857 
L 193.035166 154.088821 
L 193.417795 155.243521 
L 194.56568 157.069111 
L 195.330938 157.252485 
L 195.713566 158.955827 
L 196.096195 157.957457 
L 196.478823 158.568704 
L 196.861452 158.894702 
L 197.24408 159.697473 
L 197.626709 159.999022 
L 198.009338 160.777711 
L 198.391966 159.677098 
L 198.774595 160.145721 
L 199.157223 160.117196 
L 199.539852 159.2859 
L 199.92248 160.47083 
L 200.305109 158.776528 
L 200.687738 159.3511 
L 201.835623 158.788753 
L 202.218252 158.862102 
L 202.60088 157.501059 
L 202.983509 157.130236 
L 203.366138 156.441565 
L 203.748766 155.051997 
L 204.131395 154.65699 
L 204.514023 153.455719 
L 204.896652 153.366436 
L 205.27928 153.122935 
L 205.661909 151.126228 
L 206.044538 150.428192 
L 206.427166 148.800795 
L 206.809795 148.73992 
L 207.192423 148.210107 
L 207.575052 146.555665 
L 207.95768 145.891443 
L 208.340309 145.854769 
L 208.722938 145.463571 
L 209.105566 143.320131 
L 209.488195 143.438306 
L 209.870823 142.057962 
L 210.253452 141.489209 
L 210.63608 140.249409 
L 211.018709 140.265776 
L 211.401338 139.844326 
L 211.783966 138.369471 
L 212.166595 137.744955 
L 212.549223 137.629913 
L 212.931852 137.294948 
L 213.31448 136.733852 
L 213.697109 135.652917 
L 214.462366 135.092889 
L 214.844995 136.086116 
L 215.610252 133.874878 
L 215.99288 133.518589 
L 216.375509 134.947887 
L 216.758138 134.570884 
L 217.140766 134.906458 
L 217.523395 134.657885 
L 217.906023 133.941164 
L 218.288652 134.910601 
L 218.67128 134.869172 
L 219.053909 135.933465 
L 219.436538 136.478058 
L 219.819166 136.350161 
L 220.201795 137.999692 
L 220.584423 137.736738 
L 220.967052 139.170659 
L 221.34968 139.832051 
L 222.114938 142.115246 
L 222.497566 142.373026 
L 222.880195 142.798568 
L 223.262823 144.257377 
L 223.645452 144.933823 
L 224.410709 147.45216 
L 224.793338 148.918487 
L 225.941223 151.528005 
L 226.70648 155.638794 
L 227.854366 160.223145 
L 228.236995 161.006849 
L 228.619623 163.359604 
L 229.002252 164.475873 
L 229.38488 166.715345 
L 229.767509 166.859745 
L 230.150138 168.753906 
L 230.532766 169.491341 
L 230.915395 172.322607 
L 231.298023 173.705814 
L 231.680652 175.513629 
L 232.06328 176.183514 
L 233.211166 181.139287 
L 233.593795 181.615207 
L 233.976423 184.09918 
L 234.359052 184.35101 
L 234.74168 185.231041 
L 235.124309 187.816429 
L 235.506938 188.192051 
L 235.889566 189.566776 
L 236.272195 189.513272 
L 236.654823 191.285817 
L 237.037452 191.776215 
L 237.802709 193.285963 
L 238.185338 195.66745 
L 238.567966 194.995382 
L 238.950595 195.032207 
L 239.333223 196.079872 
L 239.715852 195.377448 
L 240.481109 198.189384 
L 241.246366 197.243097 
L 242.011623 197.653885 
L 242.394252 196.872493 
L 242.77688 197.672557 
L 243.159509 195.881014 
L 243.542138 197.076927 
L 243.924766 195.069033 
L 244.307395 194.64026 
L 244.690023 195.059827 
L 245.072652 194.042103 
L 245.45528 192.41015 
L 246.603166 190.122345 
L 246.985795 190.202964 
L 247.368423 189.250208 
L 247.751052 187.16405 
L 248.13368 187.080459 
L 248.898938 184.021026 
L 249.281566 182.514598 
L 249.664195 182.015507 
L 250.81208 176.765638 
L 251.194709 176.384845 
L 251.577338 173.890409 
L 251.959966 173.016106 
L 252.342595 170.955134 
L 252.725223 169.673629 
L 252.725223 169.673629 
" style="fill:none;stroke:#d62728;stroke-linecap:square;stroke-width:1.5;"/>
   </g>
   <g id="line2d_27">
    <path clip-path="url(#p304c686b55)" d="M 61.410938 23.543308 
L 418.530938 23.543308 
" style="fill:none;stroke:#99aaaa;stroke-dasharray:9.6,2.4,1.5,2.4;stroke-dashoffset:0;stroke-width:1.5;"/>
   </g>
   <g id="line2d_28">
    <defs>
     <path d="M -3 3 
L 3 3 
L 3 -3 
L -3 -3 
z
" id="m9e0ac68bfd" style="stroke:#1f77b4;stroke-linejoin:miter;"/>
    </defs>
    <g clip-path="url(#p304c686b55)">
     <use style="fill:#1f77b4;stroke:#1f77b4;stroke-linejoin:miter;" x="61.410938" xlink:href="#m9e0ac68bfd" y="278.419468"/>
     <use style="fill:#1f77b4;stroke:#1f77b4;stroke-linejoin:miter;" x="72.889795" xlink:href="#m9e0ac68bfd" y="227.332828"/>
     <use style="fill:#1f77b4;stroke:#1f77b4;stroke-linejoin:miter;" x="84.368652" xlink:href="#m9e0ac68bfd" y="122.028091"/>
     <use style="fill:#1f77b4;stroke:#1f77b4;stroke-linejoin:miter;" x="95.847509" xlink:href="#m9e0ac68bfd" y="58.800243"/>
     <use style="fill:#1f77b4;stroke:#1f77b4;stroke-linejoin:miter;" x="107.326366" xlink:href="#m9e0ac68bfd" y="69.744349"/>
     <use style="fill:#1f77b4;stroke:#1f77b4;stroke-linejoin:miter;" x="118.805223" xlink:href="#m9e0ac68bfd" y="138.011186"/>
     <use style="fill:#1f77b4;stroke:#1f77b4;stroke-linejoin:miter;" x="130.28408" xlink:href="#m9e0ac68bfd" y="224.052915"/>
     <use style="fill:#1f77b4;stroke:#1f77b4;stroke-linejoin:miter;" x="141.762938" xlink:href="#m9e0ac68bfd" y="268.490121"/>
     <use style="fill:#1f77b4;stroke:#1f77b4;stroke-linejoin:miter;" x="153.241795" xlink:href="#m9e0ac68bfd" y="220.218642"/>
     <use style="fill:#1f77b4;stroke:#1f77b4;stroke-linejoin:miter;" x="164.720652" xlink:href="#m9e0ac68bfd" y="101.79156"/>
     <use style="fill:#1f77b4;stroke:#1f77b4;stroke-linejoin:miter;" x="176.199509" xlink:href="#m9e0ac68bfd" y="46.908658"/>
     <use style="fill:#1f77b4;stroke:#1f77b4;stroke-linejoin:miter;" x="187.678366" xlink:href="#m9e0ac68bfd" y="63.977198"/>
     <use style="fill:#1f77b4;stroke:#1f77b4;stroke-linejoin:miter;" x="199.157223" xlink:href="#m9e0ac68bfd" y="137.35207"/>
     <use style="fill:#1f77b4;stroke:#1f77b4;stroke-linejoin:miter;" x="210.63608" xlink:href="#m9e0ac68bfd" y="227.44367"/>
     <use style="fill:#1f77b4;stroke:#1f77b4;stroke-linejoin:miter;" x="222.114938" xlink:href="#m9e0ac68bfd" y="254.648462"/>
     <use style="fill:#1f77b4;stroke:#1f77b4;stroke-linejoin:miter;" x="233.593795" xlink:href="#m9e0ac68bfd" y="219.943912"/>
     <use style="fill:#1f77b4;stroke:#1f77b4;stroke-linejoin:miter;" x="245.072652" xlink:href="#m9e0ac68bfd" y="123.778828"/>
     <use style="fill:#1f77b4;stroke:#1f77b4;stroke-linejoin:miter;" x="256.551509" xlink:href="#m9e0ac68bfd" y="46.006659"/>
     <use style="fill:#1f77b4;stroke:#1f77b4;stroke-linejoin:miter;" x="268.030366" xlink:href="#m9e0ac68bfd" y="70.354828"/>
     <use style="fill:#1f77b4;stroke:#1f77b4;stroke-linejoin:miter;" x="279.509223" xlink:href="#m9e0ac68bfd" y="148.477217"/>
     <use style="fill:#1f77b4;stroke:#1f77b4;stroke-linejoin:miter;" x="290.98808" xlink:href="#m9e0ac68bfd" y="223.213151"/>
     <use style="fill:#1f77b4;stroke:#1f77b4;stroke-linejoin:miter;" x="302.466938" xlink:href="#m9e0ac68bfd" y="248.054942"/>
     <use style="fill:#1f77b4;stroke:#1f77b4;stroke-linejoin:miter;" x="313.945795" xlink:href="#m9e0ac68bfd" y="208.638988"/>
     <use style="fill:#1f77b4;stroke:#1f77b4;stroke-linejoin:miter;" x="325.424652" xlink:href="#m9e0ac68bfd" y="122.286213"/>
     <use style="fill:#1f77b4;stroke:#1f77b4;stroke-linejoin:miter;" x="336.903509" xlink:href="#m9e0ac68bfd" y="43.652338"/>
     <use style="fill:#1f77b4;stroke:#1f77b4;stroke-linejoin:miter;" x="348.382366" xlink:href="#m9e0ac68bfd" y="65.131555"/>
     <use style="fill:#1f77b4;stroke:#1f77b4;stroke-linejoin:miter;" x="359.861223" xlink:href="#m9e0ac68bfd" y="139.708068"/>
     <use style="fill:#1f77b4;stroke:#1f77b4;stroke-linejoin:miter;" x="371.34008" xlink:href="#m9e0ac68bfd" y="212.482828"/>
     <use style="fill:#1f77b4;stroke:#1f77b4;stroke-linejoin:miter;" x="382.818938" xlink:href="#m9e0ac68bfd" y="247.448707"/>
     <use style="fill:#1f77b4;stroke:#1f77b4;stroke-linejoin:miter;" x="394.297795" xlink:href="#m9e0ac68bfd" y="200.2634"/>
     <use style="fill:#1f77b4;stroke:#1f77b4;stroke-linejoin:miter;" x="405.776652" xlink:href="#m9e0ac68bfd" y="122.73279"/>
    </g>
   </g>
   <g id="line2d_29">
    <defs>
     <path d="M 0 3 
C 0.795609 3 1.55874 2.683901 2.12132 2.12132 
C 2.683901 1.55874 3 0.795609 3 0 
C 3 -0.795609 2.683901 -1.55874 2.12132 -2.12132 
C 1.55874 -2.683901 0.795609 -3 0 -3 
C -0.795609 -3 -1.55874 -2.683901 -2.12132 -2.12132 
C -2.683901 -1.55874 -3 -0.795609 -3 0 
C -3 0.795609 -2.683901 1.55874 -2.12132 2.12132 
C -1.55874 2.683901 -0.795609 3 0 3 
z
" id="m4d17eb6f4c" style="stroke:#d62728;"/>
    </defs>
    <g clip-path="url(#p304c686b55)">
     <use style="fill:#d62728;stroke:#d62728;" x="61.410938" xlink:href="#m4d17eb6f4c" y="271.284996"/>
     <use style="fill:#d62728;stroke:#d62728;" x="72.889795" xlink:href="#m4d17eb6f4c" y="170.285068"/>
     <use style="fill:#d62728;stroke:#d62728;" x="84.368652" xlink:href="#m4d17eb6f4c" y="90.589244"/>
     <use style="fill:#d62728;stroke:#d62728;" x="95.847509" xlink:href="#m4d17eb6f4c" y="99.868392"/>
     <use style="fill:#d62728;stroke:#d62728;" x="107.326366" xlink:href="#m4d17eb6f4c" y="166.424982"/>
     <use style="fill:#d62728;stroke:#d62728;" x="118.805223" xlink:href="#m4d17eb6f4c" y="166.142635"/>
     <use style="fill:#d62728;stroke:#d62728;" x="130.28408" xlink:href="#m4d17eb6f4c" y="127.280302"/>
     <use style="fill:#d62728;stroke:#d62728;" x="141.762938" xlink:href="#m4d17eb6f4c" y="168.285905"/>
     <use style="fill:#d62728;stroke:#d62728;" x="153.241795" xlink:href="#m4d17eb6f4c" y="195.401315"/>
     <use style="fill:#d62728;stroke:#d62728;" x="164.720652" xlink:href="#m4d17eb6f4c" y="142.805574"/>
     <use style="fill:#d62728;stroke:#d62728;" x="176.199509" xlink:href="#m4d17eb6f4c" y="136.807228"/>
     <use style="fill:#d62728;stroke:#d62728;" x="187.678366" xlink:href="#m4d17eb6f4c" y="125.352609"/>
     <use style="fill:#d62728;stroke:#d62728;" x="199.157223" xlink:href="#m4d17eb6f4c" y="159.747218"/>
     <use style="fill:#d62728;stroke:#d62728;" x="210.63608" xlink:href="#m4d17eb6f4c" y="144.281168"/>
     <use style="fill:#d62728;stroke:#d62728;" x="222.114938" xlink:href="#m4d17eb6f4c" y="146.807751"/>
     <use style="fill:#d62728;stroke:#d62728;" x="233.593795" xlink:href="#m4d17eb6f4c" y="169.990751"/>
    </g>
   </g>
   <g id="patch_3">
    <path d="M 61.410938 279.010828 
L 61.410938 12.898828 
" style="fill:none;stroke:#000000;stroke-linecap:square;stroke-linejoin:miter;stroke-width:0.8;"/>
   </g>
   <g id="patch_4">
    <path d="M 418.530938 279.010828 
L 418.530938 12.898828 
" style="fill:none;stroke:#000000;stroke-linecap:square;stroke-linejoin:miter;stroke-width:0.8;"/>
   </g>
   <g id="patch_5">
    <path d="M 61.410938 279.010828 
L 418.530938 279.010828 
" style="fill:none;stroke:#000000;stroke-linecap:square;stroke-linejoin:miter;stroke-width:0.8;"/>
   </g>
   <g id="patch_6">
    <path d="M 61.410938 12.898828 
L 418.530938 12.898828 
" style="fill:none;stroke:#000000;stroke-linecap:square;stroke-linejoin:miter;stroke-width:0.8;"/>
   </g>
   <g id="text_15">
    <!-- (D) -->
    <defs>
     <path d="M 19.671875 64.796875 
L 19.671875 8.109375 
L 31.59375 8.109375 
Q 46.6875 8.109375 53.6875 14.9375 
Q 60.6875 21.78125 60.6875 36.53125 
Q 60.6875 51.171875 53.6875 57.984375 
Q 46.6875 64.796875 31.59375 64.796875 
z
M 9.8125 72.90625 
L 30.078125 72.90625 
Q 51.265625 72.90625 61.171875 64.09375 
Q 71.09375 55.28125 71.09375 36.53125 
Q 71.09375 17.671875 61.125 8.828125 
Q 51.171875 0 30.078125 0 
L 9.8125 0 
z
" id="DejaVuSans-44"/>
    </defs>
    <g transform="translate(380.26808 39.510028)scale(0.2 -0.2)">
     <use xlink:href="#DejaVuSans-28"/>
     <use x="39.013672" xlink:href="#DejaVuSans-44"/>
     <use x="116.015625" xlink:href="#DejaVuSans-29"/>
    </g>
   </g>
  </g>
 </g>
 <defs>
  <clipPath id="p304c686b55">
   <rect height="266.112" width="357.12" x="61.410938" y="12.898828"/>
  </clipPath>
 </defs>
</svg>
