<?xml version="1.0" encoding="utf-8" standalone="no"?>
<!DOCTYPE svg PUBLIC "-//W3C//DTD SVG 1.1//EN"
  "http://www.w3.org/Graphics/SVG/1.1/DTD/svg11.dtd">
<!-- Created with matplotlib (http://matplotlib.org/) -->
<svg height="349pt" version="1.1" viewBox="0 0 429 349" width="429pt" xmlns="http://www.w3.org/2000/svg" xmlns:xlink="http://www.w3.org/1999/xlink">
 <defs>
  <style type="text/css">
*{stroke-linecap:butt;stroke-linejoin:round;}
  </style>
 </defs>
 <g id="figure_1">
  <g id="patch_1">
   <path d="M 0 349.665437 
L 429.230937 349.665437 
L 429.230937 0 
L 0 0 
z
" style="fill:none;"/>
  </g>
  <g id="axes_1">
   <g id="patch_2">
    <path d="M 61.410938 297.54825 
L 418.530938 297.54825 
L 418.530938 31.43625 
L 61.410938 31.43625 
z
" style="fill:none;"/>
   </g>
   <g id="matplotlib.axis_1">
    <g id="xtick_1">
     <g id="line2d_1">
      <path clip-path="url(#pcd39df9889)" d="M 61.410938 297.54825 
L 61.410938 31.43625 
" style="fill:none;stroke:#b0b0b0;stroke-linecap:square;stroke-width:0.8;"/>
     </g>
     <g id="line2d_2">
      <defs>
       <path d="M 0 0 
L 0 3.5 
" id="m005f0a59be" style="stroke:#000000;stroke-width:0.8;"/>
      </defs>
      <g>
       <use style="stroke:#000000;stroke-width:0.8;" x="61.410938" xlink:href="#m005f0a59be" y="297.54825"/>
      </g>
     </g>
     <g id="text_1">
      <!-- 0 -->
      <defs>
       <path d="M 31.78125 66.40625 
Q 24.171875 66.40625 20.328125 58.90625 
Q 16.5 51.421875 16.5 36.375 
Q 16.5 21.390625 20.328125 13.890625 
Q 24.171875 6.390625 31.78125 6.390625 
Q 39.453125 6.390625 43.28125 13.890625 
Q 47.125 21.390625 47.125 36.375 
Q 47.125 51.421875 43.28125 58.90625 
Q 39.453125 66.40625 31.78125 66.40625 
z
M 31.78125 74.21875 
Q 44.046875 74.21875 50.515625 64.515625 
Q 56.984375 54.828125 56.984375 36.375 
Q 56.984375 17.96875 50.515625 8.265625 
Q 44.046875 -1.421875 31.78125 -1.421875 
Q 19.53125 -1.421875 13.0625 8.265625 
Q 6.59375 17.96875 6.59375 36.375 
Q 6.59375 54.828125 13.0625 64.515625 
Q 19.53125 74.21875 31.78125 74.21875 
z
" id="DejaVuSans-30"/>
      </defs>
      <g transform="translate(56.639063 315.945906)scale(0.15 -0.15)">
       <use xlink:href="#DejaVuSans-30"/>
      </g>
     </g>
    </g>
    <g id="xtick_2">
     <g id="line2d_3">
      <path clip-path="url(#pcd39df9889)" d="M 124.063569 297.54825 
L 124.063569 31.43625 
" style="fill:none;stroke:#b0b0b0;stroke-linecap:square;stroke-width:0.8;"/>
     </g>
     <g id="line2d_4">
      <g>
       <use style="stroke:#000000;stroke-width:0.8;" x="124.063569" xlink:href="#m005f0a59be" y="297.54825"/>
      </g>
     </g>
     <g id="text_2">
      <!-- 50 -->
      <defs>
       <path d="M 10.796875 72.90625 
L 49.515625 72.90625 
L 49.515625 64.59375 
L 19.828125 64.59375 
L 19.828125 46.734375 
Q 21.96875 47.46875 24.109375 47.828125 
Q 26.265625 48.1875 28.421875 48.1875 
Q 40.625 48.1875 47.75 41.5 
Q 54.890625 34.8125 54.890625 23.390625 
Q 54.890625 11.625 47.5625 5.09375 
Q 40.234375 -1.421875 26.90625 -1.421875 
Q 22.3125 -1.421875 17.546875 -0.640625 
Q 12.796875 0.140625 7.71875 1.703125 
L 7.71875 11.625 
Q 12.109375 9.234375 16.796875 8.0625 
Q 21.484375 6.890625 26.703125 6.890625 
Q 35.15625 6.890625 40.078125 11.328125 
Q 45.015625 15.765625 45.015625 23.390625 
Q 45.015625 31 40.078125 35.4375 
Q 35.15625 39.890625 26.703125 39.890625 
Q 22.75 39.890625 18.8125 39.015625 
Q 14.890625 38.140625 10.796875 36.28125 
z
" id="DejaVuSans-35"/>
      </defs>
      <g transform="translate(114.519819 315.945906)scale(0.15 -0.15)">
       <use xlink:href="#DejaVuSans-35"/>
       <use x="63.623047" xlink:href="#DejaVuSans-30"/>
      </g>
     </g>
    </g>
    <g id="xtick_3">
     <g id="line2d_5">
      <path clip-path="url(#pcd39df9889)" d="M 186.716201 297.54825 
L 186.716201 31.43625 
" style="fill:none;stroke:#b0b0b0;stroke-linecap:square;stroke-width:0.8;"/>
     </g>
     <g id="line2d_6">
      <g>
       <use style="stroke:#000000;stroke-width:0.8;" x="186.716201" xlink:href="#m005f0a59be" y="297.54825"/>
      </g>
     </g>
     <g id="text_3">
      <!-- 100 -->
      <defs>
       <path d="M 12.40625 8.296875 
L 28.515625 8.296875 
L 28.515625 63.921875 
L 10.984375 60.40625 
L 10.984375 69.390625 
L 28.421875 72.90625 
L 38.28125 72.90625 
L 38.28125 8.296875 
L 54.390625 8.296875 
L 54.390625 0 
L 12.40625 0 
z
" id="DejaVuSans-31"/>
      </defs>
      <g transform="translate(172.400576 315.945906)scale(0.15 -0.15)">
       <use xlink:href="#DejaVuSans-31"/>
       <use x="63.623047" xlink:href="#DejaVuSans-30"/>
       <use x="127.246094" xlink:href="#DejaVuSans-30"/>
      </g>
     </g>
    </g>
    <g id="xtick_4">
     <g id="line2d_7">
      <path clip-path="url(#pcd39df9889)" d="M 249.368832 297.54825 
L 249.368832 31.43625 
" style="fill:none;stroke:#b0b0b0;stroke-linecap:square;stroke-width:0.8;"/>
     </g>
     <g id="line2d_8">
      <g>
       <use style="stroke:#000000;stroke-width:0.8;" x="249.368832" xlink:href="#m005f0a59be" y="297.54825"/>
      </g>
     </g>
     <g id="text_4">
      <!-- 150 -->
      <g transform="translate(235.053207 315.945906)scale(0.15 -0.15)">
       <use xlink:href="#DejaVuSans-31"/>
       <use x="63.623047" xlink:href="#DejaVuSans-35"/>
       <use x="127.246094" xlink:href="#DejaVuSans-30"/>
      </g>
     </g>
    </g>
    <g id="xtick_5">
     <g id="line2d_9">
      <path clip-path="url(#pcd39df9889)" d="M 312.021464 297.54825 
L 312.021464 31.43625 
" style="fill:none;stroke:#b0b0b0;stroke-linecap:square;stroke-width:0.8;"/>
     </g>
     <g id="line2d_10">
      <g>
       <use style="stroke:#000000;stroke-width:0.8;" x="312.021464" xlink:href="#m005f0a59be" y="297.54825"/>
      </g>
     </g>
     <g id="text_5">
      <!-- 200 -->
      <defs>
       <path d="M 19.1875 8.296875 
L 53.609375 8.296875 
L 53.609375 0 
L 7.328125 0 
L 7.328125 8.296875 
Q 12.9375 14.109375 22.625 23.890625 
Q 32.328125 33.6875 34.8125 36.53125 
Q 39.546875 41.84375 41.421875 45.53125 
Q 43.3125 49.21875 43.3125 52.78125 
Q 43.3125 58.59375 39.234375 62.25 
Q 35.15625 65.921875 28.609375 65.921875 
Q 23.96875 65.921875 18.8125 64.3125 
Q 13.671875 62.703125 7.8125 59.421875 
L 7.8125 69.390625 
Q 13.765625 71.78125 18.9375 73 
Q 24.125 74.21875 28.421875 74.21875 
Q 39.75 74.21875 46.484375 68.546875 
Q 53.21875 62.890625 53.21875 53.421875 
Q 53.21875 48.921875 51.53125 44.890625 
Q 49.859375 40.875 45.40625 35.40625 
Q 44.1875 33.984375 37.640625 27.21875 
Q 31.109375 20.453125 19.1875 8.296875 
z
" id="DejaVuSans-32"/>
      </defs>
      <g transform="translate(297.705839 315.945906)scale(0.15 -0.15)">
       <use xlink:href="#DejaVuSans-32"/>
       <use x="63.623047" xlink:href="#DejaVuSans-30"/>
       <use x="127.246094" xlink:href="#DejaVuSans-30"/>
      </g>
     </g>
    </g>
    <g id="xtick_6">
     <g id="line2d_11">
      <path clip-path="url(#pcd39df9889)" d="M 374.674095 297.54825 
L 374.674095 31.43625 
" style="fill:none;stroke:#b0b0b0;stroke-linecap:square;stroke-width:0.8;"/>
     </g>
     <g id="line2d_12">
      <g>
       <use style="stroke:#000000;stroke-width:0.8;" x="374.674095" xlink:href="#m005f0a59be" y="297.54825"/>
      </g>
     </g>
     <g id="text_6">
      <!-- 250 -->
      <g transform="translate(360.35847 315.945906)scale(0.15 -0.15)">
       <use xlink:href="#DejaVuSans-32"/>
       <use x="63.623047" xlink:href="#DejaVuSans-35"/>
       <use x="127.246094" xlink:href="#DejaVuSans-30"/>
      </g>
     </g>
    </g>
    <g id="text_7">
     <!-- Time ($\mu s$) -->
     <defs>
      <path d="M -0.296875 72.90625 
L 61.375 72.90625 
L 61.375 64.59375 
L 35.5 64.59375 
L 35.5 0 
L 25.59375 0 
L 25.59375 64.59375 
L -0.296875 64.59375 
z
" id="DejaVuSans-54"/>
      <path d="M 9.421875 54.6875 
L 18.40625 54.6875 
L 18.40625 0 
L 9.421875 0 
z
M 9.421875 75.984375 
L 18.40625 75.984375 
L 18.40625 64.59375 
L 9.421875 64.59375 
z
" id="DejaVuSans-69"/>
      <path d="M 52 44.1875 
Q 55.375 50.25 60.0625 53.125 
Q 64.75 56 71.09375 56 
Q 79.640625 56 84.28125 50.015625 
Q 88.921875 44.046875 88.921875 33.015625 
L 88.921875 0 
L 79.890625 0 
L 79.890625 32.71875 
Q 79.890625 40.578125 77.09375 44.375 
Q 74.3125 48.1875 68.609375 48.1875 
Q 61.625 48.1875 57.5625 43.546875 
Q 53.515625 38.921875 53.515625 30.90625 
L 53.515625 0 
L 44.484375 0 
L 44.484375 32.71875 
Q 44.484375 40.625 41.703125 44.40625 
Q 38.921875 48.1875 33.109375 48.1875 
Q 26.21875 48.1875 22.15625 43.53125 
Q 18.109375 38.875 18.109375 30.90625 
L 18.109375 0 
L 9.078125 0 
L 9.078125 54.6875 
L 18.109375 54.6875 
L 18.109375 46.1875 
Q 21.1875 51.21875 25.484375 53.609375 
Q 29.78125 56 35.6875 56 
Q 41.65625 56 45.828125 52.96875 
Q 50 49.953125 52 44.1875 
z
" id="DejaVuSans-6d"/>
      <path d="M 56.203125 29.59375 
L 56.203125 25.203125 
L 14.890625 25.203125 
Q 15.484375 15.921875 20.484375 11.0625 
Q 25.484375 6.203125 34.421875 6.203125 
Q 39.59375 6.203125 44.453125 7.46875 
Q 49.3125 8.734375 54.109375 11.28125 
L 54.109375 2.78125 
Q 49.265625 0.734375 44.1875 -0.34375 
Q 39.109375 -1.421875 33.890625 -1.421875 
Q 20.796875 -1.421875 13.15625 6.1875 
Q 5.515625 13.8125 5.515625 26.8125 
Q 5.515625 40.234375 12.765625 48.109375 
Q 20.015625 56 32.328125 56 
Q 43.359375 56 49.78125 48.890625 
Q 56.203125 41.796875 56.203125 29.59375 
z
M 47.21875 32.234375 
Q 47.125 39.59375 43.09375 43.984375 
Q 39.0625 48.390625 32.421875 48.390625 
Q 24.90625 48.390625 20.390625 44.140625 
Q 15.875 39.890625 15.1875 32.171875 
z
" id="DejaVuSans-65"/>
      <path id="DejaVuSans-20"/>
      <path d="M 31 75.875 
Q 24.46875 64.65625 21.28125 53.65625 
Q 18.109375 42.671875 18.109375 31.390625 
Q 18.109375 20.125 21.3125 9.0625 
Q 24.515625 -2 31 -13.1875 
L 23.1875 -13.1875 
Q 15.875 -1.703125 12.234375 9.375 
Q 8.59375 20.453125 8.59375 31.390625 
Q 8.59375 42.28125 12.203125 53.3125 
Q 15.828125 64.359375 23.1875 75.875 
z
" id="DejaVuSans-28"/>
      <path d="M -1.3125 -20.796875 
L 13.375 54.6875 
L 22.40625 54.6875 
L 15.765625 20.65625 
Q 15.578125 19.625 15.421875 18.359375 
Q 15.28125 17.09375 15.28125 15.828125 
Q 15.28125 11.28125 18.140625 8.828125 
Q 21 6.390625 26.3125 6.390625 
Q 33.546875 6.390625 37.984375 10.484375 
Q 42.4375 14.59375 44 22.796875 
L 50.203125 54.6875 
L 59.1875 54.6875 
L 51.03125 12.640625 
Q 50.828125 11.71875 50.75 11.03125 
Q 50.6875 10.359375 50.6875 9.8125 
Q 50.6875 8.296875 51.296875 7.59375 
Q 51.90625 6.890625 53.21875 6.890625 
Q 53.71875 6.890625 54.5625 7.125 
Q 55.421875 7.375 56.984375 8.015625 
L 55.609375 0.78125 
Q 53.46875 -0.296875 51.515625 -0.859375 
Q 49.5625 -1.421875 47.703125 -1.421875 
Q 44.484375 -1.421875 42.65625 0.625 
Q 40.828125 2.6875 40.828125 6.296875 
Q 38.09375 2.390625 34.296875 0.484375 
Q 30.515625 -1.421875 25.390625 -1.421875 
Q 20.84375 -1.421875 17.453125 0.671875 
Q 14.0625 2.78125 12.984375 6.203125 
L 7.71875 -20.796875 
z
" id="DejaVuSans-Oblique-3bc"/>
      <path d="M 50 53.078125 
L 48.296875 44.578125 
Q 44.734375 46.53125 40.765625 47.5 
Q 36.8125 48.484375 32.625 48.484375 
Q 25.53125 48.484375 21.453125 46.0625 
Q 17.390625 43.65625 17.390625 39.5 
Q 17.390625 34.671875 26.859375 32.078125 
Q 27.59375 31.890625 27.9375 31.78125 
L 30.8125 30.90625 
Q 39.796875 28.421875 42.796875 25.6875 
Q 45.796875 22.953125 45.796875 18.21875 
Q 45.796875 9.515625 38.890625 4.046875 
Q 31.984375 -1.421875 20.796875 -1.421875 
Q 16.453125 -1.421875 11.671875 -0.578125 
Q 6.890625 0.25 1.125 2 
L 2.875 11.28125 
Q 7.8125 8.734375 12.59375 7.421875 
Q 17.390625 6.109375 21.78125 6.109375 
Q 28.375 6.109375 32.5 8.9375 
Q 36.625 11.765625 36.625 16.109375 
Q 36.625 20.796875 25.78125 23.6875 
L 24.859375 23.921875 
L 21.78125 24.703125 
Q 14.9375 26.515625 11.765625 29.46875 
Q 8.59375 32.421875 8.59375 37.015625 
Q 8.59375 45.75 15.15625 50.875 
Q 21.734375 56 33.015625 56 
Q 37.453125 56 41.671875 55.265625 
Q 45.90625 54.546875 50 53.078125 
z
" id="DejaVuSans-Oblique-73"/>
      <path d="M 8.015625 75.875 
L 15.828125 75.875 
Q 23.140625 64.359375 26.78125 53.3125 
Q 30.421875 42.28125 30.421875 31.390625 
Q 30.421875 20.453125 26.78125 9.375 
Q 23.140625 -1.703125 15.828125 -13.1875 
L 8.015625 -13.1875 
Q 14.5 -2 17.703125 9.0625 
Q 20.90625 20.125 20.90625 31.390625 
Q 20.90625 42.671875 17.703125 53.65625 
Q 14.5 64.65625 8.015625 75.875 
z
" id="DejaVuSans-29"/>
     </defs>
     <g transform="translate(192.570938 338.265437)scale(0.2 -0.2)">
      <use transform="translate(0 0.015625)" xlink:href="#DejaVuSans-54"/>
      <use transform="translate(61.083984 0.015625)" xlink:href="#DejaVuSans-69"/>
      <use transform="translate(88.867188 0.015625)" xlink:href="#DejaVuSans-6d"/>
      <use transform="translate(186.279297 0.015625)" xlink:href="#DejaVuSans-65"/>
      <use transform="translate(247.802734 0.015625)" xlink:href="#DejaVuSans-20"/>
      <use transform="translate(279.589844 0.015625)" xlink:href="#DejaVuSans-28"/>
      <use transform="translate(318.603516 0.015625)" xlink:href="#DejaVuSans-Oblique-3bc"/>
      <use transform="translate(382.226562 0.015625)" xlink:href="#DejaVuSans-Oblique-73"/>
      <use transform="translate(434.326172 0.015625)" xlink:href="#DejaVuSans-29"/>
     </g>
    </g>
   </g>
   <g id="matplotlib.axis_2">
    <g id="ytick_1">
     <g id="line2d_13">
      <path clip-path="url(#pcd39df9889)" d="M 61.410938 297.54825 
L 418.530938 297.54825 
" style="fill:none;stroke:#b0b0b0;stroke-linecap:square;stroke-width:0.8;"/>
     </g>
     <g id="line2d_14">
      <defs>
       <path d="M 0 0 
L -3.5 0 
" id="mc3ce260a5b" style="stroke:#000000;stroke-width:0.8;"/>
      </defs>
      <g>
       <use style="stroke:#000000;stroke-width:0.8;" x="61.410938" xlink:href="#mc3ce260a5b" y="297.54825"/>
      </g>
     </g>
     <g id="text_8">
      <!-- 0.0 -->
      <defs>
       <path d="M 10.6875 12.40625 
L 21 12.40625 
L 21 0 
L 10.6875 0 
z
" id="DejaVuSans-2e"/>
      </defs>
      <g transform="translate(30.55625 303.247078)scale(0.15 -0.15)">
       <use xlink:href="#DejaVuSans-30"/>
       <use x="63.623047" xlink:href="#DejaVuSans-2e"/>
       <use x="95.410156" xlink:href="#DejaVuSans-30"/>
      </g>
     </g>
    </g>
    <g id="ytick_2">
     <g id="line2d_15">
      <path clip-path="url(#pcd39df9889)" d="M 61.410938 244.32585 
L 418.530938 244.32585 
" style="fill:none;stroke:#b0b0b0;stroke-linecap:square;stroke-width:0.8;"/>
     </g>
     <g id="line2d_16">
      <g>
       <use style="stroke:#000000;stroke-width:0.8;" x="61.410938" xlink:href="#mc3ce260a5b" y="244.32585"/>
      </g>
     </g>
     <g id="text_9">
      <!-- 0.2 -->
      <g transform="translate(30.55625 250.024678)scale(0.15 -0.15)">
       <use xlink:href="#DejaVuSans-30"/>
       <use x="63.623047" xlink:href="#DejaVuSans-2e"/>
       <use x="95.410156" xlink:href="#DejaVuSans-32"/>
      </g>
     </g>
    </g>
    <g id="ytick_3">
     <g id="line2d_17">
      <path clip-path="url(#pcd39df9889)" d="M 61.410938 191.10345 
L 418.530938 191.10345 
" style="fill:none;stroke:#b0b0b0;stroke-linecap:square;stroke-width:0.8;"/>
     </g>
     <g id="line2d_18">
      <g>
       <use style="stroke:#000000;stroke-width:0.8;" x="61.410938" xlink:href="#mc3ce260a5b" y="191.10345"/>
      </g>
     </g>
     <g id="text_10">
      <!-- 0.4 -->
      <defs>
       <path d="M 37.796875 64.3125 
L 12.890625 25.390625 
L 37.796875 25.390625 
z
M 35.203125 72.90625 
L 47.609375 72.90625 
L 47.609375 25.390625 
L 58.015625 25.390625 
L 58.015625 17.1875 
L 47.609375 17.1875 
L 47.609375 0 
L 37.796875 0 
L 37.796875 17.1875 
L 4.890625 17.1875 
L 4.890625 26.703125 
z
" id="DejaVuSans-34"/>
      </defs>
      <g transform="translate(30.55625 196.802278)scale(0.15 -0.15)">
       <use xlink:href="#DejaVuSans-30"/>
       <use x="63.623047" xlink:href="#DejaVuSans-2e"/>
       <use x="95.410156" xlink:href="#DejaVuSans-34"/>
      </g>
     </g>
    </g>
    <g id="ytick_4">
     <g id="line2d_19">
      <path clip-path="url(#pcd39df9889)" d="M 61.410938 137.88105 
L 418.530938 137.88105 
" style="fill:none;stroke:#b0b0b0;stroke-linecap:square;stroke-width:0.8;"/>
     </g>
     <g id="line2d_20">
      <g>
       <use style="stroke:#000000;stroke-width:0.8;" x="61.410938" xlink:href="#mc3ce260a5b" y="137.88105"/>
      </g>
     </g>
     <g id="text_11">
      <!-- 0.6 -->
      <defs>
       <path d="M 33.015625 40.375 
Q 26.375 40.375 22.484375 35.828125 
Q 18.609375 31.296875 18.609375 23.390625 
Q 18.609375 15.53125 22.484375 10.953125 
Q 26.375 6.390625 33.015625 6.390625 
Q 39.65625 6.390625 43.53125 10.953125 
Q 47.40625 15.53125 47.40625 23.390625 
Q 47.40625 31.296875 43.53125 35.828125 
Q 39.65625 40.375 33.015625 40.375 
z
M 52.59375 71.296875 
L 52.59375 62.3125 
Q 48.875 64.0625 45.09375 64.984375 
Q 41.3125 65.921875 37.59375 65.921875 
Q 27.828125 65.921875 22.671875 59.328125 
Q 17.53125 52.734375 16.796875 39.40625 
Q 19.671875 43.65625 24.015625 45.921875 
Q 28.375 48.1875 33.59375 48.1875 
Q 44.578125 48.1875 50.953125 41.515625 
Q 57.328125 34.859375 57.328125 23.390625 
Q 57.328125 12.15625 50.6875 5.359375 
Q 44.046875 -1.421875 33.015625 -1.421875 
Q 20.359375 -1.421875 13.671875 8.265625 
Q 6.984375 17.96875 6.984375 36.375 
Q 6.984375 53.65625 15.1875 63.9375 
Q 23.390625 74.21875 37.203125 74.21875 
Q 40.921875 74.21875 44.703125 73.484375 
Q 48.484375 72.75 52.59375 71.296875 
z
" id="DejaVuSans-36"/>
      </defs>
      <g transform="translate(30.55625 143.579878)scale(0.15 -0.15)">
       <use xlink:href="#DejaVuSans-30"/>
       <use x="63.623047" xlink:href="#DejaVuSans-2e"/>
       <use x="95.410156" xlink:href="#DejaVuSans-36"/>
      </g>
     </g>
    </g>
    <g id="ytick_5">
     <g id="line2d_21">
      <path clip-path="url(#pcd39df9889)" d="M 61.410938 84.65865 
L 418.530938 84.65865 
" style="fill:none;stroke:#b0b0b0;stroke-linecap:square;stroke-width:0.8;"/>
     </g>
     <g id="line2d_22">
      <g>
       <use style="stroke:#000000;stroke-width:0.8;" x="61.410938" xlink:href="#mc3ce260a5b" y="84.65865"/>
      </g>
     </g>
     <g id="text_12">
      <!-- 0.8 -->
      <defs>
       <path d="M 31.78125 34.625 
Q 24.75 34.625 20.71875 30.859375 
Q 16.703125 27.09375 16.703125 20.515625 
Q 16.703125 13.921875 20.71875 10.15625 
Q 24.75 6.390625 31.78125 6.390625 
Q 38.8125 6.390625 42.859375 10.171875 
Q 46.921875 13.96875 46.921875 20.515625 
Q 46.921875 27.09375 42.890625 30.859375 
Q 38.875 34.625 31.78125 34.625 
z
M 21.921875 38.8125 
Q 15.578125 40.375 12.03125 44.71875 
Q 8.5 49.078125 8.5 55.328125 
Q 8.5 64.0625 14.71875 69.140625 
Q 20.953125 74.21875 31.78125 74.21875 
Q 42.671875 74.21875 48.875 69.140625 
Q 55.078125 64.0625 55.078125 55.328125 
Q 55.078125 49.078125 51.53125 44.71875 
Q 48 40.375 41.703125 38.8125 
Q 48.828125 37.15625 52.796875 32.3125 
Q 56.78125 27.484375 56.78125 20.515625 
Q 56.78125 9.90625 50.3125 4.234375 
Q 43.84375 -1.421875 31.78125 -1.421875 
Q 19.734375 -1.421875 13.25 4.234375 
Q 6.78125 9.90625 6.78125 20.515625 
Q 6.78125 27.484375 10.78125 32.3125 
Q 14.796875 37.15625 21.921875 38.8125 
z
M 18.3125 54.390625 
Q 18.3125 48.734375 21.84375 45.5625 
Q 25.390625 42.390625 31.78125 42.390625 
Q 38.140625 42.390625 41.71875 45.5625 
Q 45.3125 48.734375 45.3125 54.390625 
Q 45.3125 60.0625 41.71875 63.234375 
Q 38.140625 66.40625 31.78125 66.40625 
Q 25.390625 66.40625 21.84375 63.234375 
Q 18.3125 60.0625 18.3125 54.390625 
z
" id="DejaVuSans-38"/>
      </defs>
      <g transform="translate(30.55625 90.357478)scale(0.15 -0.15)">
       <use xlink:href="#DejaVuSans-30"/>
       <use x="63.623047" xlink:href="#DejaVuSans-2e"/>
       <use x="95.410156" xlink:href="#DejaVuSans-38"/>
      </g>
     </g>
    </g>
    <g id="ytick_6">
     <g id="line2d_23">
      <path clip-path="url(#pcd39df9889)" d="M 61.410938 31.43625 
L 418.530938 31.43625 
" style="fill:none;stroke:#b0b0b0;stroke-linecap:square;stroke-width:0.8;"/>
     </g>
     <g id="line2d_24">
      <g>
       <use style="stroke:#000000;stroke-width:0.8;" x="61.410938" xlink:href="#mc3ce260a5b" y="31.43625"/>
      </g>
     </g>
     <g id="text_13">
      <!-- 1.0 -->
      <g transform="translate(30.55625 37.135078)scale(0.15 -0.15)">
       <use xlink:href="#DejaVuSans-31"/>
       <use x="63.623047" xlink:href="#DejaVuSans-2e"/>
       <use x="95.410156" xlink:href="#DejaVuSans-30"/>
      </g>
     </g>
    </g>
    <g id="text_14">
     <!-- Survival -->
     <defs>
      <path d="M 53.515625 70.515625 
L 53.515625 60.890625 
Q 47.90625 63.578125 42.921875 64.890625 
Q 37.9375 66.21875 33.296875 66.21875 
Q 25.25 66.21875 20.875 63.09375 
Q 16.5 59.96875 16.5 54.203125 
Q 16.5 49.359375 19.40625 46.890625 
Q 22.3125 44.4375 30.421875 42.921875 
L 36.375 41.703125 
Q 47.40625 39.59375 52.65625 34.296875 
Q 57.90625 29 57.90625 20.125 
Q 57.90625 9.515625 50.796875 4.046875 
Q 43.703125 -1.421875 29.984375 -1.421875 
Q 24.8125 -1.421875 18.96875 -0.25 
Q 13.140625 0.921875 6.890625 3.21875 
L 6.890625 13.375 
Q 12.890625 10.015625 18.65625 8.296875 
Q 24.421875 6.59375 29.984375 6.59375 
Q 38.421875 6.59375 43.015625 9.90625 
Q 47.609375 13.234375 47.609375 19.390625 
Q 47.609375 24.75 44.3125 27.78125 
Q 41.015625 30.8125 33.5 32.328125 
L 27.484375 33.5 
Q 16.453125 35.6875 11.515625 40.375 
Q 6.59375 45.0625 6.59375 53.421875 
Q 6.59375 63.09375 13.40625 68.65625 
Q 20.21875 74.21875 32.171875 74.21875 
Q 37.3125 74.21875 42.625 73.28125 
Q 47.953125 72.359375 53.515625 70.515625 
z
" id="DejaVuSans-53"/>
      <path d="M 8.5 21.578125 
L 8.5 54.6875 
L 17.484375 54.6875 
L 17.484375 21.921875 
Q 17.484375 14.15625 20.5 10.265625 
Q 23.53125 6.390625 29.59375 6.390625 
Q 36.859375 6.390625 41.078125 11.03125 
Q 45.3125 15.671875 45.3125 23.6875 
L 45.3125 54.6875 
L 54.296875 54.6875 
L 54.296875 0 
L 45.3125 0 
L 45.3125 8.40625 
Q 42.046875 3.421875 37.71875 1 
Q 33.40625 -1.421875 27.6875 -1.421875 
Q 18.265625 -1.421875 13.375 4.4375 
Q 8.5 10.296875 8.5 21.578125 
z
M 31.109375 56 
z
" id="DejaVuSans-75"/>
      <path d="M 41.109375 46.296875 
Q 39.59375 47.171875 37.8125 47.578125 
Q 36.03125 48 33.890625 48 
Q 26.265625 48 22.1875 43.046875 
Q 18.109375 38.09375 18.109375 28.8125 
L 18.109375 0 
L 9.078125 0 
L 9.078125 54.6875 
L 18.109375 54.6875 
L 18.109375 46.1875 
Q 20.953125 51.171875 25.484375 53.578125 
Q 30.03125 56 36.53125 56 
Q 37.453125 56 38.578125 55.875 
Q 39.703125 55.765625 41.0625 55.515625 
z
" id="DejaVuSans-72"/>
      <path d="M 2.984375 54.6875 
L 12.5 54.6875 
L 29.59375 8.796875 
L 46.6875 54.6875 
L 56.203125 54.6875 
L 35.6875 0 
L 23.484375 0 
z
" id="DejaVuSans-76"/>
      <path d="M 34.28125 27.484375 
Q 23.390625 27.484375 19.1875 25 
Q 14.984375 22.515625 14.984375 16.5 
Q 14.984375 11.71875 18.140625 8.90625 
Q 21.296875 6.109375 26.703125 6.109375 
Q 34.1875 6.109375 38.703125 11.40625 
Q 43.21875 16.703125 43.21875 25.484375 
L 43.21875 27.484375 
z
M 52.203125 31.203125 
L 52.203125 0 
L 43.21875 0 
L 43.21875 8.296875 
Q 40.140625 3.328125 35.546875 0.953125 
Q 30.953125 -1.421875 24.3125 -1.421875 
Q 15.921875 -1.421875 10.953125 3.296875 
Q 6 8.015625 6 15.921875 
Q 6 25.140625 12.171875 29.828125 
Q 18.359375 34.515625 30.609375 34.515625 
L 43.21875 34.515625 
L 43.21875 35.40625 
Q 43.21875 41.609375 39.140625 45 
Q 35.0625 48.390625 27.6875 48.390625 
Q 23 48.390625 18.546875 47.265625 
Q 14.109375 46.140625 10.015625 43.890625 
L 10.015625 52.203125 
Q 14.9375 54.109375 19.578125 55.046875 
Q 24.21875 56 28.609375 56 
Q 40.484375 56 46.34375 49.84375 
Q 52.203125 43.703125 52.203125 31.203125 
z
" id="DejaVuSans-61"/>
      <path d="M 9.421875 75.984375 
L 18.40625 75.984375 
L 18.40625 0 
L 9.421875 0 
z
" id="DejaVuSans-6c"/>
     </defs>
     <g transform="translate(22.396875 204.811)rotate(-90)scale(0.2 -0.2)">
      <use xlink:href="#DejaVuSans-53"/>
      <use x="63.476562" xlink:href="#DejaVuSans-75"/>
      <use x="126.855469" xlink:href="#DejaVuSans-72"/>
      <use x="167.96875" xlink:href="#DejaVuSans-76"/>
      <use x="227.148438" xlink:href="#DejaVuSans-69"/>
      <use x="254.931641" xlink:href="#DejaVuSans-76"/>
      <use x="314.111328" xlink:href="#DejaVuSans-61"/>
      <use x="375.390625" xlink:href="#DejaVuSans-6c"/>
     </g>
    </g>
   </g>
   <g id="LineCollection_1">
    <path clip-path="url(#pcd39df9889)" d="M 61.410938 297.54825 
L 61.410938 296.36553 
" style="fill:none;stroke:#1f77b4;stroke-width:1.5;"/>
    <path clip-path="url(#pcd39df9889)" d="M 70.182306 238.670718 
L 70.182306 223.917337 
" style="fill:none;stroke:#1f77b4;stroke-width:1.5;"/>
    <path clip-path="url(#pcd39df9889)" d="M 78.953674 141.882825 
L 78.953674 124.487087 
" style="fill:none;stroke:#1f77b4;stroke-width:1.5;"/>
    <path clip-path="url(#pcd39df9889)" d="M 87.725043 84.154221 
L 87.725043 71.133744 
" style="fill:none;stroke:#1f77b4;stroke-width:1.5;"/>
    <path clip-path="url(#pcd39df9889)" d="M 96.496411 138.650432 
L 96.496411 121.807373 
" style="fill:none;stroke:#1f77b4;stroke-width:1.5;"/>
    <path clip-path="url(#pcd39df9889)" d="M 105.26778 240.142168 
L 105.26778 225.281111 
" style="fill:none;stroke:#1f77b4;stroke-width:1.5;"/>
    <path clip-path="url(#pcd39df9889)" d="M 114.039148 290.862871 
L 114.039148 284.216355 
" style="fill:none;stroke:#1f77b4;stroke-width:1.5;"/>
    <path clip-path="url(#pcd39df9889)" d="M 122.810516 247.929659 
L 122.810516 232.93952 
" style="fill:none;stroke:#1f77b4;stroke-width:1.5;"/>
    <path clip-path="url(#pcd39df9889)" d="M 131.581885 140.106688 
L 131.581885 123.458612 
" style="fill:none;stroke:#1f77b4;stroke-width:1.5;"/>
    <path clip-path="url(#pcd39df9889)" d="M 140.353253 81.730913 
L 140.353253 69.121473 
" style="fill:none;stroke:#1f77b4;stroke-width:1.5;"/>
    <path clip-path="url(#pcd39df9889)" d="M 149.124622 114.158834 
L 149.124622 98.25448 
" style="fill:none;stroke:#1f77b4;stroke-width:1.5;"/>
    <path clip-path="url(#pcd39df9889)" d="M 157.89599 221.938307 
L 157.89599 205.151999 
" style="fill:none;stroke:#1f77b4;stroke-width:1.5;"/>
    <path clip-path="url(#pcd39df9889)" d="M 166.667359 286.459702 
L 166.667359 278.573936 
" style="fill:none;stroke:#1f77b4;stroke-width:1.5;"/>
    <path clip-path="url(#pcd39df9889)" d="M 175.438727 253.258605 
L 175.438727 239.659869 
" style="fill:none;stroke:#1f77b4;stroke-width:1.5;"/>
    <path clip-path="url(#pcd39df9889)" d="M 184.210095 159.457134 
L 184.210095 142.116688 
" style="fill:none;stroke:#1f77b4;stroke-width:1.5;"/>
    <path clip-path="url(#pcd39df9889)" d="M 192.981464 78.827117 
L 192.981464 66.017383 
" style="fill:none;stroke:#1f77b4;stroke-width:1.5;"/>
    <path clip-path="url(#pcd39df9889)" d="M 201.752832 121.04852 
L 201.752832 104.773619 
" style="fill:none;stroke:#1f77b4;stroke-width:1.5;"/>
    <path clip-path="url(#pcd39df9889)" d="M 210.524201 204.298467 
L 210.524201 187.092829 
" style="fill:none;stroke:#1f77b4;stroke-width:1.5;"/>
    <path clip-path="url(#pcd39df9889)" d="M 219.295569 281.282952 
L 219.295569 271.669114 
" style="fill:none;stroke:#1f77b4;stroke-width:1.5;"/>
    <path clip-path="url(#pcd39df9889)" d="M 228.066938 254.797461 
L 228.066938 241.090618 
" style="fill:none;stroke:#1f77b4;stroke-width:1.5;"/>
    <path clip-path="url(#pcd39df9889)" d="M 236.838306 182.460282 
L 236.838306 164.180939 
" style="fill:none;stroke:#1f77b4;stroke-width:1.5;"/>
    <path clip-path="url(#pcd39df9889)" d="M 245.609674 104.446176 
L 245.609674 89.084918 
" style="fill:none;stroke:#1f77b4;stroke-width:1.5;"/>
    <path clip-path="url(#pcd39df9889)" d="M 254.381043 104.928509 
L 254.381043 89.852956 
" style="fill:none;stroke:#1f77b4;stroke-width:1.5;"/>
    <path clip-path="url(#pcd39df9889)" d="M 263.152411 173.595158 
L 263.152411 156.488978 
" style="fill:none;stroke:#1f77b4;stroke-width:1.5;"/>
    <path clip-path="url(#pcd39df9889)" d="M 271.92378 252.690375 
L 271.92378 238.586645 
" style="fill:none;stroke:#1f77b4;stroke-width:1.5;"/>
    <path clip-path="url(#pcd39df9889)" d="M 280.695148 262.334308 
L 280.695148 249.528923 
" style="fill:none;stroke:#1f77b4;stroke-width:1.5;"/>
    <path clip-path="url(#pcd39df9889)" d="M 289.466516 200.542209 
L 289.466516 183.298712 
" style="fill:none;stroke:#1f77b4;stroke-width:1.5;"/>
    <path clip-path="url(#pcd39df9889)" d="M 298.237885 118.004644 
L 298.237885 101.61876 
" style="fill:none;stroke:#1f77b4;stroke-width:1.5;"/>
    <path clip-path="url(#pcd39df9889)" d="M 307.009253 88.62825 
L 307.009253 74.904007 
" style="fill:none;stroke:#1f77b4;stroke-width:1.5;"/>
    <path clip-path="url(#pcd39df9889)" d="M 315.780622 168.096664 
L 315.780622 151.072229 
" style="fill:none;stroke:#1f77b4;stroke-width:1.5;"/>
    <path clip-path="url(#pcd39df9889)" d="M 324.55199 230.642082 
L 324.55199 215.117304 
" style="fill:none;stroke:#1f77b4;stroke-width:1.5;"/>
    <path clip-path="url(#pcd39df9889)" d="M 333.323359 257.784345 
L 333.323359 244.172955 
" style="fill:none;stroke:#1f77b4;stroke-width:1.5;"/>
    <path clip-path="url(#pcd39df9889)" d="M 342.094727 206.946448 
L 342.094727 189.754052 
" style="fill:none;stroke:#1f77b4;stroke-width:1.5;"/>
    <path clip-path="url(#pcd39df9889)" d="M 350.866095 140.128496 
L 350.866095 122.634584 
" style="fill:none;stroke:#1f77b4;stroke-width:1.5;"/>
    <path clip-path="url(#pcd39df9889)" d="M 359.637464 111.058594 
L 359.637464 95.86627 
" style="fill:none;stroke:#1f77b4;stroke-width:1.5;"/>
    <path clip-path="url(#pcd39df9889)" d="M 368.408832 136.855651 
L 368.408832 119.440849 
" style="fill:none;stroke:#1f77b4;stroke-width:1.5;"/>
    <path clip-path="url(#pcd39df9889)" d="M 377.180201 212.000421 
L 377.180201 195.043599 
" style="fill:none;stroke:#1f77b4;stroke-width:1.5;"/>
    <path clip-path="url(#pcd39df9889)" d="M 385.951569 253.821116 
L 385.951569 239.842559 
" style="fill:none;stroke:#1f77b4;stroke-width:1.5;"/>
    <path clip-path="url(#pcd39df9889)" d="M 394.722938 222.315599 
L 394.722938 205.181516 
" style="fill:none;stroke:#1f77b4;stroke-width:1.5;"/>
    <path clip-path="url(#pcd39df9889)" d="M 403.494306 176.566199 
L 403.494306 159.21265 
" style="fill:none;stroke:#1f77b4;stroke-width:1.5;"/>
    <path clip-path="url(#pcd39df9889)" d="M 412.265674 111.187296 
L 412.265674 95.164946 
" style="fill:none;stroke:#1f77b4;stroke-width:1.5;"/>
   </g>
   <g id="LineCollection_2">
    <path clip-path="url(#pcd39df9889)" d="M 61.410938 293.318268 
L 61.410938 286.326567 
" style="fill:none;stroke:#d62728;stroke-width:1.5;"/>
    <path clip-path="url(#pcd39df9889)" d="M 70.182306 287.666289 
L 70.182306 278.702211 
" style="fill:none;stroke:#d62728;stroke-width:1.5;"/>
    <path clip-path="url(#pcd39df9889)" d="M 78.953674 267.770786 
L 78.953674 254.070164 
" style="fill:none;stroke:#d62728;stroke-width:1.5;"/>
    <path clip-path="url(#pcd39df9889)" d="M 87.725043 246.909551 
L 87.725043 229.357063 
" style="fill:none;stroke:#d62728;stroke-width:1.5;"/>
    <path clip-path="url(#pcd39df9889)" d="M 96.496411 233.123371 
L 96.496411 214.992664 
" style="fill:none;stroke:#d62728;stroke-width:1.5;"/>
    <path clip-path="url(#pcd39df9889)" d="M 105.26778 237.526876 
L 105.26778 219.977624 
" style="fill:none;stroke:#d62728;stroke-width:1.5;"/>
    <path clip-path="url(#pcd39df9889)" d="M 114.039148 252.646454 
L 114.039148 235.66625 
" style="fill:none;stroke:#d62728;stroke-width:1.5;"/>
    <path clip-path="url(#pcd39df9889)" d="M 122.810516 238.707578 
L 122.810516 220.998606 
" style="fill:none;stroke:#d62728;stroke-width:1.5;"/>
    <path clip-path="url(#pcd39df9889)" d="M 131.581885 257.409689 
L 131.581885 241.072901 
" style="fill:none;stroke:#d62728;stroke-width:1.5;"/>
    <path clip-path="url(#pcd39df9889)" d="M 140.353253 249.116787 
L 140.353253 231.931713 
" style="fill:none;stroke:#d62728;stroke-width:1.5;"/>
    <path clip-path="url(#pcd39df9889)" d="M 149.124622 247.152417 
L 149.124622 229.080723 
" style="fill:none;stroke:#d62728;stroke-width:1.5;"/>
    <path clip-path="url(#pcd39df9889)" d="M 157.89599 256.880137 
L 157.89599 240.355821 
" style="fill:none;stroke:#d62728;stroke-width:1.5;"/>
    <path clip-path="url(#pcd39df9889)" d="M 166.667359 261.433995 
L 166.667359 245.534505 
" style="fill:none;stroke:#d62728;stroke-width:1.5;"/>
    <path clip-path="url(#pcd39df9889)" d="M 175.438727 265.683689 
L 175.438727 250.750774 
" style="fill:none;stroke:#d62728;stroke-width:1.5;"/>
    <path clip-path="url(#pcd39df9889)" d="M 184.210095 244.751514 
L 184.210095 226.279257 
" style="fill:none;stroke:#d62728;stroke-width:1.5;"/>
    <path clip-path="url(#pcd39df9889)" d="M 192.981464 250.124002 
L 192.981464 232.652498 
" style="fill:none;stroke:#d62728;stroke-width:1.5;"/>
   </g>
   <g id="line2d_25">
    <path clip-path="url(#pcd39df9889)" d="M 61.410938 297.056409 
L 61.768058 297.056409 
L 62.839418 295.926792 
L 63.196538 294.811085 
L 63.553658 294.627773 
L 64.267898 290.266269 
L 64.625018 289.665535 
L 64.982138 287.053683 
L 65.339258 285.387698 
L 65.696378 282.286763 
L 66.053498 280.220612 
L 67.124858 272.395534 
L 67.481978 267.792938 
L 68.553338 257.975724 
L 69.624698 246.855513 
L 70.338938 236.91609 
L 71.767418 219.960153 
L 72.838778 203.439585 
L 73.195898 200.038183 
L 74.981498 174.479917 
L 75.338618 167.510692 
L 76.767098 148.269848 
L 79.266938 114.279942 
L 82.123898 80.978723 
L 82.481018 78.779977 
L 82.838138 73.613348 
L 83.552378 68.623561 
L 84.266618 62.100836 
L 84.623738 61.339419 
L 84.980858 57.911159 
L 85.337978 57.463056 
L 85.695098 54.037655 
L 86.409338 50.553749 
L 86.766458 49.212174 
L 87.123578 49.184692 
L 87.480698 45.233691 
L 87.837818 46.654246 
L 88.194938 46.504304 
L 88.552058 45.233691 
L 89.266298 46.304414 
L 89.623418 45.233691 
L 89.980538 46.962914 
L 90.337658 47.389272 
L 90.694778 48.658013 
L 91.051898 48.845249 
L 91.409018 50.974587 
L 91.766138 52.283482 
L 92.480378 56.602319 
L 93.551738 62.751704 
L 94.265978 69.159019 
L 94.980218 75.796504 
L 95.337338 79.654335 
L 95.694458 82.151145 
L 96.051578 85.470491 
L 96.765818 94.036693 
L 97.122938 97.156074 
L 97.837178 106.074051 
L 98.551418 114.650677 
L 99.622778 129.00079 
L 100.694138 142.949983 
L 101.765498 159.15212 
L 103.193978 178.806341 
L 103.908218 189.315214 
L 104.265338 192.878575 
L 104.979578 203.047169 
L 106.050938 217.824633 
L 109.265018 256.320283 
L 109.622138 259.212307 
L 109.979258 261.039568 
L 110.336378 265.355183 
L 111.050618 270.965831 
L 111.764858 278.116253 
L 112.121978 278.823215 
L 112.836218 283.656193 
L 113.193338 285.598014 
L 113.550458 286.772936 
L 113.907578 288.766302 
L 114.264698 289.378306 
L 114.621818 290.398872 
L 114.978938 291.915869 
L 115.336058 292.005628 
L 115.693178 291.960748 
L 116.050298 293.321441 
L 116.407418 292.585658 
L 116.764538 293.568262 
L 117.121658 292.858524 
L 117.478778 290.336797 
L 117.835898 290.435442 
L 118.193018 289.830101 
L 119.264378 285.468576 
L 119.621498 284.258029 
L 119.978618 281.621225 
L 120.335738 280.434883 
L 120.692858 277.12922 
L 121.407098 272.958846 
L 122.478458 263.16208 
L 124.264058 246.685688 
L 124.621178 240.599388 
L 126.406778 220.254506 
L 127.835258 201.488487 
L 128.549498 191.097687 
L 131.763578 147.762854 
L 132.477818 138.872076 
L 133.192058 127.841033 
L 136.049018 95.440877 
L 136.406138 92.864464 
L 136.763258 87.323146 
L 137.120378 85.633836 
L 137.834618 78.153417 
L 138.191738 76.060016 
L 138.548858 71.398596 
L 138.905978 70.344254 
L 139.263098 68.137953 
L 139.620218 64.950727 
L 139.977338 63.407932 
L 140.334458 61.273588 
L 140.691578 61.068407 
L 141.048698 58.418003 
L 141.762938 56.422785 
L 142.120058 54.836956 
L 142.477178 54.682775 
L 142.834298 53.875407 
L 143.191418 54.469279 
L 143.548538 52.492912 
L 143.905658 54.037655 
L 144.262778 53.344269 
L 144.619898 53.672116 
L 144.977018 55.160461 
L 145.334138 55.803452 
L 145.691258 57.159996 
L 146.048378 58.072375 
L 146.405498 60.549699 
L 146.762618 61.680022 
L 147.476858 65.066191 
L 148.191098 70.233301 
L 148.548218 71.664049 
L 148.905338 76.096931 
L 149.262458 77.466921 
L 151.048058 94.393993 
L 154.262138 131.805609 
L 154.976378 141.860319 
L 155.333498 145.237722 
L 157.119098 169.258706 
L 161.047418 220.968801 
L 162.833018 240.697561 
L 165.332858 263.794414 
L 166.047098 268.896193 
L 166.761338 272.730704 
L 167.118458 275.317536 
L 167.475578 276.898057 
L 167.832698 279.467139 
L 168.189818 279.735312 
L 168.546938 282.145698 
L 168.904058 281.844214 
L 169.261178 284.197573 
L 169.618298 284.278181 
L 169.975418 286.228034 
L 170.332538 285.917181 
L 170.689658 285.100166 
L 171.046778 284.66004 
L 171.403898 285.642898 
L 172.118138 282.98331 
L 172.475258 282.873593 
L 172.832378 282.198597 
L 173.189498 280.80187 
L 173.546618 278.86743 
L 173.903738 278.073933 
L 174.617978 273.343382 
L 174.975098 272.067895 
L 176.760698 258.705499 
L 177.117818 254.552772 
L 177.474938 252.414781 
L 177.832058 248.131572 
L 178.189178 245.374258 
L 178.903418 237.748515 
L 181.760378 204.742074 
L 183.545978 181.841034 
L 184.260218 172.483226 
L 184.974458 163.188316 
L 185.331578 159.143958 
L 185.688698 152.795565 
L 186.760058 140.223162 
L 188.545658 117.947473 
L 188.902778 114.685945 
L 189.259898 109.903937 
L 189.617018 107.5185 
L 189.974138 103.047082 
L 190.331258 100.074479 
L 190.688378 95.201864 
L 192.831098 77.342484 
L 193.188218 76.253822 
L 193.545338 72.895359 
L 194.616698 67.497018 
L 194.973818 65.592206 
L 195.330938 64.895868 
L 196.045178 61.934851 
L 196.402298 60.617799 
L 196.759418 61.355876 
L 197.116538 60.341943 
L 197.473658 60.396472 
L 197.830778 59.283481 
L 198.187898 59.171694 
L 198.545018 59.796048 
L 198.902138 60.179668 
L 199.259258 61.374915 
L 199.616378 61.1913 
L 199.973498 62.354209 
L 200.687738 66.13496 
L 201.044858 66.935064 
L 201.401978 70.00678 
L 201.759098 71.965942 
L 202.116218 72.90554 
L 202.830458 78.857937 
L 203.187578 80.203703 
L 203.544698 83.211375 
L 203.901818 87.715861 
L 204.258938 89.064508 
L 205.687418 102.847536 
L 206.044538 107.011561 
L 206.401658 109.824725 
L 207.830138 126.789907 
L 208.544378 134.311892 
L 208.901498 139.926909 
L 209.615738 148.536517 
L 211.044218 166.705306 
L 211.758458 175.366247 
L 213.186938 193.686916 
L 215.329658 219.599019 
L 215.686778 222.805173 
L 216.043898 229.126432 
L 217.115258 238.896825 
L 219.257978 258.86101 
L 219.615098 260.602237 
L 220.686458 268.806422 
L 221.043578 270.988175 
L 221.400698 272.384312 
L 221.757818 274.574162 
L 222.114938 275.101668 
L 222.472058 277.517666 
L 222.829178 278.031613 
L 223.186298 278.306914 
L 223.543418 281.305376 
L 224.257658 281.000054 
L 224.614778 281.03297 
L 224.971898 280.126568 
L 226.043258 281.472742 
L 226.400378 279.526985 
L 226.757498 279.797029 
L 227.114618 277.03453 
L 227.471738 275.932809 
L 227.828858 275.945633 
L 228.185978 273.366617 
L 229.257338 268.124076 
L 229.614458 264.529601 
L 229.971578 264.039102 
L 230.328698 260.162846 
L 230.685818 258.829908 
L 231.042938 254.602862 
L 231.400058 251.861126 
L 232.114298 244.799228 
L 232.471418 240.897566 
L 233.185658 234.947562 
L 233.542778 230.178191 
L 234.257018 223.113161 
L 239.256698 161.794192 
L 239.613818 156.266854 
L 239.970938 152.974886 
L 243.542138 110.28746 
L 246.399098 84.480941 
L 246.756218 82.452276 
L 247.470458 75.687851 
L 247.827578 75.603209 
L 248.541818 70.345067 
L 248.898938 68.752874 
L 249.256058 67.857264 
L 249.613178 67.299523 
L 249.970298 64.703859 
L 250.327418 64.20206 
L 250.684538 63.062347 
L 251.041658 62.614978 
L 251.398778 61.823364 
L 251.755898 62.100836 
L 252.827258 62.369638 
L 253.184378 63.09227 
L 253.541498 63.319502 
L 253.898618 65.432076 
L 254.255738 65.228516 
L 254.969978 68.741118 
L 255.327098 69.331254 
L 258.184058 87.975048 
L 258.898298 95.466036 
L 259.255418 97.759082 
L 259.969658 104.748012 
L 261.398138 119.997047 
L 262.112378 128.764152 
L 263.183738 140.793063 
L 263.540858 145.65052 
L 263.897978 148.969854 
L 266.397818 180.699099 
L 269.969018 224.093943 
L 271.040378 234.958414 
L 271.397498 239.265719 
L 272.111738 245.097224 
L 272.825978 252.058626 
L 273.183098 253.90439 
L 274.254458 262.287243 
L 275.325818 268.422338 
L 276.040058 272.056799 
L 277.111418 276.396566 
L 277.468538 276.711238 
L 278.182778 278.941121 
L 278.539898 279.392331 
L 278.897018 279.477628 
L 279.254138 278.95586 
L 279.611258 279.123022 
L 279.968378 278.648398 
L 280.325498 278.378469 
L 280.682618 277.73625 
L 281.039738 276.84468 
L 281.396858 275.392535 
L 281.753978 274.408751 
L 282.111098 274.191988 
L 282.468218 269.749524 
L 282.825338 269.914105 
L 283.182458 268.065414 
L 283.539578 265.06432 
L 283.896698 264.929662 
L 284.253818 260.87744 
L 285.325178 252.596373 
L 286.039418 246.482595 
L 287.467898 233.278181 
L 288.182138 224.720925 
L 288.539258 221.690031 
L 297.467258 114.927783 
L 300.324218 88.685495 
L 300.681338 86.975484 
L 301.395578 81.372948 
L 302.466938 75.349228 
L 302.824058 74.087807 
L 303.538298 68.865396 
L 303.895418 68.993188 
L 304.252538 67.36124 
L 304.609658 66.511183 
L 304.966778 66.897565 
L 305.323898 66.199925 
L 306.038138 63.897319 
L 306.752378 64.964442 
L 307.109498 65.231912 
L 307.466618 66.357291 
L 307.823738 67.097561 
L 308.180858 67.36124 
L 308.895098 70.834179 
L 309.252218 71.685285 
L 309.609338 72.946261 
L 310.323578 77.025513 
L 311.037818 80.221048 
L 311.394938 83.992866 
L 312.109178 87.551278 
L 313.180538 97.820039 
L 313.537658 99.914823 
L 313.894778 104.314657 
L 314.251898 106.903044 
L 318.180218 150.946761 
L 318.537338 156.738072 
L 318.894458 159.514387 
L 320.322938 177.442445 
L 321.037178 186.244513 
L 323.179898 211.471264 
L 324.251258 223.200723 
L 324.608378 227.800649 
L 324.965498 229.670146 
L 325.679738 237.832202 
L 326.751098 246.742296 
L 327.108218 250.778832 
L 327.465338 253.135187 
L 327.822458 254.667264 
L 328.536698 260.569861 
L 329.965178 268.746574 
L 330.322298 269.394741 
L 330.679418 270.68976 
L 331.036538 272.662602 
L 331.750778 274.092661 
L 332.107898 274.216073 
L 332.465018 275.46298 
L 332.822138 275.46298 
L 333.179258 276.737926 
L 333.893498 275.255038 
L 334.250618 275.627559 
L 336.036218 271.020376 
L 337.107578 264.902731 
L 337.464698 263.864325 
L 337.821818 260.861252 
L 338.178938 259.695625 
L 339.964538 244.347373 
L 340.321658 243.304487 
L 342.464378 220.992654 
L 342.821498 218.45132 
L 345.678458 184.476422 
L 346.392698 175.507898 
L 347.821178 158.809348 
L 351.035258 121.58845 
L 352.106618 110.329481 
L 352.463738 107.993094 
L 353.177978 100.635057 
L 355.320698 83.913765 
L 356.749178 76.501517 
L 357.106298 73.19252 
L 358.534778 68.842161 
L 358.891898 69.536695 
L 359.249018 67.881349 
L 359.606138 68.435386 
L 359.963258 67.32421 
L 360.320378 67.262492 
L 361.034618 68.098112 
L 361.391738 68.161747 
L 361.748858 69.513994 
L 362.105978 70.21111 
L 362.463098 70.619368 
L 363.891578 76.336882 
L 364.248698 79.024977 
L 364.605818 80.262283 
L 364.962938 83.312457 
L 365.320058 84.871106 
L 367.105658 98.937734 
L 367.462778 102.898909 
L 367.819898 105.109926 
L 368.177018 108.046762 
L 368.534138 113.225067 
L 369.605498 123.467289 
L 370.319738 131.58666 
L 370.676858 135.37971 
L 371.033978 140.716115 
L 371.391098 143.643152 
L 376.390778 205.377211 
L 376.747898 207.64757 
L 377.462138 215.887422 
L 377.819258 220.268748 
L 378.176378 223.171536 
L 379.604858 238.504037 
L 380.319098 244.604166 
L 380.676218 248.12516 
L 381.033338 250.019909 
L 381.390458 254.201383 
L 381.747578 255.525185 
L 382.104698 257.366227 
L 382.461818 260.828875 
L 382.818938 262.078028 
L 383.533178 267.647719 
L 383.890298 268.412463 
L 384.604538 271.271446 
L 385.318778 274.420794 
L 385.675898 274.408751 
L 386.033018 275.267538 
L 386.747258 276.099526 
L 387.461498 275.843039 
L 387.818618 275.932809 
L 388.175738 275.117541 
L 388.532858 274.904173 
L 389.247098 273.389852 
L 389.604218 271.703648 
L 389.961338 271.369109 
L 390.675578 266.818556 
L 391.032698 266.409753 
L 391.389818 263.127733 
L 391.746938 261.624083 
L 392.104058 258.468912 
L 392.818298 254.774601 
L 394.961018 235.720153 
L 398.175098 200.937021 
L 404.603258 122.894252 
L 405.317498 115.579072 
L 405.674618 110.855021 
L 406.745978 100.722706 
L 407.817338 91.090474 
L 408.174458 88.916612 
L 408.531578 85.315209 
L 409.245818 80.682475 
L 409.602938 77.538091 
L 409.960058 76.519804 
L 410.674298 72.684584 
L 411.031418 71.43045 
L 411.745658 67.311866 
L 412.817018 64.567758 
L 413.174138 64.054742 
L 413.531258 63.897319 
L 413.888378 64.02612 
L 414.245498 64.539942 
L 414.602618 63.940253 
L 414.959738 64.040431 
L 415.316858 63.968875 
L 415.673978 65.44542 
L 416.031098 65.854035 
L 416.388218 66.069994 
L 417.102458 69.525345 
L 417.459578 72.793557 
L 417.816698 73.503628 
L 418.173818 75.386902 
L 418.530938 77.959445 
L 418.530938 77.959445 
" style="fill:none;stroke:#1f77b4;stroke-linecap:square;stroke-width:1.5;"/>
   </g>
   <g id="line2d_26">
    <path clip-path="url(#pcd39df9889)" d="M 61.410938 289.871385 
L 63.516066 289.871385 
L 63.816799 289.499985 
L 64.117531 289.871385 
L 64.418264 289.080446 
L 64.718996 289.871385 
L 65.019729 288.57421 
L 65.320462 288.32745 
L 65.621194 289.871385 
L 65.921927 289.871385 
L 66.22266 288.224517 
L 66.523392 288.224517 
L 66.824125 286.731558 
L 67.124858 287.360482 
L 67.42559 286.802076 
L 67.726323 286.512881 
L 68.027055 285.16793 
L 68.327788 285.838052 
L 68.628521 284.503475 
L 68.929253 284.551327 
L 69.229986 283.787337 
L 69.530719 284.374689 
L 69.831451 283.116509 
L 70.132184 283.546529 
L 70.432916 282.129579 
L 70.733649 281.82065 
L 71.034382 281.316794 
L 71.335114 281.641121 
L 72.237312 278.709193 
L 72.538045 278.972479 
L 72.838778 278.12995 
L 73.13951 277.62101 
L 73.440243 276.706822 
L 73.740975 276.864814 
L 74.041708 275.309028 
L 74.342441 275.597138 
L 74.643173 274.204035 
L 74.943906 273.897319 
L 75.545371 272.550865 
L 75.846104 272.247029 
L 76.447569 270.579042 
L 76.748302 270.426054 
L 77.349767 268.683663 
L 77.6505 267.511049 
L 77.951232 268.020015 
L 78.251965 265.888645 
L 78.552698 266.646095 
L 78.85343 266.135123 
L 79.755628 263.515354 
L 80.056361 263.803151 
L 80.357093 263.202164 
L 80.657826 262.250438 
L 80.958559 261.902479 
L 81.860756 259.401732 
L 82.161489 259.178149 
L 83.36442 256.722995 
L 83.665152 255.135693 
L 83.965885 256.524329 
L 84.56735 254.884636 
L 84.868083 255.077113 
L 85.168815 253.348271 
L 85.469548 252.746876 
L 85.770281 252.439501 
L 86.071013 252.810585 
L 86.371746 251.870374 
L 86.672479 251.422755 
L 86.973211 250.65452 
L 87.273944 250.97442 
L 87.574676 249.389567 
L 88.176142 248.636016 
L 88.476874 248.973133 
L 89.07834 247.439305 
L 89.379072 248.390988 
L 89.980538 245.894529 
L 90.28127 246.571241 
L 90.582003 245.741537 
L 90.882735 245.818033 
L 91.183468 246.068385 
L 91.484201 244.539895 
L 91.784933 244.682912 
L 92.085666 244.197667 
L 92.386399 243.45369 
L 92.687131 244.380287 
L 92.987864 243.032858 
L 93.589329 242.880425 
L 93.890062 243.427001 
L 94.190794 242.880969 
L 95.092992 242.364867 
L 95.393725 241.08762 
L 95.694458 242.273311 
L 95.99519 241.113269 
L 96.295923 241.223817 
L 96.897388 240.799064 
L 97.198121 239.947241 
L 97.498853 240.8696 
L 98.100319 239.815155 
L 98.401051 240.092499 
L 98.701784 239.796285 
L 99.002516 239.859183 
L 99.303249 240.660115 
L 99.603982 238.497828 
L 99.904714 238.343531 
L 100.50618 238.730601 
L 100.806912 239.341321 
L 101.107645 238.528687 
L 101.408378 239.739677 
L 101.70911 239.047571 
L 102.009843 239.047346 
L 102.611308 238.504 
L 102.912041 238.643651 
L 103.212773 239.291321 
L 103.513506 237.571534 
L 103.814239 237.844731 
L 104.114971 238.662283 
L 104.716436 238.016471 
L 105.317902 238.417593 
L 105.919367 238.028738 
L 106.2201 238.411421 
L 106.520832 238.541031 
L 106.821565 237.431334 
L 107.122298 238.10234 
L 107.42303 238.022604 
L 107.723763 237.504482 
L 108.325228 239.003872 
L 108.625961 237.863132 
L 109.227426 239.116321 
L 109.528159 238.047138 
L 110.129624 238.294156 
L 110.430356 238.656073 
L 110.731089 238.559546 
L 111.031822 238.318843 
L 111.332554 238.269468 
L 111.633287 238.491656 
L 111.93402 239.053821 
L 112.234752 237.295631 
L 112.535485 238.263296 
L 112.836218 238.126874 
L 113.437683 238.362046 
L 113.738415 238.910711 
L 114.039148 238.318843 
L 114.339881 238.590406 
L 114.640613 238.479312 
L 114.941346 237.656874 
L 115.242079 238.399078 
L 115.542811 238.226265 
L 115.843544 238.612598 
L 116.144276 237.985803 
L 116.445009 238.656073 
L 116.745742 238.867236 
L 117.046474 239.247571 
L 117.347207 239.422571 
L 117.64794 238.541031 
L 117.948672 239.291321 
L 118.249405 239.341321 
L 118.550138 239.878053 
L 118.85087 238.873447 
L 119.151603 239.085071 
L 119.452335 239.060071 
L 119.753068 238.516343 
L 120.053801 239.222571 
L 120.354533 239.475505 
L 120.655266 239.147571 
L 120.955999 239.210071 
L 121.256731 238.625019 
L 121.858196 239.563562 
L 122.158929 238.618808 
L 122.459662 239.116321 
L 122.760394 239.197571 
L 123.061127 240.035528 
L 123.36186 239.060071 
L 123.662592 238.590406 
L 123.963325 239.178821 
L 124.264058 238.041005 
L 124.865523 239.091321 
L 125.166255 238.306499 
L 125.466988 239.541321 
L 125.767721 239.066321 
L 126.369186 239.016293 
L 126.669919 238.516343 
L 126.970651 238.892079 
L 127.271384 238.63123 
L 127.872849 238.643651 
L 128.173582 238.386734 
L 128.474314 238.854815 
L 128.775047 238.805129 
L 129.07578 239.500664 
L 129.376512 239.235071 
L 129.677245 239.852893 
L 129.977978 238.479312 
L 130.27871 238.625019 
L 130.579443 238.559546 
L 130.880175 238.343531 
L 131.180908 239.428821 
L 131.481641 239.310071 
L 132.083106 238.331187 
L 132.383839 239.153821 
L 132.684571 237.887666 
L 132.985304 238.077806 
L 133.286036 239.191321 
L 133.586769 239.166321 
L 133.887502 238.780286 
L 134.188234 239.053821 
L 134.7897 237.752728 
L 135.090432 238.553375 
L 135.391165 238.885868 
L 135.691898 239.494374 
L 135.99263 238.534859 
L 136.293363 238.674705 
L 136.594095 239.506954 
L 136.894828 237.72206 
L 137.195561 238.362046 
L 137.496293 238.730601 
L 138.097759 238.331187 
L 138.398491 239.353821 
L 138.699224 239.222571 
L 138.999956 238.212744 
L 139.300689 237.985803 
L 139.601422 239.091321 
L 139.902154 238.528687 
L 140.202887 238.997661 
L 140.50362 238.643651 
L 140.804352 238.053272 
L 141.405818 239.053557 
L 142.007283 238.559546 
L 142.308015 238.429937 
L 142.608748 238.643651 
L 142.909481 238.114607 
L 143.210213 239.097571 
L 143.510946 239.041136 
L 143.811679 238.63744 
L 144.413144 238.63123 
L 144.713876 239.303821 
L 145.014609 239.247571 
L 145.315342 239.441321 
L 145.616074 238.929343 
L 145.916807 239.360071 
L 146.21754 238.761654 
L 146.518272 239.253821 
L 147.119738 239.485071 
L 147.42047 239.758546 
L 147.721203 238.923132 
L 148.021935 240.079839 
L 148.623401 238.263296 
L 148.924133 238.232437 
L 149.224866 239.62017 
L 149.525599 239.657909 
L 149.826331 239.422571 
L 150.127064 239.733387 
L 150.427796 238.929343 
L 151.029262 239.745967 
L 151.329994 239.316321 
L 151.630727 240.193781 
L 151.93146 239.708228 
L 152.232192 240.551809 
L 152.532925 239.745967 
L 152.833658 241.628171 
L 153.13439 240.532696 
L 153.435123 240.225432 
L 153.735855 240.539067 
L 154.036588 240.628261 
L 154.337321 241.262542 
L 154.638053 240.641003 
L 154.938786 240.634632 
L 155.239519 240.863188 
L 155.540251 239.991217 
L 155.840984 241.540075 
L 156.141716 240.519954 
L 156.442449 241.339993 
L 156.743182 241.462624 
L 157.344647 241.32063 
L 157.64538 241.591709 
L 158.246845 241.680144 
L 158.547578 241.810078 
L 158.84831 241.385173 
L 159.149043 242.604469 
L 159.449775 242.090198 
L 159.750508 241.991986 
L 160.051241 243.280211 
L 160.351973 242.162135 
L 160.652706 243.278075 
L 160.953439 242.00498 
L 161.254171 242.742719 
L 161.554904 243.165408 
L 162.156369 242.02447 
L 162.757834 243.278075 
L 163.058567 243.620498 
L 163.3593 243.667204 
L 163.660032 243.420329 
L 163.960765 243.647187 
L 164.261498 243.198545 
L 164.56223 243.012975 
L 164.862963 243.072623 
L 165.163695 242.821719 
L 165.464428 243.813072 
L 165.765161 243.786201 
L 166.065893 244.034755 
L 166.366626 243.231683 
L 166.667359 243.673876 
L 166.968091 244.825929 
L 167.268824 244.18414 
L 167.569556 244.054908 
L 167.870289 244.512654 
L 168.171022 244.177376 
L 168.471754 244.934879 
L 168.772487 244.326178 
L 169.07322 244.982883 
L 169.373952 243.927272 
L 169.674685 244.231486 
L 169.975418 244.278832 
L 170.27615 244.96231 
L 170.576883 244.163849 
L 170.877615 244.292359 
L 171.178348 245.487311 
L 171.479081 244.387051 
L 171.779813 244.64205 
L 172.080546 245.270903 
L 172.682011 245.790216 
L 172.982744 245.818033 
L 173.283476 244.682912 
L 173.584209 244.83274 
L 173.884942 246.265503 
L 174.185674 245.133751 
L 174.78714 245.161181 
L 175.087872 246.216479 
L 175.388605 245.36691 
L 175.689338 246.075339 
L 175.99007 245.769354 
L 176.290803 246.634723 
L 176.591535 246.026659 
L 176.892268 245.922346 
L 177.193001 246.202471 
L 177.493733 245.494216 
L 177.794466 246.314528 
L 178.095199 246.012751 
L 178.395931 246.698205 
L 178.696664 247.101611 
L 178.997396 246.740526 
L 179.298129 246.662937 
L 179.598862 246.447595 
L 179.899594 245.65995 
L 180.200327 246.571241 
L 180.50106 246.543027 
L 180.801792 246.712312 
L 181.102525 246.627669 
L 181.403258 247.009255 
L 181.70399 246.426584 
L 182.305455 246.578295 
L 182.606188 246.789901 
L 182.906921 246.84633 
L 183.207653 247.257905 
L 183.508386 246.924003 
L 183.809119 247.051881 
L 184.109851 246.662937 
L 184.410584 247.336053 
L 184.711316 247.073194 
L 185.012049 246.230486 
L 185.312782 246.468606 
L 185.613514 248.26029 
L 185.914247 247.11582 
L 186.21498 247.389215 
L 186.515712 247.389215 
L 186.816445 247.037672 
L 187.41791 247.695434 
L 187.718643 247.868426 
L 188.019375 246.987942 
L 188.620841 247.300531 
L 188.921573 247.179758 
L 189.222306 247.846802 
L 189.523039 247.26501 
L 189.823771 247.023464 
L 190.124504 247.717058 
L 190.425236 247.389215 
L 190.725969 247.286323 
L 191.026702 248.11507 
L 191.327434 248.245768 
L 191.628167 247.990962 
L 191.9289 248.628701 
L 192.831098 246.719366 
L 193.13183 247.646823 
L 193.432563 247.603888 
L 193.733295 247.293427 
L 194.034028 248.005378 
L 194.334761 246.938212 
L 194.635493 247.539486 
L 194.936226 246.966629 
L 195.236959 247.26501 
L 195.537691 247.151341 
L 195.838424 247.243697 
L 196.139156 248.340161 
L 196.439889 247.560954 
L 196.740622 247.724266 
L 197.041354 247.525175 
L 197.342087 248.376466 
L 197.64282 248.518979 
L 197.943552 247.596732 
L 198.244285 248.965763 
L 198.545018 247.307636 
L 198.84575 247.553798 
L 199.146483 247.510863 
L 199.747948 248.151375 
L 200.048681 246.825169 
L 200.349413 248.50435 
L 200.650146 248.376466 
L 200.950879 247.467929 
L 201.251611 246.966629 
L 201.552344 248.753052 
L 201.853076 247.731474 
L 202.153809 248.303856 
L 202.454542 247.731474 
L 202.755274 249.290016 
L 203.056007 247.92609 
L 203.35674 247.367748 
L 203.657472 247.460773 
L 203.958205 248.643331 
L 204.258938 248.8847 
L 204.55967 247.208175 
L 204.860403 247.503707 
L 205.161135 248.07025 
L 205.461868 247.96213 
L 205.762601 248.282073 
L 206.364066 248.253029 
L 206.664799 248.497035 
L 206.965531 248.086026 
L 207.266264 248.194941 
L 207.566996 248.526294 
L 207.867729 247.222384 
L 208.168462 248.158636 
L 208.469194 248.40551 
L 208.769927 247.625356 
L 209.07066 247.589577 
L 209.371392 248.50435 
L 209.672125 248.055834 
L 209.972858 248.129592 
L 210.27359 247.774722 
L 210.574323 248.48972 
L 210.875055 248.012586 
L 211.175788 247.882842 
L 211.476521 248.173158 
L 211.777253 247.518019 
L 211.777253 247.518019 
" style="fill:none;stroke:#d62728;stroke-linecap:square;stroke-width:1.5;"/>
   </g>
   <g id="line2d_27">
    <defs>
     <path d="M 0 3 
C 0.795609 3 1.55874 2.683901 2.12132 2.12132 
C 2.683901 1.55874 3 0.795609 3 0 
C 3 -0.795609 2.683901 -1.55874 2.12132 -2.12132 
C 1.55874 -2.683901 0.795609 -3 0 -3 
C -0.795609 -3 -1.55874 -2.683901 -2.12132 -2.12132 
C -2.683901 -1.55874 -3 -0.795609 -3 0 
C -3 0.795609 -2.683901 1.55874 -2.12132 2.12132 
C -1.55874 2.683901 -0.795609 3 0 3 
z
" id="mcb2457e3ba" style="stroke:#1f77b4;"/>
    </defs>
    <g clip-path="url(#pcd39df9889)">
     <use style="fill:#1f77b4;stroke:#1f77b4;" x="61.410938" xlink:href="#mcb2457e3ba" y="296.95689"/>
     <use style="fill:#1f77b4;stroke:#1f77b4;" x="70.182306" xlink:href="#mcb2457e3ba" y="231.294028"/>
     <use style="fill:#1f77b4;stroke:#1f77b4;" x="78.953674" xlink:href="#mcb2457e3ba" y="133.184956"/>
     <use style="fill:#1f77b4;stroke:#1f77b4;" x="87.725043" xlink:href="#mcb2457e3ba" y="77.643982"/>
     <use style="fill:#1f77b4;stroke:#1f77b4;" x="96.496411" xlink:href="#mcb2457e3ba" y="130.228902"/>
     <use style="fill:#1f77b4;stroke:#1f77b4;" x="105.26778" xlink:href="#mcb2457e3ba" y="232.71164"/>
     <use style="fill:#1f77b4;stroke:#1f77b4;" x="114.039148" xlink:href="#mcb2457e3ba" y="287.539613"/>
     <use style="fill:#1f77b4;stroke:#1f77b4;" x="122.810516" xlink:href="#mcb2457e3ba" y="240.43459"/>
     <use style="fill:#1f77b4;stroke:#1f77b4;" x="131.581885" xlink:href="#mcb2457e3ba" y="131.78265"/>
     <use style="fill:#1f77b4;stroke:#1f77b4;" x="140.353253" xlink:href="#mcb2457e3ba" y="75.426193"/>
     <use style="fill:#1f77b4;stroke:#1f77b4;" x="149.124622" xlink:href="#mcb2457e3ba" y="106.206657"/>
     <use style="fill:#1f77b4;stroke:#1f77b4;" x="157.89599" xlink:href="#mcb2457e3ba" y="213.545153"/>
     <use style="fill:#1f77b4;stroke:#1f77b4;" x="166.667359" xlink:href="#mcb2457e3ba" y="282.516819"/>
     <use style="fill:#1f77b4;stroke:#1f77b4;" x="175.438727" xlink:href="#mcb2457e3ba" y="246.459237"/>
     <use style="fill:#1f77b4;stroke:#1f77b4;" x="184.210095" xlink:href="#mcb2457e3ba" y="150.786911"/>
     <use style="fill:#1f77b4;stroke:#1f77b4;" x="192.981464" xlink:href="#mcb2457e3ba" y="72.42225"/>
     <use style="fill:#1f77b4;stroke:#1f77b4;" x="201.752832" xlink:href="#mcb2457e3ba" y="112.911069"/>
     <use style="fill:#1f77b4;stroke:#1f77b4;" x="210.524201" xlink:href="#mcb2457e3ba" y="195.695648"/>
     <use style="fill:#1f77b4;stroke:#1f77b4;" x="219.295569" xlink:href="#mcb2457e3ba" y="276.476033"/>
     <use style="fill:#1f77b4;stroke:#1f77b4;" x="228.066938" xlink:href="#mcb2457e3ba" y="247.944039"/>
     <use style="fill:#1f77b4;stroke:#1f77b4;" x="236.838306" xlink:href="#mcb2457e3ba" y="173.32061"/>
     <use style="fill:#1f77b4;stroke:#1f77b4;" x="245.609674" xlink:href="#mcb2457e3ba" y="96.765547"/>
     <use style="fill:#1f77b4;stroke:#1f77b4;" x="254.381043" xlink:href="#mcb2457e3ba" y="97.390733"/>
     <use style="fill:#1f77b4;stroke:#1f77b4;" x="263.152411" xlink:href="#mcb2457e3ba" y="165.042068"/>
     <use style="fill:#1f77b4;stroke:#1f77b4;" x="271.92378" xlink:href="#mcb2457e3ba" y="245.63851"/>
     <use style="fill:#1f77b4;stroke:#1f77b4;" x="280.695148" xlink:href="#mcb2457e3ba" y="255.931616"/>
     <use style="fill:#1f77b4;stroke:#1f77b4;" x="289.466516" xlink:href="#mcb2457e3ba" y="191.920461"/>
     <use style="fill:#1f77b4;stroke:#1f77b4;" x="298.237885" xlink:href="#mcb2457e3ba" y="109.811702"/>
     <use style="fill:#1f77b4;stroke:#1f77b4;" x="307.009253" xlink:href="#mcb2457e3ba" y="81.766128"/>
     <use style="fill:#1f77b4;stroke:#1f77b4;" x="315.780622" xlink:href="#mcb2457e3ba" y="159.584447"/>
     <use style="fill:#1f77b4;stroke:#1f77b4;" x="324.55199" xlink:href="#mcb2457e3ba" y="222.879693"/>
     <use style="fill:#1f77b4;stroke:#1f77b4;" x="333.323359" xlink:href="#mcb2457e3ba" y="250.97865"/>
     <use style="fill:#1f77b4;stroke:#1f77b4;" x="342.094727" xlink:href="#mcb2457e3ba" y="198.35025"/>
     <use style="fill:#1f77b4;stroke:#1f77b4;" x="350.866095" xlink:href="#mcb2457e3ba" y="131.38154"/>
     <use style="fill:#1f77b4;stroke:#1f77b4;" x="359.637464" xlink:href="#mcb2457e3ba" y="103.462432"/>
     <use style="fill:#1f77b4;stroke:#1f77b4;" x="368.408832" xlink:href="#mcb2457e3ba" y="128.14825"/>
     <use style="fill:#1f77b4;stroke:#1f77b4;" x="377.180201" xlink:href="#mcb2457e3ba" y="203.52201"/>
     <use style="fill:#1f77b4;stroke:#1f77b4;" x="385.951569" xlink:href="#mcb2457e3ba" y="246.831837"/>
     <use style="fill:#1f77b4;stroke:#1f77b4;" x="394.722938" xlink:href="#mcb2457e3ba" y="213.748558"/>
     <use style="fill:#1f77b4;stroke:#1f77b4;" x="403.494306" xlink:href="#mcb2457e3ba" y="167.889424"/>
     <use style="fill:#1f77b4;stroke:#1f77b4;" x="412.265674" xlink:href="#mcb2457e3ba" y="103.176121"/>
    </g>
   </g>
   <g id="line2d_28">
    <defs>
     <path d="M 0 3 
C 0.795609 3 1.55874 2.683901 2.12132 2.12132 
C 2.683901 1.55874 3 0.795609 3 0 
C 3 -0.795609 2.683901 -1.55874 2.12132 -2.12132 
C 1.55874 -2.683901 0.795609 -3 0 -3 
C -0.795609 -3 -1.55874 -2.683901 -2.12132 -2.12132 
C -2.683901 -1.55874 -3 -0.795609 -3 0 
C -3 0.795609 -2.683901 1.55874 -2.12132 2.12132 
C -1.55874 2.683901 -0.795609 3 0 3 
z
" id="m4d17eb6f4c" style="stroke:#d62728;"/>
    </defs>
    <g clip-path="url(#pcd39df9889)">
     <use style="fill:#d62728;stroke:#d62728;" x="61.410938" xlink:href="#m4d17eb6f4c" y="289.822418"/>
     <use style="fill:#d62728;stroke:#d62728;" x="70.182306" xlink:href="#m4d17eb6f4c" y="283.18425"/>
     <use style="fill:#d62728;stroke:#d62728;" x="78.953674" xlink:href="#m4d17eb6f4c" y="260.920475"/>
     <use style="fill:#d62728;stroke:#d62728;" x="87.725043" xlink:href="#m4d17eb6f4c" y="238.133307"/>
     <use style="fill:#d62728;stroke:#d62728;" x="96.496411" xlink:href="#m4d17eb6f4c" y="224.058017"/>
     <use style="fill:#d62728;stroke:#d62728;" x="105.26778" xlink:href="#m4d17eb6f4c" y="228.75225"/>
     <use style="fill:#d62728;stroke:#d62728;" x="114.039148" xlink:href="#m4d17eb6f4c" y="244.156352"/>
     <use style="fill:#d62728;stroke:#d62728;" x="122.810516" xlink:href="#m4d17eb6f4c" y="229.853092"/>
     <use style="fill:#d62728;stroke:#d62728;" x="131.581885" xlink:href="#m4d17eb6f4c" y="249.241295"/>
     <use style="fill:#d62728;stroke:#d62728;" x="140.353253" xlink:href="#m4d17eb6f4c" y="240.52425"/>
     <use style="fill:#d62728;stroke:#d62728;" x="149.124622" xlink:href="#m4d17eb6f4c" y="238.11657"/>
     <use style="fill:#d62728;stroke:#d62728;" x="157.89599" xlink:href="#m4d17eb6f4c" y="248.617979"/>
     <use style="fill:#d62728;stroke:#d62728;" x="166.667359" xlink:href="#m4d17eb6f4c" y="253.48425"/>
     <use style="fill:#d62728;stroke:#d62728;" x="175.438727" xlink:href="#m4d17eb6f4c" y="258.217231"/>
     <use style="fill:#d62728;stroke:#d62728;" x="184.210095" xlink:href="#m4d17eb6f4c" y="235.515385"/>
     <use style="fill:#d62728;stroke:#d62728;" x="192.981464" xlink:href="#m4d17eb6f4c" y="241.38825"/>
    </g>
   </g>
   <g id="patch_3">
    <path d="M 61.410938 297.54825 
L 61.410938 31.43625 
" style="fill:none;stroke:#000000;stroke-linecap:square;stroke-linejoin:miter;stroke-width:0.8;"/>
   </g>
   <g id="patch_4">
    <path d="M 418.530938 297.54825 
L 418.530938 31.43625 
" style="fill:none;stroke:#000000;stroke-linecap:square;stroke-linejoin:miter;stroke-width:0.8;"/>
   </g>
   <g id="patch_5">
    <path d="M 61.410938 297.54825 
L 418.530938 297.54825 
" style="fill:none;stroke:#000000;stroke-linecap:square;stroke-linejoin:miter;stroke-width:0.8;"/>
   </g>
   <g id="patch_6">
    <path d="M 61.410938 31.43625 
L 418.530938 31.43625 
" style="fill:none;stroke:#000000;stroke-linecap:square;stroke-linejoin:miter;stroke-width:0.8;"/>
   </g>
   <g id="text_15">
    <!-- (B) -->
    <defs>
     <path d="M 19.671875 34.8125 
L 19.671875 8.109375 
L 35.5 8.109375 
Q 43.453125 8.109375 47.28125 11.40625 
Q 51.125 14.703125 51.125 21.484375 
Q 51.125 28.328125 47.28125 31.5625 
Q 43.453125 34.8125 35.5 34.8125 
z
M 19.671875 64.796875 
L 19.671875 42.828125 
L 34.28125 42.828125 
Q 41.5 42.828125 45.03125 45.53125 
Q 48.578125 48.25 48.578125 53.8125 
Q 48.578125 59.328125 45.03125 62.0625 
Q 41.5 64.796875 34.28125 64.796875 
z
M 9.8125 72.90625 
L 35.015625 72.90625 
Q 46.296875 72.90625 52.390625 68.21875 
Q 58.5 63.53125 58.5 54.890625 
Q 58.5 48.1875 55.375 44.234375 
Q 52.25 40.28125 46.1875 39.3125 
Q 53.46875 37.75 57.5 32.78125 
Q 61.53125 27.828125 61.53125 20.40625 
Q 61.53125 10.640625 54.890625 5.3125 
Q 48.25 0 35.984375 0 
L 9.8125 0 
z
" id="DejaVuSans-42"/>
    </defs>
    <g transform="translate(379.686306 58.04745)scale(0.2 -0.2)">
     <use xlink:href="#DejaVuSans-28"/>
     <use x="39.013672" xlink:href="#DejaVuSans-42"/>
     <use x="107.617188" xlink:href="#DejaVuSans-29"/>
    </g>
   </g>
   <g id="text_16">
    <!-- Z carrier -->
    <defs>
     <path d="M 5.609375 72.90625 
L 62.890625 72.90625 
L 62.890625 65.375 
L 16.796875 8.296875 
L 64.015625 8.296875 
L 64.015625 0 
L 4.5 0 
L 4.5 7.515625 
L 50.59375 64.59375 
L 5.609375 64.59375 
z
" id="DejaVuSans-5a"/>
     <path d="M 48.78125 52.59375 
L 48.78125 44.1875 
Q 44.96875 46.296875 41.140625 47.34375 
Q 37.3125 48.390625 33.40625 48.390625 
Q 24.65625 48.390625 19.8125 42.84375 
Q 14.984375 37.3125 14.984375 27.296875 
Q 14.984375 17.28125 19.8125 11.734375 
Q 24.65625 6.203125 33.40625 6.203125 
Q 37.3125 6.203125 41.140625 7.25 
Q 44.96875 8.296875 48.78125 10.40625 
L 48.78125 2.09375 
Q 45.015625 0.34375 40.984375 -0.53125 
Q 36.96875 -1.421875 32.421875 -1.421875 
Q 20.0625 -1.421875 12.78125 6.34375 
Q 5.515625 14.109375 5.515625 27.296875 
Q 5.515625 40.671875 12.859375 48.328125 
Q 20.21875 56 33.015625 56 
Q 37.15625 56 41.109375 55.140625 
Q 45.0625 54.296875 48.78125 52.59375 
z
" id="DejaVuSans-63"/>
    </defs>
    <g transform="translate(188.470313 25.43625)scale(0.24 -0.24)">
     <use xlink:href="#DejaVuSans-5a"/>
     <use x="68.505859" xlink:href="#DejaVuSans-20"/>
     <use x="100.292969" xlink:href="#DejaVuSans-63"/>
     <use x="155.273438" xlink:href="#DejaVuSans-61"/>
     <use x="216.552734" xlink:href="#DejaVuSans-72"/>
     <use x="257.650391" xlink:href="#DejaVuSans-72"/>
     <use x="298.763672" xlink:href="#DejaVuSans-69"/>
     <use x="326.546875" xlink:href="#DejaVuSans-65"/>
     <use x="388.070312" xlink:href="#DejaVuSans-72"/>
    </g>
   </g>
   <g id="legend_1">
    <g id="patch_7">
     <path d="M 296.074687 196.8485 
L 404.530937 196.8485 
Q 408.530937 196.8485 408.530937 192.8485 
L 408.530937 136.136 
Q 408.530937 132.136 404.530937 132.136 
L 296.074687 132.136 
Q 292.074687 132.136 292.074687 136.136 
L 292.074687 192.8485 
Q 292.074687 196.8485 296.074687 196.8485 
z
" style="fill:#ffffff;opacity:0.8;stroke:#cccccc;stroke-linejoin:miter;"/>
    </g>
    <g id="LineCollection_3">
     <path d="M 320.074687 158.332875 
L 320.074687 138.332875 
" style="fill:none;stroke:#1f77b4;stroke-width:1.5;"/>
    </g>
    <g id="line2d_29"/>
    <g id="line2d_30">
     <g>
      <use style="fill:#1f77b4;stroke:#1f77b4;" x="320.074687" xlink:href="#mcb2457e3ba" y="148.332875"/>
     </g>
    </g>
    <g id="text_17">
     <!-- Cold -->
     <defs>
      <path d="M 64.40625 67.28125 
L 64.40625 56.890625 
Q 59.421875 61.53125 53.78125 63.8125 
Q 48.140625 66.109375 41.796875 66.109375 
Q 29.296875 66.109375 22.65625 58.46875 
Q 16.015625 50.828125 16.015625 36.375 
Q 16.015625 21.96875 22.65625 14.328125 
Q 29.296875 6.6875 41.796875 6.6875 
Q 48.140625 6.6875 53.78125 8.984375 
Q 59.421875 11.28125 64.40625 15.921875 
L 64.40625 5.609375 
Q 59.234375 2.09375 53.4375 0.328125 
Q 47.65625 -1.421875 41.21875 -1.421875 
Q 24.65625 -1.421875 15.125 8.703125 
Q 5.609375 18.84375 5.609375 36.375 
Q 5.609375 53.953125 15.125 64.078125 
Q 24.65625 74.21875 41.21875 74.21875 
Q 47.75 74.21875 53.53125 72.484375 
Q 59.328125 70.75 64.40625 67.28125 
z
" id="DejaVuSans-43"/>
      <path d="M 30.609375 48.390625 
Q 23.390625 48.390625 19.1875 42.75 
Q 14.984375 37.109375 14.984375 27.296875 
Q 14.984375 17.484375 19.15625 11.84375 
Q 23.34375 6.203125 30.609375 6.203125 
Q 37.796875 6.203125 41.984375 11.859375 
Q 46.1875 17.53125 46.1875 27.296875 
Q 46.1875 37.015625 41.984375 42.703125 
Q 37.796875 48.390625 30.609375 48.390625 
z
M 30.609375 56 
Q 42.328125 56 49.015625 48.375 
Q 55.71875 40.765625 55.71875 27.296875 
Q 55.71875 13.875 49.015625 6.21875 
Q 42.328125 -1.421875 30.609375 -1.421875 
Q 18.84375 -1.421875 12.171875 6.21875 
Q 5.515625 13.875 5.515625 27.296875 
Q 5.515625 40.765625 12.171875 48.375 
Q 18.84375 56 30.609375 56 
z
" id="DejaVuSans-6f"/>
      <path d="M 45.40625 46.390625 
L 45.40625 75.984375 
L 54.390625 75.984375 
L 54.390625 0 
L 45.40625 0 
L 45.40625 8.203125 
Q 42.578125 3.328125 38.25 0.953125 
Q 33.9375 -1.421875 27.875 -1.421875 
Q 17.96875 -1.421875 11.734375 6.484375 
Q 5.515625 14.40625 5.515625 27.296875 
Q 5.515625 40.1875 11.734375 48.09375 
Q 17.96875 56 27.875 56 
Q 33.9375 56 38.25 53.625 
Q 42.578125 51.265625 45.40625 46.390625 
z
M 14.796875 27.296875 
Q 14.796875 17.390625 18.875 11.75 
Q 22.953125 6.109375 30.078125 6.109375 
Q 37.203125 6.109375 41.296875 11.75 
Q 45.40625 17.390625 45.40625 27.296875 
Q 45.40625 37.203125 41.296875 42.84375 
Q 37.203125 48.484375 30.078125 48.484375 
Q 22.953125 48.484375 18.875 42.84375 
Q 14.796875 37.203125 14.796875 27.296875 
z
" id="DejaVuSans-64"/>
     </defs>
     <g transform="translate(356.074687 155.332875)scale(0.2 -0.2)">
      <use xlink:href="#DejaVuSans-43"/>
      <use x="69.824219" xlink:href="#DejaVuSans-6f"/>
      <use x="131.005859" xlink:href="#DejaVuSans-6c"/>
      <use x="158.789062" xlink:href="#DejaVuSans-64"/>
     </g>
    </g>
    <g id="LineCollection_4">
     <path d="M 320.074687 187.689125 
L 320.074687 167.689125 
" style="fill:none;stroke:#d62728;stroke-width:1.5;"/>
    </g>
    <g id="line2d_31"/>
    <g id="line2d_32">
     <g>
      <use style="fill:#d62728;stroke:#d62728;" x="320.074687" xlink:href="#m4d17eb6f4c" y="177.689125"/>
     </g>
    </g>
    <g id="text_18">
     <!-- Hot -->
     <defs>
      <path d="M 9.8125 72.90625 
L 19.671875 72.90625 
L 19.671875 43.015625 
L 55.515625 43.015625 
L 55.515625 72.90625 
L 65.375 72.90625 
L 65.375 0 
L 55.515625 0 
L 55.515625 34.71875 
L 19.671875 34.71875 
L 19.671875 0 
L 9.8125 0 
z
" id="DejaVuSans-48"/>
      <path d="M 18.3125 70.21875 
L 18.3125 54.6875 
L 36.8125 54.6875 
L 36.8125 47.703125 
L 18.3125 47.703125 
L 18.3125 18.015625 
Q 18.3125 11.328125 20.140625 9.421875 
Q 21.96875 7.515625 27.59375 7.515625 
L 36.8125 7.515625 
L 36.8125 0 
L 27.59375 0 
Q 17.1875 0 13.234375 3.875 
Q 9.28125 7.765625 9.28125 18.015625 
L 9.28125 47.703125 
L 2.6875 47.703125 
L 2.6875 54.6875 
L 9.28125 54.6875 
L 9.28125 70.21875 
z
" id="DejaVuSans-74"/>
     </defs>
     <g transform="translate(356.074687 184.689125)scale(0.2 -0.2)">
      <use xlink:href="#DejaVuSans-48"/>
      <use x="75.195312" xlink:href="#DejaVuSans-6f"/>
      <use x="136.376953" xlink:href="#DejaVuSans-74"/>
     </g>
    </g>
   </g>
  </g>
 </g>
 <defs>
  <clipPath id="pcd39df9889">
   <rect height="266.112" width="357.12" x="61.410938" y="31.43625"/>
  </clipPath>
 </defs>
</svg>
