<?xml version="1.0" encoding="utf-8" standalone="no"?>
<!DOCTYPE svg PUBLIC "-//W3C//DTD SVG 1.1//EN"
  "http://www.w3.org/Graphics/SVG/1.1/DTD/svg11.dtd">
<!-- Created with matplotlib (http://matplotlib.org/) -->
<svg height="349pt" version="1.1" viewBox="0 0 429 349" width="429pt" xmlns="http://www.w3.org/2000/svg" xmlns:xlink="http://www.w3.org/1999/xlink">
 <defs>
  <style type="text/css">
*{stroke-linecap:butt;stroke-linejoin:round;}
  </style>
 </defs>
 <g id="figure_1">
  <g id="patch_1">
   <path d="M 0 349.665437 
L 429.230937 349.665437 
L 429.230937 0 
L 0 0 
z
" style="fill:none;"/>
  </g>
  <g id="axes_1">
   <g id="patch_2">
    <path d="M 61.410938 297.54825 
L 418.530938 297.54825 
L 418.530938 31.43625 
L 61.410938 31.43625 
z
" style="fill:none;"/>
   </g>
   <g id="matplotlib.axis_1">
    <g id="xtick_1">
     <g id="line2d_1">
      <path clip-path="url(#pcd39df9889)" d="M 61.410938 297.54825 
L 61.410938 31.43625 
" style="fill:none;stroke:#b0b0b0;stroke-linecap:square;stroke-width:0.8;"/>
     </g>
     <g id="line2d_2">
      <defs>
       <path d="M 0 0 
L 0 3.5 
" id="m005f0a59be" style="stroke:#000000;stroke-width:0.8;"/>
      </defs>
      <g>
       <use style="stroke:#000000;stroke-width:0.8;" x="61.410938" xlink:href="#m005f0a59be" y="297.54825"/>
      </g>
     </g>
     <g id="text_1">
      <!-- 0 -->
      <defs>
       <path d="M 31.78125 66.40625 
Q 24.171875 66.40625 20.328125 58.90625 
Q 16.5 51.421875 16.5 36.375 
Q 16.5 21.390625 20.328125 13.890625 
Q 24.171875 6.390625 31.78125 6.390625 
Q 39.453125 6.390625 43.28125 13.890625 
Q 47.125 21.390625 47.125 36.375 
Q 47.125 51.421875 43.28125 58.90625 
Q 39.453125 66.40625 31.78125 66.40625 
z
M 31.78125 74.21875 
Q 44.046875 74.21875 50.515625 64.515625 
Q 56.984375 54.828125 56.984375 36.375 
Q 56.984375 17.96875 50.515625 8.265625 
Q 44.046875 -1.421875 31.78125 -1.421875 
Q 19.53125 -1.421875 13.0625 8.265625 
Q 6.59375 17.96875 6.59375 36.375 
Q 6.59375 54.828125 13.0625 64.515625 
Q 19.53125 74.21875 31.78125 74.21875 
z
" id="DejaVuSans-30"/>
      </defs>
      <g transform="translate(56.639063 315.945906)scale(0.15 -0.15)">
       <use xlink:href="#DejaVuSans-30"/>
      </g>
     </g>
    </g>
    <g id="xtick_2">
     <g id="line2d_3">
      <path clip-path="url(#pcd39df9889)" d="M 125.182366 297.54825 
L 125.182366 31.43625 
" style="fill:none;stroke:#b0b0b0;stroke-linecap:square;stroke-width:0.8;"/>
     </g>
     <g id="line2d_4">
      <g>
       <use style="stroke:#000000;stroke-width:0.8;" x="125.182366" xlink:href="#m005f0a59be" y="297.54825"/>
      </g>
     </g>
     <g id="text_2">
      <!-- 50 -->
      <defs>
       <path d="M 10.796875 72.90625 
L 49.515625 72.90625 
L 49.515625 64.59375 
L 19.828125 64.59375 
L 19.828125 46.734375 
Q 21.96875 47.46875 24.109375 47.828125 
Q 26.265625 48.1875 28.421875 48.1875 
Q 40.625 48.1875 47.75 41.5 
Q 54.890625 34.8125 54.890625 23.390625 
Q 54.890625 11.625 47.5625 5.09375 
Q 40.234375 -1.421875 26.90625 -1.421875 
Q 22.3125 -1.421875 17.546875 -0.640625 
Q 12.796875 0.140625 7.71875 1.703125 
L 7.71875 11.625 
Q 12.109375 9.234375 16.796875 8.0625 
Q 21.484375 6.890625 26.703125 6.890625 
Q 35.15625 6.890625 40.078125 11.328125 
Q 45.015625 15.765625 45.015625 23.390625 
Q 45.015625 31 40.078125 35.4375 
Q 35.15625 39.890625 26.703125 39.890625 
Q 22.75 39.890625 18.8125 39.015625 
Q 14.890625 38.140625 10.796875 36.28125 
z
" id="DejaVuSans-35"/>
      </defs>
      <g transform="translate(115.638616 315.945906)scale(0.15 -0.15)">
       <use xlink:href="#DejaVuSans-35"/>
       <use x="63.623047" xlink:href="#DejaVuSans-30"/>
      </g>
     </g>
    </g>
    <g id="xtick_3">
     <g id="line2d_5">
      <path clip-path="url(#pcd39df9889)" d="M 188.953795 297.54825 
L 188.953795 31.43625 
" style="fill:none;stroke:#b0b0b0;stroke-linecap:square;stroke-width:0.8;"/>
     </g>
     <g id="line2d_6">
      <g>
       <use style="stroke:#000000;stroke-width:0.8;" x="188.953795" xlink:href="#m005f0a59be" y="297.54825"/>
      </g>
     </g>
     <g id="text_3">
      <!-- 100 -->
      <defs>
       <path d="M 12.40625 8.296875 
L 28.515625 8.296875 
L 28.515625 63.921875 
L 10.984375 60.40625 
L 10.984375 69.390625 
L 28.421875 72.90625 
L 38.28125 72.90625 
L 38.28125 8.296875 
L 54.390625 8.296875 
L 54.390625 0 
L 12.40625 0 
z
" id="DejaVuSans-31"/>
      </defs>
      <g transform="translate(174.63817 315.945906)scale(0.15 -0.15)">
       <use xlink:href="#DejaVuSans-31"/>
       <use x="63.623047" xlink:href="#DejaVuSans-30"/>
       <use x="127.246094" xlink:href="#DejaVuSans-30"/>
      </g>
     </g>
    </g>
    <g id="xtick_4">
     <g id="line2d_7">
      <path clip-path="url(#pcd39df9889)" d="M 252.725223 297.54825 
L 252.725223 31.43625 
" style="fill:none;stroke:#b0b0b0;stroke-linecap:square;stroke-width:0.8;"/>
     </g>
     <g id="line2d_8">
      <g>
       <use style="stroke:#000000;stroke-width:0.8;" x="252.725223" xlink:href="#m005f0a59be" y="297.54825"/>
      </g>
     </g>
     <g id="text_4">
      <!-- 150 -->
      <g transform="translate(238.409598 315.945906)scale(0.15 -0.15)">
       <use xlink:href="#DejaVuSans-31"/>
       <use x="63.623047" xlink:href="#DejaVuSans-35"/>
       <use x="127.246094" xlink:href="#DejaVuSans-30"/>
      </g>
     </g>
    </g>
    <g id="xtick_5">
     <g id="line2d_9">
      <path clip-path="url(#pcd39df9889)" d="M 316.496652 297.54825 
L 316.496652 31.43625 
" style="fill:none;stroke:#b0b0b0;stroke-linecap:square;stroke-width:0.8;"/>
     </g>
     <g id="line2d_10">
      <g>
       <use style="stroke:#000000;stroke-width:0.8;" x="316.496652" xlink:href="#m005f0a59be" y="297.54825"/>
      </g>
     </g>
     <g id="text_5">
      <!-- 200 -->
      <defs>
       <path d="M 19.1875 8.296875 
L 53.609375 8.296875 
L 53.609375 0 
L 7.328125 0 
L 7.328125 8.296875 
Q 12.9375 14.109375 22.625 23.890625 
Q 32.328125 33.6875 34.8125 36.53125 
Q 39.546875 41.84375 41.421875 45.53125 
Q 43.3125 49.21875 43.3125 52.78125 
Q 43.3125 58.59375 39.234375 62.25 
Q 35.15625 65.921875 28.609375 65.921875 
Q 23.96875 65.921875 18.8125 64.3125 
Q 13.671875 62.703125 7.8125 59.421875 
L 7.8125 69.390625 
Q 13.765625 71.78125 18.9375 73 
Q 24.125 74.21875 28.421875 74.21875 
Q 39.75 74.21875 46.484375 68.546875 
Q 53.21875 62.890625 53.21875 53.421875 
Q 53.21875 48.921875 51.53125 44.890625 
Q 49.859375 40.875 45.40625 35.40625 
Q 44.1875 33.984375 37.640625 27.21875 
Q 31.109375 20.453125 19.1875 8.296875 
z
" id="DejaVuSans-32"/>
      </defs>
      <g transform="translate(302.181027 315.945906)scale(0.15 -0.15)">
       <use xlink:href="#DejaVuSans-32"/>
       <use x="63.623047" xlink:href="#DejaVuSans-30"/>
       <use x="127.246094" xlink:href="#DejaVuSans-30"/>
      </g>
     </g>
    </g>
    <g id="xtick_6">
     <g id="line2d_11">
      <path clip-path="url(#pcd39df9889)" d="M 380.26808 297.54825 
L 380.26808 31.43625 
" style="fill:none;stroke:#b0b0b0;stroke-linecap:square;stroke-width:0.8;"/>
     </g>
     <g id="line2d_12">
      <g>
       <use style="stroke:#000000;stroke-width:0.8;" x="380.26808" xlink:href="#m005f0a59be" y="297.54825"/>
      </g>
     </g>
     <g id="text_6">
      <!-- 250 -->
      <g transform="translate(365.952455 315.945906)scale(0.15 -0.15)">
       <use xlink:href="#DejaVuSans-32"/>
       <use x="63.623047" xlink:href="#DejaVuSans-35"/>
       <use x="127.246094" xlink:href="#DejaVuSans-30"/>
      </g>
     </g>
    </g>
    <g id="text_7">
     <!-- Time ($\mu s$) -->
     <defs>
      <path d="M -0.296875 72.90625 
L 61.375 72.90625 
L 61.375 64.59375 
L 35.5 64.59375 
L 35.5 0 
L 25.59375 0 
L 25.59375 64.59375 
L -0.296875 64.59375 
z
" id="DejaVuSans-54"/>
      <path d="M 9.421875 54.6875 
L 18.40625 54.6875 
L 18.40625 0 
L 9.421875 0 
z
M 9.421875 75.984375 
L 18.40625 75.984375 
L 18.40625 64.59375 
L 9.421875 64.59375 
z
" id="DejaVuSans-69"/>
      <path d="M 52 44.1875 
Q 55.375 50.25 60.0625 53.125 
Q 64.75 56 71.09375 56 
Q 79.640625 56 84.28125 50.015625 
Q 88.921875 44.046875 88.921875 33.015625 
L 88.921875 0 
L 79.890625 0 
L 79.890625 32.71875 
Q 79.890625 40.578125 77.09375 44.375 
Q 74.3125 48.1875 68.609375 48.1875 
Q 61.625 48.1875 57.5625 43.546875 
Q 53.515625 38.921875 53.515625 30.90625 
L 53.515625 0 
L 44.484375 0 
L 44.484375 32.71875 
Q 44.484375 40.625 41.703125 44.40625 
Q 38.921875 48.1875 33.109375 48.1875 
Q 26.21875 48.1875 22.15625 43.53125 
Q 18.109375 38.875 18.109375 30.90625 
L 18.109375 0 
L 9.078125 0 
L 9.078125 54.6875 
L 18.109375 54.6875 
L 18.109375 46.1875 
Q 21.1875 51.21875 25.484375 53.609375 
Q 29.78125 56 35.6875 56 
Q 41.65625 56 45.828125 52.96875 
Q 50 49.953125 52 44.1875 
z
" id="DejaVuSans-6d"/>
      <path d="M 56.203125 29.59375 
L 56.203125 25.203125 
L 14.890625 25.203125 
Q 15.484375 15.921875 20.484375 11.0625 
Q 25.484375 6.203125 34.421875 6.203125 
Q 39.59375 6.203125 44.453125 7.46875 
Q 49.3125 8.734375 54.109375 11.28125 
L 54.109375 2.78125 
Q 49.265625 0.734375 44.1875 -0.34375 
Q 39.109375 -1.421875 33.890625 -1.421875 
Q 20.796875 -1.421875 13.15625 6.1875 
Q 5.515625 13.8125 5.515625 26.8125 
Q 5.515625 40.234375 12.765625 48.109375 
Q 20.015625 56 32.328125 56 
Q 43.359375 56 49.78125 48.890625 
Q 56.203125 41.796875 56.203125 29.59375 
z
M 47.21875 32.234375 
Q 47.125 39.59375 43.09375 43.984375 
Q 39.0625 48.390625 32.421875 48.390625 
Q 24.90625 48.390625 20.390625 44.140625 
Q 15.875 39.890625 15.1875 32.171875 
z
" id="DejaVuSans-65"/>
      <path id="DejaVuSans-20"/>
      <path d="M 31 75.875 
Q 24.46875 64.65625 21.28125 53.65625 
Q 18.109375 42.671875 18.109375 31.390625 
Q 18.109375 20.125 21.3125 9.0625 
Q 24.515625 -2 31 -13.1875 
L 23.1875 -13.1875 
Q 15.875 -1.703125 12.234375 9.375 
Q 8.59375 20.453125 8.59375 31.390625 
Q 8.59375 42.28125 12.203125 53.3125 
Q 15.828125 64.359375 23.1875 75.875 
z
" id="DejaVuSans-28"/>
      <path d="M -1.3125 -20.796875 
L 13.375 54.6875 
L 22.40625 54.6875 
L 15.765625 20.65625 
Q 15.578125 19.625 15.421875 18.359375 
Q 15.28125 17.09375 15.28125 15.828125 
Q 15.28125 11.28125 18.140625 8.828125 
Q 21 6.390625 26.3125 6.390625 
Q 33.546875 6.390625 37.984375 10.484375 
Q 42.4375 14.59375 44 22.796875 
L 50.203125 54.6875 
L 59.1875 54.6875 
L 51.03125 12.640625 
Q 50.828125 11.71875 50.75 11.03125 
Q 50.6875 10.359375 50.6875 9.8125 
Q 50.6875 8.296875 51.296875 7.59375 
Q 51.90625 6.890625 53.21875 6.890625 
Q 53.71875 6.890625 54.5625 7.125 
Q 55.421875 7.375 56.984375 8.015625 
L 55.609375 0.78125 
Q 53.46875 -0.296875 51.515625 -0.859375 
Q 49.5625 -1.421875 47.703125 -1.421875 
Q 44.484375 -1.421875 42.65625 0.625 
Q 40.828125 2.6875 40.828125 6.296875 
Q 38.09375 2.390625 34.296875 0.484375 
Q 30.515625 -1.421875 25.390625 -1.421875 
Q 20.84375 -1.421875 17.453125 0.671875 
Q 14.0625 2.78125 12.984375 6.203125 
L 7.71875 -20.796875 
z
" id="DejaVuSans-Oblique-3bc"/>
      <path d="M 50 53.078125 
L 48.296875 44.578125 
Q 44.734375 46.53125 40.765625 47.5 
Q 36.8125 48.484375 32.625 48.484375 
Q 25.53125 48.484375 21.453125 46.0625 
Q 17.390625 43.65625 17.390625 39.5 
Q 17.390625 34.671875 26.859375 32.078125 
Q 27.59375 31.890625 27.9375 31.78125 
L 30.8125 30.90625 
Q 39.796875 28.421875 42.796875 25.6875 
Q 45.796875 22.953125 45.796875 18.21875 
Q 45.796875 9.515625 38.890625 4.046875 
Q 31.984375 -1.421875 20.796875 -1.421875 
Q 16.453125 -1.421875 11.671875 -0.578125 
Q 6.890625 0.25 1.125 2 
L 2.875 11.28125 
Q 7.8125 8.734375 12.59375 7.421875 
Q 17.390625 6.109375 21.78125 6.109375 
Q 28.375 6.109375 32.5 8.9375 
Q 36.625 11.765625 36.625 16.109375 
Q 36.625 20.796875 25.78125 23.6875 
L 24.859375 23.921875 
L 21.78125 24.703125 
Q 14.9375 26.515625 11.765625 29.46875 
Q 8.59375 32.421875 8.59375 37.015625 
Q 8.59375 45.75 15.15625 50.875 
Q 21.734375 56 33.015625 56 
Q 37.453125 56 41.671875 55.265625 
Q 45.90625 54.546875 50 53.078125 
z
" id="DejaVuSans-Oblique-73"/>
      <path d="M 8.015625 75.875 
L 15.828125 75.875 
Q 23.140625 64.359375 26.78125 53.3125 
Q 30.421875 42.28125 30.421875 31.390625 
Q 30.421875 20.453125 26.78125 9.375 
Q 23.140625 -1.703125 15.828125 -13.1875 
L 8.015625 -13.1875 
Q 14.5 -2 17.703125 9.0625 
Q 20.90625 20.125 20.90625 31.390625 
Q 20.90625 42.671875 17.703125 53.65625 
Q 14.5 64.65625 8.015625 75.875 
z
" id="DejaVuSans-29"/>
     </defs>
     <g transform="translate(192.570938 338.265437)scale(0.2 -0.2)">
      <use transform="translate(0 0.015625)" xlink:href="#DejaVuSans-54"/>
      <use transform="translate(61.083984 0.015625)" xlink:href="#DejaVuSans-69"/>
      <use transform="translate(88.867188 0.015625)" xlink:href="#DejaVuSans-6d"/>
      <use transform="translate(186.279297 0.015625)" xlink:href="#DejaVuSans-65"/>
      <use transform="translate(247.802734 0.015625)" xlink:href="#DejaVuSans-20"/>
      <use transform="translate(279.589844 0.015625)" xlink:href="#DejaVuSans-28"/>
      <use transform="translate(318.603516 0.015625)" xlink:href="#DejaVuSans-Oblique-3bc"/>
      <use transform="translate(382.226562 0.015625)" xlink:href="#DejaVuSans-Oblique-73"/>
      <use transform="translate(434.326172 0.015625)" xlink:href="#DejaVuSans-29"/>
     </g>
    </g>
   </g>
   <g id="matplotlib.axis_2">
    <g id="ytick_1">
     <g id="line2d_13">
      <path clip-path="url(#pcd39df9889)" d="M 61.410938 297.54825 
L 418.530938 297.54825 
" style="fill:none;stroke:#b0b0b0;stroke-linecap:square;stroke-width:0.8;"/>
     </g>
     <g id="line2d_14">
      <defs>
       <path d="M 0 0 
L -3.5 0 
" id="mc3ce260a5b" style="stroke:#000000;stroke-width:0.8;"/>
      </defs>
      <g>
       <use style="stroke:#000000;stroke-width:0.8;" x="61.410938" xlink:href="#mc3ce260a5b" y="297.54825"/>
      </g>
     </g>
     <g id="text_8">
      <!-- 0.0 -->
      <defs>
       <path d="M 10.6875 12.40625 
L 21 12.40625 
L 21 0 
L 10.6875 0 
z
" id="DejaVuSans-2e"/>
      </defs>
      <g transform="translate(30.55625 303.247078)scale(0.15 -0.15)">
       <use xlink:href="#DejaVuSans-30"/>
       <use x="63.623047" xlink:href="#DejaVuSans-2e"/>
       <use x="95.410156" xlink:href="#DejaVuSans-30"/>
      </g>
     </g>
    </g>
    <g id="ytick_2">
     <g id="line2d_15">
      <path clip-path="url(#pcd39df9889)" d="M 61.410938 244.32585 
L 418.530938 244.32585 
" style="fill:none;stroke:#b0b0b0;stroke-linecap:square;stroke-width:0.8;"/>
     </g>
     <g id="line2d_16">
      <g>
       <use style="stroke:#000000;stroke-width:0.8;" x="61.410938" xlink:href="#mc3ce260a5b" y="244.32585"/>
      </g>
     </g>
     <g id="text_9">
      <!-- 0.2 -->
      <g transform="translate(30.55625 250.024678)scale(0.15 -0.15)">
       <use xlink:href="#DejaVuSans-30"/>
       <use x="63.623047" xlink:href="#DejaVuSans-2e"/>
       <use x="95.410156" xlink:href="#DejaVuSans-32"/>
      </g>
     </g>
    </g>
    <g id="ytick_3">
     <g id="line2d_17">
      <path clip-path="url(#pcd39df9889)" d="M 61.410938 191.10345 
L 418.530938 191.10345 
" style="fill:none;stroke:#b0b0b0;stroke-linecap:square;stroke-width:0.8;"/>
     </g>
     <g id="line2d_18">
      <g>
       <use style="stroke:#000000;stroke-width:0.8;" x="61.410938" xlink:href="#mc3ce260a5b" y="191.10345"/>
      </g>
     </g>
     <g id="text_10">
      <!-- 0.4 -->
      <defs>
       <path d="M 37.796875 64.3125 
L 12.890625 25.390625 
L 37.796875 25.390625 
z
M 35.203125 72.90625 
L 47.609375 72.90625 
L 47.609375 25.390625 
L 58.015625 25.390625 
L 58.015625 17.1875 
L 47.609375 17.1875 
L 47.609375 0 
L 37.796875 0 
L 37.796875 17.1875 
L 4.890625 17.1875 
L 4.890625 26.703125 
z
" id="DejaVuSans-34"/>
      </defs>
      <g transform="translate(30.55625 196.802278)scale(0.15 -0.15)">
       <use xlink:href="#DejaVuSans-30"/>
       <use x="63.623047" xlink:href="#DejaVuSans-2e"/>
       <use x="95.410156" xlink:href="#DejaVuSans-34"/>
      </g>
     </g>
    </g>
    <g id="ytick_4">
     <g id="line2d_19">
      <path clip-path="url(#pcd39df9889)" d="M 61.410938 137.88105 
L 418.530938 137.88105 
" style="fill:none;stroke:#b0b0b0;stroke-linecap:square;stroke-width:0.8;"/>
     </g>
     <g id="line2d_20">
      <g>
       <use style="stroke:#000000;stroke-width:0.8;" x="61.410938" xlink:href="#mc3ce260a5b" y="137.88105"/>
      </g>
     </g>
     <g id="text_11">
      <!-- 0.6 -->
      <defs>
       <path d="M 33.015625 40.375 
Q 26.375 40.375 22.484375 35.828125 
Q 18.609375 31.296875 18.609375 23.390625 
Q 18.609375 15.53125 22.484375 10.953125 
Q 26.375 6.390625 33.015625 6.390625 
Q 39.65625 6.390625 43.53125 10.953125 
Q 47.40625 15.53125 47.40625 23.390625 
Q 47.40625 31.296875 43.53125 35.828125 
Q 39.65625 40.375 33.015625 40.375 
z
M 52.59375 71.296875 
L 52.59375 62.3125 
Q 48.875 64.0625 45.09375 64.984375 
Q 41.3125 65.921875 37.59375 65.921875 
Q 27.828125 65.921875 22.671875 59.328125 
Q 17.53125 52.734375 16.796875 39.40625 
Q 19.671875 43.65625 24.015625 45.921875 
Q 28.375 48.1875 33.59375 48.1875 
Q 44.578125 48.1875 50.953125 41.515625 
Q 57.328125 34.859375 57.328125 23.390625 
Q 57.328125 12.15625 50.6875 5.359375 
Q 44.046875 -1.421875 33.015625 -1.421875 
Q 20.359375 -1.421875 13.671875 8.265625 
Q 6.984375 17.96875 6.984375 36.375 
Q 6.984375 53.65625 15.1875 63.9375 
Q 23.390625 74.21875 37.203125 74.21875 
Q 40.921875 74.21875 44.703125 73.484375 
Q 48.484375 72.75 52.59375 71.296875 
z
" id="DejaVuSans-36"/>
      </defs>
      <g transform="translate(30.55625 143.579878)scale(0.15 -0.15)">
       <use xlink:href="#DejaVuSans-30"/>
       <use x="63.623047" xlink:href="#DejaVuSans-2e"/>
       <use x="95.410156" xlink:href="#DejaVuSans-36"/>
      </g>
     </g>
    </g>
    <g id="ytick_5">
     <g id="line2d_21">
      <path clip-path="url(#pcd39df9889)" d="M 61.410938 84.65865 
L 418.530938 84.65865 
" style="fill:none;stroke:#b0b0b0;stroke-linecap:square;stroke-width:0.8;"/>
     </g>
     <g id="line2d_22">
      <g>
       <use style="stroke:#000000;stroke-width:0.8;" x="61.410938" xlink:href="#mc3ce260a5b" y="84.65865"/>
      </g>
     </g>
     <g id="text_12">
      <!-- 0.8 -->
      <defs>
       <path d="M 31.78125 34.625 
Q 24.75 34.625 20.71875 30.859375 
Q 16.703125 27.09375 16.703125 20.515625 
Q 16.703125 13.921875 20.71875 10.15625 
Q 24.75 6.390625 31.78125 6.390625 
Q 38.8125 6.390625 42.859375 10.171875 
Q 46.921875 13.96875 46.921875 20.515625 
Q 46.921875 27.09375 42.890625 30.859375 
Q 38.875 34.625 31.78125 34.625 
z
M 21.921875 38.8125 
Q 15.578125 40.375 12.03125 44.71875 
Q 8.5 49.078125 8.5 55.328125 
Q 8.5 64.0625 14.71875 69.140625 
Q 20.953125 74.21875 31.78125 74.21875 
Q 42.671875 74.21875 48.875 69.140625 
Q 55.078125 64.0625 55.078125 55.328125 
Q 55.078125 49.078125 51.53125 44.71875 
Q 48 40.375 41.703125 38.8125 
Q 48.828125 37.15625 52.796875 32.3125 
Q 56.78125 27.484375 56.78125 20.515625 
Q 56.78125 9.90625 50.3125 4.234375 
Q 43.84375 -1.421875 31.78125 -1.421875 
Q 19.734375 -1.421875 13.25 4.234375 
Q 6.78125 9.90625 6.78125 20.515625 
Q 6.78125 27.484375 10.78125 32.3125 
Q 14.796875 37.15625 21.921875 38.8125 
z
M 18.3125 54.390625 
Q 18.3125 48.734375 21.84375 45.5625 
Q 25.390625 42.390625 31.78125 42.390625 
Q 38.140625 42.390625 41.71875 45.5625 
Q 45.3125 48.734375 45.3125 54.390625 
Q 45.3125 60.0625 41.71875 63.234375 
Q 38.140625 66.40625 31.78125 66.40625 
Q 25.390625 66.40625 21.84375 63.234375 
Q 18.3125 60.0625 18.3125 54.390625 
z
" id="DejaVuSans-38"/>
      </defs>
      <g transform="translate(30.55625 90.357478)scale(0.15 -0.15)">
       <use xlink:href="#DejaVuSans-30"/>
       <use x="63.623047" xlink:href="#DejaVuSans-2e"/>
       <use x="95.410156" xlink:href="#DejaVuSans-38"/>
      </g>
     </g>
    </g>
    <g id="ytick_6">
     <g id="line2d_23">
      <path clip-path="url(#pcd39df9889)" d="M 61.410938 31.43625 
L 418.530938 31.43625 
" style="fill:none;stroke:#b0b0b0;stroke-linecap:square;stroke-width:0.8;"/>
     </g>
     <g id="line2d_24">
      <g>
       <use style="stroke:#000000;stroke-width:0.8;" x="61.410938" xlink:href="#mc3ce260a5b" y="31.43625"/>
      </g>
     </g>
     <g id="text_13">
      <!-- 1.0 -->
      <g transform="translate(30.55625 37.135078)scale(0.15 -0.15)">
       <use xlink:href="#DejaVuSans-31"/>
       <use x="63.623047" xlink:href="#DejaVuSans-2e"/>
       <use x="95.410156" xlink:href="#DejaVuSans-30"/>
      </g>
     </g>
    </g>
    <g id="text_14">
     <!-- Survival -->
     <defs>
      <path d="M 53.515625 70.515625 
L 53.515625 60.890625 
Q 47.90625 63.578125 42.921875 64.890625 
Q 37.9375 66.21875 33.296875 66.21875 
Q 25.25 66.21875 20.875 63.09375 
Q 16.5 59.96875 16.5 54.203125 
Q 16.5 49.359375 19.40625 46.890625 
Q 22.3125 44.4375 30.421875 42.921875 
L 36.375 41.703125 
Q 47.40625 39.59375 52.65625 34.296875 
Q 57.90625 29 57.90625 20.125 
Q 57.90625 9.515625 50.796875 4.046875 
Q 43.703125 -1.421875 29.984375 -1.421875 
Q 24.8125 -1.421875 18.96875 -0.25 
Q 13.140625 0.921875 6.890625 3.21875 
L 6.890625 13.375 
Q 12.890625 10.015625 18.65625 8.296875 
Q 24.421875 6.59375 29.984375 6.59375 
Q 38.421875 6.59375 43.015625 9.90625 
Q 47.609375 13.234375 47.609375 19.390625 
Q 47.609375 24.75 44.3125 27.78125 
Q 41.015625 30.8125 33.5 32.328125 
L 27.484375 33.5 
Q 16.453125 35.6875 11.515625 40.375 
Q 6.59375 45.0625 6.59375 53.421875 
Q 6.59375 63.09375 13.40625 68.65625 
Q 20.21875 74.21875 32.171875 74.21875 
Q 37.3125 74.21875 42.625 73.28125 
Q 47.953125 72.359375 53.515625 70.515625 
z
" id="DejaVuSans-53"/>
      <path d="M 8.5 21.578125 
L 8.5 54.6875 
L 17.484375 54.6875 
L 17.484375 21.921875 
Q 17.484375 14.15625 20.5 10.265625 
Q 23.53125 6.390625 29.59375 6.390625 
Q 36.859375 6.390625 41.078125 11.03125 
Q 45.3125 15.671875 45.3125 23.6875 
L 45.3125 54.6875 
L 54.296875 54.6875 
L 54.296875 0 
L 45.3125 0 
L 45.3125 8.40625 
Q 42.046875 3.421875 37.71875 1 
Q 33.40625 -1.421875 27.6875 -1.421875 
Q 18.265625 -1.421875 13.375 4.4375 
Q 8.5 10.296875 8.5 21.578125 
z
M 31.109375 56 
z
" id="DejaVuSans-75"/>
      <path d="M 41.109375 46.296875 
Q 39.59375 47.171875 37.8125 47.578125 
Q 36.03125 48 33.890625 48 
Q 26.265625 48 22.1875 43.046875 
Q 18.109375 38.09375 18.109375 28.8125 
L 18.109375 0 
L 9.078125 0 
L 9.078125 54.6875 
L 18.109375 54.6875 
L 18.109375 46.1875 
Q 20.953125 51.171875 25.484375 53.578125 
Q 30.03125 56 36.53125 56 
Q 37.453125 56 38.578125 55.875 
Q 39.703125 55.765625 41.0625 55.515625 
z
" id="DejaVuSans-72"/>
      <path d="M 2.984375 54.6875 
L 12.5 54.6875 
L 29.59375 8.796875 
L 46.6875 54.6875 
L 56.203125 54.6875 
L 35.6875 0 
L 23.484375 0 
z
" id="DejaVuSans-76"/>
      <path d="M 34.28125 27.484375 
Q 23.390625 27.484375 19.1875 25 
Q 14.984375 22.515625 14.984375 16.5 
Q 14.984375 11.71875 18.140625 8.90625 
Q 21.296875 6.109375 26.703125 6.109375 
Q 34.1875 6.109375 38.703125 11.40625 
Q 43.21875 16.703125 43.21875 25.484375 
L 43.21875 27.484375 
z
M 52.203125 31.203125 
L 52.203125 0 
L 43.21875 0 
L 43.21875 8.296875 
Q 40.140625 3.328125 35.546875 0.953125 
Q 30.953125 -1.421875 24.3125 -1.421875 
Q 15.921875 -1.421875 10.953125 3.296875 
Q 6 8.015625 6 15.921875 
Q 6 25.140625 12.171875 29.828125 
Q 18.359375 34.515625 30.609375 34.515625 
L 43.21875 34.515625 
L 43.21875 35.40625 
Q 43.21875 41.609375 39.140625 45 
Q 35.0625 48.390625 27.6875 48.390625 
Q 23 48.390625 18.546875 47.265625 
Q 14.109375 46.140625 10.015625 43.890625 
L 10.015625 52.203125 
Q 14.9375 54.109375 19.578125 55.046875 
Q 24.21875 56 28.609375 56 
Q 40.484375 56 46.34375 49.84375 
Q 52.203125 43.703125 52.203125 31.203125 
z
" id="DejaVuSans-61"/>
      <path d="M 9.421875 75.984375 
L 18.40625 75.984375 
L 18.40625 0 
L 9.421875 0 
z
" id="DejaVuSans-6c"/>
     </defs>
     <g transform="translate(22.396875 204.811)rotate(-90)scale(0.2 -0.2)">
      <use xlink:href="#DejaVuSans-53"/>
      <use x="63.476562" xlink:href="#DejaVuSans-75"/>
      <use x="126.855469" xlink:href="#DejaVuSans-72"/>
      <use x="167.96875" xlink:href="#DejaVuSans-76"/>
      <use x="227.148438" xlink:href="#DejaVuSans-69"/>
      <use x="254.931641" xlink:href="#DejaVuSans-76"/>
      <use x="314.111328" xlink:href="#DejaVuSans-61"/>
      <use x="375.390625" xlink:href="#DejaVuSans-6c"/>
     </g>
    </g>
   </g>
   <g id="LineCollection_1">
    <path clip-path="url(#pcd39df9889)" d="M 61.410938 297.54825 
L 61.410938 296.36553 
" style="fill:none;stroke:#1f77b4;stroke-width:1.5;"/>
    <path clip-path="url(#pcd39df9889)" d="M 72.889795 252.894387 
L 72.889795 238.846113 
" style="fill:none;stroke:#1f77b4;stroke-width:1.5;"/>
    <path clip-path="url(#pcd39df9889)" d="M 84.368652 149.233079 
L 84.368652 131.897947 
" style="fill:none;stroke:#1f77b4;stroke-width:1.5;"/>
    <path clip-path="url(#pcd39df9889)" d="M 95.847509 83.970474 
L 95.847509 70.704856 
" style="fill:none;stroke:#1f77b4;stroke-width:1.5;"/>
    <path clip-path="url(#pcd39df9889)" d="M 107.326366 95.746387 
L 107.326366 80.817155 
" style="fill:none;stroke:#1f77b4;stroke-width:1.5;"/>
    <path clip-path="url(#pcd39df9889)" d="M 118.805223 165.916831 
L 118.805223 147.180386 
" style="fill:none;stroke:#1f77b4;stroke-width:1.5;"/>
    <path clip-path="url(#pcd39df9889)" d="M 130.28408 249.68533 
L 130.28408 235.495344 
" style="fill:none;stroke:#1f77b4;stroke-width:1.5;"/>
    <path clip-path="url(#pcd39df9889)" d="M 141.762938 290.517621 
L 141.762938 283.537465 
" style="fill:none;stroke:#1f77b4;stroke-width:1.5;"/>
    <path clip-path="url(#pcd39df9889)" d="M 153.241795 246.27751 
L 153.241795 231.234618 
" style="fill:none;stroke:#1f77b4;stroke-width:1.5;"/>
    <path clip-path="url(#pcd39df9889)" d="M 164.720652 128.514379 
L 164.720652 112.143585 
" style="fill:none;stroke:#1f77b4;stroke-width:1.5;"/>
    <path clip-path="url(#pcd39df9889)" d="M 176.199509 71.379025 
L 176.199509 59.513134 
" style="fill:none;stroke:#1f77b4;stroke-width:1.5;"/>
    <path clip-path="url(#pcd39df9889)" d="M 187.678366 89.719004 
L 187.678366 75.310235 
" style="fill:none;stroke:#1f77b4;stroke-width:1.5;"/>
    <path clip-path="url(#pcd39df9889)" d="M 199.157223 164.606689 
L 199.157223 147.172294 
" style="fill:none;stroke:#1f77b4;stroke-width:1.5;"/>
    <path clip-path="url(#pcd39df9889)" d="M 210.63608 253.246249 
L 210.63608 238.715936 
" style="fill:none;stroke:#1f77b4;stroke-width:1.5;"/>
    <path clip-path="url(#pcd39df9889)" d="M 222.114938 278.419338 
L 222.114938 267.95243 
" style="fill:none;stroke:#1f77b4;stroke-width:1.5;"/>
    <path clip-path="url(#pcd39df9889)" d="M 233.593795 246.032967 
L 233.593795 230.929701 
" style="fill:none;stroke:#1f77b4;stroke-width:1.5;"/>
    <path clip-path="url(#pcd39df9889)" d="M 245.072652 151.120912 
L 245.072652 133.511588 
" style="fill:none;stroke:#1f77b4;stroke-width:1.5;"/>
    <path clip-path="url(#pcd39df9889)" d="M 256.551509 70.543745 
L 256.551509 58.544417 
" style="fill:none;stroke:#1f77b4;stroke-width:1.5;"/>
    <path clip-path="url(#pcd39df9889)" d="M 268.030366 96.266173 
L 268.030366 81.518327 
" style="fill:none;stroke:#1f77b4;stroke-width:1.5;"/>
    <path clip-path="url(#pcd39df9889)" d="M 279.509223 176.172937 
L 279.509223 157.85634 
" style="fill:none;stroke:#1f77b4;stroke-width:1.5;"/>
    <path clip-path="url(#pcd39df9889)" d="M 290.98808 249.095723 
L 290.98808 234.405422 
" style="fill:none;stroke:#1f77b4;stroke-width:1.5;"/>
    <path clip-path="url(#pcd39df9889)" d="M 302.466938 272.027226 
L 302.466938 261.157502 
" style="fill:none;stroke:#1f77b4;stroke-width:1.5;"/>
    <path clip-path="url(#pcd39df9889)" d="M 313.945795 234.995774 
L 313.945795 219.357046 
" style="fill:none;stroke:#1f77b4;stroke-width:1.5;"/>
    <path clip-path="url(#pcd39df9889)" d="M 325.424652 149.901553 
L 325.424652 131.745716 
" style="fill:none;stroke:#1f77b4;stroke-width:1.5;"/>
    <path clip-path="url(#pcd39df9889)" d="M 336.903509 68.012818 
L 336.903509 56.366701 
" style="fill:none;stroke:#1f77b4;stroke-width:1.5;"/>
    <path clip-path="url(#pcd39df9889)" d="M 348.382366 90.455081 
L 348.382366 76.882873 
" style="fill:none;stroke:#1f77b4;stroke-width:1.5;"/>
    <path clip-path="url(#pcd39df9889)" d="M 359.861223 167.352236 
L 359.861223 149.138743 
" style="fill:none;stroke:#1f77b4;stroke-width:1.5;"/>
    <path clip-path="url(#pcd39df9889)" d="M 371.34008 238.484239 
L 371.34008 223.556261 
" style="fill:none;stroke:#1f77b4;stroke-width:1.5;"/>
    <path clip-path="url(#pcd39df9889)" d="M 382.818938 271.834904 
L 382.818938 260.137354 
" style="fill:none;stroke:#1f77b4;stroke-width:1.5;"/>
    <path clip-path="url(#pcd39df9889)" d="M 394.297795 226.557949 
L 394.297795 211.043694 
" style="fill:none;stroke:#1f77b4;stroke-width:1.5;"/>
    <path clip-path="url(#pcd39df9889)" d="M 405.776652 150.267612 
L 405.776652 132.272812 
" style="fill:none;stroke:#1f77b4;stroke-width:1.5;"/>
   </g>
   <g id="LineCollection_2">
    <path clip-path="url(#pcd39df9889)" d="M 61.410938 293.318268 
L 61.410938 286.326567 
" style="fill:none;stroke:#d62728;stroke-width:1.5;"/>
    <path clip-path="url(#pcd39df9889)" d="M 72.889795 198.710011 
L 72.889795 178.934969 
" style="fill:none;stroke:#d62728;stroke-width:1.5;"/>
    <path clip-path="url(#pcd39df9889)" d="M 84.368652 119.031529 
L 84.368652 99.221803 
" style="fill:none;stroke:#d62728;stroke-width:1.5;"/>
    <path clip-path="url(#pcd39df9889)" d="M 95.847509 127.731698 
L 95.847509 109.079931 
" style="fill:none;stroke:#d62728;stroke-width:1.5;"/>
    <path clip-path="url(#pcd39df9889)" d="M 107.326366 195.074901 
L 107.326366 174.849907 
" style="fill:none;stroke:#d62728;stroke-width:1.5;"/>
    <path clip-path="url(#pcd39df9889)" d="M 118.805223 195.600939 
L 118.805223 173.759175 
" style="fill:none;stroke:#d62728;stroke-width:1.5;"/>
    <path clip-path="url(#pcd39df9889)" d="M 130.28408 155.891461 
L 130.28408 135.743987 
" style="fill:none;stroke:#d62728;stroke-width:1.5;"/>
    <path clip-path="url(#pcd39df9889)" d="M 141.762938 197.791083 
L 141.762938 175.855571 
" style="fill:none;stroke:#d62728;stroke-width:1.5;"/>
    <path clip-path="url(#pcd39df9889)" d="M 153.241795 224.087066 
L 153.241795 203.790407 
" style="fill:none;stroke:#d62728;stroke-width:1.5;"/>
    <path clip-path="url(#pcd39df9889)" d="M 164.720652 171.575188 
L 164.720652 151.110803 
" style="fill:none;stroke:#d62728;stroke-width:1.5;"/>
    <path clip-path="url(#pcd39df9889)" d="M 176.199509 165.838605 
L 176.199509 144.850695 
" style="fill:none;stroke:#d62728;stroke-width:1.5;"/>
    <path clip-path="url(#pcd39df9889)" d="M 187.678366 154.447612 
L 187.678366 133.332449 
" style="fill:none;stroke:#d62728;stroke-width:1.5;"/>
    <path clip-path="url(#pcd39df9889)" d="M 199.157223 188.618253 
L 199.157223 167.951028 
" style="fill:none;stroke:#d62728;stroke-width:1.5;"/>
    <path clip-path="url(#pcd39df9889)" d="M 210.63608 173.369777 
L 210.63608 152.267403 
" style="fill:none;stroke:#d62728;stroke-width:1.5;"/>
    <path clip-path="url(#pcd39df9889)" d="M 222.114938 175.997959 
L 222.114938 154.692388 
" style="fill:none;stroke:#d62728;stroke-width:1.5;"/>
    <path clip-path="url(#pcd39df9889)" d="M 233.593795 199.038512 
L 233.593795 178.017833 
" style="fill:none;stroke:#d62728;stroke-width:1.5;"/>
   </g>
   <g id="line2d_25">
    <path clip-path="url(#pcd39df9889)" d="M 61.410938 297.056409 
L 62.482298 297.056409 
L 63.196538 296.26547 
L 63.553658 296.150166 
L 63.910778 295.031045 
L 64.267898 294.990571 
L 64.625018 292.585658 
L 65.339258 291.559713 
L 65.696378 290.362302 
L 66.053498 288.071781 
L 66.410618 287.427159 
L 66.767738 285.889757 
L 67.124858 285.022774 
L 67.839098 281.338849 
L 68.196218 278.464336 
L 68.553338 276.620393 
L 68.910458 275.881512 
L 69.267578 272.708004 
L 69.624698 271.499327 
L 69.981818 269.646661 
L 70.338938 266.251382 
L 70.696058 264.242486 
L 71.410298 259.094276 
L 71.767418 257.343612 
L 72.124538 253.597601 
L 72.481658 251.54502 
L 72.838778 248.157222 
L 73.195898 246.488845 
L 73.910138 239.186265 
L 76.052858 220.273496 
L 76.409978 216.533277 
L 76.767098 214.279911 
L 77.124218 210.144896 
L 77.481338 207.726923 
L 78.552698 196.589154 
L 78.909818 194.548168 
L 79.624058 186.486269 
L 80.338298 179.283906 
L 81.766778 165.717797 
L 82.123898 161.213065 
L 82.481018 158.719574 
L 84.266618 140.865737 
L 84.980858 135.756436 
L 85.695098 128.051336 
L 88.194938 106.411728 
L 88.552058 104.430003 
L 89.266298 98.148709 
L 89.980538 93.461733 
L 90.337658 91.003144 
L 91.051898 84.40498 
L 91.409018 83.774899 
L 91.766138 80.486592 
L 92.480378 76.336882 
L 92.837498 73.57345 
L 93.194618 72.813917 
L 93.551738 71.216056 
L 94.623098 64.083364 
L 94.980218 62.852884 
L 95.337338 62.690937 
L 95.694458 61.001461 
L 96.051578 59.885817 
L 96.408698 57.931311 
L 97.122938 55.826963 
L 97.480058 55.567465 
L 97.837178 55.54185 
L 98.194298 53.304498 
L 98.551418 52.591652 
L 98.908538 52.129622 
L 99.265658 52.351578 
L 99.622778 51.63524 
L 99.979898 51.70838 
L 100.337018 50.601601 
L 100.694138 50.374231 
L 101.408378 52.215386 
L 101.765498 51.056867 
L 102.122618 52.129622 
L 102.479738 51.596523 
L 102.836858 54.442592 
L 103.193978 53.817324 
L 103.551098 54.655062 
L 103.908218 54.992865 
L 104.622458 56.304028 
L 104.979578 58.479013 
L 105.336698 59.879905 
L 105.693818 60.634824 
L 106.050938 61.823364 
L 106.408058 63.797141 
L 106.765178 64.371341 
L 107.122298 66.510622 
L 107.479418 67.545263 
L 108.193658 71.579104 
L 108.550778 72.844458 
L 108.907898 76.226136 
L 109.622138 80.16186 
L 109.979258 82.515476 
L 110.336378 83.589744 
L 110.693498 86.888352 
L 111.050618 88.783545 
L 111.407738 92.039081 
L 112.121978 96.582561 
L 113.193338 104.457898 
L 113.907578 110.6826 
L 114.264698 112.989703 
L 114.621818 116.945799 
L 114.978938 118.743993 
L 115.693178 125.441562 
L 116.764538 134.012112 
L 117.121658 138.557283 
L 117.835898 144.49498 
L 118.907258 155.115443 
L 119.621498 161.001746 
L 121.764218 180.711291 
L 122.478458 187.240217 
L 126.763898 225.527332 
L 127.121018 226.50022 
L 127.478138 230.338466 
L 128.549498 237.787569 
L 129.263738 243.202744 
L 129.620858 245.847307 
L 129.977978 247.372475 
L 130.335098 251.219779 
L 131.049338 255.438053 
L 131.406458 256.685963 
L 131.763578 259.616625 
L 132.120698 261.251757 
L 132.834938 265.624002 
L 133.549178 269.425281 
L 133.906298 269.966252 
L 134.263418 272.339427 
L 134.620538 273.188493 
L 134.977658 274.336497 
L 135.334778 275.027608 
L 135.691898 278.26398 
L 136.406138 279.735889 
L 137.477498 283.211562 
L 137.834618 283.372634 
L 138.191738 284.764015 
L 138.548858 285.258901 
L 138.905978 285.314974 
L 139.620218 285.710223 
L 139.977338 285.620456 
L 140.334458 285.380804 
L 140.691578 285.963108 
L 141.048698 285.446633 
L 141.405818 284.680612 
L 141.762938 285.358861 
L 142.120058 285.598014 
L 142.477178 284.399093 
L 142.834298 283.891846 
L 143.191418 282.251497 
L 143.548538 281.930833 
L 143.905658 281.896185 
L 144.262777 281.082343 
L 144.619898 279.735312 
L 144.977018 279.462437 
L 145.334138 278.102146 
L 145.691258 276.298064 
L 146.405498 274.068866 
L 146.762618 272.238434 
L 147.119738 271.747536 
L 147.476858 269.394741 
L 147.833978 268.293965 
L 148.191098 265.8343 
L 148.548218 264.418823 
L 148.905338 261.662438 
L 149.262458 260.828875 
L 149.976698 257.064664 
L 150.333818 254.916498 
L 151.048058 249.697326 
L 151.762298 245.540898 
L 152.476538 239.214642 
L 152.833658 238.981954 
L 153.905018 229.716435 
L 154.262138 226.589994 
L 154.619258 225.378864 
L 154.976378 221.196278 
L 155.333498 218.982693 
L 156.047738 212.647536 
L 156.404858 210.667694 
L 157.119098 204.282876 
L 157.833338 198.820716 
L 158.190458 194.351503 
L 158.547578 192.322549 
L 159.976058 179.223199 
L 160.333178 177.418162 
L 160.690298 174.698464 
L 161.404538 167.846607 
L 163.904378 147.055697 
L 164.261498 142.754184 
L 164.618618 140.955511 
L 164.975738 137.26091 
L 165.332858 134.879373 
L 166.047098 128.627631 
L 166.404218 127.235434 
L 166.761338 123.54723 
L 167.475578 119.43652 
L 168.189818 113.523617 
L 168.546938 111.45299 
L 168.904058 107.642612 
L 169.261178 105.209786 
L 169.975418 102.128954 
L 171.046778 93.823171 
L 171.403898 92.421607 
L 171.761018 90.422164 
L 172.118138 89.217501 
L 172.832378 85.262841 
L 173.189498 84.191896 
L 173.546618 82.531276 
L 173.903738 80.178597 
L 174.260858 78.921935 
L 174.617978 76.299966 
L 174.975098 76.309195 
L 175.332218 73.788763 
L 175.689338 73.690015 
L 176.046458 71.734829 
L 176.403578 71.913417 
L 176.760698 71.258991 
L 177.117818 69.559396 
L 177.474938 68.935101 
L 177.832058 67.348897 
L 178.189178 67.557454 
L 178.546298 66.344467 
L 178.903418 66.524007 
L 179.260538 65.735538 
L 179.617658 64.512125 
L 179.974778 65.565518 
L 180.331898 64.895868 
L 181.046138 64.882153 
L 181.403258 65.788203 
L 181.760378 65.282624 
L 182.117498 65.748704 
L 182.474618 66.421413 
L 182.831738 66.095981 
L 183.188858 67.274836 
L 183.545978 67.728129 
L 184.260218 68.935101 
L 184.617338 69.319772 
L 185.331578 71.766345 
L 186.045818 73.393907 
L 186.402938 75.537377 
L 186.760058 76.437513 
L 187.117178 78.468138 
L 187.474298 78.870413 
L 188.188538 83.413539 
L 188.902778 85.760058 
L 189.259898 88.442139 
L 189.617018 89.686821 
L 189.974138 92.217524 
L 190.331258 92.851385 
L 192.831098 109.534283 
L 193.188218 110.677375 
L 195.688058 130.643778 
L 196.045178 132.334221 
L 197.116538 141.57965 
L 197.473658 144.862131 
L 197.830778 146.988747 
L 198.902138 156.193098 
L 199.259258 158.185014 
L 199.616378 162.73908 
L 200.330618 168.182522 
L 201.044858 174.035026 
L 202.830458 189.105369 
L 203.544698 194.091086 
L 203.901818 198.098968 
L 204.258938 200.259521 
L 206.401658 218.217764 
L 207.115898 222.485685 
L 207.473018 225.919356 
L 208.187258 230.050746 
L 209.615738 240.610938 
L 209.972858 241.968931 
L 211.401338 251.74535 
L 211.758458 252.534223 
L 212.115578 256.025854 
L 212.472698 257.049702 
L 212.829818 259.322029 
L 213.186938 260.699368 
L 213.901178 264.207218 
L 214.258298 265.201171 
L 214.972538 268.521086 
L 215.329658 269.945462 
L 215.686778 270.764087 
L 216.401018 273.378234 
L 216.758138 274.830112 
L 217.115258 275.052295 
L 217.472378 276.515063 
L 217.829498 276.3834 
L 218.543738 278.335536 
L 218.900858 277.325658 
L 219.257978 279.432053 
L 219.972218 279.257676 
L 220.329338 279.675122 
L 220.686458 280.530444 
L 221.043578 280.355249 
L 221.400698 280.339322 
L 221.757818 280.110894 
L 222.114938 279.629546 
L 222.472058 279.347446 
L 222.829178 279.332484 
L 223.543418 277.875331 
L 223.900538 277.946973 
L 224.257658 275.919985 
L 224.614778 276.064189 
L 224.971898 275.342536 
L 225.686138 272.462862 
L 226.043258 271.44507 
L 226.400378 269.404921 
L 226.757498 269.147961 
L 227.114618 267.725169 
L 227.471738 267.187744 
L 227.828858 264.55629 
L 228.185978 263.083937 
L 228.543098 261.080374 
L 228.900218 260.618426 
L 229.614458 256.305544 
L 230.685818 250.998096 
L 231.400058 244.823611 
L 231.757178 244.64074 
L 232.471418 238.72411 
L 233.542778 232.755817 
L 234.614138 224.211271 
L 235.328378 218.935669 
L 236.042618 212.969155 
L 236.399738 209.279748 
L 236.756858 208.119281 
L 237.113978 204.204915 
L 237.471098 202.247266 
L 240.685178 176.106879 
L 241.042298 171.918935 
L 242.113658 163.706354 
L 245.327738 137.413169 
L 246.041978 132.131799 
L 246.756218 126.582644 
L 247.827578 118.914252 
L 248.184698 115.725043 
L 248.541818 114.163467 
L 248.898938 111.229502 
L 249.256058 109.565967 
L 249.970298 104.011673 
L 253.541498 84.480941 
L 253.898618 84.283756 
L 254.969978 79.119433 
L 255.684218 76.871501 
L 256.041337 75.992138 
L 256.398458 74.690787 
L 256.755578 73.936886 
L 257.112698 73.503628 
L 257.469818 71.37736 
L 257.826938 71.674667 
L 258.184058 71.504777 
L 258.898298 69.548045 
L 259.255418 70.122348 
L 259.612538 69.354219 
L 259.969658 69.715024 
L 260.326778 68.752874 
L 260.683898 68.185542 
L 261.041018 68.865396 
L 261.398138 70.000299 
L 261.755258 69.627498 
L 262.112378 70.111252 
L 262.469497 69.582096 
L 262.826617 70.696172 
L 263.183738 72.292665 
L 263.540858 72.396568 
L 263.897978 71.787355 
L 264.255098 72.976801 
L 264.612218 74.917744 
L 265.326458 76.666098 
L 265.683578 76.253822 
L 266.040698 79.536174 
L 267.112058 82.626075 
L 267.826298 86.235114 
L 268.183418 87.651459 
L 268.540538 90.565181 
L 268.897658 89.779312 
L 269.254778 93.816717 
L 269.969018 95.745005 
L 270.683258 101.154372 
L 271.397497 105.087735 
L 272.111738 109.507879 
L 273.540218 119.513972 
L 274.254458 123.528421 
L 274.968698 130.975939 
L 275.325818 132.418737 
L 275.682938 136.258929 
L 276.397178 140.929861 
L 277.111418 147.628954 
L 277.468538 148.878187 
L 278.182778 155.512906 
L 280.325497 173.422367 
L 283.896698 202.50917 
L 284.253818 204.625039 
L 284.968058 211.480241 
L 285.325178 213.105051 
L 285.682298 217.264413 
L 286.396538 221.690031 
L 286.753658 224.671795 
L 287.110778 226.210951 
L 287.467898 229.783297 
L 288.539258 235.780167 
L 289.253498 241.910151 
L 289.610617 243.000675 
L 291.753338 256.069724 
L 292.110458 257.275769 
L 292.467578 259.243656 
L 293.181818 262.044554 
L 294.253178 266.696295 
L 294.610298 267.554514 
L 294.967418 268.976663 
L 295.681658 270.481735 
L 296.038778 273.016258 
L 296.395898 272.373091 
L 296.753018 274.240157 
L 297.110138 274.830112 
L 297.467258 274.420794 
L 298.181498 276.077182 
L 298.538617 276.298064 
L 298.895737 276.3834 
L 299.252858 277.156274 
L 299.609978 277.325658 
L 299.967098 276.831336 
L 300.324218 276.93809 
L 300.681338 277.339373 
L 301.038458 277.435377 
L 301.395578 276.93809 
L 301.752698 277.142747 
L 302.466938 275.105042 
L 302.824058 274.941203 
L 303.181178 274.175942 
L 303.538298 272.787456 
L 303.895418 272.776106 
L 304.252538 271.271446 
L 304.609658 271.466772 
L 305.323898 267.948088 
L 305.681018 267.420292 
L 306.038138 265.688005 
L 306.395258 265.80687 
L 306.752378 263.316644 
L 307.109498 261.98607 
L 307.466618 259.537626 
L 307.823737 259.353378 
L 309.252218 250.832211 
L 309.609338 249.736826 
L 310.323578 245.26283 
L 311.037818 241.473903 
L 311.394938 238.132546 
L 311.752058 236.585083 
L 314.251898 219.778566 
L 314.609018 215.961254 
L 317.108857 198.549469 
L 317.465978 194.368241 
L 318.180218 189.134171 
L 318.537338 185.064031 
L 318.894457 183.031884 
L 319.251577 180.142355 
L 319.608698 178.272114 
L 319.965818 174.811785 
L 320.322938 172.769402 
L 320.680058 169.367533 
L 321.037178 167.1424 
L 321.394298 163.38258 
L 321.751418 161.672277 
L 323.894138 144.262874 
L 325.322617 134.065015 
L 326.751098 124.19402 
L 327.108218 121.483498 
L 327.465338 119.929607 
L 328.536698 113.025519 
L 328.893818 111.047593 
L 329.250938 108.40384 
L 329.608058 107.853555 
L 329.965178 104.1295 
L 330.322298 104.365154 
L 330.679417 100.763608 
L 331.393658 97.618881 
L 331.750778 95.528934 
L 332.107898 94.235476 
L 332.465018 93.450919 
L 332.822138 91.471234 
L 333.536378 89.541804 
L 333.893498 87.494032 
L 334.607737 85.67096 
L 334.964857 84.496133 
L 335.321978 83.913765 
L 335.679098 82.697175 
L 336.036218 81.941458 
L 336.393338 80.748308 
L 337.107577 80.212072 
L 337.821818 79.01639 
L 338.178938 78.849275 
L 338.536058 79.110846 
L 338.893178 78.172348 
L 339.250298 77.796084 
L 339.607418 78.216043 
L 339.964538 79.024977 
L 341.035898 79.350882 
L 341.393018 78.329648 
L 341.750138 79.007804 
L 342.821498 81.788918 
L 343.178618 82.429873 
L 343.535737 83.545724 
L 343.892857 83.844332 
L 344.964218 87.330354 
L 345.321338 88.003465 
L 345.678458 89.210547 
L 346.035578 91.359181 
L 346.392697 92.184886 
L 346.749818 94.464073 
L 347.106938 95.13918 
L 348.178298 99.111295 
L 348.892538 104.1295 
L 349.249658 105.798802 
L 349.606778 108.202401 
L 349.963898 109.059701 
L 350.321018 111.401016 
L 350.678138 114.559988 
L 351.035258 115.163017 
L 351.392378 118.601914 
L 353.535098 131.412393 
L 353.892218 133.593188 
L 354.249338 136.608489 
L 354.606458 137.963912 
L 355.320697 144.48232 
L 355.677818 145.258823 
L 357.463418 159.437174 
L 357.820538 160.725406 
L 358.177658 165.264514 
L 358.891898 169.440085 
L 361.034618 186.461683 
L 361.391738 188.253642 
L 361.748857 191.654529 
L 362.105977 193.253579 
L 362.463098 195.414331 
L 362.820218 199.19368 
L 363.891578 205.629177 
L 364.605818 211.511662 
L 364.962938 213.105051 
L 365.677178 218.799299 
L 366.034298 219.836714 
L 366.391418 223.478003 
L 366.748538 224.465451 
L 367.462778 229.249231 
L 367.819898 230.266084 
L 368.177018 234.195036 
L 368.534138 235.512832 
L 369.962618 243.531911 
L 370.319738 246.238845 
L 370.676858 246.657595 
L 371.033977 248.202108 
L 371.391098 249.144527 
L 371.748218 250.77216 
L 372.105338 253.324464 
L 372.462458 254.371886 
L 372.819578 255.046242 
L 373.533817 257.464222 
L 373.890938 259.455262 
L 374.248058 259.585025 
L 374.962298 261.418355 
L 376.033658 264.489358 
L 376.390778 264.787594 
L 376.747898 265.742866 
L 377.105018 266.063964 
L 377.462138 266.733914 
L 378.176378 266.743319 
L 378.533498 266.592844 
L 378.890618 266.997244 
L 379.247738 266.84677 
L 379.604858 267.305245 
L 380.319097 267.53534 
L 381.033338 266.008591 
L 381.390458 265.816013 
L 381.747578 266.01782 
L 382.104698 264.858764 
L 382.461818 265.418599 
L 383.176058 263.440825 
L 383.533178 262.751935 
L 383.890298 261.459501 
L 384.247418 261.679034 
L 384.604538 260.893629 
L 384.961658 259.806224 
L 385.318778 257.991034 
L 385.675898 257.501913 
L 386.033018 254.974162 
L 386.390138 253.527566 
L 386.747258 252.893313 
L 387.104378 251.632948 
L 387.461498 251.038402 
L 388.175738 246.786325 
L 388.532858 246.014996 
L 388.889978 244.610262 
L 389.961338 238.554823 
L 390.318458 236.794721 
L 390.675578 234.184302 
L 391.032698 233.395176 
L 391.389818 230.15751 
L 391.746938 229.090616 
L 393.175418 220.036115 
L 393.532537 218.559476 
L 393.889658 216.136606 
L 394.246778 214.893909 
L 394.603898 210.636415 
L 394.961018 209.139741 
L 395.675257 204.00135 
L 396.032378 201.454287 
L 396.389498 199.936027 
L 397.103738 194.79923 
L 397.460858 191.214714 
L 397.817978 189.643281 
L 399.603578 176.875841 
L 400.317818 172.592053 
L 400.674938 169.488453 
L 401.389178 165.762315 
L 401.746297 162.350936 
L 402.817658 155.50471 
L 403.174778 152.336931 
L 403.531898 150.515244 
L 403.889018 147.302574 
L 404.246138 146.201003 
L 405.317498 138.609257 
L 405.674618 136.969443 
L 406.031738 133.593188 
L 406.745978 131.370942 
L 407.460217 126.365762 
L 408.888698 119.040731 
L 409.245818 116.148972 
L 409.960058 112.727963 
L 410.317178 111.687954 
L 410.674298 109.033156 
L 411.031418 108.121898 
L 411.745658 105.539514 
L 412.102778 104.264159 
L 412.459898 101.915931 
L 413.174138 99.467889 
L 413.531258 99.402452 
L 413.888378 97.008869 
L 414.245497 96.337211 
L 414.602618 95.082208 
L 414.959738 94.540525 
L 415.673978 92.792527 
L 416.031098 90.846535 
L 416.388217 91.511268 
L 416.745338 91.21811 
L 417.102458 90.636861 
L 417.816698 88.965636 
L 418.530938 88.727516 
L 418.530938 88.727516 
" style="fill:none;stroke:#1f77b4;stroke-linecap:square;stroke-width:1.5;"/>
   </g>
   <g id="line2d_26">
    <path clip-path="url(#pcd39df9889)" d="M 61.410938 297.053029 
L 62.176195 297.053029 
L 62.941452 295.11314 
L 63.32408 294.856201 
L 63.706709 297.053029 
L 64.089338 291.985879 
L 64.471966 289.851949 
L 64.854595 286.381505 
L 65.619852 282.662284 
L 66.385109 277.002528 
L 66.767738 274.33037 
L 67.532995 267.058816 
L 67.915623 264.535604 
L 68.298252 259.387792 
L 69.446138 247.477942 
L 70.211395 239.106506 
L 70.976652 228.478351 
L 73.655052 195.294598 
L 74.420309 184.245892 
L 75.568195 170.199352 
L 76.71608 153.711758 
L 77.098709 150.04943 
L 79.777109 118.163872 
L 82.838138 92.429757 
L 84.75128 82.036043 
L 85.133909 81.485675 
L 85.516538 79.862268 
L 85.899166 78.844641 
L 86.281795 77.462856 
L 86.664423 78.040091 
L 87.047052 77.436919 
L 87.42968 75.97253 
L 87.812309 77.128425 
L 88.194938 75.757011 
L 88.960195 78.566959 
L 89.725452 80.492233 
L 90.10808 80.155662 
L 90.490709 82.587065 
L 90.873338 82.422456 
L 91.255966 85.914856 
L 91.638595 86.998148 
L 92.403852 91.451379 
L 93.169109 96.76022 
L 93.551738 98.064836 
L 94.316995 103.904874 
L 95.082252 108.88433 
L 95.46488 113.081786 
L 95.847509 115.809176 
L 96.230138 120.283262 
L 97.760652 132.479934 
L 98.525909 139.982774 
L 99.673795 149.362853 
L 100.82168 159.58063 
L 102.734823 176.107756 
L 103.117452 178.577193 
L 103.50008 182.41754 
L 103.882709 184.241783 
L 105.030595 192.633402 
L 105.413223 194.261706 
L 105.795852 197.215886 
L 106.561109 200.913684 
L 108.474252 209.800743 
L 108.85688 210.255149 
L 109.239509 211.40569 
L 109.622138 212.976074 
L 110.004766 212.843196 
L 110.387395 213.186845 
L 110.770023 213.333469 
L 111.53528 213.781377 
L 111.917909 215.25659 
L 112.300538 213.191427 
L 112.683166 214.122014 
L 113.065795 213.767567 
L 114.21368 211.496494 
L 114.596309 211.650859 
L 114.978938 210.319359 
L 115.361566 210.165167 
L 116.126823 206.163831 
L 116.509452 206.159411 
L 116.89208 204.314596 
L 117.274709 203.022742 
L 117.657338 202.145968 
L 118.422595 198.926702 
L 118.805223 195.903868 
L 119.187852 195.231133 
L 119.57048 192.276799 
L 119.953109 190.968649 
L 120.335738 188.132336 
L 120.718366 187.950048 
L 121.100995 184.570475 
L 121.483623 184.081545 
L 122.24888 179.797959 
L 123.779395 173.092953 
L 124.162023 169.801634 
L 124.544652 168.547605 
L 124.92728 167.942911 
L 125.309909 166.36448 
L 125.692538 164.221041 
L 126.075166 163.096347 
L 126.457795 161.000467 
L 126.840423 159.719749 
L 127.223052 159.764759 
L 128.370938 155.370291 
L 128.753566 154.668921 
L 129.136195 154.994852 
L 129.518823 152.673302 
L 129.901452 152.673302 
L 130.28408 151.861295 
L 130.666709 150.519535 
L 131.049338 150.170076 
L 131.431966 150.477933 
L 131.814595 150.328165 
L 132.197223 151.605355 
L 132.579852 151.314139 
L 132.96248 150.432171 
L 133.345109 150.802431 
L 133.727738 152.180297 
L 134.110366 152.4413 
L 134.492995 153.079305 
L 134.875623 154.380122 
L 135.258252 153.559881 
L 135.64088 154.099574 
L 136.023509 156.044075 
L 136.406138 156.331681 
L 136.788766 157.432801 
L 137.171395 159.924337 
L 137.554023 160.100282 
L 137.936652 162.770349 
L 138.31928 162.982248 
L 138.701909 164.905638 
L 139.084538 165.732859 
L 139.467166 167.150951 
L 139.849795 170.012668 
L 140.232423 170.418503 
L 140.615052 171.684707 
L 141.762938 177.208 
L 142.145566 179.270124 
L 142.528195 179.875702 
L 143.293452 184.504737 
L 143.67608 185.128996 
L 144.058709 187.991477 
L 145.206595 193.596035 
L 145.589223 194.345968 
L 145.971852 195.535767 
L 146.35448 197.415595 
L 146.737109 198.703843 
L 147.119738 199.333849 
L 147.502366 201.294109 
L 147.884995 201.860425 
L 148.267623 204.078068 
L 148.650252 204.573024 
L 149.415509 206.384785 
L 150.180766 209.165871 
L 150.563395 208.915059 
L 150.946023 209.899723 
L 151.71128 210.87074 
L 152.093909 212.004841 
L 152.476538 212.41989 
L 152.859166 212.55672 
L 153.241795 211.759822 
L 153.624423 212.164475 
L 154.38968 211.709881 
L 154.772309 212.027646 
L 155.154938 211.664479 
L 155.537566 210.482062 
L 155.920195 210.676401 
L 156.685452 209.548796 
L 157.06808 209.17035 
L 157.833338 206.989861 
L 158.215966 206.02242 
L 158.598595 205.538689 
L 159.363852 201.765318 
L 159.74648 200.806883 
L 160.129109 198.755272 
L 160.511738 197.817983 
L 160.894366 196.451044 
L 161.659623 192.184501 
L 162.042252 192.113181 
L 162.42488 189.188859 
L 162.807509 187.900334 
L 163.190138 185.945885 
L 163.572766 184.840197 
L 163.955395 183.124228 
L 164.338023 182.306606 
L 164.720652 179.245573 
L 165.10328 177.574748 
L 165.485909 175.398709 
L 166.251166 173.560894 
L 167.016423 168.02002 
L 167.78168 165.985507 
L 168.546938 162.456575 
L 169.312195 157.98747 
L 170.46008 154.932966 
L 170.842709 154.293482 
L 171.225338 151.567913 
L 171.607966 149.646938 
L 171.990595 149.463118 
L 172.373223 147.831417 
L 173.13848 146.282788 
L 173.521109 146.135329 
L 173.903738 144.860605 
L 174.286366 145.021384 
L 174.668995 143.89367 
L 175.051623 143.477256 
L 175.434252 142.61972 
L 175.81688 141.429074 
L 176.199509 142.107637 
L 176.582138 140.940498 
L 176.964766 140.996213 
L 177.347395 142.23139 
L 177.730023 141.63479 
L 178.49528 142.598383 
L 179.260538 141.656219 
L 180.025795 143.277547 
L 180.408423 143.770445 
L 180.791052 143.366779 
L 181.17368 144.55597 
L 181.556309 145.144085 
L 182.704195 149.04117 
L 183.086823 149.066236 
L 183.469452 149.479829 
L 183.85208 151.343261 
L 184.234709 151.902723 
L 184.617338 153.452166 
L 184.999966 154.338865 
L 185.382595 154.846326 
L 186.147852 157.913514 
L 186.53048 158.770464 
L 186.913109 160.349879 
L 187.295738 159.858869 
L 187.678366 161.918678 
L 188.060995 162.961873 
L 188.443623 164.754864 
L 189.591509 168.243229 
L 189.974138 168.202645 
L 190.739395 170.905504 
L 191.122023 171.351922 
L 191.504652 173.068603 
L 191.88728 173.36937 
L 192.269909 174.926012 
L 192.652538 175.304985 
L 193.035166 176.062931 
L 193.417795 175.716558 
L 194.183052 178.348994 
L 194.56568 178.654618 
L 194.948309 179.421518 
L 195.330938 178.927641 
L 195.713566 179.802051 
L 196.096195 179.990271 
L 196.478823 181.099135 
L 196.861452 181.082768 
L 197.24408 181.455117 
L 197.626709 182.742123 
L 198.009338 181.401924 
L 198.391966 180.849538 
L 198.774595 182.097522 
L 199.157223 181.479668 
L 199.539852 181.262805 
L 199.92248 181.324181 
L 200.305109 179.892069 
L 200.687738 181.099135 
L 201.070366 179.789776 
L 201.452995 180.370804 
L 201.835623 178.516068 
L 202.218252 178.13302 
L 202.60088 178.116721 
L 203.366138 177.599198 
L 204.131395 174.534814 
L 204.514023 174.832287 
L 204.896652 174.188441 
L 205.27928 173.842067 
L 205.661909 173.32047 
L 206.044538 171.498023 
L 206.809795 169.756992 
L 207.192423 169.460733 
L 208.340309 166.576379 
L 208.722938 165.333511 
L 209.105566 165.47206 
L 209.488195 164.306616 
L 209.870823 163.658694 
L 210.253452 163.520145 
L 210.63608 162.167252 
L 211.018709 161.528302 
L 211.401338 161.544669 
L 211.783966 162.146877 
L 212.166595 161.070026 
L 212.549223 159.412868 
L 212.931852 159.404685 
L 213.31448 157.995687 
L 213.697109 157.441018 
L 214.079738 157.9546 
L 214.462366 156.919219 
L 214.844995 158.205228 
L 215.227623 158.188794 
L 215.610252 157.358845 
L 215.99288 157.260238 
L 216.375509 156.820611 
L 216.758138 156.911002 
L 217.140766 156.837046 
L 217.906023 157.112326 
L 218.288652 156.890458 
L 218.67128 158.823657 
L 219.053909 158.443124 
L 219.436538 159.981621 
L 219.819166 159.695199 
L 220.584423 161.833103 
L 220.967052 161.649729 
L 221.34968 162.395451 
L 221.732309 162.538075 
L 222.114938 164.567414 
L 222.497566 165.610609 
L 222.880195 165.533185 
L 223.262823 166.564154 
L 223.645452 168.304104 
L 224.02808 169.318691 
L 224.793338 172.252875 
L 225.175966 172.804811 
L 225.558595 172.735819 
L 225.941223 175.150136 
L 226.323852 176.560078 
L 226.70648 178.666843 
L 227.854366 182.894144 
L 228.236995 184.860825 
L 229.002252 186.552364 
L 232.06328 198.978131 
L 232.445909 199.410992 
L 232.828538 201.955531 
L 233.211166 201.804225 
L 233.593795 203.109961 
L 233.976423 203.964705 
L 234.359052 206.30966 
L 234.74168 206.473166 
L 235.124309 206.852258 
L 235.506938 208.932974 
L 235.889566 208.977762 
L 236.272195 210.879779 
L 236.654823 210.50014 
L 237.037452 212.438134 
L 237.42008 213.55582 
L 237.802709 212.719482 
L 238.185338 213.292231 
L 238.567966 214.37219 
L 238.950595 214.002331 
L 239.333223 214.816153 
L 240.09848 215.019632 
L 240.481109 215.743175 
L 240.863738 215.001047 
L 241.246366 214.529427 
L 241.628995 215.056633 
L 242.011623 214.811528 
L 242.394252 214.797654 
L 242.77688 213.836615 
L 243.159509 214.478556 
L 243.924766 212.346915 
L 244.307395 211.850625 
L 244.690023 210.888818 
L 245.072652 209.461472 
L 245.45528 210.214657 
L 245.837909 207.722264 
L 246.220538 207.903556 
L 246.603166 205.661876 
L 246.985795 206.291984 
L 247.751052 203.218985 
L 248.13368 200.750927 
L 248.516309 200.720797 
L 249.281566 198.21058 
L 249.664195 195.353833 
L 250.046823 194.964577 
L 250.429452 192.171915 
L 250.81208 191.770769 
L 252.725223 182.976317 
L 252.725223 182.976317 
" style="fill:none;stroke:#d62728;stroke-linecap:square;stroke-width:1.5;"/>
   </g>
   <g id="line2d_27">
    <defs>
     <path d="M 0 3 
C 0.795609 3 1.55874 2.683901 2.12132 2.12132 
C 2.683901 1.55874 3 0.795609 3 0 
C 3 -0.795609 2.683901 -1.55874 2.12132 -2.12132 
C 1.55874 -2.683901 0.795609 -3 0 -3 
C -0.795609 -3 -1.55874 -2.683901 -2.12132 -2.12132 
C -2.683901 -1.55874 -3 -0.795609 -3 0 
C -3 0.795609 -2.683901 1.55874 -2.12132 2.12132 
C -1.55874 2.683901 -0.795609 3 0 3 
z
" id="mcb2457e3ba" style="stroke:#1f77b4;"/>
    </defs>
    <g clip-path="url(#pcd39df9889)">
     <use style="fill:#1f77b4;stroke:#1f77b4;" x="61.410938" xlink:href="#mcb2457e3ba" y="296.95689"/>
     <use style="fill:#1f77b4;stroke:#1f77b4;" x="72.889795" xlink:href="#mcb2457e3ba" y="245.87025"/>
     <use style="fill:#1f77b4;stroke:#1f77b4;" x="84.368652" xlink:href="#mcb2457e3ba" y="140.565513"/>
     <use style="fill:#1f77b4;stroke:#1f77b4;" x="95.847509" xlink:href="#mcb2457e3ba" y="77.337665"/>
     <use style="fill:#1f77b4;stroke:#1f77b4;" x="107.326366" xlink:href="#mcb2457e3ba" y="88.281771"/>
     <use style="fill:#1f77b4;stroke:#1f77b4;" x="118.805223" xlink:href="#mcb2457e3ba" y="156.548608"/>
     <use style="fill:#1f77b4;stroke:#1f77b4;" x="130.28408" xlink:href="#mcb2457e3ba" y="242.590337"/>
     <use style="fill:#1f77b4;stroke:#1f77b4;" x="141.762938" xlink:href="#mcb2457e3ba" y="287.027543"/>
     <use style="fill:#1f77b4;stroke:#1f77b4;" x="153.241795" xlink:href="#mcb2457e3ba" y="238.756064"/>
     <use style="fill:#1f77b4;stroke:#1f77b4;" x="164.720652" xlink:href="#mcb2457e3ba" y="120.328982"/>
     <use style="fill:#1f77b4;stroke:#1f77b4;" x="176.199509" xlink:href="#mcb2457e3ba" y="65.44608"/>
     <use style="fill:#1f77b4;stroke:#1f77b4;" x="187.678366" xlink:href="#mcb2457e3ba" y="82.51462"/>
     <use style="fill:#1f77b4;stroke:#1f77b4;" x="199.157223" xlink:href="#mcb2457e3ba" y="155.889491"/>
     <use style="fill:#1f77b4;stroke:#1f77b4;" x="210.63608" xlink:href="#mcb2457e3ba" y="245.981092"/>
     <use style="fill:#1f77b4;stroke:#1f77b4;" x="222.114938" xlink:href="#mcb2457e3ba" y="273.185884"/>
     <use style="fill:#1f77b4;stroke:#1f77b4;" x="233.593795" xlink:href="#mcb2457e3ba" y="238.481334"/>
     <use style="fill:#1f77b4;stroke:#1f77b4;" x="245.072652" xlink:href="#mcb2457e3ba" y="142.31625"/>
     <use style="fill:#1f77b4;stroke:#1f77b4;" x="256.551509" xlink:href="#mcb2457e3ba" y="64.544081"/>
     <use style="fill:#1f77b4;stroke:#1f77b4;" x="268.030366" xlink:href="#mcb2457e3ba" y="88.89225"/>
     <use style="fill:#1f77b4;stroke:#1f77b4;" x="279.509223" xlink:href="#mcb2457e3ba" y="167.014639"/>
     <use style="fill:#1f77b4;stroke:#1f77b4;" x="290.98808" xlink:href="#mcb2457e3ba" y="241.750573"/>
     <use style="fill:#1f77b4;stroke:#1f77b4;" x="302.466938" xlink:href="#mcb2457e3ba" y="266.592364"/>
     <use style="fill:#1f77b4;stroke:#1f77b4;" x="313.945795" xlink:href="#mcb2457e3ba" y="227.17641"/>
     <use style="fill:#1f77b4;stroke:#1f77b4;" x="325.424652" xlink:href="#mcb2457e3ba" y="140.823635"/>
     <use style="fill:#1f77b4;stroke:#1f77b4;" x="336.903509" xlink:href="#mcb2457e3ba" y="62.189759"/>
     <use style="fill:#1f77b4;stroke:#1f77b4;" x="348.382366" xlink:href="#mcb2457e3ba" y="83.668977"/>
     <use style="fill:#1f77b4;stroke:#1f77b4;" x="359.861223" xlink:href="#mcb2457e3ba" y="158.245489"/>
     <use style="fill:#1f77b4;stroke:#1f77b4;" x="371.34008" xlink:href="#mcb2457e3ba" y="231.02025"/>
     <use style="fill:#1f77b4;stroke:#1f77b4;" x="382.818938" xlink:href="#mcb2457e3ba" y="265.986129"/>
     <use style="fill:#1f77b4;stroke:#1f77b4;" x="394.297795" xlink:href="#mcb2457e3ba" y="218.800821"/>
     <use style="fill:#1f77b4;stroke:#1f77b4;" x="405.776652" xlink:href="#mcb2457e3ba" y="141.270212"/>
    </g>
   </g>
   <g id="line2d_28">
    <defs>
     <path d="M 0 3 
C 0.795609 3 1.55874 2.683901 2.12132 2.12132 
C 2.683901 1.55874 3 0.795609 3 0 
C 3 -0.795609 2.683901 -1.55874 2.12132 -2.12132 
C 1.55874 -2.683901 0.795609 -3 0 -3 
C -0.795609 -3 -1.55874 -2.683901 -2.12132 -2.12132 
C -2.683901 -1.55874 -3 -0.795609 -3 0 
C -3 0.795609 -2.683901 1.55874 -2.12132 2.12132 
C -1.55874 2.683901 -0.795609 3 0 3 
z
" id="m4d17eb6f4c" style="stroke:#d62728;"/>
    </defs>
    <g clip-path="url(#pcd39df9889)">
     <use style="fill:#d62728;stroke:#d62728;" x="61.410938" xlink:href="#m4d17eb6f4c" y="289.822418"/>
     <use style="fill:#d62728;stroke:#d62728;" x="72.889795" xlink:href="#m4d17eb6f4c" y="188.82249"/>
     <use style="fill:#d62728;stroke:#d62728;" x="84.368652" xlink:href="#m4d17eb6f4c" y="109.126666"/>
     <use style="fill:#d62728;stroke:#d62728;" x="95.847509" xlink:href="#m4d17eb6f4c" y="118.405814"/>
     <use style="fill:#d62728;stroke:#d62728;" x="107.326366" xlink:href="#m4d17eb6f4c" y="184.962404"/>
     <use style="fill:#d62728;stroke:#d62728;" x="118.805223" xlink:href="#m4d17eb6f4c" y="184.680057"/>
     <use style="fill:#d62728;stroke:#d62728;" x="130.28408" xlink:href="#m4d17eb6f4c" y="145.817724"/>
     <use style="fill:#d62728;stroke:#d62728;" x="141.762938" xlink:href="#m4d17eb6f4c" y="186.823327"/>
     <use style="fill:#d62728;stroke:#d62728;" x="153.241795" xlink:href="#m4d17eb6f4c" y="213.938736"/>
     <use style="fill:#d62728;stroke:#d62728;" x="164.720652" xlink:href="#m4d17eb6f4c" y="161.342996"/>
     <use style="fill:#d62728;stroke:#d62728;" x="176.199509" xlink:href="#m4d17eb6f4c" y="155.34465"/>
     <use style="fill:#d62728;stroke:#d62728;" x="187.678366" xlink:href="#m4d17eb6f4c" y="143.890031"/>
     <use style="fill:#d62728;stroke:#d62728;" x="199.157223" xlink:href="#m4d17eb6f4c" y="178.28464"/>
     <use style="fill:#d62728;stroke:#d62728;" x="210.63608" xlink:href="#m4d17eb6f4c" y="162.81859"/>
     <use style="fill:#d62728;stroke:#d62728;" x="222.114938" xlink:href="#m4d17eb6f4c" y="165.345173"/>
     <use style="fill:#d62728;stroke:#d62728;" x="233.593795" xlink:href="#m4d17eb6f4c" y="188.528173"/>
    </g>
   </g>
   <g id="patch_3">
    <path d="M 61.410938 297.54825 
L 61.410938 31.43625 
" style="fill:none;stroke:#000000;stroke-linecap:square;stroke-linejoin:miter;stroke-width:0.8;"/>
   </g>
   <g id="patch_4">
    <path d="M 418.530938 297.54825 
L 418.530938 31.43625 
" style="fill:none;stroke:#000000;stroke-linecap:square;stroke-linejoin:miter;stroke-width:0.8;"/>
   </g>
   <g id="patch_5">
    <path d="M 61.410938 297.54825 
L 418.530938 297.54825 
" style="fill:none;stroke:#000000;stroke-linecap:square;stroke-linejoin:miter;stroke-width:0.8;"/>
   </g>
   <g id="patch_6">
    <path d="M 61.410938 31.43625 
L 418.530938 31.43625 
" style="fill:none;stroke:#000000;stroke-linecap:square;stroke-linejoin:miter;stroke-width:0.8;"/>
   </g>
   <g id="text_15">
    <!-- (D) -->
    <defs>
     <path d="M 19.671875 64.796875 
L 19.671875 8.109375 
L 31.59375 8.109375 
Q 46.6875 8.109375 53.6875 14.9375 
Q 60.6875 21.78125 60.6875 36.53125 
Q 60.6875 51.171875 53.6875 57.984375 
Q 46.6875 64.796875 31.59375 64.796875 
z
M 9.8125 72.90625 
L 30.078125 72.90625 
Q 51.265625 72.90625 61.171875 64.09375 
Q 71.09375 55.28125 71.09375 36.53125 
Q 71.09375 17.671875 61.125 8.828125 
Q 51.171875 0 30.078125 0 
L 9.8125 0 
z
" id="DejaVuSans-44"/>
    </defs>
    <g transform="translate(380.26808 58.04745)scale(0.2 -0.2)">
     <use xlink:href="#DejaVuSans-28"/>
     <use x="39.013672" xlink:href="#DejaVuSans-44"/>
     <use x="116.015625" xlink:href="#DejaVuSans-29"/>
    </g>
   </g>
   <g id="text_16">
    <!-- X heating -->
    <defs>
     <path d="M 6.296875 72.90625 
L 16.890625 72.90625 
L 35.015625 45.796875 
L 53.21875 72.90625 
L 63.8125 72.90625 
L 40.375 37.890625 
L 65.375 0 
L 54.78125 0 
L 34.28125 31 
L 13.625 0 
L 2.984375 0 
L 29 38.921875 
z
" id="DejaVuSans-58"/>
     <path d="M 54.890625 33.015625 
L 54.890625 0 
L 45.90625 0 
L 45.90625 32.71875 
Q 45.90625 40.484375 42.875 44.328125 
Q 39.84375 48.1875 33.796875 48.1875 
Q 26.515625 48.1875 22.3125 43.546875 
Q 18.109375 38.921875 18.109375 30.90625 
L 18.109375 0 
L 9.078125 0 
L 9.078125 75.984375 
L 18.109375 75.984375 
L 18.109375 46.1875 
Q 21.34375 51.125 25.703125 53.5625 
Q 30.078125 56 35.796875 56 
Q 45.21875 56 50.046875 50.171875 
Q 54.890625 44.34375 54.890625 33.015625 
z
" id="DejaVuSans-68"/>
     <path d="M 18.3125 70.21875 
L 18.3125 54.6875 
L 36.8125 54.6875 
L 36.8125 47.703125 
L 18.3125 47.703125 
L 18.3125 18.015625 
Q 18.3125 11.328125 20.140625 9.421875 
Q 21.96875 7.515625 27.59375 7.515625 
L 36.8125 7.515625 
L 36.8125 0 
L 27.59375 0 
Q 17.1875 0 13.234375 3.875 
Q 9.28125 7.765625 9.28125 18.015625 
L 9.28125 47.703125 
L 2.6875 47.703125 
L 2.6875 54.6875 
L 9.28125 54.6875 
L 9.28125 70.21875 
z
" id="DejaVuSans-74"/>
     <path d="M 54.890625 33.015625 
L 54.890625 0 
L 45.90625 0 
L 45.90625 32.71875 
Q 45.90625 40.484375 42.875 44.328125 
Q 39.84375 48.1875 33.796875 48.1875 
Q 26.515625 48.1875 22.3125 43.546875 
Q 18.109375 38.921875 18.109375 30.90625 
L 18.109375 0 
L 9.078125 0 
L 9.078125 54.6875 
L 18.109375 54.6875 
L 18.109375 46.1875 
Q 21.34375 51.125 25.703125 53.5625 
Q 30.078125 56 35.796875 56 
Q 45.21875 56 50.046875 50.171875 
Q 54.890625 44.34375 54.890625 33.015625 
z
" id="DejaVuSans-6e"/>
     <path d="M 45.40625 27.984375 
Q 45.40625 37.75 41.375 43.109375 
Q 37.359375 48.484375 30.078125 48.484375 
Q 22.859375 48.484375 18.828125 43.109375 
Q 14.796875 37.75 14.796875 27.984375 
Q 14.796875 18.265625 18.828125 12.890625 
Q 22.859375 7.515625 30.078125 7.515625 
Q 37.359375 7.515625 41.375 12.890625 
Q 45.40625 18.265625 45.40625 27.984375 
z
M 54.390625 6.78125 
Q 54.390625 -7.171875 48.1875 -13.984375 
Q 42 -20.796875 29.203125 -20.796875 
Q 24.46875 -20.796875 20.265625 -20.09375 
Q 16.0625 -19.390625 12.109375 -17.921875 
L 12.109375 -9.1875 
Q 16.0625 -11.328125 19.921875 -12.34375 
Q 23.78125 -13.375 27.78125 -13.375 
Q 36.625 -13.375 41.015625 -8.765625 
Q 45.40625 -4.15625 45.40625 5.171875 
L 45.40625 9.625 
Q 42.625 4.78125 38.28125 2.390625 
Q 33.9375 0 27.875 0 
Q 17.828125 0 11.671875 7.65625 
Q 5.515625 15.328125 5.515625 27.984375 
Q 5.515625 40.671875 11.671875 48.328125 
Q 17.828125 56 27.875 56 
Q 33.9375 56 38.28125 53.609375 
Q 42.625 51.21875 45.40625 46.390625 
L 45.40625 54.6875 
L 54.390625 54.6875 
z
" id="DejaVuSans-67"/>
    </defs>
    <g transform="translate(182.333438 25.43625)scale(0.24 -0.24)">
     <use xlink:href="#DejaVuSans-58"/>
     <use x="68.505859" xlink:href="#DejaVuSans-20"/>
     <use x="100.292969" xlink:href="#DejaVuSans-68"/>
     <use x="163.671875" xlink:href="#DejaVuSans-65"/>
     <use x="225.195312" xlink:href="#DejaVuSans-61"/>
     <use x="286.474609" xlink:href="#DejaVuSans-74"/>
     <use x="325.683594" xlink:href="#DejaVuSans-69"/>
     <use x="353.466797" xlink:href="#DejaVuSans-6e"/>
     <use x="416.845703" xlink:href="#DejaVuSans-67"/>
    </g>
   </g>
   <g id="legend_1">
    <g id="patch_7">
     <path d="M 296.074687 196.8485 
L 404.530937 196.8485 
Q 408.530937 196.8485 408.530937 192.8485 
L 408.530937 136.136 
Q 408.530937 132.136 404.530937 132.136 
L 296.074687 132.136 
Q 292.074687 132.136 292.074687 136.136 
L 292.074687 192.8485 
Q 292.074687 196.8485 296.074687 196.8485 
z
" style="fill:#ffffff;opacity:0.8;stroke:#cccccc;stroke-linejoin:miter;"/>
    </g>
    <g id="LineCollection_3">
     <path d="M 320.074687 158.332875 
L 320.074687 138.332875 
" style="fill:none;stroke:#1f77b4;stroke-width:1.5;"/>
    </g>
    <g id="line2d_29"/>
    <g id="line2d_30">
     <g>
      <use style="fill:#1f77b4;stroke:#1f77b4;" x="320.074687" xlink:href="#mcb2457e3ba" y="148.332875"/>
     </g>
    </g>
    <g id="text_17">
     <!-- Cold -->
     <defs>
      <path d="M 64.40625 67.28125 
L 64.40625 56.890625 
Q 59.421875 61.53125 53.78125 63.8125 
Q 48.140625 66.109375 41.796875 66.109375 
Q 29.296875 66.109375 22.65625 58.46875 
Q 16.015625 50.828125 16.015625 36.375 
Q 16.015625 21.96875 22.65625 14.328125 
Q 29.296875 6.6875 41.796875 6.6875 
Q 48.140625 6.6875 53.78125 8.984375 
Q 59.421875 11.28125 64.40625 15.921875 
L 64.40625 5.609375 
Q 59.234375 2.09375 53.4375 0.328125 
Q 47.65625 -1.421875 41.21875 -1.421875 
Q 24.65625 -1.421875 15.125 8.703125 
Q 5.609375 18.84375 5.609375 36.375 
Q 5.609375 53.953125 15.125 64.078125 
Q 24.65625 74.21875 41.21875 74.21875 
Q 47.75 74.21875 53.53125 72.484375 
Q 59.328125 70.75 64.40625 67.28125 
z
" id="DejaVuSans-43"/>
      <path d="M 30.609375 48.390625 
Q 23.390625 48.390625 19.1875 42.75 
Q 14.984375 37.109375 14.984375 27.296875 
Q 14.984375 17.484375 19.15625 11.84375 
Q 23.34375 6.203125 30.609375 6.203125 
Q 37.796875 6.203125 41.984375 11.859375 
Q 46.1875 17.53125 46.1875 27.296875 
Q 46.1875 37.015625 41.984375 42.703125 
Q 37.796875 48.390625 30.609375 48.390625 
z
M 30.609375 56 
Q 42.328125 56 49.015625 48.375 
Q 55.71875 40.765625 55.71875 27.296875 
Q 55.71875 13.875 49.015625 6.21875 
Q 42.328125 -1.421875 30.609375 -1.421875 
Q 18.84375 -1.421875 12.171875 6.21875 
Q 5.515625 13.875 5.515625 27.296875 
Q 5.515625 40.765625 12.171875 48.375 
Q 18.84375 56 30.609375 56 
z
" id="DejaVuSans-6f"/>
      <path d="M 45.40625 46.390625 
L 45.40625 75.984375 
L 54.390625 75.984375 
L 54.390625 0 
L 45.40625 0 
L 45.40625 8.203125 
Q 42.578125 3.328125 38.25 0.953125 
Q 33.9375 -1.421875 27.875 -1.421875 
Q 17.96875 -1.421875 11.734375 6.484375 
Q 5.515625 14.40625 5.515625 27.296875 
Q 5.515625 40.1875 11.734375 48.09375 
Q 17.96875 56 27.875 56 
Q 33.9375 56 38.25 53.625 
Q 42.578125 51.265625 45.40625 46.390625 
z
M 14.796875 27.296875 
Q 14.796875 17.390625 18.875 11.75 
Q 22.953125 6.109375 30.078125 6.109375 
Q 37.203125 6.109375 41.296875 11.75 
Q 45.40625 17.390625 45.40625 27.296875 
Q 45.40625 37.203125 41.296875 42.84375 
Q 37.203125 48.484375 30.078125 48.484375 
Q 22.953125 48.484375 18.875 42.84375 
Q 14.796875 37.203125 14.796875 27.296875 
z
" id="DejaVuSans-64"/>
     </defs>
     <g transform="translate(356.074687 155.332875)scale(0.2 -0.2)">
      <use xlink:href="#DejaVuSans-43"/>
      <use x="69.824219" xlink:href="#DejaVuSans-6f"/>
      <use x="131.005859" xlink:href="#DejaVuSans-6c"/>
      <use x="158.789062" xlink:href="#DejaVuSans-64"/>
     </g>
    </g>
    <g id="LineCollection_4">
     <path d="M 320.074687 187.689125 
L 320.074687 167.689125 
" style="fill:none;stroke:#d62728;stroke-width:1.5;"/>
    </g>
    <g id="line2d_31"/>
    <g id="line2d_32">
     <g>
      <use style="fill:#d62728;stroke:#d62728;" x="320.074687" xlink:href="#m4d17eb6f4c" y="177.689125"/>
     </g>
    </g>
    <g id="text_18">
     <!-- Hot -->
     <defs>
      <path d="M 9.8125 72.90625 
L 19.671875 72.90625 
L 19.671875 43.015625 
L 55.515625 43.015625 
L 55.515625 72.90625 
L 65.375 72.90625 
L 65.375 0 
L 55.515625 0 
L 55.515625 34.71875 
L 19.671875 34.71875 
L 19.671875 0 
L 9.8125 0 
z
" id="DejaVuSans-48"/>
     </defs>
     <g transform="translate(356.074687 184.689125)scale(0.2 -0.2)">
      <use xlink:href="#DejaVuSans-48"/>
      <use x="75.195312" xlink:href="#DejaVuSans-6f"/>
      <use x="136.376953" xlink:href="#DejaVuSans-74"/>
     </g>
    </g>
   </g>
  </g>
 </g>
 <defs>
  <clipPath id="pcd39df9889">
   <rect height="266.112" width="357.12" x="61.410938" y="31.43625"/>
  </clipPath>
 </defs>
</svg>
