<?xml version="1.0" encoding="utf-8" standalone="no"?>
<!DOCTYPE svg PUBLIC "-//W3C//DTD SVG 1.1//EN"
  "http://www.w3.org/Graphics/SVG/1.1/DTD/svg11.dtd">
<!-- Created with matplotlib (http://matplotlib.org/) -->
<svg height="331pt" version="1.1" viewBox="0 0 429 331" width="429pt" xmlns="http://www.w3.org/2000/svg" xmlns:xlink="http://www.w3.org/1999/xlink">
 <defs>
  <style type="text/css">
*{stroke-linecap:butt;stroke-linejoin:round;}
  </style>
 </defs>
 <g id="figure_1">
  <g id="patch_1">
   <path d="M 0 331.128016 
L 429.230937 331.128016 
L 429.230937 0 
L 0 0 
z
" style="fill:none;"/>
  </g>
  <g id="axes_1">
   <g id="patch_2">
    <path d="M 61.410938 279.010828 
L 418.530938 279.010828 
L 418.530938 12.898828 
L 61.410938 12.898828 
z
" style="fill:none;"/>
   </g>
   <g id="matplotlib.axis_1">
    <g id="xtick_1">
     <g id="line2d_1">
      <path clip-path="url(#p304c686b55)" d="M 61.410938 279.010828 
L 61.410938 12.898828 
" style="fill:none;stroke:#b0b0b0;stroke-linecap:square;stroke-width:0.8;"/>
     </g>
     <g id="line2d_2">
      <defs>
       <path d="M 0 0 
L 0 3.5 
" id="m005f0a59be" style="stroke:#000000;stroke-width:0.8;"/>
      </defs>
      <g>
       <use style="stroke:#000000;stroke-width:0.8;" x="61.410938" xlink:href="#m005f0a59be" y="279.010828"/>
      </g>
     </g>
     <g id="text_1">
      <!-- 0 -->
      <defs>
       <path d="M 31.78125 66.40625 
Q 24.171875 66.40625 20.328125 58.90625 
Q 16.5 51.421875 16.5 36.375 
Q 16.5 21.390625 20.328125 13.890625 
Q 24.171875 6.390625 31.78125 6.390625 
Q 39.453125 6.390625 43.28125 13.890625 
Q 47.125 21.390625 47.125 36.375 
Q 47.125 51.421875 43.28125 58.90625 
Q 39.453125 66.40625 31.78125 66.40625 
z
M 31.78125 74.21875 
Q 44.046875 74.21875 50.515625 64.515625 
Q 56.984375 54.828125 56.984375 36.375 
Q 56.984375 17.96875 50.515625 8.265625 
Q 44.046875 -1.421875 31.78125 -1.421875 
Q 19.53125 -1.421875 13.0625 8.265625 
Q 6.59375 17.96875 6.59375 36.375 
Q 6.59375 54.828125 13.0625 64.515625 
Q 19.53125 74.21875 31.78125 74.21875 
z
" id="DejaVuSans-30"/>
      </defs>
      <g transform="translate(56.639063 297.408484)scale(0.15 -0.15)">
       <use xlink:href="#DejaVuSans-30"/>
      </g>
     </g>
    </g>
    <g id="xtick_2">
     <g id="line2d_3">
      <path clip-path="url(#p304c686b55)" d="M 130.087861 279.010828 
L 130.087861 12.898828 
" style="fill:none;stroke:#b0b0b0;stroke-linecap:square;stroke-width:0.8;"/>
     </g>
     <g id="line2d_4">
      <g>
       <use style="stroke:#000000;stroke-width:0.8;" x="130.087861" xlink:href="#m005f0a59be" y="279.010828"/>
      </g>
     </g>
     <g id="text_2">
      <!-- 100 -->
      <defs>
       <path d="M 12.40625 8.296875 
L 28.515625 8.296875 
L 28.515625 63.921875 
L 10.984375 60.40625 
L 10.984375 69.390625 
L 28.421875 72.90625 
L 38.28125 72.90625 
L 38.28125 8.296875 
L 54.390625 8.296875 
L 54.390625 0 
L 12.40625 0 
z
" id="DejaVuSans-31"/>
      </defs>
      <g transform="translate(115.772236 297.408484)scale(0.15 -0.15)">
       <use xlink:href="#DejaVuSans-31"/>
       <use x="63.623047" xlink:href="#DejaVuSans-30"/>
       <use x="127.246094" xlink:href="#DejaVuSans-30"/>
      </g>
     </g>
    </g>
    <g id="xtick_3">
     <g id="line2d_5">
      <path clip-path="url(#p304c686b55)" d="M 198.764784 279.010828 
L 198.764784 12.898828 
" style="fill:none;stroke:#b0b0b0;stroke-linecap:square;stroke-width:0.8;"/>
     </g>
     <g id="line2d_6">
      <g>
       <use style="stroke:#000000;stroke-width:0.8;" x="198.764784" xlink:href="#m005f0a59be" y="279.010828"/>
      </g>
     </g>
     <g id="text_3">
      <!-- 200 -->
      <defs>
       <path d="M 19.1875 8.296875 
L 53.609375 8.296875 
L 53.609375 0 
L 7.328125 0 
L 7.328125 8.296875 
Q 12.9375 14.109375 22.625 23.890625 
Q 32.328125 33.6875 34.8125 36.53125 
Q 39.546875 41.84375 41.421875 45.53125 
Q 43.3125 49.21875 43.3125 52.78125 
Q 43.3125 58.59375 39.234375 62.25 
Q 35.15625 65.921875 28.609375 65.921875 
Q 23.96875 65.921875 18.8125 64.3125 
Q 13.671875 62.703125 7.8125 59.421875 
L 7.8125 69.390625 
Q 13.765625 71.78125 18.9375 73 
Q 24.125 74.21875 28.421875 74.21875 
Q 39.75 74.21875 46.484375 68.546875 
Q 53.21875 62.890625 53.21875 53.421875 
Q 53.21875 48.921875 51.53125 44.890625 
Q 49.859375 40.875 45.40625 35.40625 
Q 44.1875 33.984375 37.640625 27.21875 
Q 31.109375 20.453125 19.1875 8.296875 
z
" id="DejaVuSans-32"/>
      </defs>
      <g transform="translate(184.449159 297.408484)scale(0.15 -0.15)">
       <use xlink:href="#DejaVuSans-32"/>
       <use x="63.623047" xlink:href="#DejaVuSans-30"/>
       <use x="127.246094" xlink:href="#DejaVuSans-30"/>
      </g>
     </g>
    </g>
    <g id="xtick_4">
     <g id="line2d_7">
      <path clip-path="url(#p304c686b55)" d="M 267.441707 279.010828 
L 267.441707 12.898828 
" style="fill:none;stroke:#b0b0b0;stroke-linecap:square;stroke-width:0.8;"/>
     </g>
     <g id="line2d_8">
      <g>
       <use style="stroke:#000000;stroke-width:0.8;" x="267.441707" xlink:href="#m005f0a59be" y="279.010828"/>
      </g>
     </g>
     <g id="text_4">
      <!-- 300 -->
      <defs>
       <path d="M 40.578125 39.3125 
Q 47.65625 37.796875 51.625 33 
Q 55.609375 28.21875 55.609375 21.1875 
Q 55.609375 10.40625 48.1875 4.484375 
Q 40.765625 -1.421875 27.09375 -1.421875 
Q 22.515625 -1.421875 17.65625 -0.515625 
Q 12.796875 0.390625 7.625 2.203125 
L 7.625 11.71875 
Q 11.71875 9.328125 16.59375 8.109375 
Q 21.484375 6.890625 26.8125 6.890625 
Q 36.078125 6.890625 40.9375 10.546875 
Q 45.796875 14.203125 45.796875 21.1875 
Q 45.796875 27.640625 41.28125 31.265625 
Q 36.765625 34.90625 28.71875 34.90625 
L 20.21875 34.90625 
L 20.21875 43.015625 
L 29.109375 43.015625 
Q 36.375 43.015625 40.234375 45.921875 
Q 44.09375 48.828125 44.09375 54.296875 
Q 44.09375 59.90625 40.109375 62.90625 
Q 36.140625 65.921875 28.71875 65.921875 
Q 24.65625 65.921875 20.015625 65.03125 
Q 15.375 64.15625 9.8125 62.3125 
L 9.8125 71.09375 
Q 15.4375 72.65625 20.34375 73.4375 
Q 25.25 74.21875 29.59375 74.21875 
Q 40.828125 74.21875 47.359375 69.109375 
Q 53.90625 64.015625 53.90625 55.328125 
Q 53.90625 49.265625 50.4375 45.09375 
Q 46.96875 40.921875 40.578125 39.3125 
z
" id="DejaVuSans-33"/>
      </defs>
      <g transform="translate(253.126082 297.408484)scale(0.15 -0.15)">
       <use xlink:href="#DejaVuSans-33"/>
       <use x="63.623047" xlink:href="#DejaVuSans-30"/>
       <use x="127.246094" xlink:href="#DejaVuSans-30"/>
      </g>
     </g>
    </g>
    <g id="xtick_5">
     <g id="line2d_9">
      <path clip-path="url(#p304c686b55)" d="M 336.11863 279.010828 
L 336.11863 12.898828 
" style="fill:none;stroke:#b0b0b0;stroke-linecap:square;stroke-width:0.8;"/>
     </g>
     <g id="line2d_10">
      <g>
       <use style="stroke:#000000;stroke-width:0.8;" x="336.11863" xlink:href="#m005f0a59be" y="279.010828"/>
      </g>
     </g>
     <g id="text_5">
      <!-- 400 -->
      <defs>
       <path d="M 37.796875 64.3125 
L 12.890625 25.390625 
L 37.796875 25.390625 
z
M 35.203125 72.90625 
L 47.609375 72.90625 
L 47.609375 25.390625 
L 58.015625 25.390625 
L 58.015625 17.1875 
L 47.609375 17.1875 
L 47.609375 0 
L 37.796875 0 
L 37.796875 17.1875 
L 4.890625 17.1875 
L 4.890625 26.703125 
z
" id="DejaVuSans-34"/>
      </defs>
      <g transform="translate(321.803005 297.408484)scale(0.15 -0.15)">
       <use xlink:href="#DejaVuSans-34"/>
       <use x="63.623047" xlink:href="#DejaVuSans-30"/>
       <use x="127.246094" xlink:href="#DejaVuSans-30"/>
      </g>
     </g>
    </g>
    <g id="xtick_6">
     <g id="line2d_11">
      <path clip-path="url(#p304c686b55)" d="M 404.795553 279.010828 
L 404.795553 12.898828 
" style="fill:none;stroke:#b0b0b0;stroke-linecap:square;stroke-width:0.8;"/>
     </g>
     <g id="line2d_12">
      <g>
       <use style="stroke:#000000;stroke-width:0.8;" x="404.795553" xlink:href="#m005f0a59be" y="279.010828"/>
      </g>
     </g>
     <g id="text_6">
      <!-- 500 -->
      <defs>
       <path d="M 10.796875 72.90625 
L 49.515625 72.90625 
L 49.515625 64.59375 
L 19.828125 64.59375 
L 19.828125 46.734375 
Q 21.96875 47.46875 24.109375 47.828125 
Q 26.265625 48.1875 28.421875 48.1875 
Q 40.625 48.1875 47.75 41.5 
Q 54.890625 34.8125 54.890625 23.390625 
Q 54.890625 11.625 47.5625 5.09375 
Q 40.234375 -1.421875 26.90625 -1.421875 
Q 22.3125 -1.421875 17.546875 -0.640625 
Q 12.796875 0.140625 7.71875 1.703125 
L 7.71875 11.625 
Q 12.109375 9.234375 16.796875 8.0625 
Q 21.484375 6.890625 26.703125 6.890625 
Q 35.15625 6.890625 40.078125 11.328125 
Q 45.015625 15.765625 45.015625 23.390625 
Q 45.015625 31 40.078125 35.4375 
Q 35.15625 39.890625 26.703125 39.890625 
Q 22.75 39.890625 18.8125 39.015625 
Q 14.890625 38.140625 10.796875 36.28125 
z
" id="DejaVuSans-35"/>
      </defs>
      <g transform="translate(390.479928 297.408484)scale(0.15 -0.15)">
       <use xlink:href="#DejaVuSans-35"/>
       <use x="63.623047" xlink:href="#DejaVuSans-30"/>
       <use x="127.246094" xlink:href="#DejaVuSans-30"/>
      </g>
     </g>
    </g>
    <g id="text_7">
     <!-- Time ($\mu s$) -->
     <defs>
      <path d="M -0.296875 72.90625 
L 61.375 72.90625 
L 61.375 64.59375 
L 35.5 64.59375 
L 35.5 0 
L 25.59375 0 
L 25.59375 64.59375 
L -0.296875 64.59375 
z
" id="DejaVuSans-54"/>
      <path d="M 9.421875 54.6875 
L 18.40625 54.6875 
L 18.40625 0 
L 9.421875 0 
z
M 9.421875 75.984375 
L 18.40625 75.984375 
L 18.40625 64.59375 
L 9.421875 64.59375 
z
" id="DejaVuSans-69"/>
      <path d="M 52 44.1875 
Q 55.375 50.25 60.0625 53.125 
Q 64.75 56 71.09375 56 
Q 79.640625 56 84.28125 50.015625 
Q 88.921875 44.046875 88.921875 33.015625 
L 88.921875 0 
L 79.890625 0 
L 79.890625 32.71875 
Q 79.890625 40.578125 77.09375 44.375 
Q 74.3125 48.1875 68.609375 48.1875 
Q 61.625 48.1875 57.5625 43.546875 
Q 53.515625 38.921875 53.515625 30.90625 
L 53.515625 0 
L 44.484375 0 
L 44.484375 32.71875 
Q 44.484375 40.625 41.703125 44.40625 
Q 38.921875 48.1875 33.109375 48.1875 
Q 26.21875 48.1875 22.15625 43.53125 
Q 18.109375 38.875 18.109375 30.90625 
L 18.109375 0 
L 9.078125 0 
L 9.078125 54.6875 
L 18.109375 54.6875 
L 18.109375 46.1875 
Q 21.1875 51.21875 25.484375 53.609375 
Q 29.78125 56 35.6875 56 
Q 41.65625 56 45.828125 52.96875 
Q 50 49.953125 52 44.1875 
z
" id="DejaVuSans-6d"/>
      <path d="M 56.203125 29.59375 
L 56.203125 25.203125 
L 14.890625 25.203125 
Q 15.484375 15.921875 20.484375 11.0625 
Q 25.484375 6.203125 34.421875 6.203125 
Q 39.59375 6.203125 44.453125 7.46875 
Q 49.3125 8.734375 54.109375 11.28125 
L 54.109375 2.78125 
Q 49.265625 0.734375 44.1875 -0.34375 
Q 39.109375 -1.421875 33.890625 -1.421875 
Q 20.796875 -1.421875 13.15625 6.1875 
Q 5.515625 13.8125 5.515625 26.8125 
Q 5.515625 40.234375 12.765625 48.109375 
Q 20.015625 56 32.328125 56 
Q 43.359375 56 49.78125 48.890625 
Q 56.203125 41.796875 56.203125 29.59375 
z
M 47.21875 32.234375 
Q 47.125 39.59375 43.09375 43.984375 
Q 39.0625 48.390625 32.421875 48.390625 
Q 24.90625 48.390625 20.390625 44.140625 
Q 15.875 39.890625 15.1875 32.171875 
z
" id="DejaVuSans-65"/>
      <path id="DejaVuSans-20"/>
      <path d="M 31 75.875 
Q 24.46875 64.65625 21.28125 53.65625 
Q 18.109375 42.671875 18.109375 31.390625 
Q 18.109375 20.125 21.3125 9.0625 
Q 24.515625 -2 31 -13.1875 
L 23.1875 -13.1875 
Q 15.875 -1.703125 12.234375 9.375 
Q 8.59375 20.453125 8.59375 31.390625 
Q 8.59375 42.28125 12.203125 53.3125 
Q 15.828125 64.359375 23.1875 75.875 
z
" id="DejaVuSans-28"/>
      <path d="M -1.3125 -20.796875 
L 13.375 54.6875 
L 22.40625 54.6875 
L 15.765625 20.65625 
Q 15.578125 19.625 15.421875 18.359375 
Q 15.28125 17.09375 15.28125 15.828125 
Q 15.28125 11.28125 18.140625 8.828125 
Q 21 6.390625 26.3125 6.390625 
Q 33.546875 6.390625 37.984375 10.484375 
Q 42.4375 14.59375 44 22.796875 
L 50.203125 54.6875 
L 59.1875 54.6875 
L 51.03125 12.640625 
Q 50.828125 11.71875 50.75 11.03125 
Q 50.6875 10.359375 50.6875 9.8125 
Q 50.6875 8.296875 51.296875 7.59375 
Q 51.90625 6.890625 53.21875 6.890625 
Q 53.71875 6.890625 54.5625 7.125 
Q 55.421875 7.375 56.984375 8.015625 
L 55.609375 0.78125 
Q 53.46875 -0.296875 51.515625 -0.859375 
Q 49.5625 -1.421875 47.703125 -1.421875 
Q 44.484375 -1.421875 42.65625 0.625 
Q 40.828125 2.6875 40.828125 6.296875 
Q 38.09375 2.390625 34.296875 0.484375 
Q 30.515625 -1.421875 25.390625 -1.421875 
Q 20.84375 -1.421875 17.453125 0.671875 
Q 14.0625 2.78125 12.984375 6.203125 
L 7.71875 -20.796875 
z
" id="DejaVuSans-Oblique-3bc"/>
      <path d="M 50 53.078125 
L 48.296875 44.578125 
Q 44.734375 46.53125 40.765625 47.5 
Q 36.8125 48.484375 32.625 48.484375 
Q 25.53125 48.484375 21.453125 46.0625 
Q 17.390625 43.65625 17.390625 39.5 
Q 17.390625 34.671875 26.859375 32.078125 
Q 27.59375 31.890625 27.9375 31.78125 
L 30.8125 30.90625 
Q 39.796875 28.421875 42.796875 25.6875 
Q 45.796875 22.953125 45.796875 18.21875 
Q 45.796875 9.515625 38.890625 4.046875 
Q 31.984375 -1.421875 20.796875 -1.421875 
Q 16.453125 -1.421875 11.671875 -0.578125 
Q 6.890625 0.25 1.125 2 
L 2.875 11.28125 
Q 7.8125 8.734375 12.59375 7.421875 
Q 17.390625 6.109375 21.78125 6.109375 
Q 28.375 6.109375 32.5 8.9375 
Q 36.625 11.765625 36.625 16.109375 
Q 36.625 20.796875 25.78125 23.6875 
L 24.859375 23.921875 
L 21.78125 24.703125 
Q 14.9375 26.515625 11.765625 29.46875 
Q 8.59375 32.421875 8.59375 37.015625 
Q 8.59375 45.75 15.15625 50.875 
Q 21.734375 56 33.015625 56 
Q 37.453125 56 41.671875 55.265625 
Q 45.90625 54.546875 50 53.078125 
z
" id="DejaVuSans-Oblique-73"/>
      <path d="M 8.015625 75.875 
L 15.828125 75.875 
Q 23.140625 64.359375 26.78125 53.3125 
Q 30.421875 42.28125 30.421875 31.390625 
Q 30.421875 20.453125 26.78125 9.375 
Q 23.140625 -1.703125 15.828125 -13.1875 
L 8.015625 -13.1875 
Q 14.5 -2 17.703125 9.0625 
Q 20.90625 20.125 20.90625 31.390625 
Q 20.90625 42.671875 17.703125 53.65625 
Q 14.5 64.65625 8.015625 75.875 
z
" id="DejaVuSans-29"/>
     </defs>
     <g transform="translate(192.570938 319.728016)scale(0.2 -0.2)">
      <use transform="translate(0 0.015625)" xlink:href="#DejaVuSans-54"/>
      <use transform="translate(61.083984 0.015625)" xlink:href="#DejaVuSans-69"/>
      <use transform="translate(88.867188 0.015625)" xlink:href="#DejaVuSans-6d"/>
      <use transform="translate(186.279297 0.015625)" xlink:href="#DejaVuSans-65"/>
      <use transform="translate(247.802734 0.015625)" xlink:href="#DejaVuSans-20"/>
      <use transform="translate(279.589844 0.015625)" xlink:href="#DejaVuSans-28"/>
      <use transform="translate(318.603516 0.015625)" xlink:href="#DejaVuSans-Oblique-3bc"/>
      <use transform="translate(382.226562 0.015625)" xlink:href="#DejaVuSans-Oblique-73"/>
      <use transform="translate(434.326172 0.015625)" xlink:href="#DejaVuSans-29"/>
     </g>
    </g>
   </g>
   <g id="matplotlib.axis_2">
    <g id="ytick_1">
     <g id="line2d_13">
      <path clip-path="url(#p304c686b55)" d="M 61.410938 279.010828 
L 418.530938 279.010828 
" style="fill:none;stroke:#b0b0b0;stroke-linecap:square;stroke-width:0.8;"/>
     </g>
     <g id="line2d_14">
      <defs>
       <path d="M 0 0 
L -3.5 0 
" id="mc3ce260a5b" style="stroke:#000000;stroke-width:0.8;"/>
      </defs>
      <g>
       <use style="stroke:#000000;stroke-width:0.8;" x="61.410938" xlink:href="#mc3ce260a5b" y="279.010828"/>
      </g>
     </g>
     <g id="text_8">
      <!-- 0.0 -->
      <defs>
       <path d="M 10.6875 12.40625 
L 21 12.40625 
L 21 0 
L 10.6875 0 
z
" id="DejaVuSans-2e"/>
      </defs>
      <g transform="translate(30.55625 284.709656)scale(0.15 -0.15)">
       <use xlink:href="#DejaVuSans-30"/>
       <use x="63.623047" xlink:href="#DejaVuSans-2e"/>
       <use x="95.410156" xlink:href="#DejaVuSans-30"/>
      </g>
     </g>
    </g>
    <g id="ytick_2">
     <g id="line2d_15">
      <path clip-path="url(#p304c686b55)" d="M 61.410938 225.788428 
L 418.530938 225.788428 
" style="fill:none;stroke:#b0b0b0;stroke-linecap:square;stroke-width:0.8;"/>
     </g>
     <g id="line2d_16">
      <g>
       <use style="stroke:#000000;stroke-width:0.8;" x="61.410938" xlink:href="#mc3ce260a5b" y="225.788428"/>
      </g>
     </g>
     <g id="text_9">
      <!-- 0.2 -->
      <g transform="translate(30.55625 231.487256)scale(0.15 -0.15)">
       <use xlink:href="#DejaVuSans-30"/>
       <use x="63.623047" xlink:href="#DejaVuSans-2e"/>
       <use x="95.410156" xlink:href="#DejaVuSans-32"/>
      </g>
     </g>
    </g>
    <g id="ytick_3">
     <g id="line2d_17">
      <path clip-path="url(#p304c686b55)" d="M 61.410938 172.566028 
L 418.530938 172.566028 
" style="fill:none;stroke:#b0b0b0;stroke-linecap:square;stroke-width:0.8;"/>
     </g>
     <g id="line2d_18">
      <g>
       <use style="stroke:#000000;stroke-width:0.8;" x="61.410938" xlink:href="#mc3ce260a5b" y="172.566028"/>
      </g>
     </g>
     <g id="text_10">
      <!-- 0.4 -->
      <g transform="translate(30.55625 178.264856)scale(0.15 -0.15)">
       <use xlink:href="#DejaVuSans-30"/>
       <use x="63.623047" xlink:href="#DejaVuSans-2e"/>
       <use x="95.410156" xlink:href="#DejaVuSans-34"/>
      </g>
     </g>
    </g>
    <g id="ytick_4">
     <g id="line2d_19">
      <path clip-path="url(#p304c686b55)" d="M 61.410938 119.343628 
L 418.530938 119.343628 
" style="fill:none;stroke:#b0b0b0;stroke-linecap:square;stroke-width:0.8;"/>
     </g>
     <g id="line2d_20">
      <g>
       <use style="stroke:#000000;stroke-width:0.8;" x="61.410938" xlink:href="#mc3ce260a5b" y="119.343628"/>
      </g>
     </g>
     <g id="text_11">
      <!-- 0.6 -->
      <defs>
       <path d="M 33.015625 40.375 
Q 26.375 40.375 22.484375 35.828125 
Q 18.609375 31.296875 18.609375 23.390625 
Q 18.609375 15.53125 22.484375 10.953125 
Q 26.375 6.390625 33.015625 6.390625 
Q 39.65625 6.390625 43.53125 10.953125 
Q 47.40625 15.53125 47.40625 23.390625 
Q 47.40625 31.296875 43.53125 35.828125 
Q 39.65625 40.375 33.015625 40.375 
z
M 52.59375 71.296875 
L 52.59375 62.3125 
Q 48.875 64.0625 45.09375 64.984375 
Q 41.3125 65.921875 37.59375 65.921875 
Q 27.828125 65.921875 22.671875 59.328125 
Q 17.53125 52.734375 16.796875 39.40625 
Q 19.671875 43.65625 24.015625 45.921875 
Q 28.375 48.1875 33.59375 48.1875 
Q 44.578125 48.1875 50.953125 41.515625 
Q 57.328125 34.859375 57.328125 23.390625 
Q 57.328125 12.15625 50.6875 5.359375 
Q 44.046875 -1.421875 33.015625 -1.421875 
Q 20.359375 -1.421875 13.671875 8.265625 
Q 6.984375 17.96875 6.984375 36.375 
Q 6.984375 53.65625 15.1875 63.9375 
Q 23.390625 74.21875 37.203125 74.21875 
Q 40.921875 74.21875 44.703125 73.484375 
Q 48.484375 72.75 52.59375 71.296875 
z
" id="DejaVuSans-36"/>
      </defs>
      <g transform="translate(30.55625 125.042456)scale(0.15 -0.15)">
       <use xlink:href="#DejaVuSans-30"/>
       <use x="63.623047" xlink:href="#DejaVuSans-2e"/>
       <use x="95.410156" xlink:href="#DejaVuSans-36"/>
      </g>
     </g>
    </g>
    <g id="ytick_5">
     <g id="line2d_21">
      <path clip-path="url(#p304c686b55)" d="M 61.410938 66.121228 
L 418.530938 66.121228 
" style="fill:none;stroke:#b0b0b0;stroke-linecap:square;stroke-width:0.8;"/>
     </g>
     <g id="line2d_22">
      <g>
       <use style="stroke:#000000;stroke-width:0.8;" x="61.410938" xlink:href="#mc3ce260a5b" y="66.121228"/>
      </g>
     </g>
     <g id="text_12">
      <!-- 0.8 -->
      <defs>
       <path d="M 31.78125 34.625 
Q 24.75 34.625 20.71875 30.859375 
Q 16.703125 27.09375 16.703125 20.515625 
Q 16.703125 13.921875 20.71875 10.15625 
Q 24.75 6.390625 31.78125 6.390625 
Q 38.8125 6.390625 42.859375 10.171875 
Q 46.921875 13.96875 46.921875 20.515625 
Q 46.921875 27.09375 42.890625 30.859375 
Q 38.875 34.625 31.78125 34.625 
z
M 21.921875 38.8125 
Q 15.578125 40.375 12.03125 44.71875 
Q 8.5 49.078125 8.5 55.328125 
Q 8.5 64.0625 14.71875 69.140625 
Q 20.953125 74.21875 31.78125 74.21875 
Q 42.671875 74.21875 48.875 69.140625 
Q 55.078125 64.0625 55.078125 55.328125 
Q 55.078125 49.078125 51.53125 44.71875 
Q 48 40.375 41.703125 38.8125 
Q 48.828125 37.15625 52.796875 32.3125 
Q 56.78125 27.484375 56.78125 20.515625 
Q 56.78125 9.90625 50.3125 4.234375 
Q 43.84375 -1.421875 31.78125 -1.421875 
Q 19.734375 -1.421875 13.25 4.234375 
Q 6.78125 9.90625 6.78125 20.515625 
Q 6.78125 27.484375 10.78125 32.3125 
Q 14.796875 37.15625 21.921875 38.8125 
z
M 18.3125 54.390625 
Q 18.3125 48.734375 21.84375 45.5625 
Q 25.390625 42.390625 31.78125 42.390625 
Q 38.140625 42.390625 41.71875 45.5625 
Q 45.3125 48.734375 45.3125 54.390625 
Q 45.3125 60.0625 41.71875 63.234375 
Q 38.140625 66.40625 31.78125 66.40625 
Q 25.390625 66.40625 21.84375 63.234375 
Q 18.3125 60.0625 18.3125 54.390625 
z
" id="DejaVuSans-38"/>
      </defs>
      <g transform="translate(30.55625 71.820056)scale(0.15 -0.15)">
       <use xlink:href="#DejaVuSans-30"/>
       <use x="63.623047" xlink:href="#DejaVuSans-2e"/>
       <use x="95.410156" xlink:href="#DejaVuSans-38"/>
      </g>
     </g>
    </g>
    <g id="ytick_6">
     <g id="line2d_23">
      <path clip-path="url(#p304c686b55)" d="M 61.410938 12.898828 
L 418.530938 12.898828 
" style="fill:none;stroke:#b0b0b0;stroke-linecap:square;stroke-width:0.8;"/>
     </g>
     <g id="line2d_24">
      <g>
       <use style="stroke:#000000;stroke-width:0.8;" x="61.410938" xlink:href="#mc3ce260a5b" y="12.898828"/>
      </g>
     </g>
     <g id="text_13">
      <!-- 1.0 -->
      <g transform="translate(30.55625 18.597656)scale(0.15 -0.15)">
       <use xlink:href="#DejaVuSans-31"/>
       <use x="63.623047" xlink:href="#DejaVuSans-2e"/>
       <use x="95.410156" xlink:href="#DejaVuSans-30"/>
      </g>
     </g>
    </g>
    <g id="text_14">
     <!-- F=1 population -->
     <defs>
      <path d="M 9.8125 72.90625 
L 51.703125 72.90625 
L 51.703125 64.59375 
L 19.671875 64.59375 
L 19.671875 43.109375 
L 48.578125 43.109375 
L 48.578125 34.8125 
L 19.671875 34.8125 
L 19.671875 0 
L 9.8125 0 
z
" id="DejaVuSans-46"/>
      <path d="M 10.59375 45.40625 
L 73.1875 45.40625 
L 73.1875 37.203125 
L 10.59375 37.203125 
z
M 10.59375 25.484375 
L 73.1875 25.484375 
L 73.1875 17.1875 
L 10.59375 17.1875 
z
" id="DejaVuSans-3d"/>
      <path d="M 18.109375 8.203125 
L 18.109375 -20.796875 
L 9.078125 -20.796875 
L 9.078125 54.6875 
L 18.109375 54.6875 
L 18.109375 46.390625 
Q 20.953125 51.265625 25.265625 53.625 
Q 29.59375 56 35.59375 56 
Q 45.5625 56 51.78125 48.09375 
Q 58.015625 40.1875 58.015625 27.296875 
Q 58.015625 14.40625 51.78125 6.484375 
Q 45.5625 -1.421875 35.59375 -1.421875 
Q 29.59375 -1.421875 25.265625 0.953125 
Q 20.953125 3.328125 18.109375 8.203125 
z
M 48.6875 27.296875 
Q 48.6875 37.203125 44.609375 42.84375 
Q 40.53125 48.484375 33.40625 48.484375 
Q 26.265625 48.484375 22.1875 42.84375 
Q 18.109375 37.203125 18.109375 27.296875 
Q 18.109375 17.390625 22.1875 11.75 
Q 26.265625 6.109375 33.40625 6.109375 
Q 40.53125 6.109375 44.609375 11.75 
Q 48.6875 17.390625 48.6875 27.296875 
z
" id="DejaVuSans-70"/>
      <path d="M 30.609375 48.390625 
Q 23.390625 48.390625 19.1875 42.75 
Q 14.984375 37.109375 14.984375 27.296875 
Q 14.984375 17.484375 19.15625 11.84375 
Q 23.34375 6.203125 30.609375 6.203125 
Q 37.796875 6.203125 41.984375 11.859375 
Q 46.1875 17.53125 46.1875 27.296875 
Q 46.1875 37.015625 41.984375 42.703125 
Q 37.796875 48.390625 30.609375 48.390625 
z
M 30.609375 56 
Q 42.328125 56 49.015625 48.375 
Q 55.71875 40.765625 55.71875 27.296875 
Q 55.71875 13.875 49.015625 6.21875 
Q 42.328125 -1.421875 30.609375 -1.421875 
Q 18.84375 -1.421875 12.171875 6.21875 
Q 5.515625 13.875 5.515625 27.296875 
Q 5.515625 40.765625 12.171875 48.375 
Q 18.84375 56 30.609375 56 
z
" id="DejaVuSans-6f"/>
      <path d="M 8.5 21.578125 
L 8.5 54.6875 
L 17.484375 54.6875 
L 17.484375 21.921875 
Q 17.484375 14.15625 20.5 10.265625 
Q 23.53125 6.390625 29.59375 6.390625 
Q 36.859375 6.390625 41.078125 11.03125 
Q 45.3125 15.671875 45.3125 23.6875 
L 45.3125 54.6875 
L 54.296875 54.6875 
L 54.296875 0 
L 45.3125 0 
L 45.3125 8.40625 
Q 42.046875 3.421875 37.71875 1 
Q 33.40625 -1.421875 27.6875 -1.421875 
Q 18.265625 -1.421875 13.375 4.4375 
Q 8.5 10.296875 8.5 21.578125 
z
M 31.109375 56 
z
" id="DejaVuSans-75"/>
      <path d="M 9.421875 75.984375 
L 18.40625 75.984375 
L 18.40625 0 
L 9.421875 0 
z
" id="DejaVuSans-6c"/>
      <path d="M 34.28125 27.484375 
Q 23.390625 27.484375 19.1875 25 
Q 14.984375 22.515625 14.984375 16.5 
Q 14.984375 11.71875 18.140625 8.90625 
Q 21.296875 6.109375 26.703125 6.109375 
Q 34.1875 6.109375 38.703125 11.40625 
Q 43.21875 16.703125 43.21875 25.484375 
L 43.21875 27.484375 
z
M 52.203125 31.203125 
L 52.203125 0 
L 43.21875 0 
L 43.21875 8.296875 
Q 40.140625 3.328125 35.546875 0.953125 
Q 30.953125 -1.421875 24.3125 -1.421875 
Q 15.921875 -1.421875 10.953125 3.296875 
Q 6 8.015625 6 15.921875 
Q 6 25.140625 12.171875 29.828125 
Q 18.359375 34.515625 30.609375 34.515625 
L 43.21875 34.515625 
L 43.21875 35.40625 
Q 43.21875 41.609375 39.140625 45 
Q 35.0625 48.390625 27.6875 48.390625 
Q 23 48.390625 18.546875 47.265625 
Q 14.109375 46.140625 10.015625 43.890625 
L 10.015625 52.203125 
Q 14.9375 54.109375 19.578125 55.046875 
Q 24.21875 56 28.609375 56 
Q 40.484375 56 46.34375 49.84375 
Q 52.203125 43.703125 52.203125 31.203125 
z
" id="DejaVuSans-61"/>
      <path d="M 18.3125 70.21875 
L 18.3125 54.6875 
L 36.8125 54.6875 
L 36.8125 47.703125 
L 18.3125 47.703125 
L 18.3125 18.015625 
Q 18.3125 11.328125 20.140625 9.421875 
Q 21.96875 7.515625 27.59375 7.515625 
L 36.8125 7.515625 
L 36.8125 0 
L 27.59375 0 
Q 17.1875 0 13.234375 3.875 
Q 9.28125 7.765625 9.28125 18.015625 
L 9.28125 47.703125 
L 2.6875 47.703125 
L 2.6875 54.6875 
L 9.28125 54.6875 
L 9.28125 70.21875 
z
" id="DejaVuSans-74"/>
      <path d="M 54.890625 33.015625 
L 54.890625 0 
L 45.90625 0 
L 45.90625 32.71875 
Q 45.90625 40.484375 42.875 44.328125 
Q 39.84375 48.1875 33.796875 48.1875 
Q 26.515625 48.1875 22.3125 43.546875 
Q 18.109375 38.921875 18.109375 30.90625 
L 18.109375 0 
L 9.078125 0 
L 9.078125 54.6875 
L 18.109375 54.6875 
L 18.109375 46.1875 
Q 21.34375 51.125 25.703125 53.5625 
Q 30.078125 56 35.796875 56 
Q 45.21875 56 50.046875 50.171875 
Q 54.890625 44.34375 54.890625 33.015625 
z
" id="DejaVuSans-6e"/>
     </defs>
     <g transform="translate(22.396875 222.840766)rotate(-90)scale(0.2 -0.2)">
      <use xlink:href="#DejaVuSans-46"/>
      <use x="57.519531" xlink:href="#DejaVuSans-3d"/>
      <use x="141.308594" xlink:href="#DejaVuSans-31"/>
      <use x="204.931641" xlink:href="#DejaVuSans-20"/>
      <use x="236.71875" xlink:href="#DejaVuSans-70"/>
      <use x="300.195312" xlink:href="#DejaVuSans-6f"/>
      <use x="361.376953" xlink:href="#DejaVuSans-70"/>
      <use x="424.853516" xlink:href="#DejaVuSans-75"/>
      <use x="488.232422" xlink:href="#DejaVuSans-6c"/>
      <use x="516.015625" xlink:href="#DejaVuSans-61"/>
      <use x="577.294922" xlink:href="#DejaVuSans-74"/>
      <use x="616.503906" xlink:href="#DejaVuSans-69"/>
      <use x="644.287109" xlink:href="#DejaVuSans-6f"/>
      <use x="705.46875" xlink:href="#DejaVuSans-6e"/>
     </g>
    </g>
   </g>
   <g id="LineCollection_1">
    <path clip-path="url(#p304c686b55)" d="M 61.410938 279.010828 
L 61.410938 277.828108 
" style="fill:none;stroke:#1f77b4;stroke-width:1.5;"/>
    <path clip-path="url(#p304c686b55)" d="M 73.086014 229.629923 
L 73.086014 214.700691 
" style="fill:none;stroke:#1f77b4;stroke-width:1.5;"/>
    <path clip-path="url(#p304c686b55)" d="M 84.761091 148.337002 
L 84.761091 130.733917 
" style="fill:none;stroke:#1f77b4;stroke-width:1.5;"/>
    <path clip-path="url(#p304c686b55)" d="M 96.436168 71.678143 
L 96.436168 58.155068 
" style="fill:none;stroke:#1f77b4;stroke-width:1.5;"/>
    <path clip-path="url(#p304c686b55)" d="M 108.111245 85.893494 
L 108.111245 69.54847 
" style="fill:none;stroke:#1f77b4;stroke-width:1.5;"/>
    <path clip-path="url(#p304c686b55)" d="M 119.786322 128.715479 
L 119.786322 111.577626 
" style="fill:none;stroke:#1f77b4;stroke-width:1.5;"/>
    <path clip-path="url(#p304c686b55)" d="M 131.461399 228.245979 
L 131.461399 213.501515 
" style="fill:none;stroke:#1f77b4;stroke-width:1.5;"/>
    <path clip-path="url(#p304c686b55)" d="M 143.136476 248.859356 
L 143.136476 236.6943 
" style="fill:none;stroke:#1f77b4;stroke-width:1.5;"/>
    <path clip-path="url(#p304c686b55)" d="M 154.811553 199.823814 
L 154.811553 183.454769 
" style="fill:none;stroke:#1f77b4;stroke-width:1.5;"/>
    <path clip-path="url(#p304c686b55)" d="M 166.48663 139.648073 
L 166.48663 121.744152 
" style="fill:none;stroke:#1f77b4;stroke-width:1.5;"/>
    <path clip-path="url(#p304c686b55)" d="M 178.161707 64.760821 
L 178.161707 51.346337 
" style="fill:none;stroke:#1f77b4;stroke-width:1.5;"/>
    <path clip-path="url(#p304c686b55)" d="M 189.836784 69.60455 
L 189.836784 55.985106 
" style="fill:none;stroke:#1f77b4;stroke-width:1.5;"/>
    <path clip-path="url(#p304c686b55)" d="M 201.511861 153.700648 
L 201.511861 135.800754 
" style="fill:none;stroke:#1f77b4;stroke-width:1.5;"/>
    <path clip-path="url(#p304c686b55)" d="M 213.186938 229.164197 
L 213.186938 214.970544 
" style="fill:none;stroke:#1f77b4;stroke-width:1.5;"/>
    <path clip-path="url(#p304c686b55)" d="M 224.862014 236.825179 
L 224.862014 223.276477 
" style="fill:none;stroke:#1f77b4;stroke-width:1.5;"/>
    <path clip-path="url(#p304c686b55)" d="M 236.537091 185.598028 
L 236.537091 167.818647 
" style="fill:none;stroke:#1f77b4;stroke-width:1.5;"/>
    <path clip-path="url(#p304c686b55)" d="M 248.212168 109.555734 
L 248.212168 92.40057 
" style="fill:none;stroke:#1f77b4;stroke-width:1.5;"/>
    <path clip-path="url(#p304c686b55)" d="M 259.887245 71.150238 
L 259.887245 56.903418 
" style="fill:none;stroke:#1f77b4;stroke-width:1.5;"/>
    <path clip-path="url(#p304c686b55)" d="M 271.562322 85.586888 
L 271.562322 70.28345 
" style="fill:none;stroke:#1f77b4;stroke-width:1.5;"/>
    <path clip-path="url(#p304c686b55)" d="M 283.237399 156.007596 
L 283.237399 138.2675 
" style="fill:none;stroke:#1f77b4;stroke-width:1.5;"/>
    <path clip-path="url(#p304c686b55)" d="M 294.912476 220.555216 
L 294.912476 205.018002 
" style="fill:none;stroke:#1f77b4;stroke-width:1.5;"/>
    <path clip-path="url(#p304c686b55)" d="M 306.587553 225.771278 
L 306.587553 211.391178 
" style="fill:none;stroke:#1f77b4;stroke-width:1.5;"/>
    <path clip-path="url(#p304c686b55)" d="M 318.26263 185.791346 
L 318.26263 168.997095 
" style="fill:none;stroke:#1f77b4;stroke-width:1.5;"/>
    <path clip-path="url(#p304c686b55)" d="M 329.937707 127.388352 
L 329.937707 109.549812 
" style="fill:none;stroke:#1f77b4;stroke-width:1.5;"/>
    <path clip-path="url(#p304c686b55)" d="M 341.612784 87.818034 
L 341.612784 72.245222 
" style="fill:none;stroke:#1f77b4;stroke-width:1.5;"/>
    <path clip-path="url(#p304c686b55)" d="M 353.287861 110.325524 
L 353.287861 93.288906 
" style="fill:none;stroke:#1f77b4;stroke-width:1.5;"/>
    <path clip-path="url(#p304c686b55)" d="M 364.962938 158.156639 
L 364.962938 139.970587 
" style="fill:none;stroke:#1f77b4;stroke-width:1.5;"/>
    <path clip-path="url(#p304c686b55)" d="M 376.638014 223.389397 
L 376.638014 207.475294 
" style="fill:none;stroke:#1f77b4;stroke-width:1.5;"/>
    <path clip-path="url(#p304c686b55)" d="M 388.313091 216.175024 
L 388.313091 200.89748 
" style="fill:none;stroke:#1f77b4;stroke-width:1.5;"/>
    <path clip-path="url(#p304c686b55)" d="M 399.988168 194.236861 
L 399.988168 177.389165 
" style="fill:none;stroke:#1f77b4;stroke-width:1.5;"/>
    <path clip-path="url(#p304c686b55)" d="M 411.663245 125.330724 
L 411.663245 107.715449 
" style="fill:none;stroke:#1f77b4;stroke-width:1.5;"/>
   </g>
   <g id="LineCollection_2">
    <path clip-path="url(#p304c686b55)" d="M 61.410938 274.780846 
L 61.410938 267.789145 
" style="fill:none;stroke:#d62728;stroke-width:1.5;"/>
    <path clip-path="url(#p304c686b55)" d="M 73.086014 244.498795 
L 73.086014 229.226513 
" style="fill:none;stroke:#d62728;stroke-width:1.5;"/>
    <path clip-path="url(#p304c686b55)" d="M 84.761091 171.788241 
L 84.761091 151.873416 
" style="fill:none;stroke:#d62728;stroke-width:1.5;"/>
    <path clip-path="url(#p304c686b55)" d="M 96.436168 193.132676 
L 96.436168 173.949861 
" style="fill:none;stroke:#d62728;stroke-width:1.5;"/>
    <path clip-path="url(#p304c686b55)" d="M 108.111245 209.353699 
L 108.111245 190.306828 
" style="fill:none;stroke:#d62728;stroke-width:1.5;"/>
    <path clip-path="url(#p304c686b55)" d="M 119.786322 208.196763 
L 119.786322 189.535209 
" style="fill:none;stroke:#d62728;stroke-width:1.5;"/>
    <path clip-path="url(#p304c686b55)" d="M 131.461399 196.798207 
L 131.461399 176.178681 
" style="fill:none;stroke:#d62728;stroke-width:1.5;"/>
    <path clip-path="url(#p304c686b55)" d="M 143.136476 173.845857 
L 143.136476 152.990999 
" style="fill:none;stroke:#d62728;stroke-width:1.5;"/>
    <path clip-path="url(#p304c686b55)" d="M 154.811553 198.91833 
L 154.811553 178.888238 
" style="fill:none;stroke:#d62728;stroke-width:1.5;"/>
    <path clip-path="url(#p304c686b55)" d="M 166.48663 189.481254 
L 166.48663 169.739084 
" style="fill:none;stroke:#d62728;stroke-width:1.5;"/>
    <path clip-path="url(#p304c686b55)" d="M 178.161707 178.990023 
L 178.161707 159.066222 
" style="fill:none;stroke:#d62728;stroke-width:1.5;"/>
    <path clip-path="url(#p304c686b55)" d="M 189.836784 160.792204 
L 189.836784 140.454715 
" style="fill:none;stroke:#d62728;stroke-width:1.5;"/>
    <path clip-path="url(#p304c686b55)" d="M 201.511861 182.052838 
L 201.511861 161.416019 
" style="fill:none;stroke:#d62728;stroke-width:1.5;"/>
    <path clip-path="url(#p304c686b55)" d="M 213.186938 189.419048 
L 213.186938 168.583785 
" style="fill:none;stroke:#d62728;stroke-width:1.5;"/>
    <path clip-path="url(#p304c686b55)" d="M 224.862014 173.882357 
L 224.862014 152.190326 
" style="fill:none;stroke:#d62728;stroke-width:1.5;"/>
    <path clip-path="url(#p304c686b55)" d="M 236.537091 172.463294 
L 236.537091 151.447173 
" style="fill:none;stroke:#d62728;stroke-width:1.5;"/>
   </g>
   <g id="line2d_25">
    <path clip-path="url(#p304c686b55)" d="M 61.410938 278.518987 
L 62.839418 278.518987 
L 63.196538 277.777225 
L 63.553658 277.777225 
L 63.910778 276.273663 
L 64.267898 276.183919 
L 64.625018 275.094665 
L 64.982138 273.580451 
L 65.696378 271.764111 
L 66.053498 270.479036 
L 66.410618 269.686811 
L 66.767738 268.358942 
L 67.481978 263.95663 
L 67.839098 263.766974 
L 68.553338 259.635258 
L 68.910458 258.578271 
L 69.267578 255.72682 
L 69.624698 255.25843 
L 69.981818 251.304679 
L 70.696058 247.517314 
L 71.410298 243.733084 
L 71.767418 240.269159 
L 72.124538 238.489837 
L 73.553018 227.539681 
L 73.910138 223.460899 
L 74.267258 222.240987 
L 76.409978 203.22575 
L 76.767098 199.26381 
L 77.124218 198.070035 
L 77.481338 194.449853 
L 77.838458 192.166019 
L 78.195578 187.069907 
L 78.552698 184.38038 
L 79.624058 174.595322 
L 80.338298 168.588064 
L 81.052538 160.200117 
L 81.766778 155.142907 
L 82.123898 150.906694 
L 82.481018 148.362148 
L 83.195258 141.663751 
L 83.552378 139.121192 
L 83.909498 135.507265 
L 84.266618 133.134284 
L 84.623738 128.300688 
L 84.980858 126.35847 
L 85.695098 120.606327 
L 86.052218 116.429729 
L 86.409338 114.535206 
L 88.194938 99.459181 
L 90.694778 82.132695 
L 91.409018 79.044885 
L 91.766138 76.0477 
L 92.123258 74.764072 
L 92.480378 71.488765 
L 92.837498 70.435218 
L 93.551738 66.011884 
L 93.908858 64.953873 
L 94.265978 62.988557 
L 94.623098 61.691924 
L 94.980218 59.325038 
L 95.337338 59.280953 
L 95.694458 56.896504 
L 96.051578 57.028169 
L 96.765818 54.388478 
L 97.122938 53.900291 
L 97.480058 54.184873 
L 97.837178 53.578535 
L 98.194298 52.060002 
L 98.551418 52.39442 
L 98.908538 51.784641 
L 99.265658 49.636223 
L 99.622778 51.090076 
L 99.979898 50.327974 
L 100.337018 51.15516 
L 100.694138 50.724938 
L 101.051258 51.169528 
L 101.408378 51.796674 
L 101.765498 50.564185 
L 102.122618 51.99417 
L 102.479738 51.762451 
L 102.836858 52.372717 
L 103.193978 54.116304 
L 103.551098 53.796821 
L 104.265338 56.555439 
L 104.622458 58.198186 
L 104.979578 58.279721 
L 105.336698 59.696098 
L 105.693818 59.932047 
L 106.050938 61.294156 
L 106.765178 65.000526 
L 107.122298 66.01948 
L 107.836538 69.164128 
L 108.193658 70.120059 
L 108.550778 73.956602 
L 108.907898 74.969491 
L 109.265018 77.824632 
L 109.622138 78.849823 
L 109.979258 80.900723 
L 110.693498 85.726738 
L 111.050618 88.387326 
L 111.407738 89.659613 
L 111.764858 91.676501 
L 112.479098 98.026853 
L 113.193338 102.403001 
L 113.550458 106.711852 
L 113.907578 108.11444 
L 115.693178 121.848894 
L 116.050298 123.778343 
L 117.121658 133.489622 
L 118.193018 141.96041 
L 118.907258 148.649497 
L 119.621498 154.844639 
L 119.978618 157.087844 
L 120.692858 163.636845 
L 123.192698 183.456526 
L 123.549818 187.109233 
L 123.906938 189.321757 
L 124.264058 192.947308 
L 124.621178 193.880026 
L 125.335418 201.408488 
L 126.049658 205.580965 
L 126.763898 210.532728 
L 127.121018 214.202553 
L 127.478138 215.743484 
L 128.192378 220.637493 
L 128.549498 224.207455 
L 128.906618 224.599489 
L 129.263738 228.374699 
L 131.049338 237.510376 
L 131.406458 240.016353 
L 131.763578 241.402442 
L 132.477818 245.643346 
L 133.192058 247.974806 
L 133.549178 248.882871 
L 133.906298 251.807746 
L 134.263418 252.536622 
L 134.620538 252.885945 
L 134.977658 255.519547 
L 135.334778 255.811117 
L 135.691898 257.279968 
L 136.049018 257.395387 
L 136.763258 260.067411 
L 137.120378 260.140019 
L 137.477498 261.061741 
L 137.834618 261.275036 
L 138.191738 262.561378 
L 138.548858 262.313012 
L 138.905978 263.341439 
L 139.263098 262.784691 
L 139.620218 264.450566 
L 139.977338 262.801427 
L 140.334458 263.731708 
L 140.691578 262.981653 
L 141.048698 263.61862 
L 141.405818 263.514678 
L 141.762938 262.429717 
L 142.120058 262.462632 
L 142.477178 262.024876 
L 142.834298 261.19789 
L 143.191418 261.730212 
L 143.905658 259.310093 
L 144.262778 259.007674 
L 144.619898 259.087564 
L 144.977018 257.153437 
L 145.691258 254.593659 
L 146.048378 253.936661 
L 146.405498 253.027014 
L 146.762618 251.439224 
L 147.119738 250.409012 
L 147.833978 246.383263 
L 148.191098 246.004838 
L 148.905338 243.440349 
L 149.619578 239.127411 
L 149.976698 237.473803 
L 150.333818 234.997148 
L 151.405178 229.722397 
L 151.762298 226.749942 
L 152.119418 225.357585 
L 152.833658 221.952244 
L 153.190778 218.130413 
L 153.547898 216.556638 
L 153.905018 213.580777 
L 154.262138 212.497189 
L 154.619258 208.950853 
L 155.333498 205.081654 
L 155.690618 201.266059 
L 156.047738 200.224257 
L 156.404858 196.466721 
L 158.190458 184.488186 
L 159.618938 172.971885 
L 160.333178 168.41187 
L 161.047418 162.698102 
L 162.118778 154.84867 
L 162.475898 151.414556 
L 162.833018 149.576579 
L 163.190138 146.812082 
L 163.547258 142.988558 
L 163.904378 141.363028 
L 164.261498 138.118699 
L 164.975738 134.828353 
L 165.332858 132.015165 
L 165.689978 128.033372 
L 166.404218 123.850703 
L 166.761338 121.153344 
L 167.118458 119.50012 
L 167.475578 115.919951 
L 167.832698 114.250519 
L 168.189818 110.57515 
L 168.546938 110.552501 
L 168.904058 107.846798 
L 169.261178 106.348524 
L 169.975418 100.845851 
L 170.689658 97.041651 
L 171.046778 96.203944 
L 172.118138 89.777684 
L 172.832378 87.580518 
L 173.189498 85.276855 
L 173.546618 84.036125 
L 173.903738 81.495665 
L 174.617978 78.95345 
L 174.975098 77.989592 
L 175.332218 77.351333 
L 175.689338 76.354883 
L 176.046458 74.731589 
L 176.403578 73.943435 
L 176.760698 72.034569 
L 177.117818 72.11973 
L 177.474938 70.436682 
L 177.832058 70.700941 
L 178.546298 69.820074 
L 179.260538 68.533444 
L 179.617658 68.454156 
L 179.974778 67.682935 
L 180.689018 67.395548 
L 181.046138 66.461833 
L 181.403258 67.185512 
L 181.760378 67.49135 
L 182.117498 66.341223 
L 182.474618 68.418116 
L 182.831738 68.285581 
L 183.188858 66.912445 
L 183.545978 68.183927 
L 183.903098 68.481628 
L 184.260218 69.89061 
L 184.617338 70.351176 
L 185.688698 72.788171 
L 186.045818 74.261645 
L 186.402938 73.969768 
L 186.760058 75.767377 
L 187.117178 76.411854 
L 187.474298 77.332583 
L 187.831418 79.714278 
L 188.188538 79.38713 
L 189.259898 84.844503 
L 189.974138 87.596976 
L 190.688378 91.876103 
L 191.402618 94.385765 
L 192.116858 99.15949 
L 192.473978 100.615194 
L 194.259578 110.475493 
L 197.830778 133.791246 
L 198.545018 139.525173 
L 198.902138 140.90788 
L 199.616378 146.621865 
L 199.973498 149.725713 
L 200.330618 150.930878 
L 200.687738 154.348869 
L 201.044858 156.185325 
L 201.401978 160.058466 
L 202.473338 167.231776 
L 204.973178 185.515902 
L 205.330298 187.30586 
L 205.687418 190.78236 
L 206.758778 196.742304 
L 207.115898 200.177233 
L 207.473018 201.920929 
L 208.187258 207.084194 
L 208.544378 208.725005 
L 210.687098 221.503156 
L 211.044218 222.84299 
L 212.472698 231.097485 
L 212.829818 232.074603 
L 213.544058 235.472771 
L 214.615418 239.877487 
L 214.972538 241.59357 
L 215.329658 241.899533 
L 216.043898 244.165864 
L 216.401018 246.027764 
L 216.758138 246.83588 
L 217.115258 247.077436 
L 217.472378 248.083636 
L 217.829498 248.074232 
L 218.186618 249.983665 
L 218.543738 250.308898 
L 218.900858 250.979482 
L 219.257978 251.345824 
L 219.615098 252.067393 
L 219.972218 252.258519 
L 220.329338 252.929351 
L 220.686458 252.864242 
L 221.400698 254.026432 
L 221.757818 253.585949 
L 222.114938 253.674712 
L 222.472058 252.120484 
L 222.829178 253.005311 
L 223.186298 251.786736 
L 223.543418 252.017849 
L 223.900538 251.54317 
L 224.257658 251.740667 
L 224.614778 250.109406 
L 224.971898 249.963915 
L 225.329018 250.529929 
L 225.686138 248.739062 
L 226.043258 248.422441 
L 226.400378 247.342595 
L 226.757498 245.68743 
L 227.114618 245.68743 
L 227.471738 243.8789 
L 227.828858 243.332472 
L 228.900218 240.078072 
L 229.257338 237.525006 
L 229.614458 236.040489 
L 229.971578 235.032165 
L 230.328698 232.373344 
L 231.042938 230.4187 
L 231.400058 227.782673 
L 231.757178 226.249615 
L 232.471418 222.12549 
L 232.828538 221.330918 
L 236.756858 198.032945 
L 237.113978 194.712584 
L 237.471098 193.081968 
L 239.256698 180.630829 
L 239.613818 179.135314 
L 241.042298 168.665918 
L 241.399418 167.071971 
L 242.113658 161.649636 
L 242.470778 159.127617 
L 242.827898 157.403523 
L 243.185018 153.748302 
L 245.684858 137.581921 
L 246.399098 131.78281 
L 246.756218 130.936603 
L 247.827578 124.348714 
L 248.184698 121.488238 
L 248.541818 120.360528 
L 248.898938 115.937585 
L 249.256058 115.117762 
L 249.970298 111.858294 
L 250.327418 108.937868 
L 250.684538 107.754508 
L 252.827258 97.778736 
L 253.184378 96.996536 
L 254.255738 91.303145 
L 254.612858 90.782429 
L 254.969978 89.089002 
L 255.327098 88.376474 
L 256.041338 86.048796 
L 256.398458 85.220426 
L 256.755578 83.407811 
L 257.112698 83.107091 
L 257.469818 81.341922 
L 257.826938 81.336009 
L 258.184058 80.900723 
L 258.541178 78.977833 
L 259.255418 79.520413 
L 259.612538 78.947354 
L 259.969658 77.420084 
L 260.326778 77.940217 
L 260.683898 77.81221 
L 261.398138 76.582767 
L 261.755258 76.777659 
L 262.112378 77.395083 
L 262.469498 76.922324 
L 262.826617 77.81221 
L 263.183738 78.162405 
L 263.540858 77.438834 
L 263.897978 78.162405 
L 264.255098 79.362897 
L 264.612218 79.544646 
L 264.969338 80.188846 
L 265.326458 80.07444 
L 265.683578 80.250691 
L 266.040698 81.211832 
L 266.397818 82.849303 
L 266.754938 82.66342 
L 267.112058 83.361185 
L 267.826298 86.182695 
L 268.183418 87.498226 
L 268.540538 88.016158 
L 268.897658 88.937908 
L 269.969018 93.595168 
L 270.326138 94.738811 
L 270.683258 96.826104 
L 271.040378 96.780989 
L 271.397498 99.71251 
L 272.825978 105.338977 
L 273.540218 110.122064 
L 273.897338 111.646363 
L 274.254458 114.595224 
L 274.611578 115.029196 
L 275.325818 119.409166 
L 276.397178 124.783624 
L 277.468538 132.048359 
L 277.825658 133.316085 
L 278.539898 138.016261 
L 279.611258 144.124762 
L 279.968378 146.969922 
L 281.039738 153.11549 
L 282.468218 162.328294 
L 283.896698 171.295923 
L 284.253818 172.722933 
L 284.610938 176.40826 
L 284.968058 177.442419 
L 285.682298 183.104458 
L 286.039418 184.315696 
L 286.396538 187.633573 
L 287.110778 190.724533 
L 287.467898 193.225606 
L 288.182138 196.407011 
L 288.896378 201.302568 
L 289.253498 202.345509 
L 289.967738 207.049458 
L 291.753338 214.411591 
L 292.110458 217.04088 
L 292.824698 219.216672 
L 293.181818 222.038867 
L 293.538938 222.009993 
L 293.896058 224.623428 
L 294.253178 225.018429 
L 294.610298 226.578203 
L 294.967418 227.35336 
L 295.681658 230.392714 
L 296.038778 231.140155 
L 296.395898 233.183454 
L 296.753018 232.757342 
L 297.110138 234.507361 
L 297.467258 234.625582 
L 297.824378 236.566484 
L 298.181498 236.674604 
L 298.895738 238.340216 
L 299.252858 238.452431 
L 299.967098 239.744502 
L 300.324218 239.885202 
L 300.681338 240.230281 
L 301.038458 240.831631 
L 301.395578 240.323588 
L 301.752698 240.937004 
L 302.109818 240.870817 
L 302.466938 240.944904 
L 302.824058 240.588676 
L 303.181178 239.690917 
L 303.538298 241.087103 
L 304.252538 239.721537 
L 304.966778 239.302122 
L 305.323898 238.693118 
L 305.681018 239.844017 
L 306.038138 237.451858 
L 306.395258 237.159267 
L 306.752378 236.2014 
L 307.109498 235.919716 
L 307.466618 235.032165 
L 307.823738 234.660353 
L 308.537978 231.700342 
L 308.895098 231.640695 
L 309.609338 229.32046 
L 309.966458 227.882673 
L 310.323578 227.34715 
L 311.037818 224.457305 
L 311.752058 220.979347 
L 312.109178 221.053552 
L 312.466298 218.086279 
L 312.823418 217.948359 
L 313.180538 215.705916 
L 313.537658 214.975187 
L 314.251898 211.060718 
L 314.609018 209.893059 
L 314.966138 207.505993 
L 315.323258 206.540253 
L 315.680378 204.316158 
L 316.037498 203.157403 
L 316.394618 201.099397 
L 316.751738 197.847498 
L 317.465978 194.983975 
L 317.823098 192.83958 
L 318.180218 189.818513 
L 318.537338 188.662637 
L 320.322938 178.367252 
L 320.680058 177.391993 
L 321.394298 172.868155 
L 321.751418 169.514604 
L 322.108538 168.731478 
L 322.822778 163.957887 
L 323.537018 159.463532 
L 324.251258 154.671321 
L 324.965498 151.926448 
L 325.322618 148.750676 
L 326.393978 143.711918 
L 327.108218 137.835969 
L 327.465338 137.577823 
L 327.822458 136.029822 
L 328.179578 132.993802 
L 328.536698 130.936603 
L 329.250938 128.162605 
L 329.608058 125.53803 
L 329.965178 124.35297 
L 330.679418 120.567516 
L 331.750778 115.778878 
L 332.107898 114.918489 
L 332.465018 111.425414 
L 332.822138 111.267593 
L 333.179258 108.776094 
L 333.536378 107.335305 
L 333.893498 106.982955 
L 334.250618 105.221417 
L 334.607738 104.522202 
L 334.964858 102.565987 
L 336.036218 98.967885 
L 336.393338 97.51679 
L 336.750458 97.097848 
L 337.107578 95.210166 
L 337.464698 95.235617 
L 337.821818 94.879301 
L 338.178938 93.414212 
L 338.536058 92.977937 
L 338.893178 91.545183 
L 339.250298 91.5767 
L 339.607418 90.713409 
L 339.964538 91.618721 
L 340.321658 89.793784 
L 340.678778 89.882432 
L 341.035898 88.636915 
L 341.393018 88.959493 
L 341.750138 88.327139 
L 342.464378 88.750857 
L 342.821498 88.136186 
L 343.178618 88.027069 
L 343.535738 88.392752 
L 343.892858 87.536629 
L 344.249978 88.190744 
L 344.607098 88.588082 
L 344.964218 89.159152 
L 345.321338 88.29986 
L 345.678458 90.106622 
L 346.035578 90.739955 
L 346.392698 90.755883 
L 347.106938 91.676501 
L 347.464058 93.024713 
L 347.821178 93.290128 
L 348.178298 94.390882 
L 348.535418 93.414212 
L 348.892538 95.250888 
L 349.249658 95.469057 
L 349.606778 97.0216 
L 350.321018 98.938407 
L 351.392378 103.23231 
L 351.749498 103.469687 
L 352.106618 105.338977 
L 352.463738 106.045751 
L 353.177978 110.313194 
L 353.535098 110.86053 
L 353.892218 112.03866 
L 354.249338 114.526309 
L 355.320698 119.093259 
L 355.677818 121.020304 
L 356.034938 122.08933 
L 356.392058 123.914551 
L 356.749178 125.122683 
L 357.463418 129.982428 
L 357.820538 130.774102 
L 358.534778 135.88581 
L 358.891898 136.24612 
L 359.249018 137.430311 
L 359.606138 141.497135 
L 360.320378 144.4283 
L 360.677498 146.573299 
L 361.034618 147.953384 
L 361.391738 151.075981 
L 361.748858 152.422218 
L 362.820218 159.131664 
L 363.177338 160.985268 
L 363.534458 161.930039 
L 364.248698 167.12524 
L 364.605818 167.772652 
L 365.677178 175.107827 
L 366.034298 175.738763 
L 366.391418 178.447434 
L 367.819898 185.230044 
L 368.177018 188.960258 
L 368.534138 190.221487 
L 368.891258 190.893566 
L 370.319738 198.885364 
L 371.748218 204.442016 
L 372.105338 206.930317 
L 372.462458 208.374114 
L 372.819578 209.207805 
L 373.176698 210.993222 
L 373.533818 211.630428 
L 373.890938 213.559766 
L 374.248058 214.581484 
L 374.962298 217.362773 
L 375.319418 218.235232 
L 375.676538 220.197973 
L 376.033658 221.104925 
L 376.390778 221.196255 
L 376.747898 222.913108 
L 377.105018 223.537313 
L 377.462138 224.403765 
L 377.819258 226.657939 
L 378.176378 226.498467 
L 378.890618 227.514838 
L 379.247738 228.217454 
L 379.604858 229.626212 
L 379.961978 229.186669 
L 380.319098 229.542852 
L 380.676218 229.180298 
L 381.390458 231.514772 
L 381.747578 231.245488 
L 382.104698 231.81301 
L 382.461818 231.547909 
L 382.818938 231.740107 
L 383.176058 231.291571 
L 383.533178 232.58831 
L 383.890298 231.68046 
L 384.247418 231.548321 
L 384.604538 230.698059 
L 384.961658 231.199404 
L 385.675898 229.767283 
L 386.033018 229.497965 
L 386.390138 229.81217 
L 386.747258 228.721111 
L 387.104378 226.972617 
L 387.461498 227.083711 
L 387.818618 226.966445 
L 388.532858 225.339521 
L 388.889978 223.531435 
L 389.247098 223.979772 
L 389.604218 222.27882 
L 389.961338 221.259044 
L 390.675578 220.141545 
L 391.032698 219.283621 
L 391.389818 217.904225 
L 391.746938 215.400004 
L 392.104058 215.883426 
L 392.461178 214.326644 
L 392.818298 213.822401 
L 393.175418 211.733832 
L 393.889658 209.28338 
L 394.603898 205.849421 
L 394.961018 204.901665 
L 395.675258 201.094672 
L 396.032378 199.493137 
L 396.389498 199.155531 
L 396.746618 196.089945 
L 397.817978 191.115977 
L 398.175098 190.34105 
L 398.889338 185.910039 
L 399.246458 184.294134 
L 399.603578 183.495168 
L 400.674938 177.38779 
L 401.032058 175.157827 
L 401.389178 174.261986 
L 402.103418 170.893002 
L 403.531898 162.458336 
L 404.246138 160.345815 
L 404.603258 158.281759 
L 404.960378 155.28398 
L 405.317498 155.086478 
L 405.674618 152.603597 
L 406.031738 151.13241 
L 406.745978 146.945639 
L 407.103098 145.290347 
L 407.460218 142.915409 
L 407.817338 142.326155 
L 408.888698 136.438705 
L 409.245818 136.058624 
L 409.960058 132.898769 
L 410.317178 131.467471 
L 410.674298 129.413728 
L 411.031418 128.283951 
L 411.388538 125.902697 
L 411.745658 126.227646 
L 412.102778 123.710239 
L 413.174138 119.746997 
L 413.531258 118.018633 
L 413.888378 117.546727 
L 414.245498 116.087474 
L 414.959738 114.295001 
L 415.316858 114.108175 
L 416.031098 110.597799 
L 416.388218 110.56156 
L 417.102458 107.629916 
L 417.459578 108.091367 
L 418.173818 105.806362 
L 418.530938 106.110963 
L 418.530938 106.110963 
" style="fill:none;stroke:#2ca02c;stroke-dasharray:5.55,2.4;stroke-dashoffset:0;stroke-width:1.5;"/>
   </g>
   <g id="line2d_26">
    <path clip-path="url(#p304c686b55)" d="M 61.410938 278.518987 
L 62.125178 278.518987 
L 62.482298 278.188961 
L 62.839418 278.518987 
L 63.196538 277.728048 
L 63.553658 277.38937 
L 63.910778 276.762441 
L 64.267898 277.098432 
L 64.625018 275.226301 
L 64.982138 274.256093 
L 65.696378 271.19394 
L 66.053498 272.080868 
L 66.410618 269.658599 
L 66.767738 268.668173 
L 67.124858 265.801215 
L 67.481978 265.196218 
L 67.839098 263.272144 
L 68.196218 262.462632 
L 69.267578 256.655118 
L 69.624698 253.375139 
L 69.981818 252.300992 
L 70.338938 249.914541 
L 70.696058 246.718106 
L 71.410298 242.839788 
L 71.767418 241.282987 
L 72.481658 234.906102 
L 72.838778 232.58831 
L 73.553018 226.707007 
L 76.409978 202.94648 
L 77.124218 196.112804 
L 78.195578 186.996398 
L 78.909818 179.270358 
L 80.338298 165.33915 
L 80.695418 161.938167 
L 81.052538 159.633513 
L 81.766778 152.728548 
L 82.481018 145.670781 
L 83.552378 134.997052 
L 88.909178 87.624407 
L 89.266298 85.05114 
L 89.623418 81.383314 
L 90.694778 75.001762 
L 91.051898 70.638354 
L 91.409018 69.473148 
L 92.123258 63.914854 
L 92.480378 61.277275 
L 92.837498 59.563094 
L 93.194618 56.697865 
L 93.551738 55.775258 
L 93.908858 52.721569 
L 94.623098 50.548705 
L 94.980218 47.224449 
L 95.337338 46.099876 
L 95.694458 45.359897 
L 96.051578 42.785539 
L 96.408698 41.648607 
L 96.765818 41.360116 
L 97.480058 37.571665 
L 97.837178 37.313051 
L 98.551418 33.922577 
L 98.908538 33.353806 
L 99.265658 33.059101 
L 99.622778 33.451145 
L 100.337018 31.115056 
L 100.694138 32.064179 
L 101.765498 30.356888 
L 102.122618 30.959163 
L 102.479738 30.246122 
L 102.836858 31.493757 
L 103.193978 32.016327 
L 103.551098 31.926568 
L 103.908218 32.231464 
L 104.265338 33.059101 
L 104.622458 33.170958 
L 106.050938 37.27088 
L 106.408058 38.327988 
L 106.765178 38.946644 
L 107.479418 42.530985 
L 107.836538 42.703251 
L 108.193658 44.153515 
L 108.550778 46.758729 
L 108.907898 47.94788 
L 109.265018 49.898048 
L 109.622138 51.158178 
L 110.336378 54.665175 
L 110.693498 57.725629 
L 111.050618 59.045151 
L 111.407738 61.666281 
L 111.764858 62.509082 
L 112.121978 66.095441 
L 112.479098 67.682954 
L 114.978938 85.203498 
L 115.336058 87.525657 
L 117.121658 102.836353 
L 117.478778 105.36643 
L 117.835898 109.212175 
L 118.193018 111.790656 
L 118.907258 119.2056 
L 119.264378 121.046178 
L 121.407098 138.868194 
L 122.121338 145.824573 
L 122.835578 152.917988 
L 123.192698 154.965558 
L 123.906938 161.255445 
L 126.406778 183.765659 
L 127.121018 188.873306 
L 127.478138 192.727363 
L 127.835258 195.125047 
L 128.192378 198.917971 
L 128.549498 200.449973 
L 129.263738 207.788239 
L 129.977978 211.95615 
L 130.335098 214.310717 
L 131.049338 220.523987 
L 131.406458 221.732808 
L 131.763578 226.267902 
L 132.120698 227.371992 
L 132.477818 229.294976 
L 133.192058 234.780038 
L 133.549178 236.129842 
L 133.906298 238.828805 
L 134.263418 240.339139 
L 134.977658 244.912065 
L 135.691898 247.581916 
L 136.763258 253.541568 
L 137.120378 253.970326 
L 137.834618 257.102797 
L 138.191738 257.859144 
L 138.905978 260.565821 
L 139.263098 260.795062 
L 139.620218 262.684271 
L 139.977338 262.684271 
L 140.334458 263.643542 
L 140.691578 265.025106 
L 141.048698 264.500747 
L 141.405818 266.01976 
L 141.762938 266.102047 
L 142.120058 265.138133 
L 142.477178 266.777553 
L 142.834298 266.635615 
L 143.548538 268.137046 
L 143.905658 268.309571 
L 144.262778 267.329893 
L 144.619898 267.195243 
L 144.977018 266.436688 
L 145.334138 265.978616 
L 145.691258 264.949149 
L 146.048378 264.740265 
L 146.405498 265.611161 
L 147.833978 261.061741 
L 148.191098 261.413898 
L 148.548218 259.324001 
L 148.905338 258.88424 
L 149.262458 256.938218 
L 149.619578 256.490186 
L 149.976698 255.614725 
L 150.333818 253.574854 
L 151.048058 250.867499 
L 151.405178 248.545877 
L 151.762298 247.415796 
L 152.833658 241.545788 
L 153.190778 239.939205 
L 153.547898 237.159267 
L 153.905018 235.983655 
L 154.976378 228.607168 
L 156.047738 221.451485 
L 156.404858 218.470772 
L 156.761978 218.025594 
L 157.476218 211.651109 
L 157.833338 207.823151 
L 158.547578 204.471061 
L 159.261818 197.750138 
L 162.833018 169.156632 
L 164.261498 156.310788 
L 164.618618 153.566923 
L 164.975738 151.890172 
L 165.332858 147.78745 
L 165.689978 145.379385 
L 166.047098 141.135454 
L 166.404218 139.108951 
L 167.118458 131.193624 
L 167.475578 130.140763 
L 168.546938 121.200573 
L 169.618298 111.894367 
L 169.975418 110.299542 
L 170.332538 106.185492 
L 171.761018 95.767841 
L 172.832378 87.575032 
L 173.189498 86.422714 
L 173.546618 82.849303 
L 173.903738 81.460186 
L 174.260858 79.381072 
L 174.617978 76.187861 
L 176.403578 66.167846 
L 176.760698 62.915709 
L 177.117818 61.724861 
L 178.546298 53.972296 
L 178.903418 52.743036 
L 179.260538 52.253351 
L 179.617658 51.32348 
L 179.974778 48.675697 
L 180.331898 47.64951 
L 180.689018 47.081473 
L 181.046138 46.262441 
L 182.117498 42.363619 
L 182.474618 42.012277 
L 182.831738 40.71451 
L 183.188858 41.007089 
L 183.545978 39.781836 
L 183.903098 39.474497 
L 184.260218 39.844783 
L 184.617338 39.257212 
L 185.331578 38.946644 
L 185.688698 38.665506 
L 186.045818 38.862606 
L 186.402938 39.277784 
L 186.760058 38.579642 
L 187.117178 38.904625 
L 187.474298 38.820587 
L 188.188538 41.873817 
L 188.902778 40.671535 
L 189.617018 44.138324 
L 189.974138 44.584772 
L 190.331258 44.708389 
L 190.688378 46.569351 
L 191.045498 47.454614 
L 191.402618 49.10537 
L 192.116858 51.177602 
L 192.831098 54.776688 
L 193.188218 56.792816 
L 193.545338 57.808689 
L 193.902458 59.249766 
L 194.616698 63.661505 
L 195.330938 67.252335 
L 195.688058 70.435218 
L 196.402298 73.408874 
L 197.473658 81.525115 
L 197.830778 82.669229 
L 198.187898 86.043217 
L 198.902138 91.044388 
L 199.259258 94.036243 
L 199.973498 97.952418 
L 201.044858 106.982955 
L 201.401978 110.996426 
L 201.759098 113.040301 
L 202.473338 118.988853 
L 204.258938 134.548559 
L 205.330298 142.850388 
L 205.687418 146.759469 
L 206.401658 152.514923 
L 207.115898 159.172136 
L 207.830138 165.14328 
L 208.187258 168.833917 
L 208.901498 173.739486 
L 209.615738 180.728309 
L 209.972858 182.94679 
L 211.401338 195.134149 
L 212.115578 200.934025 
L 212.829818 206.609378 
L 213.901178 215.953576 
L 214.615418 220.107687 
L 214.972538 223.926553 
L 215.686778 226.978789 
L 216.401018 233.357756 
L 217.115258 236.667396 
L 217.829498 241.609497 
L 218.543738 244.291129 
L 218.900858 247.76054 
L 219.257978 248.949981 
L 219.972218 252.590289 
L 220.329338 253.734677 
L 220.686458 256.379095 
L 221.043578 256.917611 
L 221.400698 258.200505 
L 221.757818 260.009325 
L 222.114938 259.826736 
L 222.472058 261.849681 
L 222.829178 261.745886 
L 223.186298 263.445382 
L 223.543418 264.450566 
L 223.900538 265.006117 
L 224.257658 266.14319 
L 224.614778 266.163762 
L 224.971898 266.37366 
L 225.329018 267.784653 
L 225.686138 268.383628 
L 226.043258 267.855184 
L 227.114618 268.490942 
L 228.185978 268.112962 
L 228.543098 267.737633 
L 228.900218 266.996983 
L 229.257338 266.821439 
L 229.614458 266.226594 
L 229.971578 265.025106 
L 230.328698 265.006117 
L 231.042938 262.851637 
L 231.400058 261.19789 
L 231.757178 261.000974 
L 232.114298 259.748112 
L 232.471418 259.087564 
L 232.828538 256.925558 
L 233.185658 255.811117 
L 234.257018 250.650845 
L 234.971258 247.077436 
L 235.328378 246.419172 
L 236.042618 240.77677 
L 236.399738 239.422992 
L 237.471098 233.384997 
L 237.828218 230.444687 
L 238.185338 229.046508 
L 238.899578 223.861508 
L 239.256698 220.248759 
L 239.970938 215.512709 
L 241.399418 204.427494 
L 242.113658 199.193609 
L 243.899258 183.46082 
L 245.684858 168.24387 
L 246.041978 166.151192 
L 248.541818 142.793494 
L 249.256058 137.581921 
L 251.041658 121.024616 
L 251.398778 119.006254 
L 252.827258 107.251854 
L 253.184378 104.153659 
L 253.541498 102.06744 
L 254.255738 95.529827 
L 256.398458 80.740105 
L 256.755578 76.608088 
L 257.469818 72.815041 
L 259.255418 62.89952 
L 259.612538 61.657913 
L 259.969658 59.245686 
L 260.326778 58.092103 
L 260.683898 55.478463 
L 261.398138 53.439026 
L 261.755258 50.144918 
L 262.112378 49.992094 
L 262.469498 48.322644 
L 262.826617 47.597538 
L 263.183738 47.145451 
L 263.540858 44.300501 
L 263.897978 44.259858 
L 264.969338 40.95223 
L 265.326458 40.727428 
L 265.683578 40.634272 
L 266.754938 38.19633 
L 267.112058 38.601108 
L 267.469178 39.23664 
L 267.826298 38.925634 
L 268.183418 37.571665 
L 268.540538 38.904625 
L 269.254778 39.232673 
L 269.611898 40.0384 
L 269.969018 39.941591 
L 270.326138 41.043661 
L 270.683258 41.007089 
L 271.040378 41.648607 
L 271.397498 41.596636 
L 271.754618 43.365576 
L 272.111738 43.924791 
L 272.468858 45.509465 
L 273.183098 47.467607 
L 273.897338 50.30474 
L 274.254458 50.919821 
L 274.611578 52.99921 
L 274.968698 54.023727 
L 275.682938 57.771773 
L 276.040058 58.598587 
L 276.397178 61.482172 
L 276.754298 62.794721 
L 278.182778 71.734915 
L 278.539898 73.435384 
L 278.897018 76.073184 
L 279.254138 77.569993 
L 279.968378 83.373363 
L 280.682618 88.097995 
L 281.039738 89.756216 
L 287.110778 139.598624 
L 287.467898 143.541238 
L 287.825018 145.225592 
L 289.610618 160.329626 
L 289.967738 164.849476 
L 291.039098 173.129555 
L 292.110458 181.671021 
L 293.181818 191.585132 
L 293.896058 197.031598 
L 295.324538 208.379127 
L 295.681658 210 
L 296.038778 212.730461 
L 296.395898 216.388437 
L 296.753018 218.84802 
L 297.110138 220.265688 
L 297.824378 224.946611 
L 298.538618 229.59415 
L 298.895738 232.749534 
L 299.252858 234.500406 
L 299.609978 237.495747 
L 299.967098 237.841816 
L 300.324218 240.627862 
L 300.681338 241.458187 
L 301.038458 244.804983 
L 301.752698 247.683433 
L 302.109818 249.756543 
L 302.466938 251.119525 
L 302.824058 252.038859 
L 303.181178 254.713021 
L 303.538298 254.910517 
L 303.895418 256.134269 
L 304.252538 257.872311 
L 304.609658 257.695677 
L 304.966778 259.855359 
L 305.323898 260.894631 
L 306.038138 262.380344 
L 306.395258 262.134945 
L 306.752378 262.952057 
L 307.109498 264.136167 
L 307.823738 264.500747 
L 308.537978 266.268612 
L 309.252218 265.334675 
L 309.609338 265.821367 
L 309.966458 265.680303 
L 310.323578 265.21558 
L 310.680698 264.562353 
L 311.037818 264.562353 
L 311.394938 263.938676 
L 311.752058 262.118757 
L 312.109178 262.462632 
L 312.466298 261.945241 
L 313.180538 259.059748 
L 313.537658 259.157104 
L 313.894778 258.347291 
L 314.251898 256.655118 
L 314.609018 257.215846 
L 314.966138 254.662553 
L 315.323258 252.994459 
L 315.680378 252.133406 
L 316.037498 249.527992 
L 316.394618 248.949981 
L 316.751738 247.863015 
L 317.823098 242.161946 
L 318.894458 236.172777 
L 319.251578 233.262411 
L 319.608698 232.141326 
L 319.965818 229.186669 
L 320.680058 225.53127 
L 321.394298 220.15283 
L 322.465658 212.486795 
L 325.322618 191.053702 
L 328.893818 160.349862 
L 329.250938 156.662891 
L 329.608058 154.828516 
L 329.965178 150.922816 
L 330.322298 148.649497 
L 330.679418 144.756121 
L 331.393658 139.402755 
L 331.750778 135.486692 
L 332.107898 133.489622 
L 332.465018 128.175158 
L 332.822138 126.734061 
L 333.179258 123.386745 
L 333.536378 121.668566 
L 333.893498 117.385055 
L 334.607738 112.012094 
L 335.679098 103.32251 
L 337.107578 93.460744 
L 337.821818 86.952441 
L 338.178938 86.015321 
L 338.893178 79.881757 
L 339.607418 76.117781 
L 339.964538 73.100619 
L 341.035898 66.867559 
L 341.393018 64.712831 
L 341.750138 63.86856 
L 342.821498 58.460912 
L 343.178618 55.429089 
L 343.535738 55.046003 
L 343.892858 53.786426 
L 344.249978 53.270943 
L 344.607098 50.851244 
L 344.964218 49.92156 
L 345.321338 47.623524 
L 345.678458 47.675496 
L 346.035578 46.207582 
L 347.464058 43.301868 
L 347.821178 42.046327 
L 348.178298 42.216578 
L 348.535418 41.079089 
L 349.249658 40.418023 
L 349.606778 40.342065 
L 349.963898 41.204765 
L 350.321018 41.395383 
L 351.035258 40.634272 
L 351.392378 41.007089 
L 351.749498 41.787198 
L 352.106618 41.804522 
L 352.463738 42.114428 
L 353.177978 43.438022 
L 353.535098 43.641784 
L 353.892218 45.749279 
L 354.249338 45.509465 
L 354.606458 48.213739 
L 355.677818 50.144918 
L 356.034938 51.312259 
L 356.392058 53.70327 
L 356.749178 54.806244 
L 357.463418 57.762545 
L 358.177658 61.61607 
L 358.891898 65.029177 
L 359.249018 67.778028 
L 359.606138 69.071103 
L 359.963258 71.239172 
L 360.320378 72.633664 
L 360.677498 76.348553 
L 361.034618 77.905371 
L 361.391738 80.460161 
L 361.748858 84.076082 
L 362.105978 85.147069 
L 363.177338 93.284957 
L 363.534458 94.411348 
L 363.891578 98.225346 
L 364.248698 100.182248 
L 364.605818 103.745049 
L 365.320058 108.960727 
L 366.034298 115.611355 
L 366.391418 117.778311 
L 367.105658 124.491186 
L 367.462778 127.671986 
L 367.819898 129.413728 
L 368.177018 132.392742 
L 368.534138 136.737826 
L 369.605498 145.051564 
L 369.962618 148.256922 
L 370.319738 150.427046 
L 370.676858 155.021987 
L 371.033978 157.213306 
L 371.391098 160.782909 
L 371.748218 163.12074 
L 374.605178 188.28519 
L 374.962298 189.722932 
L 375.319418 193.861989 
L 375.676538 195.934504 
L 376.033658 199.441655 
L 376.390778 201.261312 
L 377.105018 207.347198 
L 377.462138 209.278342 
L 378.890618 220.028687 
L 379.247738 221.6065 
L 379.604858 224.350226 
L 380.319098 228.494206 
L 381.033338 233.419049 
L 381.390458 234.500406 
L 381.747578 237.342136 
L 382.104698 238.44495 
L 382.818938 242.315736 
L 383.176058 243.86202 
L 383.533178 244.693353 
L 383.890298 247.132297 
L 384.247418 248.177683 
L 385.318778 253.144282 
L 386.033018 254.968604 
L 386.390138 256.317377 
L 386.747258 257.001517 
L 387.104378 257.191417 
L 387.818618 259.268369 
L 388.175738 259.826736 
L 388.532858 261.321323 
L 388.889978 260.536344 
L 389.247098 261.336752 
L 389.961338 261.1377 
L 390.318458 261.413898 
L 390.675578 262.232072 
L 391.032698 262.008949 
L 391.389818 261.60482 
L 391.746938 260.038368 
L 392.104058 260.985782 
L 392.461178 261.429327 
L 392.818298 259.798114 
L 393.175418 259.048819 
L 393.532538 258.659433 
L 394.246778 257.115457 
L 394.603898 256.292753 
L 394.961018 255.871329 
L 395.318138 254.340837 
L 395.675258 254.10248 
L 396.032378 252.461487 
L 396.389498 252.05987 
L 396.746618 250.489623 
L 397.103738 247.872331 
L 397.817978 245.96549 
L 398.175098 243.641029 
L 398.532218 242.485824 
L 399.603578 236.987764 
L 399.960698 233.808783 
L 400.317818 233.801926 
L 400.674938 230.659079 
L 401.032058 228.936335 
L 401.389178 225.932639 
L 401.746298 224.362124 
L 402.817658 216.849634 
L 403.531898 213.111878 
L 404.246138 206.910567 
L 404.960378 203.080704 
L 405.674618 195.511859 
L 406.388858 192.651056 
L 407.103098 186.195951 
L 407.460218 183.563864 
L 407.817338 179.774706 
L 408.531578 175.395329 
L 408.888698 172.73953 
L 409.602938 165.343231 
L 409.960058 163.563696 
L 410.317178 159.965381 
L 410.674298 158.010598 
L 411.388538 151.144502 
L 411.745658 149.333469 
L 412.459898 143.297408 
L 412.817018 140.006686 
L 413.174138 137.827774 
L 413.531258 134.314025 
L 414.602618 126.818463 
L 414.959738 123.127727 
L 415.316858 121.518293 
L 416.031098 115.673074 
L 416.388218 112.303857 
L 416.745338 110.824292 
L 417.102458 107.279671 
L 417.459578 106.222757 
L 417.816698 102.855435 
L 418.173818 100.903939 
L 418.530938 98.011966 
L 418.530938 98.011966 
" style="fill:none;stroke:#1f77b4;stroke-linecap:square;stroke-width:1.5;"/>
   </g>
   <g id="line2d_27">
    <path clip-path="url(#p304c686b55)" d="M 61.410938 271.333963 
L 61.795528 271.333963 
L 62.180119 270.962563 
L 62.56471 271.332684 
L 62.949301 270.543024 
L 63.333891 270.427721 
L 63.718482 269.209885 
L 64.103073 270.26324 
L 64.487664 268.194136 
L 64.872254 267.78411 
L 65.256845 267.019105 
L 65.641436 266.967141 
L 66.410618 263.417438 
L 66.795208 262.473575 
L 67.179799 260.783436 
L 67.56439 260.64665 
L 67.948981 257.489116 
L 68.333571 257.206005 
L 70.641116 245.276463 
L 71.025707 244.482881 
L 71.410298 241.659498 
L 71.794888 240.066137 
L 72.56407 234.985016 
L 72.948661 233.410708 
L 73.717842 227.637036 
L 74.102433 226.3498 
L 74.871614 221.133067 
L 75.256205 219.799937 
L 75.640796 216.771095 
L 76.025387 214.859618 
L 76.409978 211.6519 
L 77.179159 207.128425 
L 77.56375 204.276868 
L 77.948341 202.439636 
L 79.486704 191.070458 
L 79.871294 190.044999 
L 80.255885 186.983978 
L 80.640476 185.784727 
L 81.025067 182.476188 
L 82.56343 174.034808 
L 83.332611 170.274203 
L 84.101793 165.915486 
L 84.486384 164.635643 
L 85.255565 159.788606 
L 85.640156 159.325263 
L 87.178519 152.144952 
L 87.947701 149.906867 
L 88.716882 147.312979 
L 89.101473 146.684198 
L 89.870654 144.850252 
L 90.255245 143.342789 
L 90.639836 143.298452 
L 91.024427 142.379133 
L 91.409018 140.812879 
L 91.793608 140.064153 
L 92.178199 140.294841 
L 92.56279 139.578492 
L 92.947381 139.703955 
L 93.716562 137.469917 
L 94.101153 138.825719 
L 94.485744 138.886426 
L 94.870334 138.477662 
L 95.254925 137.724889 
L 95.639516 138.153889 
L 96.024107 137.931295 
L 96.408698 138.170078 
L 96.793288 138.862143 
L 97.177879 138.210549 
L 97.56247 139.295191 
L 97.947061 139.542068 
L 98.331651 140.428398 
L 98.716242 140.707652 
L 99.100833 141.784199 
L 99.870014 142.617272 
L 100.254605 143.628965 
L 100.639196 142.774467 
L 101.408378 144.822037 
L 101.792968 146.684198 
L 102.177559 146.768841 
L 103.331331 149.862348 
L 103.715922 150.41681 
L 104.100513 151.626914 
L 104.485104 152.464678 
L 105.254285 154.558079 
L 105.638876 154.749079 
L 106.408058 157.668533 
L 106.792648 157.946014 
L 107.177239 158.590752 
L 107.56183 159.972996 
L 107.946421 160.255727 
L 108.331011 160.849871 
L 108.715602 162.987919 
L 109.100193 163.267713 
L 109.869374 164.875289 
L 110.638556 167.722801 
L 111.023147 167.922803 
L 111.792328 169.921221 
L 112.176919 169.779756 
L 112.56151 171.490297 
L 112.946101 170.740643 
L 113.330691 172.144416 
L 113.715282 172.801594 
L 114.099873 172.962646 
L 114.869054 174.532819 
L 115.253645 176.632158 
L 115.638236 176.108349 
L 116.022827 175.996718 
L 116.407418 176.202806 
L 116.792008 177.113423 
L 117.176599 176.894062 
L 117.56119 176.906434 
L 117.945781 177.061675 
L 118.330371 178.010371 
L 118.714962 178.482469 
L 119.099553 177.829258 
L 119.484144 178.738008 
L 119.868734 179.115333 
L 120.253325 178.530112 
L 120.637916 179.633014 
L 121.022507 178.863612 
L 121.407098 179.615613 
L 121.791688 179.528608 
L 122.176279 178.872275 
L 122.56087 179.23714 
L 123.330051 178.841957 
L 124.099233 179.193638 
L 124.483824 178.850619 
L 124.868414 177.824946 
L 125.253005 178.893931 
L 125.637596 178.027696 
L 126.022187 178.478138 
L 126.406778 177.311787 
L 127.175959 177.160857 
L 127.56055 176.85542 
L 127.945141 176.902122 
L 128.329731 175.80879 
L 128.714322 175.073503 
L 129.098913 176.202806 
L 129.483504 175.731842 
L 129.868094 174.549845 
L 130.252685 174.830774 
L 130.637276 173.617671 
L 131.021867 174.341276 
L 131.406458 174.200811 
L 131.791048 173.53057 
L 132.175639 173.132176 
L 132.56023 172.504917 
L 132.944821 172.975361 
L 133.329411 172.321661 
L 133.714002 172.27524 
L 134.098593 171.94185 
L 134.483184 170.732239 
L 134.867774 172.466773 
L 135.252365 170.820485 
L 135.636956 169.883402 
L 136.021547 170.320427 
L 136.790728 169.950637 
L 137.175319 169.457561 
L 137.55991 170.194362 
L 138.713682 169.135365 
L 139.098273 168.993097 
L 139.867454 170.164947 
L 140.252045 169.56217 
L 140.636636 168.38114 
L 141.021227 169.298555 
L 141.405818 169.173024 
L 141.790408 169.181393 
L 142.174999 169.33203 
L 142.55959 169.608197 
L 142.944181 170.270001 
L 143.328771 169.470114 
L 143.713362 169.809047 
L 144.097953 169.164655 
L 144.867134 170.866708 
L 145.251725 170.295214 
L 145.636316 170.996975 
L 146.020907 170.816282 
L 146.405498 170.459098 
L 147.55927 172.771926 
L 147.943861 172.363862 
L 148.328451 173.233893 
L 148.713042 173.655979 
L 149.097633 172.890597 
L 149.482224 173.221179 
L 149.866814 173.941165 
L 150.251405 174.277429 
L 150.635996 175.103427 
L 151.020587 176.546287 
L 151.405178 174.681796 
L 151.789768 175.52237 
L 152.174359 175.671993 
L 152.55895 176.215687 
L 153.328131 178.239923 
L 153.712722 178.200943 
L 154.097313 177.643831 
L 154.481904 178.833294 
L 154.866494 179.076181 
L 155.251085 179.706968 
L 155.635676 180.046555 
L 156.020267 179.57211 
L 156.404858 181.012387 
L 156.789448 180.811218 
L 157.174039 181.183555 
L 157.55863 181.819319 
L 157.943221 181.047499 
L 158.327811 181.850179 
L 158.712402 181.854588 
L 159.096993 182.158775 
L 159.866174 182.211677 
L 160.250765 183.262305 
L 160.635356 183.133885 
L 161.019947 182.458554 
L 161.404538 183.86423 
L 161.789128 183.957643 
L 162.173719 183.490578 
L 162.55831 183.993228 
L 162.942901 183.107315 
L 163.327491 183.213594 
L 163.712082 182.695485 
L 164.481264 184.113331 
L 164.865854 184.538627 
L 165.250445 183.222451 
L 165.635036 184.028814 
L 166.019627 183.753024 
L 166.404218 184.273467 
L 167.173399 183.381869 
L 167.55799 183.257877 
L 167.942581 182.899186 
L 168.327171 183.009893 
L 168.711762 183.443865 
L 169.096353 182.735339 
L 169.480944 182.308665 
L 169.865534 182.819477 
L 170.634716 182.127916 
L 171.019307 182.000069 
L 171.788488 181.394224 
L 172.173079 180.308725 
L 172.55767 180.858775 
L 172.942261 180.776262 
L 173.326851 180.99922 
L 173.711442 179.515557 
L 174.096033 179.937532 
L 174.480624 179.793973 
L 175.249805 179.293694 
L 175.634396 179.22409 
L 176.018987 178.37419 
L 176.403578 177.902567 
L 176.788168 177.734388 
L 177.172759 178.361196 
L 177.55735 176.979742 
L 177.941941 176.85542 
L 178.326531 177.022865 
L 178.711122 176.031066 
L 179.095713 175.424047 
L 179.480304 175.81734 
L 179.864894 175.475346 
L 180.249485 175.774591 
L 180.634076 175.052128 
L 181.018667 174.795632 
L 181.403258 175.214575 
L 181.787848 174.558358 
L 182.172439 173.411899 
L 182.55703 174.562614 
L 182.941621 174.366815 
L 183.326211 172.911788 
L 183.710802 173.450043 
L 184.095393 172.928741 
L 184.479984 172.865167 
L 184.864574 173.038935 
L 185.249165 171.562039 
L 185.633756 172.585444 
L 186.018347 172.733782 
L 186.402938 171.646441 
L 186.787528 172.452485 
L 187.172119 171.667542 
L 187.55671 171.95451 
L 187.941301 171.414335 
L 188.325891 170.622983 
L 188.710482 170.505322 
L 189.095073 172.165516 
L 189.479664 170.669207 
L 189.864254 171.148253 
L 190.248845 171.232869 
L 190.633436 170.53894 
L 191.018027 171.435435 
L 191.402618 171.498737 
L 191.787208 171.840567 
L 192.171799 172.445582 
L 192.55639 171.819466 
L 192.940981 171.924969 
L 193.325571 171.912309 
L 193.710162 171.675982 
L 194.094753 171.663322 
L 194.479344 172.517632 
L 194.863934 172.237258 
L 195.248525 172.44982 
L 196.017707 172.492203 
L 196.402298 173.31442 
L 196.786888 173.144891 
L 197.171479 172.699876 
L 197.55607 172.95417 
L 198.709842 174.358302 
L 199.094433 174.022038 
L 199.479024 174.388098 
L 199.863614 175.163276 
L 200.248205 175.090602 
L 200.632796 174.799907 
L 201.017387 174.889681 
L 201.786568 176.408895 
L 202.171159 176.228567 
L 202.55575 175.629243 
L 202.940341 176.971118 
L 203.324931 177.462716 
L 203.709522 176.786724 
L 204.094113 177.988715 
L 204.478704 177.126359 
L 205.247885 178.794314 
L 206.017067 177.928078 
L 206.401658 177.376471 
L 206.786248 177.329036 
L 207.170839 178.664378 
L 207.55543 178.417501 
L 207.940021 178.958724 
L 208.324611 178.794314 
L 208.709202 179.807024 
L 209.093793 178.954374 
L 209.478384 178.919918 
L 209.862974 179.580811 
L 210.247565 179.319795 
L 210.632156 179.580811 
L 211.401338 179.785273 
L 211.785928 179.706968 
L 212.170519 179.846176 
L 212.55511 180.199487 
L 212.939701 178.989176 
L 213.324291 179.602562 
L 214.093473 179.811374 
L 214.478064 180.190748 
L 214.862654 180.129575 
L 215.247245 180.238813 
L 215.631836 179.289343 
L 216.016427 180.369898 
L 216.401018 179.498156 
L 216.785608 180.238813 
L 217.170199 180.208226 
L 217.55479 179.450303 
L 217.939381 180.544678 
L 218.323971 180.050924 
L 218.708562 180.08588 
L 219.093153 180.553417 
L 219.477744 179.789623 
L 219.862334 179.9111 
L 220.631516 178.608073 
L 221.016107 179.706968 
L 221.400698 179.432902 
L 221.785288 178.430495 
L 222.169879 178.361196 
L 222.55447 179.389399 
L 222.939061 179.39375 
L 223.323651 177.587772 
L 223.708242 177.592084 
L 224.092833 178.828963 
L 224.477424 178.326547 
L 224.862014 178.85495 
L 225.246605 178.638391 
L 225.631196 179.23279 
L 226.015787 178.218267 
L 226.400378 176.224274 
L 226.784968 177.617957 
L 227.169559 177.134984 
L 227.55415 177.85082 
L 227.938741 177.553273 
L 228.323331 177.911191 
L 228.707922 177.303162 
L 229.092513 177.949734 
L 229.477104 177.186731 
L 229.861694 176.85542 
L 230.246285 177.5274 
L 230.630876 177.449779 
L 231.015467 177.885318 
L 231.400058 177.579147 
L 231.784648 177.475653 
L 232.55383 176.614984 
L 232.938421 177.436842 
L 233.323011 177.484277 
L 233.707602 176.75667 
L 234.092193 177.372158 
L 234.476784 176.966806 
L 234.861374 176.168458 
L 235.245965 176.76955 
L 235.630556 177.048739 
L 236.015147 177.113423 
L 236.399738 176.499059 
L 236.784328 176.657919 
L 237.168919 177.596396 
L 237.938101 177.872381 
L 238.322691 177.156545 
L 238.707282 176.75667 
L 239.091873 177.143608 
L 239.476464 178.348203 
L 239.861054 178.950024 
L 240.245645 177.20398 
L 241.014827 178.564761 
L 241.399418 178.309222 
L 241.784008 177.648143 
L 242.168599 177.958397 
L 242.55319 177.475653 
L 242.937781 177.574835 
L 243.322371 178.56043 
L 243.706962 179.084881 
L 244.091553 178.023364 
L 244.476144 178.105657 
L 244.860734 178.304891 
L 245.245325 178.187949 
L 246.014507 178.534443 
L 246.399098 178.876606 
L 246.783688 178.235592 
L 247.168279 179.541658 
L 247.55287 178.876606 
L 247.937461 179.097932 
L 248.322051 179.715669 
L 248.706642 179.097932 
L 249.091233 180.160162 
L 249.475824 179.837476 
L 249.860414 178.863612 
L 250.245005 180.35242 
L 250.629596 179.211039 
L 251.014187 179.981012 
L 251.783368 180.308725 
L 252.167959 179.489455 
L 252.55255 179.450303 
L 252.937141 178.738008 
L 253.321731 179.441602 
L 253.706322 179.74612 
L 253.706322 179.74612 
" style="fill:none;stroke:#d62728;stroke-linecap:square;stroke-width:1.5;"/>
   </g>
   <g id="line2d_28">
    <path clip-path="url(#p304c686b55)" d="M 61.410938 23.543308 
L 418.530938 23.543308 
" style="fill:none;stroke:#99aaaa;stroke-dasharray:9.6,2.4,1.5,2.4;stroke-dashoffset:0;stroke-width:1.5;"/>
   </g>
   <g id="line2d_29">
    <defs>
     <path d="M -3 3 
L 3 3 
L 3 -3 
L -3 -3 
z
" id="m9e0ac68bfd" style="stroke:#1f77b4;stroke-linejoin:miter;"/>
    </defs>
    <g clip-path="url(#p304c686b55)">
     <use style="fill:#1f77b4;stroke:#1f77b4;stroke-linejoin:miter;" x="61.410938" xlink:href="#m9e0ac68bfd" y="278.419468"/>
     <use style="fill:#1f77b4;stroke:#1f77b4;stroke-linejoin:miter;" x="73.086014" xlink:href="#m9e0ac68bfd" y="222.165307"/>
     <use style="fill:#1f77b4;stroke:#1f77b4;stroke-linejoin:miter;" x="84.761091" xlink:href="#m9e0ac68bfd" y="139.53546"/>
     <use style="fill:#1f77b4;stroke:#1f77b4;stroke-linejoin:miter;" x="96.436168" xlink:href="#m9e0ac68bfd" y="64.916606"/>
     <use style="fill:#1f77b4;stroke:#1f77b4;stroke-linejoin:miter;" x="108.111245" xlink:href="#m9e0ac68bfd" y="77.720982"/>
     <use style="fill:#1f77b4;stroke:#1f77b4;stroke-linejoin:miter;" x="119.786322" xlink:href="#m9e0ac68bfd" y="120.146552"/>
     <use style="fill:#1f77b4;stroke:#1f77b4;stroke-linejoin:miter;" x="131.461399" xlink:href="#m9e0ac68bfd" y="220.873747"/>
     <use style="fill:#1f77b4;stroke:#1f77b4;stroke-linejoin:miter;" x="143.136476" xlink:href="#m9e0ac68bfd" y="242.776828"/>
     <use style="fill:#1f77b4;stroke:#1f77b4;stroke-linejoin:miter;" x="154.811553" xlink:href="#m9e0ac68bfd" y="191.639292"/>
     <use style="fill:#1f77b4;stroke:#1f77b4;stroke-linejoin:miter;" x="166.48663" xlink:href="#m9e0ac68bfd" y="130.696113"/>
     <use style="fill:#1f77b4;stroke:#1f77b4;stroke-linejoin:miter;" x="178.161707" xlink:href="#m9e0ac68bfd" y="58.053579"/>
     <use style="fill:#1f77b4;stroke:#1f77b4;stroke-linejoin:miter;" x="189.836784" xlink:href="#m9e0ac68bfd" y="62.794828"/>
     <use style="fill:#1f77b4;stroke:#1f77b4;stroke-linejoin:miter;" x="201.511861" xlink:href="#m9e0ac68bfd" y="144.750701"/>
     <use style="fill:#1f77b4;stroke:#1f77b4;stroke-linejoin:miter;" x="213.186938" xlink:href="#m9e0ac68bfd" y="222.06737"/>
     <use style="fill:#1f77b4;stroke:#1f77b4;stroke-linejoin:miter;" x="224.862014" xlink:href="#m9e0ac68bfd" y="230.050828"/>
     <use style="fill:#1f77b4;stroke:#1f77b4;stroke-linejoin:miter;" x="236.537091" xlink:href="#m9e0ac68bfd" y="176.708338"/>
     <use style="fill:#1f77b4;stroke:#1f77b4;stroke-linejoin:miter;" x="248.212168" xlink:href="#m9e0ac68bfd" y="100.978152"/>
     <use style="fill:#1f77b4;stroke:#1f77b4;stroke-linejoin:miter;" x="259.887245" xlink:href="#m9e0ac68bfd" y="64.026828"/>
     <use style="fill:#1f77b4;stroke:#1f77b4;stroke-linejoin:miter;" x="271.562322" xlink:href="#m9e0ac68bfd" y="77.935169"/>
     <use style="fill:#1f77b4;stroke:#1f77b4;stroke-linejoin:miter;" x="283.237399" xlink:href="#m9e0ac68bfd" y="147.137548"/>
     <use style="fill:#1f77b4;stroke:#1f77b4;stroke-linejoin:miter;" x="294.912476" xlink:href="#m9e0ac68bfd" y="212.786609"/>
     <use style="fill:#1f77b4;stroke:#1f77b4;stroke-linejoin:miter;" x="306.587553" xlink:href="#m9e0ac68bfd" y="218.581228"/>
     <use style="fill:#1f77b4;stroke:#1f77b4;stroke-linejoin:miter;" x="318.26263" xlink:href="#m9e0ac68bfd" y="177.394221"/>
     <use style="fill:#1f77b4;stroke:#1f77b4;stroke-linejoin:miter;" x="329.937707" xlink:href="#m9e0ac68bfd" y="118.469082"/>
     <use style="fill:#1f77b4;stroke:#1f77b4;stroke-linejoin:miter;" x="341.612784" xlink:href="#m9e0ac68bfd" y="80.031628"/>
     <use style="fill:#1f77b4;stroke:#1f77b4;stroke-linejoin:miter;" x="353.287861" xlink:href="#m9e0ac68bfd" y="101.807215"/>
     <use style="fill:#1f77b4;stroke:#1f77b4;stroke-linejoin:miter;" x="364.962938" xlink:href="#m9e0ac68bfd" y="149.063613"/>
     <use style="fill:#1f77b4;stroke:#1f77b4;stroke-linejoin:miter;" x="376.638014" xlink:href="#m9e0ac68bfd" y="215.432345"/>
     <use style="fill:#1f77b4;stroke:#1f77b4;stroke-linejoin:miter;" x="388.313091" xlink:href="#m9e0ac68bfd" y="208.536252"/>
     <use style="fill:#1f77b4;stroke:#1f77b4;stroke-linejoin:miter;" x="399.988168" xlink:href="#m9e0ac68bfd" y="185.813013"/>
     <use style="fill:#1f77b4;stroke:#1f77b4;stroke-linejoin:miter;" x="411.663245" xlink:href="#m9e0ac68bfd" y="116.523086"/>
    </g>
   </g>
   <g id="line2d_30">
    <defs>
     <path d="M 0 3 
C 0.795609 3 1.55874 2.683901 2.12132 2.12132 
C 2.683901 1.55874 3 0.795609 3 0 
C 3 -0.795609 2.683901 -1.55874 2.12132 -2.12132 
C 1.55874 -2.683901 0.795609 -3 0 -3 
C -0.795609 -3 -1.55874 -2.683901 -2.12132 -2.12132 
C -2.683901 -1.55874 -3 -0.795609 -3 0 
C -3 0.795609 -2.683901 1.55874 -2.12132 2.12132 
C -1.55874 2.683901 -0.795609 3 0 3 
z
" id="m4d17eb6f4c" style="stroke:#d62728;"/>
    </defs>
    <g clip-path="url(#p304c686b55)">
     <use style="fill:#d62728;stroke:#d62728;" x="61.410938" xlink:href="#m4d17eb6f4c" y="271.284996"/>
     <use style="fill:#d62728;stroke:#d62728;" x="73.086014" xlink:href="#m4d17eb6f4c" y="236.862654"/>
     <use style="fill:#d62728;stroke:#d62728;" x="84.761091" xlink:href="#m4d17eb6f4c" y="161.830828"/>
     <use style="fill:#d62728;stroke:#d62728;" x="96.436168" xlink:href="#m4d17eb6f4c" y="183.541269"/>
     <use style="fill:#d62728;stroke:#d62728;" x="108.111245" xlink:href="#m4d17eb6f4c" y="199.830264"/>
     <use style="fill:#d62728;stroke:#d62728;" x="119.786322" xlink:href="#m4d17eb6f4c" y="198.865986"/>
     <use style="fill:#d62728;stroke:#d62728;" x="131.461399" xlink:href="#m4d17eb6f4c" y="186.488444"/>
     <use style="fill:#d62728;stroke:#d62728;" x="143.136476" xlink:href="#m4d17eb6f4c" y="163.418428"/>
     <use style="fill:#d62728;stroke:#d62728;" x="154.811553" xlink:href="#m4d17eb6f4c" y="188.903284"/>
     <use style="fill:#d62728;stroke:#d62728;" x="166.48663" xlink:href="#m4d17eb6f4c" y="179.610169"/>
     <use style="fill:#d62728;stroke:#d62728;" x="178.161707" xlink:href="#m4d17eb6f4c" y="169.028123"/>
     <use style="fill:#d62728;stroke:#d62728;" x="189.836784" xlink:href="#m4d17eb6f4c" y="150.62346"/>
     <use style="fill:#d62728;stroke:#d62728;" x="201.511861" xlink:href="#m4d17eb6f4c" y="171.734428"/>
     <use style="fill:#d62728;stroke:#d62728;" x="213.186938" xlink:href="#m4d17eb6f4c" y="179.001416"/>
     <use style="fill:#d62728;stroke:#d62728;" x="224.862014" xlink:href="#m4d17eb6f4c" y="163.036342"/>
     <use style="fill:#d62728;stroke:#d62728;" x="236.537091" xlink:href="#m4d17eb6f4c" y="161.955233"/>
    </g>
   </g>
   <g id="patch_3">
    <path d="M 61.410938 279.010828 
L 61.410938 12.898828 
" style="fill:none;stroke:#000000;stroke-linecap:square;stroke-linejoin:miter;stroke-width:0.8;"/>
   </g>
   <g id="patch_4">
    <path d="M 418.530938 279.010828 
L 418.530938 12.898828 
" style="fill:none;stroke:#000000;stroke-linecap:square;stroke-linejoin:miter;stroke-width:0.8;"/>
   </g>
   <g id="patch_5">
    <path d="M 61.410938 279.010828 
L 418.530938 279.010828 
" style="fill:none;stroke:#000000;stroke-linecap:square;stroke-linejoin:miter;stroke-width:0.8;"/>
   </g>
   <g id="patch_6">
    <path d="M 61.410938 12.898828 
L 418.530938 12.898828 
" style="fill:none;stroke:#000000;stroke-linecap:square;stroke-linejoin:miter;stroke-width:0.8;"/>
   </g>
   <g id="text_15">
    <!-- (C) -->
    <defs>
     <path d="M 64.40625 67.28125 
L 64.40625 56.890625 
Q 59.421875 61.53125 53.78125 63.8125 
Q 48.140625 66.109375 41.796875 66.109375 
Q 29.296875 66.109375 22.65625 58.46875 
Q 16.015625 50.828125 16.015625 36.375 
Q 16.015625 21.96875 22.65625 14.328125 
Q 29.296875 6.6875 41.796875 6.6875 
Q 48.140625 6.6875 53.78125 8.984375 
Q 59.421875 11.28125 64.40625 15.921875 
L 64.40625 5.609375 
Q 59.234375 2.09375 53.4375 0.328125 
Q 47.65625 -1.421875 41.21875 -1.421875 
Q 24.65625 -1.421875 15.125 8.703125 
Q 5.609375 18.84375 5.609375 36.375 
Q 5.609375 53.953125 15.125 64.078125 
Q 24.65625 74.21875 41.21875 74.21875 
Q 47.75 74.21875 53.53125 72.484375 
Q 59.328125 70.75 64.40625 67.28125 
z
" id="DejaVuSans-43"/>
    </defs>
    <g transform="translate(380.071861 39.510028)scale(0.2 -0.2)">
     <use xlink:href="#DejaVuSans-28"/>
     <use x="39.013672" xlink:href="#DejaVuSans-43"/>
     <use x="108.837891" xlink:href="#DejaVuSans-29"/>
    </g>
   </g>
  </g>
 </g>
 <defs>
  <clipPath id="p304c686b55">
   <rect height="266.112" width="357.12" x="61.410938" y="12.898828"/>
  </clipPath>
 </defs>
</svg>
