<?xml version="1.0" encoding="utf-8" standalone="no"?>
<!DOCTYPE svg PUBLIC "-//W3C//DTD SVG 1.1//EN"
  "http://www.w3.org/Graphics/SVG/1.1/DTD/svg11.dtd">
<!-- Created with matplotlib (http://matplotlib.org/) -->
<svg height="349pt" version="1.1" viewBox="0 0 429 349" width="429pt" xmlns="http://www.w3.org/2000/svg" xmlns:xlink="http://www.w3.org/1999/xlink">
 <defs>
  <style type="text/css">
*{stroke-linecap:butt;stroke-linejoin:round;}
  </style>
 </defs>
 <g id="figure_1">
  <g id="patch_1">
   <path d="M 0 349.665437 
L 429.230937 349.665437 
L 429.230937 0 
L 0 0 
z
" style="fill:none;"/>
  </g>
  <g id="axes_1">
   <g id="patch_2">
    <path d="M 61.410938 297.54825 
L 418.530938 297.54825 
L 418.530938 31.43625 
L 61.410938 31.43625 
z
" style="fill:none;"/>
   </g>
   <g id="matplotlib.axis_1">
    <g id="xtick_1">
     <g id="line2d_1">
      <path clip-path="url(#pcd39df9889)" d="M 77.643665 297.54825 
L 77.643665 31.43625 
" style="fill:none;stroke:#b0b0b0;stroke-linecap:square;stroke-width:0.8;"/>
     </g>
     <g id="line2d_2">
      <defs>
       <path d="M 0 0 
L 0 3.5 
" id="m005f0a59be" style="stroke:#000000;stroke-width:0.8;"/>
      </defs>
      <g>
       <use style="stroke:#000000;stroke-width:0.8;" x="77.643665" xlink:href="#m005f0a59be" y="297.54825"/>
      </g>
     </g>
     <g id="text_1">
      <!-- 0 -->
      <defs>
       <path d="M 31.78125 66.40625 
Q 24.171875 66.40625 20.328125 58.90625 
Q 16.5 51.421875 16.5 36.375 
Q 16.5 21.390625 20.328125 13.890625 
Q 24.171875 6.390625 31.78125 6.390625 
Q 39.453125 6.390625 43.28125 13.890625 
Q 47.125 21.390625 47.125 36.375 
Q 47.125 51.421875 43.28125 58.90625 
Q 39.453125 66.40625 31.78125 66.40625 
z
M 31.78125 74.21875 
Q 44.046875 74.21875 50.515625 64.515625 
Q 56.984375 54.828125 56.984375 36.375 
Q 56.984375 17.96875 50.515625 8.265625 
Q 44.046875 -1.421875 31.78125 -1.421875 
Q 19.53125 -1.421875 13.0625 8.265625 
Q 6.59375 17.96875 6.59375 36.375 
Q 6.59375 54.828125 13.0625 64.515625 
Q 19.53125 74.21875 31.78125 74.21875 
z
" id="DejaVuSans-30"/>
      </defs>
      <g transform="translate(72.87179 315.945906)scale(0.15 -0.15)">
       <use xlink:href="#DejaVuSans-30"/>
      </g>
     </g>
    </g>
    <g id="xtick_2">
     <g id="line2d_3">
      <path clip-path="url(#pcd39df9889)" d="M 167.825483 297.54825 
L 167.825483 31.43625 
" style="fill:none;stroke:#b0b0b0;stroke-linecap:square;stroke-width:0.8;"/>
     </g>
     <g id="line2d_4">
      <g>
       <use style="stroke:#000000;stroke-width:0.8;" x="167.825483" xlink:href="#m005f0a59be" y="297.54825"/>
      </g>
     </g>
     <g id="text_2">
      <!-- 50 -->
      <defs>
       <path d="M 10.796875 72.90625 
L 49.515625 72.90625 
L 49.515625 64.59375 
L 19.828125 64.59375 
L 19.828125 46.734375 
Q 21.96875 47.46875 24.109375 47.828125 
Q 26.265625 48.1875 28.421875 48.1875 
Q 40.625 48.1875 47.75 41.5 
Q 54.890625 34.8125 54.890625 23.390625 
Q 54.890625 11.625 47.5625 5.09375 
Q 40.234375 -1.421875 26.90625 -1.421875 
Q 22.3125 -1.421875 17.546875 -0.640625 
Q 12.796875 0.140625 7.71875 1.703125 
L 7.71875 11.625 
Q 12.109375 9.234375 16.796875 8.0625 
Q 21.484375 6.890625 26.703125 6.890625 
Q 35.15625 6.890625 40.078125 11.328125 
Q 45.015625 15.765625 45.015625 23.390625 
Q 45.015625 31 40.078125 35.4375 
Q 35.15625 39.890625 26.703125 39.890625 
Q 22.75 39.890625 18.8125 39.015625 
Q 14.890625 38.140625 10.796875 36.28125 
z
" id="DejaVuSans-35"/>
      </defs>
      <g transform="translate(158.281733 315.945906)scale(0.15 -0.15)">
       <use xlink:href="#DejaVuSans-35"/>
       <use x="63.623047" xlink:href="#DejaVuSans-30"/>
      </g>
     </g>
    </g>
    <g id="xtick_3">
     <g id="line2d_5">
      <path clip-path="url(#pcd39df9889)" d="M 258.007301 297.54825 
L 258.007301 31.43625 
" style="fill:none;stroke:#b0b0b0;stroke-linecap:square;stroke-width:0.8;"/>
     </g>
     <g id="line2d_6">
      <g>
       <use style="stroke:#000000;stroke-width:0.8;" x="258.007301" xlink:href="#m005f0a59be" y="297.54825"/>
      </g>
     </g>
     <g id="text_3">
      <!-- 100 -->
      <defs>
       <path d="M 12.40625 8.296875 
L 28.515625 8.296875 
L 28.515625 63.921875 
L 10.984375 60.40625 
L 10.984375 69.390625 
L 28.421875 72.90625 
L 38.28125 72.90625 
L 38.28125 8.296875 
L 54.390625 8.296875 
L 54.390625 0 
L 12.40625 0 
z
" id="DejaVuSans-31"/>
      </defs>
      <g transform="translate(243.691676 315.945906)scale(0.15 -0.15)">
       <use xlink:href="#DejaVuSans-31"/>
       <use x="63.623047" xlink:href="#DejaVuSans-30"/>
       <use x="127.246094" xlink:href="#DejaVuSans-30"/>
      </g>
     </g>
    </g>
    <g id="xtick_4">
     <g id="line2d_7">
      <path clip-path="url(#pcd39df9889)" d="M 348.189119 297.54825 
L 348.189119 31.43625 
" style="fill:none;stroke:#b0b0b0;stroke-linecap:square;stroke-width:0.8;"/>
     </g>
     <g id="line2d_8">
      <g>
       <use style="stroke:#000000;stroke-width:0.8;" x="348.189119" xlink:href="#m005f0a59be" y="297.54825"/>
      </g>
     </g>
     <g id="text_4">
      <!-- 150 -->
      <g transform="translate(333.873494 315.945906)scale(0.15 -0.15)">
       <use xlink:href="#DejaVuSans-31"/>
       <use x="63.623047" xlink:href="#DejaVuSans-35"/>
       <use x="127.246094" xlink:href="#DejaVuSans-30"/>
      </g>
     </g>
    </g>
    <g id="text_5">
     <!-- Time ($\mu s$) -->
     <defs>
      <path d="M -0.296875 72.90625 
L 61.375 72.90625 
L 61.375 64.59375 
L 35.5 64.59375 
L 35.5 0 
L 25.59375 0 
L 25.59375 64.59375 
L -0.296875 64.59375 
z
" id="DejaVuSans-54"/>
      <path d="M 9.421875 54.6875 
L 18.40625 54.6875 
L 18.40625 0 
L 9.421875 0 
z
M 9.421875 75.984375 
L 18.40625 75.984375 
L 18.40625 64.59375 
L 9.421875 64.59375 
z
" id="DejaVuSans-69"/>
      <path d="M 52 44.1875 
Q 55.375 50.25 60.0625 53.125 
Q 64.75 56 71.09375 56 
Q 79.640625 56 84.28125 50.015625 
Q 88.921875 44.046875 88.921875 33.015625 
L 88.921875 0 
L 79.890625 0 
L 79.890625 32.71875 
Q 79.890625 40.578125 77.09375 44.375 
Q 74.3125 48.1875 68.609375 48.1875 
Q 61.625 48.1875 57.5625 43.546875 
Q 53.515625 38.921875 53.515625 30.90625 
L 53.515625 0 
L 44.484375 0 
L 44.484375 32.71875 
Q 44.484375 40.625 41.703125 44.40625 
Q 38.921875 48.1875 33.109375 48.1875 
Q 26.21875 48.1875 22.15625 43.53125 
Q 18.109375 38.875 18.109375 30.90625 
L 18.109375 0 
L 9.078125 0 
L 9.078125 54.6875 
L 18.109375 54.6875 
L 18.109375 46.1875 
Q 21.1875 51.21875 25.484375 53.609375 
Q 29.78125 56 35.6875 56 
Q 41.65625 56 45.828125 52.96875 
Q 50 49.953125 52 44.1875 
z
" id="DejaVuSans-6d"/>
      <path d="M 56.203125 29.59375 
L 56.203125 25.203125 
L 14.890625 25.203125 
Q 15.484375 15.921875 20.484375 11.0625 
Q 25.484375 6.203125 34.421875 6.203125 
Q 39.59375 6.203125 44.453125 7.46875 
Q 49.3125 8.734375 54.109375 11.28125 
L 54.109375 2.78125 
Q 49.265625 0.734375 44.1875 -0.34375 
Q 39.109375 -1.421875 33.890625 -1.421875 
Q 20.796875 -1.421875 13.15625 6.1875 
Q 5.515625 13.8125 5.515625 26.8125 
Q 5.515625 40.234375 12.765625 48.109375 
Q 20.015625 56 32.328125 56 
Q 43.359375 56 49.78125 48.890625 
Q 56.203125 41.796875 56.203125 29.59375 
z
M 47.21875 32.234375 
Q 47.125 39.59375 43.09375 43.984375 
Q 39.0625 48.390625 32.421875 48.390625 
Q 24.90625 48.390625 20.390625 44.140625 
Q 15.875 39.890625 15.1875 32.171875 
z
" id="DejaVuSans-65"/>
      <path id="DejaVuSans-20"/>
      <path d="M 31 75.875 
Q 24.46875 64.65625 21.28125 53.65625 
Q 18.109375 42.671875 18.109375 31.390625 
Q 18.109375 20.125 21.3125 9.0625 
Q 24.515625 -2 31 -13.1875 
L 23.1875 -13.1875 
Q 15.875 -1.703125 12.234375 9.375 
Q 8.59375 20.453125 8.59375 31.390625 
Q 8.59375 42.28125 12.203125 53.3125 
Q 15.828125 64.359375 23.1875 75.875 
z
" id="DejaVuSans-28"/>
      <path d="M -1.3125 -20.796875 
L 13.375 54.6875 
L 22.40625 54.6875 
L 15.765625 20.65625 
Q 15.578125 19.625 15.421875 18.359375 
Q 15.28125 17.09375 15.28125 15.828125 
Q 15.28125 11.28125 18.140625 8.828125 
Q 21 6.390625 26.3125 6.390625 
Q 33.546875 6.390625 37.984375 10.484375 
Q 42.4375 14.59375 44 22.796875 
L 50.203125 54.6875 
L 59.1875 54.6875 
L 51.03125 12.640625 
Q 50.828125 11.71875 50.75 11.03125 
Q 50.6875 10.359375 50.6875 9.8125 
Q 50.6875 8.296875 51.296875 7.59375 
Q 51.90625 6.890625 53.21875 6.890625 
Q 53.71875 6.890625 54.5625 7.125 
Q 55.421875 7.375 56.984375 8.015625 
L 55.609375 0.78125 
Q 53.46875 -0.296875 51.515625 -0.859375 
Q 49.5625 -1.421875 47.703125 -1.421875 
Q 44.484375 -1.421875 42.65625 0.625 
Q 40.828125 2.6875 40.828125 6.296875 
Q 38.09375 2.390625 34.296875 0.484375 
Q 30.515625 -1.421875 25.390625 -1.421875 
Q 20.84375 -1.421875 17.453125 0.671875 
Q 14.0625 2.78125 12.984375 6.203125 
L 7.71875 -20.796875 
z
" id="DejaVuSans-Oblique-3bc"/>
      <path d="M 50 53.078125 
L 48.296875 44.578125 
Q 44.734375 46.53125 40.765625 47.5 
Q 36.8125 48.484375 32.625 48.484375 
Q 25.53125 48.484375 21.453125 46.0625 
Q 17.390625 43.65625 17.390625 39.5 
Q 17.390625 34.671875 26.859375 32.078125 
Q 27.59375 31.890625 27.9375 31.78125 
L 30.8125 30.90625 
Q 39.796875 28.421875 42.796875 25.6875 
Q 45.796875 22.953125 45.796875 18.21875 
Q 45.796875 9.515625 38.890625 4.046875 
Q 31.984375 -1.421875 20.796875 -1.421875 
Q 16.453125 -1.421875 11.671875 -0.578125 
Q 6.890625 0.25 1.125 2 
L 2.875 11.28125 
Q 7.8125 8.734375 12.59375 7.421875 
Q 17.390625 6.109375 21.78125 6.109375 
Q 28.375 6.109375 32.5 8.9375 
Q 36.625 11.765625 36.625 16.109375 
Q 36.625 20.796875 25.78125 23.6875 
L 24.859375 23.921875 
L 21.78125 24.703125 
Q 14.9375 26.515625 11.765625 29.46875 
Q 8.59375 32.421875 8.59375 37.015625 
Q 8.59375 45.75 15.15625 50.875 
Q 21.734375 56 33.015625 56 
Q 37.453125 56 41.671875 55.265625 
Q 45.90625 54.546875 50 53.078125 
z
" id="DejaVuSans-Oblique-73"/>
      <path d="M 8.015625 75.875 
L 15.828125 75.875 
Q 23.140625 64.359375 26.78125 53.3125 
Q 30.421875 42.28125 30.421875 31.390625 
Q 30.421875 20.453125 26.78125 9.375 
Q 23.140625 -1.703125 15.828125 -13.1875 
L 8.015625 -13.1875 
Q 14.5 -2 17.703125 9.0625 
Q 20.90625 20.125 20.90625 31.390625 
Q 20.90625 42.671875 17.703125 53.65625 
Q 14.5 64.65625 8.015625 75.875 
z
" id="DejaVuSans-29"/>
     </defs>
     <g transform="translate(192.570938 338.265437)scale(0.2 -0.2)">
      <use transform="translate(0 0.015625)" xlink:href="#DejaVuSans-54"/>
      <use transform="translate(61.083984 0.015625)" xlink:href="#DejaVuSans-69"/>
      <use transform="translate(88.867188 0.015625)" xlink:href="#DejaVuSans-6d"/>
      <use transform="translate(186.279297 0.015625)" xlink:href="#DejaVuSans-65"/>
      <use transform="translate(247.802734 0.015625)" xlink:href="#DejaVuSans-20"/>
      <use transform="translate(279.589844 0.015625)" xlink:href="#DejaVuSans-28"/>
      <use transform="translate(318.603516 0.015625)" xlink:href="#DejaVuSans-Oblique-3bc"/>
      <use transform="translate(382.226562 0.015625)" xlink:href="#DejaVuSans-Oblique-73"/>
      <use transform="translate(434.326172 0.015625)" xlink:href="#DejaVuSans-29"/>
     </g>
    </g>
   </g>
   <g id="matplotlib.axis_2">
    <g id="ytick_1">
     <g id="line2d_9">
      <path clip-path="url(#pcd39df9889)" d="M 61.410938 297.54825 
L 418.530938 297.54825 
" style="fill:none;stroke:#b0b0b0;stroke-linecap:square;stroke-width:0.8;"/>
     </g>
     <g id="line2d_10">
      <defs>
       <path d="M 0 0 
L -3.5 0 
" id="mc3ce260a5b" style="stroke:#000000;stroke-width:0.8;"/>
      </defs>
      <g>
       <use style="stroke:#000000;stroke-width:0.8;" x="61.410938" xlink:href="#mc3ce260a5b" y="297.54825"/>
      </g>
     </g>
     <g id="text_6">
      <!-- 0.0 -->
      <defs>
       <path d="M 10.6875 12.40625 
L 21 12.40625 
L 21 0 
L 10.6875 0 
z
" id="DejaVuSans-2e"/>
      </defs>
      <g transform="translate(30.55625 303.247078)scale(0.15 -0.15)">
       <use xlink:href="#DejaVuSans-30"/>
       <use x="63.623047" xlink:href="#DejaVuSans-2e"/>
       <use x="95.410156" xlink:href="#DejaVuSans-30"/>
      </g>
     </g>
    </g>
    <g id="ytick_2">
     <g id="line2d_11">
      <path clip-path="url(#pcd39df9889)" d="M 61.410938 244.32585 
L 418.530938 244.32585 
" style="fill:none;stroke:#b0b0b0;stroke-linecap:square;stroke-width:0.8;"/>
     </g>
     <g id="line2d_12">
      <g>
       <use style="stroke:#000000;stroke-width:0.8;" x="61.410938" xlink:href="#mc3ce260a5b" y="244.32585"/>
      </g>
     </g>
     <g id="text_7">
      <!-- 0.2 -->
      <defs>
       <path d="M 19.1875 8.296875 
L 53.609375 8.296875 
L 53.609375 0 
L 7.328125 0 
L 7.328125 8.296875 
Q 12.9375 14.109375 22.625 23.890625 
Q 32.328125 33.6875 34.8125 36.53125 
Q 39.546875 41.84375 41.421875 45.53125 
Q 43.3125 49.21875 43.3125 52.78125 
Q 43.3125 58.59375 39.234375 62.25 
Q 35.15625 65.921875 28.609375 65.921875 
Q 23.96875 65.921875 18.8125 64.3125 
Q 13.671875 62.703125 7.8125 59.421875 
L 7.8125 69.390625 
Q 13.765625 71.78125 18.9375 73 
Q 24.125 74.21875 28.421875 74.21875 
Q 39.75 74.21875 46.484375 68.546875 
Q 53.21875 62.890625 53.21875 53.421875 
Q 53.21875 48.921875 51.53125 44.890625 
Q 49.859375 40.875 45.40625 35.40625 
Q 44.1875 33.984375 37.640625 27.21875 
Q 31.109375 20.453125 19.1875 8.296875 
z
" id="DejaVuSans-32"/>
      </defs>
      <g transform="translate(30.55625 250.024678)scale(0.15 -0.15)">
       <use xlink:href="#DejaVuSans-30"/>
       <use x="63.623047" xlink:href="#DejaVuSans-2e"/>
       <use x="95.410156" xlink:href="#DejaVuSans-32"/>
      </g>
     </g>
    </g>
    <g id="ytick_3">
     <g id="line2d_13">
      <path clip-path="url(#pcd39df9889)" d="M 61.410938 191.10345 
L 418.530938 191.10345 
" style="fill:none;stroke:#b0b0b0;stroke-linecap:square;stroke-width:0.8;"/>
     </g>
     <g id="line2d_14">
      <g>
       <use style="stroke:#000000;stroke-width:0.8;" x="61.410938" xlink:href="#mc3ce260a5b" y="191.10345"/>
      </g>
     </g>
     <g id="text_8">
      <!-- 0.4 -->
      <defs>
       <path d="M 37.796875 64.3125 
L 12.890625 25.390625 
L 37.796875 25.390625 
z
M 35.203125 72.90625 
L 47.609375 72.90625 
L 47.609375 25.390625 
L 58.015625 25.390625 
L 58.015625 17.1875 
L 47.609375 17.1875 
L 47.609375 0 
L 37.796875 0 
L 37.796875 17.1875 
L 4.890625 17.1875 
L 4.890625 26.703125 
z
" id="DejaVuSans-34"/>
      </defs>
      <g transform="translate(30.55625 196.802278)scale(0.15 -0.15)">
       <use xlink:href="#DejaVuSans-30"/>
       <use x="63.623047" xlink:href="#DejaVuSans-2e"/>
       <use x="95.410156" xlink:href="#DejaVuSans-34"/>
      </g>
     </g>
    </g>
    <g id="ytick_4">
     <g id="line2d_15">
      <path clip-path="url(#pcd39df9889)" d="M 61.410938 137.88105 
L 418.530938 137.88105 
" style="fill:none;stroke:#b0b0b0;stroke-linecap:square;stroke-width:0.8;"/>
     </g>
     <g id="line2d_16">
      <g>
       <use style="stroke:#000000;stroke-width:0.8;" x="61.410938" xlink:href="#mc3ce260a5b" y="137.88105"/>
      </g>
     </g>
     <g id="text_9">
      <!-- 0.6 -->
      <defs>
       <path d="M 33.015625 40.375 
Q 26.375 40.375 22.484375 35.828125 
Q 18.609375 31.296875 18.609375 23.390625 
Q 18.609375 15.53125 22.484375 10.953125 
Q 26.375 6.390625 33.015625 6.390625 
Q 39.65625 6.390625 43.53125 10.953125 
Q 47.40625 15.53125 47.40625 23.390625 
Q 47.40625 31.296875 43.53125 35.828125 
Q 39.65625 40.375 33.015625 40.375 
z
M 52.59375 71.296875 
L 52.59375 62.3125 
Q 48.875 64.0625 45.09375 64.984375 
Q 41.3125 65.921875 37.59375 65.921875 
Q 27.828125 65.921875 22.671875 59.328125 
Q 17.53125 52.734375 16.796875 39.40625 
Q 19.671875 43.65625 24.015625 45.921875 
Q 28.375 48.1875 33.59375 48.1875 
Q 44.578125 48.1875 50.953125 41.515625 
Q 57.328125 34.859375 57.328125 23.390625 
Q 57.328125 12.15625 50.6875 5.359375 
Q 44.046875 -1.421875 33.015625 -1.421875 
Q 20.359375 -1.421875 13.671875 8.265625 
Q 6.984375 17.96875 6.984375 36.375 
Q 6.984375 53.65625 15.1875 63.9375 
Q 23.390625 74.21875 37.203125 74.21875 
Q 40.921875 74.21875 44.703125 73.484375 
Q 48.484375 72.75 52.59375 71.296875 
z
" id="DejaVuSans-36"/>
      </defs>
      <g transform="translate(30.55625 143.579878)scale(0.15 -0.15)">
       <use xlink:href="#DejaVuSans-30"/>
       <use x="63.623047" xlink:href="#DejaVuSans-2e"/>
       <use x="95.410156" xlink:href="#DejaVuSans-36"/>
      </g>
     </g>
    </g>
    <g id="ytick_5">
     <g id="line2d_17">
      <path clip-path="url(#pcd39df9889)" d="M 61.410938 84.65865 
L 418.530938 84.65865 
" style="fill:none;stroke:#b0b0b0;stroke-linecap:square;stroke-width:0.8;"/>
     </g>
     <g id="line2d_18">
      <g>
       <use style="stroke:#000000;stroke-width:0.8;" x="61.410938" xlink:href="#mc3ce260a5b" y="84.65865"/>
      </g>
     </g>
     <g id="text_10">
      <!-- 0.8 -->
      <defs>
       <path d="M 31.78125 34.625 
Q 24.75 34.625 20.71875 30.859375 
Q 16.703125 27.09375 16.703125 20.515625 
Q 16.703125 13.921875 20.71875 10.15625 
Q 24.75 6.390625 31.78125 6.390625 
Q 38.8125 6.390625 42.859375 10.171875 
Q 46.921875 13.96875 46.921875 20.515625 
Q 46.921875 27.09375 42.890625 30.859375 
Q 38.875 34.625 31.78125 34.625 
z
M 21.921875 38.8125 
Q 15.578125 40.375 12.03125 44.71875 
Q 8.5 49.078125 8.5 55.328125 
Q 8.5 64.0625 14.71875 69.140625 
Q 20.953125 74.21875 31.78125 74.21875 
Q 42.671875 74.21875 48.875 69.140625 
Q 55.078125 64.0625 55.078125 55.328125 
Q 55.078125 49.078125 51.53125 44.71875 
Q 48 40.375 41.703125 38.8125 
Q 48.828125 37.15625 52.796875 32.3125 
Q 56.78125 27.484375 56.78125 20.515625 
Q 56.78125 9.90625 50.3125 4.234375 
Q 43.84375 -1.421875 31.78125 -1.421875 
Q 19.734375 -1.421875 13.25 4.234375 
Q 6.78125 9.90625 6.78125 20.515625 
Q 6.78125 27.484375 10.78125 32.3125 
Q 14.796875 37.15625 21.921875 38.8125 
z
M 18.3125 54.390625 
Q 18.3125 48.734375 21.84375 45.5625 
Q 25.390625 42.390625 31.78125 42.390625 
Q 38.140625 42.390625 41.71875 45.5625 
Q 45.3125 48.734375 45.3125 54.390625 
Q 45.3125 60.0625 41.71875 63.234375 
Q 38.140625 66.40625 31.78125 66.40625 
Q 25.390625 66.40625 21.84375 63.234375 
Q 18.3125 60.0625 18.3125 54.390625 
z
" id="DejaVuSans-38"/>
      </defs>
      <g transform="translate(30.55625 90.357478)scale(0.15 -0.15)">
       <use xlink:href="#DejaVuSans-30"/>
       <use x="63.623047" xlink:href="#DejaVuSans-2e"/>
       <use x="95.410156" xlink:href="#DejaVuSans-38"/>
      </g>
     </g>
    </g>
    <g id="ytick_6">
     <g id="line2d_19">
      <path clip-path="url(#pcd39df9889)" d="M 61.410938 31.43625 
L 418.530938 31.43625 
" style="fill:none;stroke:#b0b0b0;stroke-linecap:square;stroke-width:0.8;"/>
     </g>
     <g id="line2d_20">
      <g>
       <use style="stroke:#000000;stroke-width:0.8;" x="61.410938" xlink:href="#mc3ce260a5b" y="31.43625"/>
      </g>
     </g>
     <g id="text_11">
      <!-- 1.0 -->
      <g transform="translate(30.55625 37.135078)scale(0.15 -0.15)">
       <use xlink:href="#DejaVuSans-31"/>
       <use x="63.623047" xlink:href="#DejaVuSans-2e"/>
       <use x="95.410156" xlink:href="#DejaVuSans-30"/>
      </g>
     </g>
    </g>
    <g id="text_12">
     <!-- Survival -->
     <defs>
      <path d="M 53.515625 70.515625 
L 53.515625 60.890625 
Q 47.90625 63.578125 42.921875 64.890625 
Q 37.9375 66.21875 33.296875 66.21875 
Q 25.25 66.21875 20.875 63.09375 
Q 16.5 59.96875 16.5 54.203125 
Q 16.5 49.359375 19.40625 46.890625 
Q 22.3125 44.4375 30.421875 42.921875 
L 36.375 41.703125 
Q 47.40625 39.59375 52.65625 34.296875 
Q 57.90625 29 57.90625 20.125 
Q 57.90625 9.515625 50.796875 4.046875 
Q 43.703125 -1.421875 29.984375 -1.421875 
Q 24.8125 -1.421875 18.96875 -0.25 
Q 13.140625 0.921875 6.890625 3.21875 
L 6.890625 13.375 
Q 12.890625 10.015625 18.65625 8.296875 
Q 24.421875 6.59375 29.984375 6.59375 
Q 38.421875 6.59375 43.015625 9.90625 
Q 47.609375 13.234375 47.609375 19.390625 
Q 47.609375 24.75 44.3125 27.78125 
Q 41.015625 30.8125 33.5 32.328125 
L 27.484375 33.5 
Q 16.453125 35.6875 11.515625 40.375 
Q 6.59375 45.0625 6.59375 53.421875 
Q 6.59375 63.09375 13.40625 68.65625 
Q 20.21875 74.21875 32.171875 74.21875 
Q 37.3125 74.21875 42.625 73.28125 
Q 47.953125 72.359375 53.515625 70.515625 
z
" id="DejaVuSans-53"/>
      <path d="M 8.5 21.578125 
L 8.5 54.6875 
L 17.484375 54.6875 
L 17.484375 21.921875 
Q 17.484375 14.15625 20.5 10.265625 
Q 23.53125 6.390625 29.59375 6.390625 
Q 36.859375 6.390625 41.078125 11.03125 
Q 45.3125 15.671875 45.3125 23.6875 
L 45.3125 54.6875 
L 54.296875 54.6875 
L 54.296875 0 
L 45.3125 0 
L 45.3125 8.40625 
Q 42.046875 3.421875 37.71875 1 
Q 33.40625 -1.421875 27.6875 -1.421875 
Q 18.265625 -1.421875 13.375 4.4375 
Q 8.5 10.296875 8.5 21.578125 
z
M 31.109375 56 
z
" id="DejaVuSans-75"/>
      <path d="M 41.109375 46.296875 
Q 39.59375 47.171875 37.8125 47.578125 
Q 36.03125 48 33.890625 48 
Q 26.265625 48 22.1875 43.046875 
Q 18.109375 38.09375 18.109375 28.8125 
L 18.109375 0 
L 9.078125 0 
L 9.078125 54.6875 
L 18.109375 54.6875 
L 18.109375 46.1875 
Q 20.953125 51.171875 25.484375 53.578125 
Q 30.03125 56 36.53125 56 
Q 37.453125 56 38.578125 55.875 
Q 39.703125 55.765625 41.0625 55.515625 
z
" id="DejaVuSans-72"/>
      <path d="M 2.984375 54.6875 
L 12.5 54.6875 
L 29.59375 8.796875 
L 46.6875 54.6875 
L 56.203125 54.6875 
L 35.6875 0 
L 23.484375 0 
z
" id="DejaVuSans-76"/>
      <path d="M 34.28125 27.484375 
Q 23.390625 27.484375 19.1875 25 
Q 14.984375 22.515625 14.984375 16.5 
Q 14.984375 11.71875 18.140625 8.90625 
Q 21.296875 6.109375 26.703125 6.109375 
Q 34.1875 6.109375 38.703125 11.40625 
Q 43.21875 16.703125 43.21875 25.484375 
L 43.21875 27.484375 
z
M 52.203125 31.203125 
L 52.203125 0 
L 43.21875 0 
L 43.21875 8.296875 
Q 40.140625 3.328125 35.546875 0.953125 
Q 30.953125 -1.421875 24.3125 -1.421875 
Q 15.921875 -1.421875 10.953125 3.296875 
Q 6 8.015625 6 15.921875 
Q 6 25.140625 12.171875 29.828125 
Q 18.359375 34.515625 30.609375 34.515625 
L 43.21875 34.515625 
L 43.21875 35.40625 
Q 43.21875 41.609375 39.140625 45 
Q 35.0625 48.390625 27.6875 48.390625 
Q 23 48.390625 18.546875 47.265625 
Q 14.109375 46.140625 10.015625 43.890625 
L 10.015625 52.203125 
Q 14.9375 54.109375 19.578125 55.046875 
Q 24.21875 56 28.609375 56 
Q 40.484375 56 46.34375 49.84375 
Q 52.203125 43.703125 52.203125 31.203125 
z
" id="DejaVuSans-61"/>
      <path d="M 9.421875 75.984375 
L 18.40625 75.984375 
L 18.40625 0 
L 9.421875 0 
z
" id="DejaVuSans-6c"/>
     </defs>
     <g transform="translate(22.396875 204.811)rotate(-90)scale(0.2 -0.2)">
      <use xlink:href="#DejaVuSans-53"/>
      <use x="63.476562" xlink:href="#DejaVuSans-75"/>
      <use x="126.855469" xlink:href="#DejaVuSans-72"/>
      <use x="167.96875" xlink:href="#DejaVuSans-76"/>
      <use x="227.148438" xlink:href="#DejaVuSans-69"/>
      <use x="254.931641" xlink:href="#DejaVuSans-76"/>
      <use x="314.111328" xlink:href="#DejaVuSans-61"/>
      <use x="375.390625" xlink:href="#DejaVuSans-6c"/>
     </g>
    </g>
   </g>
   <g id="LineCollection_1">
    <path clip-path="url(#pcd39df9889)" d="M 77.643665 297.54825 
L 77.643665 296.36553 
" style="fill:none;stroke:#1f77b4;stroke-width:1.5;"/>
    <path clip-path="url(#pcd39df9889)" d="M 88.465483 252.261748 
L 88.465483 237.657152 
" style="fill:none;stroke:#1f77b4;stroke-width:1.5;"/>
    <path clip-path="url(#pcd39df9889)" d="M 99.287301 161.934219 
L 99.287301 144.781494 
" style="fill:none;stroke:#1f77b4;stroke-width:1.5;"/>
    <path clip-path="url(#pcd39df9889)" d="M 110.109119 66.072137 
L 110.109119 55.012363 
" style="fill:none;stroke:#1f77b4;stroke-width:1.5;"/>
    <path clip-path="url(#pcd39df9889)" d="M 120.930938 67.841647 
L 120.930938 56.041897 
" style="fill:none;stroke:#1f77b4;stroke-width:1.5;"/>
    <path clip-path="url(#pcd39df9889)" d="M 131.752756 141.114922 
L 131.752756 123.507606 
" style="fill:none;stroke:#1f77b4;stroke-width:1.5;"/>
    <path clip-path="url(#pcd39df9889)" d="M 142.574574 207.908334 
L 142.574574 190.389059 
" style="fill:none;stroke:#1f77b4;stroke-width:1.5;"/>
    <path clip-path="url(#pcd39df9889)" d="M 153.396392 246.111986 
L 153.396392 231.372514 
" style="fill:none;stroke:#1f77b4;stroke-width:1.5;"/>
    <path clip-path="url(#pcd39df9889)" d="M 164.21821 216.791514 
L 164.21821 200.52428 
" style="fill:none;stroke:#1f77b4;stroke-width:1.5;"/>
    <path clip-path="url(#pcd39df9889)" d="M 175.040028 138.911201 
L 175.040028 122.129809 
" style="fill:none;stroke:#1f77b4;stroke-width:1.5;"/>
    <path clip-path="url(#pcd39df9889)" d="M 185.861847 79.913847 
L 185.861847 66.665245 
" style="fill:none;stroke:#1f77b4;stroke-width:1.5;"/>
    <path clip-path="url(#pcd39df9889)" d="M 196.683665 64.711135 
L 196.683665 54.242819 
" style="fill:none;stroke:#1f77b4;stroke-width:1.5;"/>
    <path clip-path="url(#pcd39df9889)" d="M 207.505483 113.248119 
L 207.505483 96.753612 
" style="fill:none;stroke:#1f77b4;stroke-width:1.5;"/>
    <path clip-path="url(#pcd39df9889)" d="M 218.327301 168.628778 
L 218.327301 150.977325 
" style="fill:none;stroke:#1f77b4;stroke-width:1.5;"/>
    <path clip-path="url(#pcd39df9889)" d="M 229.149119 265.115803 
L 229.149119 252.364697 
" style="fill:none;stroke:#1f77b4;stroke-width:1.5;"/>
    <path clip-path="url(#pcd39df9889)" d="M 239.970938 267.96242 
L 239.970938 255.76768 
" style="fill:none;stroke:#1f77b4;stroke-width:1.5;"/>
    <path clip-path="url(#pcd39df9889)" d="M 250.792756 199.832232 
L 250.792756 182.60708 
" style="fill:none;stroke:#1f77b4;stroke-width:1.5;"/>
    <path clip-path="url(#pcd39df9889)" d="M 261.614574 98.054799 
L 261.614574 82.951533 
" style="fill:none;stroke:#1f77b4;stroke-width:1.5;"/>
    <path clip-path="url(#pcd39df9889)" d="M 272.436392 64.307325 
L 272.436392 53.959918 
" style="fill:none;stroke:#1f77b4;stroke-width:1.5;"/>
    <path clip-path="url(#pcd39df9889)" d="M 283.25821 108.739401 
L 283.25821 93.129099 
" style="fill:none;stroke:#1f77b4;stroke-width:1.5;"/>
    <path clip-path="url(#pcd39df9889)" d="M 294.080028 197.986016 
L 294.080028 180.749858 
" style="fill:none;stroke:#1f77b4;stroke-width:1.5;"/>
    <path clip-path="url(#pcd39df9889)" d="M 304.901847 270.568695 
L 304.901847 258.621562 
" style="fill:none;stroke:#1f77b4;stroke-width:1.5;"/>
    <path clip-path="url(#pcd39df9889)" d="M 315.723665 253.296889 
L 315.723665 239.358266 
" style="fill:none;stroke:#1f77b4;stroke-width:1.5;"/>
    <path clip-path="url(#pcd39df9889)" d="M 326.545483 188.542989 
L 326.545483 170.425961 
" style="fill:none;stroke:#1f77b4;stroke-width:1.5;"/>
    <path clip-path="url(#pcd39df9889)" d="M 337.367301 99.985038 
L 337.367301 84.646255 
" style="fill:none;stroke:#1f77b4;stroke-width:1.5;"/>
    <path clip-path="url(#pcd39df9889)" d="M 348.189119 60.057906 
L 348.189119 49.700994 
" style="fill:none;stroke:#1f77b4;stroke-width:1.5;"/>
    <path clip-path="url(#pcd39df9889)" d="M 359.010938 87.663885 
L 359.010938 74.147692 
" style="fill:none;stroke:#1f77b4;stroke-width:1.5;"/>
    <path clip-path="url(#pcd39df9889)" d="M 369.832756 161.565995 
L 369.832756 143.972513 
" style="fill:none;stroke:#1f77b4;stroke-width:1.5;"/>
    <path clip-path="url(#pcd39df9889)" d="M 380.654574 234.708308 
L 380.654574 218.864992 
" style="fill:none;stroke:#1f77b4;stroke-width:1.5;"/>
    <path clip-path="url(#pcd39df9889)" d="M 391.476392 250.918914 
L 391.476392 236.523186 
" style="fill:none;stroke:#1f77b4;stroke-width:1.5;"/>
    <path clip-path="url(#pcd39df9889)" d="M 402.29821 203.745129 
L 402.29821 187.074525 
" style="fill:none;stroke:#1f77b4;stroke-width:1.5;"/>
   </g>
   <g id="LineCollection_2">
    <path clip-path="url(#pcd39df9889)" d="M 77.643665 293.318268 
L 77.643665 286.326567 
" style="fill:none;stroke:#d62728;stroke-width:1.5;"/>
    <path clip-path="url(#pcd39df9889)" d="M 88.465483 223.899953 
L 88.465483 204.876547 
" style="fill:none;stroke:#d62728;stroke-width:1.5;"/>
    <path clip-path="url(#pcd39df9889)" d="M 99.287301 102.218892 
L 99.287301 83.615704 
" style="fill:none;stroke:#d62728;stroke-width:1.5;"/>
    <path clip-path="url(#pcd39df9889)" d="M 110.109119 134.650067 
L 110.109119 114.82536 
" style="fill:none;stroke:#d62728;stroke-width:1.5;"/>
    <path clip-path="url(#pcd39df9889)" d="M 120.930938 215.250965 
L 120.930938 195.230335 
" style="fill:none;stroke:#d62728;stroke-width:1.5;"/>
    <path clip-path="url(#pcd39df9889)" d="M 131.752756 178.281014 
L 131.752756 157.314964 
" style="fill:none;stroke:#d62728;stroke-width:1.5;"/>
    <path clip-path="url(#pcd39df9889)" d="M 142.574574 158.508875 
L 142.574574 137.823846 
" style="fill:none;stroke:#d62728;stroke-width:1.5;"/>
    <path clip-path="url(#pcd39df9889)" d="M 153.396392 205.291378 
L 153.396392 183.841725 
" style="fill:none;stroke:#d62728;stroke-width:1.5;"/>
    <path clip-path="url(#pcd39df9889)" d="M 164.21821 175.693301 
L 164.21821 154.913833 
" style="fill:none;stroke:#d62728;stroke-width:1.5;"/>
    <path clip-path="url(#pcd39df9889)" d="M 175.040028 171.766901 
L 175.040028 150.260423 
" style="fill:none;stroke:#d62728;stroke-width:1.5;"/>
    <path clip-path="url(#pcd39df9889)" d="M 185.861847 145.142775 
L 185.861847 123.693122 
" style="fill:none;stroke:#d62728;stroke-width:1.5;"/>
    <path clip-path="url(#pcd39df9889)" d="M 196.683665 159.761898 
L 196.683665 139.480672 
" style="fill:none;stroke:#d62728;stroke-width:1.5;"/>
    <path clip-path="url(#pcd39df9889)" d="M 207.505483 155.889054 
L 207.505483 133.078603 
" style="fill:none;stroke:#d62728;stroke-width:1.5;"/>
    <path clip-path="url(#pcd39df9889)" d="M 218.327301 170.875132 
L 218.327301 149.580137 
" style="fill:none;stroke:#d62728;stroke-width:1.5;"/>
    <path clip-path="url(#pcd39df9889)" d="M 229.149119 200.728925 
L 229.149119 179.761123 
" style="fill:none;stroke:#d62728;stroke-width:1.5;"/>
    <path clip-path="url(#pcd39df9889)" d="M 239.970938 234.144494 
L 239.970938 215.343553 
" style="fill:none;stroke:#d62728;stroke-width:1.5;"/>
   </g>
   <g id="line2d_21">
    <path clip-path="url(#pcd39df9889)" d="M 77.643665 297.056409 
L 78.617628 297.056409 
L 79.266938 295.985686 
L 79.591592 296.660171 
L 79.916247 295.985686 
L 80.240901 294.472654 
L 80.565556 294.545506 
L 80.89021 293.132777 
L 81.214865 292.305938 
L 81.539519 290.807506 
L 81.864174 290.08995 
L 82.838138 286.505882 
L 85.110719 274.54978 
L 85.760028 269.872959 
L 86.409338 265.536373 
L 86.733992 264.207218 
L 87.058647 260.188074 
L 87.383301 258.814356 
L 88.03261 254.258218 
L 88.681919 247.730462 
L 89.006574 246.345095 
L 89.331228 242.51128 
L 90.954501 230.117609 
L 91.279156 225.542219 
L 91.928465 219.688793 
L 94.850356 191.899331 
L 95.17501 187.416412 
L 95.824319 181.824778 
L 96.798283 170.939487 
L 97.772247 161.928298 
L 98.096901 157.646372 
L 98.421556 155.541588 
L 99.070865 148.515683 
L 101.018792 129.83207 
L 101.343447 126.33346 
L 101.668101 124.446747 
L 103.291374 109.777198 
L 103.616028 106.771812 
L 103.940683 102.71625 
L 104.589992 98.533585 
L 106.213265 86.388597 
L 106.537919 83.460192 
L 106.862574 82.681375 
L 107.187228 80.436803 
L 107.511883 77.052691 
L 108.161192 74.661744 
L 108.485847 71.356124 
L 108.810501 70.498676 
L 109.135156 69.044196 
L 109.45981 66.459886 
L 109.784465 65.618895 
L 110.758428 61.273588 
L 111.083083 60.600774 
L 111.732392 58.220513 
L 112.057047 56.235138 
L 112.381701 55.54185 
L 112.706356 55.687883 
L 113.03101 54.836956 
L 113.680319 53.701158 
L 114.004974 52.113242 
L 114.329628 52.492912 
L 114.654283 51.953303 
L 114.978938 52.419674 
L 115.303592 50.284472 
L 115.628247 50.46399 
L 115.952901 51.199255 
L 116.277556 51.120265 
L 116.60221 51.199255 
L 117.900828 52.911794 
L 118.550138 54.682775 
L 118.874792 54.54934 
L 119.199447 55.467793 
L 119.524101 55.991535 
L 119.848756 58.062522 
L 120.17341 58.319258 
L 120.498065 59.526224 
L 121.147374 62.63017 
L 121.472028 63.319502 
L 121.796683 65.538829 
L 122.121338 66.370115 
L 122.445992 67.893391 
L 122.770647 70.111252 
L 123.74461 74.497162 
L 124.393919 79.969383 
L 124.718574 81.364787 
L 127.640465 101.427387 
L 127.965119 105.522963 
L 128.289774 107.299131 
L 130.562356 126.900141 
L 131.536319 135.935586 
L 131.860974 137.80799 
L 133.159592 150.888672 
L 133.484247 153.312285 
L 134.133556 159.510323 
L 134.782865 165.746127 
L 135.107519 167.332617 
L 135.756828 174.601332 
L 136.406138 179.84976 
L 137.055447 187.211535 
L 137.380101 188.936669 
L 139.328028 206.897223 
L 139.652683 209.288644 
L 140.301992 215.321063 
L 140.626647 218.152242 
L 140.951301 219.688793 
L 141.60061 226.741104 
L 141.925265 227.893683 
L 142.574574 233.251635 
L 145.821119 255.704003 
L 146.145774 256.611715 
L 146.795083 261.023246 
L 147.119738 262.517603 
L 147.444392 264.947616 
L 147.769047 265.669719 
L 148.093701 268.006751 
L 148.74301 270.49224 
L 149.067665 270.945241 
L 149.392319 272.440419 
L 149.716974 273.227208 
L 150.041628 275.367535 
L 150.366283 276.357067 
L 150.690938 278.249669 
L 151.015592 278.492959 
L 151.340247 279.123022 
L 151.664901 278.822657 
L 152.638865 281.982804 
L 152.963519 281.844214 
L 153.288174 282.180964 
L 153.612828 283.448592 
L 153.937483 283.931344 
L 154.262138 282.691543 
L 154.586792 282.74559 
L 154.911447 283.391623 
L 155.236101 283.099775 
L 155.560756 282.494052 
L 155.88541 282.404283 
L 156.210065 282.873593 
L 156.534719 283.006619 
L 156.859374 282.304396 
L 157.184028 281.03297 
L 157.508683 281.271903 
L 157.833338 280.063872 
L 158.157992 279.49282 
L 158.482647 278.450025 
L 158.807301 278.435714 
L 159.131956 276.116161 
L 159.781265 274.116455 
L 160.105919 273.02774 
L 160.430574 272.764755 
L 160.755228 270.376683 
L 161.079883 270.53426 
L 161.729192 266.988348 
L 162.378501 263.527447 
L 162.703156 262.542924 
L 163.02781 260.292443 
L 163.352465 259.259331 
L 163.677119 256.745361 
L 164.326428 253.380492 
L 165.625047 244.81142 
L 165.949701 244.81142 
L 166.274356 240.657137 
L 166.59901 239.596682 
L 167.248319 233.704772 
L 168.546938 224.706186 
L 168.871592 221.316121 
L 169.196247 219.893686 
L 169.845556 214.017426 
L 170.17021 212.408429 
L 170.819519 205.53817 
L 171.468828 201.133668 
L 172.118138 195.259509 
L 172.767447 189.878795 
L 173.74141 181.247715 
L 174.066065 179.126067 
L 175.689338 165.304985 
L 176.013992 162.650043 
L 176.338647 158.992976 
L 177.31261 151.704761 
L 177.637265 148.461516 
L 178.286574 145.18708 
L 178.935883 138.591933 
L 179.260538 136.856336 
L 179.585192 132.796837 
L 179.909847 130.8727 
L 180.88381 123.222764 
L 182.182428 113.594881 
L 182.831738 109.165885 
L 183.156392 106.233149 
L 183.481047 105.215333 
L 184.130356 101.020768 
L 184.45501 99.348913 
L 184.779665 96.61342 
L 185.104319 96.424161 
L 185.428974 93.106593 
L 185.753628 91.906531 
L 186.078283 89.500371 
L 186.402938 88.846576 
L 186.727592 86.227745 
L 187.052247 85.559589 
L 188.02621 80.212072 
L 188.350865 79.553054 
L 188.675519 77.279643 
L 189.000174 78.082882 
L 189.324828 75.471544 
L 189.974138 72.834278 
L 190.298792 72.773196 
L 190.623447 71.923922 
L 190.948101 70.00678 
L 191.272756 70.055776 
L 191.59741 69.513994 
L 191.922065 68.137953 
L 192.246719 68.102261 
L 192.571374 67.373584 
L 192.896028 67.703747 
L 193.220683 66.947564 
L 193.545338 67.813467 
L 193.869992 66.447061 
L 194.194647 66.357291 
L 194.519301 65.761871 
L 194.843956 65.867201 
L 195.16861 66.095981 
L 195.493265 67.262492 
L 195.817919 65.722372 
L 196.142574 67.881349 
L 196.467228 68.061985 
L 196.791883 67.422957 
L 197.441192 68.68234 
L 197.765847 70.619368 
L 198.090501 70.63034 
L 198.415156 70.476732 
L 198.73981 72.345137 
L 199.064465 73.413856 
L 199.389119 73.818388 
L 200.363083 76.88056 
L 200.687738 77.769395 
L 201.661701 82.167072 
L 201.986356 84.145966 
L 202.31101 85.210474 
L 202.960319 88.378657 
L 203.609628 91.372616 
L 204.583592 97.149941 
L 205.232901 100.857099 
L 207.505483 117.321051 
L 207.830138 118.196157 
L 208.154792 121.440563 
L 208.804101 125.253932 
L 209.778065 133.783604 
L 210.427374 137.639382 
L 210.752028 141.340254 
L 211.401338 146.469942 
L 211.725992 149.905313 
L 212.375301 153.736091 
L 212.699956 157.634131 
L 213.349265 162.666231 
L 213.673919 164.090835 
L 214.647883 173.615838 
L 215.621847 182.247416 
L 215.946501 183.178786 
L 216.271156 187.203339 
L 216.59581 189.502798 
L 217.245119 195.234403 
L 218.868392 209.197309 
L 219.193047 210.292351 
L 220.491665 222.413075 
L 220.816319 222.621225 
L 221.465628 228.578144 
L 222.764247 236.827821 
L 223.088901 240.281713 
L 224.387519 247.958439 
L 226.984756 262.534483 
L 227.30941 264.154317 
L 227.634065 264.866822 
L 228.283374 267.928475 
L 228.608028 269.547444 
L 228.932683 270.324158 
L 229.257338 272.189943 
L 229.581992 272.571799 
L 229.906647 274.104558 
L 230.231301 274.384666 
L 230.88061 277.339373 
L 231.205265 277.366803 
L 231.529919 278.158573 
L 231.854574 278.292603 
L 232.179228 279.206411 
L 232.828538 279.966749 
L 233.153192 279.766272 
L 233.477847 280.032524 
L 233.802501 281.115258 
L 234.127156 280.623803 
L 234.45181 280.466736 
L 234.776465 280.028466 
L 235.101119 280.80187 
L 235.425774 280.753306 
L 235.750428 280.283308 
L 236.075083 278.648398 
L 236.399738 279.137983 
L 236.724392 278.561268 
L 237.049047 279.117981 
L 237.373701 277.680618 
L 237.698356 277.021003 
L 238.347665 275.217539 
L 238.672319 274.647309 
L 238.996974 273.389852 
L 239.321628 272.605851 
L 239.646283 270.880886 
L 239.970938 270.668524 
L 240.295592 268.726625 
L 240.620247 268.202293 
L 241.269556 264.410007 
L 241.59421 262.743422 
L 241.918865 261.836701 
L 242.243519 259.165284 
L 242.892828 256.327652 
L 243.542138 252.421639 
L 244.516101 245.940468 
L 244.840756 245.029755 
L 245.814719 237.268939 
L 246.139374 236.205077 
L 246.464028 233.720786 
L 246.788683 230.328126 
L 247.113338 228.690129 
L 248.087301 221.04036 
L 249.061265 213.990121 
L 250.359883 201.598945 
L 250.684538 199.829614 
L 251.658501 191.18567 
L 254.255738 168.996714 
L 254.905047 162.730986 
L 255.554356 156.311927 
L 255.87901 152.688138 
L 256.203665 151.448587 
L 256.528319 147.775407 
L 256.852974 145.944671 
L 257.177628 143.405811 
L 257.826938 136.986844 
L 258.151592 135.085652 
L 258.476247 131.497292 
L 258.800901 129.47043 
L 259.774865 119.794733 
L 260.099519 119.113699 
L 260.748828 112.94877 
L 261.073483 110.429282 
L 261.398138 109.027846 
L 261.722792 107.054968 
L 262.047447 103.871402 
L 262.372101 102.790455 
L 263.346065 94.604235 
L 263.670719 93.777991 
L 264.320028 89.73516 
L 264.644683 88.301068 
L 265.293992 83.242477 
L 265.618647 82.807774 
L 265.943301 80.053069 
L 266.267956 79.136607 
L 266.59261 77.66264 
L 266.917265 76.762786 
L 267.241919 74.535887 
L 267.891228 73.263055 
L 268.540538 69.548045 
L 268.865192 68.76463 
L 269.189847 68.364002 
L 269.514501 66.972564 
L 270.16381 65.682873 
L 270.488465 64.964442 
L 270.813119 63.466885 
L 271.137774 64.484309 
L 271.462428 63.032424 
L 271.787083 62.867846 
L 272.111738 62.277064 
L 272.436392 62.069488 
L 272.761047 62.569403 
L 273.410356 61.322961 
L 273.73501 63.452922 
L 274.059665 62.477642 
L 274.384319 62.493071 
L 274.708974 64.089207 
L 275.033628 63.152117 
L 275.358283 64.373045 
L 275.682938 64.498217 
L 276.007592 65.748704 
L 276.332247 66.057001 
L 277.30621 69.296807 
L 277.630865 71.344859 
L 277.955519 71.291191 
L 278.280174 73.739389 
L 278.604828 73.283208 
L 278.929483 74.263795 
L 279.254138 76.263051 
L 279.578792 77.440232 
L 280.228101 81.804975 
L 280.552756 82.334309 
L 281.526719 87.854275 
L 281.851374 90.961518 
L 282.825338 96.374475 
L 284.44861 107.70197 
L 284.773265 109.314541 
L 286.071883 120.600069 
L 286.721192 125.011713 
L 287.045847 128.591225 
L 288.01981 135.406043 
L 288.344465 139.725114 
L 289.318428 147.415552 
L 289.967738 153.793695 
L 290.292392 155.853002 
L 290.941701 162.054277 
L 291.59101 167.494504 
L 292.564974 177.34936 
L 292.889628 179.772547 
L 293.863592 189.535853 
L 294.837556 196.685804 
L 295.486865 203.737148 
L 295.811519 205.281505 
L 296.460828 211.763028 
L 297.110138 217.24578 
L 297.434792 220.744585 
L 298.084101 224.720925 
L 298.73341 230.681188 
L 299.058065 231.950113 
L 299.382719 235.594669 
L 300.032028 239.152213 
L 301.655301 251.280238 
L 302.953919 259.474426 
L 303.278574 259.490226 
L 303.603228 263.09245 
L 304.252538 264.752009 
L 304.901847 269.117732 
L 305.226501 269.299107 
L 306.200465 274.757028 
L 306.849774 275.791741 
L 307.174428 277.722342 
L 307.823738 278.619354 
L 308.148392 279.843316 
L 308.473047 282.128065 
L 308.797701 280.947561 
L 309.122356 281.389059 
L 309.44701 282.339662 
L 309.771665 282.21623 
L 310.096319 282.745404 
L 310.420974 282.529959 
L 310.745628 283.334655 
L 311.394938 282.855307 
L 311.719592 282.74559 
L 312.044247 283.34198 
L 312.368901 283.277687 
L 312.693556 281.740401 
L 313.01821 282.547913 
L 313.342865 281.322113 
L 313.992174 280.950681 
L 314.316828 279.735889 
L 314.641483 280.355249 
L 314.966138 277.503952 
L 315.290792 277.075111 
L 315.615447 276.298064 
L 316.264756 273.227208 
L 316.58941 272.673953 
L 317.563374 268.481587 
L 318.212683 265.77944 
L 318.861992 263.239362 
L 319.186647 259.656125 
L 319.511301 259.267168 
L 319.835956 256.930005 
L 320.16061 255.857614 
L 320.809919 250.825539 
L 321.134574 249.392937 
L 321.783883 244.628549 
L 322.433192 240.97889 
L 322.757847 237.452822 
L 323.73181 231.39328 
L 324.056465 228.278557 
L 324.381119 226.335636 
L 324.705774 222.635747 
L 325.679738 216.095075 
L 326.653701 206.976224 
L 327.952319 196.526122 
L 332.497483 157.148537 
L 333.146792 151.593201 
L 336.068683 128.272674 
L 336.393338 126.688778 
L 336.717992 124.320383 
L 337.042647 120.82058 
L 337.367301 118.82669 
L 337.691956 115.819804 
L 338.01661 114.077377 
L 338.341265 111.317857 
L 338.665919 110.156143 
L 339.639883 102.818996 
L 339.964538 101.177607 
L 340.289192 100.374071 
L 341.263156 93.829625 
L 341.58781 92.9691 
L 341.912465 90.778898 
L 342.237119 89.73516 
L 342.561774 87.818753 
L 343.211083 85.307728 
L 343.860392 82.374127 
L 344.185047 81.728334 
L 344.509701 79.478575 
L 345.15901 78.198565 
L 345.483665 75.622019 
L 345.808319 76.853381 
L 346.132974 75.852399 
L 346.457628 73.966511 
L 346.782283 74.40035 
L 347.106938 72.653726 
L 347.431592 72.499431 
L 347.756247 72.61258 
L 348.080901 72.230297 
L 348.405556 71.483541 
L 348.73021 71.913417 
L 349.054865 70.660556 
L 349.379519 70.553536 
L 349.704174 70.597424 
L 350.028828 70.823328 
L 350.678138 71.589722 
L 351.002792 71.356124 
L 351.327447 72.93608 
L 351.652101 73.132062 
L 351.976756 73.68014 
L 352.30141 74.764348 
L 352.626065 75.263772 
L 352.950719 75.282762 
L 353.600028 76.720959 
L 353.924683 78.572085 
L 354.249338 78.408297 
L 354.573992 78.667369 
L 354.898647 81.340304 
L 355.223301 81.493602 
L 355.87261 84.389787 
L 356.197265 85.113221 
L 356.846574 88.562049 
L 357.820538 92.949481 
L 358.145192 93.269011 
L 358.794501 98.764174 
L 359.119156 99.592814 
L 359.44381 102.433243 
L 360.093119 105.126569 
L 360.742428 109.893375 
L 361.067083 111.281476 
L 361.716392 116.104086 
L 362.041047 118.553028 
L 362.365701 120.151194 
L 362.690356 123.002925 
L 363.01501 124.311023 
L 363.339665 127.941613 
L 363.664319 130.246913 
L 363.988974 130.998383 
L 364.638283 136.634706 
L 364.962938 138.596264 
L 365.612247 144.117834 
L 365.936901 145.877437 
L 366.261556 149.449025 
L 366.58621 151.033894 
L 367.560174 159.494068 
L 371.780683 192.608844 
L 372.105338 195.97984 
L 372.429992 197.571453 
L 374.377919 211.741073 
L 375.027228 216.792904 
L 375.676538 221.646888 
L 378.598428 239.937235 
L 378.923083 240.737985 
L 379.247738 242.298406 
L 379.572392 244.931618 
L 379.897047 245.682852 
L 380.546356 249.419096 
L 380.87101 250.598681 
L 381.195665 252.263914 
L 381.520319 254.824691 
L 381.844974 255.075074 
L 382.169628 255.850299 
L 382.494283 258.251304 
L 382.818938 258.584634 
L 383.143592 259.275005 
L 383.468247 260.78031 
L 383.792901 261.550021 
L 384.117556 263.265123 
L 384.44221 263.873064 
L 384.766865 265.073297 
L 385.091519 264.511808 
L 385.416174 264.929662 
L 385.740828 265.715436 
L 386.065483 267.073803 
L 386.390138 267.035823 
L 386.714792 267.650387 
L 387.039447 269.955857 
L 387.364101 269.997435 
L 387.688756 268.616904 
L 388.01341 269.749524 
L 388.338065 269.903818 
L 388.662719 268.570461 
L 388.987374 270.838413 
L 389.312028 269.687806 
L 389.636683 269.107656 
L 390.610647 269.790669 
L 390.935301 268.432213 
L 391.259956 267.754213 
L 391.58461 268.363089 
L 391.909265 267.187744 
L 392.233919 266.724509 
L 392.558574 265.651432 
L 392.883228 265.12716 
L 393.207883 264.198401 
L 394.181847 262.576684 
L 394.831156 258.86101 
L 395.15581 257.998689 
L 395.480465 257.471761 
L 395.805119 255.689374 
L 396.129774 254.767445 
L 396.454428 252.769013 
L 396.779083 252.394208 
L 397.428392 249.373318 
L 398.402356 244.884568 
L 398.72701 242.463975 
L 399.051665 241.374569 
L 399.376319 238.419394 
L 399.700974 238.492752 
L 400.025628 235.823814 
L 400.350283 234.447829 
L 400.674938 231.220858 
L 401.648901 225.795298 
L 401.973556 223.263963 
L 402.29821 221.81616 
L 402.29821 221.81616 
" style="fill:none;stroke:#1f77b4;stroke-linecap:square;stroke-width:1.5;"/>
   </g>
   <g id="line2d_22">
    <path clip-path="url(#pcd39df9889)" d="M 77.643665 297.044382 
L 77.986356 297.044382 
L 78.329047 296.436279 
L 78.671738 297.044382 
L 79.014428 296.6639 
L 79.357119 293.536327 
L 79.69981 293.080999 
L 80.042501 292.36444 
L 80.385192 289.641372 
L 80.727883 287.938433 
L 81.070574 284.848439 
L 81.413265 283.76023 
L 82.441338 272.906228 
L 82.784028 271.388 
L 85.182865 242.253988 
L 87.581701 209.219305 
L 91.00861 158.154082 
L 92.036683 143.667252 
L 92.379374 140.101202 
L 93.064756 130.080968 
L 94.092828 117.407951 
L 95.120901 105.375048 
L 95.463592 102.446933 
L 95.806283 100.489554 
L 97.177047 88.167357 
L 97.519738 86.678184 
L 97.862428 84.363531 
L 98.205119 81.022655 
L 98.54781 79.809595 
L 98.890501 77.94583 
L 99.233192 77.07992 
L 99.575883 75.396397 
L 100.261265 74.631861 
L 100.603956 73.59354 
L 100.946647 75.059847 
L 101.289338 73.412769 
L 101.632028 73.341777 
L 101.974719 73.716696 
L 102.31741 75.017341 
L 102.660101 74.846191 
L 103.345483 76.351463 
L 104.030865 80.156208 
L 105.058938 85.092232 
L 105.401628 86.68502 
L 106.08701 91.775908 
L 106.429701 94.593831 
L 107.115083 98.517765 
L 108.143156 106.929093 
L 108.485847 111.031877 
L 108.828538 112.80274 
L 109.171228 117.427499 
L 109.513919 119.605578 
L 111.912756 143.903019 
L 112.255447 145.323916 
L 112.598138 149.970806 
L 113.283519 154.944432 
L 114.311592 165.283459 
L 114.996974 170.758792 
L 115.339665 173.572662 
L 115.682356 177.567059 
L 116.025047 178.258149 
L 116.367738 181.20151 
L 116.710428 183.119861 
L 117.053119 186.504238 
L 117.39581 187.635418 
L 118.423883 194.06017 
L 118.766574 196.059218 
L 119.109265 196.645371 
L 119.451956 198.504551 
L 119.794647 198.727904 
L 120.137338 199.573823 
L 120.480028 200.895407 
L 120.822719 201.673948 
L 121.16541 203.110016 
L 121.508101 202.878272 
L 121.850792 204.030584 
L 122.193483 204.03506 
L 122.536174 203.150126 
L 122.878865 203.914199 
L 123.221556 203.623236 
L 123.564247 203.172409 
L 123.906938 203.310565 
L 124.249628 203.167953 
L 124.592319 202.437065 
L 124.93501 201.306254 
L 125.277701 201.270912 
L 125.620392 199.437469 
L 125.963083 198.495792 
L 126.305774 198.710386 
L 126.648465 196.436961 
L 126.991156 195.29969 
L 127.333847 194.923562 
L 128.361919 190.081055 
L 129.389992 184.353997 
L 129.732683 184.475732 
L 131.103447 178.079132 
L 131.446138 176.010588 
L 131.788828 175.305745 
L 132.131519 172.954888 
L 132.47421 171.75251 
L 132.816901 170.118764 
L 133.159592 167.78989 
L 133.844974 165.110032 
L 134.530356 162.614433 
L 135.215738 159.683117 
L 135.558428 158.258162 
L 135.901119 157.571235 
L 136.24381 156.338929 
L 137.957265 152.85413 
L 138.299956 153.126983 
L 138.642647 153.257113 
L 138.985338 151.527643 
L 139.328028 151.720739 
L 139.670719 150.957171 
L 140.01341 151.200219 
L 140.356101 151.687157 
L 140.698792 152.782768 
L 141.041483 152.211875 
L 141.384174 152.33361 
L 141.726865 152.245457 
L 142.069556 153.366255 
L 142.412247 153.832446 
L 142.754938 153.87425 
L 143.440319 155.023859 
L 143.78301 156.930103 
L 144.125701 157.296464 
L 144.811083 160.53722 
L 145.153774 161.403762 
L 145.839156 164.413855 
L 146.181847 165.427982 
L 146.524538 166.018459 
L 147.209919 170.197219 
L 147.55261 171.221805 
L 147.895301 173.216094 
L 148.923374 177.200698 
L 149.266065 179.323927 
L 149.608756 180.616254 
L 149.951447 182.685551 
L 150.636828 185.172224 
L 150.979519 186.689708 
L 151.32221 188.793107 
L 151.664901 189.732502 
L 152.692974 194.253891 
L 153.035665 195.187284 
L 153.378356 197.01716 
L 153.721047 197.701772 
L 154.063738 199.789349 
L 154.406428 200.303434 
L 154.749119 202.419239 
L 155.09181 202.468262 
L 155.434501 203.475517 
L 155.777192 204.959334 
L 156.119883 204.676071 
L 156.805265 206.99153 
L 157.147956 207.929834 
L 157.490647 207.932497 
L 157.833338 208.589012 
L 158.176028 208.961793 
L 158.86141 208.062585 
L 159.204101 208.589012 
L 159.546792 208.680564 
L 159.889483 208.538658 
L 160.232174 207.3811 
L 160.574865 207.649963 
L 160.917556 207.057552 
L 161.260247 207.891484 
L 161.602938 206.21124 
L 161.945628 206.072513 
L 162.288319 205.295707 
L 162.63101 203.632189 
L 162.973701 203.05208 
L 163.316392 201.571895 
L 163.659083 201.239988 
L 164.001774 199.516642 
L 164.344465 198.898703 
L 164.687156 197.797704 
L 165.029847 195.541796 
L 166.057919 191.866651 
L 167.428683 184.652037 
L 167.771374 184.257449 
L 168.114065 181.627911 
L 168.456756 181.61955 
L 168.799447 180.528466 
L 169.484828 175.691336 
L 169.827519 174.961616 
L 171.198283 168.367979 
L 171.540974 165.411465 
L 171.883665 164.438731 
L 172.226356 164.621161 
L 172.569047 162.863201 
L 172.911738 160.251137 
L 173.93981 155.604935 
L 174.282501 155.425178 
L 174.967883 153.87425 
L 175.653265 150.670535 
L 175.995956 150.375468 
L 176.681338 148.777667 
L 177.024028 147.145185 
L 177.366719 146.873143 
L 177.70941 145.12756 
L 178.052101 145.678209 
L 178.394792 145.989007 
L 179.080174 144.374554 
L 179.422865 144.576912 
L 179.765556 143.500072 
L 180.108247 143.945886 
L 180.793628 144.517152 
L 181.136319 144.12164 
L 181.47901 143.422911 
L 182.507083 145.64406 
L 182.849774 145.285498 
L 183.192465 145.984756 
L 183.535156 147.221697 
L 183.877847 146.511838 
L 184.220538 146.860391 
L 184.563228 148.654914 
L 184.905919 149.578789 
L 185.24861 150.173137 
L 185.591301 150.055111 
L 185.933992 150.704257 
L 186.619374 153.278102 
L 186.962065 154.572376 
L 187.647447 155.24124 
L 187.990138 156.447172 
L 188.332828 156.801044 
L 188.675519 158.878478 
L 189.01821 158.466322 
L 189.360901 160.810865 
L 189.703592 160.470882 
L 190.046283 161.055487 
L 191.759738 166.823655 
L 192.102428 166.216661 
L 192.445119 167.694918 
L 192.78781 167.385227 
L 193.130501 168.359721 
L 193.473192 168.706574 
L 193.815883 168.454692 
L 194.158574 168.846967 
L 194.843956 171.076741 
L 195.186647 170.077472 
L 195.529338 171.478865 
L 195.872028 171.557641 
L 196.214719 170.936348 
L 196.55741 172.022008 
L 196.900101 171.44155 
L 197.242792 170.614269 
L 197.585483 171.395942 
L 197.928174 171.628126 
L 198.270865 171.44155 
L 198.956247 170.932219 
L 199.298938 170.283933 
L 199.641628 171.308873 
L 199.984319 169.813203 
L 200.669701 168.929552 
L 201.012392 167.988092 
L 201.355083 167.876603 
L 201.697774 166.402475 
L 202.040465 166.778233 
L 202.383156 165.378431 
L 202.725847 166.129947 
L 203.068538 165.811998 
L 203.411228 163.240499 
L 203.753919 162.560533 
L 204.09661 162.684917 
L 204.439301 161.271086 
L 205.467374 159.836524 
L 205.810065 157.642009 
L 206.152756 157.283974 
L 206.495447 156.726106 
L 206.838138 155.153452 
L 207.180828 154.944432 
L 207.86621 152.480531 
L 208.551592 152.25805 
L 208.894283 151.363931 
L 209.236974 150.152061 
L 209.579665 150.008743 
L 209.922356 149.116296 
L 210.265047 147.880298 
L 210.607738 149.002009 
L 210.950428 147.677121 
L 211.293119 146.894397 
L 211.63581 146.647859 
L 211.978501 146.941154 
L 213.006574 144.973891 
L 213.691956 146.048516 
L 214.034647 145.870295 
L 214.377338 145.153172 
L 214.720028 146.65636 
L 215.062719 145.725163 
L 215.40541 146.20154 
L 215.748101 146.210041 
L 216.090792 147.349217 
L 216.433483 147.960723 
L 216.776174 147.787175 
L 217.118865 148.764968 
L 217.461556 150.299594 
L 218.146938 150.85179 
L 218.832319 153.202543 
L 219.17501 153.231927 
L 219.517701 155.228699 
L 219.860392 156.143259 
L 220.203083 157.379728 
L 220.545774 157.292301 
L 221.231156 161.092802 
L 221.916538 164.318494 
L 222.259228 164.488485 
L 222.94461 168.380367 
L 223.287301 168.768512 
L 223.629992 171.288143 
L 223.972683 171.615687 
L 224.315374 174.202874 
L 224.658065 174.857963 
L 225.343447 179.124094 
L 225.686138 179.944243 
L 226.028828 182.409645 
L 226.371519 183.92163 
L 226.71421 184.265845 
L 227.399592 187.952883 
L 227.742283 190.115061 
L 228.084974 190.485601 
L 228.427665 193.186271 
L 228.770356 194.737659 
L 229.113047 195.494239 
L 230.141119 199.72777 
L 230.826501 201.971233 
L 231.169192 202.392499 
L 231.511883 203.896294 
L 231.854574 204.631108 
L 232.197265 207.185148 
L 232.539956 206.764702 
L 232.882647 207.303631 
L 233.568028 209.781444 
L 233.910719 209.564188 
L 234.25341 211.165489 
L 234.596101 210.418925 
L 235.281483 212.806918 
L 235.966865 211.960891 
L 236.309556 213.093945 
L 236.652247 212.641885 
L 236.994938 213.164526 
L 237.337628 212.04707 
L 237.680319 213.517429 
L 238.02301 212.356187 
L 238.365701 212.17821 
L 238.708392 212.943374 
L 239.051083 211.184051 
L 239.736465 211.040192 
L 240.079156 209.836877 
L 240.421847 209.906169 
L 240.764538 209.531999 
L 241.107228 207.417556 
L 241.449919 207.545152 
L 241.79261 206.574166 
L 242.135301 206.751092 
L 242.477992 204.774988 
L 243.163374 202.477175 
L 243.506065 202.339511 
L 243.848756 199.569424 
L 244.191447 199.200885 
L 244.534138 197.230828 
L 244.876828 196.510773 
L 245.219519 194.681456 
L 245.56221 193.677032 
L 245.904901 193.151832 
L 246.247592 191.5186 
L 246.590283 190.741717 
L 246.932974 188.920626 
L 247.275665 188.003678 
L 247.618356 186.213386 
L 247.961047 186.478946 
L 248.303738 183.673963 
L 248.646428 182.518335 
L 248.989119 182.384563 
L 248.989119 182.384563 
" style="fill:none;stroke:#d62728;stroke-linecap:square;stroke-width:1.5;"/>
   </g>
   <g id="line2d_23">
    <defs>
     <path d="M 0 3 
C 0.795609 3 1.55874 2.683901 2.12132 2.12132 
C 2.683901 1.55874 3 0.795609 3 0 
C 3 -0.795609 2.683901 -1.55874 2.12132 -2.12132 
C 1.55874 -2.683901 0.795609 -3 0 -3 
C -0.795609 -3 -1.55874 -2.683901 -2.12132 -2.12132 
C -2.683901 -1.55874 -3 -0.795609 -3 0 
C -3 0.795609 -2.683901 1.55874 -2.12132 2.12132 
C -1.55874 2.683901 -0.795609 3 0 3 
z
" id="mcb2457e3ba" style="stroke:#1f77b4;"/>
    </defs>
    <g clip-path="url(#pcd39df9889)">
     <use style="fill:#1f77b4;stroke:#1f77b4;" x="77.643665" xlink:href="#mcb2457e3ba" y="296.95689"/>
     <use style="fill:#1f77b4;stroke:#1f77b4;" x="88.465483" xlink:href="#mcb2457e3ba" y="244.95945"/>
     <use style="fill:#1f77b4;stroke:#1f77b4;" x="99.287301" xlink:href="#mcb2457e3ba" y="153.357857"/>
     <use style="fill:#1f77b4;stroke:#1f77b4;" x="110.109119" xlink:href="#mcb2457e3ba" y="60.54225"/>
     <use style="fill:#1f77b4;stroke:#1f77b4;" x="120.930938" xlink:href="#mcb2457e3ba" y="61.941772"/>
     <use style="fill:#1f77b4;stroke:#1f77b4;" x="131.752756" xlink:href="#mcb2457e3ba" y="132.311264"/>
     <use style="fill:#1f77b4;stroke:#1f77b4;" x="142.574574" xlink:href="#mcb2457e3ba" y="199.148697"/>
     <use style="fill:#1f77b4;stroke:#1f77b4;" x="153.396392" xlink:href="#mcb2457e3ba" y="238.74225"/>
     <use style="fill:#1f77b4;stroke:#1f77b4;" x="164.21821" xlink:href="#mcb2457e3ba" y="208.657897"/>
     <use style="fill:#1f77b4;stroke:#1f77b4;" x="175.040028" xlink:href="#mcb2457e3ba" y="130.520505"/>
     <use style="fill:#1f77b4;stroke:#1f77b4;" x="185.861847" xlink:href="#mcb2457e3ba" y="73.289546"/>
     <use style="fill:#1f77b4;stroke:#1f77b4;" x="196.683665" xlink:href="#mcb2457e3ba" y="59.476977"/>
     <use style="fill:#1f77b4;stroke:#1f77b4;" x="207.505483" xlink:href="#mcb2457e3ba" y="105.000865"/>
     <use style="fill:#1f77b4;stroke:#1f77b4;" x="218.327301" xlink:href="#mcb2457e3ba" y="159.803052"/>
     <use style="fill:#1f77b4;stroke:#1f77b4;" x="229.149119" xlink:href="#mcb2457e3ba" y="258.74025"/>
     <use style="fill:#1f77b4;stroke:#1f77b4;" x="239.970938" xlink:href="#mcb2457e3ba" y="261.86505"/>
     <use style="fill:#1f77b4;stroke:#1f77b4;" x="250.792756" xlink:href="#mcb2457e3ba" y="191.219656"/>
     <use style="fill:#1f77b4;stroke:#1f77b4;" x="261.614574" xlink:href="#mcb2457e3ba" y="90.503166"/>
     <use style="fill:#1f77b4;stroke:#1f77b4;" x="272.436392" xlink:href="#mcb2457e3ba" y="59.133621"/>
     <use style="fill:#1f77b4;stroke:#1f77b4;" x="283.25821" xlink:href="#mcb2457e3ba" y="100.93425"/>
     <use style="fill:#1f77b4;stroke:#1f77b4;" x="294.080028" xlink:href="#mcb2457e3ba" y="189.367937"/>
     <use style="fill:#1f77b4;stroke:#1f77b4;" x="304.901847" xlink:href="#mcb2457e3ba" y="264.595129"/>
     <use style="fill:#1f77b4;stroke:#1f77b4;" x="315.723665" xlink:href="#mcb2457e3ba" y="246.327577"/>
     <use style="fill:#1f77b4;stroke:#1f77b4;" x="326.545483" xlink:href="#mcb2457e3ba" y="179.484475"/>
     <use style="fill:#1f77b4;stroke:#1f77b4;" x="337.367301" xlink:href="#mcb2457e3ba" y="92.315646"/>
     <use style="fill:#1f77b4;stroke:#1f77b4;" x="348.189119" xlink:href="#mcb2457e3ba" y="54.87945"/>
     <use style="fill:#1f77b4;stroke:#1f77b4;" x="359.010938" xlink:href="#mcb2457e3ba" y="80.905788"/>
     <use style="fill:#1f77b4;stroke:#1f77b4;" x="369.832756" xlink:href="#mcb2457e3ba" y="152.769254"/>
     <use style="fill:#1f77b4;stroke:#1f77b4;" x="380.654574" xlink:href="#mcb2457e3ba" y="226.78665"/>
     <use style="fill:#1f77b4;stroke:#1f77b4;" x="391.476392" xlink:href="#mcb2457e3ba" y="243.72105"/>
     <use style="fill:#1f77b4;stroke:#1f77b4;" x="402.29821" xlink:href="#mcb2457e3ba" y="195.409827"/>
    </g>
   </g>
   <g id="line2d_24">
    <defs>
     <path d="M 0 3 
C 0.795609 3 1.55874 2.683901 2.12132 2.12132 
C 2.683901 1.55874 3 0.795609 3 0 
C 3 -0.795609 2.683901 -1.55874 2.12132 -2.12132 
C 1.55874 -2.683901 0.795609 -3 0 -3 
C -0.795609 -3 -1.55874 -2.683901 -2.12132 -2.12132 
C -2.683901 -1.55874 -3 -0.795609 -3 0 
C -3 0.795609 -2.683901 1.55874 -2.12132 2.12132 
C -1.55874 2.683901 -0.795609 3 0 3 
z
" id="m4d17eb6f4c" style="stroke:#d62728;"/>
    </defs>
    <g clip-path="url(#pcd39df9889)">
     <use style="fill:#d62728;stroke:#d62728;" x="77.643665" xlink:href="#m4d17eb6f4c" y="289.822418"/>
     <use style="fill:#d62728;stroke:#d62728;" x="88.465483" xlink:href="#m4d17eb6f4c" y="214.38825"/>
     <use style="fill:#d62728;stroke:#d62728;" x="99.287301" xlink:href="#m4d17eb6f4c" y="92.917298"/>
     <use style="fill:#d62728;stroke:#d62728;" x="110.109119" xlink:href="#m4d17eb6f4c" y="124.737713"/>
     <use style="fill:#d62728;stroke:#d62728;" x="120.930938" xlink:href="#m4d17eb6f4c" y="205.24065"/>
     <use style="fill:#d62728;stroke:#d62728;" x="131.752756" xlink:href="#m4d17eb6f4c" y="167.797989"/>
     <use style="fill:#d62728;stroke:#d62728;" x="142.574574" xlink:href="#m4d17eb6f4c" y="148.16636"/>
     <use style="fill:#d62728;stroke:#d62728;" x="153.396392" xlink:href="#m4d17eb6f4c" y="194.566551"/>
     <use style="fill:#d62728;stroke:#d62728;" x="164.21821" xlink:href="#m4d17eb6f4c" y="165.303567"/>
     <use style="fill:#d62728;stroke:#d62728;" x="175.040028" xlink:href="#m4d17eb6f4c" y="161.013662"/>
     <use style="fill:#d62728;stroke:#d62728;" x="185.861847" xlink:href="#m4d17eb6f4c" y="134.417949"/>
     <use style="fill:#d62728;stroke:#d62728;" x="196.683665" xlink:href="#m4d17eb6f4c" y="149.621285"/>
     <use style="fill:#d62728;stroke:#d62728;" x="207.505483" xlink:href="#m4d17eb6f4c" y="144.483829"/>
     <use style="fill:#d62728;stroke:#d62728;" x="218.327301" xlink:href="#m4d17eb6f4c" y="160.227635"/>
     <use style="fill:#d62728;stroke:#d62728;" x="229.149119" xlink:href="#m4d17eb6f4c" y="190.245024"/>
     <use style="fill:#d62728;stroke:#d62728;" x="239.970938" xlink:href="#m4d17eb6f4c" y="224.744024"/>
    </g>
   </g>
   <g id="patch_3">
    <path d="M 61.410938 297.54825 
L 61.410938 31.43625 
" style="fill:none;stroke:#000000;stroke-linecap:square;stroke-linejoin:miter;stroke-width:0.8;"/>
   </g>
   <g id="patch_4">
    <path d="M 418.530938 297.54825 
L 418.530938 31.43625 
" style="fill:none;stroke:#000000;stroke-linecap:square;stroke-linejoin:miter;stroke-width:0.8;"/>
   </g>
   <g id="patch_5">
    <path d="M 61.410938 297.54825 
L 418.530938 297.54825 
" style="fill:none;stroke:#000000;stroke-linecap:square;stroke-linejoin:miter;stroke-width:0.8;"/>
   </g>
   <g id="patch_6">
    <path d="M 61.410938 31.43625 
L 418.530938 31.43625 
" style="fill:none;stroke:#000000;stroke-linecap:square;stroke-linejoin:miter;stroke-width:0.8;"/>
   </g>
   <g id="text_13">
    <!-- Y heating -->
    <defs>
     <path d="M -0.203125 72.90625 
L 10.40625 72.90625 
L 30.609375 42.921875 
L 50.6875 72.90625 
L 61.28125 72.90625 
L 35.5 34.71875 
L 35.5 0 
L 25.59375 0 
L 25.59375 34.71875 
z
" id="DejaVuSans-59"/>
     <path d="M 54.890625 33.015625 
L 54.890625 0 
L 45.90625 0 
L 45.90625 32.71875 
Q 45.90625 40.484375 42.875 44.328125 
Q 39.84375 48.1875 33.796875 48.1875 
Q 26.515625 48.1875 22.3125 43.546875 
Q 18.109375 38.921875 18.109375 30.90625 
L 18.109375 0 
L 9.078125 0 
L 9.078125 75.984375 
L 18.109375 75.984375 
L 18.109375 46.1875 
Q 21.34375 51.125 25.703125 53.5625 
Q 30.078125 56 35.796875 56 
Q 45.21875 56 50.046875 50.171875 
Q 54.890625 44.34375 54.890625 33.015625 
z
" id="DejaVuSans-68"/>
     <path d="M 18.3125 70.21875 
L 18.3125 54.6875 
L 36.8125 54.6875 
L 36.8125 47.703125 
L 18.3125 47.703125 
L 18.3125 18.015625 
Q 18.3125 11.328125 20.140625 9.421875 
Q 21.96875 7.515625 27.59375 7.515625 
L 36.8125 7.515625 
L 36.8125 0 
L 27.59375 0 
Q 17.1875 0 13.234375 3.875 
Q 9.28125 7.765625 9.28125 18.015625 
L 9.28125 47.703125 
L 2.6875 47.703125 
L 2.6875 54.6875 
L 9.28125 54.6875 
L 9.28125 70.21875 
z
" id="DejaVuSans-74"/>
     <path d="M 54.890625 33.015625 
L 54.890625 0 
L 45.90625 0 
L 45.90625 32.71875 
Q 45.90625 40.484375 42.875 44.328125 
Q 39.84375 48.1875 33.796875 48.1875 
Q 26.515625 48.1875 22.3125 43.546875 
Q 18.109375 38.921875 18.109375 30.90625 
L 18.109375 0 
L 9.078125 0 
L 9.078125 54.6875 
L 18.109375 54.6875 
L 18.109375 46.1875 
Q 21.34375 51.125 25.703125 53.5625 
Q 30.078125 56 35.796875 56 
Q 45.21875 56 50.046875 50.171875 
Q 54.890625 44.34375 54.890625 33.015625 
z
" id="DejaVuSans-6e"/>
     <path d="M 45.40625 27.984375 
Q 45.40625 37.75 41.375 43.109375 
Q 37.359375 48.484375 30.078125 48.484375 
Q 22.859375 48.484375 18.828125 43.109375 
Q 14.796875 37.75 14.796875 27.984375 
Q 14.796875 18.265625 18.828125 12.890625 
Q 22.859375 7.515625 30.078125 7.515625 
Q 37.359375 7.515625 41.375 12.890625 
Q 45.40625 18.265625 45.40625 27.984375 
z
M 54.390625 6.78125 
Q 54.390625 -7.171875 48.1875 -13.984375 
Q 42 -20.796875 29.203125 -20.796875 
Q 24.46875 -20.796875 20.265625 -20.09375 
Q 16.0625 -19.390625 12.109375 -17.921875 
L 12.109375 -9.1875 
Q 16.0625 -11.328125 19.921875 -12.34375 
Q 23.78125 -13.375 27.78125 -13.375 
Q 36.625 -13.375 41.015625 -8.765625 
Q 45.40625 -4.15625 45.40625 5.171875 
L 45.40625 9.625 
Q 42.625 4.78125 38.28125 2.390625 
Q 33.9375 0 27.875 0 
Q 17.828125 0 11.671875 7.65625 
Q 5.515625 15.328125 5.515625 27.984375 
Q 5.515625 40.671875 11.671875 48.328125 
Q 17.828125 56 27.875 56 
Q 33.9375 56 38.28125 53.609375 
Q 42.625 51.21875 45.40625 46.390625 
L 45.40625 54.6875 
L 54.390625 54.6875 
z
" id="DejaVuSans-67"/>
    </defs>
    <g transform="translate(183.224063 25.43625)scale(0.24 -0.24)">
     <use xlink:href="#DejaVuSans-59"/>
     <use x="61.083984" xlink:href="#DejaVuSans-20"/>
     <use x="92.871094" xlink:href="#DejaVuSans-68"/>
     <use x="156.25" xlink:href="#DejaVuSans-65"/>
     <use x="217.773438" xlink:href="#DejaVuSans-61"/>
     <use x="279.052734" xlink:href="#DejaVuSans-74"/>
     <use x="318.261719" xlink:href="#DejaVuSans-69"/>
     <use x="346.044922" xlink:href="#DejaVuSans-6e"/>
     <use x="409.423828" xlink:href="#DejaVuSans-67"/>
    </g>
   </g>
   <g id="legend_1">
    <g id="patch_7">
     <path d="M 296.074687 196.8485 
L 404.530937 196.8485 
Q 408.530937 196.8485 408.530937 192.8485 
L 408.530937 136.136 
Q 408.530937 132.136 404.530937 132.136 
L 296.074687 132.136 
Q 292.074687 132.136 292.074687 136.136 
L 292.074687 192.8485 
Q 292.074687 196.8485 296.074687 196.8485 
z
" style="fill:#ffffff;opacity:0.8;stroke:#cccccc;stroke-linejoin:miter;"/>
    </g>
    <g id="LineCollection_3">
     <path d="M 320.074687 158.332875 
L 320.074687 138.332875 
" style="fill:none;stroke:#1f77b4;stroke-width:1.5;"/>
    </g>
    <g id="line2d_25"/>
    <g id="line2d_26">
     <g>
      <use style="fill:#1f77b4;stroke:#1f77b4;" x="320.074687" xlink:href="#mcb2457e3ba" y="148.332875"/>
     </g>
    </g>
    <g id="text_14">
     <!-- Cold -->
     <defs>
      <path d="M 64.40625 67.28125 
L 64.40625 56.890625 
Q 59.421875 61.53125 53.78125 63.8125 
Q 48.140625 66.109375 41.796875 66.109375 
Q 29.296875 66.109375 22.65625 58.46875 
Q 16.015625 50.828125 16.015625 36.375 
Q 16.015625 21.96875 22.65625 14.328125 
Q 29.296875 6.6875 41.796875 6.6875 
Q 48.140625 6.6875 53.78125 8.984375 
Q 59.421875 11.28125 64.40625 15.921875 
L 64.40625 5.609375 
Q 59.234375 2.09375 53.4375 0.328125 
Q 47.65625 -1.421875 41.21875 -1.421875 
Q 24.65625 -1.421875 15.125 8.703125 
Q 5.609375 18.84375 5.609375 36.375 
Q 5.609375 53.953125 15.125 64.078125 
Q 24.65625 74.21875 41.21875 74.21875 
Q 47.75 74.21875 53.53125 72.484375 
Q 59.328125 70.75 64.40625 67.28125 
z
" id="DejaVuSans-43"/>
      <path d="M 30.609375 48.390625 
Q 23.390625 48.390625 19.1875 42.75 
Q 14.984375 37.109375 14.984375 27.296875 
Q 14.984375 17.484375 19.15625 11.84375 
Q 23.34375 6.203125 30.609375 6.203125 
Q 37.796875 6.203125 41.984375 11.859375 
Q 46.1875 17.53125 46.1875 27.296875 
Q 46.1875 37.015625 41.984375 42.703125 
Q 37.796875 48.390625 30.609375 48.390625 
z
M 30.609375 56 
Q 42.328125 56 49.015625 48.375 
Q 55.71875 40.765625 55.71875 27.296875 
Q 55.71875 13.875 49.015625 6.21875 
Q 42.328125 -1.421875 30.609375 -1.421875 
Q 18.84375 -1.421875 12.171875 6.21875 
Q 5.515625 13.875 5.515625 27.296875 
Q 5.515625 40.765625 12.171875 48.375 
Q 18.84375 56 30.609375 56 
z
" id="DejaVuSans-6f"/>
      <path d="M 45.40625 46.390625 
L 45.40625 75.984375 
L 54.390625 75.984375 
L 54.390625 0 
L 45.40625 0 
L 45.40625 8.203125 
Q 42.578125 3.328125 38.25 0.953125 
Q 33.9375 -1.421875 27.875 -1.421875 
Q 17.96875 -1.421875 11.734375 6.484375 
Q 5.515625 14.40625 5.515625 27.296875 
Q 5.515625 40.1875 11.734375 48.09375 
Q 17.96875 56 27.875 56 
Q 33.9375 56 38.25 53.625 
Q 42.578125 51.265625 45.40625 46.390625 
z
M 14.796875 27.296875 
Q 14.796875 17.390625 18.875 11.75 
Q 22.953125 6.109375 30.078125 6.109375 
Q 37.203125 6.109375 41.296875 11.75 
Q 45.40625 17.390625 45.40625 27.296875 
Q 45.40625 37.203125 41.296875 42.84375 
Q 37.203125 48.484375 30.078125 48.484375 
Q 22.953125 48.484375 18.875 42.84375 
Q 14.796875 37.203125 14.796875 27.296875 
z
" id="DejaVuSans-64"/>
     </defs>
     <g transform="translate(356.074687 155.332875)scale(0.2 -0.2)">
      <use xlink:href="#DejaVuSans-43"/>
      <use x="69.824219" xlink:href="#DejaVuSans-6f"/>
      <use x="131.005859" xlink:href="#DejaVuSans-6c"/>
      <use x="158.789062" xlink:href="#DejaVuSans-64"/>
     </g>
    </g>
    <g id="LineCollection_4">
     <path d="M 320.074687 187.689125 
L 320.074687 167.689125 
" style="fill:none;stroke:#d62728;stroke-width:1.5;"/>
    </g>
    <g id="line2d_27"/>
    <g id="line2d_28">
     <g>
      <use style="fill:#d62728;stroke:#d62728;" x="320.074687" xlink:href="#m4d17eb6f4c" y="177.689125"/>
     </g>
    </g>
    <g id="text_15">
     <!-- Hot -->
     <defs>
      <path d="M 9.8125 72.90625 
L 19.671875 72.90625 
L 19.671875 43.015625 
L 55.515625 43.015625 
L 55.515625 72.90625 
L 65.375 72.90625 
L 65.375 0 
L 55.515625 0 
L 55.515625 34.71875 
L 19.671875 34.71875 
L 19.671875 0 
L 9.8125 0 
z
" id="DejaVuSans-48"/>
     </defs>
     <g transform="translate(356.074687 184.689125)scale(0.2 -0.2)">
      <use xlink:href="#DejaVuSans-48"/>
      <use x="75.195312" xlink:href="#DejaVuSans-6f"/>
      <use x="136.376953" xlink:href="#DejaVuSans-74"/>
     </g>
    </g>
   </g>
  </g>
 </g>
 <defs>
  <clipPath id="pcd39df9889">
   <rect height="266.112" width="357.12" x="61.410938" y="31.43625"/>
  </clipPath>
 </defs>
</svg>
