<?xml version="1.0" encoding="utf-8" standalone="no"?>
<!DOCTYPE svg PUBLIC "-//W3C//DTD SVG 1.1//EN"
  "http://www.w3.org/Graphics/SVG/1.1/DTD/svg11.dtd">
<!-- Created with matplotlib (http://matplotlib.org/) -->
<svg height="331pt" version="1.1" viewBox="0 0 429 331" width="429pt" xmlns="http://www.w3.org/2000/svg" xmlns:xlink="http://www.w3.org/1999/xlink">
 <defs>
  <style type="text/css">
*{stroke-linecap:butt;stroke-linejoin:round;}
  </style>
 </defs>
 <g id="figure_1">
  <g id="patch_1">
   <path d="M 0 331.128016 
L 429.230937 331.128016 
L 429.230937 0 
L 0 0 
z
" style="fill:none;"/>
  </g>
  <g id="axes_1">
   <g id="patch_2">
    <path d="M 61.410938 279.010828 
L 418.530938 279.010828 
L 418.530938 12.898828 
L 61.410938 12.898828 
z
" style="fill:none;"/>
   </g>
   <g id="matplotlib.axis_1">
    <g id="xtick_1">
     <g id="line2d_1">
      <path clip-path="url(#p1da729468f)" d="M 61.410938 279.010828 
L 61.410938 12.898828 
" style="fill:none;stroke:#b0b0b0;stroke-linecap:square;stroke-width:0.8;"/>
     </g>
     <g id="line2d_2">
      <defs>
       <path d="M 0 0 
L 0 3.5 
" id="m005f0a59be" style="stroke:#000000;stroke-width:0.8;"/>
      </defs>
      <g>
       <use style="stroke:#000000;stroke-width:0.8;" x="61.410938" xlink:href="#m005f0a59be" y="279.010828"/>
      </g>
     </g>
     <g id="text_1">
      <!-- 0 -->
      <defs>
       <path d="M 31.78125 66.40625 
Q 24.171875 66.40625 20.328125 58.90625 
Q 16.5 51.421875 16.5 36.375 
Q 16.5 21.390625 20.328125 13.890625 
Q 24.171875 6.390625 31.78125 6.390625 
Q 39.453125 6.390625 43.28125 13.890625 
Q 47.125 21.390625 47.125 36.375 
Q 47.125 51.421875 43.28125 58.90625 
Q 39.453125 66.40625 31.78125 66.40625 
z
M 31.78125 74.21875 
Q 44.046875 74.21875 50.515625 64.515625 
Q 56.984375 54.828125 56.984375 36.375 
Q 56.984375 17.96875 50.515625 8.265625 
Q 44.046875 -1.421875 31.78125 -1.421875 
Q 19.53125 -1.421875 13.0625 8.265625 
Q 6.59375 17.96875 6.59375 36.375 
Q 6.59375 54.828125 13.0625 64.515625 
Q 19.53125 74.21875 31.78125 74.21875 
z
" id="DejaVuSans-30"/>
      </defs>
      <g transform="translate(56.639063 297.408484)scale(0.15 -0.15)">
       <use xlink:href="#DejaVuSans-30"/>
      </g>
     </g>
    </g>
    <g id="xtick_2">
     <g id="line2d_3">
      <path clip-path="url(#p1da729468f)" d="M 125.182366 279.010828 
L 125.182366 12.898828 
" style="fill:none;stroke:#b0b0b0;stroke-linecap:square;stroke-width:0.8;"/>
     </g>
     <g id="line2d_4">
      <g>
       <use style="stroke:#000000;stroke-width:0.8;" x="125.182366" xlink:href="#m005f0a59be" y="279.010828"/>
      </g>
     </g>
     <g id="text_2">
      <!-- 50 -->
      <defs>
       <path d="M 10.796875 72.90625 
L 49.515625 72.90625 
L 49.515625 64.59375 
L 19.828125 64.59375 
L 19.828125 46.734375 
Q 21.96875 47.46875 24.109375 47.828125 
Q 26.265625 48.1875 28.421875 48.1875 
Q 40.625 48.1875 47.75 41.5 
Q 54.890625 34.8125 54.890625 23.390625 
Q 54.890625 11.625 47.5625 5.09375 
Q 40.234375 -1.421875 26.90625 -1.421875 
Q 22.3125 -1.421875 17.546875 -0.640625 
Q 12.796875 0.140625 7.71875 1.703125 
L 7.71875 11.625 
Q 12.109375 9.234375 16.796875 8.0625 
Q 21.484375 6.890625 26.703125 6.890625 
Q 35.15625 6.890625 40.078125 11.328125 
Q 45.015625 15.765625 45.015625 23.390625 
Q 45.015625 31 40.078125 35.4375 
Q 35.15625 39.890625 26.703125 39.890625 
Q 22.75 39.890625 18.8125 39.015625 
Q 14.890625 38.140625 10.796875 36.28125 
z
" id="DejaVuSans-35"/>
      </defs>
      <g transform="translate(115.638616 297.408484)scale(0.15 -0.15)">
       <use xlink:href="#DejaVuSans-35"/>
       <use x="63.623047" xlink:href="#DejaVuSans-30"/>
      </g>
     </g>
    </g>
    <g id="xtick_3">
     <g id="line2d_5">
      <path clip-path="url(#p1da729468f)" d="M 188.953795 279.010828 
L 188.953795 12.898828 
" style="fill:none;stroke:#b0b0b0;stroke-linecap:square;stroke-width:0.8;"/>
     </g>
     <g id="line2d_6">
      <g>
       <use style="stroke:#000000;stroke-width:0.8;" x="188.953795" xlink:href="#m005f0a59be" y="279.010828"/>
      </g>
     </g>
     <g id="text_3">
      <!-- 100 -->
      <defs>
       <path d="M 12.40625 8.296875 
L 28.515625 8.296875 
L 28.515625 63.921875 
L 10.984375 60.40625 
L 10.984375 69.390625 
L 28.421875 72.90625 
L 38.28125 72.90625 
L 38.28125 8.296875 
L 54.390625 8.296875 
L 54.390625 0 
L 12.40625 0 
z
" id="DejaVuSans-31"/>
      </defs>
      <g transform="translate(174.63817 297.408484)scale(0.15 -0.15)">
       <use xlink:href="#DejaVuSans-31"/>
       <use x="63.623047" xlink:href="#DejaVuSans-30"/>
       <use x="127.246094" xlink:href="#DejaVuSans-30"/>
      </g>
     </g>
    </g>
    <g id="xtick_4">
     <g id="line2d_7">
      <path clip-path="url(#p1da729468f)" d="M 252.725223 279.010828 
L 252.725223 12.898828 
" style="fill:none;stroke:#b0b0b0;stroke-linecap:square;stroke-width:0.8;"/>
     </g>
     <g id="line2d_8">
      <g>
       <use style="stroke:#000000;stroke-width:0.8;" x="252.725223" xlink:href="#m005f0a59be" y="279.010828"/>
      </g>
     </g>
     <g id="text_4">
      <!-- 150 -->
      <g transform="translate(238.409598 297.408484)scale(0.15 -0.15)">
       <use xlink:href="#DejaVuSans-31"/>
       <use x="63.623047" xlink:href="#DejaVuSans-35"/>
       <use x="127.246094" xlink:href="#DejaVuSans-30"/>
      </g>
     </g>
    </g>
    <g id="xtick_5">
     <g id="line2d_9">
      <path clip-path="url(#p1da729468f)" d="M 316.496652 279.010828 
L 316.496652 12.898828 
" style="fill:none;stroke:#b0b0b0;stroke-linecap:square;stroke-width:0.8;"/>
     </g>
     <g id="line2d_10">
      <g>
       <use style="stroke:#000000;stroke-width:0.8;" x="316.496652" xlink:href="#m005f0a59be" y="279.010828"/>
      </g>
     </g>
     <g id="text_5">
      <!-- 200 -->
      <defs>
       <path d="M 19.1875 8.296875 
L 53.609375 8.296875 
L 53.609375 0 
L 7.328125 0 
L 7.328125 8.296875 
Q 12.9375 14.109375 22.625 23.890625 
Q 32.328125 33.6875 34.8125 36.53125 
Q 39.546875 41.84375 41.421875 45.53125 
Q 43.3125 49.21875 43.3125 52.78125 
Q 43.3125 58.59375 39.234375 62.25 
Q 35.15625 65.921875 28.609375 65.921875 
Q 23.96875 65.921875 18.8125 64.3125 
Q 13.671875 62.703125 7.8125 59.421875 
L 7.8125 69.390625 
Q 13.765625 71.78125 18.9375 73 
Q 24.125 74.21875 28.421875 74.21875 
Q 39.75 74.21875 46.484375 68.546875 
Q 53.21875 62.890625 53.21875 53.421875 
Q 53.21875 48.921875 51.53125 44.890625 
Q 49.859375 40.875 45.40625 35.40625 
Q 44.1875 33.984375 37.640625 27.21875 
Q 31.109375 20.453125 19.1875 8.296875 
z
" id="DejaVuSans-32"/>
      </defs>
      <g transform="translate(302.181027 297.408484)scale(0.15 -0.15)">
       <use xlink:href="#DejaVuSans-32"/>
       <use x="63.623047" xlink:href="#DejaVuSans-30"/>
       <use x="127.246094" xlink:href="#DejaVuSans-30"/>
      </g>
     </g>
    </g>
    <g id="xtick_6">
     <g id="line2d_11">
      <path clip-path="url(#p1da729468f)" d="M 380.26808 279.010828 
L 380.26808 12.898828 
" style="fill:none;stroke:#b0b0b0;stroke-linecap:square;stroke-width:0.8;"/>
     </g>
     <g id="line2d_12">
      <g>
       <use style="stroke:#000000;stroke-width:0.8;" x="380.26808" xlink:href="#m005f0a59be" y="279.010828"/>
      </g>
     </g>
     <g id="text_6">
      <!-- 250 -->
      <g transform="translate(365.952455 297.408484)scale(0.15 -0.15)">
       <use xlink:href="#DejaVuSans-32"/>
       <use x="63.623047" xlink:href="#DejaVuSans-35"/>
       <use x="127.246094" xlink:href="#DejaVuSans-30"/>
      </g>
     </g>
    </g>
    <g id="text_7">
     <!-- Time ($\mu s$) -->
     <defs>
      <path d="M -0.296875 72.90625 
L 61.375 72.90625 
L 61.375 64.59375 
L 35.5 64.59375 
L 35.5 0 
L 25.59375 0 
L 25.59375 64.59375 
L -0.296875 64.59375 
z
" id="DejaVuSans-54"/>
      <path d="M 9.421875 54.6875 
L 18.40625 54.6875 
L 18.40625 0 
L 9.421875 0 
z
M 9.421875 75.984375 
L 18.40625 75.984375 
L 18.40625 64.59375 
L 9.421875 64.59375 
z
" id="DejaVuSans-69"/>
      <path d="M 52 44.1875 
Q 55.375 50.25 60.0625 53.125 
Q 64.75 56 71.09375 56 
Q 79.640625 56 84.28125 50.015625 
Q 88.921875 44.046875 88.921875 33.015625 
L 88.921875 0 
L 79.890625 0 
L 79.890625 32.71875 
Q 79.890625 40.578125 77.09375 44.375 
Q 74.3125 48.1875 68.609375 48.1875 
Q 61.625 48.1875 57.5625 43.546875 
Q 53.515625 38.921875 53.515625 30.90625 
L 53.515625 0 
L 44.484375 0 
L 44.484375 32.71875 
Q 44.484375 40.625 41.703125 44.40625 
Q 38.921875 48.1875 33.109375 48.1875 
Q 26.21875 48.1875 22.15625 43.53125 
Q 18.109375 38.875 18.109375 30.90625 
L 18.109375 0 
L 9.078125 0 
L 9.078125 54.6875 
L 18.109375 54.6875 
L 18.109375 46.1875 
Q 21.1875 51.21875 25.484375 53.609375 
Q 29.78125 56 35.6875 56 
Q 41.65625 56 45.828125 52.96875 
Q 50 49.953125 52 44.1875 
z
" id="DejaVuSans-6d"/>
      <path d="M 56.203125 29.59375 
L 56.203125 25.203125 
L 14.890625 25.203125 
Q 15.484375 15.921875 20.484375 11.0625 
Q 25.484375 6.203125 34.421875 6.203125 
Q 39.59375 6.203125 44.453125 7.46875 
Q 49.3125 8.734375 54.109375 11.28125 
L 54.109375 2.78125 
Q 49.265625 0.734375 44.1875 -0.34375 
Q 39.109375 -1.421875 33.890625 -1.421875 
Q 20.796875 -1.421875 13.15625 6.1875 
Q 5.515625 13.8125 5.515625 26.8125 
Q 5.515625 40.234375 12.765625 48.109375 
Q 20.015625 56 32.328125 56 
Q 43.359375 56 49.78125 48.890625 
Q 56.203125 41.796875 56.203125 29.59375 
z
M 47.21875 32.234375 
Q 47.125 39.59375 43.09375 43.984375 
Q 39.0625 48.390625 32.421875 48.390625 
Q 24.90625 48.390625 20.390625 44.140625 
Q 15.875 39.890625 15.1875 32.171875 
z
" id="DejaVuSans-65"/>
      <path id="DejaVuSans-20"/>
      <path d="M 31 75.875 
Q 24.46875 64.65625 21.28125 53.65625 
Q 18.109375 42.671875 18.109375 31.390625 
Q 18.109375 20.125 21.3125 9.0625 
Q 24.515625 -2 31 -13.1875 
L 23.1875 -13.1875 
Q 15.875 -1.703125 12.234375 9.375 
Q 8.59375 20.453125 8.59375 31.390625 
Q 8.59375 42.28125 12.203125 53.3125 
Q 15.828125 64.359375 23.1875 75.875 
z
" id="DejaVuSans-28"/>
      <path d="M -1.3125 -20.796875 
L 13.375 54.6875 
L 22.40625 54.6875 
L 15.765625 20.65625 
Q 15.578125 19.625 15.421875 18.359375 
Q 15.28125 17.09375 15.28125 15.828125 
Q 15.28125 11.28125 18.140625 8.828125 
Q 21 6.390625 26.3125 6.390625 
Q 33.546875 6.390625 37.984375 10.484375 
Q 42.4375 14.59375 44 22.796875 
L 50.203125 54.6875 
L 59.1875 54.6875 
L 51.03125 12.640625 
Q 50.828125 11.71875 50.75 11.03125 
Q 50.6875 10.359375 50.6875 9.8125 
Q 50.6875 8.296875 51.296875 7.59375 
Q 51.90625 6.890625 53.21875 6.890625 
Q 53.71875 6.890625 54.5625 7.125 
Q 55.421875 7.375 56.984375 8.015625 
L 55.609375 0.78125 
Q 53.46875 -0.296875 51.515625 -0.859375 
Q 49.5625 -1.421875 47.703125 -1.421875 
Q 44.484375 -1.421875 42.65625 0.625 
Q 40.828125 2.6875 40.828125 6.296875 
Q 38.09375 2.390625 34.296875 0.484375 
Q 30.515625 -1.421875 25.390625 -1.421875 
Q 20.84375 -1.421875 17.453125 0.671875 
Q 14.0625 2.78125 12.984375 6.203125 
L 7.71875 -20.796875 
z
" id="DejaVuSans-Oblique-3bc"/>
      <path d="M 50 53.078125 
L 48.296875 44.578125 
Q 44.734375 46.53125 40.765625 47.5 
Q 36.8125 48.484375 32.625 48.484375 
Q 25.53125 48.484375 21.453125 46.0625 
Q 17.390625 43.65625 17.390625 39.5 
Q 17.390625 34.671875 26.859375 32.078125 
Q 27.59375 31.890625 27.9375 31.78125 
L 30.8125 30.90625 
Q 39.796875 28.421875 42.796875 25.6875 
Q 45.796875 22.953125 45.796875 18.21875 
Q 45.796875 9.515625 38.890625 4.046875 
Q 31.984375 -1.421875 20.796875 -1.421875 
Q 16.453125 -1.421875 11.671875 -0.578125 
Q 6.890625 0.25 1.125 2 
L 2.875 11.28125 
Q 7.8125 8.734375 12.59375 7.421875 
Q 17.390625 6.109375 21.78125 6.109375 
Q 28.375 6.109375 32.5 8.9375 
Q 36.625 11.765625 36.625 16.109375 
Q 36.625 20.796875 25.78125 23.6875 
L 24.859375 23.921875 
L 21.78125 24.703125 
Q 14.9375 26.515625 11.765625 29.46875 
Q 8.59375 32.421875 8.59375 37.015625 
Q 8.59375 45.75 15.15625 50.875 
Q 21.734375 56 33.015625 56 
Q 37.453125 56 41.671875 55.265625 
Q 45.90625 54.546875 50 53.078125 
z
" id="DejaVuSans-Oblique-73"/>
      <path d="M 8.015625 75.875 
L 15.828125 75.875 
Q 23.140625 64.359375 26.78125 53.3125 
Q 30.421875 42.28125 30.421875 31.390625 
Q 30.421875 20.453125 26.78125 9.375 
Q 23.140625 -1.703125 15.828125 -13.1875 
L 8.015625 -13.1875 
Q 14.5 -2 17.703125 9.0625 
Q 20.90625 20.125 20.90625 31.390625 
Q 20.90625 42.671875 17.703125 53.65625 
Q 14.5 64.65625 8.015625 75.875 
z
" id="DejaVuSans-29"/>
     </defs>
     <g transform="translate(192.570938 319.728016)scale(0.2 -0.2)">
      <use transform="translate(0 0.015625)" xlink:href="#DejaVuSans-54"/>
      <use transform="translate(61.083984 0.015625)" xlink:href="#DejaVuSans-69"/>
      <use transform="translate(88.867188 0.015625)" xlink:href="#DejaVuSans-6d"/>
      <use transform="translate(186.279297 0.015625)" xlink:href="#DejaVuSans-65"/>
      <use transform="translate(247.802734 0.015625)" xlink:href="#DejaVuSans-20"/>
      <use transform="translate(279.589844 0.015625)" xlink:href="#DejaVuSans-28"/>
      <use transform="translate(318.603516 0.015625)" xlink:href="#DejaVuSans-Oblique-3bc"/>
      <use transform="translate(382.226562 0.015625)" xlink:href="#DejaVuSans-Oblique-73"/>
      <use transform="translate(434.326172 0.015625)" xlink:href="#DejaVuSans-29"/>
     </g>
    </g>
   </g>
   <g id="matplotlib.axis_2">
    <g id="ytick_1">
     <g id="line2d_13">
      <path clip-path="url(#p1da729468f)" d="M 61.410938 279.010828 
L 418.530938 279.010828 
" style="fill:none;stroke:#b0b0b0;stroke-linecap:square;stroke-width:0.8;"/>
     </g>
     <g id="line2d_14">
      <defs>
       <path d="M 0 0 
L -3.5 0 
" id="mc3ce260a5b" style="stroke:#000000;stroke-width:0.8;"/>
      </defs>
      <g>
       <use style="stroke:#000000;stroke-width:0.8;" x="61.410938" xlink:href="#mc3ce260a5b" y="279.010828"/>
      </g>
     </g>
     <g id="text_8">
      <!-- 0.0 -->
      <defs>
       <path d="M 10.6875 12.40625 
L 21 12.40625 
L 21 0 
L 10.6875 0 
z
" id="DejaVuSans-2e"/>
      </defs>
      <g transform="translate(30.55625 284.709656)scale(0.15 -0.15)">
       <use xlink:href="#DejaVuSans-30"/>
       <use x="63.623047" xlink:href="#DejaVuSans-2e"/>
       <use x="95.410156" xlink:href="#DejaVuSans-30"/>
      </g>
     </g>
    </g>
    <g id="ytick_2">
     <g id="line2d_15">
      <path clip-path="url(#p1da729468f)" d="M 61.410938 225.788428 
L 418.530938 225.788428 
" style="fill:none;stroke:#b0b0b0;stroke-linecap:square;stroke-width:0.8;"/>
     </g>
     <g id="line2d_16">
      <g>
       <use style="stroke:#000000;stroke-width:0.8;" x="61.410938" xlink:href="#mc3ce260a5b" y="225.788428"/>
      </g>
     </g>
     <g id="text_9">
      <!-- 0.2 -->
      <g transform="translate(30.55625 231.487256)scale(0.15 -0.15)">
       <use xlink:href="#DejaVuSans-30"/>
       <use x="63.623047" xlink:href="#DejaVuSans-2e"/>
       <use x="95.410156" xlink:href="#DejaVuSans-32"/>
      </g>
     </g>
    </g>
    <g id="ytick_3">
     <g id="line2d_17">
      <path clip-path="url(#p1da729468f)" d="M 61.410938 172.566028 
L 418.530938 172.566028 
" style="fill:none;stroke:#b0b0b0;stroke-linecap:square;stroke-width:0.8;"/>
     </g>
     <g id="line2d_18">
      <g>
       <use style="stroke:#000000;stroke-width:0.8;" x="61.410938" xlink:href="#mc3ce260a5b" y="172.566028"/>
      </g>
     </g>
     <g id="text_10">
      <!-- 0.4 -->
      <defs>
       <path d="M 37.796875 64.3125 
L 12.890625 25.390625 
L 37.796875 25.390625 
z
M 35.203125 72.90625 
L 47.609375 72.90625 
L 47.609375 25.390625 
L 58.015625 25.390625 
L 58.015625 17.1875 
L 47.609375 17.1875 
L 47.609375 0 
L 37.796875 0 
L 37.796875 17.1875 
L 4.890625 17.1875 
L 4.890625 26.703125 
z
" id="DejaVuSans-34"/>
      </defs>
      <g transform="translate(30.55625 178.264856)scale(0.15 -0.15)">
       <use xlink:href="#DejaVuSans-30"/>
       <use x="63.623047" xlink:href="#DejaVuSans-2e"/>
       <use x="95.410156" xlink:href="#DejaVuSans-34"/>
      </g>
     </g>
    </g>
    <g id="ytick_4">
     <g id="line2d_19">
      <path clip-path="url(#p1da729468f)" d="M 61.410938 119.343628 
L 418.530938 119.343628 
" style="fill:none;stroke:#b0b0b0;stroke-linecap:square;stroke-width:0.8;"/>
     </g>
     <g id="line2d_20">
      <g>
       <use style="stroke:#000000;stroke-width:0.8;" x="61.410938" xlink:href="#mc3ce260a5b" y="119.343628"/>
      </g>
     </g>
     <g id="text_11">
      <!-- 0.6 -->
      <defs>
       <path d="M 33.015625 40.375 
Q 26.375 40.375 22.484375 35.828125 
Q 18.609375 31.296875 18.609375 23.390625 
Q 18.609375 15.53125 22.484375 10.953125 
Q 26.375 6.390625 33.015625 6.390625 
Q 39.65625 6.390625 43.53125 10.953125 
Q 47.40625 15.53125 47.40625 23.390625 
Q 47.40625 31.296875 43.53125 35.828125 
Q 39.65625 40.375 33.015625 40.375 
z
M 52.59375 71.296875 
L 52.59375 62.3125 
Q 48.875 64.0625 45.09375 64.984375 
Q 41.3125 65.921875 37.59375 65.921875 
Q 27.828125 65.921875 22.671875 59.328125 
Q 17.53125 52.734375 16.796875 39.40625 
Q 19.671875 43.65625 24.015625 45.921875 
Q 28.375 48.1875 33.59375 48.1875 
Q 44.578125 48.1875 50.953125 41.515625 
Q 57.328125 34.859375 57.328125 23.390625 
Q 57.328125 12.15625 50.6875 5.359375 
Q 44.046875 -1.421875 33.015625 -1.421875 
Q 20.359375 -1.421875 13.671875 8.265625 
Q 6.984375 17.96875 6.984375 36.375 
Q 6.984375 53.65625 15.1875 63.9375 
Q 23.390625 74.21875 37.203125 74.21875 
Q 40.921875 74.21875 44.703125 73.484375 
Q 48.484375 72.75 52.59375 71.296875 
z
" id="DejaVuSans-36"/>
      </defs>
      <g transform="translate(30.55625 125.042456)scale(0.15 -0.15)">
       <use xlink:href="#DejaVuSans-30"/>
       <use x="63.623047" xlink:href="#DejaVuSans-2e"/>
       <use x="95.410156" xlink:href="#DejaVuSans-36"/>
      </g>
     </g>
    </g>
    <g id="ytick_5">
     <g id="line2d_21">
      <path clip-path="url(#p1da729468f)" d="M 61.410938 66.121228 
L 418.530938 66.121228 
" style="fill:none;stroke:#b0b0b0;stroke-linecap:square;stroke-width:0.8;"/>
     </g>
     <g id="line2d_22">
      <g>
       <use style="stroke:#000000;stroke-width:0.8;" x="61.410938" xlink:href="#mc3ce260a5b" y="66.121228"/>
      </g>
     </g>
     <g id="text_12">
      <!-- 0.8 -->
      <defs>
       <path d="M 31.78125 34.625 
Q 24.75 34.625 20.71875 30.859375 
Q 16.703125 27.09375 16.703125 20.515625 
Q 16.703125 13.921875 20.71875 10.15625 
Q 24.75 6.390625 31.78125 6.390625 
Q 38.8125 6.390625 42.859375 10.171875 
Q 46.921875 13.96875 46.921875 20.515625 
Q 46.921875 27.09375 42.890625 30.859375 
Q 38.875 34.625 31.78125 34.625 
z
M 21.921875 38.8125 
Q 15.578125 40.375 12.03125 44.71875 
Q 8.5 49.078125 8.5 55.328125 
Q 8.5 64.0625 14.71875 69.140625 
Q 20.953125 74.21875 31.78125 74.21875 
Q 42.671875 74.21875 48.875 69.140625 
Q 55.078125 64.0625 55.078125 55.328125 
Q 55.078125 49.078125 51.53125 44.71875 
Q 48 40.375 41.703125 38.8125 
Q 48.828125 37.15625 52.796875 32.3125 
Q 56.78125 27.484375 56.78125 20.515625 
Q 56.78125 9.90625 50.3125 4.234375 
Q 43.84375 -1.421875 31.78125 -1.421875 
Q 19.734375 -1.421875 13.25 4.234375 
Q 6.78125 9.90625 6.78125 20.515625 
Q 6.78125 27.484375 10.78125 32.3125 
Q 14.796875 37.15625 21.921875 38.8125 
z
M 18.3125 54.390625 
Q 18.3125 48.734375 21.84375 45.5625 
Q 25.390625 42.390625 31.78125 42.390625 
Q 38.140625 42.390625 41.71875 45.5625 
Q 45.3125 48.734375 45.3125 54.390625 
Q 45.3125 60.0625 41.71875 63.234375 
Q 38.140625 66.40625 31.78125 66.40625 
Q 25.390625 66.40625 21.84375 63.234375 
Q 18.3125 60.0625 18.3125 54.390625 
z
" id="DejaVuSans-38"/>
      </defs>
      <g transform="translate(30.55625 71.820056)scale(0.15 -0.15)">
       <use xlink:href="#DejaVuSans-30"/>
       <use x="63.623047" xlink:href="#DejaVuSans-2e"/>
       <use x="95.410156" xlink:href="#DejaVuSans-38"/>
      </g>
     </g>
    </g>
    <g id="ytick_6">
     <g id="line2d_23">
      <path clip-path="url(#p1da729468f)" d="M 61.410938 12.898828 
L 418.530938 12.898828 
" style="fill:none;stroke:#b0b0b0;stroke-linecap:square;stroke-width:0.8;"/>
     </g>
     <g id="line2d_24">
      <g>
       <use style="stroke:#000000;stroke-width:0.8;" x="61.410938" xlink:href="#mc3ce260a5b" y="12.898828"/>
      </g>
     </g>
     <g id="text_13">
      <!-- 1.0 -->
      <g transform="translate(30.55625 18.597656)scale(0.15 -0.15)">
       <use xlink:href="#DejaVuSans-31"/>
       <use x="63.623047" xlink:href="#DejaVuSans-2e"/>
       <use x="95.410156" xlink:href="#DejaVuSans-30"/>
      </g>
     </g>
    </g>
    <g id="text_14">
     <!-- Survival -->
     <defs>
      <path d="M 53.515625 70.515625 
L 53.515625 60.890625 
Q 47.90625 63.578125 42.921875 64.890625 
Q 37.9375 66.21875 33.296875 66.21875 
Q 25.25 66.21875 20.875 63.09375 
Q 16.5 59.96875 16.5 54.203125 
Q 16.5 49.359375 19.40625 46.890625 
Q 22.3125 44.4375 30.421875 42.921875 
L 36.375 41.703125 
Q 47.40625 39.59375 52.65625 34.296875 
Q 57.90625 29 57.90625 20.125 
Q 57.90625 9.515625 50.796875 4.046875 
Q 43.703125 -1.421875 29.984375 -1.421875 
Q 24.8125 -1.421875 18.96875 -0.25 
Q 13.140625 0.921875 6.890625 3.21875 
L 6.890625 13.375 
Q 12.890625 10.015625 18.65625 8.296875 
Q 24.421875 6.59375 29.984375 6.59375 
Q 38.421875 6.59375 43.015625 9.90625 
Q 47.609375 13.234375 47.609375 19.390625 
Q 47.609375 24.75 44.3125 27.78125 
Q 41.015625 30.8125 33.5 32.328125 
L 27.484375 33.5 
Q 16.453125 35.6875 11.515625 40.375 
Q 6.59375 45.0625 6.59375 53.421875 
Q 6.59375 63.09375 13.40625 68.65625 
Q 20.21875 74.21875 32.171875 74.21875 
Q 37.3125 74.21875 42.625 73.28125 
Q 47.953125 72.359375 53.515625 70.515625 
z
" id="DejaVuSans-53"/>
      <path d="M 8.5 21.578125 
L 8.5 54.6875 
L 17.484375 54.6875 
L 17.484375 21.921875 
Q 17.484375 14.15625 20.5 10.265625 
Q 23.53125 6.390625 29.59375 6.390625 
Q 36.859375 6.390625 41.078125 11.03125 
Q 45.3125 15.671875 45.3125 23.6875 
L 45.3125 54.6875 
L 54.296875 54.6875 
L 54.296875 0 
L 45.3125 0 
L 45.3125 8.40625 
Q 42.046875 3.421875 37.71875 1 
Q 33.40625 -1.421875 27.6875 -1.421875 
Q 18.265625 -1.421875 13.375 4.4375 
Q 8.5 10.296875 8.5 21.578125 
z
M 31.109375 56 
z
" id="DejaVuSans-75"/>
      <path d="M 41.109375 46.296875 
Q 39.59375 47.171875 37.8125 47.578125 
Q 36.03125 48 33.890625 48 
Q 26.265625 48 22.1875 43.046875 
Q 18.109375 38.09375 18.109375 28.8125 
L 18.109375 0 
L 9.078125 0 
L 9.078125 54.6875 
L 18.109375 54.6875 
L 18.109375 46.1875 
Q 20.953125 51.171875 25.484375 53.578125 
Q 30.03125 56 36.53125 56 
Q 37.453125 56 38.578125 55.875 
Q 39.703125 55.765625 41.0625 55.515625 
z
" id="DejaVuSans-72"/>
      <path d="M 2.984375 54.6875 
L 12.5 54.6875 
L 29.59375 8.796875 
L 46.6875 54.6875 
L 56.203125 54.6875 
L 35.6875 0 
L 23.484375 0 
z
" id="DejaVuSans-76"/>
      <path d="M 34.28125 27.484375 
Q 23.390625 27.484375 19.1875 25 
Q 14.984375 22.515625 14.984375 16.5 
Q 14.984375 11.71875 18.140625 8.90625 
Q 21.296875 6.109375 26.703125 6.109375 
Q 34.1875 6.109375 38.703125 11.40625 
Q 43.21875 16.703125 43.21875 25.484375 
L 43.21875 27.484375 
z
M 52.203125 31.203125 
L 52.203125 0 
L 43.21875 0 
L 43.21875 8.296875 
Q 40.140625 3.328125 35.546875 0.953125 
Q 30.953125 -1.421875 24.3125 -1.421875 
Q 15.921875 -1.421875 10.953125 3.296875 
Q 6 8.015625 6 15.921875 
Q 6 25.140625 12.171875 29.828125 
Q 18.359375 34.515625 30.609375 34.515625 
L 43.21875 34.515625 
L 43.21875 35.40625 
Q 43.21875 41.609375 39.140625 45 
Q 35.0625 48.390625 27.6875 48.390625 
Q 23 48.390625 18.546875 47.265625 
Q 14.109375 46.140625 10.015625 43.890625 
L 10.015625 52.203125 
Q 14.9375 54.109375 19.578125 55.046875 
Q 24.21875 56 28.609375 56 
Q 40.484375 56 46.34375 49.84375 
Q 52.203125 43.703125 52.203125 31.203125 
z
" id="DejaVuSans-61"/>
      <path d="M 9.421875 75.984375 
L 18.40625 75.984375 
L 18.40625 0 
L 9.421875 0 
z
" id="DejaVuSans-6c"/>
     </defs>
     <g transform="translate(22.396875 186.273578)rotate(-90)scale(0.2 -0.2)">
      <use xlink:href="#DejaVuSans-53"/>
      <use x="63.476562" xlink:href="#DejaVuSans-75"/>
      <use x="126.855469" xlink:href="#DejaVuSans-72"/>
      <use x="167.96875" xlink:href="#DejaVuSans-76"/>
      <use x="227.148438" xlink:href="#DejaVuSans-69"/>
      <use x="254.931641" xlink:href="#DejaVuSans-76"/>
      <use x="314.111328" xlink:href="#DejaVuSans-61"/>
      <use x="375.390625" xlink:href="#DejaVuSans-6c"/>
     </g>
    </g>
   </g>
   <g id="LineCollection_1">
    <path clip-path="url(#p1da729468f)" d="M 61.410938 279.010828 
L 61.410938 277.828108 
" style="fill:none;stroke:#1f77b4;stroke-width:1.5;"/>
    <path clip-path="url(#p1da729468f)" d="M 72.889795 234.356965 
L 72.889795 220.308691 
" style="fill:none;stroke:#1f77b4;stroke-width:1.5;"/>
    <path clip-path="url(#p1da729468f)" d="M 84.368652 130.695657 
L 84.368652 113.360525 
" style="fill:none;stroke:#1f77b4;stroke-width:1.5;"/>
    <path clip-path="url(#p1da729468f)" d="M 95.847509 65.433052 
L 95.847509 52.167434 
" style="fill:none;stroke:#1f77b4;stroke-width:1.5;"/>
    <path clip-path="url(#p1da729468f)" d="M 107.326366 77.208966 
L 107.326366 62.279733 
" style="fill:none;stroke:#1f77b4;stroke-width:1.5;"/>
    <path clip-path="url(#p1da729468f)" d="M 118.805223 147.379409 
L 118.805223 128.642964 
" style="fill:none;stroke:#1f77b4;stroke-width:1.5;"/>
    <path clip-path="url(#p1da729468f)" d="M 130.28408 231.147908 
L 130.28408 216.957922 
" style="fill:none;stroke:#1f77b4;stroke-width:1.5;"/>
    <path clip-path="url(#p1da729468f)" d="M 141.762938 271.980199 
L 141.762938 265.000044 
" style="fill:none;stroke:#1f77b4;stroke-width:1.5;"/>
    <path clip-path="url(#p1da729468f)" d="M 153.241795 227.740088 
L 153.241795 212.697196 
" style="fill:none;stroke:#1f77b4;stroke-width:1.5;"/>
    <path clip-path="url(#p1da729468f)" d="M 164.720652 109.976957 
L 164.720652 93.606163 
" style="fill:none;stroke:#1f77b4;stroke-width:1.5;"/>
    <path clip-path="url(#p1da729468f)" d="M 176.199509 52.841603 
L 176.199509 40.975712 
" style="fill:none;stroke:#1f77b4;stroke-width:1.5;"/>
    <path clip-path="url(#p1da729468f)" d="M 187.678366 71.181582 
L 187.678366 56.772813 
" style="fill:none;stroke:#1f77b4;stroke-width:1.5;"/>
    <path clip-path="url(#p1da729468f)" d="M 199.157223 146.069267 
L 199.157223 128.634872 
" style="fill:none;stroke:#1f77b4;stroke-width:1.5;"/>
    <path clip-path="url(#p1da729468f)" d="M 210.63608 234.708827 
L 210.63608 220.178514 
" style="fill:none;stroke:#1f77b4;stroke-width:1.5;"/>
    <path clip-path="url(#p1da729468f)" d="M 222.114938 259.881916 
L 222.114938 249.415008 
" style="fill:none;stroke:#1f77b4;stroke-width:1.5;"/>
    <path clip-path="url(#p1da729468f)" d="M 233.593795 227.495545 
L 233.593795 212.392279 
" style="fill:none;stroke:#1f77b4;stroke-width:1.5;"/>
    <path clip-path="url(#p1da729468f)" d="M 245.072652 132.58349 
L 245.072652 114.974166 
" style="fill:none;stroke:#1f77b4;stroke-width:1.5;"/>
    <path clip-path="url(#p1da729468f)" d="M 256.551509 52.006323 
L 256.551509 40.006995 
" style="fill:none;stroke:#1f77b4;stroke-width:1.5;"/>
    <path clip-path="url(#p1da729468f)" d="M 268.030366 77.728751 
L 268.030366 62.980906 
" style="fill:none;stroke:#1f77b4;stroke-width:1.5;"/>
    <path clip-path="url(#p1da729468f)" d="M 279.509223 157.635516 
L 279.509223 139.318918 
" style="fill:none;stroke:#1f77b4;stroke-width:1.5;"/>
    <path clip-path="url(#p1da729468f)" d="M 290.98808 230.558301 
L 290.98808 215.868001 
" style="fill:none;stroke:#1f77b4;stroke-width:1.5;"/>
    <path clip-path="url(#p1da729468f)" d="M 302.466938 253.489804 
L 302.466938 242.62008 
" style="fill:none;stroke:#1f77b4;stroke-width:1.5;"/>
    <path clip-path="url(#p1da729468f)" d="M 313.945795 216.458353 
L 313.945795 200.819624 
" style="fill:none;stroke:#1f77b4;stroke-width:1.5;"/>
    <path clip-path="url(#p1da729468f)" d="M 325.424652 131.364131 
L 325.424652 113.208294 
" style="fill:none;stroke:#1f77b4;stroke-width:1.5;"/>
    <path clip-path="url(#p1da729468f)" d="M 336.903509 49.475396 
L 336.903509 37.829279 
" style="fill:none;stroke:#1f77b4;stroke-width:1.5;"/>
    <path clip-path="url(#p1da729468f)" d="M 348.382366 71.917659 
L 348.382366 58.345451 
" style="fill:none;stroke:#1f77b4;stroke-width:1.5;"/>
    <path clip-path="url(#p1da729468f)" d="M 359.861223 148.814814 
L 359.861223 130.601321 
" style="fill:none;stroke:#1f77b4;stroke-width:1.5;"/>
    <path clip-path="url(#p1da729468f)" d="M 371.34008 219.946817 
L 371.34008 205.018839 
" style="fill:none;stroke:#1f77b4;stroke-width:1.5;"/>
    <path clip-path="url(#p1da729468f)" d="M 382.818938 253.297482 
L 382.818938 241.599932 
" style="fill:none;stroke:#1f77b4;stroke-width:1.5;"/>
    <path clip-path="url(#p1da729468f)" d="M 394.297795 208.020527 
L 394.297795 192.506272 
" style="fill:none;stroke:#1f77b4;stroke-width:1.5;"/>
    <path clip-path="url(#p1da729468f)" d="M 405.776652 131.730191 
L 405.776652 113.73539 
" style="fill:none;stroke:#1f77b4;stroke-width:1.5;"/>
   </g>
   <g id="LineCollection_2">
    <path clip-path="url(#p1da729468f)" d="M 61.410938 274.780846 
L 61.410938 267.789145 
" style="fill:none;stroke:#d62728;stroke-width:1.5;"/>
    <path clip-path="url(#p1da729468f)" d="M 72.889795 180.172589 
L 72.889795 160.397547 
" style="fill:none;stroke:#d62728;stroke-width:1.5;"/>
    <path clip-path="url(#p1da729468f)" d="M 84.368652 100.494107 
L 84.368652 80.684382 
" style="fill:none;stroke:#d62728;stroke-width:1.5;"/>
    <path clip-path="url(#p1da729468f)" d="M 95.847509 109.194276 
L 95.847509 90.542509 
" style="fill:none;stroke:#d62728;stroke-width:1.5;"/>
    <path clip-path="url(#p1da729468f)" d="M 107.326366 176.537479 
L 107.326366 156.312485 
" style="fill:none;stroke:#d62728;stroke-width:1.5;"/>
    <path clip-path="url(#p1da729468f)" d="M 118.805223 177.063517 
L 118.805223 155.221753 
" style="fill:none;stroke:#d62728;stroke-width:1.5;"/>
    <path clip-path="url(#p1da729468f)" d="M 130.28408 137.354039 
L 130.28408 117.206565 
" style="fill:none;stroke:#d62728;stroke-width:1.5;"/>
    <path clip-path="url(#p1da729468f)" d="M 141.762938 179.253661 
L 141.762938 157.318149 
" style="fill:none;stroke:#d62728;stroke-width:1.5;"/>
    <path clip-path="url(#p1da729468f)" d="M 153.241795 205.549644 
L 153.241795 185.252985 
" style="fill:none;stroke:#d62728;stroke-width:1.5;"/>
    <path clip-path="url(#p1da729468f)" d="M 164.720652 153.037766 
L 164.720652 132.573381 
" style="fill:none;stroke:#d62728;stroke-width:1.5;"/>
    <path clip-path="url(#p1da729468f)" d="M 176.199509 147.301183 
L 176.199509 126.313273 
" style="fill:none;stroke:#d62728;stroke-width:1.5;"/>
    <path clip-path="url(#p1da729468f)" d="M 187.678366 135.91019 
L 187.678366 114.795027 
" style="fill:none;stroke:#d62728;stroke-width:1.5;"/>
    <path clip-path="url(#p1da729468f)" d="M 199.157223 170.080831 
L 199.157223 149.413606 
" style="fill:none;stroke:#d62728;stroke-width:1.5;"/>
    <path clip-path="url(#p1da729468f)" d="M 210.63608 154.832355 
L 210.63608 133.729981 
" style="fill:none;stroke:#d62728;stroke-width:1.5;"/>
    <path clip-path="url(#p1da729468f)" d="M 222.114938 157.460537 
L 222.114938 136.154966 
" style="fill:none;stroke:#d62728;stroke-width:1.5;"/>
    <path clip-path="url(#p1da729468f)" d="M 233.593795 180.50109 
L 233.593795 159.480411 
" style="fill:none;stroke:#d62728;stroke-width:1.5;"/>
   </g>
   <g id="line2d_25">
    <path clip-path="url(#p1da729468f)" d="M 61.410938 278.518987 
L 62.125178 278.518987 
L 62.482298 278.147587 
L 62.839418 278.518987 
L 63.196538 277.345193 
L 63.553658 277.448264 
L 64.267898 276.592337 
L 64.625018 274.1002 
L 65.339258 273.022291 
L 65.696378 271.673484 
L 66.053498 269.443522 
L 66.410618 268.863752 
L 66.767738 267.379759 
L 67.124858 266.457697 
L 67.839098 262.801427 
L 68.196218 259.898292 
L 68.553338 258.160472 
L 68.910458 257.241495 
L 69.267578 254.238684 
L 69.624698 252.994459 
L 69.981818 251.27382 
L 70.338938 247.637289 
L 70.696058 245.775599 
L 71.410298 240.557327 
L 71.767418 238.813729 
L 72.124538 235.08119 
L 72.481658 233.095526 
L 72.838778 229.530027 
L 73.195898 227.957673 
L 73.910138 220.626142 
L 76.052858 201.835774 
L 76.409978 197.986583 
L 76.767098 195.692199 
L 77.124218 191.580663 
L 77.481338 189.317348 
L 78.552698 178.072743 
L 78.909818 176.056774 
L 79.624058 167.940652 
L 80.338298 160.770768 
L 81.766778 147.17228 
L 82.123898 142.695962 
L 82.481018 140.251523 
L 84.266618 122.435188 
L 84.980858 117.184624 
L 85.695098 109.500198 
L 87.480698 93.820227 
L 87.837818 89.967838 
L 88.552058 85.881423 
L 89.623418 76.922324 
L 90.337658 72.438851 
L 91.051898 65.867558 
L 91.409018 65.252907 
L 91.766138 61.957468 
L 92.480378 57.781002 
L 92.837498 55.026053 
L 93.194618 54.276495 
L 93.551738 52.732302 
L 94.265978 47.454614 
L 94.623098 45.551785 
L 94.980218 44.320625 
L 95.337338 44.047173 
L 95.694458 42.464039 
L 96.051578 41.465915 
L 96.408698 39.414041 
L 97.122938 37.360072 
L 97.480058 37.004428 
L 97.837178 36.905685 
L 98.194298 34.86669 
L 98.908538 33.662728 
L 99.622778 33.390376 
L 99.979898 32.740822 
L 100.337018 32.396025 
L 100.694138 31.74705 
L 101.408378 33.643916 
L 101.765498 32.437165 
L 102.122618 33.592201 
L 102.479738 33.097077 
L 102.836858 35.79061 
L 103.193978 35.105653 
L 103.551098 36.247564 
L 103.908218 36.648358 
L 104.622458 37.858461 
L 104.979578 39.880581 
L 105.693818 42.313409 
L 106.050938 43.206308 
L 106.765178 46.7879 
L 107.122298 47.224449 
L 107.836538 51.244931 
L 108.193658 53.397005 
L 108.550778 54.574487 
L 109.265018 59.722315 
L 109.622138 61.201315 
L 110.336378 65.486065 
L 111.407738 73.120636 
L 111.764858 76.475155 
L 112.479098 80.763901 
L 113.193338 85.859106 
L 113.907578 92.448221 
L 114.264698 94.431815 
L 114.621818 98.56144 
L 114.978938 100.33305 
L 115.336058 104.224532 
L 115.693178 106.723329 
L 116.050298 110.987366 
L 116.407418 112.209595 
L 118.550138 132.679782 
L 118.907258 136.553436 
L 119.264378 139.210966 
L 119.621498 143.106409 
L 119.978618 145.436045 
L 121.764218 162.970378 
L 122.121338 164.984136 
L 122.478458 169.111371 
L 122.835578 171.762821 
L 123.192698 176.014931 
L 123.549818 178.392573 
L 124.978298 191.196045 
L 125.335418 193.645549 
L 126.763898 206.959943 
L 127.121018 208.308949 
L 127.835258 214.202553 
L 128.549498 218.842472 
L 129.620858 227.139258 
L 130.335098 231.561164 
L 130.692218 235.500985 
L 131.049338 236.230023 
L 131.406458 239.08943 
L 132.120698 242.831559 
L 132.834938 247.017071 
L 133.192058 248.102445 
L 133.549178 250.90822 
L 133.906298 251.849767 
L 134.977658 256.755115 
L 135.334778 256.95511 
L 135.691898 257.786628 
L 136.049018 260.403699 
L 137.120378 263.643542 
L 137.477498 264.154121 
L 137.834618 265.428559 
L 138.191738 265.700455 
L 138.548858 266.289622 
L 139.263098 268.137046 
L 139.977338 267.262568 
L 140.334458 267.356795 
L 140.691578 267.150359 
L 141.048698 266.485352 
L 141.405818 267.150359 
L 141.762938 266.887268 
L 142.120058 265.611161 
L 142.477178 266.247603 
L 142.834298 265.453169 
L 143.191418 265.413671 
L 143.548538 263.48003 
L 143.905658 262.329199 
L 144.262777 263.272144 
L 144.977018 260.096454 
L 145.334138 260.110976 
L 146.048378 256.305034 
L 146.762618 254.068429 
L 147.476858 251.595143 
L 149.976698 238.014895 
L 150.333818 236.995025 
L 150.690938 233.330514 
L 151.762298 227.034336 
L 152.476538 220.739648 
L 152.833658 220.288259 
L 153.190778 217.095438 
L 153.547898 212.756585 
L 153.905018 211.240732 
L 154.262138 207.962799 
L 154.619258 206.836504 
L 154.976378 202.745143 
L 155.333498 200.407651 
L 156.047738 194.005927 
L 156.404858 192.241981 
L 157.119098 185.758448 
L 157.833338 180.190053 
L 158.190458 175.776422 
L 158.547578 173.77268 
L 159.976058 160.71006 
L 160.333178 158.921211 
L 160.690298 156.080099 
L 161.404538 149.297044 
L 163.904378 128.505722 
L 164.261498 124.306149 
L 164.618618 122.35824 
L 164.975738 118.666934 
L 165.332858 116.420951 
L 166.047098 110.108412 
L 166.404218 108.771501 
L 166.761338 105.000404 
L 167.475578 100.913621 
L 168.189818 94.914932 
L 168.546938 92.764843 
L 168.904058 89.10519 
L 169.261178 86.744485 
L 169.975418 83.608756 
L 171.046778 75.24057 
L 171.403898 73.950019 
L 171.761018 71.973276 
L 172.118138 70.624445 
L 172.832378 66.568318 
L 173.189498 65.685095 
L 174.260858 60.358752 
L 174.617978 57.864062 
L 174.975098 57.890948 
L 175.332218 55.172342 
L 175.689338 55.261216 
L 176.046458 53.073536 
L 176.403578 53.428521 
L 176.760698 52.592767 
L 177.117818 51.101426 
L 177.474938 50.293122 
L 177.832058 48.947253 
L 178.189178 48.99565 
L 178.546298 47.883991 
L 178.903418 47.922464 
L 179.260538 47.316613 
L 179.617658 46.07206 
L 179.974778 46.867965 
L 180.331898 46.358446 
L 180.689018 46.207582 
L 181.046138 46.515242 
L 181.403258 47.18495 
L 181.760378 46.718148 
L 182.474618 47.871166 
L 182.831738 47.467607 
L 183.188858 48.836162 
L 183.545978 49.178516 
L 183.903098 49.719504 
L 184.260218 50.467383 
L 184.617338 50.633079 
L 184.974458 52.296757 
L 186.045818 54.86646 
L 186.402938 57.065788 
L 186.760058 57.991525 
L 187.117178 59.879614 
L 187.474298 60.294529 
L 188.188538 64.728382 
L 188.902778 67.292377 
L 189.259898 69.876503 
L 189.617018 71.011288 
L 189.974138 73.818352 
L 190.331258 74.228946 
L 192.831098 90.954615 
L 193.188218 92.05113 
L 194.259578 101.897981 
L 194.616698 103.270474 
L 195.330938 109.184745 
L 195.688058 111.989059 
L 196.045178 113.752317 
L 198.187898 131.94048 
L 199.259258 139.798575 
L 199.616378 144.205706 
L 200.687738 152.458494 
L 207.115898 204.359724 
L 209.615738 222.061967 
L 210.329978 225.938735 
L 211.044218 231.713597 
L 211.401338 233.054944 
L 211.758458 233.705919 
L 212.115578 236.878848 
L 213.544058 244.736288 
L 213.901178 245.059323 
L 214.258298 246.39224 
L 214.615418 249.084203 
L 214.972538 249.835542 
L 215.329658 251.605537 
L 215.686778 252.429287 
L 216.401018 255.152628 
L 216.758138 255.471957 
L 217.115258 257.279968 
L 217.472378 257.153437 
L 217.829498 258.082972 
L 218.186618 259.351817 
L 218.543738 258.700014 
L 219.257978 260.315269 
L 219.615098 260.810024 
L 219.972218 260.630485 
L 220.329338 261.667516 
L 220.686458 262.199696 
L 221.043578 261.275036 
L 221.400698 261.833754 
L 221.757818 261.865607 
L 222.472058 260.645446 
L 222.829178 261.589146 
L 223.186298 259.798114 
L 223.900538 258.96653 
L 224.257658 257.885477 
L 224.971898 256.917611 
L 225.686138 254.045728 
L 226.043258 252.788282 
L 226.400378 251.119525 
L 226.757498 250.179228 
L 227.114618 249.63554 
L 227.471738 248.121255 
L 227.828858 245.766782 
L 228.900218 241.698823 
L 229.257338 239.32491 
L 229.614458 238.609533 
L 229.971578 235.692379 
L 230.328698 233.945936 
L 230.685818 232.91967 
L 231.400058 226.639538 
L 231.757178 225.9875 
L 232.471418 219.887615 
L 232.828538 218.420842 
L 233.185658 215.797153 
L 233.542778 214.197272 
L 234.971258 203.090291 
L 235.328378 200.797002 
L 236.756858 188.627526 
L 238.899578 172.304091 
L 239.613818 165.755373 
L 239.970938 163.640909 
L 240.328058 160.034183 
L 240.685178 157.816334 
L 241.042298 153.24044 
L 241.399418 151.180778 
L 242.827898 139.088547 
L 243.185018 135.507265 
L 243.542138 133.464831 
L 244.256378 127.146715 
L 245.327738 118.893148 
L 245.684858 116.517508 
L 246.756218 107.916016 
L 247.827578 100.556819 
L 248.184698 96.80104 
L 248.541818 95.691879 
L 248.898938 92.806423 
L 249.256058 91.044388 
L 249.613178 87.673782 
L 252.113018 73.976352 
L 252.470138 71.324182 
L 253.541498 65.9815 
L 253.898618 65.501375 
L 254.255738 64.120253 
L 254.612858 61.8081 
L 254.969978 60.350165 
L 255.327098 59.413207 
L 255.684218 57.982382 
L 256.041337 57.808689 
L 256.398458 55.843565 
L 256.755578 55.359965 
L 257.112698 54.59464 
L 257.469818 53.3865 
L 258.184058 52.361866 
L 258.541178 52.285906 
L 258.898298 51.135477 
L 259.255418 51.357144 
L 259.612538 50.829018 
L 259.969658 51.078726 
L 260.326778 50.770867 
L 261.041018 49.263854 
L 261.398138 51.078726 
L 261.755258 51.773546 
L 262.112378 51.368366 
L 262.469497 51.222488 
L 262.826617 51.469358 
L 263.183738 53.661692 
L 263.540858 54.59464 
L 263.897978 53.879719 
L 264.255098 53.992868 
L 264.969337 57.342925 
L 265.326458 58.451853 
L 265.683578 58.29784 
L 266.040698 60.000014 
L 266.397818 62.252032 
L 266.754938 62.78656 
L 267.469178 65.806789 
L 268.540538 71.755346 
L 268.897658 71.591629 
L 269.254778 74.757576 
L 269.611898 76.066813 
L 269.969018 77.977248 
L 270.326138 79.246043 
L 270.683258 83.176389 
L 271.040378 83.717841 
L 271.754617 88.92172 
L 272.111738 90.814284 
L 272.825978 95.992336 
L 273.183098 97.788661 
L 273.540218 101.647492 
L 273.897338 102.802959 
L 274.254458 104.564726 
L 274.968698 112.689883 
L 275.325818 114.143761 
L 276.040058 120.274283 
L 276.397178 122.298391 
L 276.754298 126.126363 
L 277.468538 130.765769 
L 278.182778 137.147581 
L 278.897018 143.049515 
L 279.254138 146.638054 
L 279.611258 148.548318 
L 280.325497 155.175152 
L 281.396858 163.071974 
L 281.753978 166.775527 
L 282.111098 168.891283 
L 282.468218 172.490024 
L 282.825338 174.920325 
L 283.182457 179.080453 
L 284.610938 189.04402 
L 285.682298 198.498746 
L 286.396538 203.22575 
L 286.753658 206.080331 
L 287.110778 208.022647 
L 287.467898 211.065861 
L 287.825018 212.855858 
L 290.324858 229.224895 
L 290.681978 231.019009 
L 291.039098 233.884217 
L 293.896058 246.989892 
L 294.967418 250.109406 
L 295.324538 250.468492 
L 296.038778 254.639588 
L 296.395898 253.486092 
L 296.753018 255.787032 
L 297.110138 255.835202 
L 297.824378 256.880112 
L 298.181498 257.115457 
L 298.538617 258.135637 
L 298.895737 258.240537 
L 299.252858 258.774521 
L 299.609978 258.293914 
L 299.967098 258.414012 
L 300.324218 258.253881 
L 300.681338 259.423657 
L 301.038458 258.578271 
L 301.752698 258.109304 
L 302.109818 257.526767 
L 302.824058 256.097696 
L 303.181178 255.82316 
L 303.895418 253.463901 
L 304.252538 253.745898 
L 305.323898 250.079482 
L 305.681018 248.834934 
L 306.038138 247.187157 
L 306.395258 246.899297 
L 306.752378 244.676179 
L 307.109498 243.515501 
L 307.466618 241.126603 
L 307.823737 240.714072 
L 308.895098 234.017518 
L 309.609338 231.331071 
L 310.323578 226.792877 
L 311.037818 223.123464 
L 311.394938 219.415578 
L 311.752058 218.031111 
L 312.109178 216.093877 
L 312.823418 210.096715 
L 313.180538 209.07681 
L 313.537658 205.600519 
L 313.894778 203.750814 
L 314.251898 201.313535 
L 314.609018 197.54381 
L 315.323258 192.790205 
L 318.180218 170.349872 
L 318.537338 166.547012 
L 318.894457 164.718896 
L 319.251577 161.649636 
L 319.608698 159.714457 
L 319.965818 156.246033 
L 320.322938 154.441574 
L 321.037178 148.163837 
L 322.108538 139.949557 
L 322.465658 137.479482 
L 323.537018 128.338348 
L 324.251258 123.008029 
L 324.965498 118.284112 
L 327.108218 102.912682 
L 327.465338 101.950969 
L 327.822458 98.314564 
L 328.179577 97.087873 
L 329.250938 89.616678 
L 329.608058 89.3215 
L 329.965178 85.653797 
L 330.322298 85.8109 
L 330.679417 82.284618 
L 332.107898 75.74294 
L 332.465018 74.932987 
L 332.822138 72.90045 
L 333.536378 71.156305 
L 333.893498 68.877897 
L 334.607737 67.044441 
L 334.964857 65.867558 
L 335.321978 65.577925 
L 335.679098 64.175553 
L 336.036218 63.347837 
L 336.393338 62.235574 
L 336.750458 62.17797 
L 337.107577 61.524015 
L 337.464697 61.260395 
L 337.821818 60.487555 
L 338.178938 60.155934 
L 338.536058 60.607772 
L 338.893178 59.580727 
L 339.250298 59.333855 
L 339.607418 59.652404 
L 339.964538 60.401687 
L 340.321658 60.642119 
L 340.678778 60.659293 
L 341.035898 60.864537 
L 341.393018 59.713576 
L 342.107258 61.100033 
L 342.464378 62.939991 
L 342.821498 63.045216 
L 344.607098 67.535566 
L 344.964218 68.920831 
L 345.321338 69.331062 
L 346.392697 73.792019 
L 346.749818 75.888426 
L 347.106938 76.582767 
L 348.178298 80.549934 
L 348.892538 85.648186 
L 349.249658 87.299998 
L 349.606778 89.670346 
L 349.963898 90.51697 
L 350.678138 95.899508 
L 351.035258 96.740888 
L 351.392378 100.07427 
L 353.177977 110.176673 
L 354.249338 118.009894 
L 354.606458 119.322542 
L 355.320697 125.928018 
L 355.677818 126.953416 
L 357.106298 137.524555 
L 357.463418 140.956646 
L 357.820538 142.143282 
L 358.177658 146.597582 
L 359.249018 153.79667 
L 359.606138 157.209259 
L 359.963258 158.795749 
L 361.034618 167.899676 
L 361.391738 169.794398 
L 361.748857 173.195942 
L 362.105977 174.695323 
L 362.463098 176.927121 
L 362.820218 180.618114 
L 363.891578 186.961596 
L 364.605818 193.081968 
L 364.962938 194.54498 
L 365.677178 200.247769 
L 366.034298 201.256564 
L 366.391418 204.945446 
L 366.748538 205.91329 
L 367.462778 210.722042 
L 367.819898 211.583897 
L 368.177018 215.80252 
L 368.534138 216.899028 
L 369.605498 223.018286 
L 369.962618 224.832898 
L 370.319738 227.614209 
L 370.676858 228.217454 
L 371.033977 229.651861 
L 371.391098 230.587615 
L 371.748218 232.294789 
L 372.105338 234.743804 
L 373.533817 238.919262 
L 373.890938 240.894329 
L 374.248058 241.298914 
L 374.605178 242.234794 
L 374.962298 242.542952 
L 375.319418 243.86202 
L 376.033658 245.722698 
L 376.390778 246.944594 
L 376.747898 246.853999 
L 377.105018 247.397338 
L 377.462138 248.37518 
L 377.819258 248.215301 
L 378.176378 248.659818 
L 378.533498 247.76054 
L 379.247738 248.777411 
L 379.604858 248.892458 
L 379.961977 248.290538 
L 380.319097 248.574362 
L 380.676218 248.707293 
L 381.033338 247.508085 
L 381.390458 247.378881 
L 381.747578 247.004289 
L 382.104698 247.196301 
L 382.461818 246.03666 
L 382.818938 245.554113 
L 383.176058 245.335642 
L 383.890298 243.053745 
L 384.247418 242.689852 
L 384.604538 241.955731 
L 384.961658 242.081004 
L 385.318778 239.800339 
L 386.033018 236.82076 
L 386.747258 233.733349 
L 387.104378 233.432669 
L 387.461498 232.041242 
L 387.818618 230.006958 
L 388.175738 228.632582 
L 388.532858 226.719275 
L 388.889978 225.852359 
L 389.247098 224.385919 
L 389.604218 221.732808 
L 390.318458 217.755433 
L 390.675578 215.94818 
L 391.032698 214.905795 
L 391.389818 211.436176 
L 391.746938 210.711809 
L 394.246778 196.15395 
L 394.603898 192.404179 
L 396.032378 183.168861 
L 397.103738 176.303651 
L 397.460858 172.834962 
L 397.817978 171.167836 
L 398.532218 166.00429 
L 399.246458 160.969079 
L 401.032058 148.698063 
L 401.389178 147.334167 
L 401.746297 143.577812 
L 402.103418 141.871006 
L 403.174778 134.13832 
L 403.531898 132.201879 
L 403.889018 128.949264 
L 404.246138 126.978629 
L 404.603257 125.65371 
L 405.317498 119.699354 
L 405.674618 119.019305 
L 406.031738 114.63065 
L 406.388858 113.99697 
L 406.745978 112.842498 
L 407.103098 109.876325 
L 407.460217 108.284637 
L 408.531578 101.580053 
L 408.888698 100.561684 
L 409.245818 97.556689 
L 409.960058 94.005384 
L 410.317178 93.119512 
L 410.674298 90.591299 
L 411.031418 89.632778 
L 411.388537 87.810936 
L 411.745658 87.344614 
L 412.102778 86.082271 
L 412.459898 83.003143 
L 412.817018 82.249559 
L 414.959738 75.888426 
L 416.031098 72.828477 
L 416.745338 72.180603 
L 417.102458 72.37675 
L 417.816698 70.527086 
L 418.530938 69.925878 
L 418.530938 69.925878 
" style="fill:none;stroke:#1f77b4;stroke-linecap:square;stroke-width:1.5;"/>
   </g>
   <g id="line2d_26">
    <path clip-path="url(#p1da729468f)" d="M 61.410938 278.515607 
L 62.558823 278.515607 
L 62.941452 277.209519 
L 63.32408 275.200296 
L 63.706709 275.354205 
L 64.089338 273.475307 
L 65.237223 265.852477 
L 65.619852 264.327392 
L 67.150366 251.978469 
L 69.063509 233.270317 
L 72.889795 186.565714 
L 77.481338 126.128555 
L 78.629223 112.210257 
L 80.159738 95.700386 
L 80.542366 92.863569 
L 80.924995 88.228781 
L 82.07288 79.317776 
L 82.838138 71.969372 
L 83.603395 68.741063 
L 83.986023 66.917985 
L 84.368652 64.041935 
L 84.75128 62.035647 
L 85.133909 61.373745 
L 85.516538 59.399813 
L 85.899166 58.564838 
L 86.281795 57.37325 
L 86.664423 56.675311 
L 87.047052 56.899777 
L 87.42968 56.260804 
L 87.812309 54.879458 
L 88.194938 56.417536 
L 88.577566 55.644837 
L 88.960195 56.20505 
L 89.725452 59.399813 
L 90.490709 60.787414 
L 90.873338 62.778838 
L 91.255966 62.869342 
L 91.638595 65.941417 
L 92.021223 67.188738 
L 92.403852 69.241516 
L 93.551738 77.818105 
L 93.934366 78.951181 
L 94.316995 81.600793 
L 94.699623 85.222219 
L 95.46488 89.795298 
L 96.995395 104.771679 
L 98.14328 112.755573 
L 98.908538 121.006709 
L 99.673795 126.826677 
L 101.586938 144.053628 
L 102.734823 152.972776 
L 103.117452 156.673838 
L 103.50008 159.012877 
L 103.882709 163.515091 
L 104.265338 164.015703 
L 104.647966 167.581743 
L 105.030595 168.774621 
L 105.795852 175.189219 
L 106.17848 176.587935 
L 106.943738 181.036429 
L 109.239509 190.297018 
L 109.622138 191.213832 
L 110.004766 191.470278 
L 110.387395 191.452282 
L 110.770023 192.012433 
L 111.152652 192.197733 
L 111.53528 192.759305 
L 111.917909 193.745639 
L 112.300538 192.482462 
L 112.683166 193.040794 
L 113.065795 192.841028 
L 113.448423 191.813574 
L 113.831052 191.204833 
L 114.21368 190.961884 
L 114.596309 191.380297 
L 114.978938 189.580153 
L 115.361566 188.89632 
L 115.744195 186.97487 
L 116.126823 186.79449 
L 116.89208 184.003658 
L 118.039966 179.809713 
L 118.422595 177.807394 
L 118.805223 176.579473 
L 119.187852 174.888899 
L 119.57048 171.633251 
L 119.953109 170.655597 
L 120.335738 168.250107 
L 120.718366 167.808657 
L 121.100995 165.301713 
L 121.483623 164.553937 
L 122.24888 159.558924 
L 123.014138 156.629014 
L 123.396766 154.080705 
L 123.779395 152.989009 
L 124.162023 150.55806 
L 125.692538 144.228852 
L 126.075166 143.214182 
L 126.457795 140.605391 
L 126.840423 140.233042 
L 127.988309 136.568824 
L 128.753566 134.902315 
L 129.136195 134.202166 
L 129.518823 132.793358 
L 129.901452 132.319092 
L 130.28408 131.000895 
L 130.666709 130.79201 
L 131.049338 129.520543 
L 131.431966 130.035845 
L 131.814595 129.898123 
L 132.579852 130.687567 
L 132.96248 129.818412 
L 133.345109 130.821254 
L 134.110366 131.560708 
L 134.492995 132.28997 
L 134.875623 133.435731 
L 135.258252 132.689352 
L 135.64088 133.336301 
L 136.023509 134.662028 
L 136.406138 135.496141 
L 137.171395 138.426992 
L 137.554023 139.219963 
L 137.936652 141.751081 
L 138.31928 142.070237 
L 138.701909 143.625755 
L 139.084538 144.477426 
L 139.467166 146.005543 
L 139.849795 148.377181 
L 140.232423 149.186338 
L 140.99768 152.181398 
L 141.380309 154.990872 
L 141.762938 156.205216 
L 142.145566 158.006357 
L 142.528195 158.161206 
L 142.910823 161.203253 
L 143.293452 163.105916 
L 143.67608 163.752749 
L 144.058709 167.276441 
L 144.441338 168.188222 
L 145.206595 172.502248 
L 145.589223 173.283479 
L 145.971852 174.59103 
L 146.737109 177.841387 
L 147.502366 181.117858 
L 147.884995 182.075768 
L 148.650252 184.764421 
L 149.03288 184.786225 
L 150.180766 188.740962 
L 150.563395 189.113822 
L 151.328652 191.501772 
L 151.71128 191.564759 
L 152.093909 193.018094 
L 152.476538 192.251967 
L 152.859166 193.335904 
L 153.241795 193.60881 
L 153.624423 192.50506 
L 154.007052 193.599688 
L 154.38968 192.836488 
L 154.772309 194.060346 
L 155.537566 192.419189 
L 155.920195 192.333318 
L 156.302823 191.46128 
L 156.685452 191.362301 
L 157.06808 191.425288 
L 158.215966 187.807591 
L 158.598595 187.586637 
L 158.981223 185.4142 
L 159.363852 184.025368 
L 159.74648 183.435401 
L 160.511738 179.779842 
L 160.894366 179.220818 
L 161.276995 176.38153 
L 161.659623 175.248203 
L 162.042252 174.490342 
L 163.572766 166.702968 
L 163.955395 166.004293 
L 165.868538 156.649389 
L 166.251166 155.891442 
L 167.016423 150.574293 
L 167.399052 149.933074 
L 168.164309 146.099267 
L 168.546938 144.905298 
L 169.312195 140.736327 
L 169.694823 139.680133 
L 170.46008 136.333659 
L 170.842709 136.597704 
L 171.607966 131.844826 
L 171.990595 131.318401 
L 172.373223 130.102688 
L 172.755852 129.36112 
L 173.13848 127.951809 
L 173.521109 127.576842 
L 173.903738 125.679181 
L 174.286366 126.26818 
L 174.668995 125.445479 
L 175.051623 124.031089 
L 175.434252 123.757979 
L 175.81688 122.587364 
L 176.582138 122.351647 
L 176.964766 121.419527 
L 177.347395 122.698793 
L 177.730023 121.785392 
L 178.112652 122.398791 
L 178.49528 122.484506 
L 178.877909 123.161654 
L 179.260538 122.129737 
L 180.025795 122.235932 
L 180.408423 124.116437 
L 180.791052 123.230226 
L 181.17368 124.608403 
L 181.556309 124.504766 
L 181.938938 126.204714 
L 182.321566 126.581277 
L 182.704195 127.859121 
L 183.086823 127.610547 
L 183.469452 128.162465 
L 184.617338 132.339893 
L 184.999966 133.084574 
L 185.382595 132.972248 
L 185.765223 135.298107 
L 186.913109 138.64886 
L 187.295738 138.500948 
L 187.678366 140.163482 
L 188.060995 140.998199 
L 188.826252 144.241077 
L 189.591509 146.417116 
L 189.974138 146.372291 
L 190.739395 149.092996 
L 191.122023 149.685515 
L 191.504652 151.089703 
L 193.035166 154.397256 
L 193.417795 154.222747 
L 193.800423 154.673223 
L 194.183052 156.718663 
L 194.56568 156.971312 
L 194.948309 156.812388 
L 195.330938 157.097636 
L 195.713566 157.827058 
L 196.096195 158.140831 
L 196.478823 159.22885 
L 196.861452 159.497799 
L 197.626709 160.900463 
L 198.009338 159.615973 
L 198.774595 160.320945 
L 199.157223 159.746373 
L 199.539852 159.473349 
L 199.92248 159.591524 
L 200.305109 159.265525 
L 200.687738 159.457049 
L 201.070366 158.613529 
L 201.452995 159.188101 
L 202.218252 156.633089 
L 202.60088 156.657539 
L 202.983509 156.796088 
L 203.366138 156.596414 
L 204.131395 153.691103 
L 204.514023 153.301502 
L 204.896652 153.687045 
L 206.044538 150.55806 
L 206.427166 148.983421 
L 206.809795 149.024004 
L 207.575052 147.602935 
L 207.95768 146.315241 
L 208.340309 145.463571 
L 208.722938 144.204402 
L 209.105566 143.959903 
L 209.488195 142.765834 
L 209.870823 142.434403 
L 210.253452 142.438494 
L 210.63608 140.548107 
L 211.018709 140.499006 
L 211.401338 139.954803 
L 211.783966 140.306693 
L 212.166595 138.595447 
L 212.549223 137.634022 
L 213.31448 136.45743 
L 213.697109 135.776689 
L 214.079738 135.322861 
L 214.462366 134.641313 
L 214.844995 135.706552 
L 215.227623 135.636415 
L 215.99288 134.628884 
L 216.375509 134.612313 
L 217.140766 134.086165 
L 217.523395 134.500455 
L 217.906023 134.471454 
L 218.288652 134.173166 
L 218.67128 136.34191 
L 219.053909 135.318735 
L 219.436538 137.096914 
L 219.819166 137.208308 
L 220.201795 138.077757 
L 220.584423 138.640643 
L 220.967052 138.920031 
L 221.34968 138.928248 
L 222.114938 140.687226 
L 222.497566 142.102971 
L 222.880195 142.21754 
L 223.262823 144.012878 
L 223.645452 145.027548 
L 224.02808 145.691769 
L 224.793338 148.666504 
L 225.558595 150.099466 
L 226.323852 153.873729 
L 227.089109 156.820538 
L 227.471738 158.36903 
L 228.236995 161.960226 
L 228.619623 162.815402 
L 229.38488 165.09628 
L 229.767509 168.414189 
L 230.150138 167.878794 
L 230.532766 170.842808 
L 231.298023 173.408811 
L 231.680652 176.044481 
L 232.445909 177.739408 
L 232.828538 180.12785 
L 233.211166 180.603568 
L 233.593795 181.912204 
L 233.976423 182.773979 
L 234.359052 184.986828 
L 235.124309 185.509985 
L 235.506938 188.887442 
L 235.889566 188.674379 
L 236.272195 190.202964 
L 236.654823 190.901656 
L 237.42008 193.5632 
L 237.802709 193.363145 
L 238.185338 193.544956 
L 238.567966 194.160688 
L 239.333223 196.010503 
L 239.715852 195.751525 
L 240.09848 196.821385 
L 240.481109 197.01188 
L 240.863738 196.742399 
L 241.628995 197.443823 
L 242.011623 197.364466 
L 242.77688 196.561196 
L 243.159509 196.867847 
L 243.542138 196.774923 
L 243.924766 195.266971 
L 244.690023 194.324102 
L 245.072652 193.081656 
L 245.45528 194.096834 
L 245.837909 192.265526 
L 246.220538 192.41015 
L 246.603166 190.722504 
L 246.985795 190.51648 
L 247.368423 189.24129 
L 247.751052 188.985096 
L 248.13368 185.96114 
L 248.516309 185.562547 
L 248.898938 184.611788 
L 249.664195 181.352645 
L 250.429452 178.096335 
L 250.81208 177.247977 
L 251.577338 174.104371 
L 251.959966 172.886597 
L 252.342595 170.551592 
L 252.725223 169.350483 
L 252.725223 169.350483 
" style="fill:none;stroke:#d62728;stroke-linecap:square;stroke-width:1.5;"/>
   </g>
   <g id="line2d_27">
    <path clip-path="url(#p1da729468f)" d="M 61.410938 23.543308 
L 418.530938 23.543308 
" style="fill:none;stroke:#99aaaa;stroke-dasharray:9.6,2.4,1.5,2.4;stroke-dashoffset:0;stroke-width:1.5;"/>
   </g>
   <g id="line2d_28">
    <defs>
     <path d="M -3 3 
L 3 3 
L 3 -3 
L -3 -3 
z
" id="m9e0ac68bfd" style="stroke:#1f77b4;stroke-linejoin:miter;"/>
    </defs>
    <g clip-path="url(#p1da729468f)">
     <use style="fill:#1f77b4;stroke:#1f77b4;stroke-linejoin:miter;" x="61.410938" xlink:href="#m9e0ac68bfd" y="278.419468"/>
     <use style="fill:#1f77b4;stroke:#1f77b4;stroke-linejoin:miter;" x="72.889795" xlink:href="#m9e0ac68bfd" y="227.332828"/>
     <use style="fill:#1f77b4;stroke:#1f77b4;stroke-linejoin:miter;" x="84.368652" xlink:href="#m9e0ac68bfd" y="122.028091"/>
     <use style="fill:#1f77b4;stroke:#1f77b4;stroke-linejoin:miter;" x="95.847509" xlink:href="#m9e0ac68bfd" y="58.800243"/>
     <use style="fill:#1f77b4;stroke:#1f77b4;stroke-linejoin:miter;" x="107.326366" xlink:href="#m9e0ac68bfd" y="69.744349"/>
     <use style="fill:#1f77b4;stroke:#1f77b4;stroke-linejoin:miter;" x="118.805223" xlink:href="#m9e0ac68bfd" y="138.011186"/>
     <use style="fill:#1f77b4;stroke:#1f77b4;stroke-linejoin:miter;" x="130.28408" xlink:href="#m9e0ac68bfd" y="224.052915"/>
     <use style="fill:#1f77b4;stroke:#1f77b4;stroke-linejoin:miter;" x="141.762938" xlink:href="#m9e0ac68bfd" y="268.490121"/>
     <use style="fill:#1f77b4;stroke:#1f77b4;stroke-linejoin:miter;" x="153.241795" xlink:href="#m9e0ac68bfd" y="220.218642"/>
     <use style="fill:#1f77b4;stroke:#1f77b4;stroke-linejoin:miter;" x="164.720652" xlink:href="#m9e0ac68bfd" y="101.79156"/>
     <use style="fill:#1f77b4;stroke:#1f77b4;stroke-linejoin:miter;" x="176.199509" xlink:href="#m9e0ac68bfd" y="46.908658"/>
     <use style="fill:#1f77b4;stroke:#1f77b4;stroke-linejoin:miter;" x="187.678366" xlink:href="#m9e0ac68bfd" y="63.977198"/>
     <use style="fill:#1f77b4;stroke:#1f77b4;stroke-linejoin:miter;" x="199.157223" xlink:href="#m9e0ac68bfd" y="137.35207"/>
     <use style="fill:#1f77b4;stroke:#1f77b4;stroke-linejoin:miter;" x="210.63608" xlink:href="#m9e0ac68bfd" y="227.44367"/>
     <use style="fill:#1f77b4;stroke:#1f77b4;stroke-linejoin:miter;" x="222.114938" xlink:href="#m9e0ac68bfd" y="254.648462"/>
     <use style="fill:#1f77b4;stroke:#1f77b4;stroke-linejoin:miter;" x="233.593795" xlink:href="#m9e0ac68bfd" y="219.943912"/>
     <use style="fill:#1f77b4;stroke:#1f77b4;stroke-linejoin:miter;" x="245.072652" xlink:href="#m9e0ac68bfd" y="123.778828"/>
     <use style="fill:#1f77b4;stroke:#1f77b4;stroke-linejoin:miter;" x="256.551509" xlink:href="#m9e0ac68bfd" y="46.006659"/>
     <use style="fill:#1f77b4;stroke:#1f77b4;stroke-linejoin:miter;" x="268.030366" xlink:href="#m9e0ac68bfd" y="70.354828"/>
     <use style="fill:#1f77b4;stroke:#1f77b4;stroke-linejoin:miter;" x="279.509223" xlink:href="#m9e0ac68bfd" y="148.477217"/>
     <use style="fill:#1f77b4;stroke:#1f77b4;stroke-linejoin:miter;" x="290.98808" xlink:href="#m9e0ac68bfd" y="223.213151"/>
     <use style="fill:#1f77b4;stroke:#1f77b4;stroke-linejoin:miter;" x="302.466938" xlink:href="#m9e0ac68bfd" y="248.054942"/>
     <use style="fill:#1f77b4;stroke:#1f77b4;stroke-linejoin:miter;" x="313.945795" xlink:href="#m9e0ac68bfd" y="208.638988"/>
     <use style="fill:#1f77b4;stroke:#1f77b4;stroke-linejoin:miter;" x="325.424652" xlink:href="#m9e0ac68bfd" y="122.286213"/>
     <use style="fill:#1f77b4;stroke:#1f77b4;stroke-linejoin:miter;" x="336.903509" xlink:href="#m9e0ac68bfd" y="43.652338"/>
     <use style="fill:#1f77b4;stroke:#1f77b4;stroke-linejoin:miter;" x="348.382366" xlink:href="#m9e0ac68bfd" y="65.131555"/>
     <use style="fill:#1f77b4;stroke:#1f77b4;stroke-linejoin:miter;" x="359.861223" xlink:href="#m9e0ac68bfd" y="139.708068"/>
     <use style="fill:#1f77b4;stroke:#1f77b4;stroke-linejoin:miter;" x="371.34008" xlink:href="#m9e0ac68bfd" y="212.482828"/>
     <use style="fill:#1f77b4;stroke:#1f77b4;stroke-linejoin:miter;" x="382.818938" xlink:href="#m9e0ac68bfd" y="247.448707"/>
     <use style="fill:#1f77b4;stroke:#1f77b4;stroke-linejoin:miter;" x="394.297795" xlink:href="#m9e0ac68bfd" y="200.2634"/>
     <use style="fill:#1f77b4;stroke:#1f77b4;stroke-linejoin:miter;" x="405.776652" xlink:href="#m9e0ac68bfd" y="122.73279"/>
    </g>
   </g>
   <g id="line2d_29">
    <defs>
     <path d="M 0 3 
C 0.795609 3 1.55874 2.683901 2.12132 2.12132 
C 2.683901 1.55874 3 0.795609 3 0 
C 3 -0.795609 2.683901 -1.55874 2.12132 -2.12132 
C 1.55874 -2.683901 0.795609 -3 0 -3 
C -0.795609 -3 -1.55874 -2.683901 -2.12132 -2.12132 
C -2.683901 -1.55874 -3 -0.795609 -3 0 
C -3 0.795609 -2.683901 1.55874 -2.12132 2.12132 
C -1.55874 2.683901 -0.795609 3 0 3 
z
" id="m4d17eb6f4c" style="stroke:#d62728;"/>
    </defs>
    <g clip-path="url(#p1da729468f)">
     <use style="fill:#d62728;stroke:#d62728;" x="61.410938" xlink:href="#m4d17eb6f4c" y="271.284996"/>
     <use style="fill:#d62728;stroke:#d62728;" x="72.889795" xlink:href="#m4d17eb6f4c" y="170.285068"/>
     <use style="fill:#d62728;stroke:#d62728;" x="84.368652" xlink:href="#m4d17eb6f4c" y="90.589244"/>
     <use style="fill:#d62728;stroke:#d62728;" x="95.847509" xlink:href="#m4d17eb6f4c" y="99.868392"/>
     <use style="fill:#d62728;stroke:#d62728;" x="107.326366" xlink:href="#m4d17eb6f4c" y="166.424982"/>
     <use style="fill:#d62728;stroke:#d62728;" x="118.805223" xlink:href="#m4d17eb6f4c" y="166.142635"/>
     <use style="fill:#d62728;stroke:#d62728;" x="130.28408" xlink:href="#m4d17eb6f4c" y="127.280302"/>
     <use style="fill:#d62728;stroke:#d62728;" x="141.762938" xlink:href="#m4d17eb6f4c" y="168.285905"/>
     <use style="fill:#d62728;stroke:#d62728;" x="153.241795" xlink:href="#m4d17eb6f4c" y="195.401315"/>
     <use style="fill:#d62728;stroke:#d62728;" x="164.720652" xlink:href="#m4d17eb6f4c" y="142.805574"/>
     <use style="fill:#d62728;stroke:#d62728;" x="176.199509" xlink:href="#m4d17eb6f4c" y="136.807228"/>
     <use style="fill:#d62728;stroke:#d62728;" x="187.678366" xlink:href="#m4d17eb6f4c" y="125.352609"/>
     <use style="fill:#d62728;stroke:#d62728;" x="199.157223" xlink:href="#m4d17eb6f4c" y="159.747218"/>
     <use style="fill:#d62728;stroke:#d62728;" x="210.63608" xlink:href="#m4d17eb6f4c" y="144.281168"/>
     <use style="fill:#d62728;stroke:#d62728;" x="222.114938" xlink:href="#m4d17eb6f4c" y="146.807751"/>
     <use style="fill:#d62728;stroke:#d62728;" x="233.593795" xlink:href="#m4d17eb6f4c" y="169.990751"/>
    </g>
   </g>
   <g id="patch_3">
    <path d="M 61.410938 279.010828 
L 61.410938 12.898828 
" style="fill:none;stroke:#000000;stroke-linecap:square;stroke-linejoin:miter;stroke-width:0.8;"/>
   </g>
   <g id="patch_4">
    <path d="M 418.530938 279.010828 
L 418.530938 12.898828 
" style="fill:none;stroke:#000000;stroke-linecap:square;stroke-linejoin:miter;stroke-width:0.8;"/>
   </g>
   <g id="patch_5">
    <path d="M 61.410938 279.010828 
L 418.530938 279.010828 
" style="fill:none;stroke:#000000;stroke-linecap:square;stroke-linejoin:miter;stroke-width:0.8;"/>
   </g>
   <g id="patch_6">
    <path d="M 61.410938 12.898828 
L 418.530938 12.898828 
" style="fill:none;stroke:#000000;stroke-linecap:square;stroke-linejoin:miter;stroke-width:0.8;"/>
   </g>
   <g id="text_15">
    <!-- (D) -->
    <defs>
     <path d="M 19.671875 64.796875 
L 19.671875 8.109375 
L 31.59375 8.109375 
Q 46.6875 8.109375 53.6875 14.9375 
Q 60.6875 21.78125 60.6875 36.53125 
Q 60.6875 51.171875 53.6875 57.984375 
Q 46.6875 64.796875 31.59375 64.796875 
z
M 9.8125 72.90625 
L 30.078125 72.90625 
Q 51.265625 72.90625 61.171875 64.09375 
Q 71.09375 55.28125 71.09375 36.53125 
Q 71.09375 17.671875 61.125 8.828125 
Q 51.171875 0 30.078125 0 
L 9.8125 0 
z
" id="DejaVuSans-44"/>
    </defs>
    <g transform="translate(380.26808 39.510028)scale(0.2 -0.2)">
     <use xlink:href="#DejaVuSans-28"/>
     <use x="39.013672" xlink:href="#DejaVuSans-44"/>
     <use x="116.015625" xlink:href="#DejaVuSans-29"/>
    </g>
   </g>
  </g>
 </g>
 <defs>
  <clipPath id="p1da729468f">
   <rect height="266.112" width="357.12" x="61.410938" y="12.898828"/>
  </clipPath>
 </defs>
</svg>
