<?xml version="1.0" encoding="utf-8" standalone="no"?>
<!DOCTYPE svg PUBLIC "-//W3C//DTD SVG 1.1//EN"
  "http://www.w3.org/Graphics/SVG/1.1/DTD/svg11.dtd">
<!-- Created with matplotlib (http://matplotlib.org/) -->
<svg height="331pt" version="1.1" viewBox="0 0 500 331" width="500pt" xmlns="http://www.w3.org/2000/svg" xmlns:xlink="http://www.w3.org/1999/xlink">
 <defs>
  <style type="text/css">
*{stroke-linecap:butt;stroke-linejoin:round;}
  </style>
 </defs>
 <g id="figure_1">
  <g id="patch_1">
   <path d="M 0 331.128016 
L 500.654937 331.128016 
L 500.654937 0 
L 0 0 
z
" style="fill:none;"/>
  </g>
  <g id="axes_1">
   <g id="patch_2">
    <path d="M 61.410938 279.010828 
L 489.954938 279.010828 
L 489.954938 12.898828 
L 61.410938 12.898828 
z
" style="fill:none;"/>
   </g>
   <g id="matplotlib.axis_1">
    <g id="xtick_1">
     <g id="line2d_1">
      <path clip-path="url(#pee66af7d83)" d="M 92.767816 279.010828 
L 92.767816 12.898828 
" style="fill:none;stroke:#b0b0b0;stroke-linecap:square;stroke-width:0.8;"/>
     </g>
     <g id="line2d_2">
      <defs>
       <path d="M 0 0 
L 0 3.5 
" id="m005f0a59be" style="stroke:#000000;stroke-width:0.8;"/>
      </defs>
      <g>
       <use style="stroke:#000000;stroke-width:0.8;" x="92.767816" xlink:href="#m005f0a59be" y="279.010828"/>
      </g>
     </g>
     <g id="text_1">
      <!-- −100 -->
      <defs>
       <path d="M 10.59375 35.5 
L 73.1875 35.5 
L 73.1875 27.203125 
L 10.59375 27.203125 
z
" id="DejaVuSans-2212"/>
       <path d="M 12.40625 8.296875 
L 28.515625 8.296875 
L 28.515625 63.921875 
L 10.984375 60.40625 
L 10.984375 69.390625 
L 28.421875 72.90625 
L 38.28125 72.90625 
L 38.28125 8.296875 
L 54.390625 8.296875 
L 54.390625 0 
L 12.40625 0 
z
" id="DejaVuSans-31"/>
       <path d="M 31.78125 66.40625 
Q 24.171875 66.40625 20.328125 58.90625 
Q 16.5 51.421875 16.5 36.375 
Q 16.5 21.390625 20.328125 13.890625 
Q 24.171875 6.390625 31.78125 6.390625 
Q 39.453125 6.390625 43.28125 13.890625 
Q 47.125 21.390625 47.125 36.375 
Q 47.125 51.421875 43.28125 58.90625 
Q 39.453125 66.40625 31.78125 66.40625 
z
M 31.78125 74.21875 
Q 44.046875 74.21875 50.515625 64.515625 
Q 56.984375 54.828125 56.984375 36.375 
Q 56.984375 17.96875 50.515625 8.265625 
Q 44.046875 -1.421875 31.78125 -1.421875 
Q 19.53125 -1.421875 13.0625 8.265625 
Q 6.59375 17.96875 6.59375 36.375 
Q 6.59375 54.828125 13.0625 64.515625 
Q 19.53125 74.21875 31.78125 74.21875 
z
" id="DejaVuSans-30"/>
      </defs>
      <g transform="translate(72.167425 297.408484)scale(0.15 -0.15)">
       <use xlink:href="#DejaVuSans-2212"/>
       <use x="83.789062" xlink:href="#DejaVuSans-31"/>
       <use x="147.412109" xlink:href="#DejaVuSans-30"/>
       <use x="211.035156" xlink:href="#DejaVuSans-30"/>
      </g>
     </g>
    </g>
    <g id="xtick_2">
     <g id="line2d_3">
      <path clip-path="url(#pee66af7d83)" d="M 162.449767 279.010828 
L 162.449767 12.898828 
" style="fill:none;stroke:#b0b0b0;stroke-linecap:square;stroke-width:0.8;"/>
     </g>
     <g id="line2d_4">
      <g>
       <use style="stroke:#000000;stroke-width:0.8;" x="162.449767" xlink:href="#m005f0a59be" y="279.010828"/>
      </g>
     </g>
     <g id="text_2">
      <!-- 0 -->
      <g transform="translate(157.677892 297.408484)scale(0.15 -0.15)">
       <use xlink:href="#DejaVuSans-30"/>
      </g>
     </g>
    </g>
    <g id="xtick_3">
     <g id="line2d_5">
      <path clip-path="url(#pee66af7d83)" d="M 232.131718 279.010828 
L 232.131718 12.898828 
" style="fill:none;stroke:#b0b0b0;stroke-linecap:square;stroke-width:0.8;"/>
     </g>
     <g id="line2d_6">
      <g>
       <use style="stroke:#000000;stroke-width:0.8;" x="232.131718" xlink:href="#m005f0a59be" y="279.010828"/>
      </g>
     </g>
     <g id="text_3">
      <!-- 100 -->
      <g transform="translate(217.816093 297.408484)scale(0.15 -0.15)">
       <use xlink:href="#DejaVuSans-31"/>
       <use x="63.623047" xlink:href="#DejaVuSans-30"/>
       <use x="127.246094" xlink:href="#DejaVuSans-30"/>
      </g>
     </g>
    </g>
    <g id="xtick_4">
     <g id="line2d_7">
      <path clip-path="url(#pee66af7d83)" d="M 301.813669 279.010828 
L 301.813669 12.898828 
" style="fill:none;stroke:#b0b0b0;stroke-linecap:square;stroke-width:0.8;"/>
     </g>
     <g id="line2d_8">
      <g>
       <use style="stroke:#000000;stroke-width:0.8;" x="301.813669" xlink:href="#m005f0a59be" y="279.010828"/>
      </g>
     </g>
     <g id="text_4">
      <!-- 200 -->
      <defs>
       <path d="M 19.1875 8.296875 
L 53.609375 8.296875 
L 53.609375 0 
L 7.328125 0 
L 7.328125 8.296875 
Q 12.9375 14.109375 22.625 23.890625 
Q 32.328125 33.6875 34.8125 36.53125 
Q 39.546875 41.84375 41.421875 45.53125 
Q 43.3125 49.21875 43.3125 52.78125 
Q 43.3125 58.59375 39.234375 62.25 
Q 35.15625 65.921875 28.609375 65.921875 
Q 23.96875 65.921875 18.8125 64.3125 
Q 13.671875 62.703125 7.8125 59.421875 
L 7.8125 69.390625 
Q 13.765625 71.78125 18.9375 73 
Q 24.125 74.21875 28.421875 74.21875 
Q 39.75 74.21875 46.484375 68.546875 
Q 53.21875 62.890625 53.21875 53.421875 
Q 53.21875 48.921875 51.53125 44.890625 
Q 49.859375 40.875 45.40625 35.40625 
Q 44.1875 33.984375 37.640625 27.21875 
Q 31.109375 20.453125 19.1875 8.296875 
z
" id="DejaVuSans-32"/>
      </defs>
      <g transform="translate(287.498044 297.408484)scale(0.15 -0.15)">
       <use xlink:href="#DejaVuSans-32"/>
       <use x="63.623047" xlink:href="#DejaVuSans-30"/>
       <use x="127.246094" xlink:href="#DejaVuSans-30"/>
      </g>
     </g>
    </g>
    <g id="xtick_5">
     <g id="line2d_9">
      <path clip-path="url(#pee66af7d83)" d="M 371.49562 279.010828 
L 371.49562 12.898828 
" style="fill:none;stroke:#b0b0b0;stroke-linecap:square;stroke-width:0.8;"/>
     </g>
     <g id="line2d_10">
      <g>
       <use style="stroke:#000000;stroke-width:0.8;" x="371.49562" xlink:href="#m005f0a59be" y="279.010828"/>
      </g>
     </g>
     <g id="text_5">
      <!-- 300 -->
      <defs>
       <path d="M 40.578125 39.3125 
Q 47.65625 37.796875 51.625 33 
Q 55.609375 28.21875 55.609375 21.1875 
Q 55.609375 10.40625 48.1875 4.484375 
Q 40.765625 -1.421875 27.09375 -1.421875 
Q 22.515625 -1.421875 17.65625 -0.515625 
Q 12.796875 0.390625 7.625 2.203125 
L 7.625 11.71875 
Q 11.71875 9.328125 16.59375 8.109375 
Q 21.484375 6.890625 26.8125 6.890625 
Q 36.078125 6.890625 40.9375 10.546875 
Q 45.796875 14.203125 45.796875 21.1875 
Q 45.796875 27.640625 41.28125 31.265625 
Q 36.765625 34.90625 28.71875 34.90625 
L 20.21875 34.90625 
L 20.21875 43.015625 
L 29.109375 43.015625 
Q 36.375 43.015625 40.234375 45.921875 
Q 44.09375 48.828125 44.09375 54.296875 
Q 44.09375 59.90625 40.109375 62.90625 
Q 36.140625 65.921875 28.71875 65.921875 
Q 24.65625 65.921875 20.015625 65.03125 
Q 15.375 64.15625 9.8125 62.3125 
L 9.8125 71.09375 
Q 15.4375 72.65625 20.34375 73.4375 
Q 25.25 74.21875 29.59375 74.21875 
Q 40.828125 74.21875 47.359375 69.109375 
Q 53.90625 64.015625 53.90625 55.328125 
Q 53.90625 49.265625 50.4375 45.09375 
Q 46.96875 40.921875 40.578125 39.3125 
z
" id="DejaVuSans-33"/>
      </defs>
      <g transform="translate(357.179995 297.408484)scale(0.15 -0.15)">
       <use xlink:href="#DejaVuSans-33"/>
       <use x="63.623047" xlink:href="#DejaVuSans-30"/>
       <use x="127.246094" xlink:href="#DejaVuSans-30"/>
      </g>
     </g>
    </g>
    <g id="xtick_6">
     <g id="line2d_11">
      <path clip-path="url(#pee66af7d83)" d="M 441.177572 279.010828 
L 441.177572 12.898828 
" style="fill:none;stroke:#b0b0b0;stroke-linecap:square;stroke-width:0.8;"/>
     </g>
     <g id="line2d_12">
      <g>
       <use style="stroke:#000000;stroke-width:0.8;" x="441.177572" xlink:href="#m005f0a59be" y="279.010828"/>
      </g>
     </g>
     <g id="text_6">
      <!-- 400 -->
      <defs>
       <path d="M 37.796875 64.3125 
L 12.890625 25.390625 
L 37.796875 25.390625 
z
M 35.203125 72.90625 
L 47.609375 72.90625 
L 47.609375 25.390625 
L 58.015625 25.390625 
L 58.015625 17.1875 
L 47.609375 17.1875 
L 47.609375 0 
L 37.796875 0 
L 37.796875 17.1875 
L 4.890625 17.1875 
L 4.890625 26.703125 
z
" id="DejaVuSans-34"/>
      </defs>
      <g transform="translate(426.861947 297.408484)scale(0.15 -0.15)">
       <use xlink:href="#DejaVuSans-34"/>
       <use x="63.623047" xlink:href="#DejaVuSans-30"/>
       <use x="127.246094" xlink:href="#DejaVuSans-30"/>
      </g>
     </g>
    </g>
    <g id="text_7">
     <!-- $\delta$, Detuning from carrier (kHz) -->
     <defs>
      <path d="M 54.25 63.328125 
Q 49.953125 66.75 38.28125 66.75 
Q 25.921875 66.75 24.8125 61.03125 
Q 23.921875 56.546875 36.375 54.203125 
Q 46.140625 52.390625 50.828125 46.921875 
Q 56.5 40.328125 53.859375 26.8125 
Q 51.3125 13.875 43.171875 6.25 
Q 34.96875 -1.421875 23.25 -1.421875 
Q 11.578125 -1.421875 6.34375 6.25 
Q 1.125 13.875 3.765625 27.296875 
Q 5.671875 37.25 13.921875 45.3125 
Q 17.140625 48.4375 21.140625 50.203125 
Q 14.265625 54.046875 15.625 60.9375 
Q 18.21875 74.21875 39.75 74.21875 
Q 50.53125 74.21875 55.71875 70.796875 
z
M 27.390625 47.75 
Q 23.828125 46.34375 20.40625 42.78125 
Q 15.140625 37.25 13.234375 27.296875 
Q 11.28125 17.390625 14.359375 11.8125 
Q 17.484375 6.203125 24.75 6.203125 
Q 31.9375 6.203125 37.203125 11.859375 
Q 42.53125 17.53125 44.34375 26.8125 
Q 46.1875 36.53125 42.671875 41.21875 
Q 38.921875 46.234375 32.859375 46.78125 
Q 29.78125 47.078125 27.390625 47.75 
z
" id="DejaVuSans-Oblique-3b4"/>
      <path d="M 11.71875 12.40625 
L 22.015625 12.40625 
L 22.015625 4 
L 14.015625 -11.625 
L 7.71875 -11.625 
L 11.71875 4 
z
" id="DejaVuSans-2c"/>
      <path id="DejaVuSans-20"/>
      <path d="M 19.671875 64.796875 
L 19.671875 8.109375 
L 31.59375 8.109375 
Q 46.6875 8.109375 53.6875 14.9375 
Q 60.6875 21.78125 60.6875 36.53125 
Q 60.6875 51.171875 53.6875 57.984375 
Q 46.6875 64.796875 31.59375 64.796875 
z
M 9.8125 72.90625 
L 30.078125 72.90625 
Q 51.265625 72.90625 61.171875 64.09375 
Q 71.09375 55.28125 71.09375 36.53125 
Q 71.09375 17.671875 61.125 8.828125 
Q 51.171875 0 30.078125 0 
L 9.8125 0 
z
" id="DejaVuSans-44"/>
      <path d="M 56.203125 29.59375 
L 56.203125 25.203125 
L 14.890625 25.203125 
Q 15.484375 15.921875 20.484375 11.0625 
Q 25.484375 6.203125 34.421875 6.203125 
Q 39.59375 6.203125 44.453125 7.46875 
Q 49.3125 8.734375 54.109375 11.28125 
L 54.109375 2.78125 
Q 49.265625 0.734375 44.1875 -0.34375 
Q 39.109375 -1.421875 33.890625 -1.421875 
Q 20.796875 -1.421875 13.15625 6.1875 
Q 5.515625 13.8125 5.515625 26.8125 
Q 5.515625 40.234375 12.765625 48.109375 
Q 20.015625 56 32.328125 56 
Q 43.359375 56 49.78125 48.890625 
Q 56.203125 41.796875 56.203125 29.59375 
z
M 47.21875 32.234375 
Q 47.125 39.59375 43.09375 43.984375 
Q 39.0625 48.390625 32.421875 48.390625 
Q 24.90625 48.390625 20.390625 44.140625 
Q 15.875 39.890625 15.1875 32.171875 
z
" id="DejaVuSans-65"/>
      <path d="M 18.3125 70.21875 
L 18.3125 54.6875 
L 36.8125 54.6875 
L 36.8125 47.703125 
L 18.3125 47.703125 
L 18.3125 18.015625 
Q 18.3125 11.328125 20.140625 9.421875 
Q 21.96875 7.515625 27.59375 7.515625 
L 36.8125 7.515625 
L 36.8125 0 
L 27.59375 0 
Q 17.1875 0 13.234375 3.875 
Q 9.28125 7.765625 9.28125 18.015625 
L 9.28125 47.703125 
L 2.6875 47.703125 
L 2.6875 54.6875 
L 9.28125 54.6875 
L 9.28125 70.21875 
z
" id="DejaVuSans-74"/>
      <path d="M 8.5 21.578125 
L 8.5 54.6875 
L 17.484375 54.6875 
L 17.484375 21.921875 
Q 17.484375 14.15625 20.5 10.265625 
Q 23.53125 6.390625 29.59375 6.390625 
Q 36.859375 6.390625 41.078125 11.03125 
Q 45.3125 15.671875 45.3125 23.6875 
L 45.3125 54.6875 
L 54.296875 54.6875 
L 54.296875 0 
L 45.3125 0 
L 45.3125 8.40625 
Q 42.046875 3.421875 37.71875 1 
Q 33.40625 -1.421875 27.6875 -1.421875 
Q 18.265625 -1.421875 13.375 4.4375 
Q 8.5 10.296875 8.5 21.578125 
z
M 31.109375 56 
z
" id="DejaVuSans-75"/>
      <path d="M 54.890625 33.015625 
L 54.890625 0 
L 45.90625 0 
L 45.90625 32.71875 
Q 45.90625 40.484375 42.875 44.328125 
Q 39.84375 48.1875 33.796875 48.1875 
Q 26.515625 48.1875 22.3125 43.546875 
Q 18.109375 38.921875 18.109375 30.90625 
L 18.109375 0 
L 9.078125 0 
L 9.078125 54.6875 
L 18.109375 54.6875 
L 18.109375 46.1875 
Q 21.34375 51.125 25.703125 53.5625 
Q 30.078125 56 35.796875 56 
Q 45.21875 56 50.046875 50.171875 
Q 54.890625 44.34375 54.890625 33.015625 
z
" id="DejaVuSans-6e"/>
      <path d="M 9.421875 54.6875 
L 18.40625 54.6875 
L 18.40625 0 
L 9.421875 0 
z
M 9.421875 75.984375 
L 18.40625 75.984375 
L 18.40625 64.59375 
L 9.421875 64.59375 
z
" id="DejaVuSans-69"/>
      <path d="M 45.40625 27.984375 
Q 45.40625 37.75 41.375 43.109375 
Q 37.359375 48.484375 30.078125 48.484375 
Q 22.859375 48.484375 18.828125 43.109375 
Q 14.796875 37.75 14.796875 27.984375 
Q 14.796875 18.265625 18.828125 12.890625 
Q 22.859375 7.515625 30.078125 7.515625 
Q 37.359375 7.515625 41.375 12.890625 
Q 45.40625 18.265625 45.40625 27.984375 
z
M 54.390625 6.78125 
Q 54.390625 -7.171875 48.1875 -13.984375 
Q 42 -20.796875 29.203125 -20.796875 
Q 24.46875 -20.796875 20.265625 -20.09375 
Q 16.0625 -19.390625 12.109375 -17.921875 
L 12.109375 -9.1875 
Q 16.0625 -11.328125 19.921875 -12.34375 
Q 23.78125 -13.375 27.78125 -13.375 
Q 36.625 -13.375 41.015625 -8.765625 
Q 45.40625 -4.15625 45.40625 5.171875 
L 45.40625 9.625 
Q 42.625 4.78125 38.28125 2.390625 
Q 33.9375 0 27.875 0 
Q 17.828125 0 11.671875 7.65625 
Q 5.515625 15.328125 5.515625 27.984375 
Q 5.515625 40.671875 11.671875 48.328125 
Q 17.828125 56 27.875 56 
Q 33.9375 56 38.28125 53.609375 
Q 42.625 51.21875 45.40625 46.390625 
L 45.40625 54.6875 
L 54.390625 54.6875 
z
" id="DejaVuSans-67"/>
      <path d="M 37.109375 75.984375 
L 37.109375 68.5 
L 28.515625 68.5 
Q 23.6875 68.5 21.796875 66.546875 
Q 19.921875 64.59375 19.921875 59.515625 
L 19.921875 54.6875 
L 34.71875 54.6875 
L 34.71875 47.703125 
L 19.921875 47.703125 
L 19.921875 0 
L 10.890625 0 
L 10.890625 47.703125 
L 2.296875 47.703125 
L 2.296875 54.6875 
L 10.890625 54.6875 
L 10.890625 58.5 
Q 10.890625 67.625 15.140625 71.796875 
Q 19.390625 75.984375 28.609375 75.984375 
z
" id="DejaVuSans-66"/>
      <path d="M 41.109375 46.296875 
Q 39.59375 47.171875 37.8125 47.578125 
Q 36.03125 48 33.890625 48 
Q 26.265625 48 22.1875 43.046875 
Q 18.109375 38.09375 18.109375 28.8125 
L 18.109375 0 
L 9.078125 0 
L 9.078125 54.6875 
L 18.109375 54.6875 
L 18.109375 46.1875 
Q 20.953125 51.171875 25.484375 53.578125 
Q 30.03125 56 36.53125 56 
Q 37.453125 56 38.578125 55.875 
Q 39.703125 55.765625 41.0625 55.515625 
z
" id="DejaVuSans-72"/>
      <path d="M 30.609375 48.390625 
Q 23.390625 48.390625 19.1875 42.75 
Q 14.984375 37.109375 14.984375 27.296875 
Q 14.984375 17.484375 19.15625 11.84375 
Q 23.34375 6.203125 30.609375 6.203125 
Q 37.796875 6.203125 41.984375 11.859375 
Q 46.1875 17.53125 46.1875 27.296875 
Q 46.1875 37.015625 41.984375 42.703125 
Q 37.796875 48.390625 30.609375 48.390625 
z
M 30.609375 56 
Q 42.328125 56 49.015625 48.375 
Q 55.71875 40.765625 55.71875 27.296875 
Q 55.71875 13.875 49.015625 6.21875 
Q 42.328125 -1.421875 30.609375 -1.421875 
Q 18.84375 -1.421875 12.171875 6.21875 
Q 5.515625 13.875 5.515625 27.296875 
Q 5.515625 40.765625 12.171875 48.375 
Q 18.84375 56 30.609375 56 
z
" id="DejaVuSans-6f"/>
      <path d="M 52 44.1875 
Q 55.375 50.25 60.0625 53.125 
Q 64.75 56 71.09375 56 
Q 79.640625 56 84.28125 50.015625 
Q 88.921875 44.046875 88.921875 33.015625 
L 88.921875 0 
L 79.890625 0 
L 79.890625 32.71875 
Q 79.890625 40.578125 77.09375 44.375 
Q 74.3125 48.1875 68.609375 48.1875 
Q 61.625 48.1875 57.5625 43.546875 
Q 53.515625 38.921875 53.515625 30.90625 
L 53.515625 0 
L 44.484375 0 
L 44.484375 32.71875 
Q 44.484375 40.625 41.703125 44.40625 
Q 38.921875 48.1875 33.109375 48.1875 
Q 26.21875 48.1875 22.15625 43.53125 
Q 18.109375 38.875 18.109375 30.90625 
L 18.109375 0 
L 9.078125 0 
L 9.078125 54.6875 
L 18.109375 54.6875 
L 18.109375 46.1875 
Q 21.1875 51.21875 25.484375 53.609375 
Q 29.78125 56 35.6875 56 
Q 41.65625 56 45.828125 52.96875 
Q 50 49.953125 52 44.1875 
z
" id="DejaVuSans-6d"/>
      <path d="M 48.78125 52.59375 
L 48.78125 44.1875 
Q 44.96875 46.296875 41.140625 47.34375 
Q 37.3125 48.390625 33.40625 48.390625 
Q 24.65625 48.390625 19.8125 42.84375 
Q 14.984375 37.3125 14.984375 27.296875 
Q 14.984375 17.28125 19.8125 11.734375 
Q 24.65625 6.203125 33.40625 6.203125 
Q 37.3125 6.203125 41.140625 7.25 
Q 44.96875 8.296875 48.78125 10.40625 
L 48.78125 2.09375 
Q 45.015625 0.34375 40.984375 -0.53125 
Q 36.96875 -1.421875 32.421875 -1.421875 
Q 20.0625 -1.421875 12.78125 6.34375 
Q 5.515625 14.109375 5.515625 27.296875 
Q 5.515625 40.671875 12.859375 48.328125 
Q 20.21875 56 33.015625 56 
Q 37.15625 56 41.109375 55.140625 
Q 45.0625 54.296875 48.78125 52.59375 
z
" id="DejaVuSans-63"/>
      <path d="M 34.28125 27.484375 
Q 23.390625 27.484375 19.1875 25 
Q 14.984375 22.515625 14.984375 16.5 
Q 14.984375 11.71875 18.140625 8.90625 
Q 21.296875 6.109375 26.703125 6.109375 
Q 34.1875 6.109375 38.703125 11.40625 
Q 43.21875 16.703125 43.21875 25.484375 
L 43.21875 27.484375 
z
M 52.203125 31.203125 
L 52.203125 0 
L 43.21875 0 
L 43.21875 8.296875 
Q 40.140625 3.328125 35.546875 0.953125 
Q 30.953125 -1.421875 24.3125 -1.421875 
Q 15.921875 -1.421875 10.953125 3.296875 
Q 6 8.015625 6 15.921875 
Q 6 25.140625 12.171875 29.828125 
Q 18.359375 34.515625 30.609375 34.515625 
L 43.21875 34.515625 
L 43.21875 35.40625 
Q 43.21875 41.609375 39.140625 45 
Q 35.0625 48.390625 27.6875 48.390625 
Q 23 48.390625 18.546875 47.265625 
Q 14.109375 46.140625 10.015625 43.890625 
L 10.015625 52.203125 
Q 14.9375 54.109375 19.578125 55.046875 
Q 24.21875 56 28.609375 56 
Q 40.484375 56 46.34375 49.84375 
Q 52.203125 43.703125 52.203125 31.203125 
z
" id="DejaVuSans-61"/>
      <path d="M 31 75.875 
Q 24.46875 64.65625 21.28125 53.65625 
Q 18.109375 42.671875 18.109375 31.390625 
Q 18.109375 20.125 21.3125 9.0625 
Q 24.515625 -2 31 -13.1875 
L 23.1875 -13.1875 
Q 15.875 -1.703125 12.234375 9.375 
Q 8.59375 20.453125 8.59375 31.390625 
Q 8.59375 42.28125 12.203125 53.3125 
Q 15.828125 64.359375 23.1875 75.875 
z
" id="DejaVuSans-28"/>
      <path d="M 9.078125 75.984375 
L 18.109375 75.984375 
L 18.109375 31.109375 
L 44.921875 54.6875 
L 56.390625 54.6875 
L 27.390625 29.109375 
L 57.625 0 
L 45.90625 0 
L 18.109375 26.703125 
L 18.109375 0 
L 9.078125 0 
z
" id="DejaVuSans-6b"/>
      <path d="M 9.8125 72.90625 
L 19.671875 72.90625 
L 19.671875 43.015625 
L 55.515625 43.015625 
L 55.515625 72.90625 
L 65.375 72.90625 
L 65.375 0 
L 55.515625 0 
L 55.515625 34.71875 
L 19.671875 34.71875 
L 19.671875 0 
L 9.8125 0 
z
" id="DejaVuSans-48"/>
      <path d="M 5.515625 54.6875 
L 48.1875 54.6875 
L 48.1875 46.484375 
L 14.40625 7.171875 
L 48.1875 7.171875 
L 48.1875 0 
L 4.296875 0 
L 4.296875 8.203125 
L 38.09375 47.515625 
L 5.515625 47.515625 
z
" id="DejaVuSans-7a"/>
      <path d="M 8.015625 75.875 
L 15.828125 75.875 
Q 23.140625 64.359375 26.78125 53.3125 
Q 30.421875 42.28125 30.421875 31.390625 
Q 30.421875 20.453125 26.78125 9.375 
Q 23.140625 -1.703125 15.828125 -13.1875 
L 8.015625 -13.1875 
Q 14.5 -2 17.703125 9.0625 
Q 20.90625 20.125 20.90625 31.390625 
Q 20.90625 42.671875 17.703125 53.65625 
Q 14.5 64.65625 8.015625 75.875 
z
" id="DejaVuSans-29"/>
     </defs>
     <g transform="translate(124.982938 319.728016)scale(0.2 -0.2)">
      <use transform="translate(0 0.015625)" xlink:href="#DejaVuSans-Oblique-3b4"/>
      <use transform="translate(61.181641 0.015625)" xlink:href="#DejaVuSans-2c"/>
      <use transform="translate(92.96875 0.015625)" xlink:href="#DejaVuSans-20"/>
      <use transform="translate(124.755859 0.015625)" xlink:href="#DejaVuSans-44"/>
      <use transform="translate(201.757812 0.015625)" xlink:href="#DejaVuSans-65"/>
      <use transform="translate(263.28125 0.015625)" xlink:href="#DejaVuSans-74"/>
      <use transform="translate(302.490234 0.015625)" xlink:href="#DejaVuSans-75"/>
      <use transform="translate(365.869141 0.015625)" xlink:href="#DejaVuSans-6e"/>
      <use transform="translate(429.248047 0.015625)" xlink:href="#DejaVuSans-69"/>
      <use transform="translate(457.03125 0.015625)" xlink:href="#DejaVuSans-6e"/>
      <use transform="translate(520.410156 0.015625)" xlink:href="#DejaVuSans-67"/>
      <use transform="translate(583.886719 0.015625)" xlink:href="#DejaVuSans-20"/>
      <use transform="translate(615.673828 0.015625)" xlink:href="#DejaVuSans-66"/>
      <use transform="translate(650.878906 0.015625)" xlink:href="#DejaVuSans-72"/>
      <use transform="translate(691.992188 0.015625)" xlink:href="#DejaVuSans-6f"/>
      <use transform="translate(753.173828 0.015625)" xlink:href="#DejaVuSans-6d"/>
      <use transform="translate(850.585938 0.015625)" xlink:href="#DejaVuSans-20"/>
      <use transform="translate(882.373047 0.015625)" xlink:href="#DejaVuSans-63"/>
      <use transform="translate(937.353516 0.015625)" xlink:href="#DejaVuSans-61"/>
      <use transform="translate(998.632812 0.015625)" xlink:href="#DejaVuSans-72"/>
      <use transform="translate(1039.746094 0.015625)" xlink:href="#DejaVuSans-72"/>
      <use transform="translate(1080.859375 0.015625)" xlink:href="#DejaVuSans-69"/>
      <use transform="translate(1108.642578 0.015625)" xlink:href="#DejaVuSans-65"/>
      <use transform="translate(1170.166016 0.015625)" xlink:href="#DejaVuSans-72"/>
      <use transform="translate(1211.279297 0.015625)" xlink:href="#DejaVuSans-20"/>
      <use transform="translate(1243.066406 0.015625)" xlink:href="#DejaVuSans-28"/>
      <use transform="translate(1282.080078 0.015625)" xlink:href="#DejaVuSans-6b"/>
      <use transform="translate(1339.990234 0.015625)" xlink:href="#DejaVuSans-48"/>
      <use transform="translate(1415.185547 0.015625)" xlink:href="#DejaVuSans-7a"/>
      <use transform="translate(1467.675781 0.015625)" xlink:href="#DejaVuSans-29"/>
     </g>
    </g>
   </g>
   <g id="matplotlib.axis_2">
    <g id="ytick_1">
     <g id="line2d_13">
      <path clip-path="url(#pee66af7d83)" d="M 61.410938 279.010828 
L 489.954938 279.010828 
" style="fill:none;stroke:#b0b0b0;stroke-linecap:square;stroke-width:0.8;"/>
     </g>
     <g id="line2d_14">
      <defs>
       <path d="M 0 0 
L -3.5 0 
" id="mc3ce260a5b" style="stroke:#000000;stroke-width:0.8;"/>
      </defs>
      <g>
       <use style="stroke:#000000;stroke-width:0.8;" x="61.410938" xlink:href="#mc3ce260a5b" y="279.010828"/>
      </g>
     </g>
     <g id="text_8">
      <!-- 0.0 -->
      <defs>
       <path d="M 10.6875 12.40625 
L 21 12.40625 
L 21 0 
L 10.6875 0 
z
" id="DejaVuSans-2e"/>
      </defs>
      <g transform="translate(30.55625 284.709656)scale(0.15 -0.15)">
       <use xlink:href="#DejaVuSans-30"/>
       <use x="63.623047" xlink:href="#DejaVuSans-2e"/>
       <use x="95.410156" xlink:href="#DejaVuSans-30"/>
      </g>
     </g>
    </g>
    <g id="ytick_2">
     <g id="line2d_15">
      <path clip-path="url(#pee66af7d83)" d="M 61.410938 225.788428 
L 489.954938 225.788428 
" style="fill:none;stroke:#b0b0b0;stroke-linecap:square;stroke-width:0.8;"/>
     </g>
     <g id="line2d_16">
      <g>
       <use style="stroke:#000000;stroke-width:0.8;" x="61.410938" xlink:href="#mc3ce260a5b" y="225.788428"/>
      </g>
     </g>
     <g id="text_9">
      <!-- 0.2 -->
      <g transform="translate(30.55625 231.487256)scale(0.15 -0.15)">
       <use xlink:href="#DejaVuSans-30"/>
       <use x="63.623047" xlink:href="#DejaVuSans-2e"/>
       <use x="95.410156" xlink:href="#DejaVuSans-32"/>
      </g>
     </g>
    </g>
    <g id="ytick_3">
     <g id="line2d_17">
      <path clip-path="url(#pee66af7d83)" d="M 61.410938 172.566028 
L 489.954938 172.566028 
" style="fill:none;stroke:#b0b0b0;stroke-linecap:square;stroke-width:0.8;"/>
     </g>
     <g id="line2d_18">
      <g>
       <use style="stroke:#000000;stroke-width:0.8;" x="61.410938" xlink:href="#mc3ce260a5b" y="172.566028"/>
      </g>
     </g>
     <g id="text_10">
      <!-- 0.4 -->
      <g transform="translate(30.55625 178.264856)scale(0.15 -0.15)">
       <use xlink:href="#DejaVuSans-30"/>
       <use x="63.623047" xlink:href="#DejaVuSans-2e"/>
       <use x="95.410156" xlink:href="#DejaVuSans-34"/>
      </g>
     </g>
    </g>
    <g id="ytick_4">
     <g id="line2d_19">
      <path clip-path="url(#pee66af7d83)" d="M 61.410938 119.343628 
L 489.954938 119.343628 
" style="fill:none;stroke:#b0b0b0;stroke-linecap:square;stroke-width:0.8;"/>
     </g>
     <g id="line2d_20">
      <g>
       <use style="stroke:#000000;stroke-width:0.8;" x="61.410938" xlink:href="#mc3ce260a5b" y="119.343628"/>
      </g>
     </g>
     <g id="text_11">
      <!-- 0.6 -->
      <defs>
       <path d="M 33.015625 40.375 
Q 26.375 40.375 22.484375 35.828125 
Q 18.609375 31.296875 18.609375 23.390625 
Q 18.609375 15.53125 22.484375 10.953125 
Q 26.375 6.390625 33.015625 6.390625 
Q 39.65625 6.390625 43.53125 10.953125 
Q 47.40625 15.53125 47.40625 23.390625 
Q 47.40625 31.296875 43.53125 35.828125 
Q 39.65625 40.375 33.015625 40.375 
z
M 52.59375 71.296875 
L 52.59375 62.3125 
Q 48.875 64.0625 45.09375 64.984375 
Q 41.3125 65.921875 37.59375 65.921875 
Q 27.828125 65.921875 22.671875 59.328125 
Q 17.53125 52.734375 16.796875 39.40625 
Q 19.671875 43.65625 24.015625 45.921875 
Q 28.375 48.1875 33.59375 48.1875 
Q 44.578125 48.1875 50.953125 41.515625 
Q 57.328125 34.859375 57.328125 23.390625 
Q 57.328125 12.15625 50.6875 5.359375 
Q 44.046875 -1.421875 33.015625 -1.421875 
Q 20.359375 -1.421875 13.671875 8.265625 
Q 6.984375 17.96875 6.984375 36.375 
Q 6.984375 53.65625 15.1875 63.9375 
Q 23.390625 74.21875 37.203125 74.21875 
Q 40.921875 74.21875 44.703125 73.484375 
Q 48.484375 72.75 52.59375 71.296875 
z
" id="DejaVuSans-36"/>
      </defs>
      <g transform="translate(30.55625 125.042456)scale(0.15 -0.15)">
       <use xlink:href="#DejaVuSans-30"/>
       <use x="63.623047" xlink:href="#DejaVuSans-2e"/>
       <use x="95.410156" xlink:href="#DejaVuSans-36"/>
      </g>
     </g>
    </g>
    <g id="ytick_5">
     <g id="line2d_21">
      <path clip-path="url(#pee66af7d83)" d="M 61.410938 66.121228 
L 489.954938 66.121228 
" style="fill:none;stroke:#b0b0b0;stroke-linecap:square;stroke-width:0.8;"/>
     </g>
     <g id="line2d_22">
      <g>
       <use style="stroke:#000000;stroke-width:0.8;" x="61.410938" xlink:href="#mc3ce260a5b" y="66.121228"/>
      </g>
     </g>
     <g id="text_12">
      <!-- 0.8 -->
      <defs>
       <path d="M 31.78125 34.625 
Q 24.75 34.625 20.71875 30.859375 
Q 16.703125 27.09375 16.703125 20.515625 
Q 16.703125 13.921875 20.71875 10.15625 
Q 24.75 6.390625 31.78125 6.390625 
Q 38.8125 6.390625 42.859375 10.171875 
Q 46.921875 13.96875 46.921875 20.515625 
Q 46.921875 27.09375 42.890625 30.859375 
Q 38.875 34.625 31.78125 34.625 
z
M 21.921875 38.8125 
Q 15.578125 40.375 12.03125 44.71875 
Q 8.5 49.078125 8.5 55.328125 
Q 8.5 64.0625 14.71875 69.140625 
Q 20.953125 74.21875 31.78125 74.21875 
Q 42.671875 74.21875 48.875 69.140625 
Q 55.078125 64.0625 55.078125 55.328125 
Q 55.078125 49.078125 51.53125 44.71875 
Q 48 40.375 41.703125 38.8125 
Q 48.828125 37.15625 52.796875 32.3125 
Q 56.78125 27.484375 56.78125 20.515625 
Q 56.78125 9.90625 50.3125 4.234375 
Q 43.84375 -1.421875 31.78125 -1.421875 
Q 19.734375 -1.421875 13.25 4.234375 
Q 6.78125 9.90625 6.78125 20.515625 
Q 6.78125 27.484375 10.78125 32.3125 
Q 14.796875 37.15625 21.921875 38.8125 
z
M 18.3125 54.390625 
Q 18.3125 48.734375 21.84375 45.5625 
Q 25.390625 42.390625 31.78125 42.390625 
Q 38.140625 42.390625 41.71875 45.5625 
Q 45.3125 48.734375 45.3125 54.390625 
Q 45.3125 60.0625 41.71875 63.234375 
Q 38.140625 66.40625 31.78125 66.40625 
Q 25.390625 66.40625 21.84375 63.234375 
Q 18.3125 60.0625 18.3125 54.390625 
z
" id="DejaVuSans-38"/>
      </defs>
      <g transform="translate(30.55625 71.820056)scale(0.15 -0.15)">
       <use xlink:href="#DejaVuSans-30"/>
       <use x="63.623047" xlink:href="#DejaVuSans-2e"/>
       <use x="95.410156" xlink:href="#DejaVuSans-38"/>
      </g>
     </g>
    </g>
    <g id="ytick_6">
     <g id="line2d_23">
      <path clip-path="url(#pee66af7d83)" d="M 61.410938 12.898828 
L 489.954938 12.898828 
" style="fill:none;stroke:#b0b0b0;stroke-linecap:square;stroke-width:0.8;"/>
     </g>
     <g id="line2d_24">
      <g>
       <use style="stroke:#000000;stroke-width:0.8;" x="61.410938" xlink:href="#mc3ce260a5b" y="12.898828"/>
      </g>
     </g>
     <g id="text_13">
      <!-- 1.0 -->
      <g transform="translate(30.55625 18.597656)scale(0.15 -0.15)">
       <use xlink:href="#DejaVuSans-31"/>
       <use x="63.623047" xlink:href="#DejaVuSans-2e"/>
       <use x="95.410156" xlink:href="#DejaVuSans-30"/>
      </g>
     </g>
    </g>
    <g id="text_14">
     <!-- F=1 population -->
     <defs>
      <path d="M 9.8125 72.90625 
L 51.703125 72.90625 
L 51.703125 64.59375 
L 19.671875 64.59375 
L 19.671875 43.109375 
L 48.578125 43.109375 
L 48.578125 34.8125 
L 19.671875 34.8125 
L 19.671875 0 
L 9.8125 0 
z
" id="DejaVuSans-46"/>
      <path d="M 10.59375 45.40625 
L 73.1875 45.40625 
L 73.1875 37.203125 
L 10.59375 37.203125 
z
M 10.59375 25.484375 
L 73.1875 25.484375 
L 73.1875 17.1875 
L 10.59375 17.1875 
z
" id="DejaVuSans-3d"/>
      <path d="M 18.109375 8.203125 
L 18.109375 -20.796875 
L 9.078125 -20.796875 
L 9.078125 54.6875 
L 18.109375 54.6875 
L 18.109375 46.390625 
Q 20.953125 51.265625 25.265625 53.625 
Q 29.59375 56 35.59375 56 
Q 45.5625 56 51.78125 48.09375 
Q 58.015625 40.1875 58.015625 27.296875 
Q 58.015625 14.40625 51.78125 6.484375 
Q 45.5625 -1.421875 35.59375 -1.421875 
Q 29.59375 -1.421875 25.265625 0.953125 
Q 20.953125 3.328125 18.109375 8.203125 
z
M 48.6875 27.296875 
Q 48.6875 37.203125 44.609375 42.84375 
Q 40.53125 48.484375 33.40625 48.484375 
Q 26.265625 48.484375 22.1875 42.84375 
Q 18.109375 37.203125 18.109375 27.296875 
Q 18.109375 17.390625 22.1875 11.75 
Q 26.265625 6.109375 33.40625 6.109375 
Q 40.53125 6.109375 44.609375 11.75 
Q 48.6875 17.390625 48.6875 27.296875 
z
" id="DejaVuSans-70"/>
      <path d="M 9.421875 75.984375 
L 18.40625 75.984375 
L 18.40625 0 
L 9.421875 0 
z
" id="DejaVuSans-6c"/>
     </defs>
     <g transform="translate(22.396875 222.840766)rotate(-90)scale(0.2 -0.2)">
      <use xlink:href="#DejaVuSans-46"/>
      <use x="57.519531" xlink:href="#DejaVuSans-3d"/>
      <use x="141.308594" xlink:href="#DejaVuSans-31"/>
      <use x="204.931641" xlink:href="#DejaVuSans-20"/>
      <use x="236.71875" xlink:href="#DejaVuSans-70"/>
      <use x="300.195312" xlink:href="#DejaVuSans-6f"/>
      <use x="361.376953" xlink:href="#DejaVuSans-70"/>
      <use x="424.853516" xlink:href="#DejaVuSans-75"/>
      <use x="488.232422" xlink:href="#DejaVuSans-6c"/>
      <use x="516.015625" xlink:href="#DejaVuSans-61"/>
      <use x="577.294922" xlink:href="#DejaVuSans-74"/>
      <use x="616.503906" xlink:href="#DejaVuSans-69"/>
      <use x="644.287109" xlink:href="#DejaVuSans-6f"/>
      <use x="705.46875" xlink:href="#DejaVuSans-6e"/>
     </g>
    </g>
   </g>
   <g id="LineCollection_1">
    <path clip-path="url(#pee66af7d83)" d="M 73.256869 271.876084 
L 73.256869 263.235268 
" style="fill:none;stroke:#d62728;stroke-width:1.5;"/>
    <path clip-path="url(#pee66af7d83)" d="M 76.740967 272.934981 
L 76.740967 265.541726 
" style="fill:none;stroke:#d62728;stroke-width:1.5;"/>
    <path clip-path="url(#pee66af7d83)" d="M 80.225064 269.51123 
L 80.225064 260.881312 
" style="fill:none;stroke:#d62728;stroke-width:1.5;"/>
    <path clip-path="url(#pee66af7d83)" d="M 83.709162 254.938412 
L 83.709162 241.544844 
" style="fill:none;stroke:#d62728;stroke-width:1.5;"/>
    <path clip-path="url(#pee66af7d83)" d="M 87.193259 245.603245 
L 87.193259 230.409052 
" style="fill:none;stroke:#d62728;stroke-width:1.5;"/>
    <path clip-path="url(#pee66af7d83)" d="M 90.677357 219.885467 
L 90.677357 201.87402 
" style="fill:none;stroke:#d62728;stroke-width:1.5;"/>
    <path clip-path="url(#pee66af7d83)" d="M 94.161455 186.465367 
L 94.161455 171.97229 
" style="fill:none;stroke:#d62728;stroke-width:1.5;"/>
    <path clip-path="url(#pee66af7d83)" d="M 97.645552 162.380533 
L 97.645552 147.854201 
" style="fill:none;stroke:#d62728;stroke-width:1.5;"/>
    <path clip-path="url(#pee66af7d83)" d="M 101.12965 165.315529 
L 101.12965 149.694127 
" style="fill:none;stroke:#d62728;stroke-width:1.5;"/>
    <path clip-path="url(#pee66af7d83)" d="M 104.613747 173.865646 
L 104.613747 159.237818 
" style="fill:none;stroke:#d62728;stroke-width:1.5;"/>
    <path clip-path="url(#pee66af7d83)" d="M 108.097845 187.472573 
L 108.097845 173.516305 
" style="fill:none;stroke:#d62728;stroke-width:1.5;"/>
    <path clip-path="url(#pee66af7d83)" d="M 111.581942 220.440879 
L 111.581942 207.789955 
" style="fill:none;stroke:#d62728;stroke-width:1.5;"/>
    <path clip-path="url(#pee66af7d83)" d="M 115.06604 243.671623 
L 115.06604 232.799582 
" style="fill:none;stroke:#d62728;stroke-width:1.5;"/>
    <path clip-path="url(#pee66af7d83)" d="M 118.550138 258.582992 
L 118.550138 250.09875 
" style="fill:none;stroke:#d62728;stroke-width:1.5;"/>
    <path clip-path="url(#pee66af7d83)" d="M 122.034235 266.2943 
L 122.034235 259.193287 
" style="fill:none;stroke:#d62728;stroke-width:1.5;"/>
    <path clip-path="url(#pee66af7d83)" d="M 125.518333 271.76865 
L 125.518333 266.274628 
" style="fill:none;stroke:#d62728;stroke-width:1.5;"/>
    <path clip-path="url(#pee66af7d83)" d="M 129.00243 270.75168 
L 129.00243 265.093977 
" style="fill:none;stroke:#d62728;stroke-width:1.5;"/>
    <path clip-path="url(#pee66af7d83)" d="M 132.486528 276.179639 
L 132.486528 270.271931 
" style="fill:none;stroke:#d62728;stroke-width:1.5;"/>
    <path clip-path="url(#pee66af7d83)" d="M 135.970625 271.729664 
L 135.970625 262.91729 
" style="fill:none;stroke:#d62728;stroke-width:1.5;"/>
    <path clip-path="url(#pee66af7d83)" d="M 139.454723 271.489815 
L 139.454723 263.3244 
" style="fill:none;stroke:#d62728;stroke-width:1.5;"/>
    <path clip-path="url(#pee66af7d83)" d="M 142.93882 260.020633 
L 142.93882 248.004223 
" style="fill:none;stroke:#d62728;stroke-width:1.5;"/>
    <path clip-path="url(#pee66af7d83)" d="M 146.422918 243.028365 
L 146.422918 227.873291 
" style="fill:none;stroke:#d62728;stroke-width:1.5;"/>
    <path clip-path="url(#pee66af7d83)" d="M 149.907016 226.936258 
L 149.907016 208.673878 
" style="fill:none;stroke:#d62728;stroke-width:1.5;"/>
    <path clip-path="url(#pee66af7d83)" d="M 153.391113 204.972108 
L 153.391113 185.24644 
" style="fill:none;stroke:#d62728;stroke-width:1.5;"/>
    <path clip-path="url(#pee66af7d83)" d="M 156.875211 193.529264 
L 156.875211 173.725356 
" style="fill:none;stroke:#d62728;stroke-width:1.5;"/>
    <path clip-path="url(#pee66af7d83)" d="M 160.359308 185.566621 
L 160.359308 164.71599 
" style="fill:none;stroke:#d62728;stroke-width:1.5;"/>
    <path clip-path="url(#pee66af7d83)" d="M 163.843406 177.091386 
L 163.843406 155.62211 
" style="fill:none;stroke:#d62728;stroke-width:1.5;"/>
    <path clip-path="url(#pee66af7d83)" d="M 167.327503 213.489501 
L 167.327503 194.196156 
" style="fill:none;stroke:#d62728;stroke-width:1.5;"/>
    <path clip-path="url(#pee66af7d83)" d="M 170.811601 229.95543 
L 170.811601 212.58366 
" style="fill:none;stroke:#d62728;stroke-width:1.5;"/>
    <path clip-path="url(#pee66af7d83)" d="M 174.295698 259.541213 
L 174.295698 247.241487 
" style="fill:none;stroke:#d62728;stroke-width:1.5;"/>
    <path clip-path="url(#pee66af7d83)" d="M 177.779796 266.219838 
L 177.779796 255.513818 
" style="fill:none;stroke:#d62728;stroke-width:1.5;"/>
    <path clip-path="url(#pee66af7d83)" d="M 181.263894 277.394754 
L 181.263894 272.61148 
" style="fill:none;stroke:#d62728;stroke-width:1.5;"/>
    <path clip-path="url(#pee66af7d83)" d="M 184.747991 274.608664 
L 184.747991 267.339113 
" style="fill:none;stroke:#d62728;stroke-width:1.5;"/>
    <path clip-path="url(#pee66af7d83)" d="M 188.232089 268.955409 
L 188.232089 259.840074 
" style="fill:none;stroke:#d62728;stroke-width:1.5;"/>
    <path clip-path="url(#pee66af7d83)" d="M 191.716186 274.025993 
L 191.716186 267.075247 
" style="fill:none;stroke:#d62728;stroke-width:1.5;"/>
    <path clip-path="url(#pee66af7d83)" d="M 195.200284 267.439305 
L 195.200284 257.709693 
" style="fill:none;stroke:#d62728;stroke-width:1.5;"/>
    <path clip-path="url(#pee66af7d83)" d="M 198.684381 268.836346 
L 198.684381 259.61731 
" style="fill:none;stroke:#d62728;stroke-width:1.5;"/>
    <path clip-path="url(#pee66af7d83)" d="M 202.168479 267.697723 
L 202.168479 257.491933 
" style="fill:none;stroke:#d62728;stroke-width:1.5;"/>
    <path clip-path="url(#pee66af7d83)" d="M 205.652577 256.294141 
L 205.652577 243.149402 
" style="fill:none;stroke:#d62728;stroke-width:1.5;"/>
    <path clip-path="url(#pee66af7d83)" d="M 209.136674 234.836858 
L 209.136674 217.776799 
" style="fill:none;stroke:#d62728;stroke-width:1.5;"/>
    <path clip-path="url(#pee66af7d83)" d="M 212.620772 209.42851 
L 212.620772 189.949454 
" style="fill:none;stroke:#d62728;stroke-width:1.5;"/>
    <path clip-path="url(#pee66af7d83)" d="M 216.104869 192.912643 
L 216.104869 172.63807 
" style="fill:none;stroke:#d62728;stroke-width:1.5;"/>
    <path clip-path="url(#pee66af7d83)" d="M 219.588967 185.823147 
L 219.588967 164.631149 
" style="fill:none;stroke:#d62728;stroke-width:1.5;"/>
    <path clip-path="url(#pee66af7d83)" d="M 223.073064 170.078908 
L 223.073064 149.842538 
" style="fill:none;stroke:#d62728;stroke-width:1.5;"/>
    <path clip-path="url(#pee66af7d83)" d="M 226.557162 189.740872 
L 226.557162 169.518117 
" style="fill:none;stroke:#d62728;stroke-width:1.5;"/>
    <path clip-path="url(#pee66af7d83)" d="M 230.041259 214.417766 
L 230.041259 195.579091 
" style="fill:none;stroke:#d62728;stroke-width:1.5;"/>
    <path clip-path="url(#pee66af7d83)" d="M 233.525357 245.142728 
L 233.525357 230.124587 
" style="fill:none;stroke:#d62728;stroke-width:1.5;"/>
    <path clip-path="url(#pee66af7d83)" d="M 237.009455 248.191802 
L 237.009455 232.449769 
" style="fill:none;stroke:#d62728;stroke-width:1.5;"/>
    <path clip-path="url(#pee66af7d83)" d="M 240.493552 263.263217 
L 240.493552 252.243505 
" style="fill:none;stroke:#d62728;stroke-width:1.5;"/>
    <path clip-path="url(#pee66af7d83)" d="M 243.97765 274.835286 
L 243.97765 267.931542 
" style="fill:none;stroke:#d62728;stroke-width:1.5;"/>
    <path clip-path="url(#pee66af7d83)" d="M 247.461747 271.679513 
L 247.461747 262.808429 
" style="fill:none;stroke:#d62728;stroke-width:1.5;"/>
    <path clip-path="url(#pee66af7d83)" d="M 250.945845 270.007709 
L 250.945845 260.293947 
" style="fill:none;stroke:#d62728;stroke-width:1.5;"/>
    <path clip-path="url(#pee66af7d83)" d="M 254.429942 272.107454 
L 254.429942 263.738202 
" style="fill:none;stroke:#d62728;stroke-width:1.5;"/>
    <path clip-path="url(#pee66af7d83)" d="M 257.91404 268.775751 
L 257.91404 259.503976 
" style="fill:none;stroke:#d62728;stroke-width:1.5;"/>
    <path clip-path="url(#pee66af7d83)" d="M 261.398137 271.779134 
L 261.398137 263.024697 
" style="fill:none;stroke:#d62728;stroke-width:1.5;"/>
    <path clip-path="url(#pee66af7d83)" d="M 264.882235 258.829466 
L 264.882235 246.607184 
" style="fill:none;stroke:#d62728;stroke-width:1.5;"/>
    <path clip-path="url(#pee66af7d83)" d="M 268.366333 239.354351 
L 268.366333 223.512106 
" style="fill:none;stroke:#d62728;stroke-width:1.5;"/>
    <path clip-path="url(#pee66af7d83)" d="M 271.85043 227.120409 
L 271.85043 209.487647 
" style="fill:none;stroke:#d62728;stroke-width:1.5;"/>
    <path clip-path="url(#pee66af7d83)" d="M 275.334528 227.289973 
L 275.334528 209.130835 
" style="fill:none;stroke:#d62728;stroke-width:1.5;"/>
    <path clip-path="url(#pee66af7d83)" d="M 278.818625 208.749817 
L 278.818625 190.767971 
" style="fill:none;stroke:#d62728;stroke-width:1.5;"/>
    <path clip-path="url(#pee66af7d83)" d="M 282.302723 199.864217 
L 282.302723 180.205243 
" style="fill:none;stroke:#d62728;stroke-width:1.5;"/>
    <path clip-path="url(#pee66af7d83)" d="M 285.78682 208.24939 
L 285.78682 188.749081 
" style="fill:none;stroke:#d62728;stroke-width:1.5;"/>
    <path clip-path="url(#pee66af7d83)" d="M 289.270918 226.785906 
L 289.270918 209.058542 
" style="fill:none;stroke:#d62728;stroke-width:1.5;"/>
    <path clip-path="url(#pee66af7d83)" d="M 292.755016 249.460262 
L 292.755016 234.736775 
" style="fill:none;stroke:#d62728;stroke-width:1.5;"/>
    <path clip-path="url(#pee66af7d83)" d="M 296.239113 268.461617 
L 296.239113 258.916839 
" style="fill:none;stroke:#d62728;stroke-width:1.5;"/>
    <path clip-path="url(#pee66af7d83)" d="M 299.723211 266.814547 
L 299.723211 255.849571 
" style="fill:none;stroke:#d62728;stroke-width:1.5;"/>
    <path clip-path="url(#pee66af7d83)" d="M 303.207308 270.918918 
L 303.207308 262.154738 
" style="fill:none;stroke:#d62728;stroke-width:1.5;"/>
    <path clip-path="url(#pee66af7d83)" d="M 306.691406 274.965445 
L 306.691406 268.272211 
" style="fill:none;stroke:#d62728;stroke-width:1.5;"/>
    <path clip-path="url(#pee66af7d83)" d="M 310.175503 263.263217 
L 310.175503 252.243505 
" style="fill:none;stroke:#d62728;stroke-width:1.5;"/>
    <path clip-path="url(#pee66af7d83)" d="M 313.659601 269.472439 
L 313.659601 260.096991 
" style="fill:none;stroke:#d62728;stroke-width:1.5;"/>
    <path clip-path="url(#pee66af7d83)" d="M 317.143698 270.867406 
L 317.143698 262.049345 
" style="fill:none;stroke:#d62728;stroke-width:1.5;"/>
    <path clip-path="url(#pee66af7d83)" d="M 320.627796 256.653142 
L 320.627796 243.211587 
" style="fill:none;stroke:#d62728;stroke-width:1.5;"/>
    <path clip-path="url(#pee66af7d83)" d="M 324.111894 259.535055 
L 324.111894 246.692991 
" style="fill:none;stroke:#d62728;stroke-width:1.5;"/>
    <path clip-path="url(#pee66af7d83)" d="M 327.595991 252.426951 
L 327.595991 238.658558 
" style="fill:none;stroke:#d62728;stroke-width:1.5;"/>
    <path clip-path="url(#pee66af7d83)" d="M 331.080089 250.465683 
L 331.080089 235.775762 
" style="fill:none;stroke:#d62728;stroke-width:1.5;"/>
    <path clip-path="url(#pee66af7d83)" d="M 334.564186 244.962293 
L 334.564186 229.117994 
" style="fill:none;stroke:#d62728;stroke-width:1.5;"/>
    <path clip-path="url(#pee66af7d83)" d="M 338.048284 244.930772 
L 338.048284 229.828847 
" style="fill:none;stroke:#d62728;stroke-width:1.5;"/>
    <path clip-path="url(#pee66af7d83)" d="M 341.532381 248.455338 
L 341.532381 233.280878 
" style="fill:none;stroke:#d62728;stroke-width:1.5;"/>
    <path clip-path="url(#pee66af7d83)" d="M 345.016479 247.680152 
L 345.016479 232.581505 
" style="fill:none;stroke:#d62728;stroke-width:1.5;"/>
    <path clip-path="url(#pee66af7d83)" d="M 348.500577 256.653142 
L 348.500577 243.211587 
" style="fill:none;stroke:#d62728;stroke-width:1.5;"/>
    <path clip-path="url(#pee66af7d83)" d="M 351.984674 252.585431 
L 351.984674 237.996883 
" style="fill:none;stroke:#d62728;stroke-width:1.5;"/>
    <path clip-path="url(#pee66af7d83)" d="M 355.468772 271.400326 
L 355.468772 263.14086 
" style="fill:none;stroke:#d62728;stroke-width:1.5;"/>
    <path clip-path="url(#pee66af7d83)" d="M 358.952869 266.049088 
L 358.952869 255.207094 
" style="fill:none;stroke:#d62728;stroke-width:1.5;"/>
    <path clip-path="url(#pee66af7d83)" d="M 362.436967 266.390643 
L 362.436967 256.455289 
" style="fill:none;stroke:#d62728;stroke-width:1.5;"/>
    <path clip-path="url(#pee66af7d83)" d="M 365.921064 274.167374 
L 365.921064 267.409158 
" style="fill:none;stroke:#d62728;stroke-width:1.5;"/>
    <path clip-path="url(#pee66af7d83)" d="M 369.405162 277.132377 
L 369.405162 271.584664 
" style="fill:none;stroke:#d62728;stroke-width:1.5;"/>
    <path clip-path="url(#pee66af7d83)" d="M 372.889259 260.217165 
L 372.889259 247.20573 
" style="fill:none;stroke:#d62728;stroke-width:1.5;"/>
    <path clip-path="url(#pee66af7d83)" d="M 376.373357 263.45003 
L 376.373357 252.553942 
" style="fill:none;stroke:#d62728;stroke-width:1.5;"/>
    <path clip-path="url(#pee66af7d83)" d="M 379.857455 263.725765 
L 379.857455 252.454382 
" style="fill:none;stroke:#d62728;stroke-width:1.5;"/>
    <path clip-path="url(#pee66af7d83)" d="M 383.341552 261.770767 
L 383.341552 250.314889 
" style="fill:none;stroke:#d62728;stroke-width:1.5;"/>
    <path clip-path="url(#pee66af7d83)" d="M 386.82565 256.802826 
L 386.82565 243.444515 
" style="fill:none;stroke:#d62728;stroke-width:1.5;"/>
    <path clip-path="url(#pee66af7d83)" d="M 390.309747 255.823234 
L 390.309747 242.884302 
" style="fill:none;stroke:#d62728;stroke-width:1.5;"/>
    <path clip-path="url(#pee66af7d83)" d="M 393.793845 243.369343 
L 393.793845 227.65416 
" style="fill:none;stroke:#d62728;stroke-width:1.5;"/>
    <path clip-path="url(#pee66af7d83)" d="M 397.277942 244.03208 
L 397.277942 228.203471 
" style="fill:none;stroke:#d62728;stroke-width:1.5;"/>
    <path clip-path="url(#pee66af7d83)" d="M 400.76204 255.999694 
L 400.76204 242.697631 
" style="fill:none;stroke:#d62728;stroke-width:1.5;"/>
    <path clip-path="url(#pee66af7d83)" d="M 404.246138 263.427351 
L 404.246138 251.948151 
" style="fill:none;stroke:#d62728;stroke-width:1.5;"/>
    <path clip-path="url(#pee66af7d83)" d="M 407.730235 260.42314 
L 407.730235 248.128978 
" style="fill:none;stroke:#d62728;stroke-width:1.5;"/>
    <path clip-path="url(#pee66af7d83)" d="M 411.214333 268.196075 
L 411.214333 258.42106 
" style="fill:none;stroke:#d62728;stroke-width:1.5;"/>
    <path clip-path="url(#pee66af7d83)" d="M 414.69843 266.049088 
L 414.69843 255.207094 
" style="fill:none;stroke:#d62728;stroke-width:1.5;"/>
    <path clip-path="url(#pee66af7d83)" d="M 418.182528 272.324289 
L 418.182528 264.210063 
" style="fill:none;stroke:#d62728;stroke-width:1.5;"/>
    <path clip-path="url(#pee66af7d83)" d="M 421.666625 271.020011 
L 421.666625 262.361645 
" style="fill:none;stroke:#d62728;stroke-width:1.5;"/>
    <path clip-path="url(#pee66af7d83)" d="M 425.150723 272.9001 
L 425.150723 265.465557 
" style="fill:none;stroke:#d62728;stroke-width:1.5;"/>
    <path clip-path="url(#pee66af7d83)" d="M 428.63482 276.231899 
L 428.63482 270.431318 
" style="fill:none;stroke:#d62728;stroke-width:1.5;"/>
    <path clip-path="url(#pee66af7d83)" d="M 432.118918 268.058226 
L 432.118918 258.163883 
" style="fill:none;stroke:#d62728;stroke-width:1.5;"/>
    <path clip-path="url(#pee66af7d83)" d="M 435.603016 251.700354 
L 435.603016 238.71447 
" style="fill:none;stroke:#d62728;stroke-width:1.5;"/>
    <path clip-path="url(#pee66af7d83)" d="M 439.087113 257.660453 
L 439.087113 244.780848 
" style="fill:none;stroke:#d62728;stroke-width:1.5;"/>
    <path clip-path="url(#pee66af7d83)" d="M 442.571211 261.665975 
L 442.571211 250.144615 
" style="fill:none;stroke:#d62728;stroke-width:1.5;"/>
    <path clip-path="url(#pee66af7d83)" d="M 446.055308 249.987103 
L 446.055308 235.895758 
" style="fill:none;stroke:#d62728;stroke-width:1.5;"/>
    <path clip-path="url(#pee66af7d83)" d="M 449.539406 250.582192 
L 449.539406 236.366073 
" style="fill:none;stroke:#d62728;stroke-width:1.5;"/>
    <path clip-path="url(#pee66af7d83)" d="M 453.023503 246.21473 
L 453.023503 232.262579 
" style="fill:none;stroke:#d62728;stroke-width:1.5;"/>
    <path clip-path="url(#pee66af7d83)" d="M 456.507601 252.239472 
L 456.507601 237.949713 
" style="fill:none;stroke:#d62728;stroke-width:1.5;"/>
    <path clip-path="url(#pee66af7d83)" d="M 459.991698 266.860095 
L 459.991698 256.665561 
" style="fill:none;stroke:#d62728;stroke-width:1.5;"/>
    <path clip-path="url(#pee66af7d83)" d="M 463.475796 269.411294 
L 463.475796 259.978059 
" style="fill:none;stroke:#d62728;stroke-width:1.5;"/>
    <path clip-path="url(#pee66af7d83)" d="M 466.959894 269.349359 
L 466.959894 259.857622 
" style="fill:none;stroke:#d62728;stroke-width:1.5;"/>
    <path clip-path="url(#pee66af7d83)" d="M 470.443991 268.896228 
L 470.443991 259.729335 
" style="fill:none;stroke:#d62728;stroke-width:1.5;"/>
    <path clip-path="url(#pee66af7d83)" d="M 473.928089 274.667595 
L 473.928089 267.493081 
" style="fill:none;stroke:#d62728;stroke-width:1.5;"/>
    <path clip-path="url(#pee66af7d83)" d="M 477.412186 277.344146 
L 477.412186 272.413162 
" style="fill:none;stroke:#d62728;stroke-width:1.5;"/>
   </g>
   <g id="LineCollection_2">
    <path clip-path="url(#pee66af7d83)" d="M 82.315523 276.672397 
L 82.315523 273.779334 
" style="fill:none;stroke:#1f77b4;stroke-width:1.5;"/>
    <path clip-path="url(#pee66af7d83)" d="M 85.79962 271.723456 
L 85.79962 267.2902 
" style="fill:none;stroke:#1f77b4;stroke-width:1.5;"/>
    <path clip-path="url(#pee66af7d83)" d="M 89.283718 253.779319 
L 89.283718 246.066337 
" style="fill:none;stroke:#1f77b4;stroke-width:1.5;"/>
    <path clip-path="url(#pee66af7d83)" d="M 92.767816 189.77084 
L 92.767816 177.838073 
" style="fill:none;stroke:#1f77b4;stroke-width:1.5;"/>
    <path clip-path="url(#pee66af7d83)" d="M 96.251913 90.767754 
L 96.251913 79.706514 
" style="fill:none;stroke:#1f77b4;stroke-width:1.5;"/>
    <path clip-path="url(#pee66af7d83)" d="M 99.736011 46.988493 
L 99.736011 39.158537 
" style="fill:none;stroke:#1f77b4;stroke-width:1.5;"/>
    <path clip-path="url(#pee66af7d83)" d="M 103.220108 86.266979 
L 103.220108 75.818806 
" style="fill:none;stroke:#1f77b4;stroke-width:1.5;"/>
    <path clip-path="url(#pee66af7d83)" d="M 106.704206 168.188578 
L 106.704206 155.81792 
" style="fill:none;stroke:#1f77b4;stroke-width:1.5;"/>
    <path clip-path="url(#pee66af7d83)" d="M 110.188303 235.465855 
L 110.188303 225.841088 
" style="fill:none;stroke:#1f77b4;stroke-width:1.5;"/>
    <path clip-path="url(#pee66af7d83)" d="M 113.672401 263.588757 
L 113.672401 257.442227 
" style="fill:none;stroke:#1f77b4;stroke-width:1.5;"/>
    <path clip-path="url(#pee66af7d83)" d="M 117.156498 275.273946 
L 117.156498 271.80371 
" style="fill:none;stroke:#1f77b4;stroke-width:1.5;"/>
    <path clip-path="url(#pee66af7d83)" d="M 120.640596 277.097584 
L 120.640596 274.390072 
" style="fill:none;stroke:#1f77b4;stroke-width:1.5;"/>
   </g>
   <g id="LineCollection_3">
    <path clip-path="url(#pee66af7d83)" d="M 138.061084 278.792624 
L 138.061084 277.519533 
" style="fill:none;stroke:#1f77b4;stroke-width:1.5;"/>
    <path clip-path="url(#pee66af7d83)" d="M 141.545181 272.984096 
L 141.545181 268.824854 
" style="fill:none;stroke:#1f77b4;stroke-width:1.5;"/>
    <path clip-path="url(#pee66af7d83)" d="M 145.029279 254.640789 
L 145.029279 247.087944 
" style="fill:none;stroke:#1f77b4;stroke-width:1.5;"/>
    <path clip-path="url(#pee66af7d83)" d="M 148.513377 227.352097 
L 148.513377 217.272797 
" style="fill:none;stroke:#1f77b4;stroke-width:1.5;"/>
    <path clip-path="url(#pee66af7d83)" d="M 151.997474 196.041811 
L 151.997474 184.38026 
" style="fill:none;stroke:#1f77b4;stroke-width:1.5;"/>
    <path clip-path="url(#pee66af7d83)" d="M 155.481572 172.588317 
L 155.481572 160.261647 
" style="fill:none;stroke:#1f77b4;stroke-width:1.5;"/>
    <path clip-path="url(#pee66af7d83)" d="M 158.965669 144.854985 
L 158.965669 132.788873 
" style="fill:none;stroke:#1f77b4;stroke-width:1.5;"/>
    <path clip-path="url(#pee66af7d83)" d="M 162.449767 148.437749 
L 162.449767 136.468959 
" style="fill:none;stroke:#1f77b4;stroke-width:1.5;"/>
    <path clip-path="url(#pee66af7d83)" d="M 165.933864 149.275035 
L 165.933864 136.460329 
" style="fill:none;stroke:#1f77b4;stroke-width:1.5;"/>
    <path clip-path="url(#pee66af7d83)" d="M 169.417962 180.760323 
L 169.417962 168.511253 
" style="fill:none;stroke:#1f77b4;stroke-width:1.5;"/>
    <path clip-path="url(#pee66af7d83)" d="M 172.902059 230.950655 
L 172.902059 220.977891 
" style="fill:none;stroke:#1f77b4;stroke-width:1.5;"/>
    <path clip-path="url(#pee66af7d83)" d="M 176.386157 262.409131 
L 176.386157 255.814526 
" style="fill:none;stroke:#1f77b4;stroke-width:1.5;"/>
    <path clip-path="url(#pee66af7d83)" d="M 179.870255 276.254309 
L 179.870255 273.20151 
" style="fill:none;stroke:#1f77b4;stroke-width:1.5;"/>
    <path clip-path="url(#pee66af7d83)" d="M 183.354352 278.008335 
L 183.354352 275.892118 
" style="fill:none;stroke:#1f77b4;stroke-width:1.5;"/>
   </g>
   <g id="LineCollection_4">
    <path clip-path="url(#pee66af7d83)" d="M 200.77484 278.426822 
L 200.77484 276.683325 
" style="fill:none;stroke:#1f77b4;stroke-width:1.5;"/>
    <path clip-path="url(#pee66af7d83)" d="M 204.258937 276.677523 
L 204.258937 273.790736 
" style="fill:none;stroke:#1f77b4;stroke-width:1.5;"/>
    <path clip-path="url(#pee66af7d83)" d="M 207.743035 276.672397 
L 207.743035 273.779334 
" style="fill:none;stroke:#1f77b4;stroke-width:1.5;"/>
    <path clip-path="url(#pee66af7d83)" d="M 211.227133 275.139261 
L 211.227133 271.545785 
" style="fill:none;stroke:#1f77b4;stroke-width:1.5;"/>
    <path clip-path="url(#pee66af7d83)" d="M 214.71123 277.17571 
L 214.71123 274.577784 
" style="fill:none;stroke:#1f77b4;stroke-width:1.5;"/>
    <path clip-path="url(#pee66af7d83)" d="M 218.195328 274.584911 
L 218.195328 270.99655 
" style="fill:none;stroke:#1f77b4;stroke-width:1.5;"/>
    <path clip-path="url(#pee66af7d83)" d="M 221.679425 274.025018 
L 221.679425 269.990744 
" style="fill:none;stroke:#1f77b4;stroke-width:1.5;"/>
    <path clip-path="url(#pee66af7d83)" d="M 225.163523 275.599555 
L 225.163523 272.163816 
" style="fill:none;stroke:#1f77b4;stroke-width:1.5;"/>
    <path clip-path="url(#pee66af7d83)" d="M 228.64762 277.54408 
L 228.64762 275.083414 
" style="fill:none;stroke:#1f77b4;stroke-width:1.5;"/>
    <path clip-path="url(#pee66af7d83)" d="M 232.131718 277.969024 
L 232.131718 275.77037 
" style="fill:none;stroke:#1f77b4;stroke-width:1.5;"/>
    <path clip-path="url(#pee66af7d83)" d="M 235.615816 278.782836 
L 235.615816 277.452834 
" style="fill:none;stroke:#1f77b4;stroke-width:1.5;"/>
   </g>
   <g id="LineCollection_5">
    <path clip-path="url(#pee66af7d83)" d="M 263.488596 278.080601 
L 263.488596 276.116037 
" style="fill:none;stroke:#1f77b4;stroke-width:1.5;"/>
    <path clip-path="url(#pee66af7d83)" d="M 266.972694 278.794482 
L 266.972694 277.532193 
" style="fill:none;stroke:#1f77b4;stroke-width:1.5;"/>
    <path clip-path="url(#pee66af7d83)" d="M 270.456791 277.122965 
L 270.456791 274.451044 
" style="fill:none;stroke:#1f77b4;stroke-width:1.5;"/>
    <path clip-path="url(#pee66af7d83)" d="M 273.940889 276.295268 
L 273.940889 273.287319 
" style="fill:none;stroke:#1f77b4;stroke-width:1.5;"/>
    <path clip-path="url(#pee66af7d83)" d="M 277.424986 276.357228 
L 277.424986 273.417155 
" style="fill:none;stroke:#1f77b4;stroke-width:1.5;"/>
    <path clip-path="url(#pee66af7d83)" d="M 280.909084 276.646425 
L 280.909084 273.721567 
" style="fill:none;stroke:#1f77b4;stroke-width:1.5;"/>
    <path clip-path="url(#pee66af7d83)" d="M 284.393181 275.877874 
L 284.393181 272.718983 
" style="fill:none;stroke:#1f77b4;stroke-width:1.5;"/>
    <path clip-path="url(#pee66af7d83)" d="M 287.877279 278.413718 
L 287.877279 276.631294 
" style="fill:none;stroke:#1f77b4;stroke-width:1.5;"/>
    <path clip-path="url(#pee66af7d83)" d="M 291.361377 278.052982 
L 291.361377 276.030442 
" style="fill:none;stroke:#1f77b4;stroke-width:1.5;"/>
    <path clip-path="url(#pee66af7d83)" d="M 294.845474 278.436898 
L 294.845474 276.723339 
" style="fill:none;stroke:#1f77b4;stroke-width:1.5;"/>
    <path clip-path="url(#pee66af7d83)" d="M 298.329572 278.450199 
L 298.329572 276.776164 
" style="fill:none;stroke:#1f77b4;stroke-width:1.5;"/>
   </g>
   <g id="LineCollection_6">
    <path clip-path="url(#pee66af7d83)" d="M 319.234157 278.785364 
L 319.234157 277.470062 
" style="fill:none;stroke:#1f77b4;stroke-width:1.5;"/>
    <path clip-path="url(#pee66af7d83)" d="M 322.718255 278.034344 
L 322.718255 275.972691 
" style="fill:none;stroke:#1f77b4;stroke-width:1.5;"/>
    <path clip-path="url(#pee66af7d83)" d="M 326.202352 278.792155 
L 326.202352 277.516334 
" style="fill:none;stroke:#1f77b4;stroke-width:1.5;"/>
    <path clip-path="url(#pee66af7d83)" d="M 329.68645 278.006105 
L 329.68645 275.88521 
" style="fill:none;stroke:#1f77b4;stroke-width:1.5;"/>
    <path clip-path="url(#pee66af7d83)" d="M 333.170547 276.770817 
L 333.170547 273.998311 
" style="fill:none;stroke:#1f77b4;stroke-width:1.5;"/>
    <path clip-path="url(#pee66af7d83)" d="M 336.654645 276.712785 
L 336.654645 273.869181 
" style="fill:none;stroke:#1f77b4;stroke-width:1.5;"/>
    <path clip-path="url(#pee66af7d83)" d="M 340.138742 276.73246 
L 340.138742 273.912958 
" style="fill:none;stroke:#1f77b4;stroke-width:1.5;"/>
    <path clip-path="url(#pee66af7d83)" d="M 343.62284 277.11458 
L 343.62284 274.4309 
" style="fill:none;stroke:#1f77b4;stroke-width:1.5;"/>
    <path clip-path="url(#pee66af7d83)" d="M 347.106938 277.163801 
L 347.106938 274.549165 
" style="fill:none;stroke:#1f77b4;stroke-width:1.5;"/>
    <path clip-path="url(#pee66af7d83)" d="M 350.591035 279.010828 
L 350.591035 278.427249 
" style="fill:none;stroke:#1f77b4;stroke-width:1.5;"/>
    <path clip-path="url(#pee66af7d83)" d="M 354.075133 278.79121 
L 354.075133 277.509895 
" style="fill:none;stroke:#1f77b4;stroke-width:1.5;"/>
    <path clip-path="url(#pee66af7d83)" d="M 357.55923 279.010828 
L 357.55923 278.423384 
" style="fill:none;stroke:#1f77b4;stroke-width:1.5;"/>
    <path clip-path="url(#pee66af7d83)" d="M 361.043328 278.439363 
L 361.043328 276.733128 
" style="fill:none;stroke:#1f77b4;stroke-width:1.5;"/>
   </g>
   <g id="LineCollection_7">
    <path clip-path="url(#pee66af7d83)" d="M 374.979718 278.019339 
L 374.979718 275.926204 
" style="fill:none;stroke:#1f77b4;stroke-width:1.5;"/>
    <path clip-path="url(#pee66af7d83)" d="M 378.463816 278.447826 
L 378.463816 276.766741 
" style="fill:none;stroke:#1f77b4;stroke-width:1.5;"/>
    <path clip-path="url(#pee66af7d83)" d="M 381.947913 276.682626 
L 381.947913 273.802089 
" style="fill:none;stroke:#1f77b4;stroke-width:1.5;"/>
    <path clip-path="url(#pee66af7d83)" d="M 385.432011 278.776529 
L 385.432011 277.409872 
" style="fill:none;stroke:#1f77b4;stroke-width:1.5;"/>
    <path clip-path="url(#pee66af7d83)" d="M 388.916108 278.425537 
L 388.916108 276.678224 
" style="fill:none;stroke:#1f77b4;stroke-width:1.5;"/>
    <path clip-path="url(#pee66af7d83)" d="M 392.400206 277.118781 
L 392.400206 274.440994 
" style="fill:none;stroke:#1f77b4;stroke-width:1.5;"/>
    <path clip-path="url(#pee66af7d83)" d="M 395.884303 276.230345 
L 395.884303 273.151312 
" style="fill:none;stroke:#1f77b4;stroke-width:1.5;"/>
    <path clip-path="url(#pee66af7d83)" d="M 399.368401 278.034344 
L 399.368401 275.972691 
" style="fill:none;stroke:#1f77b4;stroke-width:1.5;"/>
    <path clip-path="url(#pee66af7d83)" d="M 402.852498 278.780771 
L 402.852498 277.438772 
" style="fill:none;stroke:#1f77b4;stroke-width:1.5;"/>
    <path clip-path="url(#pee66af7d83)" d="M 406.336596 278.425537 
L 406.336596 276.678224 
" style="fill:none;stroke:#1f77b4;stroke-width:1.5;"/>
    <path clip-path="url(#pee66af7d83)" d="M 409.820694 278.052982 
L 409.820694 276.030442 
" style="fill:none;stroke:#1f77b4;stroke-width:1.5;"/>
    <path clip-path="url(#pee66af7d83)" d="M 413.304791 278.788811 
L 413.304791 277.493551 
" style="fill:none;stroke:#1f77b4;stroke-width:1.5;"/>
    <path clip-path="url(#pee66af7d83)" d="M 416.788889 278.790734 
L 416.788889 277.506654 
" style="fill:none;stroke:#1f77b4;stroke-width:1.5;"/>
   </g>
   <g id="LineCollection_8">
    <path clip-path="url(#pee66af7d83)" d="M 430.725279 276.812453 
L 430.725279 274.090981 
" style="fill:none;stroke:#1f77b4;stroke-width:1.5;"/>
    <path clip-path="url(#pee66af7d83)" d="M 434.209377 278.785863 
L 434.209377 277.473462 
" style="fill:none;stroke:#1f77b4;stroke-width:1.5;"/>
    <path clip-path="url(#pee66af7d83)" d="M 437.693474 278.79987 
L 437.693474 277.568917 
" style="fill:none;stroke:#1f77b4;stroke-width:1.5;"/>
    <path clip-path="url(#pee66af7d83)" d="M 441.177572 276.869933 
L 441.177572 274.218946 
" style="fill:none;stroke:#1f77b4;stroke-width:1.5;"/>
    <path clip-path="url(#pee66af7d83)" d="M 444.661669 278.42165 
L 444.661669 276.662788 
" style="fill:none;stroke:#1f77b4;stroke-width:1.5;"/>
    <path clip-path="url(#pee66af7d83)" d="M 448.145767 275.871306 
L 448.145767 272.705875 
" style="fill:none;stroke:#1f77b4;stroke-width:1.5;"/>
    <path clip-path="url(#pee66af7d83)" d="M 451.629864 277.566926 
L 451.629864 275.144291 
" style="fill:none;stroke:#1f77b4;stroke-width:1.5;"/>
    <path clip-path="url(#pee66af7d83)" d="M 455.113962 278.038548 
L 455.113962 275.985717 
" style="fill:none;stroke:#1f77b4;stroke-width:1.5;"/>
    <path clip-path="url(#pee66af7d83)" d="M 458.598059 276.236375 
L 458.598059 273.163942 
" style="fill:none;stroke:#1f77b4;stroke-width:1.5;"/>
    <path clip-path="url(#pee66af7d83)" d="M 462.082157 276.13017 
L 462.082157 272.941531 
" style="fill:none;stroke:#1f77b4;stroke-width:1.5;"/>
    <path clip-path="url(#pee66af7d83)" d="M 465.566255 278.068962 
L 465.566255 276.079963 
" style="fill:none;stroke:#1f77b4;stroke-width:1.5;"/>
    <path clip-path="url(#pee66af7d83)" d="M 469.050352 276.722665 
L 469.050352 273.891163 
" style="fill:none;stroke:#1f77b4;stroke-width:1.5;"/>
    <path clip-path="url(#pee66af7d83)" d="M 472.53445 278.439363 
L 472.53445 276.733128 
" style="fill:none;stroke:#1f77b4;stroke-width:1.5;"/>
    <path clip-path="url(#pee66af7d83)" d="M 476.018547 278.44423 
L 476.018547 276.752458 
" style="fill:none;stroke:#1f77b4;stroke-width:1.5;"/>
    <path clip-path="url(#pee66af7d83)" d="M 479.502645 278.795855 
L 479.502645 277.541548 
" style="fill:none;stroke:#1f77b4;stroke-width:1.5;"/>
   </g>
   <g id="line2d_25">
    <path clip-path="url(#pee66af7d83)" d="M 73.256869 267.555676 
L 76.740967 269.238354 
L 80.225064 265.196271 
L 83.709162 248.241628 
L 87.193259 238.006149 
L 90.677357 210.879744 
L 94.161455 179.218828 
L 97.645552 155.117367 
L 101.12965 157.504828 
L 104.613747 166.551732 
L 108.097845 180.494439 
L 111.581942 214.115417 
L 115.06604 238.235602 
L 118.550138 254.340871 
L 122.034235 262.743794 
L 125.518333 269.021639 
L 129.00243 267.922828 
L 132.486528 273.225785 
L 135.970625 267.323477 
L 139.454723 267.407107 
L 142.93882 254.012428 
L 146.422918 235.450828 
L 149.907016 217.805068 
L 153.391113 195.109274 
L 156.875211 183.62731 
L 160.359308 175.141306 
L 163.843406 166.356748 
L 167.327503 203.842828 
L 170.811601 221.269545 
L 174.295698 253.39135 
L 177.779796 260.866828 
L 181.263894 275.003117 
L 184.747991 270.973889 
L 188.232089 264.397741 
L 191.716186 270.55062 
L 195.200284 262.574499 
L 198.684381 264.226828 
L 202.168479 262.594828 
L 205.652577 249.721772 
L 209.136674 226.306828 
L 212.620772 199.688982 
L 216.104869 182.775356 
L 219.588967 175.227148 
L 223.073064 159.960723 
L 226.557162 179.629495 
L 230.041259 204.998428 
L 233.525357 237.633657 
L 237.009455 240.320786 
L 240.493552 257.753361 
L 243.97765 271.383414 
L 247.461747 267.243971 
L 250.945845 265.150828 
L 254.429942 267.922828 
L 257.91404 264.139863 
L 261.398137 267.401915 
L 264.882235 252.718325 
L 268.366333 231.433228 
L 271.85043 218.304028 
L 275.334528 218.210404 
L 278.818625 199.758894 
L 282.302723 190.03473 
L 285.78682 198.499236 
L 289.270918 217.922224 
L 292.755016 242.098518 
L 296.239113 263.689228 
L 299.723211 261.332059 
L 303.207308 266.536828 
L 306.691406 271.618828 
L 310.175503 257.753361 
L 313.659601 264.784715 
L 317.143698 266.458375 
L 320.627796 249.932365 
L 324.111894 253.114023 
L 327.595991 245.542755 
L 331.080089 243.120723 
L 334.564186 237.040144 
L 338.048284 237.37981 
L 341.532381 240.868108 
L 345.016479 240.130828 
L 348.500577 249.932365 
L 351.984674 245.291157 
L 355.468772 267.270593 
L 358.952869 260.628091 
L 362.436967 261.422966 
L 365.921064 270.788266 
L 369.405162 274.35852 
L 372.889259 253.711448 
L 376.373357 258.001986 
L 379.857455 258.090073 
L 383.341552 256.042828 
L 386.82565 250.12367 
L 390.309747 249.353768 
L 393.793845 235.511751 
L 397.277942 236.117775 
L 400.76204 249.348663 
L 404.246138 257.687751 
L 407.730235 254.276059 
L 411.214333 263.308567 
L 414.69843 260.628091 
L 418.182528 268.267176 
L 421.666625 266.690828 
L 425.150723 269.182828 
L 428.63482 273.331609 
L 432.118918 263.111055 
L 435.603016 245.207412 
L 439.087113 251.220651 
L 442.571211 255.905295 
L 446.055308 242.941431 
L 449.539406 243.474132 
L 453.023503 239.238654 
L 456.507601 245.094593 
L 459.991698 261.762828 
L 463.475796 264.694676 
L 466.959894 264.603491 
L 470.443991 264.312782 
L 473.928089 271.080338 
L 477.412186 274.878654 
" style="fill:none;stroke:#d62728;stroke-linecap:square;stroke-width:1.5;"/>
    <defs>
     <path d="M 0 3 
C 0.795609 3 1.55874 2.683901 2.12132 2.12132 
C 2.683901 1.55874 3 0.795609 3 0 
C 3 -0.795609 2.683901 -1.55874 2.12132 -2.12132 
C 1.55874 -2.683901 0.795609 -3 0 -3 
C -0.795609 -3 -1.55874 -2.683901 -2.12132 -2.12132 
C -2.683901 -1.55874 -3 -0.795609 -3 0 
C -3 0.795609 -2.683901 1.55874 -2.12132 2.12132 
C -1.55874 2.683901 -0.795609 3 0 3 
z
" id="m4d17eb6f4c" style="stroke:#d62728;"/>
    </defs>
    <g clip-path="url(#pee66af7d83)">
     <use style="fill:#d62728;stroke:#d62728;" x="73.256869" xlink:href="#m4d17eb6f4c" y="267.555676"/>
     <use style="fill:#d62728;stroke:#d62728;" x="76.740967" xlink:href="#m4d17eb6f4c" y="269.238354"/>
     <use style="fill:#d62728;stroke:#d62728;" x="80.225064" xlink:href="#m4d17eb6f4c" y="265.196271"/>
     <use style="fill:#d62728;stroke:#d62728;" x="83.709162" xlink:href="#m4d17eb6f4c" y="248.241628"/>
     <use style="fill:#d62728;stroke:#d62728;" x="87.193259" xlink:href="#m4d17eb6f4c" y="238.006149"/>
     <use style="fill:#d62728;stroke:#d62728;" x="90.677357" xlink:href="#m4d17eb6f4c" y="210.879744"/>
     <use style="fill:#d62728;stroke:#d62728;" x="94.161455" xlink:href="#m4d17eb6f4c" y="179.218828"/>
     <use style="fill:#d62728;stroke:#d62728;" x="97.645552" xlink:href="#m4d17eb6f4c" y="155.117367"/>
     <use style="fill:#d62728;stroke:#d62728;" x="101.12965" xlink:href="#m4d17eb6f4c" y="157.504828"/>
     <use style="fill:#d62728;stroke:#d62728;" x="104.613747" xlink:href="#m4d17eb6f4c" y="166.551732"/>
     <use style="fill:#d62728;stroke:#d62728;" x="108.097845" xlink:href="#m4d17eb6f4c" y="180.494439"/>
     <use style="fill:#d62728;stroke:#d62728;" x="111.581942" xlink:href="#m4d17eb6f4c" y="214.115417"/>
     <use style="fill:#d62728;stroke:#d62728;" x="115.06604" xlink:href="#m4d17eb6f4c" y="238.235602"/>
     <use style="fill:#d62728;stroke:#d62728;" x="118.550138" xlink:href="#m4d17eb6f4c" y="254.340871"/>
     <use style="fill:#d62728;stroke:#d62728;" x="122.034235" xlink:href="#m4d17eb6f4c" y="262.743794"/>
     <use style="fill:#d62728;stroke:#d62728;" x="125.518333" xlink:href="#m4d17eb6f4c" y="269.021639"/>
     <use style="fill:#d62728;stroke:#d62728;" x="129.00243" xlink:href="#m4d17eb6f4c" y="267.922828"/>
     <use style="fill:#d62728;stroke:#d62728;" x="132.486528" xlink:href="#m4d17eb6f4c" y="273.225785"/>
     <use style="fill:#d62728;stroke:#d62728;" x="135.970625" xlink:href="#m4d17eb6f4c" y="267.323477"/>
     <use style="fill:#d62728;stroke:#d62728;" x="139.454723" xlink:href="#m4d17eb6f4c" y="267.407107"/>
     <use style="fill:#d62728;stroke:#d62728;" x="142.93882" xlink:href="#m4d17eb6f4c" y="254.012428"/>
     <use style="fill:#d62728;stroke:#d62728;" x="146.422918" xlink:href="#m4d17eb6f4c" y="235.450828"/>
     <use style="fill:#d62728;stroke:#d62728;" x="149.907016" xlink:href="#m4d17eb6f4c" y="217.805068"/>
     <use style="fill:#d62728;stroke:#d62728;" x="153.391113" xlink:href="#m4d17eb6f4c" y="195.109274"/>
     <use style="fill:#d62728;stroke:#d62728;" x="156.875211" xlink:href="#m4d17eb6f4c" y="183.62731"/>
     <use style="fill:#d62728;stroke:#d62728;" x="160.359308" xlink:href="#m4d17eb6f4c" y="175.141306"/>
     <use style="fill:#d62728;stroke:#d62728;" x="163.843406" xlink:href="#m4d17eb6f4c" y="166.356748"/>
     <use style="fill:#d62728;stroke:#d62728;" x="167.327503" xlink:href="#m4d17eb6f4c" y="203.842828"/>
     <use style="fill:#d62728;stroke:#d62728;" x="170.811601" xlink:href="#m4d17eb6f4c" y="221.269545"/>
     <use style="fill:#d62728;stroke:#d62728;" x="174.295698" xlink:href="#m4d17eb6f4c" y="253.39135"/>
     <use style="fill:#d62728;stroke:#d62728;" x="177.779796" xlink:href="#m4d17eb6f4c" y="260.866828"/>
     <use style="fill:#d62728;stroke:#d62728;" x="181.263894" xlink:href="#m4d17eb6f4c" y="275.003117"/>
     <use style="fill:#d62728;stroke:#d62728;" x="184.747991" xlink:href="#m4d17eb6f4c" y="270.973889"/>
     <use style="fill:#d62728;stroke:#d62728;" x="188.232089" xlink:href="#m4d17eb6f4c" y="264.397741"/>
     <use style="fill:#d62728;stroke:#d62728;" x="191.716186" xlink:href="#m4d17eb6f4c" y="270.55062"/>
     <use style="fill:#d62728;stroke:#d62728;" x="195.200284" xlink:href="#m4d17eb6f4c" y="262.574499"/>
     <use style="fill:#d62728;stroke:#d62728;" x="198.684381" xlink:href="#m4d17eb6f4c" y="264.226828"/>
     <use style="fill:#d62728;stroke:#d62728;" x="202.168479" xlink:href="#m4d17eb6f4c" y="262.594828"/>
     <use style="fill:#d62728;stroke:#d62728;" x="205.652577" xlink:href="#m4d17eb6f4c" y="249.721772"/>
     <use style="fill:#d62728;stroke:#d62728;" x="209.136674" xlink:href="#m4d17eb6f4c" y="226.306828"/>
     <use style="fill:#d62728;stroke:#d62728;" x="212.620772" xlink:href="#m4d17eb6f4c" y="199.688982"/>
     <use style="fill:#d62728;stroke:#d62728;" x="216.104869" xlink:href="#m4d17eb6f4c" y="182.775356"/>
     <use style="fill:#d62728;stroke:#d62728;" x="219.588967" xlink:href="#m4d17eb6f4c" y="175.227148"/>
     <use style="fill:#d62728;stroke:#d62728;" x="223.073064" xlink:href="#m4d17eb6f4c" y="159.960723"/>
     <use style="fill:#d62728;stroke:#d62728;" x="226.557162" xlink:href="#m4d17eb6f4c" y="179.629495"/>
     <use style="fill:#d62728;stroke:#d62728;" x="230.041259" xlink:href="#m4d17eb6f4c" y="204.998428"/>
     <use style="fill:#d62728;stroke:#d62728;" x="233.525357" xlink:href="#m4d17eb6f4c" y="237.633657"/>
     <use style="fill:#d62728;stroke:#d62728;" x="237.009455" xlink:href="#m4d17eb6f4c" y="240.320786"/>
     <use style="fill:#d62728;stroke:#d62728;" x="240.493552" xlink:href="#m4d17eb6f4c" y="257.753361"/>
     <use style="fill:#d62728;stroke:#d62728;" x="243.97765" xlink:href="#m4d17eb6f4c" y="271.383414"/>
     <use style="fill:#d62728;stroke:#d62728;" x="247.461747" xlink:href="#m4d17eb6f4c" y="267.243971"/>
     <use style="fill:#d62728;stroke:#d62728;" x="250.945845" xlink:href="#m4d17eb6f4c" y="265.150828"/>
     <use style="fill:#d62728;stroke:#d62728;" x="254.429942" xlink:href="#m4d17eb6f4c" y="267.922828"/>
     <use style="fill:#d62728;stroke:#d62728;" x="257.91404" xlink:href="#m4d17eb6f4c" y="264.139863"/>
     <use style="fill:#d62728;stroke:#d62728;" x="261.398137" xlink:href="#m4d17eb6f4c" y="267.401915"/>
     <use style="fill:#d62728;stroke:#d62728;" x="264.882235" xlink:href="#m4d17eb6f4c" y="252.718325"/>
     <use style="fill:#d62728;stroke:#d62728;" x="268.366333" xlink:href="#m4d17eb6f4c" y="231.433228"/>
     <use style="fill:#d62728;stroke:#d62728;" x="271.85043" xlink:href="#m4d17eb6f4c" y="218.304028"/>
     <use style="fill:#d62728;stroke:#d62728;" x="275.334528" xlink:href="#m4d17eb6f4c" y="218.210404"/>
     <use style="fill:#d62728;stroke:#d62728;" x="278.818625" xlink:href="#m4d17eb6f4c" y="199.758894"/>
     <use style="fill:#d62728;stroke:#d62728;" x="282.302723" xlink:href="#m4d17eb6f4c" y="190.03473"/>
     <use style="fill:#d62728;stroke:#d62728;" x="285.78682" xlink:href="#m4d17eb6f4c" y="198.499236"/>
     <use style="fill:#d62728;stroke:#d62728;" x="289.270918" xlink:href="#m4d17eb6f4c" y="217.922224"/>
     <use style="fill:#d62728;stroke:#d62728;" x="292.755016" xlink:href="#m4d17eb6f4c" y="242.098518"/>
     <use style="fill:#d62728;stroke:#d62728;" x="296.239113" xlink:href="#m4d17eb6f4c" y="263.689228"/>
     <use style="fill:#d62728;stroke:#d62728;" x="299.723211" xlink:href="#m4d17eb6f4c" y="261.332059"/>
     <use style="fill:#d62728;stroke:#d62728;" x="303.207308" xlink:href="#m4d17eb6f4c" y="266.536828"/>
     <use style="fill:#d62728;stroke:#d62728;" x="306.691406" xlink:href="#m4d17eb6f4c" y="271.618828"/>
     <use style="fill:#d62728;stroke:#d62728;" x="310.175503" xlink:href="#m4d17eb6f4c" y="257.753361"/>
     <use style="fill:#d62728;stroke:#d62728;" x="313.659601" xlink:href="#m4d17eb6f4c" y="264.784715"/>
     <use style="fill:#d62728;stroke:#d62728;" x="317.143698" xlink:href="#m4d17eb6f4c" y="266.458375"/>
     <use style="fill:#d62728;stroke:#d62728;" x="320.627796" xlink:href="#m4d17eb6f4c" y="249.932365"/>
     <use style="fill:#d62728;stroke:#d62728;" x="324.111894" xlink:href="#m4d17eb6f4c" y="253.114023"/>
     <use style="fill:#d62728;stroke:#d62728;" x="327.595991" xlink:href="#m4d17eb6f4c" y="245.542755"/>
     <use style="fill:#d62728;stroke:#d62728;" x="331.080089" xlink:href="#m4d17eb6f4c" y="243.120723"/>
     <use style="fill:#d62728;stroke:#d62728;" x="334.564186" xlink:href="#m4d17eb6f4c" y="237.040144"/>
     <use style="fill:#d62728;stroke:#d62728;" x="338.048284" xlink:href="#m4d17eb6f4c" y="237.37981"/>
     <use style="fill:#d62728;stroke:#d62728;" x="341.532381" xlink:href="#m4d17eb6f4c" y="240.868108"/>
     <use style="fill:#d62728;stroke:#d62728;" x="345.016479" xlink:href="#m4d17eb6f4c" y="240.130828"/>
     <use style="fill:#d62728;stroke:#d62728;" x="348.500577" xlink:href="#m4d17eb6f4c" y="249.932365"/>
     <use style="fill:#d62728;stroke:#d62728;" x="351.984674" xlink:href="#m4d17eb6f4c" y="245.291157"/>
     <use style="fill:#d62728;stroke:#d62728;" x="355.468772" xlink:href="#m4d17eb6f4c" y="267.270593"/>
     <use style="fill:#d62728;stroke:#d62728;" x="358.952869" xlink:href="#m4d17eb6f4c" y="260.628091"/>
     <use style="fill:#d62728;stroke:#d62728;" x="362.436967" xlink:href="#m4d17eb6f4c" y="261.422966"/>
     <use style="fill:#d62728;stroke:#d62728;" x="365.921064" xlink:href="#m4d17eb6f4c" y="270.788266"/>
     <use style="fill:#d62728;stroke:#d62728;" x="369.405162" xlink:href="#m4d17eb6f4c" y="274.35852"/>
     <use style="fill:#d62728;stroke:#d62728;" x="372.889259" xlink:href="#m4d17eb6f4c" y="253.711448"/>
     <use style="fill:#d62728;stroke:#d62728;" x="376.373357" xlink:href="#m4d17eb6f4c" y="258.001986"/>
     <use style="fill:#d62728;stroke:#d62728;" x="379.857455" xlink:href="#m4d17eb6f4c" y="258.090073"/>
     <use style="fill:#d62728;stroke:#d62728;" x="383.341552" xlink:href="#m4d17eb6f4c" y="256.042828"/>
     <use style="fill:#d62728;stroke:#d62728;" x="386.82565" xlink:href="#m4d17eb6f4c" y="250.12367"/>
     <use style="fill:#d62728;stroke:#d62728;" x="390.309747" xlink:href="#m4d17eb6f4c" y="249.353768"/>
     <use style="fill:#d62728;stroke:#d62728;" x="393.793845" xlink:href="#m4d17eb6f4c" y="235.511751"/>
     <use style="fill:#d62728;stroke:#d62728;" x="397.277942" xlink:href="#m4d17eb6f4c" y="236.117775"/>
     <use style="fill:#d62728;stroke:#d62728;" x="400.76204" xlink:href="#m4d17eb6f4c" y="249.348663"/>
     <use style="fill:#d62728;stroke:#d62728;" x="404.246138" xlink:href="#m4d17eb6f4c" y="257.687751"/>
     <use style="fill:#d62728;stroke:#d62728;" x="407.730235" xlink:href="#m4d17eb6f4c" y="254.276059"/>
     <use style="fill:#d62728;stroke:#d62728;" x="411.214333" xlink:href="#m4d17eb6f4c" y="263.308567"/>
     <use style="fill:#d62728;stroke:#d62728;" x="414.69843" xlink:href="#m4d17eb6f4c" y="260.628091"/>
     <use style="fill:#d62728;stroke:#d62728;" x="418.182528" xlink:href="#m4d17eb6f4c" y="268.267176"/>
     <use style="fill:#d62728;stroke:#d62728;" x="421.666625" xlink:href="#m4d17eb6f4c" y="266.690828"/>
     <use style="fill:#d62728;stroke:#d62728;" x="425.150723" xlink:href="#m4d17eb6f4c" y="269.182828"/>
     <use style="fill:#d62728;stroke:#d62728;" x="428.63482" xlink:href="#m4d17eb6f4c" y="273.331609"/>
     <use style="fill:#d62728;stroke:#d62728;" x="432.118918" xlink:href="#m4d17eb6f4c" y="263.111055"/>
     <use style="fill:#d62728;stroke:#d62728;" x="435.603016" xlink:href="#m4d17eb6f4c" y="245.207412"/>
     <use style="fill:#d62728;stroke:#d62728;" x="439.087113" xlink:href="#m4d17eb6f4c" y="251.220651"/>
     <use style="fill:#d62728;stroke:#d62728;" x="442.571211" xlink:href="#m4d17eb6f4c" y="255.905295"/>
     <use style="fill:#d62728;stroke:#d62728;" x="446.055308" xlink:href="#m4d17eb6f4c" y="242.941431"/>
     <use style="fill:#d62728;stroke:#d62728;" x="449.539406" xlink:href="#m4d17eb6f4c" y="243.474132"/>
     <use style="fill:#d62728;stroke:#d62728;" x="453.023503" xlink:href="#m4d17eb6f4c" y="239.238654"/>
     <use style="fill:#d62728;stroke:#d62728;" x="456.507601" xlink:href="#m4d17eb6f4c" y="245.094593"/>
     <use style="fill:#d62728;stroke:#d62728;" x="459.991698" xlink:href="#m4d17eb6f4c" y="261.762828"/>
     <use style="fill:#d62728;stroke:#d62728;" x="463.475796" xlink:href="#m4d17eb6f4c" y="264.694676"/>
     <use style="fill:#d62728;stroke:#d62728;" x="466.959894" xlink:href="#m4d17eb6f4c" y="264.603491"/>
     <use style="fill:#d62728;stroke:#d62728;" x="470.443991" xlink:href="#m4d17eb6f4c" y="264.312782"/>
     <use style="fill:#d62728;stroke:#d62728;" x="473.928089" xlink:href="#m4d17eb6f4c" y="271.080338"/>
     <use style="fill:#d62728;stroke:#d62728;" x="477.412186" xlink:href="#m4d17eb6f4c" y="274.878654"/>
    </g>
   </g>
   <g id="line2d_26">
    <path clip-path="url(#pee66af7d83)" d="M 82.315523 275.225865 
L 85.79962 269.506828 
L 89.283718 249.922828 
L 92.767816 183.804456 
L 96.251913 85.237134 
L 99.736011 43.073515 
L 103.220108 81.042893 
L 106.704206 162.003249 
L 110.188303 230.653471 
L 113.672401 260.515492 
L 117.156498 273.538828 
L 120.640596 275.743828 
" style="fill:none;stroke:#1f77b4;stroke-linecap:square;stroke-width:1.5;"/>
    <defs>
     <path d="M -3 3 
L 3 3 
L 3 -3 
L -3 -3 
z
" id="m9e0ac68bfd" style="stroke:#1f77b4;stroke-linejoin:miter;"/>
    </defs>
    <g clip-path="url(#pee66af7d83)">
     <use style="fill:#1f77b4;stroke:#1f77b4;stroke-linejoin:miter;" x="82.315523" xlink:href="#m9e0ac68bfd" y="275.225865"/>
     <use style="fill:#1f77b4;stroke:#1f77b4;stroke-linejoin:miter;" x="85.79962" xlink:href="#m9e0ac68bfd" y="269.506828"/>
     <use style="fill:#1f77b4;stroke:#1f77b4;stroke-linejoin:miter;" x="89.283718" xlink:href="#m9e0ac68bfd" y="249.922828"/>
     <use style="fill:#1f77b4;stroke:#1f77b4;stroke-linejoin:miter;" x="92.767816" xlink:href="#m9e0ac68bfd" y="183.804456"/>
     <use style="fill:#1f77b4;stroke:#1f77b4;stroke-linejoin:miter;" x="96.251913" xlink:href="#m9e0ac68bfd" y="85.237134"/>
     <use style="fill:#1f77b4;stroke:#1f77b4;stroke-linejoin:miter;" x="99.736011" xlink:href="#m9e0ac68bfd" y="43.073515"/>
     <use style="fill:#1f77b4;stroke:#1f77b4;stroke-linejoin:miter;" x="103.220108" xlink:href="#m9e0ac68bfd" y="81.042893"/>
     <use style="fill:#1f77b4;stroke:#1f77b4;stroke-linejoin:miter;" x="106.704206" xlink:href="#m9e0ac68bfd" y="162.003249"/>
     <use style="fill:#1f77b4;stroke:#1f77b4;stroke-linejoin:miter;" x="110.188303" xlink:href="#m9e0ac68bfd" y="230.653471"/>
     <use style="fill:#1f77b4;stroke:#1f77b4;stroke-linejoin:miter;" x="113.672401" xlink:href="#m9e0ac68bfd" y="260.515492"/>
     <use style="fill:#1f77b4;stroke:#1f77b4;stroke-linejoin:miter;" x="117.156498" xlink:href="#m9e0ac68bfd" y="273.538828"/>
     <use style="fill:#1f77b4;stroke:#1f77b4;stroke-linejoin:miter;" x="120.640596" xlink:href="#m9e0ac68bfd" y="275.743828"/>
    </g>
   </g>
   <g id="line2d_27">
    <path clip-path="url(#pee66af7d83)" d="M 138.061084 278.156079 
L 141.545181 270.904475 
L 145.029279 250.864367 
L 148.513377 222.312447 
L 151.997474 190.211035 
L 155.481572 166.424982 
L 158.965669 138.821929 
L 162.449767 142.453354 
L 165.933864 142.867682 
L 169.417962 174.635788 
L 172.902059 225.964273 
L 176.386157 259.111828 
L 179.870255 274.72791 
L 183.354352 276.950226 
" style="fill:none;stroke:#1f77b4;stroke-linecap:square;stroke-width:1.5;"/>
    <g clip-path="url(#pee66af7d83)">
     <use style="fill:#1f77b4;stroke:#1f77b4;stroke-linejoin:miter;" x="138.061084" xlink:href="#m9e0ac68bfd" y="278.156079"/>
     <use style="fill:#1f77b4;stroke:#1f77b4;stroke-linejoin:miter;" x="141.545181" xlink:href="#m9e0ac68bfd" y="270.904475"/>
     <use style="fill:#1f77b4;stroke:#1f77b4;stroke-linejoin:miter;" x="145.029279" xlink:href="#m9e0ac68bfd" y="250.864367"/>
     <use style="fill:#1f77b4;stroke:#1f77b4;stroke-linejoin:miter;" x="148.513377" xlink:href="#m9e0ac68bfd" y="222.312447"/>
     <use style="fill:#1f77b4;stroke:#1f77b4;stroke-linejoin:miter;" x="151.997474" xlink:href="#m9e0ac68bfd" y="190.211035"/>
     <use style="fill:#1f77b4;stroke:#1f77b4;stroke-linejoin:miter;" x="155.481572" xlink:href="#m9e0ac68bfd" y="166.424982"/>
     <use style="fill:#1f77b4;stroke:#1f77b4;stroke-linejoin:miter;" x="158.965669" xlink:href="#m9e0ac68bfd" y="138.821929"/>
     <use style="fill:#1f77b4;stroke:#1f77b4;stroke-linejoin:miter;" x="162.449767" xlink:href="#m9e0ac68bfd" y="142.453354"/>
     <use style="fill:#1f77b4;stroke:#1f77b4;stroke-linejoin:miter;" x="165.933864" xlink:href="#m9e0ac68bfd" y="142.867682"/>
     <use style="fill:#1f77b4;stroke:#1f77b4;stroke-linejoin:miter;" x="169.417962" xlink:href="#m9e0ac68bfd" y="174.635788"/>
     <use style="fill:#1f77b4;stroke:#1f77b4;stroke-linejoin:miter;" x="172.902059" xlink:href="#m9e0ac68bfd" y="225.964273"/>
     <use style="fill:#1f77b4;stroke:#1f77b4;stroke-linejoin:miter;" x="176.386157" xlink:href="#m9e0ac68bfd" y="259.111828"/>
     <use style="fill:#1f77b4;stroke:#1f77b4;stroke-linejoin:miter;" x="179.870255" xlink:href="#m9e0ac68bfd" y="274.72791"/>
     <use style="fill:#1f77b4;stroke:#1f77b4;stroke-linejoin:miter;" x="183.354352" xlink:href="#m9e0ac68bfd" y="276.950226"/>
    </g>
   </g>
   <g id="line2d_28">
    <path clip-path="url(#pee66af7d83)" d="M 200.77484 277.555073 
L 204.258937 275.234129 
L 207.743035 275.225865 
L 211.227133 273.342523 
L 214.71123 275.876747 
L 218.195328 272.790731 
L 221.679425 272.007881 
L 225.163523 273.881685 
L 228.64762 276.313747 
L 232.131718 276.869697 
L 235.615816 278.117835 
" style="fill:none;stroke:#1f77b4;stroke-linecap:square;stroke-width:1.5;"/>
    <g clip-path="url(#pee66af7d83)">
     <use style="fill:#1f77b4;stroke:#1f77b4;stroke-linejoin:miter;" x="200.77484" xlink:href="#m9e0ac68bfd" y="277.555073"/>
     <use style="fill:#1f77b4;stroke:#1f77b4;stroke-linejoin:miter;" x="204.258937" xlink:href="#m9e0ac68bfd" y="275.234129"/>
     <use style="fill:#1f77b4;stroke:#1f77b4;stroke-linejoin:miter;" x="207.743035" xlink:href="#m9e0ac68bfd" y="275.225865"/>
     <use style="fill:#1f77b4;stroke:#1f77b4;stroke-linejoin:miter;" x="211.227133" xlink:href="#m9e0ac68bfd" y="273.342523"/>
     <use style="fill:#1f77b4;stroke:#1f77b4;stroke-linejoin:miter;" x="214.71123" xlink:href="#m9e0ac68bfd" y="275.876747"/>
     <use style="fill:#1f77b4;stroke:#1f77b4;stroke-linejoin:miter;" x="218.195328" xlink:href="#m9e0ac68bfd" y="272.790731"/>
     <use style="fill:#1f77b4;stroke:#1f77b4;stroke-linejoin:miter;" x="221.679425" xlink:href="#m9e0ac68bfd" y="272.007881"/>
     <use style="fill:#1f77b4;stroke:#1f77b4;stroke-linejoin:miter;" x="225.163523" xlink:href="#m9e0ac68bfd" y="273.881685"/>
     <use style="fill:#1f77b4;stroke:#1f77b4;stroke-linejoin:miter;" x="228.64762" xlink:href="#m9e0ac68bfd" y="276.313747"/>
     <use style="fill:#1f77b4;stroke:#1f77b4;stroke-linejoin:miter;" x="232.131718" xlink:href="#m9e0ac68bfd" y="276.869697"/>
     <use style="fill:#1f77b4;stroke:#1f77b4;stroke-linejoin:miter;" x="235.615816" xlink:href="#m9e0ac68bfd" y="278.117835"/>
    </g>
   </g>
   <g id="line2d_29">
    <path clip-path="url(#pee66af7d83)" d="M 263.488596 277.098319 
L 266.972694 278.163338 
L 270.456791 275.787004 
L 273.940889 274.791293 
L 277.424986 274.887192 
L 280.909084 275.183996 
L 284.393181 274.298428 
L 287.877279 277.522506 
L 291.361377 277.041712 
L 294.845474 277.580118 
L 298.329572 277.613181 
" style="fill:none;stroke:#1f77b4;stroke-linecap:square;stroke-width:1.5;"/>
    <g clip-path="url(#pee66af7d83)">
     <use style="fill:#1f77b4;stroke:#1f77b4;stroke-linejoin:miter;" x="263.488596" xlink:href="#m9e0ac68bfd" y="277.098319"/>
     <use style="fill:#1f77b4;stroke:#1f77b4;stroke-linejoin:miter;" x="266.972694" xlink:href="#m9e0ac68bfd" y="278.163338"/>
     <use style="fill:#1f77b4;stroke:#1f77b4;stroke-linejoin:miter;" x="270.456791" xlink:href="#m9e0ac68bfd" y="275.787004"/>
     <use style="fill:#1f77b4;stroke:#1f77b4;stroke-linejoin:miter;" x="273.940889" xlink:href="#m9e0ac68bfd" y="274.791293"/>
     <use style="fill:#1f77b4;stroke:#1f77b4;stroke-linejoin:miter;" x="277.424986" xlink:href="#m9e0ac68bfd" y="274.887192"/>
     <use style="fill:#1f77b4;stroke:#1f77b4;stroke-linejoin:miter;" x="280.909084" xlink:href="#m9e0ac68bfd" y="275.183996"/>
     <use style="fill:#1f77b4;stroke:#1f77b4;stroke-linejoin:miter;" x="284.393181" xlink:href="#m9e0ac68bfd" y="274.298428"/>
     <use style="fill:#1f77b4;stroke:#1f77b4;stroke-linejoin:miter;" x="287.877279" xlink:href="#m9e0ac68bfd" y="277.522506"/>
     <use style="fill:#1f77b4;stroke:#1f77b4;stroke-linejoin:miter;" x="291.361377" xlink:href="#m9e0ac68bfd" y="277.041712"/>
     <use style="fill:#1f77b4;stroke:#1f77b4;stroke-linejoin:miter;" x="294.845474" xlink:href="#m9e0ac68bfd" y="277.580118"/>
     <use style="fill:#1f77b4;stroke:#1f77b4;stroke-linejoin:miter;" x="298.329572" xlink:href="#m9e0ac68bfd" y="277.613181"/>
    </g>
   </g>
   <g id="line2d_30">
    <path clip-path="url(#pee66af7d83)" d="M 319.234157 278.127713 
L 322.718255 277.003518 
L 326.202352 278.154244 
L 329.68645 276.945657 
L 333.170547 275.384564 
L 336.654645 275.290983 
L 340.138742 275.322709 
L 343.62284 275.77274 
L 347.106938 275.856483 
L 350.591035 278.719039 
L 354.075133 278.150552 
L 357.55923 278.717106 
L 361.043328 277.586246 
" style="fill:none;stroke:#1f77b4;stroke-linecap:square;stroke-width:1.5;"/>
    <g clip-path="url(#pee66af7d83)">
     <use style="fill:#1f77b4;stroke:#1f77b4;stroke-linejoin:miter;" x="319.234157" xlink:href="#m9e0ac68bfd" y="278.127713"/>
     <use style="fill:#1f77b4;stroke:#1f77b4;stroke-linejoin:miter;" x="322.718255" xlink:href="#m9e0ac68bfd" y="277.003518"/>
     <use style="fill:#1f77b4;stroke:#1f77b4;stroke-linejoin:miter;" x="326.202352" xlink:href="#m9e0ac68bfd" y="278.154244"/>
     <use style="fill:#1f77b4;stroke:#1f77b4;stroke-linejoin:miter;" x="329.68645" xlink:href="#m9e0ac68bfd" y="276.945657"/>
     <use style="fill:#1f77b4;stroke:#1f77b4;stroke-linejoin:miter;" x="333.170547" xlink:href="#m9e0ac68bfd" y="275.384564"/>
     <use style="fill:#1f77b4;stroke:#1f77b4;stroke-linejoin:miter;" x="336.654645" xlink:href="#m9e0ac68bfd" y="275.290983"/>
     <use style="fill:#1f77b4;stroke:#1f77b4;stroke-linejoin:miter;" x="340.138742" xlink:href="#m9e0ac68bfd" y="275.322709"/>
     <use style="fill:#1f77b4;stroke:#1f77b4;stroke-linejoin:miter;" x="343.62284" xlink:href="#m9e0ac68bfd" y="275.77274"/>
     <use style="fill:#1f77b4;stroke:#1f77b4;stroke-linejoin:miter;" x="347.106938" xlink:href="#m9e0ac68bfd" y="275.856483"/>
     <use style="fill:#1f77b4;stroke:#1f77b4;stroke-linejoin:miter;" x="350.591035" xlink:href="#m9e0ac68bfd" y="278.719039"/>
     <use style="fill:#1f77b4;stroke:#1f77b4;stroke-linejoin:miter;" x="354.075133" xlink:href="#m9e0ac68bfd" y="278.150552"/>
     <use style="fill:#1f77b4;stroke:#1f77b4;stroke-linejoin:miter;" x="357.55923" xlink:href="#m9e0ac68bfd" y="278.717106"/>
     <use style="fill:#1f77b4;stroke:#1f77b4;stroke-linejoin:miter;" x="361.043328" xlink:href="#m9e0ac68bfd" y="277.586246"/>
    </g>
   </g>
   <g id="line2d_31">
    <path clip-path="url(#pee66af7d83)" d="M 374.979718 276.972771 
L 378.463816 277.607284 
L 381.947913 275.242358 
L 385.432011 278.093201 
L 388.916108 277.551881 
L 392.400206 275.779888 
L 395.884303 274.690828 
L 399.368401 277.003518 
L 402.852498 278.109772 
L 406.336596 277.551881 
L 409.820694 277.041712 
L 413.304791 278.141181 
L 416.788889 278.148694 
" style="fill:none;stroke:#1f77b4;stroke-linecap:square;stroke-width:1.5;"/>
    <g clip-path="url(#pee66af7d83)">
     <use style="fill:#1f77b4;stroke:#1f77b4;stroke-linejoin:miter;" x="374.979718" xlink:href="#m9e0ac68bfd" y="276.972771"/>
     <use style="fill:#1f77b4;stroke:#1f77b4;stroke-linejoin:miter;" x="378.463816" xlink:href="#m9e0ac68bfd" y="277.607284"/>
     <use style="fill:#1f77b4;stroke:#1f77b4;stroke-linejoin:miter;" x="381.947913" xlink:href="#m9e0ac68bfd" y="275.242358"/>
     <use style="fill:#1f77b4;stroke:#1f77b4;stroke-linejoin:miter;" x="385.432011" xlink:href="#m9e0ac68bfd" y="278.093201"/>
     <use style="fill:#1f77b4;stroke:#1f77b4;stroke-linejoin:miter;" x="388.916108" xlink:href="#m9e0ac68bfd" y="277.551881"/>
     <use style="fill:#1f77b4;stroke:#1f77b4;stroke-linejoin:miter;" x="392.400206" xlink:href="#m9e0ac68bfd" y="275.779888"/>
     <use style="fill:#1f77b4;stroke:#1f77b4;stroke-linejoin:miter;" x="395.884303" xlink:href="#m9e0ac68bfd" y="274.690828"/>
     <use style="fill:#1f77b4;stroke:#1f77b4;stroke-linejoin:miter;" x="399.368401" xlink:href="#m9e0ac68bfd" y="277.003518"/>
     <use style="fill:#1f77b4;stroke:#1f77b4;stroke-linejoin:miter;" x="402.852498" xlink:href="#m9e0ac68bfd" y="278.109772"/>
     <use style="fill:#1f77b4;stroke:#1f77b4;stroke-linejoin:miter;" x="406.336596" xlink:href="#m9e0ac68bfd" y="277.551881"/>
     <use style="fill:#1f77b4;stroke:#1f77b4;stroke-linejoin:miter;" x="409.820694" xlink:href="#m9e0ac68bfd" y="277.041712"/>
     <use style="fill:#1f77b4;stroke:#1f77b4;stroke-linejoin:miter;" x="413.304791" xlink:href="#m9e0ac68bfd" y="278.141181"/>
     <use style="fill:#1f77b4;stroke:#1f77b4;stroke-linejoin:miter;" x="416.788889" xlink:href="#m9e0ac68bfd" y="278.148694"/>
    </g>
   </g>
   <g id="line2d_32">
    <path clip-path="url(#pee66af7d83)" d="M 430.725279 275.451717 
L 434.209377 278.129663 
L 437.693474 278.184393 
L 441.177572 275.544439 
L 444.661669 277.542219 
L 448.145767 274.28859 
L 451.629864 276.355609 
L 455.113962 277.012133 
L 458.598059 274.700159 
L 462.082157 274.535851 
L 465.566255 277.074462 
L 469.050352 275.306914 
L 472.53445 277.586246 
L 476.018547 277.598344 
L 479.502645 278.168702 
" style="fill:none;stroke:#1f77b4;stroke-linecap:square;stroke-width:1.5;"/>
    <g clip-path="url(#pee66af7d83)">
     <use style="fill:#1f77b4;stroke:#1f77b4;stroke-linejoin:miter;" x="430.725279" xlink:href="#m9e0ac68bfd" y="275.451717"/>
     <use style="fill:#1f77b4;stroke:#1f77b4;stroke-linejoin:miter;" x="434.209377" xlink:href="#m9e0ac68bfd" y="278.129663"/>
     <use style="fill:#1f77b4;stroke:#1f77b4;stroke-linejoin:miter;" x="437.693474" xlink:href="#m9e0ac68bfd" y="278.184393"/>
     <use style="fill:#1f77b4;stroke:#1f77b4;stroke-linejoin:miter;" x="441.177572" xlink:href="#m9e0ac68bfd" y="275.544439"/>
     <use style="fill:#1f77b4;stroke:#1f77b4;stroke-linejoin:miter;" x="444.661669" xlink:href="#m9e0ac68bfd" y="277.542219"/>
     <use style="fill:#1f77b4;stroke:#1f77b4;stroke-linejoin:miter;" x="448.145767" xlink:href="#m9e0ac68bfd" y="274.28859"/>
     <use style="fill:#1f77b4;stroke:#1f77b4;stroke-linejoin:miter;" x="451.629864" xlink:href="#m9e0ac68bfd" y="276.355609"/>
     <use style="fill:#1f77b4;stroke:#1f77b4;stroke-linejoin:miter;" x="455.113962" xlink:href="#m9e0ac68bfd" y="277.012133"/>
     <use style="fill:#1f77b4;stroke:#1f77b4;stroke-linejoin:miter;" x="458.598059" xlink:href="#m9e0ac68bfd" y="274.700159"/>
     <use style="fill:#1f77b4;stroke:#1f77b4;stroke-linejoin:miter;" x="462.082157" xlink:href="#m9e0ac68bfd" y="274.535851"/>
     <use style="fill:#1f77b4;stroke:#1f77b4;stroke-linejoin:miter;" x="465.566255" xlink:href="#m9e0ac68bfd" y="277.074462"/>
     <use style="fill:#1f77b4;stroke:#1f77b4;stroke-linejoin:miter;" x="469.050352" xlink:href="#m9e0ac68bfd" y="275.306914"/>
     <use style="fill:#1f77b4;stroke:#1f77b4;stroke-linejoin:miter;" x="472.53445" xlink:href="#m9e0ac68bfd" y="277.586246"/>
     <use style="fill:#1f77b4;stroke:#1f77b4;stroke-linejoin:miter;" x="476.018547" xlink:href="#m9e0ac68bfd" y="277.598344"/>
     <use style="fill:#1f77b4;stroke:#1f77b4;stroke-linejoin:miter;" x="479.502645" xlink:href="#m9e0ac68bfd" y="278.168702"/>
    </g>
   </g>
   <g id="patch_3">
    <path d="M 61.410938 279.010828 
L 61.410938 12.898828 
" style="fill:none;stroke:#000000;stroke-linecap:square;stroke-linejoin:miter;stroke-width:0.8;"/>
   </g>
   <g id="patch_4">
    <path d="M 489.954938 279.010828 
L 489.954938 12.898828 
" style="fill:none;stroke:#000000;stroke-linecap:square;stroke-linejoin:miter;stroke-width:0.8;"/>
   </g>
   <g id="patch_5">
    <path d="M 61.410938 279.010828 
L 489.954938 279.010828 
" style="fill:none;stroke:#000000;stroke-linecap:square;stroke-linejoin:miter;stroke-width:0.8;"/>
   </g>
   <g id="patch_6">
    <path d="M 61.410938 12.898828 
L 489.954938 12.898828 
" style="fill:none;stroke:#000000;stroke-linecap:square;stroke-linejoin:miter;stroke-width:0.8;"/>
   </g>
   <g id="text_15">
    <!-- (A) -->
    <defs>
     <path d="M 34.1875 63.1875 
L 20.796875 26.90625 
L 47.609375 26.90625 
z
M 28.609375 72.90625 
L 39.796875 72.90625 
L 67.578125 0 
L 57.328125 0 
L 50.6875 18.703125 
L 17.828125 18.703125 
L 11.1875 0 
L 0.78125 0 
z
" id="DejaVuSans-41"/>
    </defs>
    <g transform="translate(64.895035 34.187788)scale(0.2 -0.2)">
     <use xlink:href="#DejaVuSans-28"/>
     <use x="39.013672" xlink:href="#DejaVuSans-41"/>
     <use x="107.421875" xlink:href="#DejaVuSans-29"/>
    </g>
   </g>
   <g id="legend_1">
    <g id="patch_7">
     <path d="M 328.954938 87.611328 
L 475.954938 87.611328 
Q 479.954938 87.611328 479.954938 83.611328 
L 479.954938 26.898828 
Q 479.954938 22.898828 475.954938 22.898828 
L 328.954938 22.898828 
Q 324.954938 22.898828 324.954938 26.898828 
L 324.954938 83.611328 
Q 324.954938 87.611328 328.954938 87.611328 
z
" style="fill:#ffffff;opacity:0.8;stroke:#cccccc;stroke-linejoin:miter;"/>
    </g>
    <g id="LineCollection_9">
     <path d="M 352.954938 49.095703 
L 352.954938 29.095703 
" style="fill:none;stroke:#d62728;stroke-width:1.5;"/>
    </g>
    <g id="line2d_33">
     <path d="M 332.954938 39.095703 
L 372.954938 39.095703 
" style="fill:none;stroke:#d62728;stroke-linecap:square;stroke-width:1.5;"/>
    </g>
    <g id="line2d_34">
     <g>
      <use style="fill:#d62728;stroke:#d62728;" x="352.954938" xlink:href="#m4d17eb6f4c" y="39.095703"/>
     </g>
    </g>
    <g id="text_16">
     <!-- $z$ initial -->
     <defs>
      <path d="M 11.625 54.6875 
L 54.296875 54.6875 
L 52.6875 46.484375 
L 11.53125 7.171875 
L 45.515625 7.171875 
L 44.09375 0 
L -0.296875 0 
L 1.3125 8.203125 
L 42.484375 47.515625 
L 10.203125 47.515625 
z
" id="DejaVuSans-Oblique-7a"/>
     </defs>
     <g transform="translate(388.954938 46.095703)scale(0.2 -0.2)">
      <use transform="translate(0 0.015625)" xlink:href="#DejaVuSans-Oblique-7a"/>
      <use transform="translate(52.490234 0.015625)" xlink:href="#DejaVuSans-20"/>
      <use transform="translate(84.277344 0.015625)" xlink:href="#DejaVuSans-69"/>
      <use transform="translate(112.060547 0.015625)" xlink:href="#DejaVuSans-6e"/>
      <use transform="translate(175.439453 0.015625)" xlink:href="#DejaVuSans-69"/>
      <use transform="translate(203.222656 0.015625)" xlink:href="#DejaVuSans-74"/>
      <use transform="translate(242.431641 0.015625)" xlink:href="#DejaVuSans-69"/>
      <use transform="translate(270.214844 0.015625)" xlink:href="#DejaVuSans-61"/>
      <use transform="translate(331.494141 0.015625)" xlink:href="#DejaVuSans-6c"/>
     </g>
    </g>
    <g id="LineCollection_10">
     <path d="M 352.954938 78.451953 
L 352.954938 58.451953 
" style="fill:none;stroke:#1f77b4;stroke-width:1.5;"/>
    </g>
    <g id="line2d_35">
     <path d="M 332.954938 68.451953 
L 372.954938 68.451953 
" style="fill:none;stroke:#1f77b4;stroke-linecap:square;stroke-width:1.5;"/>
    </g>
    <g id="line2d_36">
     <g>
      <use style="fill:#1f77b4;stroke:#1f77b4;stroke-linejoin:miter;" x="352.954938" xlink:href="#m9e0ac68bfd" y="68.451953"/>
     </g>
    </g>
    <g id="text_17">
     <!-- $z$ cooled -->
     <defs>
      <path d="M 45.40625 46.390625 
L 45.40625 75.984375 
L 54.390625 75.984375 
L 54.390625 0 
L 45.40625 0 
L 45.40625 8.203125 
Q 42.578125 3.328125 38.25 0.953125 
Q 33.9375 -1.421875 27.875 -1.421875 
Q 17.96875 -1.421875 11.734375 6.484375 
Q 5.515625 14.40625 5.515625 27.296875 
Q 5.515625 40.1875 11.734375 48.09375 
Q 17.96875 56 27.875 56 
Q 33.9375 56 38.25 53.625 
Q 42.578125 51.265625 45.40625 46.390625 
z
M 14.796875 27.296875 
Q 14.796875 17.390625 18.875 11.75 
Q 22.953125 6.109375 30.078125 6.109375 
Q 37.203125 6.109375 41.296875 11.75 
Q 45.40625 17.390625 45.40625 27.296875 
Q 45.40625 37.203125 41.296875 42.84375 
Q 37.203125 48.484375 30.078125 48.484375 
Q 22.953125 48.484375 18.875 42.84375 
Q 14.796875 37.203125 14.796875 27.296875 
z
" id="DejaVuSans-64"/>
     </defs>
     <g transform="translate(388.954938 75.451953)scale(0.2 -0.2)">
      <use transform="translate(0 0.015625)" xlink:href="#DejaVuSans-Oblique-7a"/>
      <use transform="translate(52.490234 0.015625)" xlink:href="#DejaVuSans-20"/>
      <use transform="translate(84.277344 0.015625)" xlink:href="#DejaVuSans-63"/>
      <use transform="translate(139.257812 0.015625)" xlink:href="#DejaVuSans-6f"/>
      <use transform="translate(200.439453 0.015625)" xlink:href="#DejaVuSans-6f"/>
      <use transform="translate(261.621094 0.015625)" xlink:href="#DejaVuSans-6c"/>
      <use transform="translate(289.404297 0.015625)" xlink:href="#DejaVuSans-65"/>
      <use transform="translate(350.927734 0.015625)" xlink:href="#DejaVuSans-64"/>
     </g>
    </g>
   </g>
  </g>
 </g>
 <defs>
  <clipPath id="pee66af7d83">
   <rect height="266.112" width="428.544" x="61.410938" y="12.898828"/>
  </clipPath>
 </defs>
</svg>
